<?xml version="1.0" encoding="utf-8" standalone="no"?>
<!DOCTYPE svg PUBLIC "-//W3C//DTD SVG 1.1//EN"
  "http://www.w3.org/Graphics/SVG/1.1/DTD/svg11.dtd">
<!-- Created with matplotlib (https://matplotlib.org/) -->
<svg height="100.724544pt" version="1.1" viewBox="0 0 105.32 100.724544" width="105.32pt" xmlns="http://www.w3.org/2000/svg" xmlns:xlink="http://www.w3.org/1999/xlink">
 <defs>
  <style type="text/css">
*{stroke-linecap:butt;stroke-linejoin:round;white-space:pre;}
  </style>
 </defs>
 <g id="figure_1">
  <g id="patch_1">
   <path d="M 0 100.724544 
L 105.32 100.724544 
L 105.32 0 
L 0 0 
z
" style="fill:none;"/>
  </g>
  <g id="axes_1">
   <g id="patch_2">
    <path d="M 21.62 82.908294 
L 105.32 82.908294 
L 105.32 1.368294 
L 21.62 1.368294 
z
" style="fill:none;"/>
   </g>
   <g id="matplotlib.axis_1">
    <g id="xtick_1">
     <g id="line2d_1">
      <defs>
       <path d="M 0 0 
L 0 -3.5 
" id="m935c5c2aa8" style="stroke:#000000;stroke-width:0.5;"/>
      </defs>
      <g>
       <use style="stroke:#000000;stroke-width:0.5;" x="25.1075" xlink:href="#m935c5c2aa8" y="82.908294"/>
      </g>
     </g>
     <g id="line2d_2">
      <defs>
       <path d="M 0 0 
L 0 3.5 
" id="m7a8c1d4af2" style="stroke:#000000;stroke-width:0.5;"/>
      </defs>
      <g>
       <use style="stroke:#000000;stroke-width:0.5;" x="25.1075" xlink:href="#m7a8c1d4af2" y="1.368294"/>
      </g>
     </g>
     <g id="text_1">
      <!-- 0 -->
      <defs>
       <path d="M 4.15625 35.296875 
Q 4.15625 48 6.765625 55.734375 
Q 9.375 63.484375 14.515625 67.671875 
Q 19.671875 71.875 27.484375 71.875 
Q 33.25 71.875 37.59375 69.546875 
Q 41.9375 67.234375 44.765625 62.859375 
Q 47.609375 58.5 49.21875 52.21875 
Q 50.828125 45.953125 50.828125 35.296875 
Q 50.828125 22.703125 48.234375 14.96875 
Q 45.65625 7.234375 40.5 3 
Q 35.359375 -1.21875 27.484375 -1.21875 
Q 17.140625 -1.21875 11.234375 6.203125 
Q 4.15625 15.140625 4.15625 35.296875 
z
M 13.1875 35.296875 
Q 13.1875 17.671875 17.3125 11.828125 
Q 21.4375 6 27.484375 6 
Q 33.546875 6 37.671875 11.859375 
Q 41.796875 17.71875 41.796875 35.296875 
Q 41.796875 52.984375 37.671875 58.78125 
Q 33.546875 64.59375 27.390625 64.59375 
Q 21.34375 64.59375 17.71875 59.46875 
Q 13.1875 52.9375 13.1875 35.296875 
z
" id="ArialMT-48"/>
      </defs>
      <g transform="translate(22.883125 89.634544)scale(0.08 -0.08)">
       <use xlink:href="#ArialMT-48"/>
      </g>
     </g>
    </g>
    <g id="xtick_2">
     <g id="line2d_3">
      <g>
       <use style="stroke:#000000;stroke-width:0.5;" x="59.9825" xlink:href="#m935c5c2aa8" y="82.908294"/>
      </g>
     </g>
     <g id="line2d_4">
      <g>
       <use style="stroke:#000000;stroke-width:0.5;" x="59.9825" xlink:href="#m7a8c1d4af2" y="1.368294"/>
      </g>
     </g>
     <g id="text_2">
      <!-- 5 -->
      <defs>
       <path d="M 4.15625 18.75 
L 13.375 19.53125 
Q 14.40625 12.796875 18.140625 9.390625 
Q 21.875 6 27.15625 6 
Q 33.5 6 37.890625 10.78125 
Q 42.28125 15.578125 42.28125 23.484375 
Q 42.28125 31 38.0625 35.34375 
Q 33.84375 39.703125 27 39.703125 
Q 22.75 39.703125 19.328125 37.765625 
Q 15.921875 35.84375 13.96875 32.765625 
L 5.71875 33.84375 
L 12.640625 70.609375 
L 48.25 70.609375 
L 48.25 62.203125 
L 19.671875 62.203125 
L 15.828125 42.96875 
Q 22.265625 47.46875 29.34375 47.46875 
Q 38.71875 47.46875 45.15625 40.96875 
Q 51.609375 34.46875 51.609375 24.265625 
Q 51.609375 14.546875 45.953125 7.46875 
Q 39.0625 -1.21875 27.15625 -1.21875 
Q 17.390625 -1.21875 11.203125 4.25 
Q 5.03125 9.71875 4.15625 18.75 
z
" id="ArialMT-53"/>
      </defs>
      <g transform="translate(57.758125 89.634544)scale(0.08 -0.08)">
       <use xlink:href="#ArialMT-53"/>
      </g>
     </g>
    </g>
    <g id="xtick_3">
     <g id="line2d_5">
      <g>
       <use style="stroke:#000000;stroke-width:0.5;" x="94.8575" xlink:href="#m935c5c2aa8" y="82.908294"/>
      </g>
     </g>
     <g id="line2d_6">
      <g>
       <use style="stroke:#000000;stroke-width:0.5;" x="94.8575" xlink:href="#m7a8c1d4af2" y="1.368294"/>
      </g>
     </g>
     <g id="text_3">
      <!-- 10 -->
      <defs>
       <path d="M 37.25 0 
L 28.46875 0 
L 28.46875 56 
Q 25.296875 52.984375 20.140625 49.953125 
Q 14.984375 46.921875 10.890625 45.40625 
L 10.890625 53.90625 
Q 18.265625 57.375 23.78125 62.296875 
Q 29.296875 67.234375 31.59375 71.875 
L 37.25 71.875 
z
" id="ArialMT-49"/>
      </defs>
      <g transform="translate(90.40875 89.634544)scale(0.08 -0.08)">
       <use xlink:href="#ArialMT-49"/>
       <use x="55.615234" xlink:href="#ArialMT-48"/>
      </g>
     </g>
    </g>
    <g id="xtick_4">
     <g id="line2d_7">
      <defs>
       <path d="M 0 0 
L 0 -2 
" id="m6a59e7cfb3" style="stroke:#000000;stroke-width:0.5;"/>
      </defs>
      <g>
       <use style="stroke:#000000;stroke-width:0.5;" x="32.0825" xlink:href="#m6a59e7cfb3" y="82.908294"/>
      </g>
     </g>
     <g id="line2d_8">
      <defs>
       <path d="M 0 0 
L 0 2 
" id="m2a85740cb2" style="stroke:#000000;stroke-width:0.5;"/>
      </defs>
      <g>
       <use style="stroke:#000000;stroke-width:0.5;" x="32.0825" xlink:href="#m2a85740cb2" y="1.368294"/>
      </g>
     </g>
    </g>
    <g id="xtick_5">
     <g id="line2d_9">
      <g>
       <use style="stroke:#000000;stroke-width:0.5;" x="39.0575" xlink:href="#m6a59e7cfb3" y="82.908294"/>
      </g>
     </g>
     <g id="line2d_10">
      <g>
       <use style="stroke:#000000;stroke-width:0.5;" x="39.0575" xlink:href="#m2a85740cb2" y="1.368294"/>
      </g>
     </g>
    </g>
    <g id="xtick_6">
     <g id="line2d_11">
      <g>
       <use style="stroke:#000000;stroke-width:0.5;" x="46.0325" xlink:href="#m6a59e7cfb3" y="82.908294"/>
      </g>
     </g>
     <g id="line2d_12">
      <g>
       <use style="stroke:#000000;stroke-width:0.5;" x="46.0325" xlink:href="#m2a85740cb2" y="1.368294"/>
      </g>
     </g>
    </g>
    <g id="xtick_7">
     <g id="line2d_13">
      <g>
       <use style="stroke:#000000;stroke-width:0.5;" x="53.0075" xlink:href="#m6a59e7cfb3" y="82.908294"/>
      </g>
     </g>
     <g id="line2d_14">
      <g>
       <use style="stroke:#000000;stroke-width:0.5;" x="53.0075" xlink:href="#m2a85740cb2" y="1.368294"/>
      </g>
     </g>
    </g>
    <g id="xtick_8">
     <g id="line2d_15">
      <g>
       <use style="stroke:#000000;stroke-width:0.5;" x="66.9575" xlink:href="#m6a59e7cfb3" y="82.908294"/>
      </g>
     </g>
     <g id="line2d_16">
      <g>
       <use style="stroke:#000000;stroke-width:0.5;" x="66.9575" xlink:href="#m2a85740cb2" y="1.368294"/>
      </g>
     </g>
    </g>
    <g id="xtick_9">
     <g id="line2d_17">
      <g>
       <use style="stroke:#000000;stroke-width:0.5;" x="73.9325" xlink:href="#m6a59e7cfb3" y="82.908294"/>
      </g>
     </g>
     <g id="line2d_18">
      <g>
       <use style="stroke:#000000;stroke-width:0.5;" x="73.9325" xlink:href="#m2a85740cb2" y="1.368294"/>
      </g>
     </g>
    </g>
    <g id="xtick_10">
     <g id="line2d_19">
      <g>
       <use style="stroke:#000000;stroke-width:0.5;" x="80.9075" xlink:href="#m6a59e7cfb3" y="82.908294"/>
      </g>
     </g>
     <g id="line2d_20">
      <g>
       <use style="stroke:#000000;stroke-width:0.5;" x="80.9075" xlink:href="#m2a85740cb2" y="1.368294"/>
      </g>
     </g>
    </g>
    <g id="xtick_11">
     <g id="line2d_21">
      <g>
       <use style="stroke:#000000;stroke-width:0.5;" x="87.8825" xlink:href="#m6a59e7cfb3" y="82.908294"/>
      </g>
     </g>
     <g id="line2d_22">
      <g>
       <use style="stroke:#000000;stroke-width:0.5;" x="87.8825" xlink:href="#m2a85740cb2" y="1.368294"/>
      </g>
     </g>
    </g>
    <g id="xtick_12">
     <g id="line2d_23">
      <g>
       <use style="stroke:#000000;stroke-width:0.5;" x="101.8325" xlink:href="#m6a59e7cfb3" y="82.908294"/>
      </g>
     </g>
     <g id="line2d_24">
      <g>
       <use style="stroke:#000000;stroke-width:0.5;" x="101.8325" xlink:href="#m2a85740cb2" y="1.368294"/>
      </g>
     </g>
    </g>
    <g id="text_4">
     <!-- $\it{V_{SD}}$ (V) -->
     <defs>
      <path d="M 20.609375 0 
L 7.8125 72.90625 
L 17.484375 72.90625 
L 28.078125 10.203125 
L 63.484375 72.90625 
L 74.21875 72.90625 
L 32.078125 0 
z
" id="DejaVuSans-Oblique-86"/>
      <path d="M 60.296875 70.515625 
L 58.40625 60.890625 
Q 53.46875 63.53125 48.609375 64.875 
Q 43.75 66.21875 39.203125 66.21875 
Q 30.375 66.21875 25.140625 62.359375 
Q 19.921875 58.5 19.921875 52.09375 
Q 19.921875 48.578125 21.84375 46.703125 
Q 23.78125 44.828125 31.78125 42.671875 
L 37.703125 41.21875 
Q 47.703125 38.625 51.609375 34.640625 
Q 55.515625 30.671875 55.515625 23.484375 
Q 55.515625 12.453125 46.84375 5.515625 
Q 38.1875 -1.421875 24.03125 -1.421875 
Q 18.21875 -1.421875 12.359375 -0.265625 
Q 6.5 0.875 0.59375 3.21875 
L 2.59375 13.375 
Q 8.015625 10.015625 13.453125 8.296875 
Q 18.890625 6.59375 24.3125 6.59375 
Q 33.546875 6.59375 39.109375 10.6875 
Q 44.671875 14.796875 44.671875 21.390625 
Q 44.671875 25.78125 42.453125 28.046875 
Q 40.234375 30.328125 32.90625 32.171875 
L 27 33.6875 
Q 16.890625 36.328125 13.203125 39.765625 
Q 9.515625 43.21875 9.515625 49.421875 
Q 9.515625 60.296875 17.890625 67.25 
Q 26.265625 74.21875 39.703125 74.21875 
Q 44.921875 74.21875 50.046875 73.28125 
Q 55.171875 72.359375 60.296875 70.515625 
z
" id="DejaVuSans-Oblique-83"/>
      <path d="M 16.890625 72.90625 
L 38.09375 72.90625 
Q 54.984375 72.90625 63.59375 65.75 
Q 72.21875 58.59375 72.21875 44.484375 
Q 72.21875 35.15625 68.9375 26.53125 
Q 65.671875 17.921875 59.90625 12.015625 
Q 54.109375 5.953125 45.171875 2.96875 
Q 36.234375 0 24.03125 0 
L 2.6875 0 
z
M 25.203125 64.796875 
L 14.203125 8.109375 
L 27.09375 8.109375 
Q 43.65625 8.109375 52.734375 17.625 
Q 61.8125 27.15625 61.8125 44.484375 
Q 61.8125 54.984375 55.953125 59.890625 
Q 50.09375 64.796875 37.59375 64.796875 
z
" id="DejaVuSans-Oblique-68"/>
      <path id="ArialMT-32"/>
      <path d="M 23.390625 -21.046875 
Q 16.109375 -11.859375 11.078125 0.4375 
Q 6.0625 12.75 6.0625 25.921875 
Q 6.0625 37.546875 9.8125 48.1875 
Q 14.203125 60.546875 23.390625 72.796875 
L 29.6875 72.796875 
Q 23.78125 62.640625 21.875 58.296875 
Q 18.890625 51.5625 17.1875 44.234375 
Q 15.09375 35.109375 15.09375 25.875 
Q 15.09375 2.390625 29.6875 -21.046875 
z
" id="ArialMT-40"/>
      <path d="M 28.171875 0 
L 0.4375 71.578125 
L 10.6875 71.578125 
L 29.296875 19.578125 
Q 31.546875 13.328125 33.0625 7.859375 
Q 34.71875 13.71875 36.921875 19.578125 
L 56.25 71.578125 
L 65.921875 71.578125 
L 37.890625 0 
z
" id="ArialMT-86"/>
      <path d="M 12.359375 -21.046875 
L 6.0625 -21.046875 
Q 20.65625 2.390625 20.65625 25.875 
Q 20.65625 35.0625 18.5625 44.09375 
Q 16.890625 51.421875 13.921875 58.15625 
Q 12.015625 62.546875 6.0625 72.796875 
L 12.359375 72.796875 
Q 21.53125 60.546875 25.921875 48.1875 
Q 29.6875 37.546875 29.6875 25.921875 
Q 29.6875 12.75 24.625 0.4375 
Q 19.578125 -11.859375 12.359375 -21.046875 
z
" id="ArialMT-41"/>
     </defs>
     <g transform="translate(46.92 98.524544)scale(0.1 -0.1)">
      <use transform="translate(0 0.09375)" xlink:href="#DejaVuSans-Oblique-86"/>
      <use transform="translate(68.408203 -16.3125)scale(0.7)" xlink:href="#DejaVuSans-Oblique-83"/>
      <use transform="translate(112.841797 -16.3125)scale(0.7)" xlink:href="#DejaVuSans-Oblique-68"/>
      <use transform="translate(169.477539 0.09375)" xlink:href="#ArialMT-32"/>
      <use transform="translate(197.260742 0.09375)" xlink:href="#ArialMT-40"/>
      <use transform="translate(230.561523 0.09375)" xlink:href="#ArialMT-86"/>
      <use transform="translate(297.260742 0.09375)" xlink:href="#ArialMT-41"/>
     </g>
    </g>
   </g>
   <g id="matplotlib.axis_2">
    <g id="ytick_1">
     <g id="line2d_25">
      <defs>
       <path d="M 0 0 
L 3.5 0 
" id="m4a2dc225d3" style="stroke:#000000;stroke-width:0.5;"/>
      </defs>
      <g>
       <use style="stroke:#000000;stroke-width:0.5;" x="21.62" xlink:href="#m4a2dc225d3" y="73.833706"/>
      </g>
     </g>
     <g id="line2d_26">
      <defs>
       <path d="M 0 0 
L -3.5 0 
" id="md8cbb41e3e" style="stroke:#000000;stroke-width:0.5;"/>
      </defs>
      <g>
       <use style="stroke:#000000;stroke-width:0.5;" x="105.32" xlink:href="#md8cbb41e3e" y="73.833706"/>
      </g>
     </g>
     <g id="text_5">
      <!-- 0.0 -->
      <defs>
       <path d="M 9.078125 0 
L 9.078125 10.015625 
L 19.09375 10.015625 
L 19.09375 0 
z
" id="ArialMT-46"/>
      </defs>
      <g transform="translate(9.5 76.696831)scale(0.08 -0.08)">
       <use xlink:href="#ArialMT-48"/>
       <use x="55.615234" xlink:href="#ArialMT-46"/>
       <use x="83.398438" xlink:href="#ArialMT-48"/>
      </g>
     </g>
    </g>
    <g id="ytick_2">
     <g id="line2d_27">
      <g>
       <use style="stroke:#000000;stroke-width:0.5;" x="21.62" xlink:href="#m4a2dc225d3" y="50.176846"/>
      </g>
     </g>
     <g id="line2d_28">
      <g>
       <use style="stroke:#000000;stroke-width:0.5;" x="105.32" xlink:href="#md8cbb41e3e" y="50.176846"/>
      </g>
     </g>
     <g id="text_6">
      <!-- 0.2 -->
      <defs>
       <path d="M 50.34375 8.453125 
L 50.34375 0 
L 3.03125 0 
Q 2.9375 3.171875 4.046875 6.109375 
Q 5.859375 10.9375 9.828125 15.625 
Q 13.8125 20.3125 21.34375 26.46875 
Q 33.015625 36.03125 37.109375 41.625 
Q 41.21875 47.21875 41.21875 52.203125 
Q 41.21875 57.421875 37.46875 61 
Q 33.734375 64.59375 27.734375 64.59375 
Q 21.390625 64.59375 17.578125 60.78125 
Q 13.765625 56.984375 13.71875 50.25 
L 4.6875 51.171875 
Q 5.609375 61.28125 11.65625 66.578125 
Q 17.71875 71.875 27.9375 71.875 
Q 38.234375 71.875 44.234375 66.15625 
Q 50.25 60.453125 50.25 52 
Q 50.25 47.703125 48.484375 43.546875 
Q 46.734375 39.40625 42.65625 34.8125 
Q 38.578125 30.21875 29.109375 22.21875 
Q 21.1875 15.578125 18.9375 13.203125 
Q 16.703125 10.84375 15.234375 8.453125 
z
" id="ArialMT-50"/>
      </defs>
      <g transform="translate(9.5 53.039971)scale(0.08 -0.08)">
       <use xlink:href="#ArialMT-48"/>
       <use x="55.615234" xlink:href="#ArialMT-46"/>
       <use x="83.398438" xlink:href="#ArialMT-50"/>
      </g>
     </g>
    </g>
    <g id="ytick_3">
     <g id="line2d_29">
      <g>
       <use style="stroke:#000000;stroke-width:0.5;" x="21.62" xlink:href="#m4a2dc225d3" y="26.519985"/>
      </g>
     </g>
     <g id="line2d_30">
      <g>
       <use style="stroke:#000000;stroke-width:0.5;" x="105.32" xlink:href="#md8cbb41e3e" y="26.519985"/>
      </g>
     </g>
     <g id="text_7">
      <!-- 0.4 -->
      <defs>
       <path d="M 32.328125 0 
L 32.328125 17.140625 
L 1.265625 17.140625 
L 1.265625 25.203125 
L 33.9375 71.578125 
L 41.109375 71.578125 
L 41.109375 25.203125 
L 50.78125 25.203125 
L 50.78125 17.140625 
L 41.109375 17.140625 
L 41.109375 0 
z
M 32.328125 25.203125 
L 32.328125 57.46875 
L 9.90625 25.203125 
z
" id="ArialMT-52"/>
      </defs>
      <g transform="translate(9.5 29.38311)scale(0.08 -0.08)">
       <use xlink:href="#ArialMT-48"/>
       <use x="55.615234" xlink:href="#ArialMT-46"/>
       <use x="83.398438" xlink:href="#ArialMT-52"/>
      </g>
     </g>
    </g>
    <g id="ytick_4">
     <g id="line2d_31">
      <g>
       <use style="stroke:#000000;stroke-width:0.5;" x="21.62" xlink:href="#m4a2dc225d3" y="2.863125"/>
      </g>
     </g>
     <g id="line2d_32">
      <g>
       <use style="stroke:#000000;stroke-width:0.5;" x="105.32" xlink:href="#md8cbb41e3e" y="2.863125"/>
      </g>
     </g>
     <g id="text_8">
      <!-- 0.6 -->
      <defs>
       <path d="M 49.75 54.046875 
L 41.015625 53.375 
Q 39.84375 58.546875 37.703125 60.890625 
Q 34.125 64.65625 28.90625 64.65625 
Q 24.703125 64.65625 21.53125 62.3125 
Q 17.390625 59.28125 14.984375 53.46875 
Q 12.59375 47.65625 12.5 36.921875 
Q 15.671875 41.75 20.265625 44.09375 
Q 24.859375 46.4375 29.890625 46.4375 
Q 38.671875 46.4375 44.84375 39.96875 
Q 51.03125 33.5 51.03125 23.25 
Q 51.03125 16.5 48.125 10.71875 
Q 45.21875 4.9375 40.140625 1.859375 
Q 35.0625 -1.21875 28.609375 -1.21875 
Q 17.625 -1.21875 10.6875 6.859375 
Q 3.765625 14.9375 3.765625 33.5 
Q 3.765625 54.25 11.421875 63.671875 
Q 18.109375 71.875 29.4375 71.875 
Q 37.890625 71.875 43.28125 67.140625 
Q 48.6875 62.40625 49.75 54.046875 
z
M 13.875 23.1875 
Q 13.875 18.65625 15.796875 14.5 
Q 17.71875 10.359375 21.1875 8.171875 
Q 24.65625 6 28.46875 6 
Q 34.03125 6 38.03125 10.484375 
Q 42.046875 14.984375 42.046875 22.703125 
Q 42.046875 30.125 38.078125 34.390625 
Q 34.125 38.671875 28.125 38.671875 
Q 22.171875 38.671875 18.015625 34.390625 
Q 13.875 30.125 13.875 23.1875 
z
" id="ArialMT-54"/>
      </defs>
      <g transform="translate(9.5 5.72625)scale(0.08 -0.08)">
       <use xlink:href="#ArialMT-48"/>
       <use x="55.615234" xlink:href="#ArialMT-46"/>
       <use x="83.398438" xlink:href="#ArialMT-54"/>
      </g>
     </g>
    </g>
    <g id="ytick_5">
     <g id="line2d_33">
      <defs>
       <path d="M 0 0 
L 2 0 
" id="ma075cc389d" style="stroke:#000000;stroke-width:0.5;"/>
      </defs>
      <g>
       <use style="stroke:#000000;stroke-width:0.5;" x="21.62" xlink:href="#ma075cc389d" y="79.747921"/>
      </g>
     </g>
     <g id="line2d_34">
      <defs>
       <path d="M 0 0 
L -2 0 
" id="m64ec0b7494" style="stroke:#000000;stroke-width:0.5;"/>
      </defs>
      <g>
       <use style="stroke:#000000;stroke-width:0.5;" x="105.32" xlink:href="#m64ec0b7494" y="79.747921"/>
      </g>
     </g>
    </g>
    <g id="ytick_6">
     <g id="line2d_35">
      <g>
       <use style="stroke:#000000;stroke-width:0.5;" x="21.62" xlink:href="#ma075cc389d" y="67.919491"/>
      </g>
     </g>
     <g id="line2d_36">
      <g>
       <use style="stroke:#000000;stroke-width:0.5;" x="105.32" xlink:href="#m64ec0b7494" y="67.919491"/>
      </g>
     </g>
    </g>
    <g id="ytick_7">
     <g id="line2d_37">
      <g>
       <use style="stroke:#000000;stroke-width:0.5;" x="21.62" xlink:href="#ma075cc389d" y="62.005276"/>
      </g>
     </g>
     <g id="line2d_38">
      <g>
       <use style="stroke:#000000;stroke-width:0.5;" x="105.32" xlink:href="#m64ec0b7494" y="62.005276"/>
      </g>
     </g>
    </g>
    <g id="ytick_8">
     <g id="line2d_39">
      <g>
       <use style="stroke:#000000;stroke-width:0.5;" x="21.62" xlink:href="#ma075cc389d" y="56.091061"/>
      </g>
     </g>
     <g id="line2d_40">
      <g>
       <use style="stroke:#000000;stroke-width:0.5;" x="105.32" xlink:href="#m64ec0b7494" y="56.091061"/>
      </g>
     </g>
    </g>
    <g id="ytick_9">
     <g id="line2d_41">
      <g>
       <use style="stroke:#000000;stroke-width:0.5;" x="21.62" xlink:href="#ma075cc389d" y="44.262631"/>
      </g>
     </g>
     <g id="line2d_42">
      <g>
       <use style="stroke:#000000;stroke-width:0.5;" x="105.32" xlink:href="#m64ec0b7494" y="44.262631"/>
      </g>
     </g>
    </g>
    <g id="ytick_10">
     <g id="line2d_43">
      <g>
       <use style="stroke:#000000;stroke-width:0.5;" x="21.62" xlink:href="#ma075cc389d" y="38.348416"/>
      </g>
     </g>
     <g id="line2d_44">
      <g>
       <use style="stroke:#000000;stroke-width:0.5;" x="105.32" xlink:href="#m64ec0b7494" y="38.348416"/>
      </g>
     </g>
    </g>
    <g id="ytick_11">
     <g id="line2d_45">
      <g>
       <use style="stroke:#000000;stroke-width:0.5;" x="21.62" xlink:href="#ma075cc389d" y="32.434201"/>
      </g>
     </g>
     <g id="line2d_46">
      <g>
       <use style="stroke:#000000;stroke-width:0.5;" x="105.32" xlink:href="#m64ec0b7494" y="32.434201"/>
      </g>
     </g>
    </g>
    <g id="ytick_12">
     <g id="line2d_47">
      <g>
       <use style="stroke:#000000;stroke-width:0.5;" x="21.62" xlink:href="#ma075cc389d" y="20.60577"/>
      </g>
     </g>
     <g id="line2d_48">
      <g>
       <use style="stroke:#000000;stroke-width:0.5;" x="105.32" xlink:href="#m64ec0b7494" y="20.60577"/>
      </g>
     </g>
    </g>
    <g id="ytick_13">
     <g id="line2d_49">
      <g>
       <use style="stroke:#000000;stroke-width:0.5;" x="21.62" xlink:href="#ma075cc389d" y="14.691555"/>
      </g>
     </g>
     <g id="line2d_50">
      <g>
       <use style="stroke:#000000;stroke-width:0.5;" x="105.32" xlink:href="#m64ec0b7494" y="14.691555"/>
      </g>
     </g>
    </g>
    <g id="ytick_14">
     <g id="line2d_51">
      <g>
       <use style="stroke:#000000;stroke-width:0.5;" x="21.62" xlink:href="#ma075cc389d" y="8.77734"/>
      </g>
     </g>
     <g id="line2d_52">
      <g>
       <use style="stroke:#000000;stroke-width:0.5;" x="105.32" xlink:href="#m64ec0b7494" y="8.77734"/>
      </g>
     </g>
    </g>
    <g id="text_9">
     <!-- $\it{I_{D}}$ (μA) -->
     <defs>
      <path d="M 16.890625 72.90625 
L 26.8125 72.90625 
L 12.59375 0 
L 2.6875 0 
z
" id="DejaVuSans-Oblique-73"/>
      <path d="M 49.703125 51.859375 
L 49.703125 0 
L 41.84375 0 
L 41.84375 6.15625 
Q 39.3125 2.25 36.8125 0.78125 
Q 33.40625 -1.21875 28.859375 -1.21875 
Q 24.8125 -1.21875 21.6875 0.390625 
Q 19.34375 1.609375 16.5 5.21875 
L 16.5 -19.875 
L 7.8125 -19.875 
L 7.8125 51.859375 
L 16.5 51.859375 
L 16.5 29.890625 
Q 16.5 17.921875 17.765625 14.375 
Q 19.046875 10.84375 21.890625 8.78125 
Q 24.75 6.734375 28.46875 6.734375 
Q 32.375 6.734375 35.453125 8.875 
Q 38.53125 11.03125 39.796875 14.421875 
Q 41.0625 17.828125 41.0625 29.734375 
L 41.0625 51.859375 
z
" id="ArialMT-956"/>
      <path d="M -0.140625 0 
L 27.34375 71.578125 
L 37.546875 71.578125 
L 66.84375 0 
L 56.0625 0 
L 47.703125 21.6875 
L 17.78125 21.6875 
L 9.90625 0 
z
M 20.515625 29.390625 
L 44.78125 29.390625 
L 37.3125 49.21875 
Q 33.890625 58.25 32.234375 64.0625 
Q 30.859375 57.171875 28.375 50.390625 
z
" id="ArialMT-65"/>
     </defs>
     <g transform="translate(7.3 57.388294)rotate(-90)scale(0.1 -0.1)">
      <use transform="translate(0 0.09375)" xlink:href="#DejaVuSans-Oblique-73"/>
      <use transform="translate(29.492188 -16.3125)scale(0.7)" xlink:href="#DejaVuSans-Oblique-68"/>
      <use transform="translate(86.12793 0.09375)" xlink:href="#ArialMT-32"/>
      <use transform="translate(113.911133 0.09375)" xlink:href="#ArialMT-40"/>
      <use transform="translate(147.211914 0.09375)" xlink:href="#ArialMT-956"/>
      <use transform="translate(204.829102 0.09375)" xlink:href="#ArialMT-65"/>
      <use transform="translate(271.52832 0.09375)" xlink:href="#ArialMT-41"/>
     </g>
    </g>
   </g>
   <g id="line2d_53">
    <path clip-path="url(#p7a9f5a0a89)" d="M 25.1075 73.824894 
L 28.595 73.701934 
L 32.0825 73.603652 
L 35.57 73.511556 
L 39.0575 73.422066 
L 42.545 73.34577 
L 46.0325 73.187918 
L 49.52 73.029099 
L 53.0075 72.767653 
L 56.495 72.485397 
L 59.9825 72.16141 
L 63.47 71.819244 
L 66.9575 71.430161 
L 70.445 71.090647 
L 73.9325 70.785201 
L 77.42 70.540608 
L 80.9075 70.364464 
L 84.395 70.196185 
L 87.8825 69.996947 
L 91.37 69.78766 
L 94.8575 69.585942 
" style="fill:none;stroke:#e41a1c;stroke-linecap:square;stroke-width:1.5;"/>
    <defs>
     <path d="M 0 0.75 
C 0.198902 0.75 0.389685 0.670975 0.53033 0.53033 
C 0.670975 0.389685 0.75 0.198902 0.75 0 
C 0.75 -0.198902 0.670975 -0.389685 0.53033 -0.53033 
C 0.389685 -0.670975 0.198902 -0.75 0 -0.75 
C -0.198902 -0.75 -0.389685 -0.670975 -0.53033 -0.53033 
C -0.670975 -0.389685 -0.75 -0.198902 -0.75 0 
C -0.75 0.198902 -0.670975 0.389685 -0.53033 0.53033 
C -0.389685 0.670975 -0.198902 0.75 0 0.75 
z
" id="m790ef4306b" style="stroke:#e41a1c;"/>
    </defs>
    <g clip-path="url(#p7a9f5a0a89)">
     <use style="fill:#e41a1c;stroke:#e41a1c;" x="25.1075" xlink:href="#m790ef4306b" y="73.824894"/>
     <use style="fill:#e41a1c;stroke:#e41a1c;" x="28.595" xlink:href="#m790ef4306b" y="73.701934"/>
     <use style="fill:#e41a1c;stroke:#e41a1c;" x="32.0825" xlink:href="#m790ef4306b" y="73.603652"/>
     <use style="fill:#e41a1c;stroke:#e41a1c;" x="35.57" xlink:href="#m790ef4306b" y="73.511556"/>
     <use style="fill:#e41a1c;stroke:#e41a1c;" x="39.0575" xlink:href="#m790ef4306b" y="73.422066"/>
     <use style="fill:#e41a1c;stroke:#e41a1c;" x="42.545" xlink:href="#m790ef4306b" y="73.34577"/>
     <use style="fill:#e41a1c;stroke:#e41a1c;" x="46.0325" xlink:href="#m790ef4306b" y="73.187918"/>
     <use style="fill:#e41a1c;stroke:#e41a1c;" x="49.52" xlink:href="#m790ef4306b" y="73.029099"/>
     <use style="fill:#e41a1c;stroke:#e41a1c;" x="53.0075" xlink:href="#m790ef4306b" y="72.767653"/>
     <use style="fill:#e41a1c;stroke:#e41a1c;" x="56.495" xlink:href="#m790ef4306b" y="72.485397"/>
     <use style="fill:#e41a1c;stroke:#e41a1c;" x="59.9825" xlink:href="#m790ef4306b" y="72.16141"/>
     <use style="fill:#e41a1c;stroke:#e41a1c;" x="63.47" xlink:href="#m790ef4306b" y="71.819244"/>
     <use style="fill:#e41a1c;stroke:#e41a1c;" x="66.9575" xlink:href="#m790ef4306b" y="71.430161"/>
     <use style="fill:#e41a1c;stroke:#e41a1c;" x="70.445" xlink:href="#m790ef4306b" y="71.090647"/>
     <use style="fill:#e41a1c;stroke:#e41a1c;" x="73.9325" xlink:href="#m790ef4306b" y="70.785201"/>
     <use style="fill:#e41a1c;stroke:#e41a1c;" x="77.42" xlink:href="#m790ef4306b" y="70.540608"/>
     <use style="fill:#e41a1c;stroke:#e41a1c;" x="80.9075" xlink:href="#m790ef4306b" y="70.364464"/>
     <use style="fill:#e41a1c;stroke:#e41a1c;" x="84.395" xlink:href="#m790ef4306b" y="70.196185"/>
     <use style="fill:#e41a1c;stroke:#e41a1c;" x="87.8825" xlink:href="#m790ef4306b" y="69.996947"/>
     <use style="fill:#e41a1c;stroke:#e41a1c;" x="91.37" xlink:href="#m790ef4306b" y="69.78766"/>
     <use style="fill:#e41a1c;stroke:#e41a1c;" x="94.8575" xlink:href="#m790ef4306b" y="69.585942"/>
    </g>
   </g>
   <g id="line2d_54">
    <path clip-path="url(#p7a9f5a0a89)" d="M 25.1075 73.848174 
L 28.595 73.011048 
L 32.0825 72.273587 
L 35.57 71.542209 
L 39.0575 70.926384 
L 42.545 70.547059 
L 46.0325 70.242967 
L 49.52 70.036503 
L 53.0075 69.834665 
L 56.495 69.389887 
L 59.9825 69.076959 
L 63.47 68.806084 
L 66.9575 68.66209 
L 70.445 68.412115 
L 73.9325 68.004324 
L 77.42 67.860542 
L 80.9075 67.7597 
L 84.395 67.496847 
L 87.8825 67.118319 
L 91.37 66.890738 
L 94.8575 66.795791 
" style="fill:none;stroke:#ff7f00;stroke-linecap:square;stroke-width:1.5;"/>
    <defs>
     <path d="M 0 0.75 
C 0.198902 0.75 0.389685 0.670975 0.53033 0.53033 
C 0.670975 0.389685 0.75 0.198902 0.75 0 
C 0.75 -0.198902 0.670975 -0.389685 0.53033 -0.53033 
C 0.389685 -0.670975 0.198902 -0.75 0 -0.75 
C -0.198902 -0.75 -0.389685 -0.670975 -0.53033 -0.53033 
C -0.670975 -0.389685 -0.75 -0.198902 -0.75 0 
C -0.75 0.198902 -0.670975 0.389685 -0.53033 0.53033 
C -0.389685 0.670975 -0.198902 0.75 0 0.75 
z
" id="md4f82ede7a" style="stroke:#ff7f00;"/>
    </defs>
    <g clip-path="url(#p7a9f5a0a89)">
     <use style="fill:#ff7f00;stroke:#ff7f00;" x="25.1075" xlink:href="#md4f82ede7a" y="73.848174"/>
     <use style="fill:#ff7f00;stroke:#ff7f00;" x="28.595" xlink:href="#md4f82ede7a" y="73.011048"/>
     <use style="fill:#ff7f00;stroke:#ff7f00;" x="32.0825" xlink:href="#md4f82ede7a" y="72.273587"/>
     <use style="fill:#ff7f00;stroke:#ff7f00;" x="35.57" xlink:href="#md4f82ede7a" y="71.542209"/>
     <use style="fill:#ff7f00;stroke:#ff7f00;" x="39.0575" xlink:href="#md4f82ede7a" y="70.926384"/>
     <use style="fill:#ff7f00;stroke:#ff7f00;" x="42.545" xlink:href="#md4f82ede7a" y="70.547059"/>
     <use style="fill:#ff7f00;stroke:#ff7f00;" x="46.0325" xlink:href="#md4f82ede7a" y="70.242967"/>
     <use style="fill:#ff7f00;stroke:#ff7f00;" x="49.52" xlink:href="#md4f82ede7a" y="70.036503"/>
     <use style="fill:#ff7f00;stroke:#ff7f00;" x="53.0075" xlink:href="#md4f82ede7a" y="69.834665"/>
     <use style="fill:#ff7f00;stroke:#ff7f00;" x="56.495" xlink:href="#md4f82ede7a" y="69.389887"/>
     <use style="fill:#ff7f00;stroke:#ff7f00;" x="59.9825" xlink:href="#md4f82ede7a" y="69.076959"/>
     <use style="fill:#ff7f00;stroke:#ff7f00;" x="63.47" xlink:href="#md4f82ede7a" y="68.806084"/>
     <use style="fill:#ff7f00;stroke:#ff7f00;" x="66.9575" xlink:href="#md4f82ede7a" y="68.66209"/>
     <use style="fill:#ff7f00;stroke:#ff7f00;" x="70.445" xlink:href="#md4f82ede7a" y="68.412115"/>
     <use style="fill:#ff7f00;stroke:#ff7f00;" x="73.9325" xlink:href="#md4f82ede7a" y="68.004324"/>
     <use style="fill:#ff7f00;stroke:#ff7f00;" x="77.42" xlink:href="#md4f82ede7a" y="67.860542"/>
     <use style="fill:#ff7f00;stroke:#ff7f00;" x="80.9075" xlink:href="#md4f82ede7a" y="67.7597"/>
     <use style="fill:#ff7f00;stroke:#ff7f00;" x="84.395" xlink:href="#md4f82ede7a" y="67.496847"/>
     <use style="fill:#ff7f00;stroke:#ff7f00;" x="87.8825" xlink:href="#md4f82ede7a" y="67.118319"/>
     <use style="fill:#ff7f00;stroke:#ff7f00;" x="91.37" xlink:href="#md4f82ede7a" y="66.890738"/>
     <use style="fill:#ff7f00;stroke:#ff7f00;" x="94.8575" xlink:href="#md4f82ede7a" y="66.795791"/>
    </g>
   </g>
   <g id="line2d_55">
    <path clip-path="url(#p7a9f5a0a89)" d="M 25.1075 73.840111 
L 28.595 72.22534 
L 32.0825 70.886086 
L 35.57 69.597695 
L 39.0575 68.537075 
L 42.545 67.668937 
L 46.0325 67.332246 
L 49.52 66.780497 
L 53.0075 66.50952 
L 56.495 66.039564 
L 59.9825 65.701945 
L 63.47 65.416441 
L 66.9575 65.065037 
L 70.445 64.74413 
L 73.9325 64.151256 
L 77.42 64.001272 
L 80.9075 63.596024 
L 84.395 63.240508 
L 87.8825 62.830076 
L 91.37 62.112489 
L 94.8575 61.687216 
" style="fill:none;stroke:#984ea3;stroke-linecap:square;stroke-width:1.5;"/>
    <defs>
     <path d="M 0 0.75 
C 0.198902 0.75 0.389685 0.670975 0.53033 0.53033 
C 0.670975 0.389685 0.75 0.198902 0.75 0 
C 0.75 -0.198902 0.670975 -0.389685 0.53033 -0.53033 
C 0.389685 -0.670975 0.198902 -0.75 0 -0.75 
C -0.198902 -0.75 -0.389685 -0.670975 -0.53033 -0.53033 
C -0.670975 -0.389685 -0.75 -0.198902 -0.75 0 
C -0.75 0.198902 -0.670975 0.389685 -0.53033 0.53033 
C -0.389685 0.670975 -0.198902 0.75 0 0.75 
z
" id="m93b04887f6" style="stroke:#984ea3;"/>
    </defs>
    <g clip-path="url(#p7a9f5a0a89)">
     <use style="fill:#984ea3;stroke:#984ea3;" x="25.1075" xlink:href="#m93b04887f6" y="73.840111"/>
     <use style="fill:#984ea3;stroke:#984ea3;" x="28.595" xlink:href="#m93b04887f6" y="72.22534"/>
     <use style="fill:#984ea3;stroke:#984ea3;" x="32.0825" xlink:href="#m93b04887f6" y="70.886086"/>
     <use style="fill:#984ea3;stroke:#984ea3;" x="35.57" xlink:href="#m93b04887f6" y="69.597695"/>
     <use style="fill:#984ea3;stroke:#984ea3;" x="39.0575" xlink:href="#m93b04887f6" y="68.537075"/>
     <use style="fill:#984ea3;stroke:#984ea3;" x="42.545" xlink:href="#m93b04887f6" y="67.668937"/>
     <use style="fill:#984ea3;stroke:#984ea3;" x="46.0325" xlink:href="#m93b04887f6" y="67.332246"/>
     <use style="fill:#984ea3;stroke:#984ea3;" x="49.52" xlink:href="#m93b04887f6" y="66.780497"/>
     <use style="fill:#984ea3;stroke:#984ea3;" x="53.0075" xlink:href="#m93b04887f6" y="66.50952"/>
     <use style="fill:#984ea3;stroke:#984ea3;" x="56.495" xlink:href="#m93b04887f6" y="66.039564"/>
     <use style="fill:#984ea3;stroke:#984ea3;" x="59.9825" xlink:href="#m93b04887f6" y="65.701945"/>
     <use style="fill:#984ea3;stroke:#984ea3;" x="63.47" xlink:href="#m93b04887f6" y="65.416441"/>
     <use style="fill:#984ea3;stroke:#984ea3;" x="66.9575" xlink:href="#m93b04887f6" y="65.065037"/>
     <use style="fill:#984ea3;stroke:#984ea3;" x="70.445" xlink:href="#m93b04887f6" y="64.74413"/>
     <use style="fill:#984ea3;stroke:#984ea3;" x="73.9325" xlink:href="#m93b04887f6" y="64.151256"/>
     <use style="fill:#984ea3;stroke:#984ea3;" x="77.42" xlink:href="#m93b04887f6" y="64.001272"/>
     <use style="fill:#984ea3;stroke:#984ea3;" x="80.9075" xlink:href="#m93b04887f6" y="63.596024"/>
     <use style="fill:#984ea3;stroke:#984ea3;" x="84.395" xlink:href="#m93b04887f6" y="63.240508"/>
     <use style="fill:#984ea3;stroke:#984ea3;" x="87.8825" xlink:href="#m93b04887f6" y="62.830076"/>
     <use style="fill:#984ea3;stroke:#984ea3;" x="91.37" xlink:href="#m93b04887f6" y="62.112489"/>
     <use style="fill:#984ea3;stroke:#984ea3;" x="94.8575" xlink:href="#m93b04887f6" y="61.687216"/>
    </g>
   </g>
   <g id="line2d_56">
    <path clip-path="url(#p7a9f5a0a89)" d="M 25.1075 73.851772 
L 28.595 71.257847 
L 32.0825 68.911696 
L 35.57 66.771362 
L 39.0575 64.887927 
L 42.545 63.493132 
L 46.0325 62.282419 
L 49.52 61.512417 
L 53.0075 60.541885 
L 56.495 60.045884 
L 59.9825 59.275653 
L 63.47 58.688397 
L 66.9575 58.338829 
L 70.445 57.952309 
L 73.9325 57.467417 
L 77.42 56.645325 
L 80.9075 56.304406 
L 84.395 56.053999 
L 87.8825 55.983246 
L 91.37 54.794371 
L 94.8575 54.803981 
" style="fill:none;stroke:#a65628;stroke-linecap:square;stroke-width:1.5;"/>
    <defs>
     <path d="M 0 0.75 
C 0.198902 0.75 0.389685 0.670975 0.53033 0.53033 
C 0.670975 0.389685 0.75 0.198902 0.75 0 
C 0.75 -0.198902 0.670975 -0.389685 0.53033 -0.53033 
C 0.389685 -0.670975 0.198902 -0.75 0 -0.75 
C -0.198902 -0.75 -0.389685 -0.670975 -0.53033 -0.53033 
C -0.670975 -0.389685 -0.75 -0.198902 -0.75 0 
C -0.75 0.198902 -0.670975 0.389685 -0.53033 0.53033 
C -0.389685 0.670975 -0.198902 0.75 0 0.75 
z
" id="mfa372c5bf6" style="stroke:#a65628;"/>
    </defs>
    <g clip-path="url(#p7a9f5a0a89)">
     <use style="fill:#a65628;stroke:#a65628;" x="25.1075" xlink:href="#mfa372c5bf6" y="73.851772"/>
     <use style="fill:#a65628;stroke:#a65628;" x="28.595" xlink:href="#mfa372c5bf6" y="71.257847"/>
     <use style="fill:#a65628;stroke:#a65628;" x="32.0825" xlink:href="#mfa372c5bf6" y="68.911696"/>
     <use style="fill:#a65628;stroke:#a65628;" x="35.57" xlink:href="#mfa372c5bf6" y="66.771362"/>
     <use style="fill:#a65628;stroke:#a65628;" x="39.0575" xlink:href="#mfa372c5bf6" y="64.887927"/>
     <use style="fill:#a65628;stroke:#a65628;" x="42.545" xlink:href="#mfa372c5bf6" y="63.493132"/>
     <use style="fill:#a65628;stroke:#a65628;" x="46.0325" xlink:href="#mfa372c5bf6" y="62.282419"/>
     <use style="fill:#a65628;stroke:#a65628;" x="49.52" xlink:href="#mfa372c5bf6" y="61.512417"/>
     <use style="fill:#a65628;stroke:#a65628;" x="53.0075" xlink:href="#mfa372c5bf6" y="60.541885"/>
     <use style="fill:#a65628;stroke:#a65628;" x="56.495" xlink:href="#mfa372c5bf6" y="60.045884"/>
     <use style="fill:#a65628;stroke:#a65628;" x="59.9825" xlink:href="#mfa372c5bf6" y="59.275653"/>
     <use style="fill:#a65628;stroke:#a65628;" x="63.47" xlink:href="#mfa372c5bf6" y="58.688397"/>
     <use style="fill:#a65628;stroke:#a65628;" x="66.9575" xlink:href="#mfa372c5bf6" y="58.338829"/>
     <use style="fill:#a65628;stroke:#a65628;" x="70.445" xlink:href="#mfa372c5bf6" y="57.952309"/>
     <use style="fill:#a65628;stroke:#a65628;" x="73.9325" xlink:href="#mfa372c5bf6" y="57.467417"/>
     <use style="fill:#a65628;stroke:#a65628;" x="77.42" xlink:href="#mfa372c5bf6" y="56.645325"/>
     <use style="fill:#a65628;stroke:#a65628;" x="80.9075" xlink:href="#mfa372c5bf6" y="56.304406"/>
     <use style="fill:#a65628;stroke:#a65628;" x="84.395" xlink:href="#mfa372c5bf6" y="56.053999"/>
     <use style="fill:#a65628;stroke:#a65628;" x="87.8825" xlink:href="#mfa372c5bf6" y="55.983246"/>
     <use style="fill:#a65628;stroke:#a65628;" x="91.37" xlink:href="#mfa372c5bf6" y="54.794371"/>
     <use style="fill:#a65628;stroke:#a65628;" x="94.8575" xlink:href="#mfa372c5bf6" y="54.803981"/>
    </g>
   </g>
   <g id="line2d_57">
    <path clip-path="url(#p7a9f5a0a89)" d="M 25.1075 73.854621 
L 28.595 69.379256 
L 32.0825 65.540413 
L 35.57 62.250601 
L 39.0575 59.568818 
L 42.545 57.060515 
L 46.0325 55.708661 
L 49.52 54.043024 
L 53.0075 52.533367 
L 56.495 51.102248 
L 59.9825 50.138659 
L 63.47 49.004917 
L 66.9575 47.821558 
L 70.445 47.046748 
L 73.9325 46.109402 
L 77.42 44.600915 
L 80.9075 43.900912 
L 84.395 43.13134 
L 87.8825 41.990377 
L 91.37 42.344279 
L 94.8575 41.715853 
" style="fill:none;stroke:#4daf4a;stroke-linecap:square;stroke-width:1.5;"/>
    <defs>
     <path d="M 0 0.75 
C 0.198902 0.75 0.389685 0.670975 0.53033 0.53033 
C 0.670975 0.389685 0.75 0.198902 0.75 0 
C 0.75 -0.198902 0.670975 -0.389685 0.53033 -0.53033 
C 0.389685 -0.670975 0.198902 -0.75 0 -0.75 
C -0.198902 -0.75 -0.389685 -0.670975 -0.53033 -0.53033 
C -0.670975 -0.389685 -0.75 -0.198902 -0.75 0 
C -0.75 0.198902 -0.670975 0.389685 -0.53033 0.53033 
C -0.389685 0.670975 -0.198902 0.75 0 0.75 
z
" id="m0fab5577ac" style="stroke:#4daf4a;"/>
    </defs>
    <g clip-path="url(#p7a9f5a0a89)">
     <use style="fill:#4daf4a;stroke:#4daf4a;" x="25.1075" xlink:href="#m0fab5577ac" y="73.854621"/>
     <use style="fill:#4daf4a;stroke:#4daf4a;" x="28.595" xlink:href="#m0fab5577ac" y="69.379256"/>
     <use style="fill:#4daf4a;stroke:#4daf4a;" x="32.0825" xlink:href="#m0fab5577ac" y="65.540413"/>
     <use style="fill:#4daf4a;stroke:#4daf4a;" x="35.57" xlink:href="#m0fab5577ac" y="62.250601"/>
     <use style="fill:#4daf4a;stroke:#4daf4a;" x="39.0575" xlink:href="#m0fab5577ac" y="59.568818"/>
     <use style="fill:#4daf4a;stroke:#4daf4a;" x="42.545" xlink:href="#m0fab5577ac" y="57.060515"/>
     <use style="fill:#4daf4a;stroke:#4daf4a;" x="46.0325" xlink:href="#m0fab5577ac" y="55.708661"/>
     <use style="fill:#4daf4a;stroke:#4daf4a;" x="49.52" xlink:href="#m0fab5577ac" y="54.043024"/>
     <use style="fill:#4daf4a;stroke:#4daf4a;" x="53.0075" xlink:href="#m0fab5577ac" y="52.533367"/>
     <use style="fill:#4daf4a;stroke:#4daf4a;" x="56.495" xlink:href="#m0fab5577ac" y="51.102248"/>
     <use style="fill:#4daf4a;stroke:#4daf4a;" x="59.9825" xlink:href="#m0fab5577ac" y="50.138659"/>
     <use style="fill:#4daf4a;stroke:#4daf4a;" x="63.47" xlink:href="#m0fab5577ac" y="49.004917"/>
     <use style="fill:#4daf4a;stroke:#4daf4a;" x="66.9575" xlink:href="#m0fab5577ac" y="47.821558"/>
     <use style="fill:#4daf4a;stroke:#4daf4a;" x="70.445" xlink:href="#m0fab5577ac" y="47.046748"/>
     <use style="fill:#4daf4a;stroke:#4daf4a;" x="73.9325" xlink:href="#m0fab5577ac" y="46.109402"/>
     <use style="fill:#4daf4a;stroke:#4daf4a;" x="77.42" xlink:href="#m0fab5577ac" y="44.600915"/>
     <use style="fill:#4daf4a;stroke:#4daf4a;" x="80.9075" xlink:href="#m0fab5577ac" y="43.900912"/>
     <use style="fill:#4daf4a;stroke:#4daf4a;" x="84.395" xlink:href="#m0fab5577ac" y="43.13134"/>
     <use style="fill:#4daf4a;stroke:#4daf4a;" x="87.8825" xlink:href="#m0fab5577ac" y="41.990377"/>
     <use style="fill:#4daf4a;stroke:#4daf4a;" x="91.37" xlink:href="#m0fab5577ac" y="42.344279"/>
     <use style="fill:#4daf4a;stroke:#4daf4a;" x="94.8575" xlink:href="#m0fab5577ac" y="41.715853"/>
    </g>
   </g>
   <g id="line2d_58">
    <path clip-path="url(#p7a9f5a0a89)" d="M 25.1075 73.855987 
L 28.595 67.469322 
L 32.0825 61.882009 
L 35.57 57.24529 
L 39.0575 53.642922 
L 42.545 50.999888 
L 46.0325 48.720845 
L 49.52 46.856349 
L 53.0075 44.335561 
L 56.495 42.227439 
L 59.9825 40.256349 
L 63.47 38.884115 
L 66.9575 36.70119 
L 70.445 35.238933 
L 73.9325 33.693095 
L 77.42 32.120228 
L 80.9075 30.74978 
L 84.395 29.781496 
L 87.8825 28.741794 
L 91.37 26.799868 
L 94.8575 25.526689 
" style="fill:none;stroke:#999999;stroke-linecap:square;stroke-width:1.5;"/>
    <defs>
     <path d="M 0 0.75 
C 0.198902 0.75 0.389685 0.670975 0.53033 0.53033 
C 0.670975 0.389685 0.75 0.198902 0.75 0 
C 0.75 -0.198902 0.670975 -0.389685 0.53033 -0.53033 
C 0.389685 -0.670975 0.198902 -0.75 0 -0.75 
C -0.198902 -0.75 -0.389685 -0.670975 -0.53033 -0.53033 
C -0.670975 -0.389685 -0.75 -0.198902 -0.75 0 
C -0.75 0.198902 -0.670975 0.389685 -0.53033 0.53033 
C -0.389685 0.670975 -0.198902 0.75 0 0.75 
z
" id="m45b881f257" style="stroke:#999999;"/>
    </defs>
    <g clip-path="url(#p7a9f5a0a89)">
     <use style="fill:#999999;stroke:#999999;" x="25.1075" xlink:href="#m45b881f257" y="73.855987"/>
     <use style="fill:#999999;stroke:#999999;" x="28.595" xlink:href="#m45b881f257" y="67.469322"/>
     <use style="fill:#999999;stroke:#999999;" x="32.0825" xlink:href="#m45b881f257" y="61.882009"/>
     <use style="fill:#999999;stroke:#999999;" x="35.57" xlink:href="#m45b881f257" y="57.24529"/>
     <use style="fill:#999999;stroke:#999999;" x="39.0575" xlink:href="#m45b881f257" y="53.642922"/>
     <use style="fill:#999999;stroke:#999999;" x="42.545" xlink:href="#m45b881f257" y="50.999888"/>
     <use style="fill:#999999;stroke:#999999;" x="46.0325" xlink:href="#m45b881f257" y="48.720845"/>
     <use style="fill:#999999;stroke:#999999;" x="49.52" xlink:href="#m45b881f257" y="46.856349"/>
     <use style="fill:#999999;stroke:#999999;" x="53.0075" xlink:href="#m45b881f257" y="44.335561"/>
     <use style="fill:#999999;stroke:#999999;" x="56.495" xlink:href="#m45b881f257" y="42.227439"/>
     <use style="fill:#999999;stroke:#999999;" x="59.9825" xlink:href="#m45b881f257" y="40.256349"/>
     <use style="fill:#999999;stroke:#999999;" x="63.47" xlink:href="#m45b881f257" y="38.884115"/>
     <use style="fill:#999999;stroke:#999999;" x="66.9575" xlink:href="#m45b881f257" y="36.70119"/>
     <use style="fill:#999999;stroke:#999999;" x="70.445" xlink:href="#m45b881f257" y="35.238933"/>
     <use style="fill:#999999;stroke:#999999;" x="73.9325" xlink:href="#m45b881f257" y="33.693095"/>
     <use style="fill:#999999;stroke:#999999;" x="77.42" xlink:href="#m45b881f257" y="32.120228"/>
     <use style="fill:#999999;stroke:#999999;" x="80.9075" xlink:href="#m45b881f257" y="30.74978"/>
     <use style="fill:#999999;stroke:#999999;" x="84.395" xlink:href="#m45b881f257" y="29.781496"/>
     <use style="fill:#999999;stroke:#999999;" x="87.8825" xlink:href="#m45b881f257" y="28.741794"/>
     <use style="fill:#999999;stroke:#999999;" x="91.37" xlink:href="#m45b881f257" y="26.799868"/>
     <use style="fill:#999999;stroke:#999999;" x="94.8575" xlink:href="#m45b881f257" y="25.526689"/>
    </g>
   </g>
   <g id="line2d_59">
    <path clip-path="url(#p7a9f5a0a89)" d="M 25.1075 73.855662 
L 28.595 65.91887 
L 32.0825 58.798464 
L 35.57 52.678734 
L 39.0575 47.868743 
L 42.545 44.400281 
L 46.0325 41.347676 
L 49.52 38.890507 
L 53.0075 36.183466 
L 56.495 33.798477 
L 59.9825 31.052641 
L 63.47 28.753076 
L 66.9575 26.854941 
L 70.445 24.843004 
L 73.9325 22.061248 
L 77.42 20.467716 
L 80.9075 17.730897 
L 84.395 16.215462 
L 87.8825 14.756798 
L 91.37 12.769271 
L 94.8575 11.094151 
" style="fill:none;stroke:#377eb8;stroke-linecap:square;stroke-width:1.5;"/>
    <defs>
     <path d="M 0 0.75 
C 0.198902 0.75 0.389685 0.670975 0.53033 0.53033 
C 0.670975 0.389685 0.75 0.198902 0.75 0 
C 0.75 -0.198902 0.670975 -0.389685 0.53033 -0.53033 
C 0.389685 -0.670975 0.198902 -0.75 0 -0.75 
C -0.198902 -0.75 -0.389685 -0.670975 -0.53033 -0.53033 
C -0.670975 -0.389685 -0.75 -0.198902 -0.75 0 
C -0.75 0.198902 -0.670975 0.389685 -0.53033 0.53033 
C -0.389685 0.670975 -0.198902 0.75 0 0.75 
z
" id="m098bb4704c" style="stroke:#377eb8;"/>
    </defs>
    <g clip-path="url(#p7a9f5a0a89)">
     <use style="fill:#377eb8;stroke:#377eb8;" x="25.1075" xlink:href="#m098bb4704c" y="73.855662"/>
     <use style="fill:#377eb8;stroke:#377eb8;" x="28.595" xlink:href="#m098bb4704c" y="65.91887"/>
     <use style="fill:#377eb8;stroke:#377eb8;" x="32.0825" xlink:href="#m098bb4704c" y="58.798464"/>
     <use style="fill:#377eb8;stroke:#377eb8;" x="35.57" xlink:href="#m098bb4704c" y="52.678734"/>
     <use style="fill:#377eb8;stroke:#377eb8;" x="39.0575" xlink:href="#m098bb4704c" y="47.868743"/>
     <use style="fill:#377eb8;stroke:#377eb8;" x="42.545" xlink:href="#m098bb4704c" y="44.400281"/>
     <use style="fill:#377eb8;stroke:#377eb8;" x="46.0325" xlink:href="#m098bb4704c" y="41.347676"/>
     <use style="fill:#377eb8;stroke:#377eb8;" x="49.52" xlink:href="#m098bb4704c" y="38.890507"/>
     <use style="fill:#377eb8;stroke:#377eb8;" x="53.0075" xlink:href="#m098bb4704c" y="36.183466"/>
     <use style="fill:#377eb8;stroke:#377eb8;" x="56.495" xlink:href="#m098bb4704c" y="33.798477"/>
     <use style="fill:#377eb8;stroke:#377eb8;" x="59.9825" xlink:href="#m098bb4704c" y="31.052641"/>
     <use style="fill:#377eb8;stroke:#377eb8;" x="63.47" xlink:href="#m098bb4704c" y="28.753076"/>
     <use style="fill:#377eb8;stroke:#377eb8;" x="66.9575" xlink:href="#m098bb4704c" y="26.854941"/>
     <use style="fill:#377eb8;stroke:#377eb8;" x="70.445" xlink:href="#m098bb4704c" y="24.843004"/>
     <use style="fill:#377eb8;stroke:#377eb8;" x="73.9325" xlink:href="#m098bb4704c" y="22.061248"/>
     <use style="fill:#377eb8;stroke:#377eb8;" x="77.42" xlink:href="#m098bb4704c" y="20.467716"/>
     <use style="fill:#377eb8;stroke:#377eb8;" x="80.9075" xlink:href="#m098bb4704c" y="17.730897"/>
     <use style="fill:#377eb8;stroke:#377eb8;" x="84.395" xlink:href="#m098bb4704c" y="16.215462"/>
     <use style="fill:#377eb8;stroke:#377eb8;" x="87.8825" xlink:href="#m098bb4704c" y="14.756798"/>
     <use style="fill:#377eb8;stroke:#377eb8;" x="91.37" xlink:href="#m098bb4704c" y="12.769271"/>
     <use style="fill:#377eb8;stroke:#377eb8;" x="94.8575" xlink:href="#m098bb4704c" y="11.094151"/>
    </g>
   </g>
   <g id="patch_3">
    <path d="M 21.62 82.908294 
L 21.62 1.368294 
" style="fill:none;stroke:#000000;stroke-linecap:square;stroke-linejoin:miter;stroke-width:0.5;"/>
   </g>
   <g id="patch_4">
    <path d="M 105.32 82.908294 
L 105.32 1.368294 
" style="fill:none;stroke:#000000;stroke-linecap:square;stroke-linejoin:miter;stroke-width:0.5;"/>
   </g>
   <g id="patch_5">
    <path d="M 21.62 82.908294 
L 105.32 82.908294 
" style="fill:none;stroke:#000000;stroke-linecap:square;stroke-linejoin:miter;stroke-width:0.5;"/>
   </g>
   <g id="patch_6">
    <path d="M 21.62 1.368294 
L 105.32 1.368294 
" style="fill:none;stroke:#000000;stroke-linecap:square;stroke-linejoin:miter;stroke-width:0.5;"/>
   </g>
  </g>
 </g>
 <defs>
  <clipPath id="p7a9f5a0a89">
   <rect height="81.54" width="83.7" x="21.62" y="1.368294"/>
  </clipPath>
 </defs>
</svg>
