<?xml version="1.0" encoding="utf-8" standalone="no"?>
<!DOCTYPE svg PUBLIC "-//W3C//DTD SVG 1.1//EN"
  "http://www.w3.org/Graphics/SVG/1.1/DTD/svg11.dtd">
<!-- Created with matplotlib (https://matplotlib.org/) -->
<svg height="99.35625pt" version="1.1" viewBox="0 0 105.32 99.35625" width="105.32pt" xmlns="http://www.w3.org/2000/svg" xmlns:xlink="http://www.w3.org/1999/xlink">
 <defs>
  <style type="text/css">
*{stroke-linecap:butt;stroke-linejoin:round;white-space:pre;}
  </style>
 </defs>
 <g id="figure_1">
  <g id="patch_1">
   <path d="M 0 99.35625 
L 105.32 99.35625 
L 105.32 0 
L 0 0 
z
" style="fill:none;"/>
  </g>
  <g id="axes_1">
   <g id="patch_2">
    <path d="M 21.62 81.54 
L 105.32 81.54 
L 105.32 0 
L 21.62 0 
z
" style="fill:none;"/>
   </g>
   <g id="matplotlib.axis_1">
    <g id="xtick_1">
     <g id="line2d_1">
      <defs>
       <path d="M 0 0 
L 0 -3.5 
" id="m11c25085a9" style="stroke:#000000;stroke-width:0.5;"/>
      </defs>
      <g>
       <use style="stroke:#000000;stroke-width:0.5;" x="25.1075" xlink:href="#m11c25085a9" y="81.54"/>
      </g>
     </g>
     <g id="line2d_2">
      <defs>
       <path d="M 0 0 
L 0 3.5 
" id="md406235255" style="stroke:#000000;stroke-width:0.5;"/>
      </defs>
      <g>
       <use style="stroke:#000000;stroke-width:0.5;" x="25.1075" xlink:href="#md406235255" y="0"/>
      </g>
     </g>
     <g id="text_1">
      <!-- 0 -->
      <defs>
       <path d="M 4.15625 35.296875 
Q 4.15625 48 6.765625 55.734375 
Q 9.375 63.484375 14.515625 67.671875 
Q 19.671875 71.875 27.484375 71.875 
Q 33.25 71.875 37.59375 69.546875 
Q 41.9375 67.234375 44.765625 62.859375 
Q 47.609375 58.5 49.21875 52.21875 
Q 50.828125 45.953125 50.828125 35.296875 
Q 50.828125 22.703125 48.234375 14.96875 
Q 45.65625 7.234375 40.5 3 
Q 35.359375 -1.21875 27.484375 -1.21875 
Q 17.140625 -1.21875 11.234375 6.203125 
Q 4.15625 15.140625 4.15625 35.296875 
z
M 13.1875 35.296875 
Q 13.1875 17.671875 17.3125 11.828125 
Q 21.4375 6 27.484375 6 
Q 33.546875 6 37.671875 11.859375 
Q 41.796875 17.71875 41.796875 35.296875 
Q 41.796875 52.984375 37.671875 58.78125 
Q 33.546875 64.59375 27.390625 64.59375 
Q 21.34375 64.59375 17.71875 59.46875 
Q 13.1875 52.9375 13.1875 35.296875 
z
" id="ArialMT-48"/>
      </defs>
      <g transform="translate(22.883125 88.26625)scale(0.08 -0.08)">
       <use xlink:href="#ArialMT-48"/>
      </g>
     </g>
    </g>
    <g id="xtick_2">
     <g id="line2d_3">
      <g>
       <use style="stroke:#000000;stroke-width:0.5;" x="59.9825" xlink:href="#m11c25085a9" y="81.54"/>
      </g>
     </g>
     <g id="line2d_4">
      <g>
       <use style="stroke:#000000;stroke-width:0.5;" x="59.9825" xlink:href="#md406235255" y="0"/>
      </g>
     </g>
     <g id="text_2">
      <!-- 5 -->
      <defs>
       <path d="M 4.15625 18.75 
L 13.375 19.53125 
Q 14.40625 12.796875 18.140625 9.390625 
Q 21.875 6 27.15625 6 
Q 33.5 6 37.890625 10.78125 
Q 42.28125 15.578125 42.28125 23.484375 
Q 42.28125 31 38.0625 35.34375 
Q 33.84375 39.703125 27 39.703125 
Q 22.75 39.703125 19.328125 37.765625 
Q 15.921875 35.84375 13.96875 32.765625 
L 5.71875 33.84375 
L 12.640625 70.609375 
L 48.25 70.609375 
L 48.25 62.203125 
L 19.671875 62.203125 
L 15.828125 42.96875 
Q 22.265625 47.46875 29.34375 47.46875 
Q 38.71875 47.46875 45.15625 40.96875 
Q 51.609375 34.46875 51.609375 24.265625 
Q 51.609375 14.546875 45.953125 7.46875 
Q 39.0625 -1.21875 27.15625 -1.21875 
Q 17.390625 -1.21875 11.203125 4.25 
Q 5.03125 9.71875 4.15625 18.75 
z
" id="ArialMT-53"/>
      </defs>
      <g transform="translate(57.758125 88.26625)scale(0.08 -0.08)">
       <use xlink:href="#ArialMT-53"/>
      </g>
     </g>
    </g>
    <g id="xtick_3">
     <g id="line2d_5">
      <g>
       <use style="stroke:#000000;stroke-width:0.5;" x="94.8575" xlink:href="#m11c25085a9" y="81.54"/>
      </g>
     </g>
     <g id="line2d_6">
      <g>
       <use style="stroke:#000000;stroke-width:0.5;" x="94.8575" xlink:href="#md406235255" y="0"/>
      </g>
     </g>
     <g id="text_3">
      <!-- 10 -->
      <defs>
       <path d="M 37.25 0 
L 28.46875 0 
L 28.46875 56 
Q 25.296875 52.984375 20.140625 49.953125 
Q 14.984375 46.921875 10.890625 45.40625 
L 10.890625 53.90625 
Q 18.265625 57.375 23.78125 62.296875 
Q 29.296875 67.234375 31.59375 71.875 
L 37.25 71.875 
z
" id="ArialMT-49"/>
      </defs>
      <g transform="translate(90.40875 88.26625)scale(0.08 -0.08)">
       <use xlink:href="#ArialMT-49"/>
       <use x="55.615234" xlink:href="#ArialMT-48"/>
      </g>
     </g>
    </g>
    <g id="xtick_4">
     <g id="line2d_7">
      <defs>
       <path d="M 0 0 
L 0 -2 
" id="m0a037e0b97" style="stroke:#000000;stroke-width:0.5;"/>
      </defs>
      <g>
       <use style="stroke:#000000;stroke-width:0.5;" x="32.0825" xlink:href="#m0a037e0b97" y="81.54"/>
      </g>
     </g>
     <g id="line2d_8">
      <defs>
       <path d="M 0 0 
L 0 2 
" id="mfb7c241e33" style="stroke:#000000;stroke-width:0.5;"/>
      </defs>
      <g>
       <use style="stroke:#000000;stroke-width:0.5;" x="32.0825" xlink:href="#mfb7c241e33" y="0"/>
      </g>
     </g>
    </g>
    <g id="xtick_5">
     <g id="line2d_9">
      <g>
       <use style="stroke:#000000;stroke-width:0.5;" x="39.0575" xlink:href="#m0a037e0b97" y="81.54"/>
      </g>
     </g>
     <g id="line2d_10">
      <g>
       <use style="stroke:#000000;stroke-width:0.5;" x="39.0575" xlink:href="#mfb7c241e33" y="0"/>
      </g>
     </g>
    </g>
    <g id="xtick_6">
     <g id="line2d_11">
      <g>
       <use style="stroke:#000000;stroke-width:0.5;" x="46.0325" xlink:href="#m0a037e0b97" y="81.54"/>
      </g>
     </g>
     <g id="line2d_12">
      <g>
       <use style="stroke:#000000;stroke-width:0.5;" x="46.0325" xlink:href="#mfb7c241e33" y="0"/>
      </g>
     </g>
    </g>
    <g id="xtick_7">
     <g id="line2d_13">
      <g>
       <use style="stroke:#000000;stroke-width:0.5;" x="53.0075" xlink:href="#m0a037e0b97" y="81.54"/>
      </g>
     </g>
     <g id="line2d_14">
      <g>
       <use style="stroke:#000000;stroke-width:0.5;" x="53.0075" xlink:href="#mfb7c241e33" y="0"/>
      </g>
     </g>
    </g>
    <g id="xtick_8">
     <g id="line2d_15">
      <g>
       <use style="stroke:#000000;stroke-width:0.5;" x="66.9575" xlink:href="#m0a037e0b97" y="81.54"/>
      </g>
     </g>
     <g id="line2d_16">
      <g>
       <use style="stroke:#000000;stroke-width:0.5;" x="66.9575" xlink:href="#mfb7c241e33" y="0"/>
      </g>
     </g>
    </g>
    <g id="xtick_9">
     <g id="line2d_17">
      <g>
       <use style="stroke:#000000;stroke-width:0.5;" x="73.9325" xlink:href="#m0a037e0b97" y="81.54"/>
      </g>
     </g>
     <g id="line2d_18">
      <g>
       <use style="stroke:#000000;stroke-width:0.5;" x="73.9325" xlink:href="#mfb7c241e33" y="0"/>
      </g>
     </g>
    </g>
    <g id="xtick_10">
     <g id="line2d_19">
      <g>
       <use style="stroke:#000000;stroke-width:0.5;" x="80.9075" xlink:href="#m0a037e0b97" y="81.54"/>
      </g>
     </g>
     <g id="line2d_20">
      <g>
       <use style="stroke:#000000;stroke-width:0.5;" x="80.9075" xlink:href="#mfb7c241e33" y="0"/>
      </g>
     </g>
    </g>
    <g id="xtick_11">
     <g id="line2d_21">
      <g>
       <use style="stroke:#000000;stroke-width:0.5;" x="87.8825" xlink:href="#m0a037e0b97" y="81.54"/>
      </g>
     </g>
     <g id="line2d_22">
      <g>
       <use style="stroke:#000000;stroke-width:0.5;" x="87.8825" xlink:href="#mfb7c241e33" y="0"/>
      </g>
     </g>
    </g>
    <g id="xtick_12">
     <g id="line2d_23">
      <g>
       <use style="stroke:#000000;stroke-width:0.5;" x="101.8325" xlink:href="#m0a037e0b97" y="81.54"/>
      </g>
     </g>
     <g id="line2d_24">
      <g>
       <use style="stroke:#000000;stroke-width:0.5;" x="101.8325" xlink:href="#mfb7c241e33" y="0"/>
      </g>
     </g>
    </g>
    <g id="text_4">
     <!-- $\it{V_{SD}}$ (V) -->
     <defs>
      <path d="M 20.609375 0 
L 7.8125 72.90625 
L 17.484375 72.90625 
L 28.078125 10.203125 
L 63.484375 72.90625 
L 74.21875 72.90625 
L 32.078125 0 
z
" id="DejaVuSans-Oblique-86"/>
      <path d="M 60.296875 70.515625 
L 58.40625 60.890625 
Q 53.46875 63.53125 48.609375 64.875 
Q 43.75 66.21875 39.203125 66.21875 
Q 30.375 66.21875 25.140625 62.359375 
Q 19.921875 58.5 19.921875 52.09375 
Q 19.921875 48.578125 21.84375 46.703125 
Q 23.78125 44.828125 31.78125 42.671875 
L 37.703125 41.21875 
Q 47.703125 38.625 51.609375 34.640625 
Q 55.515625 30.671875 55.515625 23.484375 
Q 55.515625 12.453125 46.84375 5.515625 
Q 38.1875 -1.421875 24.03125 -1.421875 
Q 18.21875 -1.421875 12.359375 -0.265625 
Q 6.5 0.875 0.59375 3.21875 
L 2.59375 13.375 
Q 8.015625 10.015625 13.453125 8.296875 
Q 18.890625 6.59375 24.3125 6.59375 
Q 33.546875 6.59375 39.109375 10.6875 
Q 44.671875 14.796875 44.671875 21.390625 
Q 44.671875 25.78125 42.453125 28.046875 
Q 40.234375 30.328125 32.90625 32.171875 
L 27 33.6875 
Q 16.890625 36.328125 13.203125 39.765625 
Q 9.515625 43.21875 9.515625 49.421875 
Q 9.515625 60.296875 17.890625 67.25 
Q 26.265625 74.21875 39.703125 74.21875 
Q 44.921875 74.21875 50.046875 73.28125 
Q 55.171875 72.359375 60.296875 70.515625 
z
" id="DejaVuSans-Oblique-83"/>
      <path d="M 16.890625 72.90625 
L 38.09375 72.90625 
Q 54.984375 72.90625 63.59375 65.75 
Q 72.21875 58.59375 72.21875 44.484375 
Q 72.21875 35.15625 68.9375 26.53125 
Q 65.671875 17.921875 59.90625 12.015625 
Q 54.109375 5.953125 45.171875 2.96875 
Q 36.234375 0 24.03125 0 
L 2.6875 0 
z
M 25.203125 64.796875 
L 14.203125 8.109375 
L 27.09375 8.109375 
Q 43.65625 8.109375 52.734375 17.625 
Q 61.8125 27.15625 61.8125 44.484375 
Q 61.8125 54.984375 55.953125 59.890625 
Q 50.09375 64.796875 37.59375 64.796875 
z
" id="DejaVuSans-Oblique-68"/>
      <path id="ArialMT-32"/>
      <path d="M 23.390625 -21.046875 
Q 16.109375 -11.859375 11.078125 0.4375 
Q 6.0625 12.75 6.0625 25.921875 
Q 6.0625 37.546875 9.8125 48.1875 
Q 14.203125 60.546875 23.390625 72.796875 
L 29.6875 72.796875 
Q 23.78125 62.640625 21.875 58.296875 
Q 18.890625 51.5625 17.1875 44.234375 
Q 15.09375 35.109375 15.09375 25.875 
Q 15.09375 2.390625 29.6875 -21.046875 
z
" id="ArialMT-40"/>
      <path d="M 28.171875 0 
L 0.4375 71.578125 
L 10.6875 71.578125 
L 29.296875 19.578125 
Q 31.546875 13.328125 33.0625 7.859375 
Q 34.71875 13.71875 36.921875 19.578125 
L 56.25 71.578125 
L 65.921875 71.578125 
L 37.890625 0 
z
" id="ArialMT-86"/>
      <path d="M 12.359375 -21.046875 
L 6.0625 -21.046875 
Q 20.65625 2.390625 20.65625 25.875 
Q 20.65625 35.0625 18.5625 44.09375 
Q 16.890625 51.421875 13.921875 58.15625 
Q 12.015625 62.546875 6.0625 72.796875 
L 12.359375 72.796875 
Q 21.53125 60.546875 25.921875 48.1875 
Q 29.6875 37.546875 29.6875 25.921875 
Q 29.6875 12.75 24.625 0.4375 
Q 19.578125 -11.859375 12.359375 -21.046875 
z
" id="ArialMT-41"/>
     </defs>
     <g transform="translate(46.92 97.15625)scale(0.1 -0.1)">
      <use transform="translate(0 0.09375)" xlink:href="#DejaVuSans-Oblique-86"/>
      <use transform="translate(68.408203 -16.3125)scale(0.7)" xlink:href="#DejaVuSans-Oblique-83"/>
      <use transform="translate(112.841797 -16.3125)scale(0.7)" xlink:href="#DejaVuSans-Oblique-68"/>
      <use transform="translate(169.477539 0.09375)" xlink:href="#ArialMT-32"/>
      <use transform="translate(197.260742 0.09375)" xlink:href="#ArialMT-40"/>
      <use transform="translate(230.561523 0.09375)" xlink:href="#ArialMT-86"/>
      <use transform="translate(297.260742 0.09375)" xlink:href="#ArialMT-41"/>
     </g>
    </g>
   </g>
   <g id="matplotlib.axis_2">
    <g id="ytick_1">
     <g id="line2d_25">
      <defs>
       <path d="M 0 0 
L 3.5 0 
" id="m33dda0f236" style="stroke:#000000;stroke-width:0.5;"/>
      </defs>
      <g>
       <use style="stroke:#000000;stroke-width:0.5;" x="21.62" xlink:href="#m33dda0f236" y="71.303281"/>
      </g>
     </g>
     <g id="line2d_26">
      <defs>
       <path d="M 0 0 
L -3.5 0 
" id="mde0fb5d9b2" style="stroke:#000000;stroke-width:0.5;"/>
      </defs>
      <g>
       <use style="stroke:#000000;stroke-width:0.5;" x="105.32" xlink:href="#mde0fb5d9b2" y="71.303281"/>
      </g>
     </g>
     <g id="text_5">
      <!-- 0.0 -->
      <defs>
       <path d="M 9.078125 0 
L 9.078125 10.015625 
L 19.09375 10.015625 
L 19.09375 0 
z
" id="ArialMT-46"/>
      </defs>
      <g transform="translate(9.5 74.166406)scale(0.08 -0.08)">
       <use xlink:href="#ArialMT-48"/>
       <use x="55.615234" xlink:href="#ArialMT-46"/>
       <use x="83.398438" xlink:href="#ArialMT-48"/>
      </g>
     </g>
    </g>
    <g id="ytick_2">
     <g id="line2d_27">
      <g>
       <use style="stroke:#000000;stroke-width:0.5;" x="21.62" xlink:href="#m33dda0f236" y="43.324468"/>
      </g>
     </g>
     <g id="line2d_28">
      <g>
       <use style="stroke:#000000;stroke-width:0.5;" x="105.32" xlink:href="#mde0fb5d9b2" y="43.324468"/>
      </g>
     </g>
     <g id="text_6">
      <!-- 0.2 -->
      <defs>
       <path d="M 50.34375 8.453125 
L 50.34375 0 
L 3.03125 0 
Q 2.9375 3.171875 4.046875 6.109375 
Q 5.859375 10.9375 9.828125 15.625 
Q 13.8125 20.3125 21.34375 26.46875 
Q 33.015625 36.03125 37.109375 41.625 
Q 41.21875 47.21875 41.21875 52.203125 
Q 41.21875 57.421875 37.46875 61 
Q 33.734375 64.59375 27.734375 64.59375 
Q 21.390625 64.59375 17.578125 60.78125 
Q 13.765625 56.984375 13.71875 50.25 
L 4.6875 51.171875 
Q 5.609375 61.28125 11.65625 66.578125 
Q 17.71875 71.875 27.9375 71.875 
Q 38.234375 71.875 44.234375 66.15625 
Q 50.25 60.453125 50.25 52 
Q 50.25 47.703125 48.484375 43.546875 
Q 46.734375 39.40625 42.65625 34.8125 
Q 38.578125 30.21875 29.109375 22.21875 
Q 21.1875 15.578125 18.9375 13.203125 
Q 16.703125 10.84375 15.234375 8.453125 
z
" id="ArialMT-50"/>
      </defs>
      <g transform="translate(9.5 46.187593)scale(0.08 -0.08)">
       <use xlink:href="#ArialMT-48"/>
       <use x="55.615234" xlink:href="#ArialMT-46"/>
       <use x="83.398438" xlink:href="#ArialMT-50"/>
      </g>
     </g>
    </g>
    <g id="ytick_3">
     <g id="line2d_29">
      <g>
       <use style="stroke:#000000;stroke-width:0.5;" x="21.62" xlink:href="#m33dda0f236" y="15.345655"/>
      </g>
     </g>
     <g id="line2d_30">
      <g>
       <use style="stroke:#000000;stroke-width:0.5;" x="105.32" xlink:href="#mde0fb5d9b2" y="15.345655"/>
      </g>
     </g>
     <g id="text_7">
      <!-- 0.4 -->
      <defs>
       <path d="M 32.328125 0 
L 32.328125 17.140625 
L 1.265625 17.140625 
L 1.265625 25.203125 
L 33.9375 71.578125 
L 41.109375 71.578125 
L 41.109375 25.203125 
L 50.78125 25.203125 
L 50.78125 17.140625 
L 41.109375 17.140625 
L 41.109375 0 
z
M 32.328125 25.203125 
L 32.328125 57.46875 
L 9.90625 25.203125 
z
" id="ArialMT-52"/>
      </defs>
      <g transform="translate(9.5 18.20878)scale(0.08 -0.08)">
       <use xlink:href="#ArialMT-48"/>
       <use x="55.615234" xlink:href="#ArialMT-46"/>
       <use x="83.398438" xlink:href="#ArialMT-52"/>
      </g>
     </g>
    </g>
    <g id="ytick_4">
     <g id="line2d_31">
      <defs>
       <path d="M 0 0 
L 2 0 
" id="m8c91c04852" style="stroke:#000000;stroke-width:0.5;"/>
      </defs>
      <g>
       <use style="stroke:#000000;stroke-width:0.5;" x="21.62" xlink:href="#m8c91c04852" y="78.297984"/>
      </g>
     </g>
     <g id="line2d_32">
      <defs>
       <path d="M 0 0 
L -2 0 
" id="mdba9f754bc" style="stroke:#000000;stroke-width:0.5;"/>
      </defs>
      <g>
       <use style="stroke:#000000;stroke-width:0.5;" x="105.32" xlink:href="#mdba9f754bc" y="78.297984"/>
      </g>
     </g>
    </g>
    <g id="ytick_5">
     <g id="line2d_33">
      <g>
       <use style="stroke:#000000;stroke-width:0.5;" x="21.62" xlink:href="#m8c91c04852" y="64.308577"/>
      </g>
     </g>
     <g id="line2d_34">
      <g>
       <use style="stroke:#000000;stroke-width:0.5;" x="105.32" xlink:href="#mdba9f754bc" y="64.308577"/>
      </g>
     </g>
    </g>
    <g id="ytick_6">
     <g id="line2d_35">
      <g>
       <use style="stroke:#000000;stroke-width:0.5;" x="21.62" xlink:href="#m8c91c04852" y="57.313874"/>
      </g>
     </g>
     <g id="line2d_36">
      <g>
       <use style="stroke:#000000;stroke-width:0.5;" x="105.32" xlink:href="#mdba9f754bc" y="57.313874"/>
      </g>
     </g>
    </g>
    <g id="ytick_7">
     <g id="line2d_37">
      <g>
       <use style="stroke:#000000;stroke-width:0.5;" x="21.62" xlink:href="#m8c91c04852" y="50.319171"/>
      </g>
     </g>
     <g id="line2d_38">
      <g>
       <use style="stroke:#000000;stroke-width:0.5;" x="105.32" xlink:href="#mdba9f754bc" y="50.319171"/>
      </g>
     </g>
    </g>
    <g id="ytick_8">
     <g id="line2d_39">
      <g>
       <use style="stroke:#000000;stroke-width:0.5;" x="21.62" xlink:href="#m8c91c04852" y="36.329764"/>
      </g>
     </g>
     <g id="line2d_40">
      <g>
       <use style="stroke:#000000;stroke-width:0.5;" x="105.32" xlink:href="#mdba9f754bc" y="36.329764"/>
      </g>
     </g>
    </g>
    <g id="ytick_9">
     <g id="line2d_41">
      <g>
       <use style="stroke:#000000;stroke-width:0.5;" x="21.62" xlink:href="#m8c91c04852" y="29.335061"/>
      </g>
     </g>
     <g id="line2d_42">
      <g>
       <use style="stroke:#000000;stroke-width:0.5;" x="105.32" xlink:href="#mdba9f754bc" y="29.335061"/>
      </g>
     </g>
    </g>
    <g id="ytick_10">
     <g id="line2d_43">
      <g>
       <use style="stroke:#000000;stroke-width:0.5;" x="21.62" xlink:href="#m8c91c04852" y="22.340358"/>
      </g>
     </g>
     <g id="line2d_44">
      <g>
       <use style="stroke:#000000;stroke-width:0.5;" x="105.32" xlink:href="#mdba9f754bc" y="22.340358"/>
      </g>
     </g>
    </g>
    <g id="ytick_11">
     <g id="line2d_45">
      <g>
       <use style="stroke:#000000;stroke-width:0.5;" x="21.62" xlink:href="#m8c91c04852" y="8.350951"/>
      </g>
     </g>
     <g id="line2d_46">
      <g>
       <use style="stroke:#000000;stroke-width:0.5;" x="105.32" xlink:href="#mdba9f754bc" y="8.350951"/>
      </g>
     </g>
    </g>
    <g id="ytick_12">
     <g id="line2d_47">
      <g>
       <use style="stroke:#000000;stroke-width:0.5;" x="21.62" xlink:href="#m8c91c04852" y="1.356248"/>
      </g>
     </g>
     <g id="line2d_48">
      <g>
       <use style="stroke:#000000;stroke-width:0.5;" x="105.32" xlink:href="#mdba9f754bc" y="1.356248"/>
      </g>
     </g>
    </g>
    <g id="text_8">
     <!-- $\it{I_{D}}$ (μA) -->
     <defs>
      <path d="M 16.890625 72.90625 
L 26.8125 72.90625 
L 12.59375 0 
L 2.6875 0 
z
" id="DejaVuSans-Oblique-73"/>
      <path d="M 49.703125 51.859375 
L 49.703125 0 
L 41.84375 0 
L 41.84375 6.15625 
Q 39.3125 2.25 36.8125 0.78125 
Q 33.40625 -1.21875 28.859375 -1.21875 
Q 24.8125 -1.21875 21.6875 0.390625 
Q 19.34375 1.609375 16.5 5.21875 
L 16.5 -19.875 
L 7.8125 -19.875 
L 7.8125 51.859375 
L 16.5 51.859375 
L 16.5 29.890625 
Q 16.5 17.921875 17.765625 14.375 
Q 19.046875 10.84375 21.890625 8.78125 
Q 24.75 6.734375 28.46875 6.734375 
Q 32.375 6.734375 35.453125 8.875 
Q 38.53125 11.03125 39.796875 14.421875 
Q 41.0625 17.828125 41.0625 29.734375 
L 41.0625 51.859375 
z
" id="ArialMT-956"/>
      <path d="M -0.140625 0 
L 27.34375 71.578125 
L 37.546875 71.578125 
L 66.84375 0 
L 56.0625 0 
L 47.703125 21.6875 
L 17.78125 21.6875 
L 9.90625 0 
z
M 20.515625 29.390625 
L 44.78125 29.390625 
L 37.3125 49.21875 
Q 33.890625 58.25 32.234375 64.0625 
Q 30.859375 57.171875 28.375 50.390625 
z
" id="ArialMT-65"/>
     </defs>
     <g transform="translate(7.3 56.02)rotate(-90)scale(0.1 -0.1)">
      <use transform="translate(0 0.09375)" xlink:href="#DejaVuSans-Oblique-73"/>
      <use transform="translate(29.492188 -16.3125)scale(0.7)" xlink:href="#DejaVuSans-Oblique-68"/>
      <use transform="translate(86.12793 0.09375)" xlink:href="#ArialMT-32"/>
      <use transform="translate(113.911133 0.09375)" xlink:href="#ArialMT-40"/>
      <use transform="translate(147.211914 0.09375)" xlink:href="#ArialMT-956"/>
      <use transform="translate(204.829102 0.09375)" xlink:href="#ArialMT-65"/>
      <use transform="translate(271.52832 0.09375)" xlink:href="#ArialMT-41"/>
     </g>
    </g>
   </g>
   <g id="line2d_49">
    <path clip-path="url(#pa8c1b60b3c)" d="M 25.1075 71.329218 
L 28.595 64.48269 
L 32.0825 58.236636 
L 35.57 52.849653 
L 39.0575 48.726576 
L 42.545 45.21719 
L 46.0325 42.916133 
L 49.52 40.119286 
L 53.0075 37.236128 
L 56.495 35.119189 
L 59.9825 32.010407 
L 63.47 29.860146 
L 66.9575 27.120532 
L 70.445 25.171568 
L 73.9325 22.718948 
L 77.42 20.673072 
L 80.9075 18.645953 
L 84.395 16.082884 
L 87.8825 14.010241 
L 91.37 11.132284 
L 94.8575 9.575897 
" style="fill:none;stroke:#377eb8;stroke-linecap:square;stroke-width:1.5;"/>
    <defs>
     <path d="M 0 0.75 
C 0.198902 0.75 0.389685 0.670975 0.53033 0.53033 
C 0.670975 0.389685 0.75 0.198902 0.75 0 
C 0.75 -0.198902 0.670975 -0.389685 0.53033 -0.53033 
C 0.389685 -0.670975 0.198902 -0.75 0 -0.75 
C -0.198902 -0.75 -0.389685 -0.670975 -0.53033 -0.53033 
C -0.670975 -0.389685 -0.75 -0.198902 -0.75 0 
C -0.75 0.198902 -0.670975 0.389685 -0.53033 0.53033 
C -0.389685 0.670975 -0.198902 0.75 0 0.75 
z
" id="mad95f73dac" style="stroke:#377eb8;"/>
    </defs>
    <g clip-path="url(#pa8c1b60b3c)">
     <use style="fill:#377eb8;stroke:#377eb8;" x="25.1075" xlink:href="#mad95f73dac" y="71.329218"/>
     <use style="fill:#377eb8;stroke:#377eb8;" x="28.595" xlink:href="#mad95f73dac" y="64.48269"/>
     <use style="fill:#377eb8;stroke:#377eb8;" x="32.0825" xlink:href="#mad95f73dac" y="58.236636"/>
     <use style="fill:#377eb8;stroke:#377eb8;" x="35.57" xlink:href="#mad95f73dac" y="52.849653"/>
     <use style="fill:#377eb8;stroke:#377eb8;" x="39.0575" xlink:href="#mad95f73dac" y="48.726576"/>
     <use style="fill:#377eb8;stroke:#377eb8;" x="42.545" xlink:href="#mad95f73dac" y="45.21719"/>
     <use style="fill:#377eb8;stroke:#377eb8;" x="46.0325" xlink:href="#mad95f73dac" y="42.916133"/>
     <use style="fill:#377eb8;stroke:#377eb8;" x="49.52" xlink:href="#mad95f73dac" y="40.119286"/>
     <use style="fill:#377eb8;stroke:#377eb8;" x="53.0075" xlink:href="#mad95f73dac" y="37.236128"/>
     <use style="fill:#377eb8;stroke:#377eb8;" x="56.495" xlink:href="#mad95f73dac" y="35.119189"/>
     <use style="fill:#377eb8;stroke:#377eb8;" x="59.9825" xlink:href="#mad95f73dac" y="32.010407"/>
     <use style="fill:#377eb8;stroke:#377eb8;" x="63.47" xlink:href="#mad95f73dac" y="29.860146"/>
     <use style="fill:#377eb8;stroke:#377eb8;" x="66.9575" xlink:href="#mad95f73dac" y="27.120532"/>
     <use style="fill:#377eb8;stroke:#377eb8;" x="70.445" xlink:href="#mad95f73dac" y="25.171568"/>
     <use style="fill:#377eb8;stroke:#377eb8;" x="73.9325" xlink:href="#mad95f73dac" y="22.718948"/>
     <use style="fill:#377eb8;stroke:#377eb8;" x="77.42" xlink:href="#mad95f73dac" y="20.673072"/>
     <use style="fill:#377eb8;stroke:#377eb8;" x="80.9075" xlink:href="#mad95f73dac" y="18.645953"/>
     <use style="fill:#377eb8;stroke:#377eb8;" x="84.395" xlink:href="#mad95f73dac" y="16.082884"/>
     <use style="fill:#377eb8;stroke:#377eb8;" x="87.8825" xlink:href="#mad95f73dac" y="14.010241"/>
     <use style="fill:#377eb8;stroke:#377eb8;" x="91.37" xlink:href="#mad95f73dac" y="11.132284"/>
     <use style="fill:#377eb8;stroke:#377eb8;" x="94.8575" xlink:href="#mad95f73dac" y="9.575897"/>
    </g>
   </g>
   <g id="line2d_50">
    <path clip-path="url(#pa8c1b60b3c)" d="M 25.1075 71.331543 
L 28.595 69.458729 
L 32.0825 67.510492 
L 35.57 66.102089 
L 39.0575 64.611647 
L 42.545 63.619356 
L 46.0325 62.987037 
L 49.52 62.123521 
L 53.0075 61.496519 
L 56.495 60.872745 
L 59.9825 59.959326 
L 63.47 59.087804 
L 66.9575 58.74453 
L 70.445 57.112311 
L 73.9325 56.100792 
L 77.42 55.046868 
L 80.9075 54.599879 
L 84.395 53.091612 
L 87.8825 52.513577 
L 91.37 51.842399 
L 94.8575 51.002001 
" style="fill:none;stroke:#999999;stroke-linecap:square;stroke-width:1.5;"/>
    <defs>
     <path d="M 0 0.75 
C 0.198902 0.75 0.389685 0.670975 0.53033 0.53033 
C 0.670975 0.389685 0.75 0.198902 0.75 0 
C 0.75 -0.198902 0.670975 -0.389685 0.53033 -0.53033 
C 0.389685 -0.670975 0.198902 -0.75 0 -0.75 
C -0.198902 -0.75 -0.389685 -0.670975 -0.53033 -0.53033 
C -0.670975 -0.389685 -0.75 -0.198902 -0.75 0 
C -0.75 0.198902 -0.670975 0.389685 -0.53033 0.53033 
C -0.389685 0.670975 -0.198902 0.75 0 0.75 
z
" id="m6fc7352e9a" style="stroke:#999999;"/>
    </defs>
    <g clip-path="url(#pa8c1b60b3c)">
     <use style="fill:#999999;stroke:#999999;" x="25.1075" xlink:href="#m6fc7352e9a" y="71.331543"/>
     <use style="fill:#999999;stroke:#999999;" x="28.595" xlink:href="#m6fc7352e9a" y="69.458729"/>
     <use style="fill:#999999;stroke:#999999;" x="32.0825" xlink:href="#m6fc7352e9a" y="67.510492"/>
     <use style="fill:#999999;stroke:#999999;" x="35.57" xlink:href="#m6fc7352e9a" y="66.102089"/>
     <use style="fill:#999999;stroke:#999999;" x="39.0575" xlink:href="#m6fc7352e9a" y="64.611647"/>
     <use style="fill:#999999;stroke:#999999;" x="42.545" xlink:href="#m6fc7352e9a" y="63.619356"/>
     <use style="fill:#999999;stroke:#999999;" x="46.0325" xlink:href="#m6fc7352e9a" y="62.987037"/>
     <use style="fill:#999999;stroke:#999999;" x="49.52" xlink:href="#m6fc7352e9a" y="62.123521"/>
     <use style="fill:#999999;stroke:#999999;" x="53.0075" xlink:href="#m6fc7352e9a" y="61.496519"/>
     <use style="fill:#999999;stroke:#999999;" x="56.495" xlink:href="#m6fc7352e9a" y="60.872745"/>
     <use style="fill:#999999;stroke:#999999;" x="59.9825" xlink:href="#m6fc7352e9a" y="59.959326"/>
     <use style="fill:#999999;stroke:#999999;" x="63.47" xlink:href="#m6fc7352e9a" y="59.087804"/>
     <use style="fill:#999999;stroke:#999999;" x="66.9575" xlink:href="#m6fc7352e9a" y="58.74453"/>
     <use style="fill:#999999;stroke:#999999;" x="70.445" xlink:href="#m6fc7352e9a" y="57.112311"/>
     <use style="fill:#999999;stroke:#999999;" x="73.9325" xlink:href="#m6fc7352e9a" y="56.100792"/>
     <use style="fill:#999999;stroke:#999999;" x="77.42" xlink:href="#m6fc7352e9a" y="55.046868"/>
     <use style="fill:#999999;stroke:#999999;" x="80.9075" xlink:href="#m6fc7352e9a" y="54.599879"/>
     <use style="fill:#999999;stroke:#999999;" x="84.395" xlink:href="#m6fc7352e9a" y="53.091612"/>
     <use style="fill:#999999;stroke:#999999;" x="87.8825" xlink:href="#m6fc7352e9a" y="52.513577"/>
     <use style="fill:#999999;stroke:#999999;" x="91.37" xlink:href="#m6fc7352e9a" y="51.842399"/>
     <use style="fill:#999999;stroke:#999999;" x="94.8575" xlink:href="#m6fc7352e9a" y="51.002001"/>
    </g>
   </g>
   <g id="line2d_51">
    <path clip-path="url(#pa8c1b60b3c)" d="M 25.1075 71.451516 
L 28.595 70.065483 
L 32.0825 69.043085 
L 35.57 68.099755 
L 39.0575 67.409104 
L 42.545 66.757268 
L 46.0325 66.383111 
L 49.52 66.110264 
L 53.0075 65.644461 
L 56.495 65.429249 
L 59.9825 64.954798 
L 63.47 64.510376 
L 66.9575 63.695204 
L 70.445 63.520838 
L 73.9325 63.17359 
L 77.42 62.614534 
L 80.9075 62.222928 
L 84.395 61.547669 
L 87.8825 61.20841 
L 91.37 60.86035 
L 94.8575 60.479082 
" style="fill:none;stroke:#4daf4a;stroke-linecap:square;stroke-width:1.5;"/>
    <defs>
     <path d="M 0 0.75 
C 0.198902 0.75 0.389685 0.670975 0.53033 0.53033 
C 0.670975 0.389685 0.75 0.198902 0.75 0 
C 0.75 -0.198902 0.670975 -0.389685 0.53033 -0.53033 
C 0.389685 -0.670975 0.198902 -0.75 0 -0.75 
C -0.198902 -0.75 -0.389685 -0.670975 -0.53033 -0.53033 
C -0.670975 -0.389685 -0.75 -0.198902 -0.75 0 
C -0.75 0.198902 -0.670975 0.389685 -0.53033 0.53033 
C -0.389685 0.670975 -0.198902 0.75 0 0.75 
z
" id="m52682e5785" style="stroke:#4daf4a;"/>
    </defs>
    <g clip-path="url(#pa8c1b60b3c)">
     <use style="fill:#4daf4a;stroke:#4daf4a;" x="25.1075" xlink:href="#m52682e5785" y="71.451516"/>
     <use style="fill:#4daf4a;stroke:#4daf4a;" x="28.595" xlink:href="#m52682e5785" y="70.065483"/>
     <use style="fill:#4daf4a;stroke:#4daf4a;" x="32.0825" xlink:href="#m52682e5785" y="69.043085"/>
     <use style="fill:#4daf4a;stroke:#4daf4a;" x="35.57" xlink:href="#m52682e5785" y="68.099755"/>
     <use style="fill:#4daf4a;stroke:#4daf4a;" x="39.0575" xlink:href="#m52682e5785" y="67.409104"/>
     <use style="fill:#4daf4a;stroke:#4daf4a;" x="42.545" xlink:href="#m52682e5785" y="66.757268"/>
     <use style="fill:#4daf4a;stroke:#4daf4a;" x="46.0325" xlink:href="#m52682e5785" y="66.383111"/>
     <use style="fill:#4daf4a;stroke:#4daf4a;" x="49.52" xlink:href="#m52682e5785" y="66.110264"/>
     <use style="fill:#4daf4a;stroke:#4daf4a;" x="53.0075" xlink:href="#m52682e5785" y="65.644461"/>
     <use style="fill:#4daf4a;stroke:#4daf4a;" x="56.495" xlink:href="#m52682e5785" y="65.429249"/>
     <use style="fill:#4daf4a;stroke:#4daf4a;" x="59.9825" xlink:href="#m52682e5785" y="64.954798"/>
     <use style="fill:#4daf4a;stroke:#4daf4a;" x="63.47" xlink:href="#m52682e5785" y="64.510376"/>
     <use style="fill:#4daf4a;stroke:#4daf4a;" x="66.9575" xlink:href="#m52682e5785" y="63.695204"/>
     <use style="fill:#4daf4a;stroke:#4daf4a;" x="70.445" xlink:href="#m52682e5785" y="63.520838"/>
     <use style="fill:#4daf4a;stroke:#4daf4a;" x="73.9325" xlink:href="#m52682e5785" y="63.17359"/>
     <use style="fill:#4daf4a;stroke:#4daf4a;" x="77.42" xlink:href="#m52682e5785" y="62.614534"/>
     <use style="fill:#4daf4a;stroke:#4daf4a;" x="80.9075" xlink:href="#m52682e5785" y="62.222928"/>
     <use style="fill:#4daf4a;stroke:#4daf4a;" x="84.395" xlink:href="#m52682e5785" y="61.547669"/>
     <use style="fill:#4daf4a;stroke:#4daf4a;" x="87.8825" xlink:href="#m52682e5785" y="61.20841"/>
     <use style="fill:#4daf4a;stroke:#4daf4a;" x="91.37" xlink:href="#m52682e5785" y="60.86035"/>
     <use style="fill:#4daf4a;stroke:#4daf4a;" x="94.8575" xlink:href="#m52682e5785" y="60.479082"/>
    </g>
   </g>
   <g id="line2d_52">
    <path clip-path="url(#pa8c1b60b3c)" d="M 25.1075 71.388276 
L 28.595 70.485014 
L 32.0825 69.669373 
L 35.57 68.984196 
L 39.0575 68.479996 
L 42.545 68.018259 
L 46.0325 67.631587 
L 49.52 67.434947 
L 53.0075 67.169511 
L 56.495 66.853074 
L 59.9825 66.690335 
L 63.47 66.389432 
L 66.9575 65.947424 
L 70.445 65.762555 
L 73.9325 65.594704 
L 77.42 65.333393 
L 80.9075 65.160982 
L 84.395 64.674206 
L 87.8825 64.530851 
L 91.37 63.703595 
L 94.8575 63.662427 
" style="fill:none;stroke:#a65628;stroke-linecap:square;stroke-width:1.5;"/>
    <defs>
     <path d="M 0 0.75 
C 0.198902 0.75 0.389685 0.670975 0.53033 0.53033 
C 0.670975 0.389685 0.75 0.198902 0.75 0 
C 0.75 -0.198902 0.670975 -0.389685 0.53033 -0.53033 
C 0.389685 -0.670975 0.198902 -0.75 0 -0.75 
C -0.198902 -0.75 -0.389685 -0.670975 -0.53033 -0.53033 
C -0.670975 -0.389685 -0.75 -0.198902 -0.75 0 
C -0.75 0.198902 -0.670975 0.389685 -0.53033 0.53033 
C -0.389685 0.670975 -0.198902 0.75 0 0.75 
z
" id="m1554e2d98d" style="stroke:#a65628;"/>
    </defs>
    <g clip-path="url(#pa8c1b60b3c)">
     <use style="fill:#a65628;stroke:#a65628;" x="25.1075" xlink:href="#m1554e2d98d" y="71.388276"/>
     <use style="fill:#a65628;stroke:#a65628;" x="28.595" xlink:href="#m1554e2d98d" y="70.485014"/>
     <use style="fill:#a65628;stroke:#a65628;" x="32.0825" xlink:href="#m1554e2d98d" y="69.669373"/>
     <use style="fill:#a65628;stroke:#a65628;" x="35.57" xlink:href="#m1554e2d98d" y="68.984196"/>
     <use style="fill:#a65628;stroke:#a65628;" x="39.0575" xlink:href="#m1554e2d98d" y="68.479996"/>
     <use style="fill:#a65628;stroke:#a65628;" x="42.545" xlink:href="#m1554e2d98d" y="68.018259"/>
     <use style="fill:#a65628;stroke:#a65628;" x="46.0325" xlink:href="#m1554e2d98d" y="67.631587"/>
     <use style="fill:#a65628;stroke:#a65628;" x="49.52" xlink:href="#m1554e2d98d" y="67.434947"/>
     <use style="fill:#a65628;stroke:#a65628;" x="53.0075" xlink:href="#m1554e2d98d" y="67.169511"/>
     <use style="fill:#a65628;stroke:#a65628;" x="56.495" xlink:href="#m1554e2d98d" y="66.853074"/>
     <use style="fill:#a65628;stroke:#a65628;" x="59.9825" xlink:href="#m1554e2d98d" y="66.690335"/>
     <use style="fill:#a65628;stroke:#a65628;" x="63.47" xlink:href="#m1554e2d98d" y="66.389432"/>
     <use style="fill:#a65628;stroke:#a65628;" x="66.9575" xlink:href="#m1554e2d98d" y="65.947424"/>
     <use style="fill:#a65628;stroke:#a65628;" x="70.445" xlink:href="#m1554e2d98d" y="65.762555"/>
     <use style="fill:#a65628;stroke:#a65628;" x="73.9325" xlink:href="#m1554e2d98d" y="65.594704"/>
     <use style="fill:#a65628;stroke:#a65628;" x="77.42" xlink:href="#m1554e2d98d" y="65.333393"/>
     <use style="fill:#a65628;stroke:#a65628;" x="80.9075" xlink:href="#m1554e2d98d" y="65.160982"/>
     <use style="fill:#a65628;stroke:#a65628;" x="84.395" xlink:href="#m1554e2d98d" y="64.674206"/>
     <use style="fill:#a65628;stroke:#a65628;" x="87.8825" xlink:href="#m1554e2d98d" y="64.530851"/>
     <use style="fill:#a65628;stroke:#a65628;" x="91.37" xlink:href="#m1554e2d98d" y="63.703595"/>
     <use style="fill:#a65628;stroke:#a65628;" x="94.8575" xlink:href="#m1554e2d98d" y="63.662427"/>
    </g>
   </g>
   <g id="line2d_53">
    <path clip-path="url(#pa8c1b60b3c)" d="M 25.1075 71.362083 
L 28.595 70.631248 
L 32.0825 69.910682 
L 35.57 69.348799 
L 39.0575 68.873954 
L 42.545 68.489425 
L 46.0325 68.258585 
L 49.52 68.08897 
L 53.0075 67.885303 
L 56.495 67.702636 
L 59.9825 67.441708 
L 63.47 67.344905 
L 66.9575 67.107299 
L 70.445 67.087716 
L 73.9325 66.640782 
L 77.42 66.515308 
L 80.9075 66.255283 
L 84.395 65.997649 
L 87.8825 65.616533 
L 91.37 65.29049 
L 94.8575 64.979955 
" style="fill:none;stroke:#984ea3;stroke-linecap:square;stroke-width:1.5;"/>
    <defs>
     <path d="M 0 0.75 
C 0.198902 0.75 0.389685 0.670975 0.53033 0.53033 
C 0.670975 0.389685 0.75 0.198902 0.75 0 
C 0.75 -0.198902 0.670975 -0.389685 0.53033 -0.53033 
C 0.389685 -0.670975 0.198902 -0.75 0 -0.75 
C -0.198902 -0.75 -0.389685 -0.670975 -0.53033 -0.53033 
C -0.670975 -0.389685 -0.75 -0.198902 -0.75 0 
C -0.75 0.198902 -0.670975 0.389685 -0.53033 0.53033 
C -0.389685 0.670975 -0.198902 0.75 0 0.75 
z
" id="m6d6a450530" style="stroke:#984ea3;"/>
    </defs>
    <g clip-path="url(#pa8c1b60b3c)">
     <use style="fill:#984ea3;stroke:#984ea3;" x="25.1075" xlink:href="#m6d6a450530" y="71.362083"/>
     <use style="fill:#984ea3;stroke:#984ea3;" x="28.595" xlink:href="#m6d6a450530" y="70.631248"/>
     <use style="fill:#984ea3;stroke:#984ea3;" x="32.0825" xlink:href="#m6d6a450530" y="69.910682"/>
     <use style="fill:#984ea3;stroke:#984ea3;" x="35.57" xlink:href="#m6d6a450530" y="69.348799"/>
     <use style="fill:#984ea3;stroke:#984ea3;" x="39.0575" xlink:href="#m6d6a450530" y="68.873954"/>
     <use style="fill:#984ea3;stroke:#984ea3;" x="42.545" xlink:href="#m6d6a450530" y="68.489425"/>
     <use style="fill:#984ea3;stroke:#984ea3;" x="46.0325" xlink:href="#m6d6a450530" y="68.258585"/>
     <use style="fill:#984ea3;stroke:#984ea3;" x="49.52" xlink:href="#m6d6a450530" y="68.08897"/>
     <use style="fill:#984ea3;stroke:#984ea3;" x="53.0075" xlink:href="#m6d6a450530" y="67.885303"/>
     <use style="fill:#984ea3;stroke:#984ea3;" x="56.495" xlink:href="#m6d6a450530" y="67.702636"/>
     <use style="fill:#984ea3;stroke:#984ea3;" x="59.9825" xlink:href="#m6d6a450530" y="67.441708"/>
     <use style="fill:#984ea3;stroke:#984ea3;" x="63.47" xlink:href="#m6d6a450530" y="67.344905"/>
     <use style="fill:#984ea3;stroke:#984ea3;" x="66.9575" xlink:href="#m6d6a450530" y="67.107299"/>
     <use style="fill:#984ea3;stroke:#984ea3;" x="70.445" xlink:href="#m6d6a450530" y="67.087716"/>
     <use style="fill:#984ea3;stroke:#984ea3;" x="73.9325" xlink:href="#m6d6a450530" y="66.640782"/>
     <use style="fill:#984ea3;stroke:#984ea3;" x="77.42" xlink:href="#m6d6a450530" y="66.515308"/>
     <use style="fill:#984ea3;stroke:#984ea3;" x="80.9075" xlink:href="#m6d6a450530" y="66.255283"/>
     <use style="fill:#984ea3;stroke:#984ea3;" x="84.395" xlink:href="#m6d6a450530" y="65.997649"/>
     <use style="fill:#984ea3;stroke:#984ea3;" x="87.8825" xlink:href="#m6d6a450530" y="65.616533"/>
     <use style="fill:#984ea3;stroke:#984ea3;" x="91.37" xlink:href="#m6d6a450530" y="65.29049"/>
     <use style="fill:#984ea3;stroke:#984ea3;" x="94.8575" xlink:href="#m6d6a450530" y="64.979955"/>
    </g>
   </g>
   <g id="line2d_54">
    <path clip-path="url(#pa8c1b60b3c)" d="M 25.1075 71.354349 
L 28.595 70.691738 
L 32.0825 70.077353 
L 35.57 69.637357 
L 39.0575 69.172948 
L 42.545 68.840043 
L 46.0325 68.619879 
L 49.52 68.413061 
L 53.0075 68.213329 
L 56.495 68.077264 
L 59.9825 67.775108 
L 63.47 67.721123 
L 66.9575 67.496971 
L 70.445 67.31782 
L 73.9325 66.99172 
L 77.42 66.833718 
L 80.9075 66.514354 
L 84.395 66.273616 
L 87.8825 65.967479 
L 91.37 65.734109 
L 94.8575 65.522651 
" style="fill:none;stroke:#ff7f00;stroke-linecap:square;stroke-width:1.5;"/>
    <defs>
     <path d="M 0 0.75 
C 0.198902 0.75 0.389685 0.670975 0.53033 0.53033 
C 0.670975 0.389685 0.75 0.198902 0.75 0 
C 0.75 -0.198902 0.670975 -0.389685 0.53033 -0.53033 
C 0.389685 -0.670975 0.198902 -0.75 0 -0.75 
C -0.198902 -0.75 -0.389685 -0.670975 -0.53033 -0.53033 
C -0.670975 -0.389685 -0.75 -0.198902 -0.75 0 
C -0.75 0.198902 -0.670975 0.389685 -0.53033 0.53033 
C -0.389685 0.670975 -0.198902 0.75 0 0.75 
z
" id="me3b58cbf8f" style="stroke:#ff7f00;"/>
    </defs>
    <g clip-path="url(#pa8c1b60b3c)">
     <use style="fill:#ff7f00;stroke:#ff7f00;" x="25.1075" xlink:href="#me3b58cbf8f" y="71.354349"/>
     <use style="fill:#ff7f00;stroke:#ff7f00;" x="28.595" xlink:href="#me3b58cbf8f" y="70.691738"/>
     <use style="fill:#ff7f00;stroke:#ff7f00;" x="32.0825" xlink:href="#me3b58cbf8f" y="70.077353"/>
     <use style="fill:#ff7f00;stroke:#ff7f00;" x="35.57" xlink:href="#me3b58cbf8f" y="69.637357"/>
     <use style="fill:#ff7f00;stroke:#ff7f00;" x="39.0575" xlink:href="#me3b58cbf8f" y="69.172948"/>
     <use style="fill:#ff7f00;stroke:#ff7f00;" x="42.545" xlink:href="#me3b58cbf8f" y="68.840043"/>
     <use style="fill:#ff7f00;stroke:#ff7f00;" x="46.0325" xlink:href="#me3b58cbf8f" y="68.619879"/>
     <use style="fill:#ff7f00;stroke:#ff7f00;" x="49.52" xlink:href="#me3b58cbf8f" y="68.413061"/>
     <use style="fill:#ff7f00;stroke:#ff7f00;" x="53.0075" xlink:href="#me3b58cbf8f" y="68.213329"/>
     <use style="fill:#ff7f00;stroke:#ff7f00;" x="56.495" xlink:href="#me3b58cbf8f" y="68.077264"/>
     <use style="fill:#ff7f00;stroke:#ff7f00;" x="59.9825" xlink:href="#me3b58cbf8f" y="67.775108"/>
     <use style="fill:#ff7f00;stroke:#ff7f00;" x="63.47" xlink:href="#me3b58cbf8f" y="67.721123"/>
     <use style="fill:#ff7f00;stroke:#ff7f00;" x="66.9575" xlink:href="#me3b58cbf8f" y="67.496971"/>
     <use style="fill:#ff7f00;stroke:#ff7f00;" x="70.445" xlink:href="#me3b58cbf8f" y="67.31782"/>
     <use style="fill:#ff7f00;stroke:#ff7f00;" x="73.9325" xlink:href="#me3b58cbf8f" y="66.99172"/>
     <use style="fill:#ff7f00;stroke:#ff7f00;" x="77.42" xlink:href="#me3b58cbf8f" y="66.833718"/>
     <use style="fill:#ff7f00;stroke:#ff7f00;" x="80.9075" xlink:href="#me3b58cbf8f" y="66.514354"/>
     <use style="fill:#ff7f00;stroke:#ff7f00;" x="84.395" xlink:href="#me3b58cbf8f" y="66.273616"/>
     <use style="fill:#ff7f00;stroke:#ff7f00;" x="87.8825" xlink:href="#me3b58cbf8f" y="65.967479"/>
     <use style="fill:#ff7f00;stroke:#ff7f00;" x="91.37" xlink:href="#me3b58cbf8f" y="65.734109"/>
     <use style="fill:#ff7f00;stroke:#ff7f00;" x="94.8575" xlink:href="#me3b58cbf8f" y="65.522651"/>
    </g>
   </g>
   <g id="line2d_55">
    <path clip-path="url(#pa8c1b60b3c)" d="M 25.1075 71.349425 
L 28.595 70.755599 
L 32.0825 70.1812 
L 35.57 69.747489 
L 39.0575 69.347214 
L 42.545 68.988504 
L 46.0325 68.660975 
L 49.52 68.537055 
L 53.0075 68.353421 
L 56.495 68.234909 
L 59.9825 68.076347 
L 63.47 67.933531 
L 66.9575 67.709803 
L 70.445 67.509309 
L 73.9325 67.235869 
L 77.42 67.11518 
L 80.9075 66.7124 
L 84.395 66.367939 
L 87.8825 66.148338 
L 91.37 65.879236 
L 94.8575 65.577733 
" style="fill:none;stroke:#e41a1c;stroke-linecap:square;stroke-width:1.5;"/>
    <defs>
     <path d="M 0 0.75 
C 0.198902 0.75 0.389685 0.670975 0.53033 0.53033 
C 0.670975 0.389685 0.75 0.198902 0.75 0 
C 0.75 -0.198902 0.670975 -0.389685 0.53033 -0.53033 
C 0.389685 -0.670975 0.198902 -0.75 0 -0.75 
C -0.198902 -0.75 -0.389685 -0.670975 -0.53033 -0.53033 
C -0.670975 -0.389685 -0.75 -0.198902 -0.75 0 
C -0.75 0.198902 -0.670975 0.389685 -0.53033 0.53033 
C -0.389685 0.670975 -0.198902 0.75 0 0.75 
z
" id="m0b39441243" style="stroke:#e41a1c;"/>
    </defs>
    <g clip-path="url(#pa8c1b60b3c)">
     <use style="fill:#e41a1c;stroke:#e41a1c;" x="25.1075" xlink:href="#m0b39441243" y="71.349425"/>
     <use style="fill:#e41a1c;stroke:#e41a1c;" x="28.595" xlink:href="#m0b39441243" y="70.755599"/>
     <use style="fill:#e41a1c;stroke:#e41a1c;" x="32.0825" xlink:href="#m0b39441243" y="70.1812"/>
     <use style="fill:#e41a1c;stroke:#e41a1c;" x="35.57" xlink:href="#m0b39441243" y="69.747489"/>
     <use style="fill:#e41a1c;stroke:#e41a1c;" x="39.0575" xlink:href="#m0b39441243" y="69.347214"/>
     <use style="fill:#e41a1c;stroke:#e41a1c;" x="42.545" xlink:href="#m0b39441243" y="68.988504"/>
     <use style="fill:#e41a1c;stroke:#e41a1c;" x="46.0325" xlink:href="#m0b39441243" y="68.660975"/>
     <use style="fill:#e41a1c;stroke:#e41a1c;" x="49.52" xlink:href="#m0b39441243" y="68.537055"/>
     <use style="fill:#e41a1c;stroke:#e41a1c;" x="53.0075" xlink:href="#m0b39441243" y="68.353421"/>
     <use style="fill:#e41a1c;stroke:#e41a1c;" x="56.495" xlink:href="#m0b39441243" y="68.234909"/>
     <use style="fill:#e41a1c;stroke:#e41a1c;" x="59.9825" xlink:href="#m0b39441243" y="68.076347"/>
     <use style="fill:#e41a1c;stroke:#e41a1c;" x="63.47" xlink:href="#m0b39441243" y="67.933531"/>
     <use style="fill:#e41a1c;stroke:#e41a1c;" x="66.9575" xlink:href="#m0b39441243" y="67.709803"/>
     <use style="fill:#e41a1c;stroke:#e41a1c;" x="70.445" xlink:href="#m0b39441243" y="67.509309"/>
     <use style="fill:#e41a1c;stroke:#e41a1c;" x="73.9325" xlink:href="#m0b39441243" y="67.235869"/>
     <use style="fill:#e41a1c;stroke:#e41a1c;" x="77.42" xlink:href="#m0b39441243" y="67.11518"/>
     <use style="fill:#e41a1c;stroke:#e41a1c;" x="80.9075" xlink:href="#m0b39441243" y="66.7124"/>
     <use style="fill:#e41a1c;stroke:#e41a1c;" x="84.395" xlink:href="#m0b39441243" y="66.367939"/>
     <use style="fill:#e41a1c;stroke:#e41a1c;" x="87.8825" xlink:href="#m0b39441243" y="66.148338"/>
     <use style="fill:#e41a1c;stroke:#e41a1c;" x="91.37" xlink:href="#m0b39441243" y="65.879236"/>
     <use style="fill:#e41a1c;stroke:#e41a1c;" x="94.8575" xlink:href="#m0b39441243" y="65.577733"/>
    </g>
   </g>
   <g id="patch_3">
    <path d="M 21.62 81.54 
L 21.62 0 
" style="fill:none;stroke:#000000;stroke-linecap:square;stroke-linejoin:miter;stroke-width:0.5;"/>
   </g>
   <g id="patch_4">
    <path d="M 105.32 81.54 
L 105.32 0 
" style="fill:none;stroke:#000000;stroke-linecap:square;stroke-linejoin:miter;stroke-width:0.5;"/>
   </g>
   <g id="patch_5">
    <path d="M 21.62 81.54 
L 105.32 81.54 
" style="fill:none;stroke:#000000;stroke-linecap:square;stroke-linejoin:miter;stroke-width:0.5;"/>
   </g>
   <g id="patch_6">
    <path d="M 21.62 0 
L 105.32 0 
" style="fill:none;stroke:#000000;stroke-linecap:square;stroke-linejoin:miter;stroke-width:0.5;"/>
   </g>
  </g>
 </g>
 <defs>
  <clipPath id="pa8c1b60b3c">
   <rect height="81.54" width="83.7" x="21.62" y="0"/>
  </clipPath>
 </defs>
</svg>
