<?xml version="1.0" encoding="utf-8" standalone="no"?>
<!DOCTYPE svg PUBLIC "-//W3C//DTD SVG 1.1//EN"
  "http://www.w3.org/Graphics/SVG/1.1/DTD/svg11.dtd">
<!-- Created with matplotlib (https://matplotlib.org/) -->
<svg height="126.53625pt" version="1.1" viewBox="0 0 133.755341 126.53625" width="133.755341pt" xmlns="http://www.w3.org/2000/svg" xmlns:xlink="http://www.w3.org/1999/xlink">
 <defs>
  <style type="text/css">
*{stroke-linecap:butt;stroke-linejoin:round;white-space:pre;}
  </style>
 </defs>
 <g id="figure_1">
  <g id="patch_1">
   <path d="M 0 126.53625 
L 133.755341 126.53625 
L 133.755341 0 
L 0 0 
z
" style="fill:none;"/>
  </g>
  <g id="axes_1">
   <g id="patch_2">
    <path d="M 19.3975 108.72 
L 130.9975 108.72 
L 130.9975 0 
L 19.3975 0 
z
" style="fill:none;"/>
   </g>
   <g id="matplotlib.axis_1">
    <g id="xtick_1">
     <g id="line2d_1">
      <defs>
       <path d="M 0 0 
L 0 -3.5 
" id="meff6b6b960" style="stroke:#000000;stroke-width:0.8;"/>
      </defs>
      <g>
       <use style="stroke:#000000;stroke-width:0.8;" x="21.088409" xlink:href="#meff6b6b960" y="108.72"/>
      </g>
     </g>
     <g id="line2d_2">
      <defs>
       <path d="M 0 0 
L 0 3.5 
" id="m3e43e8db5a" style="stroke:#000000;stroke-width:0.8;"/>
      </defs>
      <g>
       <use style="stroke:#000000;stroke-width:0.8;" x="21.088409" xlink:href="#m3e43e8db5a" y="0"/>
      </g>
     </g>
     <g id="text_1">
      <!-- −80 -->
      <defs>
       <path d="M 52.828125 31.203125 
L 5.5625 31.203125 
L 5.5625 39.40625 
L 52.828125 39.40625 
z
" id="ArialMT-8722"/>
       <path d="M 17.671875 38.8125 
Q 12.203125 40.828125 9.5625 44.53125 
Q 6.9375 48.25 6.9375 53.421875 
Q 6.9375 61.234375 12.546875 66.546875 
Q 18.171875 71.875 27.484375 71.875 
Q 36.859375 71.875 42.578125 66.421875 
Q 48.296875 60.984375 48.296875 53.171875 
Q 48.296875 48.1875 45.671875 44.5 
Q 43.0625 40.828125 37.75 38.8125 
Q 44.34375 36.671875 47.78125 31.875 
Q 51.21875 27.09375 51.21875 20.453125 
Q 51.21875 11.28125 44.71875 5.03125 
Q 38.234375 -1.21875 27.640625 -1.21875 
Q 17.046875 -1.21875 10.546875 5.046875 
Q 4.046875 11.328125 4.046875 20.703125 
Q 4.046875 27.6875 7.59375 32.390625 
Q 11.140625 37.109375 17.671875 38.8125 
z
M 15.921875 53.71875 
Q 15.921875 48.640625 19.1875 45.40625 
Q 22.46875 42.1875 27.6875 42.1875 
Q 32.765625 42.1875 36.015625 45.375 
Q 39.265625 48.578125 39.265625 53.21875 
Q 39.265625 58.0625 35.90625 61.359375 
Q 32.5625 64.65625 27.59375 64.65625 
Q 22.5625 64.65625 19.234375 61.421875 
Q 15.921875 58.203125 15.921875 53.71875 
z
M 13.09375 20.65625 
Q 13.09375 16.890625 14.875 13.375 
Q 16.65625 9.859375 20.171875 7.921875 
Q 23.6875 6 27.734375 6 
Q 34.03125 6 38.125 10.046875 
Q 42.234375 14.109375 42.234375 20.359375 
Q 42.234375 26.703125 38.015625 30.859375 
Q 33.796875 35.015625 27.4375 35.015625 
Q 21.234375 35.015625 17.15625 30.90625 
Q 13.09375 26.8125 13.09375 20.65625 
z
" id="ArialMT-56"/>
       <path d="M 4.15625 35.296875 
Q 4.15625 48 6.765625 55.734375 
Q 9.375 63.484375 14.515625 67.671875 
Q 19.671875 71.875 27.484375 71.875 
Q 33.25 71.875 37.59375 69.546875 
Q 41.9375 67.234375 44.765625 62.859375 
Q 47.609375 58.5 49.21875 52.21875 
Q 50.828125 45.953125 50.828125 35.296875 
Q 50.828125 22.703125 48.234375 14.96875 
Q 45.65625 7.234375 40.5 3 
Q 35.359375 -1.21875 27.484375 -1.21875 
Q 17.140625 -1.21875 11.234375 6.203125 
Q 4.15625 15.140625 4.15625 35.296875 
z
M 13.1875 35.296875 
Q 13.1875 17.671875 17.3125 11.828125 
Q 21.4375 6 27.484375 6 
Q 33.546875 6 37.671875 11.859375 
Q 41.796875 17.71875 41.796875 35.296875 
Q 41.796875 52.984375 37.671875 58.78125 
Q 33.546875 64.59375 27.390625 64.59375 
Q 21.34375 64.59375 17.71875 59.46875 
Q 13.1875 52.9375 13.1875 35.296875 
z
" id="ArialMT-48"/>
      </defs>
      <g transform="translate(14.303409 115.44625)scale(0.08 -0.08)">
       <use xlink:href="#ArialMT-8722"/>
       <use x="58.398438" xlink:href="#ArialMT-56"/>
       <use x="114.013672" xlink:href="#ArialMT-48"/>
      </g>
     </g>
    </g>
    <g id="xtick_2">
     <g id="line2d_3">
      <g>
       <use style="stroke:#000000;stroke-width:0.8;" x="48.142955" xlink:href="#meff6b6b960" y="108.72"/>
      </g>
     </g>
     <g id="line2d_4">
      <g>
       <use style="stroke:#000000;stroke-width:0.8;" x="48.142955" xlink:href="#m3e43e8db5a" y="0"/>
      </g>
     </g>
     <g id="text_2">
      <!-- −40 -->
      <defs>
       <path d="M 32.328125 0 
L 32.328125 17.140625 
L 1.265625 17.140625 
L 1.265625 25.203125 
L 33.9375 71.578125 
L 41.109375 71.578125 
L 41.109375 25.203125 
L 50.78125 25.203125 
L 50.78125 17.140625 
L 41.109375 17.140625 
L 41.109375 0 
z
M 32.328125 25.203125 
L 32.328125 57.46875 
L 9.90625 25.203125 
z
" id="ArialMT-52"/>
      </defs>
      <g transform="translate(41.357955 115.44625)scale(0.08 -0.08)">
       <use xlink:href="#ArialMT-8722"/>
       <use x="58.398438" xlink:href="#ArialMT-52"/>
       <use x="114.013672" xlink:href="#ArialMT-48"/>
      </g>
     </g>
    </g>
    <g id="xtick_3">
     <g id="line2d_5">
      <g>
       <use style="stroke:#000000;stroke-width:0.8;" x="75.1975" xlink:href="#meff6b6b960" y="108.72"/>
      </g>
     </g>
     <g id="line2d_6">
      <g>
       <use style="stroke:#000000;stroke-width:0.8;" x="75.1975" xlink:href="#m3e43e8db5a" y="0"/>
      </g>
     </g>
     <g id="text_3">
      <!-- 0 -->
      <g transform="translate(72.973125 115.44625)scale(0.08 -0.08)">
       <use xlink:href="#ArialMT-48"/>
      </g>
     </g>
    </g>
    <g id="xtick_4">
     <g id="line2d_7">
      <g>
       <use style="stroke:#000000;stroke-width:0.8;" x="102.252045" xlink:href="#meff6b6b960" y="108.72"/>
      </g>
     </g>
     <g id="line2d_8">
      <g>
       <use style="stroke:#000000;stroke-width:0.8;" x="102.252045" xlink:href="#m3e43e8db5a" y="0"/>
      </g>
     </g>
     <g id="text_4">
      <!-- 40 -->
      <g transform="translate(97.803295 115.44625)scale(0.08 -0.08)">
       <use xlink:href="#ArialMT-52"/>
       <use x="55.615234" xlink:href="#ArialMT-48"/>
      </g>
     </g>
    </g>
    <g id="xtick_5">
     <g id="line2d_9">
      <g>
       <use style="stroke:#000000;stroke-width:0.8;" x="129.306591" xlink:href="#meff6b6b960" y="108.72"/>
      </g>
     </g>
     <g id="line2d_10">
      <g>
       <use style="stroke:#000000;stroke-width:0.8;" x="129.306591" xlink:href="#m3e43e8db5a" y="0"/>
      </g>
     </g>
     <g id="text_5">
      <!-- 80 -->
      <g transform="translate(124.857841 115.44625)scale(0.08 -0.08)">
       <use xlink:href="#ArialMT-56"/>
       <use x="55.615234" xlink:href="#ArialMT-48"/>
      </g>
     </g>
    </g>
    <g id="xtick_6">
     <g id="line2d_11">
      <defs>
       <path d="M 0 0 
L 0 -2 
" id="m7d324221fd" style="stroke:#000000;stroke-width:0.6;"/>
      </defs>
      <g>
       <use style="stroke:#000000;stroke-width:0.6;" x="27.852045" xlink:href="#m7d324221fd" y="108.72"/>
      </g>
     </g>
     <g id="line2d_12">
      <defs>
       <path d="M 0 0 
L 0 2 
" id="m89e71cfdbe" style="stroke:#000000;stroke-width:0.6;"/>
      </defs>
      <g>
       <use style="stroke:#000000;stroke-width:0.6;" x="27.852045" xlink:href="#m89e71cfdbe" y="0"/>
      </g>
     </g>
    </g>
    <g id="xtick_7">
     <g id="line2d_13">
      <g>
       <use style="stroke:#000000;stroke-width:0.6;" x="34.615682" xlink:href="#m7d324221fd" y="108.72"/>
      </g>
     </g>
     <g id="line2d_14">
      <g>
       <use style="stroke:#000000;stroke-width:0.6;" x="34.615682" xlink:href="#m89e71cfdbe" y="0"/>
      </g>
     </g>
    </g>
    <g id="xtick_8">
     <g id="line2d_15">
      <g>
       <use style="stroke:#000000;stroke-width:0.6;" x="41.379318" xlink:href="#m7d324221fd" y="108.72"/>
      </g>
     </g>
     <g id="line2d_16">
      <g>
       <use style="stroke:#000000;stroke-width:0.6;" x="41.379318" xlink:href="#m89e71cfdbe" y="0"/>
      </g>
     </g>
    </g>
    <g id="xtick_9">
     <g id="line2d_17">
      <g>
       <use style="stroke:#000000;stroke-width:0.6;" x="54.906591" xlink:href="#m7d324221fd" y="108.72"/>
      </g>
     </g>
     <g id="line2d_18">
      <g>
       <use style="stroke:#000000;stroke-width:0.6;" x="54.906591" xlink:href="#m89e71cfdbe" y="0"/>
      </g>
     </g>
    </g>
    <g id="xtick_10">
     <g id="line2d_19">
      <g>
       <use style="stroke:#000000;stroke-width:0.6;" x="61.670227" xlink:href="#m7d324221fd" y="108.72"/>
      </g>
     </g>
     <g id="line2d_20">
      <g>
       <use style="stroke:#000000;stroke-width:0.6;" x="61.670227" xlink:href="#m89e71cfdbe" y="0"/>
      </g>
     </g>
    </g>
    <g id="xtick_11">
     <g id="line2d_21">
      <g>
       <use style="stroke:#000000;stroke-width:0.6;" x="68.433864" xlink:href="#m7d324221fd" y="108.72"/>
      </g>
     </g>
     <g id="line2d_22">
      <g>
       <use style="stroke:#000000;stroke-width:0.6;" x="68.433864" xlink:href="#m89e71cfdbe" y="0"/>
      </g>
     </g>
    </g>
    <g id="xtick_12">
     <g id="line2d_23">
      <g>
       <use style="stroke:#000000;stroke-width:0.6;" x="81.961136" xlink:href="#m7d324221fd" y="108.72"/>
      </g>
     </g>
     <g id="line2d_24">
      <g>
       <use style="stroke:#000000;stroke-width:0.6;" x="81.961136" xlink:href="#m89e71cfdbe" y="0"/>
      </g>
     </g>
    </g>
    <g id="xtick_13">
     <g id="line2d_25">
      <g>
       <use style="stroke:#000000;stroke-width:0.6;" x="88.724773" xlink:href="#m7d324221fd" y="108.72"/>
      </g>
     </g>
     <g id="line2d_26">
      <g>
       <use style="stroke:#000000;stroke-width:0.6;" x="88.724773" xlink:href="#m89e71cfdbe" y="0"/>
      </g>
     </g>
    </g>
    <g id="xtick_14">
     <g id="line2d_27">
      <g>
       <use style="stroke:#000000;stroke-width:0.6;" x="95.488409" xlink:href="#m7d324221fd" y="108.72"/>
      </g>
     </g>
     <g id="line2d_28">
      <g>
       <use style="stroke:#000000;stroke-width:0.6;" x="95.488409" xlink:href="#m89e71cfdbe" y="0"/>
      </g>
     </g>
    </g>
    <g id="xtick_15">
     <g id="line2d_29">
      <g>
       <use style="stroke:#000000;stroke-width:0.6;" x="109.015682" xlink:href="#m7d324221fd" y="108.72"/>
      </g>
     </g>
     <g id="line2d_30">
      <g>
       <use style="stroke:#000000;stroke-width:0.6;" x="109.015682" xlink:href="#m89e71cfdbe" y="0"/>
      </g>
     </g>
    </g>
    <g id="xtick_16">
     <g id="line2d_31">
      <g>
       <use style="stroke:#000000;stroke-width:0.6;" x="115.779318" xlink:href="#m7d324221fd" y="108.72"/>
      </g>
     </g>
     <g id="line2d_32">
      <g>
       <use style="stroke:#000000;stroke-width:0.6;" x="115.779318" xlink:href="#m89e71cfdbe" y="0"/>
      </g>
     </g>
    </g>
    <g id="xtick_17">
     <g id="line2d_33">
      <g>
       <use style="stroke:#000000;stroke-width:0.6;" x="122.542955" xlink:href="#m7d324221fd" y="108.72"/>
      </g>
     </g>
     <g id="line2d_34">
      <g>
       <use style="stroke:#000000;stroke-width:0.6;" x="122.542955" xlink:href="#m89e71cfdbe" y="0"/>
      </g>
     </g>
    </g>
    <g id="text_6">
     <!-- $\it{V_{G}}$ (V) -->
     <defs>
      <path d="M 20.609375 0 
L 7.8125 72.90625 
L 17.484375 72.90625 
L 28.078125 10.203125 
L 63.484375 72.90625 
L 74.21875 72.90625 
L 32.078125 0 
z
" id="DejaVuSans-Oblique-86"/>
      <path d="M 54.59375 10.890625 
L 58.40625 29.984375 
L 42.1875 29.984375 
L 43.703125 38.09375 
L 69.578125 38.09375 
L 63.28125 6 
Q 56.78125 2.4375 49.109375 0.5 
Q 41.453125 -1.421875 33.6875 -1.421875 
Q 19.96875 -1.421875 12.234375 6.1875 
Q 4.5 13.8125 4.5 27.390625 
Q 4.5 38.671875 9.203125 48.84375 
Q 13.921875 59.03125 22.21875 65.828125 
Q 27.4375 70.0625 33.640625 72.140625 
Q 39.84375 74.21875 47.40625 74.21875 
Q 54.25 74.21875 60.515625 72.484375 
Q 66.796875 70.75 72.515625 67.28125 
L 70.515625 56.78125 
Q 66.109375 61.375 60.203125 63.796875 
Q 54.296875 66.21875 47.609375 66.21875 
Q 39.84375 66.21875 33.9375 63.25 
Q 28.03125 60.296875 23.390625 54.109375 
Q 19.4375 48.828125 17.15625 41.671875 
Q 14.890625 34.515625 14.890625 27.09375 
Q 14.890625 16.890625 20.109375 11.734375 
Q 25.34375 6.59375 35.6875 6.59375 
Q 40.875 6.59375 45.703125 7.6875 
Q 50.53125 8.796875 54.59375 10.890625 
z
" id="DejaVuSans-Oblique-71"/>
      <path id="ArialMT-32"/>
      <path d="M 23.390625 -21.046875 
Q 16.109375 -11.859375 11.078125 0.4375 
Q 6.0625 12.75 6.0625 25.921875 
Q 6.0625 37.546875 9.8125 48.1875 
Q 14.203125 60.546875 23.390625 72.796875 
L 29.6875 72.796875 
Q 23.78125 62.640625 21.875 58.296875 
Q 18.890625 51.5625 17.1875 44.234375 
Q 15.09375 35.109375 15.09375 25.875 
Q 15.09375 2.390625 29.6875 -21.046875 
z
" id="ArialMT-40"/>
      <path d="M 28.171875 0 
L 0.4375 71.578125 
L 10.6875 71.578125 
L 29.296875 19.578125 
Q 31.546875 13.328125 33.0625 7.859375 
Q 34.71875 13.71875 36.921875 19.578125 
L 56.25 71.578125 
L 65.921875 71.578125 
L 37.890625 0 
z
" id="ArialMT-86"/>
      <path d="M 12.359375 -21.046875 
L 6.0625 -21.046875 
Q 20.65625 2.390625 20.65625 25.875 
Q 20.65625 35.0625 18.5625 44.09375 
Q 16.890625 51.421875 13.921875 58.15625 
Q 12.015625 62.546875 6.0625 72.796875 
L 12.359375 72.796875 
Q 21.53125 60.546875 25.921875 48.1875 
Q 29.6875 37.546875 29.6875 25.921875 
Q 29.6875 12.75 24.625 0.4375 
Q 19.578125 -11.859375 12.359375 -21.046875 
z
" id="ArialMT-41"/>
     </defs>
     <g transform="translate(60.8475 124.33625)scale(0.1 -0.1)">
      <use transform="translate(0 0.09375)" xlink:href="#DejaVuSans-Oblique-86"/>
      <use transform="translate(68.408203 -16.3125)scale(0.7)" xlink:href="#DejaVuSans-Oblique-71"/>
      <use transform="translate(125.385742 0.09375)" xlink:href="#ArialMT-32"/>
      <use transform="translate(153.168945 0.09375)" xlink:href="#ArialMT-40"/>
      <use transform="translate(186.469727 0.09375)" xlink:href="#ArialMT-86"/>
      <use transform="translate(253.168945 0.09375)" xlink:href="#ArialMT-41"/>
     </g>
    </g>
   </g>
   <g id="matplotlib.axis_2">
    <g id="ytick_1">
     <g id="line2d_35">
      <defs>
       <path d="M 0 0 
L 3.5 0 
" id="md0b90f4a06" style="stroke:#000000;stroke-width:0.8;"/>
      </defs>
      <g>
       <use style="stroke:#000000;stroke-width:0.8;" x="19.3975" xlink:href="#md0b90f4a06" y="104.626687"/>
      </g>
     </g>
     <g id="line2d_36">
      <defs>
       <path d="M 0 0 
L -3.5 0 
" id="m4365071ac2" style="stroke:#000000;stroke-width:0.8;"/>
      </defs>
      <g>
       <use style="stroke:#000000;stroke-width:0.8;" x="130.9975" xlink:href="#m4365071ac2" y="104.626687"/>
      </g>
     </g>
     <g id="text_7">
      <!-- 0 -->
      <g transform="translate(13.94875 107.489812)scale(0.08 -0.08)">
       <use xlink:href="#ArialMT-48"/>
      </g>
     </g>
    </g>
    <g id="ytick_2">
     <g id="line2d_37">
      <g>
       <use style="stroke:#000000;stroke-width:0.8;" x="19.3975" xlink:href="#md0b90f4a06" y="83.296671"/>
      </g>
     </g>
     <g id="line2d_38">
      <g>
       <use style="stroke:#000000;stroke-width:0.8;" x="130.9975" xlink:href="#m4365071ac2" y="83.296671"/>
      </g>
     </g>
     <g id="text_8">
      <!-- 20 -->
      <defs>
       <path d="M 50.34375 8.453125 
L 50.34375 0 
L 3.03125 0 
Q 2.9375 3.171875 4.046875 6.109375 
Q 5.859375 10.9375 9.828125 15.625 
Q 13.8125 20.3125 21.34375 26.46875 
Q 33.015625 36.03125 37.109375 41.625 
Q 41.21875 47.21875 41.21875 52.203125 
Q 41.21875 57.421875 37.46875 61 
Q 33.734375 64.59375 27.734375 64.59375 
Q 21.390625 64.59375 17.578125 60.78125 
Q 13.765625 56.984375 13.71875 50.25 
L 4.6875 51.171875 
Q 5.609375 61.28125 11.65625 66.578125 
Q 17.71875 71.875 27.9375 71.875 
Q 38.234375 71.875 44.234375 66.15625 
Q 50.25 60.453125 50.25 52 
Q 50.25 47.703125 48.484375 43.546875 
Q 46.734375 39.40625 42.65625 34.8125 
Q 38.578125 30.21875 29.109375 22.21875 
Q 21.1875 15.578125 18.9375 13.203125 
Q 16.703125 10.84375 15.234375 8.453125 
z
" id="ArialMT-50"/>
      </defs>
      <g transform="translate(9.5 86.159796)scale(0.08 -0.08)">
       <use xlink:href="#ArialMT-50"/>
       <use x="55.615234" xlink:href="#ArialMT-48"/>
      </g>
     </g>
    </g>
    <g id="ytick_3">
     <g id="line2d_39">
      <g>
       <use style="stroke:#000000;stroke-width:0.8;" x="19.3975" xlink:href="#md0b90f4a06" y="61.966656"/>
      </g>
     </g>
     <g id="line2d_40">
      <g>
       <use style="stroke:#000000;stroke-width:0.8;" x="130.9975" xlink:href="#m4365071ac2" y="61.966656"/>
      </g>
     </g>
     <g id="text_9">
      <!-- 40 -->
      <g transform="translate(9.5 64.829781)scale(0.08 -0.08)">
       <use xlink:href="#ArialMT-52"/>
       <use x="55.615234" xlink:href="#ArialMT-48"/>
      </g>
     </g>
    </g>
    <g id="ytick_4">
     <g id="line2d_41">
      <g>
       <use style="stroke:#000000;stroke-width:0.8;" x="19.3975" xlink:href="#md0b90f4a06" y="40.636641"/>
      </g>
     </g>
     <g id="line2d_42">
      <g>
       <use style="stroke:#000000;stroke-width:0.8;" x="130.9975" xlink:href="#m4365071ac2" y="40.636641"/>
      </g>
     </g>
     <g id="text_10">
      <!-- 60 -->
      <defs>
       <path d="M 49.75 54.046875 
L 41.015625 53.375 
Q 39.84375 58.546875 37.703125 60.890625 
Q 34.125 64.65625 28.90625 64.65625 
Q 24.703125 64.65625 21.53125 62.3125 
Q 17.390625 59.28125 14.984375 53.46875 
Q 12.59375 47.65625 12.5 36.921875 
Q 15.671875 41.75 20.265625 44.09375 
Q 24.859375 46.4375 29.890625 46.4375 
Q 38.671875 46.4375 44.84375 39.96875 
Q 51.03125 33.5 51.03125 23.25 
Q 51.03125 16.5 48.125 10.71875 
Q 45.21875 4.9375 40.140625 1.859375 
Q 35.0625 -1.21875 28.609375 -1.21875 
Q 17.625 -1.21875 10.6875 6.859375 
Q 3.765625 14.9375 3.765625 33.5 
Q 3.765625 54.25 11.421875 63.671875 
Q 18.109375 71.875 29.4375 71.875 
Q 37.890625 71.875 43.28125 67.140625 
Q 48.6875 62.40625 49.75 54.046875 
z
M 13.875 23.1875 
Q 13.875 18.65625 15.796875 14.5 
Q 17.71875 10.359375 21.1875 8.171875 
Q 24.65625 6 28.46875 6 
Q 34.03125 6 38.03125 10.484375 
Q 42.046875 14.984375 42.046875 22.703125 
Q 42.046875 30.125 38.078125 34.390625 
Q 34.125 38.671875 28.125 38.671875 
Q 22.171875 38.671875 18.015625 34.390625 
Q 13.875 30.125 13.875 23.1875 
z
" id="ArialMT-54"/>
      </defs>
      <g transform="translate(9.5 43.499766)scale(0.08 -0.08)">
       <use xlink:href="#ArialMT-54"/>
       <use x="55.615234" xlink:href="#ArialMT-48"/>
      </g>
     </g>
    </g>
    <g id="ytick_5">
     <g id="line2d_43">
      <g>
       <use style="stroke:#000000;stroke-width:0.8;" x="19.3975" xlink:href="#md0b90f4a06" y="19.306625"/>
      </g>
     </g>
     <g id="line2d_44">
      <g>
       <use style="stroke:#000000;stroke-width:0.8;" x="130.9975" xlink:href="#m4365071ac2" y="19.306625"/>
      </g>
     </g>
     <g id="text_11">
      <!-- 80 -->
      <g transform="translate(9.5 22.16975)scale(0.08 -0.08)">
       <use xlink:href="#ArialMT-56"/>
       <use x="55.615234" xlink:href="#ArialMT-48"/>
      </g>
     </g>
    </g>
    <g id="ytick_6">
     <g id="line2d_45">
      <defs>
       <path d="M 0 0 
L 2 0 
" id="m1708a195e4" style="stroke:#000000;stroke-width:0.6;"/>
      </defs>
      <g>
       <use style="stroke:#000000;stroke-width:0.6;" x="19.3975" xlink:href="#m1708a195e4" y="99.294183"/>
      </g>
     </g>
     <g id="line2d_46">
      <defs>
       <path d="M 0 0 
L -2 0 
" id="m6e639420ce" style="stroke:#000000;stroke-width:0.6;"/>
      </defs>
      <g>
       <use style="stroke:#000000;stroke-width:0.6;" x="130.9975" xlink:href="#m6e639420ce" y="99.294183"/>
      </g>
     </g>
    </g>
    <g id="ytick_7">
     <g id="line2d_47">
      <g>
       <use style="stroke:#000000;stroke-width:0.6;" x="19.3975" xlink:href="#m1708a195e4" y="93.961679"/>
      </g>
     </g>
     <g id="line2d_48">
      <g>
       <use style="stroke:#000000;stroke-width:0.6;" x="130.9975" xlink:href="#m6e639420ce" y="93.961679"/>
      </g>
     </g>
    </g>
    <g id="ytick_8">
     <g id="line2d_49">
      <g>
       <use style="stroke:#000000;stroke-width:0.6;" x="19.3975" xlink:href="#m1708a195e4" y="88.629175"/>
      </g>
     </g>
     <g id="line2d_50">
      <g>
       <use style="stroke:#000000;stroke-width:0.6;" x="130.9975" xlink:href="#m6e639420ce" y="88.629175"/>
      </g>
     </g>
    </g>
    <g id="ytick_9">
     <g id="line2d_51">
      <g>
       <use style="stroke:#000000;stroke-width:0.6;" x="19.3975" xlink:href="#m1708a195e4" y="77.964168"/>
      </g>
     </g>
     <g id="line2d_52">
      <g>
       <use style="stroke:#000000;stroke-width:0.6;" x="130.9975" xlink:href="#m6e639420ce" y="77.964168"/>
      </g>
     </g>
    </g>
    <g id="ytick_10">
     <g id="line2d_53">
      <g>
       <use style="stroke:#000000;stroke-width:0.6;" x="19.3975" xlink:href="#m1708a195e4" y="72.631664"/>
      </g>
     </g>
     <g id="line2d_54">
      <g>
       <use style="stroke:#000000;stroke-width:0.6;" x="130.9975" xlink:href="#m6e639420ce" y="72.631664"/>
      </g>
     </g>
    </g>
    <g id="ytick_11">
     <g id="line2d_55">
      <g>
       <use style="stroke:#000000;stroke-width:0.6;" x="19.3975" xlink:href="#m1708a195e4" y="67.29916"/>
      </g>
     </g>
     <g id="line2d_56">
      <g>
       <use style="stroke:#000000;stroke-width:0.6;" x="130.9975" xlink:href="#m6e639420ce" y="67.29916"/>
      </g>
     </g>
    </g>
    <g id="ytick_12">
     <g id="line2d_57">
      <g>
       <use style="stroke:#000000;stroke-width:0.6;" x="19.3975" xlink:href="#m1708a195e4" y="56.634152"/>
      </g>
     </g>
     <g id="line2d_58">
      <g>
       <use style="stroke:#000000;stroke-width:0.6;" x="130.9975" xlink:href="#m6e639420ce" y="56.634152"/>
      </g>
     </g>
    </g>
    <g id="ytick_13">
     <g id="line2d_59">
      <g>
       <use style="stroke:#000000;stroke-width:0.6;" x="19.3975" xlink:href="#m1708a195e4" y="51.301648"/>
      </g>
     </g>
     <g id="line2d_60">
      <g>
       <use style="stroke:#000000;stroke-width:0.6;" x="130.9975" xlink:href="#m6e639420ce" y="51.301648"/>
      </g>
     </g>
    </g>
    <g id="ytick_14">
     <g id="line2d_61">
      <g>
       <use style="stroke:#000000;stroke-width:0.6;" x="19.3975" xlink:href="#m1708a195e4" y="45.969144"/>
      </g>
     </g>
     <g id="line2d_62">
      <g>
       <use style="stroke:#000000;stroke-width:0.6;" x="130.9975" xlink:href="#m6e639420ce" y="45.969144"/>
      </g>
     </g>
    </g>
    <g id="ytick_15">
     <g id="line2d_63">
      <g>
       <use style="stroke:#000000;stroke-width:0.6;" x="19.3975" xlink:href="#m1708a195e4" y="35.304137"/>
      </g>
     </g>
     <g id="line2d_64">
      <g>
       <use style="stroke:#000000;stroke-width:0.6;" x="130.9975" xlink:href="#m6e639420ce" y="35.304137"/>
      </g>
     </g>
    </g>
    <g id="ytick_16">
     <g id="line2d_65">
      <g>
       <use style="stroke:#000000;stroke-width:0.6;" x="19.3975" xlink:href="#m1708a195e4" y="29.971633"/>
      </g>
     </g>
     <g id="line2d_66">
      <g>
       <use style="stroke:#000000;stroke-width:0.6;" x="130.9975" xlink:href="#m6e639420ce" y="29.971633"/>
      </g>
     </g>
    </g>
    <g id="ytick_17">
     <g id="line2d_67">
      <g>
       <use style="stroke:#000000;stroke-width:0.6;" x="19.3975" xlink:href="#m1708a195e4" y="24.639129"/>
      </g>
     </g>
     <g id="line2d_68">
      <g>
       <use style="stroke:#000000;stroke-width:0.6;" x="130.9975" xlink:href="#m6e639420ce" y="24.639129"/>
      </g>
     </g>
    </g>
    <g id="ytick_18">
     <g id="line2d_69">
      <g>
       <use style="stroke:#000000;stroke-width:0.6;" x="19.3975" xlink:href="#m1708a195e4" y="13.974121"/>
      </g>
     </g>
     <g id="line2d_70">
      <g>
       <use style="stroke:#000000;stroke-width:0.6;" x="130.9975" xlink:href="#m6e639420ce" y="13.974121"/>
      </g>
     </g>
    </g>
    <g id="ytick_19">
     <g id="line2d_71">
      <g>
       <use style="stroke:#000000;stroke-width:0.6;" x="19.3975" xlink:href="#m1708a195e4" y="8.641617"/>
      </g>
     </g>
     <g id="line2d_72">
      <g>
       <use style="stroke:#000000;stroke-width:0.6;" x="130.9975" xlink:href="#m6e639420ce" y="8.641617"/>
      </g>
     </g>
    </g>
    <g id="ytick_20">
     <g id="line2d_73">
      <g>
       <use style="stroke:#000000;stroke-width:0.6;" x="19.3975" xlink:href="#m1708a195e4" y="3.309114"/>
      </g>
     </g>
     <g id="line2d_74">
      <g>
       <use style="stroke:#000000;stroke-width:0.6;" x="130.9975" xlink:href="#m6e639420ce" y="3.309114"/>
      </g>
     </g>
    </g>
    <g id="text_12">
     <!-- $\it{I_{SD}}$ (nA) -->
     <defs>
      <path d="M 16.890625 72.90625 
L 26.8125 72.90625 
L 12.59375 0 
L 2.6875 0 
z
" id="DejaVuSans-Oblique-73"/>
      <path d="M 60.296875 70.515625 
L 58.40625 60.890625 
Q 53.46875 63.53125 48.609375 64.875 
Q 43.75 66.21875 39.203125 66.21875 
Q 30.375 66.21875 25.140625 62.359375 
Q 19.921875 58.5 19.921875 52.09375 
Q 19.921875 48.578125 21.84375 46.703125 
Q 23.78125 44.828125 31.78125 42.671875 
L 37.703125 41.21875 
Q 47.703125 38.625 51.609375 34.640625 
Q 55.515625 30.671875 55.515625 23.484375 
Q 55.515625 12.453125 46.84375 5.515625 
Q 38.1875 -1.421875 24.03125 -1.421875 
Q 18.21875 -1.421875 12.359375 -0.265625 
Q 6.5 0.875 0.59375 3.21875 
L 2.59375 13.375 
Q 8.015625 10.015625 13.453125 8.296875 
Q 18.890625 6.59375 24.3125 6.59375 
Q 33.546875 6.59375 39.109375 10.6875 
Q 44.671875 14.796875 44.671875 21.390625 
Q 44.671875 25.78125 42.453125 28.046875 
Q 40.234375 30.328125 32.90625 32.171875 
L 27 33.6875 
Q 16.890625 36.328125 13.203125 39.765625 
Q 9.515625 43.21875 9.515625 49.421875 
Q 9.515625 60.296875 17.890625 67.25 
Q 26.265625 74.21875 39.703125 74.21875 
Q 44.921875 74.21875 50.046875 73.28125 
Q 55.171875 72.359375 60.296875 70.515625 
z
" id="DejaVuSans-Oblique-83"/>
      <path d="M 16.890625 72.90625 
L 38.09375 72.90625 
Q 54.984375 72.90625 63.59375 65.75 
Q 72.21875 58.59375 72.21875 44.484375 
Q 72.21875 35.15625 68.9375 26.53125 
Q 65.671875 17.921875 59.90625 12.015625 
Q 54.109375 5.953125 45.171875 2.96875 
Q 36.234375 0 24.03125 0 
L 2.6875 0 
z
M 25.203125 64.796875 
L 14.203125 8.109375 
L 27.09375 8.109375 
Q 43.65625 8.109375 52.734375 17.625 
Q 61.8125 27.15625 61.8125 44.484375 
Q 61.8125 54.984375 55.953125 59.890625 
Q 50.09375 64.796875 37.59375 64.796875 
z
" id="DejaVuSans-Oblique-68"/>
      <path d="M 6.59375 0 
L 6.59375 51.859375 
L 14.5 51.859375 
L 14.5 44.484375 
Q 20.21875 53.03125 31 53.03125 
Q 35.6875 53.03125 39.625 51.34375 
Q 43.5625 49.65625 45.515625 46.921875 
Q 47.46875 44.1875 48.25 40.4375 
Q 48.734375 37.984375 48.734375 31.890625 
L 48.734375 0 
L 39.9375 0 
L 39.9375 31.546875 
Q 39.9375 36.921875 38.90625 39.578125 
Q 37.890625 42.234375 35.28125 43.8125 
Q 32.671875 45.40625 29.15625 45.40625 
Q 23.53125 45.40625 19.453125 41.84375 
Q 15.375 38.28125 15.375 28.328125 
L 15.375 0 
z
" id="ArialMT-110"/>
      <path d="M -0.140625 0 
L 27.34375 71.578125 
L 37.546875 71.578125 
L 66.84375 0 
L 56.0625 0 
L 47.703125 21.6875 
L 17.78125 21.6875 
L 9.90625 0 
z
M 20.515625 29.390625 
L 44.78125 29.390625 
L 37.3125 49.21875 
Q 33.890625 58.25 32.234375 64.0625 
Q 30.859375 57.171875 28.375 50.390625 
z
" id="ArialMT-65"/>
     </defs>
     <g transform="translate(7.3 71.76)rotate(-90)scale(0.1 -0.1)">
      <use transform="translate(0 0.09375)" xlink:href="#DejaVuSans-Oblique-73"/>
      <use transform="translate(29.492188 -16.3125)scale(0.7)" xlink:href="#DejaVuSans-Oblique-83"/>
      <use transform="translate(73.925781 -16.3125)scale(0.7)" xlink:href="#DejaVuSans-Oblique-68"/>
      <use transform="translate(130.561523 0.09375)" xlink:href="#ArialMT-32"/>
      <use transform="translate(158.344727 0.09375)" xlink:href="#ArialMT-40"/>
      <use transform="translate(191.645508 0.09375)" xlink:href="#ArialMT-110"/>
      <use transform="translate(247.260742 0.09375)" xlink:href="#ArialMT-65"/>
      <use transform="translate(313.959961 0.09375)" xlink:href="#ArialMT-41"/>
     </g>
    </g>
   </g>
   <g id="line2d_75">
    <path clip-path="url(#p5f0aaace14)" d="M 24.470227 93.526593 
L 27.852045 88.148357 
L 31.233864 84.668196 
L 34.615682 80.927744 
L 37.9975 76.882169 
L 41.379318 72.632984 
L 44.761136 68.01022 
L 48.142955 63.678366 
L 51.524773 59.099009 
L 54.906591 54.597417 
L 58.288409 50.347866 
L 61.670227 45.947799 
L 65.052045 41.546567 
L 68.433864 37.168136 
L 71.815682 33.323742 
L 75.1975 29.861746 
L 78.579318 26.102211 
L 81.961136 23.043442 
L 85.342955 20.579331 
L 88.724773 18.054073 
L 92.106591 15.742011 
L 95.488409 13.592272 
L 98.870227 12.195264 
L 102.252045 11.019132 
L 105.633864 10.2452 
L 109.015682 9.382685 
L 112.3975 8.378895 
L 115.779318 7.501245 
L 119.161136 7.160238 
L 122.542955 6.489357 
L 125.924773 4.941818 
L 122.542955 65.970701 
L 119.161136 77.187379 
L 115.779318 82.837134 
L 112.3975 85.935689 
L 109.015682 87.809239 
L 105.633864 89.037515 
L 102.252045 89.929439 
L 98.870227 90.646195 
L 95.488409 91.282932 
L 92.106591 91.835183 
L 88.724773 92.250735 
L 85.342955 92.812694 
L 81.961136 93.136491 
L 78.579318 93.38459 
L 75.1975 93.59772 
L 71.815682 93.808209 
L 68.433864 93.883726 
L 65.052045 94.063701 
L 61.670227 94.248585 
L 58.288409 94.372055 
L 54.906591 94.448379 
L 51.524773 94.544784 
L 48.142955 94.728423 
L 44.761136 94.742572 
L 41.379318 94.844998 
L 37.9975 94.924152 
L 34.615682 95.130551 
L 31.233864 94.965573 
L 27.852045 95.045316 
L 24.470227 94.925305 
" style="fill:none;stroke:#5e81b5;stroke-linecap:square;stroke-width:1.5;"/>
    <defs>
     <path d="M 0 0.75 
C 0.198902 0.75 0.389685 0.670975 0.53033 0.53033 
C 0.670975 0.389685 0.75 0.198902 0.75 0 
C 0.75 -0.198902 0.670975 -0.389685 0.53033 -0.53033 
C 0.389685 -0.670975 0.198902 -0.75 0 -0.75 
C -0.198902 -0.75 -0.389685 -0.670975 -0.53033 -0.53033 
C -0.670975 -0.389685 -0.75 -0.198902 -0.75 0 
C -0.75 0.198902 -0.670975 0.389685 -0.53033 0.53033 
C -0.389685 0.670975 -0.198902 0.75 0 0.75 
z
" id="m1bfba93964" style="stroke:#5e81b5;"/>
    </defs>
    <g clip-path="url(#p5f0aaace14)">
     <use style="fill:#5e81b5;stroke:#5e81b5;" x="24.470227" xlink:href="#m1bfba93964" y="93.526593"/>
     <use style="fill:#5e81b5;stroke:#5e81b5;" x="27.852045" xlink:href="#m1bfba93964" y="88.148357"/>
     <use style="fill:#5e81b5;stroke:#5e81b5;" x="31.233864" xlink:href="#m1bfba93964" y="84.668196"/>
     <use style="fill:#5e81b5;stroke:#5e81b5;" x="34.615682" xlink:href="#m1bfba93964" y="80.927744"/>
     <use style="fill:#5e81b5;stroke:#5e81b5;" x="37.9975" xlink:href="#m1bfba93964" y="76.882169"/>
     <use style="fill:#5e81b5;stroke:#5e81b5;" x="41.379318" xlink:href="#m1bfba93964" y="72.632984"/>
     <use style="fill:#5e81b5;stroke:#5e81b5;" x="44.761136" xlink:href="#m1bfba93964" y="68.01022"/>
     <use style="fill:#5e81b5;stroke:#5e81b5;" x="48.142955" xlink:href="#m1bfba93964" y="63.678366"/>
     <use style="fill:#5e81b5;stroke:#5e81b5;" x="51.524773" xlink:href="#m1bfba93964" y="59.099009"/>
     <use style="fill:#5e81b5;stroke:#5e81b5;" x="54.906591" xlink:href="#m1bfba93964" y="54.597417"/>
     <use style="fill:#5e81b5;stroke:#5e81b5;" x="58.288409" xlink:href="#m1bfba93964" y="50.347866"/>
     <use style="fill:#5e81b5;stroke:#5e81b5;" x="61.670227" xlink:href="#m1bfba93964" y="45.947799"/>
     <use style="fill:#5e81b5;stroke:#5e81b5;" x="65.052045" xlink:href="#m1bfba93964" y="41.546567"/>
     <use style="fill:#5e81b5;stroke:#5e81b5;" x="68.433864" xlink:href="#m1bfba93964" y="37.168136"/>
     <use style="fill:#5e81b5;stroke:#5e81b5;" x="71.815682" xlink:href="#m1bfba93964" y="33.323742"/>
     <use style="fill:#5e81b5;stroke:#5e81b5;" x="75.1975" xlink:href="#m1bfba93964" y="29.861746"/>
     <use style="fill:#5e81b5;stroke:#5e81b5;" x="78.579318" xlink:href="#m1bfba93964" y="26.102211"/>
     <use style="fill:#5e81b5;stroke:#5e81b5;" x="81.961136" xlink:href="#m1bfba93964" y="23.043442"/>
     <use style="fill:#5e81b5;stroke:#5e81b5;" x="85.342955" xlink:href="#m1bfba93964" y="20.579331"/>
     <use style="fill:#5e81b5;stroke:#5e81b5;" x="88.724773" xlink:href="#m1bfba93964" y="18.054073"/>
     <use style="fill:#5e81b5;stroke:#5e81b5;" x="92.106591" xlink:href="#m1bfba93964" y="15.742011"/>
     <use style="fill:#5e81b5;stroke:#5e81b5;" x="95.488409" xlink:href="#m1bfba93964" y="13.592272"/>
     <use style="fill:#5e81b5;stroke:#5e81b5;" x="98.870227" xlink:href="#m1bfba93964" y="12.195264"/>
     <use style="fill:#5e81b5;stroke:#5e81b5;" x="102.252045" xlink:href="#m1bfba93964" y="11.019132"/>
     <use style="fill:#5e81b5;stroke:#5e81b5;" x="105.633864" xlink:href="#m1bfba93964" y="10.2452"/>
     <use style="fill:#5e81b5;stroke:#5e81b5;" x="109.015682" xlink:href="#m1bfba93964" y="9.382685"/>
     <use style="fill:#5e81b5;stroke:#5e81b5;" x="112.3975" xlink:href="#m1bfba93964" y="8.378895"/>
     <use style="fill:#5e81b5;stroke:#5e81b5;" x="115.779318" xlink:href="#m1bfba93964" y="7.501245"/>
     <use style="fill:#5e81b5;stroke:#5e81b5;" x="119.161136" xlink:href="#m1bfba93964" y="7.160238"/>
     <use style="fill:#5e81b5;stroke:#5e81b5;" x="122.542955" xlink:href="#m1bfba93964" y="6.489357"/>
     <use style="fill:#5e81b5;stroke:#5e81b5;" x="125.924773" xlink:href="#m1bfba93964" y="4.941818"/>
     <use style="fill:#5e81b5;stroke:#5e81b5;" x="122.542955" xlink:href="#m1bfba93964" y="65.970701"/>
     <use style="fill:#5e81b5;stroke:#5e81b5;" x="119.161136" xlink:href="#m1bfba93964" y="77.187379"/>
     <use style="fill:#5e81b5;stroke:#5e81b5;" x="115.779318" xlink:href="#m1bfba93964" y="82.837134"/>
     <use style="fill:#5e81b5;stroke:#5e81b5;" x="112.3975" xlink:href="#m1bfba93964" y="85.935689"/>
     <use style="fill:#5e81b5;stroke:#5e81b5;" x="109.015682" xlink:href="#m1bfba93964" y="87.809239"/>
     <use style="fill:#5e81b5;stroke:#5e81b5;" x="105.633864" xlink:href="#m1bfba93964" y="89.037515"/>
     <use style="fill:#5e81b5;stroke:#5e81b5;" x="102.252045" xlink:href="#m1bfba93964" y="89.929439"/>
     <use style="fill:#5e81b5;stroke:#5e81b5;" x="98.870227" xlink:href="#m1bfba93964" y="90.646195"/>
     <use style="fill:#5e81b5;stroke:#5e81b5;" x="95.488409" xlink:href="#m1bfba93964" y="91.282932"/>
     <use style="fill:#5e81b5;stroke:#5e81b5;" x="92.106591" xlink:href="#m1bfba93964" y="91.835183"/>
     <use style="fill:#5e81b5;stroke:#5e81b5;" x="88.724773" xlink:href="#m1bfba93964" y="92.250735"/>
     <use style="fill:#5e81b5;stroke:#5e81b5;" x="85.342955" xlink:href="#m1bfba93964" y="92.812694"/>
     <use style="fill:#5e81b5;stroke:#5e81b5;" x="81.961136" xlink:href="#m1bfba93964" y="93.136491"/>
     <use style="fill:#5e81b5;stroke:#5e81b5;" x="78.579318" xlink:href="#m1bfba93964" y="93.38459"/>
     <use style="fill:#5e81b5;stroke:#5e81b5;" x="75.1975" xlink:href="#m1bfba93964" y="93.59772"/>
     <use style="fill:#5e81b5;stroke:#5e81b5;" x="71.815682" xlink:href="#m1bfba93964" y="93.808209"/>
     <use style="fill:#5e81b5;stroke:#5e81b5;" x="68.433864" xlink:href="#m1bfba93964" y="93.883726"/>
     <use style="fill:#5e81b5;stroke:#5e81b5;" x="65.052045" xlink:href="#m1bfba93964" y="94.063701"/>
     <use style="fill:#5e81b5;stroke:#5e81b5;" x="61.670227" xlink:href="#m1bfba93964" y="94.248585"/>
     <use style="fill:#5e81b5;stroke:#5e81b5;" x="58.288409" xlink:href="#m1bfba93964" y="94.372055"/>
     <use style="fill:#5e81b5;stroke:#5e81b5;" x="54.906591" xlink:href="#m1bfba93964" y="94.448379"/>
     <use style="fill:#5e81b5;stroke:#5e81b5;" x="51.524773" xlink:href="#m1bfba93964" y="94.544784"/>
     <use style="fill:#5e81b5;stroke:#5e81b5;" x="48.142955" xlink:href="#m1bfba93964" y="94.728423"/>
     <use style="fill:#5e81b5;stroke:#5e81b5;" x="44.761136" xlink:href="#m1bfba93964" y="94.742572"/>
     <use style="fill:#5e81b5;stroke:#5e81b5;" x="41.379318" xlink:href="#m1bfba93964" y="94.844998"/>
     <use style="fill:#5e81b5;stroke:#5e81b5;" x="37.9975" xlink:href="#m1bfba93964" y="94.924152"/>
     <use style="fill:#5e81b5;stroke:#5e81b5;" x="34.615682" xlink:href="#m1bfba93964" y="95.130551"/>
     <use style="fill:#5e81b5;stroke:#5e81b5;" x="31.233864" xlink:href="#m1bfba93964" y="94.965573"/>
     <use style="fill:#5e81b5;stroke:#5e81b5;" x="27.852045" xlink:href="#m1bfba93964" y="95.045316"/>
     <use style="fill:#5e81b5;stroke:#5e81b5;" x="24.470227" xlink:href="#m1bfba93964" y="94.925305"/>
    </g>
   </g>
   <g id="line2d_76">
    <path clip-path="url(#p5f0aaace14)" d="M 24.470227 103.569555 
L 27.852045 103.054274 
L 31.233864 102.787989 
L 34.615682 102.519968 
L 37.9975 102.256672 
L 41.379318 102.003006 
L 44.761136 101.614915 
L 48.142955 101.18092 
L 51.524773 100.671455 
L 54.906591 100.109135 
L 58.288409 99.410486 
L 61.670227 98.780323 
L 65.052045 98.187055 
L 68.433864 97.552165 
L 71.815682 96.881043 
L 75.1975 96.393131 
L 78.579318 95.950514 
L 81.961136 95.478739 
L 85.342955 95.082226 
L 88.724773 94.281969 
L 92.106591 93.367363 
L 95.488409 92.692487 
L 98.870227 92.150732 
L 102.252045 91.808288 
L 105.633864 91.197472 
L 109.015682 90.819046 
L 112.3975 90.208276 
L 115.779318 89.834973 
L 119.161136 89.531354 
L 122.542955 89.174758 
L 125.924773 88.784359 
L 122.542955 98.439991 
L 119.161136 100.660922 
L 115.779318 101.707662 
L 112.3975 102.280442 
L 109.015682 102.651699 
L 105.633864 102.985866 
L 102.252045 103.138618 
L 98.870227 103.264214 
L 95.488409 103.344188 
L 92.106591 103.443589 
L 88.724773 103.482866 
L 85.342955 103.538118 
L 81.961136 103.577651 
L 78.579318 103.658585 
L 75.1975 103.671215 
L 71.815682 103.678123 
L 68.433864 103.667858 
L 65.052045 103.689403 
L 61.670227 103.683261 
L 58.288409 103.685232 
L 54.906591 103.666268 
L 51.524773 103.688128 
L 48.142955 103.703757 
L 44.761136 103.709184 
L 41.379318 103.666259 
L 37.9975 103.737157 
L 34.615682 103.754148 
L 31.233864 103.69444 
L 27.852045 103.734218 
L 24.470227 103.778182 
" style="fill:none;stroke:#e19c24;stroke-linecap:square;stroke-width:1.5;"/>
    <defs>
     <path d="M 0 0.75 
C 0.198902 0.75 0.389685 0.670975 0.53033 0.53033 
C 0.670975 0.389685 0.75 0.198902 0.75 0 
C 0.75 -0.198902 0.670975 -0.389685 0.53033 -0.53033 
C 0.389685 -0.670975 0.198902 -0.75 0 -0.75 
C -0.198902 -0.75 -0.389685 -0.670975 -0.53033 -0.53033 
C -0.670975 -0.389685 -0.75 -0.198902 -0.75 0 
C -0.75 0.198902 -0.670975 0.389685 -0.53033 0.53033 
C -0.389685 0.670975 -0.198902 0.75 0 0.75 
z
" id="m8df69e5804" style="stroke:#e19c24;"/>
    </defs>
    <g clip-path="url(#p5f0aaace14)">
     <use style="fill:#e19c24;stroke:#e19c24;" x="24.470227" xlink:href="#m8df69e5804" y="103.569555"/>
     <use style="fill:#e19c24;stroke:#e19c24;" x="27.852045" xlink:href="#m8df69e5804" y="103.054274"/>
     <use style="fill:#e19c24;stroke:#e19c24;" x="31.233864" xlink:href="#m8df69e5804" y="102.787989"/>
     <use style="fill:#e19c24;stroke:#e19c24;" x="34.615682" xlink:href="#m8df69e5804" y="102.519968"/>
     <use style="fill:#e19c24;stroke:#e19c24;" x="37.9975" xlink:href="#m8df69e5804" y="102.256672"/>
     <use style="fill:#e19c24;stroke:#e19c24;" x="41.379318" xlink:href="#m8df69e5804" y="102.003006"/>
     <use style="fill:#e19c24;stroke:#e19c24;" x="44.761136" xlink:href="#m8df69e5804" y="101.614915"/>
     <use style="fill:#e19c24;stroke:#e19c24;" x="48.142955" xlink:href="#m8df69e5804" y="101.18092"/>
     <use style="fill:#e19c24;stroke:#e19c24;" x="51.524773" xlink:href="#m8df69e5804" y="100.671455"/>
     <use style="fill:#e19c24;stroke:#e19c24;" x="54.906591" xlink:href="#m8df69e5804" y="100.109135"/>
     <use style="fill:#e19c24;stroke:#e19c24;" x="58.288409" xlink:href="#m8df69e5804" y="99.410486"/>
     <use style="fill:#e19c24;stroke:#e19c24;" x="61.670227" xlink:href="#m8df69e5804" y="98.780323"/>
     <use style="fill:#e19c24;stroke:#e19c24;" x="65.052045" xlink:href="#m8df69e5804" y="98.187055"/>
     <use style="fill:#e19c24;stroke:#e19c24;" x="68.433864" xlink:href="#m8df69e5804" y="97.552165"/>
     <use style="fill:#e19c24;stroke:#e19c24;" x="71.815682" xlink:href="#m8df69e5804" y="96.881043"/>
     <use style="fill:#e19c24;stroke:#e19c24;" x="75.1975" xlink:href="#m8df69e5804" y="96.393131"/>
     <use style="fill:#e19c24;stroke:#e19c24;" x="78.579318" xlink:href="#m8df69e5804" y="95.950514"/>
     <use style="fill:#e19c24;stroke:#e19c24;" x="81.961136" xlink:href="#m8df69e5804" y="95.478739"/>
     <use style="fill:#e19c24;stroke:#e19c24;" x="85.342955" xlink:href="#m8df69e5804" y="95.082226"/>
     <use style="fill:#e19c24;stroke:#e19c24;" x="88.724773" xlink:href="#m8df69e5804" y="94.281969"/>
     <use style="fill:#e19c24;stroke:#e19c24;" x="92.106591" xlink:href="#m8df69e5804" y="93.367363"/>
     <use style="fill:#e19c24;stroke:#e19c24;" x="95.488409" xlink:href="#m8df69e5804" y="92.692487"/>
     <use style="fill:#e19c24;stroke:#e19c24;" x="98.870227" xlink:href="#m8df69e5804" y="92.150732"/>
     <use style="fill:#e19c24;stroke:#e19c24;" x="102.252045" xlink:href="#m8df69e5804" y="91.808288"/>
     <use style="fill:#e19c24;stroke:#e19c24;" x="105.633864" xlink:href="#m8df69e5804" y="91.197472"/>
     <use style="fill:#e19c24;stroke:#e19c24;" x="109.015682" xlink:href="#m8df69e5804" y="90.819046"/>
     <use style="fill:#e19c24;stroke:#e19c24;" x="112.3975" xlink:href="#m8df69e5804" y="90.208276"/>
     <use style="fill:#e19c24;stroke:#e19c24;" x="115.779318" xlink:href="#m8df69e5804" y="89.834973"/>
     <use style="fill:#e19c24;stroke:#e19c24;" x="119.161136" xlink:href="#m8df69e5804" y="89.531354"/>
     <use style="fill:#e19c24;stroke:#e19c24;" x="122.542955" xlink:href="#m8df69e5804" y="89.174758"/>
     <use style="fill:#e19c24;stroke:#e19c24;" x="125.924773" xlink:href="#m8df69e5804" y="88.784359"/>
     <use style="fill:#e19c24;stroke:#e19c24;" x="122.542955" xlink:href="#m8df69e5804" y="98.439991"/>
     <use style="fill:#e19c24;stroke:#e19c24;" x="119.161136" xlink:href="#m8df69e5804" y="100.660922"/>
     <use style="fill:#e19c24;stroke:#e19c24;" x="115.779318" xlink:href="#m8df69e5804" y="101.707662"/>
     <use style="fill:#e19c24;stroke:#e19c24;" x="112.3975" xlink:href="#m8df69e5804" y="102.280442"/>
     <use style="fill:#e19c24;stroke:#e19c24;" x="109.015682" xlink:href="#m8df69e5804" y="102.651699"/>
     <use style="fill:#e19c24;stroke:#e19c24;" x="105.633864" xlink:href="#m8df69e5804" y="102.985866"/>
     <use style="fill:#e19c24;stroke:#e19c24;" x="102.252045" xlink:href="#m8df69e5804" y="103.138618"/>
     <use style="fill:#e19c24;stroke:#e19c24;" x="98.870227" xlink:href="#m8df69e5804" y="103.264214"/>
     <use style="fill:#e19c24;stroke:#e19c24;" x="95.488409" xlink:href="#m8df69e5804" y="103.344188"/>
     <use style="fill:#e19c24;stroke:#e19c24;" x="92.106591" xlink:href="#m8df69e5804" y="103.443589"/>
     <use style="fill:#e19c24;stroke:#e19c24;" x="88.724773" xlink:href="#m8df69e5804" y="103.482866"/>
     <use style="fill:#e19c24;stroke:#e19c24;" x="85.342955" xlink:href="#m8df69e5804" y="103.538118"/>
     <use style="fill:#e19c24;stroke:#e19c24;" x="81.961136" xlink:href="#m8df69e5804" y="103.577651"/>
     <use style="fill:#e19c24;stroke:#e19c24;" x="78.579318" xlink:href="#m8df69e5804" y="103.658585"/>
     <use style="fill:#e19c24;stroke:#e19c24;" x="75.1975" xlink:href="#m8df69e5804" y="103.671215"/>
     <use style="fill:#e19c24;stroke:#e19c24;" x="71.815682" xlink:href="#m8df69e5804" y="103.678123"/>
     <use style="fill:#e19c24;stroke:#e19c24;" x="68.433864" xlink:href="#m8df69e5804" y="103.667858"/>
     <use style="fill:#e19c24;stroke:#e19c24;" x="65.052045" xlink:href="#m8df69e5804" y="103.689403"/>
     <use style="fill:#e19c24;stroke:#e19c24;" x="61.670227" xlink:href="#m8df69e5804" y="103.683261"/>
     <use style="fill:#e19c24;stroke:#e19c24;" x="58.288409" xlink:href="#m8df69e5804" y="103.685232"/>
     <use style="fill:#e19c24;stroke:#e19c24;" x="54.906591" xlink:href="#m8df69e5804" y="103.666268"/>
     <use style="fill:#e19c24;stroke:#e19c24;" x="51.524773" xlink:href="#m8df69e5804" y="103.688128"/>
     <use style="fill:#e19c24;stroke:#e19c24;" x="48.142955" xlink:href="#m8df69e5804" y="103.703757"/>
     <use style="fill:#e19c24;stroke:#e19c24;" x="44.761136" xlink:href="#m8df69e5804" y="103.709184"/>
     <use style="fill:#e19c24;stroke:#e19c24;" x="41.379318" xlink:href="#m8df69e5804" y="103.666259"/>
     <use style="fill:#e19c24;stroke:#e19c24;" x="37.9975" xlink:href="#m8df69e5804" y="103.737157"/>
     <use style="fill:#e19c24;stroke:#e19c24;" x="34.615682" xlink:href="#m8df69e5804" y="103.754148"/>
     <use style="fill:#e19c24;stroke:#e19c24;" x="31.233864" xlink:href="#m8df69e5804" y="103.69444"/>
     <use style="fill:#e19c24;stroke:#e19c24;" x="27.852045" xlink:href="#m8df69e5804" y="103.734218"/>
     <use style="fill:#e19c24;stroke:#e19c24;" x="24.470227" xlink:href="#m8df69e5804" y="103.778182"/>
    </g>
   </g>
   <g id="patch_3">
    <path d="M 19.3975 108.72 
L 19.3975 0 
" style="fill:none;stroke:#000000;stroke-linecap:square;stroke-linejoin:miter;stroke-width:0.8;"/>
   </g>
   <g id="patch_4">
    <path d="M 130.9975 108.72 
L 130.9975 0 
" style="fill:none;stroke:#000000;stroke-linecap:square;stroke-linejoin:miter;stroke-width:0.8;"/>
   </g>
   <g id="patch_5">
    <path d="M 19.3975 108.72 
L 130.9975 108.72 
" style="fill:none;stroke:#000000;stroke-linecap:square;stroke-linejoin:miter;stroke-width:0.8;"/>
   </g>
   <g id="patch_6">
    <path d="M 19.3975 0 
L 130.9975 0 
" style="fill:none;stroke:#000000;stroke-linecap:square;stroke-linejoin:miter;stroke-width:0.8;"/>
   </g>
  </g>
 </g>
 <defs>
  <clipPath id="p5f0aaace14">
   <rect height="108.72" width="111.6" x="19.3975" y="0"/>
  </clipPath>
 </defs>
</svg>
