<?xml version="1.0" encoding="utf-8" standalone="no"?>
<!DOCTYPE svg PUBLIC "-//W3C//DTD SVG 1.1//EN"
  "http://www.w3.org/Graphics/SVG/1.1/DTD/svg11.dtd">
<!-- Created with matplotlib (https://matplotlib.org/) -->
<svg height="114.557925pt" version="1.1" viewBox="0 0 136.840312 114.557925" width="136.840312pt" xmlns="http://www.w3.org/2000/svg" xmlns:xlink="http://www.w3.org/1999/xlink">
 <metadata>
  <rdf:RDF xmlns:cc="http://creativecommons.org/ns#" xmlns:dc="http://purl.org/dc/elements/1.1/" xmlns:rdf="http://www.w3.org/1999/02/22-rdf-syntax-ns#">
   <cc:Work>
    <dc:type rdf:resource="http://purl.org/dc/dcmitype/StillImage"/>
    <dc:date>2020-12-07T22:43:28.104342</dc:date>
    <dc:format>image/svg+xml</dc:format>
    <dc:creator>
     <cc:Agent>
      <dc:title>Matplotlib v3.3.0, https://matplotlib.org/</dc:title>
     </cc:Agent>
    </dc:creator>
   </cc:Work>
  </rdf:RDF>
 </metadata>
 <defs>
  <style type="text/css">*{stroke-linecap:butt;stroke-linejoin:round;}</style>
 </defs>
 <g id="figure_1">
  <g id="patch_1">
   <path d="M 0 114.557925 
L 136.840312 114.557925 
L 136.840312 0 
L 0 0 
z
" style="fill:none;"/>
  </g>
  <g id="axes_1">
   <g id="patch_2">
    <path d="M 125.560625 57.278962 
C 125.560625 50.140473 124.154498 43.071396 121.422716 36.476291 
C 118.690935 29.881186 114.686624 23.888312 109.63895 18.840638 
C 104.591275 13.792963 98.598401 9.788653 92.003296 7.056871 
C 85.408192 4.325089 78.339115 2.918962 71.200625 2.918962 
C 64.062135 2.918962 56.993058 4.325089 50.397954 7.056871 
C 43.802849 9.788653 37.809975 13.792963 32.7623 18.840638 
C 27.714626 23.888312 23.710315 29.881186 20.978534 36.476291 
C 18.246752 43.071396 16.840625 50.140473 16.840625 57.278962 
C 16.840625 64.417452 18.246752 71.486529 20.978534 78.081634 
C 23.710315 84.676738 27.714626 90.669612 32.7623 95.717287 
C 37.809975 100.764961 43.802849 104.769272 50.397954 107.501054 
C 56.993058 110.232835 64.062135 111.638962 71.200625 111.638962 
C 78.339115 111.638962 85.408192 110.232835 92.003296 107.501054 
C 98.598401 104.769272 104.591275 100.764961 109.63895 95.717287 
C 114.686624 90.669612 118.690935 84.676738 121.422716 78.081634 
C 124.154498 71.486529 125.560625 64.417452 125.560625 57.278962 
M 71.200625 57.278962 
C 71.200625 57.278962 71.200625 57.278962 71.200625 57.278962 
C 71.200625 57.278962 71.200625 57.278962 71.200625 57.278962 
C 71.200625 57.278962 71.200625 57.278962 71.200625 57.278962 
C 71.200625 57.278962 71.200625 57.278962 71.200625 57.278962 
C 71.200625 57.278962 71.200625 57.278962 71.200625 57.278962 
C 71.200625 57.278962 71.200625 57.278962 71.200625 57.278962 
C 71.200625 57.278962 71.200625 57.278962 71.200625 57.278962 
C 71.200625 57.278962 71.200625 57.278962 71.200625 57.278962 
C 71.200625 57.278962 71.200625 57.278962 71.200625 57.278962 
C 71.200625 57.278962 71.200625 57.278962 71.200625 57.278962 
C 71.200625 57.278962 71.200625 57.278962 71.200625 57.278962 
C 71.200625 57.278962 71.200625 57.278962 71.200625 57.278962 
C 71.200625 57.278962 71.200625 57.278962 71.200625 57.278962 
C 71.200625 57.278962 71.200625 57.278962 71.200625 57.278962 
C 71.200625 57.278962 71.200625 57.278962 71.200625 57.278962 
C 71.200625 57.278962 71.200625 57.278962 71.200625 57.278962 
M 125.560625 57.278962 
z
" style="fill:none;"/>
   </g>
   <g id="matplotlib.axis_1">
    <g id="xtick_1">
     <g id="line2d_1">
      <path clip-path="url(#p185ed2e3e4)" d="M 71.200625 57.278962 
L 125.560625 57.278962 
" style="fill:none;stroke:#b0b0b0;stroke-linecap:square;stroke-width:0.8;"/>
     </g>
     <g id="text_1">
      <!-- 0° -->
      <g transform="translate(127.280938 59.864119)scale(0.1 -0.1)">
       <defs>
        <path d="M 4.15625 35.296875 
Q 4.15625 48 6.765625 55.734375 
Q 9.375 63.484375 14.515625 67.671875 
Q 19.671875 71.875 27.484375 71.875 
Q 33.25 71.875 37.59375 69.546875 
Q 41.9375 67.234375 44.765625 62.859375 
Q 47.609375 58.5 49.21875 52.21875 
Q 50.828125 45.953125 50.828125 35.296875 
Q 50.828125 22.703125 48.234375 14.96875 
Q 45.65625 7.234375 40.5 3 
Q 35.359375 -1.21875 27.484375 -1.21875 
Q 17.140625 -1.21875 11.234375 6.203125 
Q 4.15625 15.140625 4.15625 35.296875 
z
M 13.1875 35.296875 
Q 13.1875 17.671875 17.3125 11.828125 
Q 21.4375 6 27.484375 6 
Q 33.546875 6 37.671875 11.859375 
Q 41.796875 17.71875 41.796875 35.296875 
Q 41.796875 52.984375 37.671875 58.78125 
Q 33.546875 64.59375 27.390625 64.59375 
Q 21.34375 64.59375 17.71875 59.46875 
Q 13.1875 52.9375 13.1875 35.296875 
z
" id="ArialMT-48"/>
        <path d="M 6.25 59.28125 
Q 6.25 64.890625 10.21875 68.84375 
Q 14.203125 72.796875 19.78125 72.796875 
Q 25.4375 72.796875 29.390625 68.84375 
Q 33.34375 64.890625 33.34375 59.28125 
Q 33.34375 53.65625 29.359375 49.671875 
Q 25.390625 45.703125 19.78125 45.703125 
Q 14.203125 45.703125 10.21875 49.65625 
Q 6.25 53.609375 6.25 59.28125 
z
M 11.578125 59.28125 
Q 11.578125 55.859375 13.984375 53.4375 
Q 16.40625 51.03125 19.828125 51.03125 
Q 23.1875 51.03125 25.609375 53.4375 
Q 28.03125 55.859375 28.03125 59.28125 
Q 28.03125 62.703125 25.609375 65.109375 
Q 23.1875 67.53125 19.828125 67.53125 
Q 16.40625 67.53125 13.984375 65.109375 
Q 11.578125 62.703125 11.578125 59.28125 
z
" id="ArialMT-176"/>
       </defs>
       <use xlink:href="#ArialMT-48"/>
       <use x="55.615234" xlink:href="#ArialMT-176"/>
      </g>
     </g>
    </g>
    <g id="xtick_2">
     <g id="line2d_2">
      <path clip-path="url(#p185ed2e3e4)" d="M 71.200625 57.278962 
L 98.380625 10.201821 
" style="fill:none;stroke:#b0b0b0;stroke-linecap:square;stroke-width:0.8;"/>
     </g>
     <g id="text_2">
      <!-- 60° -->
      <g transform="translate(94.070469 7.157812)scale(0.1 -0.1)">
       <defs>
        <path d="M 49.75 54.046875 
L 41.015625 53.375 
Q 39.84375 58.546875 37.703125 60.890625 
Q 34.125 64.65625 28.90625 64.65625 
Q 24.703125 64.65625 21.53125 62.3125 
Q 17.390625 59.28125 14.984375 53.46875 
Q 12.59375 47.65625 12.5 36.921875 
Q 15.671875 41.75 20.265625 44.09375 
Q 24.859375 46.4375 29.890625 46.4375 
Q 38.671875 46.4375 44.84375 39.96875 
Q 51.03125 33.5 51.03125 23.25 
Q 51.03125 16.5 48.125 10.71875 
Q 45.21875 4.9375 40.140625 1.859375 
Q 35.0625 -1.21875 28.609375 -1.21875 
Q 17.625 -1.21875 10.6875 6.859375 
Q 3.765625 14.9375 3.765625 33.5 
Q 3.765625 54.25 11.421875 63.671875 
Q 18.109375 71.875 29.4375 71.875 
Q 37.890625 71.875 43.28125 67.140625 
Q 48.6875 62.40625 49.75 54.046875 
z
M 13.875 23.1875 
Q 13.875 18.65625 15.796875 14.5 
Q 17.71875 10.359375 21.1875 8.171875 
Q 24.65625 6 28.46875 6 
Q 34.03125 6 38.03125 10.484375 
Q 42.046875 14.984375 42.046875 22.703125 
Q 42.046875 30.125 38.078125 34.390625 
Q 34.125 38.671875 28.125 38.671875 
Q 22.171875 38.671875 18.015625 34.390625 
Q 13.875 30.125 13.875 23.1875 
z
" id="ArialMT-54"/>
       </defs>
       <use xlink:href="#ArialMT-54"/>
       <use x="55.615234" xlink:href="#ArialMT-48"/>
       <use x="111.230469" xlink:href="#ArialMT-176"/>
      </g>
     </g>
    </g>
    <g id="xtick_3">
     <g id="line2d_3">
      <path clip-path="url(#p185ed2e3e4)" d="M 71.200625 57.278962 
L 44.020625 10.201821 
" style="fill:none;stroke:#b0b0b0;stroke-linecap:square;stroke-width:0.8;"/>
     </g>
     <g id="text_3">
      <!-- 120° -->
      <g transform="translate(30.43 7.157812)scale(0.1 -0.1)">
       <defs>
        <path d="M 37.25 0 
L 28.46875 0 
L 28.46875 56 
Q 25.296875 52.984375 20.140625 49.953125 
Q 14.984375 46.921875 10.890625 45.40625 
L 10.890625 53.90625 
Q 18.265625 57.375 23.78125 62.296875 
Q 29.296875 67.234375 31.59375 71.875 
L 37.25 71.875 
z
" id="ArialMT-49"/>
        <path d="M 50.34375 8.453125 
L 50.34375 0 
L 3.03125 0 
Q 2.9375 3.171875 4.046875 6.109375 
Q 5.859375 10.9375 9.828125 15.625 
Q 13.8125 20.3125 21.34375 26.46875 
Q 33.015625 36.03125 37.109375 41.625 
Q 41.21875 47.21875 41.21875 52.203125 
Q 41.21875 57.421875 37.46875 61 
Q 33.734375 64.59375 27.734375 64.59375 
Q 21.390625 64.59375 17.578125 60.78125 
Q 13.765625 56.984375 13.71875 50.25 
L 4.6875 51.171875 
Q 5.609375 61.28125 11.65625 66.578125 
Q 17.71875 71.875 27.9375 71.875 
Q 38.234375 71.875 44.234375 66.15625 
Q 50.25 60.453125 50.25 52 
Q 50.25 47.703125 48.484375 43.546875 
Q 46.734375 39.40625 42.65625 34.8125 
Q 38.578125 30.21875 29.109375 22.21875 
Q 21.1875 15.578125 18.9375 13.203125 
Q 16.703125 10.84375 15.234375 8.453125 
z
" id="ArialMT-50"/>
       </defs>
       <use xlink:href="#ArialMT-49"/>
       <use x="55.615234" xlink:href="#ArialMT-50"/>
       <use x="111.230469" xlink:href="#ArialMT-48"/>
       <use x="166.845703" xlink:href="#ArialMT-176"/>
      </g>
     </g>
    </g>
    <g id="xtick_4">
     <g id="line2d_4">
      <path clip-path="url(#p185ed2e3e4)" d="M 71.200625 57.278962 
L 16.840625 57.278962 
" style="fill:none;stroke:#b0b0b0;stroke-linecap:square;stroke-width:0.8;"/>
     </g>
     <g id="text_4">
      <!-- 180° -->
      <g transform="translate(0 59.864119)scale(0.1 -0.1)">
       <defs>
        <path d="M 17.671875 38.8125 
Q 12.203125 40.828125 9.5625 44.53125 
Q 6.9375 48.25 6.9375 53.421875 
Q 6.9375 61.234375 12.546875 66.546875 
Q 18.171875 71.875 27.484375 71.875 
Q 36.859375 71.875 42.578125 66.421875 
Q 48.296875 60.984375 48.296875 53.171875 
Q 48.296875 48.1875 45.671875 44.5 
Q 43.0625 40.828125 37.75 38.8125 
Q 44.34375 36.671875 47.78125 31.875 
Q 51.21875 27.09375 51.21875 20.453125 
Q 51.21875 11.28125 44.71875 5.03125 
Q 38.234375 -1.21875 27.640625 -1.21875 
Q 17.046875 -1.21875 10.546875 5.046875 
Q 4.046875 11.328125 4.046875 20.703125 
Q 4.046875 27.6875 7.59375 32.390625 
Q 11.140625 37.109375 17.671875 38.8125 
z
M 15.921875 53.71875 
Q 15.921875 48.640625 19.1875 45.40625 
Q 22.46875 42.1875 27.6875 42.1875 
Q 32.765625 42.1875 36.015625 45.375 
Q 39.265625 48.578125 39.265625 53.21875 
Q 39.265625 58.0625 35.90625 61.359375 
Q 32.5625 64.65625 27.59375 64.65625 
Q 22.5625 64.65625 19.234375 61.421875 
Q 15.921875 58.203125 15.921875 53.71875 
z
M 13.09375 20.65625 
Q 13.09375 16.890625 14.875 13.375 
Q 16.65625 9.859375 20.171875 7.921875 
Q 23.6875 6 27.734375 6 
Q 34.03125 6 38.125 10.046875 
Q 42.234375 14.109375 42.234375 20.359375 
Q 42.234375 26.703125 38.015625 30.859375 
Q 33.796875 35.015625 27.4375 35.015625 
Q 21.234375 35.015625 17.15625 30.90625 
Q 13.09375 26.8125 13.09375 20.65625 
z
" id="ArialMT-56"/>
       </defs>
       <use xlink:href="#ArialMT-49"/>
       <use x="55.615234" xlink:href="#ArialMT-56"/>
       <use x="111.230469" xlink:href="#ArialMT-48"/>
       <use x="166.845703" xlink:href="#ArialMT-176"/>
      </g>
     </g>
    </g>
    <g id="xtick_5">
     <g id="line2d_5">
      <path clip-path="url(#p185ed2e3e4)" d="M 71.200625 57.278962 
L 44.020625 104.356103 
" style="fill:none;stroke:#b0b0b0;stroke-linecap:square;stroke-width:0.8;"/>
     </g>
     <g id="text_5">
      <!-- 240° -->
      <g transform="translate(30.43 112.570425)scale(0.1 -0.1)">
       <defs>
        <path d="M 32.328125 0 
L 32.328125 17.140625 
L 1.265625 17.140625 
L 1.265625 25.203125 
L 33.9375 71.578125 
L 41.109375 71.578125 
L 41.109375 25.203125 
L 50.78125 25.203125 
L 50.78125 17.140625 
L 41.109375 17.140625 
L 41.109375 0 
z
M 32.328125 25.203125 
L 32.328125 57.46875 
L 9.90625 25.203125 
z
" id="ArialMT-52"/>
       </defs>
       <use xlink:href="#ArialMT-50"/>
       <use x="55.615234" xlink:href="#ArialMT-52"/>
       <use x="111.230469" xlink:href="#ArialMT-48"/>
       <use x="166.845703" xlink:href="#ArialMT-176"/>
      </g>
     </g>
    </g>
    <g id="xtick_6">
     <g id="line2d_6">
      <path clip-path="url(#p185ed2e3e4)" d="M 71.200625 57.278962 
L 98.380625 104.356103 
" style="fill:none;stroke:#b0b0b0;stroke-linecap:square;stroke-width:0.8;"/>
     </g>
     <g id="text_6">
      <!-- 300° -->
      <g transform="translate(91.29 112.570425)scale(0.1 -0.1)">
       <defs>
        <path d="M 4.203125 18.890625 
L 12.984375 20.0625 
Q 14.5 12.59375 18.140625 9.296875 
Q 21.78125 6 27 6 
Q 33.203125 6 37.46875 10.296875 
Q 41.75 14.59375 41.75 20.953125 
Q 41.75 27 37.796875 30.921875 
Q 33.84375 34.859375 27.734375 34.859375 
Q 25.25 34.859375 21.53125 33.890625 
L 22.515625 41.609375 
Q 23.390625 41.5 23.921875 41.5 
Q 29.546875 41.5 34.03125 44.421875 
Q 38.53125 47.359375 38.53125 53.46875 
Q 38.53125 58.296875 35.25 61.46875 
Q 31.984375 64.65625 26.8125 64.65625 
Q 21.6875 64.65625 18.265625 61.421875 
Q 14.84375 58.203125 13.875 51.765625 
L 5.078125 53.328125 
Q 6.6875 62.15625 12.390625 67.015625 
Q 18.109375 71.875 26.609375 71.875 
Q 32.46875 71.875 37.390625 69.359375 
Q 42.328125 66.84375 44.9375 62.5 
Q 47.5625 58.15625 47.5625 53.265625 
Q 47.5625 48.640625 45.0625 44.828125 
Q 42.578125 41.015625 37.703125 38.765625 
Q 44.046875 37.3125 47.5625 32.6875 
Q 51.078125 28.078125 51.078125 21.140625 
Q 51.078125 11.765625 44.234375 5.25 
Q 37.40625 -1.265625 26.953125 -1.265625 
Q 17.53125 -1.265625 11.296875 4.34375 
Q 5.078125 9.96875 4.203125 18.890625 
z
" id="ArialMT-51"/>
       </defs>
       <use xlink:href="#ArialMT-51"/>
       <use x="55.615234" xlink:href="#ArialMT-48"/>
       <use x="111.230469" xlink:href="#ArialMT-48"/>
       <use x="166.845703" xlink:href="#ArialMT-176"/>
      </g>
     </g>
    </g>
   </g>
   <g id="matplotlib.axis_2">
    <g id="ytick_1">
     <g id="line2d_7">
      <path clip-path="url(#p185ed2e3e4)" d="M 97.103256 57.278962 
C 97.103256 53.87746 96.433234 50.509033 95.131536 47.366455 
C 93.829837 44.223876 91.921777 41.368262 89.516551 38.963036 
C 87.111326 36.557811 84.255711 34.64975 81.113133 33.348052 
C 77.970554 32.046353 74.602127 31.376331 71.200625 31.376331 
C 67.799123 31.376331 64.430696 32.046353 61.288117 33.348052 
C 58.145539 34.64975 55.289924 36.557811 52.884699 38.963036 
C 50.479473 41.368262 48.571413 44.223876 47.269714 47.366455 
C 45.968016 50.509033 45.297994 53.87746 45.297994 57.278962 
C 45.297994 60.680465 45.968016 64.048892 47.269714 67.19147 
C 48.571413 70.334049 50.479473 73.189663 52.884699 75.594888 
C 55.289924 78.000114 58.145539 79.908175 61.288117 81.209873 
C 64.430696 82.511572 67.799123 83.181593 71.200625 83.181593 
C 74.602127 83.181593 77.970554 82.511572 81.113133 81.209873 
C 84.255711 79.908175 87.111326 78.000114 89.516551 75.594888 
C 91.921777 73.189663 93.829837 70.334049 95.131536 67.19147 
C 96.433234 64.048892 97.103256 60.680465 97.103256 57.278962 
" style="fill:none;stroke:#b0b0b0;stroke-linecap:square;stroke-width:0.8;"/>
     </g>
    </g>
    <g id="ytick_2">
     <g id="line2d_8">
      <path clip-path="url(#p185ed2e3e4)" d="M 123.005887 57.278962 
C 123.005887 50.475958 121.665844 43.739104 119.062447 37.453947 
C 116.459049 31.16879 112.642928 25.457561 107.832477 20.64711 
C 103.022027 15.836659 97.310797 12.020538 91.025641 9.417141 
C 84.740484 6.813744 78.00363 5.4737 71.200625 5.4737 
C 64.39762 5.4737 57.660766 6.813744 51.375609 9.417141 
C 45.090453 12.020538 39.379223 15.836659 34.568773 20.64711 
C 29.758322 25.457561 25.942201 31.16879 23.338803 37.453947 
C 20.735406 43.739104 19.395363 50.475958 19.395363 57.278962 
C 19.395363 64.081967 20.735406 70.818821 23.338803 77.103978 
C 25.942201 83.389135 29.758322 89.100364 34.568773 93.910815 
C 39.379223 98.721265 45.090453 102.537387 51.375609 105.140784 
C 57.660766 107.744181 64.39762 109.084225 71.200625 109.084225 
C 78.00363 109.084225 84.740484 107.744181 91.025641 105.140784 
C 97.310797 102.537387 103.022027 98.721265 107.832477 93.910815 
C 112.642928 89.100364 116.459049 83.389135 119.062447 77.103978 
C 121.665844 70.818821 123.005887 64.081967 123.005887 57.278962 
" style="fill:none;stroke:#b0b0b0;stroke-linecap:square;stroke-width:0.8;"/>
     </g>
    </g>
   </g>
   <g id="line2d_9">
    <path clip-path="url(#p185ed2e3e4)" d="M 108.487482 56.628129 
L 108.399765 54.024477 
L 103.284152 52.197419 
L 96.355092 51.47167 
L 88.427215 52.012189 
L 80.38937 53.751724 
L 74.840921 55.581475 
L 71.92028 56.880047 
L 72.094905 56.698208 
L 74.798596 54.567707 
L 78.803641 50.669828 
L 83.481797 44.997745 
L 86.881374 39.240372 
L 89.440323 33.074293 
L 90.235638 27.967464 
L 89.540735 24.188691 
L 86.483761 24.501092 
L 82.311695 28.331661 
L 78.334048 33.945782 
L 74.967258 40.964144 
L 72.77364 47.348409 
L 71.609397 52.608284 
L 71.227565 55.73939 
L 71.141084 56.143812 
L 70.778338 53.840579 
L 69.692151 49.51926 
L 67.671802 44.10944 
L 64.577967 38.044813 
L 60.783253 32.735667 
L 56.955858 29.319598 
L 53.693782 28.139488 
L 51.691537 29.419376 
L 51.875123 33.415187 
L 54.08743 38.927752 
L 58.123605 45.084418 
L 63.000512 50.638448 
L 67.212106 54.486008 
L 70.024167 56.57201 
L 70.567542 56.956427 
L 68.661972 56.201467 
L 64.217094 54.874495 
L 58.168674 53.787156 
L 51.782258 53.504284 
L 46.050569 54.190423 
L 41.481928 55.720495 
L 39.908771 57.823725 
L 40.242052 59.988762 
L 43.578508 61.654661 
L 48.90378 62.426936 
L 55.497425 62.079936 
L 61.965405 60.823906 
L 67.340086 59.079044 
L 70.233238 57.815145 
L 70.08975 58.00045 
L 66.979398 60.46012 
L 61.79932 65.451761 
L 56.104411 72.375454 
L 50.255849 81.372977 
L 46.610931 89.909424 
L 44.765164 97.9833 
L 46.082965 102.587773 
L 49.388934 104.059578 
L 54.925665 99.680504 
L 60.177844 93.335044 
L 65.209584 83.229466 
L 68.723695 72.916736 
L 70.609262 64.036517 
L 71.171807 58.926584 
L 71.279585 58.78702 
L 71.88427 62.845055 
L 73.688875 70.078206 
L 76.897207 78.537907 
L 81.052601 85.891323 
L 85.619058 91.248052 
L 89.758294 93.702948 
L 92.074414 92.022011 
L 94.72666 90.874348 
L 93.665686 85.019153 
L 90.938758 78.444693 
L 86.351734 71.407422 
L 80.925434 65.154069 
L 76.012844 60.648658 
L 72.867096 58.280355 
L 71.939241 57.655349 
L 74.620509 58.730454 
L 80.026436 60.317664 
L 83.627616 60.608577 
L 95.296521 61.962707 
L 102.638738 61.139468 
L 108.374232 59.228096 
" style="fill:none;stroke:#377eb8;stroke-linecap:square;"/>
    <defs>
     <path d="M 0 0.75 
C 0.198902 0.75 0.389685 0.670975 0.53033 0.53033 
C 0.670975 0.389685 0.75 0.198902 0.75 0 
C 0.75 -0.198902 0.670975 -0.389685 0.53033 -0.53033 
C 0.389685 -0.670975 0.198902 -0.75 0 -0.75 
C -0.198902 -0.75 -0.389685 -0.670975 -0.53033 -0.53033 
C -0.670975 -0.389685 -0.75 -0.198902 -0.75 0 
C -0.75 0.198902 -0.670975 0.389685 -0.53033 0.53033 
C -0.389685 0.670975 -0.198902 0.75 0 0.75 
z
" id="m592322290c" style="stroke:#377eb8;"/>
    </defs>
    <g clip-path="url(#p185ed2e3e4)">
     <use style="fill:#377eb8;stroke:#377eb8;" x="108.487482" xlink:href="#m592322290c" y="56.628129"/>
     <use style="fill:#377eb8;stroke:#377eb8;" x="108.399765" xlink:href="#m592322290c" y="54.024477"/>
     <use style="fill:#377eb8;stroke:#377eb8;" x="103.284152" xlink:href="#m592322290c" y="52.197419"/>
     <use style="fill:#377eb8;stroke:#377eb8;" x="96.355092" xlink:href="#m592322290c" y="51.47167"/>
     <use style="fill:#377eb8;stroke:#377eb8;" x="88.427215" xlink:href="#m592322290c" y="52.012189"/>
     <use style="fill:#377eb8;stroke:#377eb8;" x="80.38937" xlink:href="#m592322290c" y="53.751724"/>
     <use style="fill:#377eb8;stroke:#377eb8;" x="74.840921" xlink:href="#m592322290c" y="55.581475"/>
     <use style="fill:#377eb8;stroke:#377eb8;" x="71.92028" xlink:href="#m592322290c" y="56.880047"/>
     <use style="fill:#377eb8;stroke:#377eb8;" x="72.094905" xlink:href="#m592322290c" y="56.698208"/>
     <use style="fill:#377eb8;stroke:#377eb8;" x="74.798596" xlink:href="#m592322290c" y="54.567707"/>
     <use style="fill:#377eb8;stroke:#377eb8;" x="78.803641" xlink:href="#m592322290c" y="50.669828"/>
     <use style="fill:#377eb8;stroke:#377eb8;" x="83.481797" xlink:href="#m592322290c" y="44.997745"/>
     <use style="fill:#377eb8;stroke:#377eb8;" x="86.881374" xlink:href="#m592322290c" y="39.240372"/>
     <use style="fill:#377eb8;stroke:#377eb8;" x="89.440323" xlink:href="#m592322290c" y="33.074293"/>
     <use style="fill:#377eb8;stroke:#377eb8;" x="90.235638" xlink:href="#m592322290c" y="27.967464"/>
     <use style="fill:#377eb8;stroke:#377eb8;" x="89.540735" xlink:href="#m592322290c" y="24.188691"/>
     <use style="fill:#377eb8;stroke:#377eb8;" x="86.483761" xlink:href="#m592322290c" y="24.501092"/>
     <use style="fill:#377eb8;stroke:#377eb8;" x="82.311695" xlink:href="#m592322290c" y="28.331661"/>
     <use style="fill:#377eb8;stroke:#377eb8;" x="78.334048" xlink:href="#m592322290c" y="33.945782"/>
     <use style="fill:#377eb8;stroke:#377eb8;" x="74.967258" xlink:href="#m592322290c" y="40.964144"/>
     <use style="fill:#377eb8;stroke:#377eb8;" x="72.77364" xlink:href="#m592322290c" y="47.348409"/>
     <use style="fill:#377eb8;stroke:#377eb8;" x="71.609397" xlink:href="#m592322290c" y="52.608284"/>
     <use style="fill:#377eb8;stroke:#377eb8;" x="71.227565" xlink:href="#m592322290c" y="55.73939"/>
     <use style="fill:#377eb8;stroke:#377eb8;" x="71.141084" xlink:href="#m592322290c" y="56.143812"/>
     <use style="fill:#377eb8;stroke:#377eb8;" x="70.778338" xlink:href="#m592322290c" y="53.840579"/>
     <use style="fill:#377eb8;stroke:#377eb8;" x="69.692151" xlink:href="#m592322290c" y="49.51926"/>
     <use style="fill:#377eb8;stroke:#377eb8;" x="67.671802" xlink:href="#m592322290c" y="44.10944"/>
     <use style="fill:#377eb8;stroke:#377eb8;" x="64.577967" xlink:href="#m592322290c" y="38.044813"/>
     <use style="fill:#377eb8;stroke:#377eb8;" x="60.783253" xlink:href="#m592322290c" y="32.735667"/>
     <use style="fill:#377eb8;stroke:#377eb8;" x="56.955858" xlink:href="#m592322290c" y="29.319598"/>
     <use style="fill:#377eb8;stroke:#377eb8;" x="53.693782" xlink:href="#m592322290c" y="28.139488"/>
     <use style="fill:#377eb8;stroke:#377eb8;" x="51.691537" xlink:href="#m592322290c" y="29.419376"/>
     <use style="fill:#377eb8;stroke:#377eb8;" x="51.875123" xlink:href="#m592322290c" y="33.415187"/>
     <use style="fill:#377eb8;stroke:#377eb8;" x="54.08743" xlink:href="#m592322290c" y="38.927752"/>
     <use style="fill:#377eb8;stroke:#377eb8;" x="58.123605" xlink:href="#m592322290c" y="45.084418"/>
     <use style="fill:#377eb8;stroke:#377eb8;" x="63.000512" xlink:href="#m592322290c" y="50.638448"/>
     <use style="fill:#377eb8;stroke:#377eb8;" x="67.212106" xlink:href="#m592322290c" y="54.486008"/>
     <use style="fill:#377eb8;stroke:#377eb8;" x="70.024167" xlink:href="#m592322290c" y="56.57201"/>
     <use style="fill:#377eb8;stroke:#377eb8;" x="70.567542" xlink:href="#m592322290c" y="56.956427"/>
     <use style="fill:#377eb8;stroke:#377eb8;" x="68.661972" xlink:href="#m592322290c" y="56.201467"/>
     <use style="fill:#377eb8;stroke:#377eb8;" x="64.217094" xlink:href="#m592322290c" y="54.874495"/>
     <use style="fill:#377eb8;stroke:#377eb8;" x="58.168674" xlink:href="#m592322290c" y="53.787156"/>
     <use style="fill:#377eb8;stroke:#377eb8;" x="51.782258" xlink:href="#m592322290c" y="53.504284"/>
     <use style="fill:#377eb8;stroke:#377eb8;" x="46.050569" xlink:href="#m592322290c" y="54.190423"/>
     <use style="fill:#377eb8;stroke:#377eb8;" x="41.481928" xlink:href="#m592322290c" y="55.720495"/>
     <use style="fill:#377eb8;stroke:#377eb8;" x="39.908771" xlink:href="#m592322290c" y="57.823725"/>
     <use style="fill:#377eb8;stroke:#377eb8;" x="40.242052" xlink:href="#m592322290c" y="59.988762"/>
     <use style="fill:#377eb8;stroke:#377eb8;" x="43.578508" xlink:href="#m592322290c" y="61.654661"/>
     <use style="fill:#377eb8;stroke:#377eb8;" x="48.90378" xlink:href="#m592322290c" y="62.426936"/>
     <use style="fill:#377eb8;stroke:#377eb8;" x="55.497425" xlink:href="#m592322290c" y="62.079936"/>
     <use style="fill:#377eb8;stroke:#377eb8;" x="61.965405" xlink:href="#m592322290c" y="60.823906"/>
     <use style="fill:#377eb8;stroke:#377eb8;" x="67.340086" xlink:href="#m592322290c" y="59.079044"/>
     <use style="fill:#377eb8;stroke:#377eb8;" x="70.233238" xlink:href="#m592322290c" y="57.815145"/>
     <use style="fill:#377eb8;stroke:#377eb8;" x="70.08975" xlink:href="#m592322290c" y="58.00045"/>
     <use style="fill:#377eb8;stroke:#377eb8;" x="66.979398" xlink:href="#m592322290c" y="60.46012"/>
     <use style="fill:#377eb8;stroke:#377eb8;" x="61.79932" xlink:href="#m592322290c" y="65.451761"/>
     <use style="fill:#377eb8;stroke:#377eb8;" x="56.104411" xlink:href="#m592322290c" y="72.375454"/>
     <use style="fill:#377eb8;stroke:#377eb8;" x="50.255849" xlink:href="#m592322290c" y="81.372977"/>
     <use style="fill:#377eb8;stroke:#377eb8;" x="46.610931" xlink:href="#m592322290c" y="89.909424"/>
     <use style="fill:#377eb8;stroke:#377eb8;" x="44.765164" xlink:href="#m592322290c" y="97.9833"/>
     <use style="fill:#377eb8;stroke:#377eb8;" x="46.082965" xlink:href="#m592322290c" y="102.587773"/>
     <use style="fill:#377eb8;stroke:#377eb8;" x="49.388934" xlink:href="#m592322290c" y="104.059578"/>
     <use style="fill:#377eb8;stroke:#377eb8;" x="54.925665" xlink:href="#m592322290c" y="99.680504"/>
     <use style="fill:#377eb8;stroke:#377eb8;" x="60.177844" xlink:href="#m592322290c" y="93.335044"/>
     <use style="fill:#377eb8;stroke:#377eb8;" x="65.209584" xlink:href="#m592322290c" y="83.229466"/>
     <use style="fill:#377eb8;stroke:#377eb8;" x="68.723695" xlink:href="#m592322290c" y="72.916736"/>
     <use style="fill:#377eb8;stroke:#377eb8;" x="70.609262" xlink:href="#m592322290c" y="64.036517"/>
     <use style="fill:#377eb8;stroke:#377eb8;" x="71.171807" xlink:href="#m592322290c" y="58.926584"/>
     <use style="fill:#377eb8;stroke:#377eb8;" x="71.279585" xlink:href="#m592322290c" y="58.78702"/>
     <use style="fill:#377eb8;stroke:#377eb8;" x="71.88427" xlink:href="#m592322290c" y="62.845055"/>
     <use style="fill:#377eb8;stroke:#377eb8;" x="73.688875" xlink:href="#m592322290c" y="70.078206"/>
     <use style="fill:#377eb8;stroke:#377eb8;" x="76.897207" xlink:href="#m592322290c" y="78.537907"/>
     <use style="fill:#377eb8;stroke:#377eb8;" x="81.052601" xlink:href="#m592322290c" y="85.891323"/>
     <use style="fill:#377eb8;stroke:#377eb8;" x="85.619058" xlink:href="#m592322290c" y="91.248052"/>
     <use style="fill:#377eb8;stroke:#377eb8;" x="89.758294" xlink:href="#m592322290c" y="93.702948"/>
     <use style="fill:#377eb8;stroke:#377eb8;" x="92.074414" xlink:href="#m592322290c" y="92.022011"/>
     <use style="fill:#377eb8;stroke:#377eb8;" x="94.72666" xlink:href="#m592322290c" y="90.874348"/>
     <use style="fill:#377eb8;stroke:#377eb8;" x="93.665686" xlink:href="#m592322290c" y="85.019153"/>
     <use style="fill:#377eb8;stroke:#377eb8;" x="90.938758" xlink:href="#m592322290c" y="78.444693"/>
     <use style="fill:#377eb8;stroke:#377eb8;" x="86.351734" xlink:href="#m592322290c" y="71.407422"/>
     <use style="fill:#377eb8;stroke:#377eb8;" x="80.925434" xlink:href="#m592322290c" y="65.154069"/>
     <use style="fill:#377eb8;stroke:#377eb8;" x="76.012844" xlink:href="#m592322290c" y="60.648658"/>
     <use style="fill:#377eb8;stroke:#377eb8;" x="72.867096" xlink:href="#m592322290c" y="58.280355"/>
     <use style="fill:#377eb8;stroke:#377eb8;" x="71.939241" xlink:href="#m592322290c" y="57.655349"/>
     <use style="fill:#377eb8;stroke:#377eb8;" x="74.620509" xlink:href="#m592322290c" y="58.730454"/>
     <use style="fill:#377eb8;stroke:#377eb8;" x="80.026436" xlink:href="#m592322290c" y="60.317664"/>
     <use style="fill:#377eb8;stroke:#377eb8;" x="83.627616" xlink:href="#m592322290c" y="60.608577"/>
     <use style="fill:#377eb8;stroke:#377eb8;" x="95.296521" xlink:href="#m592322290c" y="61.962707"/>
     <use style="fill:#377eb8;stroke:#377eb8;" x="102.638738" xlink:href="#m592322290c" y="61.139468"/>
     <use style="fill:#377eb8;stroke:#377eb8;" x="108.374232" xlink:href="#m592322290c" y="59.228096"/>
    </g>
   </g>
  </g>
 </g>
 <defs>
  <clipPath id="p185ed2e3e4">
   <path d="M 125.560625 57.278962 
C 125.560625 50.140473 124.154498 43.071396 121.422716 36.476291 
C 118.690935 29.881186 114.686624 23.888312 109.63895 18.840638 
C 104.591275 13.792963 98.598401 9.788653 92.003296 7.056871 
C 85.408192 4.325089 78.339115 2.918962 71.200625 2.918962 
C 64.062135 2.918962 56.993058 4.325089 50.397954 7.056871 
C 43.802849 9.788653 37.809975 13.792963 32.7623 18.840638 
C 27.714626 23.888312 23.710315 29.881186 20.978534 36.476291 
C 18.246752 43.071396 16.840625 50.140473 16.840625 57.278962 
C 16.840625 64.417452 18.246752 71.486529 20.978534 78.081634 
C 23.710315 84.676738 27.714626 90.669612 32.7623 95.717287 
C 37.809975 100.764961 43.802849 104.769272 50.397954 107.501054 
C 56.993058 110.232835 64.062135 111.638962 71.200625 111.638962 
C 78.339115 111.638962 85.408192 110.232835 92.003296 107.501054 
C 98.598401 104.769272 104.591275 100.764961 109.63895 95.717287 
C 114.686624 90.669612 118.690935 84.676738 121.422716 78.081634 
C 124.154498 71.486529 125.560625 64.417452 125.560625 57.278962 
M 71.200625 57.278962 
C 71.200625 57.278962 71.200625 57.278962 71.200625 57.278962 
C 71.200625 57.278962 71.200625 57.278962 71.200625 57.278962 
C 71.200625 57.278962 71.200625 57.278962 71.200625 57.278962 
C 71.200625 57.278962 71.200625 57.278962 71.200625 57.278962 
C 71.200625 57.278962 71.200625 57.278962 71.200625 57.278962 
C 71.200625 57.278962 71.200625 57.278962 71.200625 57.278962 
C 71.200625 57.278962 71.200625 57.278962 71.200625 57.278962 
C 71.200625 57.278962 71.200625 57.278962 71.200625 57.278962 
C 71.200625 57.278962 71.200625 57.278962 71.200625 57.278962 
C 71.200625 57.278962 71.200625 57.278962 71.200625 57.278962 
C 71.200625 57.278962 71.200625 57.278962 71.200625 57.278962 
C 71.200625 57.278962 71.200625 57.278962 71.200625 57.278962 
C 71.200625 57.278962 71.200625 57.278962 71.200625 57.278962 
C 71.200625 57.278962 71.200625 57.278962 71.200625 57.278962 
C 71.200625 57.278962 71.200625 57.278962 71.200625 57.278962 
C 71.200625 57.278962 71.200625 57.278962 71.200625 57.278962 
M 125.560625 57.278962 
z
"/>
  </clipPath>
 </defs>
</svg>
