<?xml version="1.0" encoding="utf-8" standalone="no"?>
<!DOCTYPE svg PUBLIC "-//W3C//DTD SVG 1.1//EN"
  "http://www.w3.org/Graphics/SVG/1.1/DTD/svg11.dtd">
<!-- Created with matplotlib (https://matplotlib.org/) -->
<svg height="114.557925pt" version="1.1" viewBox="0 0 136.840312 114.557925" width="136.840312pt" xmlns="http://www.w3.org/2000/svg" xmlns:xlink="http://www.w3.org/1999/xlink">
 <defs>
  <style type="text/css">
*{stroke-linecap:butt;stroke-linejoin:round;}
  </style>
 </defs>
 <g id="figure_1">
  <g id="patch_1">
   <path d="M 0 114.557925 
L 136.840312 114.557925 
L 136.840312 0 
L 0 0 
z
" style="fill:none;"/>
  </g>
  <g id="axes_1">
   <g id="patch_2">
    <path d="M 125.560625 57.278962 
C 125.560625 50.140473 124.154498 43.071396 121.422716 36.476291 
C 118.690935 29.881186 114.686624 23.888312 109.63895 18.840638 
C 104.591275 13.792963 98.598401 9.788653 92.003296 7.056871 
C 85.408192 4.325089 78.339115 2.918962 71.200625 2.918962 
C 64.062135 2.918962 56.993058 4.325089 50.397954 7.056871 
C 43.802849 9.788653 37.809975 13.792963 32.7623 18.840638 
C 27.714626 23.888312 23.710315 29.881186 20.978534 36.476291 
C 18.246752 43.071396 16.840625 50.140473 16.840625 57.278962 
C 16.840625 64.417452 18.246752 71.486529 20.978534 78.081634 
C 23.710315 84.676738 27.714626 90.669612 32.7623 95.717287 
C 37.809975 100.764961 43.802849 104.769272 50.397954 107.501054 
C 56.993058 110.232835 64.062135 111.638962 71.200625 111.638962 
C 78.339115 111.638962 85.408192 110.232835 92.003296 107.501054 
C 98.598401 104.769272 104.591275 100.764961 109.63895 95.717287 
C 114.686624 90.669612 118.690935 84.676738 121.422716 78.081634 
C 124.154498 71.486529 125.560625 64.417452 125.560625 57.278962 
M 71.200625 57.278962 
C 71.200625 57.278962 71.200625 57.278962 71.200625 57.278962 
C 71.200625 57.278962 71.200625 57.278962 71.200625 57.278962 
C 71.200625 57.278962 71.200625 57.278962 71.200625 57.278962 
C 71.200625 57.278962 71.200625 57.278962 71.200625 57.278962 
C 71.200625 57.278962 71.200625 57.278962 71.200625 57.278962 
C 71.200625 57.278962 71.200625 57.278962 71.200625 57.278962 
C 71.200625 57.278962 71.200625 57.278962 71.200625 57.278962 
C 71.200625 57.278962 71.200625 57.278962 71.200625 57.278962 
C 71.200625 57.278962 71.200625 57.278962 71.200625 57.278962 
C 71.200625 57.278962 71.200625 57.278962 71.200625 57.278962 
C 71.200625 57.278962 71.200625 57.278962 71.200625 57.278962 
C 71.200625 57.278962 71.200625 57.278962 71.200625 57.278962 
C 71.200625 57.278962 71.200625 57.278962 71.200625 57.278962 
C 71.200625 57.278962 71.200625 57.278962 71.200625 57.278962 
C 71.200625 57.278962 71.200625 57.278962 71.200625 57.278962 
C 71.200625 57.278962 71.200625 57.278962 71.200625 57.278962 
M 125.560625 57.278962 
z
" style="fill:none;"/>
   </g>
   <g id="matplotlib.axis_1">
    <g id="xtick_1">
     <g id="line2d_1">
      <path clip-path="url(#pb877e3ef88)" d="M 71.200625 57.278962 
L 125.560625 57.278962 
" style="fill:none;stroke:#b0b0b0;stroke-linecap:square;stroke-width:0.8;"/>
     </g>
     <g id="text_1">
      <text style="font-family:Arial;font-size:10px;font-style:normal;font-weight:normal;text-anchor:middle;" transform="rotate(-0, 132.060625, 59.864119)" x="132.060625" y="59.864119">0°</text>
     </g>
    </g>
    <g id="xtick_2">
     <g id="line2d_2">
      <path clip-path="url(#pb877e3ef88)" d="M 71.200625 57.278962 
L 98.380625 10.201821 
" style="fill:none;stroke:#b0b0b0;stroke-linecap:square;stroke-width:0.8;"/>
     </g>
     <g id="text_2">
      <text style="font-family:Arial;font-size:10px;font-style:normal;font-weight:normal;text-anchor:middle;" transform="rotate(-0, 101.630625, 7.157813)" x="101.630625" y="7.157813">60°</text>
     </g>
    </g>
    <g id="xtick_3">
     <g id="line2d_3">
      <path clip-path="url(#pb877e3ef88)" d="M 71.200625 57.278962 
L 44.020625 10.201821 
" style="fill:none;stroke:#b0b0b0;stroke-linecap:square;stroke-width:0.8;"/>
     </g>
     <g id="text_3">
      <text style="font-family:Arial;font-size:10px;font-style:normal;font-weight:normal;text-anchor:middle;" transform="rotate(-0, 40.770625, 7.157813)" x="40.770625" y="7.157813">120°</text>
     </g>
    </g>
    <g id="xtick_4">
     <g id="line2d_4">
      <path clip-path="url(#pb877e3ef88)" d="M 71.200625 57.278962 
L 16.840625 57.278962 
" style="fill:none;stroke:#b0b0b0;stroke-linecap:square;stroke-width:0.8;"/>
     </g>
     <g id="text_4">
      <text style="font-family:Arial;font-size:10px;font-style:normal;font-weight:normal;text-anchor:middle;" transform="rotate(-0, 10.340625, 59.864119)" x="10.340625" y="59.864119">180°</text>
     </g>
    </g>
    <g id="xtick_5">
     <g id="line2d_5">
      <path clip-path="url(#pb877e3ef88)" d="M 71.200625 57.278962 
L 44.020625 104.356103 
" style="fill:none;stroke:#b0b0b0;stroke-linecap:square;stroke-width:0.8;"/>
     </g>
     <g id="text_5">
      <text style="font-family:Arial;font-size:10px;font-style:normal;font-weight:normal;text-anchor:middle;" transform="rotate(-0, 40.770625, 112.570425)" x="40.770625" y="112.570425">240°</text>
     </g>
    </g>
    <g id="xtick_6">
     <g id="line2d_6">
      <path clip-path="url(#pb877e3ef88)" d="M 71.200625 57.278962 
L 98.380625 104.356103 
" style="fill:none;stroke:#b0b0b0;stroke-linecap:square;stroke-width:0.8;"/>
     </g>
     <g id="text_6">
      <text style="font-family:Arial;font-size:10px;font-style:normal;font-weight:normal;text-anchor:middle;" transform="rotate(-0, 101.630625, 112.570425)" x="101.630625" y="112.570425">300°</text>
     </g>
    </g>
   </g>
   <g id="matplotlib.axis_2">
    <g id="ytick_1">
     <g id="line2d_7">
      <path clip-path="url(#pb877e3ef88)" d="M 98.04038 57.278962 
L 97.893349 54.473444 
L 97.453867 51.698664 
L 96.726749 48.985022 
L 95.719961 46.362251 
L 94.444535 43.859085 
L 92.914443 41.50295 
L 91.14645 39.319661 
L 89.159926 37.333137 
L 86.976637 35.565145 
L 84.620502 34.035053 
L 82.117337 32.759626 
L 79.494565 31.752839 
L 76.780924 31.02572 
L 74.006143 30.586238 
L 71.200625 30.439207 
L 68.395107 30.586238 
L 65.620326 31.02572 
L 62.906685 31.752839 
L 60.283913 32.759626 
L 57.780748 34.035053 
L 55.424613 35.565145 
L 53.241324 37.333137 
L 51.2548 39.319661 
L 49.486807 41.50295 
L 47.956715 43.859085 
L 46.681289 46.362251 
L 45.674501 48.985022 
L 44.947383 51.698664 
L 44.507901 54.473444 
L 44.36087 57.278962 
L 44.507901 60.084481 
L 44.947383 62.859261 
L 45.674501 65.572903 
L 46.681289 68.195674 
L 47.956715 70.69884 
L 49.486807 73.054974 
L 51.2548 75.238264 
L 53.241324 77.224787 
L 55.424613 78.99278 
L 57.780748 80.522872 
L 60.283913 81.798298 
L 62.906685 82.805086 
L 65.620326 83.532204 
L 68.395107 83.971686 
L 71.200625 84.118717 
L 74.006143 83.971686 
L 76.780924 83.532204 
L 79.494565 82.805086 
L 82.117337 81.798298 
L 84.620502 80.522872 
L 86.976637 78.99278 
L 89.159926 77.224787 
L 91.14645 75.238264 
L 92.914443 73.054974 
L 94.444535 70.69884 
L 95.719961 68.195674 
L 96.726749 65.572903 
L 97.453867 62.859261 
L 97.893349 60.084481 
L 98.04038 57.278962 
L 98.04038 57.278962 
" style="fill:none;stroke:#b0b0b0;stroke-linecap:square;stroke-width:0.8;"/>
     </g>
    </g>
    <g id="ytick_2">
     <g id="line2d_8">
      <path clip-path="url(#pb877e3ef88)" d="M 123.089716 57.278962 
L 122.963317 53.659362 
L 122.584735 50.057397 
L 121.955815 46.490614 
L 121.079621 42.976391 
L 119.960421 39.531848 
L 118.603668 36.173768 
L 117.015973 32.91851 
L 115.20507 29.781933 
L 113.179781 26.77932 
L 110.949975 23.925298 
L 108.526513 21.233771 
L 105.921204 18.717853 
L 103.146739 16.389801 
L 100.216636 14.260956 
L 97.14517 12.341691 
L 93.947305 10.641356 
L 90.638621 9.168235 
L 87.235236 7.929504 
L 83.753732 6.931199 
L 80.211071 6.178183 
L 76.624512 5.674125 
L 73.011528 5.421481 
L 69.389722 5.421481 
L 65.776738 5.674125 
L 62.190179 6.178183 
L 58.647518 6.931199 
L 55.166014 7.929504 
L 51.762629 9.168235 
L 48.453945 10.641356 
L 45.25608 12.341691 
L 42.184614 14.260956 
L 39.254511 16.389801 
L 36.480046 18.717853 
L 33.874737 21.233771 
L 31.451275 23.925298 
L 29.221469 26.77932 
L 27.19618 29.781933 
L 25.385277 32.91851 
L 23.797582 36.173768 
L 22.440829 39.531848 
L 21.321629 42.976391 
L 20.445435 46.490614 
L 19.816515 50.057397 
L 19.437933 53.659362 
L 19.311534 57.278962 
L 19.437933 60.898562 
L 19.816515 64.500528 
L 20.445435 68.067311 
L 21.321629 71.581534 
L 22.440829 75.026077 
L 23.797582 78.384157 
L 25.385277 81.639415 
L 27.19618 84.775991 
L 29.221469 87.778605 
L 31.451275 90.632627 
L 33.874737 93.324154 
L 36.480046 95.840072 
L 39.254511 98.168124 
L 42.184614 100.296968 
L 45.25608 102.216233 
L 48.453945 103.916568 
L 51.762629 105.38969 
L 55.166014 106.62842 
L 58.647518 107.626725 
L 62.190179 108.379741 
L 65.776738 108.883799 
L 69.389722 109.136444 
L 73.011528 109.136444 
L 76.624512 108.883799 
L 80.211071 108.379741 
L 83.753732 107.626725 
L 87.235236 106.62842 
L 90.638621 105.38969 
L 93.947305 103.916568 
L 97.14517 102.216233 
L 100.216636 100.296968 
L 103.146739 98.168124 
L 105.921204 95.840072 
L 108.526513 93.324154 
L 110.949975 90.632627 
L 113.179781 87.778605 
L 115.20507 84.775991 
L 117.015973 81.639415 
L 118.603668 78.384157 
L 119.960421 75.026077 
L 121.079621 71.581534 
L 121.955815 68.067311 
L 122.584735 64.500528 
L 122.963317 60.898562 
L 123.089716 57.278962 
L 123.089716 57.278962 
" style="fill:none;stroke:#b0b0b0;stroke-linecap:square;stroke-width:0.8;"/>
     </g>
    </g>
   </g>
   <g id="line2d_9">
    <path clip-path="url(#pb877e3ef88)" d="M 105.895577 56.67337 
L 105.974938 54.23662 
L 101.462642 52.485918 
L 95.599561 51.646096 
L 88.302311 52.050377 
L 81.435917 53.349992 
L 76.202509 54.94656 
L 73.608241 55.944385 
L 73.661888 55.680595 
L 76.122767 53.569876 
L 79.968331 49.657389 
L 84.544101 43.935438 
L 87.903938 38.06405 
L 90.410531 31.786795 
L 91.181807 26.510483 
L 90.136252 23.114226 
L 87.157782 23.055513 
L 82.830519 26.979986 
L 78.653852 32.899715 
L 75.263971 39.678961 
L 72.988296 45.993273 
L 71.768802 50.7869 
L 71.259405 53.919767 
L 71.041216 54.239804 
L 70.533734 51.848944 
L 69.33728 47.693774 
L 67.141947 42.132029 
L 63.716113 35.541734 
L 59.840059 30.513505 
L 55.458825 26.381251 
L 51.916246 25.180848 
L 49.60972 26.446477 
L 49.986023 31.082464 
L 52.323752 37.036485 
L 56.455011 43.528425 
L 61.230999 49.205483 
L 65.630592 53.378556 
L 68.489581 55.649853 
L 68.998977 56.157295 
L 66.824801 55.421706 
L 62.305673 54.216383 
L 56.341577 53.2976 
L 49.948882 53.1479 
L 43.67887 53.899168 
L 39.197588 55.600702 
L 37.224954 57.870448 
L 38.124802 60.174085 
L 42.004574 61.903992 
L 47.205483 62.819045 
L 53.939865 62.556132 
L 60.639287 61.332937 
L 65.599338 59.890715 
L 68.579338 58.731834 
L 68.622006 58.953716 
L 65.801188 61.348031 
L 60.984279 66.160298 
L 55.057272 73.422612 
L 50.171525 81.46998 
L 46.194806 90.461621 
L 44.622087 98.203605 
L 46.042321 102.66109 
L 49.523834 103.77025 
L 54.55776 100.639016 
L 59.980467 93.980677 
L 64.883496 84.641932 
L 68.418521 74.843411 
L 70.442391 65.943371 
L 71.138073 60.855253 
L 71.371294 60.538569 
L 72.140049 64.927557 
L 74.072482 72.05143 
L 77.53228 80.90792 
L 81.804509 88.075031 
L 86.63424 93.639767 
L 90.678884 95.509833 
L 94.157232 95.488726 
L 95.547663 92.046748 
L 95.026683 86.699732 
L 92.138656 79.731376 
L 87.444918 72.426821 
L 82.154556 66.149406 
L 77.469069 61.668361 
L 74.155635 59.054645 
L 73.658297 58.531353 
L 76.06627 59.344074 
L 81.004624 60.654451 
L 87.523554 61.652432 
L 94.609847 61.829232 
L 101.056504 60.945175 
L 106.334548 59.121149 
" style="fill:none;stroke:#377eb8;stroke-linecap:square;"/>
    <defs>
     <path d="M 0 0.75 
C 0.198902 0.75 0.389685 0.670975 0.53033 0.53033 
C 0.670975 0.389685 0.75 0.198902 0.75 0 
C 0.75 -0.198902 0.670975 -0.389685 0.53033 -0.53033 
C 0.389685 -0.670975 0.198902 -0.75 0 -0.75 
C -0.198902 -0.75 -0.389685 -0.670975 -0.53033 -0.53033 
C -0.670975 -0.389685 -0.75 -0.198902 -0.75 0 
C -0.75 0.198902 -0.670975 0.389685 -0.53033 0.53033 
C -0.389685 0.670975 -0.198902 0.75 0 0.75 
z
" id="m2360e668ce" style="stroke:#377eb8;"/>
    </defs>
    <g clip-path="url(#pb877e3ef88)">
     <use style="fill:#377eb8;stroke:#377eb8;" x="105.895577" xlink:href="#m2360e668ce" y="56.67337"/>
     <use style="fill:#377eb8;stroke:#377eb8;" x="105.974938" xlink:href="#m2360e668ce" y="54.23662"/>
     <use style="fill:#377eb8;stroke:#377eb8;" x="101.462642" xlink:href="#m2360e668ce" y="52.485918"/>
     <use style="fill:#377eb8;stroke:#377eb8;" x="95.599561" xlink:href="#m2360e668ce" y="51.646096"/>
     <use style="fill:#377eb8;stroke:#377eb8;" x="88.302311" xlink:href="#m2360e668ce" y="52.050377"/>
     <use style="fill:#377eb8;stroke:#377eb8;" x="81.435917" xlink:href="#m2360e668ce" y="53.349992"/>
     <use style="fill:#377eb8;stroke:#377eb8;" x="76.202509" xlink:href="#m2360e668ce" y="54.94656"/>
     <use style="fill:#377eb8;stroke:#377eb8;" x="73.608241" xlink:href="#m2360e668ce" y="55.944385"/>
     <use style="fill:#377eb8;stroke:#377eb8;" x="73.661888" xlink:href="#m2360e668ce" y="55.680595"/>
     <use style="fill:#377eb8;stroke:#377eb8;" x="76.122767" xlink:href="#m2360e668ce" y="53.569876"/>
     <use style="fill:#377eb8;stroke:#377eb8;" x="79.968331" xlink:href="#m2360e668ce" y="49.657389"/>
     <use style="fill:#377eb8;stroke:#377eb8;" x="84.544101" xlink:href="#m2360e668ce" y="43.935438"/>
     <use style="fill:#377eb8;stroke:#377eb8;" x="87.903938" xlink:href="#m2360e668ce" y="38.06405"/>
     <use style="fill:#377eb8;stroke:#377eb8;" x="90.410531" xlink:href="#m2360e668ce" y="31.786795"/>
     <use style="fill:#377eb8;stroke:#377eb8;" x="91.181807" xlink:href="#m2360e668ce" y="26.510483"/>
     <use style="fill:#377eb8;stroke:#377eb8;" x="90.136252" xlink:href="#m2360e668ce" y="23.114226"/>
     <use style="fill:#377eb8;stroke:#377eb8;" x="87.157782" xlink:href="#m2360e668ce" y="23.055513"/>
     <use style="fill:#377eb8;stroke:#377eb8;" x="82.830519" xlink:href="#m2360e668ce" y="26.979986"/>
     <use style="fill:#377eb8;stroke:#377eb8;" x="78.653852" xlink:href="#m2360e668ce" y="32.899715"/>
     <use style="fill:#377eb8;stroke:#377eb8;" x="75.263971" xlink:href="#m2360e668ce" y="39.678961"/>
     <use style="fill:#377eb8;stroke:#377eb8;" x="72.988296" xlink:href="#m2360e668ce" y="45.993273"/>
     <use style="fill:#377eb8;stroke:#377eb8;" x="71.768802" xlink:href="#m2360e668ce" y="50.7869"/>
     <use style="fill:#377eb8;stroke:#377eb8;" x="71.259405" xlink:href="#m2360e668ce" y="53.919767"/>
     <use style="fill:#377eb8;stroke:#377eb8;" x="71.041216" xlink:href="#m2360e668ce" y="54.239804"/>
     <use style="fill:#377eb8;stroke:#377eb8;" x="70.533734" xlink:href="#m2360e668ce" y="51.848944"/>
     <use style="fill:#377eb8;stroke:#377eb8;" x="69.33728" xlink:href="#m2360e668ce" y="47.693774"/>
     <use style="fill:#377eb8;stroke:#377eb8;" x="67.141947" xlink:href="#m2360e668ce" y="42.132029"/>
     <use style="fill:#377eb8;stroke:#377eb8;" x="63.716113" xlink:href="#m2360e668ce" y="35.541734"/>
     <use style="fill:#377eb8;stroke:#377eb8;" x="59.840059" xlink:href="#m2360e668ce" y="30.513505"/>
     <use style="fill:#377eb8;stroke:#377eb8;" x="55.458825" xlink:href="#m2360e668ce" y="26.381251"/>
     <use style="fill:#377eb8;stroke:#377eb8;" x="51.916246" xlink:href="#m2360e668ce" y="25.180848"/>
     <use style="fill:#377eb8;stroke:#377eb8;" x="49.60972" xlink:href="#m2360e668ce" y="26.446477"/>
     <use style="fill:#377eb8;stroke:#377eb8;" x="49.986023" xlink:href="#m2360e668ce" y="31.082464"/>
     <use style="fill:#377eb8;stroke:#377eb8;" x="52.323752" xlink:href="#m2360e668ce" y="37.036485"/>
     <use style="fill:#377eb8;stroke:#377eb8;" x="56.455011" xlink:href="#m2360e668ce" y="43.528425"/>
     <use style="fill:#377eb8;stroke:#377eb8;" x="61.230999" xlink:href="#m2360e668ce" y="49.205483"/>
     <use style="fill:#377eb8;stroke:#377eb8;" x="65.630592" xlink:href="#m2360e668ce" y="53.378556"/>
     <use style="fill:#377eb8;stroke:#377eb8;" x="68.489581" xlink:href="#m2360e668ce" y="55.649853"/>
     <use style="fill:#377eb8;stroke:#377eb8;" x="68.998977" xlink:href="#m2360e668ce" y="56.157295"/>
     <use style="fill:#377eb8;stroke:#377eb8;" x="66.824801" xlink:href="#m2360e668ce" y="55.421706"/>
     <use style="fill:#377eb8;stroke:#377eb8;" x="62.305673" xlink:href="#m2360e668ce" y="54.216383"/>
     <use style="fill:#377eb8;stroke:#377eb8;" x="56.341577" xlink:href="#m2360e668ce" y="53.2976"/>
     <use style="fill:#377eb8;stroke:#377eb8;" x="49.948882" xlink:href="#m2360e668ce" y="53.1479"/>
     <use style="fill:#377eb8;stroke:#377eb8;" x="43.67887" xlink:href="#m2360e668ce" y="53.899168"/>
     <use style="fill:#377eb8;stroke:#377eb8;" x="39.197588" xlink:href="#m2360e668ce" y="55.600702"/>
     <use style="fill:#377eb8;stroke:#377eb8;" x="37.224954" xlink:href="#m2360e668ce" y="57.870448"/>
     <use style="fill:#377eb8;stroke:#377eb8;" x="38.124802" xlink:href="#m2360e668ce" y="60.174085"/>
     <use style="fill:#377eb8;stroke:#377eb8;" x="42.004574" xlink:href="#m2360e668ce" y="61.903992"/>
     <use style="fill:#377eb8;stroke:#377eb8;" x="47.205483" xlink:href="#m2360e668ce" y="62.819045"/>
     <use style="fill:#377eb8;stroke:#377eb8;" x="53.939865" xlink:href="#m2360e668ce" y="62.556132"/>
     <use style="fill:#377eb8;stroke:#377eb8;" x="60.639287" xlink:href="#m2360e668ce" y="61.332937"/>
     <use style="fill:#377eb8;stroke:#377eb8;" x="65.599338" xlink:href="#m2360e668ce" y="59.890715"/>
     <use style="fill:#377eb8;stroke:#377eb8;" x="68.579338" xlink:href="#m2360e668ce" y="58.731834"/>
     <use style="fill:#377eb8;stroke:#377eb8;" x="68.622006" xlink:href="#m2360e668ce" y="58.953716"/>
     <use style="fill:#377eb8;stroke:#377eb8;" x="65.801188" xlink:href="#m2360e668ce" y="61.348031"/>
     <use style="fill:#377eb8;stroke:#377eb8;" x="60.984279" xlink:href="#m2360e668ce" y="66.160298"/>
     <use style="fill:#377eb8;stroke:#377eb8;" x="55.057272" xlink:href="#m2360e668ce" y="73.422612"/>
     <use style="fill:#377eb8;stroke:#377eb8;" x="50.171525" xlink:href="#m2360e668ce" y="81.46998"/>
     <use style="fill:#377eb8;stroke:#377eb8;" x="46.194806" xlink:href="#m2360e668ce" y="90.461621"/>
     <use style="fill:#377eb8;stroke:#377eb8;" x="44.622087" xlink:href="#m2360e668ce" y="98.203605"/>
     <use style="fill:#377eb8;stroke:#377eb8;" x="46.042321" xlink:href="#m2360e668ce" y="102.66109"/>
     <use style="fill:#377eb8;stroke:#377eb8;" x="49.523834" xlink:href="#m2360e668ce" y="103.77025"/>
     <use style="fill:#377eb8;stroke:#377eb8;" x="54.55776" xlink:href="#m2360e668ce" y="100.639016"/>
     <use style="fill:#377eb8;stroke:#377eb8;" x="59.980467" xlink:href="#m2360e668ce" y="93.980677"/>
     <use style="fill:#377eb8;stroke:#377eb8;" x="64.883496" xlink:href="#m2360e668ce" y="84.641932"/>
     <use style="fill:#377eb8;stroke:#377eb8;" x="68.418521" xlink:href="#m2360e668ce" y="74.843411"/>
     <use style="fill:#377eb8;stroke:#377eb8;" x="70.442391" xlink:href="#m2360e668ce" y="65.943371"/>
     <use style="fill:#377eb8;stroke:#377eb8;" x="71.138073" xlink:href="#m2360e668ce" y="60.855253"/>
     <use style="fill:#377eb8;stroke:#377eb8;" x="71.371294" xlink:href="#m2360e668ce" y="60.538569"/>
     <use style="fill:#377eb8;stroke:#377eb8;" x="72.140049" xlink:href="#m2360e668ce" y="64.927557"/>
     <use style="fill:#377eb8;stroke:#377eb8;" x="74.072482" xlink:href="#m2360e668ce" y="72.05143"/>
     <use style="fill:#377eb8;stroke:#377eb8;" x="77.53228" xlink:href="#m2360e668ce" y="80.90792"/>
     <use style="fill:#377eb8;stroke:#377eb8;" x="81.804509" xlink:href="#m2360e668ce" y="88.075031"/>
     <use style="fill:#377eb8;stroke:#377eb8;" x="86.63424" xlink:href="#m2360e668ce" y="93.639767"/>
     <use style="fill:#377eb8;stroke:#377eb8;" x="90.678884" xlink:href="#m2360e668ce" y="95.509833"/>
     <use style="fill:#377eb8;stroke:#377eb8;" x="94.157232" xlink:href="#m2360e668ce" y="95.488726"/>
     <use style="fill:#377eb8;stroke:#377eb8;" x="95.547663" xlink:href="#m2360e668ce" y="92.046748"/>
     <use style="fill:#377eb8;stroke:#377eb8;" x="95.026683" xlink:href="#m2360e668ce" y="86.699732"/>
     <use style="fill:#377eb8;stroke:#377eb8;" x="92.138656" xlink:href="#m2360e668ce" y="79.731376"/>
     <use style="fill:#377eb8;stroke:#377eb8;" x="87.444918" xlink:href="#m2360e668ce" y="72.426821"/>
     <use style="fill:#377eb8;stroke:#377eb8;" x="82.154556" xlink:href="#m2360e668ce" y="66.149406"/>
     <use style="fill:#377eb8;stroke:#377eb8;" x="77.469069" xlink:href="#m2360e668ce" y="61.668361"/>
     <use style="fill:#377eb8;stroke:#377eb8;" x="74.155635" xlink:href="#m2360e668ce" y="59.054645"/>
     <use style="fill:#377eb8;stroke:#377eb8;" x="73.658297" xlink:href="#m2360e668ce" y="58.531353"/>
     <use style="fill:#377eb8;stroke:#377eb8;" x="76.06627" xlink:href="#m2360e668ce" y="59.344074"/>
     <use style="fill:#377eb8;stroke:#377eb8;" x="81.004624" xlink:href="#m2360e668ce" y="60.654451"/>
     <use style="fill:#377eb8;stroke:#377eb8;" x="87.523554" xlink:href="#m2360e668ce" y="61.652432"/>
     <use style="fill:#377eb8;stroke:#377eb8;" x="94.609847" xlink:href="#m2360e668ce" y="61.829232"/>
     <use style="fill:#377eb8;stroke:#377eb8;" x="101.056504" xlink:href="#m2360e668ce" y="60.945175"/>
     <use style="fill:#377eb8;stroke:#377eb8;" x="106.334548" xlink:href="#m2360e668ce" y="59.121149"/>
    </g>
   </g>
  </g>
 </g>
 <defs>
  <clipPath id="pb877e3ef88">
   <path d="M 125.560625 57.278962 
C 125.560625 50.140473 124.154498 43.071396 121.422716 36.476291 
C 118.690935 29.881186 114.686624 23.888312 109.63895 18.840638 
C 104.591275 13.792963 98.598401 9.788653 92.003296 7.056871 
C 85.408192 4.325089 78.339115 2.918962 71.200625 2.918962 
C 64.062135 2.918962 56.993058 4.325089 50.397954 7.056871 
C 43.802849 9.788653 37.809975 13.792963 32.7623 18.840638 
C 27.714626 23.888312 23.710315 29.881186 20.978534 36.476291 
C 18.246752 43.071396 16.840625 50.140473 16.840625 57.278962 
C 16.840625 64.417452 18.246752 71.486529 20.978534 78.081634 
C 23.710315 84.676738 27.714626 90.669612 32.7623 95.717287 
C 37.809975 100.764961 43.802849 104.769272 50.397954 107.501054 
C 56.993058 110.232835 64.062135 111.638962 71.200625 111.638962 
C 78.339115 111.638962 85.408192 110.232835 92.003296 107.501054 
C 98.598401 104.769272 104.591275 100.764961 109.63895 95.717287 
C 114.686624 90.669612 118.690935 84.676738 121.422716 78.081634 
C 124.154498 71.486529 125.560625 64.417452 125.560625 57.278962 
M 71.200625 57.278962 
C 71.200625 57.278962 71.200625 57.278962 71.200625 57.278962 
C 71.200625 57.278962 71.200625 57.278962 71.200625 57.278962 
C 71.200625 57.278962 71.200625 57.278962 71.200625 57.278962 
C 71.200625 57.278962 71.200625 57.278962 71.200625 57.278962 
C 71.200625 57.278962 71.200625 57.278962 71.200625 57.278962 
C 71.200625 57.278962 71.200625 57.278962 71.200625 57.278962 
C 71.200625 57.278962 71.200625 57.278962 71.200625 57.278962 
C 71.200625 57.278962 71.200625 57.278962 71.200625 57.278962 
C 71.200625 57.278962 71.200625 57.278962 71.200625 57.278962 
C 71.200625 57.278962 71.200625 57.278962 71.200625 57.278962 
C 71.200625 57.278962 71.200625 57.278962 71.200625 57.278962 
C 71.200625 57.278962 71.200625 57.278962 71.200625 57.278962 
C 71.200625 57.278962 71.200625 57.278962 71.200625 57.278962 
C 71.200625 57.278962 71.200625 57.278962 71.200625 57.278962 
C 71.200625 57.278962 71.200625 57.278962 71.200625 57.278962 
C 71.200625 57.278962 71.200625 57.278962 71.200625 57.278962 
M 125.560625 57.278962 
z
"/>
  </clipPath>
 </defs>
</svg>
