<?xml version="1.0" encoding="utf-8" standalone="no"?>
<!DOCTYPE svg PUBLIC "-//W3C//DTD SVG 1.1//EN"
  "http://www.w3.org/Graphics/SVG/1.1/DTD/svg11.dtd">
<!-- Created with matplotlib (https://matplotlib.org/) -->
<svg height="114.557925pt" version="1.1" viewBox="0 0 136.840312 114.557925" width="136.840312pt" xmlns="http://www.w3.org/2000/svg" xmlns:xlink="http://www.w3.org/1999/xlink">
 <defs>
  <style type="text/css">
*{stroke-linecap:butt;stroke-linejoin:round;}
  </style>
 </defs>
 <g id="figure_1">
  <g id="patch_1">
   <path d="M 0 114.557925 
L 136.840312 114.557925 
L 136.840312 0 
L 0 0 
z
" style="fill:none;"/>
  </g>
  <g id="axes_1">
   <g id="patch_2">
    <path d="M 125.560625 57.278962 
C 125.560625 50.140473 124.154498 43.071396 121.422716 36.476291 
C 118.690935 29.881186 114.686624 23.888312 109.63895 18.840638 
C 104.591275 13.792963 98.598401 9.788653 92.003296 7.056871 
C 85.408192 4.325089 78.339115 2.918962 71.200625 2.918962 
C 64.062135 2.918962 56.993058 4.325089 50.397954 7.056871 
C 43.802849 9.788653 37.809975 13.792963 32.7623 18.840638 
C 27.714626 23.888312 23.710315 29.881186 20.978534 36.476291 
C 18.246752 43.071396 16.840625 50.140473 16.840625 57.278962 
C 16.840625 64.417452 18.246752 71.486529 20.978534 78.081634 
C 23.710315 84.676738 27.714626 90.669612 32.7623 95.717287 
C 37.809975 100.764961 43.802849 104.769272 50.397954 107.501054 
C 56.993058 110.232835 64.062135 111.638962 71.200625 111.638962 
C 78.339115 111.638962 85.408192 110.232835 92.003296 107.501054 
C 98.598401 104.769272 104.591275 100.764961 109.63895 95.717287 
C 114.686624 90.669612 118.690935 84.676738 121.422716 78.081634 
C 124.154498 71.486529 125.560625 64.417452 125.560625 57.278962 
M 71.200625 57.278962 
C 71.200625 57.278962 71.200625 57.278962 71.200625 57.278962 
C 71.200625 57.278962 71.200625 57.278962 71.200625 57.278962 
C 71.200625 57.278962 71.200625 57.278962 71.200625 57.278962 
C 71.200625 57.278962 71.200625 57.278962 71.200625 57.278962 
C 71.200625 57.278962 71.200625 57.278962 71.200625 57.278962 
C 71.200625 57.278962 71.200625 57.278962 71.200625 57.278962 
C 71.200625 57.278962 71.200625 57.278962 71.200625 57.278962 
C 71.200625 57.278962 71.200625 57.278962 71.200625 57.278962 
C 71.200625 57.278962 71.200625 57.278962 71.200625 57.278962 
C 71.200625 57.278962 71.200625 57.278962 71.200625 57.278962 
C 71.200625 57.278962 71.200625 57.278962 71.200625 57.278962 
C 71.200625 57.278962 71.200625 57.278962 71.200625 57.278962 
C 71.200625 57.278962 71.200625 57.278962 71.200625 57.278962 
C 71.200625 57.278962 71.200625 57.278962 71.200625 57.278962 
C 71.200625 57.278962 71.200625 57.278962 71.200625 57.278962 
C 71.200625 57.278962 71.200625 57.278962 71.200625 57.278962 
M 125.560625 57.278962 
z
" style="fill:none;"/>
   </g>
   <g id="matplotlib.axis_1">
    <g id="xtick_1">
     <g id="line2d_1">
      <path clip-path="url(#pcf0c1854dd)" d="M 71.200625 57.278962 
L 125.560625 57.278962 
" style="fill:none;stroke:#b0b0b0;stroke-linecap:square;stroke-width:0.8;"/>
     </g>
     <g id="text_1">
      <text style="font-family:Arial;font-size:10px;font-style:normal;font-weight:normal;text-anchor:middle;" transform="rotate(-0, 132.060625, 59.864119)" x="132.060625" y="59.864119">0°</text>
     </g>
    </g>
    <g id="xtick_2">
     <g id="line2d_2">
      <path clip-path="url(#pcf0c1854dd)" d="M 71.200625 57.278962 
L 98.380625 10.201821 
" style="fill:none;stroke:#b0b0b0;stroke-linecap:square;stroke-width:0.8;"/>
     </g>
     <g id="text_2">
      <text style="font-family:Arial;font-size:10px;font-style:normal;font-weight:normal;text-anchor:middle;" transform="rotate(-0, 101.630625, 7.157812)" x="101.630625" y="7.157812">60°</text>
     </g>
    </g>
    <g id="xtick_3">
     <g id="line2d_3">
      <path clip-path="url(#pcf0c1854dd)" d="M 71.200625 57.278962 
L 44.020625 10.201821 
" style="fill:none;stroke:#b0b0b0;stroke-linecap:square;stroke-width:0.8;"/>
     </g>
     <g id="text_3">
      <text style="font-family:Arial;font-size:10px;font-style:normal;font-weight:normal;text-anchor:middle;" transform="rotate(-0, 40.770625, 7.157812)" x="40.770625" y="7.157812">120°</text>
     </g>
    </g>
    <g id="xtick_4">
     <g id="line2d_4">
      <path clip-path="url(#pcf0c1854dd)" d="M 71.200625 57.278962 
L 16.840625 57.278962 
" style="fill:none;stroke:#b0b0b0;stroke-linecap:square;stroke-width:0.8;"/>
     </g>
     <g id="text_4">
      <text style="font-family:Arial;font-size:10px;font-style:normal;font-weight:normal;text-anchor:middle;" transform="rotate(-0, 10.340625, 59.864119)" x="10.340625" y="59.864119">180°</text>
     </g>
    </g>
    <g id="xtick_5">
     <g id="line2d_5">
      <path clip-path="url(#pcf0c1854dd)" d="M 71.200625 57.278962 
L 44.020625 104.356103 
" style="fill:none;stroke:#b0b0b0;stroke-linecap:square;stroke-width:0.8;"/>
     </g>
     <g id="text_5">
      <text style="font-family:Arial;font-size:10px;font-style:normal;font-weight:normal;text-anchor:middle;" transform="rotate(-0, 40.770625, 112.570425)" x="40.770625" y="112.570425">240°</text>
     </g>
    </g>
    <g id="xtick_6">
     <g id="line2d_6">
      <path clip-path="url(#pcf0c1854dd)" d="M 71.200625 57.278962 
L 98.380625 104.356103 
" style="fill:none;stroke:#b0b0b0;stroke-linecap:square;stroke-width:0.8;"/>
     </g>
     <g id="text_6">
      <text style="font-family:Arial;font-size:10px;font-style:normal;font-weight:normal;text-anchor:middle;" transform="rotate(-0, 101.630625, 112.570425)" x="101.630625" y="112.570425">300°</text>
     </g>
    </g>
   </g>
   <g id="matplotlib.axis_2">
    <g id="ytick_1">
     <g id="line2d_7">
      <path clip-path="url(#pcf0c1854dd)" d="M 98.355644 57.278962 
L 98.206886 54.44049 
L 97.762241 51.633116 
L 97.026582 48.8876 
L 96.007969 46.234021 
L 94.717561 43.701453 
L 93.169497 41.317643 
L 91.380737 39.108708 
L 89.370879 37.098851 
L 87.161944 35.310091 
L 84.778134 33.762026 
L 82.245566 32.471618 
L 79.591987 31.453005 
L 76.846471 30.717346 
L 74.039097 30.272702 
L 71.200625 30.123944 
L 68.362153 30.272702 
L 65.554779 30.717346 
L 62.809263 31.453005 
L 60.155684 32.471618 
L 57.623116 33.762026 
L 55.239306 35.310091 
L 53.030371 37.098851 
L 51.020513 39.108708 
L 49.231753 41.317643 
L 47.683689 43.701453 
L 46.393281 46.234021 
L 45.374668 48.8876 
L 44.639009 51.633116 
L 44.194364 54.44049 
L 44.045606 57.278962 
L 44.194364 60.117435 
L 44.639009 62.924808 
L 45.374668 65.670325 
L 46.393281 68.323903 
L 47.683689 70.856472 
L 49.231753 73.240282 
L 51.020513 75.449216 
L 53.030371 77.459074 
L 55.239306 79.247834 
L 57.623116 80.795898 
L 60.155684 82.086306 
L 62.809263 83.10492 
L 65.554779 83.840579 
L 68.362153 84.285223 
L 71.200625 84.433981 
L 74.039097 84.285223 
L 76.846471 83.840579 
L 79.591987 83.10492 
L 82.245566 82.086306 
L 84.778134 80.795898 
L 87.161944 79.247834 
L 89.370879 77.459074 
L 91.380737 75.449216 
L 93.169497 73.240282 
L 94.717561 70.856472 
L 96.007969 68.323903 
L 97.026582 65.670325 
L 97.762241 62.924808 
L 98.206886 60.117435 
L 98.355644 57.278962 
L 98.355644 57.278962 
" style="fill:none;stroke:#b0b0b0;stroke-linecap:square;stroke-width:0.8;"/>
     </g>
    </g>
    <g id="ytick_2">
     <g id="line2d_8">
      <path clip-path="url(#pcf0c1854dd)" d="M 123.089716 57.278962 
L 122.963317 53.659362 
L 122.584735 50.057397 
L 121.955815 46.490614 
L 121.079621 42.976391 
L 119.960421 39.531848 
L 118.603668 36.173768 
L 117.015973 32.91851 
L 115.20507 29.781933 
L 113.179781 26.77932 
L 110.949975 23.925298 
L 108.526513 21.233771 
L 105.921204 18.717853 
L 103.146739 16.389801 
L 100.216636 14.260956 
L 97.14517 12.341691 
L 93.947305 10.641356 
L 90.638621 9.168235 
L 87.235236 7.929504 
L 83.753732 6.931199 
L 80.211071 6.178183 
L 76.624512 5.674125 
L 73.011528 5.421481 
L 69.389722 5.421481 
L 65.776738 5.674125 
L 62.190179 6.178183 
L 58.647518 6.931199 
L 55.166014 7.929504 
L 51.762629 9.168235 
L 48.453945 10.641356 
L 45.25608 12.341691 
L 42.184614 14.260956 
L 39.254511 16.389801 
L 36.480046 18.717853 
L 33.874737 21.233771 
L 31.451275 23.925298 
L 29.221469 26.77932 
L 27.19618 29.781933 
L 25.385277 32.91851 
L 23.797582 36.173768 
L 22.440829 39.531848 
L 21.321629 42.976391 
L 20.445435 46.490614 
L 19.816515 50.057397 
L 19.437933 53.659362 
L 19.311534 57.278962 
L 19.437933 60.898562 
L 19.816515 64.500528 
L 20.445435 68.067311 
L 21.321629 71.581534 
L 22.440829 75.026077 
L 23.797582 78.384157 
L 25.385277 81.639415 
L 27.19618 84.775991 
L 29.221469 87.778605 
L 31.451275 90.632627 
L 33.874737 93.324154 
L 36.480046 95.840072 
L 39.254511 98.168124 
L 42.184614 100.296968 
L 45.25608 102.216233 
L 48.453945 103.916568 
L 51.762629 105.38969 
L 55.166014 106.62842 
L 58.647518 107.626725 
L 62.190179 108.379741 
L 65.776738 108.883799 
L 69.389722 109.136444 
L 73.011528 109.136444 
L 76.624512 108.883799 
L 80.211071 108.379741 
L 83.753732 107.626725 
L 87.235236 106.62842 
L 90.638621 105.38969 
L 93.947305 103.916568 
L 97.14517 102.216233 
L 100.216636 100.296968 
L 103.146739 98.168124 
L 105.921204 95.840072 
L 108.526513 93.324154 
L 110.949975 90.632627 
L 113.179781 87.778605 
L 115.20507 84.775991 
L 117.015973 81.639415 
L 118.603668 78.384157 
L 119.960421 75.026077 
L 121.079621 71.581534 
L 121.955815 68.067311 
L 122.584735 64.500528 
L 122.963317 60.898562 
L 123.089716 57.278962 
L 123.089716 57.278962 
" style="fill:none;stroke:#b0b0b0;stroke-linecap:square;stroke-width:0.8;"/>
     </g>
    </g>
   </g>
   <g id="line2d_9">
    <path clip-path="url(#pcf0c1854dd)" d="M 78.506823 57.151434 
L 80.752032 56.443327 
L 81.894882 55.585154 
L 83.435768 54.454293 
L 84.571329 53.191069 
L 85.647404 51.733349 
L 85.02364 50.833223 
L 81.850457 51.375601 
L 78.76252 52.368196 
L 75.860583 53.767446 
L 74.100096 54.758516 
L 74.376928 54.102647 
L 77.375321 50.175807 
L 81.849048 43.14816 
L 87.26004 32.549505 
L 91.055512 21.455644 
L 91.555771 13.623108 
L 89.794907 8.835898 
L 85.747564 9.696426 
L 81.257511 13.718501 
L 76.636191 22.963859 
L 73.531273 30.64869 
L 71.539619 37.905775 
L 70.480889 43.557083 
L 69.972406 47.278455 
L 69.683557 49.475052 
L 69.020835 49.144015 
L 68.062283 48.164294 
L 66.532986 46.282019 
L 64.86453 44.842594 
L 63.506144 44.471791 
L 62.720107 45.168519 
L 63.066086 47.234162 
L 63.694694 49.230032 
L 64.946074 51.446486 
L 66.300171 53.310537 
L 67.449926 54.652542 
L 68.056367 55.389528 
L 68.53969 55.923303 
L 68.751523 56.239476 
L 68.818223 56.458689 
L 68.779918 56.630353 
L 68.617386 56.776814 
L 68.342776 56.928006 
L 68.013789 57.111843 
L 67.672671 57.340381 
L 67.188787 57.630118 
L 66.23512 58.065562 
L 65.251742 58.652461 
L 63.908809 59.508305 
L 63.682104 60.16495 
L 63.128754 61.042692 
L 64.485218 61.001039 
L 66.615844 60.256672 
L 68.607434 59.233216 
L 69.290643 58.939359 
L 67.923256 60.556392 
L 64.598814 64.873416 
L 59.809526 72.394922 
L 55.274312 81.801706 
L 52.415965 91.163909 
L 52.162555 98.110855 
L 54.765066 100.098918 
L 58.633632 98.386241 
L 63.347126 91.296797 
L 67.40582 81.236967 
L 69.948351 71.588808 
L 71.06246 65.178287 
L 71.406236 61.20593 
L 71.520196 59.880841 
L 71.699664 59.845953 
L 72.011986 60.306862 
L 72.362396 60.653008 
L 72.740483 60.906789 
L 73.015418 60.84094 
L 73.160397 60.540874 
L 73.367486 60.37326 
L 73.547351 60.176735 
L 73.623968 59.877578 
L 73.696518 59.606391 
L 73.56655 59.194877 
L 73.569557 58.937777 
L 73.491996 58.655861 
L 73.46075 58.430685 
L 73.475148 58.244331 
L 73.597196 58.104095 
L 73.894152 58.00065 
L 74.402697 57.901379 
L 74.702513 57.708984 
L 75.610662 57.510195 
" style="fill:none;stroke:#377eb8;stroke-linecap:square;"/>
    <defs>
     <path d="M 0 0.75 
C 0.198902 0.75 0.389685 0.670975 0.53033 0.53033 
C 0.670975 0.389685 0.75 0.198902 0.75 0 
C 0.75 -0.198902 0.670975 -0.389685 0.53033 -0.53033 
C 0.389685 -0.670975 0.198902 -0.75 0 -0.75 
C -0.198902 -0.75 -0.389685 -0.670975 -0.53033 -0.53033 
C -0.670975 -0.389685 -0.75 -0.198902 -0.75 0 
C -0.75 0.198902 -0.670975 0.389685 -0.53033 0.53033 
C -0.389685 0.670975 -0.198902 0.75 0 0.75 
z
" id="m7e823fb096" style="stroke:#377eb8;"/>
    </defs>
    <g clip-path="url(#pcf0c1854dd)">
     <use style="fill:#377eb8;stroke:#377eb8;" x="78.506823" xlink:href="#m7e823fb096" y="57.151434"/>
     <use style="fill:#377eb8;stroke:#377eb8;" x="80.752032" xlink:href="#m7e823fb096" y="56.443327"/>
     <use style="fill:#377eb8;stroke:#377eb8;" x="81.894882" xlink:href="#m7e823fb096" y="55.585154"/>
     <use style="fill:#377eb8;stroke:#377eb8;" x="83.435768" xlink:href="#m7e823fb096" y="54.454293"/>
     <use style="fill:#377eb8;stroke:#377eb8;" x="84.571329" xlink:href="#m7e823fb096" y="53.191069"/>
     <use style="fill:#377eb8;stroke:#377eb8;" x="85.647404" xlink:href="#m7e823fb096" y="51.733349"/>
     <use style="fill:#377eb8;stroke:#377eb8;" x="85.02364" xlink:href="#m7e823fb096" y="50.833223"/>
     <use style="fill:#377eb8;stroke:#377eb8;" x="81.850457" xlink:href="#m7e823fb096" y="51.375601"/>
     <use style="fill:#377eb8;stroke:#377eb8;" x="78.76252" xlink:href="#m7e823fb096" y="52.368196"/>
     <use style="fill:#377eb8;stroke:#377eb8;" x="75.860583" xlink:href="#m7e823fb096" y="53.767446"/>
     <use style="fill:#377eb8;stroke:#377eb8;" x="74.100096" xlink:href="#m7e823fb096" y="54.758516"/>
     <use style="fill:#377eb8;stroke:#377eb8;" x="74.376928" xlink:href="#m7e823fb096" y="54.102647"/>
     <use style="fill:#377eb8;stroke:#377eb8;" x="77.375321" xlink:href="#m7e823fb096" y="50.175807"/>
     <use style="fill:#377eb8;stroke:#377eb8;" x="81.849048" xlink:href="#m7e823fb096" y="43.14816"/>
     <use style="fill:#377eb8;stroke:#377eb8;" x="87.26004" xlink:href="#m7e823fb096" y="32.549505"/>
     <use style="fill:#377eb8;stroke:#377eb8;" x="91.055512" xlink:href="#m7e823fb096" y="21.455644"/>
     <use style="fill:#377eb8;stroke:#377eb8;" x="91.555771" xlink:href="#m7e823fb096" y="13.623108"/>
     <use style="fill:#377eb8;stroke:#377eb8;" x="89.794907" xlink:href="#m7e823fb096" y="8.835898"/>
     <use style="fill:#377eb8;stroke:#377eb8;" x="85.747564" xlink:href="#m7e823fb096" y="9.696426"/>
     <use style="fill:#377eb8;stroke:#377eb8;" x="81.257511" xlink:href="#m7e823fb096" y="13.718501"/>
     <use style="fill:#377eb8;stroke:#377eb8;" x="76.636191" xlink:href="#m7e823fb096" y="22.963859"/>
     <use style="fill:#377eb8;stroke:#377eb8;" x="73.531273" xlink:href="#m7e823fb096" y="30.64869"/>
     <use style="fill:#377eb8;stroke:#377eb8;" x="71.539619" xlink:href="#m7e823fb096" y="37.905775"/>
     <use style="fill:#377eb8;stroke:#377eb8;" x="70.480889" xlink:href="#m7e823fb096" y="43.557083"/>
     <use style="fill:#377eb8;stroke:#377eb8;" x="69.972406" xlink:href="#m7e823fb096" y="47.278455"/>
     <use style="fill:#377eb8;stroke:#377eb8;" x="69.683557" xlink:href="#m7e823fb096" y="49.475052"/>
     <use style="fill:#377eb8;stroke:#377eb8;" x="69.020835" xlink:href="#m7e823fb096" y="49.144015"/>
     <use style="fill:#377eb8;stroke:#377eb8;" x="68.062283" xlink:href="#m7e823fb096" y="48.164294"/>
     <use style="fill:#377eb8;stroke:#377eb8;" x="66.532986" xlink:href="#m7e823fb096" y="46.282019"/>
     <use style="fill:#377eb8;stroke:#377eb8;" x="64.86453" xlink:href="#m7e823fb096" y="44.842594"/>
     <use style="fill:#377eb8;stroke:#377eb8;" x="63.506144" xlink:href="#m7e823fb096" y="44.471791"/>
     <use style="fill:#377eb8;stroke:#377eb8;" x="62.720107" xlink:href="#m7e823fb096" y="45.168519"/>
     <use style="fill:#377eb8;stroke:#377eb8;" x="63.066086" xlink:href="#m7e823fb096" y="47.234162"/>
     <use style="fill:#377eb8;stroke:#377eb8;" x="63.694694" xlink:href="#m7e823fb096" y="49.230032"/>
     <use style="fill:#377eb8;stroke:#377eb8;" x="64.946074" xlink:href="#m7e823fb096" y="51.446486"/>
     <use style="fill:#377eb8;stroke:#377eb8;" x="66.300171" xlink:href="#m7e823fb096" y="53.310537"/>
     <use style="fill:#377eb8;stroke:#377eb8;" x="67.449926" xlink:href="#m7e823fb096" y="54.652542"/>
     <use style="fill:#377eb8;stroke:#377eb8;" x="68.056367" xlink:href="#m7e823fb096" y="55.389528"/>
     <use style="fill:#377eb8;stroke:#377eb8;" x="68.53969" xlink:href="#m7e823fb096" y="55.923303"/>
     <use style="fill:#377eb8;stroke:#377eb8;" x="68.751523" xlink:href="#m7e823fb096" y="56.239476"/>
     <use style="fill:#377eb8;stroke:#377eb8;" x="68.818223" xlink:href="#m7e823fb096" y="56.458689"/>
     <use style="fill:#377eb8;stroke:#377eb8;" x="68.779918" xlink:href="#m7e823fb096" y="56.630353"/>
     <use style="fill:#377eb8;stroke:#377eb8;" x="68.617386" xlink:href="#m7e823fb096" y="56.776814"/>
     <use style="fill:#377eb8;stroke:#377eb8;" x="68.342776" xlink:href="#m7e823fb096" y="56.928006"/>
     <use style="fill:#377eb8;stroke:#377eb8;" x="68.013789" xlink:href="#m7e823fb096" y="57.111843"/>
     <use style="fill:#377eb8;stroke:#377eb8;" x="67.672671" xlink:href="#m7e823fb096" y="57.340381"/>
     <use style="fill:#377eb8;stroke:#377eb8;" x="67.188787" xlink:href="#m7e823fb096" y="57.630118"/>
     <use style="fill:#377eb8;stroke:#377eb8;" x="66.23512" xlink:href="#m7e823fb096" y="58.065562"/>
     <use style="fill:#377eb8;stroke:#377eb8;" x="65.251742" xlink:href="#m7e823fb096" y="58.652461"/>
     <use style="fill:#377eb8;stroke:#377eb8;" x="63.908809" xlink:href="#m7e823fb096" y="59.508305"/>
     <use style="fill:#377eb8;stroke:#377eb8;" x="63.682104" xlink:href="#m7e823fb096" y="60.16495"/>
     <use style="fill:#377eb8;stroke:#377eb8;" x="63.128754" xlink:href="#m7e823fb096" y="61.042692"/>
     <use style="fill:#377eb8;stroke:#377eb8;" x="64.485218" xlink:href="#m7e823fb096" y="61.001039"/>
     <use style="fill:#377eb8;stroke:#377eb8;" x="66.615844" xlink:href="#m7e823fb096" y="60.256672"/>
     <use style="fill:#377eb8;stroke:#377eb8;" x="68.607434" xlink:href="#m7e823fb096" y="59.233216"/>
     <use style="fill:#377eb8;stroke:#377eb8;" x="69.290643" xlink:href="#m7e823fb096" y="58.939359"/>
     <use style="fill:#377eb8;stroke:#377eb8;" x="67.923256" xlink:href="#m7e823fb096" y="60.556392"/>
     <use style="fill:#377eb8;stroke:#377eb8;" x="64.598814" xlink:href="#m7e823fb096" y="64.873416"/>
     <use style="fill:#377eb8;stroke:#377eb8;" x="59.809526" xlink:href="#m7e823fb096" y="72.394922"/>
     <use style="fill:#377eb8;stroke:#377eb8;" x="55.274312" xlink:href="#m7e823fb096" y="81.801706"/>
     <use style="fill:#377eb8;stroke:#377eb8;" x="52.415965" xlink:href="#m7e823fb096" y="91.163909"/>
     <use style="fill:#377eb8;stroke:#377eb8;" x="52.162555" xlink:href="#m7e823fb096" y="98.110855"/>
     <use style="fill:#377eb8;stroke:#377eb8;" x="54.765066" xlink:href="#m7e823fb096" y="100.098918"/>
     <use style="fill:#377eb8;stroke:#377eb8;" x="58.633632" xlink:href="#m7e823fb096" y="98.386241"/>
     <use style="fill:#377eb8;stroke:#377eb8;" x="63.347126" xlink:href="#m7e823fb096" y="91.296797"/>
     <use style="fill:#377eb8;stroke:#377eb8;" x="67.40582" xlink:href="#m7e823fb096" y="81.236967"/>
     <use style="fill:#377eb8;stroke:#377eb8;" x="69.948351" xlink:href="#m7e823fb096" y="71.588808"/>
     <use style="fill:#377eb8;stroke:#377eb8;" x="71.06246" xlink:href="#m7e823fb096" y="65.178287"/>
     <use style="fill:#377eb8;stroke:#377eb8;" x="71.406236" xlink:href="#m7e823fb096" y="61.20593"/>
     <use style="fill:#377eb8;stroke:#377eb8;" x="71.520196" xlink:href="#m7e823fb096" y="59.880841"/>
     <use style="fill:#377eb8;stroke:#377eb8;" x="71.699664" xlink:href="#m7e823fb096" y="59.845953"/>
     <use style="fill:#377eb8;stroke:#377eb8;" x="72.011986" xlink:href="#m7e823fb096" y="60.306862"/>
     <use style="fill:#377eb8;stroke:#377eb8;" x="72.362396" xlink:href="#m7e823fb096" y="60.653008"/>
     <use style="fill:#377eb8;stroke:#377eb8;" x="72.740483" xlink:href="#m7e823fb096" y="60.906789"/>
     <use style="fill:#377eb8;stroke:#377eb8;" x="73.015418" xlink:href="#m7e823fb096" y="60.84094"/>
     <use style="fill:#377eb8;stroke:#377eb8;" x="73.160397" xlink:href="#m7e823fb096" y="60.540874"/>
     <use style="fill:#377eb8;stroke:#377eb8;" x="73.367486" xlink:href="#m7e823fb096" y="60.37326"/>
     <use style="fill:#377eb8;stroke:#377eb8;" x="73.547351" xlink:href="#m7e823fb096" y="60.176735"/>
     <use style="fill:#377eb8;stroke:#377eb8;" x="73.623968" xlink:href="#m7e823fb096" y="59.877578"/>
     <use style="fill:#377eb8;stroke:#377eb8;" x="73.696518" xlink:href="#m7e823fb096" y="59.606391"/>
     <use style="fill:#377eb8;stroke:#377eb8;" x="73.56655" xlink:href="#m7e823fb096" y="59.194877"/>
     <use style="fill:#377eb8;stroke:#377eb8;" x="73.569557" xlink:href="#m7e823fb096" y="58.937777"/>
     <use style="fill:#377eb8;stroke:#377eb8;" x="73.491996" xlink:href="#m7e823fb096" y="58.655861"/>
     <use style="fill:#377eb8;stroke:#377eb8;" x="73.46075" xlink:href="#m7e823fb096" y="58.430685"/>
     <use style="fill:#377eb8;stroke:#377eb8;" x="73.475148" xlink:href="#m7e823fb096" y="58.244331"/>
     <use style="fill:#377eb8;stroke:#377eb8;" x="73.597196" xlink:href="#m7e823fb096" y="58.104095"/>
     <use style="fill:#377eb8;stroke:#377eb8;" x="73.894152" xlink:href="#m7e823fb096" y="58.00065"/>
     <use style="fill:#377eb8;stroke:#377eb8;" x="74.402697" xlink:href="#m7e823fb096" y="57.901379"/>
     <use style="fill:#377eb8;stroke:#377eb8;" x="74.702513" xlink:href="#m7e823fb096" y="57.708984"/>
     <use style="fill:#377eb8;stroke:#377eb8;" x="75.610662" xlink:href="#m7e823fb096" y="57.510195"/>
    </g>
   </g>
  </g>
 </g>
 <defs>
  <clipPath id="pcf0c1854dd">
   <path d="M 125.560625 57.278962 
C 125.560625 50.140473 124.154498 43.071396 121.422716 36.476291 
C 118.690935 29.881186 114.686624 23.888312 109.63895 18.840638 
C 104.591275 13.792963 98.598401 9.788653 92.003296 7.056871 
C 85.408192 4.325089 78.339115 2.918962 71.200625 2.918962 
C 64.062135 2.918962 56.993058 4.325089 50.397954 7.056871 
C 43.802849 9.788653 37.809975 13.792963 32.7623 18.840638 
C 27.714626 23.888312 23.710315 29.881186 20.978534 36.476291 
C 18.246752 43.071396 16.840625 50.140473 16.840625 57.278962 
C 16.840625 64.417452 18.246752 71.486529 20.978534 78.081634 
C 23.710315 84.676738 27.714626 90.669612 32.7623 95.717287 
C 37.809975 100.764961 43.802849 104.769272 50.397954 107.501054 
C 56.993058 110.232835 64.062135 111.638962 71.200625 111.638962 
C 78.339115 111.638962 85.408192 110.232835 92.003296 107.501054 
C 98.598401 104.769272 104.591275 100.764961 109.63895 95.717287 
C 114.686624 90.669612 118.690935 84.676738 121.422716 78.081634 
C 124.154498 71.486529 125.560625 64.417452 125.560625 57.278962 
M 71.200625 57.278962 
C 71.200625 57.278962 71.200625 57.278962 71.200625 57.278962 
C 71.200625 57.278962 71.200625 57.278962 71.200625 57.278962 
C 71.200625 57.278962 71.200625 57.278962 71.200625 57.278962 
C 71.200625 57.278962 71.200625 57.278962 71.200625 57.278962 
C 71.200625 57.278962 71.200625 57.278962 71.200625 57.278962 
C 71.200625 57.278962 71.200625 57.278962 71.200625 57.278962 
C 71.200625 57.278962 71.200625 57.278962 71.200625 57.278962 
C 71.200625 57.278962 71.200625 57.278962 71.200625 57.278962 
C 71.200625 57.278962 71.200625 57.278962 71.200625 57.278962 
C 71.200625 57.278962 71.200625 57.278962 71.200625 57.278962 
C 71.200625 57.278962 71.200625 57.278962 71.200625 57.278962 
C 71.200625 57.278962 71.200625 57.278962 71.200625 57.278962 
C 71.200625 57.278962 71.200625 57.278962 71.200625 57.278962 
C 71.200625 57.278962 71.200625 57.278962 71.200625 57.278962 
C 71.200625 57.278962 71.200625 57.278962 71.200625 57.278962 
C 71.200625 57.278962 71.200625 57.278962 71.200625 57.278962 
M 125.560625 57.278962 
z
"/>
  </clipPath>
 </defs>
</svg>
