<?xml version="1.0" encoding="utf-8" standalone="no"?>
<!DOCTYPE svg PUBLIC "-//W3C//DTD SVG 1.1//EN"
  "http://www.w3.org/Graphics/SVG/1.1/DTD/svg11.dtd">
<!-- Created with matplotlib (https://matplotlib.org/) -->
<svg height="114.557925pt" version="1.1" viewBox="0 0 136.840312 114.557925" width="136.840312pt" xmlns="http://www.w3.org/2000/svg" xmlns:xlink="http://www.w3.org/1999/xlink">
 <defs>
  <style type="text/css">
*{stroke-linecap:butt;stroke-linejoin:round;}
  </style>
 </defs>
 <g id="figure_1">
  <g id="patch_1">
   <path d="M 0 114.557925 
L 136.840312 114.557925 
L 136.840312 0 
L 0 0 
z
" style="fill:none;"/>
  </g>
  <g id="axes_1">
   <g id="patch_2">
    <path d="M 125.560625 57.278962 
C 125.560625 50.140473 124.154498 43.071396 121.422716 36.476291 
C 118.690935 29.881186 114.686624 23.888312 109.63895 18.840638 
C 104.591275 13.792963 98.598401 9.788653 92.003296 7.056871 
C 85.408192 4.325089 78.339115 2.918962 71.200625 2.918962 
C 64.062135 2.918962 56.993058 4.325089 50.397954 7.056871 
C 43.802849 9.788653 37.809975 13.792963 32.7623 18.840638 
C 27.714626 23.888312 23.710315 29.881186 20.978534 36.476291 
C 18.246752 43.071396 16.840625 50.140473 16.840625 57.278962 
C 16.840625 64.417452 18.246752 71.486529 20.978534 78.081634 
C 23.710315 84.676738 27.714626 90.669612 32.7623 95.717287 
C 37.809975 100.764961 43.802849 104.769272 50.397954 107.501054 
C 56.993058 110.232835 64.062135 111.638962 71.200625 111.638962 
C 78.339115 111.638962 85.408192 110.232835 92.003296 107.501054 
C 98.598401 104.769272 104.591275 100.764961 109.63895 95.717287 
C 114.686624 90.669612 118.690935 84.676738 121.422716 78.081634 
C 124.154498 71.486529 125.560625 64.417452 125.560625 57.278962 
M 71.200625 57.278962 
C 71.200625 57.278962 71.200625 57.278962 71.200625 57.278962 
C 71.200625 57.278962 71.200625 57.278962 71.200625 57.278962 
C 71.200625 57.278962 71.200625 57.278962 71.200625 57.278962 
C 71.200625 57.278962 71.200625 57.278962 71.200625 57.278962 
C 71.200625 57.278962 71.200625 57.278962 71.200625 57.278962 
C 71.200625 57.278962 71.200625 57.278962 71.200625 57.278962 
C 71.200625 57.278962 71.200625 57.278962 71.200625 57.278962 
C 71.200625 57.278962 71.200625 57.278962 71.200625 57.278962 
C 71.200625 57.278962 71.200625 57.278962 71.200625 57.278962 
C 71.200625 57.278962 71.200625 57.278962 71.200625 57.278962 
C 71.200625 57.278962 71.200625 57.278962 71.200625 57.278962 
C 71.200625 57.278962 71.200625 57.278962 71.200625 57.278962 
C 71.200625 57.278962 71.200625 57.278962 71.200625 57.278962 
C 71.200625 57.278962 71.200625 57.278962 71.200625 57.278962 
C 71.200625 57.278962 71.200625 57.278962 71.200625 57.278962 
C 71.200625 57.278962 71.200625 57.278962 71.200625 57.278962 
M 125.560625 57.278962 
z
" style="fill:none;"/>
   </g>
   <g id="matplotlib.axis_1">
    <g id="xtick_1">
     <g id="line2d_1">
      <path clip-path="url(#p1e6255c258)" d="M 71.200625 57.278962 
L 125.560625 57.278962 
" style="fill:none;stroke:#b0b0b0;stroke-linecap:square;stroke-width:0.8;"/>
     </g>
     <g id="text_1">
      <text style="font-family:Arial;font-size:10px;font-style:normal;font-weight:normal;text-anchor:middle;" transform="rotate(-0, 132.060625, 59.864119)" x="132.060625" y="59.864119">0°</text>
     </g>
    </g>
    <g id="xtick_2">
     <g id="line2d_2">
      <path clip-path="url(#p1e6255c258)" d="M 71.200625 57.278962 
L 98.380625 10.201821 
" style="fill:none;stroke:#b0b0b0;stroke-linecap:square;stroke-width:0.8;"/>
     </g>
     <g id="text_2">
      <text style="font-family:Arial;font-size:10px;font-style:normal;font-weight:normal;text-anchor:middle;" transform="rotate(-0, 101.630625, 7.157813)" x="101.630625" y="7.157813">60°</text>
     </g>
    </g>
    <g id="xtick_3">
     <g id="line2d_3">
      <path clip-path="url(#p1e6255c258)" d="M 71.200625 57.278962 
L 44.020625 10.201821 
" style="fill:none;stroke:#b0b0b0;stroke-linecap:square;stroke-width:0.8;"/>
     </g>
     <g id="text_3">
      <text style="font-family:Arial;font-size:10px;font-style:normal;font-weight:normal;text-anchor:middle;" transform="rotate(-0, 40.770625, 7.157813)" x="40.770625" y="7.157813">120°</text>
     </g>
    </g>
    <g id="xtick_4">
     <g id="line2d_4">
      <path clip-path="url(#p1e6255c258)" d="M 71.200625 57.278962 
L 16.840625 57.278962 
" style="fill:none;stroke:#b0b0b0;stroke-linecap:square;stroke-width:0.8;"/>
     </g>
     <g id="text_4">
      <text style="font-family:Arial;font-size:10px;font-style:normal;font-weight:normal;text-anchor:middle;" transform="rotate(-0, 10.340625, 59.864119)" x="10.340625" y="59.864119">180°</text>
     </g>
    </g>
    <g id="xtick_5">
     <g id="line2d_5">
      <path clip-path="url(#p1e6255c258)" d="M 71.200625 57.278962 
L 44.020625 104.356103 
" style="fill:none;stroke:#b0b0b0;stroke-linecap:square;stroke-width:0.8;"/>
     </g>
     <g id="text_5">
      <text style="font-family:Arial;font-size:10px;font-style:normal;font-weight:normal;text-anchor:middle;" transform="rotate(-0, 40.770625, 112.570425)" x="40.770625" y="112.570425">240°</text>
     </g>
    </g>
    <g id="xtick_6">
     <g id="line2d_6">
      <path clip-path="url(#p1e6255c258)" d="M 71.200625 57.278962 
L 98.380625 104.356103 
" style="fill:none;stroke:#b0b0b0;stroke-linecap:square;stroke-width:0.8;"/>
     </g>
     <g id="text_6">
      <text style="font-family:Arial;font-size:10px;font-style:normal;font-weight:normal;text-anchor:middle;" transform="rotate(-0, 101.630625, 112.570425)" x="101.630625" y="112.570425">300°</text>
     </g>
    </g>
   </g>
   <g id="matplotlib.axis_2">
    <g id="ytick_1">
     <g id="line2d_7">
      <path clip-path="url(#p1e6255c258)" d="M 98.114767 57.278962 
L 97.967328 54.465668 
L 97.526628 51.683198 
L 96.797495 48.962035 
L 95.787917 46.331995 
L 94.508955 43.821891 
L 92.974623 41.459227 
L 91.20173 39.269886 
L 89.209701 37.277857 
L 87.020361 35.504964 
L 84.657696 33.970632 
L 82.147593 32.69167 
L 79.517552 31.682093 
L 76.79639 30.952959 
L 74.013919 30.512259 
L 71.200625 30.364821 
L 68.387331 30.512259 
L 65.60486 30.952959 
L 62.883698 31.682093 
L 60.253657 32.69167 
L 57.743554 33.970632 
L 55.380889 35.504964 
L 53.191549 37.277857 
L 51.19952 39.269886 
L 49.426627 41.459227 
L 47.892295 43.821891 
L 46.613333 46.331995 
L 45.603755 48.962035 
L 44.874622 51.683198 
L 44.433922 54.465668 
L 44.286483 57.278962 
L 44.433922 60.092256 
L 44.874622 62.874727 
L 45.603755 65.595889 
L 46.613333 68.22593 
L 47.892295 70.736033 
L 49.426627 73.098698 
L 51.19952 75.288038 
L 53.191549 77.280067 
L 55.380889 79.05296 
L 57.743554 80.587293 
L 60.253657 81.866254 
L 62.883698 82.875832 
L 65.60486 83.604965 
L 68.387331 84.045666 
L 71.200625 84.193104 
L 74.013919 84.045666 
L 76.79639 83.604965 
L 79.517552 82.875832 
L 82.147593 81.866254 
L 84.657696 80.587293 
L 87.020361 79.05296 
L 89.209701 77.280067 
L 91.20173 75.288038 
L 92.974623 73.098698 
L 94.508955 70.736033 
L 95.787917 68.22593 
L 96.797495 65.595889 
L 97.526628 62.874727 
L 97.967328 60.092256 
L 98.114767 57.278962 
L 98.114767 57.278962 
" style="fill:none;stroke:#b0b0b0;stroke-linecap:square;stroke-width:0.8;"/>
     </g>
    </g>
    <g id="ytick_2">
     <g id="line2d_8">
      <path clip-path="url(#p1e6255c258)" d="M 123.089716 57.278962 
L 122.963317 53.659362 
L 122.584735 50.057397 
L 121.955815 46.490614 
L 121.079621 42.976391 
L 119.960421 39.531848 
L 118.603668 36.173768 
L 117.015973 32.91851 
L 115.20507 29.781933 
L 113.179781 26.77932 
L 110.949975 23.925298 
L 108.526513 21.233771 
L 105.921204 18.717853 
L 103.146739 16.389801 
L 100.216636 14.260956 
L 97.14517 12.341691 
L 93.947305 10.641356 
L 90.638621 9.168235 
L 87.235236 7.929504 
L 83.753732 6.931199 
L 80.211071 6.178183 
L 76.624512 5.674125 
L 73.011528 5.421481 
L 69.389722 5.421481 
L 65.776738 5.674125 
L 62.190179 6.178183 
L 58.647518 6.931199 
L 55.166014 7.929504 
L 51.762629 9.168235 
L 48.453945 10.641356 
L 45.25608 12.341691 
L 42.184614 14.260956 
L 39.254511 16.389801 
L 36.480046 18.717853 
L 33.874737 21.233771 
L 31.451275 23.925298 
L 29.221469 26.77932 
L 27.19618 29.781933 
L 25.385277 32.91851 
L 23.797582 36.173768 
L 22.440829 39.531848 
L 21.321629 42.976391 
L 20.445435 46.490614 
L 19.816515 50.057397 
L 19.437933 53.659362 
L 19.311534 57.278962 
L 19.437933 60.898562 
L 19.816515 64.500528 
L 20.445435 68.067311 
L 21.321629 71.581534 
L 22.440829 75.026077 
L 23.797582 78.384157 
L 25.385277 81.639415 
L 27.19618 84.775991 
L 29.221469 87.778605 
L 31.451275 90.632627 
L 33.874737 93.324154 
L 36.480046 95.840072 
L 39.254511 98.168124 
L 42.184614 100.296968 
L 45.25608 102.216233 
L 48.453945 103.916568 
L 51.762629 105.38969 
L 55.166014 106.62842 
L 58.647518 107.626725 
L 62.190179 108.379741 
L 65.776738 108.883799 
L 69.389722 109.136444 
L 73.011528 109.136444 
L 76.624512 108.883799 
L 80.211071 108.379741 
L 83.753732 107.626725 
L 87.235236 106.62842 
L 90.638621 105.38969 
L 93.947305 103.916568 
L 97.14517 102.216233 
L 100.216636 100.296968 
L 103.146739 98.168124 
L 105.921204 95.840072 
L 108.526513 93.324154 
L 110.949975 90.632627 
L 113.179781 87.778605 
L 115.20507 84.775991 
L 117.015973 81.639415 
L 118.603668 78.384157 
L 119.960421 75.026077 
L 121.079621 71.581534 
L 121.955815 68.067311 
L 122.584735 64.500528 
L 122.963317 60.898562 
L 123.089716 57.278962 
L 123.089716 57.278962 
" style="fill:none;stroke:#b0b0b0;stroke-linecap:square;stroke-width:0.8;"/>
     </g>
    </g>
   </g>
   <g id="line2d_9">
    <path clip-path="url(#p1e6255c258)" d="M 100.665216 56.764665 
L 100.122666 54.748625 
L 97.592481 53.098893 
L 92.577959 52.343679 
L 86.662065 52.551858 
L 80.673625 53.642609 
L 75.986426 55.04732 
L 73.584442 55.957577 
L 73.533886 55.763721 
L 75.588077 53.972793 
L 79.010588 50.489933 
L 83.284701 45.194842 
L 86.452918 39.733254 
L 88.858409 33.846511 
L 89.486794 29.120588 
L 88.839412 25.454059 
L 85.959685 25.625083 
L 81.98684 29.177996 
L 78.320736 33.989325 
L 75.147797 40.182155 
L 72.948563 46.244112 
L 71.724963 51.287808 
L 71.254306 54.211172 
L 71.051917 54.44382 
L 70.550608 51.98634 
L 69.267847 47.336606 
L 67.045469 41.771973 
L 63.982672 36.315901 
L 60.410389 31.8572 
L 57.03105 29.467183 
L 54.321219 29.183834 
L 52.28902 30.2726 
L 51.741354 33.250005 
L 52.850778 37.601637 
L 55.961615 43.068325 
L 60.357122 48.497811 
L 64.717408 52.7391 
L 68.23163 55.494846 
L 68.998977 56.157295 
L 65.737872 54.960374 
L 58.437835 52.884665 
L 48.431304 51.178105 
L 37.370291 50.702786 
L 27.763197 51.944652 
L 21.627895 54.679336 
L 19.319395 58.182168 
L 21.913559 61.593052 
L 27.614255 64.183603 
L 36.603761 65.266808 
L 46.736946 64.758296 
L 56.880601 62.775711 
L 64.582858 60.364677 
L 68.574152 58.734709 
L 68.704944 58.899849 
L 65.596272 61.502458 
L 60.520603 66.563383 
L 55.704412 72.77546 
L 51.78024 79.61938 
L 49.65562 85.869129 
L 49.81206 90.212277 
L 51.642754 92.558676 
L 55.033276 91.953877 
L 59.133583 88.717517 
L 63.251666 83.280417 
L 66.750313 76.555716 
L 69.267959 69.480595 
L 70.638912 63.697706 
L 71.145351 60.439146 
L 71.360755 60.337289 
L 71.987926 63.689004 
L 73.688722 70.077415 
L 76.878361 78.467575 
L 81.504776 87.204539 
L 87.107833 94.755527 
L 93.050383 100.164482 
L 97.866806 101.663067 
L 100.922526 99.7221 
L 100.675505 93.67498 
L 97.02582 84.972014 
L 90.954637 75.699645 
L 84.009555 67.651576 
L 77.849176 61.934527 
L 74.164153 59.059764 
L 73.503506 58.452473 
L 75.838239 59.247292 
L 80.091142 60.339942 
L 85.988311 61.241088 
L 91.840859 61.290998 
L 96.999903 60.447036 
L 100.543981 58.817531 
" style="fill:none;stroke:#377eb8;stroke-linecap:square;"/>
    <defs>
     <path d="M 0 0.75 
C 0.198902 0.75 0.389685 0.670975 0.53033 0.53033 
C 0.670975 0.389685 0.75 0.198902 0.75 0 
C 0.75 -0.198902 0.670975 -0.389685 0.53033 -0.53033 
C 0.389685 -0.670975 0.198902 -0.75 0 -0.75 
C -0.198902 -0.75 -0.389685 -0.670975 -0.53033 -0.53033 
C -0.670975 -0.389685 -0.75 -0.198902 -0.75 0 
C -0.75 0.198902 -0.670975 0.389685 -0.53033 0.53033 
C -0.389685 0.670975 -0.198902 0.75 0 0.75 
z
" id="m9c26dc95aa" style="stroke:#377eb8;"/>
    </defs>
    <g clip-path="url(#p1e6255c258)">
     <use style="fill:#377eb8;stroke:#377eb8;" x="100.665216" xlink:href="#m9c26dc95aa" y="56.764665"/>
     <use style="fill:#377eb8;stroke:#377eb8;" x="100.122666" xlink:href="#m9c26dc95aa" y="54.748625"/>
     <use style="fill:#377eb8;stroke:#377eb8;" x="97.592481" xlink:href="#m9c26dc95aa" y="53.098893"/>
     <use style="fill:#377eb8;stroke:#377eb8;" x="92.577959" xlink:href="#m9c26dc95aa" y="52.343679"/>
     <use style="fill:#377eb8;stroke:#377eb8;" x="86.662065" xlink:href="#m9c26dc95aa" y="52.551858"/>
     <use style="fill:#377eb8;stroke:#377eb8;" x="80.673625" xlink:href="#m9c26dc95aa" y="53.642609"/>
     <use style="fill:#377eb8;stroke:#377eb8;" x="75.986426" xlink:href="#m9c26dc95aa" y="55.04732"/>
     <use style="fill:#377eb8;stroke:#377eb8;" x="73.584442" xlink:href="#m9c26dc95aa" y="55.957577"/>
     <use style="fill:#377eb8;stroke:#377eb8;" x="73.533886" xlink:href="#m9c26dc95aa" y="55.763721"/>
     <use style="fill:#377eb8;stroke:#377eb8;" x="75.588077" xlink:href="#m9c26dc95aa" y="53.972793"/>
     <use style="fill:#377eb8;stroke:#377eb8;" x="79.010588" xlink:href="#m9c26dc95aa" y="50.489933"/>
     <use style="fill:#377eb8;stroke:#377eb8;" x="83.284701" xlink:href="#m9c26dc95aa" y="45.194842"/>
     <use style="fill:#377eb8;stroke:#377eb8;" x="86.452918" xlink:href="#m9c26dc95aa" y="39.733254"/>
     <use style="fill:#377eb8;stroke:#377eb8;" x="88.858409" xlink:href="#m9c26dc95aa" y="33.846511"/>
     <use style="fill:#377eb8;stroke:#377eb8;" x="89.486794" xlink:href="#m9c26dc95aa" y="29.120588"/>
     <use style="fill:#377eb8;stroke:#377eb8;" x="88.839412" xlink:href="#m9c26dc95aa" y="25.454059"/>
     <use style="fill:#377eb8;stroke:#377eb8;" x="85.959685" xlink:href="#m9c26dc95aa" y="25.625083"/>
     <use style="fill:#377eb8;stroke:#377eb8;" x="81.98684" xlink:href="#m9c26dc95aa" y="29.177996"/>
     <use style="fill:#377eb8;stroke:#377eb8;" x="78.320736" xlink:href="#m9c26dc95aa" y="33.989325"/>
     <use style="fill:#377eb8;stroke:#377eb8;" x="75.147797" xlink:href="#m9c26dc95aa" y="40.182155"/>
     <use style="fill:#377eb8;stroke:#377eb8;" x="72.948563" xlink:href="#m9c26dc95aa" y="46.244112"/>
     <use style="fill:#377eb8;stroke:#377eb8;" x="71.724963" xlink:href="#m9c26dc95aa" y="51.287808"/>
     <use style="fill:#377eb8;stroke:#377eb8;" x="71.254306" xlink:href="#m9c26dc95aa" y="54.211172"/>
     <use style="fill:#377eb8;stroke:#377eb8;" x="71.051917" xlink:href="#m9c26dc95aa" y="54.44382"/>
     <use style="fill:#377eb8;stroke:#377eb8;" x="70.550608" xlink:href="#m9c26dc95aa" y="51.98634"/>
     <use style="fill:#377eb8;stroke:#377eb8;" x="69.267847" xlink:href="#m9c26dc95aa" y="47.336606"/>
     <use style="fill:#377eb8;stroke:#377eb8;" x="67.045469" xlink:href="#m9c26dc95aa" y="41.771973"/>
     <use style="fill:#377eb8;stroke:#377eb8;" x="63.982672" xlink:href="#m9c26dc95aa" y="36.315901"/>
     <use style="fill:#377eb8;stroke:#377eb8;" x="60.410389" xlink:href="#m9c26dc95aa" y="31.8572"/>
     <use style="fill:#377eb8;stroke:#377eb8;" x="57.03105" xlink:href="#m9c26dc95aa" y="29.467183"/>
     <use style="fill:#377eb8;stroke:#377eb8;" x="54.321219" xlink:href="#m9c26dc95aa" y="29.183834"/>
     <use style="fill:#377eb8;stroke:#377eb8;" x="52.28902" xlink:href="#m9c26dc95aa" y="30.2726"/>
     <use style="fill:#377eb8;stroke:#377eb8;" x="51.741354" xlink:href="#m9c26dc95aa" y="33.250005"/>
     <use style="fill:#377eb8;stroke:#377eb8;" x="52.850778" xlink:href="#m9c26dc95aa" y="37.601637"/>
     <use style="fill:#377eb8;stroke:#377eb8;" x="55.961615" xlink:href="#m9c26dc95aa" y="43.068325"/>
     <use style="fill:#377eb8;stroke:#377eb8;" x="60.357122" xlink:href="#m9c26dc95aa" y="48.497811"/>
     <use style="fill:#377eb8;stroke:#377eb8;" x="64.717408" xlink:href="#m9c26dc95aa" y="52.7391"/>
     <use style="fill:#377eb8;stroke:#377eb8;" x="68.23163" xlink:href="#m9c26dc95aa" y="55.494846"/>
     <use style="fill:#377eb8;stroke:#377eb8;" x="68.998977" xlink:href="#m9c26dc95aa" y="56.157295"/>
     <use style="fill:#377eb8;stroke:#377eb8;" x="65.737872" xlink:href="#m9c26dc95aa" y="54.960374"/>
     <use style="fill:#377eb8;stroke:#377eb8;" x="58.437835" xlink:href="#m9c26dc95aa" y="52.884665"/>
     <use style="fill:#377eb8;stroke:#377eb8;" x="48.431304" xlink:href="#m9c26dc95aa" y="51.178105"/>
     <use style="fill:#377eb8;stroke:#377eb8;" x="37.370291" xlink:href="#m9c26dc95aa" y="50.702786"/>
     <use style="fill:#377eb8;stroke:#377eb8;" x="27.763197" xlink:href="#m9c26dc95aa" y="51.944652"/>
     <use style="fill:#377eb8;stroke:#377eb8;" x="21.627895" xlink:href="#m9c26dc95aa" y="54.679336"/>
     <use style="fill:#377eb8;stroke:#377eb8;" x="19.319395" xlink:href="#m9c26dc95aa" y="58.182168"/>
     <use style="fill:#377eb8;stroke:#377eb8;" x="21.913559" xlink:href="#m9c26dc95aa" y="61.593052"/>
     <use style="fill:#377eb8;stroke:#377eb8;" x="27.614255" xlink:href="#m9c26dc95aa" y="64.183603"/>
     <use style="fill:#377eb8;stroke:#377eb8;" x="36.603761" xlink:href="#m9c26dc95aa" y="65.266808"/>
     <use style="fill:#377eb8;stroke:#377eb8;" x="46.736946" xlink:href="#m9c26dc95aa" y="64.758296"/>
     <use style="fill:#377eb8;stroke:#377eb8;" x="56.880601" xlink:href="#m9c26dc95aa" y="62.775711"/>
     <use style="fill:#377eb8;stroke:#377eb8;" x="64.582858" xlink:href="#m9c26dc95aa" y="60.364677"/>
     <use style="fill:#377eb8;stroke:#377eb8;" x="68.574152" xlink:href="#m9c26dc95aa" y="58.734709"/>
     <use style="fill:#377eb8;stroke:#377eb8;" x="68.704944" xlink:href="#m9c26dc95aa" y="58.899849"/>
     <use style="fill:#377eb8;stroke:#377eb8;" x="65.596272" xlink:href="#m9c26dc95aa" y="61.502458"/>
     <use style="fill:#377eb8;stroke:#377eb8;" x="60.520603" xlink:href="#m9c26dc95aa" y="66.563383"/>
     <use style="fill:#377eb8;stroke:#377eb8;" x="55.704412" xlink:href="#m9c26dc95aa" y="72.77546"/>
     <use style="fill:#377eb8;stroke:#377eb8;" x="51.78024" xlink:href="#m9c26dc95aa" y="79.61938"/>
     <use style="fill:#377eb8;stroke:#377eb8;" x="49.65562" xlink:href="#m9c26dc95aa" y="85.869129"/>
     <use style="fill:#377eb8;stroke:#377eb8;" x="49.81206" xlink:href="#m9c26dc95aa" y="90.212277"/>
     <use style="fill:#377eb8;stroke:#377eb8;" x="51.642754" xlink:href="#m9c26dc95aa" y="92.558676"/>
     <use style="fill:#377eb8;stroke:#377eb8;" x="55.033276" xlink:href="#m9c26dc95aa" y="91.953877"/>
     <use style="fill:#377eb8;stroke:#377eb8;" x="59.133583" xlink:href="#m9c26dc95aa" y="88.717517"/>
     <use style="fill:#377eb8;stroke:#377eb8;" x="63.251666" xlink:href="#m9c26dc95aa" y="83.280417"/>
     <use style="fill:#377eb8;stroke:#377eb8;" x="66.750313" xlink:href="#m9c26dc95aa" y="76.555716"/>
     <use style="fill:#377eb8;stroke:#377eb8;" x="69.267959" xlink:href="#m9c26dc95aa" y="69.480595"/>
     <use style="fill:#377eb8;stroke:#377eb8;" x="70.638912" xlink:href="#m9c26dc95aa" y="63.697706"/>
     <use style="fill:#377eb8;stroke:#377eb8;" x="71.145351" xlink:href="#m9c26dc95aa" y="60.439146"/>
     <use style="fill:#377eb8;stroke:#377eb8;" x="71.360755" xlink:href="#m9c26dc95aa" y="60.337289"/>
     <use style="fill:#377eb8;stroke:#377eb8;" x="71.987926" xlink:href="#m9c26dc95aa" y="63.689004"/>
     <use style="fill:#377eb8;stroke:#377eb8;" x="73.688722" xlink:href="#m9c26dc95aa" y="70.077415"/>
     <use style="fill:#377eb8;stroke:#377eb8;" x="76.878361" xlink:href="#m9c26dc95aa" y="78.467575"/>
     <use style="fill:#377eb8;stroke:#377eb8;" x="81.504776" xlink:href="#m9c26dc95aa" y="87.204539"/>
     <use style="fill:#377eb8;stroke:#377eb8;" x="87.107833" xlink:href="#m9c26dc95aa" y="94.755527"/>
     <use style="fill:#377eb8;stroke:#377eb8;" x="93.050383" xlink:href="#m9c26dc95aa" y="100.164482"/>
     <use style="fill:#377eb8;stroke:#377eb8;" x="97.866806" xlink:href="#m9c26dc95aa" y="101.663067"/>
     <use style="fill:#377eb8;stroke:#377eb8;" x="100.922526" xlink:href="#m9c26dc95aa" y="99.7221"/>
     <use style="fill:#377eb8;stroke:#377eb8;" x="100.675505" xlink:href="#m9c26dc95aa" y="93.67498"/>
     <use style="fill:#377eb8;stroke:#377eb8;" x="97.02582" xlink:href="#m9c26dc95aa" y="84.972014"/>
     <use style="fill:#377eb8;stroke:#377eb8;" x="90.954637" xlink:href="#m9c26dc95aa" y="75.699645"/>
     <use style="fill:#377eb8;stroke:#377eb8;" x="84.009555" xlink:href="#m9c26dc95aa" y="67.651576"/>
     <use style="fill:#377eb8;stroke:#377eb8;" x="77.849176" xlink:href="#m9c26dc95aa" y="61.934527"/>
     <use style="fill:#377eb8;stroke:#377eb8;" x="74.164153" xlink:href="#m9c26dc95aa" y="59.059764"/>
     <use style="fill:#377eb8;stroke:#377eb8;" x="73.503506" xlink:href="#m9c26dc95aa" y="58.452473"/>
     <use style="fill:#377eb8;stroke:#377eb8;" x="75.838239" xlink:href="#m9c26dc95aa" y="59.247292"/>
     <use style="fill:#377eb8;stroke:#377eb8;" x="80.091142" xlink:href="#m9c26dc95aa" y="60.339942"/>
     <use style="fill:#377eb8;stroke:#377eb8;" x="85.988311" xlink:href="#m9c26dc95aa" y="61.241088"/>
     <use style="fill:#377eb8;stroke:#377eb8;" x="91.840859" xlink:href="#m9c26dc95aa" y="61.290998"/>
     <use style="fill:#377eb8;stroke:#377eb8;" x="96.999903" xlink:href="#m9c26dc95aa" y="60.447036"/>
     <use style="fill:#377eb8;stroke:#377eb8;" x="100.543981" xlink:href="#m9c26dc95aa" y="58.817531"/>
    </g>
   </g>
  </g>
 </g>
 <defs>
  <clipPath id="p1e6255c258">
   <path d="M 125.560625 57.278962 
C 125.560625 50.140473 124.154498 43.071396 121.422716 36.476291 
C 118.690935 29.881186 114.686624 23.888312 109.63895 18.840638 
C 104.591275 13.792963 98.598401 9.788653 92.003296 7.056871 
C 85.408192 4.325089 78.339115 2.918962 71.200625 2.918962 
C 64.062135 2.918962 56.993058 4.325089 50.397954 7.056871 
C 43.802849 9.788653 37.809975 13.792963 32.7623 18.840638 
C 27.714626 23.888312 23.710315 29.881186 20.978534 36.476291 
C 18.246752 43.071396 16.840625 50.140473 16.840625 57.278962 
C 16.840625 64.417452 18.246752 71.486529 20.978534 78.081634 
C 23.710315 84.676738 27.714626 90.669612 32.7623 95.717287 
C 37.809975 100.764961 43.802849 104.769272 50.397954 107.501054 
C 56.993058 110.232835 64.062135 111.638962 71.200625 111.638962 
C 78.339115 111.638962 85.408192 110.232835 92.003296 107.501054 
C 98.598401 104.769272 104.591275 100.764961 109.63895 95.717287 
C 114.686624 90.669612 118.690935 84.676738 121.422716 78.081634 
C 124.154498 71.486529 125.560625 64.417452 125.560625 57.278962 
M 71.200625 57.278962 
C 71.200625 57.278962 71.200625 57.278962 71.200625 57.278962 
C 71.200625 57.278962 71.200625 57.278962 71.200625 57.278962 
C 71.200625 57.278962 71.200625 57.278962 71.200625 57.278962 
C 71.200625 57.278962 71.200625 57.278962 71.200625 57.278962 
C 71.200625 57.278962 71.200625 57.278962 71.200625 57.278962 
C 71.200625 57.278962 71.200625 57.278962 71.200625 57.278962 
C 71.200625 57.278962 71.200625 57.278962 71.200625 57.278962 
C 71.200625 57.278962 71.200625 57.278962 71.200625 57.278962 
C 71.200625 57.278962 71.200625 57.278962 71.200625 57.278962 
C 71.200625 57.278962 71.200625 57.278962 71.200625 57.278962 
C 71.200625 57.278962 71.200625 57.278962 71.200625 57.278962 
C 71.200625 57.278962 71.200625 57.278962 71.200625 57.278962 
C 71.200625 57.278962 71.200625 57.278962 71.200625 57.278962 
C 71.200625 57.278962 71.200625 57.278962 71.200625 57.278962 
C 71.200625 57.278962 71.200625 57.278962 71.200625 57.278962 
C 71.200625 57.278962 71.200625 57.278962 71.200625 57.278962 
M 125.560625 57.278962 
z
"/>
  </clipPath>
 </defs>
</svg>
