<?xml version="1.0" encoding="utf-8" standalone="no"?>
<!DOCTYPE svg PUBLIC "-//W3C//DTD SVG 1.1//EN"
  "http://www.w3.org/Graphics/SVG/1.1/DTD/svg11.dtd">
<!-- Created with matplotlib (https://matplotlib.org/) -->
<svg height="114.557925pt" version="1.1" viewBox="0 0 136.840312 114.557925" width="136.840312pt" xmlns="http://www.w3.org/2000/svg" xmlns:xlink="http://www.w3.org/1999/xlink">
 <defs>
  <style type="text/css">
*{stroke-linecap:butt;stroke-linejoin:round;}
  </style>
 </defs>
 <g id="figure_1">
  <g id="patch_1">
   <path d="M 0 114.557925 
L 136.840312 114.557925 
L 136.840312 0 
L 0 0 
z
" style="fill:none;"/>
  </g>
  <g id="axes_1">
   <g id="patch_2">
    <path d="M 125.560625 57.278962 
C 125.560625 50.140473 124.154498 43.071396 121.422716 36.476291 
C 118.690935 29.881186 114.686624 23.888312 109.63895 18.840638 
C 104.591275 13.792963 98.598401 9.788653 92.003296 7.056871 
C 85.408192 4.325089 78.339115 2.918962 71.200625 2.918962 
C 64.062135 2.918962 56.993058 4.325089 50.397954 7.056871 
C 43.802849 9.788653 37.809975 13.792963 32.7623 18.840638 
C 27.714626 23.888312 23.710315 29.881186 20.978534 36.476291 
C 18.246752 43.071396 16.840625 50.140473 16.840625 57.278962 
C 16.840625 64.417452 18.246752 71.486529 20.978534 78.081634 
C 23.710315 84.676738 27.714626 90.669612 32.7623 95.717287 
C 37.809975 100.764961 43.802849 104.769272 50.397954 107.501054 
C 56.993058 110.232835 64.062135 111.638962 71.200625 111.638962 
C 78.339115 111.638962 85.408192 110.232835 92.003296 107.501054 
C 98.598401 104.769272 104.591275 100.764961 109.63895 95.717287 
C 114.686624 90.669612 118.690935 84.676738 121.422716 78.081634 
C 124.154498 71.486529 125.560625 64.417452 125.560625 57.278962 
M 71.200625 57.278962 
C 71.200625 57.278962 71.200625 57.278962 71.200625 57.278962 
C 71.200625 57.278962 71.200625 57.278962 71.200625 57.278962 
C 71.200625 57.278962 71.200625 57.278962 71.200625 57.278962 
C 71.200625 57.278962 71.200625 57.278962 71.200625 57.278962 
C 71.200625 57.278962 71.200625 57.278962 71.200625 57.278962 
C 71.200625 57.278962 71.200625 57.278962 71.200625 57.278962 
C 71.200625 57.278962 71.200625 57.278962 71.200625 57.278962 
C 71.200625 57.278962 71.200625 57.278962 71.200625 57.278962 
C 71.200625 57.278962 71.200625 57.278962 71.200625 57.278962 
C 71.200625 57.278962 71.200625 57.278962 71.200625 57.278962 
C 71.200625 57.278962 71.200625 57.278962 71.200625 57.278962 
C 71.200625 57.278962 71.200625 57.278962 71.200625 57.278962 
C 71.200625 57.278962 71.200625 57.278962 71.200625 57.278962 
C 71.200625 57.278962 71.200625 57.278962 71.200625 57.278962 
C 71.200625 57.278962 71.200625 57.278962 71.200625 57.278962 
C 71.200625 57.278962 71.200625 57.278962 71.200625 57.278962 
M 125.560625 57.278962 
z
" style="fill:none;"/>
   </g>
   <g id="matplotlib.axis_1">
    <g id="xtick_1">
     <g id="line2d_1">
      <path clip-path="url(#p7f69c2de3e)" d="M 71.200625 57.278962 
L 125.560625 57.278962 
" style="fill:none;stroke:#b0b0b0;stroke-linecap:square;stroke-width:0.8;"/>
     </g>
     <g id="text_1">
      <text style="font-family:Arial;font-size:10px;font-style:normal;font-weight:normal;text-anchor:middle;" transform="rotate(-0, 132.060625, 59.864119)" x="132.060625" y="59.864119">0°</text>
     </g>
    </g>
    <g id="xtick_2">
     <g id="line2d_2">
      <path clip-path="url(#p7f69c2de3e)" d="M 71.200625 57.278962 
L 98.380625 10.201821 
" style="fill:none;stroke:#b0b0b0;stroke-linecap:square;stroke-width:0.8;"/>
     </g>
     <g id="text_2">
      <text style="font-family:Arial;font-size:10px;font-style:normal;font-weight:normal;text-anchor:middle;" transform="rotate(-0, 101.630625, 7.157813)" x="101.630625" y="7.157813">60°</text>
     </g>
    </g>
    <g id="xtick_3">
     <g id="line2d_3">
      <path clip-path="url(#p7f69c2de3e)" d="M 71.200625 57.278962 
L 44.020625 10.201821 
" style="fill:none;stroke:#b0b0b0;stroke-linecap:square;stroke-width:0.8;"/>
     </g>
     <g id="text_3">
      <text style="font-family:Arial;font-size:10px;font-style:normal;font-weight:normal;text-anchor:middle;" transform="rotate(-0, 40.770625, 7.157813)" x="40.770625" y="7.157813">120°</text>
     </g>
    </g>
    <g id="xtick_4">
     <g id="line2d_4">
      <path clip-path="url(#p7f69c2de3e)" d="M 71.200625 57.278962 
L 16.840625 57.278962 
" style="fill:none;stroke:#b0b0b0;stroke-linecap:square;stroke-width:0.8;"/>
     </g>
     <g id="text_4">
      <text style="font-family:Arial;font-size:10px;font-style:normal;font-weight:normal;text-anchor:middle;" transform="rotate(-0, 10.340625, 59.864119)" x="10.340625" y="59.864119">180°</text>
     </g>
    </g>
    <g id="xtick_5">
     <g id="line2d_5">
      <path clip-path="url(#p7f69c2de3e)" d="M 71.200625 57.278962 
L 44.020625 104.356103 
" style="fill:none;stroke:#b0b0b0;stroke-linecap:square;stroke-width:0.8;"/>
     </g>
     <g id="text_5">
      <text style="font-family:Arial;font-size:10px;font-style:normal;font-weight:normal;text-anchor:middle;" transform="rotate(-0, 40.770625, 112.570425)" x="40.770625" y="112.570425">240°</text>
     </g>
    </g>
    <g id="xtick_6">
     <g id="line2d_6">
      <path clip-path="url(#p7f69c2de3e)" d="M 71.200625 57.278962 
L 98.380625 104.356103 
" style="fill:none;stroke:#b0b0b0;stroke-linecap:square;stroke-width:0.8;"/>
     </g>
     <g id="text_6">
      <text style="font-family:Arial;font-size:10px;font-style:normal;font-weight:normal;text-anchor:middle;" transform="rotate(-0, 101.630625, 112.570425)" x="101.630625" y="112.570425">300°</text>
     </g>
    </g>
   </g>
   <g id="matplotlib.axis_2">
    <g id="ytick_1">
     <g id="line2d_7">
      <path clip-path="url(#p7f69c2de3e)" d="M 98.376764 57.278962 
L 98.22789 54.438282 
L 97.7829 51.628725 
L 97.046669 48.881074 
L 96.027263 46.225431 
L 94.735852 43.690893 
L 93.186583 41.305229 
L 91.396432 39.094576 
L 89.385011 37.083155 
L 87.174359 35.293004 
L 84.788694 33.743736 
L 82.254156 32.452324 
L 79.598514 31.432918 
L 76.850862 30.696687 
L 74.041305 30.251697 
L 71.200625 30.102823 
L 68.359945 30.251697 
L 65.550388 30.696687 
L 62.802736 31.432918 
L 60.147094 32.452324 
L 57.612556 33.743736 
L 55.226891 35.293004 
L 53.016239 37.083155 
L 51.004818 39.094576 
L 49.214667 41.305229 
L 47.665398 43.690893 
L 46.373987 46.225431 
L 45.354581 48.881074 
L 44.61835 51.628725 
L 44.17336 54.438282 
L 44.024486 57.278962 
L 44.17336 60.119642 
L 44.61835 62.929199 
L 45.354581 65.676851 
L 46.373987 68.332494 
L 47.665398 70.867032 
L 49.214667 73.252696 
L 51.004818 75.463349 
L 53.016239 77.474769 
L 55.226891 79.26492 
L 57.612556 80.814189 
L 60.147094 82.105601 
L 62.802736 83.125006 
L 65.550388 83.861237 
L 68.359945 84.306227 
L 71.200625 84.455101 
L 74.041305 84.306227 
L 76.850862 83.861237 
L 79.598514 83.125006 
L 82.254156 82.105601 
L 84.788694 80.814189 
L 87.174359 79.26492 
L 89.385011 77.474769 
L 91.396432 75.463349 
L 93.186583 73.252696 
L 94.735852 70.867032 
L 96.027263 68.332494 
L 97.046669 65.676851 
L 97.7829 62.929199 
L 98.22789 60.119642 
L 98.376764 57.278962 
L 98.376764 57.278962 
" style="fill:none;stroke:#b0b0b0;stroke-linecap:square;stroke-width:0.8;"/>
     </g>
    </g>
    <g id="ytick_2">
     <g id="line2d_8">
      <path clip-path="url(#p7f69c2de3e)" d="M 123.089716 57.278962 
L 122.963317 53.659362 
L 122.584735 50.057397 
L 121.955815 46.490614 
L 121.079621 42.976391 
L 119.960421 39.531848 
L 118.603668 36.173768 
L 117.015973 32.91851 
L 115.20507 29.781933 
L 113.179781 26.77932 
L 110.949975 23.925298 
L 108.526513 21.233771 
L 105.921204 18.717853 
L 103.146739 16.389801 
L 100.216636 14.260956 
L 97.14517 12.341691 
L 93.947305 10.641356 
L 90.638621 9.168235 
L 87.235236 7.929504 
L 83.753732 6.931199 
L 80.211071 6.178183 
L 76.624512 5.674125 
L 73.011528 5.421481 
L 69.389722 5.421481 
L 65.776738 5.674125 
L 62.190179 6.178183 
L 58.647518 6.931199 
L 55.166014 7.929504 
L 51.762629 9.168235 
L 48.453945 10.641356 
L 45.25608 12.341691 
L 42.184614 14.260956 
L 39.254511 16.389801 
L 36.480046 18.717853 
L 33.874737 21.233771 
L 31.451275 23.925298 
L 29.221469 26.77932 
L 27.19618 29.781933 
L 25.385277 32.91851 
L 23.797582 36.173768 
L 22.440829 39.531848 
L 21.321629 42.976391 
L 20.445435 46.490614 
L 19.816515 50.057397 
L 19.437933 53.659362 
L 19.311534 57.278962 
L 19.437933 60.898562 
L 19.816515 64.500528 
L 20.445435 68.067311 
L 21.321629 71.581534 
L 22.440829 75.026077 
L 23.797582 78.384157 
L 25.385277 81.639415 
L 27.19618 84.775991 
L 29.221469 87.778605 
L 31.451275 90.632627 
L 33.874737 93.324154 
L 36.480046 95.840072 
L 39.254511 98.168124 
L 42.184614 100.296968 
L 45.25608 102.216233 
L 48.453945 103.916568 
L 51.762629 105.38969 
L 55.166014 106.62842 
L 58.647518 107.626725 
L 62.190179 108.379741 
L 65.776738 108.883799 
L 69.389722 109.136444 
L 73.011528 109.136444 
L 76.624512 108.883799 
L 80.211071 108.379741 
L 83.753732 107.626725 
L 87.235236 106.62842 
L 90.638621 105.38969 
L 93.947305 103.916568 
L 97.14517 102.216233 
L 100.216636 100.296968 
L 103.146739 98.168124 
L 105.921204 95.840072 
L 108.526513 93.324154 
L 110.949975 90.632627 
L 113.179781 87.778605 
L 115.20507 84.775991 
L 117.015973 81.639415 
L 118.603668 78.384157 
L 119.960421 75.026077 
L 121.079621 71.581534 
L 121.955815 68.067311 
L 122.584735 64.500528 
L 122.963317 60.898562 
L 123.089716 57.278962 
L 123.089716 57.278962 
" style="fill:none;stroke:#b0b0b0;stroke-linecap:square;stroke-width:0.8;"/>
     </g>
    </g>
   </g>
   <g id="line2d_9">
    <path clip-path="url(#p7f69c2de3e)" d="M 77.209601 57.174077 
L 83.301114 56.220312 
L 92.690817 53.875242 
L 102.223111 50.116949 
L 110.888418 45.145012 
L 117.066621 39.672611 
L 118.228163 35.349794 
L 115.335719 32.81422 
L 109.827103 32.194561 
L 101.241648 34.641514 
L 90.970354 40.093572 
L 81.929578 46.54997 
L 75.878385 51.897829 
L 73.324328 54.460739 
L 73.517046 53.711969 
L 74.955064 50.504989 
L 75.966671 47.057183 
L 74.88687 47.675311 
L 74.19452 47.486035 
L 72.989337 49.531324 
L 72.253853 50.629859 
L 71.640997 52.247217 
L 71.272989 53.143441 
L 71.009781 53.640487 
L 70.813537 54.12718 
L 70.658221 54.488797 
L 70.526446 54.762934 
L 70.382608 54.9032 
L 70.158449 54.823599 
L 69.832397 54.59343 
L 69.38666 54.259687 
L 68.811707 53.867513 
L 68.149842 53.511753 
L 67.610637 53.429265 
L 67.110288 53.464654 
L 66.871396 53.773119 
L 66.726377 54.145877 
L 66.913816 54.702951 
L 67.370835 55.32781 
L 67.889279 55.873509 
L 68.404716 56.316316 
L 68.753261 56.623211 
L 68.757877 56.804124 
L 68.398804 56.934886 
L 67.754298 57.098235 
L 67.00703 57.351969 
L 66.384299 57.700535 
L 66.060765 58.093182 
L 66.145044 58.446213 
L 66.364538 58.75751 
L 66.988578 58.895759 
L 67.480576 59.013536 
L 68.014549 59.044874 
L 68.497583 59.034526 
L 68.904622 59.009252 
L 69.213402 59.006507 
L 69.429623 59.049997 
L 69.579555 59.143775 
L 69.706857 59.261189 
L 69.814472 59.413309 
L 69.975348 59.489195 
L 70.129409 59.576452 
L 70.277977 59.68276 
L 70.432038 59.793049 
L 70.599196 59.884082 
L 70.773086 59.978172 
L 70.956503 60.068567 
L 71.150399 60.150526 
L 71.353669 60.201953 
L 71.548998 60.115343 
L 71.725782 59.980302 
L 71.876937 59.802877 
L 72.012692 59.637389 
L 72.169204 59.560886 
L 72.377331 59.588537 
L 72.616499 59.635591 
L 72.944687 59.769499 
L 73.313777 59.888314 
L 73.808325 60.075269 
L 74.275881 60.146648 
L 74.82116 60.210855 
L 75.448089 60.253196 
L 76.066927 60.203152 
L 76.325561 59.890547 
L 75.679357 59.179858 
L 75.617036 58.79952 
L 75.014678 58.300877 
L 74.260253 57.873691 
L 73.696247 57.585417 
L 74.001848 57.42584 
" style="fill:none;stroke:#377eb8;stroke-linecap:square;"/>
    <defs>
     <path d="M 0 0.75 
C 0.198902 0.75 0.389685 0.670975 0.53033 0.53033 
C 0.670975 0.389685 0.75 0.198902 0.75 0 
C 0.75 -0.198902 0.670975 -0.389685 0.53033 -0.53033 
C 0.389685 -0.670975 0.198902 -0.75 0 -0.75 
C -0.198902 -0.75 -0.389685 -0.670975 -0.53033 -0.53033 
C -0.670975 -0.389685 -0.75 -0.198902 -0.75 0 
C -0.75 0.198902 -0.670975 0.389685 -0.53033 0.53033 
C -0.389685 0.670975 -0.198902 0.75 0 0.75 
z
" id="m8c1a368d7a" style="stroke:#377eb8;"/>
    </defs>
    <g clip-path="url(#p7f69c2de3e)">
     <use style="fill:#377eb8;stroke:#377eb8;" x="77.209601" xlink:href="#m8c1a368d7a" y="57.174077"/>
     <use style="fill:#377eb8;stroke:#377eb8;" x="83.301114" xlink:href="#m8c1a368d7a" y="56.220312"/>
     <use style="fill:#377eb8;stroke:#377eb8;" x="92.690817" xlink:href="#m8c1a368d7a" y="53.875242"/>
     <use style="fill:#377eb8;stroke:#377eb8;" x="102.223111" xlink:href="#m8c1a368d7a" y="50.116949"/>
     <use style="fill:#377eb8;stroke:#377eb8;" x="110.888418" xlink:href="#m8c1a368d7a" y="45.145012"/>
     <use style="fill:#377eb8;stroke:#377eb8;" x="117.066621" xlink:href="#m8c1a368d7a" y="39.672611"/>
     <use style="fill:#377eb8;stroke:#377eb8;" x="118.228163" xlink:href="#m8c1a368d7a" y="35.349794"/>
     <use style="fill:#377eb8;stroke:#377eb8;" x="115.335719" xlink:href="#m8c1a368d7a" y="32.81422"/>
     <use style="fill:#377eb8;stroke:#377eb8;" x="109.827103" xlink:href="#m8c1a368d7a" y="32.194561"/>
     <use style="fill:#377eb8;stroke:#377eb8;" x="101.241648" xlink:href="#m8c1a368d7a" y="34.641514"/>
     <use style="fill:#377eb8;stroke:#377eb8;" x="90.970354" xlink:href="#m8c1a368d7a" y="40.093572"/>
     <use style="fill:#377eb8;stroke:#377eb8;" x="81.929578" xlink:href="#m8c1a368d7a" y="46.54997"/>
     <use style="fill:#377eb8;stroke:#377eb8;" x="75.878385" xlink:href="#m8c1a368d7a" y="51.897829"/>
     <use style="fill:#377eb8;stroke:#377eb8;" x="73.324328" xlink:href="#m8c1a368d7a" y="54.460739"/>
     <use style="fill:#377eb8;stroke:#377eb8;" x="73.517046" xlink:href="#m8c1a368d7a" y="53.711969"/>
     <use style="fill:#377eb8;stroke:#377eb8;" x="74.955064" xlink:href="#m8c1a368d7a" y="50.504989"/>
     <use style="fill:#377eb8;stroke:#377eb8;" x="75.966671" xlink:href="#m8c1a368d7a" y="47.057183"/>
     <use style="fill:#377eb8;stroke:#377eb8;" x="74.88687" xlink:href="#m8c1a368d7a" y="47.675311"/>
     <use style="fill:#377eb8;stroke:#377eb8;" x="74.19452" xlink:href="#m8c1a368d7a" y="47.486035"/>
     <use style="fill:#377eb8;stroke:#377eb8;" x="72.989337" xlink:href="#m8c1a368d7a" y="49.531324"/>
     <use style="fill:#377eb8;stroke:#377eb8;" x="72.253853" xlink:href="#m8c1a368d7a" y="50.629859"/>
     <use style="fill:#377eb8;stroke:#377eb8;" x="71.640997" xlink:href="#m8c1a368d7a" y="52.247217"/>
     <use style="fill:#377eb8;stroke:#377eb8;" x="71.272989" xlink:href="#m8c1a368d7a" y="53.143441"/>
     <use style="fill:#377eb8;stroke:#377eb8;" x="71.009781" xlink:href="#m8c1a368d7a" y="53.640487"/>
     <use style="fill:#377eb8;stroke:#377eb8;" x="70.813537" xlink:href="#m8c1a368d7a" y="54.12718"/>
     <use style="fill:#377eb8;stroke:#377eb8;" x="70.658221" xlink:href="#m8c1a368d7a" y="54.488797"/>
     <use style="fill:#377eb8;stroke:#377eb8;" x="70.526446" xlink:href="#m8c1a368d7a" y="54.762934"/>
     <use style="fill:#377eb8;stroke:#377eb8;" x="70.382608" xlink:href="#m8c1a368d7a" y="54.9032"/>
     <use style="fill:#377eb8;stroke:#377eb8;" x="70.158449" xlink:href="#m8c1a368d7a" y="54.823599"/>
     <use style="fill:#377eb8;stroke:#377eb8;" x="69.832397" xlink:href="#m8c1a368d7a" y="54.59343"/>
     <use style="fill:#377eb8;stroke:#377eb8;" x="69.38666" xlink:href="#m8c1a368d7a" y="54.259687"/>
     <use style="fill:#377eb8;stroke:#377eb8;" x="68.811707" xlink:href="#m8c1a368d7a" y="53.867513"/>
     <use style="fill:#377eb8;stroke:#377eb8;" x="68.149842" xlink:href="#m8c1a368d7a" y="53.511753"/>
     <use style="fill:#377eb8;stroke:#377eb8;" x="67.610637" xlink:href="#m8c1a368d7a" y="53.429265"/>
     <use style="fill:#377eb8;stroke:#377eb8;" x="67.110288" xlink:href="#m8c1a368d7a" y="53.464654"/>
     <use style="fill:#377eb8;stroke:#377eb8;" x="66.871396" xlink:href="#m8c1a368d7a" y="53.773119"/>
     <use style="fill:#377eb8;stroke:#377eb8;" x="66.726377" xlink:href="#m8c1a368d7a" y="54.145877"/>
     <use style="fill:#377eb8;stroke:#377eb8;" x="66.913816" xlink:href="#m8c1a368d7a" y="54.702951"/>
     <use style="fill:#377eb8;stroke:#377eb8;" x="67.370835" xlink:href="#m8c1a368d7a" y="55.32781"/>
     <use style="fill:#377eb8;stroke:#377eb8;" x="67.889279" xlink:href="#m8c1a368d7a" y="55.873509"/>
     <use style="fill:#377eb8;stroke:#377eb8;" x="68.404716" xlink:href="#m8c1a368d7a" y="56.316316"/>
     <use style="fill:#377eb8;stroke:#377eb8;" x="68.753261" xlink:href="#m8c1a368d7a" y="56.623211"/>
     <use style="fill:#377eb8;stroke:#377eb8;" x="68.757877" xlink:href="#m8c1a368d7a" y="56.804124"/>
     <use style="fill:#377eb8;stroke:#377eb8;" x="68.398804" xlink:href="#m8c1a368d7a" y="56.934886"/>
     <use style="fill:#377eb8;stroke:#377eb8;" x="67.754298" xlink:href="#m8c1a368d7a" y="57.098235"/>
     <use style="fill:#377eb8;stroke:#377eb8;" x="67.00703" xlink:href="#m8c1a368d7a" y="57.351969"/>
     <use style="fill:#377eb8;stroke:#377eb8;" x="66.384299" xlink:href="#m8c1a368d7a" y="57.700535"/>
     <use style="fill:#377eb8;stroke:#377eb8;" x="66.060765" xlink:href="#m8c1a368d7a" y="58.093182"/>
     <use style="fill:#377eb8;stroke:#377eb8;" x="66.145044" xlink:href="#m8c1a368d7a" y="58.446213"/>
     <use style="fill:#377eb8;stroke:#377eb8;" x="66.364538" xlink:href="#m8c1a368d7a" y="58.75751"/>
     <use style="fill:#377eb8;stroke:#377eb8;" x="66.988578" xlink:href="#m8c1a368d7a" y="58.895759"/>
     <use style="fill:#377eb8;stroke:#377eb8;" x="67.480576" xlink:href="#m8c1a368d7a" y="59.013536"/>
     <use style="fill:#377eb8;stroke:#377eb8;" x="68.014549" xlink:href="#m8c1a368d7a" y="59.044874"/>
     <use style="fill:#377eb8;stroke:#377eb8;" x="68.497583" xlink:href="#m8c1a368d7a" y="59.034526"/>
     <use style="fill:#377eb8;stroke:#377eb8;" x="68.904622" xlink:href="#m8c1a368d7a" y="59.009252"/>
     <use style="fill:#377eb8;stroke:#377eb8;" x="69.213402" xlink:href="#m8c1a368d7a" y="59.006507"/>
     <use style="fill:#377eb8;stroke:#377eb8;" x="69.429623" xlink:href="#m8c1a368d7a" y="59.049997"/>
     <use style="fill:#377eb8;stroke:#377eb8;" x="69.579555" xlink:href="#m8c1a368d7a" y="59.143775"/>
     <use style="fill:#377eb8;stroke:#377eb8;" x="69.706857" xlink:href="#m8c1a368d7a" y="59.261189"/>
     <use style="fill:#377eb8;stroke:#377eb8;" x="69.814472" xlink:href="#m8c1a368d7a" y="59.413309"/>
     <use style="fill:#377eb8;stroke:#377eb8;" x="69.975348" xlink:href="#m8c1a368d7a" y="59.489195"/>
     <use style="fill:#377eb8;stroke:#377eb8;" x="70.129409" xlink:href="#m8c1a368d7a" y="59.576452"/>
     <use style="fill:#377eb8;stroke:#377eb8;" x="70.277977" xlink:href="#m8c1a368d7a" y="59.68276"/>
     <use style="fill:#377eb8;stroke:#377eb8;" x="70.432038" xlink:href="#m8c1a368d7a" y="59.793049"/>
     <use style="fill:#377eb8;stroke:#377eb8;" x="70.599196" xlink:href="#m8c1a368d7a" y="59.884082"/>
     <use style="fill:#377eb8;stroke:#377eb8;" x="70.773086" xlink:href="#m8c1a368d7a" y="59.978172"/>
     <use style="fill:#377eb8;stroke:#377eb8;" x="70.956503" xlink:href="#m8c1a368d7a" y="60.068567"/>
     <use style="fill:#377eb8;stroke:#377eb8;" x="71.150399" xlink:href="#m8c1a368d7a" y="60.150526"/>
     <use style="fill:#377eb8;stroke:#377eb8;" x="71.353669" xlink:href="#m8c1a368d7a" y="60.201953"/>
     <use style="fill:#377eb8;stroke:#377eb8;" x="71.548998" xlink:href="#m8c1a368d7a" y="60.115343"/>
     <use style="fill:#377eb8;stroke:#377eb8;" x="71.725782" xlink:href="#m8c1a368d7a" y="59.980302"/>
     <use style="fill:#377eb8;stroke:#377eb8;" x="71.876937" xlink:href="#m8c1a368d7a" y="59.802877"/>
     <use style="fill:#377eb8;stroke:#377eb8;" x="72.012692" xlink:href="#m8c1a368d7a" y="59.637389"/>
     <use style="fill:#377eb8;stroke:#377eb8;" x="72.169204" xlink:href="#m8c1a368d7a" y="59.560886"/>
     <use style="fill:#377eb8;stroke:#377eb8;" x="72.377331" xlink:href="#m8c1a368d7a" y="59.588537"/>
     <use style="fill:#377eb8;stroke:#377eb8;" x="72.616499" xlink:href="#m8c1a368d7a" y="59.635591"/>
     <use style="fill:#377eb8;stroke:#377eb8;" x="72.944687" xlink:href="#m8c1a368d7a" y="59.769499"/>
     <use style="fill:#377eb8;stroke:#377eb8;" x="73.313777" xlink:href="#m8c1a368d7a" y="59.888314"/>
     <use style="fill:#377eb8;stroke:#377eb8;" x="73.808325" xlink:href="#m8c1a368d7a" y="60.075269"/>
     <use style="fill:#377eb8;stroke:#377eb8;" x="74.275881" xlink:href="#m8c1a368d7a" y="60.146648"/>
     <use style="fill:#377eb8;stroke:#377eb8;" x="74.82116" xlink:href="#m8c1a368d7a" y="60.210855"/>
     <use style="fill:#377eb8;stroke:#377eb8;" x="75.448089" xlink:href="#m8c1a368d7a" y="60.253196"/>
     <use style="fill:#377eb8;stroke:#377eb8;" x="76.066927" xlink:href="#m8c1a368d7a" y="60.203152"/>
     <use style="fill:#377eb8;stroke:#377eb8;" x="76.325561" xlink:href="#m8c1a368d7a" y="59.890547"/>
     <use style="fill:#377eb8;stroke:#377eb8;" x="75.679357" xlink:href="#m8c1a368d7a" y="59.179858"/>
     <use style="fill:#377eb8;stroke:#377eb8;" x="75.617036" xlink:href="#m8c1a368d7a" y="58.79952"/>
     <use style="fill:#377eb8;stroke:#377eb8;" x="75.014678" xlink:href="#m8c1a368d7a" y="58.300877"/>
     <use style="fill:#377eb8;stroke:#377eb8;" x="74.260253" xlink:href="#m8c1a368d7a" y="57.873691"/>
     <use style="fill:#377eb8;stroke:#377eb8;" x="73.696247" xlink:href="#m8c1a368d7a" y="57.585417"/>
     <use style="fill:#377eb8;stroke:#377eb8;" x="74.001848" xlink:href="#m8c1a368d7a" y="57.42584"/>
    </g>
   </g>
  </g>
 </g>
 <defs>
  <clipPath id="p7f69c2de3e">
   <path d="M 125.560625 57.278962 
C 125.560625 50.140473 124.154498 43.071396 121.422716 36.476291 
C 118.690935 29.881186 114.686624 23.888312 109.63895 18.840638 
C 104.591275 13.792963 98.598401 9.788653 92.003296 7.056871 
C 85.408192 4.325089 78.339115 2.918962 71.200625 2.918962 
C 64.062135 2.918962 56.993058 4.325089 50.397954 7.056871 
C 43.802849 9.788653 37.809975 13.792963 32.7623 18.840638 
C 27.714626 23.888312 23.710315 29.881186 20.978534 36.476291 
C 18.246752 43.071396 16.840625 50.140473 16.840625 57.278962 
C 16.840625 64.417452 18.246752 71.486529 20.978534 78.081634 
C 23.710315 84.676738 27.714626 90.669612 32.7623 95.717287 
C 37.809975 100.764961 43.802849 104.769272 50.397954 107.501054 
C 56.993058 110.232835 64.062135 111.638962 71.200625 111.638962 
C 78.339115 111.638962 85.408192 110.232835 92.003296 107.501054 
C 98.598401 104.769272 104.591275 100.764961 109.63895 95.717287 
C 114.686624 90.669612 118.690935 84.676738 121.422716 78.081634 
C 124.154498 71.486529 125.560625 64.417452 125.560625 57.278962 
M 71.200625 57.278962 
C 71.200625 57.278962 71.200625 57.278962 71.200625 57.278962 
C 71.200625 57.278962 71.200625 57.278962 71.200625 57.278962 
C 71.200625 57.278962 71.200625 57.278962 71.200625 57.278962 
C 71.200625 57.278962 71.200625 57.278962 71.200625 57.278962 
C 71.200625 57.278962 71.200625 57.278962 71.200625 57.278962 
C 71.200625 57.278962 71.200625 57.278962 71.200625 57.278962 
C 71.200625 57.278962 71.200625 57.278962 71.200625 57.278962 
C 71.200625 57.278962 71.200625 57.278962 71.200625 57.278962 
C 71.200625 57.278962 71.200625 57.278962 71.200625 57.278962 
C 71.200625 57.278962 71.200625 57.278962 71.200625 57.278962 
C 71.200625 57.278962 71.200625 57.278962 71.200625 57.278962 
C 71.200625 57.278962 71.200625 57.278962 71.200625 57.278962 
C 71.200625 57.278962 71.200625 57.278962 71.200625 57.278962 
C 71.200625 57.278962 71.200625 57.278962 71.200625 57.278962 
C 71.200625 57.278962 71.200625 57.278962 71.200625 57.278962 
C 71.200625 57.278962 71.200625 57.278962 71.200625 57.278962 
M 125.560625 57.278962 
z
"/>
  </clipPath>
 </defs>
</svg>
