<?xml version="1.0" encoding="utf-8" standalone="no"?>
<!DOCTYPE svg PUBLIC "-//W3C//DTD SVG 1.1//EN"
  "http://www.w3.org/Graphics/SVG/1.1/DTD/svg11.dtd">
<!-- Created with matplotlib (https://matplotlib.org/) -->
<svg height="114.557925pt" version="1.1" viewBox="0 0 136.840312 114.557925" width="136.840312pt" xmlns="http://www.w3.org/2000/svg" xmlns:xlink="http://www.w3.org/1999/xlink">
 <metadata>
  <rdf:RDF xmlns:cc="http://creativecommons.org/ns#" xmlns:dc="http://purl.org/dc/elements/1.1/" xmlns:rdf="http://www.w3.org/1999/02/22-rdf-syntax-ns#">
   <cc:Work>
    <dc:type rdf:resource="http://purl.org/dc/dcmitype/StillImage"/>
    <dc:date>2020-12-07T22:43:30.703958</dc:date>
    <dc:format>image/svg+xml</dc:format>
    <dc:creator>
     <cc:Agent>
      <dc:title>Matplotlib v3.3.0, https://matplotlib.org/</dc:title>
     </cc:Agent>
    </dc:creator>
   </cc:Work>
  </rdf:RDF>
 </metadata>
 <defs>
  <style type="text/css">*{stroke-linecap:butt;stroke-linejoin:round;}</style>
 </defs>
 <g id="figure_1">
  <g id="patch_1">
   <path d="M 0 114.557925 
L 136.840312 114.557925 
L 136.840312 0 
L 0 0 
z
" style="fill:none;"/>
  </g>
  <g id="axes_1">
   <g id="patch_2">
    <path d="M 125.560625 57.278962 
C 125.560625 50.140473 124.154498 43.071396 121.422716 36.476291 
C 118.690935 29.881186 114.686624 23.888312 109.63895 18.840638 
C 104.591275 13.792963 98.598401 9.788653 92.003296 7.056871 
C 85.408192 4.325089 78.339115 2.918962 71.200625 2.918962 
C 64.062135 2.918962 56.993058 4.325089 50.397954 7.056871 
C 43.802849 9.788653 37.809975 13.792963 32.7623 18.840638 
C 27.714626 23.888312 23.710315 29.881186 20.978534 36.476291 
C 18.246752 43.071396 16.840625 50.140473 16.840625 57.278962 
C 16.840625 64.417452 18.246752 71.486529 20.978534 78.081634 
C 23.710315 84.676738 27.714626 90.669612 32.7623 95.717287 
C 37.809975 100.764961 43.802849 104.769272 50.397954 107.501054 
C 56.993058 110.232835 64.062135 111.638962 71.200625 111.638962 
C 78.339115 111.638962 85.408192 110.232835 92.003296 107.501054 
C 98.598401 104.769272 104.591275 100.764961 109.63895 95.717287 
C 114.686624 90.669612 118.690935 84.676738 121.422716 78.081634 
C 124.154498 71.486529 125.560625 64.417452 125.560625 57.278962 
M 71.200625 57.278962 
C 71.200625 57.278962 71.200625 57.278962 71.200625 57.278962 
C 71.200625 57.278962 71.200625 57.278962 71.200625 57.278962 
C 71.200625 57.278962 71.200625 57.278962 71.200625 57.278962 
C 71.200625 57.278962 71.200625 57.278962 71.200625 57.278962 
C 71.200625 57.278962 71.200625 57.278962 71.200625 57.278962 
C 71.200625 57.278962 71.200625 57.278962 71.200625 57.278962 
C 71.200625 57.278962 71.200625 57.278962 71.200625 57.278962 
C 71.200625 57.278962 71.200625 57.278962 71.200625 57.278962 
C 71.200625 57.278962 71.200625 57.278962 71.200625 57.278962 
C 71.200625 57.278962 71.200625 57.278962 71.200625 57.278962 
C 71.200625 57.278962 71.200625 57.278962 71.200625 57.278962 
C 71.200625 57.278962 71.200625 57.278962 71.200625 57.278962 
C 71.200625 57.278962 71.200625 57.278962 71.200625 57.278962 
C 71.200625 57.278962 71.200625 57.278962 71.200625 57.278962 
C 71.200625 57.278962 71.200625 57.278962 71.200625 57.278962 
C 71.200625 57.278962 71.200625 57.278962 71.200625 57.278962 
M 125.560625 57.278962 
z
" style="fill:none;"/>
   </g>
   <g id="matplotlib.axis_1">
    <g id="xtick_1">
     <g id="line2d_1">
      <path clip-path="url(#p137d9f7fa1)" d="M 71.200625 57.278962 
L 125.560625 57.278962 
" style="fill:none;stroke:#b0b0b0;stroke-linecap:square;stroke-width:0.8;"/>
     </g>
     <g id="text_1">
      <!-- 0° -->
      <g transform="translate(127.280938 59.864119)scale(0.1 -0.1)">
       <defs>
        <path d="M 4.15625 35.296875 
Q 4.15625 48 6.765625 55.734375 
Q 9.375 63.484375 14.515625 67.671875 
Q 19.671875 71.875 27.484375 71.875 
Q 33.25 71.875 37.59375 69.546875 
Q 41.9375 67.234375 44.765625 62.859375 
Q 47.609375 58.5 49.21875 52.21875 
Q 50.828125 45.953125 50.828125 35.296875 
Q 50.828125 22.703125 48.234375 14.96875 
Q 45.65625 7.234375 40.5 3 
Q 35.359375 -1.21875 27.484375 -1.21875 
Q 17.140625 -1.21875 11.234375 6.203125 
Q 4.15625 15.140625 4.15625 35.296875 
z
M 13.1875 35.296875 
Q 13.1875 17.671875 17.3125 11.828125 
Q 21.4375 6 27.484375 6 
Q 33.546875 6 37.671875 11.859375 
Q 41.796875 17.71875 41.796875 35.296875 
Q 41.796875 52.984375 37.671875 58.78125 
Q 33.546875 64.59375 27.390625 64.59375 
Q 21.34375 64.59375 17.71875 59.46875 
Q 13.1875 52.9375 13.1875 35.296875 
z
" id="ArialMT-48"/>
        <path d="M 6.25 59.28125 
Q 6.25 64.890625 10.21875 68.84375 
Q 14.203125 72.796875 19.78125 72.796875 
Q 25.4375 72.796875 29.390625 68.84375 
Q 33.34375 64.890625 33.34375 59.28125 
Q 33.34375 53.65625 29.359375 49.671875 
Q 25.390625 45.703125 19.78125 45.703125 
Q 14.203125 45.703125 10.21875 49.65625 
Q 6.25 53.609375 6.25 59.28125 
z
M 11.578125 59.28125 
Q 11.578125 55.859375 13.984375 53.4375 
Q 16.40625 51.03125 19.828125 51.03125 
Q 23.1875 51.03125 25.609375 53.4375 
Q 28.03125 55.859375 28.03125 59.28125 
Q 28.03125 62.703125 25.609375 65.109375 
Q 23.1875 67.53125 19.828125 67.53125 
Q 16.40625 67.53125 13.984375 65.109375 
Q 11.578125 62.703125 11.578125 59.28125 
z
" id="ArialMT-176"/>
       </defs>
       <use xlink:href="#ArialMT-48"/>
       <use x="55.615234" xlink:href="#ArialMT-176"/>
      </g>
     </g>
    </g>
    <g id="xtick_2">
     <g id="line2d_2">
      <path clip-path="url(#p137d9f7fa1)" d="M 71.200625 57.278962 
L 98.380625 10.201821 
" style="fill:none;stroke:#b0b0b0;stroke-linecap:square;stroke-width:0.8;"/>
     </g>
     <g id="text_2">
      <!-- 60° -->
      <g transform="translate(94.070469 7.157812)scale(0.1 -0.1)">
       <defs>
        <path d="M 49.75 54.046875 
L 41.015625 53.375 
Q 39.84375 58.546875 37.703125 60.890625 
Q 34.125 64.65625 28.90625 64.65625 
Q 24.703125 64.65625 21.53125 62.3125 
Q 17.390625 59.28125 14.984375 53.46875 
Q 12.59375 47.65625 12.5 36.921875 
Q 15.671875 41.75 20.265625 44.09375 
Q 24.859375 46.4375 29.890625 46.4375 
Q 38.671875 46.4375 44.84375 39.96875 
Q 51.03125 33.5 51.03125 23.25 
Q 51.03125 16.5 48.125 10.71875 
Q 45.21875 4.9375 40.140625 1.859375 
Q 35.0625 -1.21875 28.609375 -1.21875 
Q 17.625 -1.21875 10.6875 6.859375 
Q 3.765625 14.9375 3.765625 33.5 
Q 3.765625 54.25 11.421875 63.671875 
Q 18.109375 71.875 29.4375 71.875 
Q 37.890625 71.875 43.28125 67.140625 
Q 48.6875 62.40625 49.75 54.046875 
z
M 13.875 23.1875 
Q 13.875 18.65625 15.796875 14.5 
Q 17.71875 10.359375 21.1875 8.171875 
Q 24.65625 6 28.46875 6 
Q 34.03125 6 38.03125 10.484375 
Q 42.046875 14.984375 42.046875 22.703125 
Q 42.046875 30.125 38.078125 34.390625 
Q 34.125 38.671875 28.125 38.671875 
Q 22.171875 38.671875 18.015625 34.390625 
Q 13.875 30.125 13.875 23.1875 
z
" id="ArialMT-54"/>
       </defs>
       <use xlink:href="#ArialMT-54"/>
       <use x="55.615234" xlink:href="#ArialMT-48"/>
       <use x="111.230469" xlink:href="#ArialMT-176"/>
      </g>
     </g>
    </g>
    <g id="xtick_3">
     <g id="line2d_3">
      <path clip-path="url(#p137d9f7fa1)" d="M 71.200625 57.278962 
L 44.020625 10.201821 
" style="fill:none;stroke:#b0b0b0;stroke-linecap:square;stroke-width:0.8;"/>
     </g>
     <g id="text_3">
      <!-- 120° -->
      <g transform="translate(30.43 7.157812)scale(0.1 -0.1)">
       <defs>
        <path d="M 37.25 0 
L 28.46875 0 
L 28.46875 56 
Q 25.296875 52.984375 20.140625 49.953125 
Q 14.984375 46.921875 10.890625 45.40625 
L 10.890625 53.90625 
Q 18.265625 57.375 23.78125 62.296875 
Q 29.296875 67.234375 31.59375 71.875 
L 37.25 71.875 
z
" id="ArialMT-49"/>
        <path d="M 50.34375 8.453125 
L 50.34375 0 
L 3.03125 0 
Q 2.9375 3.171875 4.046875 6.109375 
Q 5.859375 10.9375 9.828125 15.625 
Q 13.8125 20.3125 21.34375 26.46875 
Q 33.015625 36.03125 37.109375 41.625 
Q 41.21875 47.21875 41.21875 52.203125 
Q 41.21875 57.421875 37.46875 61 
Q 33.734375 64.59375 27.734375 64.59375 
Q 21.390625 64.59375 17.578125 60.78125 
Q 13.765625 56.984375 13.71875 50.25 
L 4.6875 51.171875 
Q 5.609375 61.28125 11.65625 66.578125 
Q 17.71875 71.875 27.9375 71.875 
Q 38.234375 71.875 44.234375 66.15625 
Q 50.25 60.453125 50.25 52 
Q 50.25 47.703125 48.484375 43.546875 
Q 46.734375 39.40625 42.65625 34.8125 
Q 38.578125 30.21875 29.109375 22.21875 
Q 21.1875 15.578125 18.9375 13.203125 
Q 16.703125 10.84375 15.234375 8.453125 
z
" id="ArialMT-50"/>
       </defs>
       <use xlink:href="#ArialMT-49"/>
       <use x="55.615234" xlink:href="#ArialMT-50"/>
       <use x="111.230469" xlink:href="#ArialMT-48"/>
       <use x="166.845703" xlink:href="#ArialMT-176"/>
      </g>
     </g>
    </g>
    <g id="xtick_4">
     <g id="line2d_4">
      <path clip-path="url(#p137d9f7fa1)" d="M 71.200625 57.278962 
L 16.840625 57.278962 
" style="fill:none;stroke:#b0b0b0;stroke-linecap:square;stroke-width:0.8;"/>
     </g>
     <g id="text_4">
      <!-- 180° -->
      <g transform="translate(0 59.864119)scale(0.1 -0.1)">
       <defs>
        <path d="M 17.671875 38.8125 
Q 12.203125 40.828125 9.5625 44.53125 
Q 6.9375 48.25 6.9375 53.421875 
Q 6.9375 61.234375 12.546875 66.546875 
Q 18.171875 71.875 27.484375 71.875 
Q 36.859375 71.875 42.578125 66.421875 
Q 48.296875 60.984375 48.296875 53.171875 
Q 48.296875 48.1875 45.671875 44.5 
Q 43.0625 40.828125 37.75 38.8125 
Q 44.34375 36.671875 47.78125 31.875 
Q 51.21875 27.09375 51.21875 20.453125 
Q 51.21875 11.28125 44.71875 5.03125 
Q 38.234375 -1.21875 27.640625 -1.21875 
Q 17.046875 -1.21875 10.546875 5.046875 
Q 4.046875 11.328125 4.046875 20.703125 
Q 4.046875 27.6875 7.59375 32.390625 
Q 11.140625 37.109375 17.671875 38.8125 
z
M 15.921875 53.71875 
Q 15.921875 48.640625 19.1875 45.40625 
Q 22.46875 42.1875 27.6875 42.1875 
Q 32.765625 42.1875 36.015625 45.375 
Q 39.265625 48.578125 39.265625 53.21875 
Q 39.265625 58.0625 35.90625 61.359375 
Q 32.5625 64.65625 27.59375 64.65625 
Q 22.5625 64.65625 19.234375 61.421875 
Q 15.921875 58.203125 15.921875 53.71875 
z
M 13.09375 20.65625 
Q 13.09375 16.890625 14.875 13.375 
Q 16.65625 9.859375 20.171875 7.921875 
Q 23.6875 6 27.734375 6 
Q 34.03125 6 38.125 10.046875 
Q 42.234375 14.109375 42.234375 20.359375 
Q 42.234375 26.703125 38.015625 30.859375 
Q 33.796875 35.015625 27.4375 35.015625 
Q 21.234375 35.015625 17.15625 30.90625 
Q 13.09375 26.8125 13.09375 20.65625 
z
" id="ArialMT-56"/>
       </defs>
       <use xlink:href="#ArialMT-49"/>
       <use x="55.615234" xlink:href="#ArialMT-56"/>
       <use x="111.230469" xlink:href="#ArialMT-48"/>
       <use x="166.845703" xlink:href="#ArialMT-176"/>
      </g>
     </g>
    </g>
    <g id="xtick_5">
     <g id="line2d_5">
      <path clip-path="url(#p137d9f7fa1)" d="M 71.200625 57.278962 
L 44.020625 104.356103 
" style="fill:none;stroke:#b0b0b0;stroke-linecap:square;stroke-width:0.8;"/>
     </g>
     <g id="text_5">
      <!-- 240° -->
      <g transform="translate(30.43 112.570425)scale(0.1 -0.1)">
       <defs>
        <path d="M 32.328125 0 
L 32.328125 17.140625 
L 1.265625 17.140625 
L 1.265625 25.203125 
L 33.9375 71.578125 
L 41.109375 71.578125 
L 41.109375 25.203125 
L 50.78125 25.203125 
L 50.78125 17.140625 
L 41.109375 17.140625 
L 41.109375 0 
z
M 32.328125 25.203125 
L 32.328125 57.46875 
L 9.90625 25.203125 
z
" id="ArialMT-52"/>
       </defs>
       <use xlink:href="#ArialMT-50"/>
       <use x="55.615234" xlink:href="#ArialMT-52"/>
       <use x="111.230469" xlink:href="#ArialMT-48"/>
       <use x="166.845703" xlink:href="#ArialMT-176"/>
      </g>
     </g>
    </g>
    <g id="xtick_6">
     <g id="line2d_6">
      <path clip-path="url(#p137d9f7fa1)" d="M 71.200625 57.278962 
L 98.380625 104.356103 
" style="fill:none;stroke:#b0b0b0;stroke-linecap:square;stroke-width:0.8;"/>
     </g>
     <g id="text_6">
      <!-- 300° -->
      <g transform="translate(91.29 112.570425)scale(0.1 -0.1)">
       <defs>
        <path d="M 4.203125 18.890625 
L 12.984375 20.0625 
Q 14.5 12.59375 18.140625 9.296875 
Q 21.78125 6 27 6 
Q 33.203125 6 37.46875 10.296875 
Q 41.75 14.59375 41.75 20.953125 
Q 41.75 27 37.796875 30.921875 
Q 33.84375 34.859375 27.734375 34.859375 
Q 25.25 34.859375 21.53125 33.890625 
L 22.515625 41.609375 
Q 23.390625 41.5 23.921875 41.5 
Q 29.546875 41.5 34.03125 44.421875 
Q 38.53125 47.359375 38.53125 53.46875 
Q 38.53125 58.296875 35.25 61.46875 
Q 31.984375 64.65625 26.8125 64.65625 
Q 21.6875 64.65625 18.265625 61.421875 
Q 14.84375 58.203125 13.875 51.765625 
L 5.078125 53.328125 
Q 6.6875 62.15625 12.390625 67.015625 
Q 18.109375 71.875 26.609375 71.875 
Q 32.46875 71.875 37.390625 69.359375 
Q 42.328125 66.84375 44.9375 62.5 
Q 47.5625 58.15625 47.5625 53.265625 
Q 47.5625 48.640625 45.0625 44.828125 
Q 42.578125 41.015625 37.703125 38.765625 
Q 44.046875 37.3125 47.5625 32.6875 
Q 51.078125 28.078125 51.078125 21.140625 
Q 51.078125 11.765625 44.234375 5.25 
Q 37.40625 -1.265625 26.953125 -1.265625 
Q 17.53125 -1.265625 11.296875 4.34375 
Q 5.078125 9.96875 4.203125 18.890625 
z
" id="ArialMT-51"/>
       </defs>
       <use xlink:href="#ArialMT-51"/>
       <use x="55.615234" xlink:href="#ArialMT-48"/>
       <use x="111.230469" xlink:href="#ArialMT-48"/>
       <use x="166.845703" xlink:href="#ArialMT-176"/>
      </g>
     </g>
    </g>
   </g>
   <g id="matplotlib.axis_2">
    <g id="ytick_1">
     <g id="line2d_7">
      <path clip-path="url(#p137d9f7fa1)" d="M 97.086602 57.278962 
C 97.086602 53.879647 96.417011 50.513386 95.116149 47.372828 
C 93.815288 44.23227 91.908454 41.378491 89.504775 38.974812 
C 87.101096 36.571133 84.247317 34.6643 81.10676 33.363438 
C 77.966202 32.062576 74.59994 31.392985 71.200625 31.392985 
C 67.80131 31.392985 64.435048 32.062576 61.29449 33.363438 
C 58.153933 34.6643 55.300154 36.571133 52.896475 38.974812 
C 50.492796 41.378491 48.585962 44.23227 47.285101 47.372828 
C 45.984239 50.513386 45.314648 53.879647 45.314648 57.278962 
C 45.314648 60.678278 45.984239 64.044539 47.285101 67.185097 
C 48.585962 70.325655 50.492796 73.179433 52.896475 75.583112 
C 55.300154 77.986791 58.153933 79.893625 61.29449 81.194487 
C 64.435048 82.495348 67.80131 83.164939 71.200625 83.164939 
C 74.59994 83.164939 77.966202 82.495348 81.10676 81.194487 
C 84.247317 79.893625 87.101096 77.986791 89.504775 75.583112 
C 91.908454 73.179433 93.815288 70.325655 95.116149 67.185097 
C 96.417011 64.044539 97.086602 60.678278 97.086602 57.278962 
" style="fill:none;stroke:#b0b0b0;stroke-linecap:square;stroke-width:0.8;"/>
     </g>
    </g>
    <g id="ytick_2">
     <g id="line2d_8">
      <path clip-path="url(#p137d9f7fa1)" d="M 122.972579 57.278962 
C 122.972579 50.480332 121.633397 43.747809 119.031674 37.466693 
C 116.42995 31.185577 112.616283 25.47802 107.808925 20.670663 
C 103.001567 15.863305 97.29401 12.049637 91.012894 9.447914 
C 84.731778 6.84619 77.999256 5.507008 71.200625 5.507008 
C 64.401994 5.507008 57.669472 6.84619 51.388356 9.447914 
C 45.10724 12.049637 39.399683 15.863305 34.592325 20.670663 
C 29.784967 25.47802 25.9713 31.185577 23.369576 37.466693 
C 20.767853 43.747809 19.428671 50.480332 19.428671 57.278962 
C 19.428671 64.077593 20.767853 70.810116 23.369576 77.091231 
C 25.9713 83.372347 29.784967 89.079904 34.592325 93.887262 
C 39.399683 98.69462 45.10724 102.508288 51.388356 105.110011 
C 57.669472 107.711734 64.401994 109.050916 71.200625 109.050916 
C 77.999256 109.050916 84.731778 107.711734 91.012894 105.110011 
C 97.29401 102.508288 103.001567 98.69462 107.808925 93.887262 
C 112.616283 89.079904 116.42995 83.372347 119.031674 77.091231 
C 121.633397 70.810116 122.972579 64.077593 122.972579 57.278962 
" style="fill:none;stroke:#b0b0b0;stroke-linecap:square;stroke-width:0.8;"/>
     </g>
    </g>
   </g>
   <g id="line2d_9">
    <path clip-path="url(#p137d9f7fa1)" d="M 71.255246 57.278009 
L 71.293176 57.270865 
L 71.333232 57.257959 
L 71.361631 57.241792 
L 71.375167 57.225599 
L 71.362715 57.216741 
L 71.32652 57.220257 
L 71.280749 57.234548 
L 71.242359 57.25186 
L 71.218787 57.265277 
L 71.21387 57.267449 
L 71.213748 57.26584 
L 71.218548 57.258344 
L 71.239288 57.227655 
L 71.281897 57.153814 
L 71.331899 57.04211 
L 71.385016 56.883498 
L 71.4165 56.716551 
L 71.443076 56.485913 
L 71.437348 56.253617 
L 71.402998 56.001369 
L 71.317301 55.945805 
L 71.220759 56.128351 
L 71.157535 56.457435 
L 71.141066 56.794019 
L 71.167453 57.108322 
L 71.197769 57.268303 
L 71.183539 57.22934 
L 71.102409 57.047565 
L 70.956553 56.799903 
L 70.776613 56.573211 
L 70.564906 56.371135 
L 70.363296 56.245001 
L 70.169889 56.17366 
L 70.07566 56.229914 
L 70.066995 56.36094 
L 70.149875 56.543176 
L 70.314478 56.746462 
L 70.514622 56.929466 
L 70.764244 57.093747 
L 70.988552 57.205944 
L 71.119182 57.25714 
L 71.112045 57.261743 
L 70.957292 57.24908 
L 70.556794 57.245199 
L 69.738082 57.304424 
L 68.076639 57.552404 
L 63.999889 58.419652 
L 58.998515 60.096228 
L 53.386029 62.725458 
L 47.754043 66.278944 
L 45.146787 69.427275 
L 46.521177 70.957773 
L 49.901807 71.112051 
L 55.680233 68.975281 
L 61.376744 65.819117 
L 66.153485 62.326195 
L 69.637799 59.076773 
L 71.075355 57.445195 
L 70.221212 58.787026 
L 67.402766 64.129778 
L 63.74491 73.269604 
L 60.666827 84.722918 
L 59.244089 96.389405 
L 60.111456 105.312269 
L 63.101229 108.413442 
L 67.100757 104.12852 
L 70.515098 96.47262 
L 72.652746 85.013002 
L 73.321559 74.547165 
L 72.898372 66.011959 
L 72.085571 60.581472 
L 71.471387 58.065317 
L 71.236682 57.36391 
L 71.342266 57.556968 
L 71.657757 58.039829 
L 71.939905 58.334661 
L 72.108242 58.399701 
L 72.08819 58.230723 
L 72.005762 58.029755 
L 71.77883 57.74719 
L 71.573663 57.540177 
L 71.518533 57.469995 
L 71.436473 57.399147 
L 71.433054 57.377611 
L 71.363023 57.334875 
L 71.337562 57.315652 
L 71.330518 57.304211 
L 71.332194 57.295119 
L 71.34196 57.286373 
" style="fill:none;stroke:#377eb8;stroke-linecap:square;"/>
    <defs>
     <path d="M 0 0.75 
C 0.198902 0.75 0.389685 0.670975 0.53033 0.53033 
C 0.670975 0.389685 0.75 0.198902 0.75 0 
C 0.75 -0.198902 0.670975 -0.389685 0.53033 -0.53033 
C 0.389685 -0.670975 0.198902 -0.75 0 -0.75 
C -0.198902 -0.75 -0.389685 -0.670975 -0.53033 -0.53033 
C -0.670975 -0.389685 -0.75 -0.198902 -0.75 0 
C -0.75 0.198902 -0.670975 0.389685 -0.53033 0.53033 
C -0.389685 0.670975 -0.198902 0.75 0 0.75 
z
" id="m4691d76021" style="stroke:#377eb8;"/>
    </defs>
    <g clip-path="url(#p137d9f7fa1)">
     <use style="fill:#377eb8;stroke:#377eb8;" x="71.255246" xlink:href="#m4691d76021" y="57.278009"/>
     <use style="fill:#377eb8;stroke:#377eb8;" x="71.293176" xlink:href="#m4691d76021" y="57.270865"/>
     <use style="fill:#377eb8;stroke:#377eb8;" x="71.333232" xlink:href="#m4691d76021" y="57.257959"/>
     <use style="fill:#377eb8;stroke:#377eb8;" x="71.361631" xlink:href="#m4691d76021" y="57.241792"/>
     <use style="fill:#377eb8;stroke:#377eb8;" x="71.375167" xlink:href="#m4691d76021" y="57.225599"/>
     <use style="fill:#377eb8;stroke:#377eb8;" x="71.362715" xlink:href="#m4691d76021" y="57.216741"/>
     <use style="fill:#377eb8;stroke:#377eb8;" x="71.32652" xlink:href="#m4691d76021" y="57.220257"/>
     <use style="fill:#377eb8;stroke:#377eb8;" x="71.280749" xlink:href="#m4691d76021" y="57.234548"/>
     <use style="fill:#377eb8;stroke:#377eb8;" x="71.242359" xlink:href="#m4691d76021" y="57.25186"/>
     <use style="fill:#377eb8;stroke:#377eb8;" x="71.218787" xlink:href="#m4691d76021" y="57.265277"/>
     <use style="fill:#377eb8;stroke:#377eb8;" x="71.21387" xlink:href="#m4691d76021" y="57.267449"/>
     <use style="fill:#377eb8;stroke:#377eb8;" x="71.213748" xlink:href="#m4691d76021" y="57.26584"/>
     <use style="fill:#377eb8;stroke:#377eb8;" x="71.218548" xlink:href="#m4691d76021" y="57.258344"/>
     <use style="fill:#377eb8;stroke:#377eb8;" x="71.239288" xlink:href="#m4691d76021" y="57.227655"/>
     <use style="fill:#377eb8;stroke:#377eb8;" x="71.281897" xlink:href="#m4691d76021" y="57.153814"/>
     <use style="fill:#377eb8;stroke:#377eb8;" x="71.331899" xlink:href="#m4691d76021" y="57.04211"/>
     <use style="fill:#377eb8;stroke:#377eb8;" x="71.385016" xlink:href="#m4691d76021" y="56.883498"/>
     <use style="fill:#377eb8;stroke:#377eb8;" x="71.4165" xlink:href="#m4691d76021" y="56.716551"/>
     <use style="fill:#377eb8;stroke:#377eb8;" x="71.443076" xlink:href="#m4691d76021" y="56.485913"/>
     <use style="fill:#377eb8;stroke:#377eb8;" x="71.437348" xlink:href="#m4691d76021" y="56.253617"/>
     <use style="fill:#377eb8;stroke:#377eb8;" x="71.402998" xlink:href="#m4691d76021" y="56.001369"/>
     <use style="fill:#377eb8;stroke:#377eb8;" x="71.317301" xlink:href="#m4691d76021" y="55.945805"/>
     <use style="fill:#377eb8;stroke:#377eb8;" x="71.220759" xlink:href="#m4691d76021" y="56.128351"/>
     <use style="fill:#377eb8;stroke:#377eb8;" x="71.157535" xlink:href="#m4691d76021" y="56.457435"/>
     <use style="fill:#377eb8;stroke:#377eb8;" x="71.141066" xlink:href="#m4691d76021" y="56.794019"/>
     <use style="fill:#377eb8;stroke:#377eb8;" x="71.167453" xlink:href="#m4691d76021" y="57.108322"/>
     <use style="fill:#377eb8;stroke:#377eb8;" x="71.197769" xlink:href="#m4691d76021" y="57.268303"/>
     <use style="fill:#377eb8;stroke:#377eb8;" x="71.183539" xlink:href="#m4691d76021" y="57.22934"/>
     <use style="fill:#377eb8;stroke:#377eb8;" x="71.102409" xlink:href="#m4691d76021" y="57.047565"/>
     <use style="fill:#377eb8;stroke:#377eb8;" x="70.956553" xlink:href="#m4691d76021" y="56.799903"/>
     <use style="fill:#377eb8;stroke:#377eb8;" x="70.776613" xlink:href="#m4691d76021" y="56.573211"/>
     <use style="fill:#377eb8;stroke:#377eb8;" x="70.564906" xlink:href="#m4691d76021" y="56.371135"/>
     <use style="fill:#377eb8;stroke:#377eb8;" x="70.363296" xlink:href="#m4691d76021" y="56.245001"/>
     <use style="fill:#377eb8;stroke:#377eb8;" x="70.169889" xlink:href="#m4691d76021" y="56.17366"/>
     <use style="fill:#377eb8;stroke:#377eb8;" x="70.07566" xlink:href="#m4691d76021" y="56.229914"/>
     <use style="fill:#377eb8;stroke:#377eb8;" x="70.066995" xlink:href="#m4691d76021" y="56.36094"/>
     <use style="fill:#377eb8;stroke:#377eb8;" x="70.149875" xlink:href="#m4691d76021" y="56.543176"/>
     <use style="fill:#377eb8;stroke:#377eb8;" x="70.314478" xlink:href="#m4691d76021" y="56.746462"/>
     <use style="fill:#377eb8;stroke:#377eb8;" x="70.514622" xlink:href="#m4691d76021" y="56.929466"/>
     <use style="fill:#377eb8;stroke:#377eb8;" x="70.764244" xlink:href="#m4691d76021" y="57.093747"/>
     <use style="fill:#377eb8;stroke:#377eb8;" x="70.988552" xlink:href="#m4691d76021" y="57.205944"/>
     <use style="fill:#377eb8;stroke:#377eb8;" x="71.119182" xlink:href="#m4691d76021" y="57.25714"/>
     <use style="fill:#377eb8;stroke:#377eb8;" x="71.112045" xlink:href="#m4691d76021" y="57.261743"/>
     <use style="fill:#377eb8;stroke:#377eb8;" x="70.957292" xlink:href="#m4691d76021" y="57.24908"/>
     <use style="fill:#377eb8;stroke:#377eb8;" x="70.556794" xlink:href="#m4691d76021" y="57.245199"/>
     <use style="fill:#377eb8;stroke:#377eb8;" x="69.738082" xlink:href="#m4691d76021" y="57.304424"/>
     <use style="fill:#377eb8;stroke:#377eb8;" x="68.076639" xlink:href="#m4691d76021" y="57.552404"/>
     <use style="fill:#377eb8;stroke:#377eb8;" x="63.999889" xlink:href="#m4691d76021" y="58.419652"/>
     <use style="fill:#377eb8;stroke:#377eb8;" x="58.998515" xlink:href="#m4691d76021" y="60.096228"/>
     <use style="fill:#377eb8;stroke:#377eb8;" x="53.386029" xlink:href="#m4691d76021" y="62.725458"/>
     <use style="fill:#377eb8;stroke:#377eb8;" x="47.754043" xlink:href="#m4691d76021" y="66.278944"/>
     <use style="fill:#377eb8;stroke:#377eb8;" x="45.146787" xlink:href="#m4691d76021" y="69.427275"/>
     <use style="fill:#377eb8;stroke:#377eb8;" x="46.521177" xlink:href="#m4691d76021" y="70.957773"/>
     <use style="fill:#377eb8;stroke:#377eb8;" x="49.901807" xlink:href="#m4691d76021" y="71.112051"/>
     <use style="fill:#377eb8;stroke:#377eb8;" x="55.680233" xlink:href="#m4691d76021" y="68.975281"/>
     <use style="fill:#377eb8;stroke:#377eb8;" x="61.376744" xlink:href="#m4691d76021" y="65.819117"/>
     <use style="fill:#377eb8;stroke:#377eb8;" x="66.153485" xlink:href="#m4691d76021" y="62.326195"/>
     <use style="fill:#377eb8;stroke:#377eb8;" x="69.637799" xlink:href="#m4691d76021" y="59.076773"/>
     <use style="fill:#377eb8;stroke:#377eb8;" x="71.075355" xlink:href="#m4691d76021" y="57.445195"/>
     <use style="fill:#377eb8;stroke:#377eb8;" x="70.221212" xlink:href="#m4691d76021" y="58.787026"/>
     <use style="fill:#377eb8;stroke:#377eb8;" x="67.402766" xlink:href="#m4691d76021" y="64.129778"/>
     <use style="fill:#377eb8;stroke:#377eb8;" x="63.74491" xlink:href="#m4691d76021" y="73.269604"/>
     <use style="fill:#377eb8;stroke:#377eb8;" x="60.666827" xlink:href="#m4691d76021" y="84.722918"/>
     <use style="fill:#377eb8;stroke:#377eb8;" x="59.244089" xlink:href="#m4691d76021" y="96.389405"/>
     <use style="fill:#377eb8;stroke:#377eb8;" x="60.111456" xlink:href="#m4691d76021" y="105.312269"/>
     <use style="fill:#377eb8;stroke:#377eb8;" x="63.101229" xlink:href="#m4691d76021" y="108.413442"/>
     <use style="fill:#377eb8;stroke:#377eb8;" x="67.100757" xlink:href="#m4691d76021" y="104.12852"/>
     <use style="fill:#377eb8;stroke:#377eb8;" x="70.515098" xlink:href="#m4691d76021" y="96.47262"/>
     <use style="fill:#377eb8;stroke:#377eb8;" x="72.652746" xlink:href="#m4691d76021" y="85.013002"/>
     <use style="fill:#377eb8;stroke:#377eb8;" x="73.321559" xlink:href="#m4691d76021" y="74.547165"/>
     <use style="fill:#377eb8;stroke:#377eb8;" x="72.898372" xlink:href="#m4691d76021" y="66.011959"/>
     <use style="fill:#377eb8;stroke:#377eb8;" x="72.085571" xlink:href="#m4691d76021" y="60.581472"/>
     <use style="fill:#377eb8;stroke:#377eb8;" x="71.471387" xlink:href="#m4691d76021" y="58.065317"/>
     <use style="fill:#377eb8;stroke:#377eb8;" x="71.236682" xlink:href="#m4691d76021" y="57.36391"/>
     <use style="fill:#377eb8;stroke:#377eb8;" x="71.342266" xlink:href="#m4691d76021" y="57.556968"/>
     <use style="fill:#377eb8;stroke:#377eb8;" x="71.657757" xlink:href="#m4691d76021" y="58.039829"/>
     <use style="fill:#377eb8;stroke:#377eb8;" x="71.939905" xlink:href="#m4691d76021" y="58.334661"/>
     <use style="fill:#377eb8;stroke:#377eb8;" x="72.108242" xlink:href="#m4691d76021" y="58.399701"/>
     <use style="fill:#377eb8;stroke:#377eb8;" x="72.08819" xlink:href="#m4691d76021" y="58.230723"/>
     <use style="fill:#377eb8;stroke:#377eb8;" x="72.005762" xlink:href="#m4691d76021" y="58.029755"/>
     <use style="fill:#377eb8;stroke:#377eb8;" x="71.77883" xlink:href="#m4691d76021" y="57.74719"/>
     <use style="fill:#377eb8;stroke:#377eb8;" x="71.573663" xlink:href="#m4691d76021" y="57.540177"/>
     <use style="fill:#377eb8;stroke:#377eb8;" x="71.518533" xlink:href="#m4691d76021" y="57.469995"/>
     <use style="fill:#377eb8;stroke:#377eb8;" x="71.436473" xlink:href="#m4691d76021" y="57.399147"/>
     <use style="fill:#377eb8;stroke:#377eb8;" x="71.433054" xlink:href="#m4691d76021" y="57.377611"/>
     <use style="fill:#377eb8;stroke:#377eb8;" x="71.363023" xlink:href="#m4691d76021" y="57.334875"/>
     <use style="fill:#377eb8;stroke:#377eb8;" x="71.337562" xlink:href="#m4691d76021" y="57.315652"/>
     <use style="fill:#377eb8;stroke:#377eb8;" x="71.330518" xlink:href="#m4691d76021" y="57.304211"/>
     <use style="fill:#377eb8;stroke:#377eb8;" x="71.332194" xlink:href="#m4691d76021" y="57.295119"/>
     <use style="fill:#377eb8;stroke:#377eb8;" x="71.34196" xlink:href="#m4691d76021" y="57.286373"/>
    </g>
   </g>
  </g>
 </g>
 <defs>
  <clipPath id="p137d9f7fa1">
   <path d="M 125.560625 57.278962 
C 125.560625 50.140473 124.154498 43.071396 121.422716 36.476291 
C 118.690935 29.881186 114.686624 23.888312 109.63895 18.840638 
C 104.591275 13.792963 98.598401 9.788653 92.003296 7.056871 
C 85.408192 4.325089 78.339115 2.918962 71.200625 2.918962 
C 64.062135 2.918962 56.993058 4.325089 50.397954 7.056871 
C 43.802849 9.788653 37.809975 13.792963 32.7623 18.840638 
C 27.714626 23.888312 23.710315 29.881186 20.978534 36.476291 
C 18.246752 43.071396 16.840625 50.140473 16.840625 57.278962 
C 16.840625 64.417452 18.246752 71.486529 20.978534 78.081634 
C 23.710315 84.676738 27.714626 90.669612 32.7623 95.717287 
C 37.809975 100.764961 43.802849 104.769272 50.397954 107.501054 
C 56.993058 110.232835 64.062135 111.638962 71.200625 111.638962 
C 78.339115 111.638962 85.408192 110.232835 92.003296 107.501054 
C 98.598401 104.769272 104.591275 100.764961 109.63895 95.717287 
C 114.686624 90.669612 118.690935 84.676738 121.422716 78.081634 
C 124.154498 71.486529 125.560625 64.417452 125.560625 57.278962 
M 71.200625 57.278962 
C 71.200625 57.278962 71.200625 57.278962 71.200625 57.278962 
C 71.200625 57.278962 71.200625 57.278962 71.200625 57.278962 
C 71.200625 57.278962 71.200625 57.278962 71.200625 57.278962 
C 71.200625 57.278962 71.200625 57.278962 71.200625 57.278962 
C 71.200625 57.278962 71.200625 57.278962 71.200625 57.278962 
C 71.200625 57.278962 71.200625 57.278962 71.200625 57.278962 
C 71.200625 57.278962 71.200625 57.278962 71.200625 57.278962 
C 71.200625 57.278962 71.200625 57.278962 71.200625 57.278962 
C 71.200625 57.278962 71.200625 57.278962 71.200625 57.278962 
C 71.200625 57.278962 71.200625 57.278962 71.200625 57.278962 
C 71.200625 57.278962 71.200625 57.278962 71.200625 57.278962 
C 71.200625 57.278962 71.200625 57.278962 71.200625 57.278962 
C 71.200625 57.278962 71.200625 57.278962 71.200625 57.278962 
C 71.200625 57.278962 71.200625 57.278962 71.200625 57.278962 
C 71.200625 57.278962 71.200625 57.278962 71.200625 57.278962 
C 71.200625 57.278962 71.200625 57.278962 71.200625 57.278962 
M 125.560625 57.278962 
z
"/>
  </clipPath>
 </defs>
</svg>
