<?xml version="1.0" encoding="utf-8" standalone="no"?>
<!DOCTYPE svg PUBLIC "-//W3C//DTD SVG 1.1//EN"
  "http://www.w3.org/Graphics/SVG/1.1/DTD/svg11.dtd">
<!-- Created with matplotlib (https://matplotlib.org/) -->
<svg height="114.557925pt" version="1.1" viewBox="0 0 136.840312 114.557925" width="136.840312pt" xmlns="http://www.w3.org/2000/svg" xmlns:xlink="http://www.w3.org/1999/xlink">
 <defs>
  <style type="text/css">
*{stroke-linecap:butt;stroke-linejoin:round;}
  </style>
 </defs>
 <g id="figure_1">
  <g id="patch_1">
   <path d="M 0 114.557925 
L 136.840312 114.557925 
L 136.840312 0 
L 0 0 
z
" style="fill:none;"/>
  </g>
  <g id="axes_1">
   <g id="patch_2">
    <path d="M 125.560625 57.278962 
C 125.560625 50.140473 124.154498 43.071396 121.422716 36.476291 
C 118.690935 29.881186 114.686624 23.888312 109.63895 18.840638 
C 104.591275 13.792963 98.598401 9.788653 92.003296 7.056871 
C 85.408192 4.325089 78.339115 2.918962 71.200625 2.918962 
C 64.062135 2.918962 56.993058 4.325089 50.397954 7.056871 
C 43.802849 9.788653 37.809975 13.792963 32.7623 18.840638 
C 27.714626 23.888312 23.710315 29.881186 20.978534 36.476291 
C 18.246752 43.071396 16.840625 50.140473 16.840625 57.278962 
C 16.840625 64.417452 18.246752 71.486529 20.978534 78.081634 
C 23.710315 84.676738 27.714626 90.669612 32.7623 95.717287 
C 37.809975 100.764961 43.802849 104.769272 50.397954 107.501054 
C 56.993058 110.232835 64.062135 111.638962 71.200625 111.638962 
C 78.339115 111.638962 85.408192 110.232835 92.003296 107.501054 
C 98.598401 104.769272 104.591275 100.764961 109.63895 95.717287 
C 114.686624 90.669612 118.690935 84.676738 121.422716 78.081634 
C 124.154498 71.486529 125.560625 64.417452 125.560625 57.278962 
M 71.200625 57.278962 
C 71.200625 57.278962 71.200625 57.278962 71.200625 57.278962 
C 71.200625 57.278962 71.200625 57.278962 71.200625 57.278962 
C 71.200625 57.278962 71.200625 57.278962 71.200625 57.278962 
C 71.200625 57.278962 71.200625 57.278962 71.200625 57.278962 
C 71.200625 57.278962 71.200625 57.278962 71.200625 57.278962 
C 71.200625 57.278962 71.200625 57.278962 71.200625 57.278962 
C 71.200625 57.278962 71.200625 57.278962 71.200625 57.278962 
C 71.200625 57.278962 71.200625 57.278962 71.200625 57.278962 
C 71.200625 57.278962 71.200625 57.278962 71.200625 57.278962 
C 71.200625 57.278962 71.200625 57.278962 71.200625 57.278962 
C 71.200625 57.278962 71.200625 57.278962 71.200625 57.278962 
C 71.200625 57.278962 71.200625 57.278962 71.200625 57.278962 
C 71.200625 57.278962 71.200625 57.278962 71.200625 57.278962 
C 71.200625 57.278962 71.200625 57.278962 71.200625 57.278962 
C 71.200625 57.278962 71.200625 57.278962 71.200625 57.278962 
C 71.200625 57.278962 71.200625 57.278962 71.200625 57.278962 
M 125.560625 57.278962 
z
" style="fill:none;"/>
   </g>
   <g id="matplotlib.axis_1">
    <g id="xtick_1">
     <g id="line2d_1">
      <path clip-path="url(#p54df10d995)" d="M 71.200625 57.278962 
L 125.560625 57.278962 
" style="fill:none;stroke:#b0b0b0;stroke-linecap:square;stroke-width:0.8;"/>
     </g>
     <g id="text_1">
      <text style="font-family:Arial;font-size:10px;font-style:normal;font-weight:normal;text-anchor:middle;" transform="rotate(-0, 132.060625, 59.864119)" x="132.060625" y="59.864119">0°</text>
     </g>
    </g>
    <g id="xtick_2">
     <g id="line2d_2">
      <path clip-path="url(#p54df10d995)" d="M 71.200625 57.278962 
L 98.380625 10.201821 
" style="fill:none;stroke:#b0b0b0;stroke-linecap:square;stroke-width:0.8;"/>
     </g>
     <g id="text_2">
      <text style="font-family:Arial;font-size:10px;font-style:normal;font-weight:normal;text-anchor:middle;" transform="rotate(-0, 101.630625, 7.157813)" x="101.630625" y="7.157813">60°</text>
     </g>
    </g>
    <g id="xtick_3">
     <g id="line2d_3">
      <path clip-path="url(#p54df10d995)" d="M 71.200625 57.278962 
L 44.020625 10.201821 
" style="fill:none;stroke:#b0b0b0;stroke-linecap:square;stroke-width:0.8;"/>
     </g>
     <g id="text_3">
      <text style="font-family:Arial;font-size:10px;font-style:normal;font-weight:normal;text-anchor:middle;" transform="rotate(-0, 40.770625, 7.157813)" x="40.770625" y="7.157813">120°</text>
     </g>
    </g>
    <g id="xtick_4">
     <g id="line2d_4">
      <path clip-path="url(#p54df10d995)" d="M 71.200625 57.278962 
L 16.840625 57.278962 
" style="fill:none;stroke:#b0b0b0;stroke-linecap:square;stroke-width:0.8;"/>
     </g>
     <g id="text_4">
      <text style="font-family:Arial;font-size:10px;font-style:normal;font-weight:normal;text-anchor:middle;" transform="rotate(-0, 10.340625, 59.864119)" x="10.340625" y="59.864119">180°</text>
     </g>
    </g>
    <g id="xtick_5">
     <g id="line2d_5">
      <path clip-path="url(#p54df10d995)" d="M 71.200625 57.278962 
L 44.020625 104.356103 
" style="fill:none;stroke:#b0b0b0;stroke-linecap:square;stroke-width:0.8;"/>
     </g>
     <g id="text_5">
      <text style="font-family:Arial;font-size:10px;font-style:normal;font-weight:normal;text-anchor:middle;" transform="rotate(-0, 40.770625, 112.570425)" x="40.770625" y="112.570425">240°</text>
     </g>
    </g>
    <g id="xtick_6">
     <g id="line2d_6">
      <path clip-path="url(#p54df10d995)" d="M 71.200625 57.278962 
L 98.380625 104.356103 
" style="fill:none;stroke:#b0b0b0;stroke-linecap:square;stroke-width:0.8;"/>
     </g>
     <g id="text_6">
      <text style="font-family:Arial;font-size:10px;font-style:normal;font-weight:normal;text-anchor:middle;" transform="rotate(-0, 101.630625, 112.570425)" x="101.630625" y="112.570425">300°</text>
     </g>
    </g>
   </g>
   <g id="matplotlib.axis_2">
    <g id="ytick_1">
     <g id="line2d_7">
      <path clip-path="url(#p54df10d995)" d="M 97.997568 57.278962 
L 97.850772 54.477919 
L 97.411991 51.707565 
L 96.686033 48.998251 
L 95.680851 46.379664 
L 94.407459 43.880491 
L 92.879808 41.528114 
L 91.114635 39.348307 
L 89.13128 37.364953 
L 86.951473 35.59978 
L 84.599097 34.072129 
L 82.099924 32.798737 
L 79.481336 31.793555 
L 76.772023 31.067597 
L 74.001668 30.628816 
L 71.200625 30.482019 
L 68.399582 30.628816 
L 65.629227 31.067597 
L 62.919914 31.793555 
L 60.301326 32.798737 
L 57.802153 34.072129 
L 55.449777 35.59978 
L 53.26997 37.364953 
L 51.286615 39.348307 
L 49.521442 41.528114 
L 47.993791 43.880491 
L 46.720399 46.379664 
L 45.715217 48.998251 
L 44.989259 51.707565 
L 44.550478 54.477919 
L 44.403682 57.278962 
L 44.550478 60.080006 
L 44.989259 62.85036 
L 45.715217 65.559673 
L 46.720399 68.178261 
L 47.993791 70.677434 
L 49.521442 73.02981 
L 51.286615 75.209617 
L 53.26997 77.192972 
L 55.449777 78.958145 
L 57.802153 80.485796 
L 60.301326 81.759188 
L 62.919914 82.76437 
L 65.629227 83.490328 
L 68.399582 83.929109 
L 71.200625 84.075906 
L 74.001668 83.929109 
L 76.772023 83.490328 
L 79.481336 82.76437 
L 82.099924 81.759188 
L 84.599097 80.485796 
L 86.951473 78.958145 
L 89.13128 77.192972 
L 91.114635 75.209617 
L 92.879808 73.02981 
L 94.407459 70.677434 
L 95.680851 68.178261 
L 96.686033 65.559673 
L 97.411991 62.85036 
L 97.850772 60.080006 
L 97.997568 57.278962 
L 97.997568 57.278962 
" style="fill:none;stroke:#b0b0b0;stroke-linecap:square;stroke-width:0.8;"/>
     </g>
    </g>
    <g id="ytick_2">
     <g id="line2d_8">
      <path clip-path="url(#p54df10d995)" d="M 123.089716 57.278962 
L 122.963317 53.659362 
L 122.584735 50.057397 
L 121.955815 46.490614 
L 121.079621 42.976391 
L 119.960421 39.531848 
L 118.603668 36.173768 
L 117.015973 32.91851 
L 115.20507 29.781933 
L 113.179781 26.77932 
L 110.949975 23.925298 
L 108.526513 21.233771 
L 105.921204 18.717853 
L 103.146739 16.389801 
L 100.216636 14.260956 
L 97.14517 12.341691 
L 93.947305 10.641356 
L 90.638621 9.168235 
L 87.235236 7.929504 
L 83.753732 6.931199 
L 80.211071 6.178183 
L 76.624512 5.674125 
L 73.011528 5.421481 
L 69.389722 5.421481 
L 65.776738 5.674125 
L 62.190179 6.178183 
L 58.647518 6.931199 
L 55.166014 7.929504 
L 51.762629 9.168235 
L 48.453945 10.641356 
L 45.25608 12.341691 
L 42.184614 14.260956 
L 39.254511 16.389801 
L 36.480046 18.717853 
L 33.874737 21.233771 
L 31.451275 23.925298 
L 29.221469 26.77932 
L 27.19618 29.781933 
L 25.385277 32.91851 
L 23.797582 36.173768 
L 22.440829 39.531848 
L 21.321629 42.976391 
L 20.445435 46.490614 
L 19.816515 50.057397 
L 19.437933 53.659362 
L 19.311534 57.278962 
L 19.437933 60.898562 
L 19.816515 64.500528 
L 20.445435 68.067311 
L 21.321629 71.581534 
L 22.440829 75.026077 
L 23.797582 78.384157 
L 25.385277 81.639415 
L 27.19618 84.775991 
L 29.221469 87.778605 
L 31.451275 90.632627 
L 33.874737 93.324154 
L 36.480046 95.840072 
L 39.254511 98.168124 
L 42.184614 100.296968 
L 45.25608 102.216233 
L 48.453945 103.916568 
L 51.762629 105.38969 
L 55.166014 106.62842 
L 58.647518 107.626725 
L 62.190179 108.379741 
L 65.776738 108.883799 
L 69.389722 109.136444 
L 73.011528 109.136444 
L 76.624512 108.883799 
L 80.211071 108.379741 
L 83.753732 107.626725 
L 87.235236 106.62842 
L 90.638621 105.38969 
L 93.947305 103.916568 
L 97.14517 102.216233 
L 100.216636 100.296968 
L 103.146739 98.168124 
L 105.921204 95.840072 
L 108.526513 93.324154 
L 110.949975 90.632627 
L 113.179781 87.778605 
L 115.20507 84.775991 
L 117.015973 81.639415 
L 118.603668 78.384157 
L 119.960421 75.026077 
L 121.079621 71.581534 
L 121.955815 68.067311 
L 122.584735 64.500528 
L 122.963317 60.898562 
L 123.089716 57.278962 
L 123.089716 57.278962 
" style="fill:none;stroke:#b0b0b0;stroke-linecap:square;stroke-width:0.8;"/>
     </g>
    </g>
   </g>
   <g id="line2d_9">
    <path clip-path="url(#p54df10d995)" d="M 92.477066 56.907587 
L 92.731288 55.395283 
L 87.136766 54.75492 
L 82.907355 54.576285 
L 78.143577 55.156258 
L 75.175783 55.753038 
L 73.440032 56.234716 
L 80.037884 52.380338 
L 80.699928 51.110024 
L 81.391143 49.599885 
L 82.893339 47.114744 
L 85.18765 43.291886 
L 87.9711 37.986789 
L 90.260727 31.985589 
L 91.121465 26.603402 
L 91.3043 21.006768 
L 89.545048 17.935524 
L 86.145361 18.343939 
L 81.783112 22.664012 
L 77.715507 29.060361 
L 74.662226 35.425636 
L 72.625896 40.993643 
L 71.427324 44.323325 
L 70.525668 44.410795 
L 69.252029 41.412935 
L 67.063198 35.99573 
L 63.472375 28.437234 
L 58.790932 21.237558 
L 53.201471 14.873012 
L 48.241522 12.215262 
L 44.47792 12.800037 
L 42.127786 15.762042 
L 42.295223 21.585607 
L 44.397154 28.536455 
L 48.559602 36.165822 
L 53.097934 42.619265 
L 57.290135 47.538164 
L 60.174916 50.653439 
L 60.552918 51.854305 
L 58.228424 51.773096 
L 53.603096 51.220039 
L 47.510185 50.931299 
L 40.978227 51.404121 
L 35.171942 52.854479 
L 30.870696 55.164035 
L 29.562465 58.003845 
L 30.854118 60.810486 
L 34.398659 63.108867 
L 40.226698 64.430331 
L 46.891477 64.711051 
L 53.078514 64.235144 
L 58.284801 63.301318 
L 61.257051 62.79028 
L 62.948644 62.638432 
L 59.096273 66.40092 
L 55.390546 71.023075 
L 51.275942 77.204011 
L 47.66586 84.352394 
L 45.138392 91.86348 
L 44.685918 98.10532 
L 46.188798 102.396865 
L 49.999295 102.750505 
L 54.897917 99.752798 
L 59.75878 94.705826 
L 64.217351 87.527372 
L 67.544637 80.360569 
L 69.677912 74.679141 
L 70.955951 71.267738 
L 71.933928 71.284316 
L 73.263435 74.073932 
L 75.373068 78.741478 
L 78.878949 85.933524 
L 83.291168 92.392624 
L 88.243226 97.430456 
L 93.260172 100.576245 
L 97.513754 101.075435 
L 99.827292 98.158096 
L 99.954374 92.784518 
L 98.015602 86.033384 
L 94.20259 78.728372 
L 89.518705 72.112861 
L 85.598727 67.361053 
L 82.869894 64.291094 
L 82.691573 63.134564 
L 85.317595 63.270587 
L 90.256831 63.839959 
L 96.241611 63.988296 
L 102.17875 63.300471 
L 107.155622 61.694128 
L 109.687824 59.296972 
" style="fill:none;stroke:#377eb8;stroke-linecap:square;"/>
    <defs>
     <path d="M 0 0.75 
C 0.198902 0.75 0.389685 0.670975 0.53033 0.53033 
C 0.670975 0.389685 0.75 0.198902 0.75 0 
C 0.75 -0.198902 0.670975 -0.389685 0.53033 -0.53033 
C 0.389685 -0.670975 0.198902 -0.75 0 -0.75 
C -0.198902 -0.75 -0.389685 -0.670975 -0.53033 -0.53033 
C -0.670975 -0.389685 -0.75 -0.198902 -0.75 0 
C -0.75 0.198902 -0.670975 0.389685 -0.53033 0.53033 
C -0.389685 0.670975 -0.198902 0.75 0 0.75 
z
" id="mab6ecc44fa" style="stroke:#377eb8;"/>
    </defs>
    <g clip-path="url(#p54df10d995)">
     <use style="fill:#377eb8;stroke:#377eb8;" x="92.477066" xlink:href="#mab6ecc44fa" y="56.907587"/>
     <use style="fill:#377eb8;stroke:#377eb8;" x="92.731288" xlink:href="#mab6ecc44fa" y="55.395283"/>
     <use style="fill:#377eb8;stroke:#377eb8;" x="87.136766" xlink:href="#mab6ecc44fa" y="54.75492"/>
     <use style="fill:#377eb8;stroke:#377eb8;" x="82.907355" xlink:href="#mab6ecc44fa" y="54.576285"/>
     <use style="fill:#377eb8;stroke:#377eb8;" x="78.143577" xlink:href="#mab6ecc44fa" y="55.156258"/>
     <use style="fill:#377eb8;stroke:#377eb8;" x="75.175783" xlink:href="#mab6ecc44fa" y="55.753038"/>
     <use style="fill:#377eb8;stroke:#377eb8;" x="73.440032" xlink:href="#mab6ecc44fa" y="56.234716"/>
     <use style="fill:#377eb8;stroke:#377eb8;" x="80.037884" xlink:href="#mab6ecc44fa" y="52.380338"/>
     <use style="fill:#377eb8;stroke:#377eb8;" x="80.699928" xlink:href="#mab6ecc44fa" y="51.110024"/>
     <use style="fill:#377eb8;stroke:#377eb8;" x="81.391143" xlink:href="#mab6ecc44fa" y="49.599885"/>
     <use style="fill:#377eb8;stroke:#377eb8;" x="82.893339" xlink:href="#mab6ecc44fa" y="47.114744"/>
     <use style="fill:#377eb8;stroke:#377eb8;" x="85.18765" xlink:href="#mab6ecc44fa" y="43.291886"/>
     <use style="fill:#377eb8;stroke:#377eb8;" x="87.9711" xlink:href="#mab6ecc44fa" y="37.986789"/>
     <use style="fill:#377eb8;stroke:#377eb8;" x="90.260727" xlink:href="#mab6ecc44fa" y="31.985589"/>
     <use style="fill:#377eb8;stroke:#377eb8;" x="91.121465" xlink:href="#mab6ecc44fa" y="26.603402"/>
     <use style="fill:#377eb8;stroke:#377eb8;" x="91.3043" xlink:href="#mab6ecc44fa" y="21.006768"/>
     <use style="fill:#377eb8;stroke:#377eb8;" x="89.545048" xlink:href="#mab6ecc44fa" y="17.935524"/>
     <use style="fill:#377eb8;stroke:#377eb8;" x="86.145361" xlink:href="#mab6ecc44fa" y="18.343939"/>
     <use style="fill:#377eb8;stroke:#377eb8;" x="81.783112" xlink:href="#mab6ecc44fa" y="22.664012"/>
     <use style="fill:#377eb8;stroke:#377eb8;" x="77.715507" xlink:href="#mab6ecc44fa" y="29.060361"/>
     <use style="fill:#377eb8;stroke:#377eb8;" x="74.662226" xlink:href="#mab6ecc44fa" y="35.425636"/>
     <use style="fill:#377eb8;stroke:#377eb8;" x="72.625896" xlink:href="#mab6ecc44fa" y="40.993643"/>
     <use style="fill:#377eb8;stroke:#377eb8;" x="71.427324" xlink:href="#mab6ecc44fa" y="44.323325"/>
     <use style="fill:#377eb8;stroke:#377eb8;" x="70.525668" xlink:href="#mab6ecc44fa" y="44.410795"/>
     <use style="fill:#377eb8;stroke:#377eb8;" x="69.252029" xlink:href="#mab6ecc44fa" y="41.412935"/>
     <use style="fill:#377eb8;stroke:#377eb8;" x="67.063198" xlink:href="#mab6ecc44fa" y="35.99573"/>
     <use style="fill:#377eb8;stroke:#377eb8;" x="63.472375" xlink:href="#mab6ecc44fa" y="28.437234"/>
     <use style="fill:#377eb8;stroke:#377eb8;" x="58.790932" xlink:href="#mab6ecc44fa" y="21.237558"/>
     <use style="fill:#377eb8;stroke:#377eb8;" x="53.201471" xlink:href="#mab6ecc44fa" y="14.873012"/>
     <use style="fill:#377eb8;stroke:#377eb8;" x="48.241522" xlink:href="#mab6ecc44fa" y="12.215262"/>
     <use style="fill:#377eb8;stroke:#377eb8;" x="44.47792" xlink:href="#mab6ecc44fa" y="12.800037"/>
     <use style="fill:#377eb8;stroke:#377eb8;" x="42.127786" xlink:href="#mab6ecc44fa" y="15.762042"/>
     <use style="fill:#377eb8;stroke:#377eb8;" x="42.295223" xlink:href="#mab6ecc44fa" y="21.585607"/>
     <use style="fill:#377eb8;stroke:#377eb8;" x="44.397154" xlink:href="#mab6ecc44fa" y="28.536455"/>
     <use style="fill:#377eb8;stroke:#377eb8;" x="48.559602" xlink:href="#mab6ecc44fa" y="36.165822"/>
     <use style="fill:#377eb8;stroke:#377eb8;" x="53.097934" xlink:href="#mab6ecc44fa" y="42.619265"/>
     <use style="fill:#377eb8;stroke:#377eb8;" x="57.290135" xlink:href="#mab6ecc44fa" y="47.538164"/>
     <use style="fill:#377eb8;stroke:#377eb8;" x="60.174916" xlink:href="#mab6ecc44fa" y="50.653439"/>
     <use style="fill:#377eb8;stroke:#377eb8;" x="60.552918" xlink:href="#mab6ecc44fa" y="51.854305"/>
     <use style="fill:#377eb8;stroke:#377eb8;" x="58.228424" xlink:href="#mab6ecc44fa" y="51.773096"/>
     <use style="fill:#377eb8;stroke:#377eb8;" x="53.603096" xlink:href="#mab6ecc44fa" y="51.220039"/>
     <use style="fill:#377eb8;stroke:#377eb8;" x="47.510185" xlink:href="#mab6ecc44fa" y="50.931299"/>
     <use style="fill:#377eb8;stroke:#377eb8;" x="40.978227" xlink:href="#mab6ecc44fa" y="51.404121"/>
     <use style="fill:#377eb8;stroke:#377eb8;" x="35.171942" xlink:href="#mab6ecc44fa" y="52.854479"/>
     <use style="fill:#377eb8;stroke:#377eb8;" x="30.870696" xlink:href="#mab6ecc44fa" y="55.164035"/>
     <use style="fill:#377eb8;stroke:#377eb8;" x="29.562465" xlink:href="#mab6ecc44fa" y="58.003845"/>
     <use style="fill:#377eb8;stroke:#377eb8;" x="30.854118" xlink:href="#mab6ecc44fa" y="60.810486"/>
     <use style="fill:#377eb8;stroke:#377eb8;" x="34.398659" xlink:href="#mab6ecc44fa" y="63.108867"/>
     <use style="fill:#377eb8;stroke:#377eb8;" x="40.226698" xlink:href="#mab6ecc44fa" y="64.430331"/>
     <use style="fill:#377eb8;stroke:#377eb8;" x="46.891477" xlink:href="#mab6ecc44fa" y="64.711051"/>
     <use style="fill:#377eb8;stroke:#377eb8;" x="53.078514" xlink:href="#mab6ecc44fa" y="64.235144"/>
     <use style="fill:#377eb8;stroke:#377eb8;" x="58.284801" xlink:href="#mab6ecc44fa" y="63.301318"/>
     <use style="fill:#377eb8;stroke:#377eb8;" x="61.257051" xlink:href="#mab6ecc44fa" y="62.79028"/>
     <use style="fill:#377eb8;stroke:#377eb8;" x="62.948644" xlink:href="#mab6ecc44fa" y="62.638432"/>
     <use style="fill:#377eb8;stroke:#377eb8;" x="59.096273" xlink:href="#mab6ecc44fa" y="66.40092"/>
     <use style="fill:#377eb8;stroke:#377eb8;" x="55.390546" xlink:href="#mab6ecc44fa" y="71.023075"/>
     <use style="fill:#377eb8;stroke:#377eb8;" x="51.275942" xlink:href="#mab6ecc44fa" y="77.204011"/>
     <use style="fill:#377eb8;stroke:#377eb8;" x="47.66586" xlink:href="#mab6ecc44fa" y="84.352394"/>
     <use style="fill:#377eb8;stroke:#377eb8;" x="45.138392" xlink:href="#mab6ecc44fa" y="91.86348"/>
     <use style="fill:#377eb8;stroke:#377eb8;" x="44.685918" xlink:href="#mab6ecc44fa" y="98.10532"/>
     <use style="fill:#377eb8;stroke:#377eb8;" x="46.188798" xlink:href="#mab6ecc44fa" y="102.396865"/>
     <use style="fill:#377eb8;stroke:#377eb8;" x="49.999295" xlink:href="#mab6ecc44fa" y="102.750505"/>
     <use style="fill:#377eb8;stroke:#377eb8;" x="54.897917" xlink:href="#mab6ecc44fa" y="99.752798"/>
     <use style="fill:#377eb8;stroke:#377eb8;" x="59.75878" xlink:href="#mab6ecc44fa" y="94.705826"/>
     <use style="fill:#377eb8;stroke:#377eb8;" x="64.217351" xlink:href="#mab6ecc44fa" y="87.527372"/>
     <use style="fill:#377eb8;stroke:#377eb8;" x="67.544637" xlink:href="#mab6ecc44fa" y="80.360569"/>
     <use style="fill:#377eb8;stroke:#377eb8;" x="69.677912" xlink:href="#mab6ecc44fa" y="74.679141"/>
     <use style="fill:#377eb8;stroke:#377eb8;" x="70.955951" xlink:href="#mab6ecc44fa" y="71.267738"/>
     <use style="fill:#377eb8;stroke:#377eb8;" x="71.933928" xlink:href="#mab6ecc44fa" y="71.284316"/>
     <use style="fill:#377eb8;stroke:#377eb8;" x="73.263435" xlink:href="#mab6ecc44fa" y="74.073932"/>
     <use style="fill:#377eb8;stroke:#377eb8;" x="75.373068" xlink:href="#mab6ecc44fa" y="78.741478"/>
     <use style="fill:#377eb8;stroke:#377eb8;" x="78.878949" xlink:href="#mab6ecc44fa" y="85.933524"/>
     <use style="fill:#377eb8;stroke:#377eb8;" x="83.291168" xlink:href="#mab6ecc44fa" y="92.392624"/>
     <use style="fill:#377eb8;stroke:#377eb8;" x="88.243226" xlink:href="#mab6ecc44fa" y="97.430456"/>
     <use style="fill:#377eb8;stroke:#377eb8;" x="93.260172" xlink:href="#mab6ecc44fa" y="100.576245"/>
     <use style="fill:#377eb8;stroke:#377eb8;" x="97.513754" xlink:href="#mab6ecc44fa" y="101.075435"/>
     <use style="fill:#377eb8;stroke:#377eb8;" x="99.827292" xlink:href="#mab6ecc44fa" y="98.158096"/>
     <use style="fill:#377eb8;stroke:#377eb8;" x="99.954374" xlink:href="#mab6ecc44fa" y="92.784518"/>
     <use style="fill:#377eb8;stroke:#377eb8;" x="98.015602" xlink:href="#mab6ecc44fa" y="86.033384"/>
     <use style="fill:#377eb8;stroke:#377eb8;" x="94.20259" xlink:href="#mab6ecc44fa" y="78.728372"/>
     <use style="fill:#377eb8;stroke:#377eb8;" x="89.518705" xlink:href="#mab6ecc44fa" y="72.112861"/>
     <use style="fill:#377eb8;stroke:#377eb8;" x="85.598727" xlink:href="#mab6ecc44fa" y="67.361053"/>
     <use style="fill:#377eb8;stroke:#377eb8;" x="82.869894" xlink:href="#mab6ecc44fa" y="64.291094"/>
     <use style="fill:#377eb8;stroke:#377eb8;" x="82.691573" xlink:href="#mab6ecc44fa" y="63.134564"/>
     <use style="fill:#377eb8;stroke:#377eb8;" x="85.317595" xlink:href="#mab6ecc44fa" y="63.270587"/>
     <use style="fill:#377eb8;stroke:#377eb8;" x="90.256831" xlink:href="#mab6ecc44fa" y="63.839959"/>
     <use style="fill:#377eb8;stroke:#377eb8;" x="96.241611" xlink:href="#mab6ecc44fa" y="63.988296"/>
     <use style="fill:#377eb8;stroke:#377eb8;" x="102.17875" xlink:href="#mab6ecc44fa" y="63.300471"/>
     <use style="fill:#377eb8;stroke:#377eb8;" x="107.155622" xlink:href="#mab6ecc44fa" y="61.694128"/>
     <use style="fill:#377eb8;stroke:#377eb8;" x="109.687824" xlink:href="#mab6ecc44fa" y="59.296972"/>
    </g>
   </g>
  </g>
 </g>
 <defs>
  <clipPath id="p54df10d995">
   <path d="M 125.560625 57.278962 
C 125.560625 50.140473 124.154498 43.071396 121.422716 36.476291 
C 118.690935 29.881186 114.686624 23.888312 109.63895 18.840638 
C 104.591275 13.792963 98.598401 9.788653 92.003296 7.056871 
C 85.408192 4.325089 78.339115 2.918962 71.200625 2.918962 
C 64.062135 2.918962 56.993058 4.325089 50.397954 7.056871 
C 43.802849 9.788653 37.809975 13.792963 32.7623 18.840638 
C 27.714626 23.888312 23.710315 29.881186 20.978534 36.476291 
C 18.246752 43.071396 16.840625 50.140473 16.840625 57.278962 
C 16.840625 64.417452 18.246752 71.486529 20.978534 78.081634 
C 23.710315 84.676738 27.714626 90.669612 32.7623 95.717287 
C 37.809975 100.764961 43.802849 104.769272 50.397954 107.501054 
C 56.993058 110.232835 64.062135 111.638962 71.200625 111.638962 
C 78.339115 111.638962 85.408192 110.232835 92.003296 107.501054 
C 98.598401 104.769272 104.591275 100.764961 109.63895 95.717287 
C 114.686624 90.669612 118.690935 84.676738 121.422716 78.081634 
C 124.154498 71.486529 125.560625 64.417452 125.560625 57.278962 
M 71.200625 57.278962 
C 71.200625 57.278962 71.200625 57.278962 71.200625 57.278962 
C 71.200625 57.278962 71.200625 57.278962 71.200625 57.278962 
C 71.200625 57.278962 71.200625 57.278962 71.200625 57.278962 
C 71.200625 57.278962 71.200625 57.278962 71.200625 57.278962 
C 71.200625 57.278962 71.200625 57.278962 71.200625 57.278962 
C 71.200625 57.278962 71.200625 57.278962 71.200625 57.278962 
C 71.200625 57.278962 71.200625 57.278962 71.200625 57.278962 
C 71.200625 57.278962 71.200625 57.278962 71.200625 57.278962 
C 71.200625 57.278962 71.200625 57.278962 71.200625 57.278962 
C 71.200625 57.278962 71.200625 57.278962 71.200625 57.278962 
C 71.200625 57.278962 71.200625 57.278962 71.200625 57.278962 
C 71.200625 57.278962 71.200625 57.278962 71.200625 57.278962 
C 71.200625 57.278962 71.200625 57.278962 71.200625 57.278962 
C 71.200625 57.278962 71.200625 57.278962 71.200625 57.278962 
C 71.200625 57.278962 71.200625 57.278962 71.200625 57.278962 
C 71.200625 57.278962 71.200625 57.278962 71.200625 57.278962 
M 125.560625 57.278962 
z
"/>
  </clipPath>
 </defs>
</svg>
