<?xml version="1.0" encoding="utf-8" standalone="no"?>
<!DOCTYPE svg PUBLIC "-//W3C//DTD SVG 1.1//EN"
  "http://www.w3.org/Graphics/SVG/1.1/DTD/svg11.dtd">
<!-- Created with matplotlib (https://matplotlib.org/) -->
<svg height="114.557925pt" version="1.1" viewBox="0 0 136.840312 114.557925" width="136.840312pt" xmlns="http://www.w3.org/2000/svg" xmlns:xlink="http://www.w3.org/1999/xlink">
 <defs>
  <style type="text/css">
*{stroke-linecap:butt;stroke-linejoin:round;}
  </style>
 </defs>
 <g id="figure_1">
  <g id="patch_1">
   <path d="M 0 114.557925 
L 136.840312 114.557925 
L 136.840312 0 
L 0 0 
z
" style="fill:none;"/>
  </g>
  <g id="axes_1">
   <g id="patch_2">
    <path d="M 125.560625 57.278962 
C 125.560625 50.140473 124.154498 43.071396 121.422716 36.476291 
C 118.690935 29.881186 114.686624 23.888312 109.63895 18.840638 
C 104.591275 13.792963 98.598401 9.788653 92.003296 7.056871 
C 85.408192 4.325089 78.339115 2.918962 71.200625 2.918962 
C 64.062135 2.918962 56.993058 4.325089 50.397954 7.056871 
C 43.802849 9.788653 37.809975 13.792963 32.7623 18.840638 
C 27.714626 23.888312 23.710315 29.881186 20.978534 36.476291 
C 18.246752 43.071396 16.840625 50.140473 16.840625 57.278962 
C 16.840625 64.417452 18.246752 71.486529 20.978534 78.081634 
C 23.710315 84.676738 27.714626 90.669612 32.7623 95.717287 
C 37.809975 100.764961 43.802849 104.769272 50.397954 107.501054 
C 56.993058 110.232835 64.062135 111.638962 71.200625 111.638962 
C 78.339115 111.638962 85.408192 110.232835 92.003296 107.501054 
C 98.598401 104.769272 104.591275 100.764961 109.63895 95.717287 
C 114.686624 90.669612 118.690935 84.676738 121.422716 78.081634 
C 124.154498 71.486529 125.560625 64.417452 125.560625 57.278962 
M 71.200625 57.278962 
C 71.200625 57.278962 71.200625 57.278962 71.200625 57.278962 
C 71.200625 57.278962 71.200625 57.278962 71.200625 57.278962 
C 71.200625 57.278962 71.200625 57.278962 71.200625 57.278962 
C 71.200625 57.278962 71.200625 57.278962 71.200625 57.278962 
C 71.200625 57.278962 71.200625 57.278962 71.200625 57.278962 
C 71.200625 57.278962 71.200625 57.278962 71.200625 57.278962 
C 71.200625 57.278962 71.200625 57.278962 71.200625 57.278962 
C 71.200625 57.278962 71.200625 57.278962 71.200625 57.278962 
C 71.200625 57.278962 71.200625 57.278962 71.200625 57.278962 
C 71.200625 57.278962 71.200625 57.278962 71.200625 57.278962 
C 71.200625 57.278962 71.200625 57.278962 71.200625 57.278962 
C 71.200625 57.278962 71.200625 57.278962 71.200625 57.278962 
C 71.200625 57.278962 71.200625 57.278962 71.200625 57.278962 
C 71.200625 57.278962 71.200625 57.278962 71.200625 57.278962 
C 71.200625 57.278962 71.200625 57.278962 71.200625 57.278962 
C 71.200625 57.278962 71.200625 57.278962 71.200625 57.278962 
M 125.560625 57.278962 
z
" style="fill:none;"/>
   </g>
   <g id="matplotlib.axis_1">
    <g id="xtick_1">
     <g id="line2d_1">
      <path clip-path="url(#pbd371aea27)" d="M 71.200625 57.278962 
L 125.560625 57.278962 
" style="fill:none;stroke:#b0b0b0;stroke-linecap:square;stroke-width:0.8;"/>
     </g>
     <g id="text_1">
      <text style="font-family:Arial;font-size:10px;font-style:normal;font-weight:normal;text-anchor:middle;" transform="rotate(-0, 132.060625, 59.864119)" x="132.060625" y="59.864119">0°</text>
     </g>
    </g>
    <g id="xtick_2">
     <g id="line2d_2">
      <path clip-path="url(#pbd371aea27)" d="M 71.200625 57.278962 
L 98.380625 10.201821 
" style="fill:none;stroke:#b0b0b0;stroke-linecap:square;stroke-width:0.8;"/>
     </g>
     <g id="text_2">
      <text style="font-family:Arial;font-size:10px;font-style:normal;font-weight:normal;text-anchor:middle;" transform="rotate(-0, 101.630625, 7.157813)" x="101.630625" y="7.157813">60°</text>
     </g>
    </g>
    <g id="xtick_3">
     <g id="line2d_3">
      <path clip-path="url(#pbd371aea27)" d="M 71.200625 57.278962 
L 44.020625 10.201821 
" style="fill:none;stroke:#b0b0b0;stroke-linecap:square;stroke-width:0.8;"/>
     </g>
     <g id="text_3">
      <text style="font-family:Arial;font-size:10px;font-style:normal;font-weight:normal;text-anchor:middle;" transform="rotate(-0, 40.770625, 7.157813)" x="40.770625" y="7.157813">120°</text>
     </g>
    </g>
    <g id="xtick_4">
     <g id="line2d_4">
      <path clip-path="url(#pbd371aea27)" d="M 71.200625 57.278962 
L 16.840625 57.278962 
" style="fill:none;stroke:#b0b0b0;stroke-linecap:square;stroke-width:0.8;"/>
     </g>
     <g id="text_4">
      <text style="font-family:Arial;font-size:10px;font-style:normal;font-weight:normal;text-anchor:middle;" transform="rotate(-0, 10.340625, 59.864119)" x="10.340625" y="59.864119">180°</text>
     </g>
    </g>
    <g id="xtick_5">
     <g id="line2d_5">
      <path clip-path="url(#pbd371aea27)" d="M 71.200625 57.278962 
L 44.020625 104.356103 
" style="fill:none;stroke:#b0b0b0;stroke-linecap:square;stroke-width:0.8;"/>
     </g>
     <g id="text_5">
      <text style="font-family:Arial;font-size:10px;font-style:normal;font-weight:normal;text-anchor:middle;" transform="rotate(-0, 40.770625, 112.570425)" x="40.770625" y="112.570425">240°</text>
     </g>
    </g>
    <g id="xtick_6">
     <g id="line2d_6">
      <path clip-path="url(#pbd371aea27)" d="M 71.200625 57.278962 
L 98.380625 104.356103 
" style="fill:none;stroke:#b0b0b0;stroke-linecap:square;stroke-width:0.8;"/>
     </g>
     <g id="text_6">
      <text style="font-family:Arial;font-size:10px;font-style:normal;font-weight:normal;text-anchor:middle;" transform="rotate(-0, 101.630625, 112.570425)" x="101.630625" y="112.570425">300°</text>
     </g>
    </g>
   </g>
   <g id="matplotlib.axis_2">
    <g id="ytick_1">
     <g id="line2d_7">
      <path clip-path="url(#pbd371aea27)" d="M 98.037027 57.278962 
L 97.890015 54.473794 
L 97.450588 51.699361 
L 96.72356 48.986058 
L 95.716898 46.363614 
L 94.441631 43.860761 
L 92.911731 41.504921 
L 91.143959 39.321904 
L 89.157683 37.335629 
L 86.974667 35.567857 
L 84.618826 34.037956 
L 82.115973 32.762689 
L 79.493529 31.756027 
L 76.780227 31.029 
L 74.005793 30.589573 
L 71.200625 30.44256 
L 68.395457 30.589573 
L 65.621023 31.029 
L 62.907721 31.756027 
L 60.285277 32.762689 
L 57.782424 34.037956 
L 55.426583 35.567857 
L 53.243567 37.335629 
L 51.257291 39.321904 
L 49.489519 41.504921 
L 47.959619 43.860761 
L 46.684352 46.363614 
L 45.67769 48.986058 
L 44.950662 51.699361 
L 44.511235 54.473794 
L 44.364223 57.278962 
L 44.511235 60.08413 
L 44.950662 62.858564 
L 45.67769 65.571867 
L 46.684352 68.194311 
L 47.959619 70.697164 
L 49.489519 73.053004 
L 51.257291 75.236021 
L 53.243567 77.222296 
L 55.426583 78.990068 
L 57.782424 80.519969 
L 60.285277 81.795236 
L 62.907721 82.801898 
L 65.621023 83.528925 
L 68.395457 83.968352 
L 71.200625 84.115365 
L 74.005793 83.968352 
L 76.780227 83.528925 
L 79.493529 82.801898 
L 82.115973 81.795236 
L 84.618826 80.519969 
L 86.974667 78.990068 
L 89.157683 77.222296 
L 91.143959 75.236021 
L 92.911731 73.053004 
L 94.441631 70.697164 
L 95.716898 68.194311 
L 96.72356 65.571867 
L 97.450588 62.858564 
L 97.890015 60.08413 
L 98.037027 57.278962 
L 98.037027 57.278962 
" style="fill:none;stroke:#b0b0b0;stroke-linecap:square;stroke-width:0.8;"/>
     </g>
    </g>
    <g id="ytick_2">
     <g id="line2d_8">
      <path clip-path="url(#pbd371aea27)" d="M 123.089716 57.278962 
L 122.963317 53.659362 
L 122.584735 50.057397 
L 121.955815 46.490614 
L 121.079621 42.976391 
L 119.960421 39.531848 
L 118.603668 36.173768 
L 117.015973 32.91851 
L 115.20507 29.781933 
L 113.179781 26.77932 
L 110.949975 23.925298 
L 108.526513 21.233771 
L 105.921204 18.717853 
L 103.146739 16.389801 
L 100.216636 14.260956 
L 97.14517 12.341691 
L 93.947305 10.641356 
L 90.638621 9.168235 
L 87.235236 7.929504 
L 83.753732 6.931199 
L 80.211071 6.178183 
L 76.624512 5.674125 
L 73.011528 5.421481 
L 69.389722 5.421481 
L 65.776738 5.674125 
L 62.190179 6.178183 
L 58.647518 6.931199 
L 55.166014 7.929504 
L 51.762629 9.168235 
L 48.453945 10.641356 
L 45.25608 12.341691 
L 42.184614 14.260956 
L 39.254511 16.389801 
L 36.480046 18.717853 
L 33.874737 21.233771 
L 31.451275 23.925298 
L 29.221469 26.77932 
L 27.19618 29.781933 
L 25.385277 32.91851 
L 23.797582 36.173768 
L 22.440829 39.531848 
L 21.321629 42.976391 
L 20.445435 46.490614 
L 19.816515 50.057397 
L 19.437933 53.659362 
L 19.311534 57.278962 
L 19.437933 60.898562 
L 19.816515 64.500528 
L 20.445435 68.067311 
L 21.321629 71.581534 
L 22.440829 75.026077 
L 23.797582 78.384157 
L 25.385277 81.639415 
L 27.19618 84.775991 
L 29.221469 87.778605 
L 31.451275 90.632627 
L 33.874737 93.324154 
L 36.480046 95.840072 
L 39.254511 98.168124 
L 42.184614 100.296968 
L 45.25608 102.216233 
L 48.453945 103.916568 
L 51.762629 105.38969 
L 55.166014 106.62842 
L 58.647518 107.626725 
L 62.190179 108.379741 
L 65.776738 108.883799 
L 69.389722 109.136444 
L 73.011528 109.136444 
L 76.624512 108.883799 
L 80.211071 108.379741 
L 83.753732 107.626725 
L 87.235236 106.62842 
L 90.638621 105.38969 
L 93.947305 103.916568 
L 97.14517 102.216233 
L 100.216636 100.296968 
L 103.146739 98.168124 
L 105.921204 95.840072 
L 108.526513 93.324154 
L 110.949975 90.632627 
L 113.179781 87.778605 
L 115.20507 84.775991 
L 117.015973 81.639415 
L 118.603668 78.384157 
L 119.960421 75.026077 
L 121.079621 71.581534 
L 121.955815 68.067311 
L 122.584735 64.500528 
L 122.963317 60.898562 
L 123.089716 57.278962 
L 123.089716 57.278962 
" style="fill:none;stroke:#b0b0b0;stroke-linecap:square;stroke-width:0.8;"/>
     </g>
    </g>
   </g>
   <g id="line2d_9">
    <path clip-path="url(#pbd371aea27)" d="M 109.047431 56.618355 
L 108.956076 53.975806 
L 103.993149 52.085124 
L 97.267698 51.260981 
L 89.567732 51.663493 
L 81.7531 53.228236 
L 76.338067 54.883348 
L 73.456734 56.028368 
L 73.561508 55.745782 
L 76.105075 53.583209 
L 79.900355 49.716479 
L 84.340089 44.13945 
L 87.537066 38.486088 
L 89.915296 32.443988 
L 90.582519 27.433311 
L 89.803627 23.714368 
L 86.736048 23.960011 
L 82.586296 27.616253 
L 78.62147 33.005634 
L 75.244918 39.761486 
L 73.001088 45.912512 
L 71.751498 50.984621 
L 71.257887 54.006467 
L 71.049608 54.399794 
L 70.57476 52.182991 
L 69.401269 48.022943 
L 67.325926 42.818638 
L 64.214571 36.989403 
L 60.428162 31.899073 
L 56.613538 28.647699 
L 53.349627 27.566656 
L 51.308536 28.872438 
L 51.386687 32.812051 
L 53.432459 38.225399 
L 57.248177 44.268066 
L 61.883392 49.733796 
L 65.881876 53.554517 
L 68.533866 55.676465 
L 68.998977 56.157295 
L 67.103333 55.539925 
L 62.759698 54.372706 
L 56.873352 53.440085 
L 50.668493 53.287783 
L 45.105403 54.074353 
L 40.67582 55.678222 
L 39.152107 57.836898 
L 39.480975 60.055379 
L 42.723127 61.790164 
L 47.897414 62.659289 
L 54.30692 62.443912 
L 60.603192 61.346792 
L 65.850149 59.773768 
L 68.704877 58.662254 
L 68.6303 58.948329 
L 65.69341 61.429254 
L 60.761645 66.353839 
L 55.338498 73.14138 
L 49.772883 81.928562 
L 46.344302 90.26324 
L 44.661065 98.143588 
L 46.042321 102.66109 
L 49.35088 104.141192 
L 54.82052 99.954443 
L 60.018056 93.85772 
L 65.004926 84.115952 
L 68.52592 74.165365 
L 70.473166 65.591704 
L 71.141559 60.655962 
L 71.370259 60.51881 
L 72.079285 64.432825 
L 73.947621 71.409159 
L 77.171964 79.563267 
L 81.310047 86.639001 
L 85.842875 91.775352 
L 89.959106 94.097092 
L 92.3081 92.410967 
L 94.977863 91.233069 
L 94.051113 85.495084 
L 91.507606 79.054685 
L 87.159114 72.160307 
L 81.992532 66.0182 
L 77.316053 61.561214 
L 74.341325 59.166227 
L 73.504268 58.452862 
L 76.150238 59.379712 
L 81.423385 60.798629 
L 84.942791 60.960957 
L 96.256805 62.149367 
L 103.377575 61.230195 
L 108.935722 59.257537 
" style="fill:none;stroke:#377eb8;stroke-linecap:square;"/>
    <defs>
     <path d="M 0 0.75 
C 0.198902 0.75 0.389685 0.670975 0.53033 0.53033 
C 0.670975 0.389685 0.75 0.198902 0.75 0 
C 0.75 -0.198902 0.670975 -0.389685 0.53033 -0.53033 
C 0.389685 -0.670975 0.198902 -0.75 0 -0.75 
C -0.198902 -0.75 -0.389685 -0.670975 -0.53033 -0.53033 
C -0.670975 -0.389685 -0.75 -0.198902 -0.75 0 
C -0.75 0.198902 -0.670975 0.389685 -0.53033 0.53033 
C -0.389685 0.670975 -0.198902 0.75 0 0.75 
z
" id="m8e9b2c70c6" style="stroke:#377eb8;"/>
    </defs>
    <g clip-path="url(#pbd371aea27)">
     <use style="fill:#377eb8;stroke:#377eb8;" x="109.047431" xlink:href="#m8e9b2c70c6" y="56.618355"/>
     <use style="fill:#377eb8;stroke:#377eb8;" x="108.956076" xlink:href="#m8e9b2c70c6" y="53.975806"/>
     <use style="fill:#377eb8;stroke:#377eb8;" x="103.993149" xlink:href="#m8e9b2c70c6" y="52.085124"/>
     <use style="fill:#377eb8;stroke:#377eb8;" x="97.267698" xlink:href="#m8e9b2c70c6" y="51.260981"/>
     <use style="fill:#377eb8;stroke:#377eb8;" x="89.567732" xlink:href="#m8e9b2c70c6" y="51.663493"/>
     <use style="fill:#377eb8;stroke:#377eb8;" x="81.7531" xlink:href="#m8e9b2c70c6" y="53.228236"/>
     <use style="fill:#377eb8;stroke:#377eb8;" x="76.338067" xlink:href="#m8e9b2c70c6" y="54.883348"/>
     <use style="fill:#377eb8;stroke:#377eb8;" x="73.456734" xlink:href="#m8e9b2c70c6" y="56.028368"/>
     <use style="fill:#377eb8;stroke:#377eb8;" x="73.561508" xlink:href="#m8e9b2c70c6" y="55.745782"/>
     <use style="fill:#377eb8;stroke:#377eb8;" x="76.105075" xlink:href="#m8e9b2c70c6" y="53.583209"/>
     <use style="fill:#377eb8;stroke:#377eb8;" x="79.900355" xlink:href="#m8e9b2c70c6" y="49.716479"/>
     <use style="fill:#377eb8;stroke:#377eb8;" x="84.340089" xlink:href="#m8e9b2c70c6" y="44.13945"/>
     <use style="fill:#377eb8;stroke:#377eb8;" x="87.537066" xlink:href="#m8e9b2c70c6" y="38.486088"/>
     <use style="fill:#377eb8;stroke:#377eb8;" x="89.915296" xlink:href="#m8e9b2c70c6" y="32.443988"/>
     <use style="fill:#377eb8;stroke:#377eb8;" x="90.582519" xlink:href="#m8e9b2c70c6" y="27.433311"/>
     <use style="fill:#377eb8;stroke:#377eb8;" x="89.803627" xlink:href="#m8e9b2c70c6" y="23.714368"/>
     <use style="fill:#377eb8;stroke:#377eb8;" x="86.736048" xlink:href="#m8e9b2c70c6" y="23.960011"/>
     <use style="fill:#377eb8;stroke:#377eb8;" x="82.586296" xlink:href="#m8e9b2c70c6" y="27.616253"/>
     <use style="fill:#377eb8;stroke:#377eb8;" x="78.62147" xlink:href="#m8e9b2c70c6" y="33.005634"/>
     <use style="fill:#377eb8;stroke:#377eb8;" x="75.244918" xlink:href="#m8e9b2c70c6" y="39.761486"/>
     <use style="fill:#377eb8;stroke:#377eb8;" x="73.001088" xlink:href="#m8e9b2c70c6" y="45.912512"/>
     <use style="fill:#377eb8;stroke:#377eb8;" x="71.751498" xlink:href="#m8e9b2c70c6" y="50.984621"/>
     <use style="fill:#377eb8;stroke:#377eb8;" x="71.257887" xlink:href="#m8e9b2c70c6" y="54.006467"/>
     <use style="fill:#377eb8;stroke:#377eb8;" x="71.049608" xlink:href="#m8e9b2c70c6" y="54.399794"/>
     <use style="fill:#377eb8;stroke:#377eb8;" x="70.57476" xlink:href="#m8e9b2c70c6" y="52.182991"/>
     <use style="fill:#377eb8;stroke:#377eb8;" x="69.401269" xlink:href="#m8e9b2c70c6" y="48.022943"/>
     <use style="fill:#377eb8;stroke:#377eb8;" x="67.325926" xlink:href="#m8e9b2c70c6" y="42.818638"/>
     <use style="fill:#377eb8;stroke:#377eb8;" x="64.214571" xlink:href="#m8e9b2c70c6" y="36.989403"/>
     <use style="fill:#377eb8;stroke:#377eb8;" x="60.428162" xlink:href="#m8e9b2c70c6" y="31.899073"/>
     <use style="fill:#377eb8;stroke:#377eb8;" x="56.613538" xlink:href="#m8e9b2c70c6" y="28.647699"/>
     <use style="fill:#377eb8;stroke:#377eb8;" x="53.349627" xlink:href="#m8e9b2c70c6" y="27.566656"/>
     <use style="fill:#377eb8;stroke:#377eb8;" x="51.308536" xlink:href="#m8e9b2c70c6" y="28.872438"/>
     <use style="fill:#377eb8;stroke:#377eb8;" x="51.386687" xlink:href="#m8e9b2c70c6" y="32.812051"/>
     <use style="fill:#377eb8;stroke:#377eb8;" x="53.432459" xlink:href="#m8e9b2c70c6" y="38.225399"/>
     <use style="fill:#377eb8;stroke:#377eb8;" x="57.248177" xlink:href="#m8e9b2c70c6" y="44.268066"/>
     <use style="fill:#377eb8;stroke:#377eb8;" x="61.883392" xlink:href="#m8e9b2c70c6" y="49.733796"/>
     <use style="fill:#377eb8;stroke:#377eb8;" x="65.881876" xlink:href="#m8e9b2c70c6" y="53.554517"/>
     <use style="fill:#377eb8;stroke:#377eb8;" x="68.533866" xlink:href="#m8e9b2c70c6" y="55.676465"/>
     <use style="fill:#377eb8;stroke:#377eb8;" x="68.998977" xlink:href="#m8e9b2c70c6" y="56.157295"/>
     <use style="fill:#377eb8;stroke:#377eb8;" x="67.103333" xlink:href="#m8e9b2c70c6" y="55.539925"/>
     <use style="fill:#377eb8;stroke:#377eb8;" x="62.759698" xlink:href="#m8e9b2c70c6" y="54.372706"/>
     <use style="fill:#377eb8;stroke:#377eb8;" x="56.873352" xlink:href="#m8e9b2c70c6" y="53.440085"/>
     <use style="fill:#377eb8;stroke:#377eb8;" x="50.668493" xlink:href="#m8e9b2c70c6" y="53.287783"/>
     <use style="fill:#377eb8;stroke:#377eb8;" x="45.105403" xlink:href="#m8e9b2c70c6" y="54.074353"/>
     <use style="fill:#377eb8;stroke:#377eb8;" x="40.67582" xlink:href="#m8e9b2c70c6" y="55.678222"/>
     <use style="fill:#377eb8;stroke:#377eb8;" x="39.152107" xlink:href="#m8e9b2c70c6" y="57.836898"/>
     <use style="fill:#377eb8;stroke:#377eb8;" x="39.480975" xlink:href="#m8e9b2c70c6" y="60.055379"/>
     <use style="fill:#377eb8;stroke:#377eb8;" x="42.723127" xlink:href="#m8e9b2c70c6" y="61.790164"/>
     <use style="fill:#377eb8;stroke:#377eb8;" x="47.897414" xlink:href="#m8e9b2c70c6" y="62.659289"/>
     <use style="fill:#377eb8;stroke:#377eb8;" x="54.30692" xlink:href="#m8e9b2c70c6" y="62.443912"/>
     <use style="fill:#377eb8;stroke:#377eb8;" x="60.603192" xlink:href="#m8e9b2c70c6" y="61.346792"/>
     <use style="fill:#377eb8;stroke:#377eb8;" x="65.850149" xlink:href="#m8e9b2c70c6" y="59.773768"/>
     <use style="fill:#377eb8;stroke:#377eb8;" x="68.704877" xlink:href="#m8e9b2c70c6" y="58.662254"/>
     <use style="fill:#377eb8;stroke:#377eb8;" x="68.6303" xlink:href="#m8e9b2c70c6" y="58.948329"/>
     <use style="fill:#377eb8;stroke:#377eb8;" x="65.69341" xlink:href="#m8e9b2c70c6" y="61.429254"/>
     <use style="fill:#377eb8;stroke:#377eb8;" x="60.761645" xlink:href="#m8e9b2c70c6" y="66.353839"/>
     <use style="fill:#377eb8;stroke:#377eb8;" x="55.338498" xlink:href="#m8e9b2c70c6" y="73.14138"/>
     <use style="fill:#377eb8;stroke:#377eb8;" x="49.772883" xlink:href="#m8e9b2c70c6" y="81.928562"/>
     <use style="fill:#377eb8;stroke:#377eb8;" x="46.344302" xlink:href="#m8e9b2c70c6" y="90.26324"/>
     <use style="fill:#377eb8;stroke:#377eb8;" x="44.661065" xlink:href="#m8e9b2c70c6" y="98.143588"/>
     <use style="fill:#377eb8;stroke:#377eb8;" x="46.042321" xlink:href="#m8e9b2c70c6" y="102.66109"/>
     <use style="fill:#377eb8;stroke:#377eb8;" x="49.35088" xlink:href="#m8e9b2c70c6" y="104.141192"/>
     <use style="fill:#377eb8;stroke:#377eb8;" x="54.82052" xlink:href="#m8e9b2c70c6" y="99.954443"/>
     <use style="fill:#377eb8;stroke:#377eb8;" x="60.018056" xlink:href="#m8e9b2c70c6" y="93.85772"/>
     <use style="fill:#377eb8;stroke:#377eb8;" x="65.004926" xlink:href="#m8e9b2c70c6" y="84.115952"/>
     <use style="fill:#377eb8;stroke:#377eb8;" x="68.52592" xlink:href="#m8e9b2c70c6" y="74.165365"/>
     <use style="fill:#377eb8;stroke:#377eb8;" x="70.473166" xlink:href="#m8e9b2c70c6" y="65.591704"/>
     <use style="fill:#377eb8;stroke:#377eb8;" x="71.141559" xlink:href="#m8e9b2c70c6" y="60.655962"/>
     <use style="fill:#377eb8;stroke:#377eb8;" x="71.370259" xlink:href="#m8e9b2c70c6" y="60.51881"/>
     <use style="fill:#377eb8;stroke:#377eb8;" x="72.079285" xlink:href="#m8e9b2c70c6" y="64.432825"/>
     <use style="fill:#377eb8;stroke:#377eb8;" x="73.947621" xlink:href="#m8e9b2c70c6" y="71.409159"/>
     <use style="fill:#377eb8;stroke:#377eb8;" x="77.171964" xlink:href="#m8e9b2c70c6" y="79.563267"/>
     <use style="fill:#377eb8;stroke:#377eb8;" x="81.310047" xlink:href="#m8e9b2c70c6" y="86.639001"/>
     <use style="fill:#377eb8;stroke:#377eb8;" x="85.842875" xlink:href="#m8e9b2c70c6" y="91.775352"/>
     <use style="fill:#377eb8;stroke:#377eb8;" x="89.959106" xlink:href="#m8e9b2c70c6" y="94.097092"/>
     <use style="fill:#377eb8;stroke:#377eb8;" x="92.3081" xlink:href="#m8e9b2c70c6" y="92.410967"/>
     <use style="fill:#377eb8;stroke:#377eb8;" x="94.977863" xlink:href="#m8e9b2c70c6" y="91.233069"/>
     <use style="fill:#377eb8;stroke:#377eb8;" x="94.051113" xlink:href="#m8e9b2c70c6" y="85.495084"/>
     <use style="fill:#377eb8;stroke:#377eb8;" x="91.507606" xlink:href="#m8e9b2c70c6" y="79.054685"/>
     <use style="fill:#377eb8;stroke:#377eb8;" x="87.159114" xlink:href="#m8e9b2c70c6" y="72.160307"/>
     <use style="fill:#377eb8;stroke:#377eb8;" x="81.992532" xlink:href="#m8e9b2c70c6" y="66.0182"/>
     <use style="fill:#377eb8;stroke:#377eb8;" x="77.316053" xlink:href="#m8e9b2c70c6" y="61.561214"/>
     <use style="fill:#377eb8;stroke:#377eb8;" x="74.341325" xlink:href="#m8e9b2c70c6" y="59.166227"/>
     <use style="fill:#377eb8;stroke:#377eb8;" x="73.504268" xlink:href="#m8e9b2c70c6" y="58.452862"/>
     <use style="fill:#377eb8;stroke:#377eb8;" x="76.150238" xlink:href="#m8e9b2c70c6" y="59.379712"/>
     <use style="fill:#377eb8;stroke:#377eb8;" x="81.423385" xlink:href="#m8e9b2c70c6" y="60.798629"/>
     <use style="fill:#377eb8;stroke:#377eb8;" x="84.942791" xlink:href="#m8e9b2c70c6" y="60.960957"/>
     <use style="fill:#377eb8;stroke:#377eb8;" x="96.256805" xlink:href="#m8e9b2c70c6" y="62.149367"/>
     <use style="fill:#377eb8;stroke:#377eb8;" x="103.377575" xlink:href="#m8e9b2c70c6" y="61.230195"/>
     <use style="fill:#377eb8;stroke:#377eb8;" x="108.935722" xlink:href="#m8e9b2c70c6" y="59.257537"/>
    </g>
   </g>
  </g>
 </g>
 <defs>
  <clipPath id="pbd371aea27">
   <path d="M 125.560625 57.278962 
C 125.560625 50.140473 124.154498 43.071396 121.422716 36.476291 
C 118.690935 29.881186 114.686624 23.888312 109.63895 18.840638 
C 104.591275 13.792963 98.598401 9.788653 92.003296 7.056871 
C 85.408192 4.325089 78.339115 2.918962 71.200625 2.918962 
C 64.062135 2.918962 56.993058 4.325089 50.397954 7.056871 
C 43.802849 9.788653 37.809975 13.792963 32.7623 18.840638 
C 27.714626 23.888312 23.710315 29.881186 20.978534 36.476291 
C 18.246752 43.071396 16.840625 50.140473 16.840625 57.278962 
C 16.840625 64.417452 18.246752 71.486529 20.978534 78.081634 
C 23.710315 84.676738 27.714626 90.669612 32.7623 95.717287 
C 37.809975 100.764961 43.802849 104.769272 50.397954 107.501054 
C 56.993058 110.232835 64.062135 111.638962 71.200625 111.638962 
C 78.339115 111.638962 85.408192 110.232835 92.003296 107.501054 
C 98.598401 104.769272 104.591275 100.764961 109.63895 95.717287 
C 114.686624 90.669612 118.690935 84.676738 121.422716 78.081634 
C 124.154498 71.486529 125.560625 64.417452 125.560625 57.278962 
M 71.200625 57.278962 
C 71.200625 57.278962 71.200625 57.278962 71.200625 57.278962 
C 71.200625 57.278962 71.200625 57.278962 71.200625 57.278962 
C 71.200625 57.278962 71.200625 57.278962 71.200625 57.278962 
C 71.200625 57.278962 71.200625 57.278962 71.200625 57.278962 
C 71.200625 57.278962 71.200625 57.278962 71.200625 57.278962 
C 71.200625 57.278962 71.200625 57.278962 71.200625 57.278962 
C 71.200625 57.278962 71.200625 57.278962 71.200625 57.278962 
C 71.200625 57.278962 71.200625 57.278962 71.200625 57.278962 
C 71.200625 57.278962 71.200625 57.278962 71.200625 57.278962 
C 71.200625 57.278962 71.200625 57.278962 71.200625 57.278962 
C 71.200625 57.278962 71.200625 57.278962 71.200625 57.278962 
C 71.200625 57.278962 71.200625 57.278962 71.200625 57.278962 
C 71.200625 57.278962 71.200625 57.278962 71.200625 57.278962 
C 71.200625 57.278962 71.200625 57.278962 71.200625 57.278962 
C 71.200625 57.278962 71.200625 57.278962 71.200625 57.278962 
C 71.200625 57.278962 71.200625 57.278962 71.200625 57.278962 
M 125.560625 57.278962 
z
"/>
  </clipPath>
 </defs>
</svg>
