<?xml version="1.0" encoding="utf-8" standalone="no"?>
<!DOCTYPE svg PUBLIC "-//W3C//DTD SVG 1.1//EN"
  "http://www.w3.org/Graphics/SVG/1.1/DTD/svg11.dtd">
<!-- Created with matplotlib (https://matplotlib.org/) -->
<svg height="114.557925pt" version="1.1" viewBox="0 0 136.840312 114.557925" width="136.840312pt" xmlns="http://www.w3.org/2000/svg" xmlns:xlink="http://www.w3.org/1999/xlink">
 <metadata>
  <rdf:RDF xmlns:cc="http://creativecommons.org/ns#" xmlns:dc="http://purl.org/dc/elements/1.1/" xmlns:rdf="http://www.w3.org/1999/02/22-rdf-syntax-ns#">
   <cc:Work>
    <dc:type rdf:resource="http://purl.org/dc/dcmitype/StillImage"/>
    <dc:date>2020-12-07T22:43:30.053959</dc:date>
    <dc:format>image/svg+xml</dc:format>
    <dc:creator>
     <cc:Agent>
      <dc:title>Matplotlib v3.3.0, https://matplotlib.org/</dc:title>
     </cc:Agent>
    </dc:creator>
   </cc:Work>
  </rdf:RDF>
 </metadata>
 <defs>
  <style type="text/css">*{stroke-linecap:butt;stroke-linejoin:round;}</style>
 </defs>
 <g id="figure_1">
  <g id="patch_1">
   <path d="M 0 114.557925 
L 136.840312 114.557925 
L 136.840312 0 
L 0 0 
z
" style="fill:none;"/>
  </g>
  <g id="axes_1">
   <g id="patch_2">
    <path d="M 125.560625 57.278962 
C 125.560625 50.140473 124.154498 43.071396 121.422716 36.476291 
C 118.690935 29.881186 114.686624 23.888312 109.63895 18.840638 
C 104.591275 13.792963 98.598401 9.788653 92.003296 7.056871 
C 85.408192 4.325089 78.339115 2.918962 71.200625 2.918962 
C 64.062135 2.918962 56.993058 4.325089 50.397954 7.056871 
C 43.802849 9.788653 37.809975 13.792963 32.7623 18.840638 
C 27.714626 23.888312 23.710315 29.881186 20.978534 36.476291 
C 18.246752 43.071396 16.840625 50.140473 16.840625 57.278962 
C 16.840625 64.417452 18.246752 71.486529 20.978534 78.081634 
C 23.710315 84.676738 27.714626 90.669612 32.7623 95.717287 
C 37.809975 100.764961 43.802849 104.769272 50.397954 107.501054 
C 56.993058 110.232835 64.062135 111.638962 71.200625 111.638962 
C 78.339115 111.638962 85.408192 110.232835 92.003296 107.501054 
C 98.598401 104.769272 104.591275 100.764961 109.63895 95.717287 
C 114.686624 90.669612 118.690935 84.676738 121.422716 78.081634 
C 124.154498 71.486529 125.560625 64.417452 125.560625 57.278962 
M 71.200625 57.278962 
C 71.200625 57.278962 71.200625 57.278962 71.200625 57.278962 
C 71.200625 57.278962 71.200625 57.278962 71.200625 57.278962 
C 71.200625 57.278962 71.200625 57.278962 71.200625 57.278962 
C 71.200625 57.278962 71.200625 57.278962 71.200625 57.278962 
C 71.200625 57.278962 71.200625 57.278962 71.200625 57.278962 
C 71.200625 57.278962 71.200625 57.278962 71.200625 57.278962 
C 71.200625 57.278962 71.200625 57.278962 71.200625 57.278962 
C 71.200625 57.278962 71.200625 57.278962 71.200625 57.278962 
C 71.200625 57.278962 71.200625 57.278962 71.200625 57.278962 
C 71.200625 57.278962 71.200625 57.278962 71.200625 57.278962 
C 71.200625 57.278962 71.200625 57.278962 71.200625 57.278962 
C 71.200625 57.278962 71.200625 57.278962 71.200625 57.278962 
C 71.200625 57.278962 71.200625 57.278962 71.200625 57.278962 
C 71.200625 57.278962 71.200625 57.278962 71.200625 57.278962 
C 71.200625 57.278962 71.200625 57.278962 71.200625 57.278962 
C 71.200625 57.278962 71.200625 57.278962 71.200625 57.278962 
M 125.560625 57.278962 
z
" style="fill:none;"/>
   </g>
   <g id="matplotlib.axis_1">
    <g id="xtick_1">
     <g id="line2d_1">
      <path clip-path="url(#p0efb7e72ba)" d="M 71.200625 57.278962 
L 125.560625 57.278962 
" style="fill:none;stroke:#b0b0b0;stroke-linecap:square;stroke-width:0.8;"/>
     </g>
     <g id="text_1">
      <!-- 0° -->
      <g transform="translate(127.280937 59.864119)scale(0.1 -0.1)">
       <defs>
        <path d="M 4.15625 35.296875 
Q 4.15625 48 6.765625 55.734375 
Q 9.375 63.484375 14.515625 67.671875 
Q 19.671875 71.875 27.484375 71.875 
Q 33.25 71.875 37.59375 69.546875 
Q 41.9375 67.234375 44.765625 62.859375 
Q 47.609375 58.5 49.21875 52.21875 
Q 50.828125 45.953125 50.828125 35.296875 
Q 50.828125 22.703125 48.234375 14.96875 
Q 45.65625 7.234375 40.5 3 
Q 35.359375 -1.21875 27.484375 -1.21875 
Q 17.140625 -1.21875 11.234375 6.203125 
Q 4.15625 15.140625 4.15625 35.296875 
z
M 13.1875 35.296875 
Q 13.1875 17.671875 17.3125 11.828125 
Q 21.4375 6 27.484375 6 
Q 33.546875 6 37.671875 11.859375 
Q 41.796875 17.71875 41.796875 35.296875 
Q 41.796875 52.984375 37.671875 58.78125 
Q 33.546875 64.59375 27.390625 64.59375 
Q 21.34375 64.59375 17.71875 59.46875 
Q 13.1875 52.9375 13.1875 35.296875 
z
" id="ArialMT-48"/>
        <path d="M 6.25 59.28125 
Q 6.25 64.890625 10.21875 68.84375 
Q 14.203125 72.796875 19.78125 72.796875 
Q 25.4375 72.796875 29.390625 68.84375 
Q 33.34375 64.890625 33.34375 59.28125 
Q 33.34375 53.65625 29.359375 49.671875 
Q 25.390625 45.703125 19.78125 45.703125 
Q 14.203125 45.703125 10.21875 49.65625 
Q 6.25 53.609375 6.25 59.28125 
z
M 11.578125 59.28125 
Q 11.578125 55.859375 13.984375 53.4375 
Q 16.40625 51.03125 19.828125 51.03125 
Q 23.1875 51.03125 25.609375 53.4375 
Q 28.03125 55.859375 28.03125 59.28125 
Q 28.03125 62.703125 25.609375 65.109375 
Q 23.1875 67.53125 19.828125 67.53125 
Q 16.40625 67.53125 13.984375 65.109375 
Q 11.578125 62.703125 11.578125 59.28125 
z
" id="ArialMT-176"/>
       </defs>
       <use xlink:href="#ArialMT-48"/>
       <use x="55.615234" xlink:href="#ArialMT-176"/>
      </g>
     </g>
    </g>
    <g id="xtick_2">
     <g id="line2d_2">
      <path clip-path="url(#p0efb7e72ba)" d="M 71.200625 57.278962 
L 98.380625 10.201821 
" style="fill:none;stroke:#b0b0b0;stroke-linecap:square;stroke-width:0.8;"/>
     </g>
     <g id="text_2">
      <!-- 60° -->
      <g transform="translate(94.070469 7.157812)scale(0.1 -0.1)">
       <defs>
        <path d="M 49.75 54.046875 
L 41.015625 53.375 
Q 39.84375 58.546875 37.703125 60.890625 
Q 34.125 64.65625 28.90625 64.65625 
Q 24.703125 64.65625 21.53125 62.3125 
Q 17.390625 59.28125 14.984375 53.46875 
Q 12.59375 47.65625 12.5 36.921875 
Q 15.671875 41.75 20.265625 44.09375 
Q 24.859375 46.4375 29.890625 46.4375 
Q 38.671875 46.4375 44.84375 39.96875 
Q 51.03125 33.5 51.03125 23.25 
Q 51.03125 16.5 48.125 10.71875 
Q 45.21875 4.9375 40.140625 1.859375 
Q 35.0625 -1.21875 28.609375 -1.21875 
Q 17.625 -1.21875 10.6875 6.859375 
Q 3.765625 14.9375 3.765625 33.5 
Q 3.765625 54.25 11.421875 63.671875 
Q 18.109375 71.875 29.4375 71.875 
Q 37.890625 71.875 43.28125 67.140625 
Q 48.6875 62.40625 49.75 54.046875 
z
M 13.875 23.1875 
Q 13.875 18.65625 15.796875 14.5 
Q 17.71875 10.359375 21.1875 8.171875 
Q 24.65625 6 28.46875 6 
Q 34.03125 6 38.03125 10.484375 
Q 42.046875 14.984375 42.046875 22.703125 
Q 42.046875 30.125 38.078125 34.390625 
Q 34.125 38.671875 28.125 38.671875 
Q 22.171875 38.671875 18.015625 34.390625 
Q 13.875 30.125 13.875 23.1875 
z
" id="ArialMT-54"/>
       </defs>
       <use xlink:href="#ArialMT-54"/>
       <use x="55.615234" xlink:href="#ArialMT-48"/>
       <use x="111.230469" xlink:href="#ArialMT-176"/>
      </g>
     </g>
    </g>
    <g id="xtick_3">
     <g id="line2d_3">
      <path clip-path="url(#p0efb7e72ba)" d="M 71.200625 57.278962 
L 44.020625 10.201821 
" style="fill:none;stroke:#b0b0b0;stroke-linecap:square;stroke-width:0.8;"/>
     </g>
     <g id="text_3">
      <!-- 120° -->
      <g transform="translate(30.43 7.157812)scale(0.1 -0.1)">
       <defs>
        <path d="M 37.25 0 
L 28.46875 0 
L 28.46875 56 
Q 25.296875 52.984375 20.140625 49.953125 
Q 14.984375 46.921875 10.890625 45.40625 
L 10.890625 53.90625 
Q 18.265625 57.375 23.78125 62.296875 
Q 29.296875 67.234375 31.59375 71.875 
L 37.25 71.875 
z
" id="ArialMT-49"/>
        <path d="M 50.34375 8.453125 
L 50.34375 0 
L 3.03125 0 
Q 2.9375 3.171875 4.046875 6.109375 
Q 5.859375 10.9375 9.828125 15.625 
Q 13.8125 20.3125 21.34375 26.46875 
Q 33.015625 36.03125 37.109375 41.625 
Q 41.21875 47.21875 41.21875 52.203125 
Q 41.21875 57.421875 37.46875 61 
Q 33.734375 64.59375 27.734375 64.59375 
Q 21.390625 64.59375 17.578125 60.78125 
Q 13.765625 56.984375 13.71875 50.25 
L 4.6875 51.171875 
Q 5.609375 61.28125 11.65625 66.578125 
Q 17.71875 71.875 27.9375 71.875 
Q 38.234375 71.875 44.234375 66.15625 
Q 50.25 60.453125 50.25 52 
Q 50.25 47.703125 48.484375 43.546875 
Q 46.734375 39.40625 42.65625 34.8125 
Q 38.578125 30.21875 29.109375 22.21875 
Q 21.1875 15.578125 18.9375 13.203125 
Q 16.703125 10.84375 15.234375 8.453125 
z
" id="ArialMT-50"/>
       </defs>
       <use xlink:href="#ArialMT-49"/>
       <use x="55.615234" xlink:href="#ArialMT-50"/>
       <use x="111.230469" xlink:href="#ArialMT-48"/>
       <use x="166.845703" xlink:href="#ArialMT-176"/>
      </g>
     </g>
    </g>
    <g id="xtick_4">
     <g id="line2d_4">
      <path clip-path="url(#p0efb7e72ba)" d="M 71.200625 57.278962 
L 16.840625 57.278962 
" style="fill:none;stroke:#b0b0b0;stroke-linecap:square;stroke-width:0.8;"/>
     </g>
     <g id="text_4">
      <!-- 180° -->
      <g transform="translate(0 59.864119)scale(0.1 -0.1)">
       <defs>
        <path d="M 17.671875 38.8125 
Q 12.203125 40.828125 9.5625 44.53125 
Q 6.9375 48.25 6.9375 53.421875 
Q 6.9375 61.234375 12.546875 66.546875 
Q 18.171875 71.875 27.484375 71.875 
Q 36.859375 71.875 42.578125 66.421875 
Q 48.296875 60.984375 48.296875 53.171875 
Q 48.296875 48.1875 45.671875 44.5 
Q 43.0625 40.828125 37.75 38.8125 
Q 44.34375 36.671875 47.78125 31.875 
Q 51.21875 27.09375 51.21875 20.453125 
Q 51.21875 11.28125 44.71875 5.03125 
Q 38.234375 -1.21875 27.640625 -1.21875 
Q 17.046875 -1.21875 10.546875 5.046875 
Q 4.046875 11.328125 4.046875 20.703125 
Q 4.046875 27.6875 7.59375 32.390625 
Q 11.140625 37.109375 17.671875 38.8125 
z
M 15.921875 53.71875 
Q 15.921875 48.640625 19.1875 45.40625 
Q 22.46875 42.1875 27.6875 42.1875 
Q 32.765625 42.1875 36.015625 45.375 
Q 39.265625 48.578125 39.265625 53.21875 
Q 39.265625 58.0625 35.90625 61.359375 
Q 32.5625 64.65625 27.59375 64.65625 
Q 22.5625 64.65625 19.234375 61.421875 
Q 15.921875 58.203125 15.921875 53.71875 
z
M 13.09375 20.65625 
Q 13.09375 16.890625 14.875 13.375 
Q 16.65625 9.859375 20.171875 7.921875 
Q 23.6875 6 27.734375 6 
Q 34.03125 6 38.125 10.046875 
Q 42.234375 14.109375 42.234375 20.359375 
Q 42.234375 26.703125 38.015625 30.859375 
Q 33.796875 35.015625 27.4375 35.015625 
Q 21.234375 35.015625 17.15625 30.90625 
Q 13.09375 26.8125 13.09375 20.65625 
z
" id="ArialMT-56"/>
       </defs>
       <use xlink:href="#ArialMT-49"/>
       <use x="55.615234" xlink:href="#ArialMT-56"/>
       <use x="111.230469" xlink:href="#ArialMT-48"/>
       <use x="166.845703" xlink:href="#ArialMT-176"/>
      </g>
     </g>
    </g>
    <g id="xtick_5">
     <g id="line2d_5">
      <path clip-path="url(#p0efb7e72ba)" d="M 71.200625 57.278962 
L 44.020625 104.356103 
" style="fill:none;stroke:#b0b0b0;stroke-linecap:square;stroke-width:0.8;"/>
     </g>
     <g id="text_5">
      <!-- 240° -->
      <g transform="translate(30.43 112.570425)scale(0.1 -0.1)">
       <defs>
        <path d="M 32.328125 0 
L 32.328125 17.140625 
L 1.265625 17.140625 
L 1.265625 25.203125 
L 33.9375 71.578125 
L 41.109375 71.578125 
L 41.109375 25.203125 
L 50.78125 25.203125 
L 50.78125 17.140625 
L 41.109375 17.140625 
L 41.109375 0 
z
M 32.328125 25.203125 
L 32.328125 57.46875 
L 9.90625 25.203125 
z
" id="ArialMT-52"/>
       </defs>
       <use xlink:href="#ArialMT-50"/>
       <use x="55.615234" xlink:href="#ArialMT-52"/>
       <use x="111.230469" xlink:href="#ArialMT-48"/>
       <use x="166.845703" xlink:href="#ArialMT-176"/>
      </g>
     </g>
    </g>
    <g id="xtick_6">
     <g id="line2d_6">
      <path clip-path="url(#p0efb7e72ba)" d="M 71.200625 57.278962 
L 98.380625 104.356103 
" style="fill:none;stroke:#b0b0b0;stroke-linecap:square;stroke-width:0.8;"/>
     </g>
     <g id="text_6">
      <!-- 300° -->
      <g transform="translate(91.29 112.570425)scale(0.1 -0.1)">
       <defs>
        <path d="M 4.203125 18.890625 
L 12.984375 20.0625 
Q 14.5 12.59375 18.140625 9.296875 
Q 21.78125 6 27 6 
Q 33.203125 6 37.46875 10.296875 
Q 41.75 14.59375 41.75 20.953125 
Q 41.75 27 37.796875 30.921875 
Q 33.84375 34.859375 27.734375 34.859375 
Q 25.25 34.859375 21.53125 33.890625 
L 22.515625 41.609375 
Q 23.390625 41.5 23.921875 41.5 
Q 29.546875 41.5 34.03125 44.421875 
Q 38.53125 47.359375 38.53125 53.46875 
Q 38.53125 58.296875 35.25 61.46875 
Q 31.984375 64.65625 26.8125 64.65625 
Q 21.6875 64.65625 18.265625 61.421875 
Q 14.84375 58.203125 13.875 51.765625 
L 5.078125 53.328125 
Q 6.6875 62.15625 12.390625 67.015625 
Q 18.109375 71.875 26.609375 71.875 
Q 32.46875 71.875 37.390625 69.359375 
Q 42.328125 66.84375 44.9375 62.5 
Q 47.5625 58.15625 47.5625 53.265625 
Q 47.5625 48.640625 45.0625 44.828125 
Q 42.578125 41.015625 37.703125 38.765625 
Q 44.046875 37.3125 47.5625 32.6875 
Q 51.078125 28.078125 51.078125 21.140625 
Q 51.078125 11.765625 44.234375 5.25 
Q 37.40625 -1.265625 26.953125 -1.265625 
Q 17.53125 -1.265625 11.296875 4.34375 
Q 5.078125 9.96875 4.203125 18.890625 
z
" id="ArialMT-51"/>
       </defs>
       <use xlink:href="#ArialMT-51"/>
       <use x="55.615234" xlink:href="#ArialMT-48"/>
       <use x="111.230469" xlink:href="#ArialMT-48"/>
       <use x="166.845703" xlink:href="#ArialMT-176"/>
      </g>
     </g>
    </g>
   </g>
   <g id="matplotlib.axis_2">
    <g id="ytick_1">
     <g id="line2d_7">
      <path clip-path="url(#p0efb7e72ba)" d="M 97.087584 57.278962 
C 97.087584 53.879518 96.417968 50.513129 95.117057 47.372452 
C 93.816146 44.231775 91.90924 41.377888 89.505469 38.974118 
C 87.101699 36.570348 84.247813 34.663441 81.107135 33.36253 
C 77.966458 32.061619 74.600069 31.392003 71.200625 31.392003 
C 67.801181 31.392003 64.434792 32.061619 61.294115 33.36253 
C 58.153437 34.663441 55.299551 36.570348 52.895781 38.974118 
C 50.49201 41.377888 48.585104 44.231775 47.284193 47.372452 
C 45.983282 50.513129 45.313666 53.879518 45.313666 57.278962 
C 45.313666 60.678407 45.983282 64.044796 47.284193 67.185473 
C 48.585104 70.32615 50.49201 73.180037 52.895781 75.583807 
C 55.299551 77.987577 58.153437 79.894483 61.294115 81.195394 
C 64.434792 82.496305 67.801181 83.165922 71.200625 83.165922 
C 74.600069 83.165922 77.966458 82.496305 81.107135 81.195394 
C 84.247813 79.894483 87.101699 77.987577 89.505469 75.583807 
C 91.90924 73.180037 93.816146 70.32615 95.117057 67.185473 
C 96.417968 64.044796 97.087584 60.678407 97.087584 57.278962 
" style="fill:none;stroke:#b0b0b0;stroke-linecap:square;stroke-width:0.8;"/>
     </g>
    </g>
    <g id="ytick_2">
     <g id="line2d_8">
      <path clip-path="url(#p0efb7e72ba)" d="M 122.974544 57.278962 
C 122.974544 50.480074 121.635311 43.747296 119.033489 37.465941 
C 116.431667 31.184587 112.617854 25.476814 107.810314 20.669273 
C 103.002774 15.861733 97.295 12.047921 91.013646 9.446099 
C 84.732292 6.844277 77.999514 5.505044 71.200625 5.505044 
C 64.401736 5.505044 57.668958 6.844277 51.387604 9.446099 
C 45.10625 12.047921 39.398476 15.861733 34.590936 20.669273 
C 29.783396 25.476814 25.969583 31.184587 23.367761 37.465941 
C 20.765939 43.747296 19.426706 50.480074 19.426706 57.278962 
C 19.426706 64.077851 20.765939 70.810629 23.367761 77.091983 
C 25.969583 83.373337 29.783396 89.081111 34.590936 93.888651 
C 39.398476 98.696192 45.10625 102.510004 51.387604 105.111826 
C 57.668958 107.713648 64.401736 109.052881 71.200625 109.052881 
C 77.999514 109.052881 84.732292 107.713648 91.013646 105.111826 
C 97.295 102.510004 103.002774 98.696192 107.810314 93.888651 
C 112.617854 89.081111 116.431667 83.373337 119.033489 77.091983 
C 121.635311 70.810629 122.974544 64.077851 122.974544 57.278962 
" style="fill:none;stroke:#b0b0b0;stroke-linecap:square;stroke-width:0.8;"/>
     </g>
    </g>
   </g>
   <g id="line2d_9">
    <path clip-path="url(#p0efb7e72ba)" d="M 76.31397 57.18971 
L 78.673087 56.62521 
L 79.890761 55.902577 
L 81.537213 54.892603 
L 82.771482 53.741345 
L 83.955291 52.382892 
L 83.371553 51.6036 
L 80.130762 52.328854 
L 76.989977 53.519302 
L 74.054212 55.128638 
L 72.32296 56.303341 
L 72.733323 55.746258 
L 76.000813 51.756993 
L 80.820503 44.513073 
L 86.628595 33.521851 
L 90.752678 22.002036 
L 91.433808 13.884685 
L 89.753635 8.943422 
L 85.684831 9.901625 
L 81.156289 14.156939 
L 76.493136 23.866976 
L 73.418998 31.931559 
L 71.51109 39.536168 
L 70.58006 45.4478 
L 70.224026 49.327213 
L 70.096358 51.59853 
L 69.575036 51.212285 
L 68.740901 50.1352 
L 67.3054 48.101824 
L 65.719434 46.520582 
L 64.452387 46.046777 
L 63.778221 46.679539 
L 64.28154 48.735046 
L 65.072895 50.707936 
L 66.507636 52.90267 
L 68.040856 54.720158 
L 69.35062 55.9835 
L 70.081638 56.606545 
L 70.673336 57.010326 
L 70.969766 57.180977 
L 71.102938 57.245328 
L 71.114543 57.255897 
L 70.984212 57.236894 
L 70.724465 57.220488 
L 70.39556 57.236744 
L 70.041634 57.299139 
L 69.525929 57.425548 
L 68.506255 57.705785 
L 67.443298 58.146467 
L 65.992002 58.871406 
L 65.697164 59.391469 
L 65.048934 60.147356 
L 66.388353 59.946208 
L 68.527089 59.015362 
L 70.510082 57.799362 
L 71.113854 57.354394 
L 69.562137 58.917481 
L 65.953418 63.315135 
L 60.803479 71.075948 
L 55.912031 80.81977 
L 52.76889 90.527281 
L 52.345892 97.717643 
L 54.906941 99.729287 
L 58.788636 97.879217 
L 63.551033 90.413562 
L 67.625335 79.85109 
L 70.110872 69.731665 
L 71.100331 63.013082 
L 71.283335 58.858647 
L 71.226205 57.487227 
L 71.239393 57.478379 
L 71.393983 58.000551 
L 71.59163 58.41453 
L 71.822262 58.743506 
L 71.949755 58.749313 
L 71.946836 58.520981 
L 72.01507 58.441996 
L 72.062105 58.342731 
L 72.008846 58.14564 
L 71.959748 57.986847 
L 71.707715 57.689602 
L 71.604446 57.561733 
L 71.426962 57.414969 
L 71.308527 57.333948 
L 71.248761 57.299392 
L 71.313135 57.317699 
L 71.572239 57.37853 
L 72.064712 57.446923 
L 72.350841 57.420205 
L 73.285906 57.3883 
" style="fill:none;stroke:#377eb8;stroke-linecap:square;"/>
    <defs>
     <path d="M 0 0.75 
C 0.198902 0.75 0.389685 0.670975 0.53033 0.53033 
C 0.670975 0.389685 0.75 0.198902 0.75 0 
C 0.75 -0.198902 0.670975 -0.389685 0.53033 -0.53033 
C 0.389685 -0.670975 0.198902 -0.75 0 -0.75 
C -0.198902 -0.75 -0.389685 -0.670975 -0.53033 -0.53033 
C -0.670975 -0.389685 -0.75 -0.198902 -0.75 0 
C -0.75 0.198902 -0.670975 0.389685 -0.53033 0.53033 
C -0.389685 0.670975 -0.198902 0.75 0 0.75 
z
" id="m10343c7a0c" style="stroke:#377eb8;"/>
    </defs>
    <g clip-path="url(#p0efb7e72ba)">
     <use style="fill:#377eb8;stroke:#377eb8;" x="76.31397" xlink:href="#m10343c7a0c" y="57.18971"/>
     <use style="fill:#377eb8;stroke:#377eb8;" x="78.673087" xlink:href="#m10343c7a0c" y="56.62521"/>
     <use style="fill:#377eb8;stroke:#377eb8;" x="79.890761" xlink:href="#m10343c7a0c" y="55.902577"/>
     <use style="fill:#377eb8;stroke:#377eb8;" x="81.537213" xlink:href="#m10343c7a0c" y="54.892603"/>
     <use style="fill:#377eb8;stroke:#377eb8;" x="82.771482" xlink:href="#m10343c7a0c" y="53.741345"/>
     <use style="fill:#377eb8;stroke:#377eb8;" x="83.955291" xlink:href="#m10343c7a0c" y="52.382892"/>
     <use style="fill:#377eb8;stroke:#377eb8;" x="83.371553" xlink:href="#m10343c7a0c" y="51.6036"/>
     <use style="fill:#377eb8;stroke:#377eb8;" x="80.130762" xlink:href="#m10343c7a0c" y="52.328854"/>
     <use style="fill:#377eb8;stroke:#377eb8;" x="76.989977" xlink:href="#m10343c7a0c" y="53.519302"/>
     <use style="fill:#377eb8;stroke:#377eb8;" x="74.054212" xlink:href="#m10343c7a0c" y="55.128638"/>
     <use style="fill:#377eb8;stroke:#377eb8;" x="72.32296" xlink:href="#m10343c7a0c" y="56.303341"/>
     <use style="fill:#377eb8;stroke:#377eb8;" x="72.733323" xlink:href="#m10343c7a0c" y="55.746258"/>
     <use style="fill:#377eb8;stroke:#377eb8;" x="76.000813" xlink:href="#m10343c7a0c" y="51.756993"/>
     <use style="fill:#377eb8;stroke:#377eb8;" x="80.820503" xlink:href="#m10343c7a0c" y="44.513073"/>
     <use style="fill:#377eb8;stroke:#377eb8;" x="86.628595" xlink:href="#m10343c7a0c" y="33.521851"/>
     <use style="fill:#377eb8;stroke:#377eb8;" x="90.752678" xlink:href="#m10343c7a0c" y="22.002036"/>
     <use style="fill:#377eb8;stroke:#377eb8;" x="91.433808" xlink:href="#m10343c7a0c" y="13.884685"/>
     <use style="fill:#377eb8;stroke:#377eb8;" x="89.753635" xlink:href="#m10343c7a0c" y="8.943422"/>
     <use style="fill:#377eb8;stroke:#377eb8;" x="85.684831" xlink:href="#m10343c7a0c" y="9.901625"/>
     <use style="fill:#377eb8;stroke:#377eb8;" x="81.156289" xlink:href="#m10343c7a0c" y="14.156939"/>
     <use style="fill:#377eb8;stroke:#377eb8;" x="76.493136" xlink:href="#m10343c7a0c" y="23.866976"/>
     <use style="fill:#377eb8;stroke:#377eb8;" x="73.418998" xlink:href="#m10343c7a0c" y="31.931559"/>
     <use style="fill:#377eb8;stroke:#377eb8;" x="71.51109" xlink:href="#m10343c7a0c" y="39.536168"/>
     <use style="fill:#377eb8;stroke:#377eb8;" x="70.58006" xlink:href="#m10343c7a0c" y="45.4478"/>
     <use style="fill:#377eb8;stroke:#377eb8;" x="70.224026" xlink:href="#m10343c7a0c" y="49.327213"/>
     <use style="fill:#377eb8;stroke:#377eb8;" x="70.096358" xlink:href="#m10343c7a0c" y="51.59853"/>
     <use style="fill:#377eb8;stroke:#377eb8;" x="69.575036" xlink:href="#m10343c7a0c" y="51.212285"/>
     <use style="fill:#377eb8;stroke:#377eb8;" x="68.740901" xlink:href="#m10343c7a0c" y="50.1352"/>
     <use style="fill:#377eb8;stroke:#377eb8;" x="67.3054" xlink:href="#m10343c7a0c" y="48.101824"/>
     <use style="fill:#377eb8;stroke:#377eb8;" x="65.719434" xlink:href="#m10343c7a0c" y="46.520582"/>
     <use style="fill:#377eb8;stroke:#377eb8;" x="64.452387" xlink:href="#m10343c7a0c" y="46.046777"/>
     <use style="fill:#377eb8;stroke:#377eb8;" x="63.778221" xlink:href="#m10343c7a0c" y="46.679539"/>
     <use style="fill:#377eb8;stroke:#377eb8;" x="64.28154" xlink:href="#m10343c7a0c" y="48.735046"/>
     <use style="fill:#377eb8;stroke:#377eb8;" x="65.072895" xlink:href="#m10343c7a0c" y="50.707936"/>
     <use style="fill:#377eb8;stroke:#377eb8;" x="66.507636" xlink:href="#m10343c7a0c" y="52.90267"/>
     <use style="fill:#377eb8;stroke:#377eb8;" x="68.040856" xlink:href="#m10343c7a0c" y="54.720158"/>
     <use style="fill:#377eb8;stroke:#377eb8;" x="69.35062" xlink:href="#m10343c7a0c" y="55.9835"/>
     <use style="fill:#377eb8;stroke:#377eb8;" x="70.081638" xlink:href="#m10343c7a0c" y="56.606545"/>
     <use style="fill:#377eb8;stroke:#377eb8;" x="70.673336" xlink:href="#m10343c7a0c" y="57.010326"/>
     <use style="fill:#377eb8;stroke:#377eb8;" x="70.969766" xlink:href="#m10343c7a0c" y="57.180977"/>
     <use style="fill:#377eb8;stroke:#377eb8;" x="71.102938" xlink:href="#m10343c7a0c" y="57.245328"/>
     <use style="fill:#377eb8;stroke:#377eb8;" x="71.114543" xlink:href="#m10343c7a0c" y="57.255897"/>
     <use style="fill:#377eb8;stroke:#377eb8;" x="70.984212" xlink:href="#m10343c7a0c" y="57.236894"/>
     <use style="fill:#377eb8;stroke:#377eb8;" x="70.724465" xlink:href="#m10343c7a0c" y="57.220488"/>
     <use style="fill:#377eb8;stroke:#377eb8;" x="70.39556" xlink:href="#m10343c7a0c" y="57.236744"/>
     <use style="fill:#377eb8;stroke:#377eb8;" x="70.041634" xlink:href="#m10343c7a0c" y="57.299139"/>
     <use style="fill:#377eb8;stroke:#377eb8;" x="69.525929" xlink:href="#m10343c7a0c" y="57.425548"/>
     <use style="fill:#377eb8;stroke:#377eb8;" x="68.506255" xlink:href="#m10343c7a0c" y="57.705785"/>
     <use style="fill:#377eb8;stroke:#377eb8;" x="67.443298" xlink:href="#m10343c7a0c" y="58.146467"/>
     <use style="fill:#377eb8;stroke:#377eb8;" x="65.992002" xlink:href="#m10343c7a0c" y="58.871406"/>
     <use style="fill:#377eb8;stroke:#377eb8;" x="65.697164" xlink:href="#m10343c7a0c" y="59.391469"/>
     <use style="fill:#377eb8;stroke:#377eb8;" x="65.048934" xlink:href="#m10343c7a0c" y="60.147356"/>
     <use style="fill:#377eb8;stroke:#377eb8;" x="66.388353" xlink:href="#m10343c7a0c" y="59.946208"/>
     <use style="fill:#377eb8;stroke:#377eb8;" x="68.527089" xlink:href="#m10343c7a0c" y="59.015362"/>
     <use style="fill:#377eb8;stroke:#377eb8;" x="70.510082" xlink:href="#m10343c7a0c" y="57.799362"/>
     <use style="fill:#377eb8;stroke:#377eb8;" x="71.113854" xlink:href="#m10343c7a0c" y="57.354394"/>
     <use style="fill:#377eb8;stroke:#377eb8;" x="69.562137" xlink:href="#m10343c7a0c" y="58.917481"/>
     <use style="fill:#377eb8;stroke:#377eb8;" x="65.953418" xlink:href="#m10343c7a0c" y="63.315135"/>
     <use style="fill:#377eb8;stroke:#377eb8;" x="60.803479" xlink:href="#m10343c7a0c" y="71.075948"/>
     <use style="fill:#377eb8;stroke:#377eb8;" x="55.912031" xlink:href="#m10343c7a0c" y="80.81977"/>
     <use style="fill:#377eb8;stroke:#377eb8;" x="52.76889" xlink:href="#m10343c7a0c" y="90.527281"/>
     <use style="fill:#377eb8;stroke:#377eb8;" x="52.345892" xlink:href="#m10343c7a0c" y="97.717643"/>
     <use style="fill:#377eb8;stroke:#377eb8;" x="54.906941" xlink:href="#m10343c7a0c" y="99.729287"/>
     <use style="fill:#377eb8;stroke:#377eb8;" x="58.788636" xlink:href="#m10343c7a0c" y="97.879217"/>
     <use style="fill:#377eb8;stroke:#377eb8;" x="63.551033" xlink:href="#m10343c7a0c" y="90.413562"/>
     <use style="fill:#377eb8;stroke:#377eb8;" x="67.625335" xlink:href="#m10343c7a0c" y="79.85109"/>
     <use style="fill:#377eb8;stroke:#377eb8;" x="70.110872" xlink:href="#m10343c7a0c" y="69.731665"/>
     <use style="fill:#377eb8;stroke:#377eb8;" x="71.100331" xlink:href="#m10343c7a0c" y="63.013082"/>
     <use style="fill:#377eb8;stroke:#377eb8;" x="71.283335" xlink:href="#m10343c7a0c" y="58.858647"/>
     <use style="fill:#377eb8;stroke:#377eb8;" x="71.226205" xlink:href="#m10343c7a0c" y="57.487227"/>
     <use style="fill:#377eb8;stroke:#377eb8;" x="71.239393" xlink:href="#m10343c7a0c" y="57.478379"/>
     <use style="fill:#377eb8;stroke:#377eb8;" x="71.393983" xlink:href="#m10343c7a0c" y="58.000551"/>
     <use style="fill:#377eb8;stroke:#377eb8;" x="71.59163" xlink:href="#m10343c7a0c" y="58.41453"/>
     <use style="fill:#377eb8;stroke:#377eb8;" x="71.822262" xlink:href="#m10343c7a0c" y="58.743506"/>
     <use style="fill:#377eb8;stroke:#377eb8;" x="71.949755" xlink:href="#m10343c7a0c" y="58.749313"/>
     <use style="fill:#377eb8;stroke:#377eb8;" x="71.946836" xlink:href="#m10343c7a0c" y="58.520981"/>
     <use style="fill:#377eb8;stroke:#377eb8;" x="72.01507" xlink:href="#m10343c7a0c" y="58.441996"/>
     <use style="fill:#377eb8;stroke:#377eb8;" x="72.062105" xlink:href="#m10343c7a0c" y="58.342731"/>
     <use style="fill:#377eb8;stroke:#377eb8;" x="72.008846" xlink:href="#m10343c7a0c" y="58.14564"/>
     <use style="fill:#377eb8;stroke:#377eb8;" x="71.959748" xlink:href="#m10343c7a0c" y="57.986847"/>
     <use style="fill:#377eb8;stroke:#377eb8;" x="71.707715" xlink:href="#m10343c7a0c" y="57.689602"/>
     <use style="fill:#377eb8;stroke:#377eb8;" x="71.604446" xlink:href="#m10343c7a0c" y="57.561733"/>
     <use style="fill:#377eb8;stroke:#377eb8;" x="71.426962" xlink:href="#m10343c7a0c" y="57.414969"/>
     <use style="fill:#377eb8;stroke:#377eb8;" x="71.308527" xlink:href="#m10343c7a0c" y="57.333948"/>
     <use style="fill:#377eb8;stroke:#377eb8;" x="71.248761" xlink:href="#m10343c7a0c" y="57.299392"/>
     <use style="fill:#377eb8;stroke:#377eb8;" x="71.313135" xlink:href="#m10343c7a0c" y="57.317699"/>
     <use style="fill:#377eb8;stroke:#377eb8;" x="71.572239" xlink:href="#m10343c7a0c" y="57.37853"/>
     <use style="fill:#377eb8;stroke:#377eb8;" x="72.064712" xlink:href="#m10343c7a0c" y="57.446923"/>
     <use style="fill:#377eb8;stroke:#377eb8;" x="72.350841" xlink:href="#m10343c7a0c" y="57.420205"/>
     <use style="fill:#377eb8;stroke:#377eb8;" x="73.285906" xlink:href="#m10343c7a0c" y="57.3883"/>
    </g>
   </g>
  </g>
 </g>
 <defs>
  <clipPath id="p0efb7e72ba">
   <path d="M 125.560625 57.278962 
C 125.560625 50.140473 124.154498 43.071396 121.422716 36.476291 
C 118.690935 29.881186 114.686624 23.888312 109.63895 18.840638 
C 104.591275 13.792963 98.598401 9.788653 92.003296 7.056871 
C 85.408192 4.325089 78.339115 2.918962 71.200625 2.918962 
C 64.062135 2.918962 56.993058 4.325089 50.397954 7.056871 
C 43.802849 9.788653 37.809975 13.792963 32.7623 18.840638 
C 27.714626 23.888312 23.710315 29.881186 20.978534 36.476291 
C 18.246752 43.071396 16.840625 50.140473 16.840625 57.278962 
C 16.840625 64.417452 18.246752 71.486529 20.978534 78.081634 
C 23.710315 84.676738 27.714626 90.669612 32.7623 95.717287 
C 37.809975 100.764961 43.802849 104.769272 50.397954 107.501054 
C 56.993058 110.232835 64.062135 111.638962 71.200625 111.638962 
C 78.339115 111.638962 85.408192 110.232835 92.003296 107.501054 
C 98.598401 104.769272 104.591275 100.764961 109.63895 95.717287 
C 114.686624 90.669612 118.690935 84.676738 121.422716 78.081634 
C 124.154498 71.486529 125.560625 64.417452 125.560625 57.278962 
M 71.200625 57.278962 
C 71.200625 57.278962 71.200625 57.278962 71.200625 57.278962 
C 71.200625 57.278962 71.200625 57.278962 71.200625 57.278962 
C 71.200625 57.278962 71.200625 57.278962 71.200625 57.278962 
C 71.200625 57.278962 71.200625 57.278962 71.200625 57.278962 
C 71.200625 57.278962 71.200625 57.278962 71.200625 57.278962 
C 71.200625 57.278962 71.200625 57.278962 71.200625 57.278962 
C 71.200625 57.278962 71.200625 57.278962 71.200625 57.278962 
C 71.200625 57.278962 71.200625 57.278962 71.200625 57.278962 
C 71.200625 57.278962 71.200625 57.278962 71.200625 57.278962 
C 71.200625 57.278962 71.200625 57.278962 71.200625 57.278962 
C 71.200625 57.278962 71.200625 57.278962 71.200625 57.278962 
C 71.200625 57.278962 71.200625 57.278962 71.200625 57.278962 
C 71.200625 57.278962 71.200625 57.278962 71.200625 57.278962 
C 71.200625 57.278962 71.200625 57.278962 71.200625 57.278962 
C 71.200625 57.278962 71.200625 57.278962 71.200625 57.278962 
C 71.200625 57.278962 71.200625 57.278962 71.200625 57.278962 
M 125.560625 57.278962 
z
"/>
  </clipPath>
 </defs>
</svg>
