<?xml version="1.0" encoding="utf-8" standalone="no"?>
<!DOCTYPE svg PUBLIC "-//W3C//DTD SVG 1.1//EN"
  "http://www.w3.org/Graphics/SVG/1.1/DTD/svg11.dtd">
<!-- Created with matplotlib (https://matplotlib.org/) -->
<svg height="114.557925pt" version="1.1" viewBox="0 0 136.840312 114.557925" width="136.840312pt" xmlns="http://www.w3.org/2000/svg" xmlns:xlink="http://www.w3.org/1999/xlink">
 <defs>
  <style type="text/css">
*{stroke-linecap:butt;stroke-linejoin:round;}
  </style>
 </defs>
 <g id="figure_1">
  <g id="patch_1">
   <path d="M 0 114.557925 
L 136.840312 114.557925 
L 136.840312 0 
L 0 0 
z
" style="fill:none;"/>
  </g>
  <g id="axes_1">
   <g id="patch_2">
    <path d="M 125.560625 57.278962 
C 125.560625 50.140473 124.154498 43.071396 121.422716 36.476291 
C 118.690935 29.881186 114.686624 23.888312 109.63895 18.840638 
C 104.591275 13.792963 98.598401 9.788653 92.003296 7.056871 
C 85.408192 4.325089 78.339115 2.918962 71.200625 2.918962 
C 64.062135 2.918962 56.993058 4.325089 50.397954 7.056871 
C 43.802849 9.788653 37.809975 13.792963 32.7623 18.840638 
C 27.714626 23.888312 23.710315 29.881186 20.978534 36.476291 
C 18.246752 43.071396 16.840625 50.140473 16.840625 57.278962 
C 16.840625 64.417452 18.246752 71.486529 20.978534 78.081634 
C 23.710315 84.676738 27.714626 90.669612 32.7623 95.717287 
C 37.809975 100.764961 43.802849 104.769272 50.397954 107.501054 
C 56.993058 110.232835 64.062135 111.638962 71.200625 111.638962 
C 78.339115 111.638962 85.408192 110.232835 92.003296 107.501054 
C 98.598401 104.769272 104.591275 100.764961 109.63895 95.717287 
C 114.686624 90.669612 118.690935 84.676738 121.422716 78.081634 
C 124.154498 71.486529 125.560625 64.417452 125.560625 57.278962 
M 71.200625 57.278962 
C 71.200625 57.278962 71.200625 57.278962 71.200625 57.278962 
C 71.200625 57.278962 71.200625 57.278962 71.200625 57.278962 
C 71.200625 57.278962 71.200625 57.278962 71.200625 57.278962 
C 71.200625 57.278962 71.200625 57.278962 71.200625 57.278962 
C 71.200625 57.278962 71.200625 57.278962 71.200625 57.278962 
C 71.200625 57.278962 71.200625 57.278962 71.200625 57.278962 
C 71.200625 57.278962 71.200625 57.278962 71.200625 57.278962 
C 71.200625 57.278962 71.200625 57.278962 71.200625 57.278962 
C 71.200625 57.278962 71.200625 57.278962 71.200625 57.278962 
C 71.200625 57.278962 71.200625 57.278962 71.200625 57.278962 
C 71.200625 57.278962 71.200625 57.278962 71.200625 57.278962 
C 71.200625 57.278962 71.200625 57.278962 71.200625 57.278962 
C 71.200625 57.278962 71.200625 57.278962 71.200625 57.278962 
C 71.200625 57.278962 71.200625 57.278962 71.200625 57.278962 
C 71.200625 57.278962 71.200625 57.278962 71.200625 57.278962 
C 71.200625 57.278962 71.200625 57.278962 71.200625 57.278962 
M 125.560625 57.278962 
z
" style="fill:none;"/>
   </g>
   <g id="matplotlib.axis_1">
    <g id="xtick_1">
     <g id="line2d_1">
      <path clip-path="url(#pe6fe7d0c85)" d="M 71.200625 57.278962 
L 125.560625 57.278962 
" style="fill:none;stroke:#b0b0b0;stroke-linecap:square;stroke-width:0.8;"/>
     </g>
     <g id="text_1">
      <text style="font-family:Arial;font-size:10px;font-style:normal;font-weight:normal;text-anchor:middle;" transform="rotate(-0, 132.060625, 59.864119)" x="132.060625" y="59.864119">0°</text>
     </g>
    </g>
    <g id="xtick_2">
     <g id="line2d_2">
      <path clip-path="url(#pe6fe7d0c85)" d="M 71.200625 57.278962 
L 98.380625 10.201821 
" style="fill:none;stroke:#b0b0b0;stroke-linecap:square;stroke-width:0.8;"/>
     </g>
     <g id="text_2">
      <text style="font-family:Arial;font-size:10px;font-style:normal;font-weight:normal;text-anchor:middle;" transform="rotate(-0, 101.630625, 7.157813)" x="101.630625" y="7.157813">60°</text>
     </g>
    </g>
    <g id="xtick_3">
     <g id="line2d_3">
      <path clip-path="url(#pe6fe7d0c85)" d="M 71.200625 57.278962 
L 44.020625 10.201821 
" style="fill:none;stroke:#b0b0b0;stroke-linecap:square;stroke-width:0.8;"/>
     </g>
     <g id="text_3">
      <text style="font-family:Arial;font-size:10px;font-style:normal;font-weight:normal;text-anchor:middle;" transform="rotate(-0, 40.770625, 7.157812)" x="40.770625" y="7.157812">120°</text>
     </g>
    </g>
    <g id="xtick_4">
     <g id="line2d_4">
      <path clip-path="url(#pe6fe7d0c85)" d="M 71.200625 57.278962 
L 16.840625 57.278962 
" style="fill:none;stroke:#b0b0b0;stroke-linecap:square;stroke-width:0.8;"/>
     </g>
     <g id="text_4">
      <text style="font-family:Arial;font-size:10px;font-style:normal;font-weight:normal;text-anchor:middle;" transform="rotate(-0, 10.340625, 59.864119)" x="10.340625" y="59.864119">180°</text>
     </g>
    </g>
    <g id="xtick_5">
     <g id="line2d_5">
      <path clip-path="url(#pe6fe7d0c85)" d="M 71.200625 57.278962 
L 44.020625 104.356103 
" style="fill:none;stroke:#b0b0b0;stroke-linecap:square;stroke-width:0.8;"/>
     </g>
     <g id="text_5">
      <text style="font-family:Arial;font-size:10px;font-style:normal;font-weight:normal;text-anchor:middle;" transform="rotate(-0, 40.770625, 112.570425)" x="40.770625" y="112.570425">240°</text>
     </g>
    </g>
    <g id="xtick_6">
     <g id="line2d_6">
      <path clip-path="url(#pe6fe7d0c85)" d="M 71.200625 57.278962 
L 98.380625 104.356103 
" style="fill:none;stroke:#b0b0b0;stroke-linecap:square;stroke-width:0.8;"/>
     </g>
     <g id="text_6">
      <text style="font-family:Arial;font-size:10px;font-style:normal;font-weight:normal;text-anchor:middle;" transform="rotate(-0, 101.630625, 112.570425)" x="101.630625" y="112.570425">300°</text>
     </g>
    </g>
   </g>
   <g id="matplotlib.axis_2">
    <g id="ytick_1">
     <g id="line2d_7">
      <path clip-path="url(#pe6fe7d0c85)" d="M 98.375357 57.278962 
L 98.226491 54.438429 
L 97.781524 51.629018 
L 97.045331 48.881508 
L 96.025978 46.226003 
L 94.734633 43.691596 
L 93.185445 41.306056 
L 91.395387 39.095517 
L 89.38407 37.084201 
L 87.173532 35.294142 
L 84.787991 33.744954 
L 82.253584 32.453609 
L 79.598079 31.434256 
L 76.85057 30.698063 
L 74.041158 30.253096 
L 71.200625 30.10423 
L 68.360092 30.253096 
L 65.55068 30.698063 
L 62.803171 31.434256 
L 60.147666 32.453609 
L 57.613259 33.744954 
L 55.227718 35.294142 
L 53.01718 37.084201 
L 51.005863 39.095517 
L 49.215805 41.306056 
L 47.666617 43.691596 
L 46.375272 46.226003 
L 45.355919 48.881508 
L 44.619726 51.629018 
L 44.174759 54.438429 
L 44.025893 57.278962 
L 44.174759 60.119495 
L 44.619726 62.928907 
L 45.355919 65.676416 
L 46.375272 68.331922 
L 47.666617 70.866328 
L 49.215805 73.251869 
L 51.005863 75.462407 
L 53.01718 77.473724 
L 55.227718 79.263782 
L 57.613259 80.812971 
L 60.147666 82.104315 
L 62.803171 83.123668 
L 65.55068 83.859861 
L 68.360092 84.304828 
L 71.200625 84.453694 
L 74.041158 84.304828 
L 76.85057 83.859861 
L 79.598079 83.123668 
L 82.253584 82.104315 
L 84.787991 80.812971 
L 87.173532 79.263782 
L 89.38407 77.473724 
L 91.395387 75.462407 
L 93.185445 73.251869 
L 94.734633 70.866328 
L 96.025978 68.331922 
L 97.045331 65.676416 
L 97.781524 62.928907 
L 98.226491 60.119495 
L 98.375357 57.278962 
L 98.375357 57.278962 
" style="fill:none;stroke:#b0b0b0;stroke-linecap:square;stroke-width:0.8;"/>
     </g>
    </g>
    <g id="ytick_2">
     <g id="line2d_8">
      <path clip-path="url(#pe6fe7d0c85)" d="M 123.089716 57.278962 
L 122.963317 53.659362 
L 122.584735 50.057397 
L 121.955815 46.490614 
L 121.079621 42.976391 
L 119.960421 39.531848 
L 118.603668 36.173768 
L 117.015973 32.91851 
L 115.20507 29.781933 
L 113.179781 26.77932 
L 110.949975 23.925298 
L 108.526513 21.233771 
L 105.921204 18.717853 
L 103.146739 16.389801 
L 100.216636 14.260956 
L 97.14517 12.341691 
L 93.947305 10.641356 
L 90.638621 9.168235 
L 87.235236 7.929504 
L 83.753732 6.931199 
L 80.211071 6.178183 
L 76.624512 5.674125 
L 73.011528 5.421481 
L 69.389722 5.421481 
L 65.776738 5.674125 
L 62.190179 6.178183 
L 58.647518 6.931199 
L 55.166014 7.929504 
L 51.762629 9.168235 
L 48.453945 10.641356 
L 45.25608 12.341691 
L 42.184614 14.260956 
L 39.254511 16.389801 
L 36.480046 18.717853 
L 33.874737 21.233771 
L 31.451275 23.925298 
L 29.221469 26.77932 
L 27.19618 29.781933 
L 25.385277 32.91851 
L 23.797582 36.173768 
L 22.440829 39.531848 
L 21.321629 42.976391 
L 20.445435 46.490614 
L 19.816515 50.057397 
L 19.437933 53.659362 
L 19.311534 57.278962 
L 19.437933 60.898562 
L 19.816515 64.500528 
L 20.445435 68.067311 
L 21.321629 71.581534 
L 22.440829 75.026077 
L 23.797582 78.384157 
L 25.385277 81.639415 
L 27.19618 84.775991 
L 29.221469 87.778605 
L 31.451275 90.632627 
L 33.874737 93.324154 
L 36.480046 95.840072 
L 39.254511 98.168124 
L 42.184614 100.296968 
L 45.25608 102.216233 
L 48.453945 103.916568 
L 51.762629 105.38969 
L 55.166014 106.62842 
L 58.647518 107.626725 
L 62.190179 108.379741 
L 65.776738 108.883799 
L 69.389722 109.136444 
L 73.011528 109.136444 
L 76.624512 108.883799 
L 80.211071 108.379741 
L 83.753732 107.626725 
L 87.235236 106.62842 
L 90.638621 105.38969 
L 93.947305 103.916568 
L 97.14517 102.216233 
L 100.216636 100.296968 
L 103.146739 98.168124 
L 105.921204 95.840072 
L 108.526513 93.324154 
L 110.949975 90.632627 
L 113.179781 87.778605 
L 115.20507 84.775991 
L 117.015973 81.639415 
L 118.603668 78.384157 
L 119.960421 75.026077 
L 121.079621 71.581534 
L 121.955815 68.067311 
L 122.584735 64.500528 
L 122.963317 60.898562 
L 123.089716 57.278962 
L 123.089716 57.278962 
" style="fill:none;stroke:#b0b0b0;stroke-linecap:square;stroke-width:0.8;"/>
     </g>
    </g>
   </g>
   <g id="line2d_9">
    <path clip-path="url(#pe6fe7d0c85)" d="M 73.712773 57.235113 
L 73.739998 57.056797 
L 73.757312 56.874022 
L 73.751659 56.690017 
L 73.72013 56.508661 
L 73.652335 56.337837 
L 73.55068 56.18312 
L 73.429008 56.043736 
L 73.303911 55.913068 
L 73.182909 55.78521 
L 73.070146 55.653829 
L 72.952897 55.526684 
L 72.83189 55.402412 
L 72.718237 55.265042 
L 72.618229 55.096032 
L 72.518664 54.900881 
L 72.416388 54.671504 
L 72.288396 54.44503 
L 72.151424 54.168933 
L 71.980106 53.902713 
L 71.778766 53.629118 
L 71.526529 53.55514 
L 71.262893 53.720432 
L 71.030611 54.037622 
L 70.843843 54.373943 
L 70.699451 54.700884 
L 70.561096 54.89225 
L 70.383314 54.90525 
L 70.145559 54.793231 
L 69.850691 54.629337 
L 69.52872 54.496141 
L 69.182389 54.396858 
L 68.852783 54.379768 
L 68.538549 54.424304 
L 68.327176 54.599422 
L 68.206256 54.8541 
L 68.182051 55.165211 
L 68.245685 55.503292 
L 68.353411 55.8284 
L 68.519178 56.14086 
L 68.671806 56.408276 
L 68.746326 56.621353 
L 68.700887 56.793046 
L 68.526277 56.95054 
L 68.128937 57.117881 
L 67.344277 57.346098 
L 65.76703 57.754564 
L 61.895728 58.752978 
L 57.153485 60.522215 
L 51.839464 63.198292 
L 46.518286 66.753291 
L 44.096121 69.917176 
L 45.486251 71.531391 
L 48.802429 71.826071 
L 54.417809 69.926656 
L 59.964549 67.046775 
L 64.642192 63.837516 
L 68.094376 60.852264 
L 69.600301 59.402588 
L 68.925463 60.782172 
L 66.381754 65.971544 
L 63.042659 74.775756 
L 60.261945 85.777768 
L 59.065947 96.972117 
L 60.059905 105.535563 
L 63.082904 108.529137 
L 67.071829 104.45908 
L 70.503098 97.158684 
L 72.715668 86.214747 
L 73.525501 76.207616 
L 73.291052 68.031855 
L 72.682337 62.808528 
L 72.260148 60.356056 
L 72.196361 59.624865 
L 72.452781 59.736625 
L 72.904166 60.114395 
L 73.317749 60.302234 
L 73.615588 60.260994 
L 73.726024 59.987016 
L 73.768734 59.673733 
L 73.664718 59.274374 
L 73.572171 58.939607 
L 73.613053 58.728605 
L 73.617955 58.510795 
L 73.687358 58.334399 
L 73.682023 58.133301 
L 73.707911 57.95075 
L 73.739809 57.772527 
L 73.768269 57.594261 
L 73.792561 57.414866 
" style="fill:none;stroke:#377eb8;stroke-linecap:square;"/>
    <defs>
     <path d="M 0 0.75 
C 0.198902 0.75 0.389685 0.670975 0.53033 0.53033 
C 0.670975 0.389685 0.75 0.198902 0.75 0 
C 0.75 -0.198902 0.670975 -0.389685 0.53033 -0.53033 
C 0.389685 -0.670975 0.198902 -0.75 0 -0.75 
C -0.198902 -0.75 -0.389685 -0.670975 -0.53033 -0.53033 
C -0.670975 -0.389685 -0.75 -0.198902 -0.75 0 
C -0.75 0.198902 -0.670975 0.389685 -0.53033 0.53033 
C -0.389685 0.670975 -0.198902 0.75 0 0.75 
z
" id="mfbbe140c6b" style="stroke:#377eb8;"/>
    </defs>
    <g clip-path="url(#pe6fe7d0c85)">
     <use style="fill:#377eb8;stroke:#377eb8;" x="73.712773" xlink:href="#mfbbe140c6b" y="57.235113"/>
     <use style="fill:#377eb8;stroke:#377eb8;" x="73.739998" xlink:href="#mfbbe140c6b" y="57.056797"/>
     <use style="fill:#377eb8;stroke:#377eb8;" x="73.757312" xlink:href="#mfbbe140c6b" y="56.874022"/>
     <use style="fill:#377eb8;stroke:#377eb8;" x="73.751659" xlink:href="#mfbbe140c6b" y="56.690017"/>
     <use style="fill:#377eb8;stroke:#377eb8;" x="73.72013" xlink:href="#mfbbe140c6b" y="56.508661"/>
     <use style="fill:#377eb8;stroke:#377eb8;" x="73.652335" xlink:href="#mfbbe140c6b" y="56.337837"/>
     <use style="fill:#377eb8;stroke:#377eb8;" x="73.55068" xlink:href="#mfbbe140c6b" y="56.18312"/>
     <use style="fill:#377eb8;stroke:#377eb8;" x="73.429008" xlink:href="#mfbbe140c6b" y="56.043736"/>
     <use style="fill:#377eb8;stroke:#377eb8;" x="73.303911" xlink:href="#mfbbe140c6b" y="55.913068"/>
     <use style="fill:#377eb8;stroke:#377eb8;" x="73.182909" xlink:href="#mfbbe140c6b" y="55.78521"/>
     <use style="fill:#377eb8;stroke:#377eb8;" x="73.070146" xlink:href="#mfbbe140c6b" y="55.653829"/>
     <use style="fill:#377eb8;stroke:#377eb8;" x="72.952897" xlink:href="#mfbbe140c6b" y="55.526684"/>
     <use style="fill:#377eb8;stroke:#377eb8;" x="72.83189" xlink:href="#mfbbe140c6b" y="55.402412"/>
     <use style="fill:#377eb8;stroke:#377eb8;" x="72.718237" xlink:href="#mfbbe140c6b" y="55.265042"/>
     <use style="fill:#377eb8;stroke:#377eb8;" x="72.618229" xlink:href="#mfbbe140c6b" y="55.096032"/>
     <use style="fill:#377eb8;stroke:#377eb8;" x="72.518664" xlink:href="#mfbbe140c6b" y="54.900881"/>
     <use style="fill:#377eb8;stroke:#377eb8;" x="72.416388" xlink:href="#mfbbe140c6b" y="54.671504"/>
     <use style="fill:#377eb8;stroke:#377eb8;" x="72.288396" xlink:href="#mfbbe140c6b" y="54.44503"/>
     <use style="fill:#377eb8;stroke:#377eb8;" x="72.151424" xlink:href="#mfbbe140c6b" y="54.168933"/>
     <use style="fill:#377eb8;stroke:#377eb8;" x="71.980106" xlink:href="#mfbbe140c6b" y="53.902713"/>
     <use style="fill:#377eb8;stroke:#377eb8;" x="71.778766" xlink:href="#mfbbe140c6b" y="53.629118"/>
     <use style="fill:#377eb8;stroke:#377eb8;" x="71.526529" xlink:href="#mfbbe140c6b" y="53.55514"/>
     <use style="fill:#377eb8;stroke:#377eb8;" x="71.262893" xlink:href="#mfbbe140c6b" y="53.720432"/>
     <use style="fill:#377eb8;stroke:#377eb8;" x="71.030611" xlink:href="#mfbbe140c6b" y="54.037622"/>
     <use style="fill:#377eb8;stroke:#377eb8;" x="70.843843" xlink:href="#mfbbe140c6b" y="54.373943"/>
     <use style="fill:#377eb8;stroke:#377eb8;" x="70.699451" xlink:href="#mfbbe140c6b" y="54.700884"/>
     <use style="fill:#377eb8;stroke:#377eb8;" x="70.561096" xlink:href="#mfbbe140c6b" y="54.89225"/>
     <use style="fill:#377eb8;stroke:#377eb8;" x="70.383314" xlink:href="#mfbbe140c6b" y="54.90525"/>
     <use style="fill:#377eb8;stroke:#377eb8;" x="70.145559" xlink:href="#mfbbe140c6b" y="54.793231"/>
     <use style="fill:#377eb8;stroke:#377eb8;" x="69.850691" xlink:href="#mfbbe140c6b" y="54.629337"/>
     <use style="fill:#377eb8;stroke:#377eb8;" x="69.52872" xlink:href="#mfbbe140c6b" y="54.496141"/>
     <use style="fill:#377eb8;stroke:#377eb8;" x="69.182389" xlink:href="#mfbbe140c6b" y="54.396858"/>
     <use style="fill:#377eb8;stroke:#377eb8;" x="68.852783" xlink:href="#mfbbe140c6b" y="54.379768"/>
     <use style="fill:#377eb8;stroke:#377eb8;" x="68.538549" xlink:href="#mfbbe140c6b" y="54.424304"/>
     <use style="fill:#377eb8;stroke:#377eb8;" x="68.327176" xlink:href="#mfbbe140c6b" y="54.599422"/>
     <use style="fill:#377eb8;stroke:#377eb8;" x="68.206256" xlink:href="#mfbbe140c6b" y="54.8541"/>
     <use style="fill:#377eb8;stroke:#377eb8;" x="68.182051" xlink:href="#mfbbe140c6b" y="55.165211"/>
     <use style="fill:#377eb8;stroke:#377eb8;" x="68.245685" xlink:href="#mfbbe140c6b" y="55.503292"/>
     <use style="fill:#377eb8;stroke:#377eb8;" x="68.353411" xlink:href="#mfbbe140c6b" y="55.8284"/>
     <use style="fill:#377eb8;stroke:#377eb8;" x="68.519178" xlink:href="#mfbbe140c6b" y="56.14086"/>
     <use style="fill:#377eb8;stroke:#377eb8;" x="68.671806" xlink:href="#mfbbe140c6b" y="56.408276"/>
     <use style="fill:#377eb8;stroke:#377eb8;" x="68.746326" xlink:href="#mfbbe140c6b" y="56.621353"/>
     <use style="fill:#377eb8;stroke:#377eb8;" x="68.700887" xlink:href="#mfbbe140c6b" y="56.793046"/>
     <use style="fill:#377eb8;stroke:#377eb8;" x="68.526277" xlink:href="#mfbbe140c6b" y="56.95054"/>
     <use style="fill:#377eb8;stroke:#377eb8;" x="68.128937" xlink:href="#mfbbe140c6b" y="57.117881"/>
     <use style="fill:#377eb8;stroke:#377eb8;" x="67.344277" xlink:href="#mfbbe140c6b" y="57.346098"/>
     <use style="fill:#377eb8;stroke:#377eb8;" x="65.76703" xlink:href="#mfbbe140c6b" y="57.754564"/>
     <use style="fill:#377eb8;stroke:#377eb8;" x="61.895728" xlink:href="#mfbbe140c6b" y="58.752978"/>
     <use style="fill:#377eb8;stroke:#377eb8;" x="57.153485" xlink:href="#mfbbe140c6b" y="60.522215"/>
     <use style="fill:#377eb8;stroke:#377eb8;" x="51.839464" xlink:href="#mfbbe140c6b" y="63.198292"/>
     <use style="fill:#377eb8;stroke:#377eb8;" x="46.518286" xlink:href="#mfbbe140c6b" y="66.753291"/>
     <use style="fill:#377eb8;stroke:#377eb8;" x="44.096121" xlink:href="#mfbbe140c6b" y="69.917176"/>
     <use style="fill:#377eb8;stroke:#377eb8;" x="45.486251" xlink:href="#mfbbe140c6b" y="71.531391"/>
     <use style="fill:#377eb8;stroke:#377eb8;" x="48.802429" xlink:href="#mfbbe140c6b" y="71.826071"/>
     <use style="fill:#377eb8;stroke:#377eb8;" x="54.417809" xlink:href="#mfbbe140c6b" y="69.926656"/>
     <use style="fill:#377eb8;stroke:#377eb8;" x="59.964549" xlink:href="#mfbbe140c6b" y="67.046775"/>
     <use style="fill:#377eb8;stroke:#377eb8;" x="64.642192" xlink:href="#mfbbe140c6b" y="63.837516"/>
     <use style="fill:#377eb8;stroke:#377eb8;" x="68.094376" xlink:href="#mfbbe140c6b" y="60.852264"/>
     <use style="fill:#377eb8;stroke:#377eb8;" x="69.600301" xlink:href="#mfbbe140c6b" y="59.402588"/>
     <use style="fill:#377eb8;stroke:#377eb8;" x="68.925463" xlink:href="#mfbbe140c6b" y="60.782172"/>
     <use style="fill:#377eb8;stroke:#377eb8;" x="66.381754" xlink:href="#mfbbe140c6b" y="65.971544"/>
     <use style="fill:#377eb8;stroke:#377eb8;" x="63.042659" xlink:href="#mfbbe140c6b" y="74.775756"/>
     <use style="fill:#377eb8;stroke:#377eb8;" x="60.261945" xlink:href="#mfbbe140c6b" y="85.777768"/>
     <use style="fill:#377eb8;stroke:#377eb8;" x="59.065947" xlink:href="#mfbbe140c6b" y="96.972117"/>
     <use style="fill:#377eb8;stroke:#377eb8;" x="60.059905" xlink:href="#mfbbe140c6b" y="105.535563"/>
     <use style="fill:#377eb8;stroke:#377eb8;" x="63.082904" xlink:href="#mfbbe140c6b" y="108.529137"/>
     <use style="fill:#377eb8;stroke:#377eb8;" x="67.071829" xlink:href="#mfbbe140c6b" y="104.45908"/>
     <use style="fill:#377eb8;stroke:#377eb8;" x="70.503098" xlink:href="#mfbbe140c6b" y="97.158684"/>
     <use style="fill:#377eb8;stroke:#377eb8;" x="72.715668" xlink:href="#mfbbe140c6b" y="86.214747"/>
     <use style="fill:#377eb8;stroke:#377eb8;" x="73.525501" xlink:href="#mfbbe140c6b" y="76.207616"/>
     <use style="fill:#377eb8;stroke:#377eb8;" x="73.291052" xlink:href="#mfbbe140c6b" y="68.031855"/>
     <use style="fill:#377eb8;stroke:#377eb8;" x="72.682337" xlink:href="#mfbbe140c6b" y="62.808528"/>
     <use style="fill:#377eb8;stroke:#377eb8;" x="72.260148" xlink:href="#mfbbe140c6b" y="60.356056"/>
     <use style="fill:#377eb8;stroke:#377eb8;" x="72.196361" xlink:href="#mfbbe140c6b" y="59.624865"/>
     <use style="fill:#377eb8;stroke:#377eb8;" x="72.452781" xlink:href="#mfbbe140c6b" y="59.736625"/>
     <use style="fill:#377eb8;stroke:#377eb8;" x="72.904166" xlink:href="#mfbbe140c6b" y="60.114395"/>
     <use style="fill:#377eb8;stroke:#377eb8;" x="73.317749" xlink:href="#mfbbe140c6b" y="60.302234"/>
     <use style="fill:#377eb8;stroke:#377eb8;" x="73.615588" xlink:href="#mfbbe140c6b" y="60.260994"/>
     <use style="fill:#377eb8;stroke:#377eb8;" x="73.726024" xlink:href="#mfbbe140c6b" y="59.987016"/>
     <use style="fill:#377eb8;stroke:#377eb8;" x="73.768734" xlink:href="#mfbbe140c6b" y="59.673733"/>
     <use style="fill:#377eb8;stroke:#377eb8;" x="73.664718" xlink:href="#mfbbe140c6b" y="59.274374"/>
     <use style="fill:#377eb8;stroke:#377eb8;" x="73.572171" xlink:href="#mfbbe140c6b" y="58.939607"/>
     <use style="fill:#377eb8;stroke:#377eb8;" x="73.613053" xlink:href="#mfbbe140c6b" y="58.728605"/>
     <use style="fill:#377eb8;stroke:#377eb8;" x="73.617955" xlink:href="#mfbbe140c6b" y="58.510795"/>
     <use style="fill:#377eb8;stroke:#377eb8;" x="73.687358" xlink:href="#mfbbe140c6b" y="58.334399"/>
     <use style="fill:#377eb8;stroke:#377eb8;" x="73.682023" xlink:href="#mfbbe140c6b" y="58.133301"/>
     <use style="fill:#377eb8;stroke:#377eb8;" x="73.707911" xlink:href="#mfbbe140c6b" y="57.95075"/>
     <use style="fill:#377eb8;stroke:#377eb8;" x="73.739809" xlink:href="#mfbbe140c6b" y="57.772527"/>
     <use style="fill:#377eb8;stroke:#377eb8;" x="73.768269" xlink:href="#mfbbe140c6b" y="57.594261"/>
     <use style="fill:#377eb8;stroke:#377eb8;" x="73.792561" xlink:href="#mfbbe140c6b" y="57.414866"/>
    </g>
   </g>
  </g>
 </g>
 <defs>
  <clipPath id="pe6fe7d0c85">
   <path d="M 125.560625 57.278962 
C 125.560625 50.140473 124.154498 43.071396 121.422716 36.476291 
C 118.690935 29.881186 114.686624 23.888312 109.63895 18.840638 
C 104.591275 13.792963 98.598401 9.788653 92.003296 7.056871 
C 85.408192 4.325089 78.339115 2.918962 71.200625 2.918962 
C 64.062135 2.918962 56.993058 4.325089 50.397954 7.056871 
C 43.802849 9.788653 37.809975 13.792963 32.7623 18.840638 
C 27.714626 23.888312 23.710315 29.881186 20.978534 36.476291 
C 18.246752 43.071396 16.840625 50.140473 16.840625 57.278962 
C 16.840625 64.417452 18.246752 71.486529 20.978534 78.081634 
C 23.710315 84.676738 27.714626 90.669612 32.7623 95.717287 
C 37.809975 100.764961 43.802849 104.769272 50.397954 107.501054 
C 56.993058 110.232835 64.062135 111.638962 71.200625 111.638962 
C 78.339115 111.638962 85.408192 110.232835 92.003296 107.501054 
C 98.598401 104.769272 104.591275 100.764961 109.63895 95.717287 
C 114.686624 90.669612 118.690935 84.676738 121.422716 78.081634 
C 124.154498 71.486529 125.560625 64.417452 125.560625 57.278962 
M 71.200625 57.278962 
C 71.200625 57.278962 71.200625 57.278962 71.200625 57.278962 
C 71.200625 57.278962 71.200625 57.278962 71.200625 57.278962 
C 71.200625 57.278962 71.200625 57.278962 71.200625 57.278962 
C 71.200625 57.278962 71.200625 57.278962 71.200625 57.278962 
C 71.200625 57.278962 71.200625 57.278962 71.200625 57.278962 
C 71.200625 57.278962 71.200625 57.278962 71.200625 57.278962 
C 71.200625 57.278962 71.200625 57.278962 71.200625 57.278962 
C 71.200625 57.278962 71.200625 57.278962 71.200625 57.278962 
C 71.200625 57.278962 71.200625 57.278962 71.200625 57.278962 
C 71.200625 57.278962 71.200625 57.278962 71.200625 57.278962 
C 71.200625 57.278962 71.200625 57.278962 71.200625 57.278962 
C 71.200625 57.278962 71.200625 57.278962 71.200625 57.278962 
C 71.200625 57.278962 71.200625 57.278962 71.200625 57.278962 
C 71.200625 57.278962 71.200625 57.278962 71.200625 57.278962 
C 71.200625 57.278962 71.200625 57.278962 71.200625 57.278962 
C 71.200625 57.278962 71.200625 57.278962 71.200625 57.278962 
M 125.560625 57.278962 
z
"/>
  </clipPath>
 </defs>
</svg>
