<?xml version="1.0" encoding="utf-8" standalone="no"?>
<!DOCTYPE svg PUBLIC "-//W3C//DTD SVG 1.1//EN"
  "http://www.w3.org/Graphics/SVG/1.1/DTD/svg11.dtd">
<!-- Created with matplotlib (https://matplotlib.org/) -->
<svg height="114.557925pt" version="1.1" viewBox="0 0 136.840312 114.557925" width="136.840312pt" xmlns="http://www.w3.org/2000/svg" xmlns:xlink="http://www.w3.org/1999/xlink">
 <metadata>
  <rdf:RDF xmlns:cc="http://creativecommons.org/ns#" xmlns:dc="http://purl.org/dc/elements/1.1/" xmlns:rdf="http://www.w3.org/1999/02/22-rdf-syntax-ns#">
   <cc:Work>
    <dc:type rdf:resource="http://purl.org/dc/dcmitype/StillImage"/>
    <dc:date>2020-12-07T22:43:31.352661</dc:date>
    <dc:format>image/svg+xml</dc:format>
    <dc:creator>
     <cc:Agent>
      <dc:title>Matplotlib v3.3.0, https://matplotlib.org/</dc:title>
     </cc:Agent>
    </dc:creator>
   </cc:Work>
  </rdf:RDF>
 </metadata>
 <defs>
  <style type="text/css">*{stroke-linecap:butt;stroke-linejoin:round;}</style>
 </defs>
 <g id="figure_1">
  <g id="patch_1">
   <path d="M 0 114.557925 
L 136.840312 114.557925 
L 136.840312 0 
L 0 0 
z
" style="fill:none;"/>
  </g>
  <g id="axes_1">
   <g id="patch_2">
    <path d="M 125.560625 57.278962 
C 125.560625 50.140473 124.154498 43.071396 121.422716 36.476291 
C 118.690935 29.881186 114.686624 23.888312 109.63895 18.840638 
C 104.591275 13.792963 98.598401 9.788653 92.003296 7.056871 
C 85.408192 4.325089 78.339115 2.918962 71.200625 2.918962 
C 64.062135 2.918962 56.993058 4.325089 50.397954 7.056871 
C 43.802849 9.788653 37.809975 13.792963 32.7623 18.840638 
C 27.714626 23.888312 23.710315 29.881186 20.978534 36.476291 
C 18.246752 43.071396 16.840625 50.140473 16.840625 57.278962 
C 16.840625 64.417452 18.246752 71.486529 20.978534 78.081634 
C 23.710315 84.676738 27.714626 90.669612 32.7623 95.717287 
C 37.809975 100.764961 43.802849 104.769272 50.397954 107.501054 
C 56.993058 110.232835 64.062135 111.638962 71.200625 111.638962 
C 78.339115 111.638962 85.408192 110.232835 92.003296 107.501054 
C 98.598401 104.769272 104.591275 100.764961 109.63895 95.717287 
C 114.686624 90.669612 118.690935 84.676738 121.422716 78.081634 
C 124.154498 71.486529 125.560625 64.417452 125.560625 57.278962 
M 71.200625 57.278962 
C 71.200625 57.278962 71.200625 57.278962 71.200625 57.278962 
C 71.200625 57.278962 71.200625 57.278962 71.200625 57.278962 
C 71.200625 57.278962 71.200625 57.278962 71.200625 57.278962 
C 71.200625 57.278962 71.200625 57.278962 71.200625 57.278962 
C 71.200625 57.278962 71.200625 57.278962 71.200625 57.278962 
C 71.200625 57.278962 71.200625 57.278962 71.200625 57.278962 
C 71.200625 57.278962 71.200625 57.278962 71.200625 57.278962 
C 71.200625 57.278962 71.200625 57.278962 71.200625 57.278962 
C 71.200625 57.278962 71.200625 57.278962 71.200625 57.278962 
C 71.200625 57.278962 71.200625 57.278962 71.200625 57.278962 
C 71.200625 57.278962 71.200625 57.278962 71.200625 57.278962 
C 71.200625 57.278962 71.200625 57.278962 71.200625 57.278962 
C 71.200625 57.278962 71.200625 57.278962 71.200625 57.278962 
C 71.200625 57.278962 71.200625 57.278962 71.200625 57.278962 
C 71.200625 57.278962 71.200625 57.278962 71.200625 57.278962 
C 71.200625 57.278962 71.200625 57.278962 71.200625 57.278962 
M 125.560625 57.278962 
z
" style="fill:none;"/>
   </g>
   <g id="matplotlib.axis_1">
    <g id="xtick_1">
     <g id="line2d_1">
      <path clip-path="url(#p6a00ea68e4)" d="M 71.200625 57.278962 
L 125.560625 57.278962 
" style="fill:none;stroke:#b0b0b0;stroke-linecap:square;stroke-width:0.8;"/>
     </g>
     <g id="text_1">
      <!-- 0° -->
      <g transform="translate(127.280938 59.864119)scale(0.1 -0.1)">
       <defs>
        <path d="M 4.15625 35.296875 
Q 4.15625 48 6.765625 55.734375 
Q 9.375 63.484375 14.515625 67.671875 
Q 19.671875 71.875 27.484375 71.875 
Q 33.25 71.875 37.59375 69.546875 
Q 41.9375 67.234375 44.765625 62.859375 
Q 47.609375 58.5 49.21875 52.21875 
Q 50.828125 45.953125 50.828125 35.296875 
Q 50.828125 22.703125 48.234375 14.96875 
Q 45.65625 7.234375 40.5 3 
Q 35.359375 -1.21875 27.484375 -1.21875 
Q 17.140625 -1.21875 11.234375 6.203125 
Q 4.15625 15.140625 4.15625 35.296875 
z
M 13.1875 35.296875 
Q 13.1875 17.671875 17.3125 11.828125 
Q 21.4375 6 27.484375 6 
Q 33.546875 6 37.671875 11.859375 
Q 41.796875 17.71875 41.796875 35.296875 
Q 41.796875 52.984375 37.671875 58.78125 
Q 33.546875 64.59375 27.390625 64.59375 
Q 21.34375 64.59375 17.71875 59.46875 
Q 13.1875 52.9375 13.1875 35.296875 
z
" id="ArialMT-48"/>
        <path d="M 6.25 59.28125 
Q 6.25 64.890625 10.21875 68.84375 
Q 14.203125 72.796875 19.78125 72.796875 
Q 25.4375 72.796875 29.390625 68.84375 
Q 33.34375 64.890625 33.34375 59.28125 
Q 33.34375 53.65625 29.359375 49.671875 
Q 25.390625 45.703125 19.78125 45.703125 
Q 14.203125 45.703125 10.21875 49.65625 
Q 6.25 53.609375 6.25 59.28125 
z
M 11.578125 59.28125 
Q 11.578125 55.859375 13.984375 53.4375 
Q 16.40625 51.03125 19.828125 51.03125 
Q 23.1875 51.03125 25.609375 53.4375 
Q 28.03125 55.859375 28.03125 59.28125 
Q 28.03125 62.703125 25.609375 65.109375 
Q 23.1875 67.53125 19.828125 67.53125 
Q 16.40625 67.53125 13.984375 65.109375 
Q 11.578125 62.703125 11.578125 59.28125 
z
" id="ArialMT-176"/>
       </defs>
       <use xlink:href="#ArialMT-48"/>
       <use x="55.615234" xlink:href="#ArialMT-176"/>
      </g>
     </g>
    </g>
    <g id="xtick_2">
     <g id="line2d_2">
      <path clip-path="url(#p6a00ea68e4)" d="M 71.200625 57.278962 
L 98.380625 10.201821 
" style="fill:none;stroke:#b0b0b0;stroke-linecap:square;stroke-width:0.8;"/>
     </g>
     <g id="text_2">
      <!-- 60° -->
      <g transform="translate(94.070469 7.157813)scale(0.1 -0.1)">
       <defs>
        <path d="M 49.75 54.046875 
L 41.015625 53.375 
Q 39.84375 58.546875 37.703125 60.890625 
Q 34.125 64.65625 28.90625 64.65625 
Q 24.703125 64.65625 21.53125 62.3125 
Q 17.390625 59.28125 14.984375 53.46875 
Q 12.59375 47.65625 12.5 36.921875 
Q 15.671875 41.75 20.265625 44.09375 
Q 24.859375 46.4375 29.890625 46.4375 
Q 38.671875 46.4375 44.84375 39.96875 
Q 51.03125 33.5 51.03125 23.25 
Q 51.03125 16.5 48.125 10.71875 
Q 45.21875 4.9375 40.140625 1.859375 
Q 35.0625 -1.21875 28.609375 -1.21875 
Q 17.625 -1.21875 10.6875 6.859375 
Q 3.765625 14.9375 3.765625 33.5 
Q 3.765625 54.25 11.421875 63.671875 
Q 18.109375 71.875 29.4375 71.875 
Q 37.890625 71.875 43.28125 67.140625 
Q 48.6875 62.40625 49.75 54.046875 
z
M 13.875 23.1875 
Q 13.875 18.65625 15.796875 14.5 
Q 17.71875 10.359375 21.1875 8.171875 
Q 24.65625 6 28.46875 6 
Q 34.03125 6 38.03125 10.484375 
Q 42.046875 14.984375 42.046875 22.703125 
Q 42.046875 30.125 38.078125 34.390625 
Q 34.125 38.671875 28.125 38.671875 
Q 22.171875 38.671875 18.015625 34.390625 
Q 13.875 30.125 13.875 23.1875 
z
" id="ArialMT-54"/>
       </defs>
       <use xlink:href="#ArialMT-54"/>
       <use x="55.615234" xlink:href="#ArialMT-48"/>
       <use x="111.230469" xlink:href="#ArialMT-176"/>
      </g>
     </g>
    </g>
    <g id="xtick_3">
     <g id="line2d_3">
      <path clip-path="url(#p6a00ea68e4)" d="M 71.200625 57.278962 
L 44.020625 10.201821 
" style="fill:none;stroke:#b0b0b0;stroke-linecap:square;stroke-width:0.8;"/>
     </g>
     <g id="text_3">
      <!-- 120° -->
      <g transform="translate(30.43 7.157813)scale(0.1 -0.1)">
       <defs>
        <path d="M 37.25 0 
L 28.46875 0 
L 28.46875 56 
Q 25.296875 52.984375 20.140625 49.953125 
Q 14.984375 46.921875 10.890625 45.40625 
L 10.890625 53.90625 
Q 18.265625 57.375 23.78125 62.296875 
Q 29.296875 67.234375 31.59375 71.875 
L 37.25 71.875 
z
" id="ArialMT-49"/>
        <path d="M 50.34375 8.453125 
L 50.34375 0 
L 3.03125 0 
Q 2.9375 3.171875 4.046875 6.109375 
Q 5.859375 10.9375 9.828125 15.625 
Q 13.8125 20.3125 21.34375 26.46875 
Q 33.015625 36.03125 37.109375 41.625 
Q 41.21875 47.21875 41.21875 52.203125 
Q 41.21875 57.421875 37.46875 61 
Q 33.734375 64.59375 27.734375 64.59375 
Q 21.390625 64.59375 17.578125 60.78125 
Q 13.765625 56.984375 13.71875 50.25 
L 4.6875 51.171875 
Q 5.609375 61.28125 11.65625 66.578125 
Q 17.71875 71.875 27.9375 71.875 
Q 38.234375 71.875 44.234375 66.15625 
Q 50.25 60.453125 50.25 52 
Q 50.25 47.703125 48.484375 43.546875 
Q 46.734375 39.40625 42.65625 34.8125 
Q 38.578125 30.21875 29.109375 22.21875 
Q 21.1875 15.578125 18.9375 13.203125 
Q 16.703125 10.84375 15.234375 8.453125 
z
" id="ArialMT-50"/>
       </defs>
       <use xlink:href="#ArialMT-49"/>
       <use x="55.615234" xlink:href="#ArialMT-50"/>
       <use x="111.230469" xlink:href="#ArialMT-48"/>
       <use x="166.845703" xlink:href="#ArialMT-176"/>
      </g>
     </g>
    </g>
    <g id="xtick_4">
     <g id="line2d_4">
      <path clip-path="url(#p6a00ea68e4)" d="M 71.200625 57.278962 
L 16.840625 57.278962 
" style="fill:none;stroke:#b0b0b0;stroke-linecap:square;stroke-width:0.8;"/>
     </g>
     <g id="text_4">
      <!-- 180° -->
      <g transform="translate(0 59.864119)scale(0.1 -0.1)">
       <defs>
        <path d="M 17.671875 38.8125 
Q 12.203125 40.828125 9.5625 44.53125 
Q 6.9375 48.25 6.9375 53.421875 
Q 6.9375 61.234375 12.546875 66.546875 
Q 18.171875 71.875 27.484375 71.875 
Q 36.859375 71.875 42.578125 66.421875 
Q 48.296875 60.984375 48.296875 53.171875 
Q 48.296875 48.1875 45.671875 44.5 
Q 43.0625 40.828125 37.75 38.8125 
Q 44.34375 36.671875 47.78125 31.875 
Q 51.21875 27.09375 51.21875 20.453125 
Q 51.21875 11.28125 44.71875 5.03125 
Q 38.234375 -1.21875 27.640625 -1.21875 
Q 17.046875 -1.21875 10.546875 5.046875 
Q 4.046875 11.328125 4.046875 20.703125 
Q 4.046875 27.6875 7.59375 32.390625 
Q 11.140625 37.109375 17.671875 38.8125 
z
M 15.921875 53.71875 
Q 15.921875 48.640625 19.1875 45.40625 
Q 22.46875 42.1875 27.6875 42.1875 
Q 32.765625 42.1875 36.015625 45.375 
Q 39.265625 48.578125 39.265625 53.21875 
Q 39.265625 58.0625 35.90625 61.359375 
Q 32.5625 64.65625 27.59375 64.65625 
Q 22.5625 64.65625 19.234375 61.421875 
Q 15.921875 58.203125 15.921875 53.71875 
z
M 13.09375 20.65625 
Q 13.09375 16.890625 14.875 13.375 
Q 16.65625 9.859375 20.171875 7.921875 
Q 23.6875 6 27.734375 6 
Q 34.03125 6 38.125 10.046875 
Q 42.234375 14.109375 42.234375 20.359375 
Q 42.234375 26.703125 38.015625 30.859375 
Q 33.796875 35.015625 27.4375 35.015625 
Q 21.234375 35.015625 17.15625 30.90625 
Q 13.09375 26.8125 13.09375 20.65625 
z
" id="ArialMT-56"/>
       </defs>
       <use xlink:href="#ArialMT-49"/>
       <use x="55.615234" xlink:href="#ArialMT-56"/>
       <use x="111.230469" xlink:href="#ArialMT-48"/>
       <use x="166.845703" xlink:href="#ArialMT-176"/>
      </g>
     </g>
    </g>
    <g id="xtick_5">
     <g id="line2d_5">
      <path clip-path="url(#p6a00ea68e4)" d="M 71.200625 57.278962 
L 44.020625 104.356103 
" style="fill:none;stroke:#b0b0b0;stroke-linecap:square;stroke-width:0.8;"/>
     </g>
     <g id="text_5">
      <!-- 240° -->
      <g transform="translate(30.43 112.570425)scale(0.1 -0.1)">
       <defs>
        <path d="M 32.328125 0 
L 32.328125 17.140625 
L 1.265625 17.140625 
L 1.265625 25.203125 
L 33.9375 71.578125 
L 41.109375 71.578125 
L 41.109375 25.203125 
L 50.78125 25.203125 
L 50.78125 17.140625 
L 41.109375 17.140625 
L 41.109375 0 
z
M 32.328125 25.203125 
L 32.328125 57.46875 
L 9.90625 25.203125 
z
" id="ArialMT-52"/>
       </defs>
       <use xlink:href="#ArialMT-50"/>
       <use x="55.615234" xlink:href="#ArialMT-52"/>
       <use x="111.230469" xlink:href="#ArialMT-48"/>
       <use x="166.845703" xlink:href="#ArialMT-176"/>
      </g>
     </g>
    </g>
    <g id="xtick_6">
     <g id="line2d_6">
      <path clip-path="url(#p6a00ea68e4)" d="M 71.200625 57.278962 
L 98.380625 104.356103 
" style="fill:none;stroke:#b0b0b0;stroke-linecap:square;stroke-width:0.8;"/>
     </g>
     <g id="text_6">
      <!-- 300° -->
      <g transform="translate(91.29 112.570425)scale(0.1 -0.1)">
       <defs>
        <path d="M 4.203125 18.890625 
L 12.984375 20.0625 
Q 14.5 12.59375 18.140625 9.296875 
Q 21.78125 6 27 6 
Q 33.203125 6 37.46875 10.296875 
Q 41.75 14.59375 41.75 20.953125 
Q 41.75 27 37.796875 30.921875 
Q 33.84375 34.859375 27.734375 34.859375 
Q 25.25 34.859375 21.53125 33.890625 
L 22.515625 41.609375 
Q 23.390625 41.5 23.921875 41.5 
Q 29.546875 41.5 34.03125 44.421875 
Q 38.53125 47.359375 38.53125 53.46875 
Q 38.53125 58.296875 35.25 61.46875 
Q 31.984375 64.65625 26.8125 64.65625 
Q 21.6875 64.65625 18.265625 61.421875 
Q 14.84375 58.203125 13.875 51.765625 
L 5.078125 53.328125 
Q 6.6875 62.15625 12.390625 67.015625 
Q 18.109375 71.875 26.609375 71.875 
Q 32.46875 71.875 37.390625 69.359375 
Q 42.328125 66.84375 44.9375 62.5 
Q 47.5625 58.15625 47.5625 53.265625 
Q 47.5625 48.640625 45.0625 44.828125 
Q 42.578125 41.015625 37.703125 38.765625 
Q 44.046875 37.3125 47.5625 32.6875 
Q 51.078125 28.078125 51.078125 21.140625 
Q 51.078125 11.765625 44.234375 5.25 
Q 37.40625 -1.265625 26.953125 -1.265625 
Q 17.53125 -1.265625 11.296875 4.34375 
Q 5.078125 9.96875 4.203125 18.890625 
z
" id="ArialMT-51"/>
       </defs>
       <use xlink:href="#ArialMT-51"/>
       <use x="55.615234" xlink:href="#ArialMT-48"/>
       <use x="111.230469" xlink:href="#ArialMT-48"/>
       <use x="166.845703" xlink:href="#ArialMT-176"/>
      </g>
     </g>
    </g>
   </g>
   <g id="matplotlib.axis_2">
    <g id="ytick_1">
     <g id="line2d_7">
      <path clip-path="url(#p6a00ea68e4)" d="M 97.086442 57.278962 
C 97.086442 53.879668 96.416855 50.513428 95.116001 47.372889 
C 93.815148 44.232351 91.908325 41.37859 89.504661 38.974926 
C 87.100997 36.571262 84.247237 34.66444 81.106698 33.363586 
C 77.96616 32.062733 74.599919 31.393146 71.200625 31.393146 
C 67.801331 31.393146 64.43509 32.062733 61.294552 33.363586 
C 58.154013 34.66444 55.300253 36.571262 52.896589 38.974926 
C 50.492925 41.37859 48.586102 44.232351 47.285249 47.372889 
C 45.984395 50.513428 45.314808 53.879668 45.314808 57.278962 
C 45.314808 60.678257 45.984395 64.044497 47.285249 67.185035 
C 48.586102 70.325574 50.492925 73.179335 52.896589 75.582999 
C 55.300253 77.986663 58.154013 79.893485 61.294552 81.194338 
C 64.43509 82.495192 67.801331 83.164779 71.200625 83.164779 
C 74.599919 83.164779 77.96616 82.495192 81.106698 81.194338 
C 84.247237 79.893485 87.100997 77.986663 89.504661 75.582999 
C 91.908325 73.179335 93.815148 70.325574 95.116001 67.185035 
C 96.416855 64.044497 97.086442 60.678257 97.086442 57.278962 
" style="fill:none;stroke:#b0b0b0;stroke-linecap:square;stroke-width:0.8;"/>
     </g>
    </g>
    <g id="ytick_2">
     <g id="line2d_8">
      <path clip-path="url(#p6a00ea68e4)" d="M 122.972258 57.278962 
C 122.972258 50.480374 121.633084 43.747893 119.031377 37.466816 
C 116.42967 31.185739 112.616026 25.478218 107.808698 20.670889 
C 103.00137 15.863561 97.293848 12.049917 91.012771 9.44821 
C 84.731694 6.846503 77.999214 5.507329 71.200625 5.507329 
C 64.402036 5.507329 57.669556 6.846503 51.388479 9.44821 
C 45.107402 12.049917 39.39988 15.863561 34.592552 20.670889 
C 29.785224 25.478218 25.97158 31.185739 23.369873 37.466816 
C 20.768166 43.747893 19.428992 50.480374 19.428992 57.278962 
C 19.428992 64.077551 20.768166 70.810032 23.369873 77.091109 
C 25.97158 83.372185 29.785224 89.079707 34.592552 93.887035 
C 39.39988 98.694363 45.107402 102.508007 51.388479 105.109715 
C 57.669556 107.711422 64.402036 109.050596 71.200625 109.050596 
C 77.999214 109.050596 84.731694 107.711422 91.012771 105.109715 
C 97.293848 102.508007 103.00137 98.694363 107.808698 93.887035 
C 112.616026 89.079707 116.42967 83.372185 119.031377 77.091109 
C 121.633084 70.810032 122.972258 64.077551 122.972258 57.278962 
" style="fill:none;stroke:#b0b0b0;stroke-linecap:square;stroke-width:0.8;"/>
     </g>
    </g>
   </g>
   <g id="line2d_9">
    <path clip-path="url(#p6a00ea68e4)" d="M 71.633629 57.271404 
L 73.22235 57.102085 
L 77.150093 56.336657 
L 81.76174 54.840768 
L 93.040706 50.601683 
L 103.978594 44.696647 
L 111.358505 38.553149 
L 113.5414 33.808837 
L 110.638816 31.667426 
L 103.291056 33.09718 
L 92.735553 38.559124 
L 82.103221 46.376326 
L 74.776831 53.165019 
L 71.538929 56.830022 
L 72.73185 54.921071 
L 77.280161 46.309917 
L 82.451798 33.148477 
L 85.898227 18.987788 
L 86.336708 7.769357 
L 82.815441 6.970474 
L 78.851055 8.981268 
L 73.968944 25.647811 
L 71.528775 38.525488 
L 70.681861 47.388645 
L 70.703108 53.228035 
L 70.919586 55.833278 
L 71.049503 56.714978 
L 71.174972 57.204459 
L 71.153492 57.167918 
L 71.065588 57.013915 
L 70.938 56.841832 
L 70.813648 56.726348 
L 70.710429 56.673652 
L 70.603768 56.638927 
L 70.499964 56.625584 
L 70.451595 56.672392 
L 70.418494 56.731276 
L 70.490611 56.852304 
L 70.631151 56.988834 
L 70.824661 57.11939 
L 71.012838 57.214306 
L 71.156542 57.267151 
L 71.196407 57.278142 
L 71.14667 57.272336 
L 71.013329 57.26914 
L 70.810207 57.285759 
L 70.605456 57.331057 
L 70.112851 57.45128 
L 70.027537 57.549809 
L 70.113744 57.611257 
L 70.305011 57.622744 
L 70.484602 57.612828 
L 70.600284 57.611707 
L 70.688032 57.611879 
L 70.769556 57.60382 
L 70.822707 57.607496 
L 70.851219 57.628375 
L 70.882546 57.644868 
L 70.909503 57.66528 
L 70.931643 57.693131 
L 70.958013 57.716601 
L 70.978086 57.756253 
L 70.998707 57.805025 
L 71.023537 57.858226 
L 71.064426 57.868914 
L 71.106656 57.872221 
L 71.147774 57.8829 
L 71.189425 57.919279 
L 71.234584 57.927549 
L 71.276979 57.900624 
L 71.314795 57.866241 
L 71.349473 57.834445 
L 71.385694 57.816445 
L 71.424064 57.805374 
L 71.458401 57.784911 
L 71.501112 57.779103 
L 71.543446 57.768514 
L 71.584965 57.753551 
L 71.628181 57.737442 
L 71.665931 57.712861 
L 71.692927 57.677626 
L 71.712153 57.637154 
L 71.716763 57.589113 
L 71.724452 57.545896 
L 71.716129 57.497756 
L 71.723231 57.458894 
L 71.722056 57.418671 
L 71.712285 57.378419 
L 71.69032 57.339095 
L 71.669146 57.303528 
" style="fill:none;stroke:#377eb8;stroke-linecap:square;"/>
    <defs>
     <path d="M 0 0.75 
C 0.198902 0.75 0.389685 0.670975 0.53033 0.53033 
C 0.670975 0.389685 0.75 0.198902 0.75 0 
C 0.75 -0.198902 0.670975 -0.389685 0.53033 -0.53033 
C 0.389685 -0.670975 0.198902 -0.75 0 -0.75 
C -0.198902 -0.75 -0.389685 -0.670975 -0.53033 -0.53033 
C -0.670975 -0.389685 -0.75 -0.198902 -0.75 0 
C -0.75 0.198902 -0.670975 0.389685 -0.53033 0.53033 
C -0.389685 0.670975 -0.198902 0.75 0 0.75 
z
" id="m8bef80ccf6" style="stroke:#377eb8;"/>
    </defs>
    <g clip-path="url(#p6a00ea68e4)">
     <use style="fill:#377eb8;stroke:#377eb8;" x="71.633629" xlink:href="#m8bef80ccf6" y="57.271404"/>
     <use style="fill:#377eb8;stroke:#377eb8;" x="73.22235" xlink:href="#m8bef80ccf6" y="57.102085"/>
     <use style="fill:#377eb8;stroke:#377eb8;" x="77.150093" xlink:href="#m8bef80ccf6" y="56.336657"/>
     <use style="fill:#377eb8;stroke:#377eb8;" x="81.76174" xlink:href="#m8bef80ccf6" y="54.840768"/>
     <use style="fill:#377eb8;stroke:#377eb8;" x="93.040706" xlink:href="#m8bef80ccf6" y="50.601683"/>
     <use style="fill:#377eb8;stroke:#377eb8;" x="103.978594" xlink:href="#m8bef80ccf6" y="44.696647"/>
     <use style="fill:#377eb8;stroke:#377eb8;" x="111.358505" xlink:href="#m8bef80ccf6" y="38.553149"/>
     <use style="fill:#377eb8;stroke:#377eb8;" x="113.5414" xlink:href="#m8bef80ccf6" y="33.808837"/>
     <use style="fill:#377eb8;stroke:#377eb8;" x="110.638816" xlink:href="#m8bef80ccf6" y="31.667426"/>
     <use style="fill:#377eb8;stroke:#377eb8;" x="103.291056" xlink:href="#m8bef80ccf6" y="33.09718"/>
     <use style="fill:#377eb8;stroke:#377eb8;" x="92.735553" xlink:href="#m8bef80ccf6" y="38.559124"/>
     <use style="fill:#377eb8;stroke:#377eb8;" x="82.103221" xlink:href="#m8bef80ccf6" y="46.376326"/>
     <use style="fill:#377eb8;stroke:#377eb8;" x="74.776831" xlink:href="#m8bef80ccf6" y="53.165019"/>
     <use style="fill:#377eb8;stroke:#377eb8;" x="71.538929" xlink:href="#m8bef80ccf6" y="56.830022"/>
     <use style="fill:#377eb8;stroke:#377eb8;" x="72.73185" xlink:href="#m8bef80ccf6" y="54.921071"/>
     <use style="fill:#377eb8;stroke:#377eb8;" x="77.280161" xlink:href="#m8bef80ccf6" y="46.309917"/>
     <use style="fill:#377eb8;stroke:#377eb8;" x="82.451798" xlink:href="#m8bef80ccf6" y="33.148477"/>
     <use style="fill:#377eb8;stroke:#377eb8;" x="85.898227" xlink:href="#m8bef80ccf6" y="18.987788"/>
     <use style="fill:#377eb8;stroke:#377eb8;" x="86.336708" xlink:href="#m8bef80ccf6" y="7.769357"/>
     <use style="fill:#377eb8;stroke:#377eb8;" x="82.815441" xlink:href="#m8bef80ccf6" y="6.970474"/>
     <use style="fill:#377eb8;stroke:#377eb8;" x="78.851055" xlink:href="#m8bef80ccf6" y="8.981268"/>
     <use style="fill:#377eb8;stroke:#377eb8;" x="73.968944" xlink:href="#m8bef80ccf6" y="25.647811"/>
     <use style="fill:#377eb8;stroke:#377eb8;" x="71.528775" xlink:href="#m8bef80ccf6" y="38.525488"/>
     <use style="fill:#377eb8;stroke:#377eb8;" x="70.681861" xlink:href="#m8bef80ccf6" y="47.388645"/>
     <use style="fill:#377eb8;stroke:#377eb8;" x="70.703108" xlink:href="#m8bef80ccf6" y="53.228035"/>
     <use style="fill:#377eb8;stroke:#377eb8;" x="70.919586" xlink:href="#m8bef80ccf6" y="55.833278"/>
     <use style="fill:#377eb8;stroke:#377eb8;" x="71.049503" xlink:href="#m8bef80ccf6" y="56.714978"/>
     <use style="fill:#377eb8;stroke:#377eb8;" x="71.174972" xlink:href="#m8bef80ccf6" y="57.204459"/>
     <use style="fill:#377eb8;stroke:#377eb8;" x="71.153492" xlink:href="#m8bef80ccf6" y="57.167918"/>
     <use style="fill:#377eb8;stroke:#377eb8;" x="71.065588" xlink:href="#m8bef80ccf6" y="57.013915"/>
     <use style="fill:#377eb8;stroke:#377eb8;" x="70.938" xlink:href="#m8bef80ccf6" y="56.841832"/>
     <use style="fill:#377eb8;stroke:#377eb8;" x="70.813648" xlink:href="#m8bef80ccf6" y="56.726348"/>
     <use style="fill:#377eb8;stroke:#377eb8;" x="70.710429" xlink:href="#m8bef80ccf6" y="56.673652"/>
     <use style="fill:#377eb8;stroke:#377eb8;" x="70.603768" xlink:href="#m8bef80ccf6" y="56.638927"/>
     <use style="fill:#377eb8;stroke:#377eb8;" x="70.499964" xlink:href="#m8bef80ccf6" y="56.625584"/>
     <use style="fill:#377eb8;stroke:#377eb8;" x="70.451595" xlink:href="#m8bef80ccf6" y="56.672392"/>
     <use style="fill:#377eb8;stroke:#377eb8;" x="70.418494" xlink:href="#m8bef80ccf6" y="56.731276"/>
     <use style="fill:#377eb8;stroke:#377eb8;" x="70.490611" xlink:href="#m8bef80ccf6" y="56.852304"/>
     <use style="fill:#377eb8;stroke:#377eb8;" x="70.631151" xlink:href="#m8bef80ccf6" y="56.988834"/>
     <use style="fill:#377eb8;stroke:#377eb8;" x="70.824661" xlink:href="#m8bef80ccf6" y="57.11939"/>
     <use style="fill:#377eb8;stroke:#377eb8;" x="71.012838" xlink:href="#m8bef80ccf6" y="57.214306"/>
     <use style="fill:#377eb8;stroke:#377eb8;" x="71.156542" xlink:href="#m8bef80ccf6" y="57.267151"/>
     <use style="fill:#377eb8;stroke:#377eb8;" x="71.196407" xlink:href="#m8bef80ccf6" y="57.278142"/>
     <use style="fill:#377eb8;stroke:#377eb8;" x="71.14667" xlink:href="#m8bef80ccf6" y="57.272336"/>
     <use style="fill:#377eb8;stroke:#377eb8;" x="71.013329" xlink:href="#m8bef80ccf6" y="57.26914"/>
     <use style="fill:#377eb8;stroke:#377eb8;" x="70.810207" xlink:href="#m8bef80ccf6" y="57.285759"/>
     <use style="fill:#377eb8;stroke:#377eb8;" x="70.605456" xlink:href="#m8bef80ccf6" y="57.331057"/>
     <use style="fill:#377eb8;stroke:#377eb8;" x="70.112851" xlink:href="#m8bef80ccf6" y="57.45128"/>
     <use style="fill:#377eb8;stroke:#377eb8;" x="70.027537" xlink:href="#m8bef80ccf6" y="57.549809"/>
     <use style="fill:#377eb8;stroke:#377eb8;" x="70.113744" xlink:href="#m8bef80ccf6" y="57.611257"/>
     <use style="fill:#377eb8;stroke:#377eb8;" x="70.305011" xlink:href="#m8bef80ccf6" y="57.622744"/>
     <use style="fill:#377eb8;stroke:#377eb8;" x="70.484602" xlink:href="#m8bef80ccf6" y="57.612828"/>
     <use style="fill:#377eb8;stroke:#377eb8;" x="70.600284" xlink:href="#m8bef80ccf6" y="57.611707"/>
     <use style="fill:#377eb8;stroke:#377eb8;" x="70.688032" xlink:href="#m8bef80ccf6" y="57.611879"/>
     <use style="fill:#377eb8;stroke:#377eb8;" x="70.769556" xlink:href="#m8bef80ccf6" y="57.60382"/>
     <use style="fill:#377eb8;stroke:#377eb8;" x="70.822707" xlink:href="#m8bef80ccf6" y="57.607496"/>
     <use style="fill:#377eb8;stroke:#377eb8;" x="70.851219" xlink:href="#m8bef80ccf6" y="57.628375"/>
     <use style="fill:#377eb8;stroke:#377eb8;" x="70.882546" xlink:href="#m8bef80ccf6" y="57.644868"/>
     <use style="fill:#377eb8;stroke:#377eb8;" x="70.909503" xlink:href="#m8bef80ccf6" y="57.66528"/>
     <use style="fill:#377eb8;stroke:#377eb8;" x="70.931643" xlink:href="#m8bef80ccf6" y="57.693131"/>
     <use style="fill:#377eb8;stroke:#377eb8;" x="70.958013" xlink:href="#m8bef80ccf6" y="57.716601"/>
     <use style="fill:#377eb8;stroke:#377eb8;" x="70.978086" xlink:href="#m8bef80ccf6" y="57.756253"/>
     <use style="fill:#377eb8;stroke:#377eb8;" x="70.998707" xlink:href="#m8bef80ccf6" y="57.805025"/>
     <use style="fill:#377eb8;stroke:#377eb8;" x="71.023537" xlink:href="#m8bef80ccf6" y="57.858226"/>
     <use style="fill:#377eb8;stroke:#377eb8;" x="71.064426" xlink:href="#m8bef80ccf6" y="57.868914"/>
     <use style="fill:#377eb8;stroke:#377eb8;" x="71.106656" xlink:href="#m8bef80ccf6" y="57.872221"/>
     <use style="fill:#377eb8;stroke:#377eb8;" x="71.147774" xlink:href="#m8bef80ccf6" y="57.8829"/>
     <use style="fill:#377eb8;stroke:#377eb8;" x="71.189425" xlink:href="#m8bef80ccf6" y="57.919279"/>
     <use style="fill:#377eb8;stroke:#377eb8;" x="71.234584" xlink:href="#m8bef80ccf6" y="57.927549"/>
     <use style="fill:#377eb8;stroke:#377eb8;" x="71.276979" xlink:href="#m8bef80ccf6" y="57.900624"/>
     <use style="fill:#377eb8;stroke:#377eb8;" x="71.314795" xlink:href="#m8bef80ccf6" y="57.866241"/>
     <use style="fill:#377eb8;stroke:#377eb8;" x="71.349473" xlink:href="#m8bef80ccf6" y="57.834445"/>
     <use style="fill:#377eb8;stroke:#377eb8;" x="71.385694" xlink:href="#m8bef80ccf6" y="57.816445"/>
     <use style="fill:#377eb8;stroke:#377eb8;" x="71.424064" xlink:href="#m8bef80ccf6" y="57.805374"/>
     <use style="fill:#377eb8;stroke:#377eb8;" x="71.458401" xlink:href="#m8bef80ccf6" y="57.784911"/>
     <use style="fill:#377eb8;stroke:#377eb8;" x="71.501112" xlink:href="#m8bef80ccf6" y="57.779103"/>
     <use style="fill:#377eb8;stroke:#377eb8;" x="71.543446" xlink:href="#m8bef80ccf6" y="57.768514"/>
     <use style="fill:#377eb8;stroke:#377eb8;" x="71.584965" xlink:href="#m8bef80ccf6" y="57.753551"/>
     <use style="fill:#377eb8;stroke:#377eb8;" x="71.628181" xlink:href="#m8bef80ccf6" y="57.737442"/>
     <use style="fill:#377eb8;stroke:#377eb8;" x="71.665931" xlink:href="#m8bef80ccf6" y="57.712861"/>
     <use style="fill:#377eb8;stroke:#377eb8;" x="71.692927" xlink:href="#m8bef80ccf6" y="57.677626"/>
     <use style="fill:#377eb8;stroke:#377eb8;" x="71.712153" xlink:href="#m8bef80ccf6" y="57.637154"/>
     <use style="fill:#377eb8;stroke:#377eb8;" x="71.716763" xlink:href="#m8bef80ccf6" y="57.589113"/>
     <use style="fill:#377eb8;stroke:#377eb8;" x="71.724452" xlink:href="#m8bef80ccf6" y="57.545896"/>
     <use style="fill:#377eb8;stroke:#377eb8;" x="71.716129" xlink:href="#m8bef80ccf6" y="57.497756"/>
     <use style="fill:#377eb8;stroke:#377eb8;" x="71.723231" xlink:href="#m8bef80ccf6" y="57.458894"/>
     <use style="fill:#377eb8;stroke:#377eb8;" x="71.722056" xlink:href="#m8bef80ccf6" y="57.418671"/>
     <use style="fill:#377eb8;stroke:#377eb8;" x="71.712285" xlink:href="#m8bef80ccf6" y="57.378419"/>
     <use style="fill:#377eb8;stroke:#377eb8;" x="71.69032" xlink:href="#m8bef80ccf6" y="57.339095"/>
     <use style="fill:#377eb8;stroke:#377eb8;" x="71.669146" xlink:href="#m8bef80ccf6" y="57.303528"/>
    </g>
   </g>
  </g>
 </g>
 <defs>
  <clipPath id="p6a00ea68e4">
   <path d="M 125.560625 57.278962 
C 125.560625 50.140473 124.154498 43.071396 121.422716 36.476291 
C 118.690935 29.881186 114.686624 23.888312 109.63895 18.840638 
C 104.591275 13.792963 98.598401 9.788653 92.003296 7.056871 
C 85.408192 4.325089 78.339115 2.918962 71.200625 2.918962 
C 64.062135 2.918962 56.993058 4.325089 50.397954 7.056871 
C 43.802849 9.788653 37.809975 13.792963 32.7623 18.840638 
C 27.714626 23.888312 23.710315 29.881186 20.978534 36.476291 
C 18.246752 43.071396 16.840625 50.140473 16.840625 57.278962 
C 16.840625 64.417452 18.246752 71.486529 20.978534 78.081634 
C 23.710315 84.676738 27.714626 90.669612 32.7623 95.717287 
C 37.809975 100.764961 43.802849 104.769272 50.397954 107.501054 
C 56.993058 110.232835 64.062135 111.638962 71.200625 111.638962 
C 78.339115 111.638962 85.408192 110.232835 92.003296 107.501054 
C 98.598401 104.769272 104.591275 100.764961 109.63895 95.717287 
C 114.686624 90.669612 118.690935 84.676738 121.422716 78.081634 
C 124.154498 71.486529 125.560625 64.417452 125.560625 57.278962 
M 71.200625 57.278962 
C 71.200625 57.278962 71.200625 57.278962 71.200625 57.278962 
C 71.200625 57.278962 71.200625 57.278962 71.200625 57.278962 
C 71.200625 57.278962 71.200625 57.278962 71.200625 57.278962 
C 71.200625 57.278962 71.200625 57.278962 71.200625 57.278962 
C 71.200625 57.278962 71.200625 57.278962 71.200625 57.278962 
C 71.200625 57.278962 71.200625 57.278962 71.200625 57.278962 
C 71.200625 57.278962 71.200625 57.278962 71.200625 57.278962 
C 71.200625 57.278962 71.200625 57.278962 71.200625 57.278962 
C 71.200625 57.278962 71.200625 57.278962 71.200625 57.278962 
C 71.200625 57.278962 71.200625 57.278962 71.200625 57.278962 
C 71.200625 57.278962 71.200625 57.278962 71.200625 57.278962 
C 71.200625 57.278962 71.200625 57.278962 71.200625 57.278962 
C 71.200625 57.278962 71.200625 57.278962 71.200625 57.278962 
C 71.200625 57.278962 71.200625 57.278962 71.200625 57.278962 
C 71.200625 57.278962 71.200625 57.278962 71.200625 57.278962 
C 71.200625 57.278962 71.200625 57.278962 71.200625 57.278962 
M 125.560625 57.278962 
z
"/>
  </clipPath>
 </defs>
</svg>
