<?xml version="1.0" encoding="utf-8" standalone="no"?>
<!DOCTYPE svg PUBLIC "-//W3C//DTD SVG 1.1//EN"
  "http://www.w3.org/Graphics/SVG/1.1/DTD/svg11.dtd">
<!-- Created with matplotlib (https://matplotlib.org/) -->
<svg height="114.557925pt" version="1.1" viewBox="0 0 136.840312 114.557925" width="136.840312pt" xmlns="http://www.w3.org/2000/svg" xmlns:xlink="http://www.w3.org/1999/xlink">
 <defs>
  <style type="text/css">
*{stroke-linecap:butt;stroke-linejoin:round;}
  </style>
 </defs>
 <g id="figure_1">
  <g id="patch_1">
   <path d="M 0 114.557925 
L 136.840312 114.557925 
L 136.840312 0 
L 0 0 
z
" style="fill:none;"/>
  </g>
  <g id="axes_1">
   <g id="patch_2">
    <path d="M 125.560625 57.278962 
C 125.560625 50.140473 124.154498 43.071396 121.422716 36.476291 
C 118.690935 29.881186 114.686624 23.888312 109.63895 18.840638 
C 104.591275 13.792963 98.598401 9.788653 92.003296 7.056871 
C 85.408192 4.325089 78.339115 2.918962 71.200625 2.918962 
C 64.062135 2.918962 56.993058 4.325089 50.397954 7.056871 
C 43.802849 9.788653 37.809975 13.792963 32.7623 18.840638 
C 27.714626 23.888312 23.710315 29.881186 20.978534 36.476291 
C 18.246752 43.071396 16.840625 50.140473 16.840625 57.278962 
C 16.840625 64.417452 18.246752 71.486529 20.978534 78.081634 
C 23.710315 84.676738 27.714626 90.669612 32.7623 95.717287 
C 37.809975 100.764961 43.802849 104.769272 50.397954 107.501054 
C 56.993058 110.232835 64.062135 111.638962 71.200625 111.638962 
C 78.339115 111.638962 85.408192 110.232835 92.003296 107.501054 
C 98.598401 104.769272 104.591275 100.764961 109.63895 95.717287 
C 114.686624 90.669612 118.690935 84.676738 121.422716 78.081634 
C 124.154498 71.486529 125.560625 64.417452 125.560625 57.278962 
M 71.200625 57.278962 
C 71.200625 57.278962 71.200625 57.278962 71.200625 57.278962 
C 71.200625 57.278962 71.200625 57.278962 71.200625 57.278962 
C 71.200625 57.278962 71.200625 57.278962 71.200625 57.278962 
C 71.200625 57.278962 71.200625 57.278962 71.200625 57.278962 
C 71.200625 57.278962 71.200625 57.278962 71.200625 57.278962 
C 71.200625 57.278962 71.200625 57.278962 71.200625 57.278962 
C 71.200625 57.278962 71.200625 57.278962 71.200625 57.278962 
C 71.200625 57.278962 71.200625 57.278962 71.200625 57.278962 
C 71.200625 57.278962 71.200625 57.278962 71.200625 57.278962 
C 71.200625 57.278962 71.200625 57.278962 71.200625 57.278962 
C 71.200625 57.278962 71.200625 57.278962 71.200625 57.278962 
C 71.200625 57.278962 71.200625 57.278962 71.200625 57.278962 
C 71.200625 57.278962 71.200625 57.278962 71.200625 57.278962 
C 71.200625 57.278962 71.200625 57.278962 71.200625 57.278962 
C 71.200625 57.278962 71.200625 57.278962 71.200625 57.278962 
C 71.200625 57.278962 71.200625 57.278962 71.200625 57.278962 
M 125.560625 57.278962 
z
" style="fill:none;"/>
   </g>
   <g id="matplotlib.axis_1">
    <g id="xtick_1">
     <g id="line2d_1">
      <path clip-path="url(#p63a028afab)" d="M 71.200625 57.278962 
L 125.560625 57.278962 
" style="fill:none;stroke:#b0b0b0;stroke-linecap:square;stroke-width:0.8;"/>
     </g>
     <g id="text_1">
      <text style="font-family:Arial;font-size:10px;font-style:normal;font-weight:normal;text-anchor:middle;" transform="rotate(-0, 132.060625, 59.864119)" x="132.060625" y="59.864119">0°</text>
     </g>
    </g>
    <g id="xtick_2">
     <g id="line2d_2">
      <path clip-path="url(#p63a028afab)" d="M 71.200625 57.278962 
L 98.380625 10.201821 
" style="fill:none;stroke:#b0b0b0;stroke-linecap:square;stroke-width:0.8;"/>
     </g>
     <g id="text_2">
      <text style="font-family:Arial;font-size:10px;font-style:normal;font-weight:normal;text-anchor:middle;" transform="rotate(-0, 101.630625, 7.157813)" x="101.630625" y="7.157813">60°</text>
     </g>
    </g>
    <g id="xtick_3">
     <g id="line2d_3">
      <path clip-path="url(#p63a028afab)" d="M 71.200625 57.278962 
L 44.020625 10.201821 
" style="fill:none;stroke:#b0b0b0;stroke-linecap:square;stroke-width:0.8;"/>
     </g>
     <g id="text_3">
      <text style="font-family:Arial;font-size:10px;font-style:normal;font-weight:normal;text-anchor:middle;" transform="rotate(-0, 40.770625, 7.157813)" x="40.770625" y="7.157813">120°</text>
     </g>
    </g>
    <g id="xtick_4">
     <g id="line2d_4">
      <path clip-path="url(#p63a028afab)" d="M 71.200625 57.278962 
L 16.840625 57.278962 
" style="fill:none;stroke:#b0b0b0;stroke-linecap:square;stroke-width:0.8;"/>
     </g>
     <g id="text_4">
      <text style="font-family:Arial;font-size:10px;font-style:normal;font-weight:normal;text-anchor:middle;" transform="rotate(-0, 10.340625, 59.864119)" x="10.340625" y="59.864119">180°</text>
     </g>
    </g>
    <g id="xtick_5">
     <g id="line2d_5">
      <path clip-path="url(#p63a028afab)" d="M 71.200625 57.278962 
L 44.020625 104.356103 
" style="fill:none;stroke:#b0b0b0;stroke-linecap:square;stroke-width:0.8;"/>
     </g>
     <g id="text_5">
      <text style="font-family:Arial;font-size:10px;font-style:normal;font-weight:normal;text-anchor:middle;" transform="rotate(-0, 40.770625, 112.570425)" x="40.770625" y="112.570425">240°</text>
     </g>
    </g>
    <g id="xtick_6">
     <g id="line2d_6">
      <path clip-path="url(#p63a028afab)" d="M 71.200625 57.278962 
L 98.380625 104.356103 
" style="fill:none;stroke:#b0b0b0;stroke-linecap:square;stroke-width:0.8;"/>
     </g>
     <g id="text_6">
      <text style="font-family:Arial;font-size:10px;font-style:normal;font-weight:normal;text-anchor:middle;" transform="rotate(-0, 101.630625, 112.570425)" x="101.630625" y="112.570425">300°</text>
     </g>
    </g>
   </g>
   <g id="matplotlib.axis_2">
    <g id="ytick_1">
     <g id="line2d_7">
      <path clip-path="url(#p63a028afab)" d="M 98.378574 57.278962 
L 98.22969 54.438093 
L 97.784671 51.628349 
L 97.048391 48.880514 
L 96.028917 46.224695 
L 94.737419 43.689988 
L 93.188048 41.304165 
L 91.397777 39.093365 
L 89.386223 37.08181 
L 87.175423 35.29154 
L 84.7896 33.742168 
L 82.254893 32.45067 
L 79.599073 31.431197 
L 76.851238 30.694917 
L 74.041494 30.249897 
L 71.200625 30.101013 
L 68.359756 30.249897 
L 65.550012 30.694917 
L 62.802177 31.431197 
L 60.146357 32.45067 
L 57.61165 33.742168 
L 55.225827 35.29154 
L 53.015027 37.08181 
L 51.003473 39.093365 
L 49.213202 41.304165 
L 47.663831 43.689988 
L 46.372333 46.224695 
L 45.352859 48.880514 
L 44.616579 51.628349 
L 44.17156 54.438093 
L 44.022676 57.278962 
L 44.17156 60.119832 
L 44.616579 62.929576 
L 45.352859 65.67741 
L 46.372333 68.33323 
L 47.663831 70.867937 
L 49.213202 73.25376 
L 51.003473 75.46456 
L 53.015027 77.476115 
L 55.225827 79.266385 
L 57.61165 80.815757 
L 60.146357 82.107254 
L 62.802177 83.126728 
L 65.550012 83.863008 
L 68.359756 84.308028 
L 71.200625 84.456911 
L 74.041494 84.308028 
L 76.851238 83.863008 
L 79.599073 83.126728 
L 82.254893 82.107254 
L 84.7896 80.815757 
L 87.175423 79.266385 
L 89.386223 77.476115 
L 91.397777 75.46456 
L 93.188048 73.25376 
L 94.737419 70.867937 
L 96.028917 68.33323 
L 97.048391 65.67741 
L 97.784671 62.929576 
L 98.22969 60.119832 
L 98.378574 57.278962 
L 98.378574 57.278962 
" style="fill:none;stroke:#b0b0b0;stroke-linecap:square;stroke-width:0.8;"/>
     </g>
    </g>
    <g id="ytick_2">
     <g id="line2d_8">
      <path clip-path="url(#p63a028afab)" d="M 123.089716 57.278962 
L 122.963317 53.659362 
L 122.584735 50.057397 
L 121.955815 46.490614 
L 121.079621 42.976391 
L 119.960421 39.531848 
L 118.603668 36.173768 
L 117.015973 32.91851 
L 115.20507 29.781933 
L 113.179781 26.77932 
L 110.949975 23.925298 
L 108.526513 21.233771 
L 105.921204 18.717853 
L 103.146739 16.389801 
L 100.216636 14.260956 
L 97.14517 12.341691 
L 93.947305 10.641356 
L 90.638621 9.168235 
L 87.235236 7.929504 
L 83.753732 6.931199 
L 80.211071 6.178183 
L 76.624512 5.674125 
L 73.011528 5.421481 
L 69.389722 5.421481 
L 65.776738 5.674125 
L 62.190179 6.178183 
L 58.647518 6.931199 
L 55.166014 7.929504 
L 51.762629 9.168235 
L 48.453945 10.641356 
L 45.25608 12.341691 
L 42.184614 14.260956 
L 39.254511 16.389801 
L 36.480046 18.717853 
L 33.874737 21.233771 
L 31.451275 23.925298 
L 29.221469 26.77932 
L 27.19618 29.781933 
L 25.385277 32.91851 
L 23.797582 36.173768 
L 22.440829 39.531848 
L 21.321629 42.976391 
L 20.445435 46.490614 
L 19.816515 50.057397 
L 19.437933 53.659362 
L 19.311534 57.278962 
L 19.437933 60.898562 
L 19.816515 64.500528 
L 20.445435 68.067311 
L 21.321629 71.581534 
L 22.440829 75.026077 
L 23.797582 78.384157 
L 25.385277 81.639415 
L 27.19618 84.775991 
L 29.221469 87.778605 
L 31.451275 90.632627 
L 33.874737 93.324154 
L 36.480046 95.840072 
L 39.254511 98.168124 
L 42.184614 100.296968 
L 45.25608 102.216233 
L 48.453945 103.916568 
L 51.762629 105.38969 
L 55.166014 106.62842 
L 58.647518 107.626725 
L 62.190179 108.379741 
L 65.776738 108.883799 
L 69.389722 109.136444 
L 73.011528 109.136444 
L 76.624512 108.883799 
L 80.211071 108.379741 
L 83.753732 107.626725 
L 87.235236 106.62842 
L 90.638621 105.38969 
L 93.947305 103.916568 
L 97.14517 102.216233 
L 100.216636 100.296968 
L 103.146739 98.168124 
L 105.921204 95.840072 
L 108.526513 93.324154 
L 110.949975 90.632627 
L 113.179781 87.778605 
L 115.20507 84.775991 
L 117.015973 81.639415 
L 118.603668 78.384157 
L 119.960421 75.026077 
L 121.079621 71.581534 
L 121.955815 68.067311 
L 122.584735 64.500528 
L 122.963317 60.898562 
L 123.089716 57.278962 
L 123.089716 57.278962 
" style="fill:none;stroke:#b0b0b0;stroke-linecap:square;stroke-width:0.8;"/>
     </g>
    </g>
   </g>
   <g id="line2d_9">
    <path clip-path="url(#p63a028afab)" d="M 74.080411 57.228696 
L 75.588027 56.895116 
L 79.316548 55.993523 
L 83.686071 54.396507 
L 94.408639 50.183458 
L 104.794121 44.383594 
L 111.771866 38.360396 
L 113.777527 33.677949 
L 110.917983 31.486132 
L 103.804904 32.709969 
L 93.620049 37.790251 
L 83.352764 45.126778 
L 76.23292 51.489985 
L 73.008148 54.880321 
L 74.005879 52.959228 
L 78.200103 44.650106 
L 82.983667 32.007772 
L 86.115236 18.422423 
L 86.371048 7.657032 
L 82.843291 6.849847 
L 78.88982 8.736543 
L 74.05839 24.62579 
L 71.557042 36.910074 
L 70.576191 45.374037 
L 70.424981 50.963451 
L 70.461608 53.477405 
L 70.417894 54.357821 
L 70.373043 54.87542 
L 70.191823 54.902228 
L 69.951887 54.827962 
L 69.67952 54.747141 
L 69.416229 54.730789 
L 69.180213 54.784091 
L 68.948472 54.863883 
L 68.727653 54.972873 
L 68.568538 55.147478 
L 68.433335 55.341172 
L 68.408416 55.60108 
L 68.459 55.882194 
L 68.570982 56.162848 
L 68.688931 56.414173 
L 68.775786 56.629246 
L 68.775117 56.807475 
L 68.700704 56.971961 
L 68.558406 57.140403 
L 68.36149 57.328389 
L 68.175053 57.54379 
L 67.725787 57.829421 
L 67.677195 58.092464 
L 67.804047 58.317405 
L 68.04268 58.491141 
L 68.281382 58.640139 
L 68.469963 58.792457 
L 68.64252 58.940392 
L 68.819091 59.07371 
L 68.97817 59.211 
L 69.122794 59.356831 
L 69.278601 59.48998 
L 69.438119 59.617804 
L 69.600267 59.743135 
L 69.772997 59.854208 
L 69.945764 59.970326 
L 70.123914 60.084142 
L 70.310389 60.190971 
L 70.515705 60.245728 
L 70.725004 60.281732 
L 70.93512 60.312909 
L 71.146794 60.356652 
L 71.362026 60.36155 
L 71.574236 60.320822 
L 71.780364 60.261064 
L 71.981203 60.191983 
L 72.180406 60.124468 
L 72.37775 60.052208 
L 72.566549 59.959924 
L 72.757889 59.870926 
L 72.942884 59.766924 
L 73.119999 59.649034 
L 73.291172 59.520712 
L 73.448935 59.375519 
L 73.587645 59.21196 
L 73.709602 59.035842 
L 73.807765 58.845608 
L 73.898571 58.653792 
L 73.963483 58.451594 
L 74.03195 58.253779 
L 74.081156 58.050755 
L 74.110552 57.844592 
L 74.116514 57.637025 
L 74.111309 57.431579 
" style="fill:none;stroke:#377eb8;stroke-linecap:square;"/>
    <defs>
     <path d="M 0 0.75 
C 0.198902 0.75 0.389685 0.670975 0.53033 0.53033 
C 0.670975 0.389685 0.75 0.198902 0.75 0 
C 0.75 -0.198902 0.670975 -0.389685 0.53033 -0.53033 
C 0.389685 -0.670975 0.198902 -0.75 0 -0.75 
C -0.198902 -0.75 -0.389685 -0.670975 -0.53033 -0.53033 
C -0.670975 -0.389685 -0.75 -0.198902 -0.75 0 
C -0.75 0.198902 -0.670975 0.389685 -0.53033 0.53033 
C -0.389685 0.670975 -0.198902 0.75 0 0.75 
z
" id="m61ed767bcf" style="stroke:#377eb8;"/>
    </defs>
    <g clip-path="url(#p63a028afab)">
     <use style="fill:#377eb8;stroke:#377eb8;" x="74.080411" xlink:href="#m61ed767bcf" y="57.228696"/>
     <use style="fill:#377eb8;stroke:#377eb8;" x="75.588027" xlink:href="#m61ed767bcf" y="56.895116"/>
     <use style="fill:#377eb8;stroke:#377eb8;" x="79.316548" xlink:href="#m61ed767bcf" y="55.993523"/>
     <use style="fill:#377eb8;stroke:#377eb8;" x="83.686071" xlink:href="#m61ed767bcf" y="54.396507"/>
     <use style="fill:#377eb8;stroke:#377eb8;" x="94.408639" xlink:href="#m61ed767bcf" y="50.183458"/>
     <use style="fill:#377eb8;stroke:#377eb8;" x="104.794121" xlink:href="#m61ed767bcf" y="44.383594"/>
     <use style="fill:#377eb8;stroke:#377eb8;" x="111.771866" xlink:href="#m61ed767bcf" y="38.360396"/>
     <use style="fill:#377eb8;stroke:#377eb8;" x="113.777527" xlink:href="#m61ed767bcf" y="33.677949"/>
     <use style="fill:#377eb8;stroke:#377eb8;" x="110.917983" xlink:href="#m61ed767bcf" y="31.486132"/>
     <use style="fill:#377eb8;stroke:#377eb8;" x="103.804904" xlink:href="#m61ed767bcf" y="32.709969"/>
     <use style="fill:#377eb8;stroke:#377eb8;" x="93.620049" xlink:href="#m61ed767bcf" y="37.790251"/>
     <use style="fill:#377eb8;stroke:#377eb8;" x="83.352764" xlink:href="#m61ed767bcf" y="45.126778"/>
     <use style="fill:#377eb8;stroke:#377eb8;" x="76.23292" xlink:href="#m61ed767bcf" y="51.489985"/>
     <use style="fill:#377eb8;stroke:#377eb8;" x="73.008148" xlink:href="#m61ed767bcf" y="54.880321"/>
     <use style="fill:#377eb8;stroke:#377eb8;" x="74.005879" xlink:href="#m61ed767bcf" y="52.959228"/>
     <use style="fill:#377eb8;stroke:#377eb8;" x="78.200103" xlink:href="#m61ed767bcf" y="44.650106"/>
     <use style="fill:#377eb8;stroke:#377eb8;" x="82.983667" xlink:href="#m61ed767bcf" y="32.007772"/>
     <use style="fill:#377eb8;stroke:#377eb8;" x="86.115236" xlink:href="#m61ed767bcf" y="18.422423"/>
     <use style="fill:#377eb8;stroke:#377eb8;" x="86.371048" xlink:href="#m61ed767bcf" y="7.657032"/>
     <use style="fill:#377eb8;stroke:#377eb8;" x="82.843291" xlink:href="#m61ed767bcf" y="6.849847"/>
     <use style="fill:#377eb8;stroke:#377eb8;" x="78.88982" xlink:href="#m61ed767bcf" y="8.736543"/>
     <use style="fill:#377eb8;stroke:#377eb8;" x="74.05839" xlink:href="#m61ed767bcf" y="24.62579"/>
     <use style="fill:#377eb8;stroke:#377eb8;" x="71.557042" xlink:href="#m61ed767bcf" y="36.910074"/>
     <use style="fill:#377eb8;stroke:#377eb8;" x="70.576191" xlink:href="#m61ed767bcf" y="45.374037"/>
     <use style="fill:#377eb8;stroke:#377eb8;" x="70.424981" xlink:href="#m61ed767bcf" y="50.963451"/>
     <use style="fill:#377eb8;stroke:#377eb8;" x="70.461608" xlink:href="#m61ed767bcf" y="53.477405"/>
     <use style="fill:#377eb8;stroke:#377eb8;" x="70.417894" xlink:href="#m61ed767bcf" y="54.357821"/>
     <use style="fill:#377eb8;stroke:#377eb8;" x="70.373043" xlink:href="#m61ed767bcf" y="54.87542"/>
     <use style="fill:#377eb8;stroke:#377eb8;" x="70.191823" xlink:href="#m61ed767bcf" y="54.902228"/>
     <use style="fill:#377eb8;stroke:#377eb8;" x="69.951887" xlink:href="#m61ed767bcf" y="54.827962"/>
     <use style="fill:#377eb8;stroke:#377eb8;" x="69.67952" xlink:href="#m61ed767bcf" y="54.747141"/>
     <use style="fill:#377eb8;stroke:#377eb8;" x="69.416229" xlink:href="#m61ed767bcf" y="54.730789"/>
     <use style="fill:#377eb8;stroke:#377eb8;" x="69.180213" xlink:href="#m61ed767bcf" y="54.784091"/>
     <use style="fill:#377eb8;stroke:#377eb8;" x="68.948472" xlink:href="#m61ed767bcf" y="54.863883"/>
     <use style="fill:#377eb8;stroke:#377eb8;" x="68.727653" xlink:href="#m61ed767bcf" y="54.972873"/>
     <use style="fill:#377eb8;stroke:#377eb8;" x="68.568538" xlink:href="#m61ed767bcf" y="55.147478"/>
     <use style="fill:#377eb8;stroke:#377eb8;" x="68.433335" xlink:href="#m61ed767bcf" y="55.341172"/>
     <use style="fill:#377eb8;stroke:#377eb8;" x="68.408416" xlink:href="#m61ed767bcf" y="55.60108"/>
     <use style="fill:#377eb8;stroke:#377eb8;" x="68.459" xlink:href="#m61ed767bcf" y="55.882194"/>
     <use style="fill:#377eb8;stroke:#377eb8;" x="68.570982" xlink:href="#m61ed767bcf" y="56.162848"/>
     <use style="fill:#377eb8;stroke:#377eb8;" x="68.688931" xlink:href="#m61ed767bcf" y="56.414173"/>
     <use style="fill:#377eb8;stroke:#377eb8;" x="68.775786" xlink:href="#m61ed767bcf" y="56.629246"/>
     <use style="fill:#377eb8;stroke:#377eb8;" x="68.775117" xlink:href="#m61ed767bcf" y="56.807475"/>
     <use style="fill:#377eb8;stroke:#377eb8;" x="68.700704" xlink:href="#m61ed767bcf" y="56.971961"/>
     <use style="fill:#377eb8;stroke:#377eb8;" x="68.558406" xlink:href="#m61ed767bcf" y="57.140403"/>
     <use style="fill:#377eb8;stroke:#377eb8;" x="68.36149" xlink:href="#m61ed767bcf" y="57.328389"/>
     <use style="fill:#377eb8;stroke:#377eb8;" x="68.175053" xlink:href="#m61ed767bcf" y="57.54379"/>
     <use style="fill:#377eb8;stroke:#377eb8;" x="67.725787" xlink:href="#m61ed767bcf" y="57.829421"/>
     <use style="fill:#377eb8;stroke:#377eb8;" x="67.677195" xlink:href="#m61ed767bcf" y="58.092464"/>
     <use style="fill:#377eb8;stroke:#377eb8;" x="67.804047" xlink:href="#m61ed767bcf" y="58.317405"/>
     <use style="fill:#377eb8;stroke:#377eb8;" x="68.04268" xlink:href="#m61ed767bcf" y="58.491141"/>
     <use style="fill:#377eb8;stroke:#377eb8;" x="68.281382" xlink:href="#m61ed767bcf" y="58.640139"/>
     <use style="fill:#377eb8;stroke:#377eb8;" x="68.469963" xlink:href="#m61ed767bcf" y="58.792457"/>
     <use style="fill:#377eb8;stroke:#377eb8;" x="68.64252" xlink:href="#m61ed767bcf" y="58.940392"/>
     <use style="fill:#377eb8;stroke:#377eb8;" x="68.819091" xlink:href="#m61ed767bcf" y="59.07371"/>
     <use style="fill:#377eb8;stroke:#377eb8;" x="68.97817" xlink:href="#m61ed767bcf" y="59.211"/>
     <use style="fill:#377eb8;stroke:#377eb8;" x="69.122794" xlink:href="#m61ed767bcf" y="59.356831"/>
     <use style="fill:#377eb8;stroke:#377eb8;" x="69.278601" xlink:href="#m61ed767bcf" y="59.48998"/>
     <use style="fill:#377eb8;stroke:#377eb8;" x="69.438119" xlink:href="#m61ed767bcf" y="59.617804"/>
     <use style="fill:#377eb8;stroke:#377eb8;" x="69.600267" xlink:href="#m61ed767bcf" y="59.743135"/>
     <use style="fill:#377eb8;stroke:#377eb8;" x="69.772997" xlink:href="#m61ed767bcf" y="59.854208"/>
     <use style="fill:#377eb8;stroke:#377eb8;" x="69.945764" xlink:href="#m61ed767bcf" y="59.970326"/>
     <use style="fill:#377eb8;stroke:#377eb8;" x="70.123914" xlink:href="#m61ed767bcf" y="60.084142"/>
     <use style="fill:#377eb8;stroke:#377eb8;" x="70.310389" xlink:href="#m61ed767bcf" y="60.190971"/>
     <use style="fill:#377eb8;stroke:#377eb8;" x="70.515705" xlink:href="#m61ed767bcf" y="60.245728"/>
     <use style="fill:#377eb8;stroke:#377eb8;" x="70.725004" xlink:href="#m61ed767bcf" y="60.281732"/>
     <use style="fill:#377eb8;stroke:#377eb8;" x="70.93512" xlink:href="#m61ed767bcf" y="60.312909"/>
     <use style="fill:#377eb8;stroke:#377eb8;" x="71.146794" xlink:href="#m61ed767bcf" y="60.356652"/>
     <use style="fill:#377eb8;stroke:#377eb8;" x="71.362026" xlink:href="#m61ed767bcf" y="60.36155"/>
     <use style="fill:#377eb8;stroke:#377eb8;" x="71.574236" xlink:href="#m61ed767bcf" y="60.320822"/>
     <use style="fill:#377eb8;stroke:#377eb8;" x="71.780364" xlink:href="#m61ed767bcf" y="60.261064"/>
     <use style="fill:#377eb8;stroke:#377eb8;" x="71.981203" xlink:href="#m61ed767bcf" y="60.191983"/>
     <use style="fill:#377eb8;stroke:#377eb8;" x="72.180406" xlink:href="#m61ed767bcf" y="60.124468"/>
     <use style="fill:#377eb8;stroke:#377eb8;" x="72.37775" xlink:href="#m61ed767bcf" y="60.052208"/>
     <use style="fill:#377eb8;stroke:#377eb8;" x="72.566549" xlink:href="#m61ed767bcf" y="59.959924"/>
     <use style="fill:#377eb8;stroke:#377eb8;" x="72.757889" xlink:href="#m61ed767bcf" y="59.870926"/>
     <use style="fill:#377eb8;stroke:#377eb8;" x="72.942884" xlink:href="#m61ed767bcf" y="59.766924"/>
     <use style="fill:#377eb8;stroke:#377eb8;" x="73.119999" xlink:href="#m61ed767bcf" y="59.649034"/>
     <use style="fill:#377eb8;stroke:#377eb8;" x="73.291172" xlink:href="#m61ed767bcf" y="59.520712"/>
     <use style="fill:#377eb8;stroke:#377eb8;" x="73.448935" xlink:href="#m61ed767bcf" y="59.375519"/>
     <use style="fill:#377eb8;stroke:#377eb8;" x="73.587645" xlink:href="#m61ed767bcf" y="59.21196"/>
     <use style="fill:#377eb8;stroke:#377eb8;" x="73.709602" xlink:href="#m61ed767bcf" y="59.035842"/>
     <use style="fill:#377eb8;stroke:#377eb8;" x="73.807765" xlink:href="#m61ed767bcf" y="58.845608"/>
     <use style="fill:#377eb8;stroke:#377eb8;" x="73.898571" xlink:href="#m61ed767bcf" y="58.653792"/>
     <use style="fill:#377eb8;stroke:#377eb8;" x="73.963483" xlink:href="#m61ed767bcf" y="58.451594"/>
     <use style="fill:#377eb8;stroke:#377eb8;" x="74.03195" xlink:href="#m61ed767bcf" y="58.253779"/>
     <use style="fill:#377eb8;stroke:#377eb8;" x="74.081156" xlink:href="#m61ed767bcf" y="58.050755"/>
     <use style="fill:#377eb8;stroke:#377eb8;" x="74.110552" xlink:href="#m61ed767bcf" y="57.844592"/>
     <use style="fill:#377eb8;stroke:#377eb8;" x="74.116514" xlink:href="#m61ed767bcf" y="57.637025"/>
     <use style="fill:#377eb8;stroke:#377eb8;" x="74.111309" xlink:href="#m61ed767bcf" y="57.431579"/>
    </g>
   </g>
  </g>
 </g>
 <defs>
  <clipPath id="p63a028afab">
   <path d="M 125.560625 57.278962 
C 125.560625 50.140473 124.154498 43.071396 121.422716 36.476291 
C 118.690935 29.881186 114.686624 23.888312 109.63895 18.840638 
C 104.591275 13.792963 98.598401 9.788653 92.003296 7.056871 
C 85.408192 4.325089 78.339115 2.918962 71.200625 2.918962 
C 64.062135 2.918962 56.993058 4.325089 50.397954 7.056871 
C 43.802849 9.788653 37.809975 13.792963 32.7623 18.840638 
C 27.714626 23.888312 23.710315 29.881186 20.978534 36.476291 
C 18.246752 43.071396 16.840625 50.140473 16.840625 57.278962 
C 16.840625 64.417452 18.246752 71.486529 20.978534 78.081634 
C 23.710315 84.676738 27.714626 90.669612 32.7623 95.717287 
C 37.809975 100.764961 43.802849 104.769272 50.397954 107.501054 
C 56.993058 110.232835 64.062135 111.638962 71.200625 111.638962 
C 78.339115 111.638962 85.408192 110.232835 92.003296 107.501054 
C 98.598401 104.769272 104.591275 100.764961 109.63895 95.717287 
C 114.686624 90.669612 118.690935 84.676738 121.422716 78.081634 
C 124.154498 71.486529 125.560625 64.417452 125.560625 57.278962 
M 71.200625 57.278962 
C 71.200625 57.278962 71.200625 57.278962 71.200625 57.278962 
C 71.200625 57.278962 71.200625 57.278962 71.200625 57.278962 
C 71.200625 57.278962 71.200625 57.278962 71.200625 57.278962 
C 71.200625 57.278962 71.200625 57.278962 71.200625 57.278962 
C 71.200625 57.278962 71.200625 57.278962 71.200625 57.278962 
C 71.200625 57.278962 71.200625 57.278962 71.200625 57.278962 
C 71.200625 57.278962 71.200625 57.278962 71.200625 57.278962 
C 71.200625 57.278962 71.200625 57.278962 71.200625 57.278962 
C 71.200625 57.278962 71.200625 57.278962 71.200625 57.278962 
C 71.200625 57.278962 71.200625 57.278962 71.200625 57.278962 
C 71.200625 57.278962 71.200625 57.278962 71.200625 57.278962 
C 71.200625 57.278962 71.200625 57.278962 71.200625 57.278962 
C 71.200625 57.278962 71.200625 57.278962 71.200625 57.278962 
C 71.200625 57.278962 71.200625 57.278962 71.200625 57.278962 
C 71.200625 57.278962 71.200625 57.278962 71.200625 57.278962 
C 71.200625 57.278962 71.200625 57.278962 71.200625 57.278962 
M 125.560625 57.278962 
z
"/>
  </clipPath>
 </defs>
</svg>
