<?xml version="1.0" encoding="utf-8" standalone="no"?>
<!DOCTYPE svg PUBLIC "-//W3C//DTD SVG 1.1//EN"
  "http://www.w3.org/Graphics/SVG/1.1/DTD/svg11.dtd">
<!-- Created with matplotlib (https://matplotlib.org/) -->
<svg height="114.557925pt" version="1.1" viewBox="0 0 136.840312 114.557925" width="136.840312pt" xmlns="http://www.w3.org/2000/svg" xmlns:xlink="http://www.w3.org/1999/xlink">
 <metadata>
  <rdf:RDF xmlns:cc="http://creativecommons.org/ns#" xmlns:dc="http://purl.org/dc/elements/1.1/" xmlns:rdf="http://www.w3.org/1999/02/22-rdf-syntax-ns#">
   <cc:Work>
    <dc:type rdf:resource="http://purl.org/dc/dcmitype/StillImage"/>
    <dc:date>2020-12-07T22:43:27.453317</dc:date>
    <dc:format>image/svg+xml</dc:format>
    <dc:creator>
     <cc:Agent>
      <dc:title>Matplotlib v3.3.0, https://matplotlib.org/</dc:title>
     </cc:Agent>
    </dc:creator>
   </cc:Work>
  </rdf:RDF>
 </metadata>
 <defs>
  <style type="text/css">*{stroke-linecap:butt;stroke-linejoin:round;}</style>
 </defs>
 <g id="figure_1">
  <g id="patch_1">
   <path d="M 0 114.557925 
L 136.840312 114.557925 
L 136.840312 0 
L 0 0 
z
" style="fill:none;"/>
  </g>
  <g id="axes_1">
   <g id="patch_2">
    <path d="M 125.560625 57.278962 
C 125.560625 50.140473 124.154498 43.071396 121.422716 36.476291 
C 118.690935 29.881186 114.686624 23.888312 109.63895 18.840638 
C 104.591275 13.792963 98.598401 9.788653 92.003296 7.056871 
C 85.408192 4.325089 78.339115 2.918962 71.200625 2.918962 
C 64.062135 2.918962 56.993058 4.325089 50.397954 7.056871 
C 43.802849 9.788653 37.809975 13.792963 32.7623 18.840638 
C 27.714626 23.888312 23.710315 29.881186 20.978534 36.476291 
C 18.246752 43.071396 16.840625 50.140473 16.840625 57.278962 
C 16.840625 64.417452 18.246752 71.486529 20.978534 78.081634 
C 23.710315 84.676738 27.714626 90.669612 32.7623 95.717287 
C 37.809975 100.764961 43.802849 104.769272 50.397954 107.501054 
C 56.993058 110.232835 64.062135 111.638962 71.200625 111.638962 
C 78.339115 111.638962 85.408192 110.232835 92.003296 107.501054 
C 98.598401 104.769272 104.591275 100.764961 109.63895 95.717287 
C 114.686624 90.669612 118.690935 84.676738 121.422716 78.081634 
C 124.154498 71.486529 125.560625 64.417452 125.560625 57.278962 
M 71.200625 57.278962 
C 71.200625 57.278962 71.200625 57.278962 71.200625 57.278962 
C 71.200625 57.278962 71.200625 57.278962 71.200625 57.278962 
C 71.200625 57.278962 71.200625 57.278962 71.200625 57.278962 
C 71.200625 57.278962 71.200625 57.278962 71.200625 57.278962 
C 71.200625 57.278962 71.200625 57.278962 71.200625 57.278962 
C 71.200625 57.278962 71.200625 57.278962 71.200625 57.278962 
C 71.200625 57.278962 71.200625 57.278962 71.200625 57.278962 
C 71.200625 57.278962 71.200625 57.278962 71.200625 57.278962 
C 71.200625 57.278962 71.200625 57.278962 71.200625 57.278962 
C 71.200625 57.278962 71.200625 57.278962 71.200625 57.278962 
C 71.200625 57.278962 71.200625 57.278962 71.200625 57.278962 
C 71.200625 57.278962 71.200625 57.278962 71.200625 57.278962 
C 71.200625 57.278962 71.200625 57.278962 71.200625 57.278962 
C 71.200625 57.278962 71.200625 57.278962 71.200625 57.278962 
C 71.200625 57.278962 71.200625 57.278962 71.200625 57.278962 
C 71.200625 57.278962 71.200625 57.278962 71.200625 57.278962 
M 125.560625 57.278962 
z
" style="fill:none;"/>
   </g>
   <g id="matplotlib.axis_1">
    <g id="xtick_1">
     <g id="line2d_1">
      <path clip-path="url(#p9dfd498c02)" d="M 71.200625 57.278962 
L 125.560625 57.278962 
" style="fill:none;stroke:#b0b0b0;stroke-linecap:square;stroke-width:0.8;"/>
     </g>
     <g id="text_1">
      <!-- 0° -->
      <g transform="translate(127.280937 59.864119)scale(0.1 -0.1)">
       <defs>
        <path d="M 4.15625 35.296875 
Q 4.15625 48 6.765625 55.734375 
Q 9.375 63.484375 14.515625 67.671875 
Q 19.671875 71.875 27.484375 71.875 
Q 33.25 71.875 37.59375 69.546875 
Q 41.9375 67.234375 44.765625 62.859375 
Q 47.609375 58.5 49.21875 52.21875 
Q 50.828125 45.953125 50.828125 35.296875 
Q 50.828125 22.703125 48.234375 14.96875 
Q 45.65625 7.234375 40.5 3 
Q 35.359375 -1.21875 27.484375 -1.21875 
Q 17.140625 -1.21875 11.234375 6.203125 
Q 4.15625 15.140625 4.15625 35.296875 
z
M 13.1875 35.296875 
Q 13.1875 17.671875 17.3125 11.828125 
Q 21.4375 6 27.484375 6 
Q 33.546875 6 37.671875 11.859375 
Q 41.796875 17.71875 41.796875 35.296875 
Q 41.796875 52.984375 37.671875 58.78125 
Q 33.546875 64.59375 27.390625 64.59375 
Q 21.34375 64.59375 17.71875 59.46875 
Q 13.1875 52.9375 13.1875 35.296875 
z
" id="ArialMT-48"/>
        <path d="M 6.25 59.28125 
Q 6.25 64.890625 10.21875 68.84375 
Q 14.203125 72.796875 19.78125 72.796875 
Q 25.4375 72.796875 29.390625 68.84375 
Q 33.34375 64.890625 33.34375 59.28125 
Q 33.34375 53.65625 29.359375 49.671875 
Q 25.390625 45.703125 19.78125 45.703125 
Q 14.203125 45.703125 10.21875 49.65625 
Q 6.25 53.609375 6.25 59.28125 
z
M 11.578125 59.28125 
Q 11.578125 55.859375 13.984375 53.4375 
Q 16.40625 51.03125 19.828125 51.03125 
Q 23.1875 51.03125 25.609375 53.4375 
Q 28.03125 55.859375 28.03125 59.28125 
Q 28.03125 62.703125 25.609375 65.109375 
Q 23.1875 67.53125 19.828125 67.53125 
Q 16.40625 67.53125 13.984375 65.109375 
Q 11.578125 62.703125 11.578125 59.28125 
z
" id="ArialMT-176"/>
       </defs>
       <use xlink:href="#ArialMT-48"/>
       <use x="55.615234" xlink:href="#ArialMT-176"/>
      </g>
     </g>
    </g>
    <g id="xtick_2">
     <g id="line2d_2">
      <path clip-path="url(#p9dfd498c02)" d="M 71.200625 57.278962 
L 98.380625 10.201821 
" style="fill:none;stroke:#b0b0b0;stroke-linecap:square;stroke-width:0.8;"/>
     </g>
     <g id="text_2">
      <!-- 60° -->
      <g transform="translate(94.070469 7.157813)scale(0.1 -0.1)">
       <defs>
        <path d="M 49.75 54.046875 
L 41.015625 53.375 
Q 39.84375 58.546875 37.703125 60.890625 
Q 34.125 64.65625 28.90625 64.65625 
Q 24.703125 64.65625 21.53125 62.3125 
Q 17.390625 59.28125 14.984375 53.46875 
Q 12.59375 47.65625 12.5 36.921875 
Q 15.671875 41.75 20.265625 44.09375 
Q 24.859375 46.4375 29.890625 46.4375 
Q 38.671875 46.4375 44.84375 39.96875 
Q 51.03125 33.5 51.03125 23.25 
Q 51.03125 16.5 48.125 10.71875 
Q 45.21875 4.9375 40.140625 1.859375 
Q 35.0625 -1.21875 28.609375 -1.21875 
Q 17.625 -1.21875 10.6875 6.859375 
Q 3.765625 14.9375 3.765625 33.5 
Q 3.765625 54.25 11.421875 63.671875 
Q 18.109375 71.875 29.4375 71.875 
Q 37.890625 71.875 43.28125 67.140625 
Q 48.6875 62.40625 49.75 54.046875 
z
M 13.875 23.1875 
Q 13.875 18.65625 15.796875 14.5 
Q 17.71875 10.359375 21.1875 8.171875 
Q 24.65625 6 28.46875 6 
Q 34.03125 6 38.03125 10.484375 
Q 42.046875 14.984375 42.046875 22.703125 
Q 42.046875 30.125 38.078125 34.390625 
Q 34.125 38.671875 28.125 38.671875 
Q 22.171875 38.671875 18.015625 34.390625 
Q 13.875 30.125 13.875 23.1875 
z
" id="ArialMT-54"/>
       </defs>
       <use xlink:href="#ArialMT-54"/>
       <use x="55.615234" xlink:href="#ArialMT-48"/>
       <use x="111.230469" xlink:href="#ArialMT-176"/>
      </g>
     </g>
    </g>
    <g id="xtick_3">
     <g id="line2d_3">
      <path clip-path="url(#p9dfd498c02)" d="M 71.200625 57.278962 
L 44.020625 10.201821 
" style="fill:none;stroke:#b0b0b0;stroke-linecap:square;stroke-width:0.8;"/>
     </g>
     <g id="text_3">
      <!-- 120° -->
      <g transform="translate(30.43 7.157813)scale(0.1 -0.1)">
       <defs>
        <path d="M 37.25 0 
L 28.46875 0 
L 28.46875 56 
Q 25.296875 52.984375 20.140625 49.953125 
Q 14.984375 46.921875 10.890625 45.40625 
L 10.890625 53.90625 
Q 18.265625 57.375 23.78125 62.296875 
Q 29.296875 67.234375 31.59375 71.875 
L 37.25 71.875 
z
" id="ArialMT-49"/>
        <path d="M 50.34375 8.453125 
L 50.34375 0 
L 3.03125 0 
Q 2.9375 3.171875 4.046875 6.109375 
Q 5.859375 10.9375 9.828125 15.625 
Q 13.8125 20.3125 21.34375 26.46875 
Q 33.015625 36.03125 37.109375 41.625 
Q 41.21875 47.21875 41.21875 52.203125 
Q 41.21875 57.421875 37.46875 61 
Q 33.734375 64.59375 27.734375 64.59375 
Q 21.390625 64.59375 17.578125 60.78125 
Q 13.765625 56.984375 13.71875 50.25 
L 4.6875 51.171875 
Q 5.609375 61.28125 11.65625 66.578125 
Q 17.71875 71.875 27.9375 71.875 
Q 38.234375 71.875 44.234375 66.15625 
Q 50.25 60.453125 50.25 52 
Q 50.25 47.703125 48.484375 43.546875 
Q 46.734375 39.40625 42.65625 34.8125 
Q 38.578125 30.21875 29.109375 22.21875 
Q 21.1875 15.578125 18.9375 13.203125 
Q 16.703125 10.84375 15.234375 8.453125 
z
" id="ArialMT-50"/>
       </defs>
       <use xlink:href="#ArialMT-49"/>
       <use x="55.615234" xlink:href="#ArialMT-50"/>
       <use x="111.230469" xlink:href="#ArialMT-48"/>
       <use x="166.845703" xlink:href="#ArialMT-176"/>
      </g>
     </g>
    </g>
    <g id="xtick_4">
     <g id="line2d_4">
      <path clip-path="url(#p9dfd498c02)" d="M 71.200625 57.278962 
L 16.840625 57.278962 
" style="fill:none;stroke:#b0b0b0;stroke-linecap:square;stroke-width:0.8;"/>
     </g>
     <g id="text_4">
      <!-- 180° -->
      <g transform="translate(0 59.864119)scale(0.1 -0.1)">
       <defs>
        <path d="M 17.671875 38.8125 
Q 12.203125 40.828125 9.5625 44.53125 
Q 6.9375 48.25 6.9375 53.421875 
Q 6.9375 61.234375 12.546875 66.546875 
Q 18.171875 71.875 27.484375 71.875 
Q 36.859375 71.875 42.578125 66.421875 
Q 48.296875 60.984375 48.296875 53.171875 
Q 48.296875 48.1875 45.671875 44.5 
Q 43.0625 40.828125 37.75 38.8125 
Q 44.34375 36.671875 47.78125 31.875 
Q 51.21875 27.09375 51.21875 20.453125 
Q 51.21875 11.28125 44.71875 5.03125 
Q 38.234375 -1.21875 27.640625 -1.21875 
Q 17.046875 -1.21875 10.546875 5.046875 
Q 4.046875 11.328125 4.046875 20.703125 
Q 4.046875 27.6875 7.59375 32.390625 
Q 11.140625 37.109375 17.671875 38.8125 
z
M 15.921875 53.71875 
Q 15.921875 48.640625 19.1875 45.40625 
Q 22.46875 42.1875 27.6875 42.1875 
Q 32.765625 42.1875 36.015625 45.375 
Q 39.265625 48.578125 39.265625 53.21875 
Q 39.265625 58.0625 35.90625 61.359375 
Q 32.5625 64.65625 27.59375 64.65625 
Q 22.5625 64.65625 19.234375 61.421875 
Q 15.921875 58.203125 15.921875 53.71875 
z
M 13.09375 20.65625 
Q 13.09375 16.890625 14.875 13.375 
Q 16.65625 9.859375 20.171875 7.921875 
Q 23.6875 6 27.734375 6 
Q 34.03125 6 38.125 10.046875 
Q 42.234375 14.109375 42.234375 20.359375 
Q 42.234375 26.703125 38.015625 30.859375 
Q 33.796875 35.015625 27.4375 35.015625 
Q 21.234375 35.015625 17.15625 30.90625 
Q 13.09375 26.8125 13.09375 20.65625 
z
" id="ArialMT-56"/>
       </defs>
       <use xlink:href="#ArialMT-49"/>
       <use x="55.615234" xlink:href="#ArialMT-56"/>
       <use x="111.230469" xlink:href="#ArialMT-48"/>
       <use x="166.845703" xlink:href="#ArialMT-176"/>
      </g>
     </g>
    </g>
    <g id="xtick_5">
     <g id="line2d_5">
      <path clip-path="url(#p9dfd498c02)" d="M 71.200625 57.278962 
L 44.020625 104.356103 
" style="fill:none;stroke:#b0b0b0;stroke-linecap:square;stroke-width:0.8;"/>
     </g>
     <g id="text_5">
      <!-- 240° -->
      <g transform="translate(30.43 112.570425)scale(0.1 -0.1)">
       <defs>
        <path d="M 32.328125 0 
L 32.328125 17.140625 
L 1.265625 17.140625 
L 1.265625 25.203125 
L 33.9375 71.578125 
L 41.109375 71.578125 
L 41.109375 25.203125 
L 50.78125 25.203125 
L 50.78125 17.140625 
L 41.109375 17.140625 
L 41.109375 0 
z
M 32.328125 25.203125 
L 32.328125 57.46875 
L 9.90625 25.203125 
z
" id="ArialMT-52"/>
       </defs>
       <use xlink:href="#ArialMT-50"/>
       <use x="55.615234" xlink:href="#ArialMT-52"/>
       <use x="111.230469" xlink:href="#ArialMT-48"/>
       <use x="166.845703" xlink:href="#ArialMT-176"/>
      </g>
     </g>
    </g>
    <g id="xtick_6">
     <g id="line2d_6">
      <path clip-path="url(#p9dfd498c02)" d="M 71.200625 57.278962 
L 98.380625 104.356103 
" style="fill:none;stroke:#b0b0b0;stroke-linecap:square;stroke-width:0.8;"/>
     </g>
     <g id="text_6">
      <!-- 300° -->
      <g transform="translate(91.29 112.570425)scale(0.1 -0.1)">
       <defs>
        <path d="M 4.203125 18.890625 
L 12.984375 20.0625 
Q 14.5 12.59375 18.140625 9.296875 
Q 21.78125 6 27 6 
Q 33.203125 6 37.46875 10.296875 
Q 41.75 14.59375 41.75 20.953125 
Q 41.75 27 37.796875 30.921875 
Q 33.84375 34.859375 27.734375 34.859375 
Q 25.25 34.859375 21.53125 33.890625 
L 22.515625 41.609375 
Q 23.390625 41.5 23.921875 41.5 
Q 29.546875 41.5 34.03125 44.421875 
Q 38.53125 47.359375 38.53125 53.46875 
Q 38.53125 58.296875 35.25 61.46875 
Q 31.984375 64.65625 26.8125 64.65625 
Q 21.6875 64.65625 18.265625 61.421875 
Q 14.84375 58.203125 13.875 51.765625 
L 5.078125 53.328125 
Q 6.6875 62.15625 12.390625 67.015625 
Q 18.109375 71.875 26.609375 71.875 
Q 32.46875 71.875 37.390625 69.359375 
Q 42.328125 66.84375 44.9375 62.5 
Q 47.5625 58.15625 47.5625 53.265625 
Q 47.5625 48.640625 45.0625 44.828125 
Q 42.578125 41.015625 37.703125 38.765625 
Q 44.046875 37.3125 47.5625 32.6875 
Q 51.078125 28.078125 51.078125 21.140625 
Q 51.078125 11.765625 44.234375 5.25 
Q 37.40625 -1.265625 26.953125 -1.265625 
Q 17.53125 -1.265625 11.296875 4.34375 
Q 5.078125 9.96875 4.203125 18.890625 
z
" id="ArialMT-51"/>
       </defs>
       <use xlink:href="#ArialMT-51"/>
       <use x="55.615234" xlink:href="#ArialMT-48"/>
       <use x="111.230469" xlink:href="#ArialMT-48"/>
       <use x="166.845703" xlink:href="#ArialMT-176"/>
      </g>
     </g>
    </g>
   </g>
   <g id="matplotlib.axis_2">
    <g id="ytick_1">
     <g id="line2d_7">
      <path clip-path="url(#p9dfd498c02)" d="M 97.105171 57.278962 
C 97.105171 53.877209 96.435099 50.508533 95.133305 47.365722 
C 93.83151 44.222911 91.923308 41.367086 89.517905 38.961682 
C 87.112502 36.556279 84.256676 34.648078 81.113865 33.346283 
C 77.971055 32.044488 74.602379 31.374417 71.200625 31.374417 
C 67.798871 31.374417 64.430195 32.044488 61.287385 33.346283 
C 58.144574 34.648078 55.288748 36.556279 52.883345 38.961682 
C 50.477942 41.367086 48.56974 44.222911 47.267945 47.365722 
C 45.966151 50.508533 45.296079 53.877209 45.296079 57.278962 
C 45.296079 60.680716 45.966151 64.049392 47.267945 67.192203 
C 48.56974 70.335013 50.477942 73.190839 52.883345 75.596242 
C 55.288748 78.001645 58.144574 79.909847 61.287385 81.211642 
C 64.430195 82.513437 67.798871 83.183508 71.200625 83.183508 
C 74.602379 83.183508 77.971055 82.513437 81.113865 81.211642 
C 84.256676 79.909847 87.112502 78.001645 89.517905 75.596242 
C 91.923308 73.190839 93.83151 70.335013 95.133305 67.192203 
C 96.435099 64.049392 97.105171 60.680716 97.105171 57.278962 
" style="fill:none;stroke:#b0b0b0;stroke-linecap:square;stroke-width:0.8;"/>
     </g>
    </g>
    <g id="ytick_2">
     <g id="line2d_8">
      <path clip-path="url(#p9dfd498c02)" d="M 123.009716 57.278962 
C 123.009716 50.475455 121.669574 43.738103 119.065984 37.452481 
C 116.462394 31.16686 112.645991 25.455209 107.835185 20.644403 
C 103.024378 15.833596 97.312727 12.017193 91.027106 9.413603 
C 84.741485 6.810014 78.004133 5.469871 71.200625 5.469871 
C 64.397117 5.469871 57.659765 6.810014 51.374144 9.413603 
C 45.088523 12.017193 39.376872 15.833596 34.566065 20.644403 
C 29.755259 25.455209 25.938856 31.16686 23.335266 37.452481 
C 20.731676 43.738103 19.391534 50.475455 19.391534 57.278962 
C 19.391534 64.08247 20.731676 70.819822 23.335266 77.105443 
C 25.938856 83.391065 29.755259 89.102716 34.566065 93.913522 
C 39.376872 98.724328 45.088523 102.540732 51.374144 105.144321 
C 57.659765 107.747911 64.397117 109.088054 71.200625 109.088054 
C 78.004133 109.088054 84.741485 107.747911 91.027106 105.144321 
C 97.312727 102.540732 103.024378 98.724328 107.835185 93.913522 
C 112.645991 89.102716 116.462394 83.391065 119.065984 77.105443 
C 121.669574 70.819822 123.009716 64.08247 123.009716 57.278962 
" style="fill:none;stroke:#b0b0b0;stroke-linecap:square;stroke-width:0.8;"/>
     </g>
    </g>
   </g>
   <g id="line2d_9">
    <path clip-path="url(#p9dfd498c02)" d="M 91.406201 56.926279 
L 91.675083 55.487689 
L 85.914401 54.948524 
L 81.571495 54.884689 
L 76.685281 55.602111 
L 73.661392 56.33436 
L 71.917441 56.944708 
L 78.784685 53.075004 
L 79.531432 51.868857 
L 80.315484 50.410449 
L 81.943621 47.940312 
L 84.396003 44.083536 
L 87.359411 38.690455 
L 89.818633 32.572263 
L 90.807878 27.086287 
L 91.102003 21.371763 
L 89.395231 18.256839 
L 85.998533 18.726464 
L 81.611182 23.226391 
L 77.530519 29.86162 
L 74.498948 36.456418 
L 72.518596 42.219669 
L 71.403872 45.663588 
L 70.596003 45.751743 
L 69.403482 42.646113 
L 67.265095 37.0343 
L 63.677687 29.203456 
L 58.962131 21.734769 
L 53.306367 15.120148 
L 48.297149 12.324445 
L 44.51912 12.868612 
L 42.196052 15.859527 
L 42.466997 21.79772 
L 44.729676 28.893033 
L 49.113738 36.682563 
L 53.879585 43.252252 
L 58.281433 48.232319 
L 61.326512 51.345451 
L 61.776382 52.47762 
L 59.428532 52.282465 
L 54.697464 51.596836 
L 48.443193 51.181291 
L 41.727382 51.549747 
L 35.752324 52.925753 
L 31.322527 55.187729 
L 29.974089 57.996679 
L 31.301124 60.77136 
L 34.945452 63.022248 
L 40.938745 64.265931 
L 47.787517 64.437103 
L 54.134883 63.829656 
L 59.461743 62.752536 
L 62.474468 62.115515 
L 64.15748 61.853322 
L 60.10993 65.637018 
L 56.206926 70.313375 
L 51.875339 76.604603 
L 48.058548 83.900662 
L 45.353799 91.577635 
L 44.786067 97.951114 
L 46.232328 102.318343 
L 50.056604 102.627592 
L 55.000766 99.484844 
L 59.902875 94.234484 
L 64.387162 86.791828 
L 67.701608 79.369552 
L 69.782044 73.489209 
L 70.978808 69.960924 
L 71.865645 69.980178 
L 73.115667 72.870831 
L 75.172292 77.708715 
L 78.672008 85.161245 
L 83.109624 91.86538 
L 88.107347 97.110333 
L 93.175409 100.409878 
L 97.459283 100.984772 
L 99.74457 98.039969 
L 99.777679 92.566332 
L 97.683443 85.677201 
L 93.660132 78.222528 
L 88.74402 71.485524 
L 84.623209 66.677958 
L 81.739128 63.611611 
L 81.495484 62.525057 
L 84.154546 62.776958 
L 89.209686 63.47943 
L 95.352325 63.750026 
L 101.45406 63.159606 
L 106.572852 61.622566 
L 109.176332 59.270153 
" style="fill:none;stroke:#377eb8;stroke-linecap:square;"/>
    <defs>
     <path d="M 0 0.75 
C 0.198902 0.75 0.389685 0.670975 0.53033 0.53033 
C 0.670975 0.389685 0.75 0.198902 0.75 0 
C 0.75 -0.198902 0.670975 -0.389685 0.53033 -0.53033 
C 0.389685 -0.670975 0.198902 -0.75 0 -0.75 
C -0.198902 -0.75 -0.389685 -0.670975 -0.53033 -0.53033 
C -0.670975 -0.389685 -0.75 -0.198902 -0.75 0 
C -0.75 0.198902 -0.670975 0.389685 -0.53033 0.53033 
C -0.389685 0.670975 -0.198902 0.75 0 0.75 
z
" id="m567899f5ac" style="stroke:#377eb8;"/>
    </defs>
    <g clip-path="url(#p9dfd498c02)">
     <use style="fill:#377eb8;stroke:#377eb8;" x="91.406201" xlink:href="#m567899f5ac" y="56.926279"/>
     <use style="fill:#377eb8;stroke:#377eb8;" x="91.675083" xlink:href="#m567899f5ac" y="55.487689"/>
     <use style="fill:#377eb8;stroke:#377eb8;" x="85.914401" xlink:href="#m567899f5ac" y="54.948524"/>
     <use style="fill:#377eb8;stroke:#377eb8;" x="81.571495" xlink:href="#m567899f5ac" y="54.884689"/>
     <use style="fill:#377eb8;stroke:#377eb8;" x="76.685281" xlink:href="#m567899f5ac" y="55.602111"/>
     <use style="fill:#377eb8;stroke:#377eb8;" x="73.661392" xlink:href="#m567899f5ac" y="56.33436"/>
     <use style="fill:#377eb8;stroke:#377eb8;" x="71.917441" xlink:href="#m567899f5ac" y="56.944708"/>
     <use style="fill:#377eb8;stroke:#377eb8;" x="78.784685" xlink:href="#m567899f5ac" y="53.075004"/>
     <use style="fill:#377eb8;stroke:#377eb8;" x="79.531432" xlink:href="#m567899f5ac" y="51.868857"/>
     <use style="fill:#377eb8;stroke:#377eb8;" x="80.315484" xlink:href="#m567899f5ac" y="50.410449"/>
     <use style="fill:#377eb8;stroke:#377eb8;" x="81.943621" xlink:href="#m567899f5ac" y="47.940312"/>
     <use style="fill:#377eb8;stroke:#377eb8;" x="84.396003" xlink:href="#m567899f5ac" y="44.083536"/>
     <use style="fill:#377eb8;stroke:#377eb8;" x="87.359411" xlink:href="#m567899f5ac" y="38.690455"/>
     <use style="fill:#377eb8;stroke:#377eb8;" x="89.818633" xlink:href="#m567899f5ac" y="32.572263"/>
     <use style="fill:#377eb8;stroke:#377eb8;" x="90.807878" xlink:href="#m567899f5ac" y="27.086287"/>
     <use style="fill:#377eb8;stroke:#377eb8;" x="91.102003" xlink:href="#m567899f5ac" y="21.371763"/>
     <use style="fill:#377eb8;stroke:#377eb8;" x="89.395231" xlink:href="#m567899f5ac" y="18.256839"/>
     <use style="fill:#377eb8;stroke:#377eb8;" x="85.998533" xlink:href="#m567899f5ac" y="18.726464"/>
     <use style="fill:#377eb8;stroke:#377eb8;" x="81.611182" xlink:href="#m567899f5ac" y="23.226391"/>
     <use style="fill:#377eb8;stroke:#377eb8;" x="77.530519" xlink:href="#m567899f5ac" y="29.86162"/>
     <use style="fill:#377eb8;stroke:#377eb8;" x="74.498948" xlink:href="#m567899f5ac" y="36.456418"/>
     <use style="fill:#377eb8;stroke:#377eb8;" x="72.518596" xlink:href="#m567899f5ac" y="42.219669"/>
     <use style="fill:#377eb8;stroke:#377eb8;" x="71.403872" xlink:href="#m567899f5ac" y="45.663588"/>
     <use style="fill:#377eb8;stroke:#377eb8;" x="70.596003" xlink:href="#m567899f5ac" y="45.751743"/>
     <use style="fill:#377eb8;stroke:#377eb8;" x="69.403482" xlink:href="#m567899f5ac" y="42.646113"/>
     <use style="fill:#377eb8;stroke:#377eb8;" x="67.265095" xlink:href="#m567899f5ac" y="37.0343"/>
     <use style="fill:#377eb8;stroke:#377eb8;" x="63.677687" xlink:href="#m567899f5ac" y="29.203456"/>
     <use style="fill:#377eb8;stroke:#377eb8;" x="58.962131" xlink:href="#m567899f5ac" y="21.734769"/>
     <use style="fill:#377eb8;stroke:#377eb8;" x="53.306367" xlink:href="#m567899f5ac" y="15.120148"/>
     <use style="fill:#377eb8;stroke:#377eb8;" x="48.297149" xlink:href="#m567899f5ac" y="12.324445"/>
     <use style="fill:#377eb8;stroke:#377eb8;" x="44.51912" xlink:href="#m567899f5ac" y="12.868612"/>
     <use style="fill:#377eb8;stroke:#377eb8;" x="42.196052" xlink:href="#m567899f5ac" y="15.859527"/>
     <use style="fill:#377eb8;stroke:#377eb8;" x="42.466997" xlink:href="#m567899f5ac" y="21.79772"/>
     <use style="fill:#377eb8;stroke:#377eb8;" x="44.729676" xlink:href="#m567899f5ac" y="28.893033"/>
     <use style="fill:#377eb8;stroke:#377eb8;" x="49.113738" xlink:href="#m567899f5ac" y="36.682563"/>
     <use style="fill:#377eb8;stroke:#377eb8;" x="53.879585" xlink:href="#m567899f5ac" y="43.252252"/>
     <use style="fill:#377eb8;stroke:#377eb8;" x="58.281433" xlink:href="#m567899f5ac" y="48.232319"/>
     <use style="fill:#377eb8;stroke:#377eb8;" x="61.326512" xlink:href="#m567899f5ac" y="51.345451"/>
     <use style="fill:#377eb8;stroke:#377eb8;" x="61.776382" xlink:href="#m567899f5ac" y="52.47762"/>
     <use style="fill:#377eb8;stroke:#377eb8;" x="59.428532" xlink:href="#m567899f5ac" y="52.282465"/>
     <use style="fill:#377eb8;stroke:#377eb8;" x="54.697464" xlink:href="#m567899f5ac" y="51.596836"/>
     <use style="fill:#377eb8;stroke:#377eb8;" x="48.443193" xlink:href="#m567899f5ac" y="51.181291"/>
     <use style="fill:#377eb8;stroke:#377eb8;" x="41.727382" xlink:href="#m567899f5ac" y="51.549747"/>
     <use style="fill:#377eb8;stroke:#377eb8;" x="35.752324" xlink:href="#m567899f5ac" y="52.925753"/>
     <use style="fill:#377eb8;stroke:#377eb8;" x="31.322527" xlink:href="#m567899f5ac" y="55.187729"/>
     <use style="fill:#377eb8;stroke:#377eb8;" x="29.974089" xlink:href="#m567899f5ac" y="57.996679"/>
     <use style="fill:#377eb8;stroke:#377eb8;" x="31.301124" xlink:href="#m567899f5ac" y="60.77136"/>
     <use style="fill:#377eb8;stroke:#377eb8;" x="34.945452" xlink:href="#m567899f5ac" y="63.022248"/>
     <use style="fill:#377eb8;stroke:#377eb8;" x="40.938745" xlink:href="#m567899f5ac" y="64.265931"/>
     <use style="fill:#377eb8;stroke:#377eb8;" x="47.787517" xlink:href="#m567899f5ac" y="64.437103"/>
     <use style="fill:#377eb8;stroke:#377eb8;" x="54.134883" xlink:href="#m567899f5ac" y="63.829656"/>
     <use style="fill:#377eb8;stroke:#377eb8;" x="59.461743" xlink:href="#m567899f5ac" y="62.752536"/>
     <use style="fill:#377eb8;stroke:#377eb8;" x="62.474468" xlink:href="#m567899f5ac" y="62.115515"/>
     <use style="fill:#377eb8;stroke:#377eb8;" x="64.15748" xlink:href="#m567899f5ac" y="61.853322"/>
     <use style="fill:#377eb8;stroke:#377eb8;" x="60.10993" xlink:href="#m567899f5ac" y="65.637018"/>
     <use style="fill:#377eb8;stroke:#377eb8;" x="56.206926" xlink:href="#m567899f5ac" y="70.313375"/>
     <use style="fill:#377eb8;stroke:#377eb8;" x="51.875339" xlink:href="#m567899f5ac" y="76.604603"/>
     <use style="fill:#377eb8;stroke:#377eb8;" x="48.058548" xlink:href="#m567899f5ac" y="83.900662"/>
     <use style="fill:#377eb8;stroke:#377eb8;" x="45.353799" xlink:href="#m567899f5ac" y="91.577635"/>
     <use style="fill:#377eb8;stroke:#377eb8;" x="44.786067" xlink:href="#m567899f5ac" y="97.951114"/>
     <use style="fill:#377eb8;stroke:#377eb8;" x="46.232328" xlink:href="#m567899f5ac" y="102.318343"/>
     <use style="fill:#377eb8;stroke:#377eb8;" x="50.056604" xlink:href="#m567899f5ac" y="102.627592"/>
     <use style="fill:#377eb8;stroke:#377eb8;" x="55.000766" xlink:href="#m567899f5ac" y="99.484844"/>
     <use style="fill:#377eb8;stroke:#377eb8;" x="59.902875" xlink:href="#m567899f5ac" y="94.234484"/>
     <use style="fill:#377eb8;stroke:#377eb8;" x="64.387162" xlink:href="#m567899f5ac" y="86.791828"/>
     <use style="fill:#377eb8;stroke:#377eb8;" x="67.701608" xlink:href="#m567899f5ac" y="79.369552"/>
     <use style="fill:#377eb8;stroke:#377eb8;" x="69.782044" xlink:href="#m567899f5ac" y="73.489209"/>
     <use style="fill:#377eb8;stroke:#377eb8;" x="70.978808" xlink:href="#m567899f5ac" y="69.960924"/>
     <use style="fill:#377eb8;stroke:#377eb8;" x="71.865645" xlink:href="#m567899f5ac" y="69.980178"/>
     <use style="fill:#377eb8;stroke:#377eb8;" x="73.115667" xlink:href="#m567899f5ac" y="72.870831"/>
     <use style="fill:#377eb8;stroke:#377eb8;" x="75.172292" xlink:href="#m567899f5ac" y="77.708715"/>
     <use style="fill:#377eb8;stroke:#377eb8;" x="78.672008" xlink:href="#m567899f5ac" y="85.161245"/>
     <use style="fill:#377eb8;stroke:#377eb8;" x="83.109624" xlink:href="#m567899f5ac" y="91.86538"/>
     <use style="fill:#377eb8;stroke:#377eb8;" x="88.107347" xlink:href="#m567899f5ac" y="97.110333"/>
     <use style="fill:#377eb8;stroke:#377eb8;" x="93.175409" xlink:href="#m567899f5ac" y="100.409878"/>
     <use style="fill:#377eb8;stroke:#377eb8;" x="97.459283" xlink:href="#m567899f5ac" y="100.984772"/>
     <use style="fill:#377eb8;stroke:#377eb8;" x="99.74457" xlink:href="#m567899f5ac" y="98.039969"/>
     <use style="fill:#377eb8;stroke:#377eb8;" x="99.777679" xlink:href="#m567899f5ac" y="92.566332"/>
     <use style="fill:#377eb8;stroke:#377eb8;" x="97.683443" xlink:href="#m567899f5ac" y="85.677201"/>
     <use style="fill:#377eb8;stroke:#377eb8;" x="93.660132" xlink:href="#m567899f5ac" y="78.222528"/>
     <use style="fill:#377eb8;stroke:#377eb8;" x="88.74402" xlink:href="#m567899f5ac" y="71.485524"/>
     <use style="fill:#377eb8;stroke:#377eb8;" x="84.623209" xlink:href="#m567899f5ac" y="66.677958"/>
     <use style="fill:#377eb8;stroke:#377eb8;" x="81.739128" xlink:href="#m567899f5ac" y="63.611611"/>
     <use style="fill:#377eb8;stroke:#377eb8;" x="81.495484" xlink:href="#m567899f5ac" y="62.525057"/>
     <use style="fill:#377eb8;stroke:#377eb8;" x="84.154546" xlink:href="#m567899f5ac" y="62.776958"/>
     <use style="fill:#377eb8;stroke:#377eb8;" x="89.209686" xlink:href="#m567899f5ac" y="63.47943"/>
     <use style="fill:#377eb8;stroke:#377eb8;" x="95.352325" xlink:href="#m567899f5ac" y="63.750026"/>
     <use style="fill:#377eb8;stroke:#377eb8;" x="101.45406" xlink:href="#m567899f5ac" y="63.159606"/>
     <use style="fill:#377eb8;stroke:#377eb8;" x="106.572852" xlink:href="#m567899f5ac" y="61.622566"/>
     <use style="fill:#377eb8;stroke:#377eb8;" x="109.176332" xlink:href="#m567899f5ac" y="59.270153"/>
    </g>
   </g>
  </g>
 </g>
 <defs>
  <clipPath id="p9dfd498c02">
   <path d="M 125.560625 57.278962 
C 125.560625 50.140473 124.154498 43.071396 121.422716 36.476291 
C 118.690935 29.881186 114.686624 23.888312 109.63895 18.840638 
C 104.591275 13.792963 98.598401 9.788653 92.003296 7.056871 
C 85.408192 4.325089 78.339115 2.918962 71.200625 2.918962 
C 64.062135 2.918962 56.993058 4.325089 50.397954 7.056871 
C 43.802849 9.788653 37.809975 13.792963 32.7623 18.840638 
C 27.714626 23.888312 23.710315 29.881186 20.978534 36.476291 
C 18.246752 43.071396 16.840625 50.140473 16.840625 57.278962 
C 16.840625 64.417452 18.246752 71.486529 20.978534 78.081634 
C 23.710315 84.676738 27.714626 90.669612 32.7623 95.717287 
C 37.809975 100.764961 43.802849 104.769272 50.397954 107.501054 
C 56.993058 110.232835 64.062135 111.638962 71.200625 111.638962 
C 78.339115 111.638962 85.408192 110.232835 92.003296 107.501054 
C 98.598401 104.769272 104.591275 100.764961 109.63895 95.717287 
C 114.686624 90.669612 118.690935 84.676738 121.422716 78.081634 
C 124.154498 71.486529 125.560625 64.417452 125.560625 57.278962 
M 71.200625 57.278962 
C 71.200625 57.278962 71.200625 57.278962 71.200625 57.278962 
C 71.200625 57.278962 71.200625 57.278962 71.200625 57.278962 
C 71.200625 57.278962 71.200625 57.278962 71.200625 57.278962 
C 71.200625 57.278962 71.200625 57.278962 71.200625 57.278962 
C 71.200625 57.278962 71.200625 57.278962 71.200625 57.278962 
C 71.200625 57.278962 71.200625 57.278962 71.200625 57.278962 
C 71.200625 57.278962 71.200625 57.278962 71.200625 57.278962 
C 71.200625 57.278962 71.200625 57.278962 71.200625 57.278962 
C 71.200625 57.278962 71.200625 57.278962 71.200625 57.278962 
C 71.200625 57.278962 71.200625 57.278962 71.200625 57.278962 
C 71.200625 57.278962 71.200625 57.278962 71.200625 57.278962 
C 71.200625 57.278962 71.200625 57.278962 71.200625 57.278962 
C 71.200625 57.278962 71.200625 57.278962 71.200625 57.278962 
C 71.200625 57.278962 71.200625 57.278962 71.200625 57.278962 
C 71.200625 57.278962 71.200625 57.278962 71.200625 57.278962 
C 71.200625 57.278962 71.200625 57.278962 71.200625 57.278962 
M 125.560625 57.278962 
z
"/>
  </clipPath>
 </defs>
</svg>
