<?xml version="1.0" encoding="utf-8" standalone="no"?>
<!DOCTYPE svg PUBLIC "-//W3C//DTD SVG 1.1//EN"
  "http://www.w3.org/Graphics/SVG/1.1/DTD/svg11.dtd">
<!-- Created with matplotlib (https://matplotlib.org/) -->
<svg height="114.557925pt" version="1.1" viewBox="0 0 136.840312 114.557925" width="136.840312pt" xmlns="http://www.w3.org/2000/svg" xmlns:xlink="http://www.w3.org/1999/xlink">
 <metadata>
  <rdf:RDF xmlns:cc="http://creativecommons.org/ns#" xmlns:dc="http://purl.org/dc/elements/1.1/" xmlns:rdf="http://www.w3.org/1999/02/22-rdf-syntax-ns#">
   <cc:Work>
    <dc:type rdf:resource="http://purl.org/dc/dcmitype/StillImage"/>
    <dc:date>2020-12-07T22:43:29.404417</dc:date>
    <dc:format>image/svg+xml</dc:format>
    <dc:creator>
     <cc:Agent>
      <dc:title>Matplotlib v3.3.0, https://matplotlib.org/</dc:title>
     </cc:Agent>
    </dc:creator>
   </cc:Work>
  </rdf:RDF>
 </metadata>
 <defs>
  <style type="text/css">*{stroke-linecap:butt;stroke-linejoin:round;}</style>
 </defs>
 <g id="figure_1">
  <g id="patch_1">
   <path d="M 0 114.557925 
L 136.840312 114.557925 
L 136.840312 0 
L 0 0 
z
" style="fill:none;"/>
  </g>
  <g id="axes_1">
   <g id="patch_2">
    <path d="M 125.560625 57.278962 
C 125.560625 50.140473 124.154498 43.071396 121.422716 36.476291 
C 118.690935 29.881186 114.686624 23.888312 109.63895 18.840638 
C 104.591275 13.792963 98.598401 9.788653 92.003296 7.056871 
C 85.408192 4.325089 78.339115 2.918962 71.200625 2.918962 
C 64.062135 2.918962 56.993058 4.325089 50.397954 7.056871 
C 43.802849 9.788653 37.809975 13.792963 32.7623 18.840638 
C 27.714626 23.888312 23.710315 29.881186 20.978534 36.476291 
C 18.246752 43.071396 16.840625 50.140473 16.840625 57.278962 
C 16.840625 64.417452 18.246752 71.486529 20.978534 78.081634 
C 23.710315 84.676738 27.714626 90.669612 32.7623 95.717287 
C 37.809975 100.764961 43.802849 104.769272 50.397954 107.501054 
C 56.993058 110.232835 64.062135 111.638962 71.200625 111.638962 
C 78.339115 111.638962 85.408192 110.232835 92.003296 107.501054 
C 98.598401 104.769272 104.591275 100.764961 109.63895 95.717287 
C 114.686624 90.669612 118.690935 84.676738 121.422716 78.081634 
C 124.154498 71.486529 125.560625 64.417452 125.560625 57.278962 
M 71.200625 57.278962 
C 71.200625 57.278962 71.200625 57.278962 71.200625 57.278962 
C 71.200625 57.278962 71.200625 57.278962 71.200625 57.278962 
C 71.200625 57.278962 71.200625 57.278962 71.200625 57.278962 
C 71.200625 57.278962 71.200625 57.278962 71.200625 57.278962 
C 71.200625 57.278962 71.200625 57.278962 71.200625 57.278962 
C 71.200625 57.278962 71.200625 57.278962 71.200625 57.278962 
C 71.200625 57.278962 71.200625 57.278962 71.200625 57.278962 
C 71.200625 57.278962 71.200625 57.278962 71.200625 57.278962 
C 71.200625 57.278962 71.200625 57.278962 71.200625 57.278962 
C 71.200625 57.278962 71.200625 57.278962 71.200625 57.278962 
C 71.200625 57.278962 71.200625 57.278962 71.200625 57.278962 
C 71.200625 57.278962 71.200625 57.278962 71.200625 57.278962 
C 71.200625 57.278962 71.200625 57.278962 71.200625 57.278962 
C 71.200625 57.278962 71.200625 57.278962 71.200625 57.278962 
C 71.200625 57.278962 71.200625 57.278962 71.200625 57.278962 
C 71.200625 57.278962 71.200625 57.278962 71.200625 57.278962 
M 125.560625 57.278962 
z
" style="fill:none;"/>
   </g>
   <g id="matplotlib.axis_1">
    <g id="xtick_1">
     <g id="line2d_1">
      <path clip-path="url(#pc82e58e3f4)" d="M 71.200625 57.278962 
L 125.560625 57.278962 
" style="fill:none;stroke:#b0b0b0;stroke-linecap:square;stroke-width:0.8;"/>
     </g>
     <g id="text_1">
      <!-- 0° -->
      <g transform="translate(127.280938 59.864119)scale(0.1 -0.1)">
       <defs>
        <path d="M 4.15625 35.296875 
Q 4.15625 48 6.765625 55.734375 
Q 9.375 63.484375 14.515625 67.671875 
Q 19.671875 71.875 27.484375 71.875 
Q 33.25 71.875 37.59375 69.546875 
Q 41.9375 67.234375 44.765625 62.859375 
Q 47.609375 58.5 49.21875 52.21875 
Q 50.828125 45.953125 50.828125 35.296875 
Q 50.828125 22.703125 48.234375 14.96875 
Q 45.65625 7.234375 40.5 3 
Q 35.359375 -1.21875 27.484375 -1.21875 
Q 17.140625 -1.21875 11.234375 6.203125 
Q 4.15625 15.140625 4.15625 35.296875 
z
M 13.1875 35.296875 
Q 13.1875 17.671875 17.3125 11.828125 
Q 21.4375 6 27.484375 6 
Q 33.546875 6 37.671875 11.859375 
Q 41.796875 17.71875 41.796875 35.296875 
Q 41.796875 52.984375 37.671875 58.78125 
Q 33.546875 64.59375 27.390625 64.59375 
Q 21.34375 64.59375 17.71875 59.46875 
Q 13.1875 52.9375 13.1875 35.296875 
z
" id="ArialMT-48"/>
        <path d="M 6.25 59.28125 
Q 6.25 64.890625 10.21875 68.84375 
Q 14.203125 72.796875 19.78125 72.796875 
Q 25.4375 72.796875 29.390625 68.84375 
Q 33.34375 64.890625 33.34375 59.28125 
Q 33.34375 53.65625 29.359375 49.671875 
Q 25.390625 45.703125 19.78125 45.703125 
Q 14.203125 45.703125 10.21875 49.65625 
Q 6.25 53.609375 6.25 59.28125 
z
M 11.578125 59.28125 
Q 11.578125 55.859375 13.984375 53.4375 
Q 16.40625 51.03125 19.828125 51.03125 
Q 23.1875 51.03125 25.609375 53.4375 
Q 28.03125 55.859375 28.03125 59.28125 
Q 28.03125 62.703125 25.609375 65.109375 
Q 23.1875 67.53125 19.828125 67.53125 
Q 16.40625 67.53125 13.984375 65.109375 
Q 11.578125 62.703125 11.578125 59.28125 
z
" id="ArialMT-176"/>
       </defs>
       <use xlink:href="#ArialMT-48"/>
       <use x="55.615234" xlink:href="#ArialMT-176"/>
      </g>
     </g>
    </g>
    <g id="xtick_2">
     <g id="line2d_2">
      <path clip-path="url(#pc82e58e3f4)" d="M 71.200625 57.278962 
L 98.380625 10.201821 
" style="fill:none;stroke:#b0b0b0;stroke-linecap:square;stroke-width:0.8;"/>
     </g>
     <g id="text_2">
      <!-- 60° -->
      <g transform="translate(94.070469 7.157812)scale(0.1 -0.1)">
       <defs>
        <path d="M 49.75 54.046875 
L 41.015625 53.375 
Q 39.84375 58.546875 37.703125 60.890625 
Q 34.125 64.65625 28.90625 64.65625 
Q 24.703125 64.65625 21.53125 62.3125 
Q 17.390625 59.28125 14.984375 53.46875 
Q 12.59375 47.65625 12.5 36.921875 
Q 15.671875 41.75 20.265625 44.09375 
Q 24.859375 46.4375 29.890625 46.4375 
Q 38.671875 46.4375 44.84375 39.96875 
Q 51.03125 33.5 51.03125 23.25 
Q 51.03125 16.5 48.125 10.71875 
Q 45.21875 4.9375 40.140625 1.859375 
Q 35.0625 -1.21875 28.609375 -1.21875 
Q 17.625 -1.21875 10.6875 6.859375 
Q 3.765625 14.9375 3.765625 33.5 
Q 3.765625 54.25 11.421875 63.671875 
Q 18.109375 71.875 29.4375 71.875 
Q 37.890625 71.875 43.28125 67.140625 
Q 48.6875 62.40625 49.75 54.046875 
z
M 13.875 23.1875 
Q 13.875 18.65625 15.796875 14.5 
Q 17.71875 10.359375 21.1875 8.171875 
Q 24.65625 6 28.46875 6 
Q 34.03125 6 38.03125 10.484375 
Q 42.046875 14.984375 42.046875 22.703125 
Q 42.046875 30.125 38.078125 34.390625 
Q 34.125 38.671875 28.125 38.671875 
Q 22.171875 38.671875 18.015625 34.390625 
Q 13.875 30.125 13.875 23.1875 
z
" id="ArialMT-54"/>
       </defs>
       <use xlink:href="#ArialMT-54"/>
       <use x="55.615234" xlink:href="#ArialMT-48"/>
       <use x="111.230469" xlink:href="#ArialMT-176"/>
      </g>
     </g>
    </g>
    <g id="xtick_3">
     <g id="line2d_3">
      <path clip-path="url(#pc82e58e3f4)" d="M 71.200625 57.278962 
L 44.020625 10.201821 
" style="fill:none;stroke:#b0b0b0;stroke-linecap:square;stroke-width:0.8;"/>
     </g>
     <g id="text_3">
      <!-- 120° -->
      <g transform="translate(30.43 7.157812)scale(0.1 -0.1)">
       <defs>
        <path d="M 37.25 0 
L 28.46875 0 
L 28.46875 56 
Q 25.296875 52.984375 20.140625 49.953125 
Q 14.984375 46.921875 10.890625 45.40625 
L 10.890625 53.90625 
Q 18.265625 57.375 23.78125 62.296875 
Q 29.296875 67.234375 31.59375 71.875 
L 37.25 71.875 
z
" id="ArialMT-49"/>
        <path d="M 50.34375 8.453125 
L 50.34375 0 
L 3.03125 0 
Q 2.9375 3.171875 4.046875 6.109375 
Q 5.859375 10.9375 9.828125 15.625 
Q 13.8125 20.3125 21.34375 26.46875 
Q 33.015625 36.03125 37.109375 41.625 
Q 41.21875 47.21875 41.21875 52.203125 
Q 41.21875 57.421875 37.46875 61 
Q 33.734375 64.59375 27.734375 64.59375 
Q 21.390625 64.59375 17.578125 60.78125 
Q 13.765625 56.984375 13.71875 50.25 
L 4.6875 51.171875 
Q 5.609375 61.28125 11.65625 66.578125 
Q 17.71875 71.875 27.9375 71.875 
Q 38.234375 71.875 44.234375 66.15625 
Q 50.25 60.453125 50.25 52 
Q 50.25 47.703125 48.484375 43.546875 
Q 46.734375 39.40625 42.65625 34.8125 
Q 38.578125 30.21875 29.109375 22.21875 
Q 21.1875 15.578125 18.9375 13.203125 
Q 16.703125 10.84375 15.234375 8.453125 
z
" id="ArialMT-50"/>
       </defs>
       <use xlink:href="#ArialMT-49"/>
       <use x="55.615234" xlink:href="#ArialMT-50"/>
       <use x="111.230469" xlink:href="#ArialMT-48"/>
       <use x="166.845703" xlink:href="#ArialMT-176"/>
      </g>
     </g>
    </g>
    <g id="xtick_4">
     <g id="line2d_4">
      <path clip-path="url(#pc82e58e3f4)" d="M 71.200625 57.278962 
L 16.840625 57.278962 
" style="fill:none;stroke:#b0b0b0;stroke-linecap:square;stroke-width:0.8;"/>
     </g>
     <g id="text_4">
      <!-- 180° -->
      <g transform="translate(0 59.864119)scale(0.1 -0.1)">
       <defs>
        <path d="M 17.671875 38.8125 
Q 12.203125 40.828125 9.5625 44.53125 
Q 6.9375 48.25 6.9375 53.421875 
Q 6.9375 61.234375 12.546875 66.546875 
Q 18.171875 71.875 27.484375 71.875 
Q 36.859375 71.875 42.578125 66.421875 
Q 48.296875 60.984375 48.296875 53.171875 
Q 48.296875 48.1875 45.671875 44.5 
Q 43.0625 40.828125 37.75 38.8125 
Q 44.34375 36.671875 47.78125 31.875 
Q 51.21875 27.09375 51.21875 20.453125 
Q 51.21875 11.28125 44.71875 5.03125 
Q 38.234375 -1.21875 27.640625 -1.21875 
Q 17.046875 -1.21875 10.546875 5.046875 
Q 4.046875 11.328125 4.046875 20.703125 
Q 4.046875 27.6875 7.59375 32.390625 
Q 11.140625 37.109375 17.671875 38.8125 
z
M 15.921875 53.71875 
Q 15.921875 48.640625 19.1875 45.40625 
Q 22.46875 42.1875 27.6875 42.1875 
Q 32.765625 42.1875 36.015625 45.375 
Q 39.265625 48.578125 39.265625 53.21875 
Q 39.265625 58.0625 35.90625 61.359375 
Q 32.5625 64.65625 27.59375 64.65625 
Q 22.5625 64.65625 19.234375 61.421875 
Q 15.921875 58.203125 15.921875 53.71875 
z
M 13.09375 20.65625 
Q 13.09375 16.890625 14.875 13.375 
Q 16.65625 9.859375 20.171875 7.921875 
Q 23.6875 6 27.734375 6 
Q 34.03125 6 38.125 10.046875 
Q 42.234375 14.109375 42.234375 20.359375 
Q 42.234375 26.703125 38.015625 30.859375 
Q 33.796875 35.015625 27.4375 35.015625 
Q 21.234375 35.015625 17.15625 30.90625 
Q 13.09375 26.8125 13.09375 20.65625 
z
" id="ArialMT-56"/>
       </defs>
       <use xlink:href="#ArialMT-49"/>
       <use x="55.615234" xlink:href="#ArialMT-56"/>
       <use x="111.230469" xlink:href="#ArialMT-48"/>
       <use x="166.845703" xlink:href="#ArialMT-176"/>
      </g>
     </g>
    </g>
    <g id="xtick_5">
     <g id="line2d_5">
      <path clip-path="url(#pc82e58e3f4)" d="M 71.200625 57.278962 
L 44.020625 104.356103 
" style="fill:none;stroke:#b0b0b0;stroke-linecap:square;stroke-width:0.8;"/>
     </g>
     <g id="text_5">
      <!-- 240° -->
      <g transform="translate(30.43 112.570425)scale(0.1 -0.1)">
       <defs>
        <path d="M 32.328125 0 
L 32.328125 17.140625 
L 1.265625 17.140625 
L 1.265625 25.203125 
L 33.9375 71.578125 
L 41.109375 71.578125 
L 41.109375 25.203125 
L 50.78125 25.203125 
L 50.78125 17.140625 
L 41.109375 17.140625 
L 41.109375 0 
z
M 32.328125 25.203125 
L 32.328125 57.46875 
L 9.90625 25.203125 
z
" id="ArialMT-52"/>
       </defs>
       <use xlink:href="#ArialMT-50"/>
       <use x="55.615234" xlink:href="#ArialMT-52"/>
       <use x="111.230469" xlink:href="#ArialMT-48"/>
       <use x="166.845703" xlink:href="#ArialMT-176"/>
      </g>
     </g>
    </g>
    <g id="xtick_6">
     <g id="line2d_6">
      <path clip-path="url(#pc82e58e3f4)" d="M 71.200625 57.278962 
L 98.380625 104.356103 
" style="fill:none;stroke:#b0b0b0;stroke-linecap:square;stroke-width:0.8;"/>
     </g>
     <g id="text_6">
      <!-- 300° -->
      <g transform="translate(91.29 112.570425)scale(0.1 -0.1)">
       <defs>
        <path d="M 4.203125 18.890625 
L 12.984375 20.0625 
Q 14.5 12.59375 18.140625 9.296875 
Q 21.78125 6 27 6 
Q 33.203125 6 37.46875 10.296875 
Q 41.75 14.59375 41.75 20.953125 
Q 41.75 27 37.796875 30.921875 
Q 33.84375 34.859375 27.734375 34.859375 
Q 25.25 34.859375 21.53125 33.890625 
L 22.515625 41.609375 
Q 23.390625 41.5 23.921875 41.5 
Q 29.546875 41.5 34.03125 44.421875 
Q 38.53125 47.359375 38.53125 53.46875 
Q 38.53125 58.296875 35.25 61.46875 
Q 31.984375 64.65625 26.8125 64.65625 
Q 21.6875 64.65625 18.265625 61.421875 
Q 14.84375 58.203125 13.875 51.765625 
L 5.078125 53.328125 
Q 6.6875 62.15625 12.390625 67.015625 
Q 18.109375 71.875 26.609375 71.875 
Q 32.46875 71.875 37.390625 69.359375 
Q 42.328125 66.84375 44.9375 62.5 
Q 47.5625 58.15625 47.5625 53.265625 
Q 47.5625 48.640625 45.0625 44.828125 
Q 42.578125 41.015625 37.703125 38.765625 
Q 44.046875 37.3125 47.5625 32.6875 
Q 51.078125 28.078125 51.078125 21.140625 
Q 51.078125 11.765625 44.234375 5.25 
Q 37.40625 -1.265625 26.953125 -1.265625 
Q 17.53125 -1.265625 11.296875 4.34375 
Q 5.078125 9.96875 4.203125 18.890625 
z
" id="ArialMT-51"/>
       </defs>
       <use xlink:href="#ArialMT-51"/>
       <use x="55.615234" xlink:href="#ArialMT-48"/>
       <use x="111.230469" xlink:href="#ArialMT-48"/>
       <use x="166.845703" xlink:href="#ArialMT-176"/>
      </g>
     </g>
    </g>
   </g>
   <g id="matplotlib.axis_2">
    <g id="ytick_1">
     <g id="line2d_7">
      <path clip-path="url(#pc82e58e3f4)" d="M 97.099468 57.278962 
C 97.099468 53.877957 96.429544 50.510023 95.128036 47.367904 
C 93.826527 44.225786 91.918746 41.370589 89.513872 38.965715 
C 87.108999 36.560842 84.253802 34.65306 81.111683 33.351552 
C 77.969564 32.050044 74.60163 31.38012 71.200625 31.38012 
C 67.79962 31.38012 64.431686 32.050044 61.289567 33.351552 
C 58.147448 34.65306 55.292251 36.560842 52.887378 38.965715 
C 50.482504 41.370589 48.574723 44.225786 47.273214 47.367904 
C 45.971706 50.510023 45.301782 53.877957 45.301782 57.278962 
C 45.301782 60.679967 45.971706 64.047902 47.273214 67.19002 
C 48.574723 70.332139 50.482504 73.187336 52.887378 75.59221 
C 55.292251 77.997083 58.147448 79.904865 61.289567 81.206373 
C 64.431686 82.507881 67.79962 83.177805 71.200625 83.177805 
C 74.60163 83.177805 77.969564 82.507881 81.111683 81.206373 
C 84.253802 79.904865 87.108999 77.997083 89.513872 75.59221 
C 91.918746 73.187336 93.826527 70.332139 95.128036 67.19002 
C 96.429544 64.047902 97.099468 60.679967 97.099468 57.278962 
" style="fill:none;stroke:#b0b0b0;stroke-linecap:square;stroke-width:0.8;"/>
     </g>
    </g>
    <g id="ytick_2">
     <g id="line2d_8">
      <path clip-path="url(#pc82e58e3f4)" d="M 122.99831 57.278962 
C 122.99831 50.476953 121.658462 43.741084 119.055446 37.456846 
C 116.45243 31.172609 112.636867 25.462215 107.827119 20.652468 
C 103.017372 15.842721 97.306978 12.027158 91.022741 9.424141 
C 84.738503 6.821125 78.002635 5.481277 71.200625 5.481277 
C 64.398615 5.481277 57.662747 6.821125 51.378509 9.424141 
C 45.094272 12.027158 39.383878 15.842721 34.574131 20.652468 
C 29.764383 25.462215 25.94882 31.172609 23.345804 37.456846 
C 20.742788 43.741084 19.40294 50.476953 19.40294 57.278962 
C 19.40294 64.080972 20.742788 70.816841 23.345804 77.101078 
C 25.94882 83.385316 29.764383 89.09571 34.574131 93.905457 
C 39.383878 98.715204 45.094272 102.530767 51.378509 105.133783 
C 57.662747 107.7368 64.398615 109.076647 71.200625 109.076647 
C 78.002635 109.076647 84.738503 107.7368 91.022741 105.133783 
C 97.306978 102.530767 103.017372 98.715204 107.827119 93.905457 
C 112.636867 89.09571 116.45243 83.385316 119.055446 77.101078 
C 121.658462 70.816841 122.99831 64.080972 122.99831 57.278962 
" style="fill:none;stroke:#b0b0b0;stroke-linecap:square;stroke-width:0.8;"/>
     </g>
    </g>
   </g>
   <g id="line2d_9">
    <path clip-path="url(#pc82e58e3f4)" d="M 99.744571 56.780734 
L 99.189296 54.830284 
L 96.582619 53.25884 
L 91.409376 52.613464 
L 85.310969 52.964935 
L 79.146695 54.228744 
L 74.340943 55.814617 
L 71.913833 56.883621 
L 71.933695 56.8029 
L 74.14438 55.060693 
L 77.781827 51.558068 
L 82.309787 46.16976 
L 85.697853 40.601854 
L 88.301406 34.585672 
L 89.068024 29.765441 
L 88.517089 26.035613 
L 85.655874 26.276668 
L 81.665243 30.015842 
L 77.996209 35.050842 
L 74.841447 41.509083 
L 72.698612 47.822067 
L 71.569036 53.06945 
L 71.221109 56.108307 
L 71.151748 56.347108 
L 70.771694 53.786483 
L 69.580086 48.942786 
L 67.412233 43.140732 
L 64.370338 37.441795 
L 60.796919 32.767865 
L 57.419757 30.23013 
L 54.732424 29.868269 
L 52.742911 30.920771 
L 52.287059 33.923859 
L 53.543433 38.344402 
L 56.86858 43.914085 
L 61.518758 49.438512 
L 66.1248 53.724624 
L 69.845459 56.464621 
L 70.709325 57.028661 
L 67.386885 55.660275 
L 59.867087 53.376764 
L 49.531414 51.472871 
L 38.092792 50.84323 
L 28.152259 51.992431 
L 21.80223 54.688479 
L 19.410787 58.180577 
L 22.093561 61.577297 
L 27.988035 64.124392 
L 37.283308 65.109911 
L 47.755026 64.447037 
L 58.228236 62.25842 
L 66.160589 59.629016 
L 70.235826 57.813711 
L 70.299075 57.864498 
L 66.994907 60.448433 
L 61.643157 65.587518 
L 56.553092 71.926764 
L 52.381119 78.928153 
L 50.068845 85.320781 
L 50.116119 89.744099 
L 51.894248 92.105016 
L 55.284976 91.414043 
L 59.407785 88.003132 
L 63.545517 82.319213 
L 67.038037 75.309426 
L 69.511062 67.9458 
L 70.793442 61.931881 
L 71.178474 58.545429 
L 71.261533 58.442247 
L 71.771904 61.930199 
L 73.397011 68.576893 
L 76.567907 77.309 
L 81.231264 86.410198 
L 86.910579 94.290809 
L 92.945774 99.959162 
L 97.817629 101.581214 
L 100.868526 99.644987 
L 100.500294 93.458627 
L 96.609688 84.525784 
L 90.214685 75.009637 
L 82.920617 66.769759 
L 76.447892 60.953295 
L 72.550114 58.089878 
L 71.796988 57.582859 
L 74.158697 58.534448 
L 78.518639 59.798533 
L 84.592934 60.867219 
L 90.630416 61.055713 
L 95.958354 60.319137 
L 99.621304 58.769152 
" style="fill:none;stroke:#377eb8;stroke-linecap:square;"/>
    <defs>
     <path d="M 0 0.75 
C 0.198902 0.75 0.389685 0.670975 0.53033 0.53033 
C 0.670975 0.389685 0.75 0.198902 0.75 0 
C 0.75 -0.198902 0.670975 -0.389685 0.53033 -0.53033 
C 0.389685 -0.670975 0.198902 -0.75 0 -0.75 
C -0.198902 -0.75 -0.389685 -0.670975 -0.53033 -0.53033 
C -0.670975 -0.389685 -0.75 -0.198902 -0.75 0 
C -0.75 0.198902 -0.670975 0.389685 -0.53033 0.53033 
C -0.389685 0.670975 -0.198902 0.75 0 0.75 
z
" id="m0fcd64d17e" style="stroke:#377eb8;"/>
    </defs>
    <g clip-path="url(#pc82e58e3f4)">
     <use style="fill:#377eb8;stroke:#377eb8;" x="99.744571" xlink:href="#m0fcd64d17e" y="56.780734"/>
     <use style="fill:#377eb8;stroke:#377eb8;" x="99.189296" xlink:href="#m0fcd64d17e" y="54.830284"/>
     <use style="fill:#377eb8;stroke:#377eb8;" x="96.582619" xlink:href="#m0fcd64d17e" y="53.25884"/>
     <use style="fill:#377eb8;stroke:#377eb8;" x="91.409376" xlink:href="#m0fcd64d17e" y="52.613464"/>
     <use style="fill:#377eb8;stroke:#377eb8;" x="85.310969" xlink:href="#m0fcd64d17e" y="52.964935"/>
     <use style="fill:#377eb8;stroke:#377eb8;" x="79.146695" xlink:href="#m0fcd64d17e" y="54.228744"/>
     <use style="fill:#377eb8;stroke:#377eb8;" x="74.340943" xlink:href="#m0fcd64d17e" y="55.814617"/>
     <use style="fill:#377eb8;stroke:#377eb8;" x="71.913833" xlink:href="#m0fcd64d17e" y="56.883621"/>
     <use style="fill:#377eb8;stroke:#377eb8;" x="71.933695" xlink:href="#m0fcd64d17e" y="56.8029"/>
     <use style="fill:#377eb8;stroke:#377eb8;" x="74.14438" xlink:href="#m0fcd64d17e" y="55.060693"/>
     <use style="fill:#377eb8;stroke:#377eb8;" x="77.781827" xlink:href="#m0fcd64d17e" y="51.558068"/>
     <use style="fill:#377eb8;stroke:#377eb8;" x="82.309787" xlink:href="#m0fcd64d17e" y="46.16976"/>
     <use style="fill:#377eb8;stroke:#377eb8;" x="85.697853" xlink:href="#m0fcd64d17e" y="40.601854"/>
     <use style="fill:#377eb8;stroke:#377eb8;" x="88.301406" xlink:href="#m0fcd64d17e" y="34.585672"/>
     <use style="fill:#377eb8;stroke:#377eb8;" x="89.068024" xlink:href="#m0fcd64d17e" y="29.765441"/>
     <use style="fill:#377eb8;stroke:#377eb8;" x="88.517089" xlink:href="#m0fcd64d17e" y="26.035613"/>
     <use style="fill:#377eb8;stroke:#377eb8;" x="85.655874" xlink:href="#m0fcd64d17e" y="26.276668"/>
     <use style="fill:#377eb8;stroke:#377eb8;" x="81.665243" xlink:href="#m0fcd64d17e" y="30.015842"/>
     <use style="fill:#377eb8;stroke:#377eb8;" x="77.996209" xlink:href="#m0fcd64d17e" y="35.050842"/>
     <use style="fill:#377eb8;stroke:#377eb8;" x="74.841447" xlink:href="#m0fcd64d17e" y="41.509083"/>
     <use style="fill:#377eb8;stroke:#377eb8;" x="72.698612" xlink:href="#m0fcd64d17e" y="47.822067"/>
     <use style="fill:#377eb8;stroke:#377eb8;" x="71.569036" xlink:href="#m0fcd64d17e" y="53.06945"/>
     <use style="fill:#377eb8;stroke:#377eb8;" x="71.221109" xlink:href="#m0fcd64d17e" y="56.108307"/>
     <use style="fill:#377eb8;stroke:#377eb8;" x="71.151748" xlink:href="#m0fcd64d17e" y="56.347108"/>
     <use style="fill:#377eb8;stroke:#377eb8;" x="70.771694" xlink:href="#m0fcd64d17e" y="53.786483"/>
     <use style="fill:#377eb8;stroke:#377eb8;" x="69.580086" xlink:href="#m0fcd64d17e" y="48.942786"/>
     <use style="fill:#377eb8;stroke:#377eb8;" x="67.412233" xlink:href="#m0fcd64d17e" y="43.140732"/>
     <use style="fill:#377eb8;stroke:#377eb8;" x="64.370338" xlink:href="#m0fcd64d17e" y="37.441795"/>
     <use style="fill:#377eb8;stroke:#377eb8;" x="60.796919" xlink:href="#m0fcd64d17e" y="32.767865"/>
     <use style="fill:#377eb8;stroke:#377eb8;" x="57.419757" xlink:href="#m0fcd64d17e" y="30.23013"/>
     <use style="fill:#377eb8;stroke:#377eb8;" x="54.732424" xlink:href="#m0fcd64d17e" y="29.868269"/>
     <use style="fill:#377eb8;stroke:#377eb8;" x="52.742911" xlink:href="#m0fcd64d17e" y="30.920771"/>
     <use style="fill:#377eb8;stroke:#377eb8;" x="52.287059" xlink:href="#m0fcd64d17e" y="33.923859"/>
     <use style="fill:#377eb8;stroke:#377eb8;" x="53.543433" xlink:href="#m0fcd64d17e" y="38.344402"/>
     <use style="fill:#377eb8;stroke:#377eb8;" x="56.86858" xlink:href="#m0fcd64d17e" y="43.914085"/>
     <use style="fill:#377eb8;stroke:#377eb8;" x="61.518758" xlink:href="#m0fcd64d17e" y="49.438512"/>
     <use style="fill:#377eb8;stroke:#377eb8;" x="66.1248" xlink:href="#m0fcd64d17e" y="53.724624"/>
     <use style="fill:#377eb8;stroke:#377eb8;" x="69.845459" xlink:href="#m0fcd64d17e" y="56.464621"/>
     <use style="fill:#377eb8;stroke:#377eb8;" x="70.709325" xlink:href="#m0fcd64d17e" y="57.028661"/>
     <use style="fill:#377eb8;stroke:#377eb8;" x="67.386885" xlink:href="#m0fcd64d17e" y="55.660275"/>
     <use style="fill:#377eb8;stroke:#377eb8;" x="59.867087" xlink:href="#m0fcd64d17e" y="53.376764"/>
     <use style="fill:#377eb8;stroke:#377eb8;" x="49.531414" xlink:href="#m0fcd64d17e" y="51.472871"/>
     <use style="fill:#377eb8;stroke:#377eb8;" x="38.092792" xlink:href="#m0fcd64d17e" y="50.84323"/>
     <use style="fill:#377eb8;stroke:#377eb8;" x="28.152259" xlink:href="#m0fcd64d17e" y="51.992431"/>
     <use style="fill:#377eb8;stroke:#377eb8;" x="21.80223" xlink:href="#m0fcd64d17e" y="54.688479"/>
     <use style="fill:#377eb8;stroke:#377eb8;" x="19.410787" xlink:href="#m0fcd64d17e" y="58.180577"/>
     <use style="fill:#377eb8;stroke:#377eb8;" x="22.093561" xlink:href="#m0fcd64d17e" y="61.577297"/>
     <use style="fill:#377eb8;stroke:#377eb8;" x="27.988035" xlink:href="#m0fcd64d17e" y="64.124392"/>
     <use style="fill:#377eb8;stroke:#377eb8;" x="37.283308" xlink:href="#m0fcd64d17e" y="65.109911"/>
     <use style="fill:#377eb8;stroke:#377eb8;" x="47.755026" xlink:href="#m0fcd64d17e" y="64.447037"/>
     <use style="fill:#377eb8;stroke:#377eb8;" x="58.228236" xlink:href="#m0fcd64d17e" y="62.25842"/>
     <use style="fill:#377eb8;stroke:#377eb8;" x="66.160589" xlink:href="#m0fcd64d17e" y="59.629016"/>
     <use style="fill:#377eb8;stroke:#377eb8;" x="70.235826" xlink:href="#m0fcd64d17e" y="57.813711"/>
     <use style="fill:#377eb8;stroke:#377eb8;" x="70.299075" xlink:href="#m0fcd64d17e" y="57.864498"/>
     <use style="fill:#377eb8;stroke:#377eb8;" x="66.994907" xlink:href="#m0fcd64d17e" y="60.448433"/>
     <use style="fill:#377eb8;stroke:#377eb8;" x="61.643157" xlink:href="#m0fcd64d17e" y="65.587518"/>
     <use style="fill:#377eb8;stroke:#377eb8;" x="56.553092" xlink:href="#m0fcd64d17e" y="71.926764"/>
     <use style="fill:#377eb8;stroke:#377eb8;" x="52.381119" xlink:href="#m0fcd64d17e" y="78.928153"/>
     <use style="fill:#377eb8;stroke:#377eb8;" x="50.068845" xlink:href="#m0fcd64d17e" y="85.320781"/>
     <use style="fill:#377eb8;stroke:#377eb8;" x="50.116119" xlink:href="#m0fcd64d17e" y="89.744099"/>
     <use style="fill:#377eb8;stroke:#377eb8;" x="51.894248" xlink:href="#m0fcd64d17e" y="92.105016"/>
     <use style="fill:#377eb8;stroke:#377eb8;" x="55.284976" xlink:href="#m0fcd64d17e" y="91.414043"/>
     <use style="fill:#377eb8;stroke:#377eb8;" x="59.407785" xlink:href="#m0fcd64d17e" y="88.003132"/>
     <use style="fill:#377eb8;stroke:#377eb8;" x="63.545517" xlink:href="#m0fcd64d17e" y="82.319213"/>
     <use style="fill:#377eb8;stroke:#377eb8;" x="67.038037" xlink:href="#m0fcd64d17e" y="75.309426"/>
     <use style="fill:#377eb8;stroke:#377eb8;" x="69.511062" xlink:href="#m0fcd64d17e" y="67.9458"/>
     <use style="fill:#377eb8;stroke:#377eb8;" x="70.793442" xlink:href="#m0fcd64d17e" y="61.931881"/>
     <use style="fill:#377eb8;stroke:#377eb8;" x="71.178474" xlink:href="#m0fcd64d17e" y="58.545429"/>
     <use style="fill:#377eb8;stroke:#377eb8;" x="71.261533" xlink:href="#m0fcd64d17e" y="58.442247"/>
     <use style="fill:#377eb8;stroke:#377eb8;" x="71.771904" xlink:href="#m0fcd64d17e" y="61.930199"/>
     <use style="fill:#377eb8;stroke:#377eb8;" x="73.397011" xlink:href="#m0fcd64d17e" y="68.576893"/>
     <use style="fill:#377eb8;stroke:#377eb8;" x="76.567907" xlink:href="#m0fcd64d17e" y="77.309"/>
     <use style="fill:#377eb8;stroke:#377eb8;" x="81.231264" xlink:href="#m0fcd64d17e" y="86.410198"/>
     <use style="fill:#377eb8;stroke:#377eb8;" x="86.910579" xlink:href="#m0fcd64d17e" y="94.290809"/>
     <use style="fill:#377eb8;stroke:#377eb8;" x="92.945774" xlink:href="#m0fcd64d17e" y="99.959162"/>
     <use style="fill:#377eb8;stroke:#377eb8;" x="97.817629" xlink:href="#m0fcd64d17e" y="101.581214"/>
     <use style="fill:#377eb8;stroke:#377eb8;" x="100.868526" xlink:href="#m0fcd64d17e" y="99.644987"/>
     <use style="fill:#377eb8;stroke:#377eb8;" x="100.500294" xlink:href="#m0fcd64d17e" y="93.458627"/>
     <use style="fill:#377eb8;stroke:#377eb8;" x="96.609688" xlink:href="#m0fcd64d17e" y="84.525784"/>
     <use style="fill:#377eb8;stroke:#377eb8;" x="90.214685" xlink:href="#m0fcd64d17e" y="75.009637"/>
     <use style="fill:#377eb8;stroke:#377eb8;" x="82.920617" xlink:href="#m0fcd64d17e" y="66.769759"/>
     <use style="fill:#377eb8;stroke:#377eb8;" x="76.447892" xlink:href="#m0fcd64d17e" y="60.953295"/>
     <use style="fill:#377eb8;stroke:#377eb8;" x="72.550114" xlink:href="#m0fcd64d17e" y="58.089878"/>
     <use style="fill:#377eb8;stroke:#377eb8;" x="71.796988" xlink:href="#m0fcd64d17e" y="57.582859"/>
     <use style="fill:#377eb8;stroke:#377eb8;" x="74.158697" xlink:href="#m0fcd64d17e" y="58.534448"/>
     <use style="fill:#377eb8;stroke:#377eb8;" x="78.518639" xlink:href="#m0fcd64d17e" y="59.798533"/>
     <use style="fill:#377eb8;stroke:#377eb8;" x="84.592934" xlink:href="#m0fcd64d17e" y="60.867219"/>
     <use style="fill:#377eb8;stroke:#377eb8;" x="90.630416" xlink:href="#m0fcd64d17e" y="61.055713"/>
     <use style="fill:#377eb8;stroke:#377eb8;" x="95.958354" xlink:href="#m0fcd64d17e" y="60.319137"/>
     <use style="fill:#377eb8;stroke:#377eb8;" x="99.621304" xlink:href="#m0fcd64d17e" y="58.769152"/>
    </g>
   </g>
  </g>
 </g>
 <defs>
  <clipPath id="pc82e58e3f4">
   <path d="M 125.560625 57.278962 
C 125.560625 50.140473 124.154498 43.071396 121.422716 36.476291 
C 118.690935 29.881186 114.686624 23.888312 109.63895 18.840638 
C 104.591275 13.792963 98.598401 9.788653 92.003296 7.056871 
C 85.408192 4.325089 78.339115 2.918962 71.200625 2.918962 
C 64.062135 2.918962 56.993058 4.325089 50.397954 7.056871 
C 43.802849 9.788653 37.809975 13.792963 32.7623 18.840638 
C 27.714626 23.888312 23.710315 29.881186 20.978534 36.476291 
C 18.246752 43.071396 16.840625 50.140473 16.840625 57.278962 
C 16.840625 64.417452 18.246752 71.486529 20.978534 78.081634 
C 23.710315 84.676738 27.714626 90.669612 32.7623 95.717287 
C 37.809975 100.764961 43.802849 104.769272 50.397954 107.501054 
C 56.993058 110.232835 64.062135 111.638962 71.200625 111.638962 
C 78.339115 111.638962 85.408192 110.232835 92.003296 107.501054 
C 98.598401 104.769272 104.591275 100.764961 109.63895 95.717287 
C 114.686624 90.669612 118.690935 84.676738 121.422716 78.081634 
C 124.154498 71.486529 125.560625 64.417452 125.560625 57.278962 
M 71.200625 57.278962 
C 71.200625 57.278962 71.200625 57.278962 71.200625 57.278962 
C 71.200625 57.278962 71.200625 57.278962 71.200625 57.278962 
C 71.200625 57.278962 71.200625 57.278962 71.200625 57.278962 
C 71.200625 57.278962 71.200625 57.278962 71.200625 57.278962 
C 71.200625 57.278962 71.200625 57.278962 71.200625 57.278962 
C 71.200625 57.278962 71.200625 57.278962 71.200625 57.278962 
C 71.200625 57.278962 71.200625 57.278962 71.200625 57.278962 
C 71.200625 57.278962 71.200625 57.278962 71.200625 57.278962 
C 71.200625 57.278962 71.200625 57.278962 71.200625 57.278962 
C 71.200625 57.278962 71.200625 57.278962 71.200625 57.278962 
C 71.200625 57.278962 71.200625 57.278962 71.200625 57.278962 
C 71.200625 57.278962 71.200625 57.278962 71.200625 57.278962 
C 71.200625 57.278962 71.200625 57.278962 71.200625 57.278962 
C 71.200625 57.278962 71.200625 57.278962 71.200625 57.278962 
C 71.200625 57.278962 71.200625 57.278962 71.200625 57.278962 
C 71.200625 57.278962 71.200625 57.278962 71.200625 57.278962 
M 125.560625 57.278962 
z
"/>
  </clipPath>
 </defs>
</svg>
