<?xml version="1.0" encoding="utf-8" standalone="no"?>
<!DOCTYPE svg PUBLIC "-//W3C//DTD SVG 1.1//EN"
  "http://www.w3.org/Graphics/SVG/1.1/DTD/svg11.dtd">
<!-- Created with matplotlib (https://matplotlib.org/) -->
<svg height="114.557925pt" version="1.1" viewBox="0 0 136.840312 114.557925" width="136.840312pt" xmlns="http://www.w3.org/2000/svg" xmlns:xlink="http://www.w3.org/1999/xlink">
 <metadata>
  <rdf:RDF xmlns:cc="http://creativecommons.org/ns#" xmlns:dc="http://purl.org/dc/elements/1.1/" xmlns:rdf="http://www.w3.org/1999/02/22-rdf-syntax-ns#">
   <cc:Work>
    <dc:type rdf:resource="http://purl.org/dc/dcmitype/StillImage"/>
    <dc:date>2020-12-07T22:43:32.001976</dc:date>
    <dc:format>image/svg+xml</dc:format>
    <dc:creator>
     <cc:Agent>
      <dc:title>Matplotlib v3.3.0, https://matplotlib.org/</dc:title>
     </cc:Agent>
    </dc:creator>
   </cc:Work>
  </rdf:RDF>
 </metadata>
 <defs>
  <style type="text/css">*{stroke-linecap:butt;stroke-linejoin:round;}</style>
 </defs>
 <g id="figure_1">
  <g id="patch_1">
   <path d="M 0 114.557925 
L 136.840312 114.557925 
L 136.840312 0 
L 0 0 
z
" style="fill:none;"/>
  </g>
  <g id="axes_1">
   <g id="patch_2">
    <path d="M 125.560625 57.278962 
C 125.560625 50.140473 124.154498 43.071396 121.422716 36.476291 
C 118.690935 29.881186 114.686624 23.888312 109.63895 18.840638 
C 104.591275 13.792963 98.598401 9.788653 92.003296 7.056871 
C 85.408192 4.325089 78.339115 2.918962 71.200625 2.918962 
C 64.062135 2.918962 56.993058 4.325089 50.397954 7.056871 
C 43.802849 9.788653 37.809975 13.792963 32.7623 18.840638 
C 27.714626 23.888312 23.710315 29.881186 20.978534 36.476291 
C 18.246752 43.071396 16.840625 50.140473 16.840625 57.278962 
C 16.840625 64.417452 18.246752 71.486529 20.978534 78.081634 
C 23.710315 84.676738 27.714626 90.669612 32.7623 95.717287 
C 37.809975 100.764961 43.802849 104.769272 50.397954 107.501054 
C 56.993058 110.232835 64.062135 111.638962 71.200625 111.638962 
C 78.339115 111.638962 85.408192 110.232835 92.003296 107.501054 
C 98.598401 104.769272 104.591275 100.764961 109.63895 95.717287 
C 114.686624 90.669612 118.690935 84.676738 121.422716 78.081634 
C 124.154498 71.486529 125.560625 64.417452 125.560625 57.278962 
M 71.200625 57.278962 
C 71.200625 57.278962 71.200625 57.278962 71.200625 57.278962 
C 71.200625 57.278962 71.200625 57.278962 71.200625 57.278962 
C 71.200625 57.278962 71.200625 57.278962 71.200625 57.278962 
C 71.200625 57.278962 71.200625 57.278962 71.200625 57.278962 
C 71.200625 57.278962 71.200625 57.278962 71.200625 57.278962 
C 71.200625 57.278962 71.200625 57.278962 71.200625 57.278962 
C 71.200625 57.278962 71.200625 57.278962 71.200625 57.278962 
C 71.200625 57.278962 71.200625 57.278962 71.200625 57.278962 
C 71.200625 57.278962 71.200625 57.278962 71.200625 57.278962 
C 71.200625 57.278962 71.200625 57.278962 71.200625 57.278962 
C 71.200625 57.278962 71.200625 57.278962 71.200625 57.278962 
C 71.200625 57.278962 71.200625 57.278962 71.200625 57.278962 
C 71.200625 57.278962 71.200625 57.278962 71.200625 57.278962 
C 71.200625 57.278962 71.200625 57.278962 71.200625 57.278962 
C 71.200625 57.278962 71.200625 57.278962 71.200625 57.278962 
C 71.200625 57.278962 71.200625 57.278962 71.200625 57.278962 
M 125.560625 57.278962 
z
" style="fill:none;"/>
   </g>
   <g id="matplotlib.axis_1">
    <g id="xtick_1">
     <g id="line2d_1">
      <path clip-path="url(#p6e9d46a138)" d="M 71.200625 57.278962 
L 125.560625 57.278962 
" style="fill:none;stroke:#b0b0b0;stroke-linecap:square;stroke-width:0.8;"/>
     </g>
     <g id="text_1">
      <!-- 0° -->
      <g transform="translate(127.280938 59.864119)scale(0.1 -0.1)">
       <defs>
        <path d="M 4.15625 35.296875 
Q 4.15625 48 6.765625 55.734375 
Q 9.375 63.484375 14.515625 67.671875 
Q 19.671875 71.875 27.484375 71.875 
Q 33.25 71.875 37.59375 69.546875 
Q 41.9375 67.234375 44.765625 62.859375 
Q 47.609375 58.5 49.21875 52.21875 
Q 50.828125 45.953125 50.828125 35.296875 
Q 50.828125 22.703125 48.234375 14.96875 
Q 45.65625 7.234375 40.5 3 
Q 35.359375 -1.21875 27.484375 -1.21875 
Q 17.140625 -1.21875 11.234375 6.203125 
Q 4.15625 15.140625 4.15625 35.296875 
z
M 13.1875 35.296875 
Q 13.1875 17.671875 17.3125 11.828125 
Q 21.4375 6 27.484375 6 
Q 33.546875 6 37.671875 11.859375 
Q 41.796875 17.71875 41.796875 35.296875 
Q 41.796875 52.984375 37.671875 58.78125 
Q 33.546875 64.59375 27.390625 64.59375 
Q 21.34375 64.59375 17.71875 59.46875 
Q 13.1875 52.9375 13.1875 35.296875 
z
" id="ArialMT-48"/>
        <path d="M 6.25 59.28125 
Q 6.25 64.890625 10.21875 68.84375 
Q 14.203125 72.796875 19.78125 72.796875 
Q 25.4375 72.796875 29.390625 68.84375 
Q 33.34375 64.890625 33.34375 59.28125 
Q 33.34375 53.65625 29.359375 49.671875 
Q 25.390625 45.703125 19.78125 45.703125 
Q 14.203125 45.703125 10.21875 49.65625 
Q 6.25 53.609375 6.25 59.28125 
z
M 11.578125 59.28125 
Q 11.578125 55.859375 13.984375 53.4375 
Q 16.40625 51.03125 19.828125 51.03125 
Q 23.1875 51.03125 25.609375 53.4375 
Q 28.03125 55.859375 28.03125 59.28125 
Q 28.03125 62.703125 25.609375 65.109375 
Q 23.1875 67.53125 19.828125 67.53125 
Q 16.40625 67.53125 13.984375 65.109375 
Q 11.578125 62.703125 11.578125 59.28125 
z
" id="ArialMT-176"/>
       </defs>
       <use xlink:href="#ArialMT-48"/>
       <use x="55.615234" xlink:href="#ArialMT-176"/>
      </g>
     </g>
    </g>
    <g id="xtick_2">
     <g id="line2d_2">
      <path clip-path="url(#p6e9d46a138)" d="M 71.200625 57.278962 
L 98.380625 10.201821 
" style="fill:none;stroke:#b0b0b0;stroke-linecap:square;stroke-width:0.8;"/>
     </g>
     <g id="text_2">
      <!-- 60° -->
      <g transform="translate(94.070469 7.157813)scale(0.1 -0.1)">
       <defs>
        <path d="M 49.75 54.046875 
L 41.015625 53.375 
Q 39.84375 58.546875 37.703125 60.890625 
Q 34.125 64.65625 28.90625 64.65625 
Q 24.703125 64.65625 21.53125 62.3125 
Q 17.390625 59.28125 14.984375 53.46875 
Q 12.59375 47.65625 12.5 36.921875 
Q 15.671875 41.75 20.265625 44.09375 
Q 24.859375 46.4375 29.890625 46.4375 
Q 38.671875 46.4375 44.84375 39.96875 
Q 51.03125 33.5 51.03125 23.25 
Q 51.03125 16.5 48.125 10.71875 
Q 45.21875 4.9375 40.140625 1.859375 
Q 35.0625 -1.21875 28.609375 -1.21875 
Q 17.625 -1.21875 10.6875 6.859375 
Q 3.765625 14.9375 3.765625 33.5 
Q 3.765625 54.25 11.421875 63.671875 
Q 18.109375 71.875 29.4375 71.875 
Q 37.890625 71.875 43.28125 67.140625 
Q 48.6875 62.40625 49.75 54.046875 
z
M 13.875 23.1875 
Q 13.875 18.65625 15.796875 14.5 
Q 17.71875 10.359375 21.1875 8.171875 
Q 24.65625 6 28.46875 6 
Q 34.03125 6 38.03125 10.484375 
Q 42.046875 14.984375 42.046875 22.703125 
Q 42.046875 30.125 38.078125 34.390625 
Q 34.125 38.671875 28.125 38.671875 
Q 22.171875 38.671875 18.015625 34.390625 
Q 13.875 30.125 13.875 23.1875 
z
" id="ArialMT-54"/>
       </defs>
       <use xlink:href="#ArialMT-54"/>
       <use x="55.615234" xlink:href="#ArialMT-48"/>
       <use x="111.230469" xlink:href="#ArialMT-176"/>
      </g>
     </g>
    </g>
    <g id="xtick_3">
     <g id="line2d_3">
      <path clip-path="url(#p6e9d46a138)" d="M 71.200625 57.278962 
L 44.020625 10.201821 
" style="fill:none;stroke:#b0b0b0;stroke-linecap:square;stroke-width:0.8;"/>
     </g>
     <g id="text_3">
      <!-- 120° -->
      <g transform="translate(30.43 7.157813)scale(0.1 -0.1)">
       <defs>
        <path d="M 37.25 0 
L 28.46875 0 
L 28.46875 56 
Q 25.296875 52.984375 20.140625 49.953125 
Q 14.984375 46.921875 10.890625 45.40625 
L 10.890625 53.90625 
Q 18.265625 57.375 23.78125 62.296875 
Q 29.296875 67.234375 31.59375 71.875 
L 37.25 71.875 
z
" id="ArialMT-49"/>
        <path d="M 50.34375 8.453125 
L 50.34375 0 
L 3.03125 0 
Q 2.9375 3.171875 4.046875 6.109375 
Q 5.859375 10.9375 9.828125 15.625 
Q 13.8125 20.3125 21.34375 26.46875 
Q 33.015625 36.03125 37.109375 41.625 
Q 41.21875 47.21875 41.21875 52.203125 
Q 41.21875 57.421875 37.46875 61 
Q 33.734375 64.59375 27.734375 64.59375 
Q 21.390625 64.59375 17.578125 60.78125 
Q 13.765625 56.984375 13.71875 50.25 
L 4.6875 51.171875 
Q 5.609375 61.28125 11.65625 66.578125 
Q 17.71875 71.875 27.9375 71.875 
Q 38.234375 71.875 44.234375 66.15625 
Q 50.25 60.453125 50.25 52 
Q 50.25 47.703125 48.484375 43.546875 
Q 46.734375 39.40625 42.65625 34.8125 
Q 38.578125 30.21875 29.109375 22.21875 
Q 21.1875 15.578125 18.9375 13.203125 
Q 16.703125 10.84375 15.234375 8.453125 
z
" id="ArialMT-50"/>
       </defs>
       <use xlink:href="#ArialMT-49"/>
       <use x="55.615234" xlink:href="#ArialMT-50"/>
       <use x="111.230469" xlink:href="#ArialMT-48"/>
       <use x="166.845703" xlink:href="#ArialMT-176"/>
      </g>
     </g>
    </g>
    <g id="xtick_4">
     <g id="line2d_4">
      <path clip-path="url(#p6e9d46a138)" d="M 71.200625 57.278962 
L 16.840625 57.278962 
" style="fill:none;stroke:#b0b0b0;stroke-linecap:square;stroke-width:0.8;"/>
     </g>
     <g id="text_4">
      <!-- 180° -->
      <g transform="translate(0 59.864119)scale(0.1 -0.1)">
       <defs>
        <path d="M 17.671875 38.8125 
Q 12.203125 40.828125 9.5625 44.53125 
Q 6.9375 48.25 6.9375 53.421875 
Q 6.9375 61.234375 12.546875 66.546875 
Q 18.171875 71.875 27.484375 71.875 
Q 36.859375 71.875 42.578125 66.421875 
Q 48.296875 60.984375 48.296875 53.171875 
Q 48.296875 48.1875 45.671875 44.5 
Q 43.0625 40.828125 37.75 38.8125 
Q 44.34375 36.671875 47.78125 31.875 
Q 51.21875 27.09375 51.21875 20.453125 
Q 51.21875 11.28125 44.71875 5.03125 
Q 38.234375 -1.21875 27.640625 -1.21875 
Q 17.046875 -1.21875 10.546875 5.046875 
Q 4.046875 11.328125 4.046875 20.703125 
Q 4.046875 27.6875 7.59375 32.390625 
Q 11.140625 37.109375 17.671875 38.8125 
z
M 15.921875 53.71875 
Q 15.921875 48.640625 19.1875 45.40625 
Q 22.46875 42.1875 27.6875 42.1875 
Q 32.765625 42.1875 36.015625 45.375 
Q 39.265625 48.578125 39.265625 53.21875 
Q 39.265625 58.0625 35.90625 61.359375 
Q 32.5625 64.65625 27.59375 64.65625 
Q 22.5625 64.65625 19.234375 61.421875 
Q 15.921875 58.203125 15.921875 53.71875 
z
M 13.09375 20.65625 
Q 13.09375 16.890625 14.875 13.375 
Q 16.65625 9.859375 20.171875 7.921875 
Q 23.6875 6 27.734375 6 
Q 34.03125 6 38.125 10.046875 
Q 42.234375 14.109375 42.234375 20.359375 
Q 42.234375 26.703125 38.015625 30.859375 
Q 33.796875 35.015625 27.4375 35.015625 
Q 21.234375 35.015625 17.15625 30.90625 
Q 13.09375 26.8125 13.09375 20.65625 
z
" id="ArialMT-56"/>
       </defs>
       <use xlink:href="#ArialMT-49"/>
       <use x="55.615234" xlink:href="#ArialMT-56"/>
       <use x="111.230469" xlink:href="#ArialMT-48"/>
       <use x="166.845703" xlink:href="#ArialMT-176"/>
      </g>
     </g>
    </g>
    <g id="xtick_5">
     <g id="line2d_5">
      <path clip-path="url(#p6e9d46a138)" d="M 71.200625 57.278962 
L 44.020625 104.356103 
" style="fill:none;stroke:#b0b0b0;stroke-linecap:square;stroke-width:0.8;"/>
     </g>
     <g id="text_5">
      <!-- 240° -->
      <g transform="translate(30.43 112.570425)scale(0.1 -0.1)">
       <defs>
        <path d="M 32.328125 0 
L 32.328125 17.140625 
L 1.265625 17.140625 
L 1.265625 25.203125 
L 33.9375 71.578125 
L 41.109375 71.578125 
L 41.109375 25.203125 
L 50.78125 25.203125 
L 50.78125 17.140625 
L 41.109375 17.140625 
L 41.109375 0 
z
M 32.328125 25.203125 
L 32.328125 57.46875 
L 9.90625 25.203125 
z
" id="ArialMT-52"/>
       </defs>
       <use xlink:href="#ArialMT-50"/>
       <use x="55.615234" xlink:href="#ArialMT-52"/>
       <use x="111.230469" xlink:href="#ArialMT-48"/>
       <use x="166.845703" xlink:href="#ArialMT-176"/>
      </g>
     </g>
    </g>
    <g id="xtick_6">
     <g id="line2d_6">
      <path clip-path="url(#p6e9d46a138)" d="M 71.200625 57.278962 
L 98.380625 104.356103 
" style="fill:none;stroke:#b0b0b0;stroke-linecap:square;stroke-width:0.8;"/>
     </g>
     <g id="text_6">
      <!-- 300° -->
      <g transform="translate(91.29 112.570425)scale(0.1 -0.1)">
       <defs>
        <path d="M 4.203125 18.890625 
L 12.984375 20.0625 
Q 14.5 12.59375 18.140625 9.296875 
Q 21.78125 6 27 6 
Q 33.203125 6 37.46875 10.296875 
Q 41.75 14.59375 41.75 20.953125 
Q 41.75 27 37.796875 30.921875 
Q 33.84375 34.859375 27.734375 34.859375 
Q 25.25 34.859375 21.53125 33.890625 
L 22.515625 41.609375 
Q 23.390625 41.5 23.921875 41.5 
Q 29.546875 41.5 34.03125 44.421875 
Q 38.53125 47.359375 38.53125 53.46875 
Q 38.53125 58.296875 35.25 61.46875 
Q 31.984375 64.65625 26.8125 64.65625 
Q 21.6875 64.65625 18.265625 61.421875 
Q 14.84375 58.203125 13.875 51.765625 
L 5.078125 53.328125 
Q 6.6875 62.15625 12.390625 67.015625 
Q 18.109375 71.875 26.609375 71.875 
Q 32.46875 71.875 37.390625 69.359375 
Q 42.328125 66.84375 44.9375 62.5 
Q 47.5625 58.15625 47.5625 53.265625 
Q 47.5625 48.640625 45.0625 44.828125 
Q 42.578125 41.015625 37.703125 38.765625 
Q 44.046875 37.3125 47.5625 32.6875 
Q 51.078125 28.078125 51.078125 21.140625 
Q 51.078125 11.765625 44.234375 5.25 
Q 37.40625 -1.265625 26.953125 -1.265625 
Q 17.53125 -1.265625 11.296875 4.34375 
Q 5.078125 9.96875 4.203125 18.890625 
z
" id="ArialMT-51"/>
       </defs>
       <use xlink:href="#ArialMT-51"/>
       <use x="55.615234" xlink:href="#ArialMT-48"/>
       <use x="111.230469" xlink:href="#ArialMT-48"/>
       <use x="166.845703" xlink:href="#ArialMT-176"/>
      </g>
     </g>
    </g>
   </g>
   <g id="matplotlib.axis_2">
    <g id="ytick_1">
     <g id="line2d_7">
      <path clip-path="url(#p6e9d46a138)" d="M 97.086532 57.278962 
C 97.086532 53.879656 96.416943 50.513404 95.116085 47.372855 
C 93.815226 44.232305 91.908398 41.378534 89.504725 38.974862 
C 87.101053 36.57119 84.247282 34.664361 81.106733 33.363503 
C 77.966183 32.062645 74.599931 31.393055 71.200625 31.393055 
C 67.801319 31.393055 64.435067 32.062645 61.294517 33.363503 
C 58.153968 34.664361 55.300197 36.57119 52.896525 38.974862 
C 50.492852 41.378534 48.586024 44.232305 47.285165 47.372855 
C 45.984307 50.513404 45.314718 53.879656 45.314718 57.278962 
C 45.314718 60.678268 45.984307 64.044521 47.285165 67.18507 
C 48.586024 70.325619 50.492852 73.17939 52.896525 75.583063 
C 55.300197 77.986735 58.153968 79.893564 61.294517 81.194422 
C 64.435067 82.49528 67.801319 83.164869 71.200625 83.164869 
C 74.599931 83.164869 77.966183 82.49528 81.106733 81.194422 
C 84.247282 79.893564 87.101053 77.986735 89.504725 75.583063 
C 91.908398 73.17939 93.815226 70.325619 95.116085 67.18507 
C 96.416943 64.044521 97.086532 60.678268 97.086532 57.278962 
" style="fill:none;stroke:#b0b0b0;stroke-linecap:square;stroke-width:0.8;"/>
     </g>
    </g>
    <g id="ytick_2">
     <g id="line2d_8">
      <path clip-path="url(#p6e9d46a138)" d="M 122.972439 57.278962 
C 122.972439 50.48035 121.63326 43.747846 119.031544 37.466747 
C 116.429828 31.185648 112.61617 25.478107 107.808826 20.670762 
C 103.001481 15.863417 97.293939 12.04976 91.01284 9.448043 
C 84.731742 6.846327 77.999237 5.507149 71.200625 5.507149 
C 64.402013 5.507149 57.669508 6.846327 51.38841 9.448043 
C 45.107311 12.04976 39.399769 15.863417 34.592424 20.670762 
C 29.78508 25.478107 25.971422 31.185648 23.369706 37.466747 
C 20.76799 43.747846 19.428811 50.48035 19.428811 57.278962 
C 19.428811 64.077575 20.76799 70.810079 23.369706 77.091178 
C 25.971422 83.372276 29.78508 89.079818 34.592424 93.887163 
C 39.399769 98.694508 45.107311 102.508165 51.38841 105.109881 
C 57.669508 107.711598 64.402013 109.050776 71.200625 109.050776 
C 77.999237 109.050776 84.731742 107.711598 91.01284 105.109881 
C 97.293939 102.508165 103.001481 98.694508 107.808826 93.887163 
C 112.61617 89.079818 116.429828 83.372276 119.031544 77.091178 
C 121.63326 70.810079 122.972439 64.077575 122.972439 57.278962 
" style="fill:none;stroke:#b0b0b0;stroke-linecap:square;stroke-width:0.8;"/>
     </g>
    </g>
   </g>
   <g id="line2d_9">
    <path clip-path="url(#p6e9d46a138)" d="M 74.915101 57.214127 
L 81.305161 56.394935 
L 91.162477 54.117308 
L 101.181565 50.357405 
L 110.304769 45.323453 
L 116.834839 39.761584 
L 118.121874 35.399357 
L 115.173911 32.903912 
L 109.496587 32.4092 
L 100.606929 35.119807 
L 89.961456 40.970586 
L 80.614406 47.865146 
L 74.407708 53.589646 
L 71.872375 56.387528 
L 72.221774 55.706523 
L 73.882517 52.44014 
L 75.102571 48.910426 
L 74.137262 49.628241 
L 73.582296 49.488599 
L 72.49383 51.677565 
L 71.900184 52.862597 
L 71.436951 54.578667 
L 71.231284 55.526858 
L 71.135867 56.044349 
L 71.109678 56.538443 
L 71.124827 56.889053 
L 71.162236 57.135695 
L 71.183758 57.229977 
L 71.117056 57.082074 
L 70.938716 56.764891 
L 70.629305 56.328022 
L 70.178286 55.81903 
L 69.628801 55.338021 
L 69.19989 55.133489 
L 68.80311 55.043239 
L 68.671006 55.230457 
L 68.627467 55.477112 
L 68.921872 55.909623 
L 69.487999 56.406435 
L 70.107138 56.814847 
L 70.71156 57.110575 
L 71.129289 57.259848 
L 71.174627 57.273909 
L 70.82668 57.23304 
L 70.167282 57.224773 
L 69.387695 57.310524 
L 68.725971 57.495568 
L 68.365132 57.728141 
L 68.419052 57.921182 
L 68.602361 58.073335 
L 69.1974 58.047901 
L 69.642401 58.005527 
L 70.119979 57.87792 
L 70.533071 57.712523 
L 70.856149 57.538563 
L 71.066268 57.395762 
L 71.169953 57.309635 
L 71.195318 57.285067 
L 71.188735 57.294741 
L 71.153968 57.350803 
L 71.168146 57.33755 
L 71.168861 57.347089 
L 71.158737 57.388095 
L 71.149864 57.445004 
L 71.151037 57.493757 
L 71.156434 57.557956 
L 71.169844 57.630697 
L 71.193136 57.707117 
L 71.226027 57.764119 
L 71.251001 57.689113 
L 71.258339 57.575835 
L 71.24123 57.430495 
L 71.211242 57.309796 
L 71.207087 57.294186 
L 71.261906 57.399241 
L 71.354943 57.535814 
L 71.547486 57.774283 
L 71.790301 58.007103 
L 72.172435 58.321061 
L 72.534867 58.523148 
L 72.987901 58.72629 
L 73.536225 58.914437 
L 74.086366 59.013021 
L 74.269978 58.843055 
L 73.516899 58.262052 
L 73.3871 58.03176 
L 72.703513 57.681637 
L 71.872779 57.409615 
L 71.253835 57.285496 
L 71.558245 57.297713 
" style="fill:none;stroke:#377eb8;stroke-linecap:square;"/>
    <defs>
     <path d="M 0 0.75 
C 0.198902 0.75 0.389685 0.670975 0.53033 0.53033 
C 0.670975 0.389685 0.75 0.198902 0.75 0 
C 0.75 -0.198902 0.670975 -0.389685 0.53033 -0.53033 
C 0.389685 -0.670975 0.198902 -0.75 0 -0.75 
C -0.198902 -0.75 -0.389685 -0.670975 -0.53033 -0.53033 
C -0.670975 -0.389685 -0.75 -0.198902 -0.75 0 
C -0.75 0.198902 -0.670975 0.389685 -0.53033 0.53033 
C -0.389685 0.670975 -0.198902 0.75 0 0.75 
z
" id="m0848380c19" style="stroke:#377eb8;"/>
    </defs>
    <g clip-path="url(#p6e9d46a138)">
     <use style="fill:#377eb8;stroke:#377eb8;" x="74.915101" xlink:href="#m0848380c19" y="57.214127"/>
     <use style="fill:#377eb8;stroke:#377eb8;" x="81.305161" xlink:href="#m0848380c19" y="56.394935"/>
     <use style="fill:#377eb8;stroke:#377eb8;" x="91.162477" xlink:href="#m0848380c19" y="54.117308"/>
     <use style="fill:#377eb8;stroke:#377eb8;" x="101.181565" xlink:href="#m0848380c19" y="50.357405"/>
     <use style="fill:#377eb8;stroke:#377eb8;" x="110.304769" xlink:href="#m0848380c19" y="45.323453"/>
     <use style="fill:#377eb8;stroke:#377eb8;" x="116.834839" xlink:href="#m0848380c19" y="39.761584"/>
     <use style="fill:#377eb8;stroke:#377eb8;" x="118.121874" xlink:href="#m0848380c19" y="35.399357"/>
     <use style="fill:#377eb8;stroke:#377eb8;" x="115.173911" xlink:href="#m0848380c19" y="32.903912"/>
     <use style="fill:#377eb8;stroke:#377eb8;" x="109.496587" xlink:href="#m0848380c19" y="32.4092"/>
     <use style="fill:#377eb8;stroke:#377eb8;" x="100.606929" xlink:href="#m0848380c19" y="35.119807"/>
     <use style="fill:#377eb8;stroke:#377eb8;" x="89.961456" xlink:href="#m0848380c19" y="40.970586"/>
     <use style="fill:#377eb8;stroke:#377eb8;" x="80.614406" xlink:href="#m0848380c19" y="47.865146"/>
     <use style="fill:#377eb8;stroke:#377eb8;" x="74.407708" xlink:href="#m0848380c19" y="53.589646"/>
     <use style="fill:#377eb8;stroke:#377eb8;" x="71.872375" xlink:href="#m0848380c19" y="56.387528"/>
     <use style="fill:#377eb8;stroke:#377eb8;" x="72.221774" xlink:href="#m0848380c19" y="55.706523"/>
     <use style="fill:#377eb8;stroke:#377eb8;" x="73.882517" xlink:href="#m0848380c19" y="52.44014"/>
     <use style="fill:#377eb8;stroke:#377eb8;" x="75.102571" xlink:href="#m0848380c19" y="48.910426"/>
     <use style="fill:#377eb8;stroke:#377eb8;" x="74.137262" xlink:href="#m0848380c19" y="49.628241"/>
     <use style="fill:#377eb8;stroke:#377eb8;" x="73.582296" xlink:href="#m0848380c19" y="49.488599"/>
     <use style="fill:#377eb8;stroke:#377eb8;" x="72.49383" xlink:href="#m0848380c19" y="51.677565"/>
     <use style="fill:#377eb8;stroke:#377eb8;" x="71.900184" xlink:href="#m0848380c19" y="52.862597"/>
     <use style="fill:#377eb8;stroke:#377eb8;" x="71.436951" xlink:href="#m0848380c19" y="54.578667"/>
     <use style="fill:#377eb8;stroke:#377eb8;" x="71.231284" xlink:href="#m0848380c19" y="55.526858"/>
     <use style="fill:#377eb8;stroke:#377eb8;" x="71.135867" xlink:href="#m0848380c19" y="56.044349"/>
     <use style="fill:#377eb8;stroke:#377eb8;" x="71.109678" xlink:href="#m0848380c19" y="56.538443"/>
     <use style="fill:#377eb8;stroke:#377eb8;" x="71.124827" xlink:href="#m0848380c19" y="56.889053"/>
     <use style="fill:#377eb8;stroke:#377eb8;" x="71.162236" xlink:href="#m0848380c19" y="57.135695"/>
     <use style="fill:#377eb8;stroke:#377eb8;" x="71.183758" xlink:href="#m0848380c19" y="57.229977"/>
     <use style="fill:#377eb8;stroke:#377eb8;" x="71.117056" xlink:href="#m0848380c19" y="57.082074"/>
     <use style="fill:#377eb8;stroke:#377eb8;" x="70.938716" xlink:href="#m0848380c19" y="56.764891"/>
     <use style="fill:#377eb8;stroke:#377eb8;" x="70.629305" xlink:href="#m0848380c19" y="56.328022"/>
     <use style="fill:#377eb8;stroke:#377eb8;" x="70.178286" xlink:href="#m0848380c19" y="55.81903"/>
     <use style="fill:#377eb8;stroke:#377eb8;" x="69.628801" xlink:href="#m0848380c19" y="55.338021"/>
     <use style="fill:#377eb8;stroke:#377eb8;" x="69.19989" xlink:href="#m0848380c19" y="55.133489"/>
     <use style="fill:#377eb8;stroke:#377eb8;" x="68.80311" xlink:href="#m0848380c19" y="55.043239"/>
     <use style="fill:#377eb8;stroke:#377eb8;" x="68.671006" xlink:href="#m0848380c19" y="55.230457"/>
     <use style="fill:#377eb8;stroke:#377eb8;" x="68.627467" xlink:href="#m0848380c19" y="55.477112"/>
     <use style="fill:#377eb8;stroke:#377eb8;" x="68.921872" xlink:href="#m0848380c19" y="55.909623"/>
     <use style="fill:#377eb8;stroke:#377eb8;" x="69.487999" xlink:href="#m0848380c19" y="56.406435"/>
     <use style="fill:#377eb8;stroke:#377eb8;" x="70.107138" xlink:href="#m0848380c19" y="56.814847"/>
     <use style="fill:#377eb8;stroke:#377eb8;" x="70.71156" xlink:href="#m0848380c19" y="57.110575"/>
     <use style="fill:#377eb8;stroke:#377eb8;" x="71.129289" xlink:href="#m0848380c19" y="57.259848"/>
     <use style="fill:#377eb8;stroke:#377eb8;" x="71.174627" xlink:href="#m0848380c19" y="57.273909"/>
     <use style="fill:#377eb8;stroke:#377eb8;" x="70.82668" xlink:href="#m0848380c19" y="57.23304"/>
     <use style="fill:#377eb8;stroke:#377eb8;" x="70.167282" xlink:href="#m0848380c19" y="57.224773"/>
     <use style="fill:#377eb8;stroke:#377eb8;" x="69.387695" xlink:href="#m0848380c19" y="57.310524"/>
     <use style="fill:#377eb8;stroke:#377eb8;" x="68.725971" xlink:href="#m0848380c19" y="57.495568"/>
     <use style="fill:#377eb8;stroke:#377eb8;" x="68.365132" xlink:href="#m0848380c19" y="57.728141"/>
     <use style="fill:#377eb8;stroke:#377eb8;" x="68.419052" xlink:href="#m0848380c19" y="57.921182"/>
     <use style="fill:#377eb8;stroke:#377eb8;" x="68.602361" xlink:href="#m0848380c19" y="58.073335"/>
     <use style="fill:#377eb8;stroke:#377eb8;" x="69.1974" xlink:href="#m0848380c19" y="58.047901"/>
     <use style="fill:#377eb8;stroke:#377eb8;" x="69.642401" xlink:href="#m0848380c19" y="58.005527"/>
     <use style="fill:#377eb8;stroke:#377eb8;" x="70.119979" xlink:href="#m0848380c19" y="57.87792"/>
     <use style="fill:#377eb8;stroke:#377eb8;" x="70.533071" xlink:href="#m0848380c19" y="57.712523"/>
     <use style="fill:#377eb8;stroke:#377eb8;" x="70.856149" xlink:href="#m0848380c19" y="57.538563"/>
     <use style="fill:#377eb8;stroke:#377eb8;" x="71.066268" xlink:href="#m0848380c19" y="57.395762"/>
     <use style="fill:#377eb8;stroke:#377eb8;" x="71.169953" xlink:href="#m0848380c19" y="57.309635"/>
     <use style="fill:#377eb8;stroke:#377eb8;" x="71.195318" xlink:href="#m0848380c19" y="57.285067"/>
     <use style="fill:#377eb8;stroke:#377eb8;" x="71.188735" xlink:href="#m0848380c19" y="57.294741"/>
     <use style="fill:#377eb8;stroke:#377eb8;" x="71.153968" xlink:href="#m0848380c19" y="57.350803"/>
     <use style="fill:#377eb8;stroke:#377eb8;" x="71.168146" xlink:href="#m0848380c19" y="57.33755"/>
     <use style="fill:#377eb8;stroke:#377eb8;" x="71.168861" xlink:href="#m0848380c19" y="57.347089"/>
     <use style="fill:#377eb8;stroke:#377eb8;" x="71.158737" xlink:href="#m0848380c19" y="57.388095"/>
     <use style="fill:#377eb8;stroke:#377eb8;" x="71.149864" xlink:href="#m0848380c19" y="57.445004"/>
     <use style="fill:#377eb8;stroke:#377eb8;" x="71.151037" xlink:href="#m0848380c19" y="57.493757"/>
     <use style="fill:#377eb8;stroke:#377eb8;" x="71.156434" xlink:href="#m0848380c19" y="57.557956"/>
     <use style="fill:#377eb8;stroke:#377eb8;" x="71.169844" xlink:href="#m0848380c19" y="57.630697"/>
     <use style="fill:#377eb8;stroke:#377eb8;" x="71.193136" xlink:href="#m0848380c19" y="57.707117"/>
     <use style="fill:#377eb8;stroke:#377eb8;" x="71.226027" xlink:href="#m0848380c19" y="57.764119"/>
     <use style="fill:#377eb8;stroke:#377eb8;" x="71.251001" xlink:href="#m0848380c19" y="57.689113"/>
     <use style="fill:#377eb8;stroke:#377eb8;" x="71.258339" xlink:href="#m0848380c19" y="57.575835"/>
     <use style="fill:#377eb8;stroke:#377eb8;" x="71.24123" xlink:href="#m0848380c19" y="57.430495"/>
     <use style="fill:#377eb8;stroke:#377eb8;" x="71.211242" xlink:href="#m0848380c19" y="57.309796"/>
     <use style="fill:#377eb8;stroke:#377eb8;" x="71.207087" xlink:href="#m0848380c19" y="57.294186"/>
     <use style="fill:#377eb8;stroke:#377eb8;" x="71.261906" xlink:href="#m0848380c19" y="57.399241"/>
     <use style="fill:#377eb8;stroke:#377eb8;" x="71.354943" xlink:href="#m0848380c19" y="57.535814"/>
     <use style="fill:#377eb8;stroke:#377eb8;" x="71.547486" xlink:href="#m0848380c19" y="57.774283"/>
     <use style="fill:#377eb8;stroke:#377eb8;" x="71.790301" xlink:href="#m0848380c19" y="58.007103"/>
     <use style="fill:#377eb8;stroke:#377eb8;" x="72.172435" xlink:href="#m0848380c19" y="58.321061"/>
     <use style="fill:#377eb8;stroke:#377eb8;" x="72.534867" xlink:href="#m0848380c19" y="58.523148"/>
     <use style="fill:#377eb8;stroke:#377eb8;" x="72.987901" xlink:href="#m0848380c19" y="58.72629"/>
     <use style="fill:#377eb8;stroke:#377eb8;" x="73.536225" xlink:href="#m0848380c19" y="58.914437"/>
     <use style="fill:#377eb8;stroke:#377eb8;" x="74.086366" xlink:href="#m0848380c19" y="59.013021"/>
     <use style="fill:#377eb8;stroke:#377eb8;" x="74.269978" xlink:href="#m0848380c19" y="58.843055"/>
     <use style="fill:#377eb8;stroke:#377eb8;" x="73.516899" xlink:href="#m0848380c19" y="58.262052"/>
     <use style="fill:#377eb8;stroke:#377eb8;" x="73.3871" xlink:href="#m0848380c19" y="58.03176"/>
     <use style="fill:#377eb8;stroke:#377eb8;" x="72.703513" xlink:href="#m0848380c19" y="57.681637"/>
     <use style="fill:#377eb8;stroke:#377eb8;" x="71.872779" xlink:href="#m0848380c19" y="57.409615"/>
     <use style="fill:#377eb8;stroke:#377eb8;" x="71.253835" xlink:href="#m0848380c19" y="57.285496"/>
     <use style="fill:#377eb8;stroke:#377eb8;" x="71.558245" xlink:href="#m0848380c19" y="57.297713"/>
    </g>
   </g>
  </g>
 </g>
 <defs>
  <clipPath id="p6e9d46a138">
   <path d="M 125.560625 57.278962 
C 125.560625 50.140473 124.154498 43.071396 121.422716 36.476291 
C 118.690935 29.881186 114.686624 23.888312 109.63895 18.840638 
C 104.591275 13.792963 98.598401 9.788653 92.003296 7.056871 
C 85.408192 4.325089 78.339115 2.918962 71.200625 2.918962 
C 64.062135 2.918962 56.993058 4.325089 50.397954 7.056871 
C 43.802849 9.788653 37.809975 13.792963 32.7623 18.840638 
C 27.714626 23.888312 23.710315 29.881186 20.978534 36.476291 
C 18.246752 43.071396 16.840625 50.140473 16.840625 57.278962 
C 16.840625 64.417452 18.246752 71.486529 20.978534 78.081634 
C 23.710315 84.676738 27.714626 90.669612 32.7623 95.717287 
C 37.809975 100.764961 43.802849 104.769272 50.397954 107.501054 
C 56.993058 110.232835 64.062135 111.638962 71.200625 111.638962 
C 78.339115 111.638962 85.408192 110.232835 92.003296 107.501054 
C 98.598401 104.769272 104.591275 100.764961 109.63895 95.717287 
C 114.686624 90.669612 118.690935 84.676738 121.422716 78.081634 
C 124.154498 71.486529 125.560625 64.417452 125.560625 57.278962 
M 71.200625 57.278962 
C 71.200625 57.278962 71.200625 57.278962 71.200625 57.278962 
C 71.200625 57.278962 71.200625 57.278962 71.200625 57.278962 
C 71.200625 57.278962 71.200625 57.278962 71.200625 57.278962 
C 71.200625 57.278962 71.200625 57.278962 71.200625 57.278962 
C 71.200625 57.278962 71.200625 57.278962 71.200625 57.278962 
C 71.200625 57.278962 71.200625 57.278962 71.200625 57.278962 
C 71.200625 57.278962 71.200625 57.278962 71.200625 57.278962 
C 71.200625 57.278962 71.200625 57.278962 71.200625 57.278962 
C 71.200625 57.278962 71.200625 57.278962 71.200625 57.278962 
C 71.200625 57.278962 71.200625 57.278962 71.200625 57.278962 
C 71.200625 57.278962 71.200625 57.278962 71.200625 57.278962 
C 71.200625 57.278962 71.200625 57.278962 71.200625 57.278962 
C 71.200625 57.278962 71.200625 57.278962 71.200625 57.278962 
C 71.200625 57.278962 71.200625 57.278962 71.200625 57.278962 
C 71.200625 57.278962 71.200625 57.278962 71.200625 57.278962 
C 71.200625 57.278962 71.200625 57.278962 71.200625 57.278962 
M 125.560625 57.278962 
z
"/>
  </clipPath>
 </defs>
</svg>
