<?xml version="1.0" encoding="utf-8" standalone="no"?>
<!DOCTYPE svg PUBLIC "-//W3C//DTD SVG 1.1//EN"
  "http://www.w3.org/Graphics/SVG/1.1/DTD/svg11.dtd">
<!-- Created with matplotlib (https://matplotlib.org/) -->
<svg height="114.557925pt" version="1.1" viewBox="0 0 136.840312 114.557925" width="136.840312pt" xmlns="http://www.w3.org/2000/svg" xmlns:xlink="http://www.w3.org/1999/xlink">
 <metadata>
  <rdf:RDF xmlns:cc="http://creativecommons.org/ns#" xmlns:dc="http://purl.org/dc/elements/1.1/" xmlns:rdf="http://www.w3.org/1999/02/22-rdf-syntax-ns#">
   <cc:Work>
    <dc:type rdf:resource="http://purl.org/dc/dcmitype/StillImage"/>
    <dc:date>2020-12-07T22:43:28.753205</dc:date>
    <dc:format>image/svg+xml</dc:format>
    <dc:creator>
     <cc:Agent>
      <dc:title>Matplotlib v3.3.0, https://matplotlib.org/</dc:title>
     </cc:Agent>
    </dc:creator>
   </cc:Work>
  </rdf:RDF>
 </metadata>
 <defs>
  <style type="text/css">*{stroke-linecap:butt;stroke-linejoin:round;}</style>
 </defs>
 <g id="figure_1">
  <g id="patch_1">
   <path d="M 0 114.557925 
L 136.840312 114.557925 
L 136.840312 0 
L 0 0 
z
" style="fill:none;"/>
  </g>
  <g id="axes_1">
   <g id="patch_2">
    <path d="M 125.560625 57.278962 
C 125.560625 50.140473 124.154498 43.071396 121.422716 36.476291 
C 118.690935 29.881186 114.686624 23.888312 109.63895 18.840638 
C 104.591275 13.792963 98.598401 9.788653 92.003296 7.056871 
C 85.408192 4.325089 78.339115 2.918962 71.200625 2.918962 
C 64.062135 2.918962 56.993058 4.325089 50.397954 7.056871 
C 43.802849 9.788653 37.809975 13.792963 32.7623 18.840638 
C 27.714626 23.888312 23.710315 29.881186 20.978534 36.476291 
C 18.246752 43.071396 16.840625 50.140473 16.840625 57.278962 
C 16.840625 64.417452 18.246752 71.486529 20.978534 78.081634 
C 23.710315 84.676738 27.714626 90.669612 32.7623 95.717287 
C 37.809975 100.764961 43.802849 104.769272 50.397954 107.501054 
C 56.993058 110.232835 64.062135 111.638962 71.200625 111.638962 
C 78.339115 111.638962 85.408192 110.232835 92.003296 107.501054 
C 98.598401 104.769272 104.591275 100.764961 109.63895 95.717287 
C 114.686624 90.669612 118.690935 84.676738 121.422716 78.081634 
C 124.154498 71.486529 125.560625 64.417452 125.560625 57.278962 
M 71.200625 57.278962 
C 71.200625 57.278962 71.200625 57.278962 71.200625 57.278962 
C 71.200625 57.278962 71.200625 57.278962 71.200625 57.278962 
C 71.200625 57.278962 71.200625 57.278962 71.200625 57.278962 
C 71.200625 57.278962 71.200625 57.278962 71.200625 57.278962 
C 71.200625 57.278962 71.200625 57.278962 71.200625 57.278962 
C 71.200625 57.278962 71.200625 57.278962 71.200625 57.278962 
C 71.200625 57.278962 71.200625 57.278962 71.200625 57.278962 
C 71.200625 57.278962 71.200625 57.278962 71.200625 57.278962 
C 71.200625 57.278962 71.200625 57.278962 71.200625 57.278962 
C 71.200625 57.278962 71.200625 57.278962 71.200625 57.278962 
C 71.200625 57.278962 71.200625 57.278962 71.200625 57.278962 
C 71.200625 57.278962 71.200625 57.278962 71.200625 57.278962 
C 71.200625 57.278962 71.200625 57.278962 71.200625 57.278962 
C 71.200625 57.278962 71.200625 57.278962 71.200625 57.278962 
C 71.200625 57.278962 71.200625 57.278962 71.200625 57.278962 
C 71.200625 57.278962 71.200625 57.278962 71.200625 57.278962 
M 125.560625 57.278962 
z
" style="fill:none;"/>
   </g>
   <g id="matplotlib.axis_1">
    <g id="xtick_1">
     <g id="line2d_1">
      <path clip-path="url(#paecb0ed7ae)" d="M 71.200625 57.278962 
L 125.560625 57.278962 
" style="fill:none;stroke:#b0b0b0;stroke-linecap:square;stroke-width:0.8;"/>
     </g>
     <g id="text_1">
      <!-- 0° -->
      <g transform="translate(127.280938 59.864119)scale(0.1 -0.1)">
       <defs>
        <path d="M 4.15625 35.296875 
Q 4.15625 48 6.765625 55.734375 
Q 9.375 63.484375 14.515625 67.671875 
Q 19.671875 71.875 27.484375 71.875 
Q 33.25 71.875 37.59375 69.546875 
Q 41.9375 67.234375 44.765625 62.859375 
Q 47.609375 58.5 49.21875 52.21875 
Q 50.828125 45.953125 50.828125 35.296875 
Q 50.828125 22.703125 48.234375 14.96875 
Q 45.65625 7.234375 40.5 3 
Q 35.359375 -1.21875 27.484375 -1.21875 
Q 17.140625 -1.21875 11.234375 6.203125 
Q 4.15625 15.140625 4.15625 35.296875 
z
M 13.1875 35.296875 
Q 13.1875 17.671875 17.3125 11.828125 
Q 21.4375 6 27.484375 6 
Q 33.546875 6 37.671875 11.859375 
Q 41.796875 17.71875 41.796875 35.296875 
Q 41.796875 52.984375 37.671875 58.78125 
Q 33.546875 64.59375 27.390625 64.59375 
Q 21.34375 64.59375 17.71875 59.46875 
Q 13.1875 52.9375 13.1875 35.296875 
z
" id="ArialMT-48"/>
        <path d="M 6.25 59.28125 
Q 6.25 64.890625 10.21875 68.84375 
Q 14.203125 72.796875 19.78125 72.796875 
Q 25.4375 72.796875 29.390625 68.84375 
Q 33.34375 64.890625 33.34375 59.28125 
Q 33.34375 53.65625 29.359375 49.671875 
Q 25.390625 45.703125 19.78125 45.703125 
Q 14.203125 45.703125 10.21875 49.65625 
Q 6.25 53.609375 6.25 59.28125 
z
M 11.578125 59.28125 
Q 11.578125 55.859375 13.984375 53.4375 
Q 16.40625 51.03125 19.828125 51.03125 
Q 23.1875 51.03125 25.609375 53.4375 
Q 28.03125 55.859375 28.03125 59.28125 
Q 28.03125 62.703125 25.609375 65.109375 
Q 23.1875 67.53125 19.828125 67.53125 
Q 16.40625 67.53125 13.984375 65.109375 
Q 11.578125 62.703125 11.578125 59.28125 
z
" id="ArialMT-176"/>
       </defs>
       <use xlink:href="#ArialMT-48"/>
       <use x="55.615234" xlink:href="#ArialMT-176"/>
      </g>
     </g>
    </g>
    <g id="xtick_2">
     <g id="line2d_2">
      <path clip-path="url(#paecb0ed7ae)" d="M 71.200625 57.278962 
L 98.380625 10.201821 
" style="fill:none;stroke:#b0b0b0;stroke-linecap:square;stroke-width:0.8;"/>
     </g>
     <g id="text_2">
      <!-- 60° -->
      <g transform="translate(94.070469 7.157813)scale(0.1 -0.1)">
       <defs>
        <path d="M 49.75 54.046875 
L 41.015625 53.375 
Q 39.84375 58.546875 37.703125 60.890625 
Q 34.125 64.65625 28.90625 64.65625 
Q 24.703125 64.65625 21.53125 62.3125 
Q 17.390625 59.28125 14.984375 53.46875 
Q 12.59375 47.65625 12.5 36.921875 
Q 15.671875 41.75 20.265625 44.09375 
Q 24.859375 46.4375 29.890625 46.4375 
Q 38.671875 46.4375 44.84375 39.96875 
Q 51.03125 33.5 51.03125 23.25 
Q 51.03125 16.5 48.125 10.71875 
Q 45.21875 4.9375 40.140625 1.859375 
Q 35.0625 -1.21875 28.609375 -1.21875 
Q 17.625 -1.21875 10.6875 6.859375 
Q 3.765625 14.9375 3.765625 33.5 
Q 3.765625 54.25 11.421875 63.671875 
Q 18.109375 71.875 29.4375 71.875 
Q 37.890625 71.875 43.28125 67.140625 
Q 48.6875 62.40625 49.75 54.046875 
z
M 13.875 23.1875 
Q 13.875 18.65625 15.796875 14.5 
Q 17.71875 10.359375 21.1875 8.171875 
Q 24.65625 6 28.46875 6 
Q 34.03125 6 38.03125 10.484375 
Q 42.046875 14.984375 42.046875 22.703125 
Q 42.046875 30.125 38.078125 34.390625 
Q 34.125 38.671875 28.125 38.671875 
Q 22.171875 38.671875 18.015625 34.390625 
Q 13.875 30.125 13.875 23.1875 
z
" id="ArialMT-54"/>
       </defs>
       <use xlink:href="#ArialMT-54"/>
       <use x="55.615234" xlink:href="#ArialMT-48"/>
       <use x="111.230469" xlink:href="#ArialMT-176"/>
      </g>
     </g>
    </g>
    <g id="xtick_3">
     <g id="line2d_3">
      <path clip-path="url(#paecb0ed7ae)" d="M 71.200625 57.278962 
L 44.020625 10.201821 
" style="fill:none;stroke:#b0b0b0;stroke-linecap:square;stroke-width:0.8;"/>
     </g>
     <g id="text_3">
      <!-- 120° -->
      <g transform="translate(30.43 7.157813)scale(0.1 -0.1)">
       <defs>
        <path d="M 37.25 0 
L 28.46875 0 
L 28.46875 56 
Q 25.296875 52.984375 20.140625 49.953125 
Q 14.984375 46.921875 10.890625 45.40625 
L 10.890625 53.90625 
Q 18.265625 57.375 23.78125 62.296875 
Q 29.296875 67.234375 31.59375 71.875 
L 37.25 71.875 
z
" id="ArialMT-49"/>
        <path d="M 50.34375 8.453125 
L 50.34375 0 
L 3.03125 0 
Q 2.9375 3.171875 4.046875 6.109375 
Q 5.859375 10.9375 9.828125 15.625 
Q 13.8125 20.3125 21.34375 26.46875 
Q 33.015625 36.03125 37.109375 41.625 
Q 41.21875 47.21875 41.21875 52.203125 
Q 41.21875 57.421875 37.46875 61 
Q 33.734375 64.59375 27.734375 64.59375 
Q 21.390625 64.59375 17.578125 60.78125 
Q 13.765625 56.984375 13.71875 50.25 
L 4.6875 51.171875 
Q 5.609375 61.28125 11.65625 66.578125 
Q 17.71875 71.875 27.9375 71.875 
Q 38.234375 71.875 44.234375 66.15625 
Q 50.25 60.453125 50.25 52 
Q 50.25 47.703125 48.484375 43.546875 
Q 46.734375 39.40625 42.65625 34.8125 
Q 38.578125 30.21875 29.109375 22.21875 
Q 21.1875 15.578125 18.9375 13.203125 
Q 16.703125 10.84375 15.234375 8.453125 
z
" id="ArialMT-50"/>
       </defs>
       <use xlink:href="#ArialMT-49"/>
       <use x="55.615234" xlink:href="#ArialMT-50"/>
       <use x="111.230469" xlink:href="#ArialMT-48"/>
       <use x="166.845703" xlink:href="#ArialMT-176"/>
      </g>
     </g>
    </g>
    <g id="xtick_4">
     <g id="line2d_4">
      <path clip-path="url(#paecb0ed7ae)" d="M 71.200625 57.278962 
L 16.840625 57.278962 
" style="fill:none;stroke:#b0b0b0;stroke-linecap:square;stroke-width:0.8;"/>
     </g>
     <g id="text_4">
      <!-- 180° -->
      <g transform="translate(0 59.864119)scale(0.1 -0.1)">
       <defs>
        <path d="M 17.671875 38.8125 
Q 12.203125 40.828125 9.5625 44.53125 
Q 6.9375 48.25 6.9375 53.421875 
Q 6.9375 61.234375 12.546875 66.546875 
Q 18.171875 71.875 27.484375 71.875 
Q 36.859375 71.875 42.578125 66.421875 
Q 48.296875 60.984375 48.296875 53.171875 
Q 48.296875 48.1875 45.671875 44.5 
Q 43.0625 40.828125 37.75 38.8125 
Q 44.34375 36.671875 47.78125 31.875 
Q 51.21875 27.09375 51.21875 20.453125 
Q 51.21875 11.28125 44.71875 5.03125 
Q 38.234375 -1.21875 27.640625 -1.21875 
Q 17.046875 -1.21875 10.546875 5.046875 
Q 4.046875 11.328125 4.046875 20.703125 
Q 4.046875 27.6875 7.59375 32.390625 
Q 11.140625 37.109375 17.671875 38.8125 
z
M 15.921875 53.71875 
Q 15.921875 48.640625 19.1875 45.40625 
Q 22.46875 42.1875 27.6875 42.1875 
Q 32.765625 42.1875 36.015625 45.375 
Q 39.265625 48.578125 39.265625 53.21875 
Q 39.265625 58.0625 35.90625 61.359375 
Q 32.5625 64.65625 27.59375 64.65625 
Q 22.5625 64.65625 19.234375 61.421875 
Q 15.921875 58.203125 15.921875 53.71875 
z
M 13.09375 20.65625 
Q 13.09375 16.890625 14.875 13.375 
Q 16.65625 9.859375 20.171875 7.921875 
Q 23.6875 6 27.734375 6 
Q 34.03125 6 38.125 10.046875 
Q 42.234375 14.109375 42.234375 20.359375 
Q 42.234375 26.703125 38.015625 30.859375 
Q 33.796875 35.015625 27.4375 35.015625 
Q 21.234375 35.015625 17.15625 30.90625 
Q 13.09375 26.8125 13.09375 20.65625 
z
" id="ArialMT-56"/>
       </defs>
       <use xlink:href="#ArialMT-49"/>
       <use x="55.615234" xlink:href="#ArialMT-56"/>
       <use x="111.230469" xlink:href="#ArialMT-48"/>
       <use x="166.845703" xlink:href="#ArialMT-176"/>
      </g>
     </g>
    </g>
    <g id="xtick_5">
     <g id="line2d_5">
      <path clip-path="url(#paecb0ed7ae)" d="M 71.200625 57.278962 
L 44.020625 104.356103 
" style="fill:none;stroke:#b0b0b0;stroke-linecap:square;stroke-width:0.8;"/>
     </g>
     <g id="text_5">
      <!-- 240° -->
      <g transform="translate(30.43 112.570425)scale(0.1 -0.1)">
       <defs>
        <path d="M 32.328125 0 
L 32.328125 17.140625 
L 1.265625 17.140625 
L 1.265625 25.203125 
L 33.9375 71.578125 
L 41.109375 71.578125 
L 41.109375 25.203125 
L 50.78125 25.203125 
L 50.78125 17.140625 
L 41.109375 17.140625 
L 41.109375 0 
z
M 32.328125 25.203125 
L 32.328125 57.46875 
L 9.90625 25.203125 
z
" id="ArialMT-52"/>
       </defs>
       <use xlink:href="#ArialMT-50"/>
       <use x="55.615234" xlink:href="#ArialMT-52"/>
       <use x="111.230469" xlink:href="#ArialMT-48"/>
       <use x="166.845703" xlink:href="#ArialMT-176"/>
      </g>
     </g>
    </g>
    <g id="xtick_6">
     <g id="line2d_6">
      <path clip-path="url(#paecb0ed7ae)" d="M 71.200625 57.278962 
L 98.380625 104.356103 
" style="fill:none;stroke:#b0b0b0;stroke-linecap:square;stroke-width:0.8;"/>
     </g>
     <g id="text_6">
      <!-- 300° -->
      <g transform="translate(91.29 112.570425)scale(0.1 -0.1)">
       <defs>
        <path d="M 4.203125 18.890625 
L 12.984375 20.0625 
Q 14.5 12.59375 18.140625 9.296875 
Q 21.78125 6 27 6 
Q 33.203125 6 37.46875 10.296875 
Q 41.75 14.59375 41.75 20.953125 
Q 41.75 27 37.796875 30.921875 
Q 33.84375 34.859375 27.734375 34.859375 
Q 25.25 34.859375 21.53125 33.890625 
L 22.515625 41.609375 
Q 23.390625 41.5 23.921875 41.5 
Q 29.546875 41.5 34.03125 44.421875 
Q 38.53125 47.359375 38.53125 53.46875 
Q 38.53125 58.296875 35.25 61.46875 
Q 31.984375 64.65625 26.8125 64.65625 
Q 21.6875 64.65625 18.265625 61.421875 
Q 14.84375 58.203125 13.875 51.765625 
L 5.078125 53.328125 
Q 6.6875 62.15625 12.390625 67.015625 
Q 18.109375 71.875 26.609375 71.875 
Q 32.46875 71.875 37.390625 69.359375 
Q 42.328125 66.84375 44.9375 62.5 
Q 47.5625 58.15625 47.5625 53.265625 
Q 47.5625 48.640625 45.0625 44.828125 
Q 42.578125 41.015625 37.703125 38.765625 
Q 44.046875 37.3125 47.5625 32.6875 
Q 51.078125 28.078125 51.078125 21.140625 
Q 51.078125 11.765625 44.234375 5.25 
Q 37.40625 -1.265625 26.953125 -1.265625 
Q 17.53125 -1.265625 11.296875 4.34375 
Q 5.078125 9.96875 4.203125 18.890625 
z
" id="ArialMT-51"/>
       </defs>
       <use xlink:href="#ArialMT-51"/>
       <use x="55.615234" xlink:href="#ArialMT-48"/>
       <use x="111.230469" xlink:href="#ArialMT-48"/>
       <use x="166.845703" xlink:href="#ArialMT-176"/>
      </g>
     </g>
    </g>
   </g>
   <g id="matplotlib.axis_2">
    <g id="ytick_1">
     <g id="line2d_7">
      <path clip-path="url(#paecb0ed7ae)" d="M 97.103093 57.278962 
C 97.103093 53.877481 96.433076 50.509076 95.131385 47.366517 
C 93.829695 44.223958 91.921646 41.368362 89.516436 38.963151 
C 87.111226 36.557941 84.255629 34.649892 81.11307 33.348202 
C 77.970512 32.046512 74.602106 31.376494 71.200625 31.376494 
C 67.799144 31.376494 64.430738 32.046512 61.28818 33.348202 
C 58.145621 34.649892 55.290024 36.557941 52.884814 38.963151 
C 50.479604 41.368362 48.571555 44.223958 47.269865 47.366517 
C 45.968174 50.509076 45.298157 53.877481 45.298157 57.278962 
C 45.298157 60.680443 45.968174 64.048849 47.269865 67.191408 
C 48.571555 70.333966 50.479604 73.189563 52.884814 75.594773 
C 55.290024 77.999984 58.145621 79.908032 61.28818 81.209723 
C 64.430738 82.511413 67.799144 83.181431 71.200625 83.181431 
C 74.602106 83.181431 77.970512 82.511413 81.11307 81.209723 
C 84.255629 79.908032 87.111226 77.999984 89.516436 75.594773 
C 91.921646 73.189563 93.829695 70.333966 95.131385 67.191408 
C 96.433076 64.048849 97.103093 60.680443 97.103093 57.278962 
" style="fill:none;stroke:#b0b0b0;stroke-linecap:square;stroke-width:0.8;"/>
     </g>
    </g>
    <g id="ytick_2">
     <g id="line2d_8">
      <path clip-path="url(#paecb0ed7ae)" d="M 123.005561 57.278962 
C 123.005561 50.476 121.665526 43.739189 119.062146 37.454071 
C 116.458765 31.168954 112.642667 25.457761 107.832247 20.64734 
C 103.021826 15.83692 97.310633 12.020823 91.025516 9.417442 
C 84.740399 6.814061 78.003587 5.474026 71.200625 5.474026 
C 64.397663 5.474026 57.660851 6.814061 51.375734 9.417442 
C 45.090617 12.020823 39.379424 15.83692 34.569003 20.64734 
C 29.758583 25.457761 25.942485 31.168954 23.339104 37.454071 
C 20.735724 43.739189 19.395689 50.476 19.395689 57.278962 
C 19.395689 64.081924 20.735724 70.818736 23.339104 77.103853 
C 25.942485 83.388971 29.758583 89.100164 34.569003 93.910584 
C 39.379424 98.721005 45.090617 102.537102 51.375734 105.140483 
C 57.660851 107.743864 64.397663 109.083899 71.200625 109.083899 
C 78.003587 109.083899 84.740399 107.743864 91.025516 105.140483 
C 97.310633 102.537102 103.021826 98.721005 107.832247 93.910584 
C 112.642667 89.100164 116.458765 83.388971 119.062146 77.103853 
C 121.665526 70.818736 123.005561 64.081924 123.005561 57.278962 
" style="fill:none;stroke:#b0b0b0;stroke-linecap:square;stroke-width:0.8;"/>
     </g>
    </g>
   </g>
   <g id="line2d_9">
    <path clip-path="url(#paecb0ed7ae)" d="M 105.226105 56.685055 
L 105.314932 54.294363 
L 100.664704 52.612299 
L 94.626594 51.87072 
L 87.114264 52.413605 
L 80.056084 53.879661 
L 74.694926 55.649553 
L 72.070975 56.796514 
L 72.193003 56.634502 
L 74.811812 54.557748 
L 78.869669 50.612432 
L 83.689421 44.790121 
L 87.258193 38.806893 
L 89.950578 32.397167 
L 90.853988 27.015282 
L 89.883668 23.569953 
L 86.918878 23.567892 
L 82.563169 27.676504 
L 78.366415 33.83991 
L 74.985881 40.883483 
L 72.759528 47.437502 
L 71.626738 52.41014 
L 71.229016 55.656473 
L 71.132762 55.985151 
L 70.736706 53.501598 
L 69.627112 49.184696 
L 67.4829 43.404463 
L 64.063945 36.551941 
L 60.176501 31.30616 
L 55.763149 26.97857 
L 52.21292 25.674651 
L 49.936352 26.912917 
L 50.428653 31.629038 
L 52.943508 37.701076 
L 57.306829 44.32276 
L 62.330242 50.095659 
L 66.957434 54.307675 
L 69.984166 56.547973 
L 70.573639 56.959533 
L 68.380013 56.081794 
L 63.75327 54.714798 
L 57.623822 53.641167 
L 51.042468 53.360479 
L 44.579125 54.009723 
L 39.956483 55.640499 
L 37.918924 57.858367 
L 38.842648 60.111252 
L 42.838808 61.771839 
L 48.192194 62.59123 
L 55.122496 62.194564 
L 62.008024 60.807547 
L 67.086524 59.197274 
L 70.109365 57.883803 
L 70.086846 58.002336 
L 67.095845 60.372364 
L 62.03357 65.248122 
L 55.816584 72.663286 
L 50.669946 80.896617 
L 46.45738 90.113186 
L 44.725263 98.044738 
L 46.083123 102.587488 
L 49.567926 103.675684 
L 54.654365 100.387328 
L 60.139596 93.460158 
L 65.084814 83.769914 
L 68.613408 73.613022 
L 70.577968 64.394116 
L 71.16832 59.12594 
L 71.280302 58.80072 
L 71.946346 63.350465 
L 73.816984 70.737179 
L 77.268726 79.92437 
L 81.562904 87.373355 
L 86.436506 93.173916 
L 90.501806 95.162273 
L 93.985616 95.203081 
L 95.314889 91.714345 
L 94.672984 86.262979 
L 91.589089 79.142061 
L 86.644134 71.680086 
L 81.088828 65.286384 
L 76.166006 60.755908 
L 72.669352 58.161529 
L 72.092433 57.733413 
L 74.527735 58.691078 
L 79.587982 60.166705 
L 86.291162 61.322232 
L 93.589738 61.630944 
L 100.235744 60.844388 
L 105.682284 59.086949 
" style="fill:none;stroke:#377eb8;stroke-linecap:square;"/>
    <defs>
     <path d="M 0 0.75 
C 0.198902 0.75 0.389685 0.670975 0.53033 0.53033 
C 0.670975 0.389685 0.75 0.198902 0.75 0 
C 0.75 -0.198902 0.670975 -0.389685 0.53033 -0.53033 
C 0.389685 -0.670975 0.198902 -0.75 0 -0.75 
C -0.198902 -0.75 -0.389685 -0.670975 -0.53033 -0.53033 
C -0.670975 -0.389685 -0.75 -0.198902 -0.75 0 
C -0.75 0.198902 -0.670975 0.389685 -0.53033 0.53033 
C -0.389685 0.670975 -0.198902 0.75 0 0.75 
z
" id="m50404576dc" style="stroke:#377eb8;"/>
    </defs>
    <g clip-path="url(#paecb0ed7ae)">
     <use style="fill:#377eb8;stroke:#377eb8;" x="105.226105" xlink:href="#m50404576dc" y="56.685055"/>
     <use style="fill:#377eb8;stroke:#377eb8;" x="105.314932" xlink:href="#m50404576dc" y="54.294363"/>
     <use style="fill:#377eb8;stroke:#377eb8;" x="100.664704" xlink:href="#m50404576dc" y="52.612299"/>
     <use style="fill:#377eb8;stroke:#377eb8;" x="94.626594" xlink:href="#m50404576dc" y="51.87072"/>
     <use style="fill:#377eb8;stroke:#377eb8;" x="87.114264" xlink:href="#m50404576dc" y="52.413605"/>
     <use style="fill:#377eb8;stroke:#377eb8;" x="80.056084" xlink:href="#m50404576dc" y="53.879661"/>
     <use style="fill:#377eb8;stroke:#377eb8;" x="74.694926" xlink:href="#m50404576dc" y="55.649553"/>
     <use style="fill:#377eb8;stroke:#377eb8;" x="72.070975" xlink:href="#m50404576dc" y="56.796514"/>
     <use style="fill:#377eb8;stroke:#377eb8;" x="72.193003" xlink:href="#m50404576dc" y="56.634502"/>
     <use style="fill:#377eb8;stroke:#377eb8;" x="74.811812" xlink:href="#m50404576dc" y="54.557748"/>
     <use style="fill:#377eb8;stroke:#377eb8;" x="78.869669" xlink:href="#m50404576dc" y="50.612432"/>
     <use style="fill:#377eb8;stroke:#377eb8;" x="83.689421" xlink:href="#m50404576dc" y="44.790121"/>
     <use style="fill:#377eb8;stroke:#377eb8;" x="87.258193" xlink:href="#m50404576dc" y="38.806893"/>
     <use style="fill:#377eb8;stroke:#377eb8;" x="89.950578" xlink:href="#m50404576dc" y="32.397167"/>
     <use style="fill:#377eb8;stroke:#377eb8;" x="90.853988" xlink:href="#m50404576dc" y="27.015282"/>
     <use style="fill:#377eb8;stroke:#377eb8;" x="89.883668" xlink:href="#m50404576dc" y="23.569953"/>
     <use style="fill:#377eb8;stroke:#377eb8;" x="86.918878" xlink:href="#m50404576dc" y="23.567892"/>
     <use style="fill:#377eb8;stroke:#377eb8;" x="82.563169" xlink:href="#m50404576dc" y="27.676504"/>
     <use style="fill:#377eb8;stroke:#377eb8;" x="78.366415" xlink:href="#m50404576dc" y="33.83991"/>
     <use style="fill:#377eb8;stroke:#377eb8;" x="74.985881" xlink:href="#m50404576dc" y="40.883483"/>
     <use style="fill:#377eb8;stroke:#377eb8;" x="72.759528" xlink:href="#m50404576dc" y="47.437502"/>
     <use style="fill:#377eb8;stroke:#377eb8;" x="71.626738" xlink:href="#m50404576dc" y="52.41014"/>
     <use style="fill:#377eb8;stroke:#377eb8;" x="71.229016" xlink:href="#m50404576dc" y="55.656473"/>
     <use style="fill:#377eb8;stroke:#377eb8;" x="71.132762" xlink:href="#m50404576dc" y="55.985151"/>
     <use style="fill:#377eb8;stroke:#377eb8;" x="70.736706" xlink:href="#m50404576dc" y="53.501598"/>
     <use style="fill:#377eb8;stroke:#377eb8;" x="69.627112" xlink:href="#m50404576dc" y="49.184696"/>
     <use style="fill:#377eb8;stroke:#377eb8;" x="67.4829" xlink:href="#m50404576dc" y="43.404463"/>
     <use style="fill:#377eb8;stroke:#377eb8;" x="64.063945" xlink:href="#m50404576dc" y="36.551941"/>
     <use style="fill:#377eb8;stroke:#377eb8;" x="60.176501" xlink:href="#m50404576dc" y="31.30616"/>
     <use style="fill:#377eb8;stroke:#377eb8;" x="55.763149" xlink:href="#m50404576dc" y="26.97857"/>
     <use style="fill:#377eb8;stroke:#377eb8;" x="52.21292" xlink:href="#m50404576dc" y="25.674651"/>
     <use style="fill:#377eb8;stroke:#377eb8;" x="49.936352" xlink:href="#m50404576dc" y="26.912917"/>
     <use style="fill:#377eb8;stroke:#377eb8;" x="50.428653" xlink:href="#m50404576dc" y="31.629038"/>
     <use style="fill:#377eb8;stroke:#377eb8;" x="52.943508" xlink:href="#m50404576dc" y="37.701076"/>
     <use style="fill:#377eb8;stroke:#377eb8;" x="57.306829" xlink:href="#m50404576dc" y="44.32276"/>
     <use style="fill:#377eb8;stroke:#377eb8;" x="62.330242" xlink:href="#m50404576dc" y="50.095659"/>
     <use style="fill:#377eb8;stroke:#377eb8;" x="66.957434" xlink:href="#m50404576dc" y="54.307675"/>
     <use style="fill:#377eb8;stroke:#377eb8;" x="69.984166" xlink:href="#m50404576dc" y="56.547973"/>
     <use style="fill:#377eb8;stroke:#377eb8;" x="70.573639" xlink:href="#m50404576dc" y="56.959533"/>
     <use style="fill:#377eb8;stroke:#377eb8;" x="68.380013" xlink:href="#m50404576dc" y="56.081794"/>
     <use style="fill:#377eb8;stroke:#377eb8;" x="63.75327" xlink:href="#m50404576dc" y="54.714798"/>
     <use style="fill:#377eb8;stroke:#377eb8;" x="57.623822" xlink:href="#m50404576dc" y="53.641167"/>
     <use style="fill:#377eb8;stroke:#377eb8;" x="51.042468" xlink:href="#m50404576dc" y="53.360479"/>
     <use style="fill:#377eb8;stroke:#377eb8;" x="44.579125" xlink:href="#m50404576dc" y="54.009723"/>
     <use style="fill:#377eb8;stroke:#377eb8;" x="39.956483" xlink:href="#m50404576dc" y="55.640499"/>
     <use style="fill:#377eb8;stroke:#377eb8;" x="37.918924" xlink:href="#m50404576dc" y="57.858367"/>
     <use style="fill:#377eb8;stroke:#377eb8;" x="38.842648" xlink:href="#m50404576dc" y="60.111252"/>
     <use style="fill:#377eb8;stroke:#377eb8;" x="42.838808" xlink:href="#m50404576dc" y="61.771839"/>
     <use style="fill:#377eb8;stroke:#377eb8;" x="48.192194" xlink:href="#m50404576dc" y="62.59123"/>
     <use style="fill:#377eb8;stroke:#377eb8;" x="55.122496" xlink:href="#m50404576dc" y="62.194564"/>
     <use style="fill:#377eb8;stroke:#377eb8;" x="62.008024" xlink:href="#m50404576dc" y="60.807547"/>
     <use style="fill:#377eb8;stroke:#377eb8;" x="67.086524" xlink:href="#m50404576dc" y="59.197274"/>
     <use style="fill:#377eb8;stroke:#377eb8;" x="70.109365" xlink:href="#m50404576dc" y="57.883803"/>
     <use style="fill:#377eb8;stroke:#377eb8;" x="70.086846" xlink:href="#m50404576dc" y="58.002336"/>
     <use style="fill:#377eb8;stroke:#377eb8;" x="67.095845" xlink:href="#m50404576dc" y="60.372364"/>
     <use style="fill:#377eb8;stroke:#377eb8;" x="62.03357" xlink:href="#m50404576dc" y="65.248122"/>
     <use style="fill:#377eb8;stroke:#377eb8;" x="55.816584" xlink:href="#m50404576dc" y="72.663286"/>
     <use style="fill:#377eb8;stroke:#377eb8;" x="50.669946" xlink:href="#m50404576dc" y="80.896617"/>
     <use style="fill:#377eb8;stroke:#377eb8;" x="46.45738" xlink:href="#m50404576dc" y="90.113186"/>
     <use style="fill:#377eb8;stroke:#377eb8;" x="44.725263" xlink:href="#m50404576dc" y="98.044738"/>
     <use style="fill:#377eb8;stroke:#377eb8;" x="46.083123" xlink:href="#m50404576dc" y="102.587488"/>
     <use style="fill:#377eb8;stroke:#377eb8;" x="49.567926" xlink:href="#m50404576dc" y="103.675684"/>
     <use style="fill:#377eb8;stroke:#377eb8;" x="54.654365" xlink:href="#m50404576dc" y="100.387328"/>
     <use style="fill:#377eb8;stroke:#377eb8;" x="60.139596" xlink:href="#m50404576dc" y="93.460158"/>
     <use style="fill:#377eb8;stroke:#377eb8;" x="65.084814" xlink:href="#m50404576dc" y="83.769914"/>
     <use style="fill:#377eb8;stroke:#377eb8;" x="68.613408" xlink:href="#m50404576dc" y="73.613022"/>
     <use style="fill:#377eb8;stroke:#377eb8;" x="70.577968" xlink:href="#m50404576dc" y="64.394116"/>
     <use style="fill:#377eb8;stroke:#377eb8;" x="71.16832" xlink:href="#m50404576dc" y="59.12594"/>
     <use style="fill:#377eb8;stroke:#377eb8;" x="71.280302" xlink:href="#m50404576dc" y="58.80072"/>
     <use style="fill:#377eb8;stroke:#377eb8;" x="71.946346" xlink:href="#m50404576dc" y="63.350465"/>
     <use style="fill:#377eb8;stroke:#377eb8;" x="73.816984" xlink:href="#m50404576dc" y="70.737179"/>
     <use style="fill:#377eb8;stroke:#377eb8;" x="77.268726" xlink:href="#m50404576dc" y="79.92437"/>
     <use style="fill:#377eb8;stroke:#377eb8;" x="81.562904" xlink:href="#m50404576dc" y="87.373355"/>
     <use style="fill:#377eb8;stroke:#377eb8;" x="86.436506" xlink:href="#m50404576dc" y="93.173916"/>
     <use style="fill:#377eb8;stroke:#377eb8;" x="90.501806" xlink:href="#m50404576dc" y="95.162273"/>
     <use style="fill:#377eb8;stroke:#377eb8;" x="93.985616" xlink:href="#m50404576dc" y="95.203081"/>
     <use style="fill:#377eb8;stroke:#377eb8;" x="95.314889" xlink:href="#m50404576dc" y="91.714345"/>
     <use style="fill:#377eb8;stroke:#377eb8;" x="94.672984" xlink:href="#m50404576dc" y="86.262979"/>
     <use style="fill:#377eb8;stroke:#377eb8;" x="91.589089" xlink:href="#m50404576dc" y="79.142061"/>
     <use style="fill:#377eb8;stroke:#377eb8;" x="86.644134" xlink:href="#m50404576dc" y="71.680086"/>
     <use style="fill:#377eb8;stroke:#377eb8;" x="81.088828" xlink:href="#m50404576dc" y="65.286384"/>
     <use style="fill:#377eb8;stroke:#377eb8;" x="76.166006" xlink:href="#m50404576dc" y="60.755908"/>
     <use style="fill:#377eb8;stroke:#377eb8;" x="72.669352" xlink:href="#m50404576dc" y="58.161529"/>
     <use style="fill:#377eb8;stroke:#377eb8;" x="72.092433" xlink:href="#m50404576dc" y="57.733413"/>
     <use style="fill:#377eb8;stroke:#377eb8;" x="74.527735" xlink:href="#m50404576dc" y="58.691078"/>
     <use style="fill:#377eb8;stroke:#377eb8;" x="79.587982" xlink:href="#m50404576dc" y="60.166705"/>
     <use style="fill:#377eb8;stroke:#377eb8;" x="86.291162" xlink:href="#m50404576dc" y="61.322232"/>
     <use style="fill:#377eb8;stroke:#377eb8;" x="93.589738" xlink:href="#m50404576dc" y="61.630944"/>
     <use style="fill:#377eb8;stroke:#377eb8;" x="100.235744" xlink:href="#m50404576dc" y="60.844388"/>
     <use style="fill:#377eb8;stroke:#377eb8;" x="105.682284" xlink:href="#m50404576dc" y="59.086949"/>
    </g>
   </g>
  </g>
 </g>
 <defs>
  <clipPath id="paecb0ed7ae">
   <path d="M 125.560625 57.278962 
C 125.560625 50.140473 124.154498 43.071396 121.422716 36.476291 
C 118.690935 29.881186 114.686624 23.888312 109.63895 18.840638 
C 104.591275 13.792963 98.598401 9.788653 92.003296 7.056871 
C 85.408192 4.325089 78.339115 2.918962 71.200625 2.918962 
C 64.062135 2.918962 56.993058 4.325089 50.397954 7.056871 
C 43.802849 9.788653 37.809975 13.792963 32.7623 18.840638 
C 27.714626 23.888312 23.710315 29.881186 20.978534 36.476291 
C 18.246752 43.071396 16.840625 50.140473 16.840625 57.278962 
C 16.840625 64.417452 18.246752 71.486529 20.978534 78.081634 
C 23.710315 84.676738 27.714626 90.669612 32.7623 95.717287 
C 37.809975 100.764961 43.802849 104.769272 50.397954 107.501054 
C 56.993058 110.232835 64.062135 111.638962 71.200625 111.638962 
C 78.339115 111.638962 85.408192 110.232835 92.003296 107.501054 
C 98.598401 104.769272 104.591275 100.764961 109.63895 95.717287 
C 114.686624 90.669612 118.690935 84.676738 121.422716 78.081634 
C 124.154498 71.486529 125.560625 64.417452 125.560625 57.278962 
M 71.200625 57.278962 
C 71.200625 57.278962 71.200625 57.278962 71.200625 57.278962 
C 71.200625 57.278962 71.200625 57.278962 71.200625 57.278962 
C 71.200625 57.278962 71.200625 57.278962 71.200625 57.278962 
C 71.200625 57.278962 71.200625 57.278962 71.200625 57.278962 
C 71.200625 57.278962 71.200625 57.278962 71.200625 57.278962 
C 71.200625 57.278962 71.200625 57.278962 71.200625 57.278962 
C 71.200625 57.278962 71.200625 57.278962 71.200625 57.278962 
C 71.200625 57.278962 71.200625 57.278962 71.200625 57.278962 
C 71.200625 57.278962 71.200625 57.278962 71.200625 57.278962 
C 71.200625 57.278962 71.200625 57.278962 71.200625 57.278962 
C 71.200625 57.278962 71.200625 57.278962 71.200625 57.278962 
C 71.200625 57.278962 71.200625 57.278962 71.200625 57.278962 
C 71.200625 57.278962 71.200625 57.278962 71.200625 57.278962 
C 71.200625 57.278962 71.200625 57.278962 71.200625 57.278962 
C 71.200625 57.278962 71.200625 57.278962 71.200625 57.278962 
C 71.200625 57.278962 71.200625 57.278962 71.200625 57.278962 
M 125.560625 57.278962 
z
"/>
  </clipPath>
 </defs>
</svg>
