<?xml version="1.0" encoding="UTF-8" standalone="no"?>
<svg
   xmlns:dc="http://purl.org/dc/elements/1.1/"
   xmlns:cc="http://creativecommons.org/ns#"
   xmlns:rdf="http://www.w3.org/1999/02/22-rdf-syntax-ns#"
   xmlns:svg="http://www.w3.org/2000/svg"
   xmlns="http://www.w3.org/2000/svg"
   xmlns:xlink="http://www.w3.org/1999/xlink"
   xmlns:sodipodi="http://sodipodi.sourceforge.net/DTD/sodipodi-0.dtd"
   xmlns:inkscape="http://www.inkscape.org/namespaces/inkscape"
   height="150.68951pt"
   version="1.1"
   viewBox="0 0 149.98976 150.6895"
   width="149.98976pt"
   id="svg324"
   sodipodi:docname="MetalSCMetal_linear.svg"
   inkscape:version="1.0.2 (e86c870879, 2021-01-15, custom)">
  <metadata
     id="metadata328">
    <rdf:RDF>
      <cc:Work
         rdf:about="">
        <dc:format>image/svg+xml</dc:format>
        <dc:type
           rdf:resource="http://purl.org/dc/dcmitype/StillImage" />
        <dc:title></dc:title>
      </cc:Work>
    </rdf:RDF>
  </metadata>
  <sodipodi:namedview
     pagecolor="#ffffff"
     bordercolor="#666666"
     borderopacity="1"
     objecttolerance="10"
     gridtolerance="10"
     guidetolerance="10"
     inkscape:pageopacity="0"
     inkscape:pageshadow="2"
     inkscape:window-width="1837"
     inkscape:window-height="1051"
     id="namedview326"
     showgrid="false"
     inkscape:zoom="4.0329226"
     inkscape:cx="99.73623"
     inkscape:cy="86.0576"
     inkscape:current-layer="svg324"
     fit-margin-top="0"
     fit-margin-left="0"
     fit-margin-right="0"
     fit-margin-bottom="0"
     inkscape:document-rotation="0"
     inkscape:window-x="2474"
     inkscape:window-y="-9"
     inkscape:window-maximized="1" />
  <defs
     id="defs4"
     style="stroke-linecap:butt;stroke-linejoin:round">
    <style
       type="text/css"
       id="style2">
*{stroke-linecap:butt;stroke-linejoin:round;}
  </style>
    <marker
       inkscape:stockid="DotM"
       orient="auto"
       refY="0"
       refX="0"
       id="DotM"
       style="overflow:visible;stroke-linecap:butt;stroke-linejoin:round"
       inkscape:isstock="true">
      <path
         id="path1192"
         d="m -2.5,-1 c 0,2.76 -2.24,5 -5,5 -2.76,0 -5,-2.24 -5,-5 0,-2.76 2.24,-5 5,-5 2.76,0 5,2.24 5,5 z"
         style="fill:#000000;fill-opacity:1;fill-rule:evenodd;stroke:#000000;stroke-width:1.00000003pt;stroke-linecap:butt;stroke-linejoin:round;stroke-opacity:1"
         transform="matrix(0.4,0,0,0.4,2.96,0.4)"
         inkscape:connector-curvature="0" />
    </marker>
    <marker
       inkscape:stockid="DotM"
       orient="auto"
       refY="0"
       refX="0"
       id="marker2342"
       style="overflow:visible;stroke-linecap:butt;stroke-linejoin:round"
       inkscape:isstock="true">
      <path
         id="path2340"
         d="m -2.5,-1 c 0,2.76 -2.24,5 -5,5 -2.76,0 -5,-2.24 -5,-5 0,-2.76 2.24,-5 5,-5 2.76,0 5,2.24 5,5 z"
         style="fill:#000000;fill-opacity:1;fill-rule:evenodd;stroke:#000000;stroke-width:1.00000003pt;stroke-linecap:butt;stroke-linejoin:round;stroke-opacity:1"
         transform="matrix(0.4,0,0,0.4,2.96,0.4)"
         inkscape:connector-curvature="0" />
    </marker>
    <defs
       id="defs53">
      <path
         id="ArialMT-32"
         d=""
         inkscape:connector-curvature="0"
         style="stroke-linecap:butt;stroke-linejoin:round" />
      <path
         d="M 28.171875,0 0.4375,71.578125 h 10.25 l 18.609375,-52 q 2.25,-6.25 3.765625,-11.71875 1.65625,5.859375 3.859375,11.71875 l 19.328125,52 h 9.671875 L 37.890625,0 Z"
         id="ArialMT-86"
         inkscape:connector-curvature="0"
         style="stroke-linecap:butt;stroke-linejoin:round" />
      <path
         d="m 3.328125,25.921875 q 0,14.40625 8,21.34375 6.6875,5.765625 16.3125,5.765625 10.6875,0 17.46875,-7.015625 6.796875,-7 6.796875,-19.359375 0,-10 -3,-15.75 -3,-5.734375 -8.75,-8.90625 Q 34.421875,-1.171875 27.640625,-1.171875 16.75,-1.171875 10.03125,5.8125 3.328125,12.796875 3.328125,25.921875 Z m 9.03125,0 q 0,-9.953125 4.34375,-14.90625 4.34375,-4.953125 10.9375,-4.953125 6.546875,0 10.890625,4.96875 4.34375,4.984375 4.34375,15.1875 0,9.625 -4.375,14.578125 Q 34.125,45.75 27.640625,45.75 q -6.59375,0 -10.9375,-4.9375 -4.34375,-4.921875 -4.34375,-14.890625 z"
         id="ArialMT-111"
         inkscape:connector-curvature="0"
         style="stroke-linecap:butt;stroke-linejoin:round" />
      <path
         d="M 6.390625,0 V 71.578125 H 15.1875 V 0 Z"
         id="ArialMT-108"
         inkscape:connector-curvature="0"
         style="stroke-linecap:butt;stroke-linejoin:round" />
      <path
         d="M 25.78125,7.859375 27.046875,0.09375 Q 23.34375,-0.6875 20.40625,-0.6875 15.625,-0.6875 12.984375,0.828125 10.359375,2.34375 9.28125,4.8125 8.203125,7.28125 8.203125,15.1875 v 29.828125 h -6.4375 v 6.84375 h 6.4375 v 12.84375 L 16.9375,69.96875 V 51.859375 h 8.84375 v -6.84375 H 16.9375 v -30.3125 q 0,-3.765625 0.46875,-4.84375 0.46875,-1.0625 1.515625,-1.703125 1.046875,-0.640625 3,-0.640625 1.46875,0 3.859375,0.34375 z"
         id="ArialMT-116"
         inkscape:connector-curvature="0"
         style="stroke-linecap:butt;stroke-linejoin:round" />
      <path
         d="M 40.4375,6.390625 Q 35.546875,2.25 31.03125,0.53125 q -4.515625,-1.703125 -9.6875,-1.703125 -8.546875,0 -13.140625,4.171875 -4.59375,4.171875 -4.59375,10.671875 0,3.8125 1.734375,6.953125 1.734375,3.15625 4.546875,5.0625 2.8125,1.90625 6.328125,2.875 2.578125,0.6875 7.8125,1.328125 10.640625,1.265625 15.671875,3.015625 0.04687,1.8125 0.04687,2.296875 0,5.375 -2.5,7.578125 -3.359375,2.96875 -10,2.96875 -6.203125,0 -9.15625,-2.171875 -2.953125,-2.171875 -4.375,-7.6875 L 5.125,37.0625 q 1.171875,5.515625 3.859375,8.90625 2.6875,3.390625 7.765625,5.21875 5.078125,1.84375 11.765625,1.84375 6.640625,0 10.78125,-1.5625 4.15625,-1.5625 6.109375,-3.9375 1.953125,-2.359375 2.734375,-5.984375 0.4375,-2.234375 0.4375,-8.09375 v -11.71875 q 0,-12.265625 0.5625,-15.515625 Q 49.703125,2.984375 51.375,0 h -9.1875 q -1.359375,2.734375 -1.75,6.390625 z M 39.703125,26.03125 Q 34.90625,24.078125 25.34375,22.703125 19.921875,21.921875 17.671875,20.9375 15.4375,19.96875 14.203125,18.09375 q -1.21875,-1.875 -1.21875,-4.171875 0,-3.515625 2.65625,-5.859375 2.671875,-2.34375 7.796875,-2.34375 5.078125,0 9.03125,2.21875 3.953125,2.21875 5.8125,6.078125 1.421875,2.984375 1.421875,8.78125 z"
         id="ArialMT-97"
         inkscape:connector-curvature="0"
         style="stroke-linecap:butt;stroke-linejoin:round" />
      <path
         d="M 4.984375,-4.296875 13.53125,-5.5625 q 0.53125,-3.953125 2.96875,-5.765625 3.28125,-2.4375 8.9375,-2.4375 6.109375,0 9.421875,2.4375 3.328125,2.4375 4.5,6.828125 0.6875,2.6875 0.625,11.28125 Q 34.234375,0 25.640625,0 14.9375,0 9.078125,7.71875 q -5.859375,7.71875 -5.859375,18.5 0,7.421875 2.6875,13.6875 2.6875,6.28125 7.78125,9.703125 5.109375,3.421875 12,3.421875 9.171875,0 15.140625,-7.421875 v 6.25 h 8.09375 V 7.03125 q 0,-12.109375 -2.46875,-17.15625 -2.453125,-5.0625 -7.8125,-7.984375 -5.34375,-2.9375 -13.15625,-2.9375 -9.265625,0 -14.984375,4.171875 -5.71875,4.171875 -5.515625,12.578125 z M 12.25,26.859375 q 0,-10.203125 4.046875,-14.890625 4.0625,-4.6875 10.171875,-4.6875 6.046875,0 10.140625,4.65625 4.109375,4.671875 4.109375,14.625 0,9.515625 -4.21875,14.34375 Q 32.28125,45.75 26.3125,45.75 q -5.859375,0 -9.96875,-4.765625 -4.09375,-4.75 -4.09375,-14.125 z"
         id="ArialMT-103"
         inkscape:connector-curvature="0"
         style="stroke-linecap:butt;stroke-linejoin:round" />
      <path
         d="m 42.09375,16.703125 9.078125,-1.125 Q 49.03125,7.625 43.21875,3.21875 37.40625,-1.171875 28.375,-1.171875 q -11.375,0 -18.046875,7 -6.671875,7.015625 -6.671875,19.65625 0,13.09375 6.734375,20.3125 6.75,7.234375 17.484375,7.234375 10.40625,0 17,-7.078125 6.59375,-7.078125 6.59375,-19.921875 0,-0.78125 -0.04687,-2.34375 H 12.75 q 0.484375,-8.546875 4.828125,-13.09375 4.34375,-4.53125 10.84375,-4.53125 4.828125,0 8.25,2.53125 3.421875,2.546875 5.421875,8.109375 z M 13.234375,30.90625 H 42.1875 q -0.578125,6.546875 -3.3125,9.8125 -4.203125,5.078125 -10.890625,5.078125 -6.0625,0 -10.1875,-4.046875 -4.125,-4.046875 -4.5625,-10.84375 z"
         id="ArialMT-101"
         inkscape:connector-curvature="0"
         style="stroke-linecap:butt;stroke-linejoin:round" />
    </defs>
    <defs
       id="defs190">
      <path
         d="m 58.796875,25.09375 9.46875,-2.390625 Q 65.28125,11.03125 57.546875,4.90625 49.8125,-1.21875 38.625,-1.21875 q -11.578125,0 -18.828125,4.703125 -7.25,4.71875 -11.03125,13.65625 -3.78125,8.9375 -3.78125,19.1875 0,11.1875 4.265625,19.5 4.28125,8.328125 12.15625,12.640625 7.890625,4.328125 17.359375,4.328125 10.75,0 18.0625,-5.46875 7.328125,-5.46875 10.21875,-15.375 L 57.71875,49.75 q -2.5,7.8125 -7.234375,11.375 -4.734375,3.578125 -11.90625,3.578125 -8.25,0 -13.796875,-3.96875 -5.546875,-3.953125 -7.796875,-10.625 Q 14.75,43.453125 14.75,36.375 q 0,-9.125 2.65625,-15.9375 2.65625,-6.8125 8.265625,-10.1875 5.625,-3.359375 12.171875,-3.359375 7.953125,0 13.46875,4.578125 5.53125,4.59375 7.484375,13.625 z"
         id="ArialMT-67"
         inkscape:connector-curvature="0"
         style="stroke-linecap:butt;stroke-linejoin:round" />
      <path
         d="m 40.578125,0 v 7.625 q -6.0625,-8.796875 -16.453125,-8.796875 -4.59375,0 -8.578125,1.75 Q 11.578125,2.34375 9.640625,5 7.71875,7.671875 6.9375,11.53125 6.390625,14.109375 6.390625,19.734375 v 32.125 H 15.1875 V 23.09375 q 0,-6.875 0.53125,-9.28125 0.828125,-3.453125 3.515625,-5.4375 2.6875,-1.984375 6.640625,-1.984375 3.953125,0 7.421875,2.03125 3.46875,2.03125 4.90625,5.515625 1.453125,3.5 1.453125,10.140625 v 27.78125 H 48.4375 V 0 Z"
         id="ArialMT-117"
         inkscape:connector-curvature="0"
         style="stroke-linecap:butt;stroke-linejoin:round" />
      <path
         d="m 6.5,0 v 51.859375 h 7.90625 V 44 Q 17.4375,49.515625 20,51.265625 q 2.5625,1.765625 5.640625,1.765625 4.4375,0 9.03125,-2.828125 l -3.03125,-8.15625 q -3.21875,1.90625 -6.4375,1.90625 -2.890625,0 -5.1875,-1.734375 -2.296875,-1.734375 -3.265625,-4.8125 -1.46875,-4.6875 -1.46875,-10.25 V 0 Z"
         id="ArialMT-114"
         inkscape:connector-curvature="0"
         style="stroke-linecap:butt;stroke-linejoin:round" />
      <path
         d="M 6.59375,0 V 51.859375 H 14.5 v -7.375 q 5.71875,8.546875 16.5,8.546875 4.6875,0 8.625,-1.6875 3.9375,-1.6875 5.890625,-4.421875 Q 47.46875,44.1875 48.25,40.4375 48.734375,37.984375 48.734375,31.890625 V 0 H 39.9375 v 31.546875 q 0,5.375 -1.03125,8.03125 -1.015625,2.65625 -3.625,4.234375 -2.609375,1.59375 -6.125,1.59375 -5.625,0 -9.703125,-3.5625 Q 15.375,38.28125 15.375,28.328125 V 0 Z"
         id="ArialMT-110"
         inkscape:connector-curvature="0"
         style="stroke-linecap:butt;stroke-linejoin:round" />
    </defs>
  </defs>
  <defs
     id="defs322">
    <clipPath
       id="p7d6428472e"
       style="stroke-linecap:butt;stroke-linejoin:round">
      <rect
         height="163.08"
         width="163.08"
         x="0.72000003"
         y="0.72000003"
         id="rect319"
         style="stroke-linecap:butt;stroke-linejoin:round" />
    </clipPath>
  </defs>
  <g
     id="line2d_1"
     style="stroke-linecap:butt;stroke-linejoin:round"
     transform="translate(-7.382727,-7.383058)">
    <defs
       id="defs13">
      <path
         d="m 0,1.75 v -3.5"
         id="mfd32374db4"
         style="stroke:#000000;stroke-width:0.80000001;stroke-linecap:butt;stroke-linejoin:round"
         inkscape:connector-curvature="0" />
    </defs>
    <g
       id="g17"
       style="stroke-linecap:butt;stroke-linejoin:round">
      <use
         style="stroke:#000000;stroke-width:0.80000001;stroke-linecap:butt;stroke-linejoin:round"
         x="8.1327267"
         xlink:href="#mfd32374db4"
         y="156.32257"
         id="use15"
         width="100%"
         height="100%" />
    </g>
  </g>
  <g
     id="line2d_2"
     style="stroke-linecap:butt;stroke-linejoin:round"
     transform="translate(-7.382727,-7.383058)">
    <g
       id="g23"
       style="stroke-linecap:butt;stroke-linejoin:round">
      <use
         style="stroke:#000000;stroke-width:0.80000001;stroke-linecap:butt;stroke-linejoin:round"
         x="45.196365"
         xlink:href="#mfd32374db4"
         y="156.32257"
         id="use21"
         width="100%"
         height="100%" />
    </g>
  </g>
  <g
     id="line2d_3"
     style="stroke-linecap:butt;stroke-linejoin:round"
     transform="translate(-7.382727,-7.383058)">
    <g
       id="g29"
       style="stroke-linecap:butt;stroke-linejoin:round">
      <use
         style="stroke:#000000;stroke-width:0.80000001;stroke-linecap:butt;stroke-linejoin:round"
         x="82.260002"
         xlink:href="#mfd32374db4"
         y="156.32257"
         id="use27"
         width="100%"
         height="100%" />
    </g>
  </g>
  <g
     id="line2d_4"
     style="stroke-linecap:butt;stroke-linejoin:round"
     transform="translate(-7.382727,-7.383058)">
    <g
       id="g35"
       style="stroke-linecap:butt;stroke-linejoin:round">
      <use
         style="stroke:#000000;stroke-width:0.80000001;stroke-linecap:butt;stroke-linejoin:round"
         x="119.32364"
         xlink:href="#mfd32374db4"
         y="156.32257"
         id="use33"
         width="100%"
         height="100%" />
    </g>
  </g>
  <g
     id="line2d_5"
     style="stroke-linecap:butt;stroke-linejoin:round"
     transform="translate(-7.382727,-7.383058)">
    <g
       id="g41"
       style="stroke-linecap:butt;stroke-linejoin:round">
      <use
         style="stroke:#000000;stroke-width:0.80000001;stroke-linecap:butt;stroke-linejoin:round"
         x="156.38727"
         xlink:href="#mfd32374db4"
         y="156.32257"
         id="use39"
         width="100%"
         height="100%" />
    </g>
  </g>
  <g
     id="line2d_6"
     style="stroke-linecap:butt;stroke-linejoin:round"
     transform="translate(-7.382727,-7.383058)">
    <defs
       id="defs154">
      <path
         d="m 1.75,0 h -3.5"
         id="mdd843112fb"
         style="stroke:#000000;stroke-width:0.80000001;stroke-linecap:butt;stroke-linejoin:round"
         inkscape:connector-curvature="0" />
    </defs>
    <g
       id="g158"
       style="stroke-linecap:butt;stroke-linejoin:round">
      <use
         style="stroke:#000000;stroke-width:0.80000001;stroke-linecap:butt;stroke-linejoin:round"
         x="82.260002"
         xlink:href="#mdd843112fb"
         y="156.32257"
         id="use156"
         width="100%"
         height="100%" />
    </g>
  </g>
  <g
     id="line2d_7"
     style="stroke-linecap:butt;stroke-linejoin:round"
     transform="translate(-7.382727,-7.383058)">
    <g
       id="g164"
       style="stroke-linecap:butt;stroke-linejoin:round">
      <use
         style="stroke:#000000;stroke-width:0.80000001;stroke-linecap:butt;stroke-linejoin:round"
         x="82.260002"
         xlink:href="#mdd843112fb"
         y="123.2457"
         id="use162"
         width="100%"
         height="100%" />
    </g>
  </g>
  <g
     id="line2d_8"
     style="stroke-linecap:butt;stroke-linejoin:round"
     transform="translate(-7.382727,-7.383058)">
    <g
       id="g170"
       style="stroke-linecap:butt;stroke-linejoin:round">
      <use
         style="stroke:#000000;stroke-width:0.80000001;stroke-linecap:butt;stroke-linejoin:round"
         x="82.260002"
         xlink:href="#mdd843112fb"
         y="90.168839"
         id="use168"
         width="100%"
         height="100%" />
    </g>
  </g>
  <g
     id="line2d_9"
     style="stroke-linecap:butt;stroke-linejoin:round"
     transform="translate(-7.382727,-7.383058)">
    <g
       id="g176"
       style="stroke-linecap:butt;stroke-linejoin:round">
      <use
         style="stroke:#000000;stroke-width:0.80000001;stroke-linecap:butt;stroke-linejoin:round"
         x="82.260002"
         xlink:href="#mdd843112fb"
         y="57.091972"
         id="use174"
         width="100%"
         height="100%" />
    </g>
  </g>
  <g
     id="line2d_10"
     style="stroke-linecap:butt;stroke-linejoin:round"
     transform="translate(-7.382727,-7.383058)">
    <g
       id="g182"
       style="stroke-linecap:butt;stroke-linejoin:round">
      <use
         style="stroke:#000000;stroke-width:0.80000001;stroke-linecap:butt;stroke-linejoin:round"
         x="82.260002"
         xlink:href="#mdd843112fb"
         y="24.01511"
         id="use180"
         width="100%"
         height="100%" />
    </g>
  </g>
  <path
     inkscape:connector-curvature="0"
     id="path290"
     style="fill:none;stroke:#1f77b4;stroke-width:1.5;stroke-linecap:square;stroke-linejoin:round"
     d="m 8.132727,156.38727 h 1.497521 1.497521 1.49752 1.497521 1.497521 1.49752 1.497521 1.497521 1.49752 1.497521 1.497521 1.49752 1.497521 1.497521 1.49752 1.497521 1.497521 1.49752 1.497521 1.49752 1.497521 1.497521 1.49752 1.497521 1.497521 1.49752 1.497521 1.497521 1.49752 1.497521 1.497521 1.49752 1.497521 1.497521 1.49752 1.497521 1.497521 l 1.49752,-1e-5 1.497521,-2e-5 1.497521,-4e-5 1.49752,-1e-4 1.497521,-1.9e-4 1.497521,-4.4e-4 1.49752,-9.3e-4 1.497521,-0.002 1.497521,-0.004 1.49752,-0.008 1.497521,-0.0145 1.497521,-0.0216 1.49752,-0.025 1.497521,-0.0216 1.497521,-0.0145 1.49752,-0.008 1.497521,-0.004 1.497521,-0.002 1.49752,-9.4e-4 1.497521,-4.3e-4 1.497521,-2e-4 1.49752,-9e-5 1.497521,-4e-5 1.497521,-2e-5 1.497522,-1e-5 h 1.49752 1.49752 l 1.49752,-1e-5 h 1.49752 1.49752 1.49752 1.49752 1.49752 1.49752 1.49753 1.49752 1.49752 1.49752 1.49752 1.49752 1.49752 1.49752 1.49752 1.49752 1.49752 1.49752 1.49752 1.49752 1.49752 1.49752 1.49752 1.49753 1.49752 1.49752 1.49752 1.49752 1.49752 1.49752 1.49752 1.49752 1.49752 1.49752"
     clip-path="url(#p7d6428472e)"
     transform="translate(-7.382727,-7.383058)" />
  <path
     inkscape:connector-curvature="0"
     id="path293"
     style="fill:none;stroke:#ff7f0e;stroke-width:0.85039366;stroke-linecap:square;stroke-linejoin:round;stroke-miterlimit:4;stroke-dasharray:none"
     d="m 8.132727,156.38727 h 1.497521 1.497521 1.49752 1.497521 1.497521 1.49752 1.497521 1.497521 1.49752 1.497521 1.497521 1.49752 1.497521 1.497521 1.49752 1.497521 1.497521 1.49752 1.497521 1.49752 1.497521 1.497521 1.49752 1.497521 1.497521 1.49752 1.497521 1.497521 1.49752 1.497521 1.497521 1.49752 1.497521 1.497521 1.49752 1.497521 1.497521 1.49752 l 1.497521,-2e-5 1.497521,-2e-5 1.49752,-4e-5 1.497521,-1e-4 1.497521,-2.2e-4 1.49752,-4.8e-4 1.497521,-0.001 1.497521,-0.002 1.49752,-0.005 1.497521,-0.0109 1.497521,-0.0237 1.49752,-0.0518 1.497521,-0.11312 1.497521,-0.24653 1.49752,-0.53572 1.497521,-1.15695 1.497521,-2.46535 1.49752,-5.10677 1.497521,-9.98432 1.497521,-17.4868 1.49752,-25.444166 1.497521,-28.558419 1.497521,-24.052653 1.497522,-15.824295 1.49752,-8.790533 1.49752,-4.429649 1.49752,-2.122629 1.49752,-0.992594 1.49752,-0.458856 1.49752,-0.210992 1.49752,-0.096781 1.49752,-0.044343 1.49752,-0.020307 1.49753,-0.0093 1.49752,-0.00426 1.49752,-0.00195 1.49752,-8.92e-4 1.49752,-4.08e-4 1.49752,-1.87e-4 1.49752,-8.6e-5 1.49752,-3.9e-5 1.49752,-1.8e-5 1.49752,-8e-6 1.49752,-4e-6 1.49752,-10e-7 1.49752,-1e-6 h 1.49752 l 1.49752,-10e-7 h 1.49752 1.49752 1.49753 1.49752 1.49752 1.49752 1.49752 1.49752 1.49752 1.49752 1.49752 1.49752 1.49752"
     clip-path="url(#p7d6428472e)"
     transform="translate(-7.382727,-7.383058)" />
  <path
     inkscape:connector-curvature="0"
     id="path296"
     style="fill:none;stroke:#2ca02c;stroke-width:0.85039366;stroke-linecap:square;stroke-linejoin:round;stroke-miterlimit:4;stroke-dasharray:none"
     d="m 8.132727,156.38727 h 1.497521 1.497521 1.49752 1.497521 1.497521 1.49752 1.497521 1.497521 1.49752 1.497521 1.497521 1.49752 1.497521 1.497521 1.49752 1.497521 1.497521 1.49752 1.497521 1.49752 1.497521 1.497521 1.49752 1.497521 1.497521 1.49752 1.497521 1.497521 1.49752 1.497521 1.497521 1.49752 1.497521 1.497521 1.49752 1.497521 1.497521 l 1.49752,-1e-5 1.497521,-1e-5 1.497521,-2e-5 1.49752,-5e-5 1.497521,-1.1e-4 1.497521,-2.3e-4 1.49752,-5.2e-4 1.497521,-0.001 1.497521,-0.002 1.49752,-0.005 1.497521,-0.0113 1.497521,-0.0237 1.49752,-0.0477 1.497521,-0.0894 1.497521,-0.15094 1.49752,-0.22518 1.497521,-0.29933 1.497521,-0.36373 1.49752,-0.41543 1.497521,-0.45556 1.497521,-0.48657 1.49752,-0.51071 1.497521,-0.52976 1.497521,-0.54504 1.497522,-0.55747 1.49752,-0.56774 1.49752,-0.57633 1.49752,-0.5836 1.49752,-0.58983 1.49752,-0.5952 1.49752,-0.59988 1.49752,-0.60399 1.49752,-0.60763 1.49752,-0.61087 1.49753,-0.61375 1.49752,-0.61636 1.49752,-0.61872 1.49752,-0.62085 1.49752,-0.62279 1.49752,-0.62458 1.49752,-0.62621 1.49752,-0.62771 1.49752,-0.62911 1.49752,-0.63039 1.49752,-0.63158 1.49752,-0.6327 1.49752,-0.63373 1.49752,-0.6347 1.49752,-0.63561 1.49752,-0.63646 1.49752,-0.63725 1.49753,-0.63801 1.49752,-0.63872 1.49752,-0.63939 1.49752,-0.64002 1.49752,-0.64062 1.49752,-0.64118 1.49752,-0.64172 1.49752,-0.64223 1.49752,-0.64272 1.49752,-0.64318 1.49752,-0.64362"
     clip-path="url(#p7d6428472e)"
     transform="translate(-7.382727,-7.383058)" />
  <path
     inkscape:connector-curvature="0"
     id="path299"
     style="fill:none;stroke:#d62728;stroke-width:0.85039366;stroke-linecap:square;stroke-linejoin:round;stroke-miterlimit:4;stroke-dasharray:none"
     d="m 8.132727,156.38727 h 1.497521 1.497521 1.49752 1.497521 1.497521 1.49752 1.497521 1.497521 1.49752 1.497521 1.497521 1.49752 1.497521 1.497521 1.49752 1.497521 1.497521 1.49752 1.497521 1.49752 1.497521 1.497521 1.49752 1.497521 1.497521 1.49752 1.497521 1.497521 1.49752 1.497521 1.497521 1.49752 1.497521 1.497521 1.49752 1.497521 1.497521 1.49752 l 1.497521,-2e-5 1.497521,-2e-5 1.49752,-4e-5 1.497521,-1e-4 1.497521,-2.2e-4 1.49752,-4.8e-4 1.497521,-0.001 1.497521,-0.002 1.49752,-0.005 1.497521,-0.0109 1.497521,-0.0237 1.49752,-0.0517 1.497521,-0.11204 1.497521,-0.24072 1.49752,-0.50773 1.497521,-1.03218 1.497521,-1.96324 1.49752,-3.36626 1.497521,-5.05929 1.497521,-6.65164 1.49752,-7.82232 1.497521,-8.48142 1.497521,-8.70118 1.497522,-8.60216 1.49752,-8.29378 1.49752,-7.858786 1.49752,-7.355089 1.49752,-6.821706 1.49752,-6.284262 1.49752,-5.759177 1.49752,-5.256608 1.49752,-4.782468 1.49752,-4.339823 1.49753,-3.929817 1.49752,-3.552337 1.49752,-3.20645 1.49752,-2.890706 1.49752,-2.603363 1.49752,-2.342519 1.49752,-2.106224 1.49752,-1.892536 1.49752,-1.699575 1.49752,-1.525547 1.49752,-1.36876 1.49752,-1.227632 1.49752,-1.100699 1.49752,-0.986611 1.49752,-0.884128 1.49752,-0.792115 1.49752,-0.709542 1.49753,-0.635466 1.49752,-0.569039 1.49752,-0.509486 1.49752,-0.456112 1.49752,-0.408286 1.49752,-0.36544 1.49752,-0.327064 1.49752,-0.292696 1.49752,-0.261922 1.49752,-0.234369 1.49752,-0.209705"
     clip-path="url(#p7d6428472e)"
     transform="translate(-7.382727,-7.383058)" />
  <path
     inkscape:connector-curvature="0"
     id="path302"
     style="fill:none;stroke:#9467bd;stroke-width:0.85039366;stroke-linecap:square;stroke-linejoin:round;stroke-miterlimit:4;stroke-dasharray:none"
     d="m 8.132727,156.38727 h 1.497521 1.497521 1.49752 1.497521 1.497521 1.49752 1.497521 1.497521 1.49752 1.497521 1.497521 1.49752 1.497521 1.497521 1.49752 1.497521 1.497521 1.49752 1.497521 1.49752 1.497521 1.497521 1.49752 1.497521 1.497521 1.49752 1.497521 1.497521 1.49752 1.497521 1.497521 1.49752 1.497521 1.497521 1.49752 1.497521 1.497521 l 1.49752,-1e-5 1.497521,-1e-5 1.497521,-2e-5 1.49752,-5e-5 1.497521,-1.1e-4 1.497521,-2.3e-4 1.49752,-5.2e-4 1.497521,-0.001 1.497521,-0.002 1.49752,-0.005 1.497521,-0.0113 1.497521,-0.0237 1.49752,-0.0476 1.497521,-0.0889 1.497521,-0.14908 1.49752,-0.22112 1.497521,-0.2925 1.497521,-0.35418 1.49752,-0.40355 1.497521,-0.44185 1.497521,-0.4714 1.49752,-0.49441 1.497521,-0.51257 1.497521,-0.52712 1.497522,-0.53895 1.49752,-0.54871 1.49752,-0.55688 1.49752,-0.56376 1.49752,-0.56966 1.49752,-0.57473 1.49752,-0.57914 1.49752,-0.583 1.49752,-0.5864 1.49752,-0.58942 1.49753,-0.59212 1.49752,-0.59452 1.49752,-0.59668 1.49752,-0.59865 1.49752,-0.60042 1.49752,-0.60204 1.49752,-0.6035 1.49752,-0.60486 1.49752,-0.60609 1.49752,-0.60722 1.49752,-0.60827 1.49752,-0.60923 1.49752,-0.61012 1.49752,-0.61095 1.49752,-0.61171 1.49752,-0.61242 1.49752,-0.61308 1.49753,-0.61369 1.49752,-0.61425 1.49752,-0.61479 1.49752,-0.61528 1.49752,-0.61573 1.49752,-0.61617 1.49752,-0.61656 1.49752,-0.61693 1.49752,-0.61728 1.49752,-0.6176 1.49752,-0.6179"
     clip-path="url(#p7d6428472e)"
     transform="translate(-7.382727,-7.383058)" />
  <path
     inkscape:connector-curvature="0"
     id="path305"
     style="fill:none;stroke:#000000;stroke-width:0.80000001;stroke-linecap:square;stroke-linejoin:miter"
     d="M 74.877273,149.00421 V 0.749669" />
  <path
     inkscape:connector-curvature="0"
     id="path311"
     style="fill:none;stroke:#000000;stroke-width:0.80000001;stroke-linecap:square;stroke-linejoin:miter"
     d="M 0.75,148.9395 H 149.00454" />
  <g
     id="g1072"
     style="stroke-linecap:butt;stroke-linejoin:round"
     transform="translate(0,57.944131)">
    <path
       sodipodi:nodetypes="ccccccccccccccc"
       inkscape:connector-curvature="0"
       id="path1126"
       d="M 3.0121988,78.017231 H 18.762199 l 1.5,-3.75 3,7.5 3,-7.5 2.999999,7.5 3,-7.5 3,7.5 3,-7.5 3,7.5 3,-7.5 3,7.5 0.75,-1.875 0.749997,-1.875 h 17.999999"
       style="fill:none;stroke:#000000;stroke-width:0.85039366;stroke-linecap:butt;stroke-linejoin:miter;stroke-miterlimit:4;stroke-dasharray:none;stroke-opacity:1;marker-start:url(#DotM);marker-end:url(#DotM)" />
    <path
       sodipodi:nodetypes="cccc"
       inkscape:connector-curvature="0"
       id="path1428"
       d="m 53.325005,72.017231 v 12 l 6.955065,-6 z"
       style="fill:#ffffff;fill-opacity:1;stroke:#000000;stroke-width:1.125;stroke-linecap:butt;stroke-linejoin:miter;stroke-miterlimit:4;stroke-dasharray:none;stroke-opacity:1" />
    <path
       style="fill:#ffffff;fill-opacity:1;stroke:#000000;stroke-width:1.12500012;stroke-linecap:butt;stroke-linejoin:miter;stroke-miterlimit:4;stroke-dasharray:none;stroke-opacity:1"
       d="m 15.310837,72.017231 v 12 l -6.955065,-6 z"
       id="path1428-2"
       inkscape:connector-curvature="0"
       sodipodi:nodetypes="cccc" />
  </g>
  <text
     xml:space="preserve"
     style="font-style:normal;font-variant:normal;font-weight:normal;font-stretch:normal;font-size:10px;line-height:1.25;font-family:Arial;-inkscape-font-specification:Arial;letter-spacing:0px;word-spacing:0px;fill:#000000;fill-opacity:1;stroke:none;stroke-width:0.75;stroke-linecap:butt;stroke-linejoin:round"
     x="141.83618"
     y="144.28258"
     id="text2245"><tspan
       sodipodi:role="line"
       id="tspan2243"
       style="font-style:italic;font-variant:normal;font-weight:normal;font-stretch:normal;font-family:Arial;-inkscape-font-specification:'Arial Italic';stroke-width:0.75;stroke-linecap:butt;stroke-linejoin:round"
       x="141.83618"
       y="144.28258">V</tspan></text>
  <text
     xml:space="preserve"
     style="font-style:normal;font-variant:normal;font-weight:normal;font-stretch:normal;font-size:10px;line-height:1.25;font-family:Arial;-inkscape-font-specification:Arial;letter-spacing:0px;word-spacing:0px;fill:#000000;fill-opacity:1;stroke:none;stroke-width:0.75;stroke-linecap:butt;stroke-linejoin:round"
     x="-5.7061138"
     y="70.855965"
     id="text2249"
     transform="rotate(-90)"><tspan
       sodipodi:role="line"
       id="tspan2247"
       style="font-style:italic;font-variant:normal;font-weight:normal;font-stretch:normal;font-family:Arial;-inkscape-font-specification:'Arial Italic';stroke-width:0.75;stroke-linecap:butt;stroke-linejoin:round"
       x="-5.7061138"
       y="70.855965">J</tspan></text>
  <g
     id="g1146"
     style="stroke-linecap:butt;stroke-linejoin:round"
     transform="translate(-0.06719902,0.50364734)">
    <text
       id="text1211"
       y="52.048119"
       x="6.7085013"
       style="font-style:normal;font-variant:normal;font-weight:normal;font-stretch:normal;font-size:8px;line-height:1.25;font-family:Arial;-inkscape-font-specification:Arial;letter-spacing:0px;word-spacing:0px;fill:#2ca02c;fill-opacity:1;stroke:none;stroke-width:0.75;stroke-linecap:butt;stroke-linejoin:round"
       xml:space="preserve"><tspan
         y="52.048119"
         x="6.7085013"
         style="font-size:8px;fill:#2ca02c;fill-opacity:1;stroke-width:0.75;stroke-linecap:butt;stroke-linejoin:round"
         id="tspan1209"
         sodipodi:role="line">R<tspan
   style="font-size:65%;baseline-shift:sub"
   id="tspan1018">large</tspan>, n<tspan
   style="font-size:65%;baseline-shift:sub"
   id="tspan1022">1</tspan> = n<tspan
   style="font-size:65%;baseline-shift:sub"
   id="tspan1024">2</tspan></tspan></text>
    <text
       id="text1215"
       y="29.992834"
       x="0.0021599515"
       style="font-style:normal;font-variant:normal;font-weight:normal;font-stretch:normal;font-size:8px;line-height:1.25;font-family:Arial;-inkscape-font-specification:Arial;letter-spacing:0px;word-spacing:0px;fill:#000000;fill-opacity:1;stroke:none;stroke-width:0.75;stroke-linecap:butt;stroke-linejoin:round"
       xml:space="preserve"><tspan
         y="29.992834"
         x="0.0021599515"
         style="font-size:8px;stroke-width:0.75;stroke-linecap:butt;stroke-linejoin:round"
         id="tspan1213"
         sodipodi:role="line">Φ<tspan
   style="font-size:65%;baseline-shift:sub"
   id="tspan1010">1</tspan> &gt; Φ<tspan
   style="font-size:65%;baseline-shift:sub"
   id="tspan1014">2:</tspan></tspan></text>
    <text
       id="text1215-4"
       y="7.2190685"
       x="0.0021599515"
       style="font-style:normal;font-variant:normal;font-weight:normal;font-stretch:normal;font-size:8px;line-height:1.25;font-family:Arial;-inkscape-font-specification:Arial;letter-spacing:0px;word-spacing:0px;fill:#1f77b4;fill-opacity:1;stroke:none;stroke-width:0.75;stroke-linecap:butt;stroke-linejoin:round"
       xml:space="preserve"><tspan
         y="7.2190685"
         x="0.0021599515"
         style="font-size:8px;stroke-width:0.75;stroke-linecap:butt;stroke-linejoin:round"
         id="tspan1213-0"
         sodipodi:role="line">Φ<tspan
   style="font-size:65%;baseline-shift:sub"
   id="tspan984">1</tspan> = Φ<tspan
   style="font-size:65%;baseline-shift:sub"
   id="tspan986">2</tspan></tspan></text>
    <text
       id="text1211-1"
       y="75.471321"
       x="6.7085013"
       style="font-style:normal;font-variant:normal;font-weight:normal;font-stretch:normal;font-size:8px;line-height:1.25;font-family:Arial;-inkscape-font-specification:Arial;letter-spacing:0px;word-spacing:0px;fill:#9467bd;fill-opacity:1;stroke:none;stroke-width:0.75;stroke-linecap:butt;stroke-linejoin:round"
       xml:space="preserve"><tspan
         y="75.471321"
         x="6.7085013"
         style="font-size:8px;fill:#9467bd;fill-opacity:1;stroke-width:0.75;stroke-linecap:butt;stroke-linejoin:round"
         id="tspan1209-9"
         sodipodi:role="line">R<tspan
   style="font-size:65%;baseline-shift:sub"
   id="tspan1038">large</tspan>, n<tspan
   style="font-size:65%;baseline-shift:sub"
   id="tspan1042">1</tspan> &lt; n<tspan
   style="font-size:65%;baseline-shift:sub"
   id="tspan1044">2</tspan></tspan></text>
    <text
       id="text1211-1-1"
       y="64.405594"
       x="6.7085013"
       style="font-style:normal;font-variant:normal;font-weight:normal;font-stretch:normal;font-size:8px;line-height:1.25;font-family:Arial;-inkscape-font-specification:Arial;letter-spacing:0px;word-spacing:0px;fill:#d62728;fill-opacity:1;stroke:none;stroke-width:0.75;stroke-linecap:butt;stroke-linejoin:round"
       xml:space="preserve"><tspan
         y="64.405594"
         x="6.7085013"
         style="font-size:8px;fill:#d62728;fill-opacity:1;stroke-width:0.75;stroke-linecap:butt;stroke-linejoin:round"
         id="tspan1209-9-8"
         sodipodi:role="line">R<tspan
   style="font-size:65%;baseline-shift:sub"
   id="tspan1028">small</tspan>, n<tspan
   style="font-size:65%;baseline-shift:sub"
   id="tspan1032">1</tspan> &lt; n<tspan
   style="font-size:65%;baseline-shift:sub"
   id="tspan1034">2</tspan></tspan></text>
    <text
       id="text1211-1-9"
       y="40.982388"
       x="6.7085013"
       style="font-style:normal;font-variant:normal;font-weight:normal;font-stretch:normal;font-size:8px;line-height:1.25;font-family:Arial;-inkscape-font-specification:Arial;letter-spacing:0px;word-spacing:0px;fill:#ff7f0e;fill-opacity:1;stroke:none;stroke-width:0.75;stroke-linecap:butt;stroke-linejoin:round"
       xml:space="preserve"><tspan
         y="40.982388"
         x="6.7085013"
         style="font-size:8px;fill:#ff7f0e;fill-opacity:1;stroke-width:0.75;stroke-linecap:butt;stroke-linejoin:round"
         id="tspan1209-9-3"
         sodipodi:role="line">R<tspan
   style="font-size:65%;baseline-shift:sub"
   id="tspan1000">small</tspan>, n<tspan
   style="font-size:65%;baseline-shift:sub"
   id="tspan1004">1</tspan> = n<tspan
   style="font-size:65%;baseline-shift:sub"
   id="tspan1006">2</tspan></tspan></text>
    <text
       xml:space="preserve"
       style="font-style:normal;font-variant:normal;font-weight:normal;font-stretch:normal;font-size:8px;line-height:1.25;font-family:Arial;-inkscape-font-specification:Arial;letter-spacing:0px;word-spacing:0px;fill:#1f77b4;fill-opacity:1;stroke:none;stroke-width:0.75;stroke-linecap:butt;stroke-linejoin:round"
       x="6.7085013"
       y="18.460443"
       id="text942"><tspan
         sodipodi:role="line"
         id="tspan940"
         style="font-size:8px;fill:#1f77b4;fill-opacity:1;stroke-width:0.75;stroke-linecap:butt;stroke-linejoin:round"
         x="6.7085013"
         y="18.460443">R<tspan
   style="font-size:65%;baseline-shift:sub"
   id="tspan990">small</tspan>, n<tspan
   style="font-size:65%;baseline-shift:sub"
   id="tspan994">1</tspan> &gt; n<tspan
   style="font-size:65%;baseline-shift:sub"
   id="tspan996">2</tspan></tspan></text>
  </g>
</svg>
