<?xml version="1.0" encoding="utf-8" standalone="no"?>
<!DOCTYPE svg PUBLIC "-//W3C//DTD SVG 1.1//EN"
  "http://www.w3.org/Graphics/SVG/1.1/DTD/svg11.dtd">
<!-- Created with matplotlib (https://matplotlib.org/) -->
<svg height="85.42412pt" version="1.1" viewBox="0 0 102.28745 85.42412" width="102.28745pt" xmlns="http://www.w3.org/2000/svg" xmlns:xlink="http://www.w3.org/1999/xlink">
 <defs>
  <style type="text/css">
*{stroke-linecap:butt;stroke-linejoin:round;white-space:pre;}
  </style>
 </defs>
 <g id="figure_1">
  <g id="patch_1">
   <path d="M -0 85.42412 
L 102.28745 85.42412 
L 102.28745 0 
L -0 0 
z
" style="fill:none;"/>
  </g>
  <g id="axes_1">
   <g id="patch_2">
    <path d="M 91.9637 42.71206 
C 91.9637 37.643732 90.96535 32.624688 89.025785 27.942164 
C 87.08622 23.259639 84.243159 19.004699 80.65931 15.42085 
C 77.075462 11.837001 72.820521 8.99394 68.137997 7.054375 
C 63.455472 5.11481 58.436428 4.11646 53.3681 4.11646 
C 48.299772 4.11646 43.280728 5.11481 38.598203 7.054375 
C 33.915679 8.99394 29.660738 11.837001 26.07689 15.42085 
C 22.493041 19.004699 19.64998 23.259639 17.710415 27.942164 
C 15.77085 32.624688 14.7725 37.643732 14.7725 42.71206 
C 14.7725 47.780388 15.77085 52.799433 17.710415 57.481957 
C 19.64998 62.164481 22.493041 66.419422 26.07689 70.003271 
C 29.660738 73.58712 33.915679 76.43018 38.598203 78.369745 
C 43.280728 80.30931 48.299772 81.30766 53.3681 81.30766 
C 58.436428 81.30766 63.455472 80.30931 68.137997 78.369745 
C 72.820521 76.43018 77.075462 73.58712 80.65931 70.003271 
C 84.243159 66.419422 87.08622 62.164481 89.025785 57.481957 
C 90.96535 52.799433 91.9637 47.780388 91.9637 42.71206 
M 53.3681 42.71206 
C 53.3681 42.71206 53.3681 42.71206 53.3681 42.71206 
C 53.3681 42.71206 53.3681 42.71206 53.3681 42.71206 
C 53.3681 42.71206 53.3681 42.71206 53.3681 42.71206 
C 53.3681 42.71206 53.3681 42.71206 53.3681 42.71206 
C 53.3681 42.71206 53.3681 42.71206 53.3681 42.71206 
C 53.3681 42.71206 53.3681 42.71206 53.3681 42.71206 
C 53.3681 42.71206 53.3681 42.71206 53.3681 42.71206 
C 53.3681 42.71206 53.3681 42.71206 53.3681 42.71206 
C 53.3681 42.71206 53.3681 42.71206 53.3681 42.71206 
C 53.3681 42.71206 53.3681 42.71206 53.3681 42.71206 
C 53.3681 42.71206 53.3681 42.71206 53.3681 42.71206 
C 53.3681 42.71206 53.3681 42.71206 53.3681 42.71206 
C 53.3681 42.71206 53.3681 42.71206 53.3681 42.71206 
C 53.3681 42.71206 53.3681 42.71206 53.3681 42.71206 
C 53.3681 42.71206 53.3681 42.71206 53.3681 42.71206 
C 53.3681 42.71206 53.3681 42.71206 53.3681 42.71206 
M 91.9637 42.71206 
z
" style="fill:none;"/>
   </g>
   <g id="matplotlib.axis_1">
    <g id="xtick_1">
     <g id="line2d_1">
      <path clip-path="url(#p212b03e655)" d="M 53.3681 42.71206 
L 91.9637 42.71206 
" style="fill:none;stroke:#b0b0b0;stroke-linecap:square;stroke-width:0.8;"/>
     </g>
     <g id="text_1">
      <!-- 0° -->
      <defs>
       <path d="M 4.15625 35.296875 
Q 4.15625 48 6.765625 55.734375 
Q 9.375 63.484375 14.515625 67.671875 
Q 19.671875 71.875 27.484375 71.875 
Q 33.25 71.875 37.59375 69.546875 
Q 41.9375 67.234375 44.765625 62.859375 
Q 47.609375 58.5 49.21875 52.21875 
Q 50.828125 45.953125 50.828125 35.296875 
Q 50.828125 22.703125 48.234375 14.96875 
Q 45.65625 7.234375 40.5 3 
Q 35.359375 -1.21875 27.484375 -1.21875 
Q 17.140625 -1.21875 11.234375 6.203125 
Q 4.15625 15.140625 4.15625 35.296875 
z
M 13.1875 35.296875 
Q 13.1875 17.671875 17.3125 11.828125 
Q 21.4375 6 27.484375 6 
Q 33.546875 6 37.671875 11.859375 
Q 41.796875 17.71875 41.796875 35.296875 
Q 41.796875 52.984375 37.671875 58.78125 
Q 33.546875 64.59375 27.390625 64.59375 
Q 21.34375 64.59375 17.71875 59.46875 
Q 13.1875 52.9375 13.1875 35.296875 
z
" id="ArialMT-48"/>
       <path d="M 6.25 59.28125 
Q 6.25 64.890625 10.21875 68.84375 
Q 14.203125 72.796875 19.78125 72.796875 
Q 25.4375 72.796875 29.390625 68.84375 
Q 33.34375 64.890625 33.34375 59.28125 
Q 33.34375 53.65625 29.359375 49.671875 
Q 25.390625 45.703125 19.78125 45.703125 
Q 14.203125 45.703125 10.21875 49.65625 
Q 6.25 53.609375 6.25 59.28125 
z
M 11.578125 59.28125 
Q 11.578125 55.859375 13.984375 53.4375 
Q 16.40625 51.03125 19.828125 51.03125 
Q 23.1875 51.03125 25.609375 53.4375 
Q 28.03125 55.859375 28.03125 59.28125 
Q 28.03125 62.703125 25.609375 65.109375 
Q 23.1875 67.53125 19.828125 67.53125 
Q 16.40625 67.53125 13.984375 65.109375 
Q 11.578125 62.703125 11.578125 59.28125 
z
" id="ArialMT-176"/>
      </defs>
      <g transform="translate(94.63995 44.780185)scale(0.08 -0.08)">
       <use xlink:href="#ArialMT-48"/>
       <use x="55.615234" xlink:href="#ArialMT-176"/>
      </g>
     </g>
    </g>
    <g id="xtick_2">
     <g id="line2d_2">
      <path clip-path="url(#p212b03e655)" d="M 53.3681 42.71206 
L 72.6659 9.28729 
" style="fill:none;stroke:#b0b0b0;stroke-linecap:square;stroke-width:0.8;"/>
     </g>
     <g id="text_2">
      <!-- 60° -->
      <defs>
       <path d="M 49.75 54.046875 
L 41.015625 53.375 
Q 39.84375 58.546875 37.703125 60.890625 
Q 34.125 64.65625 28.90625 64.65625 
Q 24.703125 64.65625 21.53125 62.3125 
Q 17.390625 59.28125 14.984375 53.46875 
Q 12.59375 47.65625 12.5 36.921875 
Q 15.671875 41.75 20.265625 44.09375 
Q 24.859375 46.4375 29.890625 46.4375 
Q 38.671875 46.4375 44.84375 39.96875 
Q 51.03125 33.5 51.03125 23.25 
Q 51.03125 16.5 48.125 10.71875 
Q 45.21875 4.9375 40.140625 1.859375 
Q 35.0625 -1.21875 28.609375 -1.21875 
Q 17.625 -1.21875 10.6875 6.859375 
Q 3.765625 14.9375 3.765625 33.5 
Q 3.765625 54.25 11.421875 63.671875 
Q 18.109375 71.875 29.4375 71.875 
Q 37.890625 71.875 43.28125 67.140625 
Q 48.6875 62.40625 49.75 54.046875 
z
M 13.875 23.1875 
Q 13.875 18.65625 15.796875 14.5 
Q 17.71875 10.359375 21.1875 8.171875 
Q 24.65625 6 28.46875 6 
Q 34.03125 6 38.03125 10.484375 
Q 42.046875 14.984375 42.046875 22.703125 
Q 42.046875 30.125 38.078125 34.390625 
Q 34.125 38.671875 28.125 38.671875 
Q 22.171875 38.671875 18.015625 34.390625 
Q 13.875 30.125 13.875 23.1875 
z
" id="ArialMT-54"/>
      </defs>
      <g transform="translate(69.867775 5.72625)scale(0.08 -0.08)">
       <use xlink:href="#ArialMT-54"/>
       <use x="55.615234" xlink:href="#ArialMT-48"/>
       <use x="111.230469" xlink:href="#ArialMT-176"/>
      </g>
     </g>
    </g>
    <g id="xtick_3">
     <g id="line2d_3">
      <path clip-path="url(#p212b03e655)" d="M 53.3681 42.71206 
L 34.0703 9.28729 
" style="fill:none;stroke:#b0b0b0;stroke-linecap:square;stroke-width:0.8;"/>
     </g>
     <g id="text_3">
      <!-- 120° -->
      <defs>
       <path d="M 37.25 0 
L 28.46875 0 
L 28.46875 56 
Q 25.296875 52.984375 20.140625 49.953125 
Q 14.984375 46.921875 10.890625 45.40625 
L 10.890625 53.90625 
Q 18.265625 57.375 23.78125 62.296875 
Q 29.296875 67.234375 31.59375 71.875 
L 37.25 71.875 
z
" id="ArialMT-49"/>
       <path d="M 50.34375 8.453125 
L 50.34375 0 
L 3.03125 0 
Q 2.9375 3.171875 4.046875 6.109375 
Q 5.859375 10.9375 9.828125 15.625 
Q 13.8125 20.3125 21.34375 26.46875 
Q 33.015625 36.03125 37.109375 41.625 
Q 41.21875 47.21875 41.21875 52.203125 
Q 41.21875 57.421875 37.46875 61 
Q 33.734375 64.59375 27.734375 64.59375 
Q 21.390625 64.59375 17.578125 60.78125 
Q 13.765625 56.984375 13.71875 50.25 
L 4.6875 51.171875 
Q 5.609375 61.28125 11.65625 66.578125 
Q 17.71875 71.875 27.9375 71.875 
Q 38.234375 71.875 44.234375 66.15625 
Q 50.25 60.453125 50.25 52 
Q 50.25 47.703125 48.484375 43.546875 
Q 46.734375 39.40625 42.65625 34.8125 
Q 38.578125 30.21875 29.109375 22.21875 
Q 21.1875 15.578125 18.9375 13.203125 
Q 16.703125 10.84375 15.234375 8.453125 
z
" id="ArialMT-50"/>
      </defs>
      <g transform="translate(22.5478 5.72625)scale(0.08 -0.08)">
       <use xlink:href="#ArialMT-49"/>
       <use x="55.615234" xlink:href="#ArialMT-50"/>
       <use x="111.230469" xlink:href="#ArialMT-48"/>
       <use x="166.845703" xlink:href="#ArialMT-176"/>
      </g>
     </g>
    </g>
    <g id="xtick_4">
     <g id="line2d_4">
      <path clip-path="url(#p212b03e655)" d="M 53.3681 42.71206 
L 14.7725 42.71206 
" style="fill:none;stroke:#b0b0b0;stroke-linecap:square;stroke-width:0.8;"/>
     </g>
     <g id="text_4">
      <!-- 180° -->
      <defs>
       <path d="M 17.671875 38.8125 
Q 12.203125 40.828125 9.5625 44.53125 
Q 6.9375 48.25 6.9375 53.421875 
Q 6.9375 61.234375 12.546875 66.546875 
Q 18.171875 71.875 27.484375 71.875 
Q 36.859375 71.875 42.578125 66.421875 
Q 48.296875 60.984375 48.296875 53.171875 
Q 48.296875 48.1875 45.671875 44.5 
Q 43.0625 40.828125 37.75 38.8125 
Q 44.34375 36.671875 47.78125 31.875 
Q 51.21875 27.09375 51.21875 20.453125 
Q 51.21875 11.28125 44.71875 5.03125 
Q 38.234375 -1.21875 27.640625 -1.21875 
Q 17.046875 -1.21875 10.546875 5.046875 
Q 4.046875 11.328125 4.046875 20.703125 
Q 4.046875 27.6875 7.59375 32.390625 
Q 11.140625 37.109375 17.671875 38.8125 
z
M 15.921875 53.71875 
Q 15.921875 48.640625 19.1875 45.40625 
Q 22.46875 42.1875 27.6875 42.1875 
Q 32.765625 42.1875 36.015625 45.375 
Q 39.265625 48.578125 39.265625 53.21875 
Q 39.265625 58.0625 35.90625 61.359375 
Q 32.5625 64.65625 27.59375 64.65625 
Q 22.5625 64.65625 19.234375 61.421875 
Q 15.921875 58.203125 15.921875 53.71875 
z
M 13.09375 20.65625 
Q 13.09375 16.890625 14.875 13.375 
Q 16.65625 9.859375 20.171875 7.921875 
Q 23.6875 6 27.734375 6 
Q 34.03125 6 38.125 10.046875 
Q 42.234375 14.109375 42.234375 20.359375 
Q 42.234375 26.703125 38.015625 30.859375 
Q 33.796875 35.015625 27.4375 35.015625 
Q 21.234375 35.015625 17.15625 30.90625 
Q 13.09375 26.8125 13.09375 20.65625 
z
" id="ArialMT-56"/>
      </defs>
      <g transform="translate(0 44.780185)scale(0.08 -0.08)">
       <use xlink:href="#ArialMT-49"/>
       <use x="55.615234" xlink:href="#ArialMT-56"/>
       <use x="111.230469" xlink:href="#ArialMT-48"/>
       <use x="166.845703" xlink:href="#ArialMT-176"/>
      </g>
     </g>
    </g>
    <g id="xtick_5">
     <g id="line2d_5">
      <path clip-path="url(#p212b03e655)" d="M 53.3681 42.71206 
L 34.0703 76.13683 
" style="fill:none;stroke:#b0b0b0;stroke-linecap:square;stroke-width:0.8;"/>
     </g>
     <g id="text_5">
      <!-- 240° -->
      <defs>
       <path d="M 32.328125 0 
L 32.328125 17.140625 
L 1.265625 17.140625 
L 1.265625 25.203125 
L 33.9375 71.578125 
L 41.109375 71.578125 
L 41.109375 25.203125 
L 50.78125 25.203125 
L 50.78125 17.140625 
L 41.109375 17.140625 
L 41.109375 0 
z
M 32.328125 25.203125 
L 32.328125 57.46875 
L 9.90625 25.203125 
z
" id="ArialMT-52"/>
      </defs>
      <g transform="translate(22.5478 83.83412)scale(0.08 -0.08)">
       <use xlink:href="#ArialMT-50"/>
       <use x="55.615234" xlink:href="#ArialMT-52"/>
       <use x="111.230469" xlink:href="#ArialMT-48"/>
       <use x="166.845703" xlink:href="#ArialMT-176"/>
      </g>
     </g>
    </g>
    <g id="xtick_6">
     <g id="line2d_6">
      <path clip-path="url(#p212b03e655)" d="M 53.3681 42.71206 
L 72.6659 76.13683 
" style="fill:none;stroke:#b0b0b0;stroke-linecap:square;stroke-width:0.8;"/>
     </g>
     <g id="text_6">
      <!-- 300° -->
      <defs>
       <path d="M 4.203125 18.890625 
L 12.984375 20.0625 
Q 14.5 12.59375 18.140625 9.296875 
Q 21.78125 6 27 6 
Q 33.203125 6 37.46875 10.296875 
Q 41.75 14.59375 41.75 20.953125 
Q 41.75 27 37.796875 30.921875 
Q 33.84375 34.859375 27.734375 34.859375 
Q 25.25 34.859375 21.53125 33.890625 
L 22.515625 41.609375 
Q 23.390625 41.5 23.921875 41.5 
Q 29.546875 41.5 34.03125 44.421875 
Q 38.53125 47.359375 38.53125 53.46875 
Q 38.53125 58.296875 35.25 61.46875 
Q 31.984375 64.65625 26.8125 64.65625 
Q 21.6875 64.65625 18.265625 61.421875 
Q 14.84375 58.203125 13.875 51.765625 
L 5.078125 53.328125 
Q 6.6875 62.15625 12.390625 67.015625 
Q 18.109375 71.875 26.609375 71.875 
Q 32.46875 71.875 37.390625 69.359375 
Q 42.328125 66.84375 44.9375 62.5 
Q 47.5625 58.15625 47.5625 53.265625 
Q 47.5625 48.640625 45.0625 44.828125 
Q 42.578125 41.015625 37.703125 38.765625 
Q 44.046875 37.3125 47.5625 32.6875 
Q 51.078125 28.078125 51.078125 21.140625 
Q 51.078125 11.765625 44.234375 5.25 
Q 37.40625 -1.265625 26.953125 -1.265625 
Q 17.53125 -1.265625 11.296875 4.34375 
Q 5.078125 9.96875 4.203125 18.890625 
z
" id="ArialMT-51"/>
      </defs>
      <g transform="translate(67.6434 83.83412)scale(0.08 -0.08)">
       <use xlink:href="#ArialMT-51"/>
       <use x="55.615234" xlink:href="#ArialMT-48"/>
       <use x="111.230469" xlink:href="#ArialMT-48"/>
       <use x="166.845703" xlink:href="#ArialMT-176"/>
      </g>
     </g>
    </g>
   </g>
   <g id="matplotlib.axis_2">
    <g id="ytick_1">
     <g id="line2d_7">
      <path clip-path="url(#p212b03e655)" d="M 72.394798 42.71206 
L 72.290568 40.723229 
L 71.979019 38.756187 
L 71.463565 36.832487 
L 70.749854 34.973205 
L 69.845704 33.198711 
L 68.761022 31.528448 
L 67.507692 29.980714 
L 66.099446 28.572468 
L 64.551713 27.319138 
L 62.881449 26.234456 
L 61.106955 25.330307 
L 59.247673 24.616595 
L 57.323973 24.101141 
L 55.356932 23.789592 
L 53.3681 23.685362 
L 51.379268 23.789592 
L 49.412227 24.101141 
L 47.488527 24.616595 
L 45.629245 25.330307 
L 43.854751 26.234456 
L 42.184487 27.319138 
L 40.636754 28.572468 
L 39.228508 29.980714 
L 37.975178 31.528448 
L 36.890496 33.198711 
L 35.986346 34.973205 
L 35.272635 36.832487 
L 34.757181 38.756187 
L 34.445632 40.723229 
L 34.341402 42.71206 
L 34.445632 44.700892 
L 34.757181 46.667933 
L 35.272635 48.591633 
L 35.986346 50.450916 
L 36.890496 52.225409 
L 37.975178 53.895673 
L 39.228508 55.443406 
L 40.636754 56.851652 
L 42.184487 58.104982 
L 43.854751 59.189664 
L 45.629245 60.093814 
L 47.488527 60.807525 
L 49.412227 61.322979 
L 51.379268 61.634528 
L 53.3681 61.738758 
L 55.356932 61.634528 
L 57.323973 61.322979 
L 59.247673 60.807525 
L 61.106955 60.093814 
L 62.881449 59.189664 
L 64.551713 58.104982 
L 66.099446 56.851652 
L 67.507692 55.443406 
L 68.761022 53.895673 
L 69.845704 52.225409 
L 70.749854 50.450916 
L 71.463565 48.591633 
L 71.979019 46.667933 
L 72.290568 44.700892 
L 72.394798 42.71206 
L 72.394798 42.71206 
" style="fill:none;stroke:#b0b0b0;stroke-linecap:square;stroke-width:0.8;"/>
     </g>
    </g>
    <g id="ytick_2">
     <g id="line2d_8">
      <path clip-path="url(#p212b03e655)" d="M 90.209355 42.71206 
L 90.119611 40.142144 
L 89.850818 37.584749 
L 89.404285 35.052333 
L 88.782187 32.557234 
L 87.987555 30.111609 
L 87.024261 27.727372 
L 85.896997 25.416139 
L 84.611256 23.18917 
L 83.173301 21.057314 
L 81.590138 19.030958 
L 79.869481 17.119974 
L 78.019711 15.333673 
L 76.049841 13.680755 
L 73.969468 12.169276 
L 71.788727 10.806598 
L 69.518243 9.59936 
L 67.169077 8.553444 
L 64.752674 7.673945 
L 62.280806 6.965148 
L 59.765517 6.430507 
L 57.21906 6.072626 
L 54.653841 5.893248 
L 52.082359 5.893248 
L 49.51714 6.072626 
L 46.970683 6.430507 
L 44.455394 6.965148 
L 41.983526 7.673945 
L 39.567123 8.553444 
L 37.217957 9.59936 
L 34.947473 10.806598 
L 32.766732 12.169276 
L 30.686359 13.680755 
L 28.716489 15.333673 
L 26.866719 17.119974 
L 25.146062 19.030958 
L 23.562899 21.057314 
L 22.124944 23.18917 
L 20.839203 25.416139 
L 19.711939 27.727372 
L 18.748645 30.111609 
L 17.954013 32.557234 
L 17.331915 35.052333 
L 16.885382 37.584749 
L 16.616589 40.142144 
L 16.526845 42.71206 
L 16.616589 45.281976 
L 16.885382 47.839372 
L 17.331915 50.371788 
L 17.954013 52.866886 
L 18.748645 55.312511 
L 19.711939 57.696748 
L 20.839203 60.007982 
L 22.124944 62.234951 
L 23.562899 64.366806 
L 25.146062 66.393162 
L 26.866719 68.304146 
L 28.716489 70.090448 
L 30.686359 71.743365 
L 32.766732 73.254844 
L 34.947473 74.617523 
L 37.217957 75.82476 
L 39.567123 76.870677 
L 41.983526 77.750175 
L 44.455394 78.458972 
L 46.970683 78.993613 
L 49.51714 79.351494 
L 52.082359 79.530872 
L 54.653841 79.530872 
L 57.21906 79.351494 
L 59.765517 78.993613 
L 62.280806 78.458972 
L 64.752674 77.750175 
L 67.169077 76.870677 
L 69.518243 75.82476 
L 71.788727 74.617523 
L 73.969468 73.254844 
L 76.049841 71.743365 
L 78.019711 70.090448 
L 79.869481 68.304146 
L 81.590138 66.393162 
L 83.173301 64.366806 
L 84.611256 62.234951 
L 85.896997 60.007982 
L 87.024261 57.696748 
L 87.987555 55.312511 
L 88.782187 52.866886 
L 89.404285 50.371788 
L 89.850818 47.839372 
L 90.119611 45.281976 
L 90.209355 42.71206 
L 90.209355 42.71206 
" style="fill:none;stroke:#b0b0b0;stroke-linecap:square;stroke-width:0.8;"/>
     </g>
    </g>
   </g>
   <g id="line2d_9">
    <path clip-path="url(#p212b03e655)" d="M 76.949951 42.300444 
L 76.411607 40.696025 
L 74.122767 39.424836 
L 69.95612 38.882463 
L 65.241635 39.081904 
L 60.67128 39.908625 
L 56.955372 41.039298 
L 55.063183 41.77245 
L 55.061881 41.612103 
L 56.87526 40.069235 
L 59.860391 37.068455 
L 63.543043 32.53708 
L 66.359159 27.767597 
L 68.55332 22.560781 
L 69.49634 17.876622 
L 68.896508 14.694823 
L 66.434922 14.687537 
L 63.083088 17.401925 
L 59.859642 21.47845 
L 56.988212 27.031886 
L 54.973367 32.5779 
L 53.826289 37.476739 
L 53.409252 40.360289 
L 53.24922 40.445598 
L 52.782113 37.940791 
L 51.447861 32.834206 
L 48.977759 26.327366 
L 45.496267 19.849937 
L 41.274911 14.220546 
L 37.329299 11.2314 
L 34.394979 11.132023 
L 32.885566 13.462362 
L 33.354805 17.998976 
L 35.979486 24.065507 
L 40.232768 30.463138 
L 44.866254 35.8272 
L 48.937186 39.60932 
L 51.388108 41.522251 
L 51.665817 41.844803 
L 49.375493 41.017455 
L 45.299398 39.933963 
L 39.911053 39.106352 
L 34.877763 39.117779 
L 30.798751 39.940443 
L 28.436287 41.40462 
L 27.681581 43.159239 
L 28.521257 44.886901 
L 31.722857 46.140945 
L 36.263922 46.661133 
L 41.12862 46.454063 
L 45.730261 45.643849 
L 49.675681 44.433751 
L 51.563503 43.712275 
L 51.565398 43.882873 
L 49.967172 45.275033 
L 47.252949 48.02812 
L 44.350111 51.730215 
L 42.093421 55.68199 
L 41.031492 59.082708 
L 41.037174 61.69876 
L 42.368594 62.55366 
L 44.594735 61.528731 
L 47.048514 59.17663 
L 49.237687 56.222853 
L 51.015063 52.904361 
L 52.290092 49.517924 
L 53.026642 46.613931 
L 53.331973 44.777524 
L 53.470836 44.674215 
L 53.82354 46.420161 
L 54.693412 49.529296 
L 56.284718 53.596522 
L 58.375103 57.253525 
L 60.902675 60.463132 
L 63.342705 62.289673 
L 65.474303 62.862039 
L 66.202373 61.039516 
L 66.724178 59.204344 
L 65.355558 55.566534 
L 62.847115 51.551273 
L 59.735739 47.868545 
L 56.905326 45.188958 
L 55.146357 43.780625 
L 54.931196 43.508589 
L 56.740948 44.143588 
L 59.960938 44.981955 
L 64.092606 45.585521 
L 68.518398 45.656965 
L 72.508626 45.062459 
L 75.381276 43.866283 
" style="fill:none;stroke:#377eb8;stroke-linecap:square;"/>
    <defs>
     <path d="M 0 0.75 
C 0.198902 0.75 0.389685 0.670975 0.53033 0.53033 
C 0.670975 0.389685 0.75 0.198902 0.75 0 
C 0.75 -0.198902 0.670975 -0.389685 0.53033 -0.53033 
C 0.389685 -0.670975 0.198902 -0.75 0 -0.75 
C -0.198902 -0.75 -0.389685 -0.670975 -0.53033 -0.53033 
C -0.670975 -0.389685 -0.75 -0.198902 -0.75 0 
C -0.75 0.198902 -0.670975 0.389685 -0.53033 0.53033 
C -0.389685 0.670975 -0.198902 0.75 0 0.75 
z
" id="m63dc536c74" style="stroke:#377eb8;"/>
    </defs>
    <g clip-path="url(#p212b03e655)">
     <use style="fill:#377eb8;stroke:#377eb8;" x="76.949951" xlink:href="#m63dc536c74" y="42.300444"/>
     <use style="fill:#377eb8;stroke:#377eb8;" x="76.411607" xlink:href="#m63dc536c74" y="40.696025"/>
     <use style="fill:#377eb8;stroke:#377eb8;" x="74.122767" xlink:href="#m63dc536c74" y="39.424836"/>
     <use style="fill:#377eb8;stroke:#377eb8;" x="69.95612" xlink:href="#m63dc536c74" y="38.882463"/>
     <use style="fill:#377eb8;stroke:#377eb8;" x="65.241635" xlink:href="#m63dc536c74" y="39.081904"/>
     <use style="fill:#377eb8;stroke:#377eb8;" x="60.67128" xlink:href="#m63dc536c74" y="39.908625"/>
     <use style="fill:#377eb8;stroke:#377eb8;" x="56.955372" xlink:href="#m63dc536c74" y="41.039298"/>
     <use style="fill:#377eb8;stroke:#377eb8;" x="55.063183" xlink:href="#m63dc536c74" y="41.77245"/>
     <use style="fill:#377eb8;stroke:#377eb8;" x="55.061881" xlink:href="#m63dc536c74" y="41.612103"/>
     <use style="fill:#377eb8;stroke:#377eb8;" x="56.87526" xlink:href="#m63dc536c74" y="40.069235"/>
     <use style="fill:#377eb8;stroke:#377eb8;" x="59.860391" xlink:href="#m63dc536c74" y="37.068455"/>
     <use style="fill:#377eb8;stroke:#377eb8;" x="63.543043" xlink:href="#m63dc536c74" y="32.53708"/>
     <use style="fill:#377eb8;stroke:#377eb8;" x="66.359159" xlink:href="#m63dc536c74" y="27.767597"/>
     <use style="fill:#377eb8;stroke:#377eb8;" x="68.55332" xlink:href="#m63dc536c74" y="22.560781"/>
     <use style="fill:#377eb8;stroke:#377eb8;" x="69.49634" xlink:href="#m63dc536c74" y="17.876622"/>
     <use style="fill:#377eb8;stroke:#377eb8;" x="68.896508" xlink:href="#m63dc536c74" y="14.694823"/>
     <use style="fill:#377eb8;stroke:#377eb8;" x="66.434922" xlink:href="#m63dc536c74" y="14.687537"/>
     <use style="fill:#377eb8;stroke:#377eb8;" x="63.083088" xlink:href="#m63dc536c74" y="17.401925"/>
     <use style="fill:#377eb8;stroke:#377eb8;" x="59.859642" xlink:href="#m63dc536c74" y="21.47845"/>
     <use style="fill:#377eb8;stroke:#377eb8;" x="56.988212" xlink:href="#m63dc536c74" y="27.031886"/>
     <use style="fill:#377eb8;stroke:#377eb8;" x="54.973367" xlink:href="#m63dc536c74" y="32.5779"/>
     <use style="fill:#377eb8;stroke:#377eb8;" x="53.826289" xlink:href="#m63dc536c74" y="37.476739"/>
     <use style="fill:#377eb8;stroke:#377eb8;" x="53.409252" xlink:href="#m63dc536c74" y="40.360289"/>
     <use style="fill:#377eb8;stroke:#377eb8;" x="53.24922" xlink:href="#m63dc536c74" y="40.445598"/>
     <use style="fill:#377eb8;stroke:#377eb8;" x="52.782113" xlink:href="#m63dc536c74" y="37.940791"/>
     <use style="fill:#377eb8;stroke:#377eb8;" x="51.447861" xlink:href="#m63dc536c74" y="32.834206"/>
     <use style="fill:#377eb8;stroke:#377eb8;" x="48.977759" xlink:href="#m63dc536c74" y="26.327366"/>
     <use style="fill:#377eb8;stroke:#377eb8;" x="45.496267" xlink:href="#m63dc536c74" y="19.849937"/>
     <use style="fill:#377eb8;stroke:#377eb8;" x="41.274911" xlink:href="#m63dc536c74" y="14.220546"/>
     <use style="fill:#377eb8;stroke:#377eb8;" x="37.329299" xlink:href="#m63dc536c74" y="11.2314"/>
     <use style="fill:#377eb8;stroke:#377eb8;" x="34.394979" xlink:href="#m63dc536c74" y="11.132023"/>
     <use style="fill:#377eb8;stroke:#377eb8;" x="32.885566" xlink:href="#m63dc536c74" y="13.462362"/>
     <use style="fill:#377eb8;stroke:#377eb8;" x="33.354805" xlink:href="#m63dc536c74" y="17.998976"/>
     <use style="fill:#377eb8;stroke:#377eb8;" x="35.979486" xlink:href="#m63dc536c74" y="24.065507"/>
     <use style="fill:#377eb8;stroke:#377eb8;" x="40.232768" xlink:href="#m63dc536c74" y="30.463138"/>
     <use style="fill:#377eb8;stroke:#377eb8;" x="44.866254" xlink:href="#m63dc536c74" y="35.8272"/>
     <use style="fill:#377eb8;stroke:#377eb8;" x="48.937186" xlink:href="#m63dc536c74" y="39.60932"/>
     <use style="fill:#377eb8;stroke:#377eb8;" x="51.388108" xlink:href="#m63dc536c74" y="41.522251"/>
     <use style="fill:#377eb8;stroke:#377eb8;" x="51.665817" xlink:href="#m63dc536c74" y="41.844803"/>
     <use style="fill:#377eb8;stroke:#377eb8;" x="49.375493" xlink:href="#m63dc536c74" y="41.017455"/>
     <use style="fill:#377eb8;stroke:#377eb8;" x="45.299398" xlink:href="#m63dc536c74" y="39.933963"/>
     <use style="fill:#377eb8;stroke:#377eb8;" x="39.911053" xlink:href="#m63dc536c74" y="39.106352"/>
     <use style="fill:#377eb8;stroke:#377eb8;" x="34.877763" xlink:href="#m63dc536c74" y="39.117779"/>
     <use style="fill:#377eb8;stroke:#377eb8;" x="30.798751" xlink:href="#m63dc536c74" y="39.940443"/>
     <use style="fill:#377eb8;stroke:#377eb8;" x="28.436287" xlink:href="#m63dc536c74" y="41.40462"/>
     <use style="fill:#377eb8;stroke:#377eb8;" x="27.681581" xlink:href="#m63dc536c74" y="43.159239"/>
     <use style="fill:#377eb8;stroke:#377eb8;" x="28.521257" xlink:href="#m63dc536c74" y="44.886901"/>
     <use style="fill:#377eb8;stroke:#377eb8;" x="31.722857" xlink:href="#m63dc536c74" y="46.140945"/>
     <use style="fill:#377eb8;stroke:#377eb8;" x="36.263922" xlink:href="#m63dc536c74" y="46.661133"/>
     <use style="fill:#377eb8;stroke:#377eb8;" x="41.12862" xlink:href="#m63dc536c74" y="46.454063"/>
     <use style="fill:#377eb8;stroke:#377eb8;" x="45.730261" xlink:href="#m63dc536c74" y="45.643849"/>
     <use style="fill:#377eb8;stroke:#377eb8;" x="49.675681" xlink:href="#m63dc536c74" y="44.433751"/>
     <use style="fill:#377eb8;stroke:#377eb8;" x="51.563503" xlink:href="#m63dc536c74" y="43.712275"/>
     <use style="fill:#377eb8;stroke:#377eb8;" x="51.565398" xlink:href="#m63dc536c74" y="43.882873"/>
     <use style="fill:#377eb8;stroke:#377eb8;" x="49.967172" xlink:href="#m63dc536c74" y="45.275033"/>
     <use style="fill:#377eb8;stroke:#377eb8;" x="47.252949" xlink:href="#m63dc536c74" y="48.02812"/>
     <use style="fill:#377eb8;stroke:#377eb8;" x="44.350111" xlink:href="#m63dc536c74" y="51.730215"/>
     <use style="fill:#377eb8;stroke:#377eb8;" x="42.093421" xlink:href="#m63dc536c74" y="55.68199"/>
     <use style="fill:#377eb8;stroke:#377eb8;" x="41.031492" xlink:href="#m63dc536c74" y="59.082708"/>
     <use style="fill:#377eb8;stroke:#377eb8;" x="41.037174" xlink:href="#m63dc536c74" y="61.69876"/>
     <use style="fill:#377eb8;stroke:#377eb8;" x="42.368594" xlink:href="#m63dc536c74" y="62.55366"/>
     <use style="fill:#377eb8;stroke:#377eb8;" x="44.594735" xlink:href="#m63dc536c74" y="61.528731"/>
     <use style="fill:#377eb8;stroke:#377eb8;" x="47.048514" xlink:href="#m63dc536c74" y="59.17663"/>
     <use style="fill:#377eb8;stroke:#377eb8;" x="49.237687" xlink:href="#m63dc536c74" y="56.222853"/>
     <use style="fill:#377eb8;stroke:#377eb8;" x="51.015063" xlink:href="#m63dc536c74" y="52.904361"/>
     <use style="fill:#377eb8;stroke:#377eb8;" x="52.290092" xlink:href="#m63dc536c74" y="49.517924"/>
     <use style="fill:#377eb8;stroke:#377eb8;" x="53.026642" xlink:href="#m63dc536c74" y="46.613931"/>
     <use style="fill:#377eb8;stroke:#377eb8;" x="53.331973" xlink:href="#m63dc536c74" y="44.777524"/>
     <use style="fill:#377eb8;stroke:#377eb8;" x="53.470836" xlink:href="#m63dc536c74" y="44.674215"/>
     <use style="fill:#377eb8;stroke:#377eb8;" x="53.82354" xlink:href="#m63dc536c74" y="46.420161"/>
     <use style="fill:#377eb8;stroke:#377eb8;" x="54.693412" xlink:href="#m63dc536c74" y="49.529296"/>
     <use style="fill:#377eb8;stroke:#377eb8;" x="56.284718" xlink:href="#m63dc536c74" y="53.596522"/>
     <use style="fill:#377eb8;stroke:#377eb8;" x="58.375103" xlink:href="#m63dc536c74" y="57.253525"/>
     <use style="fill:#377eb8;stroke:#377eb8;" x="60.902675" xlink:href="#m63dc536c74" y="60.463132"/>
     <use style="fill:#377eb8;stroke:#377eb8;" x="63.342705" xlink:href="#m63dc536c74" y="62.289673"/>
     <use style="fill:#377eb8;stroke:#377eb8;" x="65.474303" xlink:href="#m63dc536c74" y="62.862039"/>
     <use style="fill:#377eb8;stroke:#377eb8;" x="66.202373" xlink:href="#m63dc536c74" y="61.039516"/>
     <use style="fill:#377eb8;stroke:#377eb8;" x="66.724178" xlink:href="#m63dc536c74" y="59.204344"/>
     <use style="fill:#377eb8;stroke:#377eb8;" x="65.355558" xlink:href="#m63dc536c74" y="55.566534"/>
     <use style="fill:#377eb8;stroke:#377eb8;" x="62.847115" xlink:href="#m63dc536c74" y="51.551273"/>
     <use style="fill:#377eb8;stroke:#377eb8;" x="59.735739" xlink:href="#m63dc536c74" y="47.868545"/>
     <use style="fill:#377eb8;stroke:#377eb8;" x="56.905326" xlink:href="#m63dc536c74" y="45.188958"/>
     <use style="fill:#377eb8;stroke:#377eb8;" x="55.146357" xlink:href="#m63dc536c74" y="43.780625"/>
     <use style="fill:#377eb8;stroke:#377eb8;" x="54.931196" xlink:href="#m63dc536c74" y="43.508589"/>
     <use style="fill:#377eb8;stroke:#377eb8;" x="56.740948" xlink:href="#m63dc536c74" y="44.143588"/>
     <use style="fill:#377eb8;stroke:#377eb8;" x="59.960938" xlink:href="#m63dc536c74" y="44.981955"/>
     <use style="fill:#377eb8;stroke:#377eb8;" x="64.092606" xlink:href="#m63dc536c74" y="45.585521"/>
     <use style="fill:#377eb8;stroke:#377eb8;" x="68.518398" xlink:href="#m63dc536c74" y="45.656965"/>
     <use style="fill:#377eb8;stroke:#377eb8;" x="72.508626" xlink:href="#m63dc536c74" y="45.062459"/>
     <use style="fill:#377eb8;stroke:#377eb8;" x="75.381276" xlink:href="#m63dc536c74" y="43.866283"/>
    </g>
   </g>
  </g>
 </g>
 <defs>
  <clipPath id="p212b03e655">
   <path d="M 91.9637 42.71206 
C 91.9637 37.643732 90.96535 32.624688 89.025785 27.942164 
C 87.08622 23.259639 84.243159 19.004699 80.65931 15.42085 
C 77.075462 11.837001 72.820521 8.99394 68.137997 7.054375 
C 63.455472 5.11481 58.436428 4.11646 53.3681 4.11646 
C 48.299772 4.11646 43.280728 5.11481 38.598203 7.054375 
C 33.915679 8.99394 29.660738 11.837001 26.07689 15.42085 
C 22.493041 19.004699 19.64998 23.259639 17.710415 27.942164 
C 15.77085 32.624688 14.7725 37.643732 14.7725 42.71206 
C 14.7725 47.780388 15.77085 52.799433 17.710415 57.481957 
C 19.64998 62.164481 22.493041 66.419422 26.07689 70.003271 
C 29.660738 73.58712 33.915679 76.43018 38.598203 78.369745 
C 43.280728 80.30931 48.299772 81.30766 53.3681 81.30766 
C 58.436428 81.30766 63.455472 80.30931 68.137997 78.369745 
C 72.820521 76.43018 77.075462 73.58712 80.65931 70.003271 
C 84.243159 66.419422 87.08622 62.164481 89.025785 57.481957 
C 90.96535 52.799433 91.9637 47.780388 91.9637 42.71206 
M 53.3681 42.71206 
C 53.3681 42.71206 53.3681 42.71206 53.3681 42.71206 
C 53.3681 42.71206 53.3681 42.71206 53.3681 42.71206 
C 53.3681 42.71206 53.3681 42.71206 53.3681 42.71206 
C 53.3681 42.71206 53.3681 42.71206 53.3681 42.71206 
C 53.3681 42.71206 53.3681 42.71206 53.3681 42.71206 
C 53.3681 42.71206 53.3681 42.71206 53.3681 42.71206 
C 53.3681 42.71206 53.3681 42.71206 53.3681 42.71206 
C 53.3681 42.71206 53.3681 42.71206 53.3681 42.71206 
C 53.3681 42.71206 53.3681 42.71206 53.3681 42.71206 
C 53.3681 42.71206 53.3681 42.71206 53.3681 42.71206 
C 53.3681 42.71206 53.3681 42.71206 53.3681 42.71206 
C 53.3681 42.71206 53.3681 42.71206 53.3681 42.71206 
C 53.3681 42.71206 53.3681 42.71206 53.3681 42.71206 
C 53.3681 42.71206 53.3681 42.71206 53.3681 42.71206 
C 53.3681 42.71206 53.3681 42.71206 53.3681 42.71206 
C 53.3681 42.71206 53.3681 42.71206 53.3681 42.71206 
M 91.9637 42.71206 
z
"/>
  </clipPath>
 </defs>
</svg>
