<?xml version="1.0" encoding="UTF-8" standalone="no"?>
<svg
   height="126.88443pt"
   version="1.1"
   viewBox="0 0 119.65497 126.88443"
   width="119.65497pt"
   id="svg512"
   sodipodi:docname="01-center_Raman_MBE2-200307B-MH_19_37_16_2020_05_13_488 nm ULF_1800 (500nm)_25%_01.svg"
   inkscape:version="1.1 (c68e22c387, 2021-05-23)"
   xmlns:inkscape="http://www.inkscape.org/namespaces/inkscape"
   xmlns:sodipodi="http://sodipodi.sourceforge.net/DTD/sodipodi-0.dtd"
   xmlns:xlink="http://www.w3.org/1999/xlink"
   xmlns="http://www.w3.org/2000/svg"
   xmlns:svg="http://www.w3.org/2000/svg"
   xmlns:rdf="http://www.w3.org/1999/02/22-rdf-syntax-ns#"
   xmlns:cc="http://creativecommons.org/ns#"
   xmlns:dc="http://purl.org/dc/elements/1.1/">
  <sodipodi:namedview
     id="namedview514"
     pagecolor="#ffffff"
     bordercolor="#666666"
     borderopacity="1.0"
     inkscape:pageshadow="2"
     inkscape:pageopacity="0.0"
     inkscape:pagecheckerboard="0"
     inkscape:document-units="pt"
     showgrid="false"
     inkscape:zoom="2.8284272"
     inkscape:cx="201.34865"
     inkscape:cy="117.5565"
     inkscape:window-width="1836"
     inkscape:window-height="1051"
     inkscape:window-x="1995"
     inkscape:window-y="-9"
     inkscape:window-maximized="1"
     inkscape:current-layer="svg512" />
  <metadata
     id="metadata2">
    <rdf:RDF>
      <cc:Work>
        <dc:type
           rdf:resource="http://purl.org/dc/dcmitype/StillImage" />
        <dc:date>2021-09-24T14:03:11.260655</dc:date>
        <dc:format>image/svg+xml</dc:format>
        <dc:creator>
          <cc:Agent>
            <dc:title>Matplotlib v3.4.3, https://matplotlib.org/</dc:title>
          </cc:Agent>
        </dc:creator>
      </cc:Work>
    </rdf:RDF>
  </metadata>
  <defs
     id="defs6">
    <style
       type="text/css"
       id="style4">*{stroke-linecap:butt;stroke-linejoin:round;}</style>
  </defs>
  <path
     style="fill:none;stroke:#999999;stroke-width:0.283465;stroke-linecap:butt;stroke-linejoin:miter;stroke-miterlimit:4;stroke-dasharray:1.70079, 0.283465;stroke-dashoffset:0;stroke-opacity:1"
     d="m 36.140717,81 v 22.284"
     id="path2239"
     sodipodi:nodetypes="cc" />
  <path
     style="fill:none;stroke:#999999;stroke-width:0.283465;stroke-linecap:butt;stroke-linejoin:miter;stroke-miterlimit:4;stroke-dasharray:1.70079, 0.283465;stroke-dashoffset:0;stroke-opacity:1"
     d="m 58.146037,81 v 22.284"
     id="path1468"
     sodipodi:nodetypes="cc" />
  <path
     style="fill:none;stroke:#999999;stroke-width:0.283465;stroke-linecap:butt;stroke-linejoin:miter;stroke-miterlimit:4;stroke-dasharray:1.70079, 0.283465;stroke-dashoffset:0;stroke-opacity:1"
     d="m 66.643697,67.5 v 35.784"
     id="path1470"
     sodipodi:nodetypes="cc" />
  <path
     style="fill:none;stroke:#999999;stroke-width:0.283465;stroke-linecap:butt;stroke-linejoin:miter;stroke-miterlimit:4;stroke-dasharray:1.70079, 0.283465;stroke-dashoffset:0;stroke-opacity:1"
     d="m 70.073757,81 v 22.284"
     id="path1472"
     sodipodi:nodetypes="cc" />
  <path
     style="fill:none;stroke:#999999;stroke-width:0.283465;stroke-linecap:butt;stroke-linejoin:miter;stroke-miterlimit:4;stroke-dasharray:1.70079, 0.283465;stroke-dashoffset:0;stroke-opacity:1"
     d="m 75.585737,87 v 16.284"
     id="path1474"
     sodipodi:nodetypes="cc" />
  <path
     style="fill:none;stroke:#999999;stroke-width:0.283465;stroke-linecap:butt;stroke-linejoin:miter;stroke-miterlimit:4;stroke-dasharray:1.70079, 0.283465;stroke-dashoffset:0;stroke-opacity:1"
     d="M 90.242387,0 V 103.284"
     id="path1476"
     sodipodi:nodetypes="cc" />
  <path
     style="fill:none;stroke:#999999;stroke-width:0.283465;stroke-linecap:butt;stroke-linejoin:miter;stroke-miterlimit:4;stroke-dasharray:1.70079, 0.283465;stroke-dashoffset:0;stroke-opacity:1"
     d="m 98.525257,60 v 43.284"
     id="path1480"
     sodipodi:nodetypes="cc" />
  <g
     id="axes_1"
     transform="translate(5.8714648e-4,0.25)">
    <g
       id="patch_2">
      <path
         d="M 13.384375,103.284 H 119.40438 V 0 H 13.384375 Z"
         style="fill:none"
         id="path11" />
    </g>
    <g
       id="matplotlib.axis_1">
      <g
         id="xtick_1">
        <g
           id="line2d_1">
          <defs
             id="defs15">
            <path
               d="M 0,0 V -3.5"
               id="mae8bc9b87f"
               style="stroke:#000000;stroke-width:0.5" />
          </defs>
          <g
             id="g19">
            <use
               style="stroke:#000000;stroke-width:0.5"
               x="31.054375"
               xlink:href="#mae8bc9b87f"
               y="103.284"
               id="use17"
               width="100%"
               height="100%" />
          </g>
        </g>
        <g
           id="line2d_2">
          <defs
             id="defs23">
            <path
               d="M 0,0 V 3.5"
               id="mf4113fb9c7"
               style="stroke:#000000;stroke-width:0.5" />
          </defs>
          <g
             id="g27">
            <use
               style="stroke:#000000;stroke-width:0.5"
               x="31.054375"
               xlink:href="#mf4113fb9c7"
               y="0"
               id="use25"
               width="100%"
               height="100%" />
          </g>
        </g>
        <g
           id="text_1">
          <text
             style="font-style:normal;font-weight:normal;font-stretch:normal;font-size:10px;font-family:Arial;text-anchor:middle"
             x="31.054375"
             y="111.44181"
             id="text30">100</text>
        </g>
      </g>
      <g
         id="xtick_2">
        <g
           id="line2d_3">
          <g
             id="g36">
            <use
               style="stroke:#000000;stroke-width:0.5"
               x="66.394379"
               xlink:href="#mae8bc9b87f"
               y="103.284"
               id="use34"
               width="100%"
               height="100%" />
          </g>
        </g>
        <g
           id="line2d_4">
          <g
             id="g41">
            <use
               style="stroke:#000000;stroke-width:0.5"
               x="66.394379"
               xlink:href="#mf4113fb9c7"
               y="0"
               id="use39"
               width="100%"
               height="100%" />
          </g>
        </g>
        <g
           id="text_2">
          <text
             style="font-style:normal;font-weight:normal;font-stretch:normal;font-size:10px;font-family:Arial;text-anchor:middle"
             x="66.394379"
             y="111.44181"
             id="text44">200</text>
        </g>
      </g>
      <g
         id="xtick_3">
        <g
           id="line2d_5">
          <g
             id="g50">
            <use
               style="stroke:#000000;stroke-width:0.5"
               x="101.73438"
               xlink:href="#mae8bc9b87f"
               y="103.284"
               id="use48"
               width="100%"
               height="100%" />
          </g>
        </g>
        <g
           id="line2d_6">
          <g
             id="g55">
            <use
               style="stroke:#000000;stroke-width:0.5"
               x="101.73438"
               xlink:href="#mf4113fb9c7"
               y="0"
               id="use53"
               width="100%"
               height="100%" />
          </g>
        </g>
        <g
           id="text_3">
          <text
             style="font-style:normal;font-weight:normal;font-stretch:normal;font-size:10px;font-family:Arial;text-anchor:middle"
             x="101.73438"
             y="111.44181"
             id="text58">300</text>
        </g>
      </g>
      <g
         id="xtick_4">
        <g
           id="line2d_7">
          <defs
             id="defs63">
            <path
               d="M 0,0 V -2"
               id="m85080e63b7"
               style="stroke:#000000;stroke-width:0.5" />
          </defs>
          <g
             id="g67">
            <use
               style="stroke:#000000;stroke-width:0.5"
               x="16.918375"
               xlink:href="#m85080e63b7"
               y="103.284"
               id="use65"
               width="100%"
               height="100%" />
          </g>
        </g>
        <g
           id="line2d_8">
          <defs
             id="defs71">
            <path
               d="M 0,0 V 2"
               id="m0b448e2668"
               style="stroke:#000000;stroke-width:0.5" />
          </defs>
          <g
             id="g75">
            <use
               style="stroke:#000000;stroke-width:0.5"
               x="16.918375"
               xlink:href="#m0b448e2668"
               y="0"
               id="use73"
               width="100%"
               height="100%" />
          </g>
        </g>
      </g>
      <g
         id="xtick_5">
        <g
           id="line2d_9">
          <g
             id="g81">
            <use
               style="stroke:#000000;stroke-width:0.5"
               x="23.986376"
               xlink:href="#m85080e63b7"
               y="103.284"
               id="use79"
               width="100%"
               height="100%" />
          </g>
        </g>
        <g
           id="line2d_10">
          <g
             id="g86">
            <use
               style="stroke:#000000;stroke-width:0.5"
               x="23.986376"
               xlink:href="#m0b448e2668"
               y="0"
               id="use84"
               width="100%"
               height="100%" />
          </g>
        </g>
      </g>
      <g
         id="xtick_6">
        <g
           id="line2d_11">
          <g
             id="g92">
            <use
               style="stroke:#000000;stroke-width:0.5"
               x="38.122375"
               xlink:href="#m85080e63b7"
               y="103.284"
               id="use90"
               width="100%"
               height="100%" />
          </g>
        </g>
        <g
           id="line2d_12">
          <g
             id="g97">
            <use
               style="stroke:#000000;stroke-width:0.5"
               x="38.122375"
               xlink:href="#m0b448e2668"
               y="0"
               id="use95"
               width="100%"
               height="100%" />
          </g>
        </g>
      </g>
      <g
         id="xtick_7">
        <g
           id="line2d_13">
          <g
             id="g103">
            <use
               style="stroke:#000000;stroke-width:0.5"
               x="45.190376"
               xlink:href="#m85080e63b7"
               y="103.284"
               id="use101"
               width="100%"
               height="100%" />
          </g>
        </g>
        <g
           id="line2d_14">
          <g
             id="g108">
            <use
               style="stroke:#000000;stroke-width:0.5"
               x="45.190376"
               xlink:href="#m0b448e2668"
               y="0"
               id="use106"
               width="100%"
               height="100%" />
          </g>
        </g>
      </g>
      <g
         id="xtick_8">
        <g
           id="line2d_15">
          <g
             id="g114">
            <use
               style="stroke:#000000;stroke-width:0.5"
               x="52.258373"
               xlink:href="#m85080e63b7"
               y="103.284"
               id="use112"
               width="100%"
               height="100%" />
          </g>
        </g>
        <g
           id="line2d_16">
          <g
             id="g119">
            <use
               style="stroke:#000000;stroke-width:0.5"
               x="52.258373"
               xlink:href="#m0b448e2668"
               y="0"
               id="use117"
               width="100%"
               height="100%" />
          </g>
        </g>
      </g>
      <g
         id="xtick_9">
        <g
           id="line2d_17">
          <g
             id="g125">
            <use
               style="stroke:#000000;stroke-width:0.5"
               x="59.326374"
               xlink:href="#m85080e63b7"
               y="103.284"
               id="use123"
               width="100%"
               height="100%" />
          </g>
        </g>
        <g
           id="line2d_18">
          <g
             id="g130">
            <use
               style="stroke:#000000;stroke-width:0.5"
               x="59.326374"
               xlink:href="#m0b448e2668"
               y="0"
               id="use128"
               width="100%"
               height="100%" />
          </g>
        </g>
      </g>
      <g
         id="xtick_10">
        <g
           id="line2d_19">
          <g
             id="g136">
            <use
               style="stroke:#000000;stroke-width:0.5"
               x="73.462372"
               xlink:href="#m85080e63b7"
               y="103.284"
               id="use134"
               width="100%"
               height="100%" />
          </g>
        </g>
        <g
           id="line2d_20">
          <g
             id="g141">
            <use
               style="stroke:#000000;stroke-width:0.5"
               x="73.462372"
               xlink:href="#m0b448e2668"
               y="0"
               id="use139"
               width="100%"
               height="100%" />
          </g>
        </g>
      </g>
      <g
         id="xtick_11">
        <g
           id="line2d_21">
          <g
             id="g147">
            <use
               style="stroke:#000000;stroke-width:0.5"
               x="80.530373"
               xlink:href="#m85080e63b7"
               y="103.284"
               id="use145"
               width="100%"
               height="100%" />
          </g>
        </g>
        <g
           id="line2d_22">
          <g
             id="g152">
            <use
               style="stroke:#000000;stroke-width:0.5"
               x="80.530373"
               xlink:href="#m0b448e2668"
               y="0"
               id="use150"
               width="100%"
               height="100%" />
          </g>
        </g>
      </g>
      <g
         id="xtick_12">
        <g
           id="line2d_23">
          <g
             id="g158">
            <use
               style="stroke:#000000;stroke-width:0.5"
               x="87.598373"
               xlink:href="#m85080e63b7"
               y="103.284"
               id="use156"
               width="100%"
               height="100%" />
          </g>
        </g>
        <g
           id="line2d_24">
          <g
             id="g163">
            <use
               style="stroke:#000000;stroke-width:0.5"
               x="87.598373"
               xlink:href="#m0b448e2668"
               y="0"
               id="use161"
               width="100%"
               height="100%" />
          </g>
        </g>
      </g>
      <g
         id="xtick_13">
        <g
           id="line2d_25">
          <g
             id="g169">
            <use
               style="stroke:#000000;stroke-width:0.5"
               x="94.666374"
               xlink:href="#m85080e63b7"
               y="103.284"
               id="use167"
               width="100%"
               height="100%" />
          </g>
        </g>
        <g
           id="line2d_26">
          <g
             id="g174">
            <use
               style="stroke:#000000;stroke-width:0.5"
               x="94.666374"
               xlink:href="#m0b448e2668"
               y="0"
               id="use172"
               width="100%"
               height="100%" />
          </g>
        </g>
      </g>
      <g
         id="xtick_14">
        <g
           id="line2d_27">
          <g
             id="g180">
            <use
               style="stroke:#000000;stroke-width:0.5"
               x="108.80238"
               xlink:href="#m85080e63b7"
               y="103.284"
               id="use178"
               width="100%"
               height="100%" />
          </g>
        </g>
        <g
           id="line2d_28">
          <g
             id="g185">
            <use
               style="stroke:#000000;stroke-width:0.5"
               x="108.80238"
               xlink:href="#m0b448e2668"
               y="0"
               id="use183"
               width="100%"
               height="100%" />
          </g>
        </g>
      </g>
      <g
         id="xtick_15">
        <g
           id="line2d_29">
          <g
             id="g191">
            <use
               style="stroke:#000000;stroke-width:0.5"
               x="115.87038"
               xlink:href="#m85080e63b7"
               y="103.284"
               id="use189"
               width="100%"
               height="100%" />
          </g>
        </g>
        <g
           id="line2d_30">
          <g
             id="g196">
            <use
               style="stroke:#000000;stroke-width:0.5"
               x="115.87038"
               xlink:href="#m0b448e2668"
               y="0"
               id="use194"
               width="100%"
               height="100%" />
          </g>
        </g>
      </g>
      <g
         id="text_4">
        <!-- Raman Shift ($cm^{-1}$) -->
        <g
           transform="translate(23.144375,125.52931)"
           id="g206">
          <text
             id="text204"><tspan
               style="font-size:10px;font-family:Arial"
               x="0 7.2216802 12.783203 21.113281 26.674805 32.236328 35.014648 41.68457 47.246094 49.467773 52.246094 55.024414 57.802734 61.132812 66.132812"
               y="-0.99937499"
               id="tspan200">Raman Shift (cm<tspan
   style="font-size:65%;baseline-shift:super"
   id="tspan2434">-1</tspan>)</tspan></text>
        </g>
      </g>
    </g>
    <g
       id="matplotlib.axis_2">
      <g
         id="ytick_1">
        <g
           id="line2d_31">
          <defs
             id="defs211">
            <path
               d="M 0,0 H 3.5"
               id="m48922cf944"
               style="stroke:#000000;stroke-width:0.5" />
          </defs>
          <g
             id="g215">
            <use
               style="stroke:#000000;stroke-width:0.5"
               x="13.384375"
               xlink:href="#m48922cf944"
               y="92.27903"
               id="use213"
               width="100%"
               height="100%" />
          </g>
        </g>
        <g
           id="line2d_32">
          <defs
             id="defs219">
            <path
               d="M 0,0 H -3.5"
               id="mdc503be24b"
               style="stroke:#000000;stroke-width:0.5" />
          </defs>
          <g
             id="g223">
            <use
               style="stroke:#000000;stroke-width:0.5"
               x="119.40437"
               xlink:href="#mdc503be24b"
               y="92.27903"
               id="use221"
               width="100%"
               height="100%" />
          </g>
        </g>
      </g>
      <g
         id="ytick_2">
        <g
           id="line2d_33">
          <g
             id="g229">
            <use
               style="stroke:#000000;stroke-width:0.5"
               x="13.384375"
               xlink:href="#m48922cf944"
               y="74.762169"
               id="use227"
               width="100%"
               height="100%" />
          </g>
        </g>
        <g
           id="line2d_34">
          <g
             id="g234">
            <use
               style="stroke:#000000;stroke-width:0.5"
               x="119.40437"
               xlink:href="#mdc503be24b"
               y="74.762169"
               id="use232"
               width="100%"
               height="100%" />
          </g>
        </g>
      </g>
      <g
         id="ytick_3">
        <g
           id="line2d_35">
          <g
             id="g240">
            <use
               style="stroke:#000000;stroke-width:0.5"
               x="13.384375"
               xlink:href="#m48922cf944"
               y="57.245308"
               id="use238"
               width="100%"
               height="100%" />
          </g>
        </g>
        <g
           id="line2d_36">
          <g
             id="g245">
            <use
               style="stroke:#000000;stroke-width:0.5"
               x="119.40437"
               xlink:href="#mdc503be24b"
               y="57.245308"
               id="use243"
               width="100%"
               height="100%" />
          </g>
        </g>
      </g>
      <g
         id="ytick_4">
        <g
           id="line2d_37">
          <g
             id="g251">
            <use
               style="stroke:#000000;stroke-width:0.5"
               x="13.384375"
               xlink:href="#m48922cf944"
               y="39.728451"
               id="use249"
               width="100%"
               height="100%" />
          </g>
        </g>
        <g
           id="line2d_38">
          <g
             id="g256">
            <use
               style="stroke:#000000;stroke-width:0.5"
               x="119.40437"
               xlink:href="#mdc503be24b"
               y="39.728451"
               id="use254"
               width="100%"
               height="100%" />
          </g>
        </g>
      </g>
      <g
         id="ytick_5">
        <g
           id="line2d_39">
          <g
             id="g262">
            <use
               style="stroke:#000000;stroke-width:0.5"
               x="13.384375"
               xlink:href="#m48922cf944"
               y="22.211588"
               id="use260"
               width="100%"
               height="100%" />
          </g>
        </g>
        <g
           id="line2d_40">
          <g
             id="g267">
            <use
               style="stroke:#000000;stroke-width:0.5"
               x="119.40437"
               xlink:href="#mdc503be24b"
               y="22.211588"
               id="use265"
               width="100%"
               height="100%" />
          </g>
        </g>
      </g>
      <g
         id="ytick_6">
        <g
           id="line2d_41">
          <g
             id="g273">
            <use
               style="stroke:#000000;stroke-width:0.5"
               x="13.384375"
               xlink:href="#m48922cf944"
               y="4.6947269"
               id="use271"
               width="100%"
               height="100%" />
          </g>
        </g>
        <g
           id="line2d_42">
          <g
             id="g278">
            <use
               style="stroke:#000000;stroke-width:0.5"
               x="119.40437"
               xlink:href="#mdc503be24b"
               y="4.6947269"
               id="use276"
               width="100%"
               height="100%" />
          </g>
        </g>
      </g>
      <g
         id="ytick_7">
        <g
           id="line2d_43">
          <defs
             id="defs283">
            <path
               d="M 0,0 H 2"
               id="mc00bd188de"
               style="stroke:#000000;stroke-width:0.5" />
          </defs>
          <g
             id="g287">
            <use
               style="stroke:#000000;stroke-width:0.5"
               x="13.384375"
               xlink:href="#mc00bd188de"
               y="101.03746"
               id="use285"
               width="100%"
               height="100%" />
          </g>
        </g>
        <g
           id="line2d_44">
          <defs
             id="defs291">
            <path
               d="M 0,0 H -2"
               id="m44467e70ee"
               style="stroke:#000000;stroke-width:0.5" />
          </defs>
          <g
             id="g295">
            <use
               style="stroke:#000000;stroke-width:0.5"
               x="119.40437"
               xlink:href="#m44467e70ee"
               y="101.03746"
               id="use293"
               width="100%"
               height="100%" />
          </g>
        </g>
      </g>
      <g
         id="ytick_8">
        <g
           id="line2d_45">
          <g
             id="g301">
            <use
               style="stroke:#000000;stroke-width:0.5"
               x="13.384375"
               xlink:href="#mc00bd188de"
               y="96.658249"
               id="use299"
               width="100%"
               height="100%" />
          </g>
        </g>
        <g
           id="line2d_46">
          <g
             id="g306">
            <use
               style="stroke:#000000;stroke-width:0.5"
               x="119.40437"
               xlink:href="#m44467e70ee"
               y="96.658249"
               id="use304"
               width="100%"
               height="100%" />
          </g>
        </g>
      </g>
      <g
         id="ytick_9">
        <g
           id="line2d_47">
          <g
             id="g312">
            <use
               style="stroke:#000000;stroke-width:0.5"
               x="13.384375"
               xlink:href="#mc00bd188de"
               y="87.899818"
               id="use310"
               width="100%"
               height="100%" />
          </g>
        </g>
        <g
           id="line2d_48">
          <g
             id="g317">
            <use
               style="stroke:#000000;stroke-width:0.5"
               x="119.40437"
               xlink:href="#m44467e70ee"
               y="87.899818"
               id="use315"
               width="100%"
               height="100%" />
          </g>
        </g>
      </g>
      <g
         id="ytick_10">
        <g
           id="line2d_49">
          <g
             id="g323">
            <use
               style="stroke:#000000;stroke-width:0.5"
               x="13.384375"
               xlink:href="#mc00bd188de"
               y="83.520599"
               id="use321"
               width="100%"
               height="100%" />
          </g>
        </g>
        <g
           id="line2d_50">
          <g
             id="g328">
            <use
               style="stroke:#000000;stroke-width:0.5"
               x="119.40437"
               xlink:href="#m44467e70ee"
               y="83.520599"
               id="use326"
               width="100%"
               height="100%" />
          </g>
        </g>
      </g>
      <g
         id="ytick_11">
        <g
           id="line2d_51">
          <g
             id="g334">
            <use
               style="stroke:#000000;stroke-width:0.5"
               x="13.384375"
               xlink:href="#mc00bd188de"
               y="79.141388"
               id="use332"
               width="100%"
               height="100%" />
          </g>
        </g>
        <g
           id="line2d_52">
          <g
             id="g339">
            <use
               style="stroke:#000000;stroke-width:0.5"
               x="119.40437"
               xlink:href="#m44467e70ee"
               y="79.141388"
               id="use337"
               width="100%"
               height="100%" />
          </g>
        </g>
      </g>
      <g
         id="ytick_12">
        <g
           id="line2d_53">
          <g
             id="g345">
            <use
               style="stroke:#000000;stroke-width:0.5"
               x="13.384375"
               xlink:href="#mc00bd188de"
               y="70.382957"
               id="use343"
               width="100%"
               height="100%" />
          </g>
        </g>
        <g
           id="line2d_54">
          <g
             id="g350">
            <use
               style="stroke:#000000;stroke-width:0.5"
               x="119.40437"
               xlink:href="#m44467e70ee"
               y="70.382957"
               id="use348"
               width="100%"
               height="100%" />
          </g>
        </g>
      </g>
      <g
         id="ytick_13">
        <g
           id="line2d_55">
          <g
             id="g356">
            <use
               style="stroke:#000000;stroke-width:0.5"
               x="13.384375"
               xlink:href="#mc00bd188de"
               y="66.003738"
               id="use354"
               width="100%"
               height="100%" />
          </g>
        </g>
        <g
           id="line2d_56">
          <g
             id="g361">
            <use
               style="stroke:#000000;stroke-width:0.5"
               x="119.40437"
               xlink:href="#m44467e70ee"
               y="66.003738"
               id="use359"
               width="100%"
               height="100%" />
          </g>
        </g>
      </g>
      <g
         id="ytick_14">
        <g
           id="line2d_57">
          <g
             id="g367">
            <use
               style="stroke:#000000;stroke-width:0.5"
               x="13.384375"
               xlink:href="#mc00bd188de"
               y="61.624523"
               id="use365"
               width="100%"
               height="100%" />
          </g>
        </g>
        <g
           id="line2d_58">
          <g
             id="g372">
            <use
               style="stroke:#000000;stroke-width:0.5"
               x="119.40437"
               xlink:href="#m44467e70ee"
               y="61.624523"
               id="use370"
               width="100%"
               height="100%" />
          </g>
        </g>
      </g>
      <g
         id="ytick_15">
        <g
           id="line2d_59">
          <g
             id="g378">
            <use
               style="stroke:#000000;stroke-width:0.5"
               x="13.384375"
               xlink:href="#mc00bd188de"
               y="52.866093"
               id="use376"
               width="100%"
               height="100%" />
          </g>
        </g>
        <g
           id="line2d_60">
          <g
             id="g383">
            <use
               style="stroke:#000000;stroke-width:0.5"
               x="119.40437"
               xlink:href="#m44467e70ee"
               y="52.866093"
               id="use381"
               width="100%"
               height="100%" />
          </g>
        </g>
      </g>
      <g
         id="ytick_16">
        <g
           id="line2d_61">
          <g
             id="g389">
            <use
               style="stroke:#000000;stroke-width:0.5"
               x="13.384375"
               xlink:href="#mc00bd188de"
               y="48.486877"
               id="use387"
               width="100%"
               height="100%" />
          </g>
        </g>
        <g
           id="line2d_62">
          <g
             id="g394">
            <use
               style="stroke:#000000;stroke-width:0.5"
               x="119.40437"
               xlink:href="#m44467e70ee"
               y="48.486877"
               id="use392"
               width="100%"
               height="100%" />
          </g>
        </g>
      </g>
      <g
         id="ytick_17">
        <g
           id="line2d_63">
          <g
             id="g400">
            <use
               style="stroke:#000000;stroke-width:0.5"
               x="13.384375"
               xlink:href="#mc00bd188de"
               y="44.107662"
               id="use398"
               width="100%"
               height="100%" />
          </g>
        </g>
        <g
           id="line2d_64">
          <g
             id="g405">
            <use
               style="stroke:#000000;stroke-width:0.5"
               x="119.40437"
               xlink:href="#m44467e70ee"
               y="44.107662"
               id="use403"
               width="100%"
               height="100%" />
          </g>
        </g>
      </g>
      <g
         id="ytick_18">
        <g
           id="line2d_65">
          <g
             id="g411">
            <use
               style="stroke:#000000;stroke-width:0.5"
               x="13.384375"
               xlink:href="#mc00bd188de"
               y="35.349236"
               id="use409"
               width="100%"
               height="100%" />
          </g>
        </g>
        <g
           id="line2d_66">
          <g
             id="g416">
            <use
               style="stroke:#000000;stroke-width:0.5"
               x="119.40437"
               xlink:href="#m44467e70ee"
               y="35.349236"
               id="use414"
               width="100%"
               height="100%" />
          </g>
        </g>
      </g>
      <g
         id="ytick_19">
        <g
           id="line2d_67">
          <g
             id="g422">
            <use
               style="stroke:#000000;stroke-width:0.5"
               x="13.384375"
               xlink:href="#mc00bd188de"
               y="30.970018"
               id="use420"
               width="100%"
               height="100%" />
          </g>
        </g>
        <g
           id="line2d_68">
          <g
             id="g427">
            <use
               style="stroke:#000000;stroke-width:0.5"
               x="119.40437"
               xlink:href="#m44467e70ee"
               y="30.970018"
               id="use425"
               width="100%"
               height="100%" />
          </g>
        </g>
      </g>
      <g
         id="ytick_20">
        <g
           id="line2d_69">
          <g
             id="g433">
            <use
               style="stroke:#000000;stroke-width:0.5"
               x="13.384375"
               xlink:href="#mc00bd188de"
               y="26.590803"
               id="use431"
               width="100%"
               height="100%" />
          </g>
        </g>
        <g
           id="line2d_70">
          <g
             id="g438">
            <use
               style="stroke:#000000;stroke-width:0.5"
               x="119.40437"
               xlink:href="#m44467e70ee"
               y="26.590803"
               id="use436"
               width="100%"
               height="100%" />
          </g>
        </g>
      </g>
      <g
         id="ytick_21">
        <g
           id="line2d_71">
          <g
             id="g444">
            <use
               style="stroke:#000000;stroke-width:0.5"
               x="13.384375"
               xlink:href="#mc00bd188de"
               y="17.832373"
               id="use442"
               width="100%"
               height="100%" />
          </g>
        </g>
        <g
           id="line2d_72">
          <g
             id="g449">
            <use
               style="stroke:#000000;stroke-width:0.5"
               x="119.40437"
               xlink:href="#m44467e70ee"
               y="17.832373"
               id="use447"
               width="100%"
               height="100%" />
          </g>
        </g>
      </g>
      <g
         id="ytick_22">
        <g
           id="line2d_73">
          <g
             id="g455">
            <use
               style="stroke:#000000;stroke-width:0.5"
               x="13.384375"
               xlink:href="#mc00bd188de"
               y="13.453158"
               id="use453"
               width="100%"
               height="100%" />
          </g>
        </g>
        <g
           id="line2d_74">
          <g
             id="g460">
            <use
               style="stroke:#000000;stroke-width:0.5"
               x="119.40437"
               xlink:href="#m44467e70ee"
               y="13.453158"
               id="use458"
               width="100%"
               height="100%" />
          </g>
        </g>
      </g>
      <g
         id="ytick_23">
        <g
           id="line2d_75">
          <g
             id="g466">
            <use
               style="stroke:#000000;stroke-width:0.5"
               x="13.384375"
               xlink:href="#mc00bd188de"
               y="9.0739422"
               id="use464"
               width="100%"
               height="100%" />
          </g>
        </g>
        <g
           id="line2d_76">
          <g
             id="g471">
            <use
               style="stroke:#000000;stroke-width:0.5"
               x="119.40437"
               xlink:href="#m44467e70ee"
               y="9.0739422"
               id="use469"
               width="100%"
               height="100%" />
          </g>
        </g>
      </g>
      <g
         id="ytick_24">
        <g
           id="line2d_77">
          <g
             id="g477">
            <use
               style="stroke:#000000;stroke-width:0.5"
               x="13.384375"
               xlink:href="#mc00bd188de"
               y="0.315512"
               id="use475"
               width="100%"
               height="100%" />
          </g>
        </g>
        <g
           id="line2d_78">
          <g
             id="g482">
            <use
               style="stroke:#000000;stroke-width:0.5"
               x="119.40437"
               xlink:href="#m44467e70ee"
               y="0.315512"
               id="use480"
               width="100%"
               height="100%" />
          </g>
        </g>
      </g>
      <g
         id="text_5">
        <text
           style="font-style:normal;font-weight:normal;font-stretch:normal;font-size:10px;font-family:Arial;text-anchor:middle"
           transform="rotate(-90,7.279688,51.642)"
           x="7.2796879"
           y="51.641998"
           id="text486">Intensity (Arb. Unit)</text>
      </g>
    </g>
    <g
       id="line2d_79">
      <path
         clip-path="url(#p22148bc733)"
         d="m -1,90.684227 0.075842,-0.207295 0.457444,0.7417 0.228897,0.625809 0.228897,-0.11589 0.228898,0.788055 0.228897,-0.695343 0.457229,-0.04636 0.228862,-0.394028 0.228791,0.11589 0.457158,-0.370849 0.457088,2.225099 0.22872,1.993318 0.228756,0.231781 0.228261,0.579453 0.228685,-0.185425 0.228685,0.556274 0.228226,-0.04636 0.228685,0.208603 0.228614,-0.278137 0.228191,-0.09271 0.228614,0.486741 0.456734,-0.254959 0.685243,0.764877 0.228049,-0.11589 0.228509,0.231781 h 0.228049 l 0.228508,-0.185425 0.228014,0.440384 0.456451,-0.48674 0.228438,-0.556275 0.227943,1.089371 0.228402,-0.602631 0.227943,0.37085 0.227908,-0.648987 0.228367,0.208603 0.227872,-0.11589 0.228332,-0.463563 0.911807,-9.062643 0.227802,5.724995 0.228261,2.804552 0.227766,0.764877 0.227767,0.324494 h 0.22819 l 0.227731,0.48674 0.683582,0.139069 0.22766,0.37085 0.22766,-0.231781 0.455745,0.139068 0.683228,-0.301315 0.22759,0.09271 0.227554,0.440385 0.227554,-0.115891 0.227519,-0.301315 0.227979,0.278137 h 0.227518 l 0.454932,-0.254959 0.227484,0.231781 0.227448,0.06953 0.227413,-0.06953 0.227413,-0.347672 0.45479,0.162247 0.227837,0.463562 0.227343,0.04636 0.227342,-0.254959 0.227342,0.09271 0.227307,-0.394028 0.227307,0.347671 0.227307,0.115891 0.227271,-0.231781 0.227236,0.208603 0.227272,-0.394028 0.227201,0.37085 0.454437,0.11589 0.453907,-0.139068 0.908556,0.417206 0.227095,-0.394028 0.227095,-0.02318 0.227059,0.139068 0.226635,-0.324493 0.454049,0.347671 0.227024,-0.231781 0.226989,0.417206 0.226564,-0.533096 0.453907,0.324493 0.226954,0.162247 0.226918,-0.394028 0.226494,-0.162247 0.226883,0.278138 0.453306,-0.139069 0.45373,0.278137 0.226812,-0.347671 0.226389,0.254959 0.226776,-0.301316 0.45313,0.394028 0.226741,0.02318 0.226777,-0.602631 0.452988,0.48674 0.226247,-0.579453 0.226671,0.254959 0.226706,-0.11589 0.226211,0.324493 0.226635,-0.417206 0.226176,0.162247 0.452776,-0.301315 0.226601,0.417206 0.226105,-0.231781 0.45267,0.254959 0.226529,-0.37085 0.452564,0.02318 0.225929,0.208603 0.452705,-0.11589 0.225823,0.254959 0.226529,-0.06954 0.225823,0.115891 0.226529,-0.301315 0.225823,0.11589 0.226176,-0.185425 h 0.226176 l 0.225823,-0.440384 0.226176,0.231781 0.451998,-0.06953 0.451999,-1.274797 0.451645,-1.089371 0.226176,-1.112549 0.451645,-4.172061 0.225823,-3.963458 0.226176,-1.413865 0.451292,4.009814 0.451291,5.493213 0.226176,0.788056 0.225823,0.139069 0.225469,0.950303 0.451292,0.394028 0.225469,-0.37085 0.226176,0.973481 0.225469,-0.533097 0.22547,0.48674 0.225469,-0.04636 0.225822,-0.417206 0.22547,0.278137 0.225469,0.06954 0.225469,-0.278138 0.225469,0.25496 0.450939,-0.25496 0.225115,0.115891 0.22547,0.347672 0.225469,-0.185425 0.225469,0.06953 0.225116,-0.162247 0.225469,0.185425 0.225469,0.347672 0.225116,-0.37085 0.225469,0.440384 0.225116,0.04636 0.225469,-0.440385 0.225116,0.139069 0.225469,0.347672 0.225116,-0.139069 0.224762,-0.278137 0.675701,0.231781 0.225116,0.579453 0.225116,-0.648987 0.225116,0.324493 0.224762,-0.37085 h 0.225116 l 0.225116,0.139069 h 0.224762 l 0.449878,0.208603 0.225116,-0.440384 0.224762,0.139069 0.224763,0.324493 0.224762,-0.04636 0.225116,-0.486741 0.225116,0.417207 0.224409,-0.579453 0.449878,0.509918 0.449171,-0.301315 0.225116,0.394028 0.673581,-1.11255 0.224762,0.695344 0.449171,-0.695344 0.224763,-0.162247 0.449171,0.834412 0.224409,-0.834412 0.224763,0.579453 0.224055,-0.324493 0.673581,0.278137 0.448818,-0.324494 0.673227,0.7417 0.224409,-0.02318 0.224055,-0.463562 0.672874,-0.139069 0.224409,-0.37085 0.224055,-0.02318 0.224056,-0.347672 0.224409,-0.139068 0.224056,-0.301316 0.224055,-0.648987 0.448465,-1.900606 1.119924,-8.668615 0.448465,4.148883 0.223702,0.834412 0.672167,4.195239 0.223702,-0.231781 0.223702,0.764878 0.223703,0.254959 0.223702,-0.02318 0.224409,0.625809 0.223702,0.02318 0.223702,-0.139069 0.223702,0.625809 0.223703,-0.231781 0.223702,0.301316 0.223702,-0.278138 0.223702,0.695344 0.223702,-0.139069 0.223349,0.162247 0.223702,-0.04636 0.223703,0.254959 0.224055,-0.440384 0.223349,0.06953 0.223702,0.579453 0.447051,-0.788056 0.222996,0.208603 0.223702,-0.04636 0.223349,-0.37085 0.223348,-1.043015 0.223703,0.162247 0.893395,-3.986636 0.447051,-0.486741 0.223349,0.7417 0.44599,-0.09271 0.223349,1.205262 0.223349,-0.278138 0.223349,0.648987 0.223349,-0.625809 0.222642,1.066194 0.446697,-0.857591 0.222996,-0.09271 0.44599,0.463562 0.223349,-0.741699 0.222996,-0.162247 0.222642,1.668824 0.223348,0.254959 0.222996,1.460222 0.222642,-0.324494 0.222995,0.02318 0.223349,0.85759 0.222642,-0.463562 0.222995,0.440384 0.222996,-0.324493 0.222642,0.231781 0.222995,0.440384 0.445638,-0.440384 0.222995,0.672165 0.222289,0.04636 0.222995,-0.440384 0.222642,-0.04636 0.222642,0.06953 0.222642,-0.880768 0.222995,-0.09271 1.112857,-4.287951 1.335145,5.53957 0.444931,0.324493 0.222288,0.602631 0.222289,0.09271 0.222642,-0.115891 0.222289,0.556275 0.222288,-0.254959 0.222642,0.11589 0.221935,-0.11589 0.222289,0.648987 0.444577,-0.139069 0.222289,-0.347672 0.222288,0.509919 0.222289,-0.579453 h 0.221935 l 0.222289,0.208603 0.221935,-0.06953 0.222289,0.718521 0.222288,-0.417206 0.443871,0.394028 0.221935,0.02318 0.222288,-0.695343 0.443871,0.556275 0.221935,-0.278138 0.44387,0.09271 0.221936,0.37085 0.221935,-0.09271 0.222288,-0.394028 0.221936,0.254959 0.443517,-0.324493 0.221935,-0.278138 0.443517,0.115891 0.221582,0.417206 0.221935,-0.927125 0.443163,0.162247 0.443517,-0.347671 0.443164,-0.394028 0.221935,-0.04636 0.221229,-0.903946 0.443163,-0.927125 0.443164,-2.410524 0.443163,-4.42702 0.221229,-4.496554 0.221228,-7.231572 0.221582,-12.724786 0.664392,-57.690329 0.220875,16.085612 0.44281,47.561493 0.442457,17.035915 0.44281,5.145542 0.442457,3.268114 0.221228,0.11589 0.221229,0.927125 0.220875,0.208603 0.221228,0.440384 0.221229,0.185425 0.442103,0.06954 0.884207,0.139068 0.220875,0.231781 0.220875,-0.509918 0.442457,0.11589 0.220521,-0.394028 0.221229,0.556275 0.44175,-2.109208 0.220521,-0.139069 0.220875,-0.695343 0.220875,-1.738359 0.220875,-0.394028 0.220522,-2.758196 0.44175,-10.105658 0.220521,-8.11234 0.220875,-3.917102 0.220522,-0.48674 0.441397,16.016077 0.441396,8.529547 0.44069,4.009814 0.220879,0.278137 0.66156,2.271455 0.22052,-0.370849 0.44069,0.741699 0.44105,0.324494 0.22016,-0.139069 0.22052,-0.347672 0.44069,0.788056 0.22017,-0.301315 0.22053,-0.04636 0.44033,0.37085 0.44069,-0.533097 0.22017,0.139069 h 0.22017 l 0.88032,0.48674 0.22016,-0.602631 0.22053,0.37085 0.22017,-0.02318 0.21981,0.162247 0.22017,-0.208604 0.21981,0.06954 0.22017,0.324493 0.21982,-0.440384 0.43998,-0.04636 0.21981,0.556275 0.22017,-0.347672 0.21946,0.02318 0.43963,-0.278137 0.21982,0.48674 0.21981,-0.695343 0.21982,0.347671 0.43963,-0.463562 0.43927,0.718522 0.21982,-0.602631 0.43963,-0.162247 0.21946,0.162247 0.21981,-0.04636 0.21946,-0.231782 0.21947,0.25496 0.21981,0.06953 0.21946,-0.301316 0.21946,0.278138 0.21946,-0.185425 0.21982,0.06953 0.21946,-0.162247 0.21911,0.04636 0.21981,0.278137 0.21947,-0.301315 0.2191,0.370849 0.21947,-0.04636 0.21946,-0.533096 0.2191,0.579452 0.21947,-0.417206 0.21946,0.394028 0.2191,-0.533096 0.21947,0.394028 0.2191,-0.231782 0.21947,0.06954 0.21875,-0.185425 0.43892,0.672165 0.21911,-0.741699 0.21911,0.48674 0.43857,-0.04636 0.21875,0.04636 0.21911,-0.162247 0.21911,0.04636 0.21911,-0.278137 0.21875,0.09271 0.21911,0.37085 0.43786,-0.579453 0.21946,-0.139068 0.21876,0.254959 0.21911,-0.115891 0.44374,0.36557 v 0"
         style="fill:none;stroke:#377eb8;stroke-linecap:square"
         id="path490"
         sodipodi:nodetypes="cccccccccccccccccccccccccccccccccccccccccccccccccccccccccccccccccccccccccccccccccccccccccccccccccccccccccccccccccccccccccccccccccccccccccccccccccccccccccccccccccccccccccccccccccccccccccccccccccccccccccccccccccccccccccccccccccccccccccccccccccccccccccccccccccccccccccccccccccccccccccccccccccccccccccccccccccccccccccccccccccccccccccccccccccccccccccccccccccccccccccccccccccccccccccccccccccccccccccccccccccccccccccccccc" />
    </g>
    <g
       id="patch_3">
      <path
         d="M 13.384375,103.284 V 0"
         style="fill:none;stroke:#000000;stroke-width:0.5;stroke-linecap:square;stroke-linejoin:miter"
         id="path493" />
    </g>
    <g
       id="patch_4">
      <path
         d="M 119.40438,103.284 V 0"
         style="fill:none;stroke:#000000;stroke-width:0.5;stroke-linecap:square;stroke-linejoin:miter"
         id="path496" />
    </g>
    <g
       id="patch_5">
      <path
         d="M 13.384375,103.284 H 119.40438"
         style="fill:none;stroke:#000000;stroke-width:0.5;stroke-linecap:square;stroke-linejoin:miter"
         id="path499" />
    </g>
    <g
       id="patch_6">
      <path
         d="M 13.384375,0 H 119.40438"
         style="fill:none;stroke:#000000;stroke-width:0.5;stroke-linecap:square;stroke-linejoin:miter"
         id="path502" />
    </g>
  </g>
  <defs
     id="defs510">
    <clipPath
       id="p22148bc733">
      <rect
         height="103.284"
         width="106.02"
         x="13.384375"
         y="0"
         id="rect507" />
    </clipPath>
  </defs>
  <text
     xml:space="preserve"
     style="font-size:8.00002px;line-height:1.25;font-family:Arial;-inkscape-font-specification:Arial;stroke-width:0.75;stroke-linecap:butt;stroke-linejoin:round"
     x="61.337734"
     y="64.805656"
     id="text6618-9"><tspan
       sodipodi:role="line"
       id="tspan6616-8"
       style="stroke-width:0.75"
       x="61.337734"
       y="64.805656"><tspan
         style="font-style:italic"
         id="tspan37383">A</tspan><tspan
         style="font-size:65%;baseline-shift:sub"
         id="tspan7280-8">2g</tspan><tspan
         style="font-size:65%;baseline-shift:super"
         id="tspan9088-6"
         dx="-5.6700001">1<tspan
   style="baseline-shift:baseline"
   id="tspan58765" /></tspan></tspan></text>
  <text
     xml:space="preserve"
     style="font-size:8.00002px;line-height:1.25;font-family:Arial;-inkscape-font-specification:Arial;stroke-width:0.75"
     x="30.834745"
     y="78.305656"
     id="text6618"><tspan
       sodipodi:role="line"
       id="tspan6616"
       style="stroke-width:0.75"
       x="30.834745"
       y="78.305656"><tspan
         style="font-style:italic"
         id="tspan34737">A</tspan><tspan
         style="font-size:65%;baseline-shift:sub"
         id="tspan7280">1g</tspan><tspan
         style="font-size:65%;baseline-shift:super"
         id="tspan9088"
         dx="-5.6700001">1</tspan></tspan></text>
  <text
     xml:space="preserve"
     style="font-size:8.00002px;line-height:1.25;font-family:Arial;-inkscape-font-specification:Arial;stroke-width:0.75;stroke-linecap:butt;stroke-linejoin:round"
     x="52.580303"
     y="78.305656"
     id="text6618-1"><tspan
       sodipodi:role="line"
       id="tspan6616-2"
       style="stroke-width:0.75"
       x="52.580303"
       y="78.305656"><tspan
         style="font-style:italic"
         id="tspan36385">E</tspan><tspan
         style="font-size:65%;baseline-shift:sub"
         id="tspan7280-9">2g</tspan><tspan
         style="font-size:65%;baseline-shift:super"
         id="tspan9088-1"
         dx="-5.6700001">1</tspan></tspan></text>
  <text
     xml:space="preserve"
     style="font-size:8.00002px;line-height:1.25;font-family:Arial;-inkscape-font-specification:Arial;stroke-width:0.75"
     x="67.04837"
     y="78.318146"
     id="text28441"><tspan
       sodipodi:role="line"
       id="tspan28439"
       style="font-style:italic;stroke-width:0.75"
       x="67.04837"
       y="78.318146">E</tspan></text>
  <text
     xml:space="preserve"
     style="font-size:8.00002px;line-height:1.25;font-family:Arial;-inkscape-font-specification:Arial;stroke-width:0.75;stroke-linecap:butt;stroke-linejoin:round"
     x="70.27977"
     y="85.48278"
     id="text44467"><tspan
       sodipodi:role="line"
       id="tspan44465"
       style="stroke-width:0.75"
       x="70.27977"
       y="85.48278"><tspan
         style="font-style:italic"
         id="tspan44459">A</tspan><tspan
         id="tspan52003"
         style="font-style:normal;font-size:65%;baseline-shift:sub">1</tspan><tspan
         style="font-size:65%;baseline-shift:sub"
         id="tspan44461">g</tspan><tspan
         style="font-style:normal;font-size:65%;baseline-shift:super"
         id="tspan44463"
         dx="-5.5">2</tspan></tspan></text>
</svg>
