<?xml version="1.0" encoding="utf-8" standalone="no"?>
<!DOCTYPE svg PUBLIC "-//W3C//DTD SVG 1.1//EN"
  "http://www.w3.org/Graphics/SVG/1.1/DTD/svg11.dtd">
<svg height="127.729312pt" version="1.1" viewBox="0 0 119.590397 127.729312" width="119.590397pt" xmlns="http://www.w3.org/2000/svg" xmlns:xlink="http://www.w3.org/1999/xlink">
 <metadata>
  <rdf:RDF xmlns:cc="http://creativecommons.org/ns#" xmlns:dc="http://purl.org/dc/elements/1.1/" xmlns:rdf="http://www.w3.org/1999/02/22-rdf-syntax-ns#">
   <cc:Work>
    <dc:type rdf:resource="http://purl.org/dc/dcmitype/StillImage"/>
    <dc:date>2021-09-15T11:30:22.038290</dc:date>
    <dc:format>image/svg+xml</dc:format>
    <dc:creator>
     <cc:Agent>
      <dc:title>Matplotlib v3.4.3, https://matplotlib.org/</dc:title>
     </cc:Agent>
    </dc:creator>
   </cc:Work>
  </rdf:RDF>
 </metadata>
 <defs>
  <style type="text/css">*{stroke-linecap:butt;stroke-linejoin:round;}</style>
 </defs>
 <g id="figure_1">
  <g id="patch_1">
   <path d="M 0 127.729312 
L 119.590397 127.729312 
L 119.590397 0 
L 0 0 
z
" style="fill:none;"/>
  </g>
  <g id="axes_1">
   <g id="patch_2">
    <path d="M 13.384375 103.284 
L 119.404375 103.284 
L 119.404375 -0 
L 13.384375 -0 
z
" style="fill:none;"/>
   </g>
   <g id="matplotlib.axis_1">
    <g id="xtick_1">
     <g id="line2d_1">
      <defs>
       <path d="M 0 0 
L 0 -3.5 
" id="m782b0afd9d" style="stroke:#000000;stroke-width:0.5;"/>
      </defs>
      <g>
       <use style="stroke:#000000;stroke-width:0.5;" x="13.384375" xlink:href="#m782b0afd9d" y="103.284"/>
      </g>
     </g>
     <g id="line2d_2">
      <defs>
       <path d="M 0 0 
L 0 3.5 
" id="m7ae6322890" style="stroke:#000000;stroke-width:0.5;"/>
      </defs>
      <g>
       <use style="stroke:#000000;stroke-width:0.5;" x="13.384375" xlink:href="#m7ae6322890" y="-0"/>
      </g>
     </g>
     <g id="text_1">
      <text style="font-family:Arial;font-size:10px;font-stretch:normal;font-style:normal;font-weight:normal;text-anchor:middle;" transform="rotate(-0, 13.384375, 111.441812)" x="13.384375" y="111.441812">0</text>
     </g>
    </g>
    <g id="xtick_2">
     <g id="line2d_3">
      <g>
       <use style="stroke:#000000;stroke-width:0.5;" x="46.005913" xlink:href="#m782b0afd9d" y="103.284"/>
      </g>
     </g>
     <g id="line2d_4">
      <g>
       <use style="stroke:#000000;stroke-width:0.5;" x="46.005913" xlink:href="#m7ae6322890" y="-0"/>
      </g>
     </g>
     <g id="text_2">
      <text style="font-family:Arial;font-size:10px;font-stretch:normal;font-style:normal;font-weight:normal;text-anchor:middle;" transform="rotate(-0, 46.005913, 111.441812)" x="46.005913" y="111.441812">100</text>
     </g>
    </g>
    <g id="xtick_3">
     <g id="line2d_5">
      <g>
       <use style="stroke:#000000;stroke-width:0.5;" x="78.627452" xlink:href="#m782b0afd9d" y="103.284"/>
      </g>
     </g>
     <g id="line2d_6">
      <g>
       <use style="stroke:#000000;stroke-width:0.5;" x="78.627452" xlink:href="#m7ae6322890" y="-0"/>
      </g>
     </g>
     <g id="text_3">
      <text style="font-family:Arial;font-size:10px;font-stretch:normal;font-style:normal;font-weight:normal;text-anchor:middle;" transform="rotate(-0, 78.627452, 111.441812)" x="78.627452" y="111.441812">200</text>
     </g>
    </g>
    <g id="xtick_4">
     <g id="line2d_7">
      <g>
       <use style="stroke:#000000;stroke-width:0.5;" x="111.24899" xlink:href="#m782b0afd9d" y="103.284"/>
      </g>
     </g>
     <g id="line2d_8">
      <g>
       <use style="stroke:#000000;stroke-width:0.5;" x="111.24899" xlink:href="#m7ae6322890" y="-0"/>
      </g>
     </g>
     <g id="text_4">
      <text style="font-family:Arial;font-size:10px;font-stretch:normal;font-style:normal;font-weight:normal;text-anchor:middle;" transform="rotate(-0, 111.24899, 111.441812)" x="111.24899" y="111.441812">300</text>
     </g>
    </g>
    <g id="xtick_5">
     <g id="line2d_9">
      <defs>
       <path d="M 0 0 
L 0 -2 
" id="mffe2b7925c" style="stroke:#000000;stroke-width:0.5;"/>
      </defs>
      <g>
       <use style="stroke:#000000;stroke-width:0.5;" x="19.908683" xlink:href="#mffe2b7925c" y="103.284"/>
      </g>
     </g>
     <g id="line2d_10">
      <defs>
       <path d="M 0 0 
L 0 2 
" id="md94b11c664" style="stroke:#000000;stroke-width:0.5;"/>
      </defs>
      <g>
       <use style="stroke:#000000;stroke-width:0.5;" x="19.908683" xlink:href="#md94b11c664" y="-0"/>
      </g>
     </g>
    </g>
    <g id="xtick_6">
     <g id="line2d_11">
      <g>
       <use style="stroke:#000000;stroke-width:0.5;" x="26.43299" xlink:href="#mffe2b7925c" y="103.284"/>
      </g>
     </g>
     <g id="line2d_12">
      <g>
       <use style="stroke:#000000;stroke-width:0.5;" x="26.43299" xlink:href="#md94b11c664" y="-0"/>
      </g>
     </g>
    </g>
    <g id="xtick_7">
     <g id="line2d_13">
      <g>
       <use style="stroke:#000000;stroke-width:0.5;" x="32.957298" xlink:href="#mffe2b7925c" y="103.284"/>
      </g>
     </g>
     <g id="line2d_14">
      <g>
       <use style="stroke:#000000;stroke-width:0.5;" x="32.957298" xlink:href="#md94b11c664" y="-0"/>
      </g>
     </g>
    </g>
    <g id="xtick_8">
     <g id="line2d_15">
      <g>
       <use style="stroke:#000000;stroke-width:0.5;" x="39.481606" xlink:href="#mffe2b7925c" y="103.284"/>
      </g>
     </g>
     <g id="line2d_16">
      <g>
       <use style="stroke:#000000;stroke-width:0.5;" x="39.481606" xlink:href="#md94b11c664" y="-0"/>
      </g>
     </g>
    </g>
    <g id="xtick_9">
     <g id="line2d_17">
      <g>
       <use style="stroke:#000000;stroke-width:0.5;" x="52.530221" xlink:href="#mffe2b7925c" y="103.284"/>
      </g>
     </g>
     <g id="line2d_18">
      <g>
       <use style="stroke:#000000;stroke-width:0.5;" x="52.530221" xlink:href="#md94b11c664" y="-0"/>
      </g>
     </g>
    </g>
    <g id="xtick_10">
     <g id="line2d_19">
      <g>
       <use style="stroke:#000000;stroke-width:0.5;" x="59.054529" xlink:href="#mffe2b7925c" y="103.284"/>
      </g>
     </g>
     <g id="line2d_20">
      <g>
       <use style="stroke:#000000;stroke-width:0.5;" x="59.054529" xlink:href="#md94b11c664" y="-0"/>
      </g>
     </g>
    </g>
    <g id="xtick_11">
     <g id="line2d_21">
      <g>
       <use style="stroke:#000000;stroke-width:0.5;" x="65.578837" xlink:href="#mffe2b7925c" y="103.284"/>
      </g>
     </g>
     <g id="line2d_22">
      <g>
       <use style="stroke:#000000;stroke-width:0.5;" x="65.578837" xlink:href="#md94b11c664" y="-0"/>
      </g>
     </g>
    </g>
    <g id="xtick_12">
     <g id="line2d_23">
      <g>
       <use style="stroke:#000000;stroke-width:0.5;" x="72.103144" xlink:href="#mffe2b7925c" y="103.284"/>
      </g>
     </g>
     <g id="line2d_24">
      <g>
       <use style="stroke:#000000;stroke-width:0.5;" x="72.103144" xlink:href="#md94b11c664" y="-0"/>
      </g>
     </g>
    </g>
    <g id="xtick_13">
     <g id="line2d_25">
      <g>
       <use style="stroke:#000000;stroke-width:0.5;" x="85.15176" xlink:href="#mffe2b7925c" y="103.284"/>
      </g>
     </g>
     <g id="line2d_26">
      <g>
       <use style="stroke:#000000;stroke-width:0.5;" x="85.15176" xlink:href="#md94b11c664" y="-0"/>
      </g>
     </g>
    </g>
    <g id="xtick_14">
     <g id="line2d_27">
      <g>
       <use style="stroke:#000000;stroke-width:0.5;" x="91.676067" xlink:href="#mffe2b7925c" y="103.284"/>
      </g>
     </g>
     <g id="line2d_28">
      <g>
       <use style="stroke:#000000;stroke-width:0.5;" x="91.676067" xlink:href="#md94b11c664" y="-0"/>
      </g>
     </g>
    </g>
    <g id="xtick_15">
     <g id="line2d_29">
      <g>
       <use style="stroke:#000000;stroke-width:0.5;" x="98.200375" xlink:href="#mffe2b7925c" y="103.284"/>
      </g>
     </g>
     <g id="line2d_30">
      <g>
       <use style="stroke:#000000;stroke-width:0.5;" x="98.200375" xlink:href="#md94b11c664" y="-0"/>
      </g>
     </g>
    </g>
    <g id="xtick_16">
     <g id="line2d_31">
      <g>
       <use style="stroke:#000000;stroke-width:0.5;" x="104.724683" xlink:href="#mffe2b7925c" y="103.284"/>
      </g>
     </g>
     <g id="line2d_32">
      <g>
       <use style="stroke:#000000;stroke-width:0.5;" x="104.724683" xlink:href="#md94b11c664" y="-0"/>
      </g>
     </g>
    </g>
    <g id="xtick_17">
     <g id="line2d_33">
      <g>
       <use style="stroke:#000000;stroke-width:0.5;" x="117.773298" xlink:href="#mffe2b7925c" y="103.284"/>
      </g>
     </g>
     <g id="line2d_34">
      <g>
       <use style="stroke:#000000;stroke-width:0.5;" x="117.773298" xlink:href="#md94b11c664" y="-0"/>
      </g>
     </g>
    </g>
    <g id="text_5">
     <!-- Raman Shift ($cm^{-1}$) -->
     <g transform="translate(23.144375 125.529312)">
      <text>
       <tspan style="font-family:Arial;font-size:10px;font-style:regular;font-weight:regular;" x="0 7.22168 12.783203 21.113281 26.674805 32.236328 35.014648 41.68457 47.246094 49.467773 52.246094 55.024414 57.802734 61.132812 66.132812 83.115895" y="-0.9993750000000006">Raman Shift (cm)</tspan>
       <tspan style="font-family:Arial;font-size:7px;font-style:regular;font-weight:regular;" x="74.637125 78.725016" y="-7.968749999999999">−1</tspan>
      </text>
     </g>
    </g>
   </g>
   <g id="matplotlib.axis_2">
    <g id="ytick_1">
     <g id="line2d_35">
      <defs>
       <path d="M 0 0 
L 3.5 0 
" id="mb6d6d1e89e" style="stroke:#000000;stroke-width:0.5;"/>
      </defs>
      <g>
       <use style="stroke:#000000;stroke-width:0.5;" x="13.384375" xlink:href="#mb6d6d1e89e" y="92.870336"/>
      </g>
     </g>
     <g id="line2d_36">
      <defs>
       <path d="M 0 0 
L -3.5 0 
" id="mc2dac50374" style="stroke:#000000;stroke-width:0.5;"/>
      </defs>
      <g>
       <use style="stroke:#000000;stroke-width:0.5;" x="119.404375" xlink:href="#mc2dac50374" y="92.870336"/>
      </g>
     </g>
    </g>
    <g id="ytick_2">
     <g id="line2d_37">
      <g>
       <use style="stroke:#000000;stroke-width:0.5;" x="13.384375" xlink:href="#mb6d6d1e89e" y="78.174401"/>
      </g>
     </g>
     <g id="line2d_38">
      <g>
       <use style="stroke:#000000;stroke-width:0.5;" x="119.404375" xlink:href="#mc2dac50374" y="78.174401"/>
      </g>
     </g>
    </g>
    <g id="ytick_3">
     <g id="line2d_39">
      <g>
       <use style="stroke:#000000;stroke-width:0.5;" x="13.384375" xlink:href="#mb6d6d1e89e" y="63.478466"/>
      </g>
     </g>
     <g id="line2d_40">
      <g>
       <use style="stroke:#000000;stroke-width:0.5;" x="119.404375" xlink:href="#mc2dac50374" y="63.478466"/>
      </g>
     </g>
    </g>
    <g id="ytick_4">
     <g id="line2d_41">
      <g>
       <use style="stroke:#000000;stroke-width:0.5;" x="13.384375" xlink:href="#mb6d6d1e89e" y="48.782532"/>
      </g>
     </g>
     <g id="line2d_42">
      <g>
       <use style="stroke:#000000;stroke-width:0.5;" x="119.404375" xlink:href="#mc2dac50374" y="48.782532"/>
      </g>
     </g>
    </g>
    <g id="ytick_5">
     <g id="line2d_43">
      <g>
       <use style="stroke:#000000;stroke-width:0.5;" x="13.384375" xlink:href="#mb6d6d1e89e" y="34.086597"/>
      </g>
     </g>
     <g id="line2d_44">
      <g>
       <use style="stroke:#000000;stroke-width:0.5;" x="119.404375" xlink:href="#mc2dac50374" y="34.086597"/>
      </g>
     </g>
    </g>
    <g id="ytick_6">
     <g id="line2d_45">
      <g>
       <use style="stroke:#000000;stroke-width:0.5;" x="13.384375" xlink:href="#mb6d6d1e89e" y="19.390662"/>
      </g>
     </g>
     <g id="line2d_46">
      <g>
       <use style="stroke:#000000;stroke-width:0.5;" x="119.404375" xlink:href="#mc2dac50374" y="19.390662"/>
      </g>
     </g>
    </g>
    <g id="ytick_7">
     <g id="line2d_47">
      <g>
       <use style="stroke:#000000;stroke-width:0.5;" x="13.384375" xlink:href="#mb6d6d1e89e" y="4.694727"/>
      </g>
     </g>
     <g id="line2d_48">
      <g>
       <use style="stroke:#000000;stroke-width:0.5;" x="119.404375" xlink:href="#mc2dac50374" y="4.694727"/>
      </g>
     </g>
    </g>
    <g id="ytick_8">
     <g id="line2d_49">
      <defs>
       <path d="M 0 0 
L 2 0 
" id="m3dafcba42c" style="stroke:#000000;stroke-width:0.5;"/>
      </defs>
      <g>
       <use style="stroke:#000000;stroke-width:0.5;" x="13.384375" xlink:href="#m3dafcba42c" y="100.218303"/>
      </g>
     </g>
     <g id="line2d_50">
      <defs>
       <path d="M 0 0 
L -2 0 
" id="me8739202d9" style="stroke:#000000;stroke-width:0.5;"/>
      </defs>
      <g>
       <use style="stroke:#000000;stroke-width:0.5;" x="119.404375" xlink:href="#me8739202d9" y="100.218303"/>
      </g>
     </g>
    </g>
    <g id="ytick_9">
     <g id="line2d_51">
      <g>
       <use style="stroke:#000000;stroke-width:0.5;" x="13.384375" xlink:href="#m3dafcba42c" y="96.54432"/>
      </g>
     </g>
     <g id="line2d_52">
      <g>
       <use style="stroke:#000000;stroke-width:0.5;" x="119.404375" xlink:href="#me8739202d9" y="96.54432"/>
      </g>
     </g>
    </g>
    <g id="ytick_10">
     <g id="line2d_53">
      <g>
       <use style="stroke:#000000;stroke-width:0.5;" x="13.384375" xlink:href="#m3dafcba42c" y="89.196352"/>
      </g>
     </g>
     <g id="line2d_54">
      <g>
       <use style="stroke:#000000;stroke-width:0.5;" x="119.404375" xlink:href="#me8739202d9" y="89.196352"/>
      </g>
     </g>
    </g>
    <g id="ytick_11">
     <g id="line2d_55">
      <g>
       <use style="stroke:#000000;stroke-width:0.5;" x="13.384375" xlink:href="#m3dafcba42c" y="85.522368"/>
      </g>
     </g>
     <g id="line2d_56">
      <g>
       <use style="stroke:#000000;stroke-width:0.5;" x="119.404375" xlink:href="#me8739202d9" y="85.522368"/>
      </g>
     </g>
    </g>
    <g id="ytick_12">
     <g id="line2d_57">
      <g>
       <use style="stroke:#000000;stroke-width:0.5;" x="13.384375" xlink:href="#m3dafcba42c" y="81.848385"/>
      </g>
     </g>
     <g id="line2d_58">
      <g>
       <use style="stroke:#000000;stroke-width:0.5;" x="119.404375" xlink:href="#me8739202d9" y="81.848385"/>
      </g>
     </g>
    </g>
    <g id="ytick_13">
     <g id="line2d_59">
      <g>
       <use style="stroke:#000000;stroke-width:0.5;" x="13.384375" xlink:href="#m3dafcba42c" y="74.500417"/>
      </g>
     </g>
     <g id="line2d_60">
      <g>
       <use style="stroke:#000000;stroke-width:0.5;" x="119.404375" xlink:href="#me8739202d9" y="74.500417"/>
      </g>
     </g>
    </g>
    <g id="ytick_14">
     <g id="line2d_61">
      <g>
       <use style="stroke:#000000;stroke-width:0.5;" x="13.384375" xlink:href="#m3dafcba42c" y="70.826434"/>
      </g>
     </g>
     <g id="line2d_62">
      <g>
       <use style="stroke:#000000;stroke-width:0.5;" x="119.404375" xlink:href="#me8739202d9" y="70.826434"/>
      </g>
     </g>
    </g>
    <g id="ytick_15">
     <g id="line2d_63">
      <g>
       <use style="stroke:#000000;stroke-width:0.5;" x="13.384375" xlink:href="#m3dafcba42c" y="67.15245"/>
      </g>
     </g>
     <g id="line2d_64">
      <g>
       <use style="stroke:#000000;stroke-width:0.5;" x="119.404375" xlink:href="#me8739202d9" y="67.15245"/>
      </g>
     </g>
    </g>
    <g id="ytick_16">
     <g id="line2d_65">
      <g>
       <use style="stroke:#000000;stroke-width:0.5;" x="13.384375" xlink:href="#m3dafcba42c" y="59.804483"/>
      </g>
     </g>
     <g id="line2d_66">
      <g>
       <use style="stroke:#000000;stroke-width:0.5;" x="119.404375" xlink:href="#me8739202d9" y="59.804483"/>
      </g>
     </g>
    </g>
    <g id="ytick_17">
     <g id="line2d_67">
      <g>
       <use style="stroke:#000000;stroke-width:0.5;" x="13.384375" xlink:href="#m3dafcba42c" y="56.130499"/>
      </g>
     </g>
     <g id="line2d_68">
      <g>
       <use style="stroke:#000000;stroke-width:0.5;" x="119.404375" xlink:href="#me8739202d9" y="56.130499"/>
      </g>
     </g>
    </g>
    <g id="ytick_18">
     <g id="line2d_69">
      <g>
       <use style="stroke:#000000;stroke-width:0.5;" x="13.384375" xlink:href="#m3dafcba42c" y="52.456515"/>
      </g>
     </g>
     <g id="line2d_70">
      <g>
       <use style="stroke:#000000;stroke-width:0.5;" x="119.404375" xlink:href="#me8739202d9" y="52.456515"/>
      </g>
     </g>
    </g>
    <g id="ytick_19">
     <g id="line2d_71">
      <g>
       <use style="stroke:#000000;stroke-width:0.5;" x="13.384375" xlink:href="#m3dafcba42c" y="45.108548"/>
      </g>
     </g>
     <g id="line2d_72">
      <g>
       <use style="stroke:#000000;stroke-width:0.5;" x="119.404375" xlink:href="#me8739202d9" y="45.108548"/>
      </g>
     </g>
    </g>
    <g id="ytick_20">
     <g id="line2d_73">
      <g>
       <use style="stroke:#000000;stroke-width:0.5;" x="13.384375" xlink:href="#m3dafcba42c" y="41.434564"/>
      </g>
     </g>
     <g id="line2d_74">
      <g>
       <use style="stroke:#000000;stroke-width:0.5;" x="119.404375" xlink:href="#me8739202d9" y="41.434564"/>
      </g>
     </g>
    </g>
    <g id="ytick_21">
     <g id="line2d_75">
      <g>
       <use style="stroke:#000000;stroke-width:0.5;" x="13.384375" xlink:href="#m3dafcba42c" y="37.76058"/>
      </g>
     </g>
     <g id="line2d_76">
      <g>
       <use style="stroke:#000000;stroke-width:0.5;" x="119.404375" xlink:href="#me8739202d9" y="37.76058"/>
      </g>
     </g>
    </g>
    <g id="ytick_22">
     <g id="line2d_77">
      <g>
       <use style="stroke:#000000;stroke-width:0.5;" x="13.384375" xlink:href="#m3dafcba42c" y="30.412613"/>
      </g>
     </g>
     <g id="line2d_78">
      <g>
       <use style="stroke:#000000;stroke-width:0.5;" x="119.404375" xlink:href="#me8739202d9" y="30.412613"/>
      </g>
     </g>
    </g>
    <g id="ytick_23">
     <g id="line2d_79">
      <g>
       <use style="stroke:#000000;stroke-width:0.5;" x="13.384375" xlink:href="#m3dafcba42c" y="26.738629"/>
      </g>
     </g>
     <g id="line2d_80">
      <g>
       <use style="stroke:#000000;stroke-width:0.5;" x="119.404375" xlink:href="#me8739202d9" y="26.738629"/>
      </g>
     </g>
    </g>
    <g id="ytick_24">
     <g id="line2d_81">
      <g>
       <use style="stroke:#000000;stroke-width:0.5;" x="13.384375" xlink:href="#m3dafcba42c" y="23.064646"/>
      </g>
     </g>
     <g id="line2d_82">
      <g>
       <use style="stroke:#000000;stroke-width:0.5;" x="119.404375" xlink:href="#me8739202d9" y="23.064646"/>
      </g>
     </g>
    </g>
    <g id="ytick_25">
     <g id="line2d_83">
      <g>
       <use style="stroke:#000000;stroke-width:0.5;" x="13.384375" xlink:href="#m3dafcba42c" y="15.716678"/>
      </g>
     </g>
     <g id="line2d_84">
      <g>
       <use style="stroke:#000000;stroke-width:0.5;" x="119.404375" xlink:href="#me8739202d9" y="15.716678"/>
      </g>
     </g>
    </g>
    <g id="ytick_26">
     <g id="line2d_85">
      <g>
       <use style="stroke:#000000;stroke-width:0.5;" x="13.384375" xlink:href="#m3dafcba42c" y="12.042695"/>
      </g>
     </g>
     <g id="line2d_86">
      <g>
       <use style="stroke:#000000;stroke-width:0.5;" x="119.404375" xlink:href="#me8739202d9" y="12.042695"/>
      </g>
     </g>
    </g>
    <g id="ytick_27">
     <g id="line2d_87">
      <g>
       <use style="stroke:#000000;stroke-width:0.5;" x="13.384375" xlink:href="#m3dafcba42c" y="8.368711"/>
      </g>
     </g>
     <g id="line2d_88">
      <g>
       <use style="stroke:#000000;stroke-width:0.5;" x="119.404375" xlink:href="#me8739202d9" y="8.368711"/>
      </g>
     </g>
    </g>
    <g id="ytick_28">
     <g id="line2d_89">
      <g>
       <use style="stroke:#000000;stroke-width:0.5;" x="13.384375" xlink:href="#m3dafcba42c" y="1.020744"/>
      </g>
     </g>
     <g id="line2d_90">
      <g>
       <use style="stroke:#000000;stroke-width:0.5;" x="119.404375" xlink:href="#me8739202d9" y="1.020744"/>
      </g>
     </g>
    </g>
    <g id="text_6">
     <text style="font-family:Arial;font-size:10px;font-stretch:normal;font-style:normal;font-weight:normal;text-anchor:middle;" transform="rotate(-90, 7.279688, 51.642)" x="7.279688" y="51.642">Intensity (Arb. Unit) </text>
    </g>
   </g>
   <g id="line2d_91">
    <path clip-path="url(#paaaf9e3289)" d="M 15.069796 89.300333 
L 15.490549 89.889557 
L 15.701111 91.102664 
L 15.911246 91.553247 
L 16.121782 90.964024 
L 16.331891 92.523734 
L 16.542401 92.801015 
L 16.752484 92.662375 
L 16.962534 92.939656 
L 17.173008 92.558394 
L 17.383058 93.147618 
L 17.593075 93.043637 
L 18.013534 93.216938 
L 18.223911 93.216938 
L 18.643848 92.454413 
L 18.8538 93.216938 
L 19.064176 93.147618 
L 19.694294 95.920436 
L 19.904181 95.816455 
L 20.114068 97.376165 
L 20.323922 96.821601 
L 20.534168 96.752281 
L 20.953812 97.930728 
L 21.163633 97.792088 
L 21.373422 97.202864 
L 21.583179 97.306844 
L 22.003116 97.098883 
L 22.212872 97.826748 
L 22.422596 97.410825 
L 22.632288 97.272184 
L 23.05167 98.10403 
L 23.261329 97.272184 
L 23.471411 97.376165 
L 23.890696 98.277331 
L 24.309915 97.306844 
L 24.519509 97.514806 
L 24.729102 97.965389 
L 24.938663 97.757427 
L 25.148224 97.168204 
L 25.357752 97.133543 
L 25.56728 97.896068 
L 25.776776 96.6483 
L 26.195767 90.998684 
L 26.405262 87.463341 
L 26.614301 89.265673 
L 26.823731 94.949949 
L 27.033161 96.856262 
L 27.242592 96.960242 
L 27.451989 97.445485 
L 27.661387 98.311991 
L 27.870785 97.514806 
L 28.289091 97.722767 
L 28.498423 98.20801 
L 28.707756 97.861408 
L 29.335263 98.000049 
L 29.544531 97.826748 
L 29.753798 97.237524 
L 29.963032 97.272184 
L 30.172267 98.13869 
L 30.381077 97.930728 
L 30.590312 98.589273 
L 30.799514 97.826748 
L 31.008259 97.514806 
L 31.217428 97.965389 
L 31.426598 97.480146 
L 31.635343 98.17335 
L 31.844447 97.965389 
L 32.053584 97.930728 
L 32.262264 98.034709 
L 32.471368 97.341505 
L 32.680439 97.653447 
L 32.889086 97.306844 
L 33.098158 97.965389 
L 33.306773 97.618786 
L 33.515811 98.10403 
L 33.724818 98.069369 
L 33.9334 97.896068 
L 34.142406 97.930728 
L 34.350955 97.514806 
L 34.559896 97.792088 
L 34.768446 97.757427 
L 34.977387 97.514806 
L 35.185871 97.480146 
L 35.394812 97.896068 
L 35.603264 97.965389 
L 35.812172 97.792088 
L 36.229467 98.034709 
L 36.437918 97.272184 
L 36.855148 97.965389 
L 37.063534 97.930728 
L 37.272312 97.584126 
L 37.68902 97.306844 
L 38.106119 97.861408 
L 38.31444 97.410825 
L 38.523152 97.861408 
L 38.939697 97.098883 
L 39.148377 97.410825 
L 39.356633 97.306844 
L 39.773471 97.792088 
L 40.189885 97.445485 
L 40.398075 97.826748 
L 40.814815 97.272184 
L 41.231066 97.722767 
L 41.439192 97.376165 
L 41.647284 97.272184 
L 42.479982 97.653447 
L 42.89607 97.029563 
L 43.104065 97.133543 
L 43.520478 96.925582 
L 43.728441 97.133543 
L 44.352295 96.925582 
L 44.560192 97.237524 
L 44.976019 96.54432 
L 45.183883 97.029563 
L 45.391748 97.168204 
L 45.599612 96.717621 
L 45.807444 97.341505 
L 46.015374 96.856262 
L 46.223173 96.821601 
L 46.430972 97.029563 
L 46.638445 96.856262 
L 46.845918 96.960242 
L 47.053717 96.440339 
L 47.261516 96.61364 
L 47.469316 97.029563 
L 47.677115 96.821601 
L 47.884914 96.093737 
L 48.092387 96.717621 
L 48.29986 96.821601 
L 48.507333 96.301698 
L 48.715132 96.474999 
L 48.922605 96.163057 
L 49.130404 95.365872 
L 49.337551 95.12325 
L 49.545024 95.08859 
L 49.960296 92.177131 
L 50.167769 90.998684 
L 50.582715 84.17062 
L 50.790188 84.655863 
L 51.619428 93.251598 
L 51.826901 94.360725 
L 52.034374 94.638007 
L 52.241194 95.227231 
L 52.448667 94.845969 
L 52.65614 95.573833 
L 53.070434 94.638007 
L 53.277581 95.469853 
L 53.484727 95.01927 
L 53.6922 94.984609 
L 54.106494 95.261891 
L 54.313314 94.568687 
L 54.520461 95.955096 
L 54.727608 95.12325 
L 54.934755 94.915289 
L 55.348722 95.157911 
L 55.555543 94.776648 
L 55.969836 95.539173 
L 56.176331 94.568687 
L 56.383803 95.261891 
L 56.590298 95.469853 
L 56.797445 95.192571 
L 57.004265 95.816455 
L 57.211086 95.435192 
L 57.624727 95.677814 
L 57.831874 95.469853 
L 58.245188 95.608494 
L 58.452335 94.949949 
L 58.65883 94.707328 
L 58.86565 95.539173 
L 59.072144 94.915289 
L 59.279291 95.296551 
L 59.485786 94.949949 
L 59.69228 95.643154 
L 59.898774 95.157911 
L 60.105921 95.573833 
L 60.312415 95.331212 
L 60.51891 94.880629 
L 60.725404 95.192571 
L 60.932225 94.811308 
L 61.138719 95.331212 
L 61.345213 94.949949 
L 61.551708 94.880629 
L 61.758202 95.192571 
L 62.170864 94.568687 
L 62.377685 94.915289 
L 62.584179 94.534027 
L 62.790347 94.603347 
L 62.996842 94.499366 
L 63.409504 94.568687 
L 63.615672 94.326065 
L 63.822167 94.741988 
L 64.440997 93.667521 
L 64.853334 93.771502 
L 65.059828 94.014123 
L 65.265996 93.806162 
L 65.472164 93.390239 
L 65.678332 94.256745 
L 65.8845 93.979463 
L 66.090668 93.216938 
L 66.503005 93.667521 
L 66.709173 92.835676 
L 66.914689 93.598201 
L 67.120857 93.771502 
L 67.533193 93.52888 
L 67.739035 93.355579 
L 67.945203 91.761209 
L 68.151045 92.419753 
L 68.356887 92.03849 
L 68.562729 92.697035 
L 68.768897 92.558394 
L 68.974739 92.801015 
L 69.386423 91.553247 
L 69.592264 91.345286 
L 69.798106 89.577615 
L 70.003622 90.166838 
L 70.82699 82.576249 
L 71.032832 82.437609 
L 71.238673 83.373435 
L 72.061062 88.641789 
L 72.266904 89.231012 
L 72.472094 90.47878 
L 72.677936 89.750916 
L 72.883125 90.132178 
L 73.088967 91.137325 
L 73.294809 90.652082 
L 73.499999 90.998684 
L 73.70584 90.582761 
L 73.91103 90.825383 
L 74.116546 90.582761 
L 74.321735 91.068004 
L 74.732766 90.40946 
L 75.143472 92.03849 
L 75.348987 91.414606 
L 75.554177 91.275966 
L 75.759366 91.587908 
L 75.964882 91.102664 
L 76.170071 91.241305 
L 76.580777 90.34014 
L 76.785966 90.513441 
L 76.991482 90.132178 
L 77.196345 90.721402 
L 78.017103 85.591689 
L 78.222292 85.626349 
L 78.837208 84.967805 
L 79.042724 85.383728 
L 79.247587 86.146252 
L 79.452451 86.180913 
L 79.657314 86.596835 
L 79.86283 86.492855 
L 80.067693 87.047418 
L 80.272556 85.69567 
L 80.477419 86.700816 
L 80.682283 85.73033 
L 80.887146 86.804797 
L 81.092335 86.562175 
L 81.297199 85.76499 
L 81.706599 85.661009 
L 81.911462 86.284893 
L 82.116325 85.487708 
L 82.730589 88.295186 
L 82.935126 87.809943 
L 83.139989 88.087225 
L 83.549063 87.913924 
L 83.754253 88.191206 
L 83.958464 88.81509 
L 84.163327 88.329847 
L 84.367864 88.953731 
L 84.572401 88.468487 
L 84.981475 88.121885 
L 85.186012 88.260526 
L 85.390549 87.498001 
L 85.595413 88.225866 
L 85.79995 87.29004 
L 86.00416 87.186059 
L 86.617445 84.20528 
L 86.821982 83.373435 
L 87.026193 83.165473 
L 87.23073 83.304114 
L 87.435267 83.200133 
L 87.843689 85.002465 
L 88.0479 85.972951 
L 88.252437 86.042272 
L 88.660859 87.29004 
L 88.865069 88.087225 
L 89.273817 87.601982 
L 89.477702 88.329847 
L 89.681913 87.186059 
L 89.886123 88.017905 
L 90.294219 87.567322 
L 90.49843 87.671302 
L 90.702314 87.948584 
L 90.906525 87.394021 
L 91.314621 87.567322 
L 91.518831 86.874117 
L 91.72239 87.498001 
L 91.926601 86.804797 
L 92.130485 87.012758 
L 92.742465 86.354214 
L 92.946024 86.562175 
L 93.150235 86.319554 
L 93.353793 86.874117 
L 93.557678 86.666156 
L 93.761562 86.215573 
L 93.965447 86.458195 
L 94.169005 85.557029 
L 94.373216 86.146252 
L 94.984218 85.314407 
L 95.187776 85.453048 
L 95.391661 85.418388 
L 95.799104 84.551882 
L 96.20622 84.759844 
L 96.410105 84.031979 
L 96.613337 84.20528 
L 97.02078 84.17062 
L 97.427571 82.818871 
L 97.630803 82.749551 
L 98.038246 81.363142 
L 98.44471 81.08586 
L 99.055059 77.065274 
L 99.46185 72.178182 
L 99.665082 67.672353 
L 99.86864 59.145938 
L 100.478337 4.694727 
L 100.681569 8.299391 
L 101.291266 61.710795 
L 101.697404 71.900901 
L 102.103542 76.372069 
L 102.510333 77.030614 
L 102.713239 77.758478 
L 102.916145 77.654498 
L 103.119051 77.96644 
L 103.322283 77.758478 
L 103.525189 78.139741 
L 103.728095 78.0011 
L 103.931327 77.515857 
L 104.134233 77.96644 
L 104.742951 76.753332 
L 104.946183 76.926633 
L 105.149089 76.822652 
L 105.351342 76.233429 
L 105.757154 75.678865 
L 106.162966 74.88168 
L 106.365872 73.633912 
L 106.568452 73.35663 
L 107.176844 68.885461 
L 107.582003 61.918756 
L 108.189743 44.657965 
L 109.000388 66.771188 
L 109.202967 68.989442 
L 109.405221 69.474685 
L 109.607801 70.687793 
L 109.810054 70.514492 
L 110.012634 70.583812 
L 110.215214 71.034395 
L 110.822301 70.30653 
L 111.02488 70.445171 
L 111.227134 69.751967 
L 111.429714 70.23721 
L 111.834221 68.954782 
L 112.036474 68.920121 
L 112.643235 68.192257 
L 112.845488 67.672353 
L 113.047742 67.707014 
L 113.654176 66.736527 
L 113.85643 66.077983 
L 114.260611 65.66206 
L 114.462538 64.691574 
L 114.665118 64.864875 
L 114.867045 64.483613 
L 115.068973 63.790408 
L 115.271226 63.582447 
L 115.473153 63.027883 
L 115.674755 62.854582 
L 115.877008 62.092057 
L 116.280863 61.572154 
L 116.48279 60.87895 
L 116.685044 60.705648 
L 116.685044 60.705648 
" style="fill:none;stroke:#377eb8;stroke-linecap:square;"/>
   </g>
   <g id="patch_3">
    <path d="M 13.384375 103.284 
L 13.384375 -0 
" style="fill:none;stroke:#000000;stroke-linecap:square;stroke-linejoin:miter;stroke-width:0.5;"/>
   </g>
   <g id="patch_4">
    <path d="M 119.404375 103.284 
L 119.404375 -0 
" style="fill:none;stroke:#000000;stroke-linecap:square;stroke-linejoin:miter;stroke-width:0.5;"/>
   </g>
   <g id="patch_5">
    <path d="M 13.384375 103.284 
L 119.404375 103.284 
" style="fill:none;stroke:#000000;stroke-linecap:square;stroke-linejoin:miter;stroke-width:0.5;"/>
   </g>
   <g id="patch_6">
    <path d="M 13.384375 -0 
L 119.404375 -0 
" style="fill:none;stroke:#000000;stroke-linecap:square;stroke-linejoin:miter;stroke-width:0.5;"/>
   </g>
  </g>
 </g>
 <defs>
  <clipPath id="paaaf9e3289">
   <rect height="103.284" width="106.02" x="13.384375" y="-0"/>
  </clipPath>
 </defs>
</svg>
