<?xml version="1.0" encoding="utf-8" standalone="no"?>
<!DOCTYPE svg PUBLIC "-//W3C//DTD SVG 1.1//EN"
  "http://www.w3.org/Graphics/SVG/1.1/DTD/svg11.dtd">
<svg height="128.249687pt" version="1.1" viewBox="0 0 138.946875 128.249687" width="138.946875pt" xmlns="http://www.w3.org/2000/svg" xmlns:xlink="http://www.w3.org/1999/xlink">
 <metadata>
  <rdf:RDF xmlns:cc="http://creativecommons.org/ns#" xmlns:dc="http://purl.org/dc/elements/1.1/" xmlns:rdf="http://www.w3.org/1999/02/22-rdf-syntax-ns#">
   <cc:Work>
    <dc:type rdf:resource="http://purl.org/dc/dcmitype/StillImage"/>
    <dc:date>2021-09-09T11:31:18.085368</dc:date>
    <dc:format>image/svg+xml</dc:format>
    <dc:creator>
     <cc:Agent>
      <dc:title>Matplotlib v3.4.3, https://matplotlib.org/</dc:title>
     </cc:Agent>
    </dc:creator>
   </cc:Work>
  </rdf:RDF>
 </metadata>
 <defs>
  <style type="text/css">*{stroke-linecap:butt;stroke-linejoin:round;}</style>
 </defs>
 <g id="figure_1">
  <g id="patch_1">
   <path d="M 0 128.249687 
L 138.946875 128.249687 
L 138.946875 0 
L 0 0 
z
" style="fill:none;"/>
  </g>
  <g id="axes_1">
   <g id="patch_2">
    <path d="M 27.346875 108.72 
L 138.946875 108.72 
L 138.946875 0 
L 27.346875 0 
z
" style="fill:none;"/>
   </g>
   <g id="matplotlib.axis_1">
    <g id="xtick_1">
     <g id="line2d_1">
      <defs>
       <path d="M 0 0 
L 0 -3.5 
" id="mec209dbe5c" style="stroke:#000000;stroke-width:0.5;"/>
      </defs>
      <g>
       <use style="stroke:#000000;stroke-width:0.5;" x="44.522771" xlink:href="#mec209dbe5c" y="108.72"/>
      </g>
     </g>
     <g id="line2d_2">
      <defs>
       <path d="M 0 0 
L 0 3.5 
" id="m5264120611" style="stroke:#000000;stroke-width:0.5;"/>
      </defs>
      <g>
       <use style="stroke:#000000;stroke-width:0.5;" x="44.522771" xlink:href="#m5264120611" y="0"/>
      </g>
     </g>
     <g id="text_1">
      <text style="font-family:Arial;font-size:10px;font-stretch:normal;font-style:normal;font-weight:normal;text-anchor:middle;" transform="rotate(-0, 44.522771, 116.877812)" x="44.522771" y="116.877812">1</text>
     </g>
    </g>
    <g id="xtick_2">
     <g id="line2d_3">
      <g>
       <use style="stroke:#000000;stroke-width:0.5;" x="85.845576" xlink:href="#mec209dbe5c" y="108.72"/>
      </g>
     </g>
     <g id="line2d_4">
      <g>
       <use style="stroke:#000000;stroke-width:0.5;" x="85.845576" xlink:href="#m5264120611" y="0"/>
      </g>
     </g>
     <g id="text_2">
      <text style="font-family:Arial;font-size:10px;font-stretch:normal;font-style:normal;font-weight:normal;text-anchor:middle;" transform="rotate(-0, 85.845576, 116.877812)" x="85.845576" y="116.877812">2</text>
     </g>
    </g>
    <g id="xtick_3">
     <g id="line2d_5">
      <g>
       <use style="stroke:#000000;stroke-width:0.5;" x="127.16838" xlink:href="#mec209dbe5c" y="108.72"/>
      </g>
     </g>
     <g id="line2d_6">
      <g>
       <use style="stroke:#000000;stroke-width:0.5;" x="127.16838" xlink:href="#m5264120611" y="0"/>
      </g>
     </g>
     <g id="text_3">
      <text style="font-family:Arial;font-size:10px;font-stretch:normal;font-style:normal;font-weight:normal;text-anchor:middle;" transform="rotate(-0, 127.16838, 116.877812)" x="127.16838" y="116.877812">3</text>
     </g>
    </g>
    <g id="xtick_4">
     <g id="line2d_7">
      <defs>
       <path d="M 0 0 
L 0 -2 
" id="m005b55c575" style="stroke:#000000;stroke-width:0.5;"/>
      </defs>
      <g>
       <use style="stroke:#000000;stroke-width:0.5;" x="27.99365" xlink:href="#m005b55c575" y="108.72"/>
      </g>
     </g>
     <g id="line2d_8">
      <defs>
       <path d="M 0 0 
L 0 2 
" id="m25904be0e9" style="stroke:#000000;stroke-width:0.5;"/>
      </defs>
      <g>
       <use style="stroke:#000000;stroke-width:0.5;" x="27.99365" xlink:href="#m25904be0e9" y="0"/>
      </g>
     </g>
    </g>
    <g id="xtick_5">
     <g id="line2d_9">
      <g>
       <use style="stroke:#000000;stroke-width:0.5;" x="36.258211" xlink:href="#m005b55c575" y="108.72"/>
      </g>
     </g>
     <g id="line2d_10">
      <g>
       <use style="stroke:#000000;stroke-width:0.5;" x="36.258211" xlink:href="#m25904be0e9" y="0"/>
      </g>
     </g>
    </g>
    <g id="xtick_6">
     <g id="line2d_11">
      <g>
       <use style="stroke:#000000;stroke-width:0.5;" x="52.787332" xlink:href="#m005b55c575" y="108.72"/>
      </g>
     </g>
     <g id="line2d_12">
      <g>
       <use style="stroke:#000000;stroke-width:0.5;" x="52.787332" xlink:href="#m25904be0e9" y="0"/>
      </g>
     </g>
    </g>
    <g id="xtick_7">
     <g id="line2d_13">
      <g>
       <use style="stroke:#000000;stroke-width:0.5;" x="61.051893" xlink:href="#m005b55c575" y="108.72"/>
      </g>
     </g>
     <g id="line2d_14">
      <g>
       <use style="stroke:#000000;stroke-width:0.5;" x="61.051893" xlink:href="#m25904be0e9" y="0"/>
      </g>
     </g>
    </g>
    <g id="xtick_8">
     <g id="line2d_15">
      <g>
       <use style="stroke:#000000;stroke-width:0.5;" x="69.316454" xlink:href="#m005b55c575" y="108.72"/>
      </g>
     </g>
     <g id="line2d_16">
      <g>
       <use style="stroke:#000000;stroke-width:0.5;" x="69.316454" xlink:href="#m25904be0e9" y="0"/>
      </g>
     </g>
    </g>
    <g id="xtick_9">
     <g id="line2d_17">
      <g>
       <use style="stroke:#000000;stroke-width:0.5;" x="77.581015" xlink:href="#m005b55c575" y="108.72"/>
      </g>
     </g>
     <g id="line2d_18">
      <g>
       <use style="stroke:#000000;stroke-width:0.5;" x="77.581015" xlink:href="#m25904be0e9" y="0"/>
      </g>
     </g>
    </g>
    <g id="xtick_10">
     <g id="line2d_19">
      <g>
       <use style="stroke:#000000;stroke-width:0.5;" x="94.110136" xlink:href="#m005b55c575" y="108.72"/>
      </g>
     </g>
     <g id="line2d_20">
      <g>
       <use style="stroke:#000000;stroke-width:0.5;" x="94.110136" xlink:href="#m25904be0e9" y="0"/>
      </g>
     </g>
    </g>
    <g id="xtick_11">
     <g id="line2d_21">
      <g>
       <use style="stroke:#000000;stroke-width:0.5;" x="102.374697" xlink:href="#m005b55c575" y="108.72"/>
      </g>
     </g>
     <g id="line2d_22">
      <g>
       <use style="stroke:#000000;stroke-width:0.5;" x="102.374697" xlink:href="#m25904be0e9" y="0"/>
      </g>
     </g>
    </g>
    <g id="xtick_12">
     <g id="line2d_23">
      <g>
       <use style="stroke:#000000;stroke-width:0.5;" x="110.639258" xlink:href="#m005b55c575" y="108.72"/>
      </g>
     </g>
     <g id="line2d_24">
      <g>
       <use style="stroke:#000000;stroke-width:0.5;" x="110.639258" xlink:href="#m25904be0e9" y="0"/>
      </g>
     </g>
    </g>
    <g id="xtick_13">
     <g id="line2d_25">
      <g>
       <use style="stroke:#000000;stroke-width:0.5;" x="118.903819" xlink:href="#m005b55c575" y="108.72"/>
      </g>
     </g>
     <g id="line2d_26">
      <g>
       <use style="stroke:#000000;stroke-width:0.5;" x="118.903819" xlink:href="#m25904be0e9" y="0"/>
      </g>
     </g>
    </g>
    <g id="xtick_14">
     <g id="line2d_27">
      <g>
       <use style="stroke:#000000;stroke-width:0.5;" x="135.432941" xlink:href="#m005b55c575" y="108.72"/>
      </g>
     </g>
     <g id="line2d_28">
      <g>
       <use style="stroke:#000000;stroke-width:0.5;" x="135.432941" xlink:href="#m25904be0e9" y="0"/>
      </g>
     </g>
    </g>
    <g id="text_4">
     <text style="font-family:Arial;font-size:10px;font-stretch:normal;font-style:normal;font-weight:normal;text-anchor:middle;" transform="rotate(-0, 83.146875, 126.145)" x="83.146875" y="126.145">V<tspan
   style="font-size:65%;baseline-shift:super"
   id="tspan15378">1/2</tspan></text>
    </g>
   </g>
   <g id="matplotlib.axis_2">
    <g id="ytick_1">
     <g id="line2d_29">
      <defs>
       <path d="M 0 0 
L 3.5 0 
" id="m79408fdb26" style="stroke:#000000;stroke-width:0.5;"/>
      </defs>
      <g>
       <use style="stroke:#000000;stroke-width:0.5;" x="27.346875" xlink:href="#m79408fdb26" y="98.776187"/>
      </g>
     </g>
     <g id="line2d_30">
      <defs>
       <path d="M 0 0 
L -3.5 0 
" id="mbd928b94ac" style="stroke:#000000;stroke-width:0.5;"/>
      </defs>
      <g>
       <use style="stroke:#000000;stroke-width:0.5;" x="138.946875" xlink:href="#mbd928b94ac" y="98.776187"/>
      </g>
     </g>
     <g id="text_5">
      <text style="font-family:Arial;font-size:10px;font-stretch:normal;font-style:normal;font-weight:normal;text-anchor:end;" transform="rotate(-0, 26.346875, 102.355093)" x="26.346875" y="102.355093">−20</text>
     </g>
    </g>
    <g id="ytick_2">
     <g id="line2d_31">
      <g>
       <use style="stroke:#000000;stroke-width:0.5;" x="27.346875" xlink:href="#m79408fdb26" y="76.291651"/>
      </g>
     </g>
     <g id="line2d_32">
      <g>
       <use style="stroke:#000000;stroke-width:0.5;" x="138.946875" xlink:href="#mbd928b94ac" y="76.291651"/>
      </g>
     </g>
     <g id="text_6">
      <text style="font-family:Arial;font-size:10px;font-stretch:normal;font-style:normal;font-weight:normal;text-anchor:end;" transform="rotate(-0, 26.346875, 79.870557)" x="26.346875" y="79.870557">−19</text>
     </g>
    </g>
    <g id="ytick_3">
     <g id="line2d_33">
      <g>
       <use style="stroke:#000000;stroke-width:0.5;" x="27.346875" xlink:href="#m79408fdb26" y="53.807115"/>
      </g>
     </g>
     <g id="line2d_34">
      <g>
       <use style="stroke:#000000;stroke-width:0.5;" x="138.946875" xlink:href="#mbd928b94ac" y="53.807115"/>
      </g>
     </g>
     <g id="text_7">
      <text style="font-family:Arial;font-size:10px;font-stretch:normal;font-style:normal;font-weight:normal;text-anchor:end;" transform="rotate(-0, 26.346875, 57.386021)" x="26.346875" y="57.386021">−18</text>
     </g>
    </g>
    <g id="ytick_4">
     <g id="line2d_35">
      <g>
       <use style="stroke:#000000;stroke-width:0.5;" x="27.346875" xlink:href="#m79408fdb26" y="31.322579"/>
      </g>
     </g>
     <g id="line2d_36">
      <g>
       <use style="stroke:#000000;stroke-width:0.5;" x="138.946875" xlink:href="#mbd928b94ac" y="31.322579"/>
      </g>
     </g>
     <g id="text_8">
      <text style="font-family:Arial;font-size:10px;font-stretch:normal;font-style:normal;font-weight:normal;text-anchor:end;" transform="rotate(-0, 26.346875, 34.901485)" x="26.346875" y="34.901485">−17</text>
     </g>
    </g>
    <g id="ytick_5">
     <g id="line2d_37">
      <g>
       <use style="stroke:#000000;stroke-width:0.5;" x="27.346875" xlink:href="#m79408fdb26" y="8.838042"/>
      </g>
     </g>
     <g id="line2d_38">
      <g>
       <use style="stroke:#000000;stroke-width:0.5;" x="138.946875" xlink:href="#mbd928b94ac" y="8.838042"/>
      </g>
     </g>
     <g id="text_9">
      <text style="font-family:Arial;font-size:10px;font-stretch:normal;font-style:normal;font-weight:normal;text-anchor:end;" transform="rotate(-0, 26.346875, 12.416949)" x="26.346875" y="12.416949">−16</text>
     </g>
    </g>
    <g id="ytick_6">
     <g id="line2d_39">
      <defs>
       <path d="M 0 0 
L 2 0 
" id="mf299f8d823" style="stroke:#000000;stroke-width:0.5;"/>
      </defs>
      <g>
       <use style="stroke:#000000;stroke-width:0.5;" x="27.346875" xlink:href="#mf299f8d823" y="107.770001"/>
      </g>
     </g>
     <g id="line2d_40">
      <defs>
       <path d="M 0 0 
L -2 0 
" id="m31f920cf00" style="stroke:#000000;stroke-width:0.5;"/>
      </defs>
      <g>
       <use style="stroke:#000000;stroke-width:0.5;" x="138.946875" xlink:href="#m31f920cf00" y="107.770001"/>
      </g>
     </g>
    </g>
    <g id="ytick_7">
     <g id="line2d_41">
      <g>
       <use style="stroke:#000000;stroke-width:0.5;" x="27.346875" xlink:href="#mf299f8d823" y="103.273094"/>
      </g>
     </g>
     <g id="line2d_42">
      <g>
       <use style="stroke:#000000;stroke-width:0.5;" x="138.946875" xlink:href="#m31f920cf00" y="103.273094"/>
      </g>
     </g>
    </g>
    <g id="ytick_8">
     <g id="line2d_43">
      <g>
       <use style="stroke:#000000;stroke-width:0.5;" x="27.346875" xlink:href="#mf299f8d823" y="94.279279"/>
      </g>
     </g>
     <g id="line2d_44">
      <g>
       <use style="stroke:#000000;stroke-width:0.5;" x="138.946875" xlink:href="#m31f920cf00" y="94.279279"/>
      </g>
     </g>
    </g>
    <g id="ytick_9">
     <g id="line2d_45">
      <g>
       <use style="stroke:#000000;stroke-width:0.5;" x="27.346875" xlink:href="#mf299f8d823" y="89.782372"/>
      </g>
     </g>
     <g id="line2d_46">
      <g>
       <use style="stroke:#000000;stroke-width:0.5;" x="138.946875" xlink:href="#m31f920cf00" y="89.782372"/>
      </g>
     </g>
    </g>
    <g id="ytick_10">
     <g id="line2d_47">
      <g>
       <use style="stroke:#000000;stroke-width:0.5;" x="27.346875" xlink:href="#mf299f8d823" y="85.285465"/>
      </g>
     </g>
     <g id="line2d_48">
      <g>
       <use style="stroke:#000000;stroke-width:0.5;" x="138.946875" xlink:href="#m31f920cf00" y="85.285465"/>
      </g>
     </g>
    </g>
    <g id="ytick_11">
     <g id="line2d_49">
      <g>
       <use style="stroke:#000000;stroke-width:0.5;" x="27.346875" xlink:href="#mf299f8d823" y="80.788558"/>
      </g>
     </g>
     <g id="line2d_50">
      <g>
       <use style="stroke:#000000;stroke-width:0.5;" x="138.946875" xlink:href="#m31f920cf00" y="80.788558"/>
      </g>
     </g>
    </g>
    <g id="ytick_12">
     <g id="line2d_51">
      <g>
       <use style="stroke:#000000;stroke-width:0.5;" x="27.346875" xlink:href="#mf299f8d823" y="71.794743"/>
      </g>
     </g>
     <g id="line2d_52">
      <g>
       <use style="stroke:#000000;stroke-width:0.5;" x="138.946875" xlink:href="#m31f920cf00" y="71.794743"/>
      </g>
     </g>
    </g>
    <g id="ytick_13">
     <g id="line2d_53">
      <g>
       <use style="stroke:#000000;stroke-width:0.5;" x="27.346875" xlink:href="#mf299f8d823" y="67.297836"/>
      </g>
     </g>
     <g id="line2d_54">
      <g>
       <use style="stroke:#000000;stroke-width:0.5;" x="138.946875" xlink:href="#m31f920cf00" y="67.297836"/>
      </g>
     </g>
    </g>
    <g id="ytick_14">
     <g id="line2d_55">
      <g>
       <use style="stroke:#000000;stroke-width:0.5;" x="27.346875" xlink:href="#mf299f8d823" y="62.800929"/>
      </g>
     </g>
     <g id="line2d_56">
      <g>
       <use style="stroke:#000000;stroke-width:0.5;" x="138.946875" xlink:href="#m31f920cf00" y="62.800929"/>
      </g>
     </g>
    </g>
    <g id="ytick_15">
     <g id="line2d_57">
      <g>
       <use style="stroke:#000000;stroke-width:0.5;" x="27.346875" xlink:href="#mf299f8d823" y="58.304022"/>
      </g>
     </g>
     <g id="line2d_58">
      <g>
       <use style="stroke:#000000;stroke-width:0.5;" x="138.946875" xlink:href="#m31f920cf00" y="58.304022"/>
      </g>
     </g>
    </g>
    <g id="ytick_16">
     <g id="line2d_59">
      <g>
       <use style="stroke:#000000;stroke-width:0.5;" x="27.346875" xlink:href="#mf299f8d823" y="49.310207"/>
      </g>
     </g>
     <g id="line2d_60">
      <g>
       <use style="stroke:#000000;stroke-width:0.5;" x="138.946875" xlink:href="#m31f920cf00" y="49.310207"/>
      </g>
     </g>
    </g>
    <g id="ytick_17">
     <g id="line2d_61">
      <g>
       <use style="stroke:#000000;stroke-width:0.5;" x="27.346875" xlink:href="#mf299f8d823" y="44.8133"/>
      </g>
     </g>
     <g id="line2d_62">
      <g>
       <use style="stroke:#000000;stroke-width:0.5;" x="138.946875" xlink:href="#m31f920cf00" y="44.8133"/>
      </g>
     </g>
    </g>
    <g id="ytick_18">
     <g id="line2d_63">
      <g>
       <use style="stroke:#000000;stroke-width:0.5;" x="27.346875" xlink:href="#mf299f8d823" y="40.316393"/>
      </g>
     </g>
     <g id="line2d_64">
      <g>
       <use style="stroke:#000000;stroke-width:0.5;" x="138.946875" xlink:href="#m31f920cf00" y="40.316393"/>
      </g>
     </g>
    </g>
    <g id="ytick_19">
     <g id="line2d_65">
      <g>
       <use style="stroke:#000000;stroke-width:0.5;" x="27.346875" xlink:href="#mf299f8d823" y="35.819486"/>
      </g>
     </g>
     <g id="line2d_66">
      <g>
       <use style="stroke:#000000;stroke-width:0.5;" x="138.946875" xlink:href="#m31f920cf00" y="35.819486"/>
      </g>
     </g>
    </g>
    <g id="ytick_20">
     <g id="line2d_67">
      <g>
       <use style="stroke:#000000;stroke-width:0.5;" x="27.346875" xlink:href="#mf299f8d823" y="26.825671"/>
      </g>
     </g>
     <g id="line2d_68">
      <g>
       <use style="stroke:#000000;stroke-width:0.5;" x="138.946875" xlink:href="#m31f920cf00" y="26.825671"/>
      </g>
     </g>
    </g>
    <g id="ytick_21">
     <g id="line2d_69">
      <g>
       <use style="stroke:#000000;stroke-width:0.5;" x="27.346875" xlink:href="#mf299f8d823" y="22.328764"/>
      </g>
     </g>
     <g id="line2d_70">
      <g>
       <use style="stroke:#000000;stroke-width:0.5;" x="138.946875" xlink:href="#m31f920cf00" y="22.328764"/>
      </g>
     </g>
    </g>
    <g id="ytick_22">
     <g id="line2d_71">
      <g>
       <use style="stroke:#000000;stroke-width:0.5;" x="27.346875" xlink:href="#mf299f8d823" y="17.831857"/>
      </g>
     </g>
     <g id="line2d_72">
      <g>
       <use style="stroke:#000000;stroke-width:0.5;" x="138.946875" xlink:href="#m31f920cf00" y="17.831857"/>
      </g>
     </g>
    </g>
    <g id="ytick_23">
     <g id="line2d_73">
      <g>
       <use style="stroke:#000000;stroke-width:0.5;" x="27.346875" xlink:href="#mf299f8d823" y="13.33495"/>
      </g>
     </g>
     <g id="line2d_74">
      <g>
       <use style="stroke:#000000;stroke-width:0.5;" x="138.946875" xlink:href="#m31f920cf00" y="13.33495"/>
      </g>
     </g>
    </g>
    <g id="ytick_24">
     <g id="line2d_75">
      <g>
       <use style="stroke:#000000;stroke-width:0.5;" x="27.346875" xlink:href="#mf299f8d823" y="4.341135"/>
      </g>
     </g>
     <g id="line2d_76">
      <g>
       <use style="stroke:#000000;stroke-width:0.5;" x="138.946875" xlink:href="#m31f920cf00" y="4.341135"/>
      </g>
     </g>
    </g>
    <g id="text_10">
     <text style="font-family:Arial;font-size:10px;font-stretch:normal;font-style:normal;font-weight:normal;text-anchor:middle;" transform="rotate(-90, 7.279688, 54.36)" x="7.279688" y="54.36">ln(I/V)</text>
    </g>
   </g>
   <g id="line2d_77">
    <path clip-path="url(#p00687c9336)" d="M 32.419602 97.025453 
L 44.522771 100.081269 
L 53.80986 101.627315 
L 61.639237 102.584018 
L 68.537057 103.778182 
L 74.773164 101.575447 
L 80.507855 100.0975 
L 85.845576 96.773552 
L 90.858872 94.140495 
L 95.600566 91.667512 
L 100.110533 89.624919 
L 104.419752 87.610728 
L 108.55286 86.439598 
L 112.529831 85.732014 
L 116.367127 85.547989 
L 120.078507 85.827498 
L 123.675609 86.125608 
L 127.16838 86.211788 
L 130.565404 86.23326 
L 133.874148 86.292637 
" style="fill:none;stroke:#e41a1c;stroke-linecap:square;stroke-width:1.5;"/>
    <defs>
     <path d="M 0 0.75 
C 0.198902 0.75 0.389685 0.670975 0.53033 0.53033 
C 0.670975 0.389685 0.75 0.198902 0.75 0 
C 0.75 -0.198902 0.670975 -0.389685 0.53033 -0.53033 
C 0.389685 -0.670975 0.198902 -0.75 0 -0.75 
C -0.198902 -0.75 -0.389685 -0.670975 -0.53033 -0.53033 
C -0.670975 -0.389685 -0.75 -0.198902 -0.75 0 
C -0.75 0.198902 -0.670975 0.389685 -0.53033 0.53033 
C -0.389685 0.670975 -0.198902 0.75 0 0.75 
z
" id="m6c9e3be80e" style="stroke:#e41a1c;"/>
    </defs>
    <g clip-path="url(#p00687c9336)">
     <use style="fill:#e41a1c;stroke:#e41a1c;" x="32.419602" xlink:href="#m6c9e3be80e" y="97.025453"/>
     <use style="fill:#e41a1c;stroke:#e41a1c;" x="44.522771" xlink:href="#m6c9e3be80e" y="100.081269"/>
     <use style="fill:#e41a1c;stroke:#e41a1c;" x="53.80986" xlink:href="#m6c9e3be80e" y="101.627315"/>
     <use style="fill:#e41a1c;stroke:#e41a1c;" x="61.639237" xlink:href="#m6c9e3be80e" y="102.584018"/>
     <use style="fill:#e41a1c;stroke:#e41a1c;" x="68.537057" xlink:href="#m6c9e3be80e" y="103.778182"/>
     <use style="fill:#e41a1c;stroke:#e41a1c;" x="74.773164" xlink:href="#m6c9e3be80e" y="101.575447"/>
     <use style="fill:#e41a1c;stroke:#e41a1c;" x="80.507855" xlink:href="#m6c9e3be80e" y="100.0975"/>
     <use style="fill:#e41a1c;stroke:#e41a1c;" x="85.845576" xlink:href="#m6c9e3be80e" y="96.773552"/>
     <use style="fill:#e41a1c;stroke:#e41a1c;" x="90.858872" xlink:href="#m6c9e3be80e" y="94.140495"/>
     <use style="fill:#e41a1c;stroke:#e41a1c;" x="95.600566" xlink:href="#m6c9e3be80e" y="91.667512"/>
     <use style="fill:#e41a1c;stroke:#e41a1c;" x="100.110533" xlink:href="#m6c9e3be80e" y="89.624919"/>
     <use style="fill:#e41a1c;stroke:#e41a1c;" x="104.419752" xlink:href="#m6c9e3be80e" y="87.610728"/>
     <use style="fill:#e41a1c;stroke:#e41a1c;" x="108.55286" xlink:href="#m6c9e3be80e" y="86.439598"/>
     <use style="fill:#e41a1c;stroke:#e41a1c;" x="112.529831" xlink:href="#m6c9e3be80e" y="85.732014"/>
     <use style="fill:#e41a1c;stroke:#e41a1c;" x="116.367127" xlink:href="#m6c9e3be80e" y="85.547989"/>
     <use style="fill:#e41a1c;stroke:#e41a1c;" x="120.078507" xlink:href="#m6c9e3be80e" y="85.827498"/>
     <use style="fill:#e41a1c;stroke:#e41a1c;" x="123.675609" xlink:href="#m6c9e3be80e" y="86.125608"/>
     <use style="fill:#e41a1c;stroke:#e41a1c;" x="127.16838" xlink:href="#m6c9e3be80e" y="86.211788"/>
     <use style="fill:#e41a1c;stroke:#e41a1c;" x="130.565404" xlink:href="#m6c9e3be80e" y="86.23326"/>
     <use style="fill:#e41a1c;stroke:#e41a1c;" x="133.874148" xlink:href="#m6c9e3be80e" y="86.292637"/>
    </g>
   </g>
   <g id="line2d_78">
    <path clip-path="url(#p00687c9336)" d="M 32.419602 55.845755 
L 44.522771 57.041281 
L 53.80986 57.513947 
L 61.639237 58.630415 
L 68.537057 60.890294 
L 74.773164 63.000046 
L 80.507855 65.20902 
L 85.845576 67.046941 
L 90.858872 67.324027 
L 95.600566 68.162937 
L 100.110533 69.060682 
L 104.419752 70.382169 
L 108.55286 71.12053 
L 112.529831 71.1562 
L 116.367127 72.159619 
L 120.078507 73.234309 
L 123.675609 73.644872 
L 127.16838 73.62554 
L 130.565404 74.091854 
L 133.874148 74.939761 
" style="fill:none;stroke:#ff7f00;stroke-linecap:square;stroke-width:1.5;"/>
    <defs>
     <path d="M 0 0.75 
C 0.198902 0.75 0.389685 0.670975 0.53033 0.53033 
C 0.670975 0.389685 0.75 0.198902 0.75 0 
C 0.75 -0.198902 0.670975 -0.389685 0.53033 -0.53033 
C 0.389685 -0.670975 0.198902 -0.75 0 -0.75 
C -0.198902 -0.75 -0.389685 -0.670975 -0.53033 -0.53033 
C -0.670975 -0.389685 -0.75 -0.198902 -0.75 0 
C -0.75 0.198902 -0.670975 0.389685 -0.53033 0.53033 
C -0.389685 0.670975 -0.198902 0.75 0 0.75 
z
" id="m4a43f28e4e" style="stroke:#ff7f00;"/>
    </defs>
    <g clip-path="url(#p00687c9336)">
     <use style="fill:#ff7f00;stroke:#ff7f00;" x="32.419602" xlink:href="#m4a43f28e4e" y="55.845755"/>
     <use style="fill:#ff7f00;stroke:#ff7f00;" x="44.522771" xlink:href="#m4a43f28e4e" y="57.041281"/>
     <use style="fill:#ff7f00;stroke:#ff7f00;" x="53.80986" xlink:href="#m4a43f28e4e" y="57.513947"/>
     <use style="fill:#ff7f00;stroke:#ff7f00;" x="61.639237" xlink:href="#m4a43f28e4e" y="58.630415"/>
     <use style="fill:#ff7f00;stroke:#ff7f00;" x="68.537057" xlink:href="#m4a43f28e4e" y="60.890294"/>
     <use style="fill:#ff7f00;stroke:#ff7f00;" x="74.773164" xlink:href="#m4a43f28e4e" y="63.000046"/>
     <use style="fill:#ff7f00;stroke:#ff7f00;" x="80.507855" xlink:href="#m4a43f28e4e" y="65.20902"/>
     <use style="fill:#ff7f00;stroke:#ff7f00;" x="85.845576" xlink:href="#m4a43f28e4e" y="67.046941"/>
     <use style="fill:#ff7f00;stroke:#ff7f00;" x="90.858872" xlink:href="#m4a43f28e4e" y="67.324027"/>
     <use style="fill:#ff7f00;stroke:#ff7f00;" x="95.600566" xlink:href="#m4a43f28e4e" y="68.162937"/>
     <use style="fill:#ff7f00;stroke:#ff7f00;" x="100.110533" xlink:href="#m4a43f28e4e" y="69.060682"/>
     <use style="fill:#ff7f00;stroke:#ff7f00;" x="104.419752" xlink:href="#m4a43f28e4e" y="70.382169"/>
     <use style="fill:#ff7f00;stroke:#ff7f00;" x="108.55286" xlink:href="#m4a43f28e4e" y="71.12053"/>
     <use style="fill:#ff7f00;stroke:#ff7f00;" x="112.529831" xlink:href="#m4a43f28e4e" y="71.1562"/>
     <use style="fill:#ff7f00;stroke:#ff7f00;" x="116.367127" xlink:href="#m4a43f28e4e" y="72.159619"/>
     <use style="fill:#ff7f00;stroke:#ff7f00;" x="120.078507" xlink:href="#m4a43f28e4e" y="73.234309"/>
     <use style="fill:#ff7f00;stroke:#ff7f00;" x="123.675609" xlink:href="#m4a43f28e4e" y="73.644872"/>
     <use style="fill:#ff7f00;stroke:#ff7f00;" x="127.16838" xlink:href="#m4a43f28e4e" y="73.62554"/>
     <use style="fill:#ff7f00;stroke:#ff7f00;" x="130.565404" xlink:href="#m4a43f28e4e" y="74.091854"/>
     <use style="fill:#ff7f00;stroke:#ff7f00;" x="133.874148" xlink:href="#m4a43f28e4e" y="74.939761"/>
    </g>
   </g>
   <g id="line2d_79">
    <path clip-path="url(#p00687c9336)" d="M 32.419602 40.771386 
L 44.522771 42.735805 
L 53.80986 43.699072 
L 61.639237 45.143324 
L 68.537057 46.747906 
L 74.773164 49.651681 
L 80.507855 51.286192 
L 85.845576 53.44093 
L 90.858872 54.690905 
L 95.600566 56.106428 
L 100.110533 57.473548 
L 104.419752 58.510341 
L 108.55286 59.501897 
L 112.529831 59.747457 
L 116.367127 60.953107 
L 120.078507 61.496105 
L 123.675609 62.091669 
L 127.16838 62.522143 
L 130.565404 62.317348 
L 133.874148 62.669315 
" style="fill:none;stroke:#984ea3;stroke-linecap:square;stroke-width:1.5;"/>
    <defs>
     <path d="M 0 0.75 
C 0.198902 0.75 0.389685 0.670975 0.53033 0.53033 
C 0.670975 0.389685 0.75 0.198902 0.75 0 
C 0.75 -0.198902 0.670975 -0.389685 0.53033 -0.53033 
C 0.389685 -0.670975 0.198902 -0.75 0 -0.75 
C -0.198902 -0.75 -0.389685 -0.670975 -0.53033 -0.53033 
C -0.670975 -0.389685 -0.75 -0.198902 -0.75 0 
C -0.75 0.198902 -0.670975 0.389685 -0.53033 0.53033 
C -0.389685 0.670975 -0.198902 0.75 0 0.75 
z
" id="m616ac17b1e" style="stroke:#984ea3;"/>
    </defs>
    <g clip-path="url(#p00687c9336)">
     <use style="fill:#984ea3;stroke:#984ea3;" x="32.419602" xlink:href="#m616ac17b1e" y="40.771386"/>
     <use style="fill:#984ea3;stroke:#984ea3;" x="44.522771" xlink:href="#m616ac17b1e" y="42.735805"/>
     <use style="fill:#984ea3;stroke:#984ea3;" x="53.80986" xlink:href="#m616ac17b1e" y="43.699072"/>
     <use style="fill:#984ea3;stroke:#984ea3;" x="61.639237" xlink:href="#m616ac17b1e" y="45.143324"/>
     <use style="fill:#984ea3;stroke:#984ea3;" x="68.537057" xlink:href="#m616ac17b1e" y="46.747906"/>
     <use style="fill:#984ea3;stroke:#984ea3;" x="74.773164" xlink:href="#m616ac17b1e" y="49.651681"/>
     <use style="fill:#984ea3;stroke:#984ea3;" x="80.507855" xlink:href="#m616ac17b1e" y="51.286192"/>
     <use style="fill:#984ea3;stroke:#984ea3;" x="85.845576" xlink:href="#m616ac17b1e" y="53.44093"/>
     <use style="fill:#984ea3;stroke:#984ea3;" x="90.858872" xlink:href="#m616ac17b1e" y="54.690905"/>
     <use style="fill:#984ea3;stroke:#984ea3;" x="95.600566" xlink:href="#m616ac17b1e" y="56.106428"/>
     <use style="fill:#984ea3;stroke:#984ea3;" x="100.110533" xlink:href="#m616ac17b1e" y="57.473548"/>
     <use style="fill:#984ea3;stroke:#984ea3;" x="104.419752" xlink:href="#m616ac17b1e" y="58.510341"/>
     <use style="fill:#984ea3;stroke:#984ea3;" x="108.55286" xlink:href="#m616ac17b1e" y="59.501897"/>
     <use style="fill:#984ea3;stroke:#984ea3;" x="112.529831" xlink:href="#m616ac17b1e" y="59.747457"/>
     <use style="fill:#984ea3;stroke:#984ea3;" x="116.367127" xlink:href="#m616ac17b1e" y="60.953107"/>
     <use style="fill:#984ea3;stroke:#984ea3;" x="120.078507" xlink:href="#m616ac17b1e" y="61.496105"/>
     <use style="fill:#984ea3;stroke:#984ea3;" x="123.675609" xlink:href="#m616ac17b1e" y="62.091669"/>
     <use style="fill:#984ea3;stroke:#984ea3;" x="127.16838" xlink:href="#m616ac17b1e" y="62.522143"/>
     <use style="fill:#984ea3;stroke:#984ea3;" x="130.565404" xlink:href="#m616ac17b1e" y="62.317348"/>
     <use style="fill:#984ea3;stroke:#984ea3;" x="133.874148" xlink:href="#m616ac17b1e" y="62.669315"/>
    </g>
   </g>
   <g id="line2d_80">
    <path clip-path="url(#p00687c9336)" d="M 32.419602 30.181969 
L 44.522771 31.207562 
L 53.80986 32.20599 
L 61.639237 33.358935 
L 68.537057 35.118349 
L 74.773164 36.728244 
L 80.507855 38.743285 
L 85.845576 40.040892 
L 90.858872 41.865426 
L 95.600566 43.012181 
L 100.110533 44.266001 
L 104.419752 45.709345 
L 108.55286 46.955073 
L 112.529831 47.945128 
L 116.367127 48.394435 
L 120.078507 49.403954 
L 123.675609 50.44815 
L 127.16838 51.644033 
L 130.565404 51.409955 
L 133.874148 52.574613 
" style="fill:none;stroke:#a65628;stroke-linecap:square;stroke-width:1.5;"/>
    <defs>
     <path d="M 0 0.75 
C 0.198902 0.75 0.389685 0.670975 0.53033 0.53033 
C 0.670975 0.389685 0.75 0.198902 0.75 0 
C 0.75 -0.198902 0.670975 -0.389685 0.53033 -0.53033 
C 0.389685 -0.670975 0.198902 -0.75 0 -0.75 
C -0.198902 -0.75 -0.389685 -0.670975 -0.53033 -0.53033 
C -0.670975 -0.389685 -0.75 -0.198902 -0.75 0 
C -0.75 0.198902 -0.670975 0.389685 -0.53033 0.53033 
C -0.389685 0.670975 -0.198902 0.75 0 0.75 
z
" id="mc1d2680fb1" style="stroke:#a65628;"/>
    </defs>
    <g clip-path="url(#p00687c9336)">
     <use style="fill:#a65628;stroke:#a65628;" x="32.419602" xlink:href="#mc1d2680fb1" y="30.181969"/>
     <use style="fill:#a65628;stroke:#a65628;" x="44.522771" xlink:href="#mc1d2680fb1" y="31.207562"/>
     <use style="fill:#a65628;stroke:#a65628;" x="53.80986" xlink:href="#mc1d2680fb1" y="32.20599"/>
     <use style="fill:#a65628;stroke:#a65628;" x="61.639237" xlink:href="#mc1d2680fb1" y="33.358935"/>
     <use style="fill:#a65628;stroke:#a65628;" x="68.537057" xlink:href="#mc1d2680fb1" y="35.118349"/>
     <use style="fill:#a65628;stroke:#a65628;" x="74.773164" xlink:href="#mc1d2680fb1" y="36.728244"/>
     <use style="fill:#a65628;stroke:#a65628;" x="80.507855" xlink:href="#mc1d2680fb1" y="38.743285"/>
     <use style="fill:#a65628;stroke:#a65628;" x="85.845576" xlink:href="#mc1d2680fb1" y="40.040892"/>
     <use style="fill:#a65628;stroke:#a65628;" x="90.858872" xlink:href="#mc1d2680fb1" y="41.865426"/>
     <use style="fill:#a65628;stroke:#a65628;" x="95.600566" xlink:href="#mc1d2680fb1" y="43.012181"/>
     <use style="fill:#a65628;stroke:#a65628;" x="100.110533" xlink:href="#mc1d2680fb1" y="44.266001"/>
     <use style="fill:#a65628;stroke:#a65628;" x="104.419752" xlink:href="#mc1d2680fb1" y="45.709345"/>
     <use style="fill:#a65628;stroke:#a65628;" x="108.55286" xlink:href="#mc1d2680fb1" y="46.955073"/>
     <use style="fill:#a65628;stroke:#a65628;" x="112.529831" xlink:href="#mc1d2680fb1" y="47.945128"/>
     <use style="fill:#a65628;stroke:#a65628;" x="116.367127" xlink:href="#mc1d2680fb1" y="48.394435"/>
     <use style="fill:#a65628;stroke:#a65628;" x="120.078507" xlink:href="#mc1d2680fb1" y="49.403954"/>
     <use style="fill:#a65628;stroke:#a65628;" x="123.675609" xlink:href="#mc1d2680fb1" y="50.44815"/>
     <use style="fill:#a65628;stroke:#a65628;" x="127.16838" xlink:href="#mc1d2680fb1" y="51.644033"/>
     <use style="fill:#a65628;stroke:#a65628;" x="130.565404" xlink:href="#mc1d2680fb1" y="51.409955"/>
     <use style="fill:#a65628;stroke:#a65628;" x="133.874148" xlink:href="#mc1d2680fb1" y="52.574613"/>
    </g>
   </g>
   <g id="line2d_81">
    <path clip-path="url(#p00687c9336)" d="M 32.419602 17.866725 
L 44.522771 19.476701 
L 53.80986 21.081303 
L 61.639237 22.867216 
L 68.537057 24.242434 
L 74.773164 26.59901 
L 80.507855 28.088254 
L 85.845576 29.437767 
L 90.858872 30.623967 
L 95.600566 32.059475 
L 100.110533 33.151602 
L 104.419752 34.061137 
L 108.55286 35.200906 
L 112.529831 36.09385 
L 116.367127 36.453855 
L 120.078507 37.372908 
L 123.675609 38.165254 
L 127.16838 38.630014 
L 130.565404 40.096979 
L 133.874148 40.805986 
" style="fill:none;stroke:#4daf4a;stroke-linecap:square;stroke-width:1.5;"/>
    <defs>
     <path d="M 0 0.75 
C 0.198902 0.75 0.389685 0.670975 0.53033 0.53033 
C 0.670975 0.389685 0.75 0.198902 0.75 0 
C 0.75 -0.198902 0.670975 -0.389685 0.53033 -0.53033 
C 0.389685 -0.670975 0.198902 -0.75 0 -0.75 
C -0.198902 -0.75 -0.389685 -0.670975 -0.53033 -0.53033 
C -0.670975 -0.389685 -0.75 -0.198902 -0.75 0 
C -0.75 0.198902 -0.670975 0.389685 -0.53033 0.53033 
C -0.389685 0.670975 -0.198902 0.75 0 0.75 
z
" id="mfc9fdd1b57" style="stroke:#4daf4a;"/>
    </defs>
    <g clip-path="url(#p00687c9336)">
     <use style="fill:#4daf4a;stroke:#4daf4a;" x="32.419602" xlink:href="#mfc9fdd1b57" y="17.866725"/>
     <use style="fill:#4daf4a;stroke:#4daf4a;" x="44.522771" xlink:href="#mfc9fdd1b57" y="19.476701"/>
     <use style="fill:#4daf4a;stroke:#4daf4a;" x="53.80986" xlink:href="#mfc9fdd1b57" y="21.081303"/>
     <use style="fill:#4daf4a;stroke:#4daf4a;" x="61.639237" xlink:href="#mfc9fdd1b57" y="22.867216"/>
     <use style="fill:#4daf4a;stroke:#4daf4a;" x="68.537057" xlink:href="#mfc9fdd1b57" y="24.242434"/>
     <use style="fill:#4daf4a;stroke:#4daf4a;" x="74.773164" xlink:href="#mfc9fdd1b57" y="26.59901"/>
     <use style="fill:#4daf4a;stroke:#4daf4a;" x="80.507855" xlink:href="#mfc9fdd1b57" y="28.088254"/>
     <use style="fill:#4daf4a;stroke:#4daf4a;" x="85.845576" xlink:href="#mfc9fdd1b57" y="29.437767"/>
     <use style="fill:#4daf4a;stroke:#4daf4a;" x="90.858872" xlink:href="#mfc9fdd1b57" y="30.623967"/>
     <use style="fill:#4daf4a;stroke:#4daf4a;" x="95.600566" xlink:href="#mfc9fdd1b57" y="32.059475"/>
     <use style="fill:#4daf4a;stroke:#4daf4a;" x="100.110533" xlink:href="#mfc9fdd1b57" y="33.151602"/>
     <use style="fill:#4daf4a;stroke:#4daf4a;" x="104.419752" xlink:href="#mfc9fdd1b57" y="34.061137"/>
     <use style="fill:#4daf4a;stroke:#4daf4a;" x="108.55286" xlink:href="#mfc9fdd1b57" y="35.200906"/>
     <use style="fill:#4daf4a;stroke:#4daf4a;" x="112.529831" xlink:href="#mfc9fdd1b57" y="36.09385"/>
     <use style="fill:#4daf4a;stroke:#4daf4a;" x="116.367127" xlink:href="#mfc9fdd1b57" y="36.453855"/>
     <use style="fill:#4daf4a;stroke:#4daf4a;" x="120.078507" xlink:href="#mfc9fdd1b57" y="37.372908"/>
     <use style="fill:#4daf4a;stroke:#4daf4a;" x="123.675609" xlink:href="#mfc9fdd1b57" y="38.165254"/>
     <use style="fill:#4daf4a;stroke:#4daf4a;" x="127.16838" xlink:href="#mfc9fdd1b57" y="38.630014"/>
     <use style="fill:#4daf4a;stroke:#4daf4a;" x="130.565404" xlink:href="#mfc9fdd1b57" y="40.096979"/>
     <use style="fill:#4daf4a;stroke:#4daf4a;" x="133.874148" xlink:href="#mfc9fdd1b57" y="40.805986"/>
    </g>
   </g>
   <g id="line2d_82">
    <path clip-path="url(#p00687c9336)" d="M 32.419602 9.843931 
L 44.522771 11.260264 
L 53.80986 13.005823 
L 61.639237 15.055523 
L 68.537057 17.306835 
L 74.773164 19.26713 
L 80.507855 21.122844 
L 85.845576 22.116704 
L 90.858872 23.212937 
L 95.600566 24.221683 
L 100.110533 25.464074 
L 104.419752 26.05823 
L 108.55286 26.989515 
L 112.529831 27.772792 
L 116.367127 28.459855 
L 120.078507 29.184146 
L 123.675609 30.047531 
L 127.16838 30.808206 
L 130.565404 31.075836 
L 133.874148 31.62859 
" style="fill:none;stroke:#999999;stroke-linecap:square;stroke-width:1.5;"/>
    <defs>
     <path d="M 0 0.75 
C 0.198902 0.75 0.389685 0.670975 0.53033 0.53033 
C 0.670975 0.389685 0.75 0.198902 0.75 0 
C 0.75 -0.198902 0.670975 -0.389685 0.53033 -0.53033 
C 0.389685 -0.670975 0.198902 -0.75 0 -0.75 
C -0.198902 -0.75 -0.389685 -0.670975 -0.53033 -0.53033 
C -0.670975 -0.389685 -0.75 -0.198902 -0.75 0 
C -0.75 0.198902 -0.670975 0.389685 -0.53033 0.53033 
C -0.389685 0.670975 -0.198902 0.75 0 0.75 
z
" id="m1c7298f99b" style="stroke:#999999;"/>
    </defs>
    <g clip-path="url(#p00687c9336)">
     <use style="fill:#999999;stroke:#999999;" x="32.419602" xlink:href="#m1c7298f99b" y="9.843931"/>
     <use style="fill:#999999;stroke:#999999;" x="44.522771" xlink:href="#m1c7298f99b" y="11.260264"/>
     <use style="fill:#999999;stroke:#999999;" x="53.80986" xlink:href="#m1c7298f99b" y="13.005823"/>
     <use style="fill:#999999;stroke:#999999;" x="61.639237" xlink:href="#m1c7298f99b" y="15.055523"/>
     <use style="fill:#999999;stroke:#999999;" x="68.537057" xlink:href="#m1c7298f99b" y="17.306835"/>
     <use style="fill:#999999;stroke:#999999;" x="74.773164" xlink:href="#m1c7298f99b" y="19.26713"/>
     <use style="fill:#999999;stroke:#999999;" x="80.507855" xlink:href="#m1c7298f99b" y="21.122844"/>
     <use style="fill:#999999;stroke:#999999;" x="85.845576" xlink:href="#m1c7298f99b" y="22.116704"/>
     <use style="fill:#999999;stroke:#999999;" x="90.858872" xlink:href="#m1c7298f99b" y="23.212937"/>
     <use style="fill:#999999;stroke:#999999;" x="95.600566" xlink:href="#m1c7298f99b" y="24.221683"/>
     <use style="fill:#999999;stroke:#999999;" x="100.110533" xlink:href="#m1c7298f99b" y="25.464074"/>
     <use style="fill:#999999;stroke:#999999;" x="104.419752" xlink:href="#m1c7298f99b" y="26.05823"/>
     <use style="fill:#999999;stroke:#999999;" x="108.55286" xlink:href="#m1c7298f99b" y="26.989515"/>
     <use style="fill:#999999;stroke:#999999;" x="112.529831" xlink:href="#m1c7298f99b" y="27.772792"/>
     <use style="fill:#999999;stroke:#999999;" x="116.367127" xlink:href="#m1c7298f99b" y="28.459855"/>
     <use style="fill:#999999;stroke:#999999;" x="120.078507" xlink:href="#m1c7298f99b" y="29.184146"/>
     <use style="fill:#999999;stroke:#999999;" x="123.675609" xlink:href="#m1c7298f99b" y="30.047531"/>
     <use style="fill:#999999;stroke:#999999;" x="127.16838" xlink:href="#m1c7298f99b" y="30.808206"/>
     <use style="fill:#999999;stroke:#999999;" x="130.565404" xlink:href="#m1c7298f99b" y="31.075836"/>
     <use style="fill:#999999;stroke:#999999;" x="133.874148" xlink:href="#m1c7298f99b" y="31.62859"/>
    </g>
   </g>
   <g id="line2d_83">
    <path clip-path="url(#p00687c9336)" d="M 32.419602 4.941818 
L 44.522771 6.099531 
L 53.80986 7.538251 
L 61.639237 9.400173 
L 68.537057 11.598276 
L 74.773164 13.478935 
L 80.507855 15.305511 
L 85.845576 16.630208 
L 90.858872 17.897494 
L 95.600566 18.774947 
L 100.110533 19.740727 
L 104.419752 20.769807 
L 108.55286 21.626645 
L 112.529831 22.051158 
L 116.367127 22.920804 
L 120.078507 23.247421 
L 123.675609 24.011249 
L 127.16838 24.734296 
L 130.565404 25.205971 
L 133.874148 25.750789 
" style="fill:none;stroke:#377eb8;stroke-linecap:square;stroke-width:1.5;"/>
    <defs>
     <path d="M 0 0.75 
C 0.198902 0.75 0.389685 0.670975 0.53033 0.53033 
C 0.670975 0.389685 0.75 0.198902 0.75 0 
C 0.75 -0.198902 0.670975 -0.389685 0.53033 -0.53033 
C 0.389685 -0.670975 0.198902 -0.75 0 -0.75 
C -0.198902 -0.75 -0.389685 -0.670975 -0.53033 -0.53033 
C -0.670975 -0.389685 -0.75 -0.198902 -0.75 0 
C -0.75 0.198902 -0.670975 0.389685 -0.53033 0.53033 
C -0.389685 0.670975 -0.198902 0.75 0 0.75 
z
" id="m35af2a8cf8" style="stroke:#377eb8;"/>
    </defs>
    <g clip-path="url(#p00687c9336)">
     <use style="fill:#377eb8;stroke:#377eb8;" x="32.419602" xlink:href="#m35af2a8cf8" y="4.941818"/>
     <use style="fill:#377eb8;stroke:#377eb8;" x="44.522771" xlink:href="#m35af2a8cf8" y="6.099531"/>
     <use style="fill:#377eb8;stroke:#377eb8;" x="53.80986" xlink:href="#m35af2a8cf8" y="7.538251"/>
     <use style="fill:#377eb8;stroke:#377eb8;" x="61.639237" xlink:href="#m35af2a8cf8" y="9.400173"/>
     <use style="fill:#377eb8;stroke:#377eb8;" x="68.537057" xlink:href="#m35af2a8cf8" y="11.598276"/>
     <use style="fill:#377eb8;stroke:#377eb8;" x="74.773164" xlink:href="#m35af2a8cf8" y="13.478935"/>
     <use style="fill:#377eb8;stroke:#377eb8;" x="80.507855" xlink:href="#m35af2a8cf8" y="15.305511"/>
     <use style="fill:#377eb8;stroke:#377eb8;" x="85.845576" xlink:href="#m35af2a8cf8" y="16.630208"/>
     <use style="fill:#377eb8;stroke:#377eb8;" x="90.858872" xlink:href="#m35af2a8cf8" y="17.897494"/>
     <use style="fill:#377eb8;stroke:#377eb8;" x="95.600566" xlink:href="#m35af2a8cf8" y="18.774947"/>
     <use style="fill:#377eb8;stroke:#377eb8;" x="100.110533" xlink:href="#m35af2a8cf8" y="19.740727"/>
     <use style="fill:#377eb8;stroke:#377eb8;" x="104.419752" xlink:href="#m35af2a8cf8" y="20.769807"/>
     <use style="fill:#377eb8;stroke:#377eb8;" x="108.55286" xlink:href="#m35af2a8cf8" y="21.626645"/>
     <use style="fill:#377eb8;stroke:#377eb8;" x="112.529831" xlink:href="#m35af2a8cf8" y="22.051158"/>
     <use style="fill:#377eb8;stroke:#377eb8;" x="116.367127" xlink:href="#m35af2a8cf8" y="22.920804"/>
     <use style="fill:#377eb8;stroke:#377eb8;" x="120.078507" xlink:href="#m35af2a8cf8" y="23.247421"/>
     <use style="fill:#377eb8;stroke:#377eb8;" x="123.675609" xlink:href="#m35af2a8cf8" y="24.011249"/>
     <use style="fill:#377eb8;stroke:#377eb8;" x="127.16838" xlink:href="#m35af2a8cf8" y="24.734296"/>
     <use style="fill:#377eb8;stroke:#377eb8;" x="130.565404" xlink:href="#m35af2a8cf8" y="25.205971"/>
     <use style="fill:#377eb8;stroke:#377eb8;" x="133.874148" xlink:href="#m35af2a8cf8" y="25.750789"/>
    </g>
   </g>
   <g id="patch_3">
    <path d="M 27.346875 108.72 
L 27.346875 0 
" style="fill:none;stroke:#000000;stroke-linecap:square;stroke-linejoin:miter;stroke-width:0.5;"/>
   </g>
   <g id="patch_4">
    <path d="M 138.946875 108.72 
L 138.946875 0 
" style="fill:none;stroke:#000000;stroke-linecap:square;stroke-linejoin:miter;stroke-width:0.5;"/>
   </g>
   <g id="patch_5">
    <path d="M 27.346875 108.72 
L 138.946875 108.72 
" style="fill:none;stroke:#000000;stroke-linecap:square;stroke-linejoin:miter;stroke-width:0.5;"/>
   </g>
   <g id="patch_6">
    <path d="M 27.346875 0 
L 138.946875 0 
" style="fill:none;stroke:#000000;stroke-linecap:square;stroke-linejoin:miter;stroke-width:0.5;"/>
   </g>
  </g>
 </g>
 <defs>
  <clipPath id="p00687c9336">
   <rect height="108.72" width="111.6" x="27.346875" y="0"/>
  </clipPath>
 </defs>
</svg>
