<?xml version="1.0" encoding="utf-8" standalone="no"?>
<!DOCTYPE svg PUBLIC "-//W3C//DTD SVG 1.1//EN"
  "http://www.w3.org/Graphics/SVG/1.1/DTD/svg11.dtd">
<svg height="128.249687pt" version="1.1" viewBox="0 0 138.946875 128.249687" width="138.946875pt" xmlns="http://www.w3.org/2000/svg" xmlns:xlink="http://www.w3.org/1999/xlink">
 <metadata>
  <rdf:RDF xmlns:cc="http://creativecommons.org/ns#" xmlns:dc="http://purl.org/dc/elements/1.1/" xmlns:rdf="http://www.w3.org/1999/02/22-rdf-syntax-ns#">
   <cc:Work>
    <dc:type rdf:resource="http://purl.org/dc/dcmitype/StillImage"/>
    <dc:date>2021-09-09T11:31:17.521423</dc:date>
    <dc:format>image/svg+xml</dc:format>
    <dc:creator>
     <cc:Agent>
      <dc:title>Matplotlib v3.4.3, https://matplotlib.org/</dc:title>
     </cc:Agent>
    </dc:creator>
   </cc:Work>
  </rdf:RDF>
 </metadata>
 <defs>
  <style type="text/css">*{stroke-linecap:butt;stroke-linejoin:round;}</style>
 </defs>
 <g id="figure_1">
  <g id="patch_1">
   <path d="M 0 128.249687 
L 138.946875 128.249687 
L 138.946875 0 
L 0 0 
z
" style="fill:none;"/>
  </g>
  <g id="axes_1">
   <g id="patch_2">
    <path d="M 27.346875 108.72 
L 138.946875 108.72 
L 138.946875 0 
L 27.346875 0 
z
" style="fill:none;"/>
   </g>
   <g id="matplotlib.axis_1">
    <g id="xtick_1">
     <g id="line2d_1">
      <defs>
       <path d="M 0 0 
L 0 -3.5 
" id="m0523c5b00a" style="stroke:#000000;stroke-width:0.5;"/>
      </defs>
      <g>
       <use style="stroke:#000000;stroke-width:0.5;" x="44.522771" xlink:href="#m0523c5b00a" y="108.72"/>
      </g>
     </g>
     <g id="line2d_2">
      <defs>
       <path d="M 0 0 
L 0 3.5 
" id="m077743a383" style="stroke:#000000;stroke-width:0.5;"/>
      </defs>
      <g>
       <use style="stroke:#000000;stroke-width:0.5;" x="44.522771" xlink:href="#m077743a383" y="0"/>
      </g>
     </g>
     <g id="text_1">
      <text style="font-family:Arial;font-size:10px;font-stretch:normal;font-style:normal;font-weight:normal;text-anchor:middle;" transform="rotate(-0, 44.522771, 116.877812)" x="44.522771" y="116.877812">1</text>
     </g>
    </g>
    <g id="xtick_2">
     <g id="line2d_3">
      <g>
       <use style="stroke:#000000;stroke-width:0.5;" x="85.845576" xlink:href="#m0523c5b00a" y="108.72"/>
      </g>
     </g>
     <g id="line2d_4">
      <g>
       <use style="stroke:#000000;stroke-width:0.5;" x="85.845576" xlink:href="#m077743a383" y="0"/>
      </g>
     </g>
     <g id="text_2">
      <text style="font-family:Arial;font-size:10px;font-stretch:normal;font-style:normal;font-weight:normal;text-anchor:middle;" transform="rotate(-0, 85.845576, 116.877812)" x="85.845576" y="116.877812">2</text>
     </g>
    </g>
    <g id="xtick_3">
     <g id="line2d_5">
      <g>
       <use style="stroke:#000000;stroke-width:0.5;" x="127.16838" xlink:href="#m0523c5b00a" y="108.72"/>
      </g>
     </g>
     <g id="line2d_6">
      <g>
       <use style="stroke:#000000;stroke-width:0.5;" x="127.16838" xlink:href="#m077743a383" y="0"/>
      </g>
     </g>
     <g id="text_3">
      <text style="font-family:Arial;font-size:10px;font-stretch:normal;font-style:normal;font-weight:normal;text-anchor:middle;" transform="rotate(-0, 127.16838, 116.877812)" x="127.16838" y="116.877812">3</text>
     </g>
    </g>
    <g id="xtick_4">
     <g id="line2d_7">
      <defs>
       <path d="M 0 0 
L 0 -2 
" id="md434e29698" style="stroke:#000000;stroke-width:0.5;"/>
      </defs>
      <g>
       <use style="stroke:#000000;stroke-width:0.5;" x="27.99365" xlink:href="#md434e29698" y="108.72"/>
      </g>
     </g>
     <g id="line2d_8">
      <defs>
       <path d="M 0 0 
L 0 2 
" id="m9c81964510" style="stroke:#000000;stroke-width:0.5;"/>
      </defs>
      <g>
       <use style="stroke:#000000;stroke-width:0.5;" x="27.99365" xlink:href="#m9c81964510" y="0"/>
      </g>
     </g>
    </g>
    <g id="xtick_5">
     <g id="line2d_9">
      <g>
       <use style="stroke:#000000;stroke-width:0.5;" x="36.258211" xlink:href="#md434e29698" y="108.72"/>
      </g>
     </g>
     <g id="line2d_10">
      <g>
       <use style="stroke:#000000;stroke-width:0.5;" x="36.258211" xlink:href="#m9c81964510" y="0"/>
      </g>
     </g>
    </g>
    <g id="xtick_6">
     <g id="line2d_11">
      <g>
       <use style="stroke:#000000;stroke-width:0.5;" x="52.787332" xlink:href="#md434e29698" y="108.72"/>
      </g>
     </g>
     <g id="line2d_12">
      <g>
       <use style="stroke:#000000;stroke-width:0.5;" x="52.787332" xlink:href="#m9c81964510" y="0"/>
      </g>
     </g>
    </g>
    <g id="xtick_7">
     <g id="line2d_13">
      <g>
       <use style="stroke:#000000;stroke-width:0.5;" x="61.051893" xlink:href="#md434e29698" y="108.72"/>
      </g>
     </g>
     <g id="line2d_14">
      <g>
       <use style="stroke:#000000;stroke-width:0.5;" x="61.051893" xlink:href="#m9c81964510" y="0"/>
      </g>
     </g>
    </g>
    <g id="xtick_8">
     <g id="line2d_15">
      <g>
       <use style="stroke:#000000;stroke-width:0.5;" x="69.316454" xlink:href="#md434e29698" y="108.72"/>
      </g>
     </g>
     <g id="line2d_16">
      <g>
       <use style="stroke:#000000;stroke-width:0.5;" x="69.316454" xlink:href="#m9c81964510" y="0"/>
      </g>
     </g>
    </g>
    <g id="xtick_9">
     <g id="line2d_17">
      <g>
       <use style="stroke:#000000;stroke-width:0.5;" x="77.581015" xlink:href="#md434e29698" y="108.72"/>
      </g>
     </g>
     <g id="line2d_18">
      <g>
       <use style="stroke:#000000;stroke-width:0.5;" x="77.581015" xlink:href="#m9c81964510" y="0"/>
      </g>
     </g>
    </g>
    <g id="xtick_10">
     <g id="line2d_19">
      <g>
       <use style="stroke:#000000;stroke-width:0.5;" x="94.110136" xlink:href="#md434e29698" y="108.72"/>
      </g>
     </g>
     <g id="line2d_20">
      <g>
       <use style="stroke:#000000;stroke-width:0.5;" x="94.110136" xlink:href="#m9c81964510" y="0"/>
      </g>
     </g>
    </g>
    <g id="xtick_11">
     <g id="line2d_21">
      <g>
       <use style="stroke:#000000;stroke-width:0.5;" x="102.374697" xlink:href="#md434e29698" y="108.72"/>
      </g>
     </g>
     <g id="line2d_22">
      <g>
       <use style="stroke:#000000;stroke-width:0.5;" x="102.374697" xlink:href="#m9c81964510" y="0"/>
      </g>
     </g>
    </g>
    <g id="xtick_12">
     <g id="line2d_23">
      <g>
       <use style="stroke:#000000;stroke-width:0.5;" x="110.639258" xlink:href="#md434e29698" y="108.72"/>
      </g>
     </g>
     <g id="line2d_24">
      <g>
       <use style="stroke:#000000;stroke-width:0.5;" x="110.639258" xlink:href="#m9c81964510" y="0"/>
      </g>
     </g>
    </g>
    <g id="xtick_13">
     <g id="line2d_25">
      <g>
       <use style="stroke:#000000;stroke-width:0.5;" x="118.903819" xlink:href="#md434e29698" y="108.72"/>
      </g>
     </g>
     <g id="line2d_26">
      <g>
       <use style="stroke:#000000;stroke-width:0.5;" x="118.903819" xlink:href="#m9c81964510" y="0"/>
      </g>
     </g>
    </g>
    <g id="xtick_14">
     <g id="line2d_27">
      <g>
       <use style="stroke:#000000;stroke-width:0.5;" x="135.432941" xlink:href="#md434e29698" y="108.72"/>
      </g>
     </g>
     <g id="line2d_28">
      <g>
       <use style="stroke:#000000;stroke-width:0.5;" x="135.432941" xlink:href="#m9c81964510" y="0"/>
      </g>
     </g>
    </g>
    <g id="text_4">
     <text style="font-family:Arial;font-size:10px;font-stretch:normal;font-style:normal;font-weight:normal;text-anchor:middle;" transform="rotate(-0, 83.146875, 126.145)" x="83.146875" y="126.145">V<tspan
   style="font-size:65%;baseline-shift:super"
   id="tspan15378">1/2</tspan></text>
    </g>
   </g>
   <g id="matplotlib.axis_2">
    <g id="ytick_1">
     <g id="line2d_29">
      <defs>
       <path d="M 0 0 
L 3.5 0 
" id="mb7326e93a3" style="stroke:#000000;stroke-width:0.5;"/>
      </defs>
      <g>
       <use style="stroke:#000000;stroke-width:0.5;" x="27.346875" xlink:href="#mb7326e93a3" y="84.915179"/>
      </g>
     </g>
     <g id="line2d_30">
      <defs>
       <path d="M 0 0 
L -3.5 0 
" id="mf58a36a03d" style="stroke:#000000;stroke-width:0.5;"/>
      </defs>
      <g>
       <use style="stroke:#000000;stroke-width:0.5;" x="138.946875" xlink:href="#mf58a36a03d" y="84.915179"/>
      </g>
     </g>
     <g id="text_5">
      <text style="font-family:Arial;font-size:10px;font-stretch:normal;font-style:normal;font-weight:normal;text-anchor:end;" transform="rotate(-0, 26.346875, 88.494085)" x="26.346875" y="88.494085">−18</text>
     </g>
    </g>
    <g id="ytick_2">
     <g id="line2d_31">
      <g>
       <use style="stroke:#000000;stroke-width:0.5;" x="27.346875" xlink:href="#mb7326e93a3" y="47.481082"/>
      </g>
     </g>
     <g id="line2d_32">
      <g>
       <use style="stroke:#000000;stroke-width:0.5;" x="138.946875" xlink:href="#mf58a36a03d" y="47.481082"/>
      </g>
     </g>
     <g id="text_6">
      <text style="font-family:Arial;font-size:10px;font-stretch:normal;font-style:normal;font-weight:normal;text-anchor:end;" transform="rotate(-0, 26.346875, 51.059988)" x="26.346875" y="51.059988">−16</text>
     </g>
    </g>
    <g id="ytick_3">
     <g id="line2d_33">
      <g>
       <use style="stroke:#000000;stroke-width:0.5;" x="27.346875" xlink:href="#mb7326e93a3" y="10.046985"/>
      </g>
     </g>
     <g id="line2d_34">
      <g>
       <use style="stroke:#000000;stroke-width:0.5;" x="138.946875" xlink:href="#mf58a36a03d" y="10.046985"/>
      </g>
     </g>
     <g id="text_7">
      <text style="font-family:Arial;font-size:10px;font-stretch:normal;font-style:normal;font-weight:normal;text-anchor:end;" transform="rotate(-0, 26.346875, 13.625891)" x="26.346875" y="13.625891">−14</text>
     </g>
    </g>
    <g id="ytick_4">
     <g id="line2d_35">
      <defs>
       <path d="M 0 0 
L 2 0 
" id="m1a905b9145" style="stroke:#000000;stroke-width:0.5;"/>
      </defs>
      <g>
       <use style="stroke:#000000;stroke-width:0.5;" x="27.346875" xlink:href="#m1a905b9145" y="103.632227"/>
      </g>
     </g>
     <g id="line2d_36">
      <defs>
       <path d="M 0 0 
L -2 0 
" id="me7d4fc506d" style="stroke:#000000;stroke-width:0.5;"/>
      </defs>
      <g>
       <use style="stroke:#000000;stroke-width:0.5;" x="138.946875" xlink:href="#me7d4fc506d" y="103.632227"/>
      </g>
     </g>
    </g>
    <g id="ytick_5">
     <g id="line2d_37">
      <g>
       <use style="stroke:#000000;stroke-width:0.5;" x="27.346875" xlink:href="#m1a905b9145" y="94.273703"/>
      </g>
     </g>
     <g id="line2d_38">
      <g>
       <use style="stroke:#000000;stroke-width:0.5;" x="138.946875" xlink:href="#me7d4fc506d" y="94.273703"/>
      </g>
     </g>
    </g>
    <g id="ytick_6">
     <g id="line2d_39">
      <g>
       <use style="stroke:#000000;stroke-width:0.5;" x="27.346875" xlink:href="#m1a905b9145" y="75.556655"/>
      </g>
     </g>
     <g id="line2d_40">
      <g>
       <use style="stroke:#000000;stroke-width:0.5;" x="138.946875" xlink:href="#me7d4fc506d" y="75.556655"/>
      </g>
     </g>
    </g>
    <g id="ytick_7">
     <g id="line2d_41">
      <g>
       <use style="stroke:#000000;stroke-width:0.5;" x="27.346875" xlink:href="#m1a905b9145" y="66.19813"/>
      </g>
     </g>
     <g id="line2d_42">
      <g>
       <use style="stroke:#000000;stroke-width:0.5;" x="138.946875" xlink:href="#me7d4fc506d" y="66.19813"/>
      </g>
     </g>
    </g>
    <g id="ytick_8">
     <g id="line2d_43">
      <g>
       <use style="stroke:#000000;stroke-width:0.5;" x="27.346875" xlink:href="#m1a905b9145" y="56.839606"/>
      </g>
     </g>
     <g id="line2d_44">
      <g>
       <use style="stroke:#000000;stroke-width:0.5;" x="138.946875" xlink:href="#me7d4fc506d" y="56.839606"/>
      </g>
     </g>
    </g>
    <g id="ytick_9">
     <g id="line2d_45">
      <g>
       <use style="stroke:#000000;stroke-width:0.5;" x="27.346875" xlink:href="#m1a905b9145" y="38.122558"/>
      </g>
     </g>
     <g id="line2d_46">
      <g>
       <use style="stroke:#000000;stroke-width:0.5;" x="138.946875" xlink:href="#me7d4fc506d" y="38.122558"/>
      </g>
     </g>
    </g>
    <g id="ytick_10">
     <g id="line2d_47">
      <g>
       <use style="stroke:#000000;stroke-width:0.5;" x="27.346875" xlink:href="#m1a905b9145" y="28.764034"/>
      </g>
     </g>
     <g id="line2d_48">
      <g>
       <use style="stroke:#000000;stroke-width:0.5;" x="138.946875" xlink:href="#me7d4fc506d" y="28.764034"/>
      </g>
     </g>
    </g>
    <g id="ytick_11">
     <g id="line2d_49">
      <g>
       <use style="stroke:#000000;stroke-width:0.5;" x="27.346875" xlink:href="#m1a905b9145" y="19.405509"/>
      </g>
     </g>
     <g id="line2d_50">
      <g>
       <use style="stroke:#000000;stroke-width:0.5;" x="138.946875" xlink:href="#me7d4fc506d" y="19.405509"/>
      </g>
     </g>
    </g>
    <g id="ytick_12">
     <g id="line2d_51">
      <g>
       <use style="stroke:#000000;stroke-width:0.5;" x="27.346875" xlink:href="#m1a905b9145" y="0.688461"/>
      </g>
     </g>
     <g id="line2d_52">
      <g>
       <use style="stroke:#000000;stroke-width:0.5;" x="138.946875" xlink:href="#me7d4fc506d" y="0.688461"/>
      </g>
     </g>
    </g>
    <g id="text_8">
     <text style="font-family:Arial;font-size:10px;font-stretch:normal;font-style:normal;font-weight:normal;text-anchor:middle;" transform="rotate(-90, 7.279688, 54.36)" x="7.279688" y="54.36">ln(I)</text>
    </g>
   </g>
   <g id="line2d_53">
    <path clip-path="url(#pe8d1b87e6e)" d="M 32.419602 103.778182 
L 44.522771 90.360202 
L 53.80986 82.710026 
L 61.639237 77.36407 
L 68.537057 73.462288 
L 74.773164 70.483999 
L 80.507855 67.698082 
L 85.845576 65.201262 
L 90.858872 63.350482 
L 95.600566 61.118849 
L 100.110533 59.043319 
L 104.419752 56.703742 
L 108.55286 55.099396 
L 112.529831 53.208449 
L 116.367127 51.045101 
L 120.078507 48.128697 
L 123.675609 46.649324 
L 127.16838 44.585685 
L 130.565404 42.588353 
L 133.874148 40.690977 
" style="fill:none;stroke:#e41a1c;stroke-linecap:square;stroke-width:1.5;"/>
    <defs>
     <path d="M 0 0.75 
C 0.198902 0.75 0.389685 0.670975 0.53033 0.53033 
C 0.670975 0.389685 0.75 0.198902 0.75 0 
C 0.75 -0.198902 0.670975 -0.389685 0.53033 -0.53033 
C 0.389685 -0.670975 0.198902 -0.75 0 -0.75 
C -0.198902 -0.75 -0.389685 -0.670975 -0.53033 -0.53033 
C -0.670975 -0.389685 -0.75 -0.198902 -0.75 0 
C -0.75 0.198902 -0.670975 0.389685 -0.53033 0.53033 
C -0.389685 0.670975 -0.198902 0.75 0 0.75 
z
" id="m556b5ff9f8" style="stroke:#e41a1c;"/>
    </defs>
    <g clip-path="url(#pe8d1b87e6e)">
     <use style="fill:#e41a1c;stroke:#e41a1c;" x="32.419602" xlink:href="#m556b5ff9f8" y="103.778182"/>
     <use style="fill:#e41a1c;stroke:#e41a1c;" x="44.522771" xlink:href="#m556b5ff9f8" y="90.360202"/>
     <use style="fill:#e41a1c;stroke:#e41a1c;" x="53.80986" xlink:href="#m556b5ff9f8" y="82.710026"/>
     <use style="fill:#e41a1c;stroke:#e41a1c;" x="61.639237" xlink:href="#m556b5ff9f8" y="77.36407"/>
     <use style="fill:#e41a1c;stroke:#e41a1c;" x="68.537057" xlink:href="#m556b5ff9f8" y="73.462288"/>
     <use style="fill:#e41a1c;stroke:#e41a1c;" x="74.773164" xlink:href="#m556b5ff9f8" y="70.483999"/>
     <use style="fill:#e41a1c;stroke:#e41a1c;" x="80.507855" xlink:href="#m556b5ff9f8" y="67.698082"/>
     <use style="fill:#e41a1c;stroke:#e41a1c;" x="85.845576" xlink:href="#m556b5ff9f8" y="65.201262"/>
     <use style="fill:#e41a1c;stroke:#e41a1c;" x="90.858872" xlink:href="#m556b5ff9f8" y="63.350482"/>
     <use style="fill:#e41a1c;stroke:#e41a1c;" x="95.600566" xlink:href="#m556b5ff9f8" y="61.118849"/>
     <use style="fill:#e41a1c;stroke:#e41a1c;" x="100.110533" xlink:href="#m556b5ff9f8" y="59.043319"/>
     <use style="fill:#e41a1c;stroke:#e41a1c;" x="104.419752" xlink:href="#m556b5ff9f8" y="56.703742"/>
     <use style="fill:#e41a1c;stroke:#e41a1c;" x="108.55286" xlink:href="#m556b5ff9f8" y="55.099396"/>
     <use style="fill:#e41a1c;stroke:#e41a1c;" x="112.529831" xlink:href="#m556b5ff9f8" y="53.208449"/>
     <use style="fill:#e41a1c;stroke:#e41a1c;" x="116.367127" xlink:href="#m556b5ff9f8" y="51.045101"/>
     <use style="fill:#e41a1c;stroke:#e41a1c;" x="120.078507" xlink:href="#m556b5ff9f8" y="48.128697"/>
     <use style="fill:#e41a1c;stroke:#e41a1c;" x="123.675609" xlink:href="#m556b5ff9f8" y="46.649324"/>
     <use style="fill:#e41a1c;stroke:#e41a1c;" x="127.16838" xlink:href="#m556b5ff9f8" y="44.585685"/>
     <use style="fill:#e41a1c;stroke:#e41a1c;" x="130.565404" xlink:href="#m556b5ff9f8" y="42.588353"/>
     <use style="fill:#e41a1c;stroke:#e41a1c;" x="133.874148" xlink:href="#m556b5ff9f8" y="40.690977"/>
    </g>
   </g>
   <g id="line2d_54">
    <path clip-path="url(#pe8d1b87e6e)" d="M 133.874148 41.149669 
L 130.565404 42.862572 
L 127.16838 44.621176 
L 123.675609 46.429348 
L 120.078507 48.29153 
L 116.367127 50.212874 
L 112.529831 52.199403 
L 108.55286 54.25824 
L 104.419752 56.397907 
L 100.110533 58.628745 
L 95.600566 60.963509 
L 90.858872 63.418235 
L 85.845576 66.013567 
L 80.507855 68.77685 
L 74.773164 71.745641 
L 68.537057 74.974009 
L 61.639237 78.54494 
L 53.80986 82.598128 
L 44.522771 87.405958 
" style="fill:none;stroke:#000000;stroke-linecap:square;"/>
   </g>
   <g id="line2d_55">
    <path clip-path="url(#pe8d1b87e6e)" d="M 32.419602 84.786728 
L 44.522771 71.588398 
L 53.80986 63.958167 
L 61.639237 58.835729 
L 68.537057 54.906255 
L 74.773164 51.127667 
L 80.507855 47.375403 
L 85.845576 44.843826 
L 90.858872 42.100699 
L 95.600566 39.535563 
L 100.110533 37.428878 
L 104.419752 35.547016 
L 108.55286 33.841113 
L 112.529831 32.381234 
L 116.367127 31.54393 
L 120.078507 30.500141 
L 123.675609 29.406845 
L 127.16838 28.164401 
L 130.565404 27.303265 
L 133.874148 26.421436 
" style="fill:none;stroke:#ff7f00;stroke-linecap:square;stroke-width:1.5;"/>
    <defs>
     <path d="M 0 0.75 
C 0.198902 0.75 0.389685 0.670975 0.53033 0.53033 
C 0.670975 0.389685 0.75 0.198902 0.75 0 
C 0.75 -0.198902 0.670975 -0.389685 0.53033 -0.53033 
C 0.389685 -0.670975 0.198902 -0.75 0 -0.75 
C -0.198902 -0.75 -0.389685 -0.670975 -0.53033 -0.53033 
C -0.670975 -0.389685 -0.75 -0.198902 -0.75 0 
C -0.75 0.198902 -0.670975 0.389685 -0.53033 0.53033 
C -0.389685 0.670975 -0.198902 0.75 0 0.75 
z
" id="m3cd15bd4ee" style="stroke:#ff7f00;"/>
    </defs>
    <g clip-path="url(#pe8d1b87e6e)">
     <use style="fill:#ff7f00;stroke:#ff7f00;" x="32.419602" xlink:href="#m3cd15bd4ee" y="84.786728"/>
     <use style="fill:#ff7f00;stroke:#ff7f00;" x="44.522771" xlink:href="#m3cd15bd4ee" y="71.588398"/>
     <use style="fill:#ff7f00;stroke:#ff7f00;" x="53.80986" xlink:href="#m3cd15bd4ee" y="63.958167"/>
     <use style="fill:#ff7f00;stroke:#ff7f00;" x="61.639237" xlink:href="#m3cd15bd4ee" y="58.835729"/>
     <use style="fill:#ff7f00;stroke:#ff7f00;" x="68.537057" xlink:href="#m3cd15bd4ee" y="54.906255"/>
     <use style="fill:#ff7f00;stroke:#ff7f00;" x="74.773164" xlink:href="#m3cd15bd4ee" y="51.127667"/>
     <use style="fill:#ff7f00;stroke:#ff7f00;" x="80.507855" xlink:href="#m3cd15bd4ee" y="47.375403"/>
     <use style="fill:#ff7f00;stroke:#ff7f00;" x="85.845576" xlink:href="#m3cd15bd4ee" y="44.843826"/>
     <use style="fill:#ff7f00;stroke:#ff7f00;" x="90.858872" xlink:href="#m3cd15bd4ee" y="42.100699"/>
     <use style="fill:#ff7f00;stroke:#ff7f00;" x="95.600566" xlink:href="#m3cd15bd4ee" y="39.535563"/>
     <use style="fill:#ff7f00;stroke:#ff7f00;" x="100.110533" xlink:href="#m3cd15bd4ee" y="37.428878"/>
     <use style="fill:#ff7f00;stroke:#ff7f00;" x="104.419752" xlink:href="#m3cd15bd4ee" y="35.547016"/>
     <use style="fill:#ff7f00;stroke:#ff7f00;" x="108.55286" xlink:href="#m3cd15bd4ee" y="33.841113"/>
     <use style="fill:#ff7f00;stroke:#ff7f00;" x="112.529831" xlink:href="#m3cd15bd4ee" y="32.381234"/>
     <use style="fill:#ff7f00;stroke:#ff7f00;" x="116.367127" xlink:href="#m3cd15bd4ee" y="31.54393"/>
     <use style="fill:#ff7f00;stroke:#ff7f00;" x="120.078507" xlink:href="#m3cd15bd4ee" y="30.500141"/>
     <use style="fill:#ff7f00;stroke:#ff7f00;" x="123.675609" xlink:href="#m3cd15bd4ee" y="29.406845"/>
     <use style="fill:#ff7f00;stroke:#ff7f00;" x="127.16838" xlink:href="#m3cd15bd4ee" y="28.164401"/>
     <use style="fill:#ff7f00;stroke:#ff7f00;" x="130.565404" xlink:href="#m3cd15bd4ee" y="27.303265"/>
     <use style="fill:#ff7f00;stroke:#ff7f00;" x="133.874148" xlink:href="#m3cd15bd4ee" y="26.421436"/>
    </g>
   </g>
   <g id="line2d_56">
    <path clip-path="url(#pe8d1b87e6e)" d="M 95.600566 38.746716 
L 90.858872 41.660549 
L 85.845576 44.741286 
L 80.507855 48.021385 
L 74.773164 51.545429 
L 68.537057 55.377598 
L 61.639237 59.616399 
L 53.80986 64.427654 
L 44.522771 70.134692 
" style="fill:none;stroke:#000000;stroke-linecap:square;"/>
   </g>
   <g id="line2d_57">
    <path clip-path="url(#pe8d1b87e6e)" d="M 133.874148 26.135946 
L 130.565404 27.18513 
L 127.16838 28.262307 
L 123.675609 29.369844 
L 120.078507 30.510464 
L 116.367127 31.687322 
L 112.529831 32.904106 
L 108.55286 34.165181 
L 104.419752 35.475765 
L 100.110533 36.842194 
" style="fill:none;stroke:#000000;stroke-linecap:square;"/>
   </g>
   <g id="line2d_58">
    <path clip-path="url(#pe8d1b87e6e)" d="M 32.419602 76.558621 
L 44.522771 63.105225 
L 53.80986 55.3875 
L 61.639237 50.47407 
L 68.537057 45.264511 
L 74.773164 41.65403 
L 80.507855 38.075455 
L 85.845576 34.915099 
L 90.858872 32.005275 
L 95.600566 29.536344 
L 100.110533 27.459384 
L 104.419752 25.7394 
L 108.55286 24.184121 
L 112.529831 22.720841 
L 116.367127 21.529814 
L 120.078507 20.446652 
L 123.675609 19.48513 
L 127.16838 18.532912 
L 130.565404 17.688441 
L 133.874148 17.121223 
" style="fill:none;stroke:#984ea3;stroke-linecap:square;stroke-width:1.5;"/>
    <defs>
     <path d="M 0 0.75 
C 0.198902 0.75 0.389685 0.670975 0.53033 0.53033 
C 0.670975 0.389685 0.75 0.198902 0.75 0 
C 0.75 -0.198902 0.670975 -0.389685 0.53033 -0.53033 
C 0.389685 -0.670975 0.198902 -0.75 0 -0.75 
C -0.198902 -0.75 -0.389685 -0.670975 -0.53033 -0.53033 
C -0.670975 -0.389685 -0.75 -0.198902 -0.75 0 
C -0.75 0.198902 -0.670975 0.389685 -0.53033 0.53033 
C -0.389685 0.670975 -0.198902 0.75 0 0.75 
z
" id="me9b1adec17" style="stroke:#984ea3;"/>
    </defs>
    <g clip-path="url(#pe8d1b87e6e)">
     <use style="fill:#984ea3;stroke:#984ea3;" x="32.419602" xlink:href="#me9b1adec17" y="76.558621"/>
     <use style="fill:#984ea3;stroke:#984ea3;" x="44.522771" xlink:href="#me9b1adec17" y="63.105225"/>
     <use style="fill:#984ea3;stroke:#984ea3;" x="53.80986" xlink:href="#me9b1adec17" y="55.3875"/>
     <use style="fill:#984ea3;stroke:#984ea3;" x="61.639237" xlink:href="#me9b1adec17" y="50.47407"/>
     <use style="fill:#984ea3;stroke:#984ea3;" x="68.537057" xlink:href="#me9b1adec17" y="45.264511"/>
     <use style="fill:#984ea3;stroke:#984ea3;" x="74.773164" xlink:href="#me9b1adec17" y="41.65403"/>
     <use style="fill:#984ea3;stroke:#984ea3;" x="80.507855" xlink:href="#me9b1adec17" y="38.075455"/>
     <use style="fill:#984ea3;stroke:#984ea3;" x="85.845576" xlink:href="#me9b1adec17" y="34.915099"/>
     <use style="fill:#984ea3;stroke:#984ea3;" x="90.858872" xlink:href="#me9b1adec17" y="32.005275"/>
     <use style="fill:#984ea3;stroke:#984ea3;" x="95.600566" xlink:href="#me9b1adec17" y="29.536344"/>
     <use style="fill:#984ea3;stroke:#984ea3;" x="100.110533" xlink:href="#me9b1adec17" y="27.459384"/>
     <use style="fill:#984ea3;stroke:#984ea3;" x="104.419752" xlink:href="#me9b1adec17" y="25.7394"/>
     <use style="fill:#984ea3;stroke:#984ea3;" x="108.55286" xlink:href="#me9b1adec17" y="24.184121"/>
     <use style="fill:#984ea3;stroke:#984ea3;" x="112.529831" xlink:href="#me9b1adec17" y="22.720841"/>
     <use style="fill:#984ea3;stroke:#984ea3;" x="116.367127" xlink:href="#me9b1adec17" y="21.529814"/>
     <use style="fill:#984ea3;stroke:#984ea3;" x="120.078507" xlink:href="#me9b1adec17" y="20.446652"/>
     <use style="fill:#984ea3;stroke:#984ea3;" x="123.675609" xlink:href="#me9b1adec17" y="19.48513"/>
     <use style="fill:#984ea3;stroke:#984ea3;" x="127.16838" xlink:href="#me9b1adec17" y="18.532912"/>
     <use style="fill:#984ea3;stroke:#984ea3;" x="130.565404" xlink:href="#me9b1adec17" y="17.688441"/>
     <use style="fill:#984ea3;stroke:#984ea3;" x="133.874148" xlink:href="#me9b1adec17" y="17.121223"/>
    </g>
   </g>
   <g id="line2d_59">
    <path clip-path="url(#pe8d1b87e6e)" d="M 100.110533 26.214717 
L 95.600566 29.082567 
L 90.858872 32.097769 
L 85.845576 35.285682 
L 80.507855 38.679893 
L 74.773164 42.326535 
L 68.537057 46.292021 
L 61.639237 50.678286 
L 53.80986 55.656921 
L 44.522771 61.562501 
" style="fill:none;stroke:#000000;stroke-linecap:square;"/>
   </g>
   <g id="line2d_60">
    <path clip-path="url(#pe8d1b87e6e)" d="M 133.874148 16.671713 
L 130.565404 17.641327 
L 127.16838 18.63681 
L 123.675609 19.660353 
L 120.078507 20.714468 
L 116.367127 21.802073 
L 112.529831 22.926577 
L 108.55286 24.092012 
L 104.419752 25.303202 
" style="fill:none;stroke:#000000;stroke-linecap:square;"/>
   </g>
   <g id="line2d_61">
    <path clip-path="url(#pe8d1b87e6e)" d="M 32.419602 68.24219 
L 44.522771 54.993039 
L 53.80986 47.733539 
L 61.639237 43.058035 
L 68.537057 39.097144 
L 74.773164 35.088924 
L 80.507855 31.785897 
L 85.845576 28.827002 
L 90.858872 26.110424 
L 95.600566 23.695514 
L 100.110533 21.911939 
L 104.419752 20.183147 
L 108.55286 18.876494 
L 112.529831 17.377634 
L 116.367127 16.144445 
L 120.078507 15.172162 
L 123.675609 14.103046 
L 127.16838 13.238004 
L 130.565404 12.22399 
L 133.874148 11.354653 
" style="fill:none;stroke:#a65628;stroke-linecap:square;stroke-width:1.5;"/>
    <defs>
     <path d="M 0 0.75 
C 0.198902 0.75 0.389685 0.670975 0.53033 0.53033 
C 0.670975 0.389685 0.75 0.198902 0.75 0 
C 0.75 -0.198902 0.670975 -0.389685 0.53033 -0.53033 
C 0.389685 -0.670975 0.198902 -0.75 0 -0.75 
C -0.198902 -0.75 -0.389685 -0.670975 -0.53033 -0.53033 
C -0.670975 -0.389685 -0.75 -0.198902 -0.75 0 
C -0.75 0.198902 -0.670975 0.389685 -0.53033 0.53033 
C -0.389685 0.670975 -0.198902 0.75 0 0.75 
z
" id="m8346ba4ef6" style="stroke:#a65628;"/>
    </defs>
    <g clip-path="url(#pe8d1b87e6e)">
     <use style="fill:#a65628;stroke:#a65628;" x="32.419602" xlink:href="#m8346ba4ef6" y="68.24219"/>
     <use style="fill:#a65628;stroke:#a65628;" x="44.522771" xlink:href="#m8346ba4ef6" y="54.993039"/>
     <use style="fill:#a65628;stroke:#a65628;" x="53.80986" xlink:href="#m8346ba4ef6" y="47.733539"/>
     <use style="fill:#a65628;stroke:#a65628;" x="61.639237" xlink:href="#m8346ba4ef6" y="43.058035"/>
     <use style="fill:#a65628;stroke:#a65628;" x="68.537057" xlink:href="#m8346ba4ef6" y="39.097144"/>
     <use style="fill:#a65628;stroke:#a65628;" x="74.773164" xlink:href="#m8346ba4ef6" y="35.088924"/>
     <use style="fill:#a65628;stroke:#a65628;" x="80.507855" xlink:href="#m8346ba4ef6" y="31.785897"/>
     <use style="fill:#a65628;stroke:#a65628;" x="85.845576" xlink:href="#m8346ba4ef6" y="28.827002"/>
     <use style="fill:#a65628;stroke:#a65628;" x="90.858872" xlink:href="#m8346ba4ef6" y="26.110424"/>
     <use style="fill:#a65628;stroke:#a65628;" x="95.600566" xlink:href="#m8346ba4ef6" y="23.695514"/>
     <use style="fill:#a65628;stroke:#a65628;" x="100.110533" xlink:href="#m8346ba4ef6" y="21.911939"/>
     <use style="fill:#a65628;stroke:#a65628;" x="104.419752" xlink:href="#m8346ba4ef6" y="20.183147"/>
     <use style="fill:#a65628;stroke:#a65628;" x="108.55286" xlink:href="#m8346ba4ef6" y="18.876494"/>
     <use style="fill:#a65628;stroke:#a65628;" x="112.529831" xlink:href="#m8346ba4ef6" y="17.377634"/>
     <use style="fill:#a65628;stroke:#a65628;" x="116.367127" xlink:href="#m8346ba4ef6" y="16.144445"/>
     <use style="fill:#a65628;stroke:#a65628;" x="120.078507" xlink:href="#m8346ba4ef6" y="15.172162"/>
     <use style="fill:#a65628;stroke:#a65628;" x="123.675609" xlink:href="#m8346ba4ef6" y="14.103046"/>
     <use style="fill:#a65628;stroke:#a65628;" x="127.16838" xlink:href="#m8346ba4ef6" y="13.238004"/>
     <use style="fill:#a65628;stroke:#a65628;" x="130.565404" xlink:href="#m8346ba4ef6" y="12.22399"/>
     <use style="fill:#a65628;stroke:#a65628;" x="133.874148" xlink:href="#m8346ba4ef6" y="11.354653"/>
    </g>
   </g>
   <g id="line2d_62">
    <path clip-path="url(#pe8d1b87e6e)" d="M 85.845576 28.378062 
L 80.507855 31.70946 
L 74.773164 35.288616 
L 68.537057 39.180718 
L 61.639237 43.485811 
L 53.80986 48.372311 
L 44.522771 54.168603 
" style="fill:none;stroke:#000000;stroke-linecap:square;"/>
   </g>
   <g id="line2d_63">
    <path clip-path="url(#pe8d1b87e6e)" d="M 133.874148 10.785659 
L 130.565404 11.889493 
L 127.16838 13.022779 
L 123.675609 14.188008 
L 120.078507 15.388042 
L 116.367127 16.626201 
L 112.529831 17.906366 
L 108.55286 19.233129 
L 104.419752 20.611981 
L 100.110533 22.049586 
L 95.600566 23.554162 
L 90.858872 25.136046 
" style="fill:none;stroke:#000000;stroke-linecap:square;"/>
   </g>
   <g id="line2d_64">
    <path clip-path="url(#pe8d1b87e6e)" d="M 32.419602 60.575286 
L 44.522771 48.238785 
L 53.80986 41.310969 
L 61.639237 37.027189 
L 68.537057 33.254274 
L 74.773164 29.98163 
L 80.507855 27.143095 
L 85.845576 24.485368 
L 90.858872 22.417204 
L 95.600566 20.458071 
L 100.110533 18.708471 
L 104.419752 17.048815 
L 108.55286 15.807239 
L 112.529831 14.594856 
L 116.367127 13.281964 
L 120.078507 12.306902 
L 123.675609 11.462468 
L 127.16838 10.508358 
L 130.565404 9.658668 
L 133.874148 8.955802 
" style="fill:none;stroke:#4daf4a;stroke-linecap:square;stroke-width:1.5;"/>
    <defs>
     <path d="M 0 0.75 
C 0.198902 0.75 0.389685 0.670975 0.53033 0.53033 
C 0.670975 0.389685 0.75 0.198902 0.75 0 
C 0.75 -0.198902 0.670975 -0.389685 0.53033 -0.53033 
C 0.389685 -0.670975 0.198902 -0.75 0 -0.75 
C -0.198902 -0.75 -0.389685 -0.670975 -0.53033 -0.53033 
C -0.670975 -0.389685 -0.75 -0.198902 -0.75 0 
C -0.75 0.198902 -0.670975 0.389685 -0.53033 0.53033 
C -0.389685 0.670975 -0.198902 0.75 0 0.75 
z
" id="ma7394b8e9e" style="stroke:#4daf4a;"/>
    </defs>
    <g clip-path="url(#pe8d1b87e6e)">
     <use style="fill:#4daf4a;stroke:#4daf4a;" x="32.419602" xlink:href="#ma7394b8e9e" y="60.575286"/>
     <use style="fill:#4daf4a;stroke:#4daf4a;" x="44.522771" xlink:href="#ma7394b8e9e" y="48.238785"/>
     <use style="fill:#4daf4a;stroke:#4daf4a;" x="53.80986" xlink:href="#ma7394b8e9e" y="41.310969"/>
     <use style="fill:#4daf4a;stroke:#4daf4a;" x="61.639237" xlink:href="#ma7394b8e9e" y="37.027189"/>
     <use style="fill:#4daf4a;stroke:#4daf4a;" x="68.537057" xlink:href="#ma7394b8e9e" y="33.254274"/>
     <use style="fill:#4daf4a;stroke:#4daf4a;" x="74.773164" xlink:href="#ma7394b8e9e" y="29.98163"/>
     <use style="fill:#4daf4a;stroke:#4daf4a;" x="80.507855" xlink:href="#ma7394b8e9e" y="27.143095"/>
     <use style="fill:#4daf4a;stroke:#4daf4a;" x="85.845576" xlink:href="#ma7394b8e9e" y="24.485368"/>
     <use style="fill:#4daf4a;stroke:#4daf4a;" x="90.858872" xlink:href="#ma7394b8e9e" y="22.417204"/>
     <use style="fill:#4daf4a;stroke:#4daf4a;" x="95.600566" xlink:href="#ma7394b8e9e" y="20.458071"/>
     <use style="fill:#4daf4a;stroke:#4daf4a;" x="100.110533" xlink:href="#ma7394b8e9e" y="18.708471"/>
     <use style="fill:#4daf4a;stroke:#4daf4a;" x="104.419752" xlink:href="#ma7394b8e9e" y="17.048815"/>
     <use style="fill:#4daf4a;stroke:#4daf4a;" x="108.55286" xlink:href="#ma7394b8e9e" y="15.807239"/>
     <use style="fill:#4daf4a;stroke:#4daf4a;" x="112.529831" xlink:href="#ma7394b8e9e" y="14.594856"/>
     <use style="fill:#4daf4a;stroke:#4daf4a;" x="116.367127" xlink:href="#ma7394b8e9e" y="13.281964"/>
     <use style="fill:#4daf4a;stroke:#4daf4a;" x="120.078507" xlink:href="#ma7394b8e9e" y="12.306902"/>
     <use style="fill:#4daf4a;stroke:#4daf4a;" x="123.675609" xlink:href="#ma7394b8e9e" y="11.462468"/>
     <use style="fill:#4daf4a;stroke:#4daf4a;" x="127.16838" xlink:href="#ma7394b8e9e" y="10.508358"/>
     <use style="fill:#4daf4a;stroke:#4daf4a;" x="130.565404" xlink:href="#ma7394b8e9e" y="9.658668"/>
     <use style="fill:#4daf4a;stroke:#4daf4a;" x="133.874148" xlink:href="#ma7394b8e9e" y="8.955802"/>
    </g>
   </g>
   <g id="line2d_65">
    <path clip-path="url(#pe8d1b87e6e)" d="M 85.845576 23.921664 
L 80.507855 26.929933 
L 74.773164 30.16193 
L 68.537057 33.676518 
L 61.639237 37.564039 
L 53.80986 41.976573 
L 44.522771 47.210654 
" style="fill:none;stroke:#000000;stroke-linecap:square;"/>
   </g>
   <g id="line2d_66">
    <path clip-path="url(#pe8d1b87e6e)" d="M 133.874148 8.340677 
L 130.565404 9.364852 
L 127.16838 10.416352 
L 123.675609 11.49749 
L 120.078507 12.610922 
L 116.367127 13.759727 
L 112.529831 14.947508 
L 108.55286 16.178523 
L 104.419752 17.457868 
L 100.110533 18.791726 
L 95.600566 20.187723 
L 90.858872 21.655447 
" style="fill:none;stroke:#000000;stroke-linecap:square;"/>
   </g>
   <g id="line2d_67">
    <path clip-path="url(#pe8d1b87e6e)" d="M 32.419602 54.883037 
L 44.522771 42.067048 
L 53.80986 35.899851 
L 61.639237 31.748093 
L 68.537057 28.571407 
L 74.773164 26.093496 
L 80.507855 23.32412 
L 85.845576 21.322384 
L 90.858872 19.459043 
L 95.600566 17.881226 
L 100.110533 16.064579 
L 104.419752 14.774214 
L 108.55286 13.438846 
L 112.529831 12.380099 
L 116.367127 11.307152 
L 120.078507 10.296989 
L 123.675609 9.590106 
L 127.16838 8.655965 
L 130.565404 7.866856 
L 133.874148 6.896835 
" style="fill:none;stroke:#999999;stroke-linecap:square;stroke-width:1.5;"/>
    <defs>
     <path d="M 0 0.75 
C 0.198902 0.75 0.389685 0.670975 0.53033 0.53033 
C 0.670975 0.389685 0.75 0.198902 0.75 0 
C 0.75 -0.198902 0.670975 -0.389685 0.53033 -0.53033 
C 0.389685 -0.670975 0.198902 -0.75 0 -0.75 
C -0.198902 -0.75 -0.389685 -0.670975 -0.53033 -0.53033 
C -0.670975 -0.389685 -0.75 -0.198902 -0.75 0 
C -0.75 0.198902 -0.670975 0.389685 -0.53033 0.53033 
C -0.389685 0.670975 -0.198902 0.75 0 0.75 
z
" id="m26cf9775bd" style="stroke:#999999;"/>
    </defs>
    <g clip-path="url(#pe8d1b87e6e)">
     <use style="fill:#999999;stroke:#999999;" x="32.419602" xlink:href="#m26cf9775bd" y="54.883037"/>
     <use style="fill:#999999;stroke:#999999;" x="44.522771" xlink:href="#m26cf9775bd" y="42.067048"/>
     <use style="fill:#999999;stroke:#999999;" x="53.80986" xlink:href="#m26cf9775bd" y="35.899851"/>
     <use style="fill:#999999;stroke:#999999;" x="61.639237" xlink:href="#m26cf9775bd" y="31.748093"/>
     <use style="fill:#999999;stroke:#999999;" x="68.537057" xlink:href="#m26cf9775bd" y="28.571407"/>
     <use style="fill:#999999;stroke:#999999;" x="74.773164" xlink:href="#m26cf9775bd" y="26.093496"/>
     <use style="fill:#999999;stroke:#999999;" x="80.507855" xlink:href="#m26cf9775bd" y="23.32412"/>
     <use style="fill:#999999;stroke:#999999;" x="85.845576" xlink:href="#m26cf9775bd" y="21.322384"/>
     <use style="fill:#999999;stroke:#999999;" x="90.858872" xlink:href="#m26cf9775bd" y="19.459043"/>
     <use style="fill:#999999;stroke:#999999;" x="95.600566" xlink:href="#m26cf9775bd" y="17.881226"/>
     <use style="fill:#999999;stroke:#999999;" x="100.110533" xlink:href="#m26cf9775bd" y="16.064579"/>
     <use style="fill:#999999;stroke:#999999;" x="104.419752" xlink:href="#m26cf9775bd" y="14.774214"/>
     <use style="fill:#999999;stroke:#999999;" x="108.55286" xlink:href="#m26cf9775bd" y="13.438846"/>
     <use style="fill:#999999;stroke:#999999;" x="112.529831" xlink:href="#m26cf9775bd" y="12.380099"/>
     <use style="fill:#999999;stroke:#999999;" x="116.367127" xlink:href="#m26cf9775bd" y="11.307152"/>
     <use style="fill:#999999;stroke:#999999;" x="120.078507" xlink:href="#m26cf9775bd" y="10.296989"/>
     <use style="fill:#999999;stroke:#999999;" x="123.675609" xlink:href="#m26cf9775bd" y="9.590106"/>
     <use style="fill:#999999;stroke:#999999;" x="127.16838" xlink:href="#m26cf9775bd" y="8.655965"/>
     <use style="fill:#999999;stroke:#999999;" x="130.565404" xlink:href="#m26cf9775bd" y="7.866856"/>
     <use style="fill:#999999;stroke:#999999;" x="133.874148" xlink:href="#m26cf9775bd" y="6.896835"/>
    </g>
   </g>
   <g id="line2d_68">
    <path clip-path="url(#pe8d1b87e6e)" d="M 133.874148 6.351884 
L 130.565404 7.355153 
L 127.16838 8.385191 
L 123.675609 9.444261 
L 120.078507 10.534965 
L 116.367127 11.660321 
L 112.529831 12.823857 
L 108.55286 14.029744 
L 104.419752 15.282975 
L 100.110533 16.589606 
L 95.600566 17.957108 
L 90.858872 19.394873 
L 85.845576 20.914993 
L 80.507855 22.533483 
" style="fill:none;stroke:#000000;stroke-linecap:square;"/>
   </g>
   <g id="line2d_69">
    <path clip-path="url(#pe8d1b87e6e)" d="M 32.419602 51.224551 
L 44.522771 37.952591 
L 53.80986 31.665714 
L 61.639237 27.612572 
L 68.537057 24.916731 
L 74.773164 22.719852 
L 80.507855 20.850762 
L 85.845576 19.234881 
L 90.858872 17.535121 
L 95.600566 16.19589 
L 100.110533 14.71899 
L 104.419752 13.443535 
L 108.55286 12.028394 
L 112.529831 11.115379 
L 116.367127 10.287124 
L 120.078507 9.164049 
L 123.675609 8.325451 
L 127.16838 7.461977 
L 130.565404 6.776752 
L 133.874148 6.166367 
" style="fill:none;stroke:#377eb8;stroke-linecap:square;stroke-width:1.5;"/>
    <defs>
     <path d="M 0 0.75 
C 0.198902 0.75 0.389685 0.670975 0.53033 0.53033 
C 0.670975 0.389685 0.75 0.198902 0.75 0 
C 0.75 -0.198902 0.670975 -0.389685 0.53033 -0.53033 
C 0.389685 -0.670975 0.198902 -0.75 0 -0.75 
C -0.198902 -0.75 -0.389685 -0.670975 -0.53033 -0.53033 
C -0.670975 -0.389685 -0.75 -0.198902 -0.75 0 
C -0.75 0.198902 -0.670975 0.389685 -0.53033 0.53033 
C -0.389685 0.670975 -0.198902 0.75 0 0.75 
z
" id="m05cd1326ec" style="stroke:#377eb8;"/>
    </defs>
    <g clip-path="url(#pe8d1b87e6e)">
     <use style="fill:#377eb8;stroke:#377eb8;" x="32.419602" xlink:href="#m05cd1326ec" y="51.224551"/>
     <use style="fill:#377eb8;stroke:#377eb8;" x="44.522771" xlink:href="#m05cd1326ec" y="37.952591"/>
     <use style="fill:#377eb8;stroke:#377eb8;" x="53.80986" xlink:href="#m05cd1326ec" y="31.665714"/>
     <use style="fill:#377eb8;stroke:#377eb8;" x="61.639237" xlink:href="#m05cd1326ec" y="27.612572"/>
     <use style="fill:#377eb8;stroke:#377eb8;" x="68.537057" xlink:href="#m05cd1326ec" y="24.916731"/>
     <use style="fill:#377eb8;stroke:#377eb8;" x="74.773164" xlink:href="#m05cd1326ec" y="22.719852"/>
     <use style="fill:#377eb8;stroke:#377eb8;" x="80.507855" xlink:href="#m05cd1326ec" y="20.850762"/>
     <use style="fill:#377eb8;stroke:#377eb8;" x="85.845576" xlink:href="#m05cd1326ec" y="19.234881"/>
     <use style="fill:#377eb8;stroke:#377eb8;" x="90.858872" xlink:href="#m05cd1326ec" y="17.535121"/>
     <use style="fill:#377eb8;stroke:#377eb8;" x="95.600566" xlink:href="#m05cd1326ec" y="16.19589"/>
     <use style="fill:#377eb8;stroke:#377eb8;" x="100.110533" xlink:href="#m05cd1326ec" y="14.71899"/>
     <use style="fill:#377eb8;stroke:#377eb8;" x="104.419752" xlink:href="#m05cd1326ec" y="13.443535"/>
     <use style="fill:#377eb8;stroke:#377eb8;" x="108.55286" xlink:href="#m05cd1326ec" y="12.028394"/>
     <use style="fill:#377eb8;stroke:#377eb8;" x="112.529831" xlink:href="#m05cd1326ec" y="11.115379"/>
     <use style="fill:#377eb8;stroke:#377eb8;" x="116.367127" xlink:href="#m05cd1326ec" y="10.287124"/>
     <use style="fill:#377eb8;stroke:#377eb8;" x="120.078507" xlink:href="#m05cd1326ec" y="9.164049"/>
     <use style="fill:#377eb8;stroke:#377eb8;" x="123.675609" xlink:href="#m05cd1326ec" y="8.325451"/>
     <use style="fill:#377eb8;stroke:#377eb8;" x="127.16838" xlink:href="#m05cd1326ec" y="7.461977"/>
     <use style="fill:#377eb8;stroke:#377eb8;" x="130.565404" xlink:href="#m05cd1326ec" y="6.776752"/>
     <use style="fill:#377eb8;stroke:#377eb8;" x="133.874148" xlink:href="#m05cd1326ec" y="6.166367"/>
    </g>
   </g>
   <g id="line2d_70">
    <path clip-path="url(#pe8d1b87e6e)" d="M 133.874148 4.941818 
L 130.565404 5.9612 
L 127.16838 7.00778 
L 123.675609 8.083858 
L 120.078507 9.192079 
L 116.367127 10.335508 
L 112.529831 11.51773 
L 108.55286 12.742984 
L 104.419752 14.016341 
L 100.110533 15.343957 
L 95.600566 16.73342 
L 90.858872 18.194275 
L 85.845576 19.738808 
L 80.507855 21.383292 
L 74.773164 23.150077 
L 68.537057 25.071341 
L 61.639237 27.196472 
L 53.80986 29.608603 
" style="fill:none;stroke:#000000;stroke-linecap:square;"/>
   </g>
   <g id="patch_3">
    <path d="M 27.346875 108.72 
L 27.346875 -0 
" style="fill:none;stroke:#000000;stroke-linecap:square;stroke-linejoin:miter;stroke-width:0.5;"/>
   </g>
   <g id="patch_4">
    <path d="M 138.946875 108.72 
L 138.946875 -0 
" style="fill:none;stroke:#000000;stroke-linecap:square;stroke-linejoin:miter;stroke-width:0.5;"/>
   </g>
   <g id="patch_5">
    <path d="M 27.346875 108.72 
L 138.946875 108.72 
" style="fill:none;stroke:#000000;stroke-linecap:square;stroke-linejoin:miter;stroke-width:0.5;"/>
   </g>
   <g id="patch_6">
    <path d="M 27.346875 0 
L 138.946875 0 
" style="fill:none;stroke:#000000;stroke-linecap:square;stroke-linejoin:miter;stroke-width:0.5;"/>
   </g>
  </g>
 </g>
 <defs>
  <clipPath id="pe8d1b87e6e">
   <rect height="108.72" width="111.6" x="27.346875" y="0"/>
  </clipPath>
 </defs>
</svg>
