<?xml version="1.0" encoding="utf-8" standalone="no"?>
<!DOCTYPE svg PUBLIC "-//W3C//DTD SVG 1.1//EN"
  "http://www.w3.org/Graphics/SVG/1.1/DTD/svg11.dtd">
<svg height="128.249687pt" version="1.1" viewBox="0 0 138.946875 128.249687" width="138.946875pt" xmlns="http://www.w3.org/2000/svg" xmlns:xlink="http://www.w3.org/1999/xlink">
 <metadata>
  <rdf:RDF xmlns:cc="http://creativecommons.org/ns#" xmlns:dc="http://purl.org/dc/elements/1.1/" xmlns:rdf="http://www.w3.org/1999/02/22-rdf-syntax-ns#">
   <cc:Work>
    <dc:type rdf:resource="http://purl.org/dc/dcmitype/StillImage"/>
    <dc:date>2021-09-09T11:31:16.481331</dc:date>
    <dc:format>image/svg+xml</dc:format>
    <dc:creator>
     <cc:Agent>
      <dc:title>Matplotlib v3.4.3, https://matplotlib.org/</dc:title>
     </cc:Agent>
    </dc:creator>
   </cc:Work>
  </rdf:RDF>
 </metadata>
 <defs>
  <style type="text/css">*{stroke-linecap:butt;stroke-linejoin:round;}</style>
 </defs>
 <g id="figure_1">
  <g id="patch_1">
   <path d="M 0 128.249687 
L 138.946875 128.249687 
L 138.946875 0 
L 0 0 
z
" style="fill:none;"/>
  </g>
  <g id="axes_1">
   <g id="patch_2">
    <path d="M 27.346875 108.72 
L 138.946875 108.72 
L 138.946875 0 
L 27.346875 0 
z
" style="fill:none;"/>
   </g>
   <g id="matplotlib.axis_1">
    <g id="xtick_1">
     <g id="line2d_1">
      <defs>
       <path d="M 0 0 
L 0 -3.5 
" id="mbf84d75317" style="stroke:#000000;stroke-width:0.5;"/>
      </defs>
      <g>
       <use style="stroke:#000000;stroke-width:0.5;" x="55.893974" xlink:href="#mbf84d75317" y="108.72"/>
      </g>
     </g>
     <g id="line2d_2">
      <defs>
       <path d="M 0 0 
L 0 3.5 
" id="m9c0e309877" style="stroke:#000000;stroke-width:0.5;"/>
      </defs>
      <g>
       <use style="stroke:#000000;stroke-width:0.5;" x="55.893974" xlink:href="#m9c0e309877" y="0"/>
      </g>
     </g>
     <g id="text_1">
      <text style="font-family:Arial;font-size:10px;font-stretch:normal;font-style:normal;font-weight:normal;text-anchor:middle;" transform="rotate(-0, 55.893974, 116.877812)" x="55.893974" y="116.877812">0</text>
     </g>
    </g>
    <g id="xtick_2">
     <g id="line2d_3">
      <g>
       <use style="stroke:#000000;stroke-width:0.5;" x="123.626692" xlink:href="#mbf84d75317" y="108.72"/>
      </g>
     </g>
     <g id="line2d_4">
      <g>
       <use style="stroke:#000000;stroke-width:0.5;" x="123.626692" xlink:href="#m9c0e309877" y="0"/>
      </g>
     </g>
     <g id="text_2">
      <text style="font-family:Arial;font-size:10px;font-stretch:normal;font-style:normal;font-weight:normal;text-anchor:middle;" transform="rotate(-0, 123.626692, 116.877812)" x="123.626692" y="116.877812">2</text>
     </g>
    </g>
    <g id="xtick_3">
     <g id="line2d_5">
      <defs>
       <path d="M 0 0 
L 0 -2 
" id="m7bd33a971d" style="stroke:#000000;stroke-width:0.5;"/>
      </defs>
      <g>
       <use style="stroke:#000000;stroke-width:0.5;" x="38.960794" xlink:href="#m7bd33a971d" y="108.72"/>
      </g>
     </g>
     <g id="line2d_6">
      <defs>
       <path d="M 0 0 
L 0 2 
" id="m820786649b" style="stroke:#000000;stroke-width:0.5;"/>
      </defs>
      <g>
       <use style="stroke:#000000;stroke-width:0.5;" x="38.960794" xlink:href="#m820786649b" y="0"/>
      </g>
     </g>
    </g>
    <g id="xtick_4">
     <g id="line2d_7">
      <g>
       <use style="stroke:#000000;stroke-width:0.5;" x="72.827153" xlink:href="#m7bd33a971d" y="108.72"/>
      </g>
     </g>
     <g id="line2d_8">
      <g>
       <use style="stroke:#000000;stroke-width:0.5;" x="72.827153" xlink:href="#m820786649b" y="0"/>
      </g>
     </g>
    </g>
    <g id="xtick_5">
     <g id="line2d_9">
      <g>
       <use style="stroke:#000000;stroke-width:0.5;" x="89.760333" xlink:href="#m7bd33a971d" y="108.72"/>
      </g>
     </g>
     <g id="line2d_10">
      <g>
       <use style="stroke:#000000;stroke-width:0.5;" x="89.760333" xlink:href="#m820786649b" y="0"/>
      </g>
     </g>
    </g>
    <g id="xtick_6">
     <g id="line2d_11">
      <g>
       <use style="stroke:#000000;stroke-width:0.5;" x="106.693513" xlink:href="#m7bd33a971d" y="108.72"/>
      </g>
     </g>
     <g id="line2d_12">
      <g>
       <use style="stroke:#000000;stroke-width:0.5;" x="106.693513" xlink:href="#m820786649b" y="0"/>
      </g>
     </g>
    </g>
    <g id="text_3">
     <text style="font-family:Arial;font-size:10px;font-stretch:normal;font-style:normal;font-weight:normal;text-anchor:middle;" transform="rotate(-0, 83.146875, 126.145)" x="83.146875" y="126.145">ln(V)</text>
    </g>
   </g>
   <g id="matplotlib.axis_2">
    <g id="ytick_1">
     <g id="line2d_13">
      <defs>
       <path d="M 0 0 
L 3.5 0 
" id="m131e3fbf6b" style="stroke:#000000;stroke-width:0.5;"/>
      </defs>
      <g>
       <use style="stroke:#000000;stroke-width:0.5;" x="27.346875" xlink:href="#m131e3fbf6b" y="84.732551"/>
      </g>
     </g>
     <g id="line2d_14">
      <defs>
       <path d="M 0 0 
L -3.5 0 
" id="m2db9488d50" style="stroke:#000000;stroke-width:0.5;"/>
      </defs>
      <g>
       <use style="stroke:#000000;stroke-width:0.5;" x="138.946875" xlink:href="#m2db9488d50" y="84.732551"/>
      </g>
     </g>
     <g id="text_4">
      <text style="font-family:Arial;font-size:10px;font-stretch:normal;font-style:normal;font-weight:normal;text-anchor:end;" transform="rotate(-0, 26.346875, 88.311458)" x="26.346875" y="88.311458">−18</text>
     </g>
    </g>
    <g id="ytick_2">
     <g id="line2d_15">
      <g>
       <use style="stroke:#000000;stroke-width:0.5;" x="27.346875" xlink:href="#m131e3fbf6b" y="46.936026"/>
      </g>
     </g>
     <g id="line2d_16">
      <g>
       <use style="stroke:#000000;stroke-width:0.5;" x="138.946875" xlink:href="#m2db9488d50" y="46.936026"/>
      </g>
     </g>
     <g id="text_5">
      <text style="font-family:Arial;font-size:10px;font-stretch:normal;font-style:normal;font-weight:normal;text-anchor:end;" transform="rotate(-0, 26.346875, 50.514932)" x="26.346875" y="50.514932">−16</text>
     </g>
    </g>
    <g id="ytick_3">
     <g id="line2d_17">
      <g>
       <use style="stroke:#000000;stroke-width:0.5;" x="27.346875" xlink:href="#m131e3fbf6b" y="9.139501"/>
      </g>
     </g>
     <g id="line2d_18">
      <g>
       <use style="stroke:#000000;stroke-width:0.5;" x="138.946875" xlink:href="#m2db9488d50" y="9.139501"/>
      </g>
     </g>
     <g id="text_6">
      <text style="font-family:Arial;font-size:10px;font-stretch:normal;font-style:normal;font-weight:normal;text-anchor:end;" transform="rotate(-0, 26.346875, 12.718407)" x="26.346875" y="12.718407">−14</text>
     </g>
    </g>
    <g id="ytick_4">
     <g id="line2d_19">
      <defs>
       <path d="M 0 0 
L 2 0 
" id="m3c276713a8" style="stroke:#000000;stroke-width:0.5;"/>
      </defs>
      <g>
       <use style="stroke:#000000;stroke-width:0.5;" x="27.346875" xlink:href="#m3c276713a8" y="103.630814"/>
      </g>
     </g>
     <g id="line2d_20">
      <defs>
       <path d="M 0 0 
L -2 0 
" id="m5a40f233f3" style="stroke:#000000;stroke-width:0.5;"/>
      </defs>
      <g>
       <use style="stroke:#000000;stroke-width:0.5;" x="138.946875" xlink:href="#m5a40f233f3" y="103.630814"/>
      </g>
     </g>
    </g>
    <g id="ytick_5">
     <g id="line2d_21">
      <g>
       <use style="stroke:#000000;stroke-width:0.5;" x="27.346875" xlink:href="#m3c276713a8" y="94.181683"/>
      </g>
     </g>
     <g id="line2d_22">
      <g>
       <use style="stroke:#000000;stroke-width:0.5;" x="138.946875" xlink:href="#m5a40f233f3" y="94.181683"/>
      </g>
     </g>
    </g>
    <g id="ytick_6">
     <g id="line2d_23">
      <g>
       <use style="stroke:#000000;stroke-width:0.5;" x="27.346875" xlink:href="#m3c276713a8" y="75.28342"/>
      </g>
     </g>
     <g id="line2d_24">
      <g>
       <use style="stroke:#000000;stroke-width:0.5;" x="138.946875" xlink:href="#m5a40f233f3" y="75.28342"/>
      </g>
     </g>
    </g>
    <g id="ytick_7">
     <g id="line2d_25">
      <g>
       <use style="stroke:#000000;stroke-width:0.5;" x="27.346875" xlink:href="#m3c276713a8" y="65.834289"/>
      </g>
     </g>
     <g id="line2d_26">
      <g>
       <use style="stroke:#000000;stroke-width:0.5;" x="138.946875" xlink:href="#m5a40f233f3" y="65.834289"/>
      </g>
     </g>
    </g>
    <g id="ytick_8">
     <g id="line2d_27">
      <g>
       <use style="stroke:#000000;stroke-width:0.5;" x="27.346875" xlink:href="#m3c276713a8" y="56.385158"/>
      </g>
     </g>
     <g id="line2d_28">
      <g>
       <use style="stroke:#000000;stroke-width:0.5;" x="138.946875" xlink:href="#m5a40f233f3" y="56.385158"/>
      </g>
     </g>
    </g>
    <g id="ytick_9">
     <g id="line2d_29">
      <g>
       <use style="stroke:#000000;stroke-width:0.5;" x="27.346875" xlink:href="#m3c276713a8" y="37.486895"/>
      </g>
     </g>
     <g id="line2d_30">
      <g>
       <use style="stroke:#000000;stroke-width:0.5;" x="138.946875" xlink:href="#m5a40f233f3" y="37.486895"/>
      </g>
     </g>
    </g>
    <g id="ytick_10">
     <g id="line2d_31">
      <g>
       <use style="stroke:#000000;stroke-width:0.5;" x="27.346875" xlink:href="#m3c276713a8" y="28.037764"/>
      </g>
     </g>
     <g id="line2d_32">
      <g>
       <use style="stroke:#000000;stroke-width:0.5;" x="138.946875" xlink:href="#m5a40f233f3" y="28.037764"/>
      </g>
     </g>
    </g>
    <g id="ytick_11">
     <g id="line2d_33">
      <g>
       <use style="stroke:#000000;stroke-width:0.5;" x="27.346875" xlink:href="#m3c276713a8" y="18.588632"/>
      </g>
     </g>
     <g id="line2d_34">
      <g>
       <use style="stroke:#000000;stroke-width:0.5;" x="138.946875" xlink:href="#m5a40f233f3" y="18.588632"/>
      </g>
     </g>
    </g>
    <g id="text_7">
     <text style="font-family:Arial;font-size:10px;font-stretch:normal;font-style:normal;font-weight:normal;text-anchor:middle;" transform="rotate(-90, 7.279688, 54.36)" x="7.279688" y="54.36">ln(I)</text>
    </g>
   </g>
   <g id="line2d_35">
    <path clip-path="url(#p237ff13d5f)" d="M 32.419602 103.778182 
L 55.893974 90.230292 
L 69.625601 82.506048 
L 79.368345 77.108334 
L 86.925405 73.168776 
L 93.099972 70.161652 
L 98.320494 67.348763 
L 102.842717 64.827769 
L 106.831599 62.95907 
L 110.399776 60.705831 
L 113.627585 58.610206 
L 116.574344 56.247978 
L 119.285099 54.628099 
L 121.794866 52.718844 
L 124.131403 50.534551 
L 126.317088 47.589912 
L 128.370223 46.096216 
L 130.305971 44.012597 
L 132.137031 41.995926 
L 133.874148 40.080181 
" style="fill:none;stroke:#e41a1c;stroke-linecap:square;stroke-width:1.5;"/>
    <defs>
     <path d="M 0 0.75 
C 0.198902 0.75 0.389685 0.670975 0.53033 0.53033 
C 0.670975 0.389685 0.75 0.198902 0.75 0 
C 0.75 -0.198902 0.670975 -0.389685 0.53033 -0.53033 
C 0.389685 -0.670975 0.198902 -0.75 0 -0.75 
C -0.198902 -0.75 -0.389685 -0.670975 -0.53033 -0.53033 
C -0.670975 -0.389685 -0.75 -0.198902 -0.75 0 
C -0.75 0.198902 -0.670975 0.389685 -0.53033 0.53033 
C -0.389685 0.670975 -0.198902 0.75 0 0.75 
z
" id="mc0b3bcd1d0" style="stroke:#e41a1c;"/>
    </defs>
    <g clip-path="url(#p237ff13d5f)">
     <use style="fill:#e41a1c;stroke:#e41a1c;" x="32.419602" xlink:href="#mc0b3bcd1d0" y="103.778182"/>
     <use style="fill:#e41a1c;stroke:#e41a1c;" x="55.893974" xlink:href="#mc0b3bcd1d0" y="90.230292"/>
     <use style="fill:#e41a1c;stroke:#e41a1c;" x="69.625601" xlink:href="#mc0b3bcd1d0" y="82.506048"/>
     <use style="fill:#e41a1c;stroke:#e41a1c;" x="79.368345" xlink:href="#mc0b3bcd1d0" y="77.108334"/>
     <use style="fill:#e41a1c;stroke:#e41a1c;" x="86.925405" xlink:href="#mc0b3bcd1d0" y="73.168776"/>
     <use style="fill:#e41a1c;stroke:#e41a1c;" x="93.099972" xlink:href="#mc0b3bcd1d0" y="70.161652"/>
     <use style="fill:#e41a1c;stroke:#e41a1c;" x="98.320494" xlink:href="#mc0b3bcd1d0" y="67.348763"/>
     <use style="fill:#e41a1c;stroke:#e41a1c;" x="102.842717" xlink:href="#mc0b3bcd1d0" y="64.827769"/>
     <use style="fill:#e41a1c;stroke:#e41a1c;" x="106.831599" xlink:href="#mc0b3bcd1d0" y="62.95907"/>
     <use style="fill:#e41a1c;stroke:#e41a1c;" x="110.399776" xlink:href="#mc0b3bcd1d0" y="60.705831"/>
     <use style="fill:#e41a1c;stroke:#e41a1c;" x="113.627585" xlink:href="#mc0b3bcd1d0" y="58.610206"/>
     <use style="fill:#e41a1c;stroke:#e41a1c;" x="116.574344" xlink:href="#mc0b3bcd1d0" y="56.247978"/>
     <use style="fill:#e41a1c;stroke:#e41a1c;" x="119.285099" xlink:href="#mc0b3bcd1d0" y="54.628099"/>
     <use style="fill:#e41a1c;stroke:#e41a1c;" x="121.794866" xlink:href="#mc0b3bcd1d0" y="52.718844"/>
     <use style="fill:#e41a1c;stroke:#e41a1c;" x="124.131403" xlink:href="#mc0b3bcd1d0" y="50.534551"/>
     <use style="fill:#e41a1c;stroke:#e41a1c;" x="126.317088" xlink:href="#mc0b3bcd1d0" y="47.589912"/>
     <use style="fill:#e41a1c;stroke:#e41a1c;" x="128.370223" xlink:href="#mc0b3bcd1d0" y="46.096216"/>
     <use style="fill:#e41a1c;stroke:#e41a1c;" x="130.305971" xlink:href="#mc0b3bcd1d0" y="44.012597"/>
     <use style="fill:#e41a1c;stroke:#e41a1c;" x="132.137031" xlink:href="#mc0b3bcd1d0" y="41.995926"/>
     <use style="fill:#e41a1c;stroke:#e41a1c;" x="133.874148" xlink:href="#mc0b3bcd1d0" y="40.080181"/>
    </g>
   </g>
   <g id="line2d_36">
    <path clip-path="url(#p237ff13d5f)" d="M 110.399776 60.615193 
L 106.831599 62.565642 
L 102.842717 64.746058 
L 98.320494 67.21801 
L 93.099972 70.071669 
L 86.925405 73.446832 
L 79.368345 77.577697 
L 69.625601 82.903308 
L 55.893974 90.409335 
L 32.419602 103.240974 
" style="fill:none;stroke:#000000;stroke-linecap:square;"/>
   </g>
   <g id="line2d_37">
    <path clip-path="url(#p237ff13d5f)" d="M 133.874148 40.722905 
L 132.137031 42.327594 
L 130.305971 44.019064 
L 128.370223 45.80724 
L 126.317088 47.703855 
L 124.131403 49.722915 
L 121.794866 51.881328 
L 119.285099 54.199764 
L 116.574344 56.703865 
L 113.627585 59.425979 
" style="fill:none;stroke:#000000;stroke-linecap:square;"/>
   </g>
   <g id="line2d_38">
    <path clip-path="url(#p237ff13d5f)" d="M 32.419602 84.602857 
L 55.893974 71.276744 
L 69.625601 63.572639 
L 79.368345 58.400606 
L 86.925405 54.433088 
L 93.099972 50.617916 
L 98.320494 46.829324 
L 102.842717 44.273237 
L 106.831599 41.503552 
L 110.399776 38.91358 
L 113.627585 36.786499 
L 116.574344 34.886417 
L 119.285099 33.163998 
L 121.794866 31.689985 
L 124.131403 30.844574 
L 126.317088 29.790679 
L 128.370223 28.686799 
L 130.305971 27.432325 
L 132.137031 26.562852 
L 133.874148 25.672485 
" style="fill:none;stroke:#ff7f00;stroke-linecap:square;stroke-width:1.5;"/>
    <defs>
     <path d="M 0 0.75 
C 0.198902 0.75 0.389685 0.670975 0.53033 0.53033 
C 0.670975 0.389685 0.75 0.198902 0.75 0 
C 0.75 -0.198902 0.670975 -0.389685 0.53033 -0.53033 
C 0.389685 -0.670975 0.198902 -0.75 0 -0.75 
C -0.198902 -0.75 -0.389685 -0.670975 -0.53033 -0.53033 
C -0.670975 -0.389685 -0.75 -0.198902 -0.75 0 
C -0.75 0.198902 -0.670975 0.389685 -0.53033 0.53033 
C -0.389685 0.670975 -0.198902 0.75 0 0.75 
z
" id="m1f70c80924" style="stroke:#ff7f00;"/>
    </defs>
    <g clip-path="url(#p237ff13d5f)">
     <use style="fill:#ff7f00;stroke:#ff7f00;" x="32.419602" xlink:href="#m1f70c80924" y="84.602857"/>
     <use style="fill:#ff7f00;stroke:#ff7f00;" x="55.893974" xlink:href="#m1f70c80924" y="71.276744"/>
     <use style="fill:#ff7f00;stroke:#ff7f00;" x="69.625601" xlink:href="#m1f70c80924" y="63.572639"/>
     <use style="fill:#ff7f00;stroke:#ff7f00;" x="79.368345" xlink:href="#m1f70c80924" y="58.400606"/>
     <use style="fill:#ff7f00;stroke:#ff7f00;" x="86.925405" xlink:href="#m1f70c80924" y="54.433088"/>
     <use style="fill:#ff7f00;stroke:#ff7f00;" x="93.099972" xlink:href="#m1f70c80924" y="50.617916"/>
     <use style="fill:#ff7f00;stroke:#ff7f00;" x="98.320494" xlink:href="#m1f70c80924" y="46.829324"/>
     <use style="fill:#ff7f00;stroke:#ff7f00;" x="102.842717" xlink:href="#m1f70c80924" y="44.273237"/>
     <use style="fill:#ff7f00;stroke:#ff7f00;" x="106.831599" xlink:href="#m1f70c80924" y="41.503552"/>
     <use style="fill:#ff7f00;stroke:#ff7f00;" x="110.399776" xlink:href="#m1f70c80924" y="38.91358"/>
     <use style="fill:#ff7f00;stroke:#ff7f00;" x="113.627585" xlink:href="#m1f70c80924" y="36.786499"/>
     <use style="fill:#ff7f00;stroke:#ff7f00;" x="116.574344" xlink:href="#m1f70c80924" y="34.886417"/>
     <use style="fill:#ff7f00;stroke:#ff7f00;" x="119.285099" xlink:href="#m1f70c80924" y="33.163998"/>
     <use style="fill:#ff7f00;stroke:#ff7f00;" x="121.794866" xlink:href="#m1f70c80924" y="31.689985"/>
     <use style="fill:#ff7f00;stroke:#ff7f00;" x="124.131403" xlink:href="#m1f70c80924" y="30.844574"/>
     <use style="fill:#ff7f00;stroke:#ff7f00;" x="126.317088" xlink:href="#m1f70c80924" y="29.790679"/>
     <use style="fill:#ff7f00;stroke:#ff7f00;" x="128.370223" xlink:href="#m1f70c80924" y="28.686799"/>
     <use style="fill:#ff7f00;stroke:#ff7f00;" x="130.305971" xlink:href="#m1f70c80924" y="27.432325"/>
     <use style="fill:#ff7f00;stroke:#ff7f00;" x="132.137031" xlink:href="#m1f70c80924" y="26.562852"/>
     <use style="fill:#ff7f00;stroke:#ff7f00;" x="133.874148" xlink:href="#m1f70c80924" y="25.672485"/>
    </g>
   </g>
   <g id="line2d_39">
    <path clip-path="url(#p237ff13d5f)" d="M 133.874148 25.318955 
L 132.137031 26.350599 
L 130.305971 27.438035 
L 128.370223 28.587643 
L 126.317088 29.806966 
L 124.131403 31.105007 
L 121.794866 32.492637 
L 119.285099 33.983146 
L 116.574344 35.593018 
L 113.627585 37.343048 
L 110.399776 39.25999 
L 106.831599 41.37907 
L 102.842717 43.748 
L 98.320494 46.433672 
L 93.099972 49.534053 
L 86.925405 53.201024 
L 79.368345 57.689035 
L 69.625601 63.475087 
L 55.893974 71.63007 
L 32.419602 85.571105 
" style="fill:none;stroke:#000000;stroke-linecap:square;"/>
   </g>
   <g id="line2d_40">
    <path clip-path="url(#p237ff13d5f)" d="M 32.419602 76.295087 
L 55.893974 62.711439 
L 69.625601 54.918992 
L 79.368345 49.957992 
L 86.925405 44.697995 
L 93.099972 41.052558 
L 98.320494 37.439336 
L 102.842717 34.248382 
L 106.831599 31.310386 
L 110.399776 28.817551 
L 113.627585 26.720483 
L 116.574344 24.983846 
L 119.285099 23.413509 
L 121.794866 21.936062 
L 124.131403 20.733504 
L 126.317088 19.639855 
L 128.370223 18.669024 
L 130.305971 17.707587 
L 132.137031 16.854939 
L 133.874148 16.28223 
" style="fill:none;stroke:#984ea3;stroke-linecap:square;stroke-width:1.5;"/>
    <defs>
     <path d="M 0 0.75 
C 0.198902 0.75 0.389685 0.670975 0.53033 0.53033 
C 0.670975 0.389685 0.75 0.198902 0.75 0 
C 0.75 -0.198902 0.670975 -0.389685 0.53033 -0.53033 
C 0.389685 -0.670975 0.198902 -0.75 0 -0.75 
C -0.198902 -0.75 -0.389685 -0.670975 -0.53033 -0.53033 
C -0.670975 -0.389685 -0.75 -0.198902 -0.75 0 
C -0.75 0.198902 -0.670975 0.389685 -0.53033 0.53033 
C -0.389685 0.670975 -0.198902 0.75 0 0.75 
z
" id="m3c71d7fe3d" style="stroke:#984ea3;"/>
    </defs>
    <g clip-path="url(#p237ff13d5f)">
     <use style="fill:#984ea3;stroke:#984ea3;" x="32.419602" xlink:href="#m3c71d7fe3d" y="76.295087"/>
     <use style="fill:#984ea3;stroke:#984ea3;" x="55.893974" xlink:href="#m3c71d7fe3d" y="62.711439"/>
     <use style="fill:#984ea3;stroke:#984ea3;" x="69.625601" xlink:href="#m3c71d7fe3d" y="54.918992"/>
     <use style="fill:#984ea3;stroke:#984ea3;" x="79.368345" xlink:href="#m3c71d7fe3d" y="49.957992"/>
     <use style="fill:#984ea3;stroke:#984ea3;" x="86.925405" xlink:href="#m3c71d7fe3d" y="44.697995"/>
     <use style="fill:#984ea3;stroke:#984ea3;" x="93.099972" xlink:href="#m3c71d7fe3d" y="41.052558"/>
     <use style="fill:#984ea3;stroke:#984ea3;" x="98.320494" xlink:href="#m3c71d7fe3d" y="37.439336"/>
     <use style="fill:#984ea3;stroke:#984ea3;" x="102.842717" xlink:href="#m3c71d7fe3d" y="34.248382"/>
     <use style="fill:#984ea3;stroke:#984ea3;" x="106.831599" xlink:href="#m3c71d7fe3d" y="31.310386"/>
     <use style="fill:#984ea3;stroke:#984ea3;" x="110.399776" xlink:href="#m3c71d7fe3d" y="28.817551"/>
     <use style="fill:#984ea3;stroke:#984ea3;" x="113.627585" xlink:href="#m3c71d7fe3d" y="26.720483"/>
     <use style="fill:#984ea3;stroke:#984ea3;" x="116.574344" xlink:href="#m3c71d7fe3d" y="24.983846"/>
     <use style="fill:#984ea3;stroke:#984ea3;" x="119.285099" xlink:href="#m3c71d7fe3d" y="23.413509"/>
     <use style="fill:#984ea3;stroke:#984ea3;" x="121.794866" xlink:href="#m3c71d7fe3d" y="21.936062"/>
     <use style="fill:#984ea3;stroke:#984ea3;" x="124.131403" xlink:href="#m3c71d7fe3d" y="20.733504"/>
     <use style="fill:#984ea3;stroke:#984ea3;" x="126.317088" xlink:href="#m3c71d7fe3d" y="19.639855"/>
     <use style="fill:#984ea3;stroke:#984ea3;" x="128.370223" xlink:href="#m3c71d7fe3d" y="18.669024"/>
     <use style="fill:#984ea3;stroke:#984ea3;" x="130.305971" xlink:href="#m3c71d7fe3d" y="17.707587"/>
     <use style="fill:#984ea3;stroke:#984ea3;" x="132.137031" xlink:href="#m3c71d7fe3d" y="16.854939"/>
     <use style="fill:#984ea3;stroke:#984ea3;" x="133.874148" xlink:href="#m3c71d7fe3d" y="16.28223"/>
    </g>
   </g>
   <g id="line2d_41">
    <path clip-path="url(#p237ff13d5f)" d="M 133.874148 15.217987 
L 132.137031 16.280182 
L 130.305971 17.39982 
L 128.370223 18.583471 
L 126.317088 19.838901 
L 124.131403 21.175381 
L 121.794866 22.604103 
L 119.285099 24.13875 
L 116.574344 25.796294 
L 113.627585 27.598148 
L 110.399776 29.571856 
L 106.831599 31.753688 
L 102.842717 34.192769 
L 98.320494 36.957971 
L 93.099972 40.150163 
L 86.925405 43.925724 
L 79.368345 48.546638 
L 69.625601 54.504031 
L 55.893974 62.900506 
L 32.419602 77.254375 
" style="fill:none;stroke:#000000;stroke-linecap:square;"/>
   </g>
   <g id="line2d_42">
    <path clip-path="url(#p237ff13d5f)" d="M 32.419602 67.898139 
L 55.893974 54.520712 
L 69.625601 47.190927 
L 79.368345 42.470156 
L 86.925405 38.470917 
L 93.099972 34.42389 
L 98.320494 31.088884 
L 102.842717 28.101342 
L 106.831599 25.358462 
L 110.399776 22.920172 
L 113.627585 21.119329 
L 116.574344 19.373799 
L 119.285099 18.054495 
L 121.794866 16.541123 
L 124.131403 15.295995 
L 126.317088 14.314298 
L 128.370223 13.234832 
L 130.305971 12.361414 
L 132.137031 11.337583 
L 133.874148 10.45983 
" style="fill:none;stroke:#a65628;stroke-linecap:square;stroke-width:1.5;"/>
    <defs>
     <path d="M 0 0.75 
C 0.198902 0.75 0.389685 0.670975 0.53033 0.53033 
C 0.670975 0.389685 0.75 0.198902 0.75 0 
C 0.75 -0.198902 0.670975 -0.389685 0.53033 -0.53033 
C 0.389685 -0.670975 0.198902 -0.75 0 -0.75 
C -0.198902 -0.75 -0.389685 -0.670975 -0.53033 -0.53033 
C -0.670975 -0.389685 -0.75 -0.198902 -0.75 0 
C -0.75 0.198902 -0.670975 0.389685 -0.53033 0.53033 
C -0.389685 0.670975 -0.198902 0.75 0 0.75 
z
" id="m920a47d6b2" style="stroke:#a65628;"/>
    </defs>
    <g clip-path="url(#p237ff13d5f)">
     <use style="fill:#a65628;stroke:#a65628;" x="32.419602" xlink:href="#m920a47d6b2" y="67.898139"/>
     <use style="fill:#a65628;stroke:#a65628;" x="55.893974" xlink:href="#m920a47d6b2" y="54.520712"/>
     <use style="fill:#a65628;stroke:#a65628;" x="69.625601" xlink:href="#m920a47d6b2" y="47.190927"/>
     <use style="fill:#a65628;stroke:#a65628;" x="79.368345" xlink:href="#m920a47d6b2" y="42.470156"/>
     <use style="fill:#a65628;stroke:#a65628;" x="86.925405" xlink:href="#m920a47d6b2" y="38.470917"/>
     <use style="fill:#a65628;stroke:#a65628;" x="93.099972" xlink:href="#m920a47d6b2" y="34.42389"/>
     <use style="fill:#a65628;stroke:#a65628;" x="98.320494" xlink:href="#m920a47d6b2" y="31.088884"/>
     <use style="fill:#a65628;stroke:#a65628;" x="102.842717" xlink:href="#m920a47d6b2" y="28.101342"/>
     <use style="fill:#a65628;stroke:#a65628;" x="106.831599" xlink:href="#m920a47d6b2" y="25.358462"/>
     <use style="fill:#a65628;stroke:#a65628;" x="110.399776" xlink:href="#m920a47d6b2" y="22.920172"/>
     <use style="fill:#a65628;stroke:#a65628;" x="113.627585" xlink:href="#m920a47d6b2" y="21.119329"/>
     <use style="fill:#a65628;stroke:#a65628;" x="116.574344" xlink:href="#m920a47d6b2" y="19.373799"/>
     <use style="fill:#a65628;stroke:#a65628;" x="119.285099" xlink:href="#m920a47d6b2" y="18.054495"/>
     <use style="fill:#a65628;stroke:#a65628;" x="121.794866" xlink:href="#m920a47d6b2" y="16.541123"/>
     <use style="fill:#a65628;stroke:#a65628;" x="124.131403" xlink:href="#m920a47d6b2" y="15.295995"/>
     <use style="fill:#a65628;stroke:#a65628;" x="126.317088" xlink:href="#m920a47d6b2" y="14.314298"/>
     <use style="fill:#a65628;stroke:#a65628;" x="128.370223" xlink:href="#m920a47d6b2" y="13.234832"/>
     <use style="fill:#a65628;stroke:#a65628;" x="130.305971" xlink:href="#m920a47d6b2" y="12.361414"/>
     <use style="fill:#a65628;stroke:#a65628;" x="132.137031" xlink:href="#m920a47d6b2" y="11.337583"/>
     <use style="fill:#a65628;stroke:#a65628;" x="133.874148" xlink:href="#m920a47d6b2" y="10.45983"/>
    </g>
   </g>
   <g id="line2d_43">
    <path clip-path="url(#p237ff13d5f)" d="M 133.874148 10.044137 
L 132.137031 11.046873 
L 130.305971 12.103837 
L 128.370223 13.22123 
L 126.317088 14.406385 
L 124.131403 15.668052 
L 121.794866 17.016798 
L 119.285099 18.46554 
L 116.574344 20.0303 
L 113.627585 21.731291 
L 110.399776 23.594516 
L 106.831599 25.654215 
L 102.842717 27.956763 
L 98.320494 30.567177 
L 93.099972 33.580678 
L 86.925405 37.144894 
L 79.368345 41.507141 
L 69.625601 47.131056 
L 55.893974 55.057519 
L 32.419602 68.607897 
" style="fill:none;stroke:#000000;stroke-linecap:square;"/>
   </g>
   <g id="line2d_44">
    <path clip-path="url(#p237ff13d5f)" d="M 32.419602 60.157006 
L 55.893974 47.701065 
L 69.625601 40.706176 
L 79.368345 36.380921 
L 86.925405 32.571477 
L 93.099972 29.267148 
L 98.320494 26.401131 
L 102.842717 23.717673 
L 106.831599 21.629485 
L 110.399776 19.651385 
L 113.627585 17.884845 
L 116.574344 16.20912 
L 119.285099 14.955524 
L 121.794866 13.731403 
L 124.131403 12.4058 
L 126.317088 11.421298 
L 128.370223 10.568688 
L 130.305971 9.605341 
L 132.137031 8.747424 
L 133.874148 8.037753 
" style="fill:none;stroke:#4daf4a;stroke-linecap:square;stroke-width:1.5;"/>
    <defs>
     <path d="M 0 0.75 
C 0.198902 0.75 0.389685 0.670975 0.53033 0.53033 
C 0.670975 0.389685 0.75 0.198902 0.75 0 
C 0.75 -0.198902 0.670975 -0.389685 0.53033 -0.53033 
C 0.389685 -0.670975 0.198902 -0.75 0 -0.75 
C -0.198902 -0.75 -0.389685 -0.670975 -0.53033 -0.53033 
C -0.670975 -0.389685 -0.75 -0.198902 -0.75 0 
C -0.75 0.198902 -0.670975 0.389685 -0.53033 0.53033 
C -0.389685 0.670975 -0.198902 0.75 0 0.75 
z
" id="m125388a79a" style="stroke:#4daf4a;"/>
    </defs>
    <g clip-path="url(#p237ff13d5f)">
     <use style="fill:#4daf4a;stroke:#4daf4a;" x="32.419602" xlink:href="#m125388a79a" y="60.157006"/>
     <use style="fill:#4daf4a;stroke:#4daf4a;" x="55.893974" xlink:href="#m125388a79a" y="47.701065"/>
     <use style="fill:#4daf4a;stroke:#4daf4a;" x="69.625601" xlink:href="#m125388a79a" y="40.706176"/>
     <use style="fill:#4daf4a;stroke:#4daf4a;" x="79.368345" xlink:href="#m125388a79a" y="36.380921"/>
     <use style="fill:#4daf4a;stroke:#4daf4a;" x="86.925405" xlink:href="#m125388a79a" y="32.571477"/>
     <use style="fill:#4daf4a;stroke:#4daf4a;" x="93.099972" xlink:href="#m125388a79a" y="29.267148"/>
     <use style="fill:#4daf4a;stroke:#4daf4a;" x="98.320494" xlink:href="#m125388a79a" y="26.401131"/>
     <use style="fill:#4daf4a;stroke:#4daf4a;" x="102.842717" xlink:href="#m125388a79a" y="23.717673"/>
     <use style="fill:#4daf4a;stroke:#4daf4a;" x="106.831599" xlink:href="#m125388a79a" y="21.629485"/>
     <use style="fill:#4daf4a;stroke:#4daf4a;" x="110.399776" xlink:href="#m125388a79a" y="19.651385"/>
     <use style="fill:#4daf4a;stroke:#4daf4a;" x="113.627585" xlink:href="#m125388a79a" y="17.884845"/>
     <use style="fill:#4daf4a;stroke:#4daf4a;" x="116.574344" xlink:href="#m125388a79a" y="16.20912"/>
     <use style="fill:#4daf4a;stroke:#4daf4a;" x="119.285099" xlink:href="#m125388a79a" y="14.955524"/>
     <use style="fill:#4daf4a;stroke:#4daf4a;" x="121.794866" xlink:href="#m125388a79a" y="13.731403"/>
     <use style="fill:#4daf4a;stroke:#4daf4a;" x="124.131403" xlink:href="#m125388a79a" y="12.4058"/>
     <use style="fill:#4daf4a;stroke:#4daf4a;" x="126.317088" xlink:href="#m125388a79a" y="11.421298"/>
     <use style="fill:#4daf4a;stroke:#4daf4a;" x="128.370223" xlink:href="#m125388a79a" y="10.568688"/>
     <use style="fill:#4daf4a;stroke:#4daf4a;" x="130.305971" xlink:href="#m125388a79a" y="9.605341"/>
     <use style="fill:#4daf4a;stroke:#4daf4a;" x="132.137031" xlink:href="#m125388a79a" y="8.747424"/>
     <use style="fill:#4daf4a;stroke:#4daf4a;" x="133.874148" xlink:href="#m125388a79a" y="8.037753"/>
    </g>
   </g>
   <g id="line2d_45">
    <path clip-path="url(#p237ff13d5f)" d="M 133.874148 7.657258 
L 132.137031 8.557728 
L 130.305971 9.506895 
L 128.370223 10.51033 
L 126.317088 11.574614 
L 124.131403 12.707609 
L 121.794866 13.918801 
L 119.285099 15.21979 
L 116.574344 16.624966 
L 113.627585 18.152479 
L 110.399776 19.825679 
L 106.831599 21.675317 
L 102.842717 23.743036 
L 98.320494 26.087223 
L 93.099972 28.793388 
L 86.925405 31.994101 
L 79.368345 35.911458 
L 69.625601 40.96181 
L 55.893974 48.07988 
L 32.419602 60.248302 
" style="fill:none;stroke:#000000;stroke-linecap:square;"/>
   </g>
   <g id="line2d_46">
    <path clip-path="url(#p237ff13d5f)" d="M 32.419602 54.409645 
L 55.893974 41.469575 
L 69.625601 35.242668 
L 79.368345 31.050714 
L 86.925405 27.843272 
L 93.099972 25.341371 
L 98.320494 22.545182 
L 102.842717 20.524066 
L 106.831599 18.642684 
L 110.399776 17.049591 
L 113.627585 15.215355 
L 116.574344 13.912498 
L 119.285099 12.564201 
L 121.794866 11.495204 
L 124.131403 10.411868 
L 126.317088 9.391926 
L 128.370223 8.678199 
L 130.305971 7.735013 
L 132.137031 6.938264 
L 133.874148 5.958851 
" style="fill:none;stroke:#999999;stroke-linecap:square;stroke-width:1.5;"/>
    <defs>
     <path d="M 0 0.75 
C 0.198902 0.75 0.389685 0.670975 0.53033 0.53033 
C 0.670975 0.389685 0.75 0.198902 0.75 0 
C 0.75 -0.198902 0.670975 -0.389685 0.53033 -0.53033 
C 0.389685 -0.670975 0.198902 -0.75 0 -0.75 
C -0.198902 -0.75 -0.389685 -0.670975 -0.53033 -0.53033 
C -0.670975 -0.389685 -0.75 -0.198902 -0.75 0 
C -0.75 0.198902 -0.670975 0.389685 -0.53033 0.53033 
C -0.389685 0.670975 -0.198902 0.75 0 0.75 
z
" id="mf651ac17de" style="stroke:#999999;"/>
    </defs>
    <g clip-path="url(#p237ff13d5f)">
     <use style="fill:#999999;stroke:#999999;" x="32.419602" xlink:href="#mf651ac17de" y="54.409645"/>
     <use style="fill:#999999;stroke:#999999;" x="55.893974" xlink:href="#mf651ac17de" y="41.469575"/>
     <use style="fill:#999999;stroke:#999999;" x="69.625601" xlink:href="#mf651ac17de" y="35.242668"/>
     <use style="fill:#999999;stroke:#999999;" x="79.368345" xlink:href="#mf651ac17de" y="31.050714"/>
     <use style="fill:#999999;stroke:#999999;" x="86.925405" xlink:href="#mf651ac17de" y="27.843272"/>
     <use style="fill:#999999;stroke:#999999;" x="93.099972" xlink:href="#mf651ac17de" y="25.341371"/>
     <use style="fill:#999999;stroke:#999999;" x="98.320494" xlink:href="#mf651ac17de" y="22.545182"/>
     <use style="fill:#999999;stroke:#999999;" x="102.842717" xlink:href="#mf651ac17de" y="20.524066"/>
     <use style="fill:#999999;stroke:#999999;" x="106.831599" xlink:href="#mf651ac17de" y="18.642684"/>
     <use style="fill:#999999;stroke:#999999;" x="110.399776" xlink:href="#mf651ac17de" y="17.049591"/>
     <use style="fill:#999999;stroke:#999999;" x="113.627585" xlink:href="#mf651ac17de" y="15.215355"/>
     <use style="fill:#999999;stroke:#999999;" x="116.574344" xlink:href="#mf651ac17de" y="13.912498"/>
     <use style="fill:#999999;stroke:#999999;" x="119.285099" xlink:href="#mf651ac17de" y="12.564201"/>
     <use style="fill:#999999;stroke:#999999;" x="121.794866" xlink:href="#mf651ac17de" y="11.495204"/>
     <use style="fill:#999999;stroke:#999999;" x="124.131403" xlink:href="#mf651ac17de" y="10.411868"/>
     <use style="fill:#999999;stroke:#999999;" x="126.317088" xlink:href="#mf651ac17de" y="9.391926"/>
     <use style="fill:#999999;stroke:#999999;" x="128.370223" xlink:href="#mf651ac17de" y="8.678199"/>
     <use style="fill:#999999;stroke:#999999;" x="130.305971" xlink:href="#mf651ac17de" y="7.735013"/>
     <use style="fill:#999999;stroke:#999999;" x="132.137031" xlink:href="#mf651ac17de" y="6.938264"/>
     <use style="fill:#999999;stroke:#999999;" x="133.874148" xlink:href="#mf651ac17de" y="5.958851"/>
    </g>
   </g>
   <g id="line2d_47">
    <path clip-path="url(#p237ff13d5f)" d="M 133.874148 5.914186 
L 132.137031 6.725751 
L 130.305971 7.581206 
L 128.370223 8.48557 
L 126.317088 9.444776 
L 124.131403 10.465908 
L 121.794866 11.557518 
L 119.285099 12.730058 
L 116.574344 13.996499 
L 113.627585 15.373198 
L 110.399776 16.881201 
L 106.831599 18.548221 
L 102.842717 20.411792 
L 98.320494 22.524533 
L 93.099972 24.963514 
L 86.925405 27.848217 
L 79.368345 31.378807 
L 69.625601 35.93053 
L 55.893974 42.345823 
L 32.419602 53.312838 
" style="fill:none;stroke:#000000;stroke-linecap:square;"/>
   </g>
   <g id="line2d_48">
    <path clip-path="url(#p237ff13d5f)" d="M 32.419602 50.715739 
L 55.893974 37.315283 
L 69.625601 30.967537 
L 79.368345 26.875154 
L 86.925405 24.153213 
L 93.099972 21.935064 
L 98.320494 20.047878 
L 102.842717 18.416352 
L 106.831599 16.700135 
L 110.399776 15.347938 
L 113.627585 13.856739 
L 116.574344 12.568935 
L 119.285099 11.140093 
L 121.794866 10.218239 
L 124.131403 9.381964 
L 126.317088 8.248016 
L 128.370223 7.4013 
L 130.305971 6.529465 
L 132.137031 5.837606 
L 133.874148 5.221311 
" style="fill:none;stroke:#377eb8;stroke-linecap:square;stroke-width:1.5;"/>
    <defs>
     <path d="M 0 0.75 
C 0.198902 0.75 0.389685 0.670975 0.53033 0.53033 
C 0.670975 0.389685 0.75 0.198902 0.75 0 
C 0.75 -0.198902 0.670975 -0.389685 0.53033 -0.53033 
C 0.389685 -0.670975 0.198902 -0.75 0 -0.75 
C -0.198902 -0.75 -0.389685 -0.670975 -0.53033 -0.53033 
C -0.670975 -0.389685 -0.75 -0.198902 -0.75 0 
C -0.75 0.198902 -0.670975 0.389685 -0.53033 0.53033 
C -0.389685 0.670975 -0.198902 0.75 0 0.75 
z
" id="mb877ecd265" style="stroke:#377eb8;"/>
    </defs>
    <g clip-path="url(#p237ff13d5f)">
     <use style="fill:#377eb8;stroke:#377eb8;" x="32.419602" xlink:href="#mb877ecd265" y="50.715739"/>
     <use style="fill:#377eb8;stroke:#377eb8;" x="55.893974" xlink:href="#mb877ecd265" y="37.315283"/>
     <use style="fill:#377eb8;stroke:#377eb8;" x="69.625601" xlink:href="#mb877ecd265" y="30.967537"/>
     <use style="fill:#377eb8;stroke:#377eb8;" x="79.368345" xlink:href="#mb877ecd265" y="26.875154"/>
     <use style="fill:#377eb8;stroke:#377eb8;" x="86.925405" xlink:href="#mb877ecd265" y="24.153213"/>
     <use style="fill:#377eb8;stroke:#377eb8;" x="93.099972" xlink:href="#mb877ecd265" y="21.935064"/>
     <use style="fill:#377eb8;stroke:#377eb8;" x="98.320494" xlink:href="#mb877ecd265" y="20.047878"/>
     <use style="fill:#377eb8;stroke:#377eb8;" x="102.842717" xlink:href="#mb877ecd265" y="18.416352"/>
     <use style="fill:#377eb8;stroke:#377eb8;" x="106.831599" xlink:href="#mb877ecd265" y="16.700135"/>
     <use style="fill:#377eb8;stroke:#377eb8;" x="110.399776" xlink:href="#mb877ecd265" y="15.347938"/>
     <use style="fill:#377eb8;stroke:#377eb8;" x="113.627585" xlink:href="#mb877ecd265" y="13.856739"/>
     <use style="fill:#377eb8;stroke:#377eb8;" x="116.574344" xlink:href="#mb877ecd265" y="12.568935"/>
     <use style="fill:#377eb8;stroke:#377eb8;" x="119.285099" xlink:href="#mb877ecd265" y="11.140093"/>
     <use style="fill:#377eb8;stroke:#377eb8;" x="121.794866" xlink:href="#mb877ecd265" y="10.218239"/>
     <use style="fill:#377eb8;stroke:#377eb8;" x="124.131403" xlink:href="#mb877ecd265" y="9.381964"/>
     <use style="fill:#377eb8;stroke:#377eb8;" x="126.317088" xlink:href="#mb877ecd265" y="8.248016"/>
     <use style="fill:#377eb8;stroke:#377eb8;" x="128.370223" xlink:href="#mb877ecd265" y="7.4013"/>
     <use style="fill:#377eb8;stroke:#377eb8;" x="130.305971" xlink:href="#mb877ecd265" y="6.529465"/>
     <use style="fill:#377eb8;stroke:#377eb8;" x="132.137031" xlink:href="#mb877ecd265" y="5.837606"/>
     <use style="fill:#377eb8;stroke:#377eb8;" x="133.874148" xlink:href="#mb877ecd265" y="5.221311"/>
    </g>
   </g>
   <g id="line2d_49">
    <path clip-path="url(#p237ff13d5f)" d="M 133.874148 4.941818 
L 132.137031 5.683078 
L 130.305971 6.464425 
L 128.370223 7.290444 
L 126.317088 8.166555 
L 124.131403 9.099227 
L 121.794866 10.096271 
L 119.285099 11.167235 
L 116.574344 12.323964 
L 113.627585 13.5814 
L 110.399776 14.958766 
L 106.831599 16.481373 
L 102.842717 18.183503 
L 98.320494 20.113219 
L 93.099972 22.340912 
L 86.925405 24.975714 
L 79.368345 28.200451 
L 69.625601 32.35786 
L 55.893974 38.217399 
L 32.419602 48.234347 
" style="fill:none;stroke:#000000;stroke-linecap:square;"/>
   </g>
   <g id="patch_3">
    <path d="M 27.346875 108.72 
L 27.346875 0 
" style="fill:none;stroke:#000000;stroke-linecap:square;stroke-linejoin:miter;stroke-width:0.5;"/>
   </g>
   <g id="patch_4">
    <path d="M 138.946875 108.72 
L 138.946875 0 
" style="fill:none;stroke:#000000;stroke-linecap:square;stroke-linejoin:miter;stroke-width:0.5;"/>
   </g>
   <g id="patch_5">
    <path d="M 27.346875 108.72 
L 138.946875 108.72 
" style="fill:none;stroke:#000000;stroke-linecap:square;stroke-linejoin:miter;stroke-width:0.5;"/>
   </g>
   <g id="patch_6">
    <path d="M 27.346875 0 
L 138.946875 0 
" style="fill:none;stroke:#000000;stroke-linecap:square;stroke-linejoin:miter;stroke-width:0.5;"/>
   </g>
  </g>
 </g>
 <defs>
  <clipPath id="p237ff13d5f">
   <rect height="108.72" width="111.6" x="27.346875" y="0"/>
  </clipPath>
 </defs>
</svg>
