<?xml version="1.0" encoding="utf-8" standalone="no"?>
<!DOCTYPE svg PUBLIC "-//W3C//DTD SVG 1.1//EN"
  "http://www.w3.org/Graphics/SVG/1.1/DTD/svg11.dtd">
<svg height="130.339047pt" version="1.1" viewBox="0 0 138.946875 130.339047" width="138.946875pt" xmlns="http://www.w3.org/2000/svg" xmlns:xlink="http://www.w3.org/1999/xlink">
 <metadata>
  <rdf:RDF xmlns:cc="http://creativecommons.org/ns#" xmlns:dc="http://purl.org/dc/elements/1.1/" xmlns:rdf="http://www.w3.org/1999/02/22-rdf-syntax-ns#">
   <cc:Work>
    <dc:type rdf:resource="http://purl.org/dc/dcmitype/StillImage"/>
    <dc:date>2021-09-09T11:31:18.940155</dc:date>
    <dc:format>image/svg+xml</dc:format>
    <dc:creator>
     <cc:Agent>
      <dc:title>Matplotlib v3.4.3, https://matplotlib.org/</dc:title>
     </cc:Agent>
    </dc:creator>
   </cc:Work>
  </rdf:RDF>
 </metadata>
 <defs>
  <style type="text/css">*{stroke-linecap:butt;stroke-linejoin:round;}</style>
 </defs>
 <g id="figure_1">
  <g id="patch_1">
   <path d="M 0 130.339047 
L 138.946875 130.339047 
L 138.946875 0 
L 0 0 
z
" style="fill:none;"/>
  </g>
  <g id="axes_1">
   <g id="patch_2">
    <path d="M 27.346875 110.80936 
L 138.946875 110.80936 
L 138.946875 2.08936 
L 27.346875 2.08936 
z
" style="fill:none;"/>
   </g>
   <g id="matplotlib.axis_1">
    <g id="xtick_1">
     <g id="line2d_1">
      <defs>
       <path d="M 0 0 
L 0 -3.5 
" id="m0967f22126" style="stroke:#000000;stroke-width:0.5;"/>
      </defs>
      <g>
       <use style="stroke:#000000;stroke-width:0.5;" x="44.522771" xlink:href="#m0967f22126" y="110.80936"/>
      </g>
     </g>
     <g id="line2d_2">
      <defs>
       <path d="M 0 0 
L 0 3.5 
" id="m1bd9d2ea66" style="stroke:#000000;stroke-width:0.5;"/>
      </defs>
      <g>
       <use style="stroke:#000000;stroke-width:0.5;" x="44.522771" xlink:href="#m1bd9d2ea66" y="2.08936"/>
      </g>
     </g>
     <g id="text_1">
      <text style="font-family:Arial;font-size:10px;font-stretch:normal;font-style:normal;font-weight:normal;text-anchor:middle;" transform="rotate(-0, 44.522771, 118.967172)" x="44.522771" y="118.967172">1</text>
     </g>
    </g>
    <g id="xtick_2">
     <g id="line2d_3">
      <g>
       <use style="stroke:#000000;stroke-width:0.5;" x="85.845576" xlink:href="#m0967f22126" y="110.80936"/>
      </g>
     </g>
     <g id="line2d_4">
      <g>
       <use style="stroke:#000000;stroke-width:0.5;" x="85.845576" xlink:href="#m1bd9d2ea66" y="2.08936"/>
      </g>
     </g>
     <g id="text_2">
      <text style="font-family:Arial;font-size:10px;font-stretch:normal;font-style:normal;font-weight:normal;text-anchor:middle;" transform="rotate(-0, 85.845576, 118.967172)" x="85.845576" y="118.967172">2</text>
     </g>
    </g>
    <g id="xtick_3">
     <g id="line2d_5">
      <g>
       <use style="stroke:#000000;stroke-width:0.5;" x="127.16838" xlink:href="#m0967f22126" y="110.80936"/>
      </g>
     </g>
     <g id="line2d_6">
      <g>
       <use style="stroke:#000000;stroke-width:0.5;" x="127.16838" xlink:href="#m1bd9d2ea66" y="2.08936"/>
      </g>
     </g>
     <g id="text_3">
      <text style="font-family:Arial;font-size:10px;font-stretch:normal;font-style:normal;font-weight:normal;text-anchor:middle;" transform="rotate(-0, 127.16838, 118.967172)" x="127.16838" y="118.967172">3</text>
     </g>
    </g>
    <g id="xtick_4">
     <g id="line2d_7">
      <defs>
       <path d="M 0 0 
L 0 -2 
" id="m52a5515cde" style="stroke:#000000;stroke-width:0.5;"/>
      </defs>
      <g>
       <use style="stroke:#000000;stroke-width:0.5;" x="27.99365" xlink:href="#m52a5515cde" y="110.80936"/>
      </g>
     </g>
     <g id="line2d_8">
      <defs>
       <path d="M 0 0 
L 0 2 
" id="m69f1fbebd8" style="stroke:#000000;stroke-width:0.5;"/>
      </defs>
      <g>
       <use style="stroke:#000000;stroke-width:0.5;" x="27.99365" xlink:href="#m69f1fbebd8" y="2.08936"/>
      </g>
     </g>
    </g>
    <g id="xtick_5">
     <g id="line2d_9">
      <g>
       <use style="stroke:#000000;stroke-width:0.5;" x="36.258211" xlink:href="#m52a5515cde" y="110.80936"/>
      </g>
     </g>
     <g id="line2d_10">
      <g>
       <use style="stroke:#000000;stroke-width:0.5;" x="36.258211" xlink:href="#m69f1fbebd8" y="2.08936"/>
      </g>
     </g>
    </g>
    <g id="xtick_6">
     <g id="line2d_11">
      <g>
       <use style="stroke:#000000;stroke-width:0.5;" x="52.787332" xlink:href="#m52a5515cde" y="110.80936"/>
      </g>
     </g>
     <g id="line2d_12">
      <g>
       <use style="stroke:#000000;stroke-width:0.5;" x="52.787332" xlink:href="#m69f1fbebd8" y="2.08936"/>
      </g>
     </g>
    </g>
    <g id="xtick_7">
     <g id="line2d_13">
      <g>
       <use style="stroke:#000000;stroke-width:0.5;" x="61.051893" xlink:href="#m52a5515cde" y="110.80936"/>
      </g>
     </g>
     <g id="line2d_14">
      <g>
       <use style="stroke:#000000;stroke-width:0.5;" x="61.051893" xlink:href="#m69f1fbebd8" y="2.08936"/>
      </g>
     </g>
    </g>
    <g id="xtick_8">
     <g id="line2d_15">
      <g>
       <use style="stroke:#000000;stroke-width:0.5;" x="69.316454" xlink:href="#m52a5515cde" y="110.80936"/>
      </g>
     </g>
     <g id="line2d_16">
      <g>
       <use style="stroke:#000000;stroke-width:0.5;" x="69.316454" xlink:href="#m69f1fbebd8" y="2.08936"/>
      </g>
     </g>
    </g>
    <g id="xtick_9">
     <g id="line2d_17">
      <g>
       <use style="stroke:#000000;stroke-width:0.5;" x="77.581015" xlink:href="#m52a5515cde" y="110.80936"/>
      </g>
     </g>
     <g id="line2d_18">
      <g>
       <use style="stroke:#000000;stroke-width:0.5;" x="77.581015" xlink:href="#m69f1fbebd8" y="2.08936"/>
      </g>
     </g>
    </g>
    <g id="xtick_10">
     <g id="line2d_19">
      <g>
       <use style="stroke:#000000;stroke-width:0.5;" x="94.110136" xlink:href="#m52a5515cde" y="110.80936"/>
      </g>
     </g>
     <g id="line2d_20">
      <g>
       <use style="stroke:#000000;stroke-width:0.5;" x="94.110136" xlink:href="#m69f1fbebd8" y="2.08936"/>
      </g>
     </g>
    </g>
    <g id="xtick_11">
     <g id="line2d_21">
      <g>
       <use style="stroke:#000000;stroke-width:0.5;" x="102.374697" xlink:href="#m52a5515cde" y="110.80936"/>
      </g>
     </g>
     <g id="line2d_22">
      <g>
       <use style="stroke:#000000;stroke-width:0.5;" x="102.374697" xlink:href="#m69f1fbebd8" y="2.08936"/>
      </g>
     </g>
    </g>
    <g id="xtick_12">
     <g id="line2d_23">
      <g>
       <use style="stroke:#000000;stroke-width:0.5;" x="110.639258" xlink:href="#m52a5515cde" y="110.80936"/>
      </g>
     </g>
     <g id="line2d_24">
      <g>
       <use style="stroke:#000000;stroke-width:0.5;" x="110.639258" xlink:href="#m69f1fbebd8" y="2.08936"/>
      </g>
     </g>
    </g>
    <g id="xtick_13">
     <g id="line2d_25">
      <g>
       <use style="stroke:#000000;stroke-width:0.5;" x="118.903819" xlink:href="#m52a5515cde" y="110.80936"/>
      </g>
     </g>
     <g id="line2d_26">
      <g>
       <use style="stroke:#000000;stroke-width:0.5;" x="118.903819" xlink:href="#m69f1fbebd8" y="2.08936"/>
      </g>
     </g>
    </g>
    <g id="xtick_14">
     <g id="line2d_27">
      <g>
       <use style="stroke:#000000;stroke-width:0.5;" x="135.432941" xlink:href="#m52a5515cde" y="110.80936"/>
      </g>
     </g>
     <g id="line2d_28">
      <g>
       <use style="stroke:#000000;stroke-width:0.5;" x="135.432941" xlink:href="#m69f1fbebd8" y="2.08936"/>
      </g>
     </g>
    </g>
    <g id="text_4">
     <text style="font-family:Arial;font-size:10px;font-stretch:normal;font-style:normal;font-weight:normal;text-anchor:middle;" transform="rotate(-0, 83.146875, 128.23436)" x="83.146875" y="128.23436">V<tspan
   style="font-size:65%;baseline-shift:super"
   id="tspan15378">1/2</tspan></text>
    </g>
   </g>
   <g id="matplotlib.axis_2">
    <g id="ytick_1">
     <g id="line2d_29">
      <defs>
       <path d="M 0 0 
L 3.5 0 
" id="m633148b58f" style="stroke:#000000;stroke-width:0.5;"/>
      </defs>
      <g>
       <use style="stroke:#000000;stroke-width:0.5;" x="27.346875" xlink:href="#m633148b58f" y="76.686857"/>
      </g>
     </g>
     <g id="line2d_30">
      <defs>
       <path d="M 0 0 
L -3.5 0 
" id="m7956e4d195" style="stroke:#000000;stroke-width:0.5;"/>
      </defs>
      <g>
       <use style="stroke:#000000;stroke-width:0.5;" x="138.946875" xlink:href="#m7956e4d195" y="76.686857"/>
      </g>
     </g>
     <g id="text_5">
      <text style="font-family:Arial;font-size:10px;font-stretch:normal;font-style:normal;font-weight:normal;text-anchor:end;" transform="rotate(-0, 26.346875, 80.265764)" x="26.346875" y="80.265764">−18</text>
     </g>
    </g>
    <g id="ytick_2">
     <g id="line2d_31">
      <g>
       <use style="stroke:#000000;stroke-width:0.5;" x="27.346875" xlink:href="#m633148b58f" y="40.132882"/>
      </g>
     </g>
     <g id="line2d_32">
      <g>
       <use style="stroke:#000000;stroke-width:0.5;" x="138.946875" xlink:href="#m7956e4d195" y="40.132882"/>
      </g>
     </g>
     <g id="text_6">
      <text style="font-family:Arial;font-size:10px;font-stretch:normal;font-style:normal;font-weight:normal;text-anchor:end;" transform="rotate(-0, 26.346875, 43.711788)" x="26.346875" y="43.711788">−17</text>
     </g>
    </g>
    <g id="ytick_3">
     <g id="line2d_33">
      <g>
       <use style="stroke:#000000;stroke-width:0.5;" x="27.346875" xlink:href="#m633148b58f" y="3.578906"/>
      </g>
     </g>
     <g id="line2d_34">
      <g>
       <use style="stroke:#000000;stroke-width:0.5;" x="138.946875" xlink:href="#m7956e4d195" y="3.578906"/>
      </g>
     </g>
     <g id="text_7">
      <text style="font-family:Arial;font-size:10px;font-stretch:normal;font-style:normal;font-weight:normal;text-anchor:end;" transform="rotate(-0, 26.346875, 7.157812)" x="26.346875" y="7.157812">−16</text>
     </g>
    </g>
    <g id="ytick_4">
     <g id="line2d_35">
      <defs>
       <path d="M 0 0 
L 2 0 
" id="m5954f81899" style="stroke:#000000;stroke-width:0.5;"/>
      </defs>
      <g>
       <use style="stroke:#000000;stroke-width:0.5;" x="27.346875" xlink:href="#m5954f81899" y="105.930038"/>
      </g>
     </g>
     <g id="line2d_36">
      <defs>
       <path d="M 0 0 
L -2 0 
" id="m1b64608407" style="stroke:#000000;stroke-width:0.5;"/>
      </defs>
      <g>
       <use style="stroke:#000000;stroke-width:0.5;" x="138.946875" xlink:href="#m1b64608407" y="105.930038"/>
      </g>
     </g>
    </g>
    <g id="ytick_5">
     <g id="line2d_37">
      <g>
       <use style="stroke:#000000;stroke-width:0.5;" x="27.346875" xlink:href="#m5954f81899" y="98.619243"/>
      </g>
     </g>
     <g id="line2d_38">
      <g>
       <use style="stroke:#000000;stroke-width:0.5;" x="138.946875" xlink:href="#m1b64608407" y="98.619243"/>
      </g>
     </g>
    </g>
    <g id="ytick_6">
     <g id="line2d_39">
      <g>
       <use style="stroke:#000000;stroke-width:0.5;" x="27.346875" xlink:href="#m5954f81899" y="91.308448"/>
      </g>
     </g>
     <g id="line2d_40">
      <g>
       <use style="stroke:#000000;stroke-width:0.5;" x="138.946875" xlink:href="#m1b64608407" y="91.308448"/>
      </g>
     </g>
    </g>
    <g id="ytick_7">
     <g id="line2d_41">
      <g>
       <use style="stroke:#000000;stroke-width:0.5;" x="27.346875" xlink:href="#m5954f81899" y="83.997653"/>
      </g>
     </g>
     <g id="line2d_42">
      <g>
       <use style="stroke:#000000;stroke-width:0.5;" x="138.946875" xlink:href="#m1b64608407" y="83.997653"/>
      </g>
     </g>
    </g>
    <g id="ytick_8">
     <g id="line2d_43">
      <g>
       <use style="stroke:#000000;stroke-width:0.5;" x="27.346875" xlink:href="#m5954f81899" y="69.376062"/>
      </g>
     </g>
     <g id="line2d_44">
      <g>
       <use style="stroke:#000000;stroke-width:0.5;" x="138.946875" xlink:href="#m1b64608407" y="69.376062"/>
      </g>
     </g>
    </g>
    <g id="ytick_9">
     <g id="line2d_45">
      <g>
       <use style="stroke:#000000;stroke-width:0.5;" x="27.346875" xlink:href="#m5954f81899" y="62.065267"/>
      </g>
     </g>
     <g id="line2d_46">
      <g>
       <use style="stroke:#000000;stroke-width:0.5;" x="138.946875" xlink:href="#m1b64608407" y="62.065267"/>
      </g>
     </g>
    </g>
    <g id="ytick_10">
     <g id="line2d_47">
      <g>
       <use style="stroke:#000000;stroke-width:0.5;" x="27.346875" xlink:href="#m5954f81899" y="54.754472"/>
      </g>
     </g>
     <g id="line2d_48">
      <g>
       <use style="stroke:#000000;stroke-width:0.5;" x="138.946875" xlink:href="#m1b64608407" y="54.754472"/>
      </g>
     </g>
    </g>
    <g id="ytick_11">
     <g id="line2d_49">
      <g>
       <use style="stroke:#000000;stroke-width:0.5;" x="27.346875" xlink:href="#m5954f81899" y="47.443677"/>
      </g>
     </g>
     <g id="line2d_50">
      <g>
       <use style="stroke:#000000;stroke-width:0.5;" x="138.946875" xlink:href="#m1b64608407" y="47.443677"/>
      </g>
     </g>
    </g>
    <g id="ytick_12">
     <g id="line2d_51">
      <g>
       <use style="stroke:#000000;stroke-width:0.5;" x="27.346875" xlink:href="#m5954f81899" y="32.822087"/>
      </g>
     </g>
     <g id="line2d_52">
      <g>
       <use style="stroke:#000000;stroke-width:0.5;" x="138.946875" xlink:href="#m1b64608407" y="32.822087"/>
      </g>
     </g>
    </g>
    <g id="ytick_13">
     <g id="line2d_53">
      <g>
       <use style="stroke:#000000;stroke-width:0.5;" x="27.346875" xlink:href="#m5954f81899" y="25.511292"/>
      </g>
     </g>
     <g id="line2d_54">
      <g>
       <use style="stroke:#000000;stroke-width:0.5;" x="138.946875" xlink:href="#m1b64608407" y="25.511292"/>
      </g>
     </g>
    </g>
    <g id="ytick_14">
     <g id="line2d_55">
      <g>
       <use style="stroke:#000000;stroke-width:0.5;" x="27.346875" xlink:href="#m5954f81899" y="18.200496"/>
      </g>
     </g>
     <g id="line2d_56">
      <g>
       <use style="stroke:#000000;stroke-width:0.5;" x="138.946875" xlink:href="#m1b64608407" y="18.200496"/>
      </g>
     </g>
    </g>
    <g id="ytick_15">
     <g id="line2d_57">
      <g>
       <use style="stroke:#000000;stroke-width:0.5;" x="27.346875" xlink:href="#m5954f81899" y="10.889701"/>
      </g>
     </g>
     <g id="line2d_58">
      <g>
       <use style="stroke:#000000;stroke-width:0.5;" x="138.946875" xlink:href="#m1b64608407" y="10.889701"/>
      </g>
     </g>
    </g>
    <g id="text_8">
     <text style="font-family:Arial;font-size:10px;font-stretch:normal;font-style:normal;font-weight:normal;text-anchor:middle;" transform="rotate(-90, 7.279688, 56.44936)" x="7.279688" y="56.44936">ln(I/V)</text>
    </g>
   </g>
   <g id="line2d_59">
    <path clip-path="url(#p2f0608b676)" d="M 32.419602 7.031178 
L 44.522771 8.043871 
L 53.80986 10.200952 
L 61.639237 12.360715 
L 68.537057 12.795191 
L 74.773164 12.49668 
L 80.507855 12.474398 
L 85.845576 12.030161 
L 90.858872 12.349979 
L 95.600566 11.858132 
L 100.110533 11.572433 
L 104.419752 11.459589 
L 108.55286 10.89071 
L 112.529831 10.591998 
L 116.367127 10.424776 
L 120.078507 10.05803 
L 123.675609 10.685014 
L 127.16838 10.293733 
L 130.565404 10.262895 
L 133.874148 10.594243 
" style="fill:none;stroke:#377eb8;stroke-linecap:square;stroke-width:1.5;"/>
    <defs>
     <path d="M 0 0.75 
C 0.198902 0.75 0.389685 0.670975 0.53033 0.53033 
C 0.670975 0.389685 0.75 0.198902 0.75 0 
C 0.75 -0.198902 0.670975 -0.389685 0.53033 -0.53033 
C 0.389685 -0.670975 0.198902 -0.75 0 -0.75 
C -0.198902 -0.75 -0.389685 -0.670975 -0.53033 -0.53033 
C -0.670975 -0.389685 -0.75 -0.198902 -0.75 0 
C -0.75 0.198902 -0.670975 0.389685 -0.53033 0.53033 
C -0.389685 0.670975 -0.198902 0.75 0 0.75 
z
" id="m6e10f6798a" style="stroke:#377eb8;"/>
    </defs>
    <g clip-path="url(#p2f0608b676)">
     <use style="fill:#377eb8;stroke:#377eb8;" x="32.419602" xlink:href="#m6e10f6798a" y="7.031178"/>
     <use style="fill:#377eb8;stroke:#377eb8;" x="44.522771" xlink:href="#m6e10f6798a" y="8.043871"/>
     <use style="fill:#377eb8;stroke:#377eb8;" x="53.80986" xlink:href="#m6e10f6798a" y="10.200952"/>
     <use style="fill:#377eb8;stroke:#377eb8;" x="61.639237" xlink:href="#m6e10f6798a" y="12.360715"/>
     <use style="fill:#377eb8;stroke:#377eb8;" x="68.537057" xlink:href="#m6e10f6798a" y="12.795191"/>
     <use style="fill:#377eb8;stroke:#377eb8;" x="74.773164" xlink:href="#m6e10f6798a" y="12.49668"/>
     <use style="fill:#377eb8;stroke:#377eb8;" x="80.507855" xlink:href="#m6e10f6798a" y="12.474398"/>
     <use style="fill:#377eb8;stroke:#377eb8;" x="85.845576" xlink:href="#m6e10f6798a" y="12.030161"/>
     <use style="fill:#377eb8;stroke:#377eb8;" x="90.858872" xlink:href="#m6e10f6798a" y="12.349979"/>
     <use style="fill:#377eb8;stroke:#377eb8;" x="95.600566" xlink:href="#m6e10f6798a" y="11.858132"/>
     <use style="fill:#377eb8;stroke:#377eb8;" x="100.110533" xlink:href="#m6e10f6798a" y="11.572433"/>
     <use style="fill:#377eb8;stroke:#377eb8;" x="104.419752" xlink:href="#m6e10f6798a" y="11.459589"/>
     <use style="fill:#377eb8;stroke:#377eb8;" x="108.55286" xlink:href="#m6e10f6798a" y="10.89071"/>
     <use style="fill:#377eb8;stroke:#377eb8;" x="112.529831" xlink:href="#m6e10f6798a" y="10.591998"/>
     <use style="fill:#377eb8;stroke:#377eb8;" x="116.367127" xlink:href="#m6e10f6798a" y="10.424776"/>
     <use style="fill:#377eb8;stroke:#377eb8;" x="120.078507" xlink:href="#m6e10f6798a" y="10.05803"/>
     <use style="fill:#377eb8;stroke:#377eb8;" x="123.675609" xlink:href="#m6e10f6798a" y="10.685014"/>
     <use style="fill:#377eb8;stroke:#377eb8;" x="127.16838" xlink:href="#m6e10f6798a" y="10.293733"/>
     <use style="fill:#377eb8;stroke:#377eb8;" x="130.565404" xlink:href="#m6e10f6798a" y="10.262895"/>
     <use style="fill:#377eb8;stroke:#377eb8;" x="133.874148" xlink:href="#m6e10f6798a" y="10.594243"/>
    </g>
   </g>
   <g id="line2d_60">
    <path clip-path="url(#p2f0608b676)" d="M 32.419602 43.105758 
L 44.522771 44.882362 
L 53.80986 48.70177 
L 61.639237 51.196124 
L 68.537057 48.790379 
L 74.773164 46.996423 
L 80.507855 46.315038 
L 85.845576 44.419741 
L 90.858872 43.476543 
L 95.600566 42.090129 
L 100.110533 41.074656 
L 104.419752 40.344596 
L 108.55286 39.222424 
L 112.529831 38.11559 
L 116.367127 36.545407 
L 120.078507 36.33159 
L 123.675609 34.666484 
L 127.16838 33.487473 
L 130.565404 32.614141 
L 133.874148 32.140096 
" style="fill:none;stroke:#999999;stroke-linecap:square;stroke-width:1.5;"/>
    <defs>
     <path d="M 0 0.75 
C 0.198902 0.75 0.389685 0.670975 0.53033 0.53033 
C 0.670975 0.389685 0.75 0.198902 0.75 0 
C 0.75 -0.198902 0.670975 -0.389685 0.53033 -0.53033 
C 0.389685 -0.670975 0.198902 -0.75 0 -0.75 
C -0.198902 -0.75 -0.389685 -0.670975 -0.53033 -0.53033 
C -0.670975 -0.389685 -0.75 -0.198902 -0.75 0 
C -0.75 0.198902 -0.670975 0.389685 -0.53033 0.53033 
C -0.389685 0.670975 -0.198902 0.75 0 0.75 
z
" id="me2307b3505" style="stroke:#999999;"/>
    </defs>
    <g clip-path="url(#p2f0608b676)">
     <use style="fill:#999999;stroke:#999999;" x="32.419602" xlink:href="#me2307b3505" y="43.105758"/>
     <use style="fill:#999999;stroke:#999999;" x="44.522771" xlink:href="#me2307b3505" y="44.882362"/>
     <use style="fill:#999999;stroke:#999999;" x="53.80986" xlink:href="#me2307b3505" y="48.70177"/>
     <use style="fill:#999999;stroke:#999999;" x="61.639237" xlink:href="#me2307b3505" y="51.196124"/>
     <use style="fill:#999999;stroke:#999999;" x="68.537057" xlink:href="#me2307b3505" y="48.790379"/>
     <use style="fill:#999999;stroke:#999999;" x="74.773164" xlink:href="#me2307b3505" y="46.996423"/>
     <use style="fill:#999999;stroke:#999999;" x="80.507855" xlink:href="#me2307b3505" y="46.315038"/>
     <use style="fill:#999999;stroke:#999999;" x="85.845576" xlink:href="#me2307b3505" y="44.419741"/>
     <use style="fill:#999999;stroke:#999999;" x="90.858872" xlink:href="#me2307b3505" y="43.476543"/>
     <use style="fill:#999999;stroke:#999999;" x="95.600566" xlink:href="#me2307b3505" y="42.090129"/>
     <use style="fill:#999999;stroke:#999999;" x="100.110533" xlink:href="#me2307b3505" y="41.074656"/>
     <use style="fill:#999999;stroke:#999999;" x="104.419752" xlink:href="#me2307b3505" y="40.344596"/>
     <use style="fill:#999999;stroke:#999999;" x="108.55286" xlink:href="#me2307b3505" y="39.222424"/>
     <use style="fill:#999999;stroke:#999999;" x="112.529831" xlink:href="#me2307b3505" y="38.11559"/>
     <use style="fill:#999999;stroke:#999999;" x="116.367127" xlink:href="#me2307b3505" y="36.545407"/>
     <use style="fill:#999999;stroke:#999999;" x="120.078507" xlink:href="#me2307b3505" y="36.33159"/>
     <use style="fill:#999999;stroke:#999999;" x="123.675609" xlink:href="#me2307b3505" y="34.666484"/>
     <use style="fill:#999999;stroke:#999999;" x="127.16838" xlink:href="#me2307b3505" y="33.487473"/>
     <use style="fill:#999999;stroke:#999999;" x="130.565404" xlink:href="#me2307b3505" y="32.614141"/>
     <use style="fill:#999999;stroke:#999999;" x="133.874148" xlink:href="#me2307b3505" y="32.140096"/>
    </g>
   </g>
   <g id="line2d_61">
    <path clip-path="url(#p2f0608b676)" d="M 32.419602 61.540097 
L 44.522771 64.425735 
L 53.80986 69.800877 
L 61.639237 70.495423 
L 68.537057 68.155182 
L 74.773164 65.890872 
L 80.507855 62.722296 
L 85.845576 60.710953 
L 90.858872 57.056861 
L 95.600566 55.788643 
L 100.110533 55.224959 
L 104.419752 54.00098 
L 108.55286 52.653125 
L 112.529831 51.324116 
L 116.367127 49.941567 
L 120.078507 49.196775 
L 123.675609 48.307774 
L 127.16838 47.154713 
L 130.565404 46.12426 
L 133.874148 44.722628 
" style="fill:none;stroke:#4daf4a;stroke-linecap:square;stroke-width:1.5;"/>
    <defs>
     <path d="M 0 0.75 
C 0.198902 0.75 0.389685 0.670975 0.53033 0.53033 
C 0.670975 0.389685 0.75 0.198902 0.75 0 
C 0.75 -0.198902 0.670975 -0.389685 0.53033 -0.53033 
C 0.389685 -0.670975 0.198902 -0.75 0 -0.75 
C -0.198902 -0.75 -0.389685 -0.670975 -0.53033 -0.53033 
C -0.670975 -0.389685 -0.75 -0.198902 -0.75 0 
C -0.75 0.198902 -0.670975 0.389685 -0.53033 0.53033 
C -0.389685 0.670975 -0.198902 0.75 0 0.75 
z
" id="m19ef526f57" style="stroke:#4daf4a;"/>
    </defs>
    <g clip-path="url(#p2f0608b676)">
     <use style="fill:#4daf4a;stroke:#4daf4a;" x="32.419602" xlink:href="#m19ef526f57" y="61.540097"/>
     <use style="fill:#4daf4a;stroke:#4daf4a;" x="44.522771" xlink:href="#m19ef526f57" y="64.425735"/>
     <use style="fill:#4daf4a;stroke:#4daf4a;" x="53.80986" xlink:href="#m19ef526f57" y="69.800877"/>
     <use style="fill:#4daf4a;stroke:#4daf4a;" x="61.639237" xlink:href="#m19ef526f57" y="70.495423"/>
     <use style="fill:#4daf4a;stroke:#4daf4a;" x="68.537057" xlink:href="#m19ef526f57" y="68.155182"/>
     <use style="fill:#4daf4a;stroke:#4daf4a;" x="74.773164" xlink:href="#m19ef526f57" y="65.890872"/>
     <use style="fill:#4daf4a;stroke:#4daf4a;" x="80.507855" xlink:href="#m19ef526f57" y="62.722296"/>
     <use style="fill:#4daf4a;stroke:#4daf4a;" x="85.845576" xlink:href="#m19ef526f57" y="60.710953"/>
     <use style="fill:#4daf4a;stroke:#4daf4a;" x="90.858872" xlink:href="#m19ef526f57" y="57.056861"/>
     <use style="fill:#4daf4a;stroke:#4daf4a;" x="95.600566" xlink:href="#m19ef526f57" y="55.788643"/>
     <use style="fill:#4daf4a;stroke:#4daf4a;" x="100.110533" xlink:href="#m19ef526f57" y="55.224959"/>
     <use style="fill:#4daf4a;stroke:#4daf4a;" x="104.419752" xlink:href="#m19ef526f57" y="54.00098"/>
     <use style="fill:#4daf4a;stroke:#4daf4a;" x="108.55286" xlink:href="#m19ef526f57" y="52.653125"/>
     <use style="fill:#4daf4a;stroke:#4daf4a;" x="112.529831" xlink:href="#m19ef526f57" y="51.324116"/>
     <use style="fill:#4daf4a;stroke:#4daf4a;" x="116.367127" xlink:href="#m19ef526f57" y="49.941567"/>
     <use style="fill:#4daf4a;stroke:#4daf4a;" x="120.078507" xlink:href="#m19ef526f57" y="49.196775"/>
     <use style="fill:#4daf4a;stroke:#4daf4a;" x="123.675609" xlink:href="#m19ef526f57" y="48.307774"/>
     <use style="fill:#4daf4a;stroke:#4daf4a;" x="127.16838" xlink:href="#m19ef526f57" y="47.154713"/>
     <use style="fill:#4daf4a;stroke:#4daf4a;" x="130.565404" xlink:href="#m19ef526f57" y="46.12426"/>
     <use style="fill:#4daf4a;stroke:#4daf4a;" x="133.874148" xlink:href="#m19ef526f57" y="44.722628"/>
    </g>
   </g>
   <g id="line2d_62">
    <path clip-path="url(#p2f0608b676)" d="M 32.419602 75.318728 
L 44.522771 78.22161 
L 53.80986 82.378258 
L 61.639237 84.686478 
L 68.537057 82.582376 
L 74.773164 79.759065 
L 80.507855 75.900789 
L 85.845576 72.736845 
L 90.858872 69.966348 
L 95.600566 67.980824 
L 100.110533 65.141233 
L 104.419752 65.030796 
L 108.55286 64.31478 
L 112.529831 62.923092 
L 116.367127 61.511924 
L 120.078507 60.649085 
L 123.675609 59.800572 
L 127.16838 58.979726 
L 130.565404 57.983912 
L 133.874148 57.517697 
" style="fill:none;stroke:#a65628;stroke-linecap:square;stroke-width:1.5;"/>
    <defs>
     <path d="M 0 0.75 
C 0.198902 0.75 0.389685 0.670975 0.53033 0.53033 
C 0.670975 0.389685 0.75 0.198902 0.75 0 
C 0.75 -0.198902 0.670975 -0.389685 0.53033 -0.53033 
C 0.389685 -0.670975 0.198902 -0.75 0 -0.75 
C -0.198902 -0.75 -0.389685 -0.670975 -0.53033 -0.53033 
C -0.670975 -0.389685 -0.75 -0.198902 -0.75 0 
C -0.75 0.198902 -0.670975 0.389685 -0.53033 0.53033 
C -0.389685 0.670975 -0.198902 0.75 0 0.75 
z
" id="mf0c1fc49b0" style="stroke:#a65628;"/>
    </defs>
    <g clip-path="url(#p2f0608b676)">
     <use style="fill:#a65628;stroke:#a65628;" x="32.419602" xlink:href="#mf0c1fc49b0" y="75.318728"/>
     <use style="fill:#a65628;stroke:#a65628;" x="44.522771" xlink:href="#mf0c1fc49b0" y="78.22161"/>
     <use style="fill:#a65628;stroke:#a65628;" x="53.80986" xlink:href="#mf0c1fc49b0" y="82.378258"/>
     <use style="fill:#a65628;stroke:#a65628;" x="61.639237" xlink:href="#mf0c1fc49b0" y="84.686478"/>
     <use style="fill:#a65628;stroke:#a65628;" x="68.537057" xlink:href="#mf0c1fc49b0" y="82.582376"/>
     <use style="fill:#a65628;stroke:#a65628;" x="74.773164" xlink:href="#mf0c1fc49b0" y="79.759065"/>
     <use style="fill:#a65628;stroke:#a65628;" x="80.507855" xlink:href="#mf0c1fc49b0" y="75.900789"/>
     <use style="fill:#a65628;stroke:#a65628;" x="85.845576" xlink:href="#mf0c1fc49b0" y="72.736845"/>
     <use style="fill:#a65628;stroke:#a65628;" x="90.858872" xlink:href="#mf0c1fc49b0" y="69.966348"/>
     <use style="fill:#a65628;stroke:#a65628;" x="95.600566" xlink:href="#mf0c1fc49b0" y="67.980824"/>
     <use style="fill:#a65628;stroke:#a65628;" x="100.110533" xlink:href="#mf0c1fc49b0" y="65.141233"/>
     <use style="fill:#a65628;stroke:#a65628;" x="104.419752" xlink:href="#mf0c1fc49b0" y="65.030796"/>
     <use style="fill:#a65628;stroke:#a65628;" x="108.55286" xlink:href="#mf0c1fc49b0" y="64.31478"/>
     <use style="fill:#a65628;stroke:#a65628;" x="112.529831" xlink:href="#mf0c1fc49b0" y="62.923092"/>
     <use style="fill:#a65628;stroke:#a65628;" x="116.367127" xlink:href="#mf0c1fc49b0" y="61.511924"/>
     <use style="fill:#a65628;stroke:#a65628;" x="120.078507" xlink:href="#mf0c1fc49b0" y="60.649085"/>
     <use style="fill:#a65628;stroke:#a65628;" x="123.675609" xlink:href="#mf0c1fc49b0" y="59.800572"/>
     <use style="fill:#a65628;stroke:#a65628;" x="127.16838" xlink:href="#mf0c1fc49b0" y="58.979726"/>
     <use style="fill:#a65628;stroke:#a65628;" x="130.565404" xlink:href="#mf0c1fc49b0" y="57.983912"/>
     <use style="fill:#a65628;stroke:#a65628;" x="133.874148" xlink:href="#mf0c1fc49b0" y="57.517697"/>
    </g>
   </g>
   <g id="line2d_63">
    <path clip-path="url(#p2f0608b676)" d="M 32.419602 83.926801 
L 44.522771 85.221364 
L 53.80986 91.264999 
L 61.639237 92.315486 
L 68.537057 92.711913 
L 74.773164 90.347542 
L 80.507855 85.418169 
L 85.845576 82.115889 
L 90.858872 79.136755 
L 95.600566 77.524419 
L 100.110533 76.10351 
L 104.419752 75.098626 
L 108.55286 73.797897 
L 112.529831 73.389596 
L 116.367127 72.63578 
L 120.078507 72.554413 
L 123.675609 72.348665 
L 127.16838 71.99454 
L 130.565404 71.306481 
L 133.874148 71.170217 
" style="fill:none;stroke:#984ea3;stroke-linecap:square;stroke-width:1.5;"/>
    <defs>
     <path d="M 0 0.75 
C 0.198902 0.75 0.389685 0.670975 0.53033 0.53033 
C 0.670975 0.389685 0.75 0.198902 0.75 0 
C 0.75 -0.198902 0.670975 -0.389685 0.53033 -0.53033 
C 0.389685 -0.670975 0.198902 -0.75 0 -0.75 
C -0.198902 -0.75 -0.389685 -0.670975 -0.53033 -0.53033 
C -0.670975 -0.389685 -0.75 -0.198902 -0.75 0 
C -0.75 0.198902 -0.670975 0.389685 -0.53033 0.53033 
C -0.389685 0.670975 -0.198902 0.75 0 0.75 
z
" id="mb7f3731593" style="stroke:#984ea3;"/>
    </defs>
    <g clip-path="url(#p2f0608b676)">
     <use style="fill:#984ea3;stroke:#984ea3;" x="32.419602" xlink:href="#mb7f3731593" y="83.926801"/>
     <use style="fill:#984ea3;stroke:#984ea3;" x="44.522771" xlink:href="#mb7f3731593" y="85.221364"/>
     <use style="fill:#984ea3;stroke:#984ea3;" x="53.80986" xlink:href="#mb7f3731593" y="91.264999"/>
     <use style="fill:#984ea3;stroke:#984ea3;" x="61.639237" xlink:href="#mb7f3731593" y="92.315486"/>
     <use style="fill:#984ea3;stroke:#984ea3;" x="68.537057" xlink:href="#mb7f3731593" y="92.711913"/>
     <use style="fill:#984ea3;stroke:#984ea3;" x="74.773164" xlink:href="#mb7f3731593" y="90.347542"/>
     <use style="fill:#984ea3;stroke:#984ea3;" x="80.507855" xlink:href="#mb7f3731593" y="85.418169"/>
     <use style="fill:#984ea3;stroke:#984ea3;" x="85.845576" xlink:href="#mb7f3731593" y="82.115889"/>
     <use style="fill:#984ea3;stroke:#984ea3;" x="90.858872" xlink:href="#mb7f3731593" y="79.136755"/>
     <use style="fill:#984ea3;stroke:#984ea3;" x="95.600566" xlink:href="#mb7f3731593" y="77.524419"/>
     <use style="fill:#984ea3;stroke:#984ea3;" x="100.110533" xlink:href="#mb7f3731593" y="76.10351"/>
     <use style="fill:#984ea3;stroke:#984ea3;" x="104.419752" xlink:href="#mb7f3731593" y="75.098626"/>
     <use style="fill:#984ea3;stroke:#984ea3;" x="108.55286" xlink:href="#mb7f3731593" y="73.797897"/>
     <use style="fill:#984ea3;stroke:#984ea3;" x="112.529831" xlink:href="#mb7f3731593" y="73.389596"/>
     <use style="fill:#984ea3;stroke:#984ea3;" x="116.367127" xlink:href="#mb7f3731593" y="72.63578"/>
     <use style="fill:#984ea3;stroke:#984ea3;" x="120.078507" xlink:href="#mb7f3731593" y="72.554413"/>
     <use style="fill:#984ea3;stroke:#984ea3;" x="123.675609" xlink:href="#mb7f3731593" y="72.348665"/>
     <use style="fill:#984ea3;stroke:#984ea3;" x="127.16838" xlink:href="#mb7f3731593" y="71.99454"/>
     <use style="fill:#984ea3;stroke:#984ea3;" x="130.565404" xlink:href="#mb7f3731593" y="71.306481"/>
     <use style="fill:#984ea3;stroke:#984ea3;" x="133.874148" xlink:href="#mb7f3731593" y="71.170217"/>
    </g>
   </g>
   <g id="line2d_64">
    <path clip-path="url(#p2f0608b676)" d="M 32.419602 92.854739 
L 44.522771 92.629402 
L 53.80986 94.747276 
L 61.639237 97.941857 
L 68.537057 98.189459 
L 74.773164 96.608192 
L 80.507855 93.478027 
L 85.845576 88.919599 
L 90.858872 86.630962 
L 95.600566 85.126167 
L 100.110533 83.644889 
L 104.419752 82.827715 
L 108.55286 82.159312 
L 112.529831 81.753469 
L 116.367127 80.161107 
L 120.078507 80.302216 
L 123.675609 80.299328 
L 127.16838 79.905105 
L 130.565404 79.695088 
L 133.874148 79.073512 
" style="fill:none;stroke:#ff7f00;stroke-linecap:square;stroke-width:1.5;"/>
    <defs>
     <path d="M 0 0.75 
C 0.198902 0.75 0.389685 0.670975 0.53033 0.53033 
C 0.670975 0.389685 0.75 0.198902 0.75 0 
C 0.75 -0.198902 0.670975 -0.389685 0.53033 -0.53033 
C 0.389685 -0.670975 0.198902 -0.75 0 -0.75 
C -0.198902 -0.75 -0.389685 -0.670975 -0.53033 -0.53033 
C -0.670975 -0.389685 -0.75 -0.198902 -0.75 0 
C -0.75 0.198902 -0.670975 0.389685 -0.53033 0.53033 
C -0.389685 0.670975 -0.198902 0.75 0 0.75 
z
" id="m0eb840fae0" style="stroke:#ff7f00;"/>
    </defs>
    <g clip-path="url(#p2f0608b676)">
     <use style="fill:#ff7f00;stroke:#ff7f00;" x="32.419602" xlink:href="#m0eb840fae0" y="92.854739"/>
     <use style="fill:#ff7f00;stroke:#ff7f00;" x="44.522771" xlink:href="#m0eb840fae0" y="92.629402"/>
     <use style="fill:#ff7f00;stroke:#ff7f00;" x="53.80986" xlink:href="#m0eb840fae0" y="94.747276"/>
     <use style="fill:#ff7f00;stroke:#ff7f00;" x="61.639237" xlink:href="#m0eb840fae0" y="97.941857"/>
     <use style="fill:#ff7f00;stroke:#ff7f00;" x="68.537057" xlink:href="#m0eb840fae0" y="98.189459"/>
     <use style="fill:#ff7f00;stroke:#ff7f00;" x="74.773164" xlink:href="#m0eb840fae0" y="96.608192"/>
     <use style="fill:#ff7f00;stroke:#ff7f00;" x="80.507855" xlink:href="#m0eb840fae0" y="93.478027"/>
     <use style="fill:#ff7f00;stroke:#ff7f00;" x="85.845576" xlink:href="#m0eb840fae0" y="88.919599"/>
     <use style="fill:#ff7f00;stroke:#ff7f00;" x="90.858872" xlink:href="#m0eb840fae0" y="86.630962"/>
     <use style="fill:#ff7f00;stroke:#ff7f00;" x="95.600566" xlink:href="#m0eb840fae0" y="85.126167"/>
     <use style="fill:#ff7f00;stroke:#ff7f00;" x="100.110533" xlink:href="#m0eb840fae0" y="83.644889"/>
     <use style="fill:#ff7f00;stroke:#ff7f00;" x="104.419752" xlink:href="#m0eb840fae0" y="82.827715"/>
     <use style="fill:#ff7f00;stroke:#ff7f00;" x="108.55286" xlink:href="#m0eb840fae0" y="82.159312"/>
     <use style="fill:#ff7f00;stroke:#ff7f00;" x="112.529831" xlink:href="#m0eb840fae0" y="81.753469"/>
     <use style="fill:#ff7f00;stroke:#ff7f00;" x="116.367127" xlink:href="#m0eb840fae0" y="80.161107"/>
     <use style="fill:#ff7f00;stroke:#ff7f00;" x="120.078507" xlink:href="#m0eb840fae0" y="80.302216"/>
     <use style="fill:#ff7f00;stroke:#ff7f00;" x="123.675609" xlink:href="#m0eb840fae0" y="80.299328"/>
     <use style="fill:#ff7f00;stroke:#ff7f00;" x="127.16838" xlink:href="#m0eb840fae0" y="79.905105"/>
     <use style="fill:#ff7f00;stroke:#ff7f00;" x="130.565404" xlink:href="#m0eb840fae0" y="79.695088"/>
     <use style="fill:#ff7f00;stroke:#ff7f00;" x="133.874148" xlink:href="#m0eb840fae0" y="79.073512"/>
    </g>
   </g>
   <g id="line2d_65">
    <path clip-path="url(#p2f0608b676)" d="M 32.419602 96.852881 
L 44.522771 98.190153 
L 53.80986 102.330601 
L 61.639237 102.644122 
L 68.537057 105.867542 
L 74.773164 104.52785 
L 80.507855 100.45743 
L 85.845576 95.734697 
L 90.858872 93.050094 
L 95.600566 90.353022 
L 100.110533 88.670221 
L 104.419752 88.049393 
L 108.55286 87.23969 
L 112.529831 86.578924 
L 116.367127 86.252958 
L 120.078507 85.750431 
L 123.675609 84.241983 
L 127.16838 84.865343 
L 130.565404 84.174675 
L 133.874148 84.03892 
" style="fill:none;stroke:#e41a1c;stroke-linecap:square;stroke-width:1.5;"/>
    <defs>
     <path d="M 0 0.75 
C 0.198902 0.75 0.389685 0.670975 0.53033 0.53033 
C 0.670975 0.389685 0.75 0.198902 0.75 0 
C 0.75 -0.198902 0.670975 -0.389685 0.53033 -0.53033 
C 0.389685 -0.670975 0.198902 -0.75 0 -0.75 
C -0.198902 -0.75 -0.389685 -0.670975 -0.53033 -0.53033 
C -0.670975 -0.389685 -0.75 -0.198902 -0.75 0 
C -0.75 0.198902 -0.670975 0.389685 -0.53033 0.53033 
C -0.389685 0.670975 -0.198902 0.75 0 0.75 
z
" id="mab27b4a64c" style="stroke:#e41a1c;"/>
    </defs>
    <g clip-path="url(#p2f0608b676)">
     <use style="fill:#e41a1c;stroke:#e41a1c;" x="32.419602" xlink:href="#mab27b4a64c" y="96.852881"/>
     <use style="fill:#e41a1c;stroke:#e41a1c;" x="44.522771" xlink:href="#mab27b4a64c" y="98.190153"/>
     <use style="fill:#e41a1c;stroke:#e41a1c;" x="53.80986" xlink:href="#mab27b4a64c" y="102.330601"/>
     <use style="fill:#e41a1c;stroke:#e41a1c;" x="61.639237" xlink:href="#mab27b4a64c" y="102.644122"/>
     <use style="fill:#e41a1c;stroke:#e41a1c;" x="68.537057" xlink:href="#mab27b4a64c" y="105.867542"/>
     <use style="fill:#e41a1c;stroke:#e41a1c;" x="74.773164" xlink:href="#mab27b4a64c" y="104.52785"/>
     <use style="fill:#e41a1c;stroke:#e41a1c;" x="80.507855" xlink:href="#mab27b4a64c" y="100.45743"/>
     <use style="fill:#e41a1c;stroke:#e41a1c;" x="85.845576" xlink:href="#mab27b4a64c" y="95.734697"/>
     <use style="fill:#e41a1c;stroke:#e41a1c;" x="90.858872" xlink:href="#mab27b4a64c" y="93.050094"/>
     <use style="fill:#e41a1c;stroke:#e41a1c;" x="95.600566" xlink:href="#mab27b4a64c" y="90.353022"/>
     <use style="fill:#e41a1c;stroke:#e41a1c;" x="100.110533" xlink:href="#mab27b4a64c" y="88.670221"/>
     <use style="fill:#e41a1c;stroke:#e41a1c;" x="104.419752" xlink:href="#mab27b4a64c" y="88.049393"/>
     <use style="fill:#e41a1c;stroke:#e41a1c;" x="108.55286" xlink:href="#mab27b4a64c" y="87.23969"/>
     <use style="fill:#e41a1c;stroke:#e41a1c;" x="112.529831" xlink:href="#mab27b4a64c" y="86.578924"/>
     <use style="fill:#e41a1c;stroke:#e41a1c;" x="116.367127" xlink:href="#mab27b4a64c" y="86.252958"/>
     <use style="fill:#e41a1c;stroke:#e41a1c;" x="120.078507" xlink:href="#mab27b4a64c" y="85.750431"/>
     <use style="fill:#e41a1c;stroke:#e41a1c;" x="123.675609" xlink:href="#mab27b4a64c" y="84.241983"/>
     <use style="fill:#e41a1c;stroke:#e41a1c;" x="127.16838" xlink:href="#mab27b4a64c" y="84.865343"/>
     <use style="fill:#e41a1c;stroke:#e41a1c;" x="130.565404" xlink:href="#mab27b4a64c" y="84.174675"/>
     <use style="fill:#e41a1c;stroke:#e41a1c;" x="133.874148" xlink:href="#mab27b4a64c" y="84.03892"/>
    </g>
   </g>
   <g id="patch_3">
    <path d="M 27.346875 110.80936 
L 27.346875 2.08936 
" style="fill:none;stroke:#000000;stroke-linecap:square;stroke-linejoin:miter;stroke-width:0.5;"/>
   </g>
   <g id="patch_4">
    <path d="M 138.946875 110.80936 
L 138.946875 2.08936 
" style="fill:none;stroke:#000000;stroke-linecap:square;stroke-linejoin:miter;stroke-width:0.5;"/>
   </g>
   <g id="patch_5">
    <path d="M 27.346875 110.80936 
L 138.946875 110.80936 
" style="fill:none;stroke:#000000;stroke-linecap:square;stroke-linejoin:miter;stroke-width:0.5;"/>
   </g>
   <g id="patch_6">
    <path d="M 27.346875 2.08936 
L 138.946875 2.08936 
" style="fill:none;stroke:#000000;stroke-linecap:square;stroke-linejoin:miter;stroke-width:0.5;"/>
   </g>
  </g>
 </g>
 <defs>
  <clipPath id="p2f0608b676">
   <rect height="108.72" width="111.6" x="27.346875" y="2.08936"/>
  </clipPath>
 </defs>
</svg>
