<?xml version="1.0" encoding="utf-8" standalone="no"?>
<!DOCTYPE svg PUBLIC "-//W3C//DTD SVG 1.1//EN"
  "http://www.w3.org/Graphics/SVG/1.1/DTD/svg11.dtd">
<svg height="128.249687pt" version="1.1" viewBox="0 0 138.946875 128.249687" width="138.946875pt" xmlns="http://www.w3.org/2000/svg" xmlns:xlink="http://www.w3.org/1999/xlink">
 <metadata>
  <rdf:RDF xmlns:cc="http://creativecommons.org/ns#" xmlns:dc="http://purl.org/dc/elements/1.1/" xmlns:rdf="http://www.w3.org/1999/02/22-rdf-syntax-ns#">
   <cc:Work>
    <dc:type rdf:resource="http://purl.org/dc/dcmitype/StillImage"/>
    <dc:date>2021-09-09T11:31:15.964700</dc:date>
    <dc:format>image/svg+xml</dc:format>
    <dc:creator>
     <cc:Agent>
      <dc:title>Matplotlib v3.4.3, https://matplotlib.org/</dc:title>
     </cc:Agent>
    </dc:creator>
   </cc:Work>
  </rdf:RDF>
 </metadata>
 <defs>
  <style type="text/css">*{stroke-linecap:butt;stroke-linejoin:round;}</style>
 </defs>
 <g id="figure_1">
  <g id="patch_1">
   <path d="M 0 128.249687 
L 138.946875 128.249687 
L 138.946875 0 
L 0 0 
z
" style="fill:none;"/>
  </g>
  <g id="axes_1">
   <g id="patch_2">
    <path d="M 27.346875 108.72 
L 138.946875 108.72 
L 138.946875 0 
L 27.346875 0 
z
" style="fill:none;"/>
   </g>
   <g id="matplotlib.axis_1">
    <g id="xtick_1">
     <g id="line2d_1">
      <defs>
       <path d="M 0 0 
L 0 -3.5 
" id="m1c3bad9529" style="stroke:#000000;stroke-width:0.5;"/>
      </defs>
      <g>
       <use style="stroke:#000000;stroke-width:0.5;" x="55.893974" xlink:href="#m1c3bad9529" y="108.72"/>
      </g>
     </g>
     <g id="line2d_2">
      <defs>
       <path d="M 0 0 
L 0 3.5 
" id="m40e37d8ebe" style="stroke:#000000;stroke-width:0.5;"/>
      </defs>
      <g>
       <use style="stroke:#000000;stroke-width:0.5;" x="55.893974" xlink:href="#m40e37d8ebe" y="0"/>
      </g>
     </g>
     <g id="text_1">
      <text style="font-family:Arial;font-size:10px;font-stretch:normal;font-style:normal;font-weight:normal;text-anchor:middle;" transform="rotate(-0, 55.893974, 116.877812)" x="55.893974" y="116.877812">0</text>
     </g>
    </g>
    <g id="xtick_2">
     <g id="line2d_3">
      <g>
       <use style="stroke:#000000;stroke-width:0.5;" x="123.626692" xlink:href="#m1c3bad9529" y="108.72"/>
      </g>
     </g>
     <g id="line2d_4">
      <g>
       <use style="stroke:#000000;stroke-width:0.5;" x="123.626692" xlink:href="#m40e37d8ebe" y="0"/>
      </g>
     </g>
     <g id="text_2">
      <text style="font-family:Arial;font-size:10px;font-stretch:normal;font-style:normal;font-weight:normal;text-anchor:middle;" transform="rotate(-0, 123.626692, 116.877812)" x="123.626692" y="116.877812">2</text>
     </g>
    </g>
    <g id="xtick_3">
     <g id="line2d_5">
      <defs>
       <path d="M 0 0 
L 0 -2 
" id="m33053e7714" style="stroke:#000000;stroke-width:0.5;"/>
      </defs>
      <g>
       <use style="stroke:#000000;stroke-width:0.5;" x="38.960794" xlink:href="#m33053e7714" y="108.72"/>
      </g>
     </g>
     <g id="line2d_6">
      <defs>
       <path d="M 0 0 
L 0 2 
" id="m7a8c2a28f5" style="stroke:#000000;stroke-width:0.5;"/>
      </defs>
      <g>
       <use style="stroke:#000000;stroke-width:0.5;" x="38.960794" xlink:href="#m7a8c2a28f5" y="0"/>
      </g>
     </g>
    </g>
    <g id="xtick_4">
     <g id="line2d_7">
      <g>
       <use style="stroke:#000000;stroke-width:0.5;" x="72.827153" xlink:href="#m33053e7714" y="108.72"/>
      </g>
     </g>
     <g id="line2d_8">
      <g>
       <use style="stroke:#000000;stroke-width:0.5;" x="72.827153" xlink:href="#m7a8c2a28f5" y="0"/>
      </g>
     </g>
    </g>
    <g id="xtick_5">
     <g id="line2d_9">
      <g>
       <use style="stroke:#000000;stroke-width:0.5;" x="89.760333" xlink:href="#m33053e7714" y="108.72"/>
      </g>
     </g>
     <g id="line2d_10">
      <g>
       <use style="stroke:#000000;stroke-width:0.5;" x="89.760333" xlink:href="#m7a8c2a28f5" y="0"/>
      </g>
     </g>
    </g>
    <g id="xtick_6">
     <g id="line2d_11">
      <g>
       <use style="stroke:#000000;stroke-width:0.5;" x="106.693513" xlink:href="#m33053e7714" y="108.72"/>
      </g>
     </g>
     <g id="line2d_12">
      <g>
       <use style="stroke:#000000;stroke-width:0.5;" x="106.693513" xlink:href="#m7a8c2a28f5" y="0"/>
      </g>
     </g>
    </g>
    <g id="text_3">
     <text style="font-family:Arial;font-size:10px;font-stretch:normal;font-style:normal;font-weight:normal;text-anchor:middle;" transform="rotate(-0, 83.146875, 126.145)" x="83.146875" y="126.145">ln(V)</text>
    </g>
   </g>
   <g id="matplotlib.axis_2">
    <g id="ytick_1">
     <g id="line2d_13">
      <defs>
       <path d="M 0 0 
L 3.5 0 
" id="m91aa9ad9ba" style="stroke:#000000;stroke-width:0.5;"/>
      </defs>
      <g>
       <use style="stroke:#000000;stroke-width:0.5;" x="27.346875" xlink:href="#m91aa9ad9ba" y="93.942442"/>
      </g>
     </g>
     <g id="line2d_14">
      <defs>
       <path d="M 0 0 
L -3.5 0 
" id="m09d04219e0" style="stroke:#000000;stroke-width:0.5;"/>
      </defs>
      <g>
       <use style="stroke:#000000;stroke-width:0.5;" x="138.946875" xlink:href="#m09d04219e0" y="93.942442"/>
      </g>
     </g>
     <g id="text_4">
      <text style="font-family:Arial;font-size:10px;font-stretch:normal;font-style:normal;font-weight:normal;text-anchor:end;" transform="rotate(-0, 26.346875, 97.521348)" x="26.346875" y="97.521348">−20</text>
     </g>
    </g>
    <g id="ytick_2">
     <g id="line2d_15">
      <g>
       <use style="stroke:#000000;stroke-width:0.5;" x="27.346875" xlink:href="#m91aa9ad9ba" y="61.971021"/>
      </g>
     </g>
     <g id="line2d_16">
      <g>
       <use style="stroke:#000000;stroke-width:0.5;" x="138.946875" xlink:href="#m09d04219e0" y="61.971021"/>
      </g>
     </g>
     <g id="text_5">
      <text style="font-family:Arial;font-size:10px;font-stretch:normal;font-style:normal;font-weight:normal;text-anchor:end;" transform="rotate(-0, 26.346875, 65.549927)" x="26.346875" y="65.549927">−18</text>
     </g>
    </g>
    <g id="ytick_3">
     <g id="line2d_17">
      <g>
       <use style="stroke:#000000;stroke-width:0.5;" x="27.346875" xlink:href="#m91aa9ad9ba" y="29.999601"/>
      </g>
     </g>
     <g id="line2d_18">
      <g>
       <use style="stroke:#000000;stroke-width:0.5;" x="138.946875" xlink:href="#m09d04219e0" y="29.999601"/>
      </g>
     </g>
     <g id="text_6">
      <text style="font-family:Arial;font-size:10px;font-stretch:normal;font-style:normal;font-weight:normal;text-anchor:end;" transform="rotate(-0, 26.346875, 33.578507)" x="26.346875" y="33.578507">−16</text>
     </g>
    </g>
    <g id="ytick_4">
     <g id="line2d_19">
      <defs>
       <path d="M 0 0 
L 2 0 
" id="ma912d12330" style="stroke:#000000;stroke-width:0.5;"/>
      </defs>
      <g>
       <use style="stroke:#000000;stroke-width:0.5;" x="27.346875" xlink:href="#ma912d12330" y="101.935297"/>
      </g>
     </g>
     <g id="line2d_20">
      <defs>
       <path d="M 0 0 
L -2 0 
" id="m887648460d" style="stroke:#000000;stroke-width:0.5;"/>
      </defs>
      <g>
       <use style="stroke:#000000;stroke-width:0.5;" x="138.946875" xlink:href="#m887648460d" y="101.935297"/>
      </g>
     </g>
    </g>
    <g id="ytick_5">
     <g id="line2d_21">
      <g>
       <use style="stroke:#000000;stroke-width:0.5;" x="27.346875" xlink:href="#ma912d12330" y="85.949587"/>
      </g>
     </g>
     <g id="line2d_22">
      <g>
       <use style="stroke:#000000;stroke-width:0.5;" x="138.946875" xlink:href="#m887648460d" y="85.949587"/>
      </g>
     </g>
    </g>
    <g id="ytick_6">
     <g id="line2d_23">
      <g>
       <use style="stroke:#000000;stroke-width:0.5;" x="27.346875" xlink:href="#ma912d12330" y="77.956732"/>
      </g>
     </g>
     <g id="line2d_24">
      <g>
       <use style="stroke:#000000;stroke-width:0.5;" x="138.946875" xlink:href="#m887648460d" y="77.956732"/>
      </g>
     </g>
    </g>
    <g id="ytick_7">
     <g id="line2d_25">
      <g>
       <use style="stroke:#000000;stroke-width:0.5;" x="27.346875" xlink:href="#ma912d12330" y="69.963876"/>
      </g>
     </g>
     <g id="line2d_26">
      <g>
       <use style="stroke:#000000;stroke-width:0.5;" x="138.946875" xlink:href="#m887648460d" y="69.963876"/>
      </g>
     </g>
    </g>
    <g id="ytick_8">
     <g id="line2d_27">
      <g>
       <use style="stroke:#000000;stroke-width:0.5;" x="27.346875" xlink:href="#ma912d12330" y="53.978166"/>
      </g>
     </g>
     <g id="line2d_28">
      <g>
       <use style="stroke:#000000;stroke-width:0.5;" x="138.946875" xlink:href="#m887648460d" y="53.978166"/>
      </g>
     </g>
    </g>
    <g id="ytick_9">
     <g id="line2d_29">
      <g>
       <use style="stroke:#000000;stroke-width:0.5;" x="27.346875" xlink:href="#ma912d12330" y="45.985311"/>
      </g>
     </g>
     <g id="line2d_30">
      <g>
       <use style="stroke:#000000;stroke-width:0.5;" x="138.946875" xlink:href="#m887648460d" y="45.985311"/>
      </g>
     </g>
    </g>
    <g id="ytick_10">
     <g id="line2d_31">
      <g>
       <use style="stroke:#000000;stroke-width:0.5;" x="27.346875" xlink:href="#ma912d12330" y="37.992456"/>
      </g>
     </g>
     <g id="line2d_32">
      <g>
       <use style="stroke:#000000;stroke-width:0.5;" x="138.946875" xlink:href="#m887648460d" y="37.992456"/>
      </g>
     </g>
    </g>
    <g id="ytick_11">
     <g id="line2d_33">
      <g>
       <use style="stroke:#000000;stroke-width:0.5;" x="27.346875" xlink:href="#ma912d12330" y="22.006745"/>
      </g>
     </g>
     <g id="line2d_34">
      <g>
       <use style="stroke:#000000;stroke-width:0.5;" x="138.946875" xlink:href="#m887648460d" y="22.006745"/>
      </g>
     </g>
    </g>
    <g id="ytick_12">
     <g id="line2d_35">
      <g>
       <use style="stroke:#000000;stroke-width:0.5;" x="27.346875" xlink:href="#ma912d12330" y="14.01389"/>
      </g>
     </g>
     <g id="line2d_36">
      <g>
       <use style="stroke:#000000;stroke-width:0.5;" x="138.946875" xlink:href="#m887648460d" y="14.01389"/>
      </g>
     </g>
    </g>
    <g id="ytick_13">
     <g id="line2d_37">
      <g>
       <use style="stroke:#000000;stroke-width:0.5;" x="27.346875" xlink:href="#ma912d12330" y="6.021035"/>
      </g>
     </g>
     <g id="line2d_38">
      <g>
       <use style="stroke:#000000;stroke-width:0.5;" x="138.946875" xlink:href="#m887648460d" y="6.021035"/>
      </g>
     </g>
    </g>
    <g id="text_7">
     <text style="font-family:Arial;font-size:10px;font-stretch:normal;font-style:normal;font-weight:normal;text-anchor:middle;" transform="rotate(-90, 7.279688, 54.36)" x="7.279688" y="54.36">ln(I)</text>
    </g>
   </g>
   <g id="line2d_39">
    <path clip-path="url(#pfca09ffe3f)" d="M 32.419602 103.778182 
L 55.893974 94.870309 
L 69.625601 89.487845 
L 79.368345 85.569225 
L 86.925405 82.851125 
L 93.099972 78.370519 
L 98.320494 74.855543 
L 102.842717 70.35774 
L 106.831599 66.602883 
L 110.399776 63.160417 
L 113.627585 60.184605 
L 116.574344 57.361647 
L 119.285099 55.249476 
L 121.794866 53.56174 
L 124.131403 52.328005 
L 126.317088 51.495032 
L 128.370223 50.73785 
L 130.305971 49.885403 
L 132.137031 49.036366 
L 133.874148 48.258621 
" style="fill:none;stroke:#e41a1c;stroke-linecap:square;stroke-width:1.5;"/>
    <defs>
     <path d="M 0 0.75 
C 0.198902 0.75 0.389685 0.670975 0.53033 0.53033 
C 0.670975 0.389685 0.75 0.198902 0.75 0 
C 0.75 -0.198902 0.670975 -0.389685 0.53033 -0.53033 
C 0.389685 -0.670975 0.198902 -0.75 0 -0.75 
C -0.198902 -0.75 -0.389685 -0.670975 -0.53033 -0.53033 
C -0.670975 -0.389685 -0.75 -0.198902 -0.75 0 
C -0.75 0.198902 -0.670975 0.389685 -0.53033 0.53033 
C -0.389685 0.670975 -0.198902 0.75 0 0.75 
z
" id="m9b6f0b54b1" style="stroke:#e41a1c;"/>
    </defs>
    <g clip-path="url(#pfca09ffe3f)">
     <use style="fill:#e41a1c;stroke:#e41a1c;" x="32.419602" xlink:href="#m9b6f0b54b1" y="103.778182"/>
     <use style="fill:#e41a1c;stroke:#e41a1c;" x="55.893974" xlink:href="#m9b6f0b54b1" y="94.870309"/>
     <use style="fill:#e41a1c;stroke:#e41a1c;" x="69.625601" xlink:href="#m9b6f0b54b1" y="89.487845"/>
     <use style="fill:#e41a1c;stroke:#e41a1c;" x="79.368345" xlink:href="#m9b6f0b54b1" y="85.569225"/>
     <use style="fill:#e41a1c;stroke:#e41a1c;" x="86.925405" xlink:href="#m9b6f0b54b1" y="82.851125"/>
     <use style="fill:#e41a1c;stroke:#e41a1c;" x="93.099972" xlink:href="#m9b6f0b54b1" y="78.370519"/>
     <use style="fill:#e41a1c;stroke:#e41a1c;" x="98.320494" xlink:href="#m9b6f0b54b1" y="74.855543"/>
     <use style="fill:#e41a1c;stroke:#e41a1c;" x="102.842717" xlink:href="#m9b6f0b54b1" y="70.35774"/>
     <use style="fill:#e41a1c;stroke:#e41a1c;" x="106.831599" xlink:href="#m9b6f0b54b1" y="66.602883"/>
     <use style="fill:#e41a1c;stroke:#e41a1c;" x="110.399776" xlink:href="#m9b6f0b54b1" y="63.160417"/>
     <use style="fill:#e41a1c;stroke:#e41a1c;" x="113.627585" xlink:href="#m9b6f0b54b1" y="60.184605"/>
     <use style="fill:#e41a1c;stroke:#e41a1c;" x="116.574344" xlink:href="#m9b6f0b54b1" y="57.361647"/>
     <use style="fill:#e41a1c;stroke:#e41a1c;" x="119.285099" xlink:href="#m9b6f0b54b1" y="55.249476"/>
     <use style="fill:#e41a1c;stroke:#e41a1c;" x="121.794866" xlink:href="#m9b6f0b54b1" y="53.56174"/>
     <use style="fill:#e41a1c;stroke:#e41a1c;" x="124.131403" xlink:href="#m9b6f0b54b1" y="52.328005"/>
     <use style="fill:#e41a1c;stroke:#e41a1c;" x="126.317088" xlink:href="#m9b6f0b54b1" y="51.495032"/>
     <use style="fill:#e41a1c;stroke:#e41a1c;" x="128.370223" xlink:href="#m9b6f0b54b1" y="50.73785"/>
     <use style="fill:#e41a1c;stroke:#e41a1c;" x="130.305971" xlink:href="#m9b6f0b54b1" y="49.885403"/>
     <use style="fill:#e41a1c;stroke:#e41a1c;" x="132.137031" xlink:href="#m9b6f0b54b1" y="49.036366"/>
     <use style="fill:#e41a1c;stroke:#e41a1c;" x="133.874148" xlink:href="#m9b6f0b54b1" y="48.258621"/>
    </g>
   </g>
   <g id="line2d_40">
    <path clip-path="url(#pfca09ffe3f)" d="M 116.574344 57.870647 
L 113.627585 60.443479 
L 110.399776 63.261698 
L 106.831599 66.377094 
L 102.842717 69.85981 
L 98.320494 73.808188 
L 93.099972 78.366256 
L 86.925405 83.757306 
" style="fill:none;stroke:#000000;stroke-linecap:square;"/>
   </g>
   <g id="line2d_41">
    <path clip-path="url(#pfca09ffe3f)" d="M 133.874148 48.180488 
L 132.137031 48.97674 
L 130.305971 49.816052 
L 128.370223 50.703351 
L 126.317088 51.644458 
L 124.131403 52.646322 
L 121.794866 53.717333 
L 119.285099 54.867748 
" style="fill:none;stroke:#000000;stroke-linecap:square;"/>
   </g>
   <g id="line2d_42">
    <path clip-path="url(#pfca09ffe3f)" d="M 32.419602 74.500872 
L 55.893974 64.270399 
L 69.625601 58.1248 
L 79.368345 54.319767 
L 86.925405 52.359353 
L 93.099972 50.944772 
L 98.320494 50.051067 
L 102.842717 49.22317 
L 106.831599 47.537323 
L 110.399776 46.449495 
L 113.627585 45.564159 
L 116.574344 45.112751 
L 119.285099 44.35816 
L 121.794866 43.198852 
L 124.131403 42.809347 
L 126.317088 42.54172 
L 128.370223 41.864488 
L 130.305971 40.937026 
L 132.137031 40.404256 
L 133.874148 40.187128 
" style="fill:none;stroke:#ff7f00;stroke-linecap:square;stroke-width:1.5;"/>
    <defs>
     <path d="M 0 0.75 
C 0.198902 0.75 0.389685 0.670975 0.53033 0.53033 
C 0.670975 0.389685 0.75 0.198902 0.75 0 
C 0.75 -0.198902 0.670975 -0.389685 0.53033 -0.53033 
C 0.389685 -0.670975 0.198902 -0.75 0 -0.75 
C -0.198902 -0.75 -0.389685 -0.670975 -0.53033 -0.53033 
C -0.670975 -0.389685 -0.75 -0.198902 -0.75 0 
C -0.75 0.198902 -0.670975 0.389685 -0.53033 0.53033 
C -0.389685 0.670975 -0.198902 0.75 0 0.75 
z
" id="mf40b4fe6c2" style="stroke:#ff7f00;"/>
    </defs>
    <g clip-path="url(#pfca09ffe3f)">
     <use style="fill:#ff7f00;stroke:#ff7f00;" x="32.419602" xlink:href="#mf40b4fe6c2" y="74.500872"/>
     <use style="fill:#ff7f00;stroke:#ff7f00;" x="55.893974" xlink:href="#mf40b4fe6c2" y="64.270399"/>
     <use style="fill:#ff7f00;stroke:#ff7f00;" x="69.625601" xlink:href="#mf40b4fe6c2" y="58.1248"/>
     <use style="fill:#ff7f00;stroke:#ff7f00;" x="79.368345" xlink:href="#mf40b4fe6c2" y="54.319767"/>
     <use style="fill:#ff7f00;stroke:#ff7f00;" x="86.925405" xlink:href="#mf40b4fe6c2" y="52.359353"/>
     <use style="fill:#ff7f00;stroke:#ff7f00;" x="93.099972" xlink:href="#mf40b4fe6c2" y="50.944772"/>
     <use style="fill:#ff7f00;stroke:#ff7f00;" x="98.320494" xlink:href="#mf40b4fe6c2" y="50.051067"/>
     <use style="fill:#ff7f00;stroke:#ff7f00;" x="102.842717" xlink:href="#mf40b4fe6c2" y="49.22317"/>
     <use style="fill:#ff7f00;stroke:#ff7f00;" x="106.831599" xlink:href="#mf40b4fe6c2" y="47.537323"/>
     <use style="fill:#ff7f00;stroke:#ff7f00;" x="110.399776" xlink:href="#mf40b4fe6c2" y="46.449495"/>
     <use style="fill:#ff7f00;stroke:#ff7f00;" x="113.627585" xlink:href="#mf40b4fe6c2" y="45.564159"/>
     <use style="fill:#ff7f00;stroke:#ff7f00;" x="116.574344" xlink:href="#mf40b4fe6c2" y="45.112751"/>
     <use style="fill:#ff7f00;stroke:#ff7f00;" x="119.285099" xlink:href="#mf40b4fe6c2" y="44.35816"/>
     <use style="fill:#ff7f00;stroke:#ff7f00;" x="121.794866" xlink:href="#mf40b4fe6c2" y="43.198852"/>
     <use style="fill:#ff7f00;stroke:#ff7f00;" x="124.131403" xlink:href="#mf40b4fe6c2" y="42.809347"/>
     <use style="fill:#ff7f00;stroke:#ff7f00;" x="126.317088" xlink:href="#mf40b4fe6c2" y="42.54172"/>
     <use style="fill:#ff7f00;stroke:#ff7f00;" x="128.370223" xlink:href="#mf40b4fe6c2" y="41.864488"/>
     <use style="fill:#ff7f00;stroke:#ff7f00;" x="130.305971" xlink:href="#mf40b4fe6c2" y="40.937026"/>
     <use style="fill:#ff7f00;stroke:#ff7f00;" x="132.137031" xlink:href="#mf40b4fe6c2" y="40.404256"/>
     <use style="fill:#ff7f00;stroke:#ff7f00;" x="133.874148" xlink:href="#mf40b4fe6c2" y="40.187128"/>
    </g>
   </g>
   <g id="line2d_43">
    <path clip-path="url(#pfca09ffe3f)" d="M 102.842717 49.059472 
L 98.320494 50.037193 
L 93.099972 51.16589 
L 86.925405 52.500855 
L 79.368345 54.134719 
" style="fill:none;stroke:#000000;stroke-linecap:square;"/>
   </g>
   <g id="line2d_44">
    <path clip-path="url(#pfca09ffe3f)" d="M 32.419602 63.783529 
L 55.893974 54.099711 
L 69.625601 48.302913 
L 79.368345 44.730922 
L 86.925405 42.304615 
L 93.099972 41.454557 
L 98.320494 40.152428 
L 102.842717 39.549777 
L 106.831599 38.55562 
L 110.399776 37.877744 
L 113.627585 37.326117 
L 116.574344 36.672301 
L 119.285099 36.097723 
L 121.794866 35.087639 
L 124.131403 34.841913 
L 126.317088 34.196271 
L 128.370223 33.650569 
L 130.305971 33.042903 
L 132.137031 32.032998 
L 133.874148 31.463274 
" style="fill:none;stroke:#984ea3;stroke-linecap:square;stroke-width:1.5;"/>
    <defs>
     <path d="M 0 0.75 
C 0.198902 0.75 0.389685 0.670975 0.53033 0.53033 
C 0.670975 0.389685 0.75 0.198902 0.75 0 
C 0.75 -0.198902 0.670975 -0.389685 0.53033 -0.53033 
C 0.389685 -0.670975 0.198902 -0.75 0 -0.75 
C -0.198902 -0.75 -0.389685 -0.670975 -0.53033 -0.53033 
C -0.670975 -0.389685 -0.75 -0.198902 -0.75 0 
C -0.75 0.198902 -0.670975 0.389685 -0.53033 0.53033 
C -0.389685 0.670975 -0.198902 0.75 0 0.75 
z
" id="ma7090ca223" style="stroke:#984ea3;"/>
    </defs>
    <g clip-path="url(#pfca09ffe3f)">
     <use style="fill:#984ea3;stroke:#984ea3;" x="32.419602" xlink:href="#ma7090ca223" y="63.783529"/>
     <use style="fill:#984ea3;stroke:#984ea3;" x="55.893974" xlink:href="#ma7090ca223" y="54.099711"/>
     <use style="fill:#984ea3;stroke:#984ea3;" x="69.625601" xlink:href="#ma7090ca223" y="48.302913"/>
     <use style="fill:#984ea3;stroke:#984ea3;" x="79.368345" xlink:href="#ma7090ca223" y="44.730922"/>
     <use style="fill:#984ea3;stroke:#984ea3;" x="86.925405" xlink:href="#ma7090ca223" y="42.304615"/>
     <use style="fill:#984ea3;stroke:#984ea3;" x="93.099972" xlink:href="#ma7090ca223" y="41.454557"/>
     <use style="fill:#984ea3;stroke:#984ea3;" x="98.320494" xlink:href="#ma7090ca223" y="40.152428"/>
     <use style="fill:#984ea3;stroke:#984ea3;" x="102.842717" xlink:href="#ma7090ca223" y="39.549777"/>
     <use style="fill:#984ea3;stroke:#984ea3;" x="106.831599" xlink:href="#ma7090ca223" y="38.55562"/>
     <use style="fill:#984ea3;stroke:#984ea3;" x="110.399776" xlink:href="#ma7090ca223" y="37.877744"/>
     <use style="fill:#984ea3;stroke:#984ea3;" x="113.627585" xlink:href="#ma7090ca223" y="37.326117"/>
     <use style="fill:#984ea3;stroke:#984ea3;" x="116.574344" xlink:href="#ma7090ca223" y="36.672301"/>
     <use style="fill:#984ea3;stroke:#984ea3;" x="119.285099" xlink:href="#ma7090ca223" y="36.097723"/>
     <use style="fill:#984ea3;stroke:#984ea3;" x="121.794866" xlink:href="#ma7090ca223" y="35.087639"/>
     <use style="fill:#984ea3;stroke:#984ea3;" x="124.131403" xlink:href="#ma7090ca223" y="34.841913"/>
     <use style="fill:#984ea3;stroke:#984ea3;" x="126.317088" xlink:href="#ma7090ca223" y="34.196271"/>
     <use style="fill:#984ea3;stroke:#984ea3;" x="128.370223" xlink:href="#ma7090ca223" y="33.650569"/>
     <use style="fill:#984ea3;stroke:#984ea3;" x="130.305971" xlink:href="#ma7090ca223" y="33.042903"/>
     <use style="fill:#984ea3;stroke:#984ea3;" x="132.137031" xlink:href="#ma7090ca223" y="32.032998"/>
     <use style="fill:#984ea3;stroke:#984ea3;" x="133.874148" xlink:href="#ma7090ca223" y="31.463274"/>
    </g>
   </g>
   <g id="line2d_45">
    <path clip-path="url(#pfca09ffe3f)" d="M 119.285099 36.053754 
L 116.574344 36.613409 
L 113.627585 37.221788 
L 110.399776 37.888192 
L 106.831599 38.624867 
L 102.842717 39.4484 
L 98.320494 40.382045 
L 93.099972 41.459858 
L 86.925405 42.734641 
L 79.368345 44.29485 
" style="fill:none;stroke:#000000;stroke-linecap:square;"/>
   </g>
   <g id="line2d_46">
    <path clip-path="url(#pfca09ffe3f)" d="M 32.419602 56.254828 
L 55.893974 45.903538 
L 69.625601 40.131738 
L 79.368345 36.352639 
L 86.925405 34.036411 
L 93.099972 32.26645 
L 98.320494 31.234865 
L 102.842717 30.022824 
L 106.831599 29.437157 
L 110.399776 28.568197 
L 113.627585 27.936017 
L 116.574344 27.571245 
L 119.285099 27.177374 
L 121.794866 26.6966 
L 124.131403 25.913142 
L 126.317088 25.599179 
L 128.370223 25.372439 
L 130.305971 25.308951 
L 132.137031 24.278227 
L 133.874148 24.286298 
" style="fill:none;stroke:#a65628;stroke-linecap:square;stroke-width:1.5;"/>
    <defs>
     <path d="M 0 0.75 
C 0.198902 0.75 0.389685 0.670975 0.53033 0.53033 
C 0.670975 0.389685 0.75 0.198902 0.75 0 
C 0.75 -0.198902 0.670975 -0.389685 0.53033 -0.53033 
C 0.389685 -0.670975 0.198902 -0.75 0 -0.75 
C -0.198902 -0.75 -0.389685 -0.670975 -0.53033 -0.53033 
C -0.670975 -0.389685 -0.75 -0.198902 -0.75 0 
C -0.75 0.198902 -0.670975 0.389685 -0.53033 0.53033 
C -0.389685 0.670975 -0.198902 0.75 0 0.75 
z
" id="m8fc098a0f0" style="stroke:#a65628;"/>
    </defs>
    <g clip-path="url(#pfca09ffe3f)">
     <use style="fill:#a65628;stroke:#a65628;" x="32.419602" xlink:href="#m8fc098a0f0" y="56.254828"/>
     <use style="fill:#a65628;stroke:#a65628;" x="55.893974" xlink:href="#m8fc098a0f0" y="45.903538"/>
     <use style="fill:#a65628;stroke:#a65628;" x="69.625601" xlink:href="#m8fc098a0f0" y="40.131738"/>
     <use style="fill:#a65628;stroke:#a65628;" x="79.368345" xlink:href="#m8fc098a0f0" y="36.352639"/>
     <use style="fill:#a65628;stroke:#a65628;" x="86.925405" xlink:href="#m8fc098a0f0" y="34.036411"/>
     <use style="fill:#a65628;stroke:#a65628;" x="93.099972" xlink:href="#m8fc098a0f0" y="32.26645"/>
     <use style="fill:#a65628;stroke:#a65628;" x="98.320494" xlink:href="#m8fc098a0f0" y="31.234865"/>
     <use style="fill:#a65628;stroke:#a65628;" x="102.842717" xlink:href="#m8fc098a0f0" y="30.022824"/>
     <use style="fill:#a65628;stroke:#a65628;" x="106.831599" xlink:href="#m8fc098a0f0" y="29.437157"/>
     <use style="fill:#a65628;stroke:#a65628;" x="110.399776" xlink:href="#m8fc098a0f0" y="28.568197"/>
     <use style="fill:#a65628;stroke:#a65628;" x="113.627585" xlink:href="#m8fc098a0f0" y="27.936017"/>
     <use style="fill:#a65628;stroke:#a65628;" x="116.574344" xlink:href="#m8fc098a0f0" y="27.571245"/>
     <use style="fill:#a65628;stroke:#a65628;" x="119.285099" xlink:href="#m8fc098a0f0" y="27.177374"/>
     <use style="fill:#a65628;stroke:#a65628;" x="121.794866" xlink:href="#m8fc098a0f0" y="26.6966"/>
     <use style="fill:#a65628;stroke:#a65628;" x="124.131403" xlink:href="#m8fc098a0f0" y="25.913142"/>
     <use style="fill:#a65628;stroke:#a65628;" x="126.317088" xlink:href="#m8fc098a0f0" y="25.599179"/>
     <use style="fill:#a65628;stroke:#a65628;" x="128.370223" xlink:href="#m8fc098a0f0" y="25.372439"/>
     <use style="fill:#a65628;stroke:#a65628;" x="130.305971" xlink:href="#m8fc098a0f0" y="25.308951"/>
     <use style="fill:#a65628;stroke:#a65628;" x="132.137031" xlink:href="#m8fc098a0f0" y="24.278227"/>
     <use style="fill:#a65628;stroke:#a65628;" x="133.874148" xlink:href="#m8fc098a0f0" y="24.286298"/>
    </g>
   </g>
   <g id="line2d_47">
    <path clip-path="url(#pfca09ffe3f)" d="M 106.831599 29.120115 
L 102.842717 30.129768 
L 98.320494 31.274418 
L 93.099972 32.595819 
L 86.925405 34.158704 
L 79.368345 36.071522 
" style="fill:none;stroke:#000000;stroke-linecap:square;"/>
   </g>
   <g id="line2d_48">
    <path clip-path="url(#pfca09ffe3f)" d="M 121.794866 26.725817 
L 119.285099 27.123106 
L 116.574344 27.55221 
L 113.627585 28.018674 
L 110.399776 28.529627 
" style="fill:none;stroke:#000000;stroke-linecap:square;"/>
   </g>
   <g id="line2d_49">
    <path clip-path="url(#pfca09ffe3f)" d="M 32.419602 47.499125 
L 55.893974 37.563311 
L 69.625601 32.222478 
L 79.368345 28.893397 
L 86.925405 26.304021 
L 93.099972 25.064923 
L 98.320494 23.659514 
L 102.842717 22.484376 
L 106.831599 21.444877 
L 110.399776 20.78121 
L 113.627585 20.034073 
L 116.574344 19.289781 
L 119.285099 18.820577 
L 121.794866 18.27076 
L 124.131403 17.423811 
L 126.317088 17.045532 
L 128.370223 16.639733 
L 130.305971 16.056444 
L 132.137031 16.235101 
L 133.874148 15.91922 
" style="fill:none;stroke:#4daf4a;stroke-linecap:square;stroke-width:1.5;"/>
    <defs>
     <path d="M 0 0.75 
C 0.198902 0.75 0.389685 0.670975 0.53033 0.53033 
C 0.670975 0.389685 0.75 0.198902 0.75 0 
C 0.75 -0.198902 0.670975 -0.389685 0.53033 -0.53033 
C 0.389685 -0.670975 0.198902 -0.75 0 -0.75 
C -0.198902 -0.75 -0.389685 -0.670975 -0.53033 -0.53033 
C -0.670975 -0.389685 -0.75 -0.198902 -0.75 0 
C -0.75 0.198902 -0.670975 0.389685 -0.53033 0.53033 
C -0.389685 0.670975 -0.198902 0.75 0 0.75 
z
" id="m1fab2f43f7" style="stroke:#4daf4a;"/>
    </defs>
    <g clip-path="url(#pfca09ffe3f)">
     <use style="fill:#4daf4a;stroke:#4daf4a;" x="32.419602" xlink:href="#m1fab2f43f7" y="47.499125"/>
     <use style="fill:#4daf4a;stroke:#4daf4a;" x="55.893974" xlink:href="#m1fab2f43f7" y="37.563311"/>
     <use style="fill:#4daf4a;stroke:#4daf4a;" x="69.625601" xlink:href="#m1fab2f43f7" y="32.222478"/>
     <use style="fill:#4daf4a;stroke:#4daf4a;" x="79.368345" xlink:href="#m1fab2f43f7" y="28.893397"/>
     <use style="fill:#4daf4a;stroke:#4daf4a;" x="86.925405" xlink:href="#m1fab2f43f7" y="26.304021"/>
     <use style="fill:#4daf4a;stroke:#4daf4a;" x="93.099972" xlink:href="#m1fab2f43f7" y="25.064923"/>
     <use style="fill:#4daf4a;stroke:#4daf4a;" x="98.320494" xlink:href="#m1fab2f43f7" y="23.659514"/>
     <use style="fill:#4daf4a;stroke:#4daf4a;" x="102.842717" xlink:href="#m1fab2f43f7" y="22.484376"/>
     <use style="fill:#4daf4a;stroke:#4daf4a;" x="106.831599" xlink:href="#m1fab2f43f7" y="21.444877"/>
     <use style="fill:#4daf4a;stroke:#4daf4a;" x="110.399776" xlink:href="#m1fab2f43f7" y="20.78121"/>
     <use style="fill:#4daf4a;stroke:#4daf4a;" x="113.627585" xlink:href="#m1fab2f43f7" y="20.034073"/>
     <use style="fill:#4daf4a;stroke:#4daf4a;" x="116.574344" xlink:href="#m1fab2f43f7" y="19.289781"/>
     <use style="fill:#4daf4a;stroke:#4daf4a;" x="119.285099" xlink:href="#m1fab2f43f7" y="18.820577"/>
     <use style="fill:#4daf4a;stroke:#4daf4a;" x="121.794866" xlink:href="#m1fab2f43f7" y="18.27076"/>
     <use style="fill:#4daf4a;stroke:#4daf4a;" x="124.131403" xlink:href="#m1fab2f43f7" y="17.423811"/>
     <use style="fill:#4daf4a;stroke:#4daf4a;" x="126.317088" xlink:href="#m1fab2f43f7" y="17.045532"/>
     <use style="fill:#4daf4a;stroke:#4daf4a;" x="128.370223" xlink:href="#m1fab2f43f7" y="16.639733"/>
     <use style="fill:#4daf4a;stroke:#4daf4a;" x="130.305971" xlink:href="#m1fab2f43f7" y="16.056444"/>
     <use style="fill:#4daf4a;stroke:#4daf4a;" x="132.137031" xlink:href="#m1fab2f43f7" y="16.235101"/>
     <use style="fill:#4daf4a;stroke:#4daf4a;" x="133.874148" xlink:href="#m1fab2f43f7" y="15.91922"/>
    </g>
   </g>
   <g id="line2d_50">
    <path clip-path="url(#pfca09ffe3f)" d="M 121.794866 17.842897 
L 119.285099 18.495603 
L 116.574344 19.20058 
L 113.627585 19.966933 
L 110.399776 20.806378 
L 106.831599 21.734341 
L 102.842717 22.771716 
L 98.320494 23.947795 
L 93.099972 25.305478 
L 86.925405 26.911276 
L 79.368345 28.876615 
L 69.625601 31.410376 
" style="fill:none;stroke:#000000;stroke-linecap:square;"/>
   </g>
   <g id="line2d_51">
    <path clip-path="url(#pfca09ffe3f)" d="M 32.419602 41.795202 
L 55.893974 31.721715 
L 69.625601 26.481097 
L 79.368345 23.339559 
L 86.925405 21.373055 
L 93.099972 19.852215 
L 98.320494 18.707355 
L 102.842717 17.279359 
L 106.831599 16.175897 
L 110.399776 15.208817 
L 113.627585 14.568512 
L 116.574344 13.599998 
L 119.285099 12.982569 
L 121.794866 12.354782 
L 124.131403 11.74036 
L 126.317088 11.223611 
L 128.370223 10.86832 
L 130.305971 10.495415 
L 132.137031 9.821387 
L 133.874148 9.394416 
" style="fill:none;stroke:#999999;stroke-linecap:square;stroke-width:1.5;"/>
    <defs>
     <path d="M 0 0.75 
C 0.198902 0.75 0.389685 0.670975 0.53033 0.53033 
C 0.670975 0.389685 0.75 0.198902 0.75 0 
C 0.75 -0.198902 0.670975 -0.389685 0.53033 -0.53033 
C 0.389685 -0.670975 0.198902 -0.75 0 -0.75 
C -0.198902 -0.75 -0.389685 -0.670975 -0.53033 -0.53033 
C -0.670975 -0.389685 -0.75 -0.198902 -0.75 0 
C -0.75 0.198902 -0.670975 0.389685 -0.53033 0.53033 
C -0.389685 0.670975 -0.198902 0.75 0 0.75 
z
" id="m880f5e361d" style="stroke:#999999;"/>
    </defs>
    <g clip-path="url(#pfca09ffe3f)">
     <use style="fill:#999999;stroke:#999999;" x="32.419602" xlink:href="#m880f5e361d" y="41.795202"/>
     <use style="fill:#999999;stroke:#999999;" x="55.893974" xlink:href="#m880f5e361d" y="31.721715"/>
     <use style="fill:#999999;stroke:#999999;" x="69.625601" xlink:href="#m880f5e361d" y="26.481097"/>
     <use style="fill:#999999;stroke:#999999;" x="79.368345" xlink:href="#m880f5e361d" y="23.339559"/>
     <use style="fill:#999999;stroke:#999999;" x="86.925405" xlink:href="#m880f5e361d" y="21.373055"/>
     <use style="fill:#999999;stroke:#999999;" x="93.099972" xlink:href="#m880f5e361d" y="19.852215"/>
     <use style="fill:#999999;stroke:#999999;" x="98.320494" xlink:href="#m880f5e361d" y="18.707355"/>
     <use style="fill:#999999;stroke:#999999;" x="102.842717" xlink:href="#m880f5e361d" y="17.279359"/>
     <use style="fill:#999999;stroke:#999999;" x="106.831599" xlink:href="#m880f5e361d" y="16.175897"/>
     <use style="fill:#999999;stroke:#999999;" x="110.399776" xlink:href="#m880f5e361d" y="15.208817"/>
     <use style="fill:#999999;stroke:#999999;" x="113.627585" xlink:href="#m880f5e361d" y="14.568512"/>
     <use style="fill:#999999;stroke:#999999;" x="116.574344" xlink:href="#m880f5e361d" y="13.599998"/>
     <use style="fill:#999999;stroke:#999999;" x="119.285099" xlink:href="#m880f5e361d" y="12.982569"/>
     <use style="fill:#999999;stroke:#999999;" x="121.794866" xlink:href="#m880f5e361d" y="12.354782"/>
     <use style="fill:#999999;stroke:#999999;" x="124.131403" xlink:href="#m880f5e361d" y="11.74036"/>
     <use style="fill:#999999;stroke:#999999;" x="126.317088" xlink:href="#m880f5e361d" y="11.223611"/>
     <use style="fill:#999999;stroke:#999999;" x="128.370223" xlink:href="#m880f5e361d" y="10.86832"/>
     <use style="fill:#999999;stroke:#999999;" x="130.305971" xlink:href="#m880f5e361d" y="10.495415"/>
     <use style="fill:#999999;stroke:#999999;" x="132.137031" xlink:href="#m880f5e361d" y="9.821387"/>
     <use style="fill:#999999;stroke:#999999;" x="133.874148" xlink:href="#m880f5e361d" y="9.394416"/>
    </g>
   </g>
   <g id="line2d_52">
    <path clip-path="url(#pfca09ffe3f)" d="M 130.305971 9.951704 
L 128.370223 10.484639 
L 126.317088 11.049892 
L 124.131403 11.651638 
L 121.794866 12.294916 
L 119.285099 12.985885 
L 116.574344 13.732189 
L 113.627585 14.543468 
L 110.399776 15.432123 
L 106.831599 16.414486 
L 102.842717 17.512674 
L 98.320494 18.757697 
L 93.099972 20.194971 
L 86.925405 21.894905 
L 79.368345 23.975456 
L 69.625601 26.657753 
L 55.893974 30.438238 
" style="fill:none;stroke:#000000;stroke-linecap:square;"/>
   </g>
   <g id="line2d_53">
    <path clip-path="url(#pfca09ffe3f)" d="M 32.419602 38.309973 
L 55.893974 28.052616 
L 69.625601 22.593847 
L 79.368345 19.318805 
L 86.925405 17.314471 
L 93.099972 15.737014 
L 98.320494 14.571436 
L 102.842717 13.378655 
L 106.831599 12.396805 
L 110.399776 11.33638 
L 113.627585 10.499415 
L 116.574344 9.840116 
L 119.285099 9.169758 
L 121.794866 8.286903 
L 124.131403 7.80229 
L 126.317088 7.002809 
L 128.370223 6.576736 
L 130.305971 6.17708 
L 132.137031 5.648121 
L 133.874148 5.215507 
" style="fill:none;stroke:#377eb8;stroke-linecap:square;stroke-width:1.5;"/>
    <defs>
     <path d="M 0 0.75 
C 0.198902 0.75 0.389685 0.670975 0.53033 0.53033 
C 0.670975 0.389685 0.75 0.198902 0.75 0 
C 0.75 -0.198902 0.670975 -0.389685 0.53033 -0.53033 
C 0.389685 -0.670975 0.198902 -0.75 0 -0.75 
C -0.198902 -0.75 -0.389685 -0.670975 -0.53033 -0.53033 
C -0.670975 -0.389685 -0.75 -0.198902 -0.75 0 
C -0.75 0.198902 -0.670975 0.389685 -0.53033 0.53033 
C -0.389685 0.670975 -0.198902 0.75 0 0.75 
z
" id="ma41cf67b0c" style="stroke:#377eb8;"/>
    </defs>
    <g clip-path="url(#pfca09ffe3f)">
     <use style="fill:#377eb8;stroke:#377eb8;" x="32.419602" xlink:href="#ma41cf67b0c" y="38.309973"/>
     <use style="fill:#377eb8;stroke:#377eb8;" x="55.893974" xlink:href="#ma41cf67b0c" y="28.052616"/>
     <use style="fill:#377eb8;stroke:#377eb8;" x="69.625601" xlink:href="#ma41cf67b0c" y="22.593847"/>
     <use style="fill:#377eb8;stroke:#377eb8;" x="79.368345" xlink:href="#ma41cf67b0c" y="19.318805"/>
     <use style="fill:#377eb8;stroke:#377eb8;" x="86.925405" xlink:href="#ma41cf67b0c" y="17.314471"/>
     <use style="fill:#377eb8;stroke:#377eb8;" x="93.099972" xlink:href="#ma41cf67b0c" y="15.737014"/>
     <use style="fill:#377eb8;stroke:#377eb8;" x="98.320494" xlink:href="#ma41cf67b0c" y="14.571436"/>
     <use style="fill:#377eb8;stroke:#377eb8;" x="102.842717" xlink:href="#ma41cf67b0c" y="13.378655"/>
     <use style="fill:#377eb8;stroke:#377eb8;" x="106.831599" xlink:href="#ma41cf67b0c" y="12.396805"/>
     <use style="fill:#377eb8;stroke:#377eb8;" x="110.399776" xlink:href="#ma41cf67b0c" y="11.33638"/>
     <use style="fill:#377eb8;stroke:#377eb8;" x="113.627585" xlink:href="#ma41cf67b0c" y="10.499415"/>
     <use style="fill:#377eb8;stroke:#377eb8;" x="116.574344" xlink:href="#ma41cf67b0c" y="9.840116"/>
     <use style="fill:#377eb8;stroke:#377eb8;" x="119.285099" xlink:href="#ma41cf67b0c" y="9.169758"/>
     <use style="fill:#377eb8;stroke:#377eb8;" x="121.794866" xlink:href="#ma41cf67b0c" y="8.286903"/>
     <use style="fill:#377eb8;stroke:#377eb8;" x="124.131403" xlink:href="#ma41cf67b0c" y="7.80229"/>
     <use style="fill:#377eb8;stroke:#377eb8;" x="126.317088" xlink:href="#ma41cf67b0c" y="7.002809"/>
     <use style="fill:#377eb8;stroke:#377eb8;" x="128.370223" xlink:href="#ma41cf67b0c" y="6.576736"/>
     <use style="fill:#377eb8;stroke:#377eb8;" x="130.305971" xlink:href="#ma41cf67b0c" y="6.17708"/>
     <use style="fill:#377eb8;stroke:#377eb8;" x="132.137031" xlink:href="#ma41cf67b0c" y="5.648121"/>
     <use style="fill:#377eb8;stroke:#377eb8;" x="133.874148" xlink:href="#ma41cf67b0c" y="5.215507"/>
    </g>
   </g>
   <g id="line2d_54">
    <path clip-path="url(#pfca09ffe3f)" d="M 133.874148 4.941818 
L 132.137031 5.423768 
L 130.305971 5.931782 
L 128.370223 6.468841 
L 126.317088 7.038468 
L 124.131403 7.64487 
L 121.794866 8.293125 
L 119.285099 8.989442 
L 116.574344 9.74152 
L 113.627585 10.559077 
L 110.399776 11.454608 
L 106.831599 12.444572 
L 102.842717 13.551258 
L 98.320494 14.805915 
L 93.099972 16.25431 
L 86.925405 17.967398 
L 79.368345 20.064048 
L 69.625601 22.767101 
L 55.893974 26.576839 
" style="fill:none;stroke:#000000;stroke-linecap:square;"/>
   </g>
   <g id="patch_3">
    <path d="M 27.346875 108.72 
L 27.346875 0 
" style="fill:none;stroke:#000000;stroke-linecap:square;stroke-linejoin:miter;stroke-width:0.5;"/>
   </g>
   <g id="patch_4">
    <path d="M 138.946875 108.72 
L 138.946875 0 
" style="fill:none;stroke:#000000;stroke-linecap:square;stroke-linejoin:miter;stroke-width:0.5;"/>
   </g>
   <g id="patch_5">
    <path d="M 27.346875 108.72 
L 138.946875 108.72 
" style="fill:none;stroke:#000000;stroke-linecap:square;stroke-linejoin:miter;stroke-width:0.5;"/>
   </g>
   <g id="patch_6">
    <path d="M 27.346875 0 
L 138.946875 0 
" style="fill:none;stroke:#000000;stroke-linecap:square;stroke-linejoin:miter;stroke-width:0.5;"/>
   </g>
  </g>
 </g>
 <defs>
  <clipPath id="pfca09ffe3f">
   <rect height="108.72" width="111.6" x="27.346875" y="0"/>
  </clipPath>
 </defs>
</svg>
