<?xml version="1.0" encoding="utf-8" standalone="no"?>
<!DOCTYPE svg PUBLIC "-//W3C//DTD SVG 1.1//EN"
  "http://www.w3.org/Graphics/SVG/1.1/DTD/svg11.dtd">
<svg height="128.249688pt" version="1.1" viewBox="0 0 138.946875 128.249688" width="138.946875pt" xmlns="http://www.w3.org/2000/svg" xmlns:xlink="http://www.w3.org/1999/xlink">
 <metadata>
  <rdf:RDF xmlns:cc="http://creativecommons.org/ns#" xmlns:dc="http://purl.org/dc/elements/1.1/" xmlns:rdf="http://www.w3.org/1999/02/22-rdf-syntax-ns#">
   <cc:Work>
    <dc:type rdf:resource="http://purl.org/dc/dcmitype/StillImage"/>
    <dc:date>2021-09-09T11:31:16.181152</dc:date>
    <dc:format>image/svg+xml</dc:format>
    <dc:creator>
     <cc:Agent>
      <dc:title>Matplotlib v3.4.3, https://matplotlib.org/</dc:title>
     </cc:Agent>
    </dc:creator>
   </cc:Work>
  </rdf:RDF>
 </metadata>
 <defs>
  <style type="text/css">*{stroke-linecap:butt;stroke-linejoin:round;}</style>
 </defs>
 <g id="figure_1">
  <g id="patch_1">
   <path d="M 0 128.249688 
L 138.946875 128.249688 
L 138.946875 0 
L 0 0 
z
" style="fill:none;"/>
  </g>
  <g id="axes_1">
   <g id="patch_2">
    <path d="M 27.346875 108.72 
L 138.946875 108.72 
L 138.946875 0 
L 27.346875 0 
z
" style="fill:none;"/>
   </g>
   <g id="matplotlib.axis_1">
    <g id="xtick_1">
     <g id="line2d_1">
      <defs>
       <path d="M 0 0 
L 0 -3.5 
" id="m94cace9089" style="stroke:#000000;stroke-width:0.5;"/>
      </defs>
      <g>
       <use style="stroke:#000000;stroke-width:0.5;" x="55.893974" xlink:href="#m94cace9089" y="108.72"/>
      </g>
     </g>
     <g id="line2d_2">
      <defs>
       <path d="M 0 0 
L 0 3.5 
" id="m5e4b2b63fa" style="stroke:#000000;stroke-width:0.5;"/>
      </defs>
      <g>
       <use style="stroke:#000000;stroke-width:0.5;" x="55.893974" xlink:href="#m5e4b2b63fa" y="0"/>
      </g>
     </g>
     <g id="text_1">
      <text style="font-family:Arial;font-size:10px;font-stretch:normal;font-style:normal;font-weight:normal;text-anchor:middle;" transform="rotate(-0, 55.893974, 116.877813)" x="55.893974" y="116.877813">0</text>
     </g>
    </g>
    <g id="xtick_2">
     <g id="line2d_3">
      <g>
       <use style="stroke:#000000;stroke-width:0.5;" x="123.626692" xlink:href="#m94cace9089" y="108.72"/>
      </g>
     </g>
     <g id="line2d_4">
      <g>
       <use style="stroke:#000000;stroke-width:0.5;" x="123.626692" xlink:href="#m5e4b2b63fa" y="0"/>
      </g>
     </g>
     <g id="text_2">
      <text style="font-family:Arial;font-size:10px;font-stretch:normal;font-style:normal;font-weight:normal;text-anchor:middle;" transform="rotate(-0, 123.626692, 116.877813)" x="123.626692" y="116.877813">2</text>
     </g>
    </g>
    <g id="xtick_3">
     <g id="line2d_5">
      <defs>
       <path d="M 0 0 
L 0 -2 
" id="m92eedfc34b" style="stroke:#000000;stroke-width:0.5;"/>
      </defs>
      <g>
       <use style="stroke:#000000;stroke-width:0.5;" x="38.960794" xlink:href="#m92eedfc34b" y="108.72"/>
      </g>
     </g>
     <g id="line2d_6">
      <defs>
       <path d="M 0 0 
L 0 2 
" id="mf714591486" style="stroke:#000000;stroke-width:0.5;"/>
      </defs>
      <g>
       <use style="stroke:#000000;stroke-width:0.5;" x="38.960794" xlink:href="#mf714591486" y="0"/>
      </g>
     </g>
    </g>
    <g id="xtick_4">
     <g id="line2d_7">
      <g>
       <use style="stroke:#000000;stroke-width:0.5;" x="72.827153" xlink:href="#m92eedfc34b" y="108.72"/>
      </g>
     </g>
     <g id="line2d_8">
      <g>
       <use style="stroke:#000000;stroke-width:0.5;" x="72.827153" xlink:href="#mf714591486" y="0"/>
      </g>
     </g>
    </g>
    <g id="xtick_5">
     <g id="line2d_9">
      <g>
       <use style="stroke:#000000;stroke-width:0.5;" x="89.760333" xlink:href="#m92eedfc34b" y="108.72"/>
      </g>
     </g>
     <g id="line2d_10">
      <g>
       <use style="stroke:#000000;stroke-width:0.5;" x="89.760333" xlink:href="#mf714591486" y="0"/>
      </g>
     </g>
    </g>
    <g id="xtick_6">
     <g id="line2d_11">
      <g>
       <use style="stroke:#000000;stroke-width:0.5;" x="106.693513" xlink:href="#m92eedfc34b" y="108.72"/>
      </g>
     </g>
     <g id="line2d_12">
      <g>
       <use style="stroke:#000000;stroke-width:0.5;" x="106.693513" xlink:href="#mf714591486" y="0"/>
      </g>
     </g>
    </g>
    <g id="text_3">
     <text style="font-family:Arial;font-size:10px;font-stretch:normal;font-style:normal;font-weight:normal;text-anchor:middle;" transform="rotate(-0, 83.146875, 126.145)" x="83.146875" y="126.145">ln(V)</text>
    </g>
   </g>
   <g id="matplotlib.axis_2">
    <g id="ytick_1">
     <g id="line2d_13">
      <defs>
       <path d="M 0 0 
L 3.5 0 
" id="mabb39eccc7" style="stroke:#000000;stroke-width:0.5;"/>
      </defs>
      <g>
       <use style="stroke:#000000;stroke-width:0.5;" x="27.346875" xlink:href="#mabb39eccc7" y="75.492819"/>
      </g>
     </g>
     <g id="line2d_14">
      <defs>
       <path d="M 0 0 
L -3.5 0 
" id="mcb95acec58" style="stroke:#000000;stroke-width:0.5;"/>
      </defs>
      <g>
       <use style="stroke:#000000;stroke-width:0.5;" x="138.946875" xlink:href="#mcb95acec58" y="75.492819"/>
      </g>
     </g>
     <g id="text_4">
      <text style="font-family:Arial;font-size:10px;font-stretch:normal;font-style:normal;font-weight:normal;text-anchor:end;" transform="rotate(-0, 26.346875, 79.071726)" x="26.346875" y="79.071726">−18</text>
     </g>
    </g>
    <g id="ytick_2">
     <g id="line2d_15">
      <g>
       <use style="stroke:#000000;stroke-width:0.5;" x="27.346875" xlink:href="#mabb39eccc7" y="33.849428"/>
      </g>
     </g>
     <g id="line2d_16">
      <g>
       <use style="stroke:#000000;stroke-width:0.5;" x="138.946875" xlink:href="#mcb95acec58" y="33.849428"/>
      </g>
     </g>
     <g id="text_5">
      <text style="font-family:Arial;font-size:10px;font-stretch:normal;font-style:normal;font-weight:normal;text-anchor:end;" transform="rotate(-0, 26.346875, 37.428334)" x="26.346875" y="37.428334">−16</text>
     </g>
    </g>
    <g id="ytick_3">
     <g id="line2d_17">
      <defs>
       <path d="M 0 0 
L 2 0 
" id="m057afdb26c" style="stroke:#000000;stroke-width:0.5;"/>
      </defs>
      <g>
       <use style="stroke:#000000;stroke-width:0.5;" x="27.346875" xlink:href="#m057afdb26c" y="106.725363"/>
      </g>
     </g>
     <g id="line2d_18">
      <defs>
       <path d="M 0 0 
L -2 0 
" id="m69ee20f548" style="stroke:#000000;stroke-width:0.5;"/>
      </defs>
      <g>
       <use style="stroke:#000000;stroke-width:0.5;" x="138.946875" xlink:href="#m69ee20f548" y="106.725363"/>
      </g>
     </g>
    </g>
    <g id="ytick_4">
     <g id="line2d_19">
      <g>
       <use style="stroke:#000000;stroke-width:0.5;" x="27.346875" xlink:href="#m057afdb26c" y="96.314515"/>
      </g>
     </g>
     <g id="line2d_20">
      <g>
       <use style="stroke:#000000;stroke-width:0.5;" x="138.946875" xlink:href="#m69ee20f548" y="96.314515"/>
      </g>
     </g>
    </g>
    <g id="ytick_5">
     <g id="line2d_21">
      <g>
       <use style="stroke:#000000;stroke-width:0.5;" x="27.346875" xlink:href="#m057afdb26c" y="85.903667"/>
      </g>
     </g>
     <g id="line2d_22">
      <g>
       <use style="stroke:#000000;stroke-width:0.5;" x="138.946875" xlink:href="#m69ee20f548" y="85.903667"/>
      </g>
     </g>
    </g>
    <g id="ytick_6">
     <g id="line2d_23">
      <g>
       <use style="stroke:#000000;stroke-width:0.5;" x="27.346875" xlink:href="#m057afdb26c" y="65.081972"/>
      </g>
     </g>
     <g id="line2d_24">
      <g>
       <use style="stroke:#000000;stroke-width:0.5;" x="138.946875" xlink:href="#m69ee20f548" y="65.081972"/>
      </g>
     </g>
    </g>
    <g id="ytick_7">
     <g id="line2d_25">
      <g>
       <use style="stroke:#000000;stroke-width:0.5;" x="27.346875" xlink:href="#m057afdb26c" y="54.671124"/>
      </g>
     </g>
     <g id="line2d_26">
      <g>
       <use style="stroke:#000000;stroke-width:0.5;" x="138.946875" xlink:href="#m69ee20f548" y="54.671124"/>
      </g>
     </g>
    </g>
    <g id="ytick_8">
     <g id="line2d_27">
      <g>
       <use style="stroke:#000000;stroke-width:0.5;" x="27.346875" xlink:href="#m057afdb26c" y="44.260276"/>
      </g>
     </g>
     <g id="line2d_28">
      <g>
       <use style="stroke:#000000;stroke-width:0.5;" x="138.946875" xlink:href="#m69ee20f548" y="44.260276"/>
      </g>
     </g>
    </g>
    <g id="ytick_9">
     <g id="line2d_29">
      <g>
       <use style="stroke:#000000;stroke-width:0.5;" x="27.346875" xlink:href="#m057afdb26c" y="23.43858"/>
      </g>
     </g>
     <g id="line2d_30">
      <g>
       <use style="stroke:#000000;stroke-width:0.5;" x="138.946875" xlink:href="#m69ee20f548" y="23.43858"/>
      </g>
     </g>
    </g>
    <g id="ytick_10">
     <g id="line2d_31">
      <g>
       <use style="stroke:#000000;stroke-width:0.5;" x="27.346875" xlink:href="#m057afdb26c" y="13.027732"/>
      </g>
     </g>
     <g id="line2d_32">
      <g>
       <use style="stroke:#000000;stroke-width:0.5;" x="138.946875" xlink:href="#m69ee20f548" y="13.027732"/>
      </g>
     </g>
    </g>
    <g id="ytick_11">
     <g id="line2d_33">
      <g>
       <use style="stroke:#000000;stroke-width:0.5;" x="27.346875" xlink:href="#m057afdb26c" y="2.616884"/>
      </g>
     </g>
     <g id="line2d_34">
      <g>
       <use style="stroke:#000000;stroke-width:0.5;" x="138.946875" xlink:href="#m69ee20f548" y="2.616884"/>
      </g>
     </g>
    </g>
    <g id="text_6">
     <text style="font-family:Arial;font-size:10px;font-stretch:normal;font-style:normal;font-weight:normal;text-anchor:middle;" transform="rotate(-90, 7.279688, 54.36)" x="7.279688" y="54.36">ln(I)</text>
    </g>
   </g>
   <g id="line2d_35">
    <path clip-path="url(#p57e689866b)" d="M 32.419602 51.265733 
L 55.893974 37.729202 
L 69.625601 30.541589 
L 79.368345 26.342736 
L 86.925405 23.334342 
L 93.099972 21.574195 
L 98.320494 19.617612 
L 102.842717 17.776377 
L 106.831599 16.521122 
L 110.399776 14.804923 
L 113.627585 13.695562 
L 116.574344 12.36272 
L 119.285099 11.463926 
L 121.794866 10.385353 
L 124.131403 9.526514 
L 126.317088 8.709117 
L 128.370223 7.719524 
L 130.305971 6.952312 
L 132.137031 5.931814 
L 133.874148 5.400086 
" style="fill:none;stroke:#377eb8;stroke-linecap:square;stroke-width:1.5;"/>
    <defs>
     <path d="M 0 0.75 
C 0.198902 0.75 0.389685 0.670975 0.53033 0.53033 
C 0.670975 0.389685 0.75 0.198902 0.75 0 
C 0.75 -0.198902 0.670975 -0.389685 0.53033 -0.53033 
C 0.389685 -0.670975 0.198902 -0.75 0 -0.75 
C -0.198902 -0.75 -0.389685 -0.670975 -0.53033 -0.53033 
C -0.670975 -0.389685 -0.75 -0.198902 -0.75 0 
C -0.75 0.198902 -0.670975 0.389685 -0.53033 0.53033 
C -0.389685 0.670975 -0.198902 0.75 0 0.75 
z
" id="m3a4762429a" style="stroke:#377eb8;"/>
    </defs>
    <g clip-path="url(#p57e689866b)">
     <use style="fill:#377eb8;stroke:#377eb8;" x="32.419602" xlink:href="#m3a4762429a" y="51.265733"/>
     <use style="fill:#377eb8;stroke:#377eb8;" x="55.893974" xlink:href="#m3a4762429a" y="37.729202"/>
     <use style="fill:#377eb8;stroke:#377eb8;" x="69.625601" xlink:href="#m3a4762429a" y="30.541589"/>
     <use style="fill:#377eb8;stroke:#377eb8;" x="79.368345" xlink:href="#m3a4762429a" y="26.342736"/>
     <use style="fill:#377eb8;stroke:#377eb8;" x="86.925405" xlink:href="#m3a4762429a" y="23.334342"/>
     <use style="fill:#377eb8;stroke:#377eb8;" x="93.099972" xlink:href="#m3a4762429a" y="21.574195"/>
     <use style="fill:#377eb8;stroke:#377eb8;" x="98.320494" xlink:href="#m3a4762429a" y="19.617612"/>
     <use style="fill:#377eb8;stroke:#377eb8;" x="102.842717" xlink:href="#m3a4762429a" y="17.776377"/>
     <use style="fill:#377eb8;stroke:#377eb8;" x="106.831599" xlink:href="#m3a4762429a" y="16.521122"/>
     <use style="fill:#377eb8;stroke:#377eb8;" x="110.399776" xlink:href="#m3a4762429a" y="14.804923"/>
     <use style="fill:#377eb8;stroke:#377eb8;" x="113.627585" xlink:href="#m3a4762429a" y="13.695562"/>
     <use style="fill:#377eb8;stroke:#377eb8;" x="116.574344" xlink:href="#m3a4762429a" y="12.36272"/>
     <use style="fill:#377eb8;stroke:#377eb8;" x="119.285099" xlink:href="#m3a4762429a" y="11.463926"/>
     <use style="fill:#377eb8;stroke:#377eb8;" x="121.794866" xlink:href="#m3a4762429a" y="10.385353"/>
     <use style="fill:#377eb8;stroke:#377eb8;" x="124.131403" xlink:href="#m3a4762429a" y="9.526514"/>
     <use style="fill:#377eb8;stroke:#377eb8;" x="126.317088" xlink:href="#m3a4762429a" y="8.709117"/>
     <use style="fill:#377eb8;stroke:#377eb8;" x="128.370223" xlink:href="#m3a4762429a" y="7.719524"/>
     <use style="fill:#377eb8;stroke:#377eb8;" x="130.305971" xlink:href="#m3a4762429a" y="6.952312"/>
     <use style="fill:#377eb8;stroke:#377eb8;" x="132.137031" xlink:href="#m3a4762429a" y="5.931814"/>
     <use style="fill:#377eb8;stroke:#377eb8;" x="133.874148" xlink:href="#m3a4762429a" y="5.400086"/>
    </g>
   </g>
   <g id="line2d_36">
    <path clip-path="url(#p57e689866b)" d="M 133.874148 4.941818 
L 132.137031 5.679509 
L 130.305971 6.457094 
L 128.370223 7.279136 
L 126.317088 8.151028 
L 124.131403 9.079209 
L 121.794866 10.071452 
L 119.285099 11.13726 
L 116.574344 12.288419 
L 113.627585 13.539801 
L 110.399776 14.910535 
L 106.831599 16.425811 
L 102.842717 18.119745 
L 98.320494 20.040169 
L 93.099972 22.257136 
L 86.925405 24.879251 
L 79.368345 28.088461 
L 69.625601 32.225852 
L 55.893974 38.057178 
L 32.419602 48.025894 
" style="fill:none;stroke:#000000;stroke-linecap:square;"/>
   </g>
   <g id="line2d_37">
    <path clip-path="url(#p57e689866b)" d="M 32.419602 78.494475 
L 55.893974 63.484832 
L 69.625601 56.909628 
L 79.368345 51.66318 
L 86.925405 48.784113 
L 93.099972 47.13753 
L 98.320494 45.080545 
L 102.842717 43.704833 
L 106.831599 42.420853 
L 110.399776 40.672928 
L 113.627585 39.131732 
L 116.574344 38.55468 
L 119.285099 36.010516 
L 121.794866 34.576873 
L 124.131403 33.18123 
L 126.317088 32.616443 
L 128.370223 30.816403 
L 130.305971 30.165798 
L 132.137031 29.435012 
L 133.874148 28.554723 
" style="fill:none;stroke:#999999;stroke-linecap:square;stroke-width:1.5;"/>
    <defs>
     <path d="M 0 0.75 
C 0.198902 0.75 0.389685 0.670975 0.53033 0.53033 
C 0.670975 0.389685 0.75 0.198902 0.75 0 
C 0.75 -0.198902 0.670975 -0.389685 0.53033 -0.53033 
C 0.389685 -0.670975 0.198902 -0.75 0 -0.75 
C -0.198902 -0.75 -0.389685 -0.670975 -0.53033 -0.53033 
C -0.670975 -0.389685 -0.75 -0.198902 -0.75 0 
C -0.75 0.198902 -0.670975 0.389685 -0.53033 0.53033 
C -0.389685 0.670975 -0.198902 0.75 0 0.75 
z
" id="m848b3e64c2" style="stroke:#999999;"/>
    </defs>
    <g clip-path="url(#p57e689866b)">
     <use style="fill:#999999;stroke:#999999;" x="32.419602" xlink:href="#m848b3e64c2" y="78.494475"/>
     <use style="fill:#999999;stroke:#999999;" x="55.893974" xlink:href="#m848b3e64c2" y="63.484832"/>
     <use style="fill:#999999;stroke:#999999;" x="69.625601" xlink:href="#m848b3e64c2" y="56.909628"/>
     <use style="fill:#999999;stroke:#999999;" x="79.368345" xlink:href="#m848b3e64c2" y="51.66318"/>
     <use style="fill:#999999;stroke:#999999;" x="86.925405" xlink:href="#m848b3e64c2" y="48.784113"/>
     <use style="fill:#999999;stroke:#999999;" x="93.099972" xlink:href="#m848b3e64c2" y="47.13753"/>
     <use style="fill:#999999;stroke:#999999;" x="98.320494" xlink:href="#m848b3e64c2" y="45.080545"/>
     <use style="fill:#999999;stroke:#999999;" x="102.842717" xlink:href="#m848b3e64c2" y="43.704833"/>
     <use style="fill:#999999;stroke:#999999;" x="106.831599" xlink:href="#m848b3e64c2" y="42.420853"/>
     <use style="fill:#999999;stroke:#999999;" x="110.399776" xlink:href="#m848b3e64c2" y="40.672928"/>
     <use style="fill:#999999;stroke:#999999;" x="113.627585" xlink:href="#m848b3e64c2" y="39.131732"/>
     <use style="fill:#999999;stroke:#999999;" x="116.574344" xlink:href="#m848b3e64c2" y="38.55468"/>
     <use style="fill:#999999;stroke:#999999;" x="119.285099" xlink:href="#m848b3e64c2" y="36.010516"/>
     <use style="fill:#999999;stroke:#999999;" x="121.794866" xlink:href="#m848b3e64c2" y="34.576873"/>
     <use style="fill:#999999;stroke:#999999;" x="124.131403" xlink:href="#m848b3e64c2" y="33.18123"/>
     <use style="fill:#999999;stroke:#999999;" x="126.317088" xlink:href="#m848b3e64c2" y="32.616443"/>
     <use style="fill:#999999;stroke:#999999;" x="128.370223" xlink:href="#m848b3e64c2" y="30.816403"/>
     <use style="fill:#999999;stroke:#999999;" x="130.305971" xlink:href="#m848b3e64c2" y="30.165798"/>
     <use style="fill:#999999;stroke:#999999;" x="132.137031" xlink:href="#m848b3e64c2" y="29.435012"/>
     <use style="fill:#999999;stroke:#999999;" x="133.874148" xlink:href="#m848b3e64c2" y="28.554723"/>
    </g>
   </g>
   <g id="line2d_38">
    <path clip-path="url(#p57e689866b)" d="M 110.399776 40.976119 
L 106.831599 42.201606 
L 102.842717 43.571585 
L 98.320494 45.124738 
L 93.099972 46.917723 
L 86.925405 49.038373 
L 79.368345 51.633839 
" style="fill:none;stroke:#000000;stroke-linecap:square;"/>
   </g>
   <g id="line2d_39">
    <path clip-path="url(#p57e689866b)" d="M 32.419602 86.800297 
L 55.893974 74.263189 
L 69.625601 67.00057 
L 79.368345 62.93554 
L 86.925405 59.713004 
L 93.099972 58.066162 
L 98.320494 56.94238 
L 102.842717 55.153786 
L 106.831599 54.376597 
L 110.399776 52.759278 
L 113.627585 51.350425 
L 116.574344 48.990664 
L 119.285099 48.518849 
L 121.794866 47.609927 
L 124.131403 46.225164 
L 126.317088 45.307252 
L 128.370223 43.81372 
L 130.305971 43.101934 
L 132.137031 42.396125 
L 133.874148 41.64948 
" style="fill:none;stroke:#4daf4a;stroke-linecap:square;stroke-width:1.5;"/>
    <defs>
     <path d="M 0 0.75 
C 0.198902 0.75 0.389685 0.670975 0.53033 0.53033 
C 0.670975 0.389685 0.75 0.198902 0.75 0 
C 0.75 -0.198902 0.670975 -0.389685 0.53033 -0.53033 
C 0.389685 -0.670975 0.198902 -0.75 0 -0.75 
C -0.198902 -0.75 -0.389685 -0.670975 -0.53033 -0.53033 
C -0.670975 -0.389685 -0.75 -0.198902 -0.75 0 
C -0.75 0.198902 -0.670975 0.389685 -0.53033 0.53033 
C -0.389685 0.670975 -0.198902 0.75 0 0.75 
z
" id="m13659a0d9b" style="stroke:#4daf4a;"/>
    </defs>
    <g clip-path="url(#p57e689866b)">
     <use style="fill:#4daf4a;stroke:#4daf4a;" x="32.419602" xlink:href="#m13659a0d9b" y="86.800297"/>
     <use style="fill:#4daf4a;stroke:#4daf4a;" x="55.893974" xlink:href="#m13659a0d9b" y="74.263189"/>
     <use style="fill:#4daf4a;stroke:#4daf4a;" x="69.625601" xlink:href="#m13659a0d9b" y="67.00057"/>
     <use style="fill:#4daf4a;stroke:#4daf4a;" x="79.368345" xlink:href="#m13659a0d9b" y="62.93554"/>
     <use style="fill:#4daf4a;stroke:#4daf4a;" x="86.925405" xlink:href="#m13659a0d9b" y="59.713004"/>
     <use style="fill:#4daf4a;stroke:#4daf4a;" x="93.099972" xlink:href="#m13659a0d9b" y="58.066162"/>
     <use style="fill:#4daf4a;stroke:#4daf4a;" x="98.320494" xlink:href="#m13659a0d9b" y="56.94238"/>
     <use style="fill:#4daf4a;stroke:#4daf4a;" x="102.842717" xlink:href="#m13659a0d9b" y="55.153786"/>
     <use style="fill:#4daf4a;stroke:#4daf4a;" x="106.831599" xlink:href="#m13659a0d9b" y="54.376597"/>
     <use style="fill:#4daf4a;stroke:#4daf4a;" x="110.399776" xlink:href="#m13659a0d9b" y="52.759278"/>
     <use style="fill:#4daf4a;stroke:#4daf4a;" x="113.627585" xlink:href="#m13659a0d9b" y="51.350425"/>
     <use style="fill:#4daf4a;stroke:#4daf4a;" x="116.574344" xlink:href="#m13659a0d9b" y="48.990664"/>
     <use style="fill:#4daf4a;stroke:#4daf4a;" x="119.285099" xlink:href="#m13659a0d9b" y="48.518849"/>
     <use style="fill:#4daf4a;stroke:#4daf4a;" x="121.794866" xlink:href="#m13659a0d9b" y="47.609927"/>
     <use style="fill:#4daf4a;stroke:#4daf4a;" x="124.131403" xlink:href="#m13659a0d9b" y="46.225164"/>
     <use style="fill:#4daf4a;stroke:#4daf4a;" x="126.317088" xlink:href="#m13659a0d9b" y="45.307252"/>
     <use style="fill:#4daf4a;stroke:#4daf4a;" x="128.370223" xlink:href="#m13659a0d9b" y="43.81372"/>
     <use style="fill:#4daf4a;stroke:#4daf4a;" x="130.305971" xlink:href="#m13659a0d9b" y="43.101934"/>
     <use style="fill:#4daf4a;stroke:#4daf4a;" x="132.137031" xlink:href="#m13659a0d9b" y="42.396125"/>
     <use style="fill:#4daf4a;stroke:#4daf4a;" x="133.874148" xlink:href="#m13659a0d9b" y="41.64948"/>
    </g>
   </g>
   <g id="line2d_40">
    <path clip-path="url(#p57e689866b)" d="M 106.831599 54.325783 
L 102.842717 55.417116 
L 98.320494 56.654368 
L 93.099972 58.08267 
L 86.925405 59.771992 
" style="fill:none;stroke:#000000;stroke-linecap:square;"/>
   </g>
   <g id="line2d_41">
    <path clip-path="url(#p57e689866b)" d="M 130.305971 43.071239 
L 128.370223 44.059542 
L 126.317088 45.107778 
L 124.131403 46.223687 
L 121.794866 47.416615 
L 119.285099 48.697986 
" style="fill:none;stroke:#000000;stroke-linecap:square;"/>
   </g>
   <g id="line2d_42">
    <path clip-path="url(#p57e689866b)" d="M 32.419602 95.41841 
L 55.893974 81.019341 
L 69.625601 73.727628 
L 79.368345 69.631407 
L 86.925405 66.477501 
L 93.099972 64.160466 
L 98.320494 63.074183 
L 102.842717 61.692332 
L 106.831599 60.156506 
L 110.399776 59.408672 
L 113.627585 58.092933 
L 116.574344 56.299492 
L 119.285099 55.592913 
L 121.794866 54.971504 
L 124.131403 54.039559 
L 126.317088 53.446745 
L 128.370223 51.858753 
L 130.305971 51.41328 
L 132.137031 49.013644 
L 133.874148 48.901155 
" style="fill:none;stroke:#a65628;stroke-linecap:square;stroke-width:1.5;"/>
    <defs>
     <path d="M 0 0.75 
C 0.198902 0.75 0.389685 0.670975 0.53033 0.53033 
C 0.670975 0.389685 0.75 0.198902 0.75 0 
C 0.75 -0.198902 0.670975 -0.389685 0.53033 -0.53033 
C 0.389685 -0.670975 0.198902 -0.75 0 -0.75 
C -0.198902 -0.75 -0.389685 -0.670975 -0.53033 -0.53033 
C -0.670975 -0.389685 -0.75 -0.198902 -0.75 0 
C -0.75 0.198902 -0.670975 0.389685 -0.53033 0.53033 
C -0.389685 0.670975 -0.198902 0.75 0 0.75 
z
" id="m277dd77f54" style="stroke:#a65628;"/>
    </defs>
    <g clip-path="url(#p57e689866b)">
     <use style="fill:#a65628;stroke:#a65628;" x="32.419602" xlink:href="#m277dd77f54" y="95.41841"/>
     <use style="fill:#a65628;stroke:#a65628;" x="55.893974" xlink:href="#m277dd77f54" y="81.019341"/>
     <use style="fill:#a65628;stroke:#a65628;" x="69.625601" xlink:href="#m277dd77f54" y="73.727628"/>
     <use style="fill:#a65628;stroke:#a65628;" x="79.368345" xlink:href="#m277dd77f54" y="69.631407"/>
     <use style="fill:#a65628;stroke:#a65628;" x="86.925405" xlink:href="#m277dd77f54" y="66.477501"/>
     <use style="fill:#a65628;stroke:#a65628;" x="93.099972" xlink:href="#m277dd77f54" y="64.160466"/>
     <use style="fill:#a65628;stroke:#a65628;" x="98.320494" xlink:href="#m277dd77f54" y="63.074183"/>
     <use style="fill:#a65628;stroke:#a65628;" x="102.842717" xlink:href="#m277dd77f54" y="61.692332"/>
     <use style="fill:#a65628;stroke:#a65628;" x="106.831599" xlink:href="#m277dd77f54" y="60.156506"/>
     <use style="fill:#a65628;stroke:#a65628;" x="110.399776" xlink:href="#m277dd77f54" y="59.408672"/>
     <use style="fill:#a65628;stroke:#a65628;" x="113.627585" xlink:href="#m277dd77f54" y="58.092933"/>
     <use style="fill:#a65628;stroke:#a65628;" x="116.574344" xlink:href="#m277dd77f54" y="56.299492"/>
     <use style="fill:#a65628;stroke:#a65628;" x="119.285099" xlink:href="#m277dd77f54" y="55.592913"/>
     <use style="fill:#a65628;stroke:#a65628;" x="121.794866" xlink:href="#m277dd77f54" y="54.971504"/>
     <use style="fill:#a65628;stroke:#a65628;" x="124.131403" xlink:href="#m277dd77f54" y="54.039559"/>
     <use style="fill:#a65628;stroke:#a65628;" x="126.317088" xlink:href="#m277dd77f54" y="53.446745"/>
     <use style="fill:#a65628;stroke:#a65628;" x="128.370223" xlink:href="#m277dd77f54" y="51.858753"/>
     <use style="fill:#a65628;stroke:#a65628;" x="130.305971" xlink:href="#m277dd77f54" y="51.41328"/>
     <use style="fill:#a65628;stroke:#a65628;" x="132.137031" xlink:href="#m277dd77f54" y="49.013644"/>
     <use style="fill:#a65628;stroke:#a65628;" x="133.874148" xlink:href="#m277dd77f54" y="48.901155"/>
    </g>
   </g>
   <g id="line2d_43">
    <path clip-path="url(#p57e689866b)" d="M 113.627585 57.859919 
L 110.399776 58.972075 
L 106.831599 60.201507 
L 102.842717 61.575895 
L 98.320494 63.134047 
L 93.099972 64.932802 
L 86.925405 67.060278 
L 79.368345 69.664098 
L 69.625601 73.021006 
" style="fill:none;stroke:#000000;stroke-linecap:square;"/>
   </g>
   <g id="line2d_44">
    <path clip-path="url(#p57e689866b)" d="M 126.317088 53.472138 
L 124.131403 54.122699 
L 121.794866 54.818161 
L 119.285099 55.565184 
L 116.574344 56.37203 
" style="fill:none;stroke:#000000;stroke-linecap:square;"/>
   </g>
   <g id="line2d_45">
    <path clip-path="url(#p57e689866b)" d="M 32.419602 99.517825 
L 55.893974 84.346713 
L 69.625601 77.289132 
L 79.368345 72.760633 
L 86.925405 69.701067 
L 93.099972 68.059372 
L 98.320494 66.930586 
L 102.842717 65.65138 
L 106.831599 64.567324 
L 110.399776 63.110605 
L 113.627585 62.595076 
L 116.574344 61.381305 
L 119.285099 61.284353 
L 121.794866 59.186194 
L 124.131403 58.633264 
L 126.317088 57.532115 
L 128.370223 56.495671 
L 130.305971 55.051276 
L 132.137031 53.890458 
L 133.874148 52.841952 
" style="fill:none;stroke:#984ea3;stroke-linecap:square;stroke-width:1.5;"/>
    <defs>
     <path d="M 0 0.75 
C 0.198902 0.75 0.389685 0.670975 0.53033 0.53033 
C 0.670975 0.389685 0.75 0.198902 0.75 0 
C 0.75 -0.198902 0.670975 -0.389685 0.53033 -0.53033 
C 0.389685 -0.670975 0.198902 -0.75 0 -0.75 
C -0.198902 -0.75 -0.389685 -0.670975 -0.53033 -0.53033 
C -0.670975 -0.389685 -0.75 -0.198902 -0.75 0 
C -0.75 0.198902 -0.670975 0.389685 -0.53033 0.53033 
C -0.389685 0.670975 -0.198902 0.75 0 0.75 
z
" id="mf21047df92" style="stroke:#984ea3;"/>
    </defs>
    <g clip-path="url(#p57e689866b)">
     <use style="fill:#984ea3;stroke:#984ea3;" x="32.419602" xlink:href="#mf21047df92" y="99.517825"/>
     <use style="fill:#984ea3;stroke:#984ea3;" x="55.893974" xlink:href="#mf21047df92" y="84.346713"/>
     <use style="fill:#984ea3;stroke:#984ea3;" x="69.625601" xlink:href="#mf21047df92" y="77.289132"/>
     <use style="fill:#984ea3;stroke:#984ea3;" x="79.368345" xlink:href="#mf21047df92" y="72.760633"/>
     <use style="fill:#984ea3;stroke:#984ea3;" x="86.925405" xlink:href="#mf21047df92" y="69.701067"/>
     <use style="fill:#984ea3;stroke:#984ea3;" x="93.099972" xlink:href="#mf21047df92" y="68.059372"/>
     <use style="fill:#984ea3;stroke:#984ea3;" x="98.320494" xlink:href="#mf21047df92" y="66.930586"/>
     <use style="fill:#984ea3;stroke:#984ea3;" x="102.842717" xlink:href="#mf21047df92" y="65.65138"/>
     <use style="fill:#984ea3;stroke:#984ea3;" x="106.831599" xlink:href="#mf21047df92" y="64.567324"/>
     <use style="fill:#984ea3;stroke:#984ea3;" x="110.399776" xlink:href="#mf21047df92" y="63.110605"/>
     <use style="fill:#984ea3;stroke:#984ea3;" x="113.627585" xlink:href="#mf21047df92" y="62.595076"/>
     <use style="fill:#984ea3;stroke:#984ea3;" x="116.574344" xlink:href="#mf21047df92" y="61.381305"/>
     <use style="fill:#984ea3;stroke:#984ea3;" x="119.285099" xlink:href="#mf21047df92" y="61.284353"/>
     <use style="fill:#984ea3;stroke:#984ea3;" x="121.794866" xlink:href="#mf21047df92" y="59.186194"/>
     <use style="fill:#984ea3;stroke:#984ea3;" x="124.131403" xlink:href="#mf21047df92" y="58.633264"/>
     <use style="fill:#984ea3;stroke:#984ea3;" x="126.317088" xlink:href="#mf21047df92" y="57.532115"/>
     <use style="fill:#984ea3;stroke:#984ea3;" x="128.370223" xlink:href="#mf21047df92" y="56.495671"/>
     <use style="fill:#984ea3;stroke:#984ea3;" x="130.305971" xlink:href="#mf21047df92" y="55.051276"/>
     <use style="fill:#984ea3;stroke:#984ea3;" x="132.137031" xlink:href="#mf21047df92" y="53.890458"/>
     <use style="fill:#984ea3;stroke:#984ea3;" x="133.874148" xlink:href="#mf21047df92" y="52.841952"/>
    </g>
   </g>
   <g id="line2d_46">
    <path clip-path="url(#p57e689866b)" d="M 113.627585 62.423207 
L 110.399776 63.356115 
L 106.831599 64.387397 
L 102.842717 65.540273 
L 98.320494 66.847295 
L 93.099972 68.356142 
L 86.925405 70.140728 
L 79.368345 72.324886 
" style="fill:none;stroke:#000000;stroke-linecap:square;"/>
   </g>
   <g id="line2d_47">
    <path clip-path="url(#p57e689866b)" d="M 133.874148 52.904055 
L 132.137031 53.955904 
L 130.305971 55.064636 
L 128.370223 56.236758 
L 126.317088 57.47996 
L 124.131403 58.803423 
" style="fill:none;stroke:#000000;stroke-linecap:square;"/>
   </g>
   <g id="line2d_48">
    <path clip-path="url(#p57e689866b)" d="M 32.419602 101.481766 
L 55.893974 87.000937 
L 69.625601 80.615293 
L 79.368345 75.495275 
L 86.925405 72.471998 
L 93.099972 70.68948 
L 98.320494 69.143528 
L 102.842717 67.75216 
L 106.831599 66.854896 
L 110.399776 64.990687 
L 113.627585 64.674503 
L 116.574344 63.410739 
L 119.285099 62.453091 
L 121.794866 60.815524 
L 124.131403 60.066136 
L 126.317088 58.629112 
L 128.370223 57.607873 
L 130.305971 56.377604 
L 132.137031 55.486287 
L 133.874148 54.71034 
" style="fill:none;stroke:#ff7f00;stroke-linecap:square;stroke-width:1.5;"/>
    <defs>
     <path d="M 0 0.75 
C 0.198902 0.75 0.389685 0.670975 0.53033 0.53033 
C 0.670975 0.389685 0.75 0.198902 0.75 0 
C 0.75 -0.198902 0.670975 -0.389685 0.53033 -0.53033 
C 0.389685 -0.670975 0.198902 -0.75 0 -0.75 
C -0.198902 -0.75 -0.389685 -0.670975 -0.53033 -0.53033 
C -0.670975 -0.389685 -0.75 -0.198902 -0.75 0 
C -0.75 0.198902 -0.670975 0.389685 -0.53033 0.53033 
C -0.389685 0.670975 -0.198902 0.75 0 0.75 
z
" id="meebf64bf27" style="stroke:#ff7f00;"/>
    </defs>
    <g clip-path="url(#p57e689866b)">
     <use style="fill:#ff7f00;stroke:#ff7f00;" x="32.419602" xlink:href="#meebf64bf27" y="101.481766"/>
     <use style="fill:#ff7f00;stroke:#ff7f00;" x="55.893974" xlink:href="#meebf64bf27" y="87.000937"/>
     <use style="fill:#ff7f00;stroke:#ff7f00;" x="69.625601" xlink:href="#meebf64bf27" y="80.615293"/>
     <use style="fill:#ff7f00;stroke:#ff7f00;" x="79.368345" xlink:href="#meebf64bf27" y="75.495275"/>
     <use style="fill:#ff7f00;stroke:#ff7f00;" x="86.925405" xlink:href="#meebf64bf27" y="72.471998"/>
     <use style="fill:#ff7f00;stroke:#ff7f00;" x="93.099972" xlink:href="#meebf64bf27" y="70.68948"/>
     <use style="fill:#ff7f00;stroke:#ff7f00;" x="98.320494" xlink:href="#meebf64bf27" y="69.143528"/>
     <use style="fill:#ff7f00;stroke:#ff7f00;" x="102.842717" xlink:href="#meebf64bf27" y="67.75216"/>
     <use style="fill:#ff7f00;stroke:#ff7f00;" x="106.831599" xlink:href="#meebf64bf27" y="66.854896"/>
     <use style="fill:#ff7f00;stroke:#ff7f00;" x="110.399776" xlink:href="#meebf64bf27" y="64.990687"/>
     <use style="fill:#ff7f00;stroke:#ff7f00;" x="113.627585" xlink:href="#meebf64bf27" y="64.674503"/>
     <use style="fill:#ff7f00;stroke:#ff7f00;" x="116.574344" xlink:href="#meebf64bf27" y="63.410739"/>
     <use style="fill:#ff7f00;stroke:#ff7f00;" x="119.285099" xlink:href="#meebf64bf27" y="62.453091"/>
     <use style="fill:#ff7f00;stroke:#ff7f00;" x="121.794866" xlink:href="#meebf64bf27" y="60.815524"/>
     <use style="fill:#ff7f00;stroke:#ff7f00;" x="124.131403" xlink:href="#meebf64bf27" y="60.066136"/>
     <use style="fill:#ff7f00;stroke:#ff7f00;" x="126.317088" xlink:href="#meebf64bf27" y="58.629112"/>
     <use style="fill:#ff7f00;stroke:#ff7f00;" x="128.370223" xlink:href="#meebf64bf27" y="57.607873"/>
     <use style="fill:#ff7f00;stroke:#ff7f00;" x="130.305971" xlink:href="#meebf64bf27" y="56.377604"/>
     <use style="fill:#ff7f00;stroke:#ff7f00;" x="132.137031" xlink:href="#meebf64bf27" y="55.486287"/>
     <use style="fill:#ff7f00;stroke:#ff7f00;" x="133.874148" xlink:href="#meebf64bf27" y="54.71034"/>
    </g>
   </g>
   <g id="line2d_49">
    <path clip-path="url(#p57e689866b)" d="M 106.831599 66.570448 
L 102.842717 67.816124 
L 98.320494 69.228354 
L 93.099972 70.858655 
L 86.925405 72.786892 
L 79.368345 75.146863 
" style="fill:none;stroke:#000000;stroke-linecap:square;"/>
   </g>
   <g id="line2d_50">
    <path clip-path="url(#p57e689866b)" d="M 133.874148 54.760784 
L 132.137031 55.638026 
L 130.305971 56.562709 
L 128.370223 57.540259 
L 126.317088 58.57709 
L 124.131403 59.680858 
L 121.794866 60.860807 
L 119.285099 62.128236 
L 116.574344 63.497164 
L 113.627585 64.985274 
" style="fill:none;stroke:#000000;stroke-linecap:square;"/>
   </g>
   <g id="line2d_51">
    <path clip-path="url(#p57e689866b)" d="M 32.419602 103.778182 
L 55.893974 88.843924 
L 69.625601 82.039403 
L 79.368345 77.272245 
L 86.925405 73.766341 
L 93.099972 71.010831 
L 98.320494 70.05653 
L 102.842717 68.71824 
L 106.831599 67.898087 
L 110.399776 66.848974 
L 113.627585 65.947269 
L 116.574344 64.608809 
L 119.285099 63.47834 
L 121.794866 62.029284 
L 124.131403 61.420451 
L 126.317088 59.508504 
L 128.370223 58.002056 
L 130.305971 57.095602 
L 132.137031 56.036075 
L 133.874148 54.909693 
" style="fill:none;stroke:#e41a1c;stroke-linecap:square;stroke-width:1.5;"/>
    <defs>
     <path d="M 0 0.75 
C 0.198902 0.75 0.389685 0.670975 0.53033 0.53033 
C 0.670975 0.389685 0.75 0.198902 0.75 0 
C 0.75 -0.198902 0.670975 -0.389685 0.53033 -0.53033 
C 0.389685 -0.670975 0.198902 -0.75 0 -0.75 
C -0.198902 -0.75 -0.389685 -0.670975 -0.53033 -0.53033 
C -0.670975 -0.389685 -0.75 -0.198902 -0.75 0 
C -0.75 0.198902 -0.670975 0.389685 -0.53033 0.53033 
C -0.389685 0.670975 -0.198902 0.75 0 0.75 
z
" id="m9ca9d341a0" style="stroke:#e41a1c;"/>
    </defs>
    <g clip-path="url(#p57e689866b)">
     <use style="fill:#e41a1c;stroke:#e41a1c;" x="32.419602" xlink:href="#m9ca9d341a0" y="103.778182"/>
     <use style="fill:#e41a1c;stroke:#e41a1c;" x="55.893974" xlink:href="#m9ca9d341a0" y="88.843924"/>
     <use style="fill:#e41a1c;stroke:#e41a1c;" x="69.625601" xlink:href="#m9ca9d341a0" y="82.039403"/>
     <use style="fill:#e41a1c;stroke:#e41a1c;" x="79.368345" xlink:href="#m9ca9d341a0" y="77.272245"/>
     <use style="fill:#e41a1c;stroke:#e41a1c;" x="86.925405" xlink:href="#m9ca9d341a0" y="73.766341"/>
     <use style="fill:#e41a1c;stroke:#e41a1c;" x="93.099972" xlink:href="#m9ca9d341a0" y="71.010831"/>
     <use style="fill:#e41a1c;stroke:#e41a1c;" x="98.320494" xlink:href="#m9ca9d341a0" y="70.05653"/>
     <use style="fill:#e41a1c;stroke:#e41a1c;" x="102.842717" xlink:href="#m9ca9d341a0" y="68.71824"/>
     <use style="fill:#e41a1c;stroke:#e41a1c;" x="106.831599" xlink:href="#m9ca9d341a0" y="67.898087"/>
     <use style="fill:#e41a1c;stroke:#e41a1c;" x="110.399776" xlink:href="#m9ca9d341a0" y="66.848974"/>
     <use style="fill:#e41a1c;stroke:#e41a1c;" x="113.627585" xlink:href="#m9ca9d341a0" y="65.947269"/>
     <use style="fill:#e41a1c;stroke:#e41a1c;" x="116.574344" xlink:href="#m9ca9d341a0" y="64.608809"/>
     <use style="fill:#e41a1c;stroke:#e41a1c;" x="119.285099" xlink:href="#m9ca9d341a0" y="63.47834"/>
     <use style="fill:#e41a1c;stroke:#e41a1c;" x="121.794866" xlink:href="#m9ca9d341a0" y="62.029284"/>
     <use style="fill:#e41a1c;stroke:#e41a1c;" x="124.131403" xlink:href="#m9ca9d341a0" y="61.420451"/>
     <use style="fill:#e41a1c;stroke:#e41a1c;" x="126.317088" xlink:href="#m9ca9d341a0" y="59.508504"/>
     <use style="fill:#e41a1c;stroke:#e41a1c;" x="128.370223" xlink:href="#m9ca9d341a0" y="58.002056"/>
     <use style="fill:#e41a1c;stroke:#e41a1c;" x="130.305971" xlink:href="#m9ca9d341a0" y="57.095602"/>
     <use style="fill:#e41a1c;stroke:#e41a1c;" x="132.137031" xlink:href="#m9ca9d341a0" y="56.036075"/>
     <use style="fill:#e41a1c;stroke:#e41a1c;" x="133.874148" xlink:href="#m9ca9d341a0" y="54.909693"/>
    </g>
   </g>
   <g id="line2d_52">
    <path clip-path="url(#p57e689866b)" d="M 93.099972 70.15867 
L 86.925405 73.469979 
L 79.368345 77.522693 
L 69.625601 82.747552 
L 55.893974 90.111575 
L 32.419602 102.700457 
" style="fill:none;stroke:#000000;stroke-linecap:square;"/>
   </g>
   <g id="line2d_53">
    <path clip-path="url(#p57e689866b)" d="M 124.131403 61.350011 
L 121.794866 62.323168 
L 119.285099 63.368476 
L 116.574344 64.497493 
L 113.627585 65.724805 
L 110.399776 67.069174 
" style="fill:none;stroke:#000000;stroke-linecap:square;"/>
   </g>
   <g id="line2d_54">
    <path clip-path="url(#p57e689866b)" d="M 133.874148 54.937435 
L 132.137031 55.965044 
L 130.305971 57.048226 
L 128.370223 58.193336 
L 126.317088 59.407889 
" style="fill:none;stroke:#000000;stroke-linecap:square;"/>
   </g>
   <g id="patch_3">
    <path d="M 27.346875 108.72 
L 27.346875 0 
" style="fill:none;stroke:#000000;stroke-linecap:square;stroke-linejoin:miter;stroke-width:0.5;"/>
   </g>
   <g id="patch_4">
    <path d="M 138.946875 108.72 
L 138.946875 0 
" style="fill:none;stroke:#000000;stroke-linecap:square;stroke-linejoin:miter;stroke-width:0.5;"/>
   </g>
   <g id="patch_5">
    <path d="M 27.346875 108.72 
L 138.946875 108.72 
" style="fill:none;stroke:#000000;stroke-linecap:square;stroke-linejoin:miter;stroke-width:0.5;"/>
   </g>
   <g id="patch_6">
    <path d="M 27.346875 0 
L 138.946875 0 
" style="fill:none;stroke:#000000;stroke-linecap:square;stroke-linejoin:miter;stroke-width:0.5;"/>
   </g>
  </g>
 </g>
 <defs>
  <clipPath id="p57e689866b">
   <rect height="108.72" width="111.6" x="27.346875" y="0"/>
  </clipPath>
 </defs>
</svg>
