<?xml version="1.0" encoding="utf-8" standalone="no"?>
<!DOCTYPE svg PUBLIC "-//W3C//DTD SVG 1.1//EN"
  "http://www.w3.org/Graphics/SVG/1.1/DTD/svg11.dtd">
<svg height="131.318764pt" version="1.1" viewBox="0 0 138.946875 131.318764" width="138.946875pt" xmlns="http://www.w3.org/2000/svg" xmlns:xlink="http://www.w3.org/1999/xlink">
 <metadata>
  <rdf:RDF xmlns:cc="http://creativecommons.org/ns#" xmlns:dc="http://purl.org/dc/elements/1.1/" xmlns:rdf="http://www.w3.org/1999/02/22-rdf-syntax-ns#">
   <cc:Work>
    <dc:type rdf:resource="http://purl.org/dc/dcmitype/StillImage"/>
    <dc:date>2021-09-09T11:31:18.356122</dc:date>
    <dc:format>image/svg+xml</dc:format>
    <dc:creator>
     <cc:Agent>
      <dc:title>Matplotlib v3.4.3, https://matplotlib.org/</dc:title>
     </cc:Agent>
    </dc:creator>
   </cc:Work>
  </rdf:RDF>
 </metadata>
 <defs>
  <style type="text/css">*{stroke-linecap:butt;stroke-linejoin:round;}</style>
 </defs>
 <g id="figure_1">
  <g id="patch_1">
   <path d="M 0 131.318764 
L 138.946875 131.318764 
L 138.946875 0 
L 0 0 
z
" style="fill:none;"/>
  </g>
  <g id="axes_1">
   <g id="patch_2">
    <path d="M 27.346875 111.789076 
L 138.946875 111.789076 
L 138.946875 3.069076 
L 27.346875 3.069076 
z
" style="fill:none;"/>
   </g>
   <g id="matplotlib.axis_1">
    <g id="xtick_1">
     <g id="line2d_1">
      <defs>
       <path d="M 0 0 
L 0 -3.5 
" id="m79d63dc66a" style="stroke:#000000;stroke-width:0.5;"/>
      </defs>
      <g>
       <use style="stroke:#000000;stroke-width:0.5;" x="44.522771" xlink:href="#m79d63dc66a" y="111.789076"/>
      </g>
     </g>
     <g id="line2d_2">
      <defs>
       <path d="M 0 0 
L 0 3.5 
" id="me1df83ce77" style="stroke:#000000;stroke-width:0.5;"/>
      </defs>
      <g>
       <use style="stroke:#000000;stroke-width:0.5;" x="44.522771" xlink:href="#me1df83ce77" y="3.069076"/>
      </g>
     </g>
     <g id="text_1">
      <text style="font-family:Arial;font-size:10px;font-stretch:normal;font-style:normal;font-weight:normal;text-anchor:middle;" transform="rotate(-0, 44.522771, 119.946889)" x="44.522771" y="119.946889">1</text>
     </g>
    </g>
    <g id="xtick_2">
     <g id="line2d_3">
      <g>
       <use style="stroke:#000000;stroke-width:0.5;" x="85.845576" xlink:href="#m79d63dc66a" y="111.789076"/>
      </g>
     </g>
     <g id="line2d_4">
      <g>
       <use style="stroke:#000000;stroke-width:0.5;" x="85.845576" xlink:href="#me1df83ce77" y="3.069076"/>
      </g>
     </g>
     <g id="text_2">
      <text style="font-family:Arial;font-size:10px;font-stretch:normal;font-style:normal;font-weight:normal;text-anchor:middle;" transform="rotate(-0, 85.845576, 119.946889)" x="85.845576" y="119.946889">2</text>
     </g>
    </g>
    <g id="xtick_3">
     <g id="line2d_5">
      <g>
       <use style="stroke:#000000;stroke-width:0.5;" x="127.16838" xlink:href="#m79d63dc66a" y="111.789076"/>
      </g>
     </g>
     <g id="line2d_6">
      <g>
       <use style="stroke:#000000;stroke-width:0.5;" x="127.16838" xlink:href="#me1df83ce77" y="3.069076"/>
      </g>
     </g>
     <g id="text_3">
      <text style="font-family:Arial;font-size:10px;font-stretch:normal;font-style:normal;font-weight:normal;text-anchor:middle;" transform="rotate(-0, 127.16838, 119.946889)" x="127.16838" y="119.946889">3</text>
     </g>
    </g>
    <g id="xtick_4">
     <g id="line2d_7">
      <defs>
       <path d="M 0 0 
L 0 -2 
" id="m75d63666bb" style="stroke:#000000;stroke-width:0.5;"/>
      </defs>
      <g>
       <use style="stroke:#000000;stroke-width:0.5;" x="27.99365" xlink:href="#m75d63666bb" y="111.789076"/>
      </g>
     </g>
     <g id="line2d_8">
      <defs>
       <path d="M 0 0 
L 0 2 
" id="m4ccf1c7665" style="stroke:#000000;stroke-width:0.5;"/>
      </defs>
      <g>
       <use style="stroke:#000000;stroke-width:0.5;" x="27.99365" xlink:href="#m4ccf1c7665" y="3.069076"/>
      </g>
     </g>
    </g>
    <g id="xtick_5">
     <g id="line2d_9">
      <g>
       <use style="stroke:#000000;stroke-width:0.5;" x="36.258211" xlink:href="#m75d63666bb" y="111.789076"/>
      </g>
     </g>
     <g id="line2d_10">
      <g>
       <use style="stroke:#000000;stroke-width:0.5;" x="36.258211" xlink:href="#m4ccf1c7665" y="3.069076"/>
      </g>
     </g>
    </g>
    <g id="xtick_6">
     <g id="line2d_11">
      <g>
       <use style="stroke:#000000;stroke-width:0.5;" x="52.787332" xlink:href="#m75d63666bb" y="111.789076"/>
      </g>
     </g>
     <g id="line2d_12">
      <g>
       <use style="stroke:#000000;stroke-width:0.5;" x="52.787332" xlink:href="#m4ccf1c7665" y="3.069076"/>
      </g>
     </g>
    </g>
    <g id="xtick_7">
     <g id="line2d_13">
      <g>
       <use style="stroke:#000000;stroke-width:0.5;" x="61.051893" xlink:href="#m75d63666bb" y="111.789076"/>
      </g>
     </g>
     <g id="line2d_14">
      <g>
       <use style="stroke:#000000;stroke-width:0.5;" x="61.051893" xlink:href="#m4ccf1c7665" y="3.069076"/>
      </g>
     </g>
    </g>
    <g id="xtick_8">
     <g id="line2d_15">
      <g>
       <use style="stroke:#000000;stroke-width:0.5;" x="69.316454" xlink:href="#m75d63666bb" y="111.789076"/>
      </g>
     </g>
     <g id="line2d_16">
      <g>
       <use style="stroke:#000000;stroke-width:0.5;" x="69.316454" xlink:href="#m4ccf1c7665" y="3.069076"/>
      </g>
     </g>
    </g>
    <g id="xtick_9">
     <g id="line2d_17">
      <g>
       <use style="stroke:#000000;stroke-width:0.5;" x="77.581015" xlink:href="#m75d63666bb" y="111.789076"/>
      </g>
     </g>
     <g id="line2d_18">
      <g>
       <use style="stroke:#000000;stroke-width:0.5;" x="77.581015" xlink:href="#m4ccf1c7665" y="3.069076"/>
      </g>
     </g>
    </g>
    <g id="xtick_10">
     <g id="line2d_19">
      <g>
       <use style="stroke:#000000;stroke-width:0.5;" x="94.110136" xlink:href="#m75d63666bb" y="111.789076"/>
      </g>
     </g>
     <g id="line2d_20">
      <g>
       <use style="stroke:#000000;stroke-width:0.5;" x="94.110136" xlink:href="#m4ccf1c7665" y="3.069076"/>
      </g>
     </g>
    </g>
    <g id="xtick_11">
     <g id="line2d_21">
      <g>
       <use style="stroke:#000000;stroke-width:0.5;" x="102.374697" xlink:href="#m75d63666bb" y="111.789076"/>
      </g>
     </g>
     <g id="line2d_22">
      <g>
       <use style="stroke:#000000;stroke-width:0.5;" x="102.374697" xlink:href="#m4ccf1c7665" y="3.069076"/>
      </g>
     </g>
    </g>
    <g id="xtick_12">
     <g id="line2d_23">
      <g>
       <use style="stroke:#000000;stroke-width:0.5;" x="110.639258" xlink:href="#m75d63666bb" y="111.789076"/>
      </g>
     </g>
     <g id="line2d_24">
      <g>
       <use style="stroke:#000000;stroke-width:0.5;" x="110.639258" xlink:href="#m4ccf1c7665" y="3.069076"/>
      </g>
     </g>
    </g>
    <g id="xtick_13">
     <g id="line2d_25">
      <g>
       <use style="stroke:#000000;stroke-width:0.5;" x="118.903819" xlink:href="#m75d63666bb" y="111.789076"/>
      </g>
     </g>
     <g id="line2d_26">
      <g>
       <use style="stroke:#000000;stroke-width:0.5;" x="118.903819" xlink:href="#m4ccf1c7665" y="3.069076"/>
      </g>
     </g>
    </g>
    <g id="xtick_14">
     <g id="line2d_27">
      <g>
       <use style="stroke:#000000;stroke-width:0.5;" x="135.432941" xlink:href="#m75d63666bb" y="111.789076"/>
      </g>
     </g>
     <g id="line2d_28">
      <g>
       <use style="stroke:#000000;stroke-width:0.5;" x="135.432941" xlink:href="#m4ccf1c7665" y="3.069076"/>
      </g>
     </g>
    </g>
    <g id="text_4">
     <text style="font-family:Arial;font-size:10px;font-stretch:normal;font-style:normal;font-weight:normal;text-anchor:middle;" transform="rotate(-0, 83.146875, 129.214076)" x="83.146875" y="129.214076">V<tspan
   style="font-size:65%;baseline-shift:super"
   id="tspan15378">1/2</tspan></text>
    </g>
   </g>
   <g id="matplotlib.axis_2">
    <g id="ytick_1">
     <g id="line2d_29">
      <defs>
       <path d="M 0 0 
L 3.5 0 
" id="m726f4f526c" style="stroke:#000000;stroke-width:0.5;"/>
      </defs>
      <g>
       <use style="stroke:#000000;stroke-width:0.5;" x="27.346875" xlink:href="#m726f4f526c" y="96.36125"/>
      </g>
     </g>
     <g id="line2d_30">
      <defs>
       <path d="M 0 0 
L -3.5 0 
" id="m1962cdf4ff" style="stroke:#000000;stroke-width:0.5;"/>
      </defs>
      <g>
       <use style="stroke:#000000;stroke-width:0.5;" x="138.946875" xlink:href="#m1962cdf4ff" y="96.36125"/>
      </g>
     </g>
     <g id="text_5">
      <text style="font-family:Arial;font-size:10px;font-stretch:normal;font-style:normal;font-weight:normal;text-anchor:end;" transform="rotate(-0, 26.346875, 99.940157)" x="26.346875" y="99.940157">−19</text>
     </g>
    </g>
    <g id="ytick_2">
     <g id="line2d_31">
      <g>
       <use style="stroke:#000000;stroke-width:0.5;" x="27.346875" xlink:href="#m726f4f526c" y="65.433802"/>
      </g>
     </g>
     <g id="line2d_32">
      <g>
       <use style="stroke:#000000;stroke-width:0.5;" x="138.946875" xlink:href="#m1962cdf4ff" y="65.433802"/>
      </g>
     </g>
     <g id="text_6">
      <text style="font-family:Arial;font-size:10px;font-stretch:normal;font-style:normal;font-weight:normal;text-anchor:end;" transform="rotate(-0, 26.346875, 69.012709)" x="26.346875" y="69.012709">−18</text>
     </g>
    </g>
    <g id="ytick_3">
     <g id="line2d_33">
      <g>
       <use style="stroke:#000000;stroke-width:0.5;" x="27.346875" xlink:href="#m726f4f526c" y="34.506354"/>
      </g>
     </g>
     <g id="line2d_34">
      <g>
       <use style="stroke:#000000;stroke-width:0.5;" x="138.946875" xlink:href="#m1962cdf4ff" y="34.506354"/>
      </g>
     </g>
     <g id="text_7">
      <text style="font-family:Arial;font-size:10px;font-stretch:normal;font-style:normal;font-weight:normal;text-anchor:end;" transform="rotate(-0, 26.346875, 38.085261)" x="26.346875" y="38.085261">−17</text>
     </g>
    </g>
    <g id="ytick_4">
     <g id="line2d_35">
      <g>
       <use style="stroke:#000000;stroke-width:0.5;" x="27.346875" xlink:href="#m726f4f526c" y="3.578906"/>
      </g>
     </g>
     <g id="line2d_36">
      <g>
       <use style="stroke:#000000;stroke-width:0.5;" x="138.946875" xlink:href="#m1962cdf4ff" y="3.578906"/>
      </g>
     </g>
     <g id="text_8">
      <text style="font-family:Arial;font-size:10px;font-stretch:normal;font-style:normal;font-weight:normal;text-anchor:end;" transform="rotate(-0, 26.346875, 7.157812)" x="26.346875" y="7.157812">−16</text>
     </g>
    </g>
    <g id="ytick_5">
     <g id="line2d_37">
      <defs>
       <path d="M 0 0 
L 2 0 
" id="mb27099e791" style="stroke:#000000;stroke-width:0.5;"/>
      </defs>
      <g>
       <use style="stroke:#000000;stroke-width:0.5;" x="27.346875" xlink:href="#mb27099e791" y="108.73223"/>
      </g>
     </g>
     <g id="line2d_38">
      <defs>
       <path d="M 0 0 
L -2 0 
" id="m57303cb9f9" style="stroke:#000000;stroke-width:0.5;"/>
      </defs>
      <g>
       <use style="stroke:#000000;stroke-width:0.5;" x="138.946875" xlink:href="#m57303cb9f9" y="108.73223"/>
      </g>
     </g>
    </g>
    <g id="ytick_6">
     <g id="line2d_39">
      <g>
       <use style="stroke:#000000;stroke-width:0.5;" x="27.346875" xlink:href="#mb27099e791" y="102.54674"/>
      </g>
     </g>
     <g id="line2d_40">
      <g>
       <use style="stroke:#000000;stroke-width:0.5;" x="138.946875" xlink:href="#m57303cb9f9" y="102.54674"/>
      </g>
     </g>
    </g>
    <g id="ytick_7">
     <g id="line2d_41">
      <g>
       <use style="stroke:#000000;stroke-width:0.5;" x="27.346875" xlink:href="#mb27099e791" y="90.175761"/>
      </g>
     </g>
     <g id="line2d_42">
      <g>
       <use style="stroke:#000000;stroke-width:0.5;" x="138.946875" xlink:href="#m57303cb9f9" y="90.175761"/>
      </g>
     </g>
    </g>
    <g id="ytick_8">
     <g id="line2d_43">
      <g>
       <use style="stroke:#000000;stroke-width:0.5;" x="27.346875" xlink:href="#mb27099e791" y="83.990271"/>
      </g>
     </g>
     <g id="line2d_44">
      <g>
       <use style="stroke:#000000;stroke-width:0.5;" x="138.946875" xlink:href="#m57303cb9f9" y="83.990271"/>
      </g>
     </g>
    </g>
    <g id="ytick_9">
     <g id="line2d_45">
      <g>
       <use style="stroke:#000000;stroke-width:0.5;" x="27.346875" xlink:href="#mb27099e791" y="77.804782"/>
      </g>
     </g>
     <g id="line2d_46">
      <g>
       <use style="stroke:#000000;stroke-width:0.5;" x="138.946875" xlink:href="#m57303cb9f9" y="77.804782"/>
      </g>
     </g>
    </g>
    <g id="ytick_10">
     <g id="line2d_47">
      <g>
       <use style="stroke:#000000;stroke-width:0.5;" x="27.346875" xlink:href="#mb27099e791" y="71.619292"/>
      </g>
     </g>
     <g id="line2d_48">
      <g>
       <use style="stroke:#000000;stroke-width:0.5;" x="138.946875" xlink:href="#m57303cb9f9" y="71.619292"/>
      </g>
     </g>
    </g>
    <g id="ytick_11">
     <g id="line2d_49">
      <g>
       <use style="stroke:#000000;stroke-width:0.5;" x="27.346875" xlink:href="#mb27099e791" y="59.248313"/>
      </g>
     </g>
     <g id="line2d_50">
      <g>
       <use style="stroke:#000000;stroke-width:0.5;" x="138.946875" xlink:href="#m57303cb9f9" y="59.248313"/>
      </g>
     </g>
    </g>
    <g id="ytick_12">
     <g id="line2d_51">
      <g>
       <use style="stroke:#000000;stroke-width:0.5;" x="27.346875" xlink:href="#mb27099e791" y="53.062823"/>
      </g>
     </g>
     <g id="line2d_52">
      <g>
       <use style="stroke:#000000;stroke-width:0.5;" x="138.946875" xlink:href="#m57303cb9f9" y="53.062823"/>
      </g>
     </g>
    </g>
    <g id="ytick_13">
     <g id="line2d_53">
      <g>
       <use style="stroke:#000000;stroke-width:0.5;" x="27.346875" xlink:href="#mb27099e791" y="46.877334"/>
      </g>
     </g>
     <g id="line2d_54">
      <g>
       <use style="stroke:#000000;stroke-width:0.5;" x="138.946875" xlink:href="#m57303cb9f9" y="46.877334"/>
      </g>
     </g>
    </g>
    <g id="ytick_14">
     <g id="line2d_55">
      <g>
       <use style="stroke:#000000;stroke-width:0.5;" x="27.346875" xlink:href="#mb27099e791" y="40.691844"/>
      </g>
     </g>
     <g id="line2d_56">
      <g>
       <use style="stroke:#000000;stroke-width:0.5;" x="138.946875" xlink:href="#m57303cb9f9" y="40.691844"/>
      </g>
     </g>
    </g>
    <g id="ytick_15">
     <g id="line2d_57">
      <g>
       <use style="stroke:#000000;stroke-width:0.5;" x="27.346875" xlink:href="#mb27099e791" y="28.320865"/>
      </g>
     </g>
     <g id="line2d_58">
      <g>
       <use style="stroke:#000000;stroke-width:0.5;" x="138.946875" xlink:href="#m57303cb9f9" y="28.320865"/>
      </g>
     </g>
    </g>
    <g id="ytick_16">
     <g id="line2d_59">
      <g>
       <use style="stroke:#000000;stroke-width:0.5;" x="27.346875" xlink:href="#mb27099e791" y="22.135375"/>
      </g>
     </g>
     <g id="line2d_60">
      <g>
       <use style="stroke:#000000;stroke-width:0.5;" x="138.946875" xlink:href="#m57303cb9f9" y="22.135375"/>
      </g>
     </g>
    </g>
    <g id="ytick_17">
     <g id="line2d_61">
      <g>
       <use style="stroke:#000000;stroke-width:0.5;" x="27.346875" xlink:href="#mb27099e791" y="15.949885"/>
      </g>
     </g>
     <g id="line2d_62">
      <g>
       <use style="stroke:#000000;stroke-width:0.5;" x="138.946875" xlink:href="#m57303cb9f9" y="15.949885"/>
      </g>
     </g>
    </g>
    <g id="ytick_18">
     <g id="line2d_63">
      <g>
       <use style="stroke:#000000;stroke-width:0.5;" x="27.346875" xlink:href="#mb27099e791" y="9.764396"/>
      </g>
     </g>
     <g id="line2d_64">
      <g>
       <use style="stroke:#000000;stroke-width:0.5;" x="138.946875" xlink:href="#m57303cb9f9" y="9.764396"/>
      </g>
     </g>
    </g>
    <g id="text_9">
     <text style="font-family:Arial;font-size:10px;font-stretch:normal;font-style:normal;font-weight:normal;text-anchor:middle;" transform="rotate(-90, 7.279688, 57.429076)" x="7.279688" y="57.429076">ln(I/V)</text>
    </g>
   </g>
   <g id="line2d_65">
    <path clip-path="url(#pa576bb9e62)" d="M 32.419602 8.010894 
L 44.522771 9.341718 
L 53.80986 11.205619 
L 61.639237 13.866136 
L 68.537057 16.298886 
L 74.773164 19.323198 
L 80.507855 21.18448 
L 85.845576 22.579392 
L 90.858872 24.357631 
L 95.600566 25.067011 
L 100.110533 26.366926 
L 104.419752 27.078233 
L 108.55286 28.218729 
L 112.529831 28.908643 
L 116.367127 29.766743 
L 120.078507 30.548636 
L 123.675609 30.953712 
L 127.16838 31.5819 
L 130.565404 31.738266 
L 133.874148 32.534837 
" style="fill:none;stroke:#377eb8;stroke-linecap:square;stroke-width:1.5;"/>
    <defs>
     <path d="M 0 0.75 
C 0.198902 0.75 0.389685 0.670975 0.53033 0.53033 
C 0.670975 0.389685 0.75 0.198902 0.75 0 
C 0.75 -0.198902 0.670975 -0.389685 0.53033 -0.53033 
C 0.389685 -0.670975 0.198902 -0.75 0 -0.75 
C -0.198902 -0.75 -0.389685 -0.670975 -0.53033 -0.53033 
C -0.670975 -0.389685 -0.75 -0.198902 -0.75 0 
C -0.75 0.198902 -0.670975 0.389685 -0.53033 0.53033 
C -0.389685 0.670975 -0.198902 0.75 0 0.75 
z
" id="mcfc091f0fc" style="stroke:#377eb8;"/>
    </defs>
    <g clip-path="url(#pa576bb9e62)">
     <use style="fill:#377eb8;stroke:#377eb8;" x="32.419602" xlink:href="#mcfc091f0fc" y="8.010894"/>
     <use style="fill:#377eb8;stroke:#377eb8;" x="44.522771" xlink:href="#mcfc091f0fc" y="9.341718"/>
     <use style="fill:#377eb8;stroke:#377eb8;" x="53.80986" xlink:href="#mcfc091f0fc" y="11.205619"/>
     <use style="fill:#377eb8;stroke:#377eb8;" x="61.639237" xlink:href="#mcfc091f0fc" y="13.866136"/>
     <use style="fill:#377eb8;stroke:#377eb8;" x="68.537057" xlink:href="#mcfc091f0fc" y="16.298886"/>
     <use style="fill:#377eb8;stroke:#377eb8;" x="74.773164" xlink:href="#mcfc091f0fc" y="19.323198"/>
     <use style="fill:#377eb8;stroke:#377eb8;" x="80.507855" xlink:href="#mcfc091f0fc" y="21.18448"/>
     <use style="fill:#377eb8;stroke:#377eb8;" x="85.845576" xlink:href="#mcfc091f0fc" y="22.579392"/>
     <use style="fill:#377eb8;stroke:#377eb8;" x="90.858872" xlink:href="#mcfc091f0fc" y="24.357631"/>
     <use style="fill:#377eb8;stroke:#377eb8;" x="95.600566" xlink:href="#mcfc091f0fc" y="25.067011"/>
     <use style="fill:#377eb8;stroke:#377eb8;" x="100.110533" xlink:href="#mcfc091f0fc" y="26.366926"/>
     <use style="fill:#377eb8;stroke:#377eb8;" x="104.419752" xlink:href="#mcfc091f0fc" y="27.078233"/>
     <use style="fill:#377eb8;stroke:#377eb8;" x="108.55286" xlink:href="#mcfc091f0fc" y="28.218729"/>
     <use style="fill:#377eb8;stroke:#377eb8;" x="112.529831" xlink:href="#mcfc091f0fc" y="28.908643"/>
     <use style="fill:#377eb8;stroke:#377eb8;" x="116.367127" xlink:href="#mcfc091f0fc" y="29.766743"/>
     <use style="fill:#377eb8;stroke:#377eb8;" x="120.078507" xlink:href="#mcfc091f0fc" y="30.548636"/>
     <use style="fill:#377eb8;stroke:#377eb8;" x="123.675609" xlink:href="#mcfc091f0fc" y="30.953712"/>
     <use style="fill:#377eb8;stroke:#377eb8;" x="127.16838" xlink:href="#mcfc091f0fc" y="31.5819"/>
     <use style="fill:#377eb8;stroke:#377eb8;" x="130.565404" xlink:href="#mcfc091f0fc" y="31.738266"/>
     <use style="fill:#377eb8;stroke:#377eb8;" x="133.874148" xlink:href="#mcfc091f0fc" y="32.534837"/>
    </g>
   </g>
   <g id="line2d_66">
    <path clip-path="url(#pa576bb9e62)" d="M 32.419602 48.45503 
L 44.522771 47.597772 
L 53.80986 50.371312 
L 61.639237 51.475787 
L 68.537057 54.100634 
L 74.773164 57.293626 
L 80.507855 59.005777 
L 85.845576 61.092153 
L 90.858872 62.827725 
L 95.600566 63.48998 
L 100.110533 64.14847 
L 104.419752 65.982388 
L 108.55286 64.678937 
L 112.529831 64.84145 
L 116.367127 64.902209 
L 120.078507 66.059316 
L 123.675609 65.260597 
L 127.16838 66.061986 
L 130.565404 66.648676 
L 133.874148 66.927512 
" style="fill:none;stroke:#999999;stroke-linecap:square;stroke-width:1.5;"/>
    <defs>
     <path d="M 0 0.75 
C 0.198902 0.75 0.389685 0.670975 0.53033 0.53033 
C 0.670975 0.389685 0.75 0.198902 0.75 0 
C 0.75 -0.198902 0.670975 -0.389685 0.53033 -0.53033 
C 0.389685 -0.670975 0.198902 -0.75 0 -0.75 
C -0.198902 -0.75 -0.389685 -0.670975 -0.53033 -0.53033 
C -0.670975 -0.389685 -0.75 -0.198902 -0.75 0 
C -0.75 0.198902 -0.670975 0.389685 -0.53033 0.53033 
C -0.389685 0.670975 -0.198902 0.75 0 0.75 
z
" id="m74f9c3283f" style="stroke:#999999;"/>
    </defs>
    <g clip-path="url(#pa576bb9e62)">
     <use style="fill:#999999;stroke:#999999;" x="32.419602" xlink:href="#m74f9c3283f" y="48.45503"/>
     <use style="fill:#999999;stroke:#999999;" x="44.522771" xlink:href="#m74f9c3283f" y="47.597772"/>
     <use style="fill:#999999;stroke:#999999;" x="53.80986" xlink:href="#m74f9c3283f" y="50.371312"/>
     <use style="fill:#999999;stroke:#999999;" x="61.639237" xlink:href="#m74f9c3283f" y="51.475787"/>
     <use style="fill:#999999;stroke:#999999;" x="68.537057" xlink:href="#m74f9c3283f" y="54.100634"/>
     <use style="fill:#999999;stroke:#999999;" x="74.773164" xlink:href="#m74f9c3283f" y="57.293626"/>
     <use style="fill:#999999;stroke:#999999;" x="80.507855" xlink:href="#m74f9c3283f" y="59.005777"/>
     <use style="fill:#999999;stroke:#999999;" x="85.845576" xlink:href="#m74f9c3283f" y="61.092153"/>
     <use style="fill:#999999;stroke:#999999;" x="90.858872" xlink:href="#m74f9c3283f" y="62.827725"/>
     <use style="fill:#999999;stroke:#999999;" x="95.600566" xlink:href="#m74f9c3283f" y="63.48998"/>
     <use style="fill:#999999;stroke:#999999;" x="100.110533" xlink:href="#m74f9c3283f" y="64.14847"/>
     <use style="fill:#999999;stroke:#999999;" x="104.419752" xlink:href="#m74f9c3283f" y="65.982388"/>
     <use style="fill:#999999;stroke:#999999;" x="108.55286" xlink:href="#m74f9c3283f" y="64.678937"/>
     <use style="fill:#999999;stroke:#999999;" x="112.529831" xlink:href="#m74f9c3283f" y="64.84145"/>
     <use style="fill:#999999;stroke:#999999;" x="116.367127" xlink:href="#m74f9c3283f" y="64.902209"/>
     <use style="fill:#999999;stroke:#999999;" x="120.078507" xlink:href="#m74f9c3283f" y="66.059316"/>
     <use style="fill:#999999;stroke:#999999;" x="123.675609" xlink:href="#m74f9c3283f" y="65.260597"/>
     <use style="fill:#999999;stroke:#999999;" x="127.16838" xlink:href="#m74f9c3283f" y="66.061986"/>
     <use style="fill:#999999;stroke:#999999;" x="130.565404" xlink:href="#m74f9c3283f" y="66.648676"/>
     <use style="fill:#999999;stroke:#999999;" x="133.874148" xlink:href="#m74f9c3283f" y="66.927512"/>
    </g>
   </g>
   <g id="line2d_67">
    <path clip-path="url(#pa576bb9e62)" d="M 32.419602 60.792058 
L 44.522771 63.607374 
L 53.80986 65.359864 
L 61.639237 68.219156 
L 68.537057 70.333832 
L 74.773164 73.526439 
L 80.507855 76.624721 
L 85.845576 78.097823 
L 90.858872 80.586156 
L 95.600566 81.442407 
L 100.110533 82.297472 
L 104.419752 81.483448 
L 108.55286 83.258155 
L 112.529831 84.20006 
L 116.367127 84.27698 
L 120.078507 84.909573 
L 123.675609 84.566126 
L 127.16838 85.27664 
L 130.565404 85.900429 
L 133.874148 86.377773 
" style="fill:none;stroke:#4daf4a;stroke-linecap:square;stroke-width:1.5;"/>
    <defs>
     <path d="M 0 0.75 
C 0.198902 0.75 0.389685 0.670975 0.53033 0.53033 
C 0.670975 0.389685 0.75 0.198902 0.75 0 
C 0.75 -0.198902 0.670975 -0.389685 0.53033 -0.53033 
C 0.389685 -0.670975 0.198902 -0.75 0 -0.75 
C -0.198902 -0.75 -0.389685 -0.670975 -0.53033 -0.53033 
C -0.670975 -0.389685 -0.75 -0.198902 -0.75 0 
C -0.75 0.198902 -0.670975 0.389685 -0.53033 0.53033 
C -0.389685 0.670975 -0.198902 0.75 0 0.75 
z
" id="m1d22b2aa54" style="stroke:#4daf4a;"/>
    </defs>
    <g clip-path="url(#pa576bb9e62)">
     <use style="fill:#4daf4a;stroke:#4daf4a;" x="32.419602" xlink:href="#m1d22b2aa54" y="60.792058"/>
     <use style="fill:#4daf4a;stroke:#4daf4a;" x="44.522771" xlink:href="#m1d22b2aa54" y="63.607374"/>
     <use style="fill:#4daf4a;stroke:#4daf4a;" x="53.80986" xlink:href="#m1d22b2aa54" y="65.359864"/>
     <use style="fill:#4daf4a;stroke:#4daf4a;" x="61.639237" xlink:href="#m1d22b2aa54" y="68.219156"/>
     <use style="fill:#4daf4a;stroke:#4daf4a;" x="68.537057" xlink:href="#m1d22b2aa54" y="70.333832"/>
     <use style="fill:#4daf4a;stroke:#4daf4a;" x="74.773164" xlink:href="#m1d22b2aa54" y="73.526439"/>
     <use style="fill:#4daf4a;stroke:#4daf4a;" x="80.507855" xlink:href="#m1d22b2aa54" y="76.624721"/>
     <use style="fill:#4daf4a;stroke:#4daf4a;" x="85.845576" xlink:href="#m1d22b2aa54" y="78.097823"/>
     <use style="fill:#4daf4a;stroke:#4daf4a;" x="90.858872" xlink:href="#m1d22b2aa54" y="80.586156"/>
     <use style="fill:#4daf4a;stroke:#4daf4a;" x="95.600566" xlink:href="#m1d22b2aa54" y="81.442407"/>
     <use style="fill:#4daf4a;stroke:#4daf4a;" x="100.110533" xlink:href="#m1d22b2aa54" y="82.297472"/>
     <use style="fill:#4daf4a;stroke:#4daf4a;" x="104.419752" xlink:href="#m1d22b2aa54" y="81.483448"/>
     <use style="fill:#4daf4a;stroke:#4daf4a;" x="108.55286" xlink:href="#m1d22b2aa54" y="83.258155"/>
     <use style="fill:#4daf4a;stroke:#4daf4a;" x="112.529831" xlink:href="#m1d22b2aa54" y="84.20006"/>
     <use style="fill:#4daf4a;stroke:#4daf4a;" x="116.367127" xlink:href="#m1d22b2aa54" y="84.27698"/>
     <use style="fill:#4daf4a;stroke:#4daf4a;" x="120.078507" xlink:href="#m1d22b2aa54" y="84.909573"/>
     <use style="fill:#4daf4a;stroke:#4daf4a;" x="123.675609" xlink:href="#m1d22b2aa54" y="84.566126"/>
     <use style="fill:#4daf4a;stroke:#4daf4a;" x="127.16838" xlink:href="#m1d22b2aa54" y="85.27664"/>
     <use style="fill:#4daf4a;stroke:#4daf4a;" x="130.565404" xlink:href="#m1d22b2aa54" y="85.900429"/>
     <use style="fill:#4daf4a;stroke:#4daf4a;" x="133.874148" xlink:href="#m1d22b2aa54" y="86.377773"/>
    </g>
   </g>
   <g id="line2d_68">
    <path clip-path="url(#pa576bb9e62)" d="M 32.419602 73.592949 
L 44.522771 73.642605 
L 53.80986 75.351881 
L 61.639237 78.164844 
L 68.537057 80.381458 
L 74.773164 82.578597 
L 80.507855 85.732577 
L 85.845576 87.809834 
L 90.858872 89.171327 
L 95.600566 91.319065 
L 100.110533 92.312437 
L 104.419752 92.339595 
L 108.55286 93.765596 
L 112.529831 95.134558 
L 116.367127 95.88407 
L 120.078507 96.999547 
L 123.675609 96.515792 
L 127.16838 97.621875 
L 130.565404 95.729742 
L 133.874148 97.149028 
" style="fill:none;stroke:#a65628;stroke-linecap:square;stroke-width:1.5;"/>
    <defs>
     <path d="M 0 0.75 
C 0.198902 0.75 0.389685 0.670975 0.53033 0.53033 
C 0.670975 0.389685 0.75 0.198902 0.75 0 
C 0.75 -0.198902 0.670975 -0.389685 0.53033 -0.53033 
C 0.389685 -0.670975 0.198902 -0.75 0 -0.75 
C -0.198902 -0.75 -0.389685 -0.670975 -0.53033 -0.53033 
C -0.670975 -0.389685 -0.75 -0.198902 -0.75 0 
C -0.75 0.198902 -0.670975 0.389685 -0.53033 0.53033 
C -0.389685 0.670975 -0.198902 0.75 0 0.75 
z
" id="m63292e33c0" style="stroke:#a65628;"/>
    </defs>
    <g clip-path="url(#pa576bb9e62)">
     <use style="fill:#a65628;stroke:#a65628;" x="32.419602" xlink:href="#m63292e33c0" y="73.592949"/>
     <use style="fill:#a65628;stroke:#a65628;" x="44.522771" xlink:href="#m63292e33c0" y="73.642605"/>
     <use style="fill:#a65628;stroke:#a65628;" x="53.80986" xlink:href="#m63292e33c0" y="75.351881"/>
     <use style="fill:#a65628;stroke:#a65628;" x="61.639237" xlink:href="#m63292e33c0" y="78.164844"/>
     <use style="fill:#a65628;stroke:#a65628;" x="68.537057" xlink:href="#m63292e33c0" y="80.381458"/>
     <use style="fill:#a65628;stroke:#a65628;" x="74.773164" xlink:href="#m63292e33c0" y="82.578597"/>
     <use style="fill:#a65628;stroke:#a65628;" x="80.507855" xlink:href="#m63292e33c0" y="85.732577"/>
     <use style="fill:#a65628;stroke:#a65628;" x="85.845576" xlink:href="#m63292e33c0" y="87.809834"/>
     <use style="fill:#a65628;stroke:#a65628;" x="90.858872" xlink:href="#m63292e33c0" y="89.171327"/>
     <use style="fill:#a65628;stroke:#a65628;" x="95.600566" xlink:href="#m63292e33c0" y="91.319065"/>
     <use style="fill:#a65628;stroke:#a65628;" x="100.110533" xlink:href="#m63292e33c0" y="92.312437"/>
     <use style="fill:#a65628;stroke:#a65628;" x="104.419752" xlink:href="#m63292e33c0" y="92.339595"/>
     <use style="fill:#a65628;stroke:#a65628;" x="108.55286" xlink:href="#m63292e33c0" y="93.765596"/>
     <use style="fill:#a65628;stroke:#a65628;" x="112.529831" xlink:href="#m63292e33c0" y="95.134558"/>
     <use style="fill:#a65628;stroke:#a65628;" x="116.367127" xlink:href="#m63292e33c0" y="95.88407"/>
     <use style="fill:#a65628;stroke:#a65628;" x="120.078507" xlink:href="#m63292e33c0" y="96.999547"/>
     <use style="fill:#a65628;stroke:#a65628;" x="123.675609" xlink:href="#m63292e33c0" y="96.515792"/>
     <use style="fill:#a65628;stroke:#a65628;" x="127.16838" xlink:href="#m63292e33c0" y="97.621875"/>
     <use style="fill:#a65628;stroke:#a65628;" x="130.565404" xlink:href="#m63292e33c0" y="95.729742"/>
     <use style="fill:#a65628;stroke:#a65628;" x="133.874148" xlink:href="#m63292e33c0" y="97.149028"/>
    </g>
   </g>
   <g id="line2d_69">
    <path clip-path="url(#pa576bb9e62)" d="M 32.419602 79.682005 
L 44.522771 78.584909 
L 53.80986 80.641951 
L 61.639237 82.81283 
L 68.537057 85.169573 
L 74.773164 88.369826 
L 80.507855 91.460675 
L 85.845576 93.690394 
L 90.858872 95.722923 
L 95.600566 96.817722 
L 100.110533 98.999684 
L 104.419752 99.887852 
L 108.55286 102.219361 
L 112.529831 101.394836 
L 116.367127 102.707316 
L 120.078507 103.06774 
L 123.675609 103.403225 
L 127.16838 103.025562 
L 130.565404 102.973505 
L 133.874148 103.002481 
" style="fill:none;stroke:#984ea3;stroke-linecap:square;stroke-width:1.5;"/>
    <defs>
     <path d="M 0 0.75 
C 0.198902 0.75 0.389685 0.670975 0.53033 0.53033 
C 0.670975 0.389685 0.75 0.198902 0.75 0 
C 0.75 -0.198902 0.670975 -0.389685 0.53033 -0.53033 
C 0.389685 -0.670975 0.198902 -0.75 0 -0.75 
C -0.198902 -0.75 -0.389685 -0.670975 -0.53033 -0.53033 
C -0.670975 -0.389685 -0.75 -0.198902 -0.75 0 
C -0.75 0.198902 -0.670975 0.389685 -0.53033 0.53033 
C -0.389685 0.670975 -0.198902 0.75 0 0.75 
z
" id="m915ee03472" style="stroke:#984ea3;"/>
    </defs>
    <g clip-path="url(#pa576bb9e62)">
     <use style="fill:#984ea3;stroke:#984ea3;" x="32.419602" xlink:href="#m915ee03472" y="79.682005"/>
     <use style="fill:#984ea3;stroke:#984ea3;" x="44.522771" xlink:href="#m915ee03472" y="78.584909"/>
     <use style="fill:#984ea3;stroke:#984ea3;" x="53.80986" xlink:href="#m915ee03472" y="80.641951"/>
     <use style="fill:#984ea3;stroke:#984ea3;" x="61.639237" xlink:href="#m915ee03472" y="82.81283"/>
     <use style="fill:#984ea3;stroke:#984ea3;" x="68.537057" xlink:href="#m915ee03472" y="85.169573"/>
     <use style="fill:#984ea3;stroke:#984ea3;" x="74.773164" xlink:href="#m915ee03472" y="88.369826"/>
     <use style="fill:#984ea3;stroke:#984ea3;" x="80.507855" xlink:href="#m915ee03472" y="91.460675"/>
     <use style="fill:#984ea3;stroke:#984ea3;" x="85.845576" xlink:href="#m915ee03472" y="93.690394"/>
     <use style="fill:#984ea3;stroke:#984ea3;" x="90.858872" xlink:href="#m915ee03472" y="95.722923"/>
     <use style="fill:#984ea3;stroke:#984ea3;" x="95.600566" xlink:href="#m915ee03472" y="96.817722"/>
     <use style="fill:#984ea3;stroke:#984ea3;" x="100.110533" xlink:href="#m915ee03472" y="98.999684"/>
     <use style="fill:#984ea3;stroke:#984ea3;" x="104.419752" xlink:href="#m915ee03472" y="99.887852"/>
     <use style="fill:#984ea3;stroke:#984ea3;" x="108.55286" xlink:href="#m915ee03472" y="102.219361"/>
     <use style="fill:#984ea3;stroke:#984ea3;" x="112.529831" xlink:href="#m915ee03472" y="101.394836"/>
     <use style="fill:#984ea3;stroke:#984ea3;" x="116.367127" xlink:href="#m915ee03472" y="102.707316"/>
     <use style="fill:#984ea3;stroke:#984ea3;" x="120.078507" xlink:href="#m915ee03472" y="103.06774"/>
     <use style="fill:#984ea3;stroke:#984ea3;" x="123.675609" xlink:href="#m915ee03472" y="103.403225"/>
     <use style="fill:#984ea3;stroke:#984ea3;" x="127.16838" xlink:href="#m915ee03472" y="103.025562"/>
     <use style="fill:#984ea3;stroke:#984ea3;" x="130.565404" xlink:href="#m915ee03472" y="102.973505"/>
     <use style="fill:#984ea3;stroke:#984ea3;" x="133.874148" xlink:href="#m915ee03472" y="103.002481"/>
    </g>
   </g>
   <g id="line2d_70">
    <path clip-path="url(#pa576bb9e62)" d="M 32.419602 82.599138 
L 44.522771 82.527353 
L 53.80986 85.582455 
L 61.639237 86.874723 
L 68.537057 89.285367 
L 74.773164 92.276449 
L 80.507855 94.747661 
L 85.845576 96.810783 
L 90.858872 99.120762 
L 95.600566 99.610296 
L 100.110533 102.088354 
L 104.419752 102.902265 
L 108.55286 103.955342 
L 112.529831 103.814957 
L 116.367127 104.83563 
L 120.078507 104.697161 
L 123.675609 105.055232 
L 127.16838 104.995619 
L 130.565404 105.343865 
L 133.874148 105.777685 
" style="fill:none;stroke:#ff7f00;stroke-linecap:square;stroke-width:1.5;"/>
    <defs>
     <path d="M 0 0.75 
C 0.198902 0.75 0.389685 0.670975 0.53033 0.53033 
C 0.670975 0.389685 0.75 0.198902 0.75 0 
C 0.75 -0.198902 0.670975 -0.389685 0.53033 -0.53033 
C 0.389685 -0.670975 0.198902 -0.75 0 -0.75 
C -0.198902 -0.75 -0.389685 -0.670975 -0.53033 -0.53033 
C -0.670975 -0.389685 -0.75 -0.198902 -0.75 0 
C -0.75 0.198902 -0.670975 0.389685 -0.53033 0.53033 
C -0.389685 0.670975 -0.198902 0.75 0 0.75 
z
" id="m5094bef93a" style="stroke:#ff7f00;"/>
    </defs>
    <g clip-path="url(#pa576bb9e62)">
     <use style="fill:#ff7f00;stroke:#ff7f00;" x="32.419602" xlink:href="#m5094bef93a" y="82.599138"/>
     <use style="fill:#ff7f00;stroke:#ff7f00;" x="44.522771" xlink:href="#m5094bef93a" y="82.527353"/>
     <use style="fill:#ff7f00;stroke:#ff7f00;" x="53.80986" xlink:href="#m5094bef93a" y="85.582455"/>
     <use style="fill:#ff7f00;stroke:#ff7f00;" x="61.639237" xlink:href="#m5094bef93a" y="86.874723"/>
     <use style="fill:#ff7f00;stroke:#ff7f00;" x="68.537057" xlink:href="#m5094bef93a" y="89.285367"/>
     <use style="fill:#ff7f00;stroke:#ff7f00;" x="74.773164" xlink:href="#m5094bef93a" y="92.276449"/>
     <use style="fill:#ff7f00;stroke:#ff7f00;" x="80.507855" xlink:href="#m5094bef93a" y="94.747661"/>
     <use style="fill:#ff7f00;stroke:#ff7f00;" x="85.845576" xlink:href="#m5094bef93a" y="96.810783"/>
     <use style="fill:#ff7f00;stroke:#ff7f00;" x="90.858872" xlink:href="#m5094bef93a" y="99.120762"/>
     <use style="fill:#ff7f00;stroke:#ff7f00;" x="95.600566" xlink:href="#m5094bef93a" y="99.610296"/>
     <use style="fill:#ff7f00;stroke:#ff7f00;" x="100.110533" xlink:href="#m5094bef93a" y="102.088354"/>
     <use style="fill:#ff7f00;stroke:#ff7f00;" x="104.419752" xlink:href="#m5094bef93a" y="102.902265"/>
     <use style="fill:#ff7f00;stroke:#ff7f00;" x="108.55286" xlink:href="#m5094bef93a" y="103.955342"/>
     <use style="fill:#ff7f00;stroke:#ff7f00;" x="112.529831" xlink:href="#m5094bef93a" y="103.814957"/>
     <use style="fill:#ff7f00;stroke:#ff7f00;" x="116.367127" xlink:href="#m5094bef93a" y="104.83563"/>
     <use style="fill:#ff7f00;stroke:#ff7f00;" x="120.078507" xlink:href="#m5094bef93a" y="104.697161"/>
     <use style="fill:#ff7f00;stroke:#ff7f00;" x="123.675609" xlink:href="#m5094bef93a" y="105.055232"/>
     <use style="fill:#ff7f00;stroke:#ff7f00;" x="127.16838" xlink:href="#m5094bef93a" y="104.995619"/>
     <use style="fill:#ff7f00;stroke:#ff7f00;" x="130.565404" xlink:href="#m5094bef93a" y="105.343865"/>
     <use style="fill:#ff7f00;stroke:#ff7f00;" x="133.874148" xlink:href="#m5094bef93a" y="105.777685"/>
    </g>
   </g>
   <g id="line2d_71">
    <path clip-path="url(#pa576bb9e62)" d="M 32.419602 86.010113 
L 44.522771 85.264829 
L 53.80986 87.697753 
L 61.639237 89.514141 
L 68.537057 91.207917 
L 74.773164 92.753767 
L 80.507855 96.103786 
L 85.845576 98.245747 
L 90.858872 100.670263 
L 95.600566 102.370498 
L 100.110533 103.978854 
L 104.419752 104.681816 
L 108.55286 105.478193 
L 112.529831 105.617812 
L 116.367127 106.847258 
L 120.078507 106.003365 
L 123.675609 105.640731 
L 127.16838 106.062096 
L 130.565404 106.160491 
L 133.874148 106.073793 
" style="fill:none;stroke:#e41a1c;stroke-linecap:square;stroke-width:1.5;"/>
    <defs>
     <path d="M 0 0.75 
C 0.198902 0.75 0.389685 0.670975 0.53033 0.53033 
C 0.670975 0.389685 0.75 0.198902 0.75 0 
C 0.75 -0.198902 0.670975 -0.389685 0.53033 -0.53033 
C 0.389685 -0.670975 0.198902 -0.75 0 -0.75 
C -0.198902 -0.75 -0.389685 -0.670975 -0.53033 -0.53033 
C -0.670975 -0.389685 -0.75 -0.198902 -0.75 0 
C -0.75 0.198902 -0.670975 0.389685 -0.53033 0.53033 
C -0.389685 0.670975 -0.198902 0.75 0 0.75 
z
" id="ma3ec4b5fe5" style="stroke:#e41a1c;"/>
    </defs>
    <g clip-path="url(#pa576bb9e62)">
     <use style="fill:#e41a1c;stroke:#e41a1c;" x="32.419602" xlink:href="#ma3ec4b5fe5" y="86.010113"/>
     <use style="fill:#e41a1c;stroke:#e41a1c;" x="44.522771" xlink:href="#ma3ec4b5fe5" y="85.264829"/>
     <use style="fill:#e41a1c;stroke:#e41a1c;" x="53.80986" xlink:href="#ma3ec4b5fe5" y="87.697753"/>
     <use style="fill:#e41a1c;stroke:#e41a1c;" x="61.639237" xlink:href="#ma3ec4b5fe5" y="89.514141"/>
     <use style="fill:#e41a1c;stroke:#e41a1c;" x="68.537057" xlink:href="#ma3ec4b5fe5" y="91.207917"/>
     <use style="fill:#e41a1c;stroke:#e41a1c;" x="74.773164" xlink:href="#ma3ec4b5fe5" y="92.753767"/>
     <use style="fill:#e41a1c;stroke:#e41a1c;" x="80.507855" xlink:href="#ma3ec4b5fe5" y="96.103786"/>
     <use style="fill:#e41a1c;stroke:#e41a1c;" x="85.845576" xlink:href="#ma3ec4b5fe5" y="98.245747"/>
     <use style="fill:#e41a1c;stroke:#e41a1c;" x="90.858872" xlink:href="#ma3ec4b5fe5" y="100.670263"/>
     <use style="fill:#e41a1c;stroke:#e41a1c;" x="95.600566" xlink:href="#ma3ec4b5fe5" y="102.370498"/>
     <use style="fill:#e41a1c;stroke:#e41a1c;" x="100.110533" xlink:href="#ma3ec4b5fe5" y="103.978854"/>
     <use style="fill:#e41a1c;stroke:#e41a1c;" x="104.419752" xlink:href="#ma3ec4b5fe5" y="104.681816"/>
     <use style="fill:#e41a1c;stroke:#e41a1c;" x="108.55286" xlink:href="#ma3ec4b5fe5" y="105.478193"/>
     <use style="fill:#e41a1c;stroke:#e41a1c;" x="112.529831" xlink:href="#ma3ec4b5fe5" y="105.617812"/>
     <use style="fill:#e41a1c;stroke:#e41a1c;" x="116.367127" xlink:href="#ma3ec4b5fe5" y="106.847258"/>
     <use style="fill:#e41a1c;stroke:#e41a1c;" x="120.078507" xlink:href="#ma3ec4b5fe5" y="106.003365"/>
     <use style="fill:#e41a1c;stroke:#e41a1c;" x="123.675609" xlink:href="#ma3ec4b5fe5" y="105.640731"/>
     <use style="fill:#e41a1c;stroke:#e41a1c;" x="127.16838" xlink:href="#ma3ec4b5fe5" y="106.062096"/>
     <use style="fill:#e41a1c;stroke:#e41a1c;" x="130.565404" xlink:href="#ma3ec4b5fe5" y="106.160491"/>
     <use style="fill:#e41a1c;stroke:#e41a1c;" x="133.874148" xlink:href="#ma3ec4b5fe5" y="106.073793"/>
    </g>
   </g>
   <g id="patch_3">
    <path d="M 27.346875 111.789076 
L 27.346875 3.069076 
" style="fill:none;stroke:#000000;stroke-linecap:square;stroke-linejoin:miter;stroke-width:0.5;"/>
   </g>
   <g id="patch_4">
    <path d="M 138.946875 111.789076 
L 138.946875 3.069076 
" style="fill:none;stroke:#000000;stroke-linecap:square;stroke-linejoin:miter;stroke-width:0.5;"/>
   </g>
   <g id="patch_5">
    <path d="M 27.346875 111.789076 
L 138.946875 111.789076 
" style="fill:none;stroke:#000000;stroke-linecap:square;stroke-linejoin:miter;stroke-width:0.5;"/>
   </g>
   <g id="patch_6">
    <path d="M 27.346875 3.069076 
L 138.946875 3.069076 
" style="fill:none;stroke:#000000;stroke-linecap:square;stroke-linejoin:miter;stroke-width:0.5;"/>
   </g>
  </g>
 </g>
 <defs>
  <clipPath id="pa576bb9e62">
   <rect height="108.72" width="111.6" x="27.346875" y="3.069076"/>
  </clipPath>
 </defs>
</svg>
