<?xml version="1.0" encoding="utf-8" standalone="no"?>
<!DOCTYPE svg PUBLIC "-//W3C//DTD SVG 1.1//EN"
  "http://www.w3.org/Graphics/SVG/1.1/DTD/svg11.dtd">
<svg height="128.249688pt" version="1.1" viewBox="0 0 138.946875 128.249688" width="138.946875pt" xmlns="http://www.w3.org/2000/svg" xmlns:xlink="http://www.w3.org/1999/xlink">
 <metadata>
  <rdf:RDF xmlns:cc="http://creativecommons.org/ns#" xmlns:dc="http://purl.org/dc/elements/1.1/" xmlns:rdf="http://www.w3.org/1999/02/22-rdf-syntax-ns#">
   <cc:Work>
    <dc:type rdf:resource="http://purl.org/dc/dcmitype/StillImage"/>
    <dc:date>2021-09-09T11:31:17.260959</dc:date>
    <dc:format>image/svg+xml</dc:format>
    <dc:creator>
     <cc:Agent>
      <dc:title>Matplotlib v3.4.3, https://matplotlib.org/</dc:title>
     </cc:Agent>
    </dc:creator>
   </cc:Work>
  </rdf:RDF>
 </metadata>
 <defs>
  <style type="text/css">*{stroke-linecap:butt;stroke-linejoin:round;}</style>
 </defs>
 <g id="figure_1">
  <g id="patch_1">
   <path d="M 0 128.249688 
L 138.946875 128.249688 
L 138.946875 0 
L 0 0 
z
" style="fill:none;"/>
  </g>
  <g id="axes_1">
   <g id="patch_2">
    <path d="M 27.346875 108.72 
L 138.946875 108.72 
L 138.946875 0 
L 27.346875 0 
z
" style="fill:none;"/>
   </g>
   <g id="matplotlib.axis_1">
    <g id="xtick_1">
     <g id="line2d_1">
      <defs>
       <path d="M 0 0 
L 0 -3.5 
" id="m964774e1f1" style="stroke:#000000;stroke-width:0.5;"/>
      </defs>
      <g>
       <use style="stroke:#000000;stroke-width:0.5;" x="44.522771" xlink:href="#m964774e1f1" y="108.72"/>
      </g>
     </g>
     <g id="line2d_2">
      <defs>
       <path d="M 0 0 
L 0 3.5 
" id="m7a3d5f9401" style="stroke:#000000;stroke-width:0.5;"/>
      </defs>
      <g>
       <use style="stroke:#000000;stroke-width:0.5;" x="44.522771" xlink:href="#m7a3d5f9401" y="0"/>
      </g>
     </g>
     <g id="text_1">
      <text style="font-family:Arial;font-size:10px;font-stretch:normal;font-style:normal;font-weight:normal;text-anchor:middle;" transform="rotate(-0, 44.522771, 116.877813)" x="44.522771" y="116.877813">1</text>
     </g>
    </g>
    <g id="xtick_2">
     <g id="line2d_3">
      <g>
       <use style="stroke:#000000;stroke-width:0.5;" x="85.845576" xlink:href="#m964774e1f1" y="108.72"/>
      </g>
     </g>
     <g id="line2d_4">
      <g>
       <use style="stroke:#000000;stroke-width:0.5;" x="85.845576" xlink:href="#m7a3d5f9401" y="0"/>
      </g>
     </g>
     <g id="text_2">
      <text style="font-family:Arial;font-size:10px;font-stretch:normal;font-style:normal;font-weight:normal;text-anchor:middle;" transform="rotate(-0, 85.845576, 116.877813)" x="85.845576" y="116.877813">2</text>
     </g>
    </g>
    <g id="xtick_3">
     <g id="line2d_5">
      <g>
       <use style="stroke:#000000;stroke-width:0.5;" x="127.16838" xlink:href="#m964774e1f1" y="108.72"/>
      </g>
     </g>
     <g id="line2d_6">
      <g>
       <use style="stroke:#000000;stroke-width:0.5;" x="127.16838" xlink:href="#m7a3d5f9401" y="0"/>
      </g>
     </g>
     <g id="text_3">
      <text style="font-family:Arial;font-size:10px;font-stretch:normal;font-style:normal;font-weight:normal;text-anchor:middle;" transform="rotate(-0, 127.16838, 116.877813)" x="127.16838" y="116.877813">3</text>
     </g>
    </g>
    <g id="xtick_4">
     <g id="line2d_7">
      <defs>
       <path d="M 0 0 
L 0 -2 
" id="m945baf3db8" style="stroke:#000000;stroke-width:0.5;"/>
      </defs>
      <g>
       <use style="stroke:#000000;stroke-width:0.5;" x="27.99365" xlink:href="#m945baf3db8" y="108.72"/>
      </g>
     </g>
     <g id="line2d_8">
      <defs>
       <path d="M 0 0 
L 0 2 
" id="m0aaec9bb40" style="stroke:#000000;stroke-width:0.5;"/>
      </defs>
      <g>
       <use style="stroke:#000000;stroke-width:0.5;" x="27.99365" xlink:href="#m0aaec9bb40" y="0"/>
      </g>
     </g>
    </g>
    <g id="xtick_5">
     <g id="line2d_9">
      <g>
       <use style="stroke:#000000;stroke-width:0.5;" x="36.258211" xlink:href="#m945baf3db8" y="108.72"/>
      </g>
     </g>
     <g id="line2d_10">
      <g>
       <use style="stroke:#000000;stroke-width:0.5;" x="36.258211" xlink:href="#m0aaec9bb40" y="0"/>
      </g>
     </g>
    </g>
    <g id="xtick_6">
     <g id="line2d_11">
      <g>
       <use style="stroke:#000000;stroke-width:0.5;" x="52.787332" xlink:href="#m945baf3db8" y="108.72"/>
      </g>
     </g>
     <g id="line2d_12">
      <g>
       <use style="stroke:#000000;stroke-width:0.5;" x="52.787332" xlink:href="#m0aaec9bb40" y="0"/>
      </g>
     </g>
    </g>
    <g id="xtick_7">
     <g id="line2d_13">
      <g>
       <use style="stroke:#000000;stroke-width:0.5;" x="61.051893" xlink:href="#m945baf3db8" y="108.72"/>
      </g>
     </g>
     <g id="line2d_14">
      <g>
       <use style="stroke:#000000;stroke-width:0.5;" x="61.051893" xlink:href="#m0aaec9bb40" y="0"/>
      </g>
     </g>
    </g>
    <g id="xtick_8">
     <g id="line2d_15">
      <g>
       <use style="stroke:#000000;stroke-width:0.5;" x="69.316454" xlink:href="#m945baf3db8" y="108.72"/>
      </g>
     </g>
     <g id="line2d_16">
      <g>
       <use style="stroke:#000000;stroke-width:0.5;" x="69.316454" xlink:href="#m0aaec9bb40" y="0"/>
      </g>
     </g>
    </g>
    <g id="xtick_9">
     <g id="line2d_17">
      <g>
       <use style="stroke:#000000;stroke-width:0.5;" x="77.581015" xlink:href="#m945baf3db8" y="108.72"/>
      </g>
     </g>
     <g id="line2d_18">
      <g>
       <use style="stroke:#000000;stroke-width:0.5;" x="77.581015" xlink:href="#m0aaec9bb40" y="0"/>
      </g>
     </g>
    </g>
    <g id="xtick_10">
     <g id="line2d_19">
      <g>
       <use style="stroke:#000000;stroke-width:0.5;" x="94.110136" xlink:href="#m945baf3db8" y="108.72"/>
      </g>
     </g>
     <g id="line2d_20">
      <g>
       <use style="stroke:#000000;stroke-width:0.5;" x="94.110136" xlink:href="#m0aaec9bb40" y="0"/>
      </g>
     </g>
    </g>
    <g id="xtick_11">
     <g id="line2d_21">
      <g>
       <use style="stroke:#000000;stroke-width:0.5;" x="102.374697" xlink:href="#m945baf3db8" y="108.72"/>
      </g>
     </g>
     <g id="line2d_22">
      <g>
       <use style="stroke:#000000;stroke-width:0.5;" x="102.374697" xlink:href="#m0aaec9bb40" y="0"/>
      </g>
     </g>
    </g>
    <g id="xtick_12">
     <g id="line2d_23">
      <g>
       <use style="stroke:#000000;stroke-width:0.5;" x="110.639258" xlink:href="#m945baf3db8" y="108.72"/>
      </g>
     </g>
     <g id="line2d_24">
      <g>
       <use style="stroke:#000000;stroke-width:0.5;" x="110.639258" xlink:href="#m0aaec9bb40" y="0"/>
      </g>
     </g>
    </g>
    <g id="xtick_13">
     <g id="line2d_25">
      <g>
       <use style="stroke:#000000;stroke-width:0.5;" x="118.903819" xlink:href="#m945baf3db8" y="108.72"/>
      </g>
     </g>
     <g id="line2d_26">
      <g>
       <use style="stroke:#000000;stroke-width:0.5;" x="118.903819" xlink:href="#m0aaec9bb40" y="0"/>
      </g>
     </g>
    </g>
    <g id="xtick_14">
     <g id="line2d_27">
      <g>
       <use style="stroke:#000000;stroke-width:0.5;" x="135.432941" xlink:href="#m945baf3db8" y="108.72"/>
      </g>
     </g>
     <g id="line2d_28">
      <g>
       <use style="stroke:#000000;stroke-width:0.5;" x="135.432941" xlink:href="#m0aaec9bb40" y="0"/>
      </g>
     </g>
    </g>
    <g id="text_4">
     <text style="font-family:Arial;font-size:10px;font-stretch:normal;font-style:normal;font-weight:normal;text-anchor:middle;" transform="rotate(-0, 83.146875, 126.145)" x="83.146875" y="126.145">V<tspan
   style="font-size:65%;baseline-shift:super"
   id="tspan15378">1/2</tspan></text>
    </g>
   </g>
   <g id="matplotlib.axis_2">
    <g id="ytick_1">
     <g id="line2d_29">
      <defs>
       <path d="M 0 0 
L 3.5 0 
" id="mcc19fca4fe" style="stroke:#000000;stroke-width:0.5;"/>
      </defs>
      <g>
       <use style="stroke:#000000;stroke-width:0.5;" x="27.346875" xlink:href="#mcc19fca4fe" y="75.576293"/>
      </g>
     </g>
     <g id="line2d_30">
      <defs>
       <path d="M 0 0 
L -3.5 0 
" id="m0bbbef1113" style="stroke:#000000;stroke-width:0.5;"/>
      </defs>
      <g>
       <use style="stroke:#000000;stroke-width:0.5;" x="138.946875" xlink:href="#m0bbbef1113" y="75.576293"/>
      </g>
     </g>
     <g id="text_5">
      <text style="font-family:Arial;font-size:10px;font-stretch:normal;font-style:normal;font-weight:normal;text-anchor:end;" transform="rotate(-0, 26.346875, 79.155199)" x="26.346875" y="79.155199">−18</text>
     </g>
    </g>
    <g id="ytick_2">
     <g id="line2d_31">
      <g>
       <use style="stroke:#000000;stroke-width:0.5;" x="27.346875" xlink:href="#mcc19fca4fe" y="34.055795"/>
      </g>
     </g>
     <g id="line2d_32">
      <g>
       <use style="stroke:#000000;stroke-width:0.5;" x="138.946875" xlink:href="#m0bbbef1113" y="34.055795"/>
      </g>
     </g>
     <g id="text_6">
      <text style="font-family:Arial;font-size:10px;font-stretch:normal;font-style:normal;font-weight:normal;text-anchor:end;" transform="rotate(-0, 26.346875, 37.634701)" x="26.346875" y="37.634701">−16</text>
     </g>
    </g>
    <g id="ytick_3">
     <g id="line2d_33">
      <defs>
       <path d="M 0 0 
L 2 0 
" id="m289ca7be91" style="stroke:#000000;stroke-width:0.5;"/>
      </defs>
      <g>
       <use style="stroke:#000000;stroke-width:0.5;" x="27.346875" xlink:href="#m289ca7be91" y="106.716666"/>
      </g>
     </g>
     <g id="line2d_34">
      <defs>
       <path d="M 0 0 
L -2 0 
" id="m9609d5cf17" style="stroke:#000000;stroke-width:0.5;"/>
      </defs>
      <g>
       <use style="stroke:#000000;stroke-width:0.5;" x="138.946875" xlink:href="#m9609d5cf17" y="106.716666"/>
      </g>
     </g>
    </g>
    <g id="ytick_4">
     <g id="line2d_35">
      <g>
       <use style="stroke:#000000;stroke-width:0.5;" x="27.346875" xlink:href="#m289ca7be91" y="96.336541"/>
      </g>
     </g>
     <g id="line2d_36">
      <g>
       <use style="stroke:#000000;stroke-width:0.5;" x="138.946875" xlink:href="#m9609d5cf17" y="96.336541"/>
      </g>
     </g>
    </g>
    <g id="ytick_5">
     <g id="line2d_37">
      <g>
       <use style="stroke:#000000;stroke-width:0.5;" x="27.346875" xlink:href="#m289ca7be91" y="85.956417"/>
      </g>
     </g>
     <g id="line2d_38">
      <g>
       <use style="stroke:#000000;stroke-width:0.5;" x="138.946875" xlink:href="#m9609d5cf17" y="85.956417"/>
      </g>
     </g>
    </g>
    <g id="ytick_6">
     <g id="line2d_39">
      <g>
       <use style="stroke:#000000;stroke-width:0.5;" x="27.346875" xlink:href="#m289ca7be91" y="65.196168"/>
      </g>
     </g>
     <g id="line2d_40">
      <g>
       <use style="stroke:#000000;stroke-width:0.5;" x="138.946875" xlink:href="#m9609d5cf17" y="65.196168"/>
      </g>
     </g>
    </g>
    <g id="ytick_7">
     <g id="line2d_41">
      <g>
       <use style="stroke:#000000;stroke-width:0.5;" x="27.346875" xlink:href="#m289ca7be91" y="54.816044"/>
      </g>
     </g>
     <g id="line2d_42">
      <g>
       <use style="stroke:#000000;stroke-width:0.5;" x="138.946875" xlink:href="#m9609d5cf17" y="54.816044"/>
      </g>
     </g>
    </g>
    <g id="ytick_8">
     <g id="line2d_43">
      <g>
       <use style="stroke:#000000;stroke-width:0.5;" x="27.346875" xlink:href="#m289ca7be91" y="44.435919"/>
      </g>
     </g>
     <g id="line2d_44">
      <g>
       <use style="stroke:#000000;stroke-width:0.5;" x="138.946875" xlink:href="#m9609d5cf17" y="44.435919"/>
      </g>
     </g>
    </g>
    <g id="ytick_9">
     <g id="line2d_45">
      <g>
       <use style="stroke:#000000;stroke-width:0.5;" x="27.346875" xlink:href="#m289ca7be91" y="23.67567"/>
      </g>
     </g>
     <g id="line2d_46">
      <g>
       <use style="stroke:#000000;stroke-width:0.5;" x="138.946875" xlink:href="#m9609d5cf17" y="23.67567"/>
      </g>
     </g>
    </g>
    <g id="ytick_10">
     <g id="line2d_47">
      <g>
       <use style="stroke:#000000;stroke-width:0.5;" x="27.346875" xlink:href="#m289ca7be91" y="13.295546"/>
      </g>
     </g>
     <g id="line2d_48">
      <g>
       <use style="stroke:#000000;stroke-width:0.5;" x="138.946875" xlink:href="#m9609d5cf17" y="13.295546"/>
      </g>
     </g>
    </g>
    <g id="ytick_11">
     <g id="line2d_49">
      <g>
       <use style="stroke:#000000;stroke-width:0.5;" x="27.346875" xlink:href="#m289ca7be91" y="2.915421"/>
      </g>
     </g>
     <g id="line2d_50">
      <g>
       <use style="stroke:#000000;stroke-width:0.5;" x="138.946875" xlink:href="#m9609d5cf17" y="2.915421"/>
      </g>
     </g>
    </g>
    <g id="text_7">
     <text style="font-family:Arial;font-size:10px;font-stretch:normal;font-style:normal;font-weight:normal;text-anchor:middle;" transform="rotate(-90, 7.279688, 54.36)" x="7.279688" y="54.36">ln(I)</text>
    </g>
   </g>
   <g id="line2d_51">
    <path clip-path="url(#p685a5e434c)" d="M 32.419602 51.420703 
L 44.522771 37.924119 
L 53.80986 30.757718 
L 61.639237 26.571256 
L 68.537057 23.57174 
L 74.773164 21.816787 
L 80.507855 19.865979 
L 85.845576 18.030177 
L 90.858872 16.778627 
L 95.600566 15.067492 
L 100.110533 13.961405 
L 104.419752 12.632497 
L 108.55286 11.736355 
L 112.529831 10.660964 
L 116.367127 9.80466 
L 120.078507 8.989675 
L 123.675609 8.003003 
L 127.16838 7.238055 
L 130.565404 6.220568 
L 133.874148 5.69041 
" style="fill:none;stroke:#377eb8;stroke-linecap:square;stroke-width:1.5;"/>
    <defs>
     <path d="M 0 0.75 
C 0.198902 0.75 0.389685 0.670975 0.53033 0.53033 
C 0.670975 0.389685 0.75 0.198902 0.75 0 
C 0.75 -0.198902 0.670975 -0.389685 0.53033 -0.53033 
C 0.389685 -0.670975 0.198902 -0.75 0 -0.75 
C -0.198902 -0.75 -0.389685 -0.670975 -0.53033 -0.53033 
C -0.670975 -0.389685 -0.75 -0.198902 -0.75 0 
C -0.75 0.198902 -0.670975 0.389685 -0.53033 0.53033 
C -0.389685 0.670975 -0.198902 0.75 0 0.75 
z
" id="m3b961b80f8" style="stroke:#377eb8;"/>
    </defs>
    <g clip-path="url(#p685a5e434c)">
     <use style="fill:#377eb8;stroke:#377eb8;" x="32.419602" xlink:href="#m3b961b80f8" y="51.420703"/>
     <use style="fill:#377eb8;stroke:#377eb8;" x="44.522771" xlink:href="#m3b961b80f8" y="37.924119"/>
     <use style="fill:#377eb8;stroke:#377eb8;" x="53.80986" xlink:href="#m3b961b80f8" y="30.757718"/>
     <use style="fill:#377eb8;stroke:#377eb8;" x="61.639237" xlink:href="#m3b961b80f8" y="26.571256"/>
     <use style="fill:#377eb8;stroke:#377eb8;" x="68.537057" xlink:href="#m3b961b80f8" y="23.57174"/>
     <use style="fill:#377eb8;stroke:#377eb8;" x="74.773164" xlink:href="#m3b961b80f8" y="21.816787"/>
     <use style="fill:#377eb8;stroke:#377eb8;" x="80.507855" xlink:href="#m3b961b80f8" y="19.865979"/>
     <use style="fill:#377eb8;stroke:#377eb8;" x="85.845576" xlink:href="#m3b961b80f8" y="18.030177"/>
     <use style="fill:#377eb8;stroke:#377eb8;" x="90.858872" xlink:href="#m3b961b80f8" y="16.778627"/>
     <use style="fill:#377eb8;stroke:#377eb8;" x="95.600566" xlink:href="#m3b961b80f8" y="15.067492"/>
     <use style="fill:#377eb8;stroke:#377eb8;" x="100.110533" xlink:href="#m3b961b80f8" y="13.961405"/>
     <use style="fill:#377eb8;stroke:#377eb8;" x="104.419752" xlink:href="#m3b961b80f8" y="12.632497"/>
     <use style="fill:#377eb8;stroke:#377eb8;" x="108.55286" xlink:href="#m3b961b80f8" y="11.736355"/>
     <use style="fill:#377eb8;stroke:#377eb8;" x="112.529831" xlink:href="#m3b961b80f8" y="10.660964"/>
     <use style="fill:#377eb8;stroke:#377eb8;" x="116.367127" xlink:href="#m3b961b80f8" y="9.80466"/>
     <use style="fill:#377eb8;stroke:#377eb8;" x="120.078507" xlink:href="#m3b961b80f8" y="8.989675"/>
     <use style="fill:#377eb8;stroke:#377eb8;" x="123.675609" xlink:href="#m3b961b80f8" y="8.003003"/>
     <use style="fill:#377eb8;stroke:#377eb8;" x="127.16838" xlink:href="#m3b961b80f8" y="7.238055"/>
     <use style="fill:#377eb8;stroke:#377eb8;" x="130.565404" xlink:href="#m3b961b80f8" y="6.220568"/>
     <use style="fill:#377eb8;stroke:#377eb8;" x="133.874148" xlink:href="#m3b961b80f8" y="5.69041"/>
    </g>
   </g>
   <g id="line2d_52">
    <path clip-path="url(#p685a5e434c)" d="M 133.874148 4.941818 
L 130.565404 5.875713 
L 127.16838 6.834526 
L 123.675609 7.820362 
L 120.078507 8.835647 
L 116.367127 9.883186 
L 112.529831 10.966266 
L 108.55286 12.088768 
L 104.419752 13.25534 
L 100.110533 14.47162 
L 95.600566 15.744561 
L 90.858872 17.082908 
L 85.845576 18.497914 
L 80.507855 20.004489 
L 74.773164 21.623109 
L 68.537057 23.383254 
L 61.639237 25.330169 
" style="fill:none;stroke:#000000;stroke-linecap:square;"/>
   </g>
   <g id="line2d_53">
    <path clip-path="url(#p685a5e434c)" d="M 32.419602 78.56909 
L 44.522771 63.603742 
L 53.80986 57.047942 
L 61.639237 51.816977 
L 68.537057 48.946406 
L 74.773164 47.304682 
L 80.507855 45.253768 
L 85.845576 43.882116 
L 90.858872 42.601925 
L 95.600566 40.859158 
L 100.110533 39.32251 
L 104.419752 38.747162 
L 108.55286 36.210505 
L 112.529831 34.781093 
L 116.367127 33.389569 
L 120.078507 32.826448 
L 123.675609 31.031721 
L 127.16838 30.383036 
L 130.565404 29.654406 
L 133.874148 28.776715 
" style="fill:none;stroke:#999999;stroke-linecap:square;stroke-width:1.5;"/>
    <defs>
     <path d="M 0 0.75 
C 0.198902 0.75 0.389685 0.670975 0.53033 0.53033 
C 0.670975 0.389685 0.75 0.198902 0.75 0 
C 0.75 -0.198902 0.670975 -0.389685 0.53033 -0.53033 
C 0.389685 -0.670975 0.198902 -0.75 0 -0.75 
C -0.198902 -0.75 -0.389685 -0.670975 -0.53033 -0.53033 
C -0.670975 -0.389685 -0.75 -0.198902 -0.75 0 
C -0.75 0.198902 -0.670975 0.389685 -0.53033 0.53033 
C -0.389685 0.670975 -0.198902 0.75 0 0.75 
z
" id="m4fba25d60f" style="stroke:#999999;"/>
    </defs>
    <g clip-path="url(#p685a5e434c)">
     <use style="fill:#999999;stroke:#999999;" x="32.419602" xlink:href="#m4fba25d60f" y="78.56909"/>
     <use style="fill:#999999;stroke:#999999;" x="44.522771" xlink:href="#m4fba25d60f" y="63.603742"/>
     <use style="fill:#999999;stroke:#999999;" x="53.80986" xlink:href="#m4fba25d60f" y="57.047942"/>
     <use style="fill:#999999;stroke:#999999;" x="61.639237" xlink:href="#m4fba25d60f" y="51.816977"/>
     <use style="fill:#999999;stroke:#999999;" x="68.537057" xlink:href="#m4fba25d60f" y="48.946406"/>
     <use style="fill:#999999;stroke:#999999;" x="74.773164" xlink:href="#m4fba25d60f" y="47.304682"/>
     <use style="fill:#999999;stroke:#999999;" x="80.507855" xlink:href="#m4fba25d60f" y="45.253768"/>
     <use style="fill:#999999;stroke:#999999;" x="85.845576" xlink:href="#m4fba25d60f" y="43.882116"/>
     <use style="fill:#999999;stroke:#999999;" x="90.858872" xlink:href="#m4fba25d60f" y="42.601925"/>
     <use style="fill:#999999;stroke:#999999;" x="95.600566" xlink:href="#m4fba25d60f" y="40.859158"/>
     <use style="fill:#999999;stroke:#999999;" x="100.110533" xlink:href="#m4fba25d60f" y="39.32251"/>
     <use style="fill:#999999;stroke:#999999;" x="104.419752" xlink:href="#m4fba25d60f" y="38.747162"/>
     <use style="fill:#999999;stroke:#999999;" x="108.55286" xlink:href="#m4fba25d60f" y="36.210505"/>
     <use style="fill:#999999;stroke:#999999;" x="112.529831" xlink:href="#m4fba25d60f" y="34.781093"/>
     <use style="fill:#999999;stroke:#999999;" x="116.367127" xlink:href="#m4fba25d60f" y="33.389569"/>
     <use style="fill:#999999;stroke:#999999;" x="120.078507" xlink:href="#m4fba25d60f" y="32.826448"/>
     <use style="fill:#999999;stroke:#999999;" x="123.675609" xlink:href="#m4fba25d60f" y="31.031721"/>
     <use style="fill:#999999;stroke:#999999;" x="127.16838" xlink:href="#m4fba25d60f" y="30.383036"/>
     <use style="fill:#999999;stroke:#999999;" x="130.565404" xlink:href="#m4fba25d60f" y="29.654406"/>
     <use style="fill:#999999;stroke:#999999;" x="133.874148" xlink:href="#m4fba25d60f" y="28.776715"/>
    </g>
   </g>
   <g id="line2d_54">
    <path clip-path="url(#p685a5e434c)" d="M 100.110533 39.396056 
L 95.600566 40.809458 
L 90.858872 42.295483 
L 85.845576 43.866626 
L 80.507855 45.539442 
L 74.773164 47.336667 
L 68.537057 49.291033 
L 61.639237 51.452777 
" style="fill:none;stroke:#000000;stroke-linecap:square;"/>
   </g>
   <g id="line2d_55">
    <path clip-path="url(#p685a5e434c)" d="M 32.419602 86.8504 
L 44.522771 74.350291 
L 53.80986 67.109104 
L 61.639237 63.056071 
L 68.537057 59.843045 
L 74.773164 58.201063 
L 80.507855 57.080597 
L 85.845576 55.297282 
L 90.858872 54.522386 
L 95.600566 52.90984 
L 100.110533 51.505145 
L 104.419752 49.152348 
L 108.55286 48.681925 
L 112.529831 47.775685 
L 116.367127 46.395009 
L 120.078507 45.479805 
L 123.675609 43.990682 
L 127.16838 43.280996 
L 130.565404 42.57727 
L 133.874148 41.832828 
" style="fill:none;stroke:#4daf4a;stroke-linecap:square;stroke-width:1.5;"/>
    <defs>
     <path d="M 0 0.75 
C 0.198902 0.75 0.389685 0.670975 0.53033 0.53033 
C 0.670975 0.389685 0.75 0.198902 0.75 0 
C 0.75 -0.198902 0.670975 -0.389685 0.53033 -0.53033 
C 0.389685 -0.670975 0.198902 -0.75 0 -0.75 
C -0.198902 -0.75 -0.389685 -0.670975 -0.53033 -0.53033 
C -0.670975 -0.389685 -0.75 -0.198902 -0.75 0 
C -0.75 0.198902 -0.670975 0.389685 -0.53033 0.53033 
C -0.389685 0.670975 -0.198902 0.75 0 0.75 
z
" id="m0510529bc2" style="stroke:#4daf4a;"/>
    </defs>
    <g clip-path="url(#p685a5e434c)">
     <use style="fill:#4daf4a;stroke:#4daf4a;" x="32.419602" xlink:href="#m0510529bc2" y="86.8504"/>
     <use style="fill:#4daf4a;stroke:#4daf4a;" x="44.522771" xlink:href="#m0510529bc2" y="74.350291"/>
     <use style="fill:#4daf4a;stroke:#4daf4a;" x="53.80986" xlink:href="#m0510529bc2" y="67.109104"/>
     <use style="fill:#4daf4a;stroke:#4daf4a;" x="61.639237" xlink:href="#m0510529bc2" y="63.056071"/>
     <use style="fill:#4daf4a;stroke:#4daf4a;" x="68.537057" xlink:href="#m0510529bc2" y="59.843045"/>
     <use style="fill:#4daf4a;stroke:#4daf4a;" x="74.773164" xlink:href="#m0510529bc2" y="58.201063"/>
     <use style="fill:#4daf4a;stroke:#4daf4a;" x="80.507855" xlink:href="#m0510529bc2" y="57.080597"/>
     <use style="fill:#4daf4a;stroke:#4daf4a;" x="85.845576" xlink:href="#m0510529bc2" y="55.297282"/>
     <use style="fill:#4daf4a;stroke:#4daf4a;" x="90.858872" xlink:href="#m0510529bc2" y="54.522386"/>
     <use style="fill:#4daf4a;stroke:#4daf4a;" x="95.600566" xlink:href="#m0510529bc2" y="52.90984"/>
     <use style="fill:#4daf4a;stroke:#4daf4a;" x="100.110533" xlink:href="#m0510529bc2" y="51.505145"/>
     <use style="fill:#4daf4a;stroke:#4daf4a;" x="104.419752" xlink:href="#m0510529bc2" y="49.152348"/>
     <use style="fill:#4daf4a;stroke:#4daf4a;" x="108.55286" xlink:href="#m0510529bc2" y="48.681925"/>
     <use style="fill:#4daf4a;stroke:#4daf4a;" x="112.529831" xlink:href="#m0510529bc2" y="47.775685"/>
     <use style="fill:#4daf4a;stroke:#4daf4a;" x="116.367127" xlink:href="#m0510529bc2" y="46.395009"/>
     <use style="fill:#4daf4a;stroke:#4daf4a;" x="120.078507" xlink:href="#m0510529bc2" y="45.479805"/>
     <use style="fill:#4daf4a;stroke:#4daf4a;" x="123.675609" xlink:href="#m0510529bc2" y="43.990682"/>
     <use style="fill:#4daf4a;stroke:#4daf4a;" x="127.16838" xlink:href="#m0510529bc2" y="43.280996"/>
     <use style="fill:#4daf4a;stroke:#4daf4a;" x="130.565404" xlink:href="#m0510529bc2" y="42.57727"/>
     <use style="fill:#4daf4a;stroke:#4daf4a;" x="133.874148" xlink:href="#m0510529bc2" y="41.832828"/>
    </g>
   </g>
   <g id="line2d_56">
    <path clip-path="url(#p685a5e434c)" d="M 90.858872 54.371995 
L 85.845576 55.59189 
L 80.507855 56.890727 
L 74.773164 58.286159 
L 68.537057 59.803602 
" style="fill:none;stroke:#000000;stroke-linecap:square;"/>
   </g>
   <g id="line2d_57">
    <path clip-path="url(#p685a5e434c)" d="M 127.16838 43.188499 
L 123.675609 44.241554 
L 120.078507 45.326065 
L 116.367127 46.44503 
L 112.529831 47.601958 
L 108.55286 48.800997 
" style="fill:none;stroke:#000000;stroke-linecap:square;"/>
   </g>
   <g id="line2d_58">
    <path clip-path="url(#p685a5e434c)" d="M 32.419602 95.44308 
L 44.522771 81.086504 
L 53.80986 73.81631 
L 61.639237 69.732178 
L 68.537057 66.587579 
L 74.773164 64.277382 
L 80.507855 63.194305 
L 85.845576 61.816532 
L 90.858872 60.285238 
L 95.600566 59.539611 
L 100.110533 58.227755 
L 104.419752 56.439606 
L 108.55286 55.735113 
L 112.529831 55.115537 
L 116.367127 54.186343 
L 120.078507 53.595278 
L 123.675609 52.011972 
L 127.16838 51.567815 
L 130.565404 49.175259 
L 133.874148 49.063103 
" style="fill:none;stroke:#a65628;stroke-linecap:square;stroke-width:1.5;"/>
    <defs>
     <path d="M 0 0.75 
C 0.198902 0.75 0.389685 0.670975 0.53033 0.53033 
C 0.670975 0.389685 0.75 0.198902 0.75 0 
C 0.75 -0.198902 0.670975 -0.389685 0.53033 -0.53033 
C 0.389685 -0.670975 0.198902 -0.75 0 -0.75 
C -0.198902 -0.75 -0.389685 -0.670975 -0.53033 -0.53033 
C -0.670975 -0.389685 -0.75 -0.198902 -0.75 0 
C -0.75 0.198902 -0.670975 0.389685 -0.53033 0.53033 
C -0.389685 0.670975 -0.198902 0.75 0 0.75 
z
" id="m76f3ff6d2c" style="stroke:#a65628;"/>
    </defs>
    <g clip-path="url(#p685a5e434c)">
     <use style="fill:#a65628;stroke:#a65628;" x="32.419602" xlink:href="#m76f3ff6d2c" y="95.44308"/>
     <use style="fill:#a65628;stroke:#a65628;" x="44.522771" xlink:href="#m76f3ff6d2c" y="81.086504"/>
     <use style="fill:#a65628;stroke:#a65628;" x="53.80986" xlink:href="#m76f3ff6d2c" y="73.81631"/>
     <use style="fill:#a65628;stroke:#a65628;" x="61.639237" xlink:href="#m76f3ff6d2c" y="69.732178"/>
     <use style="fill:#a65628;stroke:#a65628;" x="68.537057" xlink:href="#m76f3ff6d2c" y="66.587579"/>
     <use style="fill:#a65628;stroke:#a65628;" x="74.773164" xlink:href="#m76f3ff6d2c" y="64.277382"/>
     <use style="fill:#a65628;stroke:#a65628;" x="80.507855" xlink:href="#m76f3ff6d2c" y="63.194305"/>
     <use style="fill:#a65628;stroke:#a65628;" x="85.845576" xlink:href="#m76f3ff6d2c" y="61.816532"/>
     <use style="fill:#a65628;stroke:#a65628;" x="90.858872" xlink:href="#m76f3ff6d2c" y="60.285238"/>
     <use style="fill:#a65628;stroke:#a65628;" x="95.600566" xlink:href="#m76f3ff6d2c" y="59.539611"/>
     <use style="fill:#a65628;stroke:#a65628;" x="100.110533" xlink:href="#m76f3ff6d2c" y="58.227755"/>
     <use style="fill:#a65628;stroke:#a65628;" x="104.419752" xlink:href="#m76f3ff6d2c" y="56.439606"/>
     <use style="fill:#a65628;stroke:#a65628;" x="108.55286" xlink:href="#m76f3ff6d2c" y="55.735113"/>
     <use style="fill:#a65628;stroke:#a65628;" x="112.529831" xlink:href="#m76f3ff6d2c" y="55.115537"/>
     <use style="fill:#a65628;stroke:#a65628;" x="116.367127" xlink:href="#m76f3ff6d2c" y="54.186343"/>
     <use style="fill:#a65628;stroke:#a65628;" x="120.078507" xlink:href="#m76f3ff6d2c" y="53.595278"/>
     <use style="fill:#a65628;stroke:#a65628;" x="123.675609" xlink:href="#m76f3ff6d2c" y="52.011972"/>
     <use style="fill:#a65628;stroke:#a65628;" x="127.16838" xlink:href="#m76f3ff6d2c" y="51.567815"/>
     <use style="fill:#a65628;stroke:#a65628;" x="130.565404" xlink:href="#m76f3ff6d2c" y="49.175259"/>
     <use style="fill:#a65628;stroke:#a65628;" x="133.874148" xlink:href="#m76f3ff6d2c" y="49.063103"/>
    </g>
   </g>
   <g id="line2d_59">
    <path clip-path="url(#p685a5e434c)" d="M 100.110533 58.166712 
L 95.600566 59.321227 
L 90.858872 60.535062 
L 85.845576 61.818425 
L 80.507855 63.184838 
L 74.773164 64.652872 
L 68.537057 66.249265 
" style="fill:none;stroke:#000000;stroke-linecap:square;"/>
   </g>
   <g id="line2d_60">
    <path clip-path="url(#p685a5e434c)" d="M 120.078507 53.593284 
L 116.367127 54.279236 
L 112.529831 54.98846 
L 108.55286 55.7235 
L 104.419752 56.487397 
" style="fill:none;stroke:#000000;stroke-linecap:square;"/>
   </g>
   <g id="line2d_61">
    <path clip-path="url(#p685a5e434c)" d="M 32.419602 99.530398 
L 44.522771 84.404057 
L 53.80986 77.367304 
L 61.639237 72.852169 
L 68.537057 69.801632 
L 74.773164 68.164782 
L 80.507855 67.039327 
L 85.845576 65.763896 
L 90.858872 64.683039 
L 95.600566 63.23062 
L 100.110533 62.716612 
L 104.419752 61.506423 
L 108.55286 61.409756 
L 112.529831 59.317789 
L 116.367127 58.766491 
L 120.078507 57.668592 
L 123.675609 56.635206 
L 127.16838 55.195074 
L 130.565404 54.037682 
L 133.874148 52.99227 
" style="fill:none;stroke:#984ea3;stroke-linecap:square;stroke-width:1.5;"/>
    <defs>
     <path d="M 0 0.75 
C 0.198902 0.75 0.389685 0.670975 0.53033 0.53033 
C 0.670975 0.389685 0.75 0.198902 0.75 0 
C 0.75 -0.198902 0.670975 -0.389685 0.53033 -0.53033 
C 0.389685 -0.670975 0.198902 -0.75 0 -0.75 
C -0.198902 -0.75 -0.389685 -0.670975 -0.53033 -0.53033 
C -0.670975 -0.389685 -0.75 -0.198902 -0.75 0 
C -0.75 0.198902 -0.670975 0.389685 -0.53033 0.53033 
C -0.389685 0.670975 -0.198902 0.75 0 0.75 
z
" id="mc68e42a32c" style="stroke:#984ea3;"/>
    </defs>
    <g clip-path="url(#p685a5e434c)">
     <use style="fill:#984ea3;stroke:#984ea3;" x="32.419602" xlink:href="#mc68e42a32c" y="99.530398"/>
     <use style="fill:#984ea3;stroke:#984ea3;" x="44.522771" xlink:href="#mc68e42a32c" y="84.404057"/>
     <use style="fill:#984ea3;stroke:#984ea3;" x="53.80986" xlink:href="#mc68e42a32c" y="77.367304"/>
     <use style="fill:#984ea3;stroke:#984ea3;" x="61.639237" xlink:href="#mc68e42a32c" y="72.852169"/>
     <use style="fill:#984ea3;stroke:#984ea3;" x="68.537057" xlink:href="#mc68e42a32c" y="69.801632"/>
     <use style="fill:#984ea3;stroke:#984ea3;" x="74.773164" xlink:href="#mc68e42a32c" y="68.164782"/>
     <use style="fill:#984ea3;stroke:#984ea3;" x="80.507855" xlink:href="#mc68e42a32c" y="67.039327"/>
     <use style="fill:#984ea3;stroke:#984ea3;" x="85.845576" xlink:href="#mc68e42a32c" y="65.763896"/>
     <use style="fill:#984ea3;stroke:#984ea3;" x="90.858872" xlink:href="#mc68e42a32c" y="64.683039"/>
     <use style="fill:#984ea3;stroke:#984ea3;" x="95.600566" xlink:href="#mc68e42a32c" y="63.23062"/>
     <use style="fill:#984ea3;stroke:#984ea3;" x="100.110533" xlink:href="#mc68e42a32c" y="62.716612"/>
     <use style="fill:#984ea3;stroke:#984ea3;" x="104.419752" xlink:href="#mc68e42a32c" y="61.506423"/>
     <use style="fill:#984ea3;stroke:#984ea3;" x="108.55286" xlink:href="#mc68e42a32c" y="61.409756"/>
     <use style="fill:#984ea3;stroke:#984ea3;" x="112.529831" xlink:href="#mc68e42a32c" y="59.317789"/>
     <use style="fill:#984ea3;stroke:#984ea3;" x="116.367127" xlink:href="#mc68e42a32c" y="58.766491"/>
     <use style="fill:#984ea3;stroke:#984ea3;" x="120.078507" xlink:href="#mc68e42a32c" y="57.668592"/>
     <use style="fill:#984ea3;stroke:#984ea3;" x="123.675609" xlink:href="#mc68e42a32c" y="56.635206"/>
     <use style="fill:#984ea3;stroke:#984ea3;" x="127.16838" xlink:href="#mc68e42a32c" y="55.195074"/>
     <use style="fill:#984ea3;stroke:#984ea3;" x="130.565404" xlink:href="#mc68e42a32c" y="54.037682"/>
     <use style="fill:#984ea3;stroke:#984ea3;" x="133.874148" xlink:href="#mc68e42a32c" y="52.99227"/>
    </g>
   </g>
   <g id="line2d_62">
    <path clip-path="url(#p685a5e434c)" d="M 95.600566 63.403769 
L 90.858872 64.521299 
L 85.845576 65.702841 
L 80.507855 66.960843 
L 74.773164 68.312404 
L 68.537057 69.78214 
" style="fill:none;stroke:#000000;stroke-linecap:square;"/>
   </g>
   <g id="line2d_63">
    <path clip-path="url(#p685a5e434c)" d="M 133.874148 52.995985 
L 130.565404 54.108373 
L 127.16838 55.250441 
L 123.675609 56.424699 
L 120.078507 57.634032 
L 116.367127 58.881786 
" style="fill:none;stroke:#000000;stroke-linecap:square;"/>
   </g>
   <g id="line2d_64">
    <path clip-path="url(#p685a5e434c)" d="M 32.419602 101.488543 
L 44.522771 87.050449 
L 53.80986 80.683649 
L 61.639237 75.578741 
L 68.537057 72.564386 
L 74.773164 70.787128 
L 80.507855 69.245738 
L 85.845576 67.858477 
L 90.858872 66.96386 
L 95.600566 65.105153 
L 100.110533 64.789902 
L 104.419752 63.529867 
L 108.55286 62.575045 
L 112.529831 60.942311 
L 116.367127 60.195135 
L 120.078507 58.762351 
L 123.675609 57.744126 
L 127.16838 56.517488 
L 130.565404 55.628801 
L 133.874148 54.855144 
" style="fill:none;stroke:#ff7f00;stroke-linecap:square;stroke-width:1.5;"/>
    <defs>
     <path d="M 0 0.75 
C 0.198902 0.75 0.389685 0.670975 0.53033 0.53033 
C 0.670975 0.389685 0.75 0.198902 0.75 0 
C 0.75 -0.198902 0.670975 -0.389685 0.53033 -0.53033 
C 0.389685 -0.670975 0.198902 -0.75 0 -0.75 
C -0.198902 -0.75 -0.389685 -0.670975 -0.53033 -0.53033 
C -0.670975 -0.389685 -0.75 -0.198902 -0.75 0 
C -0.75 0.198902 -0.670975 0.389685 -0.53033 0.53033 
C -0.389685 0.670975 -0.198902 0.75 0 0.75 
z
" id="m2564223250" style="stroke:#ff7f00;"/>
    </defs>
    <g clip-path="url(#p685a5e434c)">
     <use style="fill:#ff7f00;stroke:#ff7f00;" x="32.419602" xlink:href="#m2564223250" y="101.488543"/>
     <use style="fill:#ff7f00;stroke:#ff7f00;" x="44.522771" xlink:href="#m2564223250" y="87.050449"/>
     <use style="fill:#ff7f00;stroke:#ff7f00;" x="53.80986" xlink:href="#m2564223250" y="80.683649"/>
     <use style="fill:#ff7f00;stroke:#ff7f00;" x="61.639237" xlink:href="#m2564223250" y="75.578741"/>
     <use style="fill:#ff7f00;stroke:#ff7f00;" x="68.537057" xlink:href="#m2564223250" y="72.564386"/>
     <use style="fill:#ff7f00;stroke:#ff7f00;" x="74.773164" xlink:href="#m2564223250" y="70.787128"/>
     <use style="fill:#ff7f00;stroke:#ff7f00;" x="80.507855" xlink:href="#m2564223250" y="69.245738"/>
     <use style="fill:#ff7f00;stroke:#ff7f00;" x="85.845576" xlink:href="#m2564223250" y="67.858477"/>
     <use style="fill:#ff7f00;stroke:#ff7f00;" x="90.858872" xlink:href="#m2564223250" y="66.96386"/>
     <use style="fill:#ff7f00;stroke:#ff7f00;" x="95.600566" xlink:href="#m2564223250" y="65.105153"/>
     <use style="fill:#ff7f00;stroke:#ff7f00;" x="100.110533" xlink:href="#m2564223250" y="64.789902"/>
     <use style="fill:#ff7f00;stroke:#ff7f00;" x="104.419752" xlink:href="#m2564223250" y="63.529867"/>
     <use style="fill:#ff7f00;stroke:#ff7f00;" x="108.55286" xlink:href="#m2564223250" y="62.575045"/>
     <use style="fill:#ff7f00;stroke:#ff7f00;" x="112.529831" xlink:href="#m2564223250" y="60.942311"/>
     <use style="fill:#ff7f00;stroke:#ff7f00;" x="116.367127" xlink:href="#m2564223250" y="60.195135"/>
     <use style="fill:#ff7f00;stroke:#ff7f00;" x="120.078507" xlink:href="#m2564223250" y="58.762351"/>
     <use style="fill:#ff7f00;stroke:#ff7f00;" x="123.675609" xlink:href="#m2564223250" y="57.744126"/>
     <use style="fill:#ff7f00;stroke:#ff7f00;" x="127.16838" xlink:href="#m2564223250" y="56.517488"/>
     <use style="fill:#ff7f00;stroke:#ff7f00;" x="130.565404" xlink:href="#m2564223250" y="55.628801"/>
     <use style="fill:#ff7f00;stroke:#ff7f00;" x="133.874148" xlink:href="#m2564223250" y="54.855144"/>
    </g>
   </g>
   <g id="line2d_65">
    <path clip-path="url(#p685a5e434c)" d="M 133.874148 55.000236 
L 130.565404 55.909723 
L 127.16838 56.843476 
L 123.675609 57.803547 
L 120.078507 58.792295 
L 116.367127 59.812456 
L 112.529831 60.867229 
L 108.55286 61.960393 
L 104.419752 63.096476 
L 100.110533 64.280967 
L 95.600566 65.520639 
L 90.858872 66.824006 
L 85.845576 68.20203 
L 80.507855 69.669229 
L 74.773164 71.245545 
L 68.537057 72.959687 
L 61.639237 74.855717 
" style="fill:none;stroke:#000000;stroke-linecap:square;"/>
   </g>
   <g id="line2d_66">
    <path clip-path="url(#p685a5e434c)" d="M 32.419602 103.778182 
L 44.522771 88.887997 
L 53.80986 82.103556 
L 61.639237 77.350467 
L 68.537057 73.854909 
L 74.773164 71.107531 
L 80.507855 70.156046 
L 85.845576 68.821706 
L 90.858872 68.003973 
L 95.600566 66.957956 
L 100.110533 66.058912 
L 104.419752 64.724402 
L 108.55286 63.597269 
L 112.529831 62.152489 
L 116.367127 61.545453 
L 120.078507 59.639149 
L 123.675609 58.137146 
L 127.16838 57.233367 
L 130.565404 56.176967 
L 133.874148 55.053909 
" style="fill:none;stroke:#e41a1c;stroke-linecap:square;stroke-width:1.5;"/>
    <defs>
     <path d="M 0 0.75 
C 0.198902 0.75 0.389685 0.670975 0.53033 0.53033 
C 0.670975 0.389685 0.75 0.198902 0.75 0 
C 0.75 -0.198902 0.670975 -0.389685 0.53033 -0.53033 
C 0.389685 -0.670975 0.198902 -0.75 0 -0.75 
C -0.198902 -0.75 -0.389685 -0.670975 -0.53033 -0.53033 
C -0.670975 -0.389685 -0.75 -0.198902 -0.75 0 
C -0.75 0.198902 -0.670975 0.389685 -0.53033 0.53033 
C -0.389685 0.670975 -0.198902 0.75 0 0.75 
z
" id="maadd942ff4" style="stroke:#e41a1c;"/>
    </defs>
    <g clip-path="url(#p685a5e434c)">
     <use style="fill:#e41a1c;stroke:#e41a1c;" x="32.419602" xlink:href="#maadd942ff4" y="103.778182"/>
     <use style="fill:#e41a1c;stroke:#e41a1c;" x="44.522771" xlink:href="#maadd942ff4" y="88.887997"/>
     <use style="fill:#e41a1c;stroke:#e41a1c;" x="53.80986" xlink:href="#maadd942ff4" y="82.103556"/>
     <use style="fill:#e41a1c;stroke:#e41a1c;" x="61.639237" xlink:href="#maadd942ff4" y="77.350467"/>
     <use style="fill:#e41a1c;stroke:#e41a1c;" x="68.537057" xlink:href="#maadd942ff4" y="73.854909"/>
     <use style="fill:#e41a1c;stroke:#e41a1c;" x="74.773164" xlink:href="#maadd942ff4" y="71.107531"/>
     <use style="fill:#e41a1c;stroke:#e41a1c;" x="80.507855" xlink:href="#maadd942ff4" y="70.156046"/>
     <use style="fill:#e41a1c;stroke:#e41a1c;" x="85.845576" xlink:href="#maadd942ff4" y="68.821706"/>
     <use style="fill:#e41a1c;stroke:#e41a1c;" x="90.858872" xlink:href="#maadd942ff4" y="68.003973"/>
     <use style="fill:#e41a1c;stroke:#e41a1c;" x="95.600566" xlink:href="#maadd942ff4" y="66.957956"/>
     <use style="fill:#e41a1c;stroke:#e41a1c;" x="100.110533" xlink:href="#maadd942ff4" y="66.058912"/>
     <use style="fill:#e41a1c;stroke:#e41a1c;" x="104.419752" xlink:href="#maadd942ff4" y="64.724402"/>
     <use style="fill:#e41a1c;stroke:#e41a1c;" x="108.55286" xlink:href="#maadd942ff4" y="63.597269"/>
     <use style="fill:#e41a1c;stroke:#e41a1c;" x="112.529831" xlink:href="#maadd942ff4" y="62.152489"/>
     <use style="fill:#e41a1c;stroke:#e41a1c;" x="116.367127" xlink:href="#maadd942ff4" y="61.545453"/>
     <use style="fill:#e41a1c;stroke:#e41a1c;" x="120.078507" xlink:href="#maadd942ff4" y="59.639149"/>
     <use style="fill:#e41a1c;stroke:#e41a1c;" x="123.675609" xlink:href="#maadd942ff4" y="58.137146"/>
     <use style="fill:#e41a1c;stroke:#e41a1c;" x="127.16838" xlink:href="#maadd942ff4" y="57.233367"/>
     <use style="fill:#e41a1c;stroke:#e41a1c;" x="130.565404" xlink:href="#maadd942ff4" y="56.176967"/>
     <use style="fill:#e41a1c;stroke:#e41a1c;" x="133.874148" xlink:href="#maadd942ff4" y="55.053909"/>
    </g>
   </g>
   <g id="line2d_67">
    <path clip-path="url(#p685a5e434c)" d="M 116.367127 61.468695 
L 112.529831 62.482685 
L 108.55286 63.533583 
L 104.419752 64.625739 
L 100.110533 65.764433 
L 95.600566 66.956173 
L 90.858872 68.209146 
" style="fill:none;stroke:#000000;stroke-linecap:square;"/>
   </g>
   <g id="line2d_68">
    <path clip-path="url(#p685a5e434c)" d="M 133.874148 55.051345 
L 130.565404 56.119973 
L 127.16838 57.217112 
L 123.675609 58.345175 
L 120.078507 59.506933 
" style="fill:none;stroke:#000000;stroke-linecap:square;"/>
   </g>
   <g id="patch_3">
    <path d="M 27.346875 108.72 
L 27.346875 0 
" style="fill:none;stroke:#000000;stroke-linecap:square;stroke-linejoin:miter;stroke-width:0.5;"/>
   </g>
   <g id="patch_4">
    <path d="M 138.946875 108.72 
L 138.946875 0 
" style="fill:none;stroke:#000000;stroke-linecap:square;stroke-linejoin:miter;stroke-width:0.5;"/>
   </g>
   <g id="patch_5">
    <path d="M 27.346875 108.72 
L 138.946875 108.72 
" style="fill:none;stroke:#000000;stroke-linecap:square;stroke-linejoin:miter;stroke-width:0.5;"/>
   </g>
   <g id="patch_6">
    <path d="M 27.346875 0 
L 138.946875 0 
" style="fill:none;stroke:#000000;stroke-linecap:square;stroke-linejoin:miter;stroke-width:0.5;"/>
   </g>
  </g>
 </g>
 <defs>
  <clipPath id="p685a5e434c">
   <rect height="108.72" width="111.6" x="27.346875" y="0"/>
  </clipPath>
 </defs>
</svg>
