<?xml version="1.0" encoding="utf-8" standalone="no"?>
<!DOCTYPE svg PUBLIC "-//W3C//DTD SVG 1.1//EN"
  "http://www.w3.org/Graphics/SVG/1.1/DTD/svg11.dtd">
<svg height="128.249687pt" version="1.1" viewBox="0 0 138.946875 128.249687" width="138.946875pt" xmlns="http://www.w3.org/2000/svg" xmlns:xlink="http://www.w3.org/1999/xlink">
 <metadata>
  <rdf:RDF xmlns:cc="http://creativecommons.org/ns#" xmlns:dc="http://purl.org/dc/elements/1.1/" xmlns:rdf="http://www.w3.org/1999/02/22-rdf-syntax-ns#">
   <cc:Work>
    <dc:type rdf:resource="http://purl.org/dc/dcmitype/StillImage"/>
    <dc:date>2021-09-09T11:31:16.697567</dc:date>
    <dc:format>image/svg+xml</dc:format>
    <dc:creator>
     <cc:Agent>
      <dc:title>Matplotlib v3.4.3, https://matplotlib.org/</dc:title>
     </cc:Agent>
    </dc:creator>
   </cc:Work>
  </rdf:RDF>
 </metadata>
 <defs>
  <style type="text/css">*{stroke-linecap:butt;stroke-linejoin:round;}</style>
 </defs>
 <g id="figure_1">
  <g id="patch_1">
   <path d="M 0 128.249687 
L 138.946875 128.249687 
L 138.946875 0 
L 0 0 
z
" style="fill:none;"/>
  </g>
  <g id="axes_1">
   <g id="patch_2">
    <path d="M 27.346875 108.72 
L 138.946875 108.72 
L 138.946875 0 
L 27.346875 0 
z
" style="fill:none;"/>
   </g>
   <g id="matplotlib.axis_1">
    <g id="xtick_1">
     <g id="line2d_1">
      <defs>
       <path d="M 0 0 
L 0 -3.5 
" id="m133131762f" style="stroke:#000000;stroke-width:0.5;"/>
      </defs>
      <g>
       <use style="stroke:#000000;stroke-width:0.5;" x="55.893974" xlink:href="#m133131762f" y="108.72"/>
      </g>
     </g>
     <g id="line2d_2">
      <defs>
       <path d="M 0 0 
L 0 3.5 
" id="mba2413969b" style="stroke:#000000;stroke-width:0.5;"/>
      </defs>
      <g>
       <use style="stroke:#000000;stroke-width:0.5;" x="55.893974" xlink:href="#mba2413969b" y="0"/>
      </g>
     </g>
     <g id="text_1">
      <text style="font-family:Arial;font-size:10px;font-stretch:normal;font-style:normal;font-weight:normal;text-anchor:middle;" transform="rotate(-0, 55.893974, 116.877812)" x="55.893974" y="116.877812">0</text>
     </g>
    </g>
    <g id="xtick_2">
     <g id="line2d_3">
      <g>
       <use style="stroke:#000000;stroke-width:0.5;" x="123.626692" xlink:href="#m133131762f" y="108.72"/>
      </g>
     </g>
     <g id="line2d_4">
      <g>
       <use style="stroke:#000000;stroke-width:0.5;" x="123.626692" xlink:href="#mba2413969b" y="0"/>
      </g>
     </g>
     <g id="text_2">
      <text style="font-family:Arial;font-size:10px;font-stretch:normal;font-style:normal;font-weight:normal;text-anchor:middle;" transform="rotate(-0, 123.626692, 116.877812)" x="123.626692" y="116.877812">2</text>
     </g>
    </g>
    <g id="xtick_3">
     <g id="line2d_5">
      <defs>
       <path d="M 0 0 
L 0 -2 
" id="md22a45d991" style="stroke:#000000;stroke-width:0.5;"/>
      </defs>
      <g>
       <use style="stroke:#000000;stroke-width:0.5;" x="38.960794" xlink:href="#md22a45d991" y="108.72"/>
      </g>
     </g>
     <g id="line2d_6">
      <defs>
       <path d="M 0 0 
L 0 2 
" id="m1bd3abc078" style="stroke:#000000;stroke-width:0.5;"/>
      </defs>
      <g>
       <use style="stroke:#000000;stroke-width:0.5;" x="38.960794" xlink:href="#m1bd3abc078" y="0"/>
      </g>
     </g>
    </g>
    <g id="xtick_4">
     <g id="line2d_7">
      <g>
       <use style="stroke:#000000;stroke-width:0.5;" x="72.827153" xlink:href="#md22a45d991" y="108.72"/>
      </g>
     </g>
     <g id="line2d_8">
      <g>
       <use style="stroke:#000000;stroke-width:0.5;" x="72.827153" xlink:href="#m1bd3abc078" y="0"/>
      </g>
     </g>
    </g>
    <g id="xtick_5">
     <g id="line2d_9">
      <g>
       <use style="stroke:#000000;stroke-width:0.5;" x="89.760333" xlink:href="#md22a45d991" y="108.72"/>
      </g>
     </g>
     <g id="line2d_10">
      <g>
       <use style="stroke:#000000;stroke-width:0.5;" x="89.760333" xlink:href="#m1bd3abc078" y="0"/>
      </g>
     </g>
    </g>
    <g id="xtick_6">
     <g id="line2d_11">
      <g>
       <use style="stroke:#000000;stroke-width:0.5;" x="106.693513" xlink:href="#md22a45d991" y="108.72"/>
      </g>
     </g>
     <g id="line2d_12">
      <g>
       <use style="stroke:#000000;stroke-width:0.5;" x="106.693513" xlink:href="#m1bd3abc078" y="0"/>
      </g>
     </g>
    </g>
    <g id="text_3">
     <text style="font-family:Arial;font-size:10px;font-stretch:normal;font-style:normal;font-weight:normal;text-anchor:middle;" transform="rotate(-0, 83.146875, 126.145)" x="83.146875" y="126.145">ln(V)</text>
    </g>
   </g>
   <g id="matplotlib.axis_2">
    <g id="ytick_1">
     <g id="line2d_13">
      <defs>
       <path d="M 0 0 
L 3.5 0 
" id="m31604510a8" style="stroke:#000000;stroke-width:0.5;"/>
      </defs>
      <g>
       <use style="stroke:#000000;stroke-width:0.5;" x="27.346875" xlink:href="#m31604510a8" y="80.804762"/>
      </g>
     </g>
     <g id="line2d_14">
      <defs>
       <path d="M 0 0 
L -3.5 0 
" id="mfb576dee65" style="stroke:#000000;stroke-width:0.5;"/>
      </defs>
      <g>
       <use style="stroke:#000000;stroke-width:0.5;" x="138.946875" xlink:href="#mfb576dee65" y="80.804762"/>
      </g>
     </g>
     <g id="text_4">
      <text style="font-family:Arial;font-size:10px;font-stretch:normal;font-style:normal;font-weight:normal;text-anchor:end;" transform="rotate(-0, 26.346875, 84.383668)" x="26.346875" y="84.383668">−18</text>
     </g>
    </g>
    <g id="ytick_2">
     <g id="line2d_15">
      <g>
       <use style="stroke:#000000;stroke-width:0.5;" x="27.346875" xlink:href="#m31604510a8" y="43.894486"/>
      </g>
     </g>
     <g id="line2d_16">
      <g>
       <use style="stroke:#000000;stroke-width:0.5;" x="138.946875" xlink:href="#mfb576dee65" y="43.894486"/>
      </g>
     </g>
     <g id="text_5">
      <text style="font-family:Arial;font-size:10px;font-stretch:normal;font-style:normal;font-weight:normal;text-anchor:end;" transform="rotate(-0, 26.346875, 47.473392)" x="26.346875" y="47.473392">−16</text>
     </g>
    </g>
    <g id="ytick_3">
     <g id="line2d_17">
      <g>
       <use style="stroke:#000000;stroke-width:0.5;" x="27.346875" xlink:href="#m31604510a8" y="6.98421"/>
      </g>
     </g>
     <g id="line2d_18">
      <g>
       <use style="stroke:#000000;stroke-width:0.5;" x="138.946875" xlink:href="#mfb576dee65" y="6.98421"/>
      </g>
     </g>
     <g id="text_6">
      <text style="font-family:Arial;font-size:10px;font-stretch:normal;font-style:normal;font-weight:normal;text-anchor:end;" transform="rotate(-0, 26.346875, 10.563116)" x="26.346875" y="10.563116">−14</text>
     </g>
    </g>
    <g id="ytick_4">
     <g id="line2d_19">
      <defs>
       <path d="M 0 0 
L 2 0 
" id="md706b22152" style="stroke:#000000;stroke-width:0.5;"/>
      </defs>
      <g>
       <use style="stroke:#000000;stroke-width:0.5;" x="27.346875" xlink:href="#md706b22152" y="108.487469"/>
      </g>
     </g>
     <g id="line2d_20">
      <defs>
       <path d="M 0 0 
L -2 0 
" id="mcebc209cce" style="stroke:#000000;stroke-width:0.5;"/>
      </defs>
      <g>
       <use style="stroke:#000000;stroke-width:0.5;" x="138.946875" xlink:href="#mcebc209cce" y="108.487469"/>
      </g>
     </g>
    </g>
    <g id="ytick_5">
     <g id="line2d_21">
      <g>
       <use style="stroke:#000000;stroke-width:0.5;" x="27.346875" xlink:href="#md706b22152" y="99.2599"/>
      </g>
     </g>
     <g id="line2d_22">
      <g>
       <use style="stroke:#000000;stroke-width:0.5;" x="138.946875" xlink:href="#mcebc209cce" y="99.2599"/>
      </g>
     </g>
    </g>
    <g id="ytick_6">
     <g id="line2d_23">
      <g>
       <use style="stroke:#000000;stroke-width:0.5;" x="27.346875" xlink:href="#md706b22152" y="90.032331"/>
      </g>
     </g>
     <g id="line2d_24">
      <g>
       <use style="stroke:#000000;stroke-width:0.5;" x="138.946875" xlink:href="#mcebc209cce" y="90.032331"/>
      </g>
     </g>
    </g>
    <g id="ytick_7">
     <g id="line2d_25">
      <g>
       <use style="stroke:#000000;stroke-width:0.5;" x="27.346875" xlink:href="#md706b22152" y="71.577193"/>
      </g>
     </g>
     <g id="line2d_26">
      <g>
       <use style="stroke:#000000;stroke-width:0.5;" x="138.946875" xlink:href="#mcebc209cce" y="71.577193"/>
      </g>
     </g>
    </g>
    <g id="ytick_8">
     <g id="line2d_27">
      <g>
       <use style="stroke:#000000;stroke-width:0.5;" x="27.346875" xlink:href="#md706b22152" y="62.349624"/>
      </g>
     </g>
     <g id="line2d_28">
      <g>
       <use style="stroke:#000000;stroke-width:0.5;" x="138.946875" xlink:href="#mcebc209cce" y="62.349624"/>
      </g>
     </g>
    </g>
    <g id="ytick_9">
     <g id="line2d_29">
      <g>
       <use style="stroke:#000000;stroke-width:0.5;" x="27.346875" xlink:href="#md706b22152" y="53.122055"/>
      </g>
     </g>
     <g id="line2d_30">
      <g>
       <use style="stroke:#000000;stroke-width:0.5;" x="138.946875" xlink:href="#mcebc209cce" y="53.122055"/>
      </g>
     </g>
    </g>
    <g id="ytick_10">
     <g id="line2d_31">
      <g>
       <use style="stroke:#000000;stroke-width:0.5;" x="27.346875" xlink:href="#md706b22152" y="34.666917"/>
      </g>
     </g>
     <g id="line2d_32">
      <g>
       <use style="stroke:#000000;stroke-width:0.5;" x="138.946875" xlink:href="#mcebc209cce" y="34.666917"/>
      </g>
     </g>
    </g>
    <g id="ytick_11">
     <g id="line2d_33">
      <g>
       <use style="stroke:#000000;stroke-width:0.5;" x="27.346875" xlink:href="#md706b22152" y="25.439348"/>
      </g>
     </g>
     <g id="line2d_34">
      <g>
       <use style="stroke:#000000;stroke-width:0.5;" x="138.946875" xlink:href="#mcebc209cce" y="25.439348"/>
      </g>
     </g>
    </g>
    <g id="ytick_12">
     <g id="line2d_35">
      <g>
       <use style="stroke:#000000;stroke-width:0.5;" x="27.346875" xlink:href="#md706b22152" y="16.211779"/>
      </g>
     </g>
     <g id="line2d_36">
      <g>
       <use style="stroke:#000000;stroke-width:0.5;" x="138.946875" xlink:href="#mcebc209cce" y="16.211779"/>
      </g>
     </g>
    </g>
    <g id="text_7">
     <text style="font-family:Arial;font-size:10px;font-stretch:normal;font-style:normal;font-weight:normal;text-anchor:middle;" transform="rotate(-90, 7.279688, 54.36)" x="7.279688" y="54.36">ln(I)</text>
    </g>
   </g>
   <g id="line2d_37">
    <path clip-path="url(#p3490efb40d)" d="M 32.419602 58.429573 
L 55.893974 46.148729 
L 69.625601 39.754867 
L 79.368345 35.536062 
L 86.925405 31.637273 
L 93.099972 28.121793 
L 98.320494 25.265671 
L 102.842717 22.577047 
L 106.831599 20.564813 
L 110.399776 18.372049 
L 113.627585 16.468845 
L 116.574344 14.806066 
L 119.285099 13.041655 
L 121.794866 11.52317 
L 124.131403 10.165471 
L 126.317088 8.789244 
L 128.370223 7.986955 
L 130.305971 6.734541 
L 132.137031 5.721155 
L 133.874148 4.941818 
" style="fill:none;stroke:#377eb8;stroke-linecap:square;stroke-width:1.5;"/>
    <defs>
     <path d="M 0 0.75 
C 0.198902 0.75 0.389685 0.670975 0.53033 0.53033 
C 0.670975 0.389685 0.75 0.198902 0.75 0 
C 0.75 -0.198902 0.670975 -0.389685 0.53033 -0.53033 
C 0.389685 -0.670975 0.198902 -0.75 0 -0.75 
C -0.198902 -0.75 -0.389685 -0.670975 -0.53033 -0.53033 
C -0.670975 -0.389685 -0.75 -0.198902 -0.75 0 
C -0.75 0.198902 -0.670975 0.389685 -0.53033 0.53033 
C -0.389685 0.670975 -0.198902 0.75 0 0.75 
z
" id="ma33583a5a5" style="stroke:#377eb8;"/>
    </defs>
    <g clip-path="url(#p3490efb40d)">
     <use style="fill:#377eb8;stroke:#377eb8;" x="32.419602" xlink:href="#ma33583a5a5" y="58.429573"/>
     <use style="fill:#377eb8;stroke:#377eb8;" x="55.893974" xlink:href="#ma33583a5a5" y="46.148729"/>
     <use style="fill:#377eb8;stroke:#377eb8;" x="69.625601" xlink:href="#ma33583a5a5" y="39.754867"/>
     <use style="fill:#377eb8;stroke:#377eb8;" x="79.368345" xlink:href="#ma33583a5a5" y="35.536062"/>
     <use style="fill:#377eb8;stroke:#377eb8;" x="86.925405" xlink:href="#ma33583a5a5" y="31.637273"/>
     <use style="fill:#377eb8;stroke:#377eb8;" x="93.099972" xlink:href="#ma33583a5a5" y="28.121793"/>
     <use style="fill:#377eb8;stroke:#377eb8;" x="98.320494" xlink:href="#ma33583a5a5" y="25.265671"/>
     <use style="fill:#377eb8;stroke:#377eb8;" x="102.842717" xlink:href="#ma33583a5a5" y="22.577047"/>
     <use style="fill:#377eb8;stroke:#377eb8;" x="106.831599" xlink:href="#ma33583a5a5" y="20.564813"/>
     <use style="fill:#377eb8;stroke:#377eb8;" x="110.399776" xlink:href="#ma33583a5a5" y="18.372049"/>
     <use style="fill:#377eb8;stroke:#377eb8;" x="113.627585" xlink:href="#ma33583a5a5" y="16.468845"/>
     <use style="fill:#377eb8;stroke:#377eb8;" x="116.574344" xlink:href="#ma33583a5a5" y="14.806066"/>
     <use style="fill:#377eb8;stroke:#377eb8;" x="119.285099" xlink:href="#ma33583a5a5" y="13.041655"/>
     <use style="fill:#377eb8;stroke:#377eb8;" x="121.794866" xlink:href="#ma33583a5a5" y="11.52317"/>
     <use style="fill:#377eb8;stroke:#377eb8;" x="124.131403" xlink:href="#ma33583a5a5" y="10.165471"/>
     <use style="fill:#377eb8;stroke:#377eb8;" x="126.317088" xlink:href="#ma33583a5a5" y="8.789244"/>
     <use style="fill:#377eb8;stroke:#377eb8;" x="128.370223" xlink:href="#ma33583a5a5" y="7.986955"/>
     <use style="fill:#377eb8;stroke:#377eb8;" x="130.305971" xlink:href="#ma33583a5a5" y="6.734541"/>
     <use style="fill:#377eb8;stroke:#377eb8;" x="132.137031" xlink:href="#ma33583a5a5" y="5.721155"/>
     <use style="fill:#377eb8;stroke:#377eb8;" x="133.874148" xlink:href="#ma33583a5a5" y="4.941818"/>
    </g>
   </g>
   <g id="line2d_38">
    <path clip-path="url(#p3490efb40d)" d="M 133.874148 5.404527 
L 132.137031 6.333857 
L 130.305971 7.313445 
L 128.370223 8.349039 
L 126.317088 9.447434 
L 124.131403 10.616741 
L 121.794866 11.866752 
L 119.285099 13.209437 
L 116.574344 14.659648 
L 113.627585 16.236118 
L 110.399776 17.962944 
L 106.831599 19.871863 
L 102.842717 22.005852 
L 98.320494 24.425169 
L 93.099972 27.218066 
L 86.925405 30.521362 
L 79.368345 34.564269 
L 69.625601 39.776483 
L 55.893974 47.122687 
L 32.419602 59.681104 
" style="fill:none;stroke:#000000;stroke-linecap:square;"/>
   </g>
   <g id="line2d_39">
    <path clip-path="url(#p3490efb40d)" d="M 32.419602 76.642677 
L 55.893974 64.747511 
L 69.625601 59.192915 
L 79.368345 55.143036 
L 86.925405 49.810293 
L 93.099972 45.539803 
L 98.320494 42.350918 
L 102.842717 38.929692 
L 106.831599 36.279794 
L 110.399776 33.635387 
L 113.627585 31.363739 
L 116.574344 29.389344 
L 119.285099 27.34559 
L 121.794866 25.419106 
L 124.131403 23.353089 
L 126.317088 22.054071 
L 128.370223 20.094567 
L 130.305971 18.444449 
L 132.137031 17.005709 
L 133.874148 15.819751 
" style="fill:none;stroke:#999999;stroke-linecap:square;stroke-width:1.5;"/>
    <defs>
     <path d="M 0 0.75 
C 0.198902 0.75 0.389685 0.670975 0.53033 0.53033 
C 0.670975 0.389685 0.75 0.198902 0.75 0 
C 0.75 -0.198902 0.670975 -0.389685 0.53033 -0.53033 
C 0.389685 -0.670975 0.198902 -0.75 0 -0.75 
C -0.198902 -0.75 -0.389685 -0.670975 -0.53033 -0.53033 
C -0.670975 -0.389685 -0.75 -0.198902 -0.75 0 
C -0.75 0.198902 -0.670975 0.389685 -0.53033 0.53033 
C -0.389685 0.670975 -0.198902 0.75 0 0.75 
z
" id="me256ef97f7" style="stroke:#999999;"/>
    </defs>
    <g clip-path="url(#p3490efb40d)">
     <use style="fill:#999999;stroke:#999999;" x="32.419602" xlink:href="#me256ef97f7" y="76.642677"/>
     <use style="fill:#999999;stroke:#999999;" x="55.893974" xlink:href="#me256ef97f7" y="64.747511"/>
     <use style="fill:#999999;stroke:#999999;" x="69.625601" xlink:href="#me256ef97f7" y="59.192915"/>
     <use style="fill:#999999;stroke:#999999;" x="79.368345" xlink:href="#me256ef97f7" y="55.143036"/>
     <use style="fill:#999999;stroke:#999999;" x="86.925405" xlink:href="#me256ef97f7" y="49.810293"/>
     <use style="fill:#999999;stroke:#999999;" x="93.099972" xlink:href="#me256ef97f7" y="45.539803"/>
     <use style="fill:#999999;stroke:#999999;" x="98.320494" xlink:href="#me256ef97f7" y="42.350918"/>
     <use style="fill:#999999;stroke:#999999;" x="102.842717" xlink:href="#me256ef97f7" y="38.929692"/>
     <use style="fill:#999999;stroke:#999999;" x="106.831599" xlink:href="#me256ef97f7" y="36.279794"/>
     <use style="fill:#999999;stroke:#999999;" x="110.399776" xlink:href="#me256ef97f7" y="33.635387"/>
     <use style="fill:#999999;stroke:#999999;" x="113.627585" xlink:href="#me256ef97f7" y="31.363739"/>
     <use style="fill:#999999;stroke:#999999;" x="116.574344" xlink:href="#me256ef97f7" y="29.389344"/>
     <use style="fill:#999999;stroke:#999999;" x="119.285099" xlink:href="#me256ef97f7" y="27.34559"/>
     <use style="fill:#999999;stroke:#999999;" x="121.794866" xlink:href="#me256ef97f7" y="25.419106"/>
     <use style="fill:#999999;stroke:#999999;" x="124.131403" xlink:href="#me256ef97f7" y="23.353089"/>
     <use style="fill:#999999;stroke:#999999;" x="126.317088" xlink:href="#me256ef97f7" y="22.054071"/>
     <use style="fill:#999999;stroke:#999999;" x="128.370223" xlink:href="#me256ef97f7" y="20.094567"/>
     <use style="fill:#999999;stroke:#999999;" x="130.305971" xlink:href="#me256ef97f7" y="18.444449"/>
     <use style="fill:#999999;stroke:#999999;" x="132.137031" xlink:href="#me256ef97f7" y="17.005709"/>
     <use style="fill:#999999;stroke:#999999;" x="133.874148" xlink:href="#me256ef97f7" y="15.819751"/>
    </g>
   </g>
   <g id="line2d_40">
    <path clip-path="url(#p3490efb40d)" d="M 133.874148 17.343261 
L 132.137031 18.491284 
L 130.305971 19.701393 
L 128.370223 20.980687 
L 126.317088 22.33756 
L 124.131403 23.782032 
L 121.794866 25.3262 
L 119.285099 26.984851 
L 116.574344 28.776331 
L 113.627585 30.723781 
L 110.399776 32.85697 
L 106.831599 35.215102 
L 102.842717 37.851269 
L 98.320494 40.839909 
L 93.099972 44.29004 
L 86.925405 48.37068 
L 79.368345 53.364978 
L 69.625601 59.80375 
L 55.893974 68.878688 
" style="fill:none;stroke:#000000;stroke-linecap:square;"/>
   </g>
   <g id="line2d_41">
    <path clip-path="url(#p3490efb40d)" d="M 32.419602 85.949688 
L 55.893974 74.614444 
L 69.625601 69.845297 
L 79.368345 64.886743 
L 86.925405 59.587072 
L 93.099972 55.079112 
L 98.320494 50.634509 
L 102.842717 47.154695 
L 106.831599 43.136138 
L 110.399776 40.551406 
L 113.627585 38.507854 
L 116.574344 36.284092 
L 119.285099 34.126397 
L 121.794866 32.087742 
L 124.131403 30.116457 
L 126.317088 28.549363 
L 128.370223 26.981694 
L 130.305971 25.344678 
L 132.137031 23.826612 
L 133.874148 22.17234 
" style="fill:none;stroke:#4daf4a;stroke-linecap:square;stroke-width:1.5;"/>
    <defs>
     <path d="M 0 0.75 
C 0.198902 0.75 0.389685 0.670975 0.53033 0.53033 
C 0.670975 0.389685 0.75 0.198902 0.75 0 
C 0.75 -0.198902 0.670975 -0.389685 0.53033 -0.53033 
C 0.389685 -0.670975 0.198902 -0.75 0 -0.75 
C -0.198902 -0.75 -0.389685 -0.670975 -0.53033 -0.53033 
C -0.670975 -0.389685 -0.75 -0.198902 -0.75 0 
C -0.75 0.198902 -0.670975 0.389685 -0.53033 0.53033 
C -0.389685 0.670975 -0.198902 0.75 0 0.75 
z
" id="me1ebe6b36d" style="stroke:#4daf4a;"/>
    </defs>
    <g clip-path="url(#p3490efb40d)">
     <use style="fill:#4daf4a;stroke:#4daf4a;" x="32.419602" xlink:href="#me1ebe6b36d" y="85.949688"/>
     <use style="fill:#4daf4a;stroke:#4daf4a;" x="55.893974" xlink:href="#me1ebe6b36d" y="74.614444"/>
     <use style="fill:#4daf4a;stroke:#4daf4a;" x="69.625601" xlink:href="#me1ebe6b36d" y="69.845297"/>
     <use style="fill:#4daf4a;stroke:#4daf4a;" x="79.368345" xlink:href="#me1ebe6b36d" y="64.886743"/>
     <use style="fill:#4daf4a;stroke:#4daf4a;" x="86.925405" xlink:href="#me1ebe6b36d" y="59.587072"/>
     <use style="fill:#4daf4a;stroke:#4daf4a;" x="93.099972" xlink:href="#me1ebe6b36d" y="55.079112"/>
     <use style="fill:#4daf4a;stroke:#4daf4a;" x="98.320494" xlink:href="#me1ebe6b36d" y="50.634509"/>
     <use style="fill:#4daf4a;stroke:#4daf4a;" x="102.842717" xlink:href="#me1ebe6b36d" y="47.154695"/>
     <use style="fill:#4daf4a;stroke:#4daf4a;" x="106.831599" xlink:href="#me1ebe6b36d" y="43.136138"/>
     <use style="fill:#4daf4a;stroke:#4daf4a;" x="110.399776" xlink:href="#me1ebe6b36d" y="40.551406"/>
     <use style="fill:#4daf4a;stroke:#4daf4a;" x="113.627585" xlink:href="#me1ebe6b36d" y="38.507854"/>
     <use style="fill:#4daf4a;stroke:#4daf4a;" x="116.574344" xlink:href="#me1ebe6b36d" y="36.284092"/>
     <use style="fill:#4daf4a;stroke:#4daf4a;" x="119.285099" xlink:href="#me1ebe6b36d" y="34.126397"/>
     <use style="fill:#4daf4a;stroke:#4daf4a;" x="121.794866" xlink:href="#me1ebe6b36d" y="32.087742"/>
     <use style="fill:#4daf4a;stroke:#4daf4a;" x="124.131403" xlink:href="#me1ebe6b36d" y="30.116457"/>
     <use style="fill:#4daf4a;stroke:#4daf4a;" x="126.317088" xlink:href="#me1ebe6b36d" y="28.549363"/>
     <use style="fill:#4daf4a;stroke:#4daf4a;" x="128.370223" xlink:href="#me1ebe6b36d" y="26.981694"/>
     <use style="fill:#4daf4a;stroke:#4daf4a;" x="130.305971" xlink:href="#me1ebe6b36d" y="25.344678"/>
     <use style="fill:#4daf4a;stroke:#4daf4a;" x="132.137031" xlink:href="#me1ebe6b36d" y="23.826612"/>
     <use style="fill:#4daf4a;stroke:#4daf4a;" x="133.874148" xlink:href="#me1ebe6b36d" y="22.17234"/>
    </g>
   </g>
   <g id="line2d_42">
    <path clip-path="url(#p3490efb40d)" d="M 133.874148 22.8157 
L 132.137031 24.144694 
L 130.305971 25.54556 
L 128.370223 27.026517 
L 126.317088 28.597283 
L 124.131403 30.269457 
L 121.794866 32.057042 
L 119.285099 33.977158 
L 116.574344 36.051041 
L 113.627585 38.30548 
L 110.399776 40.774938 
L 106.831599 43.504798 
L 102.842717 46.556521 
L 98.320494 50.01628 
L 93.099972 54.010279 
L 86.925405 58.734176 
L 79.368345 64.51576 
L 69.625601 71.969517 
" style="fill:none;stroke:#000000;stroke-linecap:square;"/>
   </g>
   <g id="line2d_43">
    <path clip-path="url(#p3490efb40d)" d="M 32.419602 92.906156 
L 55.893974 81.579617 
L 69.625601 76.195285 
L 79.368345 72.051432 
L 86.925405 66.870981 
L 93.099972 62.080797 
L 98.320494 57.287983 
L 102.842717 53.226251 
L 106.831599 49.653798 
L 110.399776 46.706916 
L 113.627585 43.514319 
L 116.574344 41.852755 
L 119.285099 40.014059 
L 121.794866 37.943759 
L 124.131403 35.958025 
L 126.317088 34.331333 
L 128.370223 32.784105 
L 130.305971 31.314815 
L 132.137031 29.814237 
L 133.874148 28.632233 
" style="fill:none;stroke:#a65628;stroke-linecap:square;stroke-width:1.5;"/>
    <defs>
     <path d="M 0 0.75 
C 0.198902 0.75 0.389685 0.670975 0.53033 0.53033 
C 0.670975 0.389685 0.75 0.198902 0.75 0 
C 0.75 -0.198902 0.670975 -0.389685 0.53033 -0.53033 
C 0.389685 -0.670975 0.198902 -0.75 0 -0.75 
C -0.198902 -0.75 -0.389685 -0.670975 -0.53033 -0.53033 
C -0.670975 -0.389685 -0.75 -0.198902 -0.75 0 
C -0.75 0.198902 -0.670975 0.389685 -0.53033 0.53033 
C -0.389685 0.670975 -0.198902 0.75 0 0.75 
z
" id="m2d3608e03e" style="stroke:#a65628;"/>
    </defs>
    <g clip-path="url(#p3490efb40d)">
     <use style="fill:#a65628;stroke:#a65628;" x="32.419602" xlink:href="#m2d3608e03e" y="92.906156"/>
     <use style="fill:#a65628;stroke:#a65628;" x="55.893974" xlink:href="#m2d3608e03e" y="81.579617"/>
     <use style="fill:#a65628;stroke:#a65628;" x="69.625601" xlink:href="#m2d3608e03e" y="76.195285"/>
     <use style="fill:#a65628;stroke:#a65628;" x="79.368345" xlink:href="#m2d3608e03e" y="72.051432"/>
     <use style="fill:#a65628;stroke:#a65628;" x="86.925405" xlink:href="#m2d3608e03e" y="66.870981"/>
     <use style="fill:#a65628;stroke:#a65628;" x="93.099972" xlink:href="#m2d3608e03e" y="62.080797"/>
     <use style="fill:#a65628;stroke:#a65628;" x="98.320494" xlink:href="#m2d3608e03e" y="57.287983"/>
     <use style="fill:#a65628;stroke:#a65628;" x="102.842717" xlink:href="#m2d3608e03e" y="53.226251"/>
     <use style="fill:#a65628;stroke:#a65628;" x="106.831599" xlink:href="#m2d3608e03e" y="49.653798"/>
     <use style="fill:#a65628;stroke:#a65628;" x="110.399776" xlink:href="#m2d3608e03e" y="46.706916"/>
     <use style="fill:#a65628;stroke:#a65628;" x="113.627585" xlink:href="#m2d3608e03e" y="43.514319"/>
     <use style="fill:#a65628;stroke:#a65628;" x="116.574344" xlink:href="#m2d3608e03e" y="41.852755"/>
     <use style="fill:#a65628;stroke:#a65628;" x="119.285099" xlink:href="#m2d3608e03e" y="40.014059"/>
     <use style="fill:#a65628;stroke:#a65628;" x="121.794866" xlink:href="#m2d3608e03e" y="37.943759"/>
     <use style="fill:#a65628;stroke:#a65628;" x="124.131403" xlink:href="#m2d3608e03e" y="35.958025"/>
     <use style="fill:#a65628;stroke:#a65628;" x="126.317088" xlink:href="#m2d3608e03e" y="34.331333"/>
     <use style="fill:#a65628;stroke:#a65628;" x="128.370223" xlink:href="#m2d3608e03e" y="32.784105"/>
     <use style="fill:#a65628;stroke:#a65628;" x="130.305971" xlink:href="#m2d3608e03e" y="31.314815"/>
     <use style="fill:#a65628;stroke:#a65628;" x="132.137031" xlink:href="#m2d3608e03e" y="29.814237"/>
     <use style="fill:#a65628;stroke:#a65628;" x="133.874148" xlink:href="#m2d3608e03e" y="28.632233"/>
    </g>
   </g>
   <g id="line2d_44">
    <path clip-path="url(#p3490efb40d)" d="M 133.874148 28.560833 
L 132.137031 29.923026 
L 130.305971 31.358886 
L 128.370223 32.876838 
L 126.317088 34.486842 
L 124.131403 36.200788 
L 121.794866 38.033027 
L 119.285099 40.001108 
L 116.574344 42.126797 
L 113.627585 44.437553 
L 110.399776 46.968699 
L 106.831599 49.766752 
L 102.842717 52.894708 
L 98.320494 56.440893 
L 93.099972 60.534663 
L 86.925405 65.376565 
L 79.368345 71.302575 
L 69.625601 78.942529 
" style="fill:none;stroke:#000000;stroke-linecap:square;"/>
   </g>
   <g id="line2d_45">
    <path clip-path="url(#p3490efb40d)" d="M 32.419602 97.252145 
L 55.893974 85.113609 
L 69.625601 80.681966 
L 79.368345 75.903117 
L 86.925405 71.985118 
L 93.099972 67.426639 
L 98.320494 62.093057 
L 102.842717 57.961483 
L 106.831599 54.283694 
L 110.399776 51.525225 
L 113.627585 49.048883 
L 116.574344 46.935737 
L 119.285099 44.801834 
L 121.794866 43.228021 
L 124.131403 41.574166 
L 126.317088 40.342019 
L 128.370223 39.119306 
L 130.305971 37.885651 
L 132.137031 36.540451 
L 133.874148 35.525029 
" style="fill:none;stroke:#984ea3;stroke-linecap:square;stroke-width:1.5;"/>
    <defs>
     <path d="M 0 0.75 
C 0.198902 0.75 0.389685 0.670975 0.53033 0.53033 
C 0.670975 0.389685 0.75 0.198902 0.75 0 
C 0.75 -0.198902 0.670975 -0.389685 0.53033 -0.53033 
C 0.389685 -0.670975 0.198902 -0.75 0 -0.75 
C -0.198902 -0.75 -0.389685 -0.670975 -0.53033 -0.53033 
C -0.670975 -0.389685 -0.75 -0.198902 -0.75 0 
C -0.75 0.198902 -0.670975 0.389685 -0.53033 0.53033 
C -0.389685 0.670975 -0.198902 0.75 0 0.75 
z
" id="m1195e0a45f" style="stroke:#984ea3;"/>
    </defs>
    <g clip-path="url(#p3490efb40d)">
     <use style="fill:#984ea3;stroke:#984ea3;" x="32.419602" xlink:href="#m1195e0a45f" y="97.252145"/>
     <use style="fill:#984ea3;stroke:#984ea3;" x="55.893974" xlink:href="#m1195e0a45f" y="85.113609"/>
     <use style="fill:#984ea3;stroke:#984ea3;" x="69.625601" xlink:href="#m1195e0a45f" y="80.681966"/>
     <use style="fill:#984ea3;stroke:#984ea3;" x="79.368345" xlink:href="#m1195e0a45f" y="75.903117"/>
     <use style="fill:#984ea3;stroke:#984ea3;" x="86.925405" xlink:href="#m1195e0a45f" y="71.985118"/>
     <use style="fill:#984ea3;stroke:#984ea3;" x="93.099972" xlink:href="#m1195e0a45f" y="67.426639"/>
     <use style="fill:#984ea3;stroke:#984ea3;" x="98.320494" xlink:href="#m1195e0a45f" y="62.093057"/>
     <use style="fill:#984ea3;stroke:#984ea3;" x="102.842717" xlink:href="#m1195e0a45f" y="57.961483"/>
     <use style="fill:#984ea3;stroke:#984ea3;" x="106.831599" xlink:href="#m1195e0a45f" y="54.283694"/>
     <use style="fill:#984ea3;stroke:#984ea3;" x="110.399776" xlink:href="#m1195e0a45f" y="51.525225"/>
     <use style="fill:#984ea3;stroke:#984ea3;" x="113.627585" xlink:href="#m1195e0a45f" y="49.048883"/>
     <use style="fill:#984ea3;stroke:#984ea3;" x="116.574344" xlink:href="#m1195e0a45f" y="46.935737"/>
     <use style="fill:#984ea3;stroke:#984ea3;" x="119.285099" xlink:href="#m1195e0a45f" y="44.801834"/>
     <use style="fill:#984ea3;stroke:#984ea3;" x="121.794866" xlink:href="#m1195e0a45f" y="43.228021"/>
     <use style="fill:#984ea3;stroke:#984ea3;" x="124.131403" xlink:href="#m1195e0a45f" y="41.574166"/>
     <use style="fill:#984ea3;stroke:#984ea3;" x="126.317088" xlink:href="#m1195e0a45f" y="40.342019"/>
     <use style="fill:#984ea3;stroke:#984ea3;" x="128.370223" xlink:href="#m1195e0a45f" y="39.119306"/>
     <use style="fill:#984ea3;stroke:#984ea3;" x="130.305971" xlink:href="#m1195e0a45f" y="37.885651"/>
     <use style="fill:#984ea3;stroke:#984ea3;" x="132.137031" xlink:href="#m1195e0a45f" y="36.540451"/>
     <use style="fill:#984ea3;stroke:#984ea3;" x="133.874148" xlink:href="#m1195e0a45f" y="35.525029"/>
    </g>
   </g>
   <g id="line2d_46">
    <path clip-path="url(#p3490efb40d)" d="M 133.874148 34.744945 
L 132.137031 36.0458 
L 130.305971 37.417004 
L 128.370223 38.866605 
L 126.317088 40.404112 
L 124.131403 42.04088 
L 121.794866 43.790615 
L 119.285099 45.670075 
L 116.574344 47.700046 
L 113.627585 49.906751 
L 110.399776 52.323922 
L 106.831599 54.995981 
L 102.842717 57.983088 
L 98.320494 61.369591 
L 93.099972 65.279022 
L 86.925405 69.902898 
L 79.368345 75.562064 
L 69.625601 82.857999 
" style="fill:none;stroke:#000000;stroke-linecap:square;"/>
   </g>
   <g id="line2d_47">
    <path clip-path="url(#p3490efb40d)" d="M 32.419602 101.759625 
L 55.893974 88.853732 
L 69.625601 82.440076 
L 79.368345 78.743723 
L 86.925405 74.750586 
L 93.099972 70.587476 
L 98.320494 66.162266 
L 102.842717 61.396496 
L 106.831599 58.067322 
L 110.399776 55.363147 
L 113.627585 52.856327 
L 116.574344 50.83795 
L 119.285099 49.023292 
L 121.794866 47.45072 
L 124.131403 45.373505 
L 126.317088 44.25368 
L 128.370223 43.133386 
L 130.305971 41.879487 
L 132.137031 40.775637 
L 133.874148 39.515195 
" style="fill:none;stroke:#ff7f00;stroke-linecap:square;stroke-width:1.5;"/>
    <defs>
     <path d="M 0 0.75 
C 0.198902 0.75 0.389685 0.670975 0.53033 0.53033 
C 0.670975 0.389685 0.75 0.198902 0.75 0 
C 0.75 -0.198902 0.670975 -0.389685 0.53033 -0.53033 
C 0.389685 -0.670975 0.198902 -0.75 0 -0.75 
C -0.198902 -0.75 -0.389685 -0.670975 -0.53033 -0.53033 
C -0.670975 -0.389685 -0.75 -0.198902 -0.75 0 
C -0.75 0.198902 -0.670975 0.389685 -0.53033 0.53033 
C -0.389685 0.670975 -0.198902 0.75 0 0.75 
z
" id="ma09f6bc9b3" style="stroke:#ff7f00;"/>
    </defs>
    <g clip-path="url(#p3490efb40d)">
     <use style="fill:#ff7f00;stroke:#ff7f00;" x="32.419602" xlink:href="#ma09f6bc9b3" y="101.759625"/>
     <use style="fill:#ff7f00;stroke:#ff7f00;" x="55.893974" xlink:href="#ma09f6bc9b3" y="88.853732"/>
     <use style="fill:#ff7f00;stroke:#ff7f00;" x="69.625601" xlink:href="#ma09f6bc9b3" y="82.440076"/>
     <use style="fill:#ff7f00;stroke:#ff7f00;" x="79.368345" xlink:href="#ma09f6bc9b3" y="78.743723"/>
     <use style="fill:#ff7f00;stroke:#ff7f00;" x="86.925405" xlink:href="#ma09f6bc9b3" y="74.750586"/>
     <use style="fill:#ff7f00;stroke:#ff7f00;" x="93.099972" xlink:href="#ma09f6bc9b3" y="70.587476"/>
     <use style="fill:#ff7f00;stroke:#ff7f00;" x="98.320494" xlink:href="#ma09f6bc9b3" y="66.162266"/>
     <use style="fill:#ff7f00;stroke:#ff7f00;" x="102.842717" xlink:href="#ma09f6bc9b3" y="61.396496"/>
     <use style="fill:#ff7f00;stroke:#ff7f00;" x="106.831599" xlink:href="#ma09f6bc9b3" y="58.067322"/>
     <use style="fill:#ff7f00;stroke:#ff7f00;" x="110.399776" xlink:href="#ma09f6bc9b3" y="55.363147"/>
     <use style="fill:#ff7f00;stroke:#ff7f00;" x="113.627585" xlink:href="#ma09f6bc9b3" y="52.856327"/>
     <use style="fill:#ff7f00;stroke:#ff7f00;" x="116.574344" xlink:href="#ma09f6bc9b3" y="50.83795"/>
     <use style="fill:#ff7f00;stroke:#ff7f00;" x="119.285099" xlink:href="#ma09f6bc9b3" y="49.023292"/>
     <use style="fill:#ff7f00;stroke:#ff7f00;" x="121.794866" xlink:href="#ma09f6bc9b3" y="47.45072"/>
     <use style="fill:#ff7f00;stroke:#ff7f00;" x="124.131403" xlink:href="#ma09f6bc9b3" y="45.373505"/>
     <use style="fill:#ff7f00;stroke:#ff7f00;" x="126.317088" xlink:href="#ma09f6bc9b3" y="44.25368"/>
     <use style="fill:#ff7f00;stroke:#ff7f00;" x="128.370223" xlink:href="#ma09f6bc9b3" y="43.133386"/>
     <use style="fill:#ff7f00;stroke:#ff7f00;" x="130.305971" xlink:href="#ma09f6bc9b3" y="41.879487"/>
     <use style="fill:#ff7f00;stroke:#ff7f00;" x="132.137031" xlink:href="#ma09f6bc9b3" y="40.775637"/>
     <use style="fill:#ff7f00;stroke:#ff7f00;" x="133.874148" xlink:href="#ma09f6bc9b3" y="39.515195"/>
    </g>
   </g>
   <g id="line2d_48">
    <path clip-path="url(#p3490efb40d)" d="M 133.874148 39.081761 
L 132.137031 40.331184 
L 130.305971 41.648175 
L 128.370223 43.040463 
L 126.317088 44.517182 
L 124.131403 46.089238 
L 121.794866 47.769794 
L 119.285099 49.574947 
L 116.574344 51.524659 
L 113.627585 53.644118 
L 110.399776 55.965722 
L 106.831599 58.532137 
L 102.842717 61.401144 
L 98.320494 64.653756 
L 93.099972 68.408621 
L 86.925405 72.849684 
L 79.368345 78.285105 
L 69.625601 85.292582 
" style="fill:none;stroke:#000000;stroke-linecap:square;"/>
   </g>
   <g id="line2d_49">
    <path clip-path="url(#p3490efb40d)" d="M 32.419602 103.778182 
L 55.893974 91.661208 
L 69.625601 86.268697 
L 79.368345 81.117773 
L 86.925405 78.627047 
L 93.099972 74.585903 
L 98.320494 69.685983 
L 102.842717 64.83726 
L 106.831599 61.308172 
L 110.399776 58.002049 
L 113.627585 55.393485 
L 116.574344 53.474238 
L 119.285099 51.588241 
L 121.794866 49.886964 
L 124.131403 48.44912 
L 126.317088 47.00434 
L 128.370223 45.123929 
L 130.305971 44.38378 
L 132.137031 43.037262 
L 133.874148 42.022098 
" style="fill:none;stroke:#e41a1c;stroke-linecap:square;stroke-width:1.5;"/>
    <defs>
     <path d="M 0 0.75 
C 0.198902 0.75 0.389685 0.670975 0.53033 0.53033 
C 0.670975 0.389685 0.75 0.198902 0.75 0 
C 0.75 -0.198902 0.670975 -0.389685 0.53033 -0.53033 
C 0.389685 -0.670975 0.198902 -0.75 0 -0.75 
C -0.198902 -0.75 -0.389685 -0.670975 -0.53033 -0.53033 
C -0.670975 -0.389685 -0.75 -0.198902 -0.75 0 
C -0.75 0.198902 -0.670975 0.389685 -0.53033 0.53033 
C -0.389685 0.670975 -0.198902 0.75 0 0.75 
z
" id="m2578435d14" style="stroke:#e41a1c;"/>
    </defs>
    <g clip-path="url(#p3490efb40d)">
     <use style="fill:#e41a1c;stroke:#e41a1c;" x="32.419602" xlink:href="#m2578435d14" y="103.778182"/>
     <use style="fill:#e41a1c;stroke:#e41a1c;" x="55.893974" xlink:href="#m2578435d14" y="91.661208"/>
     <use style="fill:#e41a1c;stroke:#e41a1c;" x="69.625601" xlink:href="#m2578435d14" y="86.268697"/>
     <use style="fill:#e41a1c;stroke:#e41a1c;" x="79.368345" xlink:href="#m2578435d14" y="81.117773"/>
     <use style="fill:#e41a1c;stroke:#e41a1c;" x="86.925405" xlink:href="#m2578435d14" y="78.627047"/>
     <use style="fill:#e41a1c;stroke:#e41a1c;" x="93.099972" xlink:href="#m2578435d14" y="74.585903"/>
     <use style="fill:#e41a1c;stroke:#e41a1c;" x="98.320494" xlink:href="#m2578435d14" y="69.685983"/>
     <use style="fill:#e41a1c;stroke:#e41a1c;" x="102.842717" xlink:href="#m2578435d14" y="64.83726"/>
     <use style="fill:#e41a1c;stroke:#e41a1c;" x="106.831599" xlink:href="#m2578435d14" y="61.308172"/>
     <use style="fill:#e41a1c;stroke:#e41a1c;" x="110.399776" xlink:href="#m2578435d14" y="58.002049"/>
     <use style="fill:#e41a1c;stroke:#e41a1c;" x="113.627585" xlink:href="#m2578435d14" y="55.393485"/>
     <use style="fill:#e41a1c;stroke:#e41a1c;" x="116.574344" xlink:href="#m2578435d14" y="53.474238"/>
     <use style="fill:#e41a1c;stroke:#e41a1c;" x="119.285099" xlink:href="#m2578435d14" y="51.588241"/>
     <use style="fill:#e41a1c;stroke:#e41a1c;" x="121.794866" xlink:href="#m2578435d14" y="49.886964"/>
     <use style="fill:#e41a1c;stroke:#e41a1c;" x="124.131403" xlink:href="#m2578435d14" y="48.44912"/>
     <use style="fill:#e41a1c;stroke:#e41a1c;" x="126.317088" xlink:href="#m2578435d14" y="47.00434"/>
     <use style="fill:#e41a1c;stroke:#e41a1c;" x="128.370223" xlink:href="#m2578435d14" y="45.123929"/>
     <use style="fill:#e41a1c;stroke:#e41a1c;" x="130.305971" xlink:href="#m2578435d14" y="44.38378"/>
     <use style="fill:#e41a1c;stroke:#e41a1c;" x="132.137031" xlink:href="#m2578435d14" y="43.037262"/>
     <use style="fill:#e41a1c;stroke:#e41a1c;" x="133.874148" xlink:href="#m2578435d14" y="42.022098"/>
    </g>
   </g>
   <g id="line2d_50">
    <path clip-path="url(#p3490efb40d)" d="M 130.305971 43.481224 
L 128.370223 44.991512 
L 126.317088 46.593388 
L 124.131403 48.29868 
L 121.794866 50.121668 
L 119.285099 52.079812 
L 116.574344 54.194769 
L 113.627585 56.493858 
L 110.399776 59.012225 
L 106.831599 61.79615 
L 102.842717 64.908314 
L 98.320494 68.436595 
L 93.099972 72.509696 
L 86.925405 77.327151 
L 79.368345 83.223241 
" style="fill:none;stroke:#000000;stroke-linecap:square;"/>
   </g>
   <g id="patch_3">
    <path d="M 27.346875 108.72 
L 27.346875 0 
" style="fill:none;stroke:#000000;stroke-linecap:square;stroke-linejoin:miter;stroke-width:0.5;"/>
   </g>
   <g id="patch_4">
    <path d="M 138.946875 108.72 
L 138.946875 0 
" style="fill:none;stroke:#000000;stroke-linecap:square;stroke-linejoin:miter;stroke-width:0.5;"/>
   </g>
   <g id="patch_5">
    <path d="M 27.346875 108.72 
L 138.946875 108.72 
" style="fill:none;stroke:#000000;stroke-linecap:square;stroke-linejoin:miter;stroke-width:0.5;"/>
   </g>
   <g id="patch_6">
    <path d="M 27.346875 0 
L 138.946875 0 
" style="fill:none;stroke:#000000;stroke-linecap:square;stroke-linejoin:miter;stroke-width:0.5;"/>
   </g>
  </g>
 </g>
 <defs>
  <clipPath id="p3490efb40d">
   <rect height="108.72" width="111.6" x="27.346875" y="0"/>
  </clipPath>
 </defs>
</svg>
