<?xml version="1.0" encoding="utf-8" standalone="no"?>
<!DOCTYPE svg PUBLIC "-//W3C//DTD SVG 1.1//EN"
  "http://www.w3.org/Graphics/SVG/1.1/DTD/svg11.dtd">
<svg height="128.249688pt" version="1.1" viewBox="0 0 138.946875 128.249688" width="138.946875pt" xmlns="http://www.w3.org/2000/svg" xmlns:xlink="http://www.w3.org/1999/xlink">
 <metadata>
  <rdf:RDF xmlns:cc="http://creativecommons.org/ns#" xmlns:dc="http://purl.org/dc/elements/1.1/" xmlns:rdf="http://www.w3.org/1999/02/22-rdf-syntax-ns#">
   <cc:Work>
    <dc:type rdf:resource="http://purl.org/dc/dcmitype/StillImage"/>
    <dc:date>2021-09-09T11:31:17.769274</dc:date>
    <dc:format>image/svg+xml</dc:format>
    <dc:creator>
     <cc:Agent>
      <dc:title>Matplotlib v3.4.3, https://matplotlib.org/</dc:title>
     </cc:Agent>
    </dc:creator>
   </cc:Work>
  </rdf:RDF>
 </metadata>
 <defs>
  <style type="text/css">*{stroke-linecap:butt;stroke-linejoin:round;}</style>
 </defs>
 <g id="figure_1">
  <g id="patch_1">
   <path d="M 0 128.249688 
L 138.946875 128.249688 
L 138.946875 0 
L 0 0 
z
" style="fill:none;"/>
  </g>
  <g id="axes_1">
   <g id="patch_2">
    <path d="M 27.346875 108.72 
L 138.946875 108.72 
L 138.946875 0 
L 27.346875 0 
z
" style="fill:none;"/>
   </g>
   <g id="matplotlib.axis_1">
    <g id="xtick_1">
     <g id="line2d_1">
      <defs>
       <path d="M 0 0 
L 0 -3.5 
" id="m5bc2b33b5a" style="stroke:#000000;stroke-width:0.5;"/>
      </defs>
      <g>
       <use style="stroke:#000000;stroke-width:0.5;" x="44.522771" xlink:href="#m5bc2b33b5a" y="108.72"/>
      </g>
     </g>
     <g id="line2d_2">
      <defs>
       <path d="M 0 0 
L 0 3.5 
" id="m80a02bfb5d" style="stroke:#000000;stroke-width:0.5;"/>
      </defs>
      <g>
       <use style="stroke:#000000;stroke-width:0.5;" x="44.522771" xlink:href="#m80a02bfb5d" y="0"/>
      </g>
     </g>
     <g id="text_1">
      <text style="font-family:Arial;font-size:10px;font-stretch:normal;font-style:normal;font-weight:normal;text-anchor:middle;" transform="rotate(-0, 44.522771, 116.877813)" x="44.522771" y="116.877813">1</text>
     </g>
    </g>
    <g id="xtick_2">
     <g id="line2d_3">
      <g>
       <use style="stroke:#000000;stroke-width:0.5;" x="85.845576" xlink:href="#m5bc2b33b5a" y="108.72"/>
      </g>
     </g>
     <g id="line2d_4">
      <g>
       <use style="stroke:#000000;stroke-width:0.5;" x="85.845576" xlink:href="#m80a02bfb5d" y="0"/>
      </g>
     </g>
     <g id="text_2">
      <text style="font-family:Arial;font-size:10px;font-stretch:normal;font-style:normal;font-weight:normal;text-anchor:middle;" transform="rotate(-0, 85.845576, 116.877813)" x="85.845576" y="116.877813">2</text>
     </g>
    </g>
    <g id="xtick_3">
     <g id="line2d_5">
      <g>
       <use style="stroke:#000000;stroke-width:0.5;" x="127.16838" xlink:href="#m5bc2b33b5a" y="108.72"/>
      </g>
     </g>
     <g id="line2d_6">
      <g>
       <use style="stroke:#000000;stroke-width:0.5;" x="127.16838" xlink:href="#m80a02bfb5d" y="0"/>
      </g>
     </g>
     <g id="text_3">
      <text style="font-family:Arial;font-size:10px;font-stretch:normal;font-style:normal;font-weight:normal;text-anchor:middle;" transform="rotate(-0, 127.16838, 116.877813)" x="127.16838" y="116.877813">3</text>
     </g>
    </g>
    <g id="xtick_4">
     <g id="line2d_7">
      <defs>
       <path d="M 0 0 
L 0 -2 
" id="md8a2ce18ad" style="stroke:#000000;stroke-width:0.5;"/>
      </defs>
      <g>
       <use style="stroke:#000000;stroke-width:0.5;" x="27.99365" xlink:href="#md8a2ce18ad" y="108.72"/>
      </g>
     </g>
     <g id="line2d_8">
      <defs>
       <path d="M 0 0 
L 0 2 
" id="m7339d16e45" style="stroke:#000000;stroke-width:0.5;"/>
      </defs>
      <g>
       <use style="stroke:#000000;stroke-width:0.5;" x="27.99365" xlink:href="#m7339d16e45" y="0"/>
      </g>
     </g>
    </g>
    <g id="xtick_5">
     <g id="line2d_9">
      <g>
       <use style="stroke:#000000;stroke-width:0.5;" x="36.258211" xlink:href="#md8a2ce18ad" y="108.72"/>
      </g>
     </g>
     <g id="line2d_10">
      <g>
       <use style="stroke:#000000;stroke-width:0.5;" x="36.258211" xlink:href="#m7339d16e45" y="0"/>
      </g>
     </g>
    </g>
    <g id="xtick_6">
     <g id="line2d_11">
      <g>
       <use style="stroke:#000000;stroke-width:0.5;" x="52.787332" xlink:href="#md8a2ce18ad" y="108.72"/>
      </g>
     </g>
     <g id="line2d_12">
      <g>
       <use style="stroke:#000000;stroke-width:0.5;" x="52.787332" xlink:href="#m7339d16e45" y="0"/>
      </g>
     </g>
    </g>
    <g id="xtick_7">
     <g id="line2d_13">
      <g>
       <use style="stroke:#000000;stroke-width:0.5;" x="61.051893" xlink:href="#md8a2ce18ad" y="108.72"/>
      </g>
     </g>
     <g id="line2d_14">
      <g>
       <use style="stroke:#000000;stroke-width:0.5;" x="61.051893" xlink:href="#m7339d16e45" y="0"/>
      </g>
     </g>
    </g>
    <g id="xtick_8">
     <g id="line2d_15">
      <g>
       <use style="stroke:#000000;stroke-width:0.5;" x="69.316454" xlink:href="#md8a2ce18ad" y="108.72"/>
      </g>
     </g>
     <g id="line2d_16">
      <g>
       <use style="stroke:#000000;stroke-width:0.5;" x="69.316454" xlink:href="#m7339d16e45" y="0"/>
      </g>
     </g>
    </g>
    <g id="xtick_9">
     <g id="line2d_17">
      <g>
       <use style="stroke:#000000;stroke-width:0.5;" x="77.581015" xlink:href="#md8a2ce18ad" y="108.72"/>
      </g>
     </g>
     <g id="line2d_18">
      <g>
       <use style="stroke:#000000;stroke-width:0.5;" x="77.581015" xlink:href="#m7339d16e45" y="0"/>
      </g>
     </g>
    </g>
    <g id="xtick_10">
     <g id="line2d_19">
      <g>
       <use style="stroke:#000000;stroke-width:0.5;" x="94.110136" xlink:href="#md8a2ce18ad" y="108.72"/>
      </g>
     </g>
     <g id="line2d_20">
      <g>
       <use style="stroke:#000000;stroke-width:0.5;" x="94.110136" xlink:href="#m7339d16e45" y="0"/>
      </g>
     </g>
    </g>
    <g id="xtick_11">
     <g id="line2d_21">
      <g>
       <use style="stroke:#000000;stroke-width:0.5;" x="102.374697" xlink:href="#md8a2ce18ad" y="108.72"/>
      </g>
     </g>
     <g id="line2d_22">
      <g>
       <use style="stroke:#000000;stroke-width:0.5;" x="102.374697" xlink:href="#m7339d16e45" y="0"/>
      </g>
     </g>
    </g>
    <g id="xtick_12">
     <g id="line2d_23">
      <g>
       <use style="stroke:#000000;stroke-width:0.5;" x="110.639258" xlink:href="#md8a2ce18ad" y="108.72"/>
      </g>
     </g>
     <g id="line2d_24">
      <g>
       <use style="stroke:#000000;stroke-width:0.5;" x="110.639258" xlink:href="#m7339d16e45" y="0"/>
      </g>
     </g>
    </g>
    <g id="xtick_13">
     <g id="line2d_25">
      <g>
       <use style="stroke:#000000;stroke-width:0.5;" x="118.903819" xlink:href="#md8a2ce18ad" y="108.72"/>
      </g>
     </g>
     <g id="line2d_26">
      <g>
       <use style="stroke:#000000;stroke-width:0.5;" x="118.903819" xlink:href="#m7339d16e45" y="0"/>
      </g>
     </g>
    </g>
    <g id="xtick_14">
     <g id="line2d_27">
      <g>
       <use style="stroke:#000000;stroke-width:0.5;" x="135.432941" xlink:href="#md8a2ce18ad" y="108.72"/>
      </g>
     </g>
     <g id="line2d_28">
      <g>
       <use style="stroke:#000000;stroke-width:0.5;" x="135.432941" xlink:href="#m7339d16e45" y="0"/>
      </g>
     </g>
    </g>
    <g id="text_4">
     <text style="font-family:Arial;font-size:10px;font-stretch:normal;font-style:normal;font-weight:normal;text-anchor:middle;" transform="rotate(-0, 83.146875, 126.145)" x="83.146875" y="126.145">V<tspan
   style="font-size:65%;baseline-shift:super"
   id="tspan15378">1/2</tspan></text>
    </g>
   </g>
   <g id="matplotlib.axis_2">
    <g id="ytick_1">
     <g id="line2d_29">
      <defs>
       <path d="M 0 0 
L 3.5 0 
" id="m74883cb171" style="stroke:#000000;stroke-width:0.5;"/>
      </defs>
      <g>
       <use style="stroke:#000000;stroke-width:0.5;" x="27.346875" xlink:href="#m74883cb171" y="81.118747"/>
      </g>
     </g>
     <g id="line2d_30">
      <defs>
       <path d="M 0 0 
L -3.5 0 
" id="m0e49ceface" style="stroke:#000000;stroke-width:0.5;"/>
      </defs>
      <g>
       <use style="stroke:#000000;stroke-width:0.5;" x="138.946875" xlink:href="#m0e49ceface" y="81.118747"/>
      </g>
     </g>
     <g id="text_5">
      <text style="font-family:Arial;font-size:10px;font-stretch:normal;font-style:normal;font-weight:normal;text-anchor:end;" transform="rotate(-0, 26.346875, 84.697653)" x="26.346875" y="84.697653">−18</text>
     </g>
    </g>
    <g id="ytick_2">
     <g id="line2d_31">
      <g>
       <use style="stroke:#000000;stroke-width:0.5;" x="27.346875" xlink:href="#m74883cb171" y="44.712936"/>
      </g>
     </g>
     <g id="line2d_32">
      <g>
       <use style="stroke:#000000;stroke-width:0.5;" x="138.946875" xlink:href="#m0e49ceface" y="44.712936"/>
      </g>
     </g>
     <g id="text_6">
      <text style="font-family:Arial;font-size:10px;font-stretch:normal;font-style:normal;font-weight:normal;text-anchor:end;" transform="rotate(-0, 26.346875, 48.291842)" x="26.346875" y="48.291842">−16</text>
     </g>
    </g>
    <g id="ytick_3">
     <g id="line2d_33">
      <g>
       <use style="stroke:#000000;stroke-width:0.5;" x="27.346875" xlink:href="#m74883cb171" y="8.307124"/>
      </g>
     </g>
     <g id="line2d_34">
      <g>
       <use style="stroke:#000000;stroke-width:0.5;" x="138.946875" xlink:href="#m0e49ceface" y="8.307124"/>
      </g>
     </g>
     <g id="text_7">
      <text style="font-family:Arial;font-size:10px;font-stretch:normal;font-style:normal;font-weight:normal;text-anchor:end;" transform="rotate(-0, 26.346875, 11.886031)" x="26.346875" y="11.886031">−14</text>
     </g>
    </g>
    <g id="ytick_4">
     <g id="line2d_35">
      <defs>
       <path d="M 0 0 
L 2 0 
" id="m536bff9fc5" style="stroke:#000000;stroke-width:0.5;"/>
      </defs>
      <g>
       <use style="stroke:#000000;stroke-width:0.5;" x="27.346875" xlink:href="#m536bff9fc5" y="108.423105"/>
      </g>
     </g>
     <g id="line2d_36">
      <defs>
       <path d="M 0 0 
L -2 0 
" id="m95a7bc8d16" style="stroke:#000000;stroke-width:0.5;"/>
      </defs>
      <g>
       <use style="stroke:#000000;stroke-width:0.5;" x="138.946875" xlink:href="#m95a7bc8d16" y="108.423105"/>
      </g>
     </g>
    </g>
    <g id="ytick_5">
     <g id="line2d_37">
      <g>
       <use style="stroke:#000000;stroke-width:0.5;" x="27.346875" xlink:href="#m536bff9fc5" y="99.321652"/>
      </g>
     </g>
     <g id="line2d_38">
      <g>
       <use style="stroke:#000000;stroke-width:0.5;" x="138.946875" xlink:href="#m95a7bc8d16" y="99.321652"/>
      </g>
     </g>
    </g>
    <g id="ytick_6">
     <g id="line2d_39">
      <g>
       <use style="stroke:#000000;stroke-width:0.5;" x="27.346875" xlink:href="#m536bff9fc5" y="90.2202"/>
      </g>
     </g>
     <g id="line2d_40">
      <g>
       <use style="stroke:#000000;stroke-width:0.5;" x="138.946875" xlink:href="#m95a7bc8d16" y="90.2202"/>
      </g>
     </g>
    </g>
    <g id="ytick_7">
     <g id="line2d_41">
      <g>
       <use style="stroke:#000000;stroke-width:0.5;" x="27.346875" xlink:href="#m536bff9fc5" y="72.017294"/>
      </g>
     </g>
     <g id="line2d_42">
      <g>
       <use style="stroke:#000000;stroke-width:0.5;" x="138.946875" xlink:href="#m95a7bc8d16" y="72.017294"/>
      </g>
     </g>
    </g>
    <g id="ytick_8">
     <g id="line2d_43">
      <g>
       <use style="stroke:#000000;stroke-width:0.5;" x="27.346875" xlink:href="#m536bff9fc5" y="62.915841"/>
      </g>
     </g>
     <g id="line2d_44">
      <g>
       <use style="stroke:#000000;stroke-width:0.5;" x="138.946875" xlink:href="#m95a7bc8d16" y="62.915841"/>
      </g>
     </g>
    </g>
    <g id="ytick_9">
     <g id="line2d_45">
      <g>
       <use style="stroke:#000000;stroke-width:0.5;" x="27.346875" xlink:href="#m536bff9fc5" y="53.814388"/>
      </g>
     </g>
     <g id="line2d_46">
      <g>
       <use style="stroke:#000000;stroke-width:0.5;" x="138.946875" xlink:href="#m95a7bc8d16" y="53.814388"/>
      </g>
     </g>
    </g>
    <g id="ytick_10">
     <g id="line2d_47">
      <g>
       <use style="stroke:#000000;stroke-width:0.5;" x="27.346875" xlink:href="#m536bff9fc5" y="35.611483"/>
      </g>
     </g>
     <g id="line2d_48">
      <g>
       <use style="stroke:#000000;stroke-width:0.5;" x="138.946875" xlink:href="#m95a7bc8d16" y="35.611483"/>
      </g>
     </g>
    </g>
    <g id="ytick_11">
     <g id="line2d_49">
      <g>
       <use style="stroke:#000000;stroke-width:0.5;" x="27.346875" xlink:href="#m536bff9fc5" y="26.51003"/>
      </g>
     </g>
     <g id="line2d_50">
      <g>
       <use style="stroke:#000000;stroke-width:0.5;" x="138.946875" xlink:href="#m95a7bc8d16" y="26.51003"/>
      </g>
     </g>
    </g>
    <g id="ytick_12">
     <g id="line2d_51">
      <g>
       <use style="stroke:#000000;stroke-width:0.5;" x="27.346875" xlink:href="#m536bff9fc5" y="17.408577"/>
      </g>
     </g>
     <g id="line2d_52">
      <g>
       <use style="stroke:#000000;stroke-width:0.5;" x="138.946875" xlink:href="#m95a7bc8d16" y="17.408577"/>
      </g>
     </g>
    </g>
    <g id="text_8">
     <text style="font-family:Arial;font-size:10px;font-stretch:normal;font-style:normal;font-weight:normal;text-anchor:middle;" transform="rotate(-90, 7.279688, 54.36)" x="7.279688" y="54.36">ln(I)</text>
    </g>
   </g>
   <g id="line2d_53">
    <path clip-path="url(#p63056db398)" d="M 32.419602 59.049368 
L 44.522771 46.936369 
L 53.80986 40.629895 
L 61.639237 36.46875 
L 68.537057 32.623246 
L 74.773164 29.155813 
L 80.507855 26.338727 
L 85.845576 23.68685 
L 90.858872 21.702117 
L 95.600566 19.539323 
L 100.110533 17.66213 
L 104.419752 16.022077 
L 108.55286 14.281781 
L 112.529831 12.78405 
L 116.367127 11.444907 
L 120.078507 10.087488 
L 123.675609 9.296165 
L 127.16838 8.060869 
L 130.565404 7.061332 
L 133.874148 6.292647 
" style="fill:none;stroke:#377eb8;stroke-linecap:square;stroke-width:1.5;"/>
    <defs>
     <path d="M 0 0.75 
C 0.198902 0.75 0.389685 0.670975 0.53033 0.53033 
C 0.670975 0.389685 0.75 0.198902 0.75 0 
C 0.75 -0.198902 0.670975 -0.389685 0.53033 -0.53033 
C 0.389685 -0.670975 0.198902 -0.75 0 -0.75 
C -0.198902 -0.75 -0.389685 -0.670975 -0.53033 -0.53033 
C -0.670975 -0.389685 -0.75 -0.198902 -0.75 0 
C -0.75 0.198902 -0.670975 0.389685 -0.53033 0.53033 
C -0.389685 0.670975 -0.198902 0.75 0 0.75 
z
" id="me2e62ce831" style="stroke:#377eb8;"/>
    </defs>
    <g clip-path="url(#p63056db398)">
     <use style="fill:#377eb8;stroke:#377eb8;" x="32.419602" xlink:href="#me2e62ce831" y="59.049368"/>
     <use style="fill:#377eb8;stroke:#377eb8;" x="44.522771" xlink:href="#me2e62ce831" y="46.936369"/>
     <use style="fill:#377eb8;stroke:#377eb8;" x="53.80986" xlink:href="#me2e62ce831" y="40.629895"/>
     <use style="fill:#377eb8;stroke:#377eb8;" x="61.639237" xlink:href="#me2e62ce831" y="36.46875"/>
     <use style="fill:#377eb8;stroke:#377eb8;" x="68.537057" xlink:href="#me2e62ce831" y="32.623246"/>
     <use style="fill:#377eb8;stroke:#377eb8;" x="74.773164" xlink:href="#me2e62ce831" y="29.155813"/>
     <use style="fill:#377eb8;stroke:#377eb8;" x="80.507855" xlink:href="#me2e62ce831" y="26.338727"/>
     <use style="fill:#377eb8;stroke:#377eb8;" x="85.845576" xlink:href="#me2e62ce831" y="23.68685"/>
     <use style="fill:#377eb8;stroke:#377eb8;" x="90.858872" xlink:href="#me2e62ce831" y="21.702117"/>
     <use style="fill:#377eb8;stroke:#377eb8;" x="95.600566" xlink:href="#me2e62ce831" y="19.539323"/>
     <use style="fill:#377eb8;stroke:#377eb8;" x="100.110533" xlink:href="#me2e62ce831" y="17.66213"/>
     <use style="fill:#377eb8;stroke:#377eb8;" x="104.419752" xlink:href="#me2e62ce831" y="16.022077"/>
     <use style="fill:#377eb8;stroke:#377eb8;" x="108.55286" xlink:href="#me2e62ce831" y="14.281781"/>
     <use style="fill:#377eb8;stroke:#377eb8;" x="112.529831" xlink:href="#me2e62ce831" y="12.78405"/>
     <use style="fill:#377eb8;stroke:#377eb8;" x="116.367127" xlink:href="#me2e62ce831" y="11.444907"/>
     <use style="fill:#377eb8;stroke:#377eb8;" x="120.078507" xlink:href="#me2e62ce831" y="10.087488"/>
     <use style="fill:#377eb8;stroke:#377eb8;" x="123.675609" xlink:href="#me2e62ce831" y="9.296165"/>
     <use style="fill:#377eb8;stroke:#377eb8;" x="127.16838" xlink:href="#me2e62ce831" y="8.060869"/>
     <use style="fill:#377eb8;stroke:#377eb8;" x="130.565404" xlink:href="#me2e62ce831" y="7.061332"/>
     <use style="fill:#377eb8;stroke:#377eb8;" x="133.874148" xlink:href="#me2e62ce831" y="6.292647"/>
    </g>
   </g>
   <g id="line2d_54">
    <path clip-path="url(#p63056db398)" d="M 133.874148 4.941818 
L 130.565404 6.262223 
L 127.16838 7.617856 
L 123.675609 9.011699 
L 120.078507 10.447177 
L 116.367127 11.928259 
L 112.529831 13.45959 
L 108.55286 15.046661 
L 104.419752 16.69604 
L 100.110533 18.415699 
L 95.600566 20.215469 
L 90.858872 22.107714 
L 85.845576 24.108345 
L 80.507855 26.238443 
L 74.773164 28.526959 
L 68.537057 31.015571 
" style="fill:none;stroke:#000000;stroke-linecap:square;"/>
   </g>
   <g id="line2d_55">
    <path clip-path="url(#p63056db398)" d="M 32.419602 77.013547 
L 44.522771 65.280956 
L 53.80986 59.802276 
L 61.639237 55.807748 
L 68.537057 50.54789 
L 74.773164 46.335766 
L 80.507855 43.190464 
L 85.845576 39.815997 
L 90.858872 37.202317 
L 95.600566 34.594052 
L 100.110533 32.353451 
L 104.419752 30.406041 
L 108.55286 28.390219 
L 112.529831 26.490065 
L 116.367127 24.452285 
L 120.078507 23.171021 
L 123.675609 21.238298 
L 127.16838 19.610733 
L 130.565404 18.191656 
L 133.874148 17.021908 
" style="fill:none;stroke:#999999;stroke-linecap:square;stroke-width:1.5;"/>
    <defs>
     <path d="M 0 0.75 
C 0.198902 0.75 0.389685 0.670975 0.53033 0.53033 
C 0.670975 0.389685 0.75 0.198902 0.75 0 
C 0.75 -0.198902 0.670975 -0.389685 0.53033 -0.53033 
C 0.389685 -0.670975 0.198902 -0.75 0 -0.75 
C -0.198902 -0.75 -0.389685 -0.670975 -0.53033 -0.53033 
C -0.670975 -0.389685 -0.75 -0.198902 -0.75 0 
C -0.75 0.198902 -0.670975 0.389685 -0.53033 0.53033 
C -0.389685 0.670975 -0.198902 0.75 0 0.75 
z
" id="m6b98f15c5a" style="stroke:#999999;"/>
    </defs>
    <g clip-path="url(#p63056db398)">
     <use style="fill:#999999;stroke:#999999;" x="32.419602" xlink:href="#m6b98f15c5a" y="77.013547"/>
     <use style="fill:#999999;stroke:#999999;" x="44.522771" xlink:href="#m6b98f15c5a" y="65.280956"/>
     <use style="fill:#999999;stroke:#999999;" x="53.80986" xlink:href="#m6b98f15c5a" y="59.802276"/>
     <use style="fill:#999999;stroke:#999999;" x="61.639237" xlink:href="#m6b98f15c5a" y="55.807748"/>
     <use style="fill:#999999;stroke:#999999;" x="68.537057" xlink:href="#m6b98f15c5a" y="50.54789"/>
     <use style="fill:#999999;stroke:#999999;" x="74.773164" xlink:href="#m6b98f15c5a" y="46.335766"/>
     <use style="fill:#999999;stroke:#999999;" x="80.507855" xlink:href="#m6b98f15c5a" y="43.190464"/>
     <use style="fill:#999999;stroke:#999999;" x="85.845576" xlink:href="#m6b98f15c5a" y="39.815997"/>
     <use style="fill:#999999;stroke:#999999;" x="90.858872" xlink:href="#m6b98f15c5a" y="37.202317"/>
     <use style="fill:#999999;stroke:#999999;" x="95.600566" xlink:href="#m6b98f15c5a" y="34.594052"/>
     <use style="fill:#999999;stroke:#999999;" x="100.110533" xlink:href="#m6b98f15c5a" y="32.353451"/>
     <use style="fill:#999999;stroke:#999999;" x="104.419752" xlink:href="#m6b98f15c5a" y="30.406041"/>
     <use style="fill:#999999;stroke:#999999;" x="108.55286" xlink:href="#m6b98f15c5a" y="28.390219"/>
     <use style="fill:#999999;stroke:#999999;" x="112.529831" xlink:href="#m6b98f15c5a" y="26.490065"/>
     <use style="fill:#999999;stroke:#999999;" x="116.367127" xlink:href="#m6b98f15c5a" y="24.452285"/>
     <use style="fill:#999999;stroke:#999999;" x="120.078507" xlink:href="#m6b98f15c5a" y="23.171021"/>
     <use style="fill:#999999;stroke:#999999;" x="123.675609" xlink:href="#m6b98f15c5a" y="21.238298"/>
     <use style="fill:#999999;stroke:#999999;" x="127.16838" xlink:href="#m6b98f15c5a" y="19.610733"/>
     <use style="fill:#999999;stroke:#999999;" x="130.565404" xlink:href="#m6b98f15c5a" y="18.191656"/>
     <use style="fill:#999999;stroke:#999999;" x="133.874148" xlink:href="#m6b98f15c5a" y="17.021908"/>
    </g>
   </g>
   <g id="line2d_56">
    <path clip-path="url(#p63056db398)" d="M 133.874148 15.222084 
L 130.565404 17.014354 
L 127.16838 18.854443 
L 123.675609 20.746396 
L 120.078507 22.694863 
L 116.367127 24.705231 
L 112.529831 26.783806 
L 108.55286 28.938039 
L 104.419752 31.176847 
L 100.110533 33.511051 
L 95.600566 35.953996 
L 90.858872 38.522462 
L 85.845576 41.238048 
L 80.507855 44.129368 
L 74.773164 47.235717 
L 68.537057 50.613671 
L 61.639237 54.350061 
L 53.80986 58.591053 
L 44.522771 63.621653 
" style="fill:none;stroke:#000000;stroke-linecap:square;"/>
   </g>
   <g id="line2d_57">
    <path clip-path="url(#p63056db398)" d="M 32.419602 86.193356 
L 44.522771 75.013035 
L 53.80986 70.309069 
L 61.639237 65.418285 
L 68.537057 60.191046 
L 74.773164 55.744698 
L 80.507855 51.360841 
L 85.845576 47.928587 
L 90.858872 43.964953 
L 95.600566 41.415547 
L 100.110533 39.399925 
L 104.419752 37.206556 
L 108.55286 35.07835 
L 112.529831 33.067559 
L 116.367127 31.123216 
L 120.078507 29.57754 
L 123.675609 28.031297 
L 127.16838 26.416654 
L 130.565404 24.919336 
L 133.874148 23.287674 
" style="fill:none;stroke:#4daf4a;stroke-linecap:square;stroke-width:1.5;"/>
    <defs>
     <path d="M 0 0.75 
C 0.198902 0.75 0.389685 0.670975 0.53033 0.53033 
C 0.670975 0.389685 0.75 0.198902 0.75 0 
C 0.75 -0.198902 0.670975 -0.389685 0.53033 -0.53033 
C 0.389685 -0.670975 0.198902 -0.75 0 -0.75 
C -0.198902 -0.75 -0.389685 -0.670975 -0.53033 -0.53033 
C -0.670975 -0.389685 -0.75 -0.198902 -0.75 0 
C -0.75 0.198902 -0.670975 0.389685 -0.53033 0.53033 
C -0.389685 0.670975 -0.198902 0.75 0 0.75 
z
" id="m7e7cb35546" style="stroke:#4daf4a;"/>
    </defs>
    <g clip-path="url(#p63056db398)">
     <use style="fill:#4daf4a;stroke:#4daf4a;" x="32.419602" xlink:href="#m7e7cb35546" y="86.193356"/>
     <use style="fill:#4daf4a;stroke:#4daf4a;" x="44.522771" xlink:href="#m7e7cb35546" y="75.013035"/>
     <use style="fill:#4daf4a;stroke:#4daf4a;" x="53.80986" xlink:href="#m7e7cb35546" y="70.309069"/>
     <use style="fill:#4daf4a;stroke:#4daf4a;" x="61.639237" xlink:href="#m7e7cb35546" y="65.418285"/>
     <use style="fill:#4daf4a;stroke:#4daf4a;" x="68.537057" xlink:href="#m7e7cb35546" y="60.191046"/>
     <use style="fill:#4daf4a;stroke:#4daf4a;" x="74.773164" xlink:href="#m7e7cb35546" y="55.744698"/>
     <use style="fill:#4daf4a;stroke:#4daf4a;" x="80.507855" xlink:href="#m7e7cb35546" y="51.360841"/>
     <use style="fill:#4daf4a;stroke:#4daf4a;" x="85.845576" xlink:href="#m7e7cb35546" y="47.928587"/>
     <use style="fill:#4daf4a;stroke:#4daf4a;" x="90.858872" xlink:href="#m7e7cb35546" y="43.964953"/>
     <use style="fill:#4daf4a;stroke:#4daf4a;" x="95.600566" xlink:href="#m7e7cb35546" y="41.415547"/>
     <use style="fill:#4daf4a;stroke:#4daf4a;" x="100.110533" xlink:href="#m7e7cb35546" y="39.399925"/>
     <use style="fill:#4daf4a;stroke:#4daf4a;" x="104.419752" xlink:href="#m7e7cb35546" y="37.206556"/>
     <use style="fill:#4daf4a;stroke:#4daf4a;" x="108.55286" xlink:href="#m7e7cb35546" y="35.07835"/>
     <use style="fill:#4daf4a;stroke:#4daf4a;" x="112.529831" xlink:href="#m7e7cb35546" y="33.067559"/>
     <use style="fill:#4daf4a;stroke:#4daf4a;" x="116.367127" xlink:href="#m7e7cb35546" y="31.123216"/>
     <use style="fill:#4daf4a;stroke:#4daf4a;" x="120.078507" xlink:href="#m7e7cb35546" y="29.57754"/>
     <use style="fill:#4daf4a;stroke:#4daf4a;" x="123.675609" xlink:href="#m7e7cb35546" y="28.031297"/>
     <use style="fill:#4daf4a;stroke:#4daf4a;" x="127.16838" xlink:href="#m7e7cb35546" y="26.416654"/>
     <use style="fill:#4daf4a;stroke:#4daf4a;" x="130.565404" xlink:href="#m7e7cb35546" y="24.919336"/>
     <use style="fill:#4daf4a;stroke:#4daf4a;" x="133.874148" xlink:href="#m7e7cb35546" y="23.287674"/>
    </g>
   </g>
   <g id="line2d_58">
    <path clip-path="url(#p63056db398)" d="M 133.874148 22.329581 
L 130.565404 24.082325 
L 127.16838 25.881833 
L 123.675609 27.732062 
L 120.078507 29.637557 
L 116.367127 31.60359 
L 112.529831 33.636324 
L 108.55286 35.743048 
L 104.419752 37.932483 
L 100.110533 40.215209 
L 95.600566 42.604277 
L 90.858872 45.116099 
L 85.845576 47.771797 
L 80.507855 50.599352 
L 74.773164 53.637195 
" style="fill:none;stroke:#000000;stroke-linecap:square;"/>
   </g>
   <g id="line2d_59">
    <path clip-path="url(#p63056db398)" d="M 32.419602 93.054748 
L 44.522771 81.883012 
L 53.80986 76.57227 
L 61.639237 72.485052 
L 68.537057 67.375404 
L 74.773164 62.650689 
L 80.507855 57.92338 
L 85.845576 53.917161 
L 90.858872 50.393533 
L 95.600566 47.486928 
L 100.110533 44.337965 
L 104.419752 42.699111 
L 108.55286 40.885544 
L 112.529831 38.84354 
L 116.367127 36.884945 
L 120.078507 35.280485 
L 123.675609 33.754405 
L 127.16838 32.305196 
L 130.565404 30.825126 
L 133.874148 29.659277 
" style="fill:none;stroke:#a65628;stroke-linecap:square;stroke-width:1.5;"/>
    <defs>
     <path d="M 0 0.75 
C 0.198902 0.75 0.389685 0.670975 0.53033 0.53033 
C 0.670975 0.389685 0.75 0.198902 0.75 0 
C 0.75 -0.198902 0.670975 -0.389685 0.53033 -0.53033 
C 0.389685 -0.670975 0.198902 -0.75 0 -0.75 
C -0.198902 -0.75 -0.389685 -0.670975 -0.53033 -0.53033 
C -0.670975 -0.389685 -0.75 -0.198902 -0.75 0 
C -0.75 0.198902 -0.670975 0.389685 -0.53033 0.53033 
C -0.389685 0.670975 -0.198902 0.75 0 0.75 
z
" id="ma4f3453e6f" style="stroke:#a65628;"/>
    </defs>
    <g clip-path="url(#p63056db398)">
     <use style="fill:#a65628;stroke:#a65628;" x="32.419602" xlink:href="#ma4f3453e6f" y="93.054748"/>
     <use style="fill:#a65628;stroke:#a65628;" x="44.522771" xlink:href="#ma4f3453e6f" y="81.883012"/>
     <use style="fill:#a65628;stroke:#a65628;" x="53.80986" xlink:href="#ma4f3453e6f" y="76.57227"/>
     <use style="fill:#a65628;stroke:#a65628;" x="61.639237" xlink:href="#ma4f3453e6f" y="72.485052"/>
     <use style="fill:#a65628;stroke:#a65628;" x="68.537057" xlink:href="#ma4f3453e6f" y="67.375404"/>
     <use style="fill:#a65628;stroke:#a65628;" x="74.773164" xlink:href="#ma4f3453e6f" y="62.650689"/>
     <use style="fill:#a65628;stroke:#a65628;" x="80.507855" xlink:href="#ma4f3453e6f" y="57.92338"/>
     <use style="fill:#a65628;stroke:#a65628;" x="85.845576" xlink:href="#ma4f3453e6f" y="53.917161"/>
     <use style="fill:#a65628;stroke:#a65628;" x="90.858872" xlink:href="#ma4f3453e6f" y="50.393533"/>
     <use style="fill:#a65628;stroke:#a65628;" x="95.600566" xlink:href="#ma4f3453e6f" y="47.486928"/>
     <use style="fill:#a65628;stroke:#a65628;" x="100.110533" xlink:href="#ma4f3453e6f" y="44.337965"/>
     <use style="fill:#a65628;stroke:#a65628;" x="104.419752" xlink:href="#ma4f3453e6f" y="42.699111"/>
     <use style="fill:#a65628;stroke:#a65628;" x="108.55286" xlink:href="#ma4f3453e6f" y="40.885544"/>
     <use style="fill:#a65628;stroke:#a65628;" x="112.529831" xlink:href="#ma4f3453e6f" y="38.84354"/>
     <use style="fill:#a65628;stroke:#a65628;" x="116.367127" xlink:href="#ma4f3453e6f" y="36.884945"/>
     <use style="fill:#a65628;stroke:#a65628;" x="120.078507" xlink:href="#ma4f3453e6f" y="35.280485"/>
     <use style="fill:#a65628;stroke:#a65628;" x="123.675609" xlink:href="#ma4f3453e6f" y="33.754405"/>
     <use style="fill:#a65628;stroke:#a65628;" x="127.16838" xlink:href="#ma4f3453e6f" y="32.305196"/>
     <use style="fill:#a65628;stroke:#a65628;" x="130.565404" xlink:href="#ma4f3453e6f" y="30.825126"/>
     <use style="fill:#a65628;stroke:#a65628;" x="133.874148" xlink:href="#ma4f3453e6f" y="29.659277"/>
    </g>
   </g>
   <g id="line2d_60">
    <path clip-path="url(#p63056db398)" d="M 80.507855 58.43004 
L 74.773164 62.436247 
L 68.537057 66.792738 
L 61.639237 71.611496 
L 53.80986 77.081033 
L 44.522771 83.568914 
L 32.419602 92.024085 
" style="fill:none;stroke:#000000;stroke-linecap:square;"/>
   </g>
   <g id="line2d_61">
    <path clip-path="url(#p63056db398)" d="M 133.874148 28.759484 
L 130.565404 30.391566 
L 127.16838 32.067194 
L 123.675609 33.79005 
L 120.078507 35.564368 
L 116.367127 37.395056 
L 112.529831 39.287853 
L 108.55286 41.249547 
L 104.419752 43.288258 
L 100.110533 45.413838 
L 95.600566 47.638439 
L 90.858872 49.977343 
L 85.845576 52.450218 
" style="fill:none;stroke:#000000;stroke-linecap:square;"/>
   </g>
   <g id="line2d_62">
    <path clip-path="url(#p63056db398)" d="M 32.419602 97.341339 
L 44.522771 85.368704 
L 53.80986 80.99763 
L 61.639237 76.284094 
L 68.537057 72.419644 
L 74.773164 67.923468 
L 80.507855 62.662781 
L 85.845576 58.587675 
L 90.858872 54.960152 
L 95.600566 52.239384 
L 100.110533 49.796887 
L 104.419752 47.712621 
L 108.55286 45.607883 
L 112.529831 44.05558 
L 116.367127 42.424329 
L 120.078507 41.209021 
L 123.675609 40.00302 
L 127.16838 38.786226 
L 130.565404 37.459411 
L 133.874148 36.457868 
" style="fill:none;stroke:#984ea3;stroke-linecap:square;stroke-width:1.5;"/>
    <defs>
     <path d="M 0 0.75 
C 0.198902 0.75 0.389685 0.670975 0.53033 0.53033 
C 0.670975 0.389685 0.75 0.198902 0.75 0 
C 0.75 -0.198902 0.670975 -0.389685 0.53033 -0.53033 
C 0.389685 -0.670975 0.198902 -0.75 0 -0.75 
C -0.198902 -0.75 -0.389685 -0.670975 -0.53033 -0.53033 
C -0.670975 -0.389685 -0.75 -0.198902 -0.75 0 
C -0.75 0.198902 -0.670975 0.389685 -0.53033 0.53033 
C -0.389685 0.670975 -0.198902 0.75 0 0.75 
z
" id="m452e3abfe3" style="stroke:#984ea3;"/>
    </defs>
    <g clip-path="url(#p63056db398)">
     <use style="fill:#984ea3;stroke:#984ea3;" x="32.419602" xlink:href="#m452e3abfe3" y="97.341339"/>
     <use style="fill:#984ea3;stroke:#984ea3;" x="44.522771" xlink:href="#m452e3abfe3" y="85.368704"/>
     <use style="fill:#984ea3;stroke:#984ea3;" x="53.80986" xlink:href="#m452e3abfe3" y="80.99763"/>
     <use style="fill:#984ea3;stroke:#984ea3;" x="61.639237" xlink:href="#m452e3abfe3" y="76.284094"/>
     <use style="fill:#984ea3;stroke:#984ea3;" x="68.537057" xlink:href="#m452e3abfe3" y="72.419644"/>
     <use style="fill:#984ea3;stroke:#984ea3;" x="74.773164" xlink:href="#m452e3abfe3" y="67.923468"/>
     <use style="fill:#984ea3;stroke:#984ea3;" x="80.507855" xlink:href="#m452e3abfe3" y="62.662781"/>
     <use style="fill:#984ea3;stroke:#984ea3;" x="85.845576" xlink:href="#m452e3abfe3" y="58.587675"/>
     <use style="fill:#984ea3;stroke:#984ea3;" x="90.858872" xlink:href="#m452e3abfe3" y="54.960152"/>
     <use style="fill:#984ea3;stroke:#984ea3;" x="95.600566" xlink:href="#m452e3abfe3" y="52.239384"/>
     <use style="fill:#984ea3;stroke:#984ea3;" x="100.110533" xlink:href="#m452e3abfe3" y="49.796887"/>
     <use style="fill:#984ea3;stroke:#984ea3;" x="104.419752" xlink:href="#m452e3abfe3" y="47.712621"/>
     <use style="fill:#984ea3;stroke:#984ea3;" x="108.55286" xlink:href="#m452e3abfe3" y="45.607883"/>
     <use style="fill:#984ea3;stroke:#984ea3;" x="112.529831" xlink:href="#m452e3abfe3" y="44.05558"/>
     <use style="fill:#984ea3;stroke:#984ea3;" x="116.367127" xlink:href="#m452e3abfe3" y="42.424329"/>
     <use style="fill:#984ea3;stroke:#984ea3;" x="120.078507" xlink:href="#m452e3abfe3" y="41.209021"/>
     <use style="fill:#984ea3;stroke:#984ea3;" x="123.675609" xlink:href="#m452e3abfe3" y="40.00302"/>
     <use style="fill:#984ea3;stroke:#984ea3;" x="127.16838" xlink:href="#m452e3abfe3" y="38.786226"/>
     <use style="fill:#984ea3;stroke:#984ea3;" x="130.565404" xlink:href="#m452e3abfe3" y="37.459411"/>
     <use style="fill:#984ea3;stroke:#984ea3;" x="133.874148" xlink:href="#m452e3abfe3" y="36.457868"/>
    </g>
   </g>
   <g id="line2d_63">
    <path clip-path="url(#p63056db398)" d="M 90.858872 55.432138 
L 85.845576 59.015874 
L 80.507855 62.831523 
L 74.773164 66.930945 
L 68.537057 71.388801 
L 61.639237 76.319681 
L 53.80986 81.916481 
" style="fill:none;stroke:#000000;stroke-linecap:square;"/>
   </g>
   <g id="line2d_64">
    <path clip-path="url(#p63056db398)" d="M 133.874148 35.898479 
L 130.565404 37.238544 
L 127.16838 38.614363 
L 123.675609 40.02896 
L 120.078507 41.485812 
L 116.367127 42.988948 
L 112.529831 44.543081 
L 108.55286 46.153782 
L 104.419752 47.827721 
L 100.110533 49.572985 
L 95.600566 51.399554 
" style="fill:none;stroke:#000000;stroke-linecap:square;"/>
   </g>
   <g id="line2d_65">
    <path clip-path="url(#p63056db398)" d="M 32.419602 101.787213 
L 44.522771 89.057709 
L 53.80986 82.731711 
L 61.639237 79.085877 
L 68.537057 75.147316 
L 74.773164 71.041105 
L 80.507855 66.676375 
L 85.845576 61.975741 
L 90.858872 58.692067 
L 95.600566 56.024852 
L 100.110533 53.552292 
L 104.419752 51.561502 
L 108.55286 49.771645 
L 112.529831 48.220566 
L 116.367127 46.171741 
L 120.078507 45.067221 
L 123.675609 43.962239 
L 127.16838 42.725477 
L 130.565404 41.636713 
L 133.874148 40.393498 
" style="fill:none;stroke:#ff7f00;stroke-linecap:square;stroke-width:1.5;"/>
    <defs>
     <path d="M 0 0.75 
C 0.198902 0.75 0.389685 0.670975 0.53033 0.53033 
C 0.670975 0.389685 0.75 0.198902 0.75 0 
C 0.75 -0.198902 0.670975 -0.389685 0.53033 -0.53033 
C 0.389685 -0.670975 0.198902 -0.75 0 -0.75 
C -0.198902 -0.75 -0.389685 -0.670975 -0.53033 -0.53033 
C -0.670975 -0.389685 -0.75 -0.198902 -0.75 0 
C -0.75 0.198902 -0.670975 0.389685 -0.53033 0.53033 
C -0.389685 0.670975 -0.198902 0.75 0 0.75 
z
" id="m3e49376e9a" style="stroke:#ff7f00;"/>
    </defs>
    <g clip-path="url(#p63056db398)">
     <use style="fill:#ff7f00;stroke:#ff7f00;" x="32.419602" xlink:href="#m3e49376e9a" y="101.787213"/>
     <use style="fill:#ff7f00;stroke:#ff7f00;" x="44.522771" xlink:href="#m3e49376e9a" y="89.057709"/>
     <use style="fill:#ff7f00;stroke:#ff7f00;" x="53.80986" xlink:href="#m3e49376e9a" y="82.731711"/>
     <use style="fill:#ff7f00;stroke:#ff7f00;" x="61.639237" xlink:href="#m3e49376e9a" y="79.085877"/>
     <use style="fill:#ff7f00;stroke:#ff7f00;" x="68.537057" xlink:href="#m3e49376e9a" y="75.147316"/>
     <use style="fill:#ff7f00;stroke:#ff7f00;" x="74.773164" xlink:href="#m3e49376e9a" y="71.041105"/>
     <use style="fill:#ff7f00;stroke:#ff7f00;" x="80.507855" xlink:href="#m3e49376e9a" y="66.676375"/>
     <use style="fill:#ff7f00;stroke:#ff7f00;" x="85.845576" xlink:href="#m3e49376e9a" y="61.975741"/>
     <use style="fill:#ff7f00;stroke:#ff7f00;" x="90.858872" xlink:href="#m3e49376e9a" y="58.692067"/>
     <use style="fill:#ff7f00;stroke:#ff7f00;" x="95.600566" xlink:href="#m3e49376e9a" y="56.024852"/>
     <use style="fill:#ff7f00;stroke:#ff7f00;" x="100.110533" xlink:href="#m3e49376e9a" y="53.552292"/>
     <use style="fill:#ff7f00;stroke:#ff7f00;" x="104.419752" xlink:href="#m3e49376e9a" y="51.561502"/>
     <use style="fill:#ff7f00;stroke:#ff7f00;" x="108.55286" xlink:href="#m3e49376e9a" y="49.771645"/>
     <use style="fill:#ff7f00;stroke:#ff7f00;" x="112.529831" xlink:href="#m3e49376e9a" y="48.220566"/>
     <use style="fill:#ff7f00;stroke:#ff7f00;" x="116.367127" xlink:href="#m3e49376e9a" y="46.171741"/>
     <use style="fill:#ff7f00;stroke:#ff7f00;" x="120.078507" xlink:href="#m3e49376e9a" y="45.067221"/>
     <use style="fill:#ff7f00;stroke:#ff7f00;" x="123.675609" xlink:href="#m3e49376e9a" y="43.962239"/>
     <use style="fill:#ff7f00;stroke:#ff7f00;" x="127.16838" xlink:href="#m3e49376e9a" y="42.725477"/>
     <use style="fill:#ff7f00;stroke:#ff7f00;" x="130.565404" xlink:href="#m3e49376e9a" y="41.636713"/>
     <use style="fill:#ff7f00;stroke:#ff7f00;" x="133.874148" xlink:href="#m3e49376e9a" y="40.393498"/>
    </g>
   </g>
   <g id="line2d_66">
    <path clip-path="url(#p63056db398)" d="M 85.845576 62.630293 
L 80.507855 66.387657 
L 74.773164 70.42446 
L 68.537057 74.814222 
L 61.639237 79.669782 
" style="fill:none;stroke:#000000;stroke-linecap:square;"/>
   </g>
   <g id="line2d_67">
    <path clip-path="url(#p63056db398)" d="M 133.874148 39.725708 
L 130.565404 41.103687 
L 127.16838 42.518431 
L 123.675609 43.97305 
L 120.078507 45.47112 
L 116.367127 47.016782 
L 112.529831 48.614885 
L 108.55286 50.271157 
L 104.419752 51.992455 
L 100.110533 53.787097 
L 95.600566 55.665343 
L 90.858872 57.640096 
" style="fill:none;stroke:#000000;stroke-linecap:square;"/>
   </g>
   <g id="line2d_68">
    <path clip-path="url(#p63056db398)" d="M 32.419602 103.778182 
L 44.522771 91.826815 
L 53.80986 86.508005 
L 61.639237 81.42748 
L 68.537057 78.970796 
L 74.773164 74.984883 
L 80.507855 70.151933 
L 85.845576 65.369478 
L 90.858872 61.888623 
L 95.600566 58.627686 
L 100.110533 56.054774 
L 104.419752 54.161758 
L 108.55286 52.301538 
L 112.529831 50.623513 
L 116.367127 49.20532 
L 120.078507 47.780287 
L 123.675609 45.925575 
L 127.16838 45.195543 
L 130.565404 43.867428 
L 133.874148 42.866139 
" style="fill:none;stroke:#e41a1c;stroke-linecap:square;stroke-width:1.5;"/>
    <defs>
     <path d="M 0 0.75 
C 0.198902 0.75 0.389685 0.670975 0.53033 0.53033 
C 0.670975 0.389685 0.75 0.198902 0.75 0 
C 0.75 -0.198902 0.670975 -0.389685 0.53033 -0.53033 
C 0.389685 -0.670975 0.198902 -0.75 0 -0.75 
C -0.198902 -0.75 -0.389685 -0.670975 -0.53033 -0.53033 
C -0.670975 -0.389685 -0.75 -0.198902 -0.75 0 
C -0.75 0.198902 -0.670975 0.389685 -0.53033 0.53033 
C -0.389685 0.670975 -0.198902 0.75 0 0.75 
z
" id="mf67258625e" style="stroke:#e41a1c;"/>
    </defs>
    <g clip-path="url(#p63056db398)">
     <use style="fill:#e41a1c;stroke:#e41a1c;" x="32.419602" xlink:href="#mf67258625e" y="103.778182"/>
     <use style="fill:#e41a1c;stroke:#e41a1c;" x="44.522771" xlink:href="#mf67258625e" y="91.826815"/>
     <use style="fill:#e41a1c;stroke:#e41a1c;" x="53.80986" xlink:href="#mf67258625e" y="86.508005"/>
     <use style="fill:#e41a1c;stroke:#e41a1c;" x="61.639237" xlink:href="#mf67258625e" y="81.42748"/>
     <use style="fill:#e41a1c;stroke:#e41a1c;" x="68.537057" xlink:href="#mf67258625e" y="78.970796"/>
     <use style="fill:#e41a1c;stroke:#e41a1c;" x="74.773164" xlink:href="#mf67258625e" y="74.984883"/>
     <use style="fill:#e41a1c;stroke:#e41a1c;" x="80.507855" xlink:href="#mf67258625e" y="70.151933"/>
     <use style="fill:#e41a1c;stroke:#e41a1c;" x="85.845576" xlink:href="#mf67258625e" y="65.369478"/>
     <use style="fill:#e41a1c;stroke:#e41a1c;" x="90.858872" xlink:href="#mf67258625e" y="61.888623"/>
     <use style="fill:#e41a1c;stroke:#e41a1c;" x="95.600566" xlink:href="#mf67258625e" y="58.627686"/>
     <use style="fill:#e41a1c;stroke:#e41a1c;" x="100.110533" xlink:href="#mf67258625e" y="56.054774"/>
     <use style="fill:#e41a1c;stroke:#e41a1c;" x="104.419752" xlink:href="#mf67258625e" y="54.161758"/>
     <use style="fill:#e41a1c;stroke:#e41a1c;" x="108.55286" xlink:href="#mf67258625e" y="52.301538"/>
     <use style="fill:#e41a1c;stroke:#e41a1c;" x="112.529831" xlink:href="#mf67258625e" y="50.623513"/>
     <use style="fill:#e41a1c;stroke:#e41a1c;" x="116.367127" xlink:href="#mf67258625e" y="49.20532"/>
     <use style="fill:#e41a1c;stroke:#e41a1c;" x="120.078507" xlink:href="#mf67258625e" y="47.780287"/>
     <use style="fill:#e41a1c;stroke:#e41a1c;" x="123.675609" xlink:href="#mf67258625e" y="45.925575"/>
     <use style="fill:#e41a1c;stroke:#e41a1c;" x="127.16838" xlink:href="#mf67258625e" y="45.195543"/>
     <use style="fill:#e41a1c;stroke:#e41a1c;" x="130.565404" xlink:href="#mf67258625e" y="43.867428"/>
     <use style="fill:#e41a1c;stroke:#e41a1c;" x="133.874148" xlink:href="#mf67258625e" y="42.866139"/>
    </g>
   </g>
   <g id="line2d_69">
    <path clip-path="url(#p63056db398)" d="M 74.773164 74.988446 
L 68.537057 78.414302 
L 61.639237 82.203676 
L 53.80986 86.504809 
L 44.522771 91.606747 
" style="fill:none;stroke:#000000;stroke-linecap:square;"/>
   </g>
   <g id="line2d_70">
    <path clip-path="url(#p63056db398)" d="M 123.675609 45.674868 
L 120.078507 47.347084 
L 116.367127 49.072425 
L 112.529831 50.856301 
L 108.55286 52.70511 
L 104.419752 54.626503 
L 100.110533 56.629766 
L 95.600566 58.726353 
L 90.858872 60.930665 
" style="fill:none;stroke:#000000;stroke-linecap:square;"/>
   </g>
   <g id="patch_3">
    <path d="M 27.346875 108.72 
L 27.346875 -0 
" style="fill:none;stroke:#000000;stroke-linecap:square;stroke-linejoin:miter;stroke-width:0.5;"/>
   </g>
   <g id="patch_4">
    <path d="M 138.946875 108.72 
L 138.946875 -0 
" style="fill:none;stroke:#000000;stroke-linecap:square;stroke-linejoin:miter;stroke-width:0.5;"/>
   </g>
   <g id="patch_5">
    <path d="M 27.346875 108.72 
L 138.946875 108.72 
" style="fill:none;stroke:#000000;stroke-linecap:square;stroke-linejoin:miter;stroke-width:0.5;"/>
   </g>
   <g id="patch_6">
    <path d="M 27.346875 0 
L 138.946875 0 
" style="fill:none;stroke:#000000;stroke-linecap:square;stroke-linejoin:miter;stroke-width:0.5;"/>
   </g>
  </g>
 </g>
 <defs>
  <clipPath id="p63056db398">
   <rect height="108.72" width="111.6" x="27.346875" y="0"/>
  </clipPath>
 </defs>
</svg>
