<?xml version="1.0" encoding="utf-8" standalone="no"?>
<!DOCTYPE svg PUBLIC "-//W3C//DTD SVG 1.1//EN"
  "http://www.w3.org/Graphics/SVG/1.1/DTD/svg11.dtd">
<svg height="128.249688pt" version="1.1" viewBox="0 0 138.946875 128.249688" width="138.946875pt" xmlns="http://www.w3.org/2000/svg" xmlns:xlink="http://www.w3.org/1999/xlink">
 <metadata>
  <rdf:RDF xmlns:cc="http://creativecommons.org/ns#" xmlns:dc="http://purl.org/dc/elements/1.1/" xmlns:rdf="http://www.w3.org/1999/02/22-rdf-syntax-ns#">
   <cc:Work>
    <dc:type rdf:resource="http://purl.org/dc/dcmitype/StillImage"/>
    <dc:date>2021-09-09T11:31:18.608255</dc:date>
    <dc:format>image/svg+xml</dc:format>
    <dc:creator>
     <cc:Agent>
      <dc:title>Matplotlib v3.4.3, https://matplotlib.org/</dc:title>
     </cc:Agent>
    </dc:creator>
   </cc:Work>
  </rdf:RDF>
 </metadata>
 <defs>
  <style type="text/css">*{stroke-linecap:butt;stroke-linejoin:round;}</style>
 </defs>
 <g id="figure_1">
  <g id="patch_1">
   <path d="M 0 128.249688 
L 138.946875 128.249688 
L 138.946875 0 
L 0 0 
z
" style="fill:none;"/>
  </g>
  <g id="axes_1">
   <g id="patch_2">
    <path d="M 27.346875 108.72 
L 138.946875 108.72 
L 138.946875 0 
L 27.346875 0 
z
" style="fill:none;"/>
   </g>
   <g id="matplotlib.axis_1">
    <g id="xtick_1">
     <g id="line2d_1">
      <defs>
       <path d="M 0 0 
L 0 -3.5 
" id="mb684401e77" style="stroke:#000000;stroke-width:0.5;"/>
      </defs>
      <g>
       <use style="stroke:#000000;stroke-width:0.5;" x="44.522771" xlink:href="#mb684401e77" y="108.72"/>
      </g>
     </g>
     <g id="line2d_2">
      <defs>
       <path d="M 0 0 
L 0 3.5 
" id="m2ef81b0f31" style="stroke:#000000;stroke-width:0.5;"/>
      </defs>
      <g>
       <use style="stroke:#000000;stroke-width:0.5;" x="44.522771" xlink:href="#m2ef81b0f31" y="0"/>
      </g>
     </g>
     <g id="text_1">
      <text style="font-family:Arial;font-size:10px;font-stretch:normal;font-style:normal;font-weight:normal;text-anchor:middle;" transform="rotate(-0, 44.522771, 116.877813)" x="44.522771" y="116.877813">1</text>
     </g>
    </g>
    <g id="xtick_2">
     <g id="line2d_3">
      <g>
       <use style="stroke:#000000;stroke-width:0.5;" x="85.845576" xlink:href="#mb684401e77" y="108.72"/>
      </g>
     </g>
     <g id="line2d_4">
      <g>
       <use style="stroke:#000000;stroke-width:0.5;" x="85.845576" xlink:href="#m2ef81b0f31" y="0"/>
      </g>
     </g>
     <g id="text_2">
      <text style="font-family:Arial;font-size:10px;font-stretch:normal;font-style:normal;font-weight:normal;text-anchor:middle;" transform="rotate(-0, 85.845576, 116.877813)" x="85.845576" y="116.877813">2</text>
     </g>
    </g>
    <g id="xtick_3">
     <g id="line2d_5">
      <g>
       <use style="stroke:#000000;stroke-width:0.5;" x="127.16838" xlink:href="#mb684401e77" y="108.72"/>
      </g>
     </g>
     <g id="line2d_6">
      <g>
       <use style="stroke:#000000;stroke-width:0.5;" x="127.16838" xlink:href="#m2ef81b0f31" y="0"/>
      </g>
     </g>
     <g id="text_3">
      <text style="font-family:Arial;font-size:10px;font-stretch:normal;font-style:normal;font-weight:normal;text-anchor:middle;" transform="rotate(-0, 127.16838, 116.877813)" x="127.16838" y="116.877813">3</text>
     </g>
    </g>
    <g id="xtick_4">
     <g id="line2d_7">
      <defs>
       <path d="M 0 0 
L 0 -2 
" id="meceb7f0c45" style="stroke:#000000;stroke-width:0.5;"/>
      </defs>
      <g>
       <use style="stroke:#000000;stroke-width:0.5;" x="27.99365" xlink:href="#meceb7f0c45" y="108.72"/>
      </g>
     </g>
     <g id="line2d_8">
      <defs>
       <path d="M 0 0 
L 0 2 
" id="me7c69d3653" style="stroke:#000000;stroke-width:0.5;"/>
      </defs>
      <g>
       <use style="stroke:#000000;stroke-width:0.5;" x="27.99365" xlink:href="#me7c69d3653" y="0"/>
      </g>
     </g>
    </g>
    <g id="xtick_5">
     <g id="line2d_9">
      <g>
       <use style="stroke:#000000;stroke-width:0.5;" x="36.258211" xlink:href="#meceb7f0c45" y="108.72"/>
      </g>
     </g>
     <g id="line2d_10">
      <g>
       <use style="stroke:#000000;stroke-width:0.5;" x="36.258211" xlink:href="#me7c69d3653" y="0"/>
      </g>
     </g>
    </g>
    <g id="xtick_6">
     <g id="line2d_11">
      <g>
       <use style="stroke:#000000;stroke-width:0.5;" x="52.787332" xlink:href="#meceb7f0c45" y="108.72"/>
      </g>
     </g>
     <g id="line2d_12">
      <g>
       <use style="stroke:#000000;stroke-width:0.5;" x="52.787332" xlink:href="#me7c69d3653" y="0"/>
      </g>
     </g>
    </g>
    <g id="xtick_7">
     <g id="line2d_13">
      <g>
       <use style="stroke:#000000;stroke-width:0.5;" x="61.051893" xlink:href="#meceb7f0c45" y="108.72"/>
      </g>
     </g>
     <g id="line2d_14">
      <g>
       <use style="stroke:#000000;stroke-width:0.5;" x="61.051893" xlink:href="#me7c69d3653" y="0"/>
      </g>
     </g>
    </g>
    <g id="xtick_8">
     <g id="line2d_15">
      <g>
       <use style="stroke:#000000;stroke-width:0.5;" x="69.316454" xlink:href="#meceb7f0c45" y="108.72"/>
      </g>
     </g>
     <g id="line2d_16">
      <g>
       <use style="stroke:#000000;stroke-width:0.5;" x="69.316454" xlink:href="#me7c69d3653" y="0"/>
      </g>
     </g>
    </g>
    <g id="xtick_9">
     <g id="line2d_17">
      <g>
       <use style="stroke:#000000;stroke-width:0.5;" x="77.581015" xlink:href="#meceb7f0c45" y="108.72"/>
      </g>
     </g>
     <g id="line2d_18">
      <g>
       <use style="stroke:#000000;stroke-width:0.5;" x="77.581015" xlink:href="#me7c69d3653" y="0"/>
      </g>
     </g>
    </g>
    <g id="xtick_10">
     <g id="line2d_19">
      <g>
       <use style="stroke:#000000;stroke-width:0.5;" x="94.110136" xlink:href="#meceb7f0c45" y="108.72"/>
      </g>
     </g>
     <g id="line2d_20">
      <g>
       <use style="stroke:#000000;stroke-width:0.5;" x="94.110136" xlink:href="#me7c69d3653" y="0"/>
      </g>
     </g>
    </g>
    <g id="xtick_11">
     <g id="line2d_21">
      <g>
       <use style="stroke:#000000;stroke-width:0.5;" x="102.374697" xlink:href="#meceb7f0c45" y="108.72"/>
      </g>
     </g>
     <g id="line2d_22">
      <g>
       <use style="stroke:#000000;stroke-width:0.5;" x="102.374697" xlink:href="#me7c69d3653" y="0"/>
      </g>
     </g>
    </g>
    <g id="xtick_12">
     <g id="line2d_23">
      <g>
       <use style="stroke:#000000;stroke-width:0.5;" x="110.639258" xlink:href="#meceb7f0c45" y="108.72"/>
      </g>
     </g>
     <g id="line2d_24">
      <g>
       <use style="stroke:#000000;stroke-width:0.5;" x="110.639258" xlink:href="#me7c69d3653" y="0"/>
      </g>
     </g>
    </g>
    <g id="xtick_13">
     <g id="line2d_25">
      <g>
       <use style="stroke:#000000;stroke-width:0.5;" x="118.903819" xlink:href="#meceb7f0c45" y="108.72"/>
      </g>
     </g>
     <g id="line2d_26">
      <g>
       <use style="stroke:#000000;stroke-width:0.5;" x="118.903819" xlink:href="#me7c69d3653" y="0"/>
      </g>
     </g>
    </g>
    <g id="xtick_14">
     <g id="line2d_27">
      <g>
       <use style="stroke:#000000;stroke-width:0.5;" x="135.432941" xlink:href="#meceb7f0c45" y="108.72"/>
      </g>
     </g>
     <g id="line2d_28">
      <g>
       <use style="stroke:#000000;stroke-width:0.5;" x="135.432941" xlink:href="#me7c69d3653" y="0"/>
      </g>
     </g>
    </g>
    <g id="text_4">
     <text style="font-family:Arial;font-size:10px;font-stretch:normal;font-style:normal;font-weight:normal;text-anchor:middle;" transform="rotate(-0, 83.146875, 126.145)" x="83.146875" y="126.145">V<tspan
   style="font-size:65%;baseline-shift:super"
   id="tspan15378">1/2</tspan></text>
    </g>
   </g>
   <g id="matplotlib.axis_2">
    <g id="ytick_1">
     <g id="line2d_29">
      <defs>
       <path d="M 0 0 
L 3.5 0 
" id="mb91d067f70" style="stroke:#000000;stroke-width:0.5;"/>
      </defs>
      <g>
       <use style="stroke:#000000;stroke-width:0.5;" x="27.346875" xlink:href="#mb91d067f70" y="91.620258"/>
      </g>
     </g>
     <g id="line2d_30">
      <defs>
       <path d="M 0 0 
L -3.5 0 
" id="m03c579ffec" style="stroke:#000000;stroke-width:0.5;"/>
      </defs>
      <g>
       <use style="stroke:#000000;stroke-width:0.5;" x="138.946875" xlink:href="#m03c579ffec" y="91.620258"/>
      </g>
     </g>
     <g id="text_5">
      <text style="font-family:Arial;font-size:10px;font-stretch:normal;font-style:normal;font-weight:normal;text-anchor:end;" transform="rotate(-0, 26.346875, 95.199164)" x="26.346875" y="95.199164">−18</text>
     </g>
    </g>
    <g id="ytick_2">
     <g id="line2d_31">
      <g>
       <use style="stroke:#000000;stroke-width:0.5;" x="27.346875" xlink:href="#mb91d067f70" y="57.074364"/>
      </g>
     </g>
     <g id="line2d_32">
      <g>
       <use style="stroke:#000000;stroke-width:0.5;" x="138.946875" xlink:href="#m03c579ffec" y="57.074364"/>
      </g>
     </g>
     <g id="text_6">
      <text style="font-family:Arial;font-size:10px;font-stretch:normal;font-style:normal;font-weight:normal;text-anchor:end;" transform="rotate(-0, 26.346875, 60.653271)" x="26.346875" y="60.653271">−17</text>
     </g>
    </g>
    <g id="ytick_3">
     <g id="line2d_33">
      <g>
       <use style="stroke:#000000;stroke-width:0.5;" x="27.346875" xlink:href="#mb91d067f70" y="22.528471"/>
      </g>
     </g>
     <g id="line2d_34">
      <g>
       <use style="stroke:#000000;stroke-width:0.5;" x="138.946875" xlink:href="#m03c579ffec" y="22.528471"/>
      </g>
     </g>
     <g id="text_7">
      <text style="font-family:Arial;font-size:10px;font-stretch:normal;font-style:normal;font-weight:normal;text-anchor:end;" transform="rotate(-0, 26.346875, 26.107377)" x="26.346875" y="26.107377">−16</text>
     </g>
    </g>
    <g id="ytick_4">
     <g id="line2d_35">
      <defs>
       <path d="M 0 0 
L 2 0 
" id="m64236f694f" style="stroke:#000000;stroke-width:0.5;"/>
      </defs>
      <g>
       <use style="stroke:#000000;stroke-width:0.5;" x="27.346875" xlink:href="#m64236f694f" y="105.438615"/>
      </g>
     </g>
     <g id="line2d_36">
      <defs>
       <path d="M 0 0 
L -2 0 
" id="m60c3d86159" style="stroke:#000000;stroke-width:0.5;"/>
      </defs>
      <g>
       <use style="stroke:#000000;stroke-width:0.5;" x="138.946875" xlink:href="#m60c3d86159" y="105.438615"/>
      </g>
     </g>
    </g>
    <g id="ytick_5">
     <g id="line2d_37">
      <g>
       <use style="stroke:#000000;stroke-width:0.5;" x="27.346875" xlink:href="#m64236f694f" y="98.529436"/>
      </g>
     </g>
     <g id="line2d_38">
      <g>
       <use style="stroke:#000000;stroke-width:0.5;" x="138.946875" xlink:href="#m60c3d86159" y="98.529436"/>
      </g>
     </g>
    </g>
    <g id="ytick_6">
     <g id="line2d_39">
      <g>
       <use style="stroke:#000000;stroke-width:0.5;" x="27.346875" xlink:href="#m64236f694f" y="84.711079"/>
      </g>
     </g>
     <g id="line2d_40">
      <g>
       <use style="stroke:#000000;stroke-width:0.5;" x="138.946875" xlink:href="#m60c3d86159" y="84.711079"/>
      </g>
     </g>
    </g>
    <g id="ytick_7">
     <g id="line2d_41">
      <g>
       <use style="stroke:#000000;stroke-width:0.5;" x="27.346875" xlink:href="#m64236f694f" y="77.8019"/>
      </g>
     </g>
     <g id="line2d_42">
      <g>
       <use style="stroke:#000000;stroke-width:0.5;" x="138.946875" xlink:href="#m60c3d86159" y="77.8019"/>
      </g>
     </g>
    </g>
    <g id="ytick_8">
     <g id="line2d_43">
      <g>
       <use style="stroke:#000000;stroke-width:0.5;" x="27.346875" xlink:href="#m64236f694f" y="70.892722"/>
      </g>
     </g>
     <g id="line2d_44">
      <g>
       <use style="stroke:#000000;stroke-width:0.5;" x="138.946875" xlink:href="#m60c3d86159" y="70.892722"/>
      </g>
     </g>
    </g>
    <g id="ytick_9">
     <g id="line2d_45">
      <g>
       <use style="stroke:#000000;stroke-width:0.5;" x="27.346875" xlink:href="#m64236f694f" y="63.983543"/>
      </g>
     </g>
     <g id="line2d_46">
      <g>
       <use style="stroke:#000000;stroke-width:0.5;" x="138.946875" xlink:href="#m60c3d86159" y="63.983543"/>
      </g>
     </g>
    </g>
    <g id="ytick_10">
     <g id="line2d_47">
      <g>
       <use style="stroke:#000000;stroke-width:0.5;" x="27.346875" xlink:href="#m64236f694f" y="50.165186"/>
      </g>
     </g>
     <g id="line2d_48">
      <g>
       <use style="stroke:#000000;stroke-width:0.5;" x="138.946875" xlink:href="#m60c3d86159" y="50.165186"/>
      </g>
     </g>
    </g>
    <g id="ytick_11">
     <g id="line2d_49">
      <g>
       <use style="stroke:#000000;stroke-width:0.5;" x="27.346875" xlink:href="#m64236f694f" y="43.256007"/>
      </g>
     </g>
     <g id="line2d_50">
      <g>
       <use style="stroke:#000000;stroke-width:0.5;" x="138.946875" xlink:href="#m60c3d86159" y="43.256007"/>
      </g>
     </g>
    </g>
    <g id="ytick_12">
     <g id="line2d_51">
      <g>
       <use style="stroke:#000000;stroke-width:0.5;" x="27.346875" xlink:href="#m64236f694f" y="36.346828"/>
      </g>
     </g>
     <g id="line2d_52">
      <g>
       <use style="stroke:#000000;stroke-width:0.5;" x="138.946875" xlink:href="#m60c3d86159" y="36.346828"/>
      </g>
     </g>
    </g>
    <g id="ytick_13">
     <g id="line2d_53">
      <g>
       <use style="stroke:#000000;stroke-width:0.5;" x="27.346875" xlink:href="#m64236f694f" y="29.43765"/>
      </g>
     </g>
     <g id="line2d_54">
      <g>
       <use style="stroke:#000000;stroke-width:0.5;" x="138.946875" xlink:href="#m60c3d86159" y="29.43765"/>
      </g>
     </g>
    </g>
    <g id="ytick_14">
     <g id="line2d_55">
      <g>
       <use style="stroke:#000000;stroke-width:0.5;" x="27.346875" xlink:href="#m64236f694f" y="15.619292"/>
      </g>
     </g>
     <g id="line2d_56">
      <g>
       <use style="stroke:#000000;stroke-width:0.5;" x="138.946875" xlink:href="#m60c3d86159" y="15.619292"/>
      </g>
     </g>
    </g>
    <g id="ytick_15">
     <g id="line2d_57">
      <g>
       <use style="stroke:#000000;stroke-width:0.5;" x="27.346875" xlink:href="#m64236f694f" y="8.710114"/>
      </g>
     </g>
     <g id="line2d_58">
      <g>
       <use style="stroke:#000000;stroke-width:0.5;" x="138.946875" xlink:href="#m60c3d86159" y="8.710114"/>
      </g>
     </g>
    </g>
    <g id="ytick_16">
     <g id="line2d_59">
      <g>
       <use style="stroke:#000000;stroke-width:0.5;" x="27.346875" xlink:href="#m64236f694f" y="1.800935"/>
      </g>
     </g>
     <g id="line2d_60">
      <g>
       <use style="stroke:#000000;stroke-width:0.5;" x="138.946875" xlink:href="#m60c3d86159" y="1.800935"/>
      </g>
     </g>
    </g>
    <g id="text_8">
     <text style="font-family:Arial;font-size:10px;font-stretch:normal;font-style:normal;font-weight:normal;text-anchor:middle;" transform="rotate(-90, 7.279688, 54.36)" x="7.279688" y="54.36">ln(I/V)</text>
    </g>
   </g>
   <g id="line2d_61">
    <path clip-path="url(#p0824974c6a)" d="M 32.419602 102.49015 
L 44.522771 101.670089 
L 53.80986 101.55738 
L 61.639237 101.62863 
L 68.537057 102.135839 
L 74.773164 102.937298 
L 80.507855 103.120629 
L 85.845576 103.125231 
L 90.858872 103.778182 
L 95.600566 103.299049 
L 100.110533 102.760837 
L 104.419752 101.448587 
L 108.55286 101.252605 
L 112.529831 100.322627 
L 116.367127 98.713175 
L 120.078507 95.559935 
L 123.675609 94.923801 
L 127.16838 93.089548 
L 130.565404 91.270889 
L 133.874148 89.540892 
" style="fill:none;stroke:#e41a1c;stroke-linecap:square;stroke-width:1.5;"/>
    <defs>
     <path d="M 0 0.75 
C 0.198902 0.75 0.389685 0.670975 0.53033 0.53033 
C 0.670975 0.389685 0.75 0.198902 0.75 0 
C 0.75 -0.198902 0.670975 -0.389685 0.53033 -0.53033 
C 0.389685 -0.670975 0.198902 -0.75 0 -0.75 
C -0.198902 -0.75 -0.389685 -0.670975 -0.53033 -0.53033 
C -0.670975 -0.389685 -0.75 -0.198902 -0.75 0 
C -0.75 0.198902 -0.670975 0.389685 -0.53033 0.53033 
C -0.389685 0.670975 -0.198902 0.75 0 0.75 
z
" id="m758b908d2f" style="stroke:#e41a1c;"/>
    </defs>
    <g clip-path="url(#p0824974c6a)">
     <use style="fill:#e41a1c;stroke:#e41a1c;" x="32.419602" xlink:href="#m758b908d2f" y="102.49015"/>
     <use style="fill:#e41a1c;stroke:#e41a1c;" x="44.522771" xlink:href="#m758b908d2f" y="101.670089"/>
     <use style="fill:#e41a1c;stroke:#e41a1c;" x="53.80986" xlink:href="#m758b908d2f" y="101.55738"/>
     <use style="fill:#e41a1c;stroke:#e41a1c;" x="61.639237" xlink:href="#m758b908d2f" y="101.62863"/>
     <use style="fill:#e41a1c;stroke:#e41a1c;" x="68.537057" xlink:href="#m758b908d2f" y="102.135839"/>
     <use style="fill:#e41a1c;stroke:#e41a1c;" x="74.773164" xlink:href="#m758b908d2f" y="102.937298"/>
     <use style="fill:#e41a1c;stroke:#e41a1c;" x="80.507855" xlink:href="#m758b908d2f" y="103.120629"/>
     <use style="fill:#e41a1c;stroke:#e41a1c;" x="85.845576" xlink:href="#m758b908d2f" y="103.125231"/>
     <use style="fill:#e41a1c;stroke:#e41a1c;" x="90.858872" xlink:href="#m758b908d2f" y="103.778182"/>
     <use style="fill:#e41a1c;stroke:#e41a1c;" x="95.600566" xlink:href="#m758b908d2f" y="103.299049"/>
     <use style="fill:#e41a1c;stroke:#e41a1c;" x="100.110533" xlink:href="#m758b908d2f" y="102.760837"/>
     <use style="fill:#e41a1c;stroke:#e41a1c;" x="104.419752" xlink:href="#m758b908d2f" y="101.448587"/>
     <use style="fill:#e41a1c;stroke:#e41a1c;" x="108.55286" xlink:href="#m758b908d2f" y="101.252605"/>
     <use style="fill:#e41a1c;stroke:#e41a1c;" x="112.529831" xlink:href="#m758b908d2f" y="100.322627"/>
     <use style="fill:#e41a1c;stroke:#e41a1c;" x="116.367127" xlink:href="#m758b908d2f" y="98.713175"/>
     <use style="fill:#e41a1c;stroke:#e41a1c;" x="120.078507" xlink:href="#m758b908d2f" y="95.559935"/>
     <use style="fill:#e41a1c;stroke:#e41a1c;" x="123.675609" xlink:href="#m758b908d2f" y="94.923801"/>
     <use style="fill:#e41a1c;stroke:#e41a1c;" x="127.16838" xlink:href="#m758b908d2f" y="93.089548"/>
     <use style="fill:#e41a1c;stroke:#e41a1c;" x="130.565404" xlink:href="#m758b908d2f" y="91.270889"/>
     <use style="fill:#e41a1c;stroke:#e41a1c;" x="133.874148" xlink:href="#m758b908d2f" y="89.540892"/>
    </g>
   </g>
   <g id="line2d_62">
    <path clip-path="url(#p0824974c6a)" d="M 32.419602 67.43779 
L 44.522771 67.023135 
L 53.80986 66.947238 
L 61.639237 67.431033 
L 68.537057 67.88713 
L 74.773164 67.211483 
L 80.507855 65.611236 
L 85.845576 65.551687 
L 90.858872 64.557643 
L 95.600566 63.462966 
L 100.110533 62.867251 
L 104.419752 62.399801 
L 108.55286 62.016378 
L 112.529831 61.882018 
L 116.367127 62.720033 
L 120.078507 63.023062 
L 123.675609 63.099507 
L 127.16838 62.780927 
L 130.565404 63.059335 
L 133.874148 63.203725 
" style="fill:none;stroke:#ff7f00;stroke-linecap:square;stroke-width:1.5;"/>
    <defs>
     <path d="M 0 0.75 
C 0.198902 0.75 0.389685 0.670975 0.53033 0.53033 
C 0.670975 0.389685 0.75 0.198902 0.75 0 
C 0.75 -0.198902 0.670975 -0.389685 0.53033 -0.53033 
C 0.389685 -0.670975 0.198902 -0.75 0 -0.75 
C -0.198902 -0.75 -0.389685 -0.670975 -0.53033 -0.53033 
C -0.670975 -0.389685 -0.75 -0.198902 -0.75 0 
C -0.75 0.198902 -0.670975 0.389685 -0.53033 0.53033 
C -0.389685 0.670975 -0.198902 0.75 0 0.75 
z
" id="m6730de5226" style="stroke:#ff7f00;"/>
    </defs>
    <g clip-path="url(#p0824974c6a)">
     <use style="fill:#ff7f00;stroke:#ff7f00;" x="32.419602" xlink:href="#m6730de5226" y="67.43779"/>
     <use style="fill:#ff7f00;stroke:#ff7f00;" x="44.522771" xlink:href="#m6730de5226" y="67.023135"/>
     <use style="fill:#ff7f00;stroke:#ff7f00;" x="53.80986" xlink:href="#m6730de5226" y="66.947238"/>
     <use style="fill:#ff7f00;stroke:#ff7f00;" x="61.639237" xlink:href="#m6730de5226" y="67.431033"/>
     <use style="fill:#ff7f00;stroke:#ff7f00;" x="68.537057" xlink:href="#m6730de5226" y="67.88713"/>
     <use style="fill:#ff7f00;stroke:#ff7f00;" x="74.773164" xlink:href="#m6730de5226" y="67.211483"/>
     <use style="fill:#ff7f00;stroke:#ff7f00;" x="80.507855" xlink:href="#m6730de5226" y="65.611236"/>
     <use style="fill:#ff7f00;stroke:#ff7f00;" x="85.845576" xlink:href="#m6730de5226" y="65.551687"/>
     <use style="fill:#ff7f00;stroke:#ff7f00;" x="90.858872" xlink:href="#m6730de5226" y="64.557643"/>
     <use style="fill:#ff7f00;stroke:#ff7f00;" x="95.600566" xlink:href="#m6730de5226" y="63.462966"/>
     <use style="fill:#ff7f00;stroke:#ff7f00;" x="100.110533" xlink:href="#m6730de5226" y="62.867251"/>
     <use style="fill:#ff7f00;stroke:#ff7f00;" x="104.419752" xlink:href="#m6730de5226" y="62.399801"/>
     <use style="fill:#ff7f00;stroke:#ff7f00;" x="108.55286" xlink:href="#m6730de5226" y="62.016378"/>
     <use style="fill:#ff7f00;stroke:#ff7f00;" x="112.529831" xlink:href="#m6730de5226" y="61.882018"/>
     <use style="fill:#ff7f00;stroke:#ff7f00;" x="116.367127" xlink:href="#m6730de5226" y="62.720033"/>
     <use style="fill:#ff7f00;stroke:#ff7f00;" x="120.078507" xlink:href="#m6730de5226" y="63.023062"/>
     <use style="fill:#ff7f00;stroke:#ff7f00;" x="123.675609" xlink:href="#m6730de5226" y="63.099507"/>
     <use style="fill:#ff7f00;stroke:#ff7f00;" x="127.16838" xlink:href="#m6730de5226" y="62.780927"/>
     <use style="fill:#ff7f00;stroke:#ff7f00;" x="130.565404" xlink:href="#m6730de5226" y="63.059335"/>
     <use style="fill:#ff7f00;stroke:#ff7f00;" x="133.874148" xlink:href="#m6730de5226" y="63.203725"/>
    </g>
   </g>
   <g id="line2d_63">
    <path clip-path="url(#p0824974c6a)" d="M 32.419602 52.251243 
L 44.522771 51.365817 
L 53.80986 51.128432 
L 61.639237 51.997992 
L 68.537057 50.091447 
L 74.773164 49.726075 
L 80.507855 48.446402 
L 85.845576 47.226323 
L 90.858872 45.924606 
L 95.600566 45.007494 
L 100.110533 44.466643 
L 104.419752 44.297969 
L 108.55286 44.192552 
L 112.529831 44.051914 
L 116.367127 44.237067 
L 120.078507 44.467425 
L 123.675609 44.787083 
L 127.16838 45.004172 
L 130.565404 45.313339 
L 133.874148 46.038403 
" style="fill:none;stroke:#984ea3;stroke-linecap:square;stroke-width:1.5;"/>
    <defs>
     <path d="M 0 0.75 
C 0.198902 0.75 0.389685 0.670975 0.53033 0.53033 
C 0.670975 0.389685 0.75 0.198902 0.75 0 
C 0.75 -0.198902 0.670975 -0.389685 0.53033 -0.53033 
C 0.389685 -0.670975 0.198902 -0.75 0 -0.75 
C -0.198902 -0.75 -0.389685 -0.670975 -0.53033 -0.53033 
C -0.670975 -0.389685 -0.75 -0.198902 -0.75 0 
C -0.75 0.198902 -0.670975 0.389685 -0.53033 0.53033 
C -0.389685 0.670975 -0.198902 0.75 0 0.75 
z
" id="m80aa3b3b20" style="stroke:#984ea3;"/>
    </defs>
    <g clip-path="url(#p0824974c6a)">
     <use style="fill:#984ea3;stroke:#984ea3;" x="32.419602" xlink:href="#m80aa3b3b20" y="52.251243"/>
     <use style="fill:#984ea3;stroke:#984ea3;" x="44.522771" xlink:href="#m80aa3b3b20" y="51.365817"/>
     <use style="fill:#984ea3;stroke:#984ea3;" x="53.80986" xlink:href="#m80aa3b3b20" y="51.128432"/>
     <use style="fill:#984ea3;stroke:#984ea3;" x="61.639237" xlink:href="#m80aa3b3b20" y="51.997992"/>
     <use style="fill:#984ea3;stroke:#984ea3;" x="68.537057" xlink:href="#m80aa3b3b20" y="50.091447"/>
     <use style="fill:#984ea3;stroke:#984ea3;" x="74.773164" xlink:href="#m80aa3b3b20" y="49.726075"/>
     <use style="fill:#984ea3;stroke:#984ea3;" x="80.507855" xlink:href="#m80aa3b3b20" y="48.446402"/>
     <use style="fill:#984ea3;stroke:#984ea3;" x="85.845576" xlink:href="#m80aa3b3b20" y="47.226323"/>
     <use style="fill:#984ea3;stroke:#984ea3;" x="90.858872" xlink:href="#m80aa3b3b20" y="45.924606"/>
     <use style="fill:#984ea3;stroke:#984ea3;" x="95.600566" xlink:href="#m80aa3b3b20" y="45.007494"/>
     <use style="fill:#984ea3;stroke:#984ea3;" x="100.110533" xlink:href="#m80aa3b3b20" y="44.466643"/>
     <use style="fill:#984ea3;stroke:#984ea3;" x="104.419752" xlink:href="#m80aa3b3b20" y="44.297969"/>
     <use style="fill:#984ea3;stroke:#984ea3;" x="108.55286" xlink:href="#m80aa3b3b20" y="44.192552"/>
     <use style="fill:#984ea3;stroke:#984ea3;" x="112.529831" xlink:href="#m80aa3b3b20" y="44.051914"/>
     <use style="fill:#984ea3;stroke:#984ea3;" x="116.367127" xlink:href="#m80aa3b3b20" y="44.237067"/>
     <use style="fill:#984ea3;stroke:#984ea3;" x="120.078507" xlink:href="#m80aa3b3b20" y="44.467425"/>
     <use style="fill:#984ea3;stroke:#984ea3;" x="123.675609" xlink:href="#m80aa3b3b20" y="44.787083"/>
     <use style="fill:#984ea3;stroke:#984ea3;" x="127.16838" xlink:href="#m80aa3b3b20" y="45.004172"/>
     <use style="fill:#984ea3;stroke:#984ea3;" x="130.565404" xlink:href="#m80aa3b3b20" y="45.313339"/>
     <use style="fill:#984ea3;stroke:#984ea3;" x="133.874148" xlink:href="#m80aa3b3b20" y="46.038403"/>
    </g>
   </g>
   <g id="line2d_64">
    <path clip-path="url(#p0824974c6a)" d="M 32.419602 36.901679 
L 44.522771 36.393225 
L 53.80986 37.001583 
L 61.639237 38.310281 
L 68.537057 38.708391 
L 74.773164 37.608916 
L 80.507855 36.83782 
L 85.845576 35.989576 
L 90.858872 35.044531 
L 95.600566 34.227125 
L 100.110533 34.227773 
L 104.419752 34.042841 
L 108.55286 34.396311 
L 112.529831 34.190003 
L 116.367127 34.297337 
L 120.078507 34.732344 
L 123.675609 34.853418 
L 127.16838 35.231405 
L 130.565404 35.22765 
L 133.874148 35.395095 
" style="fill:none;stroke:#a65628;stroke-linecap:square;stroke-width:1.5;"/>
    <defs>
     <path d="M 0 0.75 
C 0.198902 0.75 0.389685 0.670975 0.53033 0.53033 
C 0.670975 0.389685 0.75 0.198902 0.75 0 
C 0.75 -0.198902 0.670975 -0.389685 0.53033 -0.53033 
C 0.389685 -0.670975 0.198902 -0.75 0 -0.75 
C -0.198902 -0.75 -0.389685 -0.670975 -0.53033 -0.53033 
C -0.670975 -0.389685 -0.75 -0.198902 -0.75 0 
C -0.75 0.198902 -0.670975 0.389685 -0.53033 0.53033 
C -0.389685 0.670975 -0.198902 0.75 0 0.75 
z
" id="m86ea6bf36c" style="stroke:#a65628;"/>
    </defs>
    <g clip-path="url(#p0824974c6a)">
     <use style="fill:#a65628;stroke:#a65628;" x="32.419602" xlink:href="#m86ea6bf36c" y="36.901679"/>
     <use style="fill:#a65628;stroke:#a65628;" x="44.522771" xlink:href="#m86ea6bf36c" y="36.393225"/>
     <use style="fill:#a65628;stroke:#a65628;" x="53.80986" xlink:href="#m86ea6bf36c" y="37.001583"/>
     <use style="fill:#a65628;stroke:#a65628;" x="61.639237" xlink:href="#m86ea6bf36c" y="38.310281"/>
     <use style="fill:#a65628;stroke:#a65628;" x="68.537057" xlink:href="#m86ea6bf36c" y="38.708391"/>
     <use style="fill:#a65628;stroke:#a65628;" x="74.773164" xlink:href="#m86ea6bf36c" y="37.608916"/>
     <use style="fill:#a65628;stroke:#a65628;" x="80.507855" xlink:href="#m86ea6bf36c" y="36.83782"/>
     <use style="fill:#a65628;stroke:#a65628;" x="85.845576" xlink:href="#m86ea6bf36c" y="35.989576"/>
     <use style="fill:#a65628;stroke:#a65628;" x="90.858872" xlink:href="#m86ea6bf36c" y="35.044531"/>
     <use style="fill:#a65628;stroke:#a65628;" x="95.600566" xlink:href="#m86ea6bf36c" y="34.227125"/>
     <use style="fill:#a65628;stroke:#a65628;" x="100.110533" xlink:href="#m86ea6bf36c" y="34.227773"/>
     <use style="fill:#a65628;stroke:#a65628;" x="104.419752" xlink:href="#m86ea6bf36c" y="34.042841"/>
     <use style="fill:#a65628;stroke:#a65628;" x="108.55286" xlink:href="#m86ea6bf36c" y="34.396311"/>
     <use style="fill:#a65628;stroke:#a65628;" x="112.529831" xlink:href="#m86ea6bf36c" y="34.190003"/>
     <use style="fill:#a65628;stroke:#a65628;" x="116.367127" xlink:href="#m86ea6bf36c" y="34.297337"/>
     <use style="fill:#a65628;stroke:#a65628;" x="120.078507" xlink:href="#m86ea6bf36c" y="34.732344"/>
     <use style="fill:#a65628;stroke:#a65628;" x="123.675609" xlink:href="#m86ea6bf36c" y="34.853418"/>
     <use style="fill:#a65628;stroke:#a65628;" x="127.16838" xlink:href="#m86ea6bf36c" y="35.231405"/>
     <use style="fill:#a65628;stroke:#a65628;" x="130.565404" xlink:href="#m86ea6bf36c" y="35.22765"/>
     <use style="fill:#a65628;stroke:#a65628;" x="133.874148" xlink:href="#m86ea6bf36c" y="35.395095"/>
    </g>
   </g>
   <g id="line2d_65">
    <path clip-path="url(#p0824974c6a)" d="M 32.419602 22.750942 
L 44.522771 23.926956 
L 53.80986 25.147502 
L 61.639237 27.179201 
L 68.537057 27.924257 
L 74.773164 28.182428 
L 80.507855 28.268641 
L 85.845576 27.97626 
L 90.858872 28.227986 
L 95.600566 28.251805 
L 100.110533 28.315159 
L 104.419752 28.257831 
L 108.55286 28.731413 
L 112.529831 29.053854 
L 116.367127 29.014081 
L 120.078507 29.443959 
L 123.675609 29.979727 
L 127.16838 30.193322 
L 130.565404 30.492857 
L 133.874148 30.967557 
" style="fill:none;stroke:#4daf4a;stroke-linecap:square;stroke-width:1.5;"/>
    <defs>
     <path d="M 0 0.75 
C 0.198902 0.75 0.389685 0.670975 0.53033 0.53033 
C 0.670975 0.389685 0.75 0.198902 0.75 0 
C 0.75 -0.198902 0.670975 -0.389685 0.53033 -0.53033 
C 0.389685 -0.670975 0.198902 -0.75 0 -0.75 
C -0.198902 -0.75 -0.389685 -0.670975 -0.53033 -0.53033 
C -0.670975 -0.389685 -0.75 -0.198902 -0.75 0 
C -0.75 0.198902 -0.670975 0.389685 -0.53033 0.53033 
C -0.389685 0.670975 -0.198902 0.75 0 0.75 
z
" id="mcee4eb9695" style="stroke:#4daf4a;"/>
    </defs>
    <g clip-path="url(#p0824974c6a)">
     <use style="fill:#4daf4a;stroke:#4daf4a;" x="32.419602" xlink:href="#mcee4eb9695" y="22.750942"/>
     <use style="fill:#4daf4a;stroke:#4daf4a;" x="44.522771" xlink:href="#mcee4eb9695" y="23.926956"/>
     <use style="fill:#4daf4a;stroke:#4daf4a;" x="53.80986" xlink:href="#mcee4eb9695" y="25.147502"/>
     <use style="fill:#4daf4a;stroke:#4daf4a;" x="61.639237" xlink:href="#mcee4eb9695" y="27.179201"/>
     <use style="fill:#4daf4a;stroke:#4daf4a;" x="68.537057" xlink:href="#mcee4eb9695" y="27.924257"/>
     <use style="fill:#4daf4a;stroke:#4daf4a;" x="74.773164" xlink:href="#mcee4eb9695" y="28.182428"/>
     <use style="fill:#4daf4a;stroke:#4daf4a;" x="80.507855" xlink:href="#mcee4eb9695" y="28.268641"/>
     <use style="fill:#4daf4a;stroke:#4daf4a;" x="85.845576" xlink:href="#mcee4eb9695" y="27.97626"/>
     <use style="fill:#4daf4a;stroke:#4daf4a;" x="90.858872" xlink:href="#mcee4eb9695" y="28.227986"/>
     <use style="fill:#4daf4a;stroke:#4daf4a;" x="95.600566" xlink:href="#mcee4eb9695" y="28.251805"/>
     <use style="fill:#4daf4a;stroke:#4daf4a;" x="100.110533" xlink:href="#mcee4eb9695" y="28.315159"/>
     <use style="fill:#4daf4a;stroke:#4daf4a;" x="104.419752" xlink:href="#mcee4eb9695" y="28.257831"/>
     <use style="fill:#4daf4a;stroke:#4daf4a;" x="108.55286" xlink:href="#mcee4eb9695" y="28.731413"/>
     <use style="fill:#4daf4a;stroke:#4daf4a;" x="112.529831" xlink:href="#mcee4eb9695" y="29.053854"/>
     <use style="fill:#4daf4a;stroke:#4daf4a;" x="116.367127" xlink:href="#mcee4eb9695" y="29.014081"/>
     <use style="fill:#4daf4a;stroke:#4daf4a;" x="120.078507" xlink:href="#mcee4eb9695" y="29.443959"/>
     <use style="fill:#4daf4a;stroke:#4daf4a;" x="123.675609" xlink:href="#mcee4eb9695" y="29.979727"/>
     <use style="fill:#4daf4a;stroke:#4daf4a;" x="127.16838" xlink:href="#mcee4eb9695" y="30.193322"/>
     <use style="fill:#4daf4a;stroke:#4daf4a;" x="130.565404" xlink:href="#mcee4eb9695" y="30.492857"/>
     <use style="fill:#4daf4a;stroke:#4daf4a;" x="133.874148" xlink:href="#mcee4eb9695" y="30.967557"/>
    </g>
   </g>
   <g id="line2d_66">
    <path clip-path="url(#p0824974c6a)" d="M 32.419602 12.244807 
L 44.522771 12.535835 
L 53.80986 15.160248 
L 61.639237 17.435618 
L 68.537057 19.28113 
L 74.773164 21.006133 
L 80.507855 21.219993 
L 85.845576 22.138367 
L 90.858872 22.768134 
L 95.600566 23.495746 
L 100.110533 23.43535 
L 104.419752 24.059621 
L 108.55286 24.360091 
L 112.529831 24.966097 
L 116.367127 25.369188 
L 120.078507 25.734281 
L 123.675609 26.523925 
L 127.16838 26.774376 
L 130.565404 27.185725 
L 133.874148 27.167338 
" style="fill:none;stroke:#999999;stroke-linecap:square;stroke-width:1.5;"/>
    <defs>
     <path d="M 0 0.75 
C 0.198902 0.75 0.389685 0.670975 0.53033 0.53033 
C 0.670975 0.389685 0.75 0.198902 0.75 0 
C 0.75 -0.198902 0.670975 -0.389685 0.53033 -0.53033 
C 0.389685 -0.670975 0.198902 -0.75 0 -0.75 
C -0.198902 -0.75 -0.389685 -0.670975 -0.53033 -0.53033 
C -0.670975 -0.389685 -0.75 -0.198902 -0.75 0 
C -0.75 0.198902 -0.670975 0.389685 -0.53033 0.53033 
C -0.389685 0.670975 -0.198902 0.75 0 0.75 
z
" id="m39e9a00ac6" style="stroke:#999999;"/>
    </defs>
    <g clip-path="url(#p0824974c6a)">
     <use style="fill:#999999;stroke:#999999;" x="32.419602" xlink:href="#m39e9a00ac6" y="12.244807"/>
     <use style="fill:#999999;stroke:#999999;" x="44.522771" xlink:href="#m39e9a00ac6" y="12.535835"/>
     <use style="fill:#999999;stroke:#999999;" x="53.80986" xlink:href="#m39e9a00ac6" y="15.160248"/>
     <use style="fill:#999999;stroke:#999999;" x="61.639237" xlink:href="#m39e9a00ac6" y="17.435618"/>
     <use style="fill:#999999;stroke:#999999;" x="68.537057" xlink:href="#m39e9a00ac6" y="19.28113"/>
     <use style="fill:#999999;stroke:#999999;" x="74.773164" xlink:href="#m39e9a00ac6" y="21.006133"/>
     <use style="fill:#999999;stroke:#999999;" x="80.507855" xlink:href="#m39e9a00ac6" y="21.219993"/>
     <use style="fill:#999999;stroke:#999999;" x="85.845576" xlink:href="#m39e9a00ac6" y="22.138367"/>
     <use style="fill:#999999;stroke:#999999;" x="90.858872" xlink:href="#m39e9a00ac6" y="22.768134"/>
     <use style="fill:#999999;stroke:#999999;" x="95.600566" xlink:href="#m39e9a00ac6" y="23.495746"/>
     <use style="fill:#999999;stroke:#999999;" x="100.110533" xlink:href="#m39e9a00ac6" y="23.43535"/>
     <use style="fill:#999999;stroke:#999999;" x="104.419752" xlink:href="#m39e9a00ac6" y="24.059621"/>
     <use style="fill:#999999;stroke:#999999;" x="108.55286" xlink:href="#m39e9a00ac6" y="24.360091"/>
     <use style="fill:#999999;stroke:#999999;" x="112.529831" xlink:href="#m39e9a00ac6" y="24.966097"/>
     <use style="fill:#999999;stroke:#999999;" x="116.367127" xlink:href="#m39e9a00ac6" y="25.369188"/>
     <use style="fill:#999999;stroke:#999999;" x="120.078507" xlink:href="#m39e9a00ac6" y="25.734281"/>
     <use style="fill:#999999;stroke:#999999;" x="123.675609" xlink:href="#m39e9a00ac6" y="26.523925"/>
     <use style="fill:#999999;stroke:#999999;" x="127.16838" xlink:href="#m39e9a00ac6" y="26.774376"/>
     <use style="fill:#999999;stroke:#999999;" x="130.565404" xlink:href="#m39e9a00ac6" y="27.185725"/>
     <use style="fill:#999999;stroke:#999999;" x="133.874148" xlink:href="#m39e9a00ac6" y="27.167338"/>
    </g>
   </g>
   <g id="line2d_67">
    <path clip-path="url(#p0824974c6a)" d="M 32.419602 5.492371 
L 44.522771 4.941818 
L 53.80986 7.345338 
L 61.639237 9.802724 
L 68.537057 12.535728 
L 74.773164 14.779428 
L 80.507855 16.654937 
L 85.845576 18.285481 
L 90.858872 19.217169 
L 95.600566 20.385135 
L 100.110533 20.951809 
L 104.419752 21.603598 
L 108.55286 21.756831 
L 112.529831 22.631815 
L 116.367127 23.48653 
L 120.078507 23.643222 
L 123.675609 24.189762 
L 127.16838 24.570643 
L 130.565404 25.17373 
L 133.874148 25.81912 
" style="fill:none;stroke:#377eb8;stroke-linecap:square;stroke-width:1.5;"/>
    <defs>
     <path d="M 0 0.75 
C 0.198902 0.75 0.389685 0.670975 0.53033 0.53033 
C 0.670975 0.389685 0.75 0.198902 0.75 0 
C 0.75 -0.198902 0.670975 -0.389685 0.53033 -0.53033 
C 0.389685 -0.670975 0.198902 -0.75 0 -0.75 
C -0.198902 -0.75 -0.389685 -0.670975 -0.53033 -0.53033 
C -0.670975 -0.389685 -0.75 -0.198902 -0.75 0 
C -0.75 0.198902 -0.670975 0.389685 -0.53033 0.53033 
C -0.389685 0.670975 -0.198902 0.75 0 0.75 
z
" id="m7054bb6e09" style="stroke:#377eb8;"/>
    </defs>
    <g clip-path="url(#p0824974c6a)">
     <use style="fill:#377eb8;stroke:#377eb8;" x="32.419602" xlink:href="#m7054bb6e09" y="5.492371"/>
     <use style="fill:#377eb8;stroke:#377eb8;" x="44.522771" xlink:href="#m7054bb6e09" y="4.941818"/>
     <use style="fill:#377eb8;stroke:#377eb8;" x="53.80986" xlink:href="#m7054bb6e09" y="7.345338"/>
     <use style="fill:#377eb8;stroke:#377eb8;" x="61.639237" xlink:href="#m7054bb6e09" y="9.802724"/>
     <use style="fill:#377eb8;stroke:#377eb8;" x="68.537057" xlink:href="#m7054bb6e09" y="12.535728"/>
     <use style="fill:#377eb8;stroke:#377eb8;" x="74.773164" xlink:href="#m7054bb6e09" y="14.779428"/>
     <use style="fill:#377eb8;stroke:#377eb8;" x="80.507855" xlink:href="#m7054bb6e09" y="16.654937"/>
     <use style="fill:#377eb8;stroke:#377eb8;" x="85.845576" xlink:href="#m7054bb6e09" y="18.285481"/>
     <use style="fill:#377eb8;stroke:#377eb8;" x="90.858872" xlink:href="#m7054bb6e09" y="19.217169"/>
     <use style="fill:#377eb8;stroke:#377eb8;" x="95.600566" xlink:href="#m7054bb6e09" y="20.385135"/>
     <use style="fill:#377eb8;stroke:#377eb8;" x="100.110533" xlink:href="#m7054bb6e09" y="20.951809"/>
     <use style="fill:#377eb8;stroke:#377eb8;" x="104.419752" xlink:href="#m7054bb6e09" y="21.603598"/>
     <use style="fill:#377eb8;stroke:#377eb8;" x="108.55286" xlink:href="#m7054bb6e09" y="21.756831"/>
     <use style="fill:#377eb8;stroke:#377eb8;" x="112.529831" xlink:href="#m7054bb6e09" y="22.631815"/>
     <use style="fill:#377eb8;stroke:#377eb8;" x="116.367127" xlink:href="#m7054bb6e09" y="23.48653"/>
     <use style="fill:#377eb8;stroke:#377eb8;" x="120.078507" xlink:href="#m7054bb6e09" y="23.643222"/>
     <use style="fill:#377eb8;stroke:#377eb8;" x="123.675609" xlink:href="#m7054bb6e09" y="24.189762"/>
     <use style="fill:#377eb8;stroke:#377eb8;" x="127.16838" xlink:href="#m7054bb6e09" y="24.570643"/>
     <use style="fill:#377eb8;stroke:#377eb8;" x="130.565404" xlink:href="#m7054bb6e09" y="25.17373"/>
     <use style="fill:#377eb8;stroke:#377eb8;" x="133.874148" xlink:href="#m7054bb6e09" y="25.81912"/>
    </g>
   </g>
   <g id="patch_3">
    <path d="M 27.346875 108.72 
L 27.346875 0 
" style="fill:none;stroke:#000000;stroke-linecap:square;stroke-linejoin:miter;stroke-width:0.5;"/>
   </g>
   <g id="patch_4">
    <path d="M 138.946875 108.72 
L 138.946875 0 
" style="fill:none;stroke:#000000;stroke-linecap:square;stroke-linejoin:miter;stroke-width:0.5;"/>
   </g>
   <g id="patch_5">
    <path d="M 27.346875 108.72 
L 138.946875 108.72 
" style="fill:none;stroke:#000000;stroke-linecap:square;stroke-linejoin:miter;stroke-width:0.5;"/>
   </g>
   <g id="patch_6">
    <path d="M 27.346875 0 
L 138.946875 0 
" style="fill:none;stroke:#000000;stroke-linecap:square;stroke-linejoin:miter;stroke-width:0.5;"/>
   </g>
  </g>
 </g>
 <defs>
  <clipPath id="p0824974c6a">
   <rect height="108.72" width="111.6" x="27.346875" y="0"/>
  </clipPath>
 </defs>
</svg>
