<?xml version="1.0" encoding="utf-8" standalone="no"?>
<!DOCTYPE svg PUBLIC "-//W3C//DTD SVG 1.1//EN"
  "http://www.w3.org/Graphics/SVG/1.1/DTD/svg11.dtd">
<svg height="128.249687pt" version="1.1" viewBox="0 0 138.946875 128.249687" width="138.946875pt" xmlns="http://www.w3.org/2000/svg" xmlns:xlink="http://www.w3.org/1999/xlink">
 <metadata>
  <rdf:RDF xmlns:cc="http://creativecommons.org/ns#" xmlns:dc="http://purl.org/dc/elements/1.1/" xmlns:rdf="http://www.w3.org/1999/02/22-rdf-syntax-ns#">
   <cc:Work>
    <dc:type rdf:resource="http://purl.org/dc/dcmitype/StillImage"/>
    <dc:date>2021-09-09T11:31:16.999998</dc:date>
    <dc:format>image/svg+xml</dc:format>
    <dc:creator>
     <cc:Agent>
      <dc:title>Matplotlib v3.4.3, https://matplotlib.org/</dc:title>
     </cc:Agent>
    </dc:creator>
   </cc:Work>
  </rdf:RDF>
 </metadata>
 <defs>
  <style type="text/css">*{stroke-linecap:butt;stroke-linejoin:round;}</style>
 </defs>
 <g id="figure_1">
  <g id="patch_1">
   <path d="M 0 128.249687 
L 138.946875 128.249687 
L 138.946875 0 
L 0 0 
z
" style="fill:none;"/>
  </g>
  <g id="axes_1">
   <g id="patch_2">
    <path d="M 27.346875 108.72 
L 138.946875 108.72 
L 138.946875 0 
L 27.346875 0 
z
" style="fill:none;"/>
   </g>
   <g id="matplotlib.axis_1">
    <g id="xtick_1">
     <g id="line2d_1">
      <defs>
       <path d="M 0 0 
L 0 -3.5 
" id="m8ba1803411" style="stroke:#000000;stroke-width:0.5;"/>
      </defs>
      <g>
       <use style="stroke:#000000;stroke-width:0.5;" x="44.522771" xlink:href="#m8ba1803411" y="108.72"/>
      </g>
     </g>
     <g id="line2d_2">
      <defs>
       <path d="M 0 0 
L 0 3.5 
" id="mfa6230fb6c" style="stroke:#000000;stroke-width:0.5;"/>
      </defs>
      <g>
       <use style="stroke:#000000;stroke-width:0.5;" x="44.522771" xlink:href="#mfa6230fb6c" y="0"/>
      </g>
     </g>
     <g id="text_1">
      <text style="font-family:Arial;font-size:10px;font-stretch:normal;font-style:normal;font-weight:normal;text-anchor:middle;" transform="rotate(-0, 44.522771, 116.877812)" x="44.522771" y="116.877812">1</text>
     </g>
    </g>
    <g id="xtick_2">
     <g id="line2d_3">
      <g>
       <use style="stroke:#000000;stroke-width:0.5;" x="85.845576" xlink:href="#m8ba1803411" y="108.72"/>
      </g>
     </g>
     <g id="line2d_4">
      <g>
       <use style="stroke:#000000;stroke-width:0.5;" x="85.845576" xlink:href="#mfa6230fb6c" y="0"/>
      </g>
     </g>
     <g id="text_2">
      <text style="font-family:Arial;font-size:10px;font-stretch:normal;font-style:normal;font-weight:normal;text-anchor:middle;" transform="rotate(-0, 85.845576, 116.877812)" x="85.845576" y="116.877812">2</text>
     </g>
    </g>
    <g id="xtick_3">
     <g id="line2d_5">
      <g>
       <use style="stroke:#000000;stroke-width:0.5;" x="127.16838" xlink:href="#m8ba1803411" y="108.72"/>
      </g>
     </g>
     <g id="line2d_6">
      <g>
       <use style="stroke:#000000;stroke-width:0.5;" x="127.16838" xlink:href="#mfa6230fb6c" y="0"/>
      </g>
     </g>
     <g id="text_3">
      <text style="font-family:Arial;font-size:10px;font-stretch:normal;font-style:normal;font-weight:normal;text-anchor:middle;" transform="rotate(-0, 127.16838, 116.877812)" x="127.16838" y="116.877812">3</text>
     </g>
    </g>
    <g id="xtick_4">
     <g id="line2d_7">
      <defs>
       <path d="M 0 0 
L 0 -2 
" id="m8c2f60ea5f" style="stroke:#000000;stroke-width:0.5;"/>
      </defs>
      <g>
       <use style="stroke:#000000;stroke-width:0.5;" x="27.99365" xlink:href="#m8c2f60ea5f" y="108.72"/>
      </g>
     </g>
     <g id="line2d_8">
      <defs>
       <path d="M 0 0 
L 0 2 
" id="m52bbbd3e74" style="stroke:#000000;stroke-width:0.5;"/>
      </defs>
      <g>
       <use style="stroke:#000000;stroke-width:0.5;" x="27.99365" xlink:href="#m52bbbd3e74" y="0"/>
      </g>
     </g>
    </g>
    <g id="xtick_5">
     <g id="line2d_9">
      <g>
       <use style="stroke:#000000;stroke-width:0.5;" x="36.258211" xlink:href="#m8c2f60ea5f" y="108.72"/>
      </g>
     </g>
     <g id="line2d_10">
      <g>
       <use style="stroke:#000000;stroke-width:0.5;" x="36.258211" xlink:href="#m52bbbd3e74" y="0"/>
      </g>
     </g>
    </g>
    <g id="xtick_6">
     <g id="line2d_11">
      <g>
       <use style="stroke:#000000;stroke-width:0.5;" x="52.787332" xlink:href="#m8c2f60ea5f" y="108.72"/>
      </g>
     </g>
     <g id="line2d_12">
      <g>
       <use style="stroke:#000000;stroke-width:0.5;" x="52.787332" xlink:href="#m52bbbd3e74" y="0"/>
      </g>
     </g>
    </g>
    <g id="xtick_7">
     <g id="line2d_13">
      <g>
       <use style="stroke:#000000;stroke-width:0.5;" x="61.051893" xlink:href="#m8c2f60ea5f" y="108.72"/>
      </g>
     </g>
     <g id="line2d_14">
      <g>
       <use style="stroke:#000000;stroke-width:0.5;" x="61.051893" xlink:href="#m52bbbd3e74" y="0"/>
      </g>
     </g>
    </g>
    <g id="xtick_8">
     <g id="line2d_15">
      <g>
       <use style="stroke:#000000;stroke-width:0.5;" x="69.316454" xlink:href="#m8c2f60ea5f" y="108.72"/>
      </g>
     </g>
     <g id="line2d_16">
      <g>
       <use style="stroke:#000000;stroke-width:0.5;" x="69.316454" xlink:href="#m52bbbd3e74" y="0"/>
      </g>
     </g>
    </g>
    <g id="xtick_9">
     <g id="line2d_17">
      <g>
       <use style="stroke:#000000;stroke-width:0.5;" x="77.581015" xlink:href="#m8c2f60ea5f" y="108.72"/>
      </g>
     </g>
     <g id="line2d_18">
      <g>
       <use style="stroke:#000000;stroke-width:0.5;" x="77.581015" xlink:href="#m52bbbd3e74" y="0"/>
      </g>
     </g>
    </g>
    <g id="xtick_10">
     <g id="line2d_19">
      <g>
       <use style="stroke:#000000;stroke-width:0.5;" x="94.110136" xlink:href="#m8c2f60ea5f" y="108.72"/>
      </g>
     </g>
     <g id="line2d_20">
      <g>
       <use style="stroke:#000000;stroke-width:0.5;" x="94.110136" xlink:href="#m52bbbd3e74" y="0"/>
      </g>
     </g>
    </g>
    <g id="xtick_11">
     <g id="line2d_21">
      <g>
       <use style="stroke:#000000;stroke-width:0.5;" x="102.374697" xlink:href="#m8c2f60ea5f" y="108.72"/>
      </g>
     </g>
     <g id="line2d_22">
      <g>
       <use style="stroke:#000000;stroke-width:0.5;" x="102.374697" xlink:href="#m52bbbd3e74" y="0"/>
      </g>
     </g>
    </g>
    <g id="xtick_12">
     <g id="line2d_23">
      <g>
       <use style="stroke:#000000;stroke-width:0.5;" x="110.639258" xlink:href="#m8c2f60ea5f" y="108.72"/>
      </g>
     </g>
     <g id="line2d_24">
      <g>
       <use style="stroke:#000000;stroke-width:0.5;" x="110.639258" xlink:href="#m52bbbd3e74" y="0"/>
      </g>
     </g>
    </g>
    <g id="xtick_13">
     <g id="line2d_25">
      <g>
       <use style="stroke:#000000;stroke-width:0.5;" x="118.903819" xlink:href="#m8c2f60ea5f" y="108.72"/>
      </g>
     </g>
     <g id="line2d_26">
      <g>
       <use style="stroke:#000000;stroke-width:0.5;" x="118.903819" xlink:href="#m52bbbd3e74" y="0"/>
      </g>
     </g>
    </g>
    <g id="xtick_14">
     <g id="line2d_27">
      <g>
       <use style="stroke:#000000;stroke-width:0.5;" x="135.432941" xlink:href="#m8c2f60ea5f" y="108.72"/>
      </g>
     </g>
     <g id="line2d_28">
      <g>
       <use style="stroke:#000000;stroke-width:0.5;" x="135.432941" xlink:href="#m52bbbd3e74" y="0"/>
      </g>
     </g>
    </g>
    <g id="text_4">
     <text style="font-family:Arial;font-size:10px;font-stretch:normal;font-style:normal;font-weight:normal;text-anchor:middle;" transform="rotate(-0, 83.146875, 126.145)" x="83.146875" y="126.145">V<tspan
   style="font-size:65%;baseline-shift:super"
   id="tspan15378">1/2</tspan></text>
    </g>
   </g>
   <g id="matplotlib.axis_2">
    <g id="ytick_1">
     <g id="line2d_29">
      <defs>
       <path d="M 0 0 
L 3.5 0 
" id="mb55bdc0f59" style="stroke:#000000;stroke-width:0.5;"/>
      </defs>
      <g>
       <use style="stroke:#000000;stroke-width:0.5;" x="27.346875" xlink:href="#mb55bdc0f59" y="93.77999"/>
      </g>
     </g>
     <g id="line2d_30">
      <defs>
       <path d="M 0 0 
L -3.5 0 
" id="mf5b8d56c2a" style="stroke:#000000;stroke-width:0.5;"/>
      </defs>
      <g>
       <use style="stroke:#000000;stroke-width:0.5;" x="138.946875" xlink:href="#mf5b8d56c2a" y="93.77999"/>
      </g>
     </g>
     <g id="text_5">
      <text style="font-family:Arial;font-size:10px;font-stretch:normal;font-style:normal;font-weight:normal;text-anchor:end;" transform="rotate(-0, 26.346875, 97.358897)" x="26.346875" y="97.358897">−20</text>
     </g>
    </g>
    <g id="ytick_2">
     <g id="line2d_31">
      <g>
       <use style="stroke:#000000;stroke-width:0.5;" x="27.346875" xlink:href="#mb55bdc0f59" y="61.955272"/>
      </g>
     </g>
     <g id="line2d_32">
      <g>
       <use style="stroke:#000000;stroke-width:0.5;" x="138.946875" xlink:href="#mf5b8d56c2a" y="61.955272"/>
      </g>
     </g>
     <g id="text_6">
      <text style="font-family:Arial;font-size:10px;font-stretch:normal;font-style:normal;font-weight:normal;text-anchor:end;" transform="rotate(-0, 26.346875, 65.534178)" x="26.346875" y="65.534178">−18</text>
     </g>
    </g>
    <g id="ytick_3">
     <g id="line2d_33">
      <g>
       <use style="stroke:#000000;stroke-width:0.5;" x="27.346875" xlink:href="#mb55bdc0f59" y="30.130554"/>
      </g>
     </g>
     <g id="line2d_34">
      <g>
       <use style="stroke:#000000;stroke-width:0.5;" x="138.946875" xlink:href="#mf5b8d56c2a" y="30.130554"/>
      </g>
     </g>
     <g id="text_7">
      <text style="font-family:Arial;font-size:10px;font-stretch:normal;font-style:normal;font-weight:normal;text-anchor:end;" transform="rotate(-0, 26.346875, 33.70946)" x="26.346875" y="33.70946">−16</text>
     </g>
    </g>
    <g id="ytick_4">
     <g id="line2d_35">
      <defs>
       <path d="M 0 0 
L 2 0 
" id="m7e5701215c" style="stroke:#000000;stroke-width:0.5;"/>
      </defs>
      <g>
       <use style="stroke:#000000;stroke-width:0.5;" x="27.346875" xlink:href="#m7e5701215c" y="101.73617"/>
      </g>
     </g>
     <g id="line2d_36">
      <defs>
       <path d="M 0 0 
L -2 0 
" id="ma800ef0642" style="stroke:#000000;stroke-width:0.5;"/>
      </defs>
      <g>
       <use style="stroke:#000000;stroke-width:0.5;" x="138.946875" xlink:href="#ma800ef0642" y="101.73617"/>
      </g>
     </g>
    </g>
    <g id="ytick_5">
     <g id="line2d_37">
      <g>
       <use style="stroke:#000000;stroke-width:0.5;" x="27.346875" xlink:href="#m7e5701215c" y="85.823811"/>
      </g>
     </g>
     <g id="line2d_38">
      <g>
       <use style="stroke:#000000;stroke-width:0.5;" x="138.946875" xlink:href="#ma800ef0642" y="85.823811"/>
      </g>
     </g>
    </g>
    <g id="ytick_6">
     <g id="line2d_39">
      <g>
       <use style="stroke:#000000;stroke-width:0.5;" x="27.346875" xlink:href="#m7e5701215c" y="77.867631"/>
      </g>
     </g>
     <g id="line2d_40">
      <g>
       <use style="stroke:#000000;stroke-width:0.5;" x="138.946875" xlink:href="#ma800ef0642" y="77.867631"/>
      </g>
     </g>
    </g>
    <g id="ytick_7">
     <g id="line2d_41">
      <g>
       <use style="stroke:#000000;stroke-width:0.5;" x="27.346875" xlink:href="#m7e5701215c" y="69.911452"/>
      </g>
     </g>
     <g id="line2d_42">
      <g>
       <use style="stroke:#000000;stroke-width:0.5;" x="138.946875" xlink:href="#ma800ef0642" y="69.911452"/>
      </g>
     </g>
    </g>
    <g id="ytick_8">
     <g id="line2d_43">
      <g>
       <use style="stroke:#000000;stroke-width:0.5;" x="27.346875" xlink:href="#m7e5701215c" y="53.999092"/>
      </g>
     </g>
     <g id="line2d_44">
      <g>
       <use style="stroke:#000000;stroke-width:0.5;" x="138.946875" xlink:href="#ma800ef0642" y="53.999092"/>
      </g>
     </g>
    </g>
    <g id="ytick_9">
     <g id="line2d_45">
      <g>
       <use style="stroke:#000000;stroke-width:0.5;" x="27.346875" xlink:href="#m7e5701215c" y="46.042913"/>
      </g>
     </g>
     <g id="line2d_46">
      <g>
       <use style="stroke:#000000;stroke-width:0.5;" x="138.946875" xlink:href="#ma800ef0642" y="46.042913"/>
      </g>
     </g>
    </g>
    <g id="ytick_10">
     <g id="line2d_47">
      <g>
       <use style="stroke:#000000;stroke-width:0.5;" x="27.346875" xlink:href="#m7e5701215c" y="38.086733"/>
      </g>
     </g>
     <g id="line2d_48">
      <g>
       <use style="stroke:#000000;stroke-width:0.5;" x="138.946875" xlink:href="#ma800ef0642" y="38.086733"/>
      </g>
     </g>
    </g>
    <g id="ytick_11">
     <g id="line2d_49">
      <g>
       <use style="stroke:#000000;stroke-width:0.5;" x="27.346875" xlink:href="#m7e5701215c" y="22.174374"/>
      </g>
     </g>
     <g id="line2d_50">
      <g>
       <use style="stroke:#000000;stroke-width:0.5;" x="138.946875" xlink:href="#ma800ef0642" y="22.174374"/>
      </g>
     </g>
    </g>
    <g id="ytick_12">
     <g id="line2d_51">
      <g>
       <use style="stroke:#000000;stroke-width:0.5;" x="27.346875" xlink:href="#m7e5701215c" y="14.218194"/>
      </g>
     </g>
     <g id="line2d_52">
      <g>
       <use style="stroke:#000000;stroke-width:0.5;" x="138.946875" xlink:href="#ma800ef0642" y="14.218194"/>
      </g>
     </g>
    </g>
    <g id="ytick_13">
     <g id="line2d_53">
      <g>
       <use style="stroke:#000000;stroke-width:0.5;" x="27.346875" xlink:href="#m7e5701215c" y="6.262015"/>
      </g>
     </g>
     <g id="line2d_54">
      <g>
       <use style="stroke:#000000;stroke-width:0.5;" x="138.946875" xlink:href="#ma800ef0642" y="6.262015"/>
      </g>
     </g>
    </g>
    <g id="text_8">
     <text style="font-family:Arial;font-size:10px;font-stretch:normal;font-style:normal;font-weight:normal;text-anchor:middle;" transform="rotate(-90, 7.279688, 54.36)" x="7.279688" y="54.36">ln(I)</text>
    </g>
   </g>
   <g id="line2d_55">
    <path clip-path="url(#pfdf3926055)" d="M 32.419602 103.570599 
L 44.522771 94.7036 
L 53.80986 89.345834 
L 61.639237 85.445195 
L 68.537057 82.739567 
L 74.773164 78.27952 
L 80.507855 74.780672 
L 85.845576 70.303508 
L 90.858872 66.56588 
L 95.600566 63.13921 
L 100.110533 60.177052 
L 104.419752 57.367049 
L 108.55286 55.264569 
L 112.529831 53.584577 
L 116.367127 52.356503 
L 120.078507 51.527352 
L 123.675609 50.773645 
L 127.16838 49.925109 
L 130.565404 49.079968 
L 133.874148 48.305792 
" style="fill:none;stroke:#e41a1c;stroke-linecap:square;stroke-width:1.5;"/>
    <defs>
     <path d="M 0 0.75 
C 0.198902 0.75 0.389685 0.670975 0.53033 0.53033 
C 0.670975 0.389685 0.75 0.198902 0.75 0 
C 0.75 -0.198902 0.670975 -0.389685 0.53033 -0.53033 
C 0.389685 -0.670975 0.198902 -0.75 0 -0.75 
C -0.198902 -0.75 -0.389685 -0.670975 -0.53033 -0.53033 
C -0.670975 -0.389685 -0.75 -0.198902 -0.75 0 
C -0.75 0.198902 -0.670975 0.389685 -0.53033 0.53033 
C -0.389685 0.670975 -0.198902 0.75 0 0.75 
z
" id="m1e68beb07c" style="stroke:#e41a1c;"/>
    </defs>
    <g clip-path="url(#pfdf3926055)">
     <use style="fill:#e41a1c;stroke:#e41a1c;" x="32.419602" xlink:href="#m1e68beb07c" y="103.570599"/>
     <use style="fill:#e41a1c;stroke:#e41a1c;" x="44.522771" xlink:href="#m1e68beb07c" y="94.7036"/>
     <use style="fill:#e41a1c;stroke:#e41a1c;" x="53.80986" xlink:href="#m1e68beb07c" y="89.345834"/>
     <use style="fill:#e41a1c;stroke:#e41a1c;" x="61.639237" xlink:href="#m1e68beb07c" y="85.445195"/>
     <use style="fill:#e41a1c;stroke:#e41a1c;" x="68.537057" xlink:href="#m1e68beb07c" y="82.739567"/>
     <use style="fill:#e41a1c;stroke:#e41a1c;" x="74.773164" xlink:href="#m1e68beb07c" y="78.27952"/>
     <use style="fill:#e41a1c;stroke:#e41a1c;" x="80.507855" xlink:href="#m1e68beb07c" y="74.780672"/>
     <use style="fill:#e41a1c;stroke:#e41a1c;" x="85.845576" xlink:href="#m1e68beb07c" y="70.303508"/>
     <use style="fill:#e41a1c;stroke:#e41a1c;" x="90.858872" xlink:href="#m1e68beb07c" y="66.56588"/>
     <use style="fill:#e41a1c;stroke:#e41a1c;" x="95.600566" xlink:href="#m1e68beb07c" y="63.13921"/>
     <use style="fill:#e41a1c;stroke:#e41a1c;" x="100.110533" xlink:href="#m1e68beb07c" y="60.177052"/>
     <use style="fill:#e41a1c;stroke:#e41a1c;" x="104.419752" xlink:href="#m1e68beb07c" y="57.367049"/>
     <use style="fill:#e41a1c;stroke:#e41a1c;" x="108.55286" xlink:href="#m1e68beb07c" y="55.264569"/>
     <use style="fill:#e41a1c;stroke:#e41a1c;" x="112.529831" xlink:href="#m1e68beb07c" y="53.584577"/>
     <use style="fill:#e41a1c;stroke:#e41a1c;" x="116.367127" xlink:href="#m1e68beb07c" y="52.356503"/>
     <use style="fill:#e41a1c;stroke:#e41a1c;" x="120.078507" xlink:href="#m1e68beb07c" y="51.527352"/>
     <use style="fill:#e41a1c;stroke:#e41a1c;" x="123.675609" xlink:href="#m1e68beb07c" y="50.773645"/>
     <use style="fill:#e41a1c;stroke:#e41a1c;" x="127.16838" xlink:href="#m1e68beb07c" y="49.925109"/>
     <use style="fill:#e41a1c;stroke:#e41a1c;" x="130.565404" xlink:href="#m1e68beb07c" y="49.079968"/>
     <use style="fill:#e41a1c;stroke:#e41a1c;" x="133.874148" xlink:href="#m1e68beb07c" y="48.305792"/>
    </g>
   </g>
   <g id="line2d_56">
    <path clip-path="url(#pfdf3926055)" d="M 108.55286 55.559102 
L 104.419752 58.17681 
L 100.110533 60.906059 
L 95.600566 63.762451 
L 90.858872 66.765608 
L 85.845576 69.940785 
L 80.507855 73.321436 
L 74.773164 76.953509 
L 68.537057 80.903153 
L 61.639237 85.271895 
L 53.80986 90.230639 
L 44.522771 96.112627 
L 32.419602 103.778182 
" style="fill:none;stroke:#000000;stroke-linecap:square;"/>
   </g>
   <g id="line2d_57">
    <path clip-path="url(#pfdf3926055)" d="M 133.874148 48.28247 
L 130.565404 49.080622 
L 127.16838 49.900068 
L 123.675609 50.742612 
L 120.078507 51.610322 
L 116.367127 52.5056 
L 112.529831 53.431252 
" style="fill:none;stroke:#000000;stroke-linecap:square;"/>
   </g>
   <g id="line2d_58">
    <path clip-path="url(#pfdf3926055)" d="M 32.419602 74.427629 
L 44.522771 64.244099 
L 53.80986 58.1267 
L 61.639237 54.339126 
L 68.537057 52.387707 
L 74.773164 50.979618 
L 80.507855 50.090013 
L 85.845576 49.265915 
L 90.858872 47.587803 
L 95.600566 46.504967 
L 100.110533 45.623694 
L 104.419752 45.174357 
L 108.55286 44.423228 
L 112.529831 43.269239 
L 116.367127 42.881522 
L 120.078507 42.615123 
L 123.675609 41.940998 
L 127.16838 41.017792 
L 130.565404 40.487466 
L 133.874148 40.271335 
" style="fill:none;stroke:#ff7f00;stroke-linecap:square;stroke-width:1.5;"/>
    <defs>
     <path d="M 0 0.75 
C 0.198902 0.75 0.389685 0.670975 0.53033 0.53033 
C 0.670975 0.389685 0.75 0.198902 0.75 0 
C 0.75 -0.198902 0.670975 -0.389685 0.53033 -0.53033 
C 0.389685 -0.670975 0.198902 -0.75 0 -0.75 
C -0.198902 -0.75 -0.389685 -0.670975 -0.53033 -0.53033 
C -0.670975 -0.389685 -0.75 -0.198902 -0.75 0 
C -0.75 0.198902 -0.670975 0.389685 -0.53033 0.53033 
C -0.389685 0.670975 -0.198902 0.75 0 0.75 
z
" id="m41b19f076a" style="stroke:#ff7f00;"/>
    </defs>
    <g clip-path="url(#pfdf3926055)">
     <use style="fill:#ff7f00;stroke:#ff7f00;" x="32.419602" xlink:href="#m41b19f076a" y="74.427629"/>
     <use style="fill:#ff7f00;stroke:#ff7f00;" x="44.522771" xlink:href="#m41b19f076a" y="64.244099"/>
     <use style="fill:#ff7f00;stroke:#ff7f00;" x="53.80986" xlink:href="#m41b19f076a" y="58.1267"/>
     <use style="fill:#ff7f00;stroke:#ff7f00;" x="61.639237" xlink:href="#m41b19f076a" y="54.339126"/>
     <use style="fill:#ff7f00;stroke:#ff7f00;" x="68.537057" xlink:href="#m41b19f076a" y="52.387707"/>
     <use style="fill:#ff7f00;stroke:#ff7f00;" x="74.773164" xlink:href="#m41b19f076a" y="50.979618"/>
     <use style="fill:#ff7f00;stroke:#ff7f00;" x="80.507855" xlink:href="#m41b19f076a" y="50.090013"/>
     <use style="fill:#ff7f00;stroke:#ff7f00;" x="85.845576" xlink:href="#m41b19f076a" y="49.265915"/>
     <use style="fill:#ff7f00;stroke:#ff7f00;" x="90.858872" xlink:href="#m41b19f076a" y="47.587803"/>
     <use style="fill:#ff7f00;stroke:#ff7f00;" x="95.600566" xlink:href="#m41b19f076a" y="46.504967"/>
     <use style="fill:#ff7f00;stroke:#ff7f00;" x="100.110533" xlink:href="#m41b19f076a" y="45.623694"/>
     <use style="fill:#ff7f00;stroke:#ff7f00;" x="104.419752" xlink:href="#m41b19f076a" y="45.174357"/>
     <use style="fill:#ff7f00;stroke:#ff7f00;" x="108.55286" xlink:href="#m41b19f076a" y="44.423228"/>
     <use style="fill:#ff7f00;stroke:#ff7f00;" x="112.529831" xlink:href="#m41b19f076a" y="43.269239"/>
     <use style="fill:#ff7f00;stroke:#ff7f00;" x="116.367127" xlink:href="#m41b19f076a" y="42.881522"/>
     <use style="fill:#ff7f00;stroke:#ff7f00;" x="120.078507" xlink:href="#m41b19f076a" y="42.615123"/>
     <use style="fill:#ff7f00;stroke:#ff7f00;" x="123.675609" xlink:href="#m41b19f076a" y="41.940998"/>
     <use style="fill:#ff7f00;stroke:#ff7f00;" x="127.16838" xlink:href="#m41b19f076a" y="41.017792"/>
     <use style="fill:#ff7f00;stroke:#ff7f00;" x="130.565404" xlink:href="#m41b19f076a" y="40.487466"/>
     <use style="fill:#ff7f00;stroke:#ff7f00;" x="133.874148" xlink:href="#m41b19f076a" y="40.271335"/>
    </g>
   </g>
   <g id="line2d_59">
    <path clip-path="url(#pfdf3926055)" d="M 32.419602 63.759463 
L 44.522771 54.12008 
L 53.80986 48.34988 
L 61.639237 44.79428 
L 68.537057 42.379106 
L 74.773164 41.532948 
L 80.507855 40.236795 
L 85.845576 39.636909 
L 90.858872 38.647313 
L 95.600566 37.972548 
L 100.110533 37.423452 
L 104.419752 36.772636 
L 108.55286 36.200694 
L 112.529831 35.195245 
L 116.367127 34.950647 
L 120.078507 34.307968 
L 123.675609 33.764769 
L 127.16838 33.159891 
L 130.565404 32.154621 
L 133.874148 31.587511 
" style="fill:none;stroke:#984ea3;stroke-linecap:square;stroke-width:1.5;"/>
    <defs>
     <path d="M 0 0.75 
C 0.198902 0.75 0.389685 0.670975 0.53033 0.53033 
C 0.670975 0.389685 0.75 0.198902 0.75 0 
C 0.75 -0.198902 0.670975 -0.389685 0.53033 -0.53033 
C 0.389685 -0.670975 0.198902 -0.75 0 -0.75 
C -0.198902 -0.75 -0.389685 -0.670975 -0.53033 -0.53033 
C -0.670975 -0.389685 -0.75 -0.198902 -0.75 0 
C -0.75 0.198902 -0.670975 0.389685 -0.53033 0.53033 
C -0.389685 0.670975 -0.198902 0.75 0 0.75 
z
" id="mff29f0912a" style="stroke:#984ea3;"/>
    </defs>
    <g clip-path="url(#pfdf3926055)">
     <use style="fill:#984ea3;stroke:#984ea3;" x="32.419602" xlink:href="#mff29f0912a" y="63.759463"/>
     <use style="fill:#984ea3;stroke:#984ea3;" x="44.522771" xlink:href="#mff29f0912a" y="54.12008"/>
     <use style="fill:#984ea3;stroke:#984ea3;" x="53.80986" xlink:href="#mff29f0912a" y="48.34988"/>
     <use style="fill:#984ea3;stroke:#984ea3;" x="61.639237" xlink:href="#mff29f0912a" y="44.79428"/>
     <use style="fill:#984ea3;stroke:#984ea3;" x="68.537057" xlink:href="#mff29f0912a" y="42.379106"/>
     <use style="fill:#984ea3;stroke:#984ea3;" x="74.773164" xlink:href="#mff29f0912a" y="41.532948"/>
     <use style="fill:#984ea3;stroke:#984ea3;" x="80.507855" xlink:href="#mff29f0912a" y="40.236795"/>
     <use style="fill:#984ea3;stroke:#984ea3;" x="85.845576" xlink:href="#mff29f0912a" y="39.636909"/>
     <use style="fill:#984ea3;stroke:#984ea3;" x="90.858872" xlink:href="#mff29f0912a" y="38.647313"/>
     <use style="fill:#984ea3;stroke:#984ea3;" x="95.600566" xlink:href="#mff29f0912a" y="37.972548"/>
     <use style="fill:#984ea3;stroke:#984ea3;" x="100.110533" xlink:href="#mff29f0912a" y="37.423452"/>
     <use style="fill:#984ea3;stroke:#984ea3;" x="104.419752" xlink:href="#mff29f0912a" y="36.772636"/>
     <use style="fill:#984ea3;stroke:#984ea3;" x="108.55286" xlink:href="#mff29f0912a" y="36.200694"/>
     <use style="fill:#984ea3;stroke:#984ea3;" x="112.529831" xlink:href="#mff29f0912a" y="35.195245"/>
     <use style="fill:#984ea3;stroke:#984ea3;" x="116.367127" xlink:href="#mff29f0912a" y="34.950647"/>
     <use style="fill:#984ea3;stroke:#984ea3;" x="120.078507" xlink:href="#mff29f0912a" y="34.307968"/>
     <use style="fill:#984ea3;stroke:#984ea3;" x="123.675609" xlink:href="#mff29f0912a" y="33.764769"/>
     <use style="fill:#984ea3;stroke:#984ea3;" x="127.16838" xlink:href="#mff29f0912a" y="33.159891"/>
     <use style="fill:#984ea3;stroke:#984ea3;" x="130.565404" xlink:href="#mff29f0912a" y="32.154621"/>
     <use style="fill:#984ea3;stroke:#984ea3;" x="133.874148" xlink:href="#mff29f0912a" y="31.587511"/>
    </g>
   </g>
   <g id="line2d_60">
    <path clip-path="url(#pfdf3926055)" d="M 108.55286 36.073931 
L 104.419752 36.717833 
L 100.110533 37.389172 
L 95.600566 38.091785 
L 90.858872 38.830499 
L 85.845576 39.611527 
L 80.507855 40.443097 
L 74.773164 41.336512 
L 68.537057 42.308043 
" style="fill:none;stroke:#000000;stroke-linecap:square;"/>
   </g>
   <g id="line2d_61">
    <path clip-path="url(#pfdf3926055)" d="M 32.419602 56.265307 
L 44.522771 45.961515 
L 53.80986 40.216199 
L 61.639237 36.45444 
L 68.537057 34.148841 
L 74.773164 32.387002 
L 80.507855 31.36015 
L 85.845576 30.15367 
L 90.858872 29.570691 
L 95.600566 28.705718 
L 100.110533 28.076439 
L 104.419752 27.713341 
L 108.55286 27.321277 
L 112.529831 26.842709 
L 116.367127 26.062845 
L 120.078507 25.750324 
L 123.675609 25.524623 
L 127.16838 25.461427 
L 130.565404 24.435433 
L 133.874148 24.443467 
" style="fill:none;stroke:#a65628;stroke-linecap:square;stroke-width:1.5;"/>
    <defs>
     <path d="M 0 0.75 
C 0.198902 0.75 0.389685 0.670975 0.53033 0.53033 
C 0.670975 0.389685 0.75 0.198902 0.75 0 
C 0.75 -0.198902 0.670975 -0.389685 0.53033 -0.53033 
C 0.389685 -0.670975 0.198902 -0.75 0 -0.75 
C -0.198902 -0.75 -0.389685 -0.670975 -0.53033 -0.53033 
C -0.670975 -0.389685 -0.75 -0.198902 -0.75 0 
C -0.75 0.198902 -0.670975 0.389685 -0.53033 0.53033 
C -0.389685 0.670975 -0.198902 0.75 0 0.75 
z
" id="mf19c41782f" style="stroke:#a65628;"/>
    </defs>
    <g clip-path="url(#pfdf3926055)">
     <use style="fill:#a65628;stroke:#a65628;" x="32.419602" xlink:href="#mf19c41782f" y="56.265307"/>
     <use style="fill:#a65628;stroke:#a65628;" x="44.522771" xlink:href="#mf19c41782f" y="45.961515"/>
     <use style="fill:#a65628;stroke:#a65628;" x="53.80986" xlink:href="#mf19c41782f" y="40.216199"/>
     <use style="fill:#a65628;stroke:#a65628;" x="61.639237" xlink:href="#mf19c41782f" y="36.45444"/>
     <use style="fill:#a65628;stroke:#a65628;" x="68.537057" xlink:href="#mf19c41782f" y="34.148841"/>
     <use style="fill:#a65628;stroke:#a65628;" x="74.773164" xlink:href="#mf19c41782f" y="32.387002"/>
     <use style="fill:#a65628;stroke:#a65628;" x="80.507855" xlink:href="#mf19c41782f" y="31.36015"/>
     <use style="fill:#a65628;stroke:#a65628;" x="85.845576" xlink:href="#mf19c41782f" y="30.15367"/>
     <use style="fill:#a65628;stroke:#a65628;" x="90.858872" xlink:href="#mf19c41782f" y="29.570691"/>
     <use style="fill:#a65628;stroke:#a65628;" x="95.600566" xlink:href="#mf19c41782f" y="28.705718"/>
     <use style="fill:#a65628;stroke:#a65628;" x="100.110533" xlink:href="#mf19c41782f" y="28.076439"/>
     <use style="fill:#a65628;stroke:#a65628;" x="104.419752" xlink:href="#mf19c41782f" y="27.713341"/>
     <use style="fill:#a65628;stroke:#a65628;" x="108.55286" xlink:href="#mf19c41782f" y="27.321277"/>
     <use style="fill:#a65628;stroke:#a65628;" x="112.529831" xlink:href="#mf19c41782f" y="26.842709"/>
     <use style="fill:#a65628;stroke:#a65628;" x="116.367127" xlink:href="#mf19c41782f" y="26.062845"/>
     <use style="fill:#a65628;stroke:#a65628;" x="120.078507" xlink:href="#mf19c41782f" y="25.750324"/>
     <use style="fill:#a65628;stroke:#a65628;" x="123.675609" xlink:href="#mf19c41782f" y="25.524623"/>
     <use style="fill:#a65628;stroke:#a65628;" x="127.16838" xlink:href="#mf19c41782f" y="25.461427"/>
     <use style="fill:#a65628;stroke:#a65628;" x="130.565404" xlink:href="#mf19c41782f" y="24.435433"/>
     <use style="fill:#a65628;stroke:#a65628;" x="133.874148" xlink:href="#mf19c41782f" y="24.443467"/>
    </g>
   </g>
   <g id="line2d_62">
    <path clip-path="url(#pfdf3926055)" d="M 112.529831 26.853342 
L 108.55286 27.274958 
L 104.419752 27.713128 
L 100.110533 28.169967 
L 95.600566 28.648089 
" style="fill:none;stroke:#000000;stroke-linecap:square;"/>
   </g>
   <g id="line2d_63">
    <path clip-path="url(#pfdf3926055)" d="M 32.419602 47.549781 
L 44.522771 37.659557 
L 53.80986 32.343232 
L 61.639237 29.029426 
L 68.537057 26.451931 
L 74.773164 25.218519 
L 80.507855 23.819559 
L 85.845576 22.649813 
L 90.858872 21.615084 
L 95.600566 20.954462 
L 100.110533 20.210753 
L 104.419752 19.469877 
L 108.55286 19.002826 
L 112.529831 18.455531 
L 116.367127 17.612468 
L 120.078507 17.235925 
L 123.675609 16.831989 
L 127.16838 16.251376 
L 130.565404 16.429213 
L 133.874148 16.114782 
" style="fill:none;stroke:#4daf4a;stroke-linecap:square;stroke-width:1.5;"/>
    <defs>
     <path d="M 0 0.75 
C 0.198902 0.75 0.389685 0.670975 0.53033 0.53033 
C 0.670975 0.389685 0.75 0.198902 0.75 0 
C 0.75 -0.198902 0.670975 -0.389685 0.53033 -0.53033 
C 0.389685 -0.670975 0.198902 -0.75 0 -0.75 
C -0.198902 -0.75 -0.389685 -0.670975 -0.53033 -0.53033 
C -0.670975 -0.389685 -0.75 -0.198902 -0.75 0 
C -0.75 0.198902 -0.670975 0.389685 -0.53033 0.53033 
C -0.389685 0.670975 -0.198902 0.75 0 0.75 
z
" id="m7755a45130" style="stroke:#4daf4a;"/>
    </defs>
    <g clip-path="url(#pfdf3926055)">
     <use style="fill:#4daf4a;stroke:#4daf4a;" x="32.419602" xlink:href="#m7755a45130" y="47.549781"/>
     <use style="fill:#4daf4a;stroke:#4daf4a;" x="44.522771" xlink:href="#m7755a45130" y="37.659557"/>
     <use style="fill:#4daf4a;stroke:#4daf4a;" x="53.80986" xlink:href="#m7755a45130" y="32.343232"/>
     <use style="fill:#4daf4a;stroke:#4daf4a;" x="61.639237" xlink:href="#m7755a45130" y="29.029426"/>
     <use style="fill:#4daf4a;stroke:#4daf4a;" x="68.537057" xlink:href="#m7755a45130" y="26.451931"/>
     <use style="fill:#4daf4a;stroke:#4daf4a;" x="74.773164" xlink:href="#m7755a45130" y="25.218519"/>
     <use style="fill:#4daf4a;stroke:#4daf4a;" x="80.507855" xlink:href="#m7755a45130" y="23.819559"/>
     <use style="fill:#4daf4a;stroke:#4daf4a;" x="85.845576" xlink:href="#m7755a45130" y="22.649813"/>
     <use style="fill:#4daf4a;stroke:#4daf4a;" x="90.858872" xlink:href="#m7755a45130" y="21.615084"/>
     <use style="fill:#4daf4a;stroke:#4daf4a;" x="95.600566" xlink:href="#m7755a45130" y="20.954462"/>
     <use style="fill:#4daf4a;stroke:#4daf4a;" x="100.110533" xlink:href="#m7755a45130" y="20.210753"/>
     <use style="fill:#4daf4a;stroke:#4daf4a;" x="104.419752" xlink:href="#m7755a45130" y="19.469877"/>
     <use style="fill:#4daf4a;stroke:#4daf4a;" x="108.55286" xlink:href="#m7755a45130" y="19.002826"/>
     <use style="fill:#4daf4a;stroke:#4daf4a;" x="112.529831" xlink:href="#m7755a45130" y="18.455531"/>
     <use style="fill:#4daf4a;stroke:#4daf4a;" x="116.367127" xlink:href="#m7755a45130" y="17.612468"/>
     <use style="fill:#4daf4a;stroke:#4daf4a;" x="120.078507" xlink:href="#m7755a45130" y="17.235925"/>
     <use style="fill:#4daf4a;stroke:#4daf4a;" x="123.675609" xlink:href="#m7755a45130" y="16.831989"/>
     <use style="fill:#4daf4a;stroke:#4daf4a;" x="127.16838" xlink:href="#m7755a45130" y="16.251376"/>
     <use style="fill:#4daf4a;stroke:#4daf4a;" x="130.565404" xlink:href="#m7755a45130" y="16.429213"/>
     <use style="fill:#4daf4a;stroke:#4daf4a;" x="133.874148" xlink:href="#m7755a45130" y="16.114782"/>
    </g>
   </g>
   <g id="line2d_64">
    <path clip-path="url(#pfdf3926055)" d="M 112.529831 18.257555 
L 108.55286 18.914354 
L 104.419752 19.59694 
L 100.110533 20.30861 
L 95.600566 21.053434 
L 90.858872 21.836528 
L 85.845576 22.664478 
L 80.507855 23.546006 
" style="fill:none;stroke:#000000;stroke-linecap:square;"/>
   </g>
   <g id="line2d_65">
    <path clip-path="url(#pfdf3926055)" d="M 32.419602 41.87203 
L 44.522771 31.844766 
L 53.80986 26.628195 
L 61.639237 23.501072 
L 68.537057 21.543591 
L 74.773164 20.02973 
L 80.507855 18.890122 
L 85.845576 17.468679 
L 90.858872 16.37028 
L 95.600566 15.407638 
L 100.110533 14.770271 
L 104.419752 13.806201 
L 108.55286 13.191605 
L 112.529831 12.566699 
L 116.367127 11.955096 
L 120.078507 11.440718 
L 123.675609 11.087057 
L 127.16838 10.715864 
L 130.565404 10.044928 
L 133.874148 9.619917 
" style="fill:none;stroke:#999999;stroke-linecap:square;stroke-width:1.5;"/>
    <defs>
     <path d="M 0 0.75 
C 0.198902 0.75 0.389685 0.670975 0.53033 0.53033 
C 0.670975 0.389685 0.75 0.198902 0.75 0 
C 0.75 -0.198902 0.670975 -0.389685 0.53033 -0.53033 
C 0.389685 -0.670975 0.198902 -0.75 0 -0.75 
C -0.198902 -0.75 -0.389685 -0.670975 -0.53033 -0.53033 
C -0.670975 -0.389685 -0.75 -0.198902 -0.75 0 
C -0.75 0.198902 -0.670975 0.389685 -0.53033 0.53033 
C -0.389685 0.670975 -0.198902 0.75 0 0.75 
z
" id="m4181e13789" style="stroke:#999999;"/>
    </defs>
    <g clip-path="url(#pfdf3926055)">
     <use style="fill:#999999;stroke:#999999;" x="32.419602" xlink:href="#m4181e13789" y="41.87203"/>
     <use style="fill:#999999;stroke:#999999;" x="44.522771" xlink:href="#m4181e13789" y="31.844766"/>
     <use style="fill:#999999;stroke:#999999;" x="53.80986" xlink:href="#m4181e13789" y="26.628195"/>
     <use style="fill:#999999;stroke:#999999;" x="61.639237" xlink:href="#m4181e13789" y="23.501072"/>
     <use style="fill:#999999;stroke:#999999;" x="68.537057" xlink:href="#m4181e13789" y="21.543591"/>
     <use style="fill:#999999;stroke:#999999;" x="74.773164" xlink:href="#m4181e13789" y="20.02973"/>
     <use style="fill:#999999;stroke:#999999;" x="80.507855" xlink:href="#m4181e13789" y="18.890122"/>
     <use style="fill:#999999;stroke:#999999;" x="85.845576" xlink:href="#m4181e13789" y="17.468679"/>
     <use style="fill:#999999;stroke:#999999;" x="90.858872" xlink:href="#m4181e13789" y="16.37028"/>
     <use style="fill:#999999;stroke:#999999;" x="95.600566" xlink:href="#m4181e13789" y="15.407638"/>
     <use style="fill:#999999;stroke:#999999;" x="100.110533" xlink:href="#m4181e13789" y="14.770271"/>
     <use style="fill:#999999;stroke:#999999;" x="104.419752" xlink:href="#m4181e13789" y="13.806201"/>
     <use style="fill:#999999;stroke:#999999;" x="108.55286" xlink:href="#m4181e13789" y="13.191605"/>
     <use style="fill:#999999;stroke:#999999;" x="112.529831" xlink:href="#m4181e13789" y="12.566699"/>
     <use style="fill:#999999;stroke:#999999;" x="116.367127" xlink:href="#m4181e13789" y="11.955096"/>
     <use style="fill:#999999;stroke:#999999;" x="120.078507" xlink:href="#m4181e13789" y="11.440718"/>
     <use style="fill:#999999;stroke:#999999;" x="123.675609" xlink:href="#m4181e13789" y="11.087057"/>
     <use style="fill:#999999;stroke:#999999;" x="127.16838" xlink:href="#m4181e13789" y="10.715864"/>
     <use style="fill:#999999;stroke:#999999;" x="130.565404" xlink:href="#m4181e13789" y="10.044928"/>
     <use style="fill:#999999;stroke:#999999;" x="133.874148" xlink:href="#m4181e13789" y="9.619917"/>
    </g>
   </g>
   <g id="line2d_66">
    <path clip-path="url(#pfdf3926055)" d="M 123.675609 10.779536 
L 120.078507 11.38877 
L 116.367127 12.017358 
L 112.529831 12.667272 
L 108.55286 13.340843 
L 104.419752 14.040859 
L 100.110533 14.770702 
L 95.600566 15.534545 
L 90.858872 16.337635 
L 85.845576 17.186726 
" style="fill:none;stroke:#000000;stroke-linecap:square;"/>
   </g>
   <g id="line2d_67">
    <path clip-path="url(#pfdf3926055)" d="M 32.419602 38.402793 
L 44.522771 28.192502 
L 53.80986 22.758782 
L 61.639237 19.498768 
L 68.537057 17.50363 
L 74.773164 15.933411 
L 80.507855 14.773182 
L 85.845576 13.585874 
L 90.858872 12.608529 
L 95.600566 11.55297 
L 100.110533 10.719845 
L 104.419752 10.063571 
L 108.55286 9.396289 
L 112.529831 8.517485 
L 116.367127 8.035097 
L 120.078507 7.239284 
L 123.675609 6.815166 
L 127.16838 6.417343 
L 130.565404 5.890811 
L 133.874148 5.460183 
" style="fill:none;stroke:#377eb8;stroke-linecap:square;stroke-width:1.5;"/>
    <defs>
     <path d="M 0 0.75 
C 0.198902 0.75 0.389685 0.670975 0.53033 0.53033 
C 0.670975 0.389685 0.75 0.198902 0.75 0 
C 0.75 -0.198902 0.670975 -0.389685 0.53033 -0.53033 
C 0.389685 -0.670975 0.198902 -0.75 0 -0.75 
C -0.198902 -0.75 -0.389685 -0.670975 -0.53033 -0.53033 
C -0.670975 -0.389685 -0.75 -0.198902 -0.75 0 
C -0.75 0.198902 -0.670975 0.389685 -0.53033 0.53033 
C -0.389685 0.670975 -0.198902 0.75 0 0.75 
z
" id="m87ac3fff8a" style="stroke:#377eb8;"/>
    </defs>
    <g clip-path="url(#pfdf3926055)">
     <use style="fill:#377eb8;stroke:#377eb8;" x="32.419602" xlink:href="#m87ac3fff8a" y="38.402793"/>
     <use style="fill:#377eb8;stroke:#377eb8;" x="44.522771" xlink:href="#m87ac3fff8a" y="28.192502"/>
     <use style="fill:#377eb8;stroke:#377eb8;" x="53.80986" xlink:href="#m87ac3fff8a" y="22.758782"/>
     <use style="fill:#377eb8;stroke:#377eb8;" x="61.639237" xlink:href="#m87ac3fff8a" y="19.498768"/>
     <use style="fill:#377eb8;stroke:#377eb8;" x="68.537057" xlink:href="#m87ac3fff8a" y="17.50363"/>
     <use style="fill:#377eb8;stroke:#377eb8;" x="74.773164" xlink:href="#m87ac3fff8a" y="15.933411"/>
     <use style="fill:#377eb8;stroke:#377eb8;" x="80.507855" xlink:href="#m87ac3fff8a" y="14.773182"/>
     <use style="fill:#377eb8;stroke:#377eb8;" x="85.845576" xlink:href="#m87ac3fff8a" y="13.585874"/>
     <use style="fill:#377eb8;stroke:#377eb8;" x="90.858872" xlink:href="#m87ac3fff8a" y="12.608529"/>
     <use style="fill:#377eb8;stroke:#377eb8;" x="95.600566" xlink:href="#m87ac3fff8a" y="11.55297"/>
     <use style="fill:#377eb8;stroke:#377eb8;" x="100.110533" xlink:href="#m87ac3fff8a" y="10.719845"/>
     <use style="fill:#377eb8;stroke:#377eb8;" x="104.419752" xlink:href="#m87ac3fff8a" y="10.063571"/>
     <use style="fill:#377eb8;stroke:#377eb8;" x="108.55286" xlink:href="#m87ac3fff8a" y="9.396289"/>
     <use style="fill:#377eb8;stroke:#377eb8;" x="112.529831" xlink:href="#m87ac3fff8a" y="8.517485"/>
     <use style="fill:#377eb8;stroke:#377eb8;" x="116.367127" xlink:href="#m87ac3fff8a" y="8.035097"/>
     <use style="fill:#377eb8;stroke:#377eb8;" x="120.078507" xlink:href="#m87ac3fff8a" y="7.239284"/>
     <use style="fill:#377eb8;stroke:#377eb8;" x="123.675609" xlink:href="#m87ac3fff8a" y="6.815166"/>
     <use style="fill:#377eb8;stroke:#377eb8;" x="127.16838" xlink:href="#m87ac3fff8a" y="6.417343"/>
     <use style="fill:#377eb8;stroke:#377eb8;" x="130.565404" xlink:href="#m87ac3fff8a" y="5.890811"/>
     <use style="fill:#377eb8;stroke:#377eb8;" x="133.874148" xlink:href="#m87ac3fff8a" y="5.460183"/>
    </g>
   </g>
   <g id="line2d_68">
    <path clip-path="url(#pfdf3926055)" d="M 133.874148 4.941818 
L 130.565404 5.545229 
L 127.16838 6.16474 
L 123.675609 6.801712 
L 120.078507 7.457711 
L 116.367127 8.13455 
L 112.529831 8.834353 
L 108.55286 9.559628 
L 104.419752 10.313377 
L 100.110533 11.099244 
L 95.600566 11.921721 
L 90.858872 12.786457 
L 85.845576 13.700726 
L 80.507855 14.674159 
L 74.773164 15.719987 
L 68.537057 16.857257 
" style="fill:none;stroke:#000000;stroke-linecap:square;"/>
   </g>
   <g id="patch_3">
    <path d="M 27.346875 108.72 
L 27.346875 -0 
" style="fill:none;stroke:#000000;stroke-linecap:square;stroke-linejoin:miter;stroke-width:0.5;"/>
   </g>
   <g id="patch_4">
    <path d="M 138.946875 108.72 
L 138.946875 -0 
" style="fill:none;stroke:#000000;stroke-linecap:square;stroke-linejoin:miter;stroke-width:0.5;"/>
   </g>
   <g id="patch_5">
    <path d="M 27.346875 108.72 
L 138.946875 108.72 
" style="fill:none;stroke:#000000;stroke-linecap:square;stroke-linejoin:miter;stroke-width:0.5;"/>
   </g>
   <g id="patch_6">
    <path d="M 27.346875 0 
L 138.946875 0 
" style="fill:none;stroke:#000000;stroke-linecap:square;stroke-linejoin:miter;stroke-width:0.5;"/>
   </g>
  </g>
 </g>
 <defs>
  <clipPath id="pfdf3926055">
   <rect height="108.72" width="111.6" x="27.346875" y="0"/>
  </clipPath>
 </defs>
</svg>
