<?xml version="1.0" encoding="utf-8" standalone="no"?>
<!DOCTYPE svg PUBLIC "-//W3C//DTD SVG 1.1//EN"
  "http://www.w3.org/Graphics/SVG/1.1/DTD/svg11.dtd">
<svg height="128.249687pt" version="1.1" viewBox="0 0 127.545313 128.249687" width="127.545313pt" xmlns="http://www.w3.org/2000/svg" xmlns:xlink="http://www.w3.org/1999/xlink">
 <metadata>
  <rdf:RDF xmlns:cc="http://creativecommons.org/ns#" xmlns:dc="http://purl.org/dc/elements/1.1/" xmlns:rdf="http://www.w3.org/1999/02/22-rdf-syntax-ns#">
   <cc:Work>
    <dc:type rdf:resource="http://purl.org/dc/dcmitype/StillImage"/>
    <dc:date>2021-09-22T18:07:02.294556</dc:date>
    <dc:format>image/svg+xml</dc:format>
    <dc:creator>
     <cc:Agent>
      <dc:title>Matplotlib v3.4.3, https://matplotlib.org/</dc:title>
     </cc:Agent>
    </dc:creator>
   </cc:Work>
  </rdf:RDF>
 </metadata>
 <defs>
  <style type="text/css">*{stroke-linecap:butt;stroke-linejoin:round;}</style>
 </defs>
 <g id="figure_1">
  <g id="patch_1">
   <path d="M 0 128.249687 
L 127.545313 128.249687 
L 127.545313 0 
L 0 0 
z
" style="fill:none;"/>
  </g>
  <g id="axes_1">
   <g id="patch_2">
    <path d="M 15.945313 108.72 
L 127.545312 108.72 
L 127.545312 0 
L 15.945313 0 
z
" style="fill:none;"/>
   </g>
   <g id="matplotlib.axis_1">
    <g id="xtick_1">
     <g id="line2d_1">
      <defs>
       <path d="M 0 0 
L 0 -3.5 
" id="m17c14fca97" style="stroke:#000000;stroke-width:0.5;"/>
      </defs>
      <g>
       <use style="stroke:#000000;stroke-width:0.5;" x="32.153295" xlink:href="#m17c14fca97" y="108.72"/>
      </g>
     </g>
     <g id="line2d_2">
      <defs>
       <path d="M 0 0 
L 0 3.5 
" id="mb87ccb4e14" style="stroke:#000000;stroke-width:0.5;"/>
      </defs>
      <g>
       <use style="stroke:#000000;stroke-width:0.5;" x="32.153295" xlink:href="#mb87ccb4e14" y="0"/>
      </g>
     </g>
     <g id="text_1">
      <text style="font-family:Arial;font-size:10px;font-stretch:normal;font-style:normal;font-weight:normal;text-anchor:middle;" transform="rotate(-0, 32.153295, 116.877812)" x="32.153295" y="116.877812">350</text>
     </g>
    </g>
    <g id="xtick_2">
     <g id="line2d_3">
      <g>
       <use style="stroke:#000000;stroke-width:0.5;" x="94.015822" xlink:href="#m17c14fca97" y="108.72"/>
      </g>
     </g>
     <g id="line2d_4">
      <g>
       <use style="stroke:#000000;stroke-width:0.5;" x="94.015822" xlink:href="#mb87ccb4e14" y="0"/>
      </g>
     </g>
     <g id="text_2">
      <text style="font-family:Arial;font-size:10px;font-stretch:normal;font-style:normal;font-weight:normal;text-anchor:middle;" transform="rotate(-0, 94.015822, 116.877812)" x="94.015822" y="116.877812">400</text>
     </g>
    </g>
    <g id="xtick_3">
     <g id="line2d_5">
      <defs>
       <path d="M 0 0 
L 0 -2 
" id="m76a25f83b1" style="stroke:#000000;stroke-width:0.5;"/>
      </defs>
      <g>
       <use style="stroke:#000000;stroke-width:0.5;" x="19.780789" xlink:href="#m76a25f83b1" y="108.72"/>
      </g>
     </g>
     <g id="line2d_6">
      <defs>
       <path d="M 0 0 
L 0 2 
" id="m636ffe54e3" style="stroke:#000000;stroke-width:0.5;"/>
      </defs>
      <g>
       <use style="stroke:#000000;stroke-width:0.5;" x="19.780789" xlink:href="#m636ffe54e3" y="0"/>
      </g>
     </g>
    </g>
    <g id="xtick_4">
     <g id="line2d_7">
      <g>
       <use style="stroke:#000000;stroke-width:0.5;" x="44.5258" xlink:href="#m76a25f83b1" y="108.72"/>
      </g>
     </g>
     <g id="line2d_8">
      <g>
       <use style="stroke:#000000;stroke-width:0.5;" x="44.5258" xlink:href="#m636ffe54e3" y="0"/>
      </g>
     </g>
    </g>
    <g id="xtick_5">
     <g id="line2d_9">
      <g>
       <use style="stroke:#000000;stroke-width:0.5;" x="56.898306" xlink:href="#m76a25f83b1" y="108.72"/>
      </g>
     </g>
     <g id="line2d_10">
      <g>
       <use style="stroke:#000000;stroke-width:0.5;" x="56.898306" xlink:href="#m636ffe54e3" y="0"/>
      </g>
     </g>
    </g>
    <g id="xtick_6">
     <g id="line2d_11">
      <g>
       <use style="stroke:#000000;stroke-width:0.5;" x="69.270811" xlink:href="#m76a25f83b1" y="108.72"/>
      </g>
     </g>
     <g id="line2d_12">
      <g>
       <use style="stroke:#000000;stroke-width:0.5;" x="69.270811" xlink:href="#m636ffe54e3" y="0"/>
      </g>
     </g>
    </g>
    <g id="xtick_7">
     <g id="line2d_13">
      <g>
       <use style="stroke:#000000;stroke-width:0.5;" x="81.643317" xlink:href="#m76a25f83b1" y="108.72"/>
      </g>
     </g>
     <g id="line2d_14">
      <g>
       <use style="stroke:#000000;stroke-width:0.5;" x="81.643317" xlink:href="#m636ffe54e3" y="0"/>
      </g>
     </g>
    </g>
    <g id="xtick_8">
     <g id="line2d_15">
      <g>
       <use style="stroke:#000000;stroke-width:0.5;" x="106.388328" xlink:href="#m76a25f83b1" y="108.72"/>
      </g>
     </g>
     <g id="line2d_16">
      <g>
       <use style="stroke:#000000;stroke-width:0.5;" x="106.388328" xlink:href="#m636ffe54e3" y="0"/>
      </g>
     </g>
    </g>
    <g id="xtick_9">
     <g id="line2d_17">
      <g>
       <use style="stroke:#000000;stroke-width:0.5;" x="118.760834" xlink:href="#m76a25f83b1" y="108.72"/>
      </g>
     </g>
     <g id="line2d_18">
      <g>
       <use style="stroke:#000000;stroke-width:0.5;" x="118.760834" xlink:href="#m636ffe54e3" y="0"/>
      </g>
     </g>
    </g>
    <g id="text_3">
     <text style="font-family:Arial;font-size:10px;font-stretch:normal;font-style:normal;font-weight:normal;text-anchor:middle;" transform="rotate(-0, 71.745312, 126.145)" x="71.745312" y="126.145">T (K)</text>
    </g>
   </g>
   <g id="matplotlib.axis_2">
    <g id="ytick_1">
     <g id="line2d_19">
      <defs>
       <path d="M 0 0 
L 3.5 0 
" id="mfb2a866cae" style="stroke:#000000;stroke-width:0.5;"/>
      </defs>
      <g>
       <use style="stroke:#000000;stroke-width:0.5;" x="15.945313" xlink:href="#mfb2a866cae" y="103.787897"/>
      </g>
     </g>
     <g id="line2d_20">
      <defs>
       <path d="M 0 0 
L -3.5 0 
" id="m117afcf96e" style="stroke:#000000;stroke-width:0.5;"/>
      </defs>
      <g>
       <use style="stroke:#000000;stroke-width:0.5;" x="127.545312" xlink:href="#m117afcf96e" y="103.787897"/>
      </g>
     </g>
     <g id="text_4">
      <text style="font-family:Arial;font-size:10px;font-stretch:normal;font-style:normal;font-weight:normal;text-anchor:end;" transform="rotate(-0, 14.945313, 107.366803)" x="14.945313" y="107.366803">0</text>
     </g>
    </g>
    <g id="ytick_2">
     <g id="line2d_21">
      <g>
       <use style="stroke:#000000;stroke-width:0.5;" x="15.945313" xlink:href="#mfb2a866cae" y="76.08735"/>
      </g>
     </g>
     <g id="line2d_22">
      <g>
       <use style="stroke:#000000;stroke-width:0.5;" x="127.545312" xlink:href="#m117afcf96e" y="76.08735"/>
      </g>
     </g>
     <g id="text_5">
      <text style="font-family:Arial;font-size:10px;font-stretch:normal;font-style:normal;font-weight:normal;text-anchor:end;" transform="rotate(-0, 14.945313, 79.666256)" x="14.945313" y="79.666256">1</text>
     </g>
    </g>
    <g id="ytick_3">
     <g id="line2d_23">
      <g>
       <use style="stroke:#000000;stroke-width:0.5;" x="15.945313" xlink:href="#mfb2a866cae" y="48.386802"/>
      </g>
     </g>
     <g id="line2d_24">
      <g>
       <use style="stroke:#000000;stroke-width:0.5;" x="127.545312" xlink:href="#m117afcf96e" y="48.386802"/>
      </g>
     </g>
     <g id="text_6">
      <text style="font-family:Arial;font-size:10px;font-stretch:normal;font-style:normal;font-weight:normal;text-anchor:end;" transform="rotate(-0, 14.945313, 51.965709)" x="14.945313" y="51.965709">2</text>
     </g>
    </g>
    <g id="ytick_4">
     <g id="line2d_25">
      <g>
       <use style="stroke:#000000;stroke-width:0.5;" x="15.945313" xlink:href="#mfb2a866cae" y="20.686255"/>
      </g>
     </g>
     <g id="line2d_26">
      <g>
       <use style="stroke:#000000;stroke-width:0.5;" x="127.545312" xlink:href="#m117afcf96e" y="20.686255"/>
      </g>
     </g>
     <g id="text_7">
      <text style="font-family:Arial;font-size:10px;font-stretch:normal;font-style:normal;font-weight:normal;text-anchor:end;" transform="rotate(-0, 14.945313, 24.265161)" x="14.945313" y="24.265161">3</text>
     </g>
    </g>
    <g id="ytick_5">
     <g id="line2d_27">
      <defs>
       <path d="M 0 0 
L 2 0 
" id="mdb4a05ee3a" style="stroke:#000000;stroke-width:0.5;"/>
      </defs>
      <g>
       <use style="stroke:#000000;stroke-width:0.5;" x="15.945313" xlink:href="#mdb4a05ee3a" y="98.247787"/>
      </g>
     </g>
     <g id="line2d_28">
      <defs>
       <path d="M 0 0 
L -2 0 
" id="m8b784dc07b" style="stroke:#000000;stroke-width:0.5;"/>
      </defs>
      <g>
       <use style="stroke:#000000;stroke-width:0.5;" x="127.545312" xlink:href="#m8b784dc07b" y="98.247787"/>
      </g>
     </g>
    </g>
    <g id="ytick_6">
     <g id="line2d_29">
      <g>
       <use style="stroke:#000000;stroke-width:0.5;" x="15.945313" xlink:href="#mdb4a05ee3a" y="92.707678"/>
      </g>
     </g>
     <g id="line2d_30">
      <g>
       <use style="stroke:#000000;stroke-width:0.5;" x="127.545312" xlink:href="#m8b784dc07b" y="92.707678"/>
      </g>
     </g>
    </g>
    <g id="ytick_7">
     <g id="line2d_31">
      <g>
       <use style="stroke:#000000;stroke-width:0.5;" x="15.945313" xlink:href="#mdb4a05ee3a" y="87.167568"/>
      </g>
     </g>
     <g id="line2d_32">
      <g>
       <use style="stroke:#000000;stroke-width:0.5;" x="127.545312" xlink:href="#m8b784dc07b" y="87.167568"/>
      </g>
     </g>
    </g>
    <g id="ytick_8">
     <g id="line2d_33">
      <g>
       <use style="stroke:#000000;stroke-width:0.5;" x="15.945313" xlink:href="#mdb4a05ee3a" y="81.627459"/>
      </g>
     </g>
     <g id="line2d_34">
      <g>
       <use style="stroke:#000000;stroke-width:0.5;" x="127.545312" xlink:href="#m8b784dc07b" y="81.627459"/>
      </g>
     </g>
    </g>
    <g id="ytick_9">
     <g id="line2d_35">
      <g>
       <use style="stroke:#000000;stroke-width:0.5;" x="15.945313" xlink:href="#mdb4a05ee3a" y="70.54724"/>
      </g>
     </g>
     <g id="line2d_36">
      <g>
       <use style="stroke:#000000;stroke-width:0.5;" x="127.545312" xlink:href="#m8b784dc07b" y="70.54724"/>
      </g>
     </g>
    </g>
    <g id="ytick_10">
     <g id="line2d_37">
      <g>
       <use style="stroke:#000000;stroke-width:0.5;" x="15.945313" xlink:href="#mdb4a05ee3a" y="65.007131"/>
      </g>
     </g>
     <g id="line2d_38">
      <g>
       <use style="stroke:#000000;stroke-width:0.5;" x="127.545312" xlink:href="#m8b784dc07b" y="65.007131"/>
      </g>
     </g>
    </g>
    <g id="ytick_11">
     <g id="line2d_39">
      <g>
       <use style="stroke:#000000;stroke-width:0.5;" x="15.945313" xlink:href="#mdb4a05ee3a" y="59.467021"/>
      </g>
     </g>
     <g id="line2d_40">
      <g>
       <use style="stroke:#000000;stroke-width:0.5;" x="127.545312" xlink:href="#m8b784dc07b" y="59.467021"/>
      </g>
     </g>
    </g>
    <g id="ytick_12">
     <g id="line2d_41">
      <g>
       <use style="stroke:#000000;stroke-width:0.5;" x="15.945313" xlink:href="#mdb4a05ee3a" y="53.926912"/>
      </g>
     </g>
     <g id="line2d_42">
      <g>
       <use style="stroke:#000000;stroke-width:0.5;" x="127.545312" xlink:href="#m8b784dc07b" y="53.926912"/>
      </g>
     </g>
    </g>
    <g id="ytick_13">
     <g id="line2d_43">
      <g>
       <use style="stroke:#000000;stroke-width:0.5;" x="15.945313" xlink:href="#mdb4a05ee3a" y="42.846693"/>
      </g>
     </g>
     <g id="line2d_44">
      <g>
       <use style="stroke:#000000;stroke-width:0.5;" x="127.545312" xlink:href="#m8b784dc07b" y="42.846693"/>
      </g>
     </g>
    </g>
    <g id="ytick_14">
     <g id="line2d_45">
      <g>
       <use style="stroke:#000000;stroke-width:0.5;" x="15.945313" xlink:href="#mdb4a05ee3a" y="37.306584"/>
      </g>
     </g>
     <g id="line2d_46">
      <g>
       <use style="stroke:#000000;stroke-width:0.5;" x="127.545312" xlink:href="#m8b784dc07b" y="37.306584"/>
      </g>
     </g>
    </g>
    <g id="ytick_15">
     <g id="line2d_47">
      <g>
       <use style="stroke:#000000;stroke-width:0.5;" x="15.945313" xlink:href="#mdb4a05ee3a" y="31.766474"/>
      </g>
     </g>
     <g id="line2d_48">
      <g>
       <use style="stroke:#000000;stroke-width:0.5;" x="127.545312" xlink:href="#m8b784dc07b" y="31.766474"/>
      </g>
     </g>
    </g>
    <g id="ytick_16">
     <g id="line2d_49">
      <g>
       <use style="stroke:#000000;stroke-width:0.5;" x="15.945313" xlink:href="#mdb4a05ee3a" y="26.226365"/>
      </g>
     </g>
     <g id="line2d_50">
      <g>
       <use style="stroke:#000000;stroke-width:0.5;" x="127.545312" xlink:href="#m8b784dc07b" y="26.226365"/>
      </g>
     </g>
    </g>
    <g id="ytick_17">
     <g id="line2d_51">
      <g>
       <use style="stroke:#000000;stroke-width:0.5;" x="15.945313" xlink:href="#mdb4a05ee3a" y="15.146146"/>
      </g>
     </g>
     <g id="line2d_52">
      <g>
       <use style="stroke:#000000;stroke-width:0.5;" x="127.545312" xlink:href="#m8b784dc07b" y="15.146146"/>
      </g>
     </g>
    </g>
    <g id="ytick_18">
     <g id="line2d_53">
      <g>
       <use style="stroke:#000000;stroke-width:0.5;" x="15.945313" xlink:href="#mdb4a05ee3a" y="9.606036"/>
      </g>
     </g>
     <g id="line2d_54">
      <g>
       <use style="stroke:#000000;stroke-width:0.5;" x="127.545312" xlink:href="#m8b784dc07b" y="9.606036"/>
      </g>
     </g>
    </g>
    <g id="ytick_19">
     <g id="line2d_55">
      <g>
       <use style="stroke:#000000;stroke-width:0.5;" x="15.945313" xlink:href="#mdb4a05ee3a" y="4.065927"/>
      </g>
     </g>
     <g id="line2d_56">
      <g>
       <use style="stroke:#000000;stroke-width:0.5;" x="127.545312" xlink:href="#m8b784dc07b" y="4.065927"/>
      </g>
     </g>
    </g>
    <g id="text_8">
     <text style="font-family:Arial;font-size:10px;font-stretch:normal;font-style:normal;font-weight:normal;text-anchor:middle;" transform="rotate(-90, 7.279688, 54.36)" x="7.279688" y="54.36">tan(δ)</text>
    </g>
   </g>
   <g id="line2d_57">
    <path clip-path="url(#p7919dbc3f6)" d="M 122.472585 100.115109 
L 119.998084 99.053956 
L 117.523583 97.684774 
L 115.049082 97.444527 
L 112.574581 88.035925 
L 110.10008 4.941818 
L 107.625579 95.462248 
L 105.151077 99.530184 
L 102.676576 100.853772 
L 100.202075 101.574138 
L 97.727574 102.080654 
L 95.253073 102.392208 
L 92.778572 102.641568 
L 90.304071 102.8283 
L 87.82957 102.99101 
L 85.355069 103.100001 
L 82.880567 103.190515 
L 80.406066 103.474634 
L 77.931565 103.500445 
L 75.457064 103.523453 
L 72.982563 103.545398 
L 70.508062 103.564117 
L 68.033561 103.583606 
L 65.55906 103.601063 
L 63.084559 103.61905 
L 60.610058 103.63644 
L 58.135556 103.652062 
L 55.661055 103.666609 
L 53.186554 103.679816 
L 50.712053 103.692029 
L 48.237552 103.70452 
L 45.763051 103.713576 
L 43.28855 103.722554 
L 40.814049 103.730144 
L 38.339548 103.735327 
L 35.865046 103.742618 
L 33.390545 103.747649 
L 30.916044 103.7528 
L 28.441543 103.756726 
L 25.967042 103.760828 
L 23.492541 103.764082 
L 21.01804 103.766819 
" style="fill:none;stroke:#e41a1c;stroke-linecap:square;stroke-width:1.5;"/>
    <defs>
     <path d="M 0 0.75 
C 0.198902 0.75 0.389685 0.670975 0.53033 0.53033 
C 0.670975 0.389685 0.75 0.198902 0.75 0 
C 0.75 -0.198902 0.670975 -0.389685 0.53033 -0.53033 
C 0.389685 -0.670975 0.198902 -0.75 0 -0.75 
C -0.198902 -0.75 -0.389685 -0.670975 -0.53033 -0.53033 
C -0.670975 -0.389685 -0.75 -0.198902 -0.75 0 
C -0.75 0.198902 -0.670975 0.389685 -0.53033 0.53033 
C -0.389685 0.670975 -0.198902 0.75 0 0.75 
z
" id="m5bf2dfd59a" style="stroke:#e41a1c;"/>
    </defs>
    <g clip-path="url(#p7919dbc3f6)">
     <use style="fill:#e41a1c;stroke:#e41a1c;" x="122.472585" xlink:href="#m5bf2dfd59a" y="100.115109"/>
     <use style="fill:#e41a1c;stroke:#e41a1c;" x="119.998084" xlink:href="#m5bf2dfd59a" y="99.053956"/>
     <use style="fill:#e41a1c;stroke:#e41a1c;" x="117.523583" xlink:href="#m5bf2dfd59a" y="97.684774"/>
     <use style="fill:#e41a1c;stroke:#e41a1c;" x="115.049082" xlink:href="#m5bf2dfd59a" y="97.444527"/>
     <use style="fill:#e41a1c;stroke:#e41a1c;" x="112.574581" xlink:href="#m5bf2dfd59a" y="88.035925"/>
     <use style="fill:#e41a1c;stroke:#e41a1c;" x="110.10008" xlink:href="#m5bf2dfd59a" y="4.941818"/>
     <use style="fill:#e41a1c;stroke:#e41a1c;" x="107.625579" xlink:href="#m5bf2dfd59a" y="95.462248"/>
     <use style="fill:#e41a1c;stroke:#e41a1c;" x="105.151077" xlink:href="#m5bf2dfd59a" y="99.530184"/>
     <use style="fill:#e41a1c;stroke:#e41a1c;" x="102.676576" xlink:href="#m5bf2dfd59a" y="100.853772"/>
     <use style="fill:#e41a1c;stroke:#e41a1c;" x="100.202075" xlink:href="#m5bf2dfd59a" y="101.574138"/>
     <use style="fill:#e41a1c;stroke:#e41a1c;" x="97.727574" xlink:href="#m5bf2dfd59a" y="102.080654"/>
     <use style="fill:#e41a1c;stroke:#e41a1c;" x="95.253073" xlink:href="#m5bf2dfd59a" y="102.392208"/>
     <use style="fill:#e41a1c;stroke:#e41a1c;" x="92.778572" xlink:href="#m5bf2dfd59a" y="102.641568"/>
     <use style="fill:#e41a1c;stroke:#e41a1c;" x="90.304071" xlink:href="#m5bf2dfd59a" y="102.8283"/>
     <use style="fill:#e41a1c;stroke:#e41a1c;" x="87.82957" xlink:href="#m5bf2dfd59a" y="102.99101"/>
     <use style="fill:#e41a1c;stroke:#e41a1c;" x="85.355069" xlink:href="#m5bf2dfd59a" y="103.100001"/>
     <use style="fill:#e41a1c;stroke:#e41a1c;" x="82.880567" xlink:href="#m5bf2dfd59a" y="103.190515"/>
     <use style="fill:#e41a1c;stroke:#e41a1c;" x="80.406066" xlink:href="#m5bf2dfd59a" y="103.474634"/>
     <use style="fill:#e41a1c;stroke:#e41a1c;" x="77.931565" xlink:href="#m5bf2dfd59a" y="103.500445"/>
     <use style="fill:#e41a1c;stroke:#e41a1c;" x="75.457064" xlink:href="#m5bf2dfd59a" y="103.523453"/>
     <use style="fill:#e41a1c;stroke:#e41a1c;" x="72.982563" xlink:href="#m5bf2dfd59a" y="103.545398"/>
     <use style="fill:#e41a1c;stroke:#e41a1c;" x="70.508062" xlink:href="#m5bf2dfd59a" y="103.564117"/>
     <use style="fill:#e41a1c;stroke:#e41a1c;" x="68.033561" xlink:href="#m5bf2dfd59a" y="103.583606"/>
     <use style="fill:#e41a1c;stroke:#e41a1c;" x="65.55906" xlink:href="#m5bf2dfd59a" y="103.601063"/>
     <use style="fill:#e41a1c;stroke:#e41a1c;" x="63.084559" xlink:href="#m5bf2dfd59a" y="103.61905"/>
     <use style="fill:#e41a1c;stroke:#e41a1c;" x="60.610058" xlink:href="#m5bf2dfd59a" y="103.63644"/>
     <use style="fill:#e41a1c;stroke:#e41a1c;" x="58.135556" xlink:href="#m5bf2dfd59a" y="103.652062"/>
     <use style="fill:#e41a1c;stroke:#e41a1c;" x="55.661055" xlink:href="#m5bf2dfd59a" y="103.666609"/>
     <use style="fill:#e41a1c;stroke:#e41a1c;" x="53.186554" xlink:href="#m5bf2dfd59a" y="103.679816"/>
     <use style="fill:#e41a1c;stroke:#e41a1c;" x="50.712053" xlink:href="#m5bf2dfd59a" y="103.692029"/>
     <use style="fill:#e41a1c;stroke:#e41a1c;" x="48.237552" xlink:href="#m5bf2dfd59a" y="103.70452"/>
     <use style="fill:#e41a1c;stroke:#e41a1c;" x="45.763051" xlink:href="#m5bf2dfd59a" y="103.713576"/>
     <use style="fill:#e41a1c;stroke:#e41a1c;" x="43.28855" xlink:href="#m5bf2dfd59a" y="103.722554"/>
     <use style="fill:#e41a1c;stroke:#e41a1c;" x="40.814049" xlink:href="#m5bf2dfd59a" y="103.730144"/>
     <use style="fill:#e41a1c;stroke:#e41a1c;" x="38.339548" xlink:href="#m5bf2dfd59a" y="103.735327"/>
     <use style="fill:#e41a1c;stroke:#e41a1c;" x="35.865046" xlink:href="#m5bf2dfd59a" y="103.742618"/>
     <use style="fill:#e41a1c;stroke:#e41a1c;" x="33.390545" xlink:href="#m5bf2dfd59a" y="103.747649"/>
     <use style="fill:#e41a1c;stroke:#e41a1c;" x="30.916044" xlink:href="#m5bf2dfd59a" y="103.7528"/>
     <use style="fill:#e41a1c;stroke:#e41a1c;" x="28.441543" xlink:href="#m5bf2dfd59a" y="103.756726"/>
     <use style="fill:#e41a1c;stroke:#e41a1c;" x="25.967042" xlink:href="#m5bf2dfd59a" y="103.760828"/>
     <use style="fill:#e41a1c;stroke:#e41a1c;" x="23.492541" xlink:href="#m5bf2dfd59a" y="103.764082"/>
     <use style="fill:#e41a1c;stroke:#e41a1c;" x="21.01804" xlink:href="#m5bf2dfd59a" y="103.766819"/>
    </g>
   </g>
   <g id="line2d_58">
    <path clip-path="url(#p7919dbc3f6)" d="M 122.472585 103.292603 
L 119.998084 103.341597 
L 117.523583 103.366228 
L 115.049082 103.089084 
L 112.574581 103.380704 
L 110.10008 103.44233 
L 107.625579 103.515029 
L 105.151077 103.563736 
L 102.676576 103.591931 
L 100.202075 103.617376 
L 97.727574 103.639372 
L 95.253073 103.658012 
L 92.778572 103.672481 
L 90.304071 103.686804 
L 87.82957 103.700205 
L 85.355069 103.710454 
L 82.880567 103.719429 
L 80.406066 103.72759 
L 77.931565 103.734046 
L 75.457064 103.740552 
L 72.982563 103.7459 
L 70.508062 103.750248 
L 68.033561 103.754331 
L 65.55906 103.757813 
L 63.084559 103.76103 
L 60.610058 103.763476 
L 58.135556 103.765806 
L 55.661055 103.767841 
L 53.186554 103.769653 
L 50.712053 103.771261 
L 48.237552 103.77267 
L 45.763051 103.773318 
L 43.28855 103.774092 
L 40.814049 103.774895 
L 38.339548 103.775443 
L 35.865046 103.77625 
L 33.390545 103.776796 
L 30.916044 103.77736 
L 28.441543 103.777288 
L 25.967042 103.777651 
L 23.492541 103.777889 
L 21.01804 103.778182 
" style="fill:none;stroke:#377eb8;stroke-linecap:square;stroke-width:1.5;"/>
    <defs>
     <path d="M 0 0.75 
C 0.198902 0.75 0.389685 0.670975 0.53033 0.53033 
C 0.670975 0.389685 0.75 0.198902 0.75 0 
C 0.75 -0.198902 0.670975 -0.389685 0.53033 -0.53033 
C 0.389685 -0.670975 0.198902 -0.75 0 -0.75 
C -0.198902 -0.75 -0.389685 -0.670975 -0.53033 -0.53033 
C -0.670975 -0.389685 -0.75 -0.198902 -0.75 0 
C -0.75 0.198902 -0.670975 0.389685 -0.53033 0.53033 
C -0.389685 0.670975 -0.198902 0.75 0 0.75 
z
" id="md0bc42a319" style="stroke:#377eb8;"/>
    </defs>
    <g clip-path="url(#p7919dbc3f6)">
     <use style="fill:#377eb8;stroke:#377eb8;" x="122.472585" xlink:href="#md0bc42a319" y="103.292603"/>
     <use style="fill:#377eb8;stroke:#377eb8;" x="119.998084" xlink:href="#md0bc42a319" y="103.341597"/>
     <use style="fill:#377eb8;stroke:#377eb8;" x="117.523583" xlink:href="#md0bc42a319" y="103.366228"/>
     <use style="fill:#377eb8;stroke:#377eb8;" x="115.049082" xlink:href="#md0bc42a319" y="103.089084"/>
     <use style="fill:#377eb8;stroke:#377eb8;" x="112.574581" xlink:href="#md0bc42a319" y="103.380704"/>
     <use style="fill:#377eb8;stroke:#377eb8;" x="110.10008" xlink:href="#md0bc42a319" y="103.44233"/>
     <use style="fill:#377eb8;stroke:#377eb8;" x="107.625579" xlink:href="#md0bc42a319" y="103.515029"/>
     <use style="fill:#377eb8;stroke:#377eb8;" x="105.151077" xlink:href="#md0bc42a319" y="103.563736"/>
     <use style="fill:#377eb8;stroke:#377eb8;" x="102.676576" xlink:href="#md0bc42a319" y="103.591931"/>
     <use style="fill:#377eb8;stroke:#377eb8;" x="100.202075" xlink:href="#md0bc42a319" y="103.617376"/>
     <use style="fill:#377eb8;stroke:#377eb8;" x="97.727574" xlink:href="#md0bc42a319" y="103.639372"/>
     <use style="fill:#377eb8;stroke:#377eb8;" x="95.253073" xlink:href="#md0bc42a319" y="103.658012"/>
     <use style="fill:#377eb8;stroke:#377eb8;" x="92.778572" xlink:href="#md0bc42a319" y="103.672481"/>
     <use style="fill:#377eb8;stroke:#377eb8;" x="90.304071" xlink:href="#md0bc42a319" y="103.686804"/>
     <use style="fill:#377eb8;stroke:#377eb8;" x="87.82957" xlink:href="#md0bc42a319" y="103.700205"/>
     <use style="fill:#377eb8;stroke:#377eb8;" x="85.355069" xlink:href="#md0bc42a319" y="103.710454"/>
     <use style="fill:#377eb8;stroke:#377eb8;" x="82.880567" xlink:href="#md0bc42a319" y="103.719429"/>
     <use style="fill:#377eb8;stroke:#377eb8;" x="80.406066" xlink:href="#md0bc42a319" y="103.72759"/>
     <use style="fill:#377eb8;stroke:#377eb8;" x="77.931565" xlink:href="#md0bc42a319" y="103.734046"/>
     <use style="fill:#377eb8;stroke:#377eb8;" x="75.457064" xlink:href="#md0bc42a319" y="103.740552"/>
     <use style="fill:#377eb8;stroke:#377eb8;" x="72.982563" xlink:href="#md0bc42a319" y="103.7459"/>
     <use style="fill:#377eb8;stroke:#377eb8;" x="70.508062" xlink:href="#md0bc42a319" y="103.750248"/>
     <use style="fill:#377eb8;stroke:#377eb8;" x="68.033561" xlink:href="#md0bc42a319" y="103.754331"/>
     <use style="fill:#377eb8;stroke:#377eb8;" x="65.55906" xlink:href="#md0bc42a319" y="103.757813"/>
     <use style="fill:#377eb8;stroke:#377eb8;" x="63.084559" xlink:href="#md0bc42a319" y="103.76103"/>
     <use style="fill:#377eb8;stroke:#377eb8;" x="60.610058" xlink:href="#md0bc42a319" y="103.763476"/>
     <use style="fill:#377eb8;stroke:#377eb8;" x="58.135556" xlink:href="#md0bc42a319" y="103.765806"/>
     <use style="fill:#377eb8;stroke:#377eb8;" x="55.661055" xlink:href="#md0bc42a319" y="103.767841"/>
     <use style="fill:#377eb8;stroke:#377eb8;" x="53.186554" xlink:href="#md0bc42a319" y="103.769653"/>
     <use style="fill:#377eb8;stroke:#377eb8;" x="50.712053" xlink:href="#md0bc42a319" y="103.771261"/>
     <use style="fill:#377eb8;stroke:#377eb8;" x="48.237552" xlink:href="#md0bc42a319" y="103.77267"/>
     <use style="fill:#377eb8;stroke:#377eb8;" x="45.763051" xlink:href="#md0bc42a319" y="103.773318"/>
     <use style="fill:#377eb8;stroke:#377eb8;" x="43.28855" xlink:href="#md0bc42a319" y="103.774092"/>
     <use style="fill:#377eb8;stroke:#377eb8;" x="40.814049" xlink:href="#md0bc42a319" y="103.774895"/>
     <use style="fill:#377eb8;stroke:#377eb8;" x="38.339548" xlink:href="#md0bc42a319" y="103.775443"/>
     <use style="fill:#377eb8;stroke:#377eb8;" x="35.865046" xlink:href="#md0bc42a319" y="103.77625"/>
     <use style="fill:#377eb8;stroke:#377eb8;" x="33.390545" xlink:href="#md0bc42a319" y="103.776796"/>
     <use style="fill:#377eb8;stroke:#377eb8;" x="30.916044" xlink:href="#md0bc42a319" y="103.77736"/>
     <use style="fill:#377eb8;stroke:#377eb8;" x="28.441543" xlink:href="#md0bc42a319" y="103.777288"/>
     <use style="fill:#377eb8;stroke:#377eb8;" x="25.967042" xlink:href="#md0bc42a319" y="103.777651"/>
     <use style="fill:#377eb8;stroke:#377eb8;" x="23.492541" xlink:href="#md0bc42a319" y="103.777889"/>
     <use style="fill:#377eb8;stroke:#377eb8;" x="21.01804" xlink:href="#md0bc42a319" y="103.778182"/>
    </g>
   </g>
   <g id="line2d_59">
    <path clip-path="url(#p7919dbc3f6)" d="M 122.472585 103.727773 
L 119.998084 103.732751 
L 117.523583 103.735894 
L 115.049082 103.732554 
L 112.574581 103.741068 
L 110.10008 103.744804 
L 107.625579 103.749113 
L 105.151077 103.752316 
L 102.676576 103.754679 
L 100.202075 103.756782 
L 97.727574 103.758741 
L 95.253073 103.760417 
L 92.778572 103.761927 
L 90.304071 103.76334 
L 87.82957 103.76472 
L 85.355069 103.765758 
L 82.880567 103.766679 
L 80.406066 103.767497 
L 77.931565 103.768284 
L 75.457064 103.769041 
L 72.982563 103.769732 
L 70.508062 103.770243 
L 68.033561 103.770714 
L 65.55906 103.771102 
L 63.084559 103.771469 
L 60.610058 103.771902 
L 58.135556 103.772214 
L 55.661055 103.772485 
L 53.186554 103.772684 
L 50.712053 103.772883 
L 48.237552 103.773194 
L 45.763051 103.77363 
L 43.28855 103.773923 
L 40.814049 103.774108 
L 38.339548 103.774195 
L 35.865046 103.774325 
L 33.390545 103.774436 
L 30.916044 103.774549 
L 28.441543 103.774878 
L 25.967042 103.774977 
L 23.492541 103.775098 
L 21.01804 103.775138 
" style="fill:none;stroke:#4daf4a;stroke-linecap:square;stroke-width:1.5;"/>
    <defs>
     <path d="M 0 0.75 
C 0.198902 0.75 0.389685 0.670975 0.53033 0.53033 
C 0.670975 0.389685 0.75 0.198902 0.75 0 
C 0.75 -0.198902 0.670975 -0.389685 0.53033 -0.53033 
C 0.389685 -0.670975 0.198902 -0.75 0 -0.75 
C -0.198902 -0.75 -0.389685 -0.670975 -0.53033 -0.53033 
C -0.670975 -0.389685 -0.75 -0.198902 -0.75 0 
C -0.75 0.198902 -0.670975 0.389685 -0.53033 0.53033 
C -0.389685 0.670975 -0.198902 0.75 0 0.75 
z
" id="m976efd7332" style="stroke:#4daf4a;"/>
    </defs>
    <g clip-path="url(#p7919dbc3f6)">
     <use style="fill:#4daf4a;stroke:#4daf4a;" x="122.472585" xlink:href="#m976efd7332" y="103.727773"/>
     <use style="fill:#4daf4a;stroke:#4daf4a;" x="119.998084" xlink:href="#m976efd7332" y="103.732751"/>
     <use style="fill:#4daf4a;stroke:#4daf4a;" x="117.523583" xlink:href="#m976efd7332" y="103.735894"/>
     <use style="fill:#4daf4a;stroke:#4daf4a;" x="115.049082" xlink:href="#m976efd7332" y="103.732554"/>
     <use style="fill:#4daf4a;stroke:#4daf4a;" x="112.574581" xlink:href="#m976efd7332" y="103.741068"/>
     <use style="fill:#4daf4a;stroke:#4daf4a;" x="110.10008" xlink:href="#m976efd7332" y="103.744804"/>
     <use style="fill:#4daf4a;stroke:#4daf4a;" x="107.625579" xlink:href="#m976efd7332" y="103.749113"/>
     <use style="fill:#4daf4a;stroke:#4daf4a;" x="105.151077" xlink:href="#m976efd7332" y="103.752316"/>
     <use style="fill:#4daf4a;stroke:#4daf4a;" x="102.676576" xlink:href="#m976efd7332" y="103.754679"/>
     <use style="fill:#4daf4a;stroke:#4daf4a;" x="100.202075" xlink:href="#m976efd7332" y="103.756782"/>
     <use style="fill:#4daf4a;stroke:#4daf4a;" x="97.727574" xlink:href="#m976efd7332" y="103.758741"/>
     <use style="fill:#4daf4a;stroke:#4daf4a;" x="95.253073" xlink:href="#m976efd7332" y="103.760417"/>
     <use style="fill:#4daf4a;stroke:#4daf4a;" x="92.778572" xlink:href="#m976efd7332" y="103.761927"/>
     <use style="fill:#4daf4a;stroke:#4daf4a;" x="90.304071" xlink:href="#m976efd7332" y="103.76334"/>
     <use style="fill:#4daf4a;stroke:#4daf4a;" x="87.82957" xlink:href="#m976efd7332" y="103.76472"/>
     <use style="fill:#4daf4a;stroke:#4daf4a;" x="85.355069" xlink:href="#m976efd7332" y="103.765758"/>
     <use style="fill:#4daf4a;stroke:#4daf4a;" x="82.880567" xlink:href="#m976efd7332" y="103.766679"/>
     <use style="fill:#4daf4a;stroke:#4daf4a;" x="80.406066" xlink:href="#m976efd7332" y="103.767497"/>
     <use style="fill:#4daf4a;stroke:#4daf4a;" x="77.931565" xlink:href="#m976efd7332" y="103.768284"/>
     <use style="fill:#4daf4a;stroke:#4daf4a;" x="75.457064" xlink:href="#m976efd7332" y="103.769041"/>
     <use style="fill:#4daf4a;stroke:#4daf4a;" x="72.982563" xlink:href="#m976efd7332" y="103.769732"/>
     <use style="fill:#4daf4a;stroke:#4daf4a;" x="70.508062" xlink:href="#m976efd7332" y="103.770243"/>
     <use style="fill:#4daf4a;stroke:#4daf4a;" x="68.033561" xlink:href="#m976efd7332" y="103.770714"/>
     <use style="fill:#4daf4a;stroke:#4daf4a;" x="65.55906" xlink:href="#m976efd7332" y="103.771102"/>
     <use style="fill:#4daf4a;stroke:#4daf4a;" x="63.084559" xlink:href="#m976efd7332" y="103.771469"/>
     <use style="fill:#4daf4a;stroke:#4daf4a;" x="60.610058" xlink:href="#m976efd7332" y="103.771902"/>
     <use style="fill:#4daf4a;stroke:#4daf4a;" x="58.135556" xlink:href="#m976efd7332" y="103.772214"/>
     <use style="fill:#4daf4a;stroke:#4daf4a;" x="55.661055" xlink:href="#m976efd7332" y="103.772485"/>
     <use style="fill:#4daf4a;stroke:#4daf4a;" x="53.186554" xlink:href="#m976efd7332" y="103.772684"/>
     <use style="fill:#4daf4a;stroke:#4daf4a;" x="50.712053" xlink:href="#m976efd7332" y="103.772883"/>
     <use style="fill:#4daf4a;stroke:#4daf4a;" x="48.237552" xlink:href="#m976efd7332" y="103.773194"/>
     <use style="fill:#4daf4a;stroke:#4daf4a;" x="45.763051" xlink:href="#m976efd7332" y="103.77363"/>
     <use style="fill:#4daf4a;stroke:#4daf4a;" x="43.28855" xlink:href="#m976efd7332" y="103.773923"/>
     <use style="fill:#4daf4a;stroke:#4daf4a;" x="40.814049" xlink:href="#m976efd7332" y="103.774108"/>
     <use style="fill:#4daf4a;stroke:#4daf4a;" x="38.339548" xlink:href="#m976efd7332" y="103.774195"/>
     <use style="fill:#4daf4a;stroke:#4daf4a;" x="35.865046" xlink:href="#m976efd7332" y="103.774325"/>
     <use style="fill:#4daf4a;stroke:#4daf4a;" x="33.390545" xlink:href="#m976efd7332" y="103.774436"/>
     <use style="fill:#4daf4a;stroke:#4daf4a;" x="30.916044" xlink:href="#m976efd7332" y="103.774549"/>
     <use style="fill:#4daf4a;stroke:#4daf4a;" x="28.441543" xlink:href="#m976efd7332" y="103.774878"/>
     <use style="fill:#4daf4a;stroke:#4daf4a;" x="25.967042" xlink:href="#m976efd7332" y="103.774977"/>
     <use style="fill:#4daf4a;stroke:#4daf4a;" x="23.492541" xlink:href="#m976efd7332" y="103.775098"/>
     <use style="fill:#4daf4a;stroke:#4daf4a;" x="21.01804" xlink:href="#m976efd7332" y="103.775138"/>
    </g>
   </g>
   <g id="patch_3">
    <path d="M 15.945313 108.72 
L 15.945313 -0 
" style="fill:none;stroke:#000000;stroke-linecap:square;stroke-linejoin:miter;stroke-width:0.5;"/>
   </g>
   <g id="patch_4">
    <path d="M 127.545312 108.72 
L 127.545312 -0 
" style="fill:none;stroke:#000000;stroke-linecap:square;stroke-linejoin:miter;stroke-width:0.5;"/>
   </g>
   <g id="patch_5">
    <path d="M 15.945312 108.72 
L 127.545313 108.72 
" style="fill:none;stroke:#000000;stroke-linecap:square;stroke-linejoin:miter;stroke-width:0.5;"/>
   </g>
   <g id="patch_6">
    <path d="M 15.945312 0 
L 127.545313 0 
" style="fill:none;stroke:#000000;stroke-linecap:square;stroke-linejoin:miter;stroke-width:0.5;"/>
   </g>
  </g>
 </g>
 <defs>
  <clipPath id="p7919dbc3f6">
   <rect height="108.72" width="111.6" x="15.945313" y="0"/>
  </clipPath>
 </defs>
</svg>
