<?xml version="1.0" encoding="utf-8" standalone="no"?>
<!DOCTYPE svg PUBLIC "-//W3C//DTD SVG 1.1//EN"
  "http://www.w3.org/Graphics/SVG/1.1/DTD/svg11.dtd">
<svg height="128.249687pt" version="1.1" viewBox="0 0 138.946875 128.249687" width="138.946875pt" xmlns="http://www.w3.org/2000/svg" xmlns:xlink="http://www.w3.org/1999/xlink">
 <metadata>
  <rdf:RDF xmlns:cc="http://creativecommons.org/ns#" xmlns:dc="http://purl.org/dc/elements/1.1/" xmlns:rdf="http://www.w3.org/1999/02/22-rdf-syntax-ns#">
   <cc:Work>
    <dc:type rdf:resource="http://purl.org/dc/dcmitype/StillImage"/>
    <dc:date>2021-09-22T18:07:02.040586</dc:date>
    <dc:format>image/svg+xml</dc:format>
    <dc:creator>
     <cc:Agent>
      <dc:title>Matplotlib v3.4.3, https://matplotlib.org/</dc:title>
     </cc:Agent>
    </dc:creator>
   </cc:Work>
  </rdf:RDF>
 </metadata>
 <defs>
  <style type="text/css">*{stroke-linecap:butt;stroke-linejoin:round;}</style>
 </defs>
 <g id="figure_1">
  <g id="patch_1">
   <path d="M 0 128.249687 
L 138.946875 128.249687 
L 138.946875 0 
L 0 0 
z
" style="fill:none;"/>
  </g>
  <g id="axes_1">
   <g id="patch_2">
    <path d="M 27.346875 108.72 
L 138.946875 108.72 
L 138.946875 0 
L 27.346875 0 
z
" style="fill:none;"/>
   </g>
   <g id="matplotlib.axis_1">
    <g id="xtick_1">
     <g id="line2d_1">
      <defs>
       <path d="M 0 0 
L 0 -3.5 
" id="m41dea40f7a" style="stroke:#000000;stroke-width:0.5;"/>
      </defs>
      <g>
       <use style="stroke:#000000;stroke-width:0.5;" x="43.554857" xlink:href="#m41dea40f7a" y="108.72"/>
      </g>
     </g>
     <g id="line2d_2">
      <defs>
       <path d="M 0 0 
L 0 3.5 
" id="ma809d7a530" style="stroke:#000000;stroke-width:0.5;"/>
      </defs>
      <g>
       <use style="stroke:#000000;stroke-width:0.5;" x="43.554857" xlink:href="#ma809d7a530" y="0"/>
      </g>
     </g>
     <g id="text_1">
      <text style="font-family:Arial;font-size:10px;font-stretch:normal;font-style:normal;font-weight:normal;text-anchor:middle;" transform="rotate(-0, 43.554857, 116.877812)" x="43.554857" y="116.877812">350</text>
     </g>
    </g>
    <g id="xtick_2">
     <g id="line2d_3">
      <g>
       <use style="stroke:#000000;stroke-width:0.5;" x="105.417385" xlink:href="#m41dea40f7a" y="108.72"/>
      </g>
     </g>
     <g id="line2d_4">
      <g>
       <use style="stroke:#000000;stroke-width:0.5;" x="105.417385" xlink:href="#ma809d7a530" y="0"/>
      </g>
     </g>
     <g id="text_2">
      <text style="font-family:Arial;font-size:10px;font-stretch:normal;font-style:normal;font-weight:normal;text-anchor:middle;" transform="rotate(-0, 105.417385, 116.877812)" x="105.417385" y="116.877812">400</text>
     </g>
    </g>
    <g id="xtick_3">
     <g id="line2d_5">
      <defs>
       <path d="M 0 0 
L 0 -2 
" id="m92c7c31cec" style="stroke:#000000;stroke-width:0.5;"/>
      </defs>
      <g>
       <use style="stroke:#000000;stroke-width:0.5;" x="31.182352" xlink:href="#m92c7c31cec" y="108.72"/>
      </g>
     </g>
     <g id="line2d_6">
      <defs>
       <path d="M 0 0 
L 0 2 
" id="m761795fc42" style="stroke:#000000;stroke-width:0.5;"/>
      </defs>
      <g>
       <use style="stroke:#000000;stroke-width:0.5;" x="31.182352" xlink:href="#m761795fc42" y="0"/>
      </g>
     </g>
    </g>
    <g id="xtick_4">
     <g id="line2d_7">
      <g>
       <use style="stroke:#000000;stroke-width:0.5;" x="55.927363" xlink:href="#m92c7c31cec" y="108.72"/>
      </g>
     </g>
     <g id="line2d_8">
      <g>
       <use style="stroke:#000000;stroke-width:0.5;" x="55.927363" xlink:href="#m761795fc42" y="0"/>
      </g>
     </g>
    </g>
    <g id="xtick_5">
     <g id="line2d_9">
      <g>
       <use style="stroke:#000000;stroke-width:0.5;" x="68.299868" xlink:href="#m92c7c31cec" y="108.72"/>
      </g>
     </g>
     <g id="line2d_10">
      <g>
       <use style="stroke:#000000;stroke-width:0.5;" x="68.299868" xlink:href="#m761795fc42" y="0"/>
      </g>
     </g>
    </g>
    <g id="xtick_6">
     <g id="line2d_11">
      <g>
       <use style="stroke:#000000;stroke-width:0.5;" x="80.672374" xlink:href="#m92c7c31cec" y="108.72"/>
      </g>
     </g>
     <g id="line2d_12">
      <g>
       <use style="stroke:#000000;stroke-width:0.5;" x="80.672374" xlink:href="#m761795fc42" y="0"/>
      </g>
     </g>
    </g>
    <g id="xtick_7">
     <g id="line2d_13">
      <g>
       <use style="stroke:#000000;stroke-width:0.5;" x="93.044879" xlink:href="#m92c7c31cec" y="108.72"/>
      </g>
     </g>
     <g id="line2d_14">
      <g>
       <use style="stroke:#000000;stroke-width:0.5;" x="93.044879" xlink:href="#m761795fc42" y="0"/>
      </g>
     </g>
    </g>
    <g id="xtick_8">
     <g id="line2d_15">
      <g>
       <use style="stroke:#000000;stroke-width:0.5;" x="117.789891" xlink:href="#m92c7c31cec" y="108.72"/>
      </g>
     </g>
     <g id="line2d_16">
      <g>
       <use style="stroke:#000000;stroke-width:0.5;" x="117.789891" xlink:href="#m761795fc42" y="0"/>
      </g>
     </g>
    </g>
    <g id="xtick_9">
     <g id="line2d_17">
      <g>
       <use style="stroke:#000000;stroke-width:0.5;" x="130.162396" xlink:href="#m92c7c31cec" y="108.72"/>
      </g>
     </g>
     <g id="line2d_18">
      <g>
       <use style="stroke:#000000;stroke-width:0.5;" x="130.162396" xlink:href="#m761795fc42" y="0"/>
      </g>
     </g>
    </g>
    <g id="text_3">
     <text style="font-family:Arial;font-size:10px;font-stretch:normal;font-style:normal;font-weight:normal;text-anchor:middle;" transform="rotate(-0, 83.146875, 126.145)" x="83.146875" y="126.145">T (K)</text>
    </g>
   </g>
   <g id="matplotlib.axis_2">
    <g id="ytick_1">
     <g id="line2d_19">
      <defs>
       <path d="M 0 0 
L 3.5 0 
" id="m214199259f" style="stroke:#000000;stroke-width:0.5;"/>
      </defs>
      <g>
       <use style="stroke:#000000;stroke-width:0.5;" x="27.346875" xlink:href="#m214199259f" y="106.830749"/>
      </g>
     </g>
     <g id="line2d_20">
      <defs>
       <path d="M 0 0 
L -3.5 0 
" id="me6cc3456d1" style="stroke:#000000;stroke-width:0.5;"/>
      </defs>
      <g>
       <use style="stroke:#000000;stroke-width:0.5;" x="138.946875" xlink:href="#me6cc3456d1" y="106.830749"/>
      </g>
     </g>
     <g id="text_4">
      <text style="font-family:Arial;font-size:10px;font-stretch:normal;font-style:normal;font-weight:normal;text-anchor:end;" transform="rotate(-0, 26.346875, 110.409655)" x="26.346875" y="110.409655">−10</text>
     </g>
    </g>
    <g id="ytick_2">
     <g id="line2d_21">
      <g>
       <use style="stroke:#000000;stroke-width:0.5;" x="27.346875" xlink:href="#m214199259f" y="71.17408"/>
      </g>
     </g>
     <g id="line2d_22">
      <g>
       <use style="stroke:#000000;stroke-width:0.5;" x="138.946875" xlink:href="#me6cc3456d1" y="71.17408"/>
      </g>
     </g>
     <g id="text_5">
      <text style="font-family:Arial;font-size:10px;font-stretch:normal;font-style:normal;font-weight:normal;text-anchor:end;" transform="rotate(-0, 26.346875, 74.752987)" x="26.346875" y="74.752987">0</text>
     </g>
    </g>
    <g id="ytick_3">
     <g id="line2d_23">
      <g>
       <use style="stroke:#000000;stroke-width:0.5;" x="27.346875" xlink:href="#m214199259f" y="35.517412"/>
      </g>
     </g>
     <g id="line2d_24">
      <g>
       <use style="stroke:#000000;stroke-width:0.5;" x="138.946875" xlink:href="#me6cc3456d1" y="35.517412"/>
      </g>
     </g>
     <g id="text_6">
      <text style="font-family:Arial;font-size:10px;font-stretch:normal;font-style:normal;font-weight:normal;text-anchor:end;" transform="rotate(-0, 26.346875, 39.096318)" x="26.346875" y="39.096318">10</text>
     </g>
    </g>
    <g id="ytick_4">
     <g id="line2d_25">
      <defs>
       <path d="M 0 0 
L 2 0 
" id="m8aaaf43c2d" style="stroke:#000000;stroke-width:0.5;"/>
      </defs>
      <g>
       <use style="stroke:#000000;stroke-width:0.5;" x="27.346875" xlink:href="#m8aaaf43c2d" y="99.699415"/>
      </g>
     </g>
     <g id="line2d_26">
      <defs>
       <path d="M 0 0 
L -2 0 
" id="mada0ecd0a4" style="stroke:#000000;stroke-width:0.5;"/>
      </defs>
      <g>
       <use style="stroke:#000000;stroke-width:0.5;" x="138.946875" xlink:href="#mada0ecd0a4" y="99.699415"/>
      </g>
     </g>
    </g>
    <g id="ytick_5">
     <g id="line2d_27">
      <g>
       <use style="stroke:#000000;stroke-width:0.5;" x="27.346875" xlink:href="#m8aaaf43c2d" y="92.568082"/>
      </g>
     </g>
     <g id="line2d_28">
      <g>
       <use style="stroke:#000000;stroke-width:0.5;" x="138.946875" xlink:href="#mada0ecd0a4" y="92.568082"/>
      </g>
     </g>
    </g>
    <g id="ytick_6">
     <g id="line2d_29">
      <g>
       <use style="stroke:#000000;stroke-width:0.5;" x="27.346875" xlink:href="#m8aaaf43c2d" y="85.436748"/>
      </g>
     </g>
     <g id="line2d_30">
      <g>
       <use style="stroke:#000000;stroke-width:0.5;" x="138.946875" xlink:href="#mada0ecd0a4" y="85.436748"/>
      </g>
     </g>
    </g>
    <g id="ytick_7">
     <g id="line2d_31">
      <g>
       <use style="stroke:#000000;stroke-width:0.5;" x="27.346875" xlink:href="#m8aaaf43c2d" y="78.305414"/>
      </g>
     </g>
     <g id="line2d_32">
      <g>
       <use style="stroke:#000000;stroke-width:0.5;" x="138.946875" xlink:href="#mada0ecd0a4" y="78.305414"/>
      </g>
     </g>
    </g>
    <g id="ytick_8">
     <g id="line2d_33">
      <g>
       <use style="stroke:#000000;stroke-width:0.5;" x="27.346875" xlink:href="#m8aaaf43c2d" y="64.042747"/>
      </g>
     </g>
     <g id="line2d_34">
      <g>
       <use style="stroke:#000000;stroke-width:0.5;" x="138.946875" xlink:href="#mada0ecd0a4" y="64.042747"/>
      </g>
     </g>
    </g>
    <g id="ytick_9">
     <g id="line2d_35">
      <g>
       <use style="stroke:#000000;stroke-width:0.5;" x="27.346875" xlink:href="#m8aaaf43c2d" y="56.911413"/>
      </g>
     </g>
     <g id="line2d_36">
      <g>
       <use style="stroke:#000000;stroke-width:0.5;" x="138.946875" xlink:href="#mada0ecd0a4" y="56.911413"/>
      </g>
     </g>
    </g>
    <g id="ytick_10">
     <g id="line2d_37">
      <g>
       <use style="stroke:#000000;stroke-width:0.5;" x="27.346875" xlink:href="#m8aaaf43c2d" y="49.780079"/>
      </g>
     </g>
     <g id="line2d_38">
      <g>
       <use style="stroke:#000000;stroke-width:0.5;" x="138.946875" xlink:href="#mada0ecd0a4" y="49.780079"/>
      </g>
     </g>
    </g>
    <g id="ytick_11">
     <g id="line2d_39">
      <g>
       <use style="stroke:#000000;stroke-width:0.5;" x="27.346875" xlink:href="#m8aaaf43c2d" y="42.648745"/>
      </g>
     </g>
     <g id="line2d_40">
      <g>
       <use style="stroke:#000000;stroke-width:0.5;" x="138.946875" xlink:href="#mada0ecd0a4" y="42.648745"/>
      </g>
     </g>
    </g>
    <g id="ytick_12">
     <g id="line2d_41">
      <g>
       <use style="stroke:#000000;stroke-width:0.5;" x="27.346875" xlink:href="#m8aaaf43c2d" y="28.386078"/>
      </g>
     </g>
     <g id="line2d_42">
      <g>
       <use style="stroke:#000000;stroke-width:0.5;" x="138.946875" xlink:href="#mada0ecd0a4" y="28.386078"/>
      </g>
     </g>
    </g>
    <g id="ytick_13">
     <g id="line2d_43">
      <g>
       <use style="stroke:#000000;stroke-width:0.5;" x="27.346875" xlink:href="#m8aaaf43c2d" y="21.254744"/>
      </g>
     </g>
     <g id="line2d_44">
      <g>
       <use style="stroke:#000000;stroke-width:0.5;" x="138.946875" xlink:href="#mada0ecd0a4" y="21.254744"/>
      </g>
     </g>
    </g>
    <g id="ytick_14">
     <g id="line2d_45">
      <g>
       <use style="stroke:#000000;stroke-width:0.5;" x="27.346875" xlink:href="#m8aaaf43c2d" y="14.12341"/>
      </g>
     </g>
     <g id="line2d_46">
      <g>
       <use style="stroke:#000000;stroke-width:0.5;" x="138.946875" xlink:href="#mada0ecd0a4" y="14.12341"/>
      </g>
     </g>
    </g>
    <g id="ytick_15">
     <g id="line2d_47">
      <g>
       <use style="stroke:#000000;stroke-width:0.5;" x="27.346875" xlink:href="#m8aaaf43c2d" y="6.992077"/>
      </g>
     </g>
     <g id="line2d_48">
      <g>
       <use style="stroke:#000000;stroke-width:0.5;" x="138.946875" xlink:href="#mada0ecd0a4" y="6.992077"/>
      </g>
     </g>
    </g>
    <g id="text_7">
     <text style="font-family:Arial;font-size:10px;font-stretch:normal;font-style:normal;font-weight:normal;text-anchor:middle;" transform="rotate(-90, 7.279688, 54.36)" x="7.279688" y="54.36">C (pF)</text>
    </g>
   </g>
   <g id="line2d_49">
    <path clip-path="url(#pe0765ad0ab)" d="M 133.874148 103.778182 
L 131.399647 94.239773 
L 128.925146 87.885505 
L 126.450644 88.262931 
L 123.976143 77.013965 
L 121.501642 70.321918 
L 119.027141 62.279631 
L 116.55264 55.655692 
L 114.078139 50.706012 
L 111.603638 46.47492 
L 109.129137 42.297848 
L 106.654636 39.117772 
L 104.180134 36.054544 
L 101.705633 33.493896 
L 99.231132 31.026811 
L 96.756631 29.257883 
L 94.28213 27.769218 
L 91.807629 4.941818 
L 89.333128 5.823608 
L 86.858627 7.90667 
L 84.384126 9.87991 
L 81.909624 11.473763 
L 79.435123 12.872218 
L 76.960622 14.099877 
L 74.486121 15.101473 
L 72.01162 15.940118 
L 69.537119 16.647189 
L 67.062618 17.237307 
L 64.588117 17.73864 
L 62.113616 18.104834 
L 59.639114 18.459261 
L 57.164613 18.640397 
L 54.690112 18.848989 
L 52.215611 19.058293 
L 49.74111 19.302185 
L 47.266609 19.386691 
L 44.792108 19.52183 
L 42.317607 19.63914 
L 39.843106 19.776062 
L 37.368604 19.876614 
L 34.894103 19.963616 
L 32.419602 20.080213 
" style="fill:none;stroke:#e41a1c;stroke-linecap:square;stroke-width:1.5;"/>
    <defs>
     <path d="M 0 0.75 
C 0.198902 0.75 0.389685 0.670975 0.53033 0.53033 
C 0.670975 0.389685 0.75 0.198902 0.75 0 
C 0.75 -0.198902 0.670975 -0.389685 0.53033 -0.53033 
C 0.389685 -0.670975 0.198902 -0.75 0 -0.75 
C -0.198902 -0.75 -0.389685 -0.670975 -0.53033 -0.53033 
C -0.670975 -0.389685 -0.75 -0.198902 -0.75 0 
C -0.75 0.198902 -0.670975 0.389685 -0.53033 0.53033 
C -0.389685 0.670975 -0.198902 0.75 0 0.75 
z
" id="me7181cc707" style="stroke:#e41a1c;"/>
    </defs>
    <g clip-path="url(#pe0765ad0ab)">
     <use style="fill:#e41a1c;stroke:#e41a1c;" x="133.874148" xlink:href="#me7181cc707" y="103.778182"/>
     <use style="fill:#e41a1c;stroke:#e41a1c;" x="131.399647" xlink:href="#me7181cc707" y="94.239773"/>
     <use style="fill:#e41a1c;stroke:#e41a1c;" x="128.925146" xlink:href="#me7181cc707" y="87.885505"/>
     <use style="fill:#e41a1c;stroke:#e41a1c;" x="126.450644" xlink:href="#me7181cc707" y="88.262931"/>
     <use style="fill:#e41a1c;stroke:#e41a1c;" x="123.976143" xlink:href="#me7181cc707" y="77.013965"/>
     <use style="fill:#e41a1c;stroke:#e41a1c;" x="121.501642" xlink:href="#me7181cc707" y="70.321918"/>
     <use style="fill:#e41a1c;stroke:#e41a1c;" x="119.027141" xlink:href="#me7181cc707" y="62.279631"/>
     <use style="fill:#e41a1c;stroke:#e41a1c;" x="116.55264" xlink:href="#me7181cc707" y="55.655692"/>
     <use style="fill:#e41a1c;stroke:#e41a1c;" x="114.078139" xlink:href="#me7181cc707" y="50.706012"/>
     <use style="fill:#e41a1c;stroke:#e41a1c;" x="111.603638" xlink:href="#me7181cc707" y="46.47492"/>
     <use style="fill:#e41a1c;stroke:#e41a1c;" x="109.129137" xlink:href="#me7181cc707" y="42.297848"/>
     <use style="fill:#e41a1c;stroke:#e41a1c;" x="106.654636" xlink:href="#me7181cc707" y="39.117772"/>
     <use style="fill:#e41a1c;stroke:#e41a1c;" x="104.180134" xlink:href="#me7181cc707" y="36.054544"/>
     <use style="fill:#e41a1c;stroke:#e41a1c;" x="101.705633" xlink:href="#me7181cc707" y="33.493896"/>
     <use style="fill:#e41a1c;stroke:#e41a1c;" x="99.231132" xlink:href="#me7181cc707" y="31.026811"/>
     <use style="fill:#e41a1c;stroke:#e41a1c;" x="96.756631" xlink:href="#me7181cc707" y="29.257883"/>
     <use style="fill:#e41a1c;stroke:#e41a1c;" x="94.28213" xlink:href="#me7181cc707" y="27.769218"/>
     <use style="fill:#e41a1c;stroke:#e41a1c;" x="91.807629" xlink:href="#me7181cc707" y="4.941818"/>
     <use style="fill:#e41a1c;stroke:#e41a1c;" x="89.333128" xlink:href="#me7181cc707" y="5.823608"/>
     <use style="fill:#e41a1c;stroke:#e41a1c;" x="86.858627" xlink:href="#me7181cc707" y="7.90667"/>
     <use style="fill:#e41a1c;stroke:#e41a1c;" x="84.384126" xlink:href="#me7181cc707" y="9.87991"/>
     <use style="fill:#e41a1c;stroke:#e41a1c;" x="81.909624" xlink:href="#me7181cc707" y="11.473763"/>
     <use style="fill:#e41a1c;stroke:#e41a1c;" x="79.435123" xlink:href="#me7181cc707" y="12.872218"/>
     <use style="fill:#e41a1c;stroke:#e41a1c;" x="76.960622" xlink:href="#me7181cc707" y="14.099877"/>
     <use style="fill:#e41a1c;stroke:#e41a1c;" x="74.486121" xlink:href="#me7181cc707" y="15.101473"/>
     <use style="fill:#e41a1c;stroke:#e41a1c;" x="72.01162" xlink:href="#me7181cc707" y="15.940118"/>
     <use style="fill:#e41a1c;stroke:#e41a1c;" x="69.537119" xlink:href="#me7181cc707" y="16.647189"/>
     <use style="fill:#e41a1c;stroke:#e41a1c;" x="67.062618" xlink:href="#me7181cc707" y="17.237307"/>
     <use style="fill:#e41a1c;stroke:#e41a1c;" x="64.588117" xlink:href="#me7181cc707" y="17.73864"/>
     <use style="fill:#e41a1c;stroke:#e41a1c;" x="62.113616" xlink:href="#me7181cc707" y="18.104834"/>
     <use style="fill:#e41a1c;stroke:#e41a1c;" x="59.639114" xlink:href="#me7181cc707" y="18.459261"/>
     <use style="fill:#e41a1c;stroke:#e41a1c;" x="57.164613" xlink:href="#me7181cc707" y="18.640397"/>
     <use style="fill:#e41a1c;stroke:#e41a1c;" x="54.690112" xlink:href="#me7181cc707" y="18.848989"/>
     <use style="fill:#e41a1c;stroke:#e41a1c;" x="52.215611" xlink:href="#me7181cc707" y="19.058293"/>
     <use style="fill:#e41a1c;stroke:#e41a1c;" x="49.74111" xlink:href="#me7181cc707" y="19.302185"/>
     <use style="fill:#e41a1c;stroke:#e41a1c;" x="47.266609" xlink:href="#me7181cc707" y="19.386691"/>
     <use style="fill:#e41a1c;stroke:#e41a1c;" x="44.792108" xlink:href="#me7181cc707" y="19.52183"/>
     <use style="fill:#e41a1c;stroke:#e41a1c;" x="42.317607" xlink:href="#me7181cc707" y="19.63914"/>
     <use style="fill:#e41a1c;stroke:#e41a1c;" x="39.843106" xlink:href="#me7181cc707" y="19.776062"/>
     <use style="fill:#e41a1c;stroke:#e41a1c;" x="37.368604" xlink:href="#me7181cc707" y="19.876614"/>
     <use style="fill:#e41a1c;stroke:#e41a1c;" x="34.894103" xlink:href="#me7181cc707" y="19.963616"/>
     <use style="fill:#e41a1c;stroke:#e41a1c;" x="32.419602" xlink:href="#me7181cc707" y="20.080213"/>
    </g>
   </g>
   <g id="line2d_50">
    <path clip-path="url(#pe0765ad0ab)" d="M 133.874148 46.443578 
L 131.399647 46.163922 
L 128.925146 46.446216 
L 126.450644 55.49103 
L 123.976143 48.178346 
L 121.501642 46.371694 
L 119.027141 43.386339 
L 116.55264 40.889909 
L 114.078139 39.533101 
L 111.603638 38.122524 
L 109.129137 36.258036 
L 106.654636 34.996468 
L 104.180134 34.32113 
L 101.705633 33.281739 
L 99.231132 32.191001 
L 96.756631 31.245386 
L 94.28213 30.355396 
L 91.807629 29.477529 
L 89.333128 28.91344 
L 86.858627 28.259853 
L 84.384126 27.754955 
L 81.909624 27.304968 
L 79.435123 26.852128 
L 76.960622 26.470958 
L 74.486121 26.144343 
L 72.01162 26.06055 
L 69.537119 25.935038 
L 67.062618 25.853028 
L 64.588117 25.800256 
L 62.113616 25.793838 
L 59.639114 25.934325 
L 57.164613 26.21637 
L 54.690112 26.459905 
L 52.215611 26.693812 
L 49.74111 27.04717 
L 47.266609 27.27359 
L 44.792108 27.590221 
L 42.317607 27.924324 
L 39.843106 28.523356 
L 37.368604 28.930199 
L 34.894103 29.419052 
L 32.419602 29.837304 
" style="fill:none;stroke:#377eb8;stroke-linecap:square;stroke-width:1.5;"/>
    <defs>
     <path d="M 0 0.75 
C 0.198902 0.75 0.389685 0.670975 0.53033 0.53033 
C 0.670975 0.389685 0.75 0.198902 0.75 0 
C 0.75 -0.198902 0.670975 -0.389685 0.53033 -0.53033 
C 0.389685 -0.670975 0.198902 -0.75 0 -0.75 
C -0.198902 -0.75 -0.389685 -0.670975 -0.53033 -0.53033 
C -0.670975 -0.389685 -0.75 -0.198902 -0.75 0 
C -0.75 0.198902 -0.670975 0.389685 -0.53033 0.53033 
C -0.389685 0.670975 -0.198902 0.75 0 0.75 
z
" id="m2a188d32c4" style="stroke:#377eb8;"/>
    </defs>
    <g clip-path="url(#pe0765ad0ab)">
     <use style="fill:#377eb8;stroke:#377eb8;" x="133.874148" xlink:href="#m2a188d32c4" y="46.443578"/>
     <use style="fill:#377eb8;stroke:#377eb8;" x="131.399647" xlink:href="#m2a188d32c4" y="46.163922"/>
     <use style="fill:#377eb8;stroke:#377eb8;" x="128.925146" xlink:href="#m2a188d32c4" y="46.446216"/>
     <use style="fill:#377eb8;stroke:#377eb8;" x="126.450644" xlink:href="#m2a188d32c4" y="55.49103"/>
     <use style="fill:#377eb8;stroke:#377eb8;" x="123.976143" xlink:href="#m2a188d32c4" y="48.178346"/>
     <use style="fill:#377eb8;stroke:#377eb8;" x="121.501642" xlink:href="#m2a188d32c4" y="46.371694"/>
     <use style="fill:#377eb8;stroke:#377eb8;" x="119.027141" xlink:href="#m2a188d32c4" y="43.386339"/>
     <use style="fill:#377eb8;stroke:#377eb8;" x="116.55264" xlink:href="#m2a188d32c4" y="40.889909"/>
     <use style="fill:#377eb8;stroke:#377eb8;" x="114.078139" xlink:href="#m2a188d32c4" y="39.533101"/>
     <use style="fill:#377eb8;stroke:#377eb8;" x="111.603638" xlink:href="#m2a188d32c4" y="38.122524"/>
     <use style="fill:#377eb8;stroke:#377eb8;" x="109.129137" xlink:href="#m2a188d32c4" y="36.258036"/>
     <use style="fill:#377eb8;stroke:#377eb8;" x="106.654636" xlink:href="#m2a188d32c4" y="34.996468"/>
     <use style="fill:#377eb8;stroke:#377eb8;" x="104.180134" xlink:href="#m2a188d32c4" y="34.32113"/>
     <use style="fill:#377eb8;stroke:#377eb8;" x="101.705633" xlink:href="#m2a188d32c4" y="33.281739"/>
     <use style="fill:#377eb8;stroke:#377eb8;" x="99.231132" xlink:href="#m2a188d32c4" y="32.191001"/>
     <use style="fill:#377eb8;stroke:#377eb8;" x="96.756631" xlink:href="#m2a188d32c4" y="31.245386"/>
     <use style="fill:#377eb8;stroke:#377eb8;" x="94.28213" xlink:href="#m2a188d32c4" y="30.355396"/>
     <use style="fill:#377eb8;stroke:#377eb8;" x="91.807629" xlink:href="#m2a188d32c4" y="29.477529"/>
     <use style="fill:#377eb8;stroke:#377eb8;" x="89.333128" xlink:href="#m2a188d32c4" y="28.91344"/>
     <use style="fill:#377eb8;stroke:#377eb8;" x="86.858627" xlink:href="#m2a188d32c4" y="28.259853"/>
     <use style="fill:#377eb8;stroke:#377eb8;" x="84.384126" xlink:href="#m2a188d32c4" y="27.754955"/>
     <use style="fill:#377eb8;stroke:#377eb8;" x="81.909624" xlink:href="#m2a188d32c4" y="27.304968"/>
     <use style="fill:#377eb8;stroke:#377eb8;" x="79.435123" xlink:href="#m2a188d32c4" y="26.852128"/>
     <use style="fill:#377eb8;stroke:#377eb8;" x="76.960622" xlink:href="#m2a188d32c4" y="26.470958"/>
     <use style="fill:#377eb8;stroke:#377eb8;" x="74.486121" xlink:href="#m2a188d32c4" y="26.144343"/>
     <use style="fill:#377eb8;stroke:#377eb8;" x="72.01162" xlink:href="#m2a188d32c4" y="26.06055"/>
     <use style="fill:#377eb8;stroke:#377eb8;" x="69.537119" xlink:href="#m2a188d32c4" y="25.935038"/>
     <use style="fill:#377eb8;stroke:#377eb8;" x="67.062618" xlink:href="#m2a188d32c4" y="25.853028"/>
     <use style="fill:#377eb8;stroke:#377eb8;" x="64.588117" xlink:href="#m2a188d32c4" y="25.800256"/>
     <use style="fill:#377eb8;stroke:#377eb8;" x="62.113616" xlink:href="#m2a188d32c4" y="25.793838"/>
     <use style="fill:#377eb8;stroke:#377eb8;" x="59.639114" xlink:href="#m2a188d32c4" y="25.934325"/>
     <use style="fill:#377eb8;stroke:#377eb8;" x="57.164613" xlink:href="#m2a188d32c4" y="26.21637"/>
     <use style="fill:#377eb8;stroke:#377eb8;" x="54.690112" xlink:href="#m2a188d32c4" y="26.459905"/>
     <use style="fill:#377eb8;stroke:#377eb8;" x="52.215611" xlink:href="#m2a188d32c4" y="26.693812"/>
     <use style="fill:#377eb8;stroke:#377eb8;" x="49.74111" xlink:href="#m2a188d32c4" y="27.04717"/>
     <use style="fill:#377eb8;stroke:#377eb8;" x="47.266609" xlink:href="#m2a188d32c4" y="27.27359"/>
     <use style="fill:#377eb8;stroke:#377eb8;" x="44.792108" xlink:href="#m2a188d32c4" y="27.590221"/>
     <use style="fill:#377eb8;stroke:#377eb8;" x="42.317607" xlink:href="#m2a188d32c4" y="27.924324"/>
     <use style="fill:#377eb8;stroke:#377eb8;" x="39.843106" xlink:href="#m2a188d32c4" y="28.523356"/>
     <use style="fill:#377eb8;stroke:#377eb8;" x="37.368604" xlink:href="#m2a188d32c4" y="28.930199"/>
     <use style="fill:#377eb8;stroke:#377eb8;" x="34.894103" xlink:href="#m2a188d32c4" y="29.419052"/>
     <use style="fill:#377eb8;stroke:#377eb8;" x="32.419602" xlink:href="#m2a188d32c4" y="29.837304"/>
    </g>
   </g>
   <g id="line2d_51">
    <path clip-path="url(#pe0765ad0ab)" d="M 133.874148 48.307887 
L 131.399647 47.747399 
L 128.925146 47.785766 
L 126.450644 49.074255 
L 123.976143 47.176928 
L 121.501642 46.259732 
L 119.027141 45.708729 
L 116.55264 45.119146 
L 114.078139 44.679749 
L 111.603638 44.147324 
L 109.129137 43.594895 
L 106.654636 43.070778 
L 104.180134 43.339059 
L 101.705633 43.117809 
L 99.231132 42.845962 
L 96.756631 42.556216 
L 94.28213 42.219617 
L 91.807629 41.896104 
L 89.333128 42.078809 
L 86.858627 42.149552 
L 84.384126 42.240619 
L 81.909624 42.135111 
L 79.435123 41.96945 
L 76.960622 41.81823 
L 74.486121 41.744278 
L 72.01162 42.1155 
L 69.537119 42.158074 
L 67.062618 42.207173 
L 64.588117 42.201789 
L 62.113616 42.254632 
L 59.639114 42.447927 
L 57.164613 43.037225 
L 54.690112 43.443497 
L 52.215611 43.615897 
L 49.74111 43.737914 
L 47.266609 43.847095 
L 44.792108 43.914771 
L 42.317607 44.078685 
L 39.843106 44.654433 
L 37.368604 44.879712 
L 34.894103 45.109876 
L 32.419602 45.296931 
" style="fill:none;stroke:#4daf4a;stroke-linecap:square;stroke-width:1.5;"/>
    <defs>
     <path d="M 0 0.75 
C 0.198902 0.75 0.389685 0.670975 0.53033 0.53033 
C 0.670975 0.389685 0.75 0.198902 0.75 0 
C 0.75 -0.198902 0.670975 -0.389685 0.53033 -0.53033 
C 0.389685 -0.670975 0.198902 -0.75 0 -0.75 
C -0.198902 -0.75 -0.389685 -0.670975 -0.53033 -0.53033 
C -0.670975 -0.389685 -0.75 -0.198902 -0.75 0 
C -0.75 0.198902 -0.670975 0.389685 -0.53033 0.53033 
C -0.389685 0.670975 -0.198902 0.75 0 0.75 
z
" id="mb2fd3ee54f" style="stroke:#4daf4a;"/>
    </defs>
    <g clip-path="url(#pe0765ad0ab)">
     <use style="fill:#4daf4a;stroke:#4daf4a;" x="133.874148" xlink:href="#mb2fd3ee54f" y="48.307887"/>
     <use style="fill:#4daf4a;stroke:#4daf4a;" x="131.399647" xlink:href="#mb2fd3ee54f" y="47.747399"/>
     <use style="fill:#4daf4a;stroke:#4daf4a;" x="128.925146" xlink:href="#mb2fd3ee54f" y="47.785766"/>
     <use style="fill:#4daf4a;stroke:#4daf4a;" x="126.450644" xlink:href="#mb2fd3ee54f" y="49.074255"/>
     <use style="fill:#4daf4a;stroke:#4daf4a;" x="123.976143" xlink:href="#mb2fd3ee54f" y="47.176928"/>
     <use style="fill:#4daf4a;stroke:#4daf4a;" x="121.501642" xlink:href="#mb2fd3ee54f" y="46.259732"/>
     <use style="fill:#4daf4a;stroke:#4daf4a;" x="119.027141" xlink:href="#mb2fd3ee54f" y="45.708729"/>
     <use style="fill:#4daf4a;stroke:#4daf4a;" x="116.55264" xlink:href="#mb2fd3ee54f" y="45.119146"/>
     <use style="fill:#4daf4a;stroke:#4daf4a;" x="114.078139" xlink:href="#mb2fd3ee54f" y="44.679749"/>
     <use style="fill:#4daf4a;stroke:#4daf4a;" x="111.603638" xlink:href="#mb2fd3ee54f" y="44.147324"/>
     <use style="fill:#4daf4a;stroke:#4daf4a;" x="109.129137" xlink:href="#mb2fd3ee54f" y="43.594895"/>
     <use style="fill:#4daf4a;stroke:#4daf4a;" x="106.654636" xlink:href="#mb2fd3ee54f" y="43.070778"/>
     <use style="fill:#4daf4a;stroke:#4daf4a;" x="104.180134" xlink:href="#mb2fd3ee54f" y="43.339059"/>
     <use style="fill:#4daf4a;stroke:#4daf4a;" x="101.705633" xlink:href="#mb2fd3ee54f" y="43.117809"/>
     <use style="fill:#4daf4a;stroke:#4daf4a;" x="99.231132" xlink:href="#mb2fd3ee54f" y="42.845962"/>
     <use style="fill:#4daf4a;stroke:#4daf4a;" x="96.756631" xlink:href="#mb2fd3ee54f" y="42.556216"/>
     <use style="fill:#4daf4a;stroke:#4daf4a;" x="94.28213" xlink:href="#mb2fd3ee54f" y="42.219617"/>
     <use style="fill:#4daf4a;stroke:#4daf4a;" x="91.807629" xlink:href="#mb2fd3ee54f" y="41.896104"/>
     <use style="fill:#4daf4a;stroke:#4daf4a;" x="89.333128" xlink:href="#mb2fd3ee54f" y="42.078809"/>
     <use style="fill:#4daf4a;stroke:#4daf4a;" x="86.858627" xlink:href="#mb2fd3ee54f" y="42.149552"/>
     <use style="fill:#4daf4a;stroke:#4daf4a;" x="84.384126" xlink:href="#mb2fd3ee54f" y="42.240619"/>
     <use style="fill:#4daf4a;stroke:#4daf4a;" x="81.909624" xlink:href="#mb2fd3ee54f" y="42.135111"/>
     <use style="fill:#4daf4a;stroke:#4daf4a;" x="79.435123" xlink:href="#mb2fd3ee54f" y="41.96945"/>
     <use style="fill:#4daf4a;stroke:#4daf4a;" x="76.960622" xlink:href="#mb2fd3ee54f" y="41.81823"/>
     <use style="fill:#4daf4a;stroke:#4daf4a;" x="74.486121" xlink:href="#mb2fd3ee54f" y="41.744278"/>
     <use style="fill:#4daf4a;stroke:#4daf4a;" x="72.01162" xlink:href="#mb2fd3ee54f" y="42.1155"/>
     <use style="fill:#4daf4a;stroke:#4daf4a;" x="69.537119" xlink:href="#mb2fd3ee54f" y="42.158074"/>
     <use style="fill:#4daf4a;stroke:#4daf4a;" x="67.062618" xlink:href="#mb2fd3ee54f" y="42.207173"/>
     <use style="fill:#4daf4a;stroke:#4daf4a;" x="64.588117" xlink:href="#mb2fd3ee54f" y="42.201789"/>
     <use style="fill:#4daf4a;stroke:#4daf4a;" x="62.113616" xlink:href="#mb2fd3ee54f" y="42.254632"/>
     <use style="fill:#4daf4a;stroke:#4daf4a;" x="59.639114" xlink:href="#mb2fd3ee54f" y="42.447927"/>
     <use style="fill:#4daf4a;stroke:#4daf4a;" x="57.164613" xlink:href="#mb2fd3ee54f" y="43.037225"/>
     <use style="fill:#4daf4a;stroke:#4daf4a;" x="54.690112" xlink:href="#mb2fd3ee54f" y="43.443497"/>
     <use style="fill:#4daf4a;stroke:#4daf4a;" x="52.215611" xlink:href="#mb2fd3ee54f" y="43.615897"/>
     <use style="fill:#4daf4a;stroke:#4daf4a;" x="49.74111" xlink:href="#mb2fd3ee54f" y="43.737914"/>
     <use style="fill:#4daf4a;stroke:#4daf4a;" x="47.266609" xlink:href="#mb2fd3ee54f" y="43.847095"/>
     <use style="fill:#4daf4a;stroke:#4daf4a;" x="44.792108" xlink:href="#mb2fd3ee54f" y="43.914771"/>
     <use style="fill:#4daf4a;stroke:#4daf4a;" x="42.317607" xlink:href="#mb2fd3ee54f" y="44.078685"/>
     <use style="fill:#4daf4a;stroke:#4daf4a;" x="39.843106" xlink:href="#mb2fd3ee54f" y="44.654433"/>
     <use style="fill:#4daf4a;stroke:#4daf4a;" x="37.368604" xlink:href="#mb2fd3ee54f" y="44.879712"/>
     <use style="fill:#4daf4a;stroke:#4daf4a;" x="34.894103" xlink:href="#mb2fd3ee54f" y="45.109876"/>
     <use style="fill:#4daf4a;stroke:#4daf4a;" x="32.419602" xlink:href="#mb2fd3ee54f" y="45.296931"/>
    </g>
   </g>
   <g id="patch_3">
    <path d="M 27.346875 108.72 
L 27.346875 -0 
" style="fill:none;stroke:#000000;stroke-linecap:square;stroke-linejoin:miter;stroke-width:0.5;"/>
   </g>
   <g id="patch_4">
    <path d="M 138.946875 108.72 
L 138.946875 -0 
" style="fill:none;stroke:#000000;stroke-linecap:square;stroke-linejoin:miter;stroke-width:0.5;"/>
   </g>
   <g id="patch_5">
    <path d="M 27.346875 108.72 
L 138.946875 108.72 
" style="fill:none;stroke:#000000;stroke-linecap:square;stroke-linejoin:miter;stroke-width:0.5;"/>
   </g>
   <g id="patch_6">
    <path d="M 27.346875 0 
L 138.946875 0 
" style="fill:none;stroke:#000000;stroke-linecap:square;stroke-linejoin:miter;stroke-width:0.5;"/>
   </g>
  </g>
 </g>
 <defs>
  <clipPath id="pe0765ad0ab">
   <rect height="108.72" width="111.6" x="27.346875" y="0"/>
  </clipPath>
 </defs>
</svg>
