<?xml version="1.0" encoding="utf-8" standalone="no"?>
<!DOCTYPE svg PUBLIC "-//W3C//DTD SVG 1.1//EN"
  "http://www.w3.org/Graphics/SVG/1.1/DTD/svg11.dtd">
<!-- Created with matplotlib (https://matplotlib.org/) -->
<svg height="74.005313pt" version="1.1" viewBox="0 0 81.1 74.005313" width="81.1pt" xmlns="http://www.w3.org/2000/svg" xmlns:xlink="http://www.w3.org/1999/xlink">
 <metadata>
  <rdf:RDF xmlns:cc="http://creativecommons.org/ns#" xmlns:dc="http://purl.org/dc/elements/1.1/" xmlns:rdf="http://www.w3.org/1999/02/22-rdf-syntax-ns#">
   <cc:Work>
    <dc:type rdf:resource="http://purl.org/dc/dcmitype/StillImage"/>
    <dc:date>2020-12-08T00:53:17.060530</dc:date>
    <dc:format>image/svg+xml</dc:format>
    <dc:creator>
     <cc:Agent>
      <dc:title>Matplotlib v3.3.0, https://matplotlib.org/</dc:title>
     </cc:Agent>
    </dc:creator>
   </cc:Work>
  </rdf:RDF>
 </metadata>
 <defs>
  <style type="text/css">*{stroke-linecap:butt;stroke-linejoin:round;}</style>
 </defs>
 <g id="figure_1">
  <g id="patch_1">
   <path d="M 0 74.005313 
L 81.1 74.005313 
L 81.1 0 
L 0 0 
z
" style="fill:none;"/>
  </g>
  <g id="axes_1">
   <g id="patch_2">
    <path d="M 25.3 54.36 
L 81.1 54.36 
L 81.1 0 
L 25.3 0 
z
" style="fill:none;"/>
   </g>
   <g id="matplotlib.axis_1">
    <g id="xtick_1">
     <g id="line2d_1">
      <defs>
       <path d="M 0 0 
L 0 -3.5 
" id="m13b8ba3323" style="stroke:#000000;stroke-width:0.5;"/>
      </defs>
      <g>
       <use style="stroke:#000000;stroke-width:0.5;" x="27.836523" xlink:href="#m13b8ba3323" y="54.36"/>
      </g>
     </g>
     <g id="line2d_2">
      <defs>
       <path d="M 0 0 
L 0 3.5 
" id="mdc6962e14b" style="stroke:#000000;stroke-width:0.5;"/>
      </defs>
      <g>
       <use style="stroke:#000000;stroke-width:0.5;" x="27.836523" xlink:href="#mdc6962e14b" y="0"/>
      </g>
     </g>
     <g id="text_1">
      <!-- 0 -->
      <g transform="translate(25.056054 62.517813)scale(0.1 -0.1)">
       <defs>
        <path d="M 4.15625 35.296875 
Q 4.15625 48 6.765625 55.734375 
Q 9.375 63.484375 14.515625 67.671875 
Q 19.671875 71.875 27.484375 71.875 
Q 33.25 71.875 37.59375 69.546875 
Q 41.9375 67.234375 44.765625 62.859375 
Q 47.609375 58.5 49.21875 52.21875 
Q 50.828125 45.953125 50.828125 35.296875 
Q 50.828125 22.703125 48.234375 14.96875 
Q 45.65625 7.234375 40.5 3 
Q 35.359375 -1.21875 27.484375 -1.21875 
Q 17.140625 -1.21875 11.234375 6.203125 
Q 4.15625 15.140625 4.15625 35.296875 
z
M 13.1875 35.296875 
Q 13.1875 17.671875 17.3125 11.828125 
Q 21.4375 6 27.484375 6 
Q 33.546875 6 37.671875 11.859375 
Q 41.796875 17.71875 41.796875 35.296875 
Q 41.796875 52.984375 37.671875 58.78125 
Q 33.546875 64.59375 27.390625 64.59375 
Q 21.34375 64.59375 17.71875 59.46875 
Q 13.1875 52.9375 13.1875 35.296875 
z
" id="ArialMT-48"/>
       </defs>
       <use xlink:href="#ArialMT-48"/>
      </g>
     </g>
    </g>
    <g id="xtick_2">
     <g id="line2d_3">
      <g>
       <use style="stroke:#000000;stroke-width:0.5;" x="50.381834" xlink:href="#m13b8ba3323" y="54.36"/>
      </g>
     </g>
     <g id="line2d_4">
      <g>
       <use style="stroke:#000000;stroke-width:0.5;" x="50.381834" xlink:href="#mdc6962e14b" y="0"/>
      </g>
     </g>
     <g id="text_2">
      <!-- 4 -->
      <g transform="translate(47.601366 62.517813)scale(0.1 -0.1)">
       <defs>
        <path d="M 32.328125 0 
L 32.328125 17.140625 
L 1.265625 17.140625 
L 1.265625 25.203125 
L 33.9375 71.578125 
L 41.109375 71.578125 
L 41.109375 25.203125 
L 50.78125 25.203125 
L 50.78125 17.140625 
L 41.109375 17.140625 
L 41.109375 0 
z
M 32.328125 25.203125 
L 32.328125 57.46875 
L 9.90625 25.203125 
z
" id="ArialMT-52"/>
       </defs>
       <use xlink:href="#ArialMT-52"/>
      </g>
     </g>
    </g>
    <g id="xtick_3">
     <g id="line2d_5">
      <g>
       <use style="stroke:#000000;stroke-width:0.5;" x="72.927146" xlink:href="#m13b8ba3323" y="54.36"/>
      </g>
     </g>
     <g id="line2d_6">
      <g>
       <use style="stroke:#000000;stroke-width:0.5;" x="72.927146" xlink:href="#mdc6962e14b" y="0"/>
      </g>
     </g>
     <g id="text_3">
      <!-- 8 -->
      <g transform="translate(70.146677 62.517813)scale(0.1 -0.1)">
       <defs>
        <path d="M 17.671875 38.8125 
Q 12.203125 40.828125 9.5625 44.53125 
Q 6.9375 48.25 6.9375 53.421875 
Q 6.9375 61.234375 12.546875 66.546875 
Q 18.171875 71.875 27.484375 71.875 
Q 36.859375 71.875 42.578125 66.421875 
Q 48.296875 60.984375 48.296875 53.171875 
Q 48.296875 48.1875 45.671875 44.5 
Q 43.0625 40.828125 37.75 38.8125 
Q 44.34375 36.671875 47.78125 31.875 
Q 51.21875 27.09375 51.21875 20.453125 
Q 51.21875 11.28125 44.71875 5.03125 
Q 38.234375 -1.21875 27.640625 -1.21875 
Q 17.046875 -1.21875 10.546875 5.046875 
Q 4.046875 11.328125 4.046875 20.703125 
Q 4.046875 27.6875 7.59375 32.390625 
Q 11.140625 37.109375 17.671875 38.8125 
z
M 15.921875 53.71875 
Q 15.921875 48.640625 19.1875 45.40625 
Q 22.46875 42.1875 27.6875 42.1875 
Q 32.765625 42.1875 36.015625 45.375 
Q 39.265625 48.578125 39.265625 53.21875 
Q 39.265625 58.0625 35.90625 61.359375 
Q 32.5625 64.65625 27.59375 64.65625 
Q 22.5625 64.65625 19.234375 61.421875 
Q 15.921875 58.203125 15.921875 53.71875 
z
M 13.09375 20.65625 
Q 13.09375 16.890625 14.875 13.375 
Q 16.65625 9.859375 20.171875 7.921875 
Q 23.6875 6 27.734375 6 
Q 34.03125 6 38.125 10.046875 
Q 42.234375 14.109375 42.234375 20.359375 
Q 42.234375 26.703125 38.015625 30.859375 
Q 33.796875 35.015625 27.4375 35.015625 
Q 21.234375 35.015625 17.15625 30.90625 
Q 13.09375 26.8125 13.09375 20.65625 
z
" id="ArialMT-56"/>
       </defs>
       <use xlink:href="#ArialMT-56"/>
      </g>
     </g>
    </g>
    <g id="xtick_4">
     <g id="line2d_7">
      <defs>
       <path d="M 0 0 
L 0 -2 
" id="mcb025a4f90" style="stroke:#000000;stroke-width:0.5;"/>
      </defs>
      <g>
       <use style="stroke:#000000;stroke-width:0.5;" x="33.472851" xlink:href="#mcb025a4f90" y="54.36"/>
      </g>
     </g>
     <g id="line2d_8">
      <defs>
       <path d="M 0 0 
L 0 2 
" id="m8adbcd8535" style="stroke:#000000;stroke-width:0.5;"/>
      </defs>
      <g>
       <use style="stroke:#000000;stroke-width:0.5;" x="33.472851" xlink:href="#m8adbcd8535" y="0"/>
      </g>
     </g>
    </g>
    <g id="xtick_5">
     <g id="line2d_9">
      <g>
       <use style="stroke:#000000;stroke-width:0.5;" x="39.109179" xlink:href="#mcb025a4f90" y="54.36"/>
      </g>
     </g>
     <g id="line2d_10">
      <g>
       <use style="stroke:#000000;stroke-width:0.5;" x="39.109179" xlink:href="#m8adbcd8535" y="0"/>
      </g>
     </g>
    </g>
    <g id="xtick_6">
     <g id="line2d_11">
      <g>
       <use style="stroke:#000000;stroke-width:0.5;" x="44.745507" xlink:href="#mcb025a4f90" y="54.36"/>
      </g>
     </g>
     <g id="line2d_12">
      <g>
       <use style="stroke:#000000;stroke-width:0.5;" x="44.745507" xlink:href="#m8adbcd8535" y="0"/>
      </g>
     </g>
    </g>
    <g id="xtick_7">
     <g id="line2d_13">
      <g>
       <use style="stroke:#000000;stroke-width:0.5;" x="56.018162" xlink:href="#mcb025a4f90" y="54.36"/>
      </g>
     </g>
     <g id="line2d_14">
      <g>
       <use style="stroke:#000000;stroke-width:0.5;" x="56.018162" xlink:href="#m8adbcd8535" y="0"/>
      </g>
     </g>
    </g>
    <g id="xtick_8">
     <g id="line2d_15">
      <g>
       <use style="stroke:#000000;stroke-width:0.5;" x="61.65449" xlink:href="#mcb025a4f90" y="54.36"/>
      </g>
     </g>
     <g id="line2d_16">
      <g>
       <use style="stroke:#000000;stroke-width:0.5;" x="61.65449" xlink:href="#m8adbcd8535" y="0"/>
      </g>
     </g>
    </g>
    <g id="xtick_9">
     <g id="line2d_17">
      <g>
       <use style="stroke:#000000;stroke-width:0.5;" x="67.290818" xlink:href="#mcb025a4f90" y="54.36"/>
      </g>
     </g>
     <g id="line2d_18">
      <g>
       <use style="stroke:#000000;stroke-width:0.5;" x="67.290818" xlink:href="#m8adbcd8535" y="0"/>
      </g>
     </g>
    </g>
    <g id="xtick_10">
     <g id="line2d_19">
      <g>
       <use style="stroke:#000000;stroke-width:0.5;" x="78.563473" xlink:href="#mcb025a4f90" y="54.36"/>
      </g>
     </g>
     <g id="line2d_20">
      <g>
       <use style="stroke:#000000;stroke-width:0.5;" x="78.563473" xlink:href="#m8adbcd8535" y="0"/>
      </g>
     </g>
    </g>
    <g id="text_4">
     <!-- $\it{B}$ (T) -->
     <g transform="translate(41.95 71.805312)scale(0.1 -0.1)">
      <defs>
       <path d="M 16.890625 72.90625 
L 42.09375 72.90625 
Q 52.34375 72.90625 57.421875 69.09375 
Q 62.5 65.28125 62.5 57.625 
Q 62.5 50.59375 58.125 45.484375 
Q 53.765625 40.375 46.6875 39.3125 
Q 52.734375 37.9375 55.765625 34.078125 
Q 58.796875 30.21875 58.796875 23.78125 
Q 58.796875 12.796875 50.65625 6.390625 
Q 42.53125 0 28.421875 0 
L 2.6875 0 
z
M 19.28125 34.8125 
L 14.109375 8.109375 
L 29.984375 8.109375 
Q 38.921875 8.109375 43.75 12.203125 
Q 48.578125 16.3125 48.578125 23.78125 
Q 48.578125 29.546875 45.375 32.171875 
Q 42.1875 34.8125 35.109375 34.8125 
z
M 25.09375 64.796875 
L 20.796875 42.828125 
L 35.5 42.828125 
Q 43.359375 42.828125 47.78125 46.234375 
Q 52.203125 49.65625 52.203125 55.71875 
Q 52.203125 60.453125 49.21875 62.625 
Q 46.234375 64.796875 39.703125 64.796875 
z
" id="DejaVuSans-Oblique-66"/>
       <path id="ArialMT-32"/>
       <path d="M 23.390625 -21.046875 
Q 16.109375 -11.859375 11.078125 0.4375 
Q 6.0625 12.75 6.0625 25.921875 
Q 6.0625 37.546875 9.8125 48.1875 
Q 14.203125 60.546875 23.390625 72.796875 
L 29.6875 72.796875 
Q 23.78125 62.640625 21.875 58.296875 
Q 18.890625 51.5625 17.1875 44.234375 
Q 15.09375 35.109375 15.09375 25.875 
Q 15.09375 2.390625 29.6875 -21.046875 
z
" id="ArialMT-40"/>
       <path d="M 25.921875 0 
L 25.921875 63.140625 
L 2.34375 63.140625 
L 2.34375 71.578125 
L 59.078125 71.578125 
L 59.078125 63.140625 
L 35.40625 63.140625 
L 35.40625 0 
z
" id="ArialMT-84"/>
       <path d="M 12.359375 -21.046875 
L 6.0625 -21.046875 
Q 20.65625 2.390625 20.65625 25.875 
Q 20.65625 35.0625 18.5625 44.09375 
Q 16.890625 51.421875 13.921875 58.15625 
Q 12.015625 62.546875 6.0625 72.796875 
L 12.359375 72.796875 
Q 21.53125 60.546875 25.921875 48.1875 
Q 29.6875 37.546875 29.6875 25.921875 
Q 29.6875 12.75 24.625 0.4375 
Q 19.578125 -11.859375 12.359375 -21.046875 
z
" id="ArialMT-41"/>
      </defs>
      <use transform="translate(0 0.09375)" xlink:href="#DejaVuSans-Oblique-66"/>
      <use transform="translate(68.603516 0.09375)" xlink:href="#ArialMT-32"/>
      <use transform="translate(96.386719 0.09375)" xlink:href="#ArialMT-40"/>
      <use transform="translate(129.6875 0.09375)" xlink:href="#ArialMT-84"/>
      <use transform="translate(190.771484 0.09375)" xlink:href="#ArialMT-41"/>
     </g>
    </g>
   </g>
   <g id="matplotlib.axis_2">
    <g id="ytick_1">
     <g id="line2d_21">
      <defs>
       <path d="M 0 0 
L 3.5 0 
" id="m6c5fa617d6" style="stroke:#000000;stroke-width:0.5;"/>
      </defs>
      <g>
       <use style="stroke:#000000;stroke-width:0.5;" x="25.3" xlink:href="#m6c5fa617d6" y="48.32993"/>
      </g>
     </g>
     <g id="line2d_22">
      <defs>
       <path d="M 0 0 
L -3.5 0 
" id="ma3f441248e" style="stroke:#000000;stroke-width:0.5;"/>
      </defs>
      <g>
       <use style="stroke:#000000;stroke-width:0.5;" x="81.1" xlink:href="#ma3f441248e" y="48.32993"/>
      </g>
     </g>
     <g id="text_5">
      <!-- 0.0 -->
      <g transform="translate(10.4 51.908837)scale(0.1 -0.1)">
       <defs>
        <path d="M 9.078125 0 
L 9.078125 10.015625 
L 19.09375 10.015625 
L 19.09375 0 
z
" id="ArialMT-46"/>
       </defs>
       <use xlink:href="#ArialMT-48"/>
       <use x="55.615234" xlink:href="#ArialMT-46"/>
       <use x="83.398438" xlink:href="#ArialMT-48"/>
      </g>
     </g>
    </g>
    <g id="ytick_2">
     <g id="line2d_23">
      <g>
       <use style="stroke:#000000;stroke-width:0.5;" x="25.3" xlink:href="#m6c5fa617d6" y="26.556301"/>
      </g>
     </g>
     <g id="line2d_24">
      <g>
       <use style="stroke:#000000;stroke-width:0.5;" x="81.1" xlink:href="#ma3f441248e" y="26.556301"/>
      </g>
     </g>
     <g id="text_6">
      <!-- 0.5 -->
      <g transform="translate(10.4 30.135207)scale(0.1 -0.1)">
       <defs>
        <path d="M 4.15625 18.75 
L 13.375 19.53125 
Q 14.40625 12.796875 18.140625 9.390625 
Q 21.875 6 27.15625 6 
Q 33.5 6 37.890625 10.78125 
Q 42.28125 15.578125 42.28125 23.484375 
Q 42.28125 31 38.0625 35.34375 
Q 33.84375 39.703125 27 39.703125 
Q 22.75 39.703125 19.328125 37.765625 
Q 15.921875 35.84375 13.96875 32.765625 
L 5.71875 33.84375 
L 12.640625 70.609375 
L 48.25 70.609375 
L 48.25 62.203125 
L 19.671875 62.203125 
L 15.828125 42.96875 
Q 22.265625 47.46875 29.34375 47.46875 
Q 38.71875 47.46875 45.15625 40.96875 
Q 51.609375 34.46875 51.609375 24.265625 
Q 51.609375 14.546875 45.953125 7.46875 
Q 39.0625 -1.21875 27.15625 -1.21875 
Q 17.390625 -1.21875 11.203125 4.25 
Q 5.03125 9.71875 4.15625 18.75 
z
" id="ArialMT-53"/>
       </defs>
       <use xlink:href="#ArialMT-48"/>
       <use x="55.615234" xlink:href="#ArialMT-46"/>
       <use x="83.398438" xlink:href="#ArialMT-53"/>
      </g>
     </g>
    </g>
    <g id="ytick_3">
     <g id="line2d_25">
      <g>
       <use style="stroke:#000000;stroke-width:0.5;" x="25.3" xlink:href="#m6c5fa617d6" y="4.782672"/>
      </g>
     </g>
     <g id="line2d_26">
      <g>
       <use style="stroke:#000000;stroke-width:0.5;" x="81.1" xlink:href="#ma3f441248e" y="4.782672"/>
      </g>
     </g>
     <g id="text_7">
      <!-- 1.0 -->
      <g transform="translate(10.4 8.361578)scale(0.1 -0.1)">
       <defs>
        <path d="M 37.25 0 
L 28.46875 0 
L 28.46875 56 
Q 25.296875 52.984375 20.140625 49.953125 
Q 14.984375 46.921875 10.890625 45.40625 
L 10.890625 53.90625 
Q 18.265625 57.375 23.78125 62.296875 
Q 29.296875 67.234375 31.59375 71.875 
L 37.25 71.875 
z
" id="ArialMT-49"/>
       </defs>
       <use xlink:href="#ArialMT-49"/>
       <use x="55.615234" xlink:href="#ArialMT-46"/>
       <use x="83.398438" xlink:href="#ArialMT-48"/>
      </g>
     </g>
    </g>
    <g id="ytick_4">
     <g id="line2d_27">
      <defs>
       <path d="M 0 0 
L 2 0 
" id="md03cda7131" style="stroke:#000000;stroke-width:0.5;"/>
      </defs>
      <g>
       <use style="stroke:#000000;stroke-width:0.5;" x="25.3" xlink:href="#md03cda7131" y="52.684656"/>
      </g>
     </g>
     <g id="line2d_28">
      <defs>
       <path d="M 0 0 
L -2 0 
" id="m9f7654a2e0" style="stroke:#000000;stroke-width:0.5;"/>
      </defs>
      <g>
       <use style="stroke:#000000;stroke-width:0.5;" x="81.1" xlink:href="#m9f7654a2e0" y="52.684656"/>
      </g>
     </g>
    </g>
    <g id="ytick_5">
     <g id="line2d_29">
      <g>
       <use style="stroke:#000000;stroke-width:0.5;" x="25.3" xlink:href="#md03cda7131" y="43.975205"/>
      </g>
     </g>
     <g id="line2d_30">
      <g>
       <use style="stroke:#000000;stroke-width:0.5;" x="81.1" xlink:href="#m9f7654a2e0" y="43.975205"/>
      </g>
     </g>
    </g>
    <g id="ytick_6">
     <g id="line2d_31">
      <g>
       <use style="stroke:#000000;stroke-width:0.5;" x="25.3" xlink:href="#md03cda7131" y="39.620479"/>
      </g>
     </g>
     <g id="line2d_32">
      <g>
       <use style="stroke:#000000;stroke-width:0.5;" x="81.1" xlink:href="#m9f7654a2e0" y="39.620479"/>
      </g>
     </g>
    </g>
    <g id="ytick_7">
     <g id="line2d_33">
      <g>
       <use style="stroke:#000000;stroke-width:0.5;" x="25.3" xlink:href="#md03cda7131" y="35.265753"/>
      </g>
     </g>
     <g id="line2d_34">
      <g>
       <use style="stroke:#000000;stroke-width:0.5;" x="81.1" xlink:href="#m9f7654a2e0" y="35.265753"/>
      </g>
     </g>
    </g>
    <g id="ytick_8">
     <g id="line2d_35">
      <g>
       <use style="stroke:#000000;stroke-width:0.5;" x="25.3" xlink:href="#md03cda7131" y="30.911027"/>
      </g>
     </g>
     <g id="line2d_36">
      <g>
       <use style="stroke:#000000;stroke-width:0.5;" x="81.1" xlink:href="#m9f7654a2e0" y="30.911027"/>
      </g>
     </g>
    </g>
    <g id="ytick_9">
     <g id="line2d_37">
      <g>
       <use style="stroke:#000000;stroke-width:0.5;" x="25.3" xlink:href="#md03cda7131" y="22.201575"/>
      </g>
     </g>
     <g id="line2d_38">
      <g>
       <use style="stroke:#000000;stroke-width:0.5;" x="81.1" xlink:href="#m9f7654a2e0" y="22.201575"/>
      </g>
     </g>
    </g>
    <g id="ytick_10">
     <g id="line2d_39">
      <g>
       <use style="stroke:#000000;stroke-width:0.5;" x="25.3" xlink:href="#md03cda7131" y="17.84685"/>
      </g>
     </g>
     <g id="line2d_40">
      <g>
       <use style="stroke:#000000;stroke-width:0.5;" x="81.1" xlink:href="#m9f7654a2e0" y="17.84685"/>
      </g>
     </g>
    </g>
    <g id="ytick_11">
     <g id="line2d_41">
      <g>
       <use style="stroke:#000000;stroke-width:0.5;" x="25.3" xlink:href="#md03cda7131" y="13.492124"/>
      </g>
     </g>
     <g id="line2d_42">
      <g>
       <use style="stroke:#000000;stroke-width:0.5;" x="81.1" xlink:href="#m9f7654a2e0" y="13.492124"/>
      </g>
     </g>
    </g>
    <g id="ytick_12">
     <g id="line2d_43">
      <g>
       <use style="stroke:#000000;stroke-width:0.5;" x="25.3" xlink:href="#md03cda7131" y="9.137398"/>
      </g>
     </g>
     <g id="line2d_44">
      <g>
       <use style="stroke:#000000;stroke-width:0.5;" x="81.1" xlink:href="#m9f7654a2e0" y="9.137398"/>
      </g>
     </g>
    </g>
    <g id="ytick_13">
     <g id="line2d_45">
      <g>
       <use style="stroke:#000000;stroke-width:0.5;" x="25.3" xlink:href="#md03cda7131" y="0.427946"/>
      </g>
     </g>
     <g id="line2d_46">
      <g>
       <use style="stroke:#000000;stroke-width:0.5;" x="81.1" xlink:href="#m9f7654a2e0" y="0.427946"/>
      </g>
     </g>
    </g>
    <g id="text_8">
     <!-- $\it{R_{xy}}$ (kΩ) -->
     <g transform="translate(7.3 45.93)rotate(-90)scale(0.1 -0.1)">
      <defs>
       <path d="M 25.203125 64.796875 
L 20.21875 38.921875 
L 32.90625 38.921875 
Q 40.375 38.921875 44.984375 43.046875 
Q 49.609375 47.171875 49.609375 53.8125 
Q 49.609375 59.125 46.5 61.953125 
Q 43.40625 64.796875 37.59375 64.796875 
z
M 43.3125 35.015625 
Q 46.4375 34.28125 48.515625 31.390625 
Q 50.59375 28.515625 53.328125 19.921875 
L 59.515625 0 
L 49.125 0 
L 43.40625 18.703125 
Q 41.21875 25.921875 38.328125 28.359375 
Q 35.453125 30.8125 29.5 30.8125 
L 18.609375 30.8125 
L 12.59375 0 
L 2.6875 0 
L 16.890625 72.90625 
L 39.109375 72.90625 
Q 49.21875 72.90625 54.609375 68.328125 
Q 60.015625 63.765625 60.015625 55.171875 
Q 60.015625 47.5625 55.421875 41.984375 
Q 50.828125 36.421875 43.3125 35.015625 
z
" id="DejaVuSans-Oblique-82"/>
       <path d="M 60.015625 54.6875 
L 34.90625 27.875 
L 50.296875 0 
L 39.984375 0 
L 28.421875 21.6875 
L 8.296875 0 
L -2.59375 0 
L 24.3125 28.8125 
L 10.015625 54.6875 
L 20.3125 54.6875 
L 30.8125 34.90625 
L 49.125 54.6875 
z
" id="DejaVuSans-Oblique-120"/>
       <path d="M 24.8125 -5.078125 
Q 18.5625 -15.578125 14.625 -18.1875 
Q 10.6875 -20.796875 4.59375 -20.796875 
L -2.484375 -20.796875 
L -0.984375 -13.28125 
L 4.203125 -13.28125 
Q 7.953125 -13.28125 10.59375 -11.234375 
Q 13.234375 -9.1875 16.5 -3.21875 
L 19.28125 2 
L 7.171875 54.6875 
L 16.703125 54.6875 
L 25.78125 12.796875 
L 50.875 54.6875 
L 60.296875 54.6875 
z
" id="DejaVuSans-Oblique-121"/>
       <path d="M 6.640625 0 
L 6.640625 71.578125 
L 15.4375 71.578125 
L 15.4375 30.765625 
L 36.234375 51.859375 
L 47.609375 51.859375 
L 27.78125 32.625 
L 49.609375 0 
L 38.765625 0 
L 21.625 26.515625 
L 15.4375 20.5625 
L 15.4375 0 
z
" id="ArialMT-107"/>
       <path d="M 4.734375 8.453125 
L 20.359375 8.453125 
Q 5.515625 20.84375 5.515625 38.71875 
Q 5.515625 48.4375 9.421875 56.15625 
Q 13.328125 63.875 20.453125 68.328125 
Q 27.59375 72.796875 37.59375 72.796875 
Q 47.515625 72.796875 54.125 68.6875 
Q 60.75 64.59375 65.015625 56.921875 
Q 69.28125 49.265625 69.28125 38.71875 
Q 69.28125 20.84375 54.4375 8.453125 
L 70.0625 8.453125 
L 70.0625 0 
L 42.234375 0 
L 42.234375 7.90625 
Q 59.625 16.015625 59.625 37.25 
Q 59.625 49.21875 53.484375 56.953125 
Q 47.359375 64.703125 37.546875 64.703125 
Q 27.4375 64.703125 21.375 56.90625 
Q 15.328125 49.125 15.328125 37.75 
Q 15.328125 16.21875 32.625 7.90625 
L 32.625 0 
L 4.734375 0 
z
" id="ArialMT-937"/>
      </defs>
      <use transform="translate(0 0.09375)" xlink:href="#DejaVuSans-Oblique-82"/>
      <use transform="translate(69.482422 -16.3125)scale(0.7)" xlink:href="#DejaVuSans-Oblique-120"/>
      <use transform="translate(110.908203 -16.3125)scale(0.7)" xlink:href="#DejaVuSans-Oblique-121"/>
      <use transform="translate(155.068359 0.09375)" xlink:href="#ArialMT-32"/>
      <use transform="translate(182.851562 0.09375)" xlink:href="#ArialMT-40"/>
      <use transform="translate(216.152344 0.09375)" xlink:href="#ArialMT-107"/>
      <use transform="translate(266.152344 0.09375)" xlink:href="#ArialMT-937"/>
      <use transform="translate(340.908203 0.09375)" xlink:href="#ArialMT-41"/>
     </g>
    </g>
   </g>
   <g id="line2d_47">
    <path clip-path="url(#p467a5bf12f)" d="M 27.8364 48.330041 
L 30.654547 45.782339 
L 33.472725 43.234608 
L 36.290958 40.686828 
L 39.109086 38.139142 
L 41.927252 35.591422 
L 44.745608 33.04353 
L 47.563743 30.495838 
L 50.381975 27.948058 
L 53.20017 25.400312 
L 56.018224 22.852694 
L 58.836551 20.304828 
L 61.654582 17.75723 
L 64.472801 15.209462 
L 67.291047 12.66167 
L 70.109189 10.113972 
L 72.927383 7.566226 
L 75.745424 5.018619 
L 78.563579 2.470909 
" style="fill:none;stroke:#377eb8;stroke-linecap:square;"/>
   </g>
   <g id="line2d_48">
    <defs>
     <path d="M 0 0.75 
C 0.198902 0.75 0.389685 0.670975 0.53033 0.53033 
C 0.670975 0.389685 0.75 0.198902 0.75 0 
C 0.75 -0.198902 0.670975 -0.389685 0.53033 -0.53033 
C 0.389685 -0.670975 0.198902 -0.75 0 -0.75 
C -0.198902 -0.75 -0.389685 -0.670975 -0.53033 -0.53033 
C -0.670975 -0.389685 -0.75 -0.198902 -0.75 0 
C -0.75 0.198902 -0.670975 0.389685 -0.53033 0.53033 
C -0.389685 0.670975 -0.198902 0.75 0 0.75 
z
" id="m563ee8c610" style="stroke:#377eb8;"/>
    </defs>
    <g clip-path="url(#p467a5bf12f)">
     <use style="fill:#377eb8;stroke:#377eb8;" x="27.8364" xlink:href="#m563ee8c610" y="51.889091"/>
     <use style="fill:#377eb8;stroke:#377eb8;" x="30.654547" xlink:href="#m563ee8c610" y="47.923823"/>
     <use style="fill:#377eb8;stroke:#377eb8;" x="33.472725" xlink:href="#m563ee8c610" y="43.61288"/>
     <use style="fill:#377eb8;stroke:#377eb8;" x="36.290958" xlink:href="#m563ee8c610" y="40.552828"/>
     <use style="fill:#377eb8;stroke:#377eb8;" x="39.109086" xlink:href="#m563ee8c610" y="38.871074"/>
     <use style="fill:#377eb8;stroke:#377eb8;" x="41.927252" xlink:href="#m563ee8c610" y="35.431298"/>
     <use style="fill:#377eb8;stroke:#377eb8;" x="44.745608" xlink:href="#m563ee8c610" y="30.734517"/>
     <use style="fill:#377eb8;stroke:#377eb8;" x="47.563743" xlink:href="#m563ee8c610" y="28.171718"/>
     <use style="fill:#377eb8;stroke:#377eb8;" x="50.381975" xlink:href="#m563ee8c610" y="27.276319"/>
     <use style="fill:#377eb8;stroke:#377eb8;" x="53.20017" xlink:href="#m563ee8c610" y="25.18743"/>
     <use style="fill:#377eb8;stroke:#377eb8;" x="56.018224" xlink:href="#m563ee8c610" y="21.285375"/>
     <use style="fill:#377eb8;stroke:#377eb8;" x="58.836551" xlink:href="#m563ee8c610" y="18.982378"/>
     <use style="fill:#377eb8;stroke:#377eb8;" x="61.654582" xlink:href="#m563ee8c610" y="16.330758"/>
     <use style="fill:#377eb8;stroke:#377eb8;" x="64.472801" xlink:href="#m563ee8c610" y="14.796309"/>
     <use style="fill:#377eb8;stroke:#377eb8;" x="67.291047" xlink:href="#m563ee8c610" y="12.318829"/>
     <use style="fill:#377eb8;stroke:#377eb8;" x="70.109189" xlink:href="#m563ee8c610" y="9.720223"/>
     <use style="fill:#377eb8;stroke:#377eb8;" x="72.927383" xlink:href="#m563ee8c610" y="6.545702"/>
     <use style="fill:#377eb8;stroke:#377eb8;" x="75.745424" xlink:href="#m563ee8c610" y="7.051962"/>
     <use style="fill:#377eb8;stroke:#377eb8;" x="78.563579" xlink:href="#m563ee8c610" y="5.416815"/>
    </g>
   </g>
   <g id="line2d_49">
    <path clip-path="url(#p467a5bf12f)" d="M 27.836456 48.329982 
L 30.654584 46.158106 
L 33.472689 43.986248 
L 36.290903 41.814306 
L 39.109062 39.642406 
L 41.92727 37.470468 
L 44.745638 35.298408 
L 47.563792 33.126512 
L 50.381993 30.954579 
L 53.200201 28.782642 
L 56.018323 26.61077 
L 58.836581 24.438794 
L 61.654699 22.266926 
L 64.472797 20.095073 
L 67.29106 17.923093 
L 70.10914 15.751254 
L 72.927273 13.579374 
L 75.745442 11.407467 
L 78.563623 9.23555 
" style="fill:none;stroke:#984ea3;stroke-linecap:square;"/>
   </g>
   <g id="line2d_50">
    <defs>
     <path d="M 0 0.75 
C 0.198902 0.75 0.389685 0.670975 0.53033 0.53033 
C 0.670975 0.389685 0.75 0.198902 0.75 0 
C 0.75 -0.198902 0.670975 -0.389685 0.53033 -0.53033 
C 0.389685 -0.670975 0.198902 -0.75 0 -0.75 
C -0.198902 -0.75 -0.389685 -0.670975 -0.53033 -0.53033 
C -0.670975 -0.389685 -0.75 -0.198902 -0.75 0 
C -0.75 0.198902 -0.670975 0.389685 -0.53033 0.53033 
C -0.389685 0.670975 -0.198902 0.75 0 0.75 
z
" id="m3e9b1c0fde" style="stroke:#984ea3;"/>
    </defs>
    <g clip-path="url(#p467a5bf12f)">
     <use style="fill:#984ea3;stroke:#984ea3;" x="27.836456" xlink:href="#m3e9b1c0fde" y="49.514253"/>
     <use style="fill:#984ea3;stroke:#984ea3;" x="30.654584" xlink:href="#m3e9b1c0fde" y="47.115669"/>
     <use style="fill:#984ea3;stroke:#984ea3;" x="33.472689" xlink:href="#m3e9b1c0fde" y="44.538641"/>
     <use style="fill:#984ea3;stroke:#984ea3;" x="36.290903" xlink:href="#m3e9b1c0fde" y="42.318654"/>
     <use style="fill:#984ea3;stroke:#984ea3;" x="39.109062" xlink:href="#m3e9b1c0fde" y="39.903397"/>
     <use style="fill:#984ea3;stroke:#984ea3;" x="41.92727" xlink:href="#m3e9b1c0fde" y="37.719186"/>
     <use style="fill:#984ea3;stroke:#984ea3;" x="44.745638" xlink:href="#m3e9b1c0fde" y="35.544617"/>
     <use style="fill:#984ea3;stroke:#984ea3;" x="47.563792" xlink:href="#m3e9b1c0fde" y="33.057506"/>
     <use style="fill:#984ea3;stroke:#984ea3;" x="50.381993" xlink:href="#m3e9b1c0fde" y="30.687558"/>
     <use style="fill:#984ea3;stroke:#984ea3;" x="53.200201" xlink:href="#m3e9b1c0fde" y="28.151025"/>
     <use style="fill:#984ea3;stroke:#984ea3;" x="56.018323" xlink:href="#m3e9b1c0fde" y="25.888992"/>
     <use style="fill:#984ea3;stroke:#984ea3;" x="58.836581" xlink:href="#m3e9b1c0fde" y="23.860265"/>
     <use style="fill:#984ea3;stroke:#984ea3;" x="61.654699" xlink:href="#m3e9b1c0fde" y="21.839569"/>
     <use style="fill:#984ea3;stroke:#984ea3;" x="64.472797" xlink:href="#m3e9b1c0fde" y="19.704303"/>
     <use style="fill:#984ea3;stroke:#984ea3;" x="67.29106" xlink:href="#m3e9b1c0fde" y="17.596133"/>
     <use style="fill:#984ea3;stroke:#984ea3;" x="70.10914" xlink:href="#m3e9b1c0fde" y="15.353745"/>
     <use style="fill:#984ea3;stroke:#984ea3;" x="72.927273" xlink:href="#m3e9b1c0fde" y="13.027963"/>
     <use style="fill:#984ea3;stroke:#984ea3;" x="75.745442" xlink:href="#m3e9b1c0fde" y="10.781621"/>
     <use style="fill:#984ea3;stroke:#984ea3;" x="78.563623" xlink:href="#m3e9b1c0fde" y="8.705742"/>
    </g>
   </g>
   <g id="line2d_51">
    <path clip-path="url(#p467a5bf12f)" d="M 27.836364 48.33 
L 30.654633 47.09889 
L 33.472744 45.867849 
L 36.290939 44.636771 
L 39.109167 43.405679 
L 41.927215 42.174665 
L 44.745553 40.943525 
L 47.563748 39.712448 
L 50.382037 38.481329 
L 53.200146 37.250288 
L 56.018336 36.019213 
L 58.836623 34.788095 
L 61.654651 33.55709 
L 64.472828 32.32602 
L 67.291056 31.094928 
L 70.109193 29.863875 
L 72.927309 28.632832 
L 75.745406 27.401797 
L 78.563623 26.17071 
" style="fill:none;stroke:#4daf4a;stroke-linecap:square;"/>
   </g>
   <g id="line2d_52">
    <defs>
     <path d="M 0 0.75 
C 0.198902 0.75 0.389685 0.670975 0.53033 0.53033 
C 0.670975 0.389685 0.75 0.198902 0.75 0 
C 0.75 -0.198902 0.670975 -0.389685 0.53033 -0.53033 
C 0.389685 -0.670975 0.198902 -0.75 0 -0.75 
C -0.198902 -0.75 -0.389685 -0.670975 -0.53033 -0.53033 
C -0.670975 -0.389685 -0.75 -0.198902 -0.75 0 
C -0.75 0.198902 -0.670975 0.389685 -0.53033 0.53033 
C -0.389685 0.670975 -0.198902 0.75 0 0.75 
z
" id="m2a51f5919f" style="stroke:#4daf4a;"/>
    </defs>
    <g clip-path="url(#p467a5bf12f)">
     <use style="fill:#4daf4a;stroke:#4daf4a;" x="27.836364" xlink:href="#m2a51f5919f" y="47.058869"/>
     <use style="fill:#4daf4a;stroke:#4daf4a;" x="30.654633" xlink:href="#m2a51f5919f" y="46.130214"/>
     <use style="fill:#4daf4a;stroke:#4daf4a;" x="33.472744" xlink:href="#m2a51f5919f" y="45.952578"/>
     <use style="fill:#4daf4a;stroke:#4daf4a;" x="36.290939" xlink:href="#m2a51f5919f" y="44.565541"/>
     <use style="fill:#4daf4a;stroke:#4daf4a;" x="39.109167" xlink:href="#m2a51f5919f" y="42.308935"/>
     <use style="fill:#4daf4a;stroke:#4daf4a;" x="41.927215" xlink:href="#m2a51f5919f" y="41.835098"/>
     <use style="fill:#4daf4a;stroke:#4daf4a;" x="44.745553" xlink:href="#m2a51f5919f" y="40.757409"/>
     <use style="fill:#4daf4a;stroke:#4daf4a;" x="47.563748" xlink:href="#m2a51f5919f" y="39.353222"/>
     <use style="fill:#4daf4a;stroke:#4daf4a;" x="50.382037" xlink:href="#m2a51f5919f" y="39.162653"/>
     <use style="fill:#4daf4a;stroke:#4daf4a;" x="53.200146" xlink:href="#m2a51f5919f" y="36.905395"/>
     <use style="fill:#4daf4a;stroke:#4daf4a;" x="56.018336" xlink:href="#m2a51f5919f" y="37.171442"/>
     <use style="fill:#4daf4a;stroke:#4daf4a;" x="58.836623" xlink:href="#m2a51f5919f" y="34.860728"/>
     <use style="fill:#4daf4a;stroke:#4daf4a;" x="61.654651" xlink:href="#m2a51f5919f" y="34.220725"/>
     <use style="fill:#4daf4a;stroke:#4daf4a;" x="64.472828" xlink:href="#m2a51f5919f" y="32.140778"/>
     <use style="fill:#4daf4a;stroke:#4daf4a;" x="67.291056" xlink:href="#m2a51f5919f" y="31.252847"/>
     <use style="fill:#4daf4a;stroke:#4daf4a;" x="70.109193" xlink:href="#m2a51f5919f" y="30.372842"/>
     <use style="fill:#4daf4a;stroke:#4daf4a;" x="72.927309" xlink:href="#m2a51f5919f" y="28.982412"/>
     <use style="fill:#4daf4a;stroke:#4daf4a;" x="75.745406" xlink:href="#m2a51f5919f" y="27.278645"/>
     <use style="fill:#4daf4a;stroke:#4daf4a;" x="78.563623" xlink:href="#m2a51f5919f" y="26.67403"/>
    </g>
   </g>
   <g id="line2d_53">
    <path clip-path="url(#p467a5bf12f)" d="M 27.836431 48.329983 
L 30.65456 46.721744 
L 33.472805 45.113439 
L 36.290927 43.505204 
L 39.109093 41.896944 
L 41.927208 40.288713 
L 44.745558 38.680348 
L 47.563748 37.072074 
L 50.381951 35.463793 
L 53.200097 33.855544 
L 56.018279 32.247275 
L 58.836454 30.63901 
L 61.654651 29.030732 
L 64.47287 27.422442 
L 67.290985 25.81421 
L 70.109162 24.205944 
L 72.927295 22.597703 
L 75.745433 20.989459 
L 78.563636 19.381177 
" style="fill:none;stroke:#e41a1c;stroke-linecap:square;"/>
   </g>
   <g id="line2d_54">
    <defs>
     <path d="M 0 0.75 
C 0.198902 0.75 0.389685 0.670975 0.53033 0.53033 
C 0.670975 0.389685 0.75 0.198902 0.75 0 
C 0.75 -0.198902 0.670975 -0.389685 0.53033 -0.53033 
C 0.389685 -0.670975 0.198902 -0.75 0 -0.75 
C -0.198902 -0.75 -0.389685 -0.670975 -0.53033 -0.53033 
C -0.670975 -0.389685 -0.75 -0.198902 -0.75 0 
C -0.75 0.198902 -0.670975 0.389685 -0.53033 0.53033 
C -0.389685 0.670975 -0.198902 0.75 0 0.75 
z
" id="mf1a8597389" style="stroke:#e41a1c;"/>
    </defs>
    <g clip-path="url(#p467a5bf12f)">
     <use style="fill:#e41a1c;stroke:#e41a1c;" x="27.836431" xlink:href="#mf1a8597389" y="47.550337"/>
     <use style="fill:#e41a1c;stroke:#e41a1c;" x="30.65456" xlink:href="#mf1a8597389" y="47.146535"/>
     <use style="fill:#e41a1c;stroke:#e41a1c;" x="33.472805" xlink:href="#mf1a8597389" y="45.401182"/>
     <use style="fill:#e41a1c;stroke:#e41a1c;" x="36.290927" xlink:href="#mf1a8597389" y="44.094828"/>
     <use style="fill:#e41a1c;stroke:#e41a1c;" x="39.109093" xlink:href="#mf1a8597389" y="42.212815"/>
     <use style="fill:#e41a1c;stroke:#e41a1c;" x="41.927208" xlink:href="#mf1a8597389" y="38.808057"/>
     <use style="fill:#e41a1c;stroke:#e41a1c;" x="44.745558" xlink:href="#mf1a8597389" y="39.038045"/>
     <use style="fill:#e41a1c;stroke:#e41a1c;" x="47.563748" xlink:href="#mf1a8597389" y="35.15039"/>
     <use style="fill:#e41a1c;stroke:#e41a1c;" x="50.381951" xlink:href="#mf1a8597389" y="36.441338"/>
     <use style="fill:#e41a1c;stroke:#e41a1c;" x="53.200097" xlink:href="#mf1a8597389" y="35.706898"/>
     <use style="fill:#e41a1c;stroke:#e41a1c;" x="56.018279" xlink:href="#mf1a8597389" y="32.822061"/>
     <use style="fill:#e41a1c;stroke:#e41a1c;" x="58.836454" xlink:href="#mf1a8597389" y="28.812267"/>
     <use style="fill:#e41a1c;stroke:#e41a1c;" x="61.654651" xlink:href="#mf1a8597389" y="30.28879"/>
     <use style="fill:#e41a1c;stroke:#e41a1c;" x="64.47287" xlink:href="#mf1a8597389" y="28.714736"/>
     <use style="fill:#e41a1c;stroke:#e41a1c;" x="67.290985" xlink:href="#mf1a8597389" y="28.747725"/>
     <use style="fill:#e41a1c;stroke:#e41a1c;" x="70.109162" xlink:href="#mf1a8597389" y="25.390175"/>
     <use style="fill:#e41a1c;stroke:#e41a1c;" x="72.927295" xlink:href="#mf1a8597389" y="23.839783"/>
     <use style="fill:#e41a1c;stroke:#e41a1c;" x="75.745433" xlink:href="#mf1a8597389" y="19.50903"/>
     <use style="fill:#e41a1c;stroke:#e41a1c;" x="78.563636" xlink:href="#mf1a8597389" y="19.027907"/>
    </g>
   </g>
   <g id="patch_3">
    <path d="M 25.3 54.36 
L 25.3 0 
" style="fill:none;stroke:#000000;stroke-linecap:square;stroke-linejoin:miter;stroke-width:0.5;"/>
   </g>
   <g id="patch_4">
    <path d="M 81.1 54.36 
L 81.1 0 
" style="fill:none;stroke:#000000;stroke-linecap:square;stroke-linejoin:miter;stroke-width:0.5;"/>
   </g>
   <g id="patch_5">
    <path d="M 25.3 54.36 
L 81.1 54.36 
" style="fill:none;stroke:#000000;stroke-linecap:square;stroke-linejoin:miter;stroke-width:0.5;"/>
   </g>
   <g id="patch_6">
    <path d="M 25.3 0 
L 81.1 0 
" style="fill:none;stroke:#000000;stroke-linecap:square;stroke-linejoin:miter;stroke-width:0.5;"/>
   </g>
  </g>
 </g>
 <defs>
  <clipPath id="p467a5bf12f">
   <rect height="54.36" width="55.8" x="25.3" y="0"/>
  </clipPath>
 </defs>
</svg>
