<?xml version="1.0" encoding="utf-8" standalone="no"?>
<!DOCTYPE svg PUBLIC "-//W3C//DTD SVG 1.1//EN"
  "http://www.w3.org/Graphics/SVG/1.1/DTD/svg11.dtd">
<!-- Created with matplotlib (https://matplotlib.org/) -->
<svg height="101.185313pt" version="1.1" viewBox="0 0 108.095403 101.185313" width="108.095403pt" xmlns="http://www.w3.org/2000/svg" xmlns:xlink="http://www.w3.org/1999/xlink">
 <metadata>
  <rdf:RDF xmlns:cc="http://creativecommons.org/ns#" xmlns:dc="http://purl.org/dc/elements/1.1/" xmlns:rdf="http://www.w3.org/1999/02/22-rdf-syntax-ns#">
   <cc:Work>
    <dc:type rdf:resource="http://purl.org/dc/dcmitype/StillImage"/>
    <dc:date>2020-12-08T00:53:17.511634</dc:date>
    <dc:format>image/svg+xml</dc:format>
    <dc:creator>
     <cc:Agent>
      <dc:title>Matplotlib v3.3.0, https://matplotlib.org/</dc:title>
     </cc:Agent>
    </dc:creator>
   </cc:Work>
  </rdf:RDF>
 </metadata>
 <defs>
  <style type="text/css">*{stroke-linecap:butt;stroke-linejoin:round;}</style>
 </defs>
 <g id="figure_1">
  <g id="patch_1">
   <path d="M 0 101.185313 
L 108.095403 101.185313 
L 108.095403 0 
L 0 0 
z
" style="fill:none;"/>
  </g>
  <g id="axes_1">
   <g id="patch_2">
    <path d="M 23.421875 81.54 
L 107.121875 81.54 
L 107.121875 0 
L 23.421875 0 
z
" style="fill:none;"/>
   </g>
   <g id="matplotlib.axis_1">
    <g id="xtick_1">
     <g id="line2d_1">
      <defs>
       <path d="M 0 0 
L 0 -3.5 
" id="m64073626fc" style="stroke:#000000;stroke-width:0.5;"/>
      </defs>
      <g>
       <use style="stroke:#000000;stroke-width:0.5;" x="26.075216" xlink:href="#m64073626fc" y="81.54"/>
      </g>
     </g>
     <g id="line2d_2">
      <defs>
       <path d="M 0 0 
L 0 3.5 
" id="md9c72078a1" style="stroke:#000000;stroke-width:0.5;"/>
      </defs>
      <g>
       <use style="stroke:#000000;stroke-width:0.5;" x="26.075216" xlink:href="#md9c72078a1" y="0"/>
      </g>
     </g>
     <g id="text_1">
      <!-- 0 -->
      <g transform="translate(23.294747 89.697813)scale(0.1 -0.1)">
       <defs>
        <path d="M 4.15625 35.296875 
Q 4.15625 48 6.765625 55.734375 
Q 9.375 63.484375 14.515625 67.671875 
Q 19.671875 71.875 27.484375 71.875 
Q 33.25 71.875 37.59375 69.546875 
Q 41.9375 67.234375 44.765625 62.859375 
Q 47.609375 58.5 49.21875 52.21875 
Q 50.828125 45.953125 50.828125 35.296875 
Q 50.828125 22.703125 48.234375 14.96875 
Q 45.65625 7.234375 40.5 3 
Q 35.359375 -1.21875 27.484375 -1.21875 
Q 17.140625 -1.21875 11.234375 6.203125 
Q 4.15625 15.140625 4.15625 35.296875 
z
M 13.1875 35.296875 
Q 13.1875 17.671875 17.3125 11.828125 
Q 21.4375 6 27.484375 6 
Q 33.546875 6 37.671875 11.859375 
Q 41.796875 17.71875 41.796875 35.296875 
Q 41.796875 52.984375 37.671875 58.78125 
Q 33.546875 64.59375 27.390625 64.59375 
Q 21.34375 64.59375 17.71875 59.46875 
Q 13.1875 52.9375 13.1875 35.296875 
z
" id="ArialMT-48"/>
       </defs>
       <use xlink:href="#ArialMT-48"/>
      </g>
     </g>
    </g>
    <g id="xtick_2">
     <g id="line2d_3">
      <g>
       <use style="stroke:#000000;stroke-width:0.5;" x="50.63481" xlink:href="#m64073626fc" y="81.54"/>
      </g>
     </g>
     <g id="line2d_4">
      <g>
       <use style="stroke:#000000;stroke-width:0.5;" x="50.63481" xlink:href="#md9c72078a1" y="0"/>
      </g>
     </g>
     <g id="text_2">
      <!-- 100 -->
      <g transform="translate(42.293403 89.697813)scale(0.1 -0.1)">
       <defs>
        <path d="M 37.25 0 
L 28.46875 0 
L 28.46875 56 
Q 25.296875 52.984375 20.140625 49.953125 
Q 14.984375 46.921875 10.890625 45.40625 
L 10.890625 53.90625 
Q 18.265625 57.375 23.78125 62.296875 
Q 29.296875 67.234375 31.59375 71.875 
L 37.25 71.875 
z
" id="ArialMT-49"/>
       </defs>
       <use xlink:href="#ArialMT-49"/>
       <use x="55.615234" xlink:href="#ArialMT-48"/>
       <use x="111.230469" xlink:href="#ArialMT-48"/>
      </g>
     </g>
    </g>
    <g id="xtick_3">
     <g id="line2d_5">
      <g>
       <use style="stroke:#000000;stroke-width:0.5;" x="75.194403" xlink:href="#m64073626fc" y="81.54"/>
      </g>
     </g>
     <g id="line2d_6">
      <g>
       <use style="stroke:#000000;stroke-width:0.5;" x="75.194403" xlink:href="#md9c72078a1" y="0"/>
      </g>
     </g>
     <g id="text_3">
      <!-- 200 -->
      <g transform="translate(66.852997 89.697813)scale(0.1 -0.1)">
       <defs>
        <path d="M 50.34375 8.453125 
L 50.34375 0 
L 3.03125 0 
Q 2.9375 3.171875 4.046875 6.109375 
Q 5.859375 10.9375 9.828125 15.625 
Q 13.8125 20.3125 21.34375 26.46875 
Q 33.015625 36.03125 37.109375 41.625 
Q 41.21875 47.21875 41.21875 52.203125 
Q 41.21875 57.421875 37.46875 61 
Q 33.734375 64.59375 27.734375 64.59375 
Q 21.390625 64.59375 17.578125 60.78125 
Q 13.765625 56.984375 13.71875 50.25 
L 4.6875 51.171875 
Q 5.609375 61.28125 11.65625 66.578125 
Q 17.71875 71.875 27.9375 71.875 
Q 38.234375 71.875 44.234375 66.15625 
Q 50.25 60.453125 50.25 52 
Q 50.25 47.703125 48.484375 43.546875 
Q 46.734375 39.40625 42.65625 34.8125 
Q 38.578125 30.21875 29.109375 22.21875 
Q 21.1875 15.578125 18.9375 13.203125 
Q 16.703125 10.84375 15.234375 8.453125 
z
" id="ArialMT-50"/>
       </defs>
       <use xlink:href="#ArialMT-50"/>
       <use x="55.615234" xlink:href="#ArialMT-48"/>
       <use x="111.230469" xlink:href="#ArialMT-48"/>
      </g>
     </g>
    </g>
    <g id="xtick_4">
     <g id="line2d_7">
      <g>
       <use style="stroke:#000000;stroke-width:0.5;" x="99.753997" xlink:href="#m64073626fc" y="81.54"/>
      </g>
     </g>
     <g id="line2d_8">
      <g>
       <use style="stroke:#000000;stroke-width:0.5;" x="99.753997" xlink:href="#md9c72078a1" y="0"/>
      </g>
     </g>
     <g id="text_4">
      <!-- 300 -->
      <g transform="translate(91.412591 89.697813)scale(0.1 -0.1)">
       <defs>
        <path d="M 4.203125 18.890625 
L 12.984375 20.0625 
Q 14.5 12.59375 18.140625 9.296875 
Q 21.78125 6 27 6 
Q 33.203125 6 37.46875 10.296875 
Q 41.75 14.59375 41.75 20.953125 
Q 41.75 27 37.796875 30.921875 
Q 33.84375 34.859375 27.734375 34.859375 
Q 25.25 34.859375 21.53125 33.890625 
L 22.515625 41.609375 
Q 23.390625 41.5 23.921875 41.5 
Q 29.546875 41.5 34.03125 44.421875 
Q 38.53125 47.359375 38.53125 53.46875 
Q 38.53125 58.296875 35.25 61.46875 
Q 31.984375 64.65625 26.8125 64.65625 
Q 21.6875 64.65625 18.265625 61.421875 
Q 14.84375 58.203125 13.875 51.765625 
L 5.078125 53.328125 
Q 6.6875 62.15625 12.390625 67.015625 
Q 18.109375 71.875 26.609375 71.875 
Q 32.46875 71.875 37.390625 69.359375 
Q 42.328125 66.84375 44.9375 62.5 
Q 47.5625 58.15625 47.5625 53.265625 
Q 47.5625 48.640625 45.0625 44.828125 
Q 42.578125 41.015625 37.703125 38.765625 
Q 44.046875 37.3125 47.5625 32.6875 
Q 51.078125 28.078125 51.078125 21.140625 
Q 51.078125 11.765625 44.234375 5.25 
Q 37.40625 -1.265625 26.953125 -1.265625 
Q 17.53125 -1.265625 11.296875 4.34375 
Q 5.078125 9.96875 4.203125 18.890625 
z
" id="ArialMT-51"/>
       </defs>
       <use xlink:href="#ArialMT-51"/>
       <use x="55.615234" xlink:href="#ArialMT-48"/>
       <use x="111.230469" xlink:href="#ArialMT-48"/>
      </g>
     </g>
    </g>
    <g id="xtick_5">
     <g id="line2d_9">
      <defs>
       <path d="M 0 0 
L 0 -2 
" id="ma2a1481b84" style="stroke:#000000;stroke-width:0.5;"/>
      </defs>
      <g>
       <use style="stroke:#000000;stroke-width:0.5;" x="30.987135" xlink:href="#ma2a1481b84" y="81.54"/>
      </g>
     </g>
     <g id="line2d_10">
      <defs>
       <path d="M 0 0 
L 0 2 
" id="m04196e9431" style="stroke:#000000;stroke-width:0.5;"/>
      </defs>
      <g>
       <use style="stroke:#000000;stroke-width:0.5;" x="30.987135" xlink:href="#m04196e9431" y="0"/>
      </g>
     </g>
    </g>
    <g id="xtick_6">
     <g id="line2d_11">
      <g>
       <use style="stroke:#000000;stroke-width:0.5;" x="35.899054" xlink:href="#ma2a1481b84" y="81.54"/>
      </g>
     </g>
     <g id="line2d_12">
      <g>
       <use style="stroke:#000000;stroke-width:0.5;" x="35.899054" xlink:href="#m04196e9431" y="0"/>
      </g>
     </g>
    </g>
    <g id="xtick_7">
     <g id="line2d_13">
      <g>
       <use style="stroke:#000000;stroke-width:0.5;" x="40.810972" xlink:href="#ma2a1481b84" y="81.54"/>
      </g>
     </g>
     <g id="line2d_14">
      <g>
       <use style="stroke:#000000;stroke-width:0.5;" x="40.810972" xlink:href="#m04196e9431" y="0"/>
      </g>
     </g>
    </g>
    <g id="xtick_8">
     <g id="line2d_15">
      <g>
       <use style="stroke:#000000;stroke-width:0.5;" x="45.722891" xlink:href="#ma2a1481b84" y="81.54"/>
      </g>
     </g>
     <g id="line2d_16">
      <g>
       <use style="stroke:#000000;stroke-width:0.5;" x="45.722891" xlink:href="#m04196e9431" y="0"/>
      </g>
     </g>
    </g>
    <g id="xtick_9">
     <g id="line2d_17">
      <g>
       <use style="stroke:#000000;stroke-width:0.5;" x="55.546728" xlink:href="#ma2a1481b84" y="81.54"/>
      </g>
     </g>
     <g id="line2d_18">
      <g>
       <use style="stroke:#000000;stroke-width:0.5;" x="55.546728" xlink:href="#m04196e9431" y="0"/>
      </g>
     </g>
    </g>
    <g id="xtick_10">
     <g id="line2d_19">
      <g>
       <use style="stroke:#000000;stroke-width:0.5;" x="60.458647" xlink:href="#ma2a1481b84" y="81.54"/>
      </g>
     </g>
     <g id="line2d_20">
      <g>
       <use style="stroke:#000000;stroke-width:0.5;" x="60.458647" xlink:href="#m04196e9431" y="0"/>
      </g>
     </g>
    </g>
    <g id="xtick_11">
     <g id="line2d_21">
      <g>
       <use style="stroke:#000000;stroke-width:0.5;" x="65.370566" xlink:href="#ma2a1481b84" y="81.54"/>
      </g>
     </g>
     <g id="line2d_22">
      <g>
       <use style="stroke:#000000;stroke-width:0.5;" x="65.370566" xlink:href="#m04196e9431" y="0"/>
      </g>
     </g>
    </g>
    <g id="xtick_12">
     <g id="line2d_23">
      <g>
       <use style="stroke:#000000;stroke-width:0.5;" x="70.282485" xlink:href="#ma2a1481b84" y="81.54"/>
      </g>
     </g>
     <g id="line2d_24">
      <g>
       <use style="stroke:#000000;stroke-width:0.5;" x="70.282485" xlink:href="#m04196e9431" y="0"/>
      </g>
     </g>
    </g>
    <g id="xtick_13">
     <g id="line2d_25">
      <g>
       <use style="stroke:#000000;stroke-width:0.5;" x="80.106322" xlink:href="#ma2a1481b84" y="81.54"/>
      </g>
     </g>
     <g id="line2d_26">
      <g>
       <use style="stroke:#000000;stroke-width:0.5;" x="80.106322" xlink:href="#m04196e9431" y="0"/>
      </g>
     </g>
    </g>
    <g id="xtick_14">
     <g id="line2d_27">
      <g>
       <use style="stroke:#000000;stroke-width:0.5;" x="85.018241" xlink:href="#ma2a1481b84" y="81.54"/>
      </g>
     </g>
     <g id="line2d_28">
      <g>
       <use style="stroke:#000000;stroke-width:0.5;" x="85.018241" xlink:href="#m04196e9431" y="0"/>
      </g>
     </g>
    </g>
    <g id="xtick_15">
     <g id="line2d_29">
      <g>
       <use style="stroke:#000000;stroke-width:0.5;" x="89.930159" xlink:href="#ma2a1481b84" y="81.54"/>
      </g>
     </g>
     <g id="line2d_30">
      <g>
       <use style="stroke:#000000;stroke-width:0.5;" x="89.930159" xlink:href="#m04196e9431" y="0"/>
      </g>
     </g>
    </g>
    <g id="xtick_16">
     <g id="line2d_31">
      <g>
       <use style="stroke:#000000;stroke-width:0.5;" x="94.842078" xlink:href="#ma2a1481b84" y="81.54"/>
      </g>
     </g>
     <g id="line2d_32">
      <g>
       <use style="stroke:#000000;stroke-width:0.5;" x="94.842078" xlink:href="#m04196e9431" y="0"/>
      </g>
     </g>
    </g>
    <g id="xtick_17">
     <g id="line2d_33">
      <g>
       <use style="stroke:#000000;stroke-width:0.5;" x="104.665916" xlink:href="#ma2a1481b84" y="81.54"/>
      </g>
     </g>
     <g id="line2d_34">
      <g>
       <use style="stroke:#000000;stroke-width:0.5;" x="104.665916" xlink:href="#m04196e9431" y="0"/>
      </g>
     </g>
    </g>
    <g id="text_5">
     <!-- $\it{T}$ (K) -->
     <g transform="translate(54.121875 98.985313)scale(0.1 -0.1)">
      <defs>
       <path d="M 5.90625 72.90625 
L 67.578125 72.90625 
L 66.015625 64.59375 
L 39.984375 64.59375 
L 27.484375 0 
L 17.578125 0 
L 30.078125 64.59375 
L 4.296875 64.59375 
z
" id="DejaVuSans-Oblique-84"/>
       <path id="ArialMT-32"/>
       <path d="M 23.390625 -21.046875 
Q 16.109375 -11.859375 11.078125 0.4375 
Q 6.0625 12.75 6.0625 25.921875 
Q 6.0625 37.546875 9.8125 48.1875 
Q 14.203125 60.546875 23.390625 72.796875 
L 29.6875 72.796875 
Q 23.78125 62.640625 21.875 58.296875 
Q 18.890625 51.5625 17.1875 44.234375 
Q 15.09375 35.109375 15.09375 25.875 
Q 15.09375 2.390625 29.6875 -21.046875 
z
" id="ArialMT-40"/>
       <path d="M 7.328125 0 
L 7.328125 71.578125 
L 16.796875 71.578125 
L 16.796875 36.078125 
L 52.34375 71.578125 
L 65.1875 71.578125 
L 35.15625 42.578125 
L 66.5 0 
L 54 0 
L 28.515625 36.234375 
L 16.796875 24.8125 
L 16.796875 0 
z
" id="ArialMT-75"/>
       <path d="M 12.359375 -21.046875 
L 6.0625 -21.046875 
Q 20.65625 2.390625 20.65625 25.875 
Q 20.65625 35.0625 18.5625 44.09375 
Q 16.890625 51.421875 13.921875 58.15625 
Q 12.015625 62.546875 6.0625 72.796875 
L 12.359375 72.796875 
Q 21.53125 60.546875 25.921875 48.1875 
Q 29.6875 37.546875 29.6875 25.921875 
Q 29.6875 12.75 24.625 0.4375 
Q 19.578125 -11.859375 12.359375 -21.046875 
z
" id="ArialMT-41"/>
      </defs>
      <use transform="translate(0 0.09375)" xlink:href="#DejaVuSans-Oblique-84"/>
      <use transform="translate(61.083984 0.09375)" xlink:href="#ArialMT-32"/>
      <use transform="translate(88.867188 0.09375)" xlink:href="#ArialMT-40"/>
      <use transform="translate(122.167969 0.09375)" xlink:href="#ArialMT-75"/>
      <use transform="translate(188.867188 0.09375)" xlink:href="#ArialMT-41"/>
     </g>
    </g>
   </g>
   <g id="matplotlib.axis_2">
    <g id="ytick_1">
     <g id="line2d_35">
      <defs>
       <path d="M 0 0 
L 3.5 0 
" id="ma2cf554137" style="stroke:#000000;stroke-width:0.5;"/>
      </defs>
      <g>
       <use style="stroke:#000000;stroke-width:0.5;" x="23.421875" xlink:href="#ma2cf554137" y="77.834128"/>
      </g>
     </g>
     <g id="line2d_36">
      <defs>
       <path d="M 0 0 
L -3.5 0 
" id="m1153cfb54a" style="stroke:#000000;stroke-width:0.5;"/>
      </defs>
      <g>
       <use style="stroke:#000000;stroke-width:0.5;" x="107.121875" xlink:href="#m1153cfb54a" y="77.834128"/>
      </g>
     </g>
     <g id="text_6">
      <!-- 0 -->
      <g transform="translate(16.860937 81.413035)scale(0.1 -0.1)">
       <use xlink:href="#ArialMT-48"/>
      </g>
     </g>
    </g>
    <g id="ytick_2">
     <g id="line2d_37">
      <g>
       <use style="stroke:#000000;stroke-width:0.5;" x="23.421875" xlink:href="#ma2cf554137" y="54.467113"/>
      </g>
     </g>
     <g id="line2d_38">
      <g>
       <use style="stroke:#000000;stroke-width:0.5;" x="107.121875" xlink:href="#m1153cfb54a" y="54.467113"/>
      </g>
     </g>
     <g id="text_7">
      <!-- 20 -->
      <g transform="translate(11.3 58.046019)scale(0.1 -0.1)">
       <use xlink:href="#ArialMT-50"/>
       <use x="55.615234" xlink:href="#ArialMT-48"/>
      </g>
     </g>
    </g>
    <g id="ytick_3">
     <g id="line2d_39">
      <g>
       <use style="stroke:#000000;stroke-width:0.5;" x="23.421875" xlink:href="#ma2cf554137" y="31.100097"/>
      </g>
     </g>
     <g id="line2d_40">
      <g>
       <use style="stroke:#000000;stroke-width:0.5;" x="107.121875" xlink:href="#m1153cfb54a" y="31.100097"/>
      </g>
     </g>
     <g id="text_8">
      <!-- 40 -->
      <g transform="translate(11.3 34.679003)scale(0.1 -0.1)">
       <defs>
        <path d="M 32.328125 0 
L 32.328125 17.140625 
L 1.265625 17.140625 
L 1.265625 25.203125 
L 33.9375 71.578125 
L 41.109375 71.578125 
L 41.109375 25.203125 
L 50.78125 25.203125 
L 50.78125 17.140625 
L 41.109375 17.140625 
L 41.109375 0 
z
M 32.328125 25.203125 
L 32.328125 57.46875 
L 9.90625 25.203125 
z
" id="ArialMT-52"/>
       </defs>
       <use xlink:href="#ArialMT-52"/>
       <use x="55.615234" xlink:href="#ArialMT-48"/>
      </g>
     </g>
    </g>
    <g id="ytick_4">
     <g id="line2d_41">
      <g>
       <use style="stroke:#000000;stroke-width:0.5;" x="23.421875" xlink:href="#ma2cf554137" y="7.733081"/>
      </g>
     </g>
     <g id="line2d_42">
      <g>
       <use style="stroke:#000000;stroke-width:0.5;" x="107.121875" xlink:href="#m1153cfb54a" y="7.733081"/>
      </g>
     </g>
     <g id="text_9">
      <!-- 60 -->
      <g transform="translate(11.3 11.311987)scale(0.1 -0.1)">
       <defs>
        <path d="M 49.75 54.046875 
L 41.015625 53.375 
Q 39.84375 58.546875 37.703125 60.890625 
Q 34.125 64.65625 28.90625 64.65625 
Q 24.703125 64.65625 21.53125 62.3125 
Q 17.390625 59.28125 14.984375 53.46875 
Q 12.59375 47.65625 12.5 36.921875 
Q 15.671875 41.75 20.265625 44.09375 
Q 24.859375 46.4375 29.890625 46.4375 
Q 38.671875 46.4375 44.84375 39.96875 
Q 51.03125 33.5 51.03125 23.25 
Q 51.03125 16.5 48.125 10.71875 
Q 45.21875 4.9375 40.140625 1.859375 
Q 35.0625 -1.21875 28.609375 -1.21875 
Q 17.625 -1.21875 10.6875 6.859375 
Q 3.765625 14.9375 3.765625 33.5 
Q 3.765625 54.25 11.421875 63.671875 
Q 18.109375 71.875 29.4375 71.875 
Q 37.890625 71.875 43.28125 67.140625 
Q 48.6875 62.40625 49.75 54.046875 
z
M 13.875 23.1875 
Q 13.875 18.65625 15.796875 14.5 
Q 17.71875 10.359375 21.1875 8.171875 
Q 24.65625 6 28.46875 6 
Q 34.03125 6 38.03125 10.484375 
Q 42.046875 14.984375 42.046875 22.703125 
Q 42.046875 30.125 38.078125 34.390625 
Q 34.125 38.671875 28.125 38.671875 
Q 22.171875 38.671875 18.015625 34.390625 
Q 13.875 30.125 13.875 23.1875 
z
" id="ArialMT-54"/>
       </defs>
       <use xlink:href="#ArialMT-54"/>
       <use x="55.615234" xlink:href="#ArialMT-48"/>
      </g>
     </g>
    </g>
    <g id="ytick_5">
     <g id="line2d_43">
      <defs>
       <path d="M 0 0 
L 2 0 
" id="mf66ef52920" style="stroke:#000000;stroke-width:0.5;"/>
      </defs>
      <g>
       <use style="stroke:#000000;stroke-width:0.5;" x="23.421875" xlink:href="#mf66ef52920" y="71.992374"/>
      </g>
     </g>
     <g id="line2d_44">
      <defs>
       <path d="M 0 0 
L -2 0 
" id="m9c55502a4d" style="stroke:#000000;stroke-width:0.5;"/>
      </defs>
      <g>
       <use style="stroke:#000000;stroke-width:0.5;" x="107.121875" xlink:href="#m9c55502a4d" y="71.992374"/>
      </g>
     </g>
    </g>
    <g id="ytick_6">
     <g id="line2d_45">
      <g>
       <use style="stroke:#000000;stroke-width:0.5;" x="23.421875" xlink:href="#mf66ef52920" y="66.15062"/>
      </g>
     </g>
     <g id="line2d_46">
      <g>
       <use style="stroke:#000000;stroke-width:0.5;" x="107.121875" xlink:href="#m9c55502a4d" y="66.15062"/>
      </g>
     </g>
    </g>
    <g id="ytick_7">
     <g id="line2d_47">
      <g>
       <use style="stroke:#000000;stroke-width:0.5;" x="23.421875" xlink:href="#mf66ef52920" y="60.308867"/>
      </g>
     </g>
     <g id="line2d_48">
      <g>
       <use style="stroke:#000000;stroke-width:0.5;" x="107.121875" xlink:href="#m9c55502a4d" y="60.308867"/>
      </g>
     </g>
    </g>
    <g id="ytick_8">
     <g id="line2d_49">
      <g>
       <use style="stroke:#000000;stroke-width:0.5;" x="23.421875" xlink:href="#mf66ef52920" y="48.625359"/>
      </g>
     </g>
     <g id="line2d_50">
      <g>
       <use style="stroke:#000000;stroke-width:0.5;" x="107.121875" xlink:href="#m9c55502a4d" y="48.625359"/>
      </g>
     </g>
    </g>
    <g id="ytick_9">
     <g id="line2d_51">
      <g>
       <use style="stroke:#000000;stroke-width:0.5;" x="23.421875" xlink:href="#mf66ef52920" y="42.783605"/>
      </g>
     </g>
     <g id="line2d_52">
      <g>
       <use style="stroke:#000000;stroke-width:0.5;" x="107.121875" xlink:href="#m9c55502a4d" y="42.783605"/>
      </g>
     </g>
    </g>
    <g id="ytick_10">
     <g id="line2d_53">
      <g>
       <use style="stroke:#000000;stroke-width:0.5;" x="23.421875" xlink:href="#mf66ef52920" y="36.941851"/>
      </g>
     </g>
     <g id="line2d_54">
      <g>
       <use style="stroke:#000000;stroke-width:0.5;" x="107.121875" xlink:href="#m9c55502a4d" y="36.941851"/>
      </g>
     </g>
    </g>
    <g id="ytick_11">
     <g id="line2d_55">
      <g>
       <use style="stroke:#000000;stroke-width:0.5;" x="23.421875" xlink:href="#mf66ef52920" y="25.258343"/>
      </g>
     </g>
     <g id="line2d_56">
      <g>
       <use style="stroke:#000000;stroke-width:0.5;" x="107.121875" xlink:href="#m9c55502a4d" y="25.258343"/>
      </g>
     </g>
    </g>
    <g id="ytick_12">
     <g id="line2d_57">
      <g>
       <use style="stroke:#000000;stroke-width:0.5;" x="23.421875" xlink:href="#mf66ef52920" y="19.416589"/>
      </g>
     </g>
     <g id="line2d_58">
      <g>
       <use style="stroke:#000000;stroke-width:0.5;" x="107.121875" xlink:href="#m9c55502a4d" y="19.416589"/>
      </g>
     </g>
    </g>
    <g id="ytick_13">
     <g id="line2d_59">
      <g>
       <use style="stroke:#000000;stroke-width:0.5;" x="23.421875" xlink:href="#mf66ef52920" y="13.574835"/>
      </g>
     </g>
     <g id="line2d_60">
      <g>
       <use style="stroke:#000000;stroke-width:0.5;" x="107.121875" xlink:href="#m9c55502a4d" y="13.574835"/>
      </g>
     </g>
    </g>
    <g id="ytick_14">
     <g id="line2d_61">
      <g>
       <use style="stroke:#000000;stroke-width:0.5;" x="23.421875" xlink:href="#mf66ef52920" y="1.891327"/>
      </g>
     </g>
     <g id="line2d_62">
      <g>
       <use style="stroke:#000000;stroke-width:0.5;" x="107.121875" xlink:href="#m9c55502a4d" y="1.891327"/>
      </g>
     </g>
    </g>
    <g id="text_10">
     <!-- $\it{μ}$ ( $cm^2/V\cdot s$) -->
     <g transform="translate(9.1 71.57)rotate(-90)scale(0.1 -0.1)">
      <defs>
       <path d="M -1.3125 -20.796875 
L 13.375 54.6875 
L 22.40625 54.6875 
L 15.765625 20.65625 
Q 15.578125 19.625 15.421875 18.359375 
Q 15.28125 17.09375 15.28125 15.828125 
Q 15.28125 11.28125 18.140625 8.828125 
Q 21 6.390625 26.3125 6.390625 
Q 33.546875 6.390625 37.984375 10.484375 
Q 42.4375 14.59375 44 22.796875 
L 50.203125 54.6875 
L 59.1875 54.6875 
L 51.03125 12.640625 
Q 50.828125 11.71875 50.75 11.03125 
Q 50.6875 10.359375 50.6875 9.8125 
Q 50.6875 8.296875 51.296875 7.59375 
Q 51.90625 6.890625 53.21875 6.890625 
Q 53.71875 6.890625 54.5625 7.125 
Q 55.421875 7.375 56.984375 8.015625 
L 55.609375 0.78125 
Q 53.46875 -0.296875 51.515625 -0.859375 
Q 49.5625 -1.421875 47.703125 -1.421875 
Q 44.484375 -1.421875 42.65625 0.625 
Q 40.828125 2.6875 40.828125 6.296875 
Q 38.09375 2.390625 34.296875 0.484375 
Q 30.515625 -1.421875 25.390625 -1.421875 
Q 20.84375 -1.421875 17.453125 0.671875 
Q 14.0625 2.78125 12.984375 6.203125 
L 7.71875 -20.796875 
z
" id="DejaVuSans-Oblique-956"/>
       <path d="M 53.609375 52.59375 
L 51.8125 43.703125 
Q 48.578125 46.046875 44.9375 47.21875 
Q 41.3125 48.390625 37.40625 48.390625 
Q 33.109375 48.390625 29.21875 46.875 
Q 25.34375 45.359375 22.703125 42.578125 
Q 18.5 38.328125 16.203125 32.609375 
Q 13.921875 26.90625 13.921875 20.796875 
Q 13.921875 13.421875 17.609375 9.8125 
Q 21.296875 6.203125 28.8125 6.203125 
Q 32.515625 6.203125 36.6875 7.328125 
Q 40.875 8.453125 45.40625 10.6875 
L 43.703125 1.8125 
Q 39.796875 0.203125 35.671875 -0.609375 
Q 31.546875 -1.421875 27.203125 -1.421875 
Q 16.3125 -1.421875 10.453125 4.015625 
Q 4.59375 9.46875 4.59375 19.578125 
Q 4.59375 28.078125 7.640625 35.234375 
Q 10.6875 42.390625 16.703125 48.09375 
Q 20.796875 52 26.3125 54 
Q 31.84375 56 38.375 56 
Q 42.1875 56 45.9375 55.140625 
Q 49.703125 54.296875 53.609375 52.59375 
z
" id="DejaVuSans-Oblique-99"/>
       <path d="M 89.796875 33.015625 
L 83.40625 0 
L 74.421875 0 
L 80.71875 32.71875 
Q 81.109375 34.8125 81.296875 36.328125 
Q 81.5 37.84375 81.5 38.921875 
Q 81.5 43.3125 79.046875 45.75 
Q 76.609375 48.1875 72.21875 48.1875 
Q 65.671875 48.1875 60.546875 43.28125 
Q 55.421875 38.375 53.90625 30.515625 
L 47.90625 0 
L 38.921875 0 
L 45.3125 32.71875 
Q 45.703125 34.515625 45.890625 36.046875 
Q 46.09375 37.59375 46.09375 38.8125 
Q 46.09375 43.265625 43.65625 45.71875 
Q 41.21875 48.1875 36.921875 48.1875 
Q 30.28125 48.1875 25.140625 43.28125 
Q 20.015625 38.375 18.5 30.515625 
L 12.5 0 
L 3.515625 0 
L 14.203125 54.6875 
L 23.1875 54.6875 
L 21.484375 46.1875 
Q 25.140625 50.984375 30.046875 53.484375 
Q 34.96875 56 40.578125 56 
Q 46.53125 56 50.359375 52.875 
Q 54.203125 49.75 54.984375 44.1875 
Q 59.078125 49.953125 64.46875 52.96875 
Q 69.875 56 75.875 56 
Q 82.90625 56 86.734375 51.953125 
Q 90.578125 47.90625 90.578125 40.484375 
Q 90.578125 38.875 90.375 36.9375 
Q 90.1875 35.015625 89.796875 33.015625 
z
" id="DejaVuSans-Oblique-109"/>
       <path d="M 19.1875 8.296875 
L 53.609375 8.296875 
L 53.609375 0 
L 7.328125 0 
L 7.328125 8.296875 
Q 12.9375 14.109375 22.625 23.890625 
Q 32.328125 33.6875 34.8125 36.53125 
Q 39.546875 41.84375 41.421875 45.53125 
Q 43.3125 49.21875 43.3125 52.78125 
Q 43.3125 58.59375 39.234375 62.25 
Q 35.15625 65.921875 28.609375 65.921875 
Q 23.96875 65.921875 18.8125 64.3125 
Q 13.671875 62.703125 7.8125 59.421875 
L 7.8125 69.390625 
Q 13.765625 71.78125 18.9375 73 
Q 24.125 74.21875 28.421875 74.21875 
Q 39.75 74.21875 46.484375 68.546875 
Q 53.21875 62.890625 53.21875 53.421875 
Q 53.21875 48.921875 51.53125 44.890625 
Q 49.859375 40.875 45.40625 35.40625 
Q 44.1875 33.984375 37.640625 27.21875 
Q 31.109375 20.453125 19.1875 8.296875 
z
" id="DejaVuSans-50"/>
       <path d="M 25.390625 72.90625 
L 33.6875 72.90625 
L 8.296875 -9.28125 
L 0 -9.28125 
z
" id="DejaVuSans-47"/>
       <path d="M 20.609375 0 
L 7.8125 72.90625 
L 17.484375 72.90625 
L 28.078125 10.203125 
L 63.484375 72.90625 
L 74.21875 72.90625 
L 32.078125 0 
z
" id="DejaVuSans-Oblique-86"/>
       <path d="M 10.6875 40.921875 
L 21 40.921875 
L 21 28.515625 
L 10.6875 28.515625 
z
" id="DejaVuSans-8901"/>
       <path d="M 50 53.078125 
L 48.296875 44.578125 
Q 44.734375 46.53125 40.765625 47.5 
Q 36.8125 48.484375 32.625 48.484375 
Q 25.53125 48.484375 21.453125 46.0625 
Q 17.390625 43.65625 17.390625 39.5 
Q 17.390625 34.671875 26.859375 32.078125 
Q 27.59375 31.890625 27.9375 31.78125 
L 30.8125 30.90625 
Q 39.796875 28.421875 42.796875 25.6875 
Q 45.796875 22.953125 45.796875 18.21875 
Q 45.796875 9.515625 38.890625 4.046875 
Q 31.984375 -1.421875 20.796875 -1.421875 
Q 16.453125 -1.421875 11.671875 -0.578125 
Q 6.890625 0.25 1.125 2 
L 2.875 11.28125 
Q 7.8125 8.734375 12.59375 7.421875 
Q 17.390625 6.109375 21.78125 6.109375 
Q 28.375 6.109375 32.5 8.9375 
Q 36.625 11.765625 36.625 16.109375 
Q 36.625 20.796875 25.78125 23.6875 
L 24.859375 23.921875 
L 21.78125 24.703125 
Q 14.9375 26.515625 11.765625 29.46875 
Q 8.59375 32.421875 8.59375 37.015625 
Q 8.59375 45.75 15.15625 50.875 
Q 21.734375 56 33.015625 56 
Q 37.453125 56 41.671875 55.265625 
Q 45.90625 54.546875 50 53.078125 
z
" id="DejaVuSans-Oblique-115"/>
      </defs>
      <use transform="translate(0 0.765625)" xlink:href="#DejaVuSans-Oblique-956"/>
      <use transform="translate(63.623047 0.765625)" xlink:href="#ArialMT-32"/>
      <use transform="translate(91.40625 0.765625)" xlink:href="#ArialMT-40"/>
      <use transform="translate(124.707031 0.765625)" xlink:href="#ArialMT-32"/>
      <use transform="translate(152.490234 0.765625)" xlink:href="#DejaVuSans-Oblique-99"/>
      <use transform="translate(207.470703 0.765625)" xlink:href="#DejaVuSans-Oblique-109"/>
      <use transform="translate(309.532708 39.046875)scale(0.7)" xlink:href="#DejaVuSans-50"/>
      <use transform="translate(356.803216 0.765625)" xlink:href="#DejaVuSans-47"/>
      <use transform="translate(390.494622 0.765625)" xlink:href="#DejaVuSans-Oblique-86"/>
      <use transform="translate(478.385247 0.765625)" xlink:href="#DejaVuSans-8901"/>
      <use transform="translate(529.654779 0.765625)" xlink:href="#DejaVuSans-Oblique-115"/>
      <use transform="translate(581.754388 0.765625)" xlink:href="#ArialMT-41"/>
     </g>
    </g>
   </g>
   <g id="line2d_63">
    <path clip-path="url(#pa1bda0e821)" d="M 27.057428 77.762186 
L 35.902664 77.833636 
L 43.273072 77.824479 
L 45.722793 77.818654 
L 48.181085 77.813968 
L 50.63761 77.801566 
L 62.921925 77.772091 
L 75.194673 77.73866 
L 87.483508 77.775982 
L 92.393732 77.757927 
L 99.768487 77.763862 
" style="fill:none;stroke:#984ea3;stroke-linecap:square;stroke-width:1.5;"/>
    <defs>
     <path d="M 0 0.75 
C 0.198902 0.75 0.389685 0.670975 0.53033 0.53033 
C 0.670975 0.389685 0.75 0.198902 0.75 0 
C 0.75 -0.198902 0.670975 -0.389685 0.53033 -0.53033 
C 0.389685 -0.670975 0.198902 -0.75 0 -0.75 
C -0.198902 -0.75 -0.389685 -0.670975 -0.53033 -0.53033 
C -0.670975 -0.389685 -0.75 -0.198902 -0.75 0 
C -0.75 0.198902 -0.670975 0.389685 -0.53033 0.53033 
C -0.389685 0.670975 -0.198902 0.75 0 0.75 
z
" id="m6cf67ef99f" style="stroke:#984ea3;"/>
    </defs>
    <g clip-path="url(#pa1bda0e821)">
     <use style="fill:#984ea3;stroke:#984ea3;" x="27.057428" xlink:href="#m6cf67ef99f" y="77.762186"/>
     <use style="fill:#984ea3;stroke:#984ea3;" x="35.902664" xlink:href="#m6cf67ef99f" y="77.833636"/>
     <use style="fill:#984ea3;stroke:#984ea3;" x="43.273072" xlink:href="#m6cf67ef99f" y="77.824479"/>
     <use style="fill:#984ea3;stroke:#984ea3;" x="45.722793" xlink:href="#m6cf67ef99f" y="77.818654"/>
     <use style="fill:#984ea3;stroke:#984ea3;" x="48.181085" xlink:href="#m6cf67ef99f" y="77.813968"/>
     <use style="fill:#984ea3;stroke:#984ea3;" x="50.63761" xlink:href="#m6cf67ef99f" y="77.801566"/>
     <use style="fill:#984ea3;stroke:#984ea3;" x="62.921925" xlink:href="#m6cf67ef99f" y="77.772091"/>
     <use style="fill:#984ea3;stroke:#984ea3;" x="75.194673" xlink:href="#m6cf67ef99f" y="77.73866"/>
     <use style="fill:#984ea3;stroke:#984ea3;" x="87.483508" xlink:href="#m6cf67ef99f" y="77.775982"/>
     <use style="fill:#984ea3;stroke:#984ea3;" x="92.393732" xlink:href="#m6cf67ef99f" y="77.757927"/>
     <use style="fill:#984ea3;stroke:#984ea3;" x="99.768487" xlink:href="#m6cf67ef99f" y="77.763862"/>
    </g>
   </g>
   <g id="line2d_64">
    <path clip-path="url(#pa1bda0e821)" d="M 27.057428 70.274506 
L 28.53373 73.695425 
L 30.985588 72.499031 
L 33.439042 70.751261 
L 35.902664 68.477314 
L 38.357936 64.342709 
L 40.816179 62.521328 
L 43.273072 62.805272 
L 45.722793 68.182759 
L 48.181085 69.671506 
L 50.63761 70.894702 
L 62.921925 76.082823 
L 75.194673 77.569154 
L 87.483508 77.741344 
L 92.393732 77.794737 
L 99.768487 77.783242 
" style="fill:none;stroke:#4daf4a;stroke-linecap:square;stroke-width:1.5;"/>
    <defs>
     <path d="M 0 0.75 
C 0.198902 0.75 0.389685 0.670975 0.53033 0.53033 
C 0.670975 0.389685 0.75 0.198902 0.75 0 
C 0.75 -0.198902 0.670975 -0.389685 0.53033 -0.53033 
C 0.389685 -0.670975 0.198902 -0.75 0 -0.75 
C -0.198902 -0.75 -0.389685 -0.670975 -0.53033 -0.53033 
C -0.670975 -0.389685 -0.75 -0.198902 -0.75 0 
C -0.75 0.198902 -0.670975 0.389685 -0.53033 0.53033 
C -0.389685 0.670975 -0.198902 0.75 0 0.75 
z
" id="mbb8baedb73" style="stroke:#4daf4a;"/>
    </defs>
    <g clip-path="url(#pa1bda0e821)">
     <use style="fill:#4daf4a;stroke:#4daf4a;" x="27.057428" xlink:href="#mbb8baedb73" y="70.274506"/>
     <use style="fill:#4daf4a;stroke:#4daf4a;" x="28.53373" xlink:href="#mbb8baedb73" y="73.695425"/>
     <use style="fill:#4daf4a;stroke:#4daf4a;" x="30.985588" xlink:href="#mbb8baedb73" y="72.499031"/>
     <use style="fill:#4daf4a;stroke:#4daf4a;" x="33.439042" xlink:href="#mbb8baedb73" y="70.751261"/>
     <use style="fill:#4daf4a;stroke:#4daf4a;" x="35.902664" xlink:href="#mbb8baedb73" y="68.477314"/>
     <use style="fill:#4daf4a;stroke:#4daf4a;" x="38.357936" xlink:href="#mbb8baedb73" y="64.342709"/>
     <use style="fill:#4daf4a;stroke:#4daf4a;" x="40.816179" xlink:href="#mbb8baedb73" y="62.521328"/>
     <use style="fill:#4daf4a;stroke:#4daf4a;" x="43.273072" xlink:href="#mbb8baedb73" y="62.805272"/>
     <use style="fill:#4daf4a;stroke:#4daf4a;" x="45.722793" xlink:href="#mbb8baedb73" y="68.182759"/>
     <use style="fill:#4daf4a;stroke:#4daf4a;" x="48.181085" xlink:href="#mbb8baedb73" y="69.671506"/>
     <use style="fill:#4daf4a;stroke:#4daf4a;" x="50.63761" xlink:href="#mbb8baedb73" y="70.894702"/>
     <use style="fill:#4daf4a;stroke:#4daf4a;" x="62.921925" xlink:href="#mbb8baedb73" y="76.082823"/>
     <use style="fill:#4daf4a;stroke:#4daf4a;" x="75.194673" xlink:href="#mbb8baedb73" y="77.569154"/>
     <use style="fill:#4daf4a;stroke:#4daf4a;" x="87.483508" xlink:href="#mbb8baedb73" y="77.741344"/>
     <use style="fill:#4daf4a;stroke:#4daf4a;" x="92.393732" xlink:href="#mbb8baedb73" y="77.794737"/>
     <use style="fill:#4daf4a;stroke:#4daf4a;" x="99.768487" xlink:href="#mbb8baedb73" y="77.783242"/>
    </g>
   </g>
   <g id="line2d_65">
    <path clip-path="url(#pa1bda0e821)" d="M 27.057428 3.706364 
L 28.53373 7.387743 
L 30.985588 6.654157 
L 33.439042 3.824701 
L 35.902664 5.351595 
L 38.357936 4.506861 
L 40.816179 7.830123 
L 43.273072 14.503095 
L 45.722793 31.090198 
L 48.181085 40.023831 
L 50.63761 47.955907 
L 62.921925 72.212452 
L 75.194673 77.178329 
L 87.483508 77.718143 
L 92.393732 77.787212 
" style="fill:none;stroke:#377eb8;stroke-linecap:square;stroke-width:1.5;"/>
    <defs>
     <path d="M 0 0.75 
C 0.198902 0.75 0.389685 0.670975 0.53033 0.53033 
C 0.670975 0.389685 0.75 0.198902 0.75 0 
C 0.75 -0.198902 0.670975 -0.389685 0.53033 -0.53033 
C 0.389685 -0.670975 0.198902 -0.75 0 -0.75 
C -0.198902 -0.75 -0.389685 -0.670975 -0.53033 -0.53033 
C -0.670975 -0.389685 -0.75 -0.198902 -0.75 0 
C -0.75 0.198902 -0.670975 0.389685 -0.53033 0.53033 
C -0.389685 0.670975 -0.198902 0.75 0 0.75 
z
" id="mf8293e849f" style="stroke:#377eb8;"/>
    </defs>
    <g clip-path="url(#pa1bda0e821)">
     <use style="fill:#377eb8;stroke:#377eb8;" x="27.057428" xlink:href="#mf8293e849f" y="3.706364"/>
     <use style="fill:#377eb8;stroke:#377eb8;" x="28.53373" xlink:href="#mf8293e849f" y="7.387743"/>
     <use style="fill:#377eb8;stroke:#377eb8;" x="30.985588" xlink:href="#mf8293e849f" y="6.654157"/>
     <use style="fill:#377eb8;stroke:#377eb8;" x="33.439042" xlink:href="#mf8293e849f" y="3.824701"/>
     <use style="fill:#377eb8;stroke:#377eb8;" x="35.902664" xlink:href="#mf8293e849f" y="5.351595"/>
     <use style="fill:#377eb8;stroke:#377eb8;" x="38.357936" xlink:href="#mf8293e849f" y="4.506861"/>
     <use style="fill:#377eb8;stroke:#377eb8;" x="40.816179" xlink:href="#mf8293e849f" y="7.830123"/>
     <use style="fill:#377eb8;stroke:#377eb8;" x="43.273072" xlink:href="#mf8293e849f" y="14.503095"/>
     <use style="fill:#377eb8;stroke:#377eb8;" x="45.722793" xlink:href="#mf8293e849f" y="31.090198"/>
     <use style="fill:#377eb8;stroke:#377eb8;" x="48.181085" xlink:href="#mf8293e849f" y="40.023831"/>
     <use style="fill:#377eb8;stroke:#377eb8;" x="50.63761" xlink:href="#mf8293e849f" y="47.955907"/>
     <use style="fill:#377eb8;stroke:#377eb8;" x="62.921925" xlink:href="#mf8293e849f" y="72.212452"/>
     <use style="fill:#377eb8;stroke:#377eb8;" x="75.194673" xlink:href="#mf8293e849f" y="77.178329"/>
     <use style="fill:#377eb8;stroke:#377eb8;" x="87.483508" xlink:href="#mf8293e849f" y="77.718143"/>
     <use style="fill:#377eb8;stroke:#377eb8;" x="92.393732" xlink:href="#mf8293e849f" y="77.787212"/>
    </g>
   </g>
   <g id="patch_3">
    <path d="M 23.421875 81.54 
L 23.421875 0 
" style="fill:none;stroke:#000000;stroke-linecap:square;stroke-linejoin:miter;stroke-width:0.5;"/>
   </g>
   <g id="patch_4">
    <path d="M 107.121875 81.54 
L 107.121875 0 
" style="fill:none;stroke:#000000;stroke-linecap:square;stroke-linejoin:miter;stroke-width:0.5;"/>
   </g>
   <g id="patch_5">
    <path d="M 23.421875 81.54 
L 107.121875 81.54 
" style="fill:none;stroke:#000000;stroke-linecap:square;stroke-linejoin:miter;stroke-width:0.5;"/>
   </g>
   <g id="patch_6">
    <path d="M 23.421875 0 
L 107.121875 0 
" style="fill:none;stroke:#000000;stroke-linecap:square;stroke-linejoin:miter;stroke-width:0.5;"/>
   </g>
  </g>
 </g>
 <defs>
  <clipPath id="pa1bda0e821">
   <rect height="81.54" width="83.7" x="23.421875" y="0"/>
  </clipPath>
 </defs>
</svg>
