<?xml version="1.0" encoding="utf-8" standalone="no"?>
<!DOCTYPE svg PUBLIC "-//W3C//DTD SVG 1.1//EN"
  "http://www.w3.org/Graphics/SVG/1.1/DTD/svg11.dtd">
<!-- Created with matplotlib (https://matplotlib.org/) -->
<svg height="132.34652pt" version="1.1" viewBox="0 0 141.7 132.34652" width="141.7pt" xmlns="http://www.w3.org/2000/svg" xmlns:xlink="http://www.w3.org/1999/xlink">
 <defs>
  <style type="text/css">
*{stroke-linecap:butt;stroke-linejoin:round;white-space:pre;}
  </style>
 </defs>
 <g id="figure_1">
  <g id="patch_1">
   <path d="M 0 132.34652 
L 141.7 132.34652 
L 141.7 0 
L 0 0 
z
" style="fill:none;"/>
  </g>
  <g id="axes_1">
   <g id="patch_2">
    <path d="M 30.1 112.701207 
L 141.7 112.701207 
L 141.7 3.981207 
L 30.1 3.981207 
z
" style="fill:none;"/>
   </g>
   <g id="matplotlib.axis_1">
    <g id="xtick_1">
     <g id="line2d_1">
      <defs>
       <path d="M 0 0 
L 0 -3.5 
" id="m05198337d2" style="stroke:#000000;stroke-width:0.8;"/>
      </defs>
      <g>
       <use style="stroke:#000000;stroke-width:0.8;" x="36.3" xlink:href="#m05198337d2" y="112.701207"/>
      </g>
     </g>
     <g id="line2d_2">
      <defs>
       <path d="M 0 0 
L 0 3.5 
" id="m748635b446" style="stroke:#000000;stroke-width:0.8;"/>
      </defs>
      <g>
       <use style="stroke:#000000;stroke-width:0.8;" x="36.3" xlink:href="#m748635b446" y="3.981207"/>
      </g>
     </g>
     <g id="text_1">
      <!-- −80 -->
      <defs>
       <path d="M 52.828125 31.203125 
L 5.5625 31.203125 
L 5.5625 39.40625 
L 52.828125 39.40625 
z
" id="ArialMT-8722"/>
       <path d="M 17.671875 38.8125 
Q 12.203125 40.828125 9.5625 44.53125 
Q 6.9375 48.25 6.9375 53.421875 
Q 6.9375 61.234375 12.546875 66.546875 
Q 18.171875 71.875 27.484375 71.875 
Q 36.859375 71.875 42.578125 66.421875 
Q 48.296875 60.984375 48.296875 53.171875 
Q 48.296875 48.1875 45.671875 44.5 
Q 43.0625 40.828125 37.75 38.8125 
Q 44.34375 36.671875 47.78125 31.875 
Q 51.21875 27.09375 51.21875 20.453125 
Q 51.21875 11.28125 44.71875 5.03125 
Q 38.234375 -1.21875 27.640625 -1.21875 
Q 17.046875 -1.21875 10.546875 5.046875 
Q 4.046875 11.328125 4.046875 20.703125 
Q 4.046875 27.6875 7.59375 32.390625 
Q 11.140625 37.109375 17.671875 38.8125 
z
M 15.921875 53.71875 
Q 15.921875 48.640625 19.1875 45.40625 
Q 22.46875 42.1875 27.6875 42.1875 
Q 32.765625 42.1875 36.015625 45.375 
Q 39.265625 48.578125 39.265625 53.21875 
Q 39.265625 58.0625 35.90625 61.359375 
Q 32.5625 64.65625 27.59375 64.65625 
Q 22.5625 64.65625 19.234375 61.421875 
Q 15.921875 58.203125 15.921875 53.71875 
z
M 13.09375 20.65625 
Q 13.09375 16.890625 14.875 13.375 
Q 16.65625 9.859375 20.171875 7.921875 
Q 23.6875 6 27.734375 6 
Q 34.03125 6 38.125 10.046875 
Q 42.234375 14.109375 42.234375 20.359375 
Q 42.234375 26.703125 38.015625 30.859375 
Q 33.796875 35.015625 27.4375 35.015625 
Q 21.234375 35.015625 17.15625 30.90625 
Q 13.09375 26.8125 13.09375 20.65625 
z
" id="ArialMT-56"/>
       <path d="M 4.15625 35.296875 
Q 4.15625 48 6.765625 55.734375 
Q 9.375 63.484375 14.515625 67.671875 
Q 19.671875 71.875 27.484375 71.875 
Q 33.25 71.875 37.59375 69.546875 
Q 41.9375 67.234375 44.765625 62.859375 
Q 47.609375 58.5 49.21875 52.21875 
Q 50.828125 45.953125 50.828125 35.296875 
Q 50.828125 22.703125 48.234375 14.96875 
Q 45.65625 7.234375 40.5 3 
Q 35.359375 -1.21875 27.484375 -1.21875 
Q 17.140625 -1.21875 11.234375 6.203125 
Q 4.15625 15.140625 4.15625 35.296875 
z
M 13.1875 35.296875 
Q 13.1875 17.671875 17.3125 11.828125 
Q 21.4375 6 27.484375 6 
Q 33.546875 6 37.671875 11.859375 
Q 41.796875 17.71875 41.796875 35.296875 
Q 41.796875 52.984375 37.671875 58.78125 
Q 33.546875 64.59375 27.390625 64.59375 
Q 21.34375 64.59375 17.71875 59.46875 
Q 13.1875 52.9375 13.1875 35.296875 
z
" id="ArialMT-48"/>
      </defs>
      <g transform="translate(27.81875 120.85902)scale(0.1 -0.1)">
       <use xlink:href="#ArialMT-8722"/>
       <use x="58.398438" xlink:href="#ArialMT-56"/>
       <use x="114.013672" xlink:href="#ArialMT-48"/>
      </g>
     </g>
    </g>
    <g id="xtick_2">
     <g id="line2d_3">
      <g>
       <use style="stroke:#000000;stroke-width:0.8;" x="61.1" xlink:href="#m05198337d2" y="112.701207"/>
      </g>
     </g>
     <g id="line2d_4">
      <g>
       <use style="stroke:#000000;stroke-width:0.8;" x="61.1" xlink:href="#m748635b446" y="3.981207"/>
      </g>
     </g>
     <g id="text_2">
      <!-- −40 -->
      <defs>
       <path d="M 32.328125 0 
L 32.328125 17.140625 
L 1.265625 17.140625 
L 1.265625 25.203125 
L 33.9375 71.578125 
L 41.109375 71.578125 
L 41.109375 25.203125 
L 50.78125 25.203125 
L 50.78125 17.140625 
L 41.109375 17.140625 
L 41.109375 0 
z
M 32.328125 25.203125 
L 32.328125 57.46875 
L 9.90625 25.203125 
z
" id="ArialMT-52"/>
      </defs>
      <g transform="translate(52.61875 120.85902)scale(0.1 -0.1)">
       <use xlink:href="#ArialMT-8722"/>
       <use x="58.398438" xlink:href="#ArialMT-52"/>
       <use x="114.013672" xlink:href="#ArialMT-48"/>
      </g>
     </g>
    </g>
    <g id="xtick_3">
     <g id="line2d_5">
      <g>
       <use style="stroke:#000000;stroke-width:0.8;" x="85.9" xlink:href="#m05198337d2" y="112.701207"/>
      </g>
     </g>
     <g id="line2d_6">
      <g>
       <use style="stroke:#000000;stroke-width:0.8;" x="85.9" xlink:href="#m748635b446" y="3.981207"/>
      </g>
     </g>
     <g id="text_3">
      <!-- 0 -->
      <g transform="translate(83.119531 120.85902)scale(0.1 -0.1)">
       <use xlink:href="#ArialMT-48"/>
      </g>
     </g>
    </g>
    <g id="xtick_4">
     <g id="line2d_7">
      <g>
       <use style="stroke:#000000;stroke-width:0.8;" x="110.7" xlink:href="#m05198337d2" y="112.701207"/>
      </g>
     </g>
     <g id="line2d_8">
      <g>
       <use style="stroke:#000000;stroke-width:0.8;" x="110.7" xlink:href="#m748635b446" y="3.981207"/>
      </g>
     </g>
     <g id="text_4">
      <!-- 40 -->
      <g transform="translate(105.139063 120.85902)scale(0.1 -0.1)">
       <use xlink:href="#ArialMT-52"/>
       <use x="55.615234" xlink:href="#ArialMT-48"/>
      </g>
     </g>
    </g>
    <g id="xtick_5">
     <g id="line2d_9">
      <g>
       <use style="stroke:#000000;stroke-width:0.8;" x="135.5" xlink:href="#m05198337d2" y="112.701207"/>
      </g>
     </g>
     <g id="line2d_10">
      <g>
       <use style="stroke:#000000;stroke-width:0.8;" x="135.5" xlink:href="#m748635b446" y="3.981207"/>
      </g>
     </g>
     <g id="text_5">
      <!-- 80 -->
      <g transform="translate(129.939063 120.85902)scale(0.1 -0.1)">
       <use xlink:href="#ArialMT-56"/>
       <use x="55.615234" xlink:href="#ArialMT-48"/>
      </g>
     </g>
    </g>
    <g id="xtick_6">
     <g id="line2d_11">
      <defs>
       <path d="M 0 0 
L 0 -2 
" id="m4dadfdf32f" style="stroke:#000000;stroke-width:0.6;"/>
      </defs>
      <g>
       <use style="stroke:#000000;stroke-width:0.6;" x="42.5" xlink:href="#m4dadfdf32f" y="112.701207"/>
      </g>
     </g>
     <g id="line2d_12">
      <defs>
       <path d="M 0 0 
L 0 2 
" id="md14e35ebcd" style="stroke:#000000;stroke-width:0.6;"/>
      </defs>
      <g>
       <use style="stroke:#000000;stroke-width:0.6;" x="42.5" xlink:href="#md14e35ebcd" y="3.981207"/>
      </g>
     </g>
    </g>
    <g id="xtick_7">
     <g id="line2d_13">
      <g>
       <use style="stroke:#000000;stroke-width:0.6;" x="48.7" xlink:href="#m4dadfdf32f" y="112.701207"/>
      </g>
     </g>
     <g id="line2d_14">
      <g>
       <use style="stroke:#000000;stroke-width:0.6;" x="48.7" xlink:href="#md14e35ebcd" y="3.981207"/>
      </g>
     </g>
    </g>
    <g id="xtick_8">
     <g id="line2d_15">
      <g>
       <use style="stroke:#000000;stroke-width:0.6;" x="54.9" xlink:href="#m4dadfdf32f" y="112.701207"/>
      </g>
     </g>
     <g id="line2d_16">
      <g>
       <use style="stroke:#000000;stroke-width:0.6;" x="54.9" xlink:href="#md14e35ebcd" y="3.981207"/>
      </g>
     </g>
    </g>
    <g id="xtick_9">
     <g id="line2d_17">
      <g>
       <use style="stroke:#000000;stroke-width:0.6;" x="67.3" xlink:href="#m4dadfdf32f" y="112.701207"/>
      </g>
     </g>
     <g id="line2d_18">
      <g>
       <use style="stroke:#000000;stroke-width:0.6;" x="67.3" xlink:href="#md14e35ebcd" y="3.981207"/>
      </g>
     </g>
    </g>
    <g id="xtick_10">
     <g id="line2d_19">
      <g>
       <use style="stroke:#000000;stroke-width:0.6;" x="73.5" xlink:href="#m4dadfdf32f" y="112.701207"/>
      </g>
     </g>
     <g id="line2d_20">
      <g>
       <use style="stroke:#000000;stroke-width:0.6;" x="73.5" xlink:href="#md14e35ebcd" y="3.981207"/>
      </g>
     </g>
    </g>
    <g id="xtick_11">
     <g id="line2d_21">
      <g>
       <use style="stroke:#000000;stroke-width:0.6;" x="79.7" xlink:href="#m4dadfdf32f" y="112.701207"/>
      </g>
     </g>
     <g id="line2d_22">
      <g>
       <use style="stroke:#000000;stroke-width:0.6;" x="79.7" xlink:href="#md14e35ebcd" y="3.981207"/>
      </g>
     </g>
    </g>
    <g id="xtick_12">
     <g id="line2d_23">
      <g>
       <use style="stroke:#000000;stroke-width:0.6;" x="92.1" xlink:href="#m4dadfdf32f" y="112.701207"/>
      </g>
     </g>
     <g id="line2d_24">
      <g>
       <use style="stroke:#000000;stroke-width:0.6;" x="92.1" xlink:href="#md14e35ebcd" y="3.981207"/>
      </g>
     </g>
    </g>
    <g id="xtick_13">
     <g id="line2d_25">
      <g>
       <use style="stroke:#000000;stroke-width:0.6;" x="98.3" xlink:href="#m4dadfdf32f" y="112.701207"/>
      </g>
     </g>
     <g id="line2d_26">
      <g>
       <use style="stroke:#000000;stroke-width:0.6;" x="98.3" xlink:href="#md14e35ebcd" y="3.981207"/>
      </g>
     </g>
    </g>
    <g id="xtick_14">
     <g id="line2d_27">
      <g>
       <use style="stroke:#000000;stroke-width:0.6;" x="104.5" xlink:href="#m4dadfdf32f" y="112.701207"/>
      </g>
     </g>
     <g id="line2d_28">
      <g>
       <use style="stroke:#000000;stroke-width:0.6;" x="104.5" xlink:href="#md14e35ebcd" y="3.981207"/>
      </g>
     </g>
    </g>
    <g id="xtick_15">
     <g id="line2d_29">
      <g>
       <use style="stroke:#000000;stroke-width:0.6;" x="116.9" xlink:href="#m4dadfdf32f" y="112.701207"/>
      </g>
     </g>
     <g id="line2d_30">
      <g>
       <use style="stroke:#000000;stroke-width:0.6;" x="116.9" xlink:href="#md14e35ebcd" y="3.981207"/>
      </g>
     </g>
    </g>
    <g id="xtick_16">
     <g id="line2d_31">
      <g>
       <use style="stroke:#000000;stroke-width:0.6;" x="123.1" xlink:href="#m4dadfdf32f" y="112.701207"/>
      </g>
     </g>
     <g id="line2d_32">
      <g>
       <use style="stroke:#000000;stroke-width:0.6;" x="123.1" xlink:href="#md14e35ebcd" y="3.981207"/>
      </g>
     </g>
    </g>
    <g id="xtick_17">
     <g id="line2d_33">
      <g>
       <use style="stroke:#000000;stroke-width:0.6;" x="129.3" xlink:href="#m4dadfdf32f" y="112.701207"/>
      </g>
     </g>
     <g id="line2d_34">
      <g>
       <use style="stroke:#000000;stroke-width:0.6;" x="129.3" xlink:href="#md14e35ebcd" y="3.981207"/>
      </g>
     </g>
    </g>
    <g id="xtick_18">
     <g id="line2d_35">
      <g>
       <use style="stroke:#000000;stroke-width:0.6;" x="141.7" xlink:href="#m4dadfdf32f" y="112.701207"/>
      </g>
     </g>
     <g id="line2d_36">
      <g>
       <use style="stroke:#000000;stroke-width:0.6;" x="141.7" xlink:href="#md14e35ebcd" y="3.981207"/>
      </g>
     </g>
    </g>
    <g id="text_6">
     <!-- $\it{V_{G}}$ (V) -->
     <defs>
      <path d="M 20.609375 0 
L 7.8125 72.90625 
L 17.484375 72.90625 
L 28.078125 10.203125 
L 63.484375 72.90625 
L 74.21875 72.90625 
L 32.078125 0 
z
" id="DejaVuSans-Oblique-86"/>
      <path d="M 54.59375 10.890625 
L 58.40625 29.984375 
L 42.1875 29.984375 
L 43.703125 38.09375 
L 69.578125 38.09375 
L 63.28125 6 
Q 56.78125 2.4375 49.109375 0.5 
Q 41.453125 -1.421875 33.6875 -1.421875 
Q 19.96875 -1.421875 12.234375 6.1875 
Q 4.5 13.8125 4.5 27.390625 
Q 4.5 38.671875 9.203125 48.84375 
Q 13.921875 59.03125 22.21875 65.828125 
Q 27.4375 70.0625 33.640625 72.140625 
Q 39.84375 74.21875 47.40625 74.21875 
Q 54.25 74.21875 60.515625 72.484375 
Q 66.796875 70.75 72.515625 67.28125 
L 70.515625 56.78125 
Q 66.109375 61.375 60.203125 63.796875 
Q 54.296875 66.21875 47.609375 66.21875 
Q 39.84375 66.21875 33.9375 63.25 
Q 28.03125 60.296875 23.390625 54.109375 
Q 19.4375 48.828125 17.15625 41.671875 
Q 14.890625 34.515625 14.890625 27.09375 
Q 14.890625 16.890625 20.109375 11.734375 
Q 25.34375 6.59375 35.6875 6.59375 
Q 40.875 6.59375 45.703125 7.6875 
Q 50.53125 8.796875 54.59375 10.890625 
z
" id="DejaVuSans-Oblique-71"/>
      <path id="ArialMT-32"/>
      <path d="M 23.390625 -21.046875 
Q 16.109375 -11.859375 11.078125 0.4375 
Q 6.0625 12.75 6.0625 25.921875 
Q 6.0625 37.546875 9.8125 48.1875 
Q 14.203125 60.546875 23.390625 72.796875 
L 29.6875 72.796875 
Q 23.78125 62.640625 21.875 58.296875 
Q 18.890625 51.5625 17.1875 44.234375 
Q 15.09375 35.109375 15.09375 25.875 
Q 15.09375 2.390625 29.6875 -21.046875 
z
" id="ArialMT-40"/>
      <path d="M 28.171875 0 
L 0.4375 71.578125 
L 10.6875 71.578125 
L 29.296875 19.578125 
Q 31.546875 13.328125 33.0625 7.859375 
Q 34.71875 13.71875 36.921875 19.578125 
L 56.25 71.578125 
L 65.921875 71.578125 
L 37.890625 0 
z
" id="ArialMT-86"/>
      <path d="M 12.359375 -21.046875 
L 6.0625 -21.046875 
Q 20.65625 2.390625 20.65625 25.875 
Q 20.65625 35.0625 18.5625 44.09375 
Q 16.890625 51.421875 13.921875 58.15625 
Q 12.015625 62.546875 6.0625 72.796875 
L 12.359375 72.796875 
Q 21.53125 60.546875 25.921875 48.1875 
Q 29.6875 37.546875 29.6875 25.921875 
Q 29.6875 12.75 24.625 0.4375 
Q 19.578125 -11.859375 12.359375 -21.046875 
z
" id="ArialMT-41"/>
     </defs>
     <g transform="translate(71.55 130.14652)scale(0.1 -0.1)">
      <use transform="translate(0 0.09375)" xlink:href="#DejaVuSans-Oblique-86"/>
      <use transform="translate(68.408203 -16.3125)scale(0.7)" xlink:href="#DejaVuSans-Oblique-71"/>
      <use transform="translate(125.385742 0.09375)" xlink:href="#ArialMT-32"/>
      <use transform="translate(153.168945 0.09375)" xlink:href="#ArialMT-40"/>
      <use transform="translate(186.469727 0.09375)" xlink:href="#ArialMT-86"/>
      <use transform="translate(253.168945 0.09375)" xlink:href="#ArialMT-41"/>
     </g>
    </g>
   </g>
   <g id="matplotlib.axis_2">
    <g id="ytick_1">
     <g id="line2d_37">
      <defs>
       <path d="M 0 0 
L 3.5 0 
" id="m56e5aa72bf" style="stroke:#000000;stroke-width:0.8;"/>
      </defs>
      <g>
       <use style="stroke:#000000;stroke-width:0.8;" x="30.1" xlink:href="#m56e5aa72bf" y="109.742754"/>
      </g>
     </g>
     <g id="line2d_38">
      <defs>
       <path d="M 0 0 
L -3.5 0 
" id="m3dacc828e7" style="stroke:#000000;stroke-width:0.8;"/>
      </defs>
      <g>
       <use style="stroke:#000000;stroke-width:0.8;" x="141.7" xlink:href="#m3dacc828e7" y="109.742754"/>
      </g>
     </g>
     <g id="text_7">
      <!-- $\mathdefault{10^{7}}$ -->
      <defs>
       <path d="M 37.25 0 
L 28.46875 0 
L 28.46875 56 
Q 25.296875 52.984375 20.140625 49.953125 
Q 14.984375 46.921875 10.890625 45.40625 
L 10.890625 53.90625 
Q 18.265625 57.375 23.78125 62.296875 
Q 29.296875 67.234375 31.59375 71.875 
L 37.25 71.875 
z
" id="ArialMT-49"/>
       <path d="M 4.734375 62.203125 
L 4.734375 70.65625 
L 51.078125 70.65625 
L 51.078125 63.8125 
Q 44.234375 56.546875 37.515625 44.484375 
Q 30.8125 32.421875 27.15625 19.671875 
Q 24.515625 10.6875 23.78125 0 
L 14.75 0 
Q 14.890625 8.453125 18.0625 20.40625 
Q 21.234375 32.375 27.171875 43.484375 
Q 33.109375 54.59375 39.796875 62.203125 
z
" id="ArialMT-55"/>
      </defs>
      <g transform="translate(13.4 114.849004)scale(0.1 -0.1)">
       <use transform="translate(0 0.846875)" xlink:href="#ArialMT-49"/>
       <use transform="translate(55.615234 0.846875)" xlink:href="#ArialMT-48"/>
       <use transform="translate(112.972813 70.540625)scale(0.7)" xlink:href="#ArialMT-55"/>
      </g>
     </g>
    </g>
    <g id="ytick_2">
     <g id="line2d_39">
      <g>
       <use style="stroke:#000000;stroke-width:0.8;" x="30.1" xlink:href="#m56e5aa72bf" y="74.880586"/>
      </g>
     </g>
     <g id="line2d_40">
      <g>
       <use style="stroke:#000000;stroke-width:0.8;" x="141.7" xlink:href="#m3dacc828e7" y="74.880586"/>
      </g>
     </g>
     <g id="text_8">
      <!-- $\mathdefault{10^{8}}$ -->
      <g transform="translate(13.4 80.036836)scale(0.1 -0.1)">
       <use transform="translate(0 0.99375)" xlink:href="#ArialMT-49"/>
       <use transform="translate(55.615234 0.99375)" xlink:href="#ArialMT-48"/>
       <use transform="translate(112.972813 70.6875)scale(0.7)" xlink:href="#ArialMT-56"/>
      </g>
     </g>
    </g>
    <g id="ytick_3">
     <g id="line2d_41">
      <g>
       <use style="stroke:#000000;stroke-width:0.8;" x="30.1" xlink:href="#m56e5aa72bf" y="40.018418"/>
      </g>
     </g>
     <g id="line2d_42">
      <g>
       <use style="stroke:#000000;stroke-width:0.8;" x="141.7" xlink:href="#m3dacc828e7" y="40.018418"/>
      </g>
     </g>
     <g id="text_9">
      <!-- $\mathdefault{10^{9}}$ -->
      <defs>
       <path d="M 5.46875 16.546875 
L 13.921875 17.328125 
Q 14.984375 11.375 18.015625 8.6875 
Q 21.046875 6 25.78125 6 
Q 29.828125 6 32.875 7.859375 
Q 35.9375 9.71875 37.890625 12.8125 
Q 39.84375 15.921875 41.15625 21.1875 
Q 42.484375 26.46875 42.484375 31.9375 
Q 42.484375 32.515625 42.4375 33.6875 
Q 39.796875 29.5 35.234375 26.875 
Q 30.671875 24.265625 25.34375 24.265625 
Q 16.453125 24.265625 10.296875 30.703125 
Q 4.15625 37.15625 4.15625 47.703125 
Q 4.15625 58.59375 10.578125 65.234375 
Q 17 71.875 26.65625 71.875 
Q 33.640625 71.875 39.421875 68.109375 
Q 45.21875 64.359375 48.21875 57.390625 
Q 51.21875 50.4375 51.21875 37.25 
Q 51.21875 23.53125 48.234375 15.40625 
Q 45.265625 7.28125 39.375 3.03125 
Q 33.5 -1.21875 25.59375 -1.21875 
Q 17.1875 -1.21875 11.859375 3.4375 
Q 6.546875 8.109375 5.46875 16.546875 
z
M 41.453125 48.140625 
Q 41.453125 55.71875 37.421875 60.15625 
Q 33.40625 64.59375 27.734375 64.59375 
Q 21.875 64.59375 17.53125 59.8125 
Q 13.1875 55.03125 13.1875 47.40625 
Q 13.1875 40.578125 17.3125 36.296875 
Q 21.4375 32.03125 27.484375 32.03125 
Q 33.59375 32.03125 37.515625 36.296875 
Q 41.453125 40.578125 41.453125 48.140625 
z
" id="ArialMT-57"/>
      </defs>
      <g transform="translate(13.4 45.174668)scale(0.1 -0.1)">
       <use transform="translate(0 0.99375)" xlink:href="#ArialMT-49"/>
       <use transform="translate(55.615234 0.99375)" xlink:href="#ArialMT-48"/>
       <use transform="translate(112.972813 70.6875)scale(0.7)" xlink:href="#ArialMT-57"/>
      </g>
     </g>
    </g>
    <g id="ytick_4">
     <g id="line2d_43">
      <g>
       <use style="stroke:#000000;stroke-width:0.8;" x="30.1" xlink:href="#m56e5aa72bf" y="5.15625"/>
      </g>
     </g>
     <g id="line2d_44">
      <g>
       <use style="stroke:#000000;stroke-width:0.8;" x="141.7" xlink:href="#m3dacc828e7" y="5.15625"/>
      </g>
     </g>
     <g id="text_10">
      <!-- $\mathdefault{10^{10}}$ -->
      <g transform="translate(9.5 10.3125)scale(0.1 -0.1)">
       <use transform="translate(0 0.99375)" xlink:href="#ArialMT-49"/>
       <use transform="translate(55.615234 0.99375)" xlink:href="#ArialMT-48"/>
       <use transform="translate(112.972813 70.6875)scale(0.7)" xlink:href="#ArialMT-49"/>
       <use transform="translate(151.903477 70.6875)scale(0.7)" xlink:href="#ArialMT-48"/>
      </g>
     </g>
    </g>
    <g id="ytick_5">
     <g id="line2d_45">
      <defs>
       <path d="M 0 0 
L 2 0 
" id="m335fa51676" style="stroke:#000000;stroke-width:0.6;"/>
      </defs>
      <g>
       <use style="stroke:#000000;stroke-width:0.6;" x="30.1" xlink:href="#m335fa51676" y="111.337959"/>
      </g>
     </g>
     <g id="line2d_46">
      <defs>
       <path d="M 0 0 
L -2 0 
" id="mdbc1606c60" style="stroke:#000000;stroke-width:0.6;"/>
      </defs>
      <g>
       <use style="stroke:#000000;stroke-width:0.6;" x="141.7" xlink:href="#mdbc1606c60" y="111.337959"/>
      </g>
     </g>
    </g>
    <g id="ytick_6">
     <g id="line2d_47">
      <g>
       <use style="stroke:#000000;stroke-width:0.6;" x="30.1" xlink:href="#m335fa51676" y="99.248195"/>
      </g>
     </g>
     <g id="line2d_48">
      <g>
       <use style="stroke:#000000;stroke-width:0.6;" x="141.7" xlink:href="#mdbc1606c60" y="99.248195"/>
      </g>
     </g>
    </g>
    <g id="ytick_7">
     <g id="line2d_49">
      <g>
       <use style="stroke:#000000;stroke-width:0.6;" x="30.1" xlink:href="#m335fa51676" y="93.109272"/>
      </g>
     </g>
     <g id="line2d_50">
      <g>
       <use style="stroke:#000000;stroke-width:0.6;" x="141.7" xlink:href="#mdbc1606c60" y="93.109272"/>
      </g>
     </g>
    </g>
    <g id="ytick_8">
     <g id="line2d_51">
      <g>
       <use style="stroke:#000000;stroke-width:0.6;" x="30.1" xlink:href="#m335fa51676" y="88.753637"/>
      </g>
     </g>
     <g id="line2d_52">
      <g>
       <use style="stroke:#000000;stroke-width:0.6;" x="141.7" xlink:href="#mdbc1606c60" y="88.753637"/>
      </g>
     </g>
    </g>
    <g id="ytick_9">
     <g id="line2d_53">
      <g>
       <use style="stroke:#000000;stroke-width:0.6;" x="30.1" xlink:href="#m335fa51676" y="85.375144"/>
      </g>
     </g>
     <g id="line2d_54">
      <g>
       <use style="stroke:#000000;stroke-width:0.6;" x="141.7" xlink:href="#mdbc1606c60" y="85.375144"/>
      </g>
     </g>
    </g>
    <g id="ytick_10">
     <g id="line2d_55">
      <g>
       <use style="stroke:#000000;stroke-width:0.6;" x="30.1" xlink:href="#m335fa51676" y="82.614714"/>
      </g>
     </g>
     <g id="line2d_56">
      <g>
       <use style="stroke:#000000;stroke-width:0.6;" x="141.7" xlink:href="#mdbc1606c60" y="82.614714"/>
      </g>
     </g>
    </g>
    <g id="ytick_11">
     <g id="line2d_57">
      <g>
       <use style="stroke:#000000;stroke-width:0.6;" x="30.1" xlink:href="#m335fa51676" y="80.280804"/>
      </g>
     </g>
     <g id="line2d_58">
      <g>
       <use style="stroke:#000000;stroke-width:0.6;" x="141.7" xlink:href="#mdbc1606c60" y="80.280804"/>
      </g>
     </g>
    </g>
    <g id="ytick_12">
     <g id="line2d_59">
      <g>
       <use style="stroke:#000000;stroke-width:0.6;" x="30.1" xlink:href="#m335fa51676" y="78.259079"/>
      </g>
     </g>
     <g id="line2d_60">
      <g>
       <use style="stroke:#000000;stroke-width:0.6;" x="141.7" xlink:href="#mdbc1606c60" y="78.259079"/>
      </g>
     </g>
    </g>
    <g id="ytick_13">
     <g id="line2d_61">
      <g>
       <use style="stroke:#000000;stroke-width:0.6;" x="30.1" xlink:href="#m335fa51676" y="76.475791"/>
      </g>
     </g>
     <g id="line2d_62">
      <g>
       <use style="stroke:#000000;stroke-width:0.6;" x="141.7" xlink:href="#mdbc1606c60" y="76.475791"/>
      </g>
     </g>
    </g>
    <g id="ytick_14">
     <g id="line2d_63">
      <g>
       <use style="stroke:#000000;stroke-width:0.6;" x="30.1" xlink:href="#m335fa51676" y="64.386027"/>
      </g>
     </g>
     <g id="line2d_64">
      <g>
       <use style="stroke:#000000;stroke-width:0.6;" x="141.7" xlink:href="#mdbc1606c60" y="64.386027"/>
      </g>
     </g>
    </g>
    <g id="ytick_15">
     <g id="line2d_65">
      <g>
       <use style="stroke:#000000;stroke-width:0.6;" x="30.1" xlink:href="#m335fa51676" y="58.247104"/>
      </g>
     </g>
     <g id="line2d_66">
      <g>
       <use style="stroke:#000000;stroke-width:0.6;" x="141.7" xlink:href="#mdbc1606c60" y="58.247104"/>
      </g>
     </g>
    </g>
    <g id="ytick_16">
     <g id="line2d_67">
      <g>
       <use style="stroke:#000000;stroke-width:0.6;" x="30.1" xlink:href="#m335fa51676" y="53.891469"/>
      </g>
     </g>
     <g id="line2d_68">
      <g>
       <use style="stroke:#000000;stroke-width:0.6;" x="141.7" xlink:href="#mdbc1606c60" y="53.891469"/>
      </g>
     </g>
    </g>
    <g id="ytick_17">
     <g id="line2d_69">
      <g>
       <use style="stroke:#000000;stroke-width:0.6;" x="30.1" xlink:href="#m335fa51676" y="50.512976"/>
      </g>
     </g>
     <g id="line2d_70">
      <g>
       <use style="stroke:#000000;stroke-width:0.6;" x="141.7" xlink:href="#mdbc1606c60" y="50.512976"/>
      </g>
     </g>
    </g>
    <g id="ytick_18">
     <g id="line2d_71">
      <g>
       <use style="stroke:#000000;stroke-width:0.6;" x="30.1" xlink:href="#m335fa51676" y="47.752546"/>
      </g>
     </g>
     <g id="line2d_72">
      <g>
       <use style="stroke:#000000;stroke-width:0.6;" x="141.7" xlink:href="#mdbc1606c60" y="47.752546"/>
      </g>
     </g>
    </g>
    <g id="ytick_19">
     <g id="line2d_73">
      <g>
       <use style="stroke:#000000;stroke-width:0.6;" x="30.1" xlink:href="#m335fa51676" y="45.418636"/>
      </g>
     </g>
     <g id="line2d_74">
      <g>
       <use style="stroke:#000000;stroke-width:0.6;" x="141.7" xlink:href="#mdbc1606c60" y="45.418636"/>
      </g>
     </g>
    </g>
    <g id="ytick_20">
     <g id="line2d_75">
      <g>
       <use style="stroke:#000000;stroke-width:0.6;" x="30.1" xlink:href="#m335fa51676" y="43.396911"/>
      </g>
     </g>
     <g id="line2d_76">
      <g>
       <use style="stroke:#000000;stroke-width:0.6;" x="141.7" xlink:href="#mdbc1606c60" y="43.396911"/>
      </g>
     </g>
    </g>
    <g id="ytick_21">
     <g id="line2d_77">
      <g>
       <use style="stroke:#000000;stroke-width:0.6;" x="30.1" xlink:href="#m335fa51676" y="41.613623"/>
      </g>
     </g>
     <g id="line2d_78">
      <g>
       <use style="stroke:#000000;stroke-width:0.6;" x="141.7" xlink:href="#mdbc1606c60" y="41.613623"/>
      </g>
     </g>
    </g>
    <g id="ytick_22">
     <g id="line2d_79">
      <g>
       <use style="stroke:#000000;stroke-width:0.6;" x="30.1" xlink:href="#m335fa51676" y="29.52386"/>
      </g>
     </g>
     <g id="line2d_80">
      <g>
       <use style="stroke:#000000;stroke-width:0.6;" x="141.7" xlink:href="#mdbc1606c60" y="29.52386"/>
      </g>
     </g>
    </g>
    <g id="ytick_23">
     <g id="line2d_81">
      <g>
       <use style="stroke:#000000;stroke-width:0.6;" x="30.1" xlink:href="#m335fa51676" y="23.384937"/>
      </g>
     </g>
     <g id="line2d_82">
      <g>
       <use style="stroke:#000000;stroke-width:0.6;" x="141.7" xlink:href="#mdbc1606c60" y="23.384937"/>
      </g>
     </g>
    </g>
    <g id="ytick_24">
     <g id="line2d_83">
      <g>
       <use style="stroke:#000000;stroke-width:0.6;" x="30.1" xlink:href="#m335fa51676" y="19.029301"/>
      </g>
     </g>
     <g id="line2d_84">
      <g>
       <use style="stroke:#000000;stroke-width:0.6;" x="141.7" xlink:href="#mdbc1606c60" y="19.029301"/>
      </g>
     </g>
    </g>
    <g id="ytick_25">
     <g id="line2d_85">
      <g>
       <use style="stroke:#000000;stroke-width:0.6;" x="30.1" xlink:href="#m335fa51676" y="15.650808"/>
      </g>
     </g>
     <g id="line2d_86">
      <g>
       <use style="stroke:#000000;stroke-width:0.6;" x="141.7" xlink:href="#mdbc1606c60" y="15.650808"/>
      </g>
     </g>
    </g>
    <g id="ytick_26">
     <g id="line2d_87">
      <g>
       <use style="stroke:#000000;stroke-width:0.6;" x="30.1" xlink:href="#m335fa51676" y="12.890378"/>
      </g>
     </g>
     <g id="line2d_88">
      <g>
       <use style="stroke:#000000;stroke-width:0.6;" x="141.7" xlink:href="#mdbc1606c60" y="12.890378"/>
      </g>
     </g>
    </g>
    <g id="ytick_27">
     <g id="line2d_89">
      <g>
       <use style="stroke:#000000;stroke-width:0.6;" x="30.1" xlink:href="#m335fa51676" y="10.556468"/>
      </g>
     </g>
     <g id="line2d_90">
      <g>
       <use style="stroke:#000000;stroke-width:0.6;" x="141.7" xlink:href="#mdbc1606c60" y="10.556468"/>
      </g>
     </g>
    </g>
    <g id="ytick_28">
     <g id="line2d_91">
      <g>
       <use style="stroke:#000000;stroke-width:0.6;" x="30.1" xlink:href="#m335fa51676" y="8.534743"/>
      </g>
     </g>
     <g id="line2d_92">
      <g>
       <use style="stroke:#000000;stroke-width:0.6;" x="141.7" xlink:href="#mdbc1606c60" y="8.534743"/>
      </g>
     </g>
    </g>
    <g id="ytick_29">
     <g id="line2d_93">
      <g>
       <use style="stroke:#000000;stroke-width:0.6;" x="30.1" xlink:href="#m335fa51676" y="6.751455"/>
      </g>
     </g>
     <g id="line2d_94">
      <g>
       <use style="stroke:#000000;stroke-width:0.6;" x="141.7" xlink:href="#mdbc1606c60" y="6.751455"/>
      </g>
     </g>
    </g>
    <g id="text_11">
     <!-- $\it{R}$ (Ω) -->
     <defs>
      <path d="M 25.203125 64.796875 
L 20.21875 38.921875 
L 32.90625 38.921875 
Q 40.375 38.921875 44.984375 43.046875 
Q 49.609375 47.171875 49.609375 53.8125 
Q 49.609375 59.125 46.5 61.953125 
Q 43.40625 64.796875 37.59375 64.796875 
z
M 43.3125 35.015625 
Q 46.4375 34.28125 48.515625 31.390625 
Q 50.59375 28.515625 53.328125 19.921875 
L 59.515625 0 
L 49.125 0 
L 43.40625 18.703125 
Q 41.21875 25.921875 38.328125 28.359375 
Q 35.453125 30.8125 29.5 30.8125 
L 18.609375 30.8125 
L 12.59375 0 
L 2.6875 0 
L 16.890625 72.90625 
L 39.109375 72.90625 
Q 49.21875 72.90625 54.609375 68.328125 
Q 60.015625 63.765625 60.015625 55.171875 
Q 60.015625 47.5625 55.421875 41.984375 
Q 50.828125 36.421875 43.3125 35.015625 
z
" id="DejaVuSans-Oblique-82"/>
      <path d="M 4.734375 8.453125 
L 20.359375 8.453125 
Q 5.515625 20.84375 5.515625 38.71875 
Q 5.515625 48.4375 9.421875 56.15625 
Q 13.328125 63.875 20.453125 68.328125 
Q 27.59375 72.796875 37.59375 72.796875 
Q 47.515625 72.796875 54.125 68.6875 
Q 60.75 64.59375 65.015625 56.921875 
Q 69.28125 49.265625 69.28125 38.71875 
Q 69.28125 20.84375 54.4375 8.453125 
L 70.0625 8.453125 
L 70.0625 0 
L 42.234375 0 
L 42.234375 7.90625 
Q 59.625 16.015625 59.625 37.25 
Q 59.625 49.21875 53.484375 56.953125 
Q 47.359375 64.703125 37.546875 64.703125 
Q 27.4375 64.703125 21.375 56.90625 
Q 15.328125 49.125 15.328125 37.75 
Q 15.328125 16.21875 32.625 7.90625 
L 32.625 0 
L 4.734375 0 
z
" id="ArialMT-937"/>
     </defs>
     <g transform="translate(7.3 70.291207)rotate(-90)scale(0.1 -0.1)">
      <use transform="translate(0 0.09375)" xlink:href="#DejaVuSans-Oblique-82"/>
      <use transform="translate(69.482422 0.09375)" xlink:href="#ArialMT-32"/>
      <use transform="translate(97.265625 0.09375)" xlink:href="#ArialMT-40"/>
      <use transform="translate(130.566406 0.09375)" xlink:href="#ArialMT-937"/>
      <use transform="translate(205.322266 0.09375)" xlink:href="#ArialMT-41"/>
     </g>
    </g>
   </g>
   <g id="line2d_95">
    <path clip-path="url(#pd2b73c70ff)" d="M 39.4 52.488953 
L 42.5 51.000941 
L 45.6 66.068813 
L 48.7 72.154537 
L 51.8 60.767632 
L 54.9 63.78464 
L 58 53.802485 
L 61.1 58.353162 
L 64.2 57.525066 
L 67.3 57.383749 
L 70.4 41.180081 
L 73.5 45.825166 
L 76.6 22.968629 
L 79.7 59.556613 
L 82.8 33.074975 
L 85.9 39.539533 
L 89 42.622421 
L 92.1 43.269225 
L 95.2 68.567471 
L 98.3 64.32039 
L 101.4 77.478377 
L 104.5 84.782429 
L 107.6 89.310424 
L 110.7 89.283489 
L 113.8 102.824918 
L 116.9 97.226128 
L 120 97.729963 
L 123.1 98.127114 
L 126.2 103.898499 
L 129.3 102.217737 
L 132.4 107.759389 
L 132.4 62.985201 
L 129.3 99.647005 
L 126.2 23.789886 
L 123.1 9.762107 
L 120 49.569836 
L 116.9 8.923025 
L 113.8 72.589084 
L 110.7 57.695802 
M 70.4 18.530945 
L 67.3 21.765373 
L 64.2 36.724182 
L 61.1 50.342354 
L 58 44.885705 
L 54.9 46.992465 
L 51.8 53.552716 
L 48.7 40.156744 
L 45.6 38.752708 
L 42.5 49.348291 
L 39.4 48.913749 
" style="fill:none;stroke:#e41a1c;stroke-linecap:square;"/>
    <defs>
     <path d="M 0 0.5 
C 0.132602 0.5 0.25979 0.447317 0.353553 0.353553 
C 0.447317 0.25979 0.5 0.132602 0.5 0 
C 0.5 -0.132602 0.447317 -0.25979 0.353553 -0.353553 
C 0.25979 -0.447317 0.132602 -0.5 0 -0.5 
C -0.132602 -0.5 -0.25979 -0.447317 -0.353553 -0.353553 
C -0.447317 -0.25979 -0.5 -0.132602 -0.5 0 
C -0.5 0.132602 -0.447317 0.25979 -0.353553 0.353553 
C -0.25979 0.447317 -0.132602 0.5 0 0.5 
z
" id="m65f8f59aa7" style="stroke:#e41a1c;"/>
    </defs>
    <g clip-path="url(#pd2b73c70ff)">
     <use style="fill:#e41a1c;stroke:#e41a1c;" x="39.4" xlink:href="#m65f8f59aa7" y="52.488953"/>
     <use style="fill:#e41a1c;stroke:#e41a1c;" x="42.5" xlink:href="#m65f8f59aa7" y="51.000941"/>
     <use style="fill:#e41a1c;stroke:#e41a1c;" x="45.6" xlink:href="#m65f8f59aa7" y="66.068813"/>
     <use style="fill:#e41a1c;stroke:#e41a1c;" x="48.7" xlink:href="#m65f8f59aa7" y="72.154537"/>
     <use style="fill:#e41a1c;stroke:#e41a1c;" x="51.8" xlink:href="#m65f8f59aa7" y="60.767632"/>
     <use style="fill:#e41a1c;stroke:#e41a1c;" x="54.9" xlink:href="#m65f8f59aa7" y="63.78464"/>
     <use style="fill:#e41a1c;stroke:#e41a1c;" x="58" xlink:href="#m65f8f59aa7" y="53.802485"/>
     <use style="fill:#e41a1c;stroke:#e41a1c;" x="61.1" xlink:href="#m65f8f59aa7" y="58.353162"/>
     <use style="fill:#e41a1c;stroke:#e41a1c;" x="64.2" xlink:href="#m65f8f59aa7" y="57.525066"/>
     <use style="fill:#e41a1c;stroke:#e41a1c;" x="67.3" xlink:href="#m65f8f59aa7" y="57.383749"/>
     <use style="fill:#e41a1c;stroke:#e41a1c;" x="70.4" xlink:href="#m65f8f59aa7" y="41.180081"/>
     <use style="fill:#e41a1c;stroke:#e41a1c;" x="73.5" xlink:href="#m65f8f59aa7" y="45.825166"/>
     <use style="fill:#e41a1c;stroke:#e41a1c;" x="76.6" xlink:href="#m65f8f59aa7" y="22.968629"/>
     <use style="fill:#e41a1c;stroke:#e41a1c;" x="79.7" xlink:href="#m65f8f59aa7" y="59.556613"/>
     <use style="fill:#e41a1c;stroke:#e41a1c;" x="82.8" xlink:href="#m65f8f59aa7" y="33.074975"/>
     <use style="fill:#e41a1c;stroke:#e41a1c;" x="85.9" xlink:href="#m65f8f59aa7" y="39.539533"/>
     <use style="fill:#e41a1c;stroke:#e41a1c;" x="89" xlink:href="#m65f8f59aa7" y="42.622421"/>
     <use style="fill:#e41a1c;stroke:#e41a1c;" x="92.1" xlink:href="#m65f8f59aa7" y="43.269225"/>
     <use style="fill:#e41a1c;stroke:#e41a1c;" x="95.2" xlink:href="#m65f8f59aa7" y="68.567471"/>
     <use style="fill:#e41a1c;stroke:#e41a1c;" x="98.3" xlink:href="#m65f8f59aa7" y="64.32039"/>
     <use style="fill:#e41a1c;stroke:#e41a1c;" x="101.4" xlink:href="#m65f8f59aa7" y="77.478377"/>
     <use style="fill:#e41a1c;stroke:#e41a1c;" x="104.5" xlink:href="#m65f8f59aa7" y="84.782429"/>
     <use style="fill:#e41a1c;stroke:#e41a1c;" x="107.6" xlink:href="#m65f8f59aa7" y="89.310424"/>
     <use style="fill:#e41a1c;stroke:#e41a1c;" x="110.7" xlink:href="#m65f8f59aa7" y="89.283489"/>
     <use style="fill:#e41a1c;stroke:#e41a1c;" x="113.8" xlink:href="#m65f8f59aa7" y="102.824918"/>
     <use style="fill:#e41a1c;stroke:#e41a1c;" x="116.9" xlink:href="#m65f8f59aa7" y="97.226128"/>
     <use style="fill:#e41a1c;stroke:#e41a1c;" x="120" xlink:href="#m65f8f59aa7" y="97.729963"/>
     <use style="fill:#e41a1c;stroke:#e41a1c;" x="123.1" xlink:href="#m65f8f59aa7" y="98.127114"/>
     <use style="fill:#e41a1c;stroke:#e41a1c;" x="126.2" xlink:href="#m65f8f59aa7" y="103.898499"/>
     <use style="fill:#e41a1c;stroke:#e41a1c;" x="129.3" xlink:href="#m65f8f59aa7" y="102.217737"/>
     <use style="fill:#e41a1c;stroke:#e41a1c;" x="132.4" xlink:href="#m65f8f59aa7" y="107.759389"/>
     <use style="fill:#e41a1c;stroke:#e41a1c;" x="132.4" xlink:href="#m65f8f59aa7" y="62.985201"/>
     <use style="fill:#e41a1c;stroke:#e41a1c;" x="129.3" xlink:href="#m65f8f59aa7" y="99.647005"/>
     <use style="fill:#e41a1c;stroke:#e41a1c;" x="126.2" xlink:href="#m65f8f59aa7" y="23.789886"/>
     <use style="fill:#e41a1c;stroke:#e41a1c;" x="123.1" xlink:href="#m65f8f59aa7" y="9.762107"/>
     <use style="fill:#e41a1c;stroke:#e41a1c;" x="120" xlink:href="#m65f8f59aa7" y="49.569836"/>
     <use style="fill:#e41a1c;stroke:#e41a1c;" x="116.9" xlink:href="#m65f8f59aa7" y="8.923025"/>
     <use style="fill:#e41a1c;stroke:#e41a1c;" x="113.8" xlink:href="#m65f8f59aa7" y="72.589084"/>
     <use style="fill:#e41a1c;stroke:#e41a1c;" x="110.7" xlink:href="#m65f8f59aa7" y="57.695802"/>
     <use style="fill:#e41a1c;stroke:#e41a1c;" x="70.4" xlink:href="#m65f8f59aa7" y="18.530945"/>
     <use style="fill:#e41a1c;stroke:#e41a1c;" x="67.3" xlink:href="#m65f8f59aa7" y="21.765373"/>
     <use style="fill:#e41a1c;stroke:#e41a1c;" x="64.2" xlink:href="#m65f8f59aa7" y="36.724182"/>
     <use style="fill:#e41a1c;stroke:#e41a1c;" x="61.1" xlink:href="#m65f8f59aa7" y="50.342354"/>
     <use style="fill:#e41a1c;stroke:#e41a1c;" x="58" xlink:href="#m65f8f59aa7" y="44.885705"/>
     <use style="fill:#e41a1c;stroke:#e41a1c;" x="54.9" xlink:href="#m65f8f59aa7" y="46.992465"/>
     <use style="fill:#e41a1c;stroke:#e41a1c;" x="51.8" xlink:href="#m65f8f59aa7" y="53.552716"/>
     <use style="fill:#e41a1c;stroke:#e41a1c;" x="48.7" xlink:href="#m65f8f59aa7" y="40.156744"/>
     <use style="fill:#e41a1c;stroke:#e41a1c;" x="45.6" xlink:href="#m65f8f59aa7" y="38.752708"/>
     <use style="fill:#e41a1c;stroke:#e41a1c;" x="42.5" xlink:href="#m65f8f59aa7" y="49.348291"/>
     <use style="fill:#e41a1c;stroke:#e41a1c;" x="39.4" xlink:href="#m65f8f59aa7" y="48.913749"/>
    </g>
   </g>
   <g id="patch_3">
    <path d="M 30.1 112.701207 
L 30.1 3.981207 
" style="fill:none;stroke:#000000;stroke-linecap:square;stroke-linejoin:miter;stroke-width:0.8;"/>
   </g>
   <g id="patch_4">
    <path d="M 141.7 112.701207 
L 141.7 3.981207 
" style="fill:none;stroke:#000000;stroke-linecap:square;stroke-linejoin:miter;stroke-width:0.8;"/>
   </g>
   <g id="patch_5">
    <path d="M 30.1 112.701207 
L 141.7 112.701207 
" style="fill:none;stroke:#000000;stroke-linecap:square;stroke-linejoin:miter;stroke-width:0.8;"/>
   </g>
   <g id="patch_6">
    <path d="M 30.1 3.981207 
L 141.7 3.981207 
" style="fill:none;stroke:#000000;stroke-linecap:square;stroke-linejoin:miter;stroke-width:0.8;"/>
   </g>
  </g>
 </g>
 <defs>
  <clipPath id="pd2b73c70ff">
   <rect height="108.72" width="111.6" x="30.1" y="3.981207"/>
  </clipPath>
 </defs>
</svg>
