<?xml version="1.0" encoding="utf-8" standalone="no"?>
<!DOCTYPE svg PUBLIC "-//W3C//DTD SVG 1.1//EN"
  "http://www.w3.org/Graphics/SVG/1.1/DTD/svg11.dtd">
<!-- Created with matplotlib (https://matplotlib.org/) -->
<svg height="108.72pt" version="1.1" viewBox="0 0 111.6 108.72" width="111.6pt" xmlns="http://www.w3.org/2000/svg" xmlns:xlink="http://www.w3.org/1999/xlink">
 <defs>
  <style type="text/css">
*{stroke-linecap:butt;stroke-linejoin:round;}
  </style>
 </defs>
 <g id="figure_1">
  <g id="patch_1">
   <path d="M 0 108.72 
L 111.6 108.72 
L 111.6 0 
L 0 0 
z
" style="fill:none;"/>
  </g>
  <g id="axes_1">
   <g id="line2d_1">
    <path clip-path="url(#p572311f5ff)" d="M 15.790693 -1 
L 16.345455 3.337413 
L 17.370248 10.475354 
L 18.395041 16.839556 
L 19.419835 22.521676 
L 20.444628 27.604839 
L 21.469421 32.164137 
L 22.494215 36.267119 
L 23.519008 39.974251 
L 24.543802 43.33938 
L 25.568595 46.410172 
L 26.593388 49.22854 
L 27.618182 51.831062 
L 28.642975 54.249379 
L 29.667769 56.510581 
L 30.692562 58.637583 
L 31.717355 60.649481 
L 32.742149 62.5619 
L 33.766942 64.387326 
L 34.791736 66.13542 
L 35.816529 67.813326 
L 36.841322 69.425958 
L 37.866116 70.97628 
L 38.890909 72.465566 
L 39.915702 73.893646 
L 40.940496 75.259149 
L 41.965289 76.559715 
L 42.990083 77.792208 
L 44.014876 78.952908 
L 45.039669 80.03769 
L 46.064463 81.04219 
L 47.089256 81.961956 
L 48.11405 82.79259 
L 49.138843 83.529867 
L 50.163636 84.169851 
L 51.18843 84.708985 
L 52.213223 85.144182 
L 53.238017 85.472887 
L 54.26281 85.693136 
L 55.287603 85.803597 
L 56.312397 85.803597 
L 57.33719 85.693136 
L 58.361983 85.472887 
L 59.386777 85.144182 
L 60.41157 84.708985 
L 61.436364 84.169851 
L 62.461157 83.529867 
L 63.48595 82.79259 
L 64.510744 81.961956 
L 65.535537 81.04219 
L 66.560331 80.03769 
L 67.585124 78.952908 
L 68.609917 77.792208 
L 69.634711 76.559715 
L 70.659504 75.259149 
L 71.684298 73.893646 
L 72.709091 72.465566 
L 73.733884 70.97628 
L 74.758678 69.425958 
L 75.783471 67.813326 
L 76.808264 66.13542 
L 77.833058 64.387326 
L 78.857851 62.5619 
L 79.882645 60.649481 
L 80.907438 58.637583 
L 81.932231 56.510581 
L 82.957025 54.249379 
L 83.981818 51.831062 
L 85.006612 49.22854 
L 86.031405 46.410172 
L 87.056198 43.33938 
L 88.080992 39.974251 
L 89.105785 36.267119 
L 90.130579 32.164137 
L 91.155372 27.604839 
L 92.180165 22.521676 
L 93.204959 16.839556 
L 94.229752 10.475354 
L 95.254545 3.337413 
L 95.809307 -1 
" style="fill:none;stroke:#e41a1c;stroke-linecap:square;stroke-width:1.5;"/>
   </g>
   <g id="line2d_2">
    <path clip-path="url(#p572311f5ff)" d="M 8.525307 -1 
L 9.171901 7.839722 
L 10.196694 20.054588 
L 11.221488 30.653598 
L 12.246281 39.803196 
L 13.271074 47.657427 
L 14.295868 54.358535 
L 15.320661 60.03754 
L 16.345455 64.814805 
L 17.370248 68.80059 
L 18.395041 72.09559 
L 19.419835 74.791457 
L 20.444628 76.971319 
L 21.469421 78.710269 
L 22.494215 80.075852 
L 23.519008 81.128538 
L 24.543802 81.922172 
L 25.568595 82.504421 
L 26.593388 82.917197 
L 27.618182 83.197079 
L 28.642975 83.375706 
L 29.667769 83.480171 
L 30.692562 83.533386 
L 31.717355 83.554449 
L 32.742149 83.558986 
L 33.766942 83.55948 
L 34.791736 83.565593 
L 35.816529 83.58447 
L 36.841322 83.621025 
L 37.866116 83.678221 
L 38.890909 83.757331 
L 39.915702 83.858189 
L 40.940496 83.97942 
L 41.965289 84.118666 
L 42.990083 84.27279 
L 44.014876 84.438073 
L 45.039669 84.610389 
L 46.064463 84.785374 
L 47.089256 84.958577 
L 48.11405 85.125599 
L 49.138843 85.282217 
L 50.163636 85.424491 
L 51.18843 85.548869 
L 52.213223 85.65226 
L 53.238017 85.73211 
L 54.26281 85.786456 
L 55.287603 85.813966 
L 56.312397 85.813966 
L 57.33719 85.786456 
L 58.361983 85.73211 
L 59.386777 85.65226 
L 60.41157 85.548869 
L 61.436364 85.424491 
L 62.461157 85.282217 
L 63.48595 85.125599 
L 64.510744 84.958577 
L 65.535537 84.785374 
L 66.560331 84.610389 
L 67.585124 84.438073 
L 68.609917 84.27279 
L 69.634711 84.118666 
L 70.659504 83.97942 
L 71.684298 83.858189 
L 72.709091 83.757331 
L 73.733884 83.678221 
L 74.758678 83.621025 
L 75.783471 83.58447 
L 76.808264 83.565593 
L 77.833058 83.55948 
L 78.857851 83.558986 
L 79.882645 83.554449 
L 80.907438 83.533386 
L 81.932231 83.480171 
L 82.957025 83.375706 
L 83.981818 83.197079 
L 85.006612 82.917197 
L 86.031405 82.504421 
L 87.056198 81.922172 
L 88.080992 81.128538 
L 89.105785 80.075852 
L 90.130579 78.710269 
L 91.155372 76.971319 
L 92.180165 74.791457 
L 93.204959 72.09559 
L 94.229752 68.80059 
L 95.254545 64.814805 
L 96.279339 60.03754 
L 97.304132 54.358535 
L 98.328926 47.657427 
L 99.353719 39.803196 
L 100.378512 30.653598 
L 101.403306 20.054588 
L 102.428099 7.839722 
L 103.074693 -1 
" style="fill:none;stroke:#377eb8;stroke-linecap:square;stroke-width:1.5;"/>
   </g>
   <g id="line2d_3">
    <path clip-path="url(#p572311f5ff)" d="M 7.996533 -1 
L 8.147107 1.302956 
L 9.171901 14.995148 
L 10.196694 26.898947 
L 11.221488 37.193802 
L 12.246281 46.046156 
L 13.271074 53.610057 
L 14.295868 60.027748 
L 15.320661 65.430248 
L 16.345455 69.937921 
L 17.370248 73.661027 
L 18.395041 76.700259 
L 19.419835 79.147272 
L 20.444628 81.085192 
L 21.469421 82.589113 
L 22.494215 83.72658 
L 23.519008 84.558062 
L 24.543802 85.137405 
L 25.568595 85.512275 
L 26.593388 85.724585 
L 27.618182 85.810913 
L 28.642975 85.8029 
L 29.667769 85.727636 
L 30.692562 85.608036 
L 31.717355 85.463197 
L 32.742149 85.308743 
L 33.766942 85.157159 
L 34.791736 85.018108 
L 35.816529 84.898732 
L 36.841322 84.803947 
L 37.866116 84.736716 
L 38.890909 84.698312 
L 39.915702 84.688568 
L 40.940496 84.706109 
L 41.965289 84.748578 
L 42.990083 84.812839 
L 44.014876 84.89517 
L 45.039669 84.991447 
L 46.064463 85.097306 
L 47.089256 85.208296 
L 48.11405 85.320017 
L 49.138843 85.428246 
L 50.163636 85.529045 
L 51.18843 85.618859 
L 52.213223 85.694599 
L 53.238017 85.753712 
L 54.26281 85.794233 
L 55.287603 85.81483 
L 56.312397 85.81483 
L 57.33719 85.794233 
L 58.361983 85.753712 
L 59.386777 85.694599 
L 60.41157 85.618859 
L 61.436364 85.529045 
L 62.461157 85.428246 
L 63.48595 85.320017 
L 64.510744 85.208296 
L 65.535537 85.097306 
L 66.560331 84.991447 
L 67.585124 84.89517 
L 68.609917 84.812839 
L 69.634711 84.748578 
L 70.659504 84.706109 
L 71.684298 84.688568 
L 72.709091 84.698312 
L 73.733884 84.736716 
L 74.758678 84.803947 
L 75.783471 84.898732 
L 76.808264 85.018108 
L 77.833058 85.157159 
L 78.857851 85.308743 
L 79.882645 85.463197 
L 80.907438 85.608036 
L 81.932231 85.727636 
L 82.957025 85.8029 
L 83.981818 85.810913 
L 85.006612 85.724585 
L 86.031405 85.512275 
L 87.056198 85.137405 
L 88.080992 84.558062 
L 89.105785 83.72658 
L 90.130579 82.589113 
L 91.155372 81.085192 
L 92.180165 79.147272 
L 93.204959 76.700259 
L 94.229752 73.661027 
L 95.254545 69.937921 
L 96.279339 65.430248 
L 97.304132 60.027748 
L 98.328926 53.610057 
L 99.353719 46.046156 
L 100.378512 37.193802 
L 101.403306 26.898947 
L 102.428099 14.995148 
L 103.452893 1.302956 
L 103.603467 -1 
" style="fill:none;stroke:#4daf4a;stroke-linecap:square;stroke-width:1.5;"/>
   </g>
   <g id="line2d_4">
    <path clip-path="url(#p572311f5ff)" d="M 6.513273 -1 
L 7.122314 9.024194 
L 8.147107 23.723177 
L 9.171901 36.461428 
L 10.196694 47.432023 
L 11.221488 56.814411 
L 12.246281 64.775038 
L 13.271074 71.467949 
L 14.295868 77.035387 
L 15.320661 81.608373 
L 16.345455 85.307269 
L 17.370248 88.242336 
L 18.395041 90.514267 
L 19.419835 92.214718 
L 20.444628 93.426812 
L 21.469421 94.225646 
L 22.494215 94.678763 
L 23.519008 94.846634 
L 24.543802 94.783103 
L 25.568595 94.535837 
L 26.593388 94.146749 
L 27.618182 93.652417 
L 28.642975 93.084482 
L 29.667769 92.470034 
L 30.692562 91.831987 
L 31.717355 91.189439 
L 32.742149 90.558014 
L 33.766942 89.950197 
L 34.791736 89.375651 
L 35.816529 88.841518 
L 36.841322 88.352714 
L 37.866116 87.912201 
L 38.890909 87.521253 
L 39.915702 87.179703 
L 40.940496 86.886177 
L 41.965289 86.638316 
L 42.990083 86.432984 
L 44.014876 86.266461 
L 45.039669 86.134622 
L 46.064463 86.033102 
L 47.089256 85.957451 
L 48.11405 85.903269 
L 49.138843 85.866333 
L 50.163636 85.842705 
L 51.18843 85.82883 
L 52.213223 85.821619 
L 53.238017 85.818518 
L 54.26281 85.817563 
L 55.287603 85.817422 
L 56.312397 85.817422 
L 57.33719 85.817563 
L 58.361983 85.818518 
L 59.386777 85.821619 
L 60.41157 85.82883 
L 61.436364 85.842705 
L 62.461157 85.866333 
L 63.48595 85.903269 
L 64.510744 85.957451 
L 65.535537 86.033102 
L 66.560331 86.134622 
L 67.585124 86.266461 
L 68.609917 86.432984 
L 69.634711 86.638316 
L 70.659504 86.886177 
L 71.684298 87.179703 
L 72.709091 87.521253 
L 73.733884 87.912201 
L 74.758678 88.352714 
L 75.783471 88.841518 
L 76.808264 89.375651 
L 77.833058 89.950197 
L 78.857851 90.558014 
L 79.882645 91.189439 
L 80.907438 91.831987 
L 81.932231 92.470034 
L 82.957025 93.084482 
L 83.981818 93.652417 
L 85.006612 94.146749 
L 86.031405 94.535837 
L 87.056198 94.783103 
L 88.080992 94.846634 
L 89.105785 94.678763 
L 90.130579 94.225646 
L 91.155372 93.426812 
L 92.180165 92.214718 
L 93.204959 90.514267 
L 94.229752 88.242336 
L 95.254545 85.307269 
L 96.279339 81.608373 
L 97.304132 77.035387 
L 98.328926 71.467949 
L 99.353719 64.775038 
L 100.378512 56.814411 
L 101.403306 47.432023 
L 102.428099 36.461428 
L 103.452893 23.723177 
L 104.477686 9.024194 
L 105.086727 -1 
" style="fill:none;stroke:#984ea3;stroke-linecap:square;stroke-width:1.5;"/>
   </g>
   <g id="line2d_5">
    <path clip-path="url(#p572311f5ff)" d="M 5.072727 -0 
L 6.097521 18.173479 
L 7.122314 33.978755 
L 8.147107 47.638079 
L 9.171901 59.358792 
L 10.196694 69.33397 
L 11.221488 77.743062 
L 12.246281 84.752512 
L 13.271074 90.516366 
L 14.295868 95.176869 
L 15.320661 98.865039 
L 16.345455 101.70124 
L 17.370248 103.795732 
L 18.395041 105.24921 
L 19.419835 106.153326 
L 20.444628 106.591207 
L 21.469421 106.637947 
L 22.494215 106.361092 
L 23.519008 105.821111 
L 24.543802 105.071848 
L 25.568595 104.16097 
L 26.593388 103.130391 
L 27.618182 102.016688 
L 28.642975 100.851503 
L 29.667769 99.661924 
L 30.692562 98.470868 
L 31.717355 97.297431 
L 32.742149 96.157237 
L 33.766942 95.062772 
L 34.791736 94.023697 
L 35.816529 93.047156 
L 36.841322 92.138065 
L 37.866116 91.299385 
L 38.890909 90.532391 
L 39.915702 89.836915 
L 40.940496 89.211583 
L 41.965289 88.654036 
L 42.990083 88.161139 
L 44.014876 87.729172 
L 45.039669 87.354008 
L 46.064463 87.031284 
L 47.089256 86.75655 
L 48.11405 86.525405 
L 49.138843 86.333626 
L 50.163636 86.177276 
L 51.18843 86.052799 
L 52.213223 85.957106 
L 53.238017 85.887644 
L 54.26281 85.842448 
L 55.287603 85.820187 
L 56.312397 85.820187 
L 57.33719 85.842448 
L 58.361983 85.887644 
L 59.386777 85.957106 
L 60.41157 86.052799 
L 61.436364 86.177276 
L 62.461157 86.333626 
L 63.48595 86.525405 
L 64.510744 86.75655 
L 65.535537 87.031284 
L 66.560331 87.354008 
L 67.585124 87.729172 
L 68.609917 88.161139 
L 69.634711 88.654036 
L 70.659504 89.211583 
L 71.684298 89.836915 
L 72.709091 90.532391 
L 73.733884 91.299385 
L 74.758678 92.138065 
L 75.783471 93.047156 
L 76.808264 94.023697 
L 77.833058 95.062772 
L 78.857851 96.157237 
L 79.882645 97.297431 
L 80.907438 98.470868 
L 81.932231 99.661924 
L 82.957025 100.851503 
L 83.981818 102.016688 
L 85.006612 103.130391 
L 86.031405 104.16097 
L 87.056198 105.071848 
L 88.080992 105.821111 
L 89.105785 106.361092 
L 90.130579 106.637947 
L 91.155372 106.591207 
L 92.180165 106.153326 
L 93.204959 105.24921 
L 94.229752 103.795732 
L 95.254545 101.70124 
L 96.279339 98.865039 
L 97.304132 95.176869 
L 98.328926 90.516366 
L 99.353719 84.752512 
L 100.378512 77.743062 
L 101.403306 69.33397 
L 102.428099 59.358792 
L 103.452893 47.638079 
L 104.477686 33.978755 
L 105.502479 18.173479 
L 106.527273 -0 
" style="fill:none;stroke:#ff7f00;stroke-linecap:square;stroke-width:1.5;"/>
   </g>
  </g>
 </g>
 <defs>
  <clipPath id="p572311f5ff">
   <rect height="108.72" width="111.6" x="0" y="-0"/>
  </clipPath>
 </defs>
</svg>
