<?xml version="1.0" encoding="utf-8" standalone="no"?>
<!DOCTYPE svg PUBLIC "-//W3C//DTD SVG 1.1//EN"
  "http://www.w3.org/Graphics/SVG/1.1/DTD/svg11.dtd">
<!-- Created with matplotlib (https://matplotlib.org/) -->
<svg height="108.72pt" version="1.1" viewBox="0 0 111.6 108.72" width="111.6pt" xmlns="http://www.w3.org/2000/svg" xmlns:xlink="http://www.w3.org/1999/xlink">
 <defs>
  <style type="text/css">
*{stroke-linecap:butt;stroke-linejoin:round;}
  </style>
 </defs>
 <g id="figure_1">
  <g id="patch_1">
   <path d="M 0 108.72 
L 111.6 108.72 
L 111.6 0 
L 0 0 
z
" style="fill:none;"/>
  </g>
  <g id="axes_1">
   <g id="line2d_1">
    <path clip-path="url(#p425d863e30)" d="M 5.072727 7.764346 
L 6.097521 8.755371 
L 7.122314 9.764819 
L 8.147107 10.793487 
L 9.171901 11.842221 
L 10.196694 12.911939 
L 11.221488 14.003613 
L 12.246281 15.118296 
L 13.271074 16.257125 
L 14.295868 17.421321 
L 15.320661 18.612214 
L 16.345455 19.831243 
L 17.370248 21.079972 
L 18.395041 22.360111 
L 19.419835 23.673533 
L 20.444628 25.022296 
L 21.469421 26.408662 
L 22.494215 27.835141 
L 23.519008 29.304519 
L 24.543802 30.819906 
L 25.568595 32.38479 
L 26.593388 34.003104 
L 27.618182 35.679311 
L 28.642975 37.418512 
L 29.667769 39.226578 
L 30.692562 41.110308 
L 31.717355 43.077687 
L 32.742149 45.13816 
L 33.766942 47.303056 
L 34.791736 49.58616 
L 35.816529 52.004528 
L 36.841322 54.579722 
L 37.866116 57.339647 
L 38.890909 60.3216 
L 39.915702 63.577423 
L 40.940496 67.183075 
L 41.965289 71.258278 
L 42.990083 76.013573 
L 44.014876 81.894108 
L 45.039669 90.311309 
L 46.064463 103.778025 
L 47.089256 103.778138 
L 48.11405 103.778182 
L 49.138843 103.778182 
L 50.163636 103.778182 
L 51.18843 103.77818 
L 52.213223 103.778182 
L 53.238017 103.778182 
L 54.26281 103.778182 
L 55.287603 103.77818 
L 56.312397 103.778182 
L 57.33719 103.778182 
L 58.361983 103.778182 
L 59.386777 103.778182 
L 60.41157 103.778182 
L 61.436364 103.778182 
L 62.461157 103.778178 
L 63.48595 103.778181 
L 64.510744 103.778181 
L 65.535537 103.778182 
L 66.560331 103.778182 
L 67.585124 103.778182 
L 68.609917 103.778182 
L 69.634711 103.778182 
L 70.659504 103.778182 
L 71.684298 103.778182 
L 72.709091 103.778182 
L 73.733884 103.778182 
L 74.758678 103.778182 
L 75.783471 103.778182 
L 76.808264 103.77818 
L 77.833058 103.778181 
L 78.857851 103.778181 
L 79.882645 103.778182 
L 80.907438 103.778182 
L 81.932231 103.778182 
L 82.957025 103.778182 
L 83.981818 103.778182 
L 85.006612 103.778182 
L 86.031405 103.778182 
L 87.056198 103.778182 
L 88.080992 103.778182 
L 89.105785 103.778182 
L 90.130579 103.778182 
L 91.155372 103.778182 
L 92.180165 103.778182 
L 93.204959 103.778182 
L 94.229752 103.778182 
L 95.254545 103.778182 
L 96.279339 103.778182 
L 97.304132 103.778182 
L 98.328926 103.778182 
L 99.353719 103.778182 
L 100.378512 103.778182 
L 101.403306 103.778182 
L 102.428099 103.778182 
L 103.452893 103.77818 
L 104.477686 103.778181 
L 105.502479 103.778181 
L 106.527273 103.778181 
" style="fill:none;stroke:#e41a1c;stroke-linecap:square;stroke-width:1.5;"/>
   </g>
   <g id="line2d_2">
    <path clip-path="url(#p425d863e30)" d="M 5.072727 4.941818 
L 6.097521 5.856533 
L 7.122314 6.785761 
L 8.147107 7.730007 
L 9.171901 8.689792 
L 10.196694 9.665669 
L 11.221488 10.658216 
L 12.246281 11.668043 
L 13.271074 12.695794 
L 14.295868 13.742148 
L 15.320661 14.807815 
L 16.345455 15.893553 
L 17.370248 17.000153 
L 18.395041 18.128458 
L 19.419835 19.279347 
L 20.444628 20.45376 
L 21.469421 21.652684 
L 22.494215 22.877162 
L 23.519008 24.128286 
L 24.543802 25.407219 
L 25.568595 26.715175 
L 26.593388 28.053439 
L 27.618182 29.42335 
L 28.642975 30.826312 
L 29.667769 32.263785 
L 30.692562 33.73728 
L 31.717355 35.248345 
L 32.742149 36.798558 
L 33.766942 38.389495 
L 34.791736 40.022705 
L 35.816529 41.699668 
L 36.841322 43.421714 
L 37.866116 45.189964 
L 38.890909 47.00521 
L 39.915702 48.867762 
L 40.940496 50.777265 
L 41.965289 52.732463 
L 42.990083 54.730902 
L 44.014876 56.768593 
L 45.039669 58.839635 
L 46.064463 60.935851 
L 47.089256 63.046483 
L 48.11405 65.158081 
L 49.138843 67.254646 
L 50.163636 69.318215 
L 51.18843 71.329856 
L 52.213223 73.271028 
L 53.238017 75.125094 
L 54.26281 76.878653 
L 55.287603 78.52243 
L 56.312397 80.051548 
L 57.33719 81.465257 
L 58.361983 82.766189 
L 59.386777 83.959502 
L 60.41157 85.051991 
L 61.436364 86.051326 
L 62.461157 86.96547 
L 63.48595 87.802267 
L 64.510744 88.569181 
L 65.535537 89.273148 
L 66.560331 89.920504 
L 67.585124 90.516978 
L 68.609917 91.067704 
L 69.634711 91.577262 
L 70.659504 92.049733 
L 71.684298 92.48873 
L 72.709091 92.897462 
L 73.733884 93.278777 
L 74.758678 93.635206 
L 75.783471 93.968995 
L 76.808264 94.282147 
L 77.833058 94.576447 
L 78.857851 94.85349 
L 79.882645 95.114703 
L 80.907438 95.361367 
L 81.932231 95.594634 
L 82.957025 95.815541 
L 83.981818 96.025022 
L 85.006612 96.223923 
L 86.031405 96.413013 
L 87.056198 96.592984 
L 88.080992 96.764474 
L 89.105785 96.928059 
L 90.130579 97.084263 
L 91.155372 97.23357 
L 92.180165 97.376421 
L 93.204959 97.51322 
L 94.229752 97.644342 
L 95.254545 97.770127 
L 96.279339 97.890892 
L 97.304132 98.00693 
L 98.328926 98.118511 
L 99.353719 98.225883 
L 100.378512 98.32928 
L 101.403306 98.428916 
L 102.428099 98.524992 
L 103.452893 98.617693 
L 104.477686 98.707194 
L 105.502479 98.793656 
L 106.527273 98.877231 
" style="fill:none;stroke:#377eb8;stroke-linecap:square;stroke-width:1.5;"/>
   </g>
  </g>
 </g>
 <defs>
  <clipPath id="p425d863e30">
   <rect height="108.72" width="111.6" x="0" y="-0"/>
  </clipPath>
 </defs>
</svg>
