<?xml version="1.0" encoding="utf-8" standalone="no"?>
<!DOCTYPE svg PUBLIC "-//W3C//DTD SVG 1.1//EN"
  "http://www.w3.org/Graphics/SVG/1.1/DTD/svg11.dtd">
<!-- Created with matplotlib (https://matplotlib.org/) -->
<svg height="108.72pt" version="1.1" viewBox="0 0 111.6 108.72" width="111.6pt" xmlns="http://www.w3.org/2000/svg" xmlns:xlink="http://www.w3.org/1999/xlink">
 <defs>
  <style type="text/css">
*{stroke-linecap:butt;stroke-linejoin:round;}
  </style>
 </defs>
 <g id="figure_1">
  <g id="patch_1">
   <path d="M 0 108.72 
L 111.6 108.72 
L 111.6 0 
L 0 0 
z
" style="fill:none;"/>
  </g>
  <g id="axes_1">
   <g id="line2d_1">
    <path clip-path="url(#pad1a40e4bb)" d="M 25.944248 -1 
L 26.593388 3.039312 
L 27.618182 8.9585 
L 28.642975 14.448868 
L 29.667769 19.537532 
L 30.692562 24.249974 
L 31.717355 28.610113 
L 32.742149 32.640377 
L 33.766942 36.361763 
L 34.791736 39.793906 
L 35.816529 42.955134 
L 36.841322 45.86253 
L 37.866116 48.531982 
L 38.890909 50.978239 
L 39.915702 53.21496 
L 40.940496 55.254759 
L 41.965289 57.109248 
L 42.990083 58.78908 
L 44.014876 60.303989 
L 45.039669 61.66282 
L 46.064463 62.873568 
L 47.089256 63.943404 
L 48.11405 64.878704 
L 49.138843 65.685074 
L 50.163636 66.36737 
L 51.18843 66.92972 
L 52.213223 67.37554 
L 53.238017 67.707543 
L 54.26281 67.927756 
L 55.287603 68.037527 
L 56.312397 68.037527 
L 57.33719 67.927756 
L 58.361983 67.707543 
L 59.386777 67.37554 
L 60.41157 66.92972 
L 61.436364 66.36737 
L 62.461157 65.685074 
L 63.48595 64.878704 
L 64.510744 63.943404 
L 65.535537 62.873568 
L 66.560331 61.66282 
L 67.585124 60.303989 
L 68.609917 58.78908 
L 69.634711 57.109248 
L 70.659504 55.254759 
L 71.684298 53.21496 
L 72.709091 50.978239 
L 73.733884 48.531982 
L 74.758678 45.86253 
L 75.783471 42.955134 
L 76.808264 39.793906 
L 77.833058 36.361763 
L 78.857851 32.640377 
L 79.882645 28.610113 
L 80.907438 24.249974 
L 81.932231 19.537532 
L 82.957025 14.448868 
L 83.981818 8.9585 
L 85.006612 3.039312 
L 85.655752 -1 
" style="fill:none;stroke:#e41a1c;stroke-linecap:square;stroke-width:1.5;"/>
   </g>
   <g id="line2d_2">
    <path clip-path="url(#pad1a40e4bb)" d="M 16.961346 -1 
L 17.370248 2.171527 
L 18.395041 9.422233 
L 19.419835 16.023101 
L 20.444628 22.019605 
L 21.469421 27.45482 
L 22.494215 32.369518 
L 23.519008 36.802264 
L 24.543802 40.789505 
L 25.568595 44.365657 
L 26.593388 47.56319 
L 27.618182 50.412711 
L 28.642975 52.943043 
L 29.667769 55.181302 
L 30.692562 57.152969 
L 31.717355 58.881965 
L 32.742149 60.390716 
L 33.766942 61.700221 
L 34.791736 62.830114 
L 35.816529 63.798723 
L 36.841322 64.62313 
L 37.866116 65.319224 
L 38.890909 65.901755 
L 39.915702 66.384381 
L 40.940496 66.779715 
L 41.965289 67.09937 
L 42.990083 67.354 
L 44.014876 67.553337 
L 45.039669 67.706228 
L 46.064463 67.820666 
L 47.089256 67.903823 
L 48.11405 67.962075 
L 49.138843 68.001028 
L 50.163636 68.025538 
L 51.18843 68.039734 
L 52.213223 68.047029 
L 53.238017 68.050139 
L 54.26281 68.051091 
L 55.287603 68.051231 
L 56.312397 68.051231 
L 57.33719 68.051091 
L 58.361983 68.050139 
L 59.386777 68.047029 
L 60.41157 68.039734 
L 61.436364 68.025538 
L 62.461157 68.001028 
L 63.48595 67.962075 
L 64.510744 67.903823 
L 65.535537 67.820666 
L 66.560331 67.706228 
L 67.585124 67.553337 
L 68.609917 67.354 
L 69.634711 67.09937 
L 70.659504 66.779715 
L 71.684298 66.384381 
L 72.709091 65.901755 
L 73.733884 65.319224 
L 74.758678 64.62313 
L 75.783471 63.798723 
L 76.808264 62.830114 
L 77.833058 61.700221 
L 78.857851 60.390716 
L 79.882645 58.881965 
L 80.907438 57.152969 
L 81.932231 55.181302 
L 82.957025 52.943043 
L 83.981818 50.412711 
L 85.006612 47.56319 
L 86.031405 44.365657 
L 87.056198 40.789505 
L 88.080992 36.802264 
L 89.105785 32.369518 
L 90.130579 27.45482 
L 91.155372 22.019605 
L 92.180165 16.023101 
L 93.204959 9.422233 
L 94.229752 2.171527 
L 94.638654 -1 
" style="fill:none;stroke:#377eb8;stroke-linecap:square;stroke-width:1.5;"/>
   </g>
   <g id="line2d_3">
    <path clip-path="url(#pad1a40e4bb)" d="M 6.593017 -1 
L 7.122314 5.677051 
L 8.147107 17.375947 
L 9.171901 27.924997 
L 10.196694 37.399525 
L 11.221488 45.871348 
L 12.246281 53.408897 
L 13.271074 60.077344 
L 14.295868 65.938712 
L 15.320661 71.051995 
L 16.345455 75.47327 
L 17.370248 79.255804 
L 18.395041 82.450163 
L 19.419835 85.104317 
L 20.444628 87.263737 
L 21.469421 88.971498 
L 22.494215 90.268374 
L 23.519008 91.19293 
L 24.543802 91.781611 
L 25.568595 92.068833 
L 26.593388 92.087068 
L 27.618182 91.866922 
L 28.642975 91.437218 
L 29.667769 90.825071 
L 30.692562 90.055964 
L 31.717355 89.153817 
L 32.742149 88.141056 
L 33.766942 87.038679 
L 34.791736 85.866322 
L 35.816529 84.642311 
L 36.841322 83.383729 
L 37.866116 82.106466 
L 38.890909 80.825271 
L 39.915702 79.553801 
L 40.940496 78.304671 
L 41.965289 77.089492 
L 42.990083 75.91892 
L 44.014876 74.802685 
L 45.039669 73.749635 
L 46.064463 72.767763 
L 47.089256 71.864242 
L 48.11405 71.045446 
L 49.138843 70.316982 
L 50.163636 69.683707 
L 51.18843 69.149748 
L 52.213223 68.718519 
L 53.238017 68.392736 
L 54.26281 68.174426 
L 55.287603 68.064935 
L 56.312397 68.064935 
L 57.33719 68.174426 
L 58.361983 68.392736 
L 59.386777 68.718519 
L 60.41157 69.149748 
L 61.436364 69.683707 
L 62.461157 70.316982 
L 63.48595 71.045446 
L 64.510744 71.864242 
L 65.535537 72.767763 
L 66.560331 73.749635 
L 67.585124 74.802685 
L 68.609917 75.91892 
L 69.634711 77.089492 
L 70.659504 78.304671 
L 71.684298 79.553801 
L 72.709091 80.825271 
L 73.733884 82.106466 
L 74.758678 83.383729 
L 75.783471 84.642311 
L 76.808264 85.866322 
L 77.833058 87.038679 
L 78.857851 88.141056 
L 79.882645 89.153817 
L 80.907438 90.055964 
L 81.932231 90.825071 
L 82.957025 91.437218 
L 83.981818 91.866922 
L 85.006612 92.087068 
L 86.031405 92.068833 
L 87.056198 91.781611 
L 88.080992 91.19293 
L 89.105785 90.268374 
L 90.130579 88.971498 
L 91.155372 87.263737 
L 92.180165 85.104317 
L 93.204959 82.450163 
L 94.229752 79.255804 
L 95.254545 75.47327 
L 96.279339 71.051995 
L 97.304132 65.938712 
L 98.328926 60.077344 
L 99.353719 53.408897 
L 100.378512 45.871348 
L 101.403306 37.399525 
L 102.428099 27.924997 
L 103.452893 17.375947 
L 104.477686 5.677051 
L 105.006983 -1 
" style="fill:none;stroke:#4daf4a;stroke-linecap:square;stroke-width:1.5;"/>
   </g>
   <g id="line2d_4">
    <path clip-path="url(#pad1a40e4bb)" d="M 8.316131 -1 
L 9.171901 8.171689 
L 10.196694 18.080356 
L 11.221488 26.986317 
L 12.246281 34.958005 
L 13.271074 42.06059 
L 14.295868 48.356097 
L 15.320661 53.903518 
L 16.345455 58.758932 
L 17.370248 62.975605 
L 18.395041 66.604103 
L 19.419835 69.692395 
L 20.444628 72.285954 
L 21.469421 74.427854 
L 22.494215 76.158868 
L 23.519008 77.517562 
L 24.543802 78.540382 
L 25.568595 79.261743 
L 26.593388 79.714117 
L 27.618182 79.928109 
L 28.642975 79.932544 
L 29.667769 79.754536 
L 30.692562 79.419567 
L 31.717355 78.951558 
L 32.742149 78.372936 
L 33.766942 77.704699 
L 34.791736 76.966479 
L 35.816529 76.176607 
L 36.841322 75.352164 
L 37.866116 74.50904 
L 38.890909 73.661983 
L 39.915702 72.824652 
L 40.940496 72.00966 
L 41.965289 71.228621 
L 42.990083 70.492187 
L 44.014876 69.81009 
L 45.039669 69.191179 
L 46.064463 68.643446 
L 47.089256 68.174063 
L 48.11405 67.789406 
L 49.138843 67.495081 
L 50.163636 67.295944 
L 51.18843 67.196124 
L 52.213223 67.199034 
L 53.238017 67.307389 
L 54.26281 67.523218 
L 55.287603 67.847865 
L 56.312397 68.282004 
L 57.33719 68.825634 
L 58.361983 69.478083 
L 59.386777 70.238004 
L 60.41157 71.103371 
L 61.436364 72.071469 
L 62.461157 73.138883 
L 63.48595 74.301486 
L 64.510744 75.55442 
L 65.535537 76.89208 
L 66.560331 78.308091 
L 67.585124 79.795279 
L 68.609917 81.345653 
L 69.634711 82.950364 
L 70.659504 84.599681 
L 71.684298 86.28295 
L 72.709091 87.988559 
L 73.733884 89.703893 
L 74.758678 91.415294 
L 75.783471 93.108015 
L 76.808264 94.766164 
L 77.833058 96.37266 
L 78.857851 97.909175 
L 79.882645 99.356075 
L 80.907438 100.692361 
L 81.932231 101.895606 
L 82.957025 102.941892 
L 83.981818 103.805735 
L 85.006612 104.46002 
L 86.031405 104.875923 
L 87.056198 105.022839 
L 88.080992 104.868297 
L 89.105785 104.37788 
L 90.130579 103.515143 
L 91.155372 102.24152 
L 92.180165 100.516239 
L 93.204959 98.296224 
L 94.229752 95.536003 
L 95.254545 92.187607 
L 96.279339 88.200471 
L 97.304132 83.521327 
L 98.328926 78.094098 
L 99.353719 71.85979 
L 100.378512 64.756379 
L 101.403306 56.718695 
L 102.428099 47.678306 
L 103.452893 37.563394 
L 104.477686 26.298637 
L 105.502479 13.805078 
L 106.527273 -0 
" style="fill:none;stroke:#984ea3;stroke-linecap:square;stroke-width:1.5;"/>
   </g>
  </g>
 </g>
 <defs>
  <clipPath id="pad1a40e4bb">
   <rect height="108.72" width="111.6" x="0" y="-0"/>
  </clipPath>
 </defs>
</svg>
