<?xml version="1.0" encoding="utf-8" standalone="no"?>
<!DOCTYPE svg PUBLIC "-//W3C//DTD SVG 1.1//EN"
  "http://www.w3.org/Graphics/SVG/1.1/DTD/svg11.dtd">
<!-- Created with matplotlib (https://matplotlib.org/) -->
<svg height="108.72pt" version="1.1" viewBox="0 0 111.6 108.72" width="111.6pt" xmlns="http://www.w3.org/2000/svg" xmlns:xlink="http://www.w3.org/1999/xlink">
 <defs>
  <style type="text/css">
*{stroke-linecap:butt;stroke-linejoin:round;}
  </style>
 </defs>
 <g id="figure_1">
  <g id="patch_1">
   <path d="M 0 108.72 
L 111.6 108.72 
L 111.6 0 
L 0 0 
z
" style="fill:none;"/>
  </g>
  <g id="axes_1">
   <g id="line2d_1">
    <path clip-path="url(#pacecd20e99)" d="M 5.072727 8.181441 
L 6.097521 8.586928 
L 7.122314 8.998865 
L 8.147107 9.4175 
L 9.171901 9.843102 
L 10.196694 10.27596 
L 11.221488 10.716376 
L 12.246281 11.164679 
L 13.271074 11.621216 
L 14.295868 12.086364 
L 15.320661 12.560523 
L 16.345455 13.044129 
L 17.370248 13.537645 
L 18.395041 14.041582 
L 19.419835 14.556485 
L 20.444628 15.082949 
L 21.469421 15.621623 
L 22.494215 16.173219 
L 23.519008 16.738512 
L 24.543802 17.318355 
L 25.568595 17.913695 
L 26.593388 18.525576 
L 27.618182 19.155156 
L 28.642975 19.80374 
L 29.667769 20.472786 
L 30.692562 21.163937 
L 31.717355 21.879061 
L 32.742149 22.620299 
L 33.766942 23.390106 
L 34.791736 24.191336 
L 35.816529 25.027324 
L 36.841322 25.902022 
L 37.866116 26.820144 
L 38.890909 27.787414 
L 39.915702 28.810864 
L 40.940496 29.899313 
L 41.965289 31.064034 
L 42.990083 32.319841 
L 44.014876 33.686825 
L 45.039669 35.193383 
L 46.064463 36.881892 
L 47.089256 38.820568 
L 48.11405 41.132395 
L 49.138843 44.086047 
L 50.163636 48.585379 
L 51.18843 103.778179 
L 52.213223 103.778179 
L 53.238017 103.778179 
L 54.26281 103.778179 
L 55.287603 103.778179 
L 56.312397 103.778179 
L 57.33719 103.778175 
L 58.361983 103.778179 
L 59.386777 103.778179 
L 60.41157 103.778179 
L 61.436364 103.77818 
L 62.461157 103.778178 
L 63.48595 103.778179 
L 64.510744 103.778179 
L 65.535537 103.778179 
L 66.560331 103.778177 
L 67.585124 103.778178 
L 68.609917 103.778179 
L 69.634711 103.778179 
L 70.659504 103.778179 
L 71.684298 103.778179 
L 72.709091 103.778182 
L 73.733884 103.778179 
L 74.758678 103.778179 
L 75.783471 103.778177 
L 76.808264 103.778179 
L 77.833058 103.778179 
L 78.857851 103.778179 
L 79.882645 103.778179 
L 80.907438 103.778179 
L 81.932231 103.778179 
L 82.957025 103.778179 
L 83.981818 103.778179 
L 85.006612 103.778179 
L 86.031405 103.778179 
L 87.056198 103.778179 
L 88.080992 103.778179 
L 89.105785 103.778179 
L 90.130579 103.778179 
L 91.155372 103.778179 
L 92.180165 103.778179 
L 93.204959 103.778179 
L 94.229752 103.77818 
L 95.254545 103.778179 
L 96.279339 103.778179 
L 97.304132 103.778179 
L 98.328926 103.778179 
L 99.353719 103.778179 
L 100.378512 103.778179 
L 101.403306 103.778179 
L 102.428099 103.778179 
L 103.452893 103.778179 
L 104.477686 103.778179 
L 105.502479 103.778179 
L 106.527273 103.778178 
" style="fill:none;stroke:#e41a1c;stroke-linecap:square;stroke-width:1.5;"/>
   </g>
   <g id="line2d_2">
    <path clip-path="url(#pacecd20e99)" d="M 5.072727 7.655295 
L 6.097521 8.050443 
L 7.122314 8.451607 
L 8.147107 8.859015 
L 9.171901 9.2729 
L 10.196694 9.693514 
L 11.221488 10.121127 
L 12.246281 10.556027 
L 13.271074 10.998516 
L 14.295868 11.448922 
L 15.320661 11.907593 
L 16.345455 12.374901 
L 17.370248 12.85125 
L 18.395041 13.337069 
L 19.419835 13.832826 
L 20.444628 14.339024 
L 21.469421 14.856207 
L 22.494215 15.384965 
L 23.519008 15.925945 
L 24.543802 16.479846 
L 25.568595 17.04744 
L 26.593388 17.629573 
L 27.618182 18.227174 
L 28.642975 18.841273 
L 29.667769 19.473015 
L 30.692562 20.123676 
L 31.717355 20.794689 
L 32.742149 21.487655 
L 33.766942 22.204401 
L 34.791736 22.947003 
L 35.816529 23.717842 
L 36.841322 24.519671 
L 37.866116 25.355694 
L 38.890909 26.229685 
L 39.915702 27.146124 
L 40.940496 28.110403 
L 41.965289 29.129102 
L 42.990083 30.210374 
L 44.014876 31.364521 
L 45.039669 32.604863 
L 46.064463 33.949104 
L 47.089256 35.421613 
L 48.11405 37.057455 
L 49.138843 38.910213 
L 50.163636 41.068929 
L 51.18843 43.701967 
L 52.213223 47.20921 
L 53.238017 53.303523 
L 54.26281 85.936585 
L 55.287603 88.796287 
L 56.312397 90.664997 
L 57.33719 92.044568 
L 58.361983 93.126515 
L 59.386777 94.007151 
L 60.41157 94.742521 
L 61.436364 95.36835 
L 62.461157 95.908853 
L 63.48595 96.381245 
L 64.510744 96.798189 
L 65.535537 97.169272 
L 66.560331 97.501905 
L 67.585124 97.801936 
L 68.609917 98.074053 
L 69.634711 98.322061 
L 70.659504 98.549093 
L 71.684298 98.757738 
L 72.709091 98.950183 
L 73.733884 99.12827 
L 74.758678 99.293565 
L 75.783471 99.447416 
L 76.808264 99.590979 
L 77.833058 99.725269 
L 78.857851 99.851159 
L 79.882645 99.969419 
L 80.907438 100.080728 
L 81.932231 100.185686 
L 82.957025 100.284823 
L 83.981818 100.378614 
L 85.006612 100.467481 
L 86.031405 100.551805 
L 87.056198 100.631927 
L 88.080992 100.708154 
L 89.105785 100.780764 
L 90.130579 100.85001 
L 91.155372 100.916122 
L 92.180165 100.979307 
L 93.204959 101.039757 
L 94.229752 101.097646 
L 95.254545 101.153134 
L 96.279339 101.206367 
L 97.304132 101.25748 
L 98.328926 101.306598 
L 99.353719 101.353834 
L 100.378512 101.399298 
L 101.403306 101.443086 
L 102.428099 101.485289 
L 103.452893 101.525991 
L 104.477686 101.565272 
L 105.502479 101.603205 
L 106.527273 101.639858 
" style="fill:none;stroke:#377eb8;stroke-linecap:square;stroke-width:1.5;"/>
   </g>
   <g id="line2d_3">
    <path clip-path="url(#pacecd20e99)" d="M 5.072727 7.144872 
L 6.097521 7.53038 
L 7.122314 7.921521 
L 8.147107 8.318492 
L 9.171901 8.721507 
L 10.196694 9.130794 
L 11.221488 9.546586 
L 12.246281 9.969133 
L 13.271074 10.398708 
L 14.295868 10.835597 
L 15.320661 11.280101 
L 16.345455 11.732545 
L 17.370248 12.19328 
L 18.395041 12.662677 
L 19.419835 13.141136 
L 20.444628 13.629084 
L 21.469421 14.126986 
L 22.494215 14.635342 
L 23.519008 15.154692 
L 24.543802 15.685622 
L 25.568595 16.228769 
L 26.593388 16.784832 
L 27.618182 17.354566 
L 28.642975 17.938807 
L 29.667769 18.538474 
L 30.692562 19.154575 
L 31.717355 19.788236 
L 32.742149 20.440705 
L 33.766942 21.113382 
L 34.791736 21.807829 
L 35.816529 22.525819 
L 36.841322 23.269362 
L 37.866116 24.040755 
L 38.890909 24.842642 
L 39.915702 25.678086 
L 40.940496 26.550674 
L 41.965289 27.464634 
L 42.990083 28.425023 
L 44.014876 29.437941 
L 45.039669 30.510886 
L 46.064463 31.653189 
L 47.089256 32.876724 
L 48.11405 34.196953 
L 49.138843 35.634592 
L 50.163636 37.21841 
L 51.18843 38.990237 
L 52.213223 41.014709 
L 53.238017 43.400576 
L 54.26281 46.355791 
L 55.287603 50.37407 
L 56.312397 57.309213 
L 57.33719 71.999321 
L 58.361983 78.383114 
L 59.386777 81.729394 
L 60.41157 84.020214 
L 61.436364 85.75873 
L 62.461157 87.152837 
L 63.48595 88.310076 
L 64.510744 89.293904 
L 65.535537 90.145149 
L 66.560331 90.891728 
L 67.585124 91.553649 
L 68.609917 92.14575 
L 69.634711 92.679356 
L 70.659504 93.163315 
L 71.684298 93.604668 
L 72.709091 94.009113 
L 73.733884 94.381325 
L 74.758678 94.725179 
L 75.783471 95.043931 
L 76.808264 95.340335 
L 77.833058 95.616741 
L 78.857851 95.87517 
L 79.882645 96.11737 
L 80.907438 96.344863 
L 81.932231 96.558982 
L 82.957025 96.760898 
L 83.981818 96.951647 
L 85.006612 97.132149 
L 86.031405 97.303221 
L 87.056198 97.465596 
L 88.080992 97.619932 
L 89.105785 97.766818 
L 90.130579 97.90679 
L 91.155372 98.04033 
L 92.180165 98.167876 
L 93.204959 98.289828 
L 94.229752 98.40655 
L 95.254545 98.518374 
L 96.279339 98.625605 
L 97.304132 98.728523 
L 98.328926 98.827384 
L 99.353719 98.922427 
L 100.378512 99.01387 
L 101.403306 99.101914 
L 102.428099 99.186746 
L 103.452893 99.268542 
L 104.477686 99.347462 
L 105.502479 99.423656 
L 106.527273 99.497262 
" style="fill:none;stroke:#4daf4a;stroke-linecap:square;stroke-width:1.5;"/>
   </g>
   <g id="line2d_4">
    <path clip-path="url(#pacecd20e99)" d="M 5.072727 4.941818 
L 6.097521 5.289644 
L 7.122314 5.641753 
L 8.147107 5.99827 
L 9.171901 6.359331 
L 10.196694 6.725069 
L 11.221488 7.095632 
L 12.246281 7.471168 
L 13.271074 7.851837 
L 14.295868 8.23781 
L 15.320661 8.629259 
L 16.345455 9.02637 
L 17.370248 9.429339 
L 18.395041 9.838377 
L 19.419835 10.253691 
L 20.444628 10.675518 
L 21.469421 11.1041 
L 22.494215 11.539693 
L 23.519008 11.982573 
L 24.543802 12.433032 
L 25.568595 12.891375 
L 26.593388 13.357935 
L 27.618182 13.833061 
L 28.642975 14.317129 
L 29.667769 14.81054 
L 30.692562 15.313725 
L 31.717355 15.827143 
L 32.742149 16.351294 
L 33.766942 16.886709 
L 34.791736 17.433968 
L 35.816529 17.993694 
L 36.841322 18.566564 
L 37.866116 19.153315 
L 38.890909 19.754745 
L 39.915702 20.371731 
L 40.940496 21.005231 
L 41.965289 21.656293 
L 42.990083 22.326084 
L 44.014876 23.015873 
L 45.039669 23.727082 
L 46.064463 24.46129 
L 47.089256 25.22026 
L 48.11405 26.005966 
L 49.138843 26.820637 
L 50.163636 27.666788 
L 51.18843 28.547285 
L 52.213223 29.465397 
L 53.238017 30.424881 
L 54.26281 31.430077 
L 55.287603 32.486026 
L 56.312397 33.598624 
L 57.33719 34.774783 
L 58.361983 36.022672 
L 59.386777 37.351974 
L 60.41157 38.774169 
L 61.436364 40.30284 
L 62.461157 41.953868 
L 63.48595 43.745325 
L 64.510744 45.696561 
L 65.535537 47.825562 
L 66.560331 50.142971 
L 67.585124 52.641268 
L 68.609917 55.280517 
L 69.634711 57.980341 
L 70.659504 60.633483 
L 71.684298 63.140625 
L 72.709091 65.440135 
L 73.733884 67.512291 
L 74.758678 69.365715 
L 75.783471 71.022219 
L 76.808264 72.507048 
L 77.833058 73.844202 
L 78.857851 75.054742 
L 79.882645 76.156514 
L 80.907438 77.164412 
L 81.932231 78.090812 
L 82.957025 78.946027 
L 83.981818 79.738663 
L 85.006612 80.47596 
L 86.031405 81.164041 
L 87.056198 81.808117 
L 88.080992 82.412655 
L 89.105785 82.981501 
L 90.130579 83.517999 
L 91.155372 84.025058 
L 92.180165 84.505229 
L 93.204959 84.960762 
L 94.229752 85.393647 
L 95.254545 85.805654 
L 96.279339 86.198362 
L 97.304132 86.573186 
L 98.328926 86.931399 
L 99.353719 87.27415 
L 100.378512 87.602476 
L 101.403306 87.917321 
L 102.428099 88.219545 
L 103.452893 88.509931 
L 104.477686 88.789195 
L 105.502479 89.057997 
L 106.527273 89.316939 
" style="fill:none;stroke:#984ea3;stroke-linecap:square;stroke-width:1.5;"/>
   </g>
  </g>
 </g>
 <defs>
  <clipPath id="pacecd20e99">
   <rect height="108.72" width="111.6" x="0" y="-0"/>
  </clipPath>
 </defs>
</svg>
