<?xml version="1.0" encoding="utf-8" standalone="no"?>
<!DOCTYPE svg PUBLIC "-//W3C//DTD SVG 1.1//EN"
  "http://www.w3.org/Graphics/SVG/1.1/DTD/svg11.dtd">
<!-- Created with matplotlib (https://matplotlib.org/) -->
<svg height="53.96825pt" version="1.1" viewBox="0 0 59.228806 53.96825" width="59.228806pt" xmlns="http://www.w3.org/2000/svg" xmlns:xlink="http://www.w3.org/1999/xlink">
 <defs>
  <style type="text/css">
*{stroke-linecap:butt;stroke-linejoin:round;white-space:pre;}
  </style>
 </defs>
 <g id="figure_1">
  <g id="patch_1">
   <path d="M 0 53.96825 
L 59.228806 53.96825 
L 59.228806 -0 
L 0 -0 
z
" style="fill:none;"/>
  </g>
  <g id="axes_1">
   <g id="patch_2">
    <path d="M 19.72 38.052 
L 58.78 38.052 
L 58.78 0 
L 19.72 0 
z
" style="fill:none;"/>
   </g>
   <g id="matplotlib.axis_1">
    <g id="xtick_1">
     <g id="line2d_1">
      <defs>
       <path d="M 0 0 
L 0 -3.5 
" id="mdb18bd1117" style="stroke:#000000;stroke-width:0.8;"/>
      </defs>
      <g>
       <use style="stroke:#000000;stroke-width:0.8;" x="21.495566" xlink:href="#mdb18bd1117" y="38.052"/>
      </g>
     </g>
     <g id="line2d_2">
      <defs>
       <path d="M 0 0 
L 0 3.5 
" id="mf794cc4e4f" style="stroke:#000000;stroke-width:0.8;"/>
      </defs>
      <g>
       <use style="stroke:#000000;stroke-width:0.8;" x="21.495566" xlink:href="#mf794cc4e4f" y="0"/>
      </g>
     </g>
     <g id="text_1">
      <!-- 0 -->
      <defs>
       <path d="M 4.15625 35.296875 
Q 4.15625 48 6.765625 55.734375 
Q 9.375 63.484375 14.515625 67.671875 
Q 19.671875 71.875 27.484375 71.875 
Q 33.25 71.875 37.59375 69.546875 
Q 41.9375 67.234375 44.765625 62.859375 
Q 47.609375 58.5 49.21875 52.21875 
Q 50.828125 45.953125 50.828125 35.296875 
Q 50.828125 22.703125 48.234375 14.96875 
Q 45.65625 7.234375 40.5 3 
Q 35.359375 -1.21875 27.484375 -1.21875 
Q 17.140625 -1.21875 11.234375 6.203125 
Q 4.15625 15.140625 4.15625 35.296875 
z
M 13.1875 35.296875 
Q 13.1875 17.671875 17.3125 11.828125 
Q 21.4375 6 27.484375 6 
Q 33.546875 6 37.671875 11.859375 
Q 41.796875 17.71875 41.796875 35.296875 
Q 41.796875 52.984375 37.671875 58.78125 
Q 33.546875 64.59375 27.390625 64.59375 
Q 21.34375 64.59375 17.71875 59.46875 
Q 13.1875 52.9375 13.1875 35.296875 
z
" id="ArialMT-48"/>
      </defs>
      <g transform="translate(19.271191 44.77825)scale(0.08 -0.08)">
       <use xlink:href="#ArialMT-48"/>
      </g>
     </g>
    </g>
    <g id="xtick_2">
     <g id="line2d_3">
      <g>
       <use style="stroke:#000000;stroke-width:0.8;" x="57.004431" xlink:href="#mdb18bd1117" y="38.052"/>
      </g>
     </g>
     <g id="line2d_4">
      <g>
       <use style="stroke:#000000;stroke-width:0.8;" x="57.004431" xlink:href="#mf794cc4e4f" y="0"/>
      </g>
     </g>
     <g id="text_2">
      <!-- 9 -->
      <defs>
       <path d="M 5.46875 16.546875 
L 13.921875 17.328125 
Q 14.984375 11.375 18.015625 8.6875 
Q 21.046875 6 25.78125 6 
Q 29.828125 6 32.875 7.859375 
Q 35.9375 9.71875 37.890625 12.8125 
Q 39.84375 15.921875 41.15625 21.1875 
Q 42.484375 26.46875 42.484375 31.9375 
Q 42.484375 32.515625 42.4375 33.6875 
Q 39.796875 29.5 35.234375 26.875 
Q 30.671875 24.265625 25.34375 24.265625 
Q 16.453125 24.265625 10.296875 30.703125 
Q 4.15625 37.15625 4.15625 47.703125 
Q 4.15625 58.59375 10.578125 65.234375 
Q 17 71.875 26.65625 71.875 
Q 33.640625 71.875 39.421875 68.109375 
Q 45.21875 64.359375 48.21875 57.390625 
Q 51.21875 50.4375 51.21875 37.25 
Q 51.21875 23.53125 48.234375 15.40625 
Q 45.265625 7.28125 39.375 3.03125 
Q 33.5 -1.21875 25.59375 -1.21875 
Q 17.1875 -1.21875 11.859375 3.4375 
Q 6.546875 8.109375 5.46875 16.546875 
z
M 41.453125 48.140625 
Q 41.453125 55.71875 37.421875 60.15625 
Q 33.40625 64.59375 27.734375 64.59375 
Q 21.875 64.59375 17.53125 59.8125 
Q 13.1875 55.03125 13.1875 47.40625 
Q 13.1875 40.578125 17.3125 36.296875 
Q 21.4375 32.03125 27.484375 32.03125 
Q 33.59375 32.03125 37.515625 36.296875 
Q 41.453125 40.578125 41.453125 48.140625 
z
" id="ArialMT-57"/>
      </defs>
      <g transform="translate(54.780056 44.77825)scale(0.08 -0.08)">
       <use xlink:href="#ArialMT-57"/>
      </g>
     </g>
    </g>
    <g id="xtick_3">
     <g id="line2d_5">
      <defs>
       <path d="M 0 0 
L 0 -2 
" id="m029c769487" style="stroke:#000000;stroke-width:0.6;"/>
      </defs>
      <g>
       <use style="stroke:#000000;stroke-width:0.6;" x="30.372782" xlink:href="#m029c769487" y="38.052"/>
      </g>
     </g>
     <g id="line2d_6">
      <defs>
       <path d="M 0 0 
L 0 2 
" id="mbeb1c8e1d5" style="stroke:#000000;stroke-width:0.6;"/>
      </defs>
      <g>
       <use style="stroke:#000000;stroke-width:0.6;" x="30.372782" xlink:href="#mbeb1c8e1d5" y="0"/>
      </g>
     </g>
    </g>
    <g id="xtick_4">
     <g id="line2d_7">
      <g>
       <use style="stroke:#000000;stroke-width:0.6;" x="39.249999" xlink:href="#m029c769487" y="38.052"/>
      </g>
     </g>
     <g id="line2d_8">
      <g>
       <use style="stroke:#000000;stroke-width:0.6;" x="39.249999" xlink:href="#mbeb1c8e1d5" y="0"/>
      </g>
     </g>
    </g>
    <g id="xtick_5">
     <g id="line2d_9">
      <g>
       <use style="stroke:#000000;stroke-width:0.6;" x="48.127215" xlink:href="#m029c769487" y="38.052"/>
      </g>
     </g>
     <g id="line2d_10">
      <g>
       <use style="stroke:#000000;stroke-width:0.6;" x="48.127215" xlink:href="#mbeb1c8e1d5" y="0"/>
      </g>
     </g>
    </g>
    <g id="text_3">
     <!-- $\it{B}$ (T) -->
     <defs>
      <path d="M 16.890625 72.90625 
L 42.09375 72.90625 
Q 52.34375 72.90625 57.421875 69.09375 
Q 62.5 65.28125 62.5 57.625 
Q 62.5 50.59375 58.125 45.484375 
Q 53.765625 40.375 46.6875 39.3125 
Q 52.734375 37.9375 55.765625 34.078125 
Q 58.796875 30.21875 58.796875 23.78125 
Q 58.796875 12.796875 50.65625 6.390625 
Q 42.53125 0 28.421875 0 
L 2.6875 0 
z
M 19.28125 34.8125 
L 14.109375 8.109375 
L 29.984375 8.109375 
Q 38.921875 8.109375 43.75 12.203125 
Q 48.578125 16.3125 48.578125 23.78125 
Q 48.578125 29.546875 45.375 32.171875 
Q 42.1875 34.8125 35.109375 34.8125 
z
M 25.09375 64.796875 
L 20.796875 42.828125 
L 35.5 42.828125 
Q 43.359375 42.828125 47.78125 46.234375 
Q 52.203125 49.65625 52.203125 55.71875 
Q 52.203125 60.453125 49.21875 62.625 
Q 46.234375 64.796875 39.703125 64.796875 
z
" id="DejaVuSans-Oblique-66"/>
      <path id="ArialMT-32"/>
      <path d="M 23.390625 -21.046875 
Q 16.109375 -11.859375 11.078125 0.4375 
Q 6.0625 12.75 6.0625 25.921875 
Q 6.0625 37.546875 9.8125 48.1875 
Q 14.203125 60.546875 23.390625 72.796875 
L 29.6875 72.796875 
Q 23.78125 62.640625 21.875 58.296875 
Q 18.890625 51.5625 17.1875 44.234375 
Q 15.09375 35.109375 15.09375 25.875 
Q 15.09375 2.390625 29.6875 -21.046875 
z
" id="ArialMT-40"/>
      <path d="M 25.921875 0 
L 25.921875 63.140625 
L 2.34375 63.140625 
L 2.34375 71.578125 
L 59.078125 71.578125 
L 59.078125 63.140625 
L 35.40625 63.140625 
L 35.40625 0 
z
" id="ArialMT-84"/>
      <path d="M 12.359375 -21.046875 
L 6.0625 -21.046875 
Q 20.65625 2.390625 20.65625 25.875 
Q 20.65625 35.0625 18.5625 44.09375 
Q 16.890625 51.421875 13.921875 58.15625 
Q 12.015625 62.546875 6.0625 72.796875 
L 12.359375 72.796875 
Q 21.53125 60.546875 25.921875 48.1875 
Q 29.6875 37.546875 29.6875 25.921875 
Q 29.6875 12.75 24.625 0.4375 
Q 19.578125 -11.859375 12.359375 -21.046875 
z
" id="ArialMT-41"/>
     </defs>
     <g transform="translate(30.25 52.20825)scale(0.08 -0.08)">
      <use transform="translate(0 0.09375)" xlink:href="#DejaVuSans-Oblique-66"/>
      <use transform="translate(68.603516 0.09375)" xlink:href="#ArialMT-32"/>
      <use transform="translate(96.386719 0.09375)" xlink:href="#ArialMT-40"/>
      <use transform="translate(129.6875 0.09375)" xlink:href="#ArialMT-84"/>
      <use transform="translate(190.771484 0.09375)" xlink:href="#ArialMT-41"/>
     </g>
    </g>
   </g>
   <g id="matplotlib.axis_2">
    <g id="ytick_1">
     <g id="line2d_11">
      <defs>
       <path d="M 0 0 
L 3.5 0 
" id="m48b87e8b03" style="stroke:#000000;stroke-width:0.8;"/>
      </defs>
      <g>
       <use style="stroke:#000000;stroke-width:0.8;" x="19.72" xlink:href="#m48b87e8b03" y="33.830951"/>
      </g>
     </g>
     <g id="line2d_12">
      <defs>
       <path d="M 0 0 
L -3.5 0 
" id="mfdb6c537ea" style="stroke:#000000;stroke-width:0.8;"/>
      </defs>
      <g>
       <use style="stroke:#000000;stroke-width:0.8;" x="58.78" xlink:href="#mfdb6c537ea" y="33.830951"/>
      </g>
     </g>
     <g id="text_4">
      <!-- 0.0 -->
      <defs>
       <path d="M 9.078125 0 
L 9.078125 10.015625 
L 19.09375 10.015625 
L 19.09375 0 
z
" id="ArialMT-46"/>
      </defs>
      <g transform="translate(7.6 36.694076)scale(0.08 -0.08)">
       <use xlink:href="#ArialMT-48"/>
       <use x="55.615234" xlink:href="#ArialMT-46"/>
       <use x="83.398438" xlink:href="#ArialMT-48"/>
      </g>
     </g>
    </g>
    <g id="ytick_2">
     <g id="line2d_13">
      <g>
       <use style="stroke:#000000;stroke-width:0.8;" x="19.72" xlink:href="#m48b87e8b03" y="18.589411"/>
      </g>
     </g>
     <g id="line2d_14">
      <g>
       <use style="stroke:#000000;stroke-width:0.8;" x="58.78" xlink:href="#mfdb6c537ea" y="18.589411"/>
      </g>
     </g>
     <g id="text_5">
      <!-- 0.5 -->
      <defs>
       <path d="M 4.15625 18.75 
L 13.375 19.53125 
Q 14.40625 12.796875 18.140625 9.390625 
Q 21.875 6 27.15625 6 
Q 33.5 6 37.890625 10.78125 
Q 42.28125 15.578125 42.28125 23.484375 
Q 42.28125 31 38.0625 35.34375 
Q 33.84375 39.703125 27 39.703125 
Q 22.75 39.703125 19.328125 37.765625 
Q 15.921875 35.84375 13.96875 32.765625 
L 5.71875 33.84375 
L 12.640625 70.609375 
L 48.25 70.609375 
L 48.25 62.203125 
L 19.671875 62.203125 
L 15.828125 42.96875 
Q 22.265625 47.46875 29.34375 47.46875 
Q 38.71875 47.46875 45.15625 40.96875 
Q 51.609375 34.46875 51.609375 24.265625 
Q 51.609375 14.546875 45.953125 7.46875 
Q 39.0625 -1.21875 27.15625 -1.21875 
Q 17.390625 -1.21875 11.203125 4.25 
Q 5.03125 9.71875 4.15625 18.75 
z
" id="ArialMT-53"/>
      </defs>
      <g transform="translate(7.6 21.452536)scale(0.08 -0.08)">
       <use xlink:href="#ArialMT-48"/>
       <use x="55.615234" xlink:href="#ArialMT-46"/>
       <use x="83.398438" xlink:href="#ArialMT-53"/>
      </g>
     </g>
    </g>
    <g id="ytick_3">
     <g id="line2d_15">
      <g>
       <use style="stroke:#000000;stroke-width:0.8;" x="19.72" xlink:href="#m48b87e8b03" y="3.34787"/>
      </g>
     </g>
     <g id="line2d_16">
      <g>
       <use style="stroke:#000000;stroke-width:0.8;" x="58.78" xlink:href="#mfdb6c537ea" y="3.34787"/>
      </g>
     </g>
     <g id="text_6">
      <!-- 1.0 -->
      <defs>
       <path d="M 37.25 0 
L 28.46875 0 
L 28.46875 56 
Q 25.296875 52.984375 20.140625 49.953125 
Q 14.984375 46.921875 10.890625 45.40625 
L 10.890625 53.90625 
Q 18.265625 57.375 23.78125 62.296875 
Q 29.296875 67.234375 31.59375 71.875 
L 37.25 71.875 
z
" id="ArialMT-49"/>
      </defs>
      <g transform="translate(7.6 6.210995)scale(0.08 -0.08)">
       <use xlink:href="#ArialMT-49"/>
       <use x="55.615234" xlink:href="#ArialMT-46"/>
       <use x="83.398438" xlink:href="#ArialMT-48"/>
      </g>
     </g>
    </g>
    <g id="ytick_4">
     <g id="line2d_17">
      <defs>
       <path d="M 0 0 
L 2 0 
" id="maec39e092f" style="stroke:#000000;stroke-width:0.6;"/>
      </defs>
      <g>
       <use style="stroke:#000000;stroke-width:0.6;" x="19.72" xlink:href="#maec39e092f" y="36.879259"/>
      </g>
     </g>
     <g id="line2d_18">
      <defs>
       <path d="M 0 0 
L -2 0 
" id="m0b86c87bec" style="stroke:#000000;stroke-width:0.6;"/>
      </defs>
      <g>
       <use style="stroke:#000000;stroke-width:0.6;" x="58.78" xlink:href="#m0b86c87bec" y="36.879259"/>
      </g>
     </g>
    </g>
    <g id="ytick_5">
     <g id="line2d_19">
      <g>
       <use style="stroke:#000000;stroke-width:0.6;" x="19.72" xlink:href="#maec39e092f" y="30.782643"/>
      </g>
     </g>
     <g id="line2d_20">
      <g>
       <use style="stroke:#000000;stroke-width:0.6;" x="58.78" xlink:href="#m0b86c87bec" y="30.782643"/>
      </g>
     </g>
    </g>
    <g id="ytick_6">
     <g id="line2d_21">
      <g>
       <use style="stroke:#000000;stroke-width:0.6;" x="19.72" xlink:href="#maec39e092f" y="27.734335"/>
      </g>
     </g>
     <g id="line2d_22">
      <g>
       <use style="stroke:#000000;stroke-width:0.6;" x="58.78" xlink:href="#m0b86c87bec" y="27.734335"/>
      </g>
     </g>
    </g>
    <g id="ytick_7">
     <g id="line2d_23">
      <g>
       <use style="stroke:#000000;stroke-width:0.6;" x="19.72" xlink:href="#maec39e092f" y="24.686027"/>
      </g>
     </g>
     <g id="line2d_24">
      <g>
       <use style="stroke:#000000;stroke-width:0.6;" x="58.78" xlink:href="#m0b86c87bec" y="24.686027"/>
      </g>
     </g>
    </g>
    <g id="ytick_8">
     <g id="line2d_25">
      <g>
       <use style="stroke:#000000;stroke-width:0.6;" x="19.72" xlink:href="#maec39e092f" y="21.637719"/>
      </g>
     </g>
     <g id="line2d_26">
      <g>
       <use style="stroke:#000000;stroke-width:0.6;" x="58.78" xlink:href="#m0b86c87bec" y="21.637719"/>
      </g>
     </g>
    </g>
    <g id="ytick_9">
     <g id="line2d_27">
      <g>
       <use style="stroke:#000000;stroke-width:0.6;" x="19.72" xlink:href="#maec39e092f" y="15.541103"/>
      </g>
     </g>
     <g id="line2d_28">
      <g>
       <use style="stroke:#000000;stroke-width:0.6;" x="58.78" xlink:href="#m0b86c87bec" y="15.541103"/>
      </g>
     </g>
    </g>
    <g id="ytick_10">
     <g id="line2d_29">
      <g>
       <use style="stroke:#000000;stroke-width:0.6;" x="19.72" xlink:href="#maec39e092f" y="12.492795"/>
      </g>
     </g>
     <g id="line2d_30">
      <g>
       <use style="stroke:#000000;stroke-width:0.6;" x="58.78" xlink:href="#m0b86c87bec" y="12.492795"/>
      </g>
     </g>
    </g>
    <g id="ytick_11">
     <g id="line2d_31">
      <g>
       <use style="stroke:#000000;stroke-width:0.6;" x="19.72" xlink:href="#maec39e092f" y="9.444487"/>
      </g>
     </g>
     <g id="line2d_32">
      <g>
       <use style="stroke:#000000;stroke-width:0.6;" x="58.78" xlink:href="#m0b86c87bec" y="9.444487"/>
      </g>
     </g>
    </g>
    <g id="ytick_12">
     <g id="line2d_33">
      <g>
       <use style="stroke:#000000;stroke-width:0.6;" x="19.72" xlink:href="#maec39e092f" y="6.396178"/>
      </g>
     </g>
     <g id="line2d_34">
      <g>
       <use style="stroke:#000000;stroke-width:0.6;" x="58.78" xlink:href="#m0b86c87bec" y="6.396178"/>
      </g>
     </g>
    </g>
    <g id="ytick_13">
     <g id="line2d_35">
      <g>
       <use style="stroke:#000000;stroke-width:0.6;" x="19.72" xlink:href="#maec39e092f" y="0.299562"/>
      </g>
     </g>
     <g id="line2d_36">
      <g>
       <use style="stroke:#000000;stroke-width:0.6;" x="58.78" xlink:href="#m0b86c87bec" y="0.299562"/>
      </g>
     </g>
    </g>
    <g id="text_7">
     <!-- $\it{V_{H}}$ (mV) -->
     <defs>
      <path d="M 20.609375 0 
L 7.8125 72.90625 
L 17.484375 72.90625 
L 28.078125 10.203125 
L 63.484375 72.90625 
L 74.21875 72.90625 
L 32.078125 0 
z
" id="DejaVuSans-Oblique-86"/>
      <path d="M 16.890625 72.90625 
L 26.8125 72.90625 
L 21 43.015625 
L 56.78125 43.015625 
L 62.59375 72.90625 
L 72.515625 72.90625 
L 58.296875 0 
L 48.390625 0 
L 55.171875 34.71875 
L 19.390625 34.71875 
L 12.59375 0 
L 2.6875 0 
z
" id="DejaVuSans-Oblique-72"/>
      <path d="M 6.59375 0 
L 6.59375 51.859375 
L 14.453125 51.859375 
L 14.453125 44.578125 
Q 16.890625 48.390625 20.9375 50.703125 
Q 25 53.03125 30.171875 53.03125 
Q 35.9375 53.03125 39.625 50.640625 
Q 43.3125 48.25 44.828125 43.953125 
Q 50.984375 53.03125 60.84375 53.03125 
Q 68.5625 53.03125 72.703125 48.75 
Q 76.859375 44.484375 76.859375 35.59375 
L 76.859375 0 
L 68.109375 0 
L 68.109375 32.671875 
Q 68.109375 37.9375 67.25 40.25 
Q 66.40625 42.578125 64.15625 43.984375 
Q 61.921875 45.40625 58.890625 45.40625 
Q 53.421875 45.40625 49.796875 41.765625 
Q 46.1875 38.140625 46.1875 30.125 
L 46.1875 0 
L 37.40625 0 
L 37.40625 33.6875 
Q 37.40625 39.546875 35.25 42.46875 
Q 33.109375 45.40625 28.21875 45.40625 
Q 24.515625 45.40625 21.359375 43.453125 
Q 18.21875 41.5 16.796875 37.734375 
Q 15.375 33.984375 15.375 26.90625 
L 15.375 0 
z
" id="ArialMT-109"/>
      <path d="M 28.171875 0 
L 0.4375 71.578125 
L 10.6875 71.578125 
L 29.296875 19.578125 
Q 31.546875 13.328125 33.0625 7.859375 
Q 34.71875 13.71875 36.921875 19.578125 
L 56.25 71.578125 
L 65.921875 71.578125 
L 37.890625 0 
z
" id="ArialMT-86"/>
     </defs>
     <g transform="translate(5.84 33.786)rotate(-90)scale(0.08 -0.08)">
      <use transform="translate(0 0.09375)" xlink:href="#DejaVuSans-Oblique-86"/>
      <use transform="translate(68.408203 -16.3125)scale(0.7)" xlink:href="#DejaVuSans-Oblique-72"/>
      <use transform="translate(123.779297 0.09375)" xlink:href="#ArialMT-32"/>
      <use transform="translate(151.5625 0.09375)" xlink:href="#ArialMT-40"/>
      <use transform="translate(184.863281 0.09375)" xlink:href="#ArialMT-109"/>
      <use transform="translate(268.164062 0.09375)" xlink:href="#ArialMT-86"/>
      <use transform="translate(334.863281 0.09375)" xlink:href="#ArialMT-41"/>
     </g>
    </g>
   </g>
   <g id="line2d_37">
    <path clip-path="url(#p8c33f40137)" d="M 21.49548 33.831029 
L 23.468183 32.047637 
L 25.440907 30.264226 
L 27.41367 28.48078 
L 29.38636 26.697399 
L 31.359077 24.913995 
L 33.331925 23.130471 
L 35.30462 21.347087 
L 37.277383 19.563641 
L 39.250119 17.780219 
L 41.222757 15.996886 
L 43.195585 14.21338 
L 45.168208 12.430061 
L 47.140961 10.646623 
L 49.113733 8.863169 
L 51.086432 7.07978 
L 53.059168 5.296358 
L 55.031797 3.513033 
L 57.004505 1.729636 
" style="fill:none;stroke:#377eb8;stroke-linecap:square;"/>
   </g>
   <g id="line2d_38">
    <defs>
     <path d="M 0 0.75 
C 0.198902 0.75 0.389685 0.670975 0.53033 0.53033 
C 0.670975 0.389685 0.75 0.198902 0.75 0 
C 0.75 -0.198902 0.670975 -0.389685 0.53033 -0.53033 
C 0.389685 -0.670975 0.198902 -0.75 0 -0.75 
C -0.198902 -0.75 -0.389685 -0.670975 -0.53033 -0.53033 
C -0.670975 -0.389685 -0.75 -0.198902 -0.75 0 
C -0.75 0.198902 -0.670975 0.389685 -0.53033 0.53033 
C -0.389685 0.670975 -0.198902 0.75 0 0.75 
z
" id="mbd78635be4" style="stroke:#377eb8;"/>
    </defs>
    <g clip-path="url(#p8c33f40137)">
     <use style="fill:#377eb8;stroke:#377eb8;" x="21.49548" xlink:href="#mbd78635be4" y="36.322364"/>
     <use style="fill:#377eb8;stroke:#377eb8;" x="23.468183" xlink:href="#mbd78635be4" y="33.546676"/>
     <use style="fill:#377eb8;stroke:#377eb8;" x="25.440907" xlink:href="#mbd78635be4" y="30.529016"/>
     <use style="fill:#377eb8;stroke:#377eb8;" x="27.41367" xlink:href="#mbd78635be4" y="28.386979"/>
     <use style="fill:#377eb8;stroke:#377eb8;" x="29.38636" xlink:href="#mbd78635be4" y="27.209752"/>
     <use style="fill:#377eb8;stroke:#377eb8;" x="31.359077" xlink:href="#mbd78635be4" y="24.801909"/>
     <use style="fill:#377eb8;stroke:#377eb8;" x="33.331925" xlink:href="#mbd78635be4" y="21.514162"/>
     <use style="fill:#377eb8;stroke:#377eb8;" x="35.30462" xlink:href="#mbd78635be4" y="19.720203"/>
     <use style="fill:#377eb8;stroke:#377eb8;" x="37.277383" xlink:href="#mbd78635be4" y="19.093423"/>
     <use style="fill:#377eb8;stroke:#377eb8;" x="39.250119" xlink:href="#mbd78635be4" y="17.631201"/>
     <use style="fill:#377eb8;stroke:#377eb8;" x="41.222757" xlink:href="#mbd78635be4" y="14.899762"/>
     <use style="fill:#377eb8;stroke:#377eb8;" x="43.195585" xlink:href="#mbd78635be4" y="13.287665"/>
     <use style="fill:#377eb8;stroke:#377eb8;" x="45.168208" xlink:href="#mbd78635be4" y="11.431531"/>
     <use style="fill:#377eb8;stroke:#377eb8;" x="47.140961" xlink:href="#mbd78635be4" y="10.357416"/>
     <use style="fill:#377eb8;stroke:#377eb8;" x="49.113733" xlink:href="#mbd78635be4" y="8.62318"/>
     <use style="fill:#377eb8;stroke:#377eb8;" x="51.086432" xlink:href="#mbd78635be4" y="6.804156"/>
     <use style="fill:#377eb8;stroke:#377eb8;" x="53.059168" xlink:href="#mbd78635be4" y="4.581991"/>
     <use style="fill:#377eb8;stroke:#377eb8;" x="55.031797" xlink:href="#mbd78635be4" y="4.936373"/>
     <use style="fill:#377eb8;stroke:#377eb8;" x="57.004505" xlink:href="#mbd78635be4" y="3.79177"/>
    </g>
   </g>
   <g id="line2d_39">
    <path clip-path="url(#p8c33f40137)" d="M 21.495519 33.830955 
L 23.468209 33.678924 
L 25.440882 33.526894 
L 27.413632 33.374858 
L 29.386343 33.222825 
L 31.359089 33.070789 
L 33.331946 32.918745 
L 35.304654 32.766712 
L 37.277395 32.614677 
L 39.250141 32.462641 
L 41.222826 32.31061 
L 43.195607 32.158572 
L 45.168289 32.006541 
L 47.140958 31.854511 
L 49.113742 31.702473 
L 51.086398 31.550444 
L 53.059091 31.398412 
L 55.031809 31.246379 
L 57.004536 31.094345 
" style="fill:none;stroke:#984ea3;stroke-linecap:square;"/>
   </g>
   <g id="line2d_40">
    <defs>
     <path d="M 0 0.75 
C 0.198902 0.75 0.389685 0.670975 0.53033 0.53033 
C 0.670975 0.389685 0.75 0.198902 0.75 0 
C 0.75 -0.198902 0.670975 -0.389685 0.53033 -0.53033 
C 0.389685 -0.670975 0.198902 -0.75 0 -0.75 
C -0.198902 -0.75 -0.389685 -0.670975 -0.53033 -0.53033 
C -0.670975 -0.389685 -0.75 -0.198902 -0.75 0 
C -0.75 0.198902 -0.670975 0.389685 -0.53033 0.53033 
C -0.389685 0.670975 -0.198902 0.75 0 0.75 
z
" id="m3c9953545c" style="stroke:#984ea3;"/>
    </defs>
    <g clip-path="url(#p8c33f40137)">
     <use style="fill:#984ea3;stroke:#984ea3;" x="21.495519" xlink:href="#m3c9953545c" y="33.913854"/>
     <use style="fill:#984ea3;stroke:#984ea3;" x="23.468209" xlink:href="#m3c9953545c" y="33.745953"/>
     <use style="fill:#984ea3;stroke:#984ea3;" x="25.440882" xlink:href="#m3c9953545c" y="33.565561"/>
     <use style="fill:#984ea3;stroke:#984ea3;" x="27.413632" xlink:href="#m3c9953545c" y="33.410162"/>
     <use style="fill:#984ea3;stroke:#984ea3;" x="29.386343" xlink:href="#m3c9953545c" y="33.241094"/>
     <use style="fill:#984ea3;stroke:#984ea3;" x="31.359089" xlink:href="#m3c9953545c" y="33.088199"/>
     <use style="fill:#984ea3;stroke:#984ea3;" x="33.331946" xlink:href="#m3c9953545c" y="32.935979"/>
     <use style="fill:#984ea3;stroke:#984ea3;" x="35.304654" xlink:href="#m3c9953545c" y="32.761882"/>
     <use style="fill:#984ea3;stroke:#984ea3;" x="37.277395" xlink:href="#m3c9953545c" y="32.595985"/>
     <use style="fill:#984ea3;stroke:#984ea3;" x="39.250141" xlink:href="#m3c9953545c" y="32.418428"/>
     <use style="fill:#984ea3;stroke:#984ea3;" x="41.222826" xlink:href="#m3c9953545c" y="32.260086"/>
     <use style="fill:#984ea3;stroke:#984ea3;" x="43.195607" xlink:href="#m3c9953545c" y="32.118075"/>
     <use style="fill:#984ea3;stroke:#984ea3;" x="45.168289" xlink:href="#m3c9953545c" y="31.976626"/>
     <use style="fill:#984ea3;stroke:#984ea3;" x="47.140958" xlink:href="#m3c9953545c" y="31.827157"/>
     <use style="fill:#984ea3;stroke:#984ea3;" x="49.113742" xlink:href="#m3c9953545c" y="31.679585"/>
     <use style="fill:#984ea3;stroke:#984ea3;" x="51.086398" xlink:href="#m3c9953545c" y="31.522618"/>
     <use style="fill:#984ea3;stroke:#984ea3;" x="53.059091" xlink:href="#m3c9953545c" y="31.359814"/>
     <use style="fill:#984ea3;stroke:#984ea3;" x="55.031809" xlink:href="#m3c9953545c" y="31.20257"/>
     <use style="fill:#984ea3;stroke:#984ea3;" x="57.004536" xlink:href="#m3c9953545c" y="31.057258"/>
    </g>
   </g>
   <g id="line2d_41">
    <path clip-path="url(#p8c33f40137)" d="M 21.495455 33.830956 
L 23.468243 33.744778 
L 25.440921 33.658606 
L 27.413657 33.57243 
L 29.386417 33.486254 
L 31.35905 33.400083 
L 33.331887 33.313903 
L 35.304623 33.227728 
L 37.277426 33.141549 
L 39.250102 33.055376 
L 41.222835 32.969201 
L 43.195636 32.883023 
L 45.168256 32.796852 
L 47.140979 32.710678 
L 49.113739 32.624501 
L 51.086435 32.538327 
L 53.059116 32.452154 
L 55.031784 32.365982 
L 57.004536 32.279806 
" style="fill:none;stroke:#4daf4a;stroke-linecap:square;"/>
   </g>
   <g id="line2d_42">
    <defs>
     <path d="M 0 0.75 
C 0.198902 0.75 0.389685 0.670975 0.53033 0.53033 
C 0.670975 0.389685 0.75 0.198902 0.75 0 
C 0.75 -0.198902 0.670975 -0.389685 0.53033 -0.53033 
C 0.389685 -0.670975 0.198902 -0.75 0 -0.75 
C -0.198902 -0.75 -0.389685 -0.670975 -0.53033 -0.53033 
C -0.670975 -0.389685 -0.75 -0.198902 -0.75 0 
C -0.75 0.198902 -0.670975 0.389685 -0.53033 0.53033 
C -0.389685 0.670975 -0.198902 0.75 0 0.75 
z
" id="mc51f3eac9c" style="stroke:#4daf4a;"/>
    </defs>
    <g clip-path="url(#p8c33f40137)">
     <use style="fill:#4daf4a;stroke:#4daf4a;" x="21.495455" xlink:href="#mc51f3eac9c" y="33.741977"/>
     <use style="fill:#4daf4a;stroke:#4daf4a;" x="23.468243" xlink:href="#mc51f3eac9c" y="33.676971"/>
     <use style="fill:#4daf4a;stroke:#4daf4a;" x="25.440921" xlink:href="#mc51f3eac9c" y="33.664537"/>
     <use style="fill:#4daf4a;stroke:#4daf4a;" x="27.413657" xlink:href="#mc51f3eac9c" y="33.567444"/>
     <use style="fill:#4daf4a;stroke:#4daf4a;" x="29.386417" xlink:href="#mc51f3eac9c" y="33.409482"/>
     <use style="fill:#4daf4a;stroke:#4daf4a;" x="31.35905" xlink:href="#mc51f3eac9c" y="33.376313"/>
     <use style="fill:#4daf4a;stroke:#4daf4a;" x="33.331887" xlink:href="#mc51f3eac9c" y="33.300875"/>
     <use style="fill:#4daf4a;stroke:#4daf4a;" x="35.304623" xlink:href="#mc51f3eac9c" y="33.202582"/>
     <use style="fill:#4daf4a;stroke:#4daf4a;" x="37.277426" xlink:href="#mc51f3eac9c" y="33.189242"/>
     <use style="fill:#4daf4a;stroke:#4daf4a;" x="39.250102" xlink:href="#mc51f3eac9c" y="33.031234"/>
     <use style="fill:#4daf4a;stroke:#4daf4a;" x="41.222835" xlink:href="#mc51f3eac9c" y="33.049857"/>
     <use style="fill:#4daf4a;stroke:#4daf4a;" x="43.195636" xlink:href="#mc51f3eac9c" y="32.888107"/>
     <use style="fill:#4daf4a;stroke:#4daf4a;" x="45.168256" xlink:href="#mc51f3eac9c" y="32.843307"/>
     <use style="fill:#4daf4a;stroke:#4daf4a;" x="47.140979" xlink:href="#mc51f3eac9c" y="32.697711"/>
     <use style="fill:#4daf4a;stroke:#4daf4a;" x="49.113739" xlink:href="#mc51f3eac9c" y="32.635555"/>
     <use style="fill:#4daf4a;stroke:#4daf4a;" x="51.086435" xlink:href="#mc51f3eac9c" y="32.573955"/>
     <use style="fill:#4daf4a;stroke:#4daf4a;" x="53.059116" xlink:href="#mc51f3eac9c" y="32.476625"/>
     <use style="fill:#4daf4a;stroke:#4daf4a;" x="55.031784" xlink:href="#mc51f3eac9c" y="32.357361"/>
     <use style="fill:#4daf4a;stroke:#4daf4a;" x="57.004536" xlink:href="#mc51f3eac9c" y="32.315038"/>
    </g>
   </g>
   <g id="line2d_43">
    <path clip-path="url(#p8c33f40137)" d="M 21.495502 33.830952 
L 23.468192 33.819694 
L 25.440963 33.808436 
L 27.413649 33.797178 
L 29.386365 33.78592 
L 31.359046 33.774663 
L 33.331891 33.763404 
L 35.304623 33.752146 
L 37.277366 33.740888 
L 39.250068 33.729631 
L 41.222795 33.718373 
L 43.195518 33.707115 
L 45.168256 33.695857 
L 47.141009 33.684599 
L 49.11369 33.673341 
L 51.086414 33.662083 
L 53.059107 33.650826 
L 55.031803 33.639568 
L 57.004545 33.62831 
" style="fill:none;stroke:#e41a1c;stroke-linecap:square;"/>
   </g>
   <g id="line2d_44">
    <defs>
     <path d="M 0 0.75 
C 0.198902 0.75 0.389685 0.670975 0.53033 0.53033 
C 0.670975 0.389685 0.75 0.198902 0.75 0 
C 0.75 -0.198902 0.670975 -0.389685 0.53033 -0.53033 
C 0.389685 -0.670975 0.198902 -0.75 0 -0.75 
C -0.198902 -0.75 -0.389685 -0.670975 -0.53033 -0.53033 
C -0.670975 -0.389685 -0.75 -0.198902 -0.75 0 
C -0.75 0.198902 -0.670975 0.389685 -0.53033 0.53033 
C -0.389685 0.670975 -0.198902 0.75 0 0.75 
z
" id="mfefe5038d2" style="stroke:#e41a1c;"/>
    </defs>
    <g clip-path="url(#p8c33f40137)">
     <use style="fill:#e41a1c;stroke:#e41a1c;" x="21.495502" xlink:href="#mfefe5038d2" y="33.825494"/>
     <use style="fill:#e41a1c;stroke:#e41a1c;" x="23.468192" xlink:href="#mfefe5038d2" y="33.822668"/>
     <use style="fill:#e41a1c;stroke:#e41a1c;" x="25.440963" xlink:href="#mfefe5038d2" y="33.81045"/>
     <use style="fill:#e41a1c;stroke:#e41a1c;" x="27.413649" xlink:href="#mfefe5038d2" y="33.801306"/>
     <use style="fill:#e41a1c;stroke:#e41a1c;" x="29.386365" xlink:href="#mfefe5038d2" y="33.788132"/>
     <use style="fill:#e41a1c;stroke:#e41a1c;" x="31.359046" xlink:href="#mfefe5038d2" y="33.764298"/>
     <use style="fill:#e41a1c;stroke:#e41a1c;" x="33.331891" xlink:href="#mfefe5038d2" y="33.765908"/>
     <use style="fill:#e41a1c;stroke:#e41a1c;" x="35.304623" xlink:href="#mfefe5038d2" y="33.738695"/>
     <use style="fill:#e41a1c;stroke:#e41a1c;" x="37.277366" xlink:href="#mfefe5038d2" y="33.747731"/>
     <use style="fill:#e41a1c;stroke:#e41a1c;" x="39.250068" xlink:href="#mfefe5038d2" y="33.74259"/>
     <use style="fill:#e41a1c;stroke:#e41a1c;" x="41.222795" xlink:href="#mfefe5038d2" y="33.722396"/>
     <use style="fill:#e41a1c;stroke:#e41a1c;" x="43.195518" xlink:href="#mfefe5038d2" y="33.694328"/>
     <use style="fill:#e41a1c;stroke:#e41a1c;" x="45.168256" xlink:href="#mfefe5038d2" y="33.704663"/>
     <use style="fill:#e41a1c;stroke:#e41a1c;" x="47.141009" xlink:href="#mfefe5038d2" y="33.693645"/>
     <use style="fill:#e41a1c;stroke:#e41a1c;" x="49.11369" xlink:href="#mfefe5038d2" y="33.693876"/>
     <use style="fill:#e41a1c;stroke:#e41a1c;" x="51.086414" xlink:href="#mfefe5038d2" y="33.670373"/>
     <use style="fill:#e41a1c;stroke:#e41a1c;" x="53.059107" xlink:href="#mfefe5038d2" y="33.65952"/>
     <use style="fill:#e41a1c;stroke:#e41a1c;" x="55.031803" xlink:href="#mfefe5038d2" y="33.629205"/>
     <use style="fill:#e41a1c;stroke:#e41a1c;" x="57.004545" xlink:href="#mfefe5038d2" y="33.625837"/>
    </g>
   </g>
   <g id="patch_3">
    <path d="M 19.72 38.052 
L 19.72 0 
" style="fill:none;stroke:#000000;stroke-linecap:square;stroke-linejoin:miter;stroke-width:0.8;"/>
   </g>
   <g id="patch_4">
    <path d="M 58.78 38.052 
L 58.78 0 
" style="fill:none;stroke:#000000;stroke-linecap:square;stroke-linejoin:miter;stroke-width:0.8;"/>
   </g>
   <g id="patch_5">
    <path d="M 19.72 38.052 
L 58.78 38.052 
" style="fill:none;stroke:#000000;stroke-linecap:square;stroke-linejoin:miter;stroke-width:0.8;"/>
   </g>
   <g id="patch_6">
    <path d="M 19.72 0 
L 58.78 0 
" style="fill:none;stroke:#000000;stroke-linecap:square;stroke-linejoin:miter;stroke-width:0.8;"/>
   </g>
  </g>
 </g>
 <defs>
  <clipPath id="p8c33f40137">
   <rect height="38.052" width="39.06" x="19.72" y="0"/>
  </clipPath>
 </defs>
</svg>
