<?xml version="1.0" encoding="utf-8" standalone="no"?>
<!DOCTYPE svg PUBLIC "-//W3C//DTD SVG 1.1//EN"
  "http://www.w3.org/Graphics/SVG/1.1/DTD/svg11.dtd">
<!-- Created with matplotlib (https://matplotlib.org/) -->
<svg height="53.96825pt" version="1.1" viewBox="0 0 61.480132 53.96825" width="61.480132pt" xmlns="http://www.w3.org/2000/svg" xmlns:xlink="http://www.w3.org/1999/xlink">
 <defs>
  <style type="text/css">
*{stroke-linecap:butt;stroke-linejoin:round;white-space:pre;}
  </style>
 </defs>
 <g id="figure_1">
  <g id="patch_1">
   <path d="M -0 53.96825 
L 61.480132 53.96825 
L 61.480132 -0 
L -0 -0 
z
" style="fill:none;"/>
  </g>
  <g id="axes_1">
   <g id="patch_2">
    <path d="M 21.16 38.052 
L 60.22 38.052 
L 60.22 0 
L 21.16 0 
z
" style="fill:none;"/>
   </g>
   <g id="matplotlib.axis_1">
    <g id="xtick_1">
     <g id="line2d_1">
      <defs>
       <path d="M 0 0 
L 0 -3.5 
" id="m4bb8ab8a27" style="stroke:#000000;stroke-width:0.8;"/>
      </defs>
      <g>
       <use style="stroke:#000000;stroke-width:0.8;" x="22.329047" xlink:href="#m4bb8ab8a27" y="38.052"/>
      </g>
     </g>
     <g id="line2d_2">
      <defs>
       <path d="M 0 0 
L 0 3.5 
" id="m71974b73ba" style="stroke:#000000;stroke-width:0.8;"/>
      </defs>
      <g>
       <use style="stroke:#000000;stroke-width:0.8;" x="22.329047" xlink:href="#m71974b73ba" y="0"/>
      </g>
     </g>
     <g id="text_1">
      <!-- 0 -->
      <defs>
       <path d="M 4.15625 35.296875 
Q 4.15625 48 6.765625 55.734375 
Q 9.375 63.484375 14.515625 67.671875 
Q 19.671875 71.875 27.484375 71.875 
Q 33.25 71.875 37.59375 69.546875 
Q 41.9375 67.234375 44.765625 62.859375 
Q 47.609375 58.5 49.21875 52.21875 
Q 50.828125 45.953125 50.828125 35.296875 
Q 50.828125 22.703125 48.234375 14.96875 
Q 45.65625 7.234375 40.5 3 
Q 35.359375 -1.21875 27.484375 -1.21875 
Q 17.140625 -1.21875 11.234375 6.203125 
Q 4.15625 15.140625 4.15625 35.296875 
z
M 13.1875 35.296875 
Q 13.1875 17.671875 17.3125 11.828125 
Q 21.4375 6 27.484375 6 
Q 33.546875 6 37.671875 11.859375 
Q 41.796875 17.71875 41.796875 35.296875 
Q 41.796875 52.984375 37.671875 58.78125 
Q 33.546875 64.59375 27.390625 64.59375 
Q 21.34375 64.59375 17.71875 59.46875 
Q 13.1875 52.9375 13.1875 35.296875 
z
" id="ArialMT-48"/>
      </defs>
      <g transform="translate(20.104672 44.77825)scale(0.08 -0.08)">
       <use xlink:href="#ArialMT-48"/>
      </g>
     </g>
    </g>
    <g id="xtick_2">
     <g id="line2d_3">
      <g>
       <use style="stroke:#000000;stroke-width:0.8;" x="54.807007" xlink:href="#m4bb8ab8a27" y="38.052"/>
      </g>
     </g>
     <g id="line2d_4">
      <g>
       <use style="stroke:#000000;stroke-width:0.8;" x="54.807007" xlink:href="#m71974b73ba" y="0"/>
      </g>
     </g>
     <g id="text_2">
      <!-- 300 -->
      <defs>
       <path d="M 4.203125 18.890625 
L 12.984375 20.0625 
Q 14.5 12.59375 18.140625 9.296875 
Q 21.78125 6 27 6 
Q 33.203125 6 37.46875 10.296875 
Q 41.75 14.59375 41.75 20.953125 
Q 41.75 27 37.796875 30.921875 
Q 33.84375 34.859375 27.734375 34.859375 
Q 25.25 34.859375 21.53125 33.890625 
L 22.515625 41.609375 
Q 23.390625 41.5 23.921875 41.5 
Q 29.546875 41.5 34.03125 44.421875 
Q 38.53125 47.359375 38.53125 53.46875 
Q 38.53125 58.296875 35.25 61.46875 
Q 31.984375 64.65625 26.8125 64.65625 
Q 21.6875 64.65625 18.265625 61.421875 
Q 14.84375 58.203125 13.875 51.765625 
L 5.078125 53.328125 
Q 6.6875 62.15625 12.390625 67.015625 
Q 18.109375 71.875 26.609375 71.875 
Q 32.46875 71.875 37.390625 69.359375 
Q 42.328125 66.84375 44.9375 62.5 
Q 47.5625 58.15625 47.5625 53.265625 
Q 47.5625 48.640625 45.0625 44.828125 
Q 42.578125 41.015625 37.703125 38.765625 
Q 44.046875 37.3125 47.5625 32.6875 
Q 51.078125 28.078125 51.078125 21.140625 
Q 51.078125 11.765625 44.234375 5.25 
Q 37.40625 -1.265625 26.953125 -1.265625 
Q 17.53125 -1.265625 11.296875 4.34375 
Q 5.078125 9.96875 4.203125 18.890625 
z
" id="ArialMT-51"/>
      </defs>
      <g transform="translate(48.133882 44.77825)scale(0.08 -0.08)">
       <use xlink:href="#ArialMT-51"/>
       <use x="55.615234" xlink:href="#ArialMT-48"/>
       <use x="111.230469" xlink:href="#ArialMT-48"/>
      </g>
     </g>
    </g>
    <g id="xtick_3">
     <g id="line2d_5">
      <defs>
       <path d="M 0 0 
L 0 -2 
" id="m884e76adc4" style="stroke:#000000;stroke-width:0.6;"/>
      </defs>
      <g>
       <use style="stroke:#000000;stroke-width:0.6;" x="30.448537" xlink:href="#m884e76adc4" y="38.052"/>
      </g>
     </g>
     <g id="line2d_6">
      <defs>
       <path d="M 0 0 
L 0 2 
" id="m7a3a18d7cc" style="stroke:#000000;stroke-width:0.6;"/>
      </defs>
      <g>
       <use style="stroke:#000000;stroke-width:0.6;" x="30.448537" xlink:href="#m7a3a18d7cc" y="0"/>
      </g>
     </g>
    </g>
    <g id="xtick_4">
     <g id="line2d_7">
      <g>
       <use style="stroke:#000000;stroke-width:0.6;" x="38.568027" xlink:href="#m884e76adc4" y="38.052"/>
      </g>
     </g>
     <g id="line2d_8">
      <g>
       <use style="stroke:#000000;stroke-width:0.6;" x="38.568027" xlink:href="#m7a3a18d7cc" y="0"/>
      </g>
     </g>
    </g>
    <g id="xtick_5">
     <g id="line2d_9">
      <g>
       <use style="stroke:#000000;stroke-width:0.6;" x="46.687517" xlink:href="#m884e76adc4" y="38.052"/>
      </g>
     </g>
     <g id="line2d_10">
      <g>
       <use style="stroke:#000000;stroke-width:0.6;" x="46.687517" xlink:href="#m7a3a18d7cc" y="0"/>
      </g>
     </g>
    </g>
    <g id="text_3">
     <!-- $\it{T}$ (K) -->
     <defs>
      <path d="M 5.90625 72.90625 
L 67.578125 72.90625 
L 66.015625 64.59375 
L 39.984375 64.59375 
L 27.484375 0 
L 17.578125 0 
L 30.078125 64.59375 
L 4.296875 64.59375 
z
" id="DejaVuSans-Oblique-84"/>
      <path id="ArialMT-32"/>
      <path d="M 23.390625 -21.046875 
Q 16.109375 -11.859375 11.078125 0.4375 
Q 6.0625 12.75 6.0625 25.921875 
Q 6.0625 37.546875 9.8125 48.1875 
Q 14.203125 60.546875 23.390625 72.796875 
L 29.6875 72.796875 
Q 23.78125 62.640625 21.875 58.296875 
Q 18.890625 51.5625 17.1875 44.234375 
Q 15.09375 35.109375 15.09375 25.875 
Q 15.09375 2.390625 29.6875 -21.046875 
z
" id="ArialMT-40"/>
      <path d="M 7.328125 0 
L 7.328125 71.578125 
L 16.796875 71.578125 
L 16.796875 36.078125 
L 52.34375 71.578125 
L 65.1875 71.578125 
L 35.15625 42.578125 
L 66.5 0 
L 54 0 
L 28.515625 36.234375 
L 16.796875 24.8125 
L 16.796875 0 
z
" id="ArialMT-75"/>
      <path d="M 12.359375 -21.046875 
L 6.0625 -21.046875 
Q 20.65625 2.390625 20.65625 25.875 
Q 20.65625 35.0625 18.5625 44.09375 
Q 16.890625 51.421875 13.921875 58.15625 
Q 12.015625 62.546875 6.0625 72.796875 
L 12.359375 72.796875 
Q 21.53125 60.546875 25.921875 48.1875 
Q 29.6875 37.546875 29.6875 25.921875 
Q 29.6875 12.75 24.625 0.4375 
Q 19.578125 -11.859375 12.359375 -21.046875 
z
" id="ArialMT-41"/>
     </defs>
     <g transform="translate(31.77 52.20825)scale(0.08 -0.08)">
      <use transform="translate(0 0.09375)" xlink:href="#DejaVuSans-Oblique-84"/>
      <use transform="translate(61.083984 0.09375)" xlink:href="#ArialMT-32"/>
      <use transform="translate(88.867188 0.09375)" xlink:href="#ArialMT-40"/>
      <use transform="translate(122.167969 0.09375)" xlink:href="#ArialMT-75"/>
      <use transform="translate(188.867188 0.09375)" xlink:href="#ArialMT-41"/>
     </g>
    </g>
   </g>
   <g id="matplotlib.axis_2">
    <g id="ytick_1">
     <g id="line2d_11">
      <defs>
       <path d="M 0 0 
L 3.5 0 
" id="mf58369cee2" style="stroke:#000000;stroke-width:0.8;"/>
      </defs>
      <g>
       <use style="stroke:#000000;stroke-width:0.8;" x="21.16" xlink:href="#mf58369cee2" y="32.683949"/>
      </g>
     </g>
     <g id="line2d_12">
      <defs>
       <path d="M 0 0 
L -3.5 0 
" id="m8155a03233" style="stroke:#000000;stroke-width:0.8;"/>
      </defs>
      <g>
       <use style="stroke:#000000;stroke-width:0.8;" x="60.22" xlink:href="#m8155a03233" y="32.683949"/>
      </g>
     </g>
     <g id="text_4">
      <!-- $\mathdefault{10^{5}}$ -->
      <defs>
       <path d="M 37.25 0 
L 28.46875 0 
L 28.46875 56 
Q 25.296875 52.984375 20.140625 49.953125 
Q 14.984375 46.921875 10.890625 45.40625 
L 10.890625 53.90625 
Q 18.265625 57.375 23.78125 62.296875 
Q 29.296875 67.234375 31.59375 71.875 
L 37.25 71.875 
z
" id="ArialMT-49"/>
       <path d="M 4.15625 18.75 
L 13.375 19.53125 
Q 14.40625 12.796875 18.140625 9.390625 
Q 21.875 6 27.15625 6 
Q 33.5 6 37.890625 10.78125 
Q 42.28125 15.578125 42.28125 23.484375 
Q 42.28125 31 38.0625 35.34375 
Q 33.84375 39.703125 27 39.703125 
Q 22.75 39.703125 19.328125 37.765625 
Q 15.921875 35.84375 13.96875 32.765625 
L 5.71875 33.84375 
L 12.640625 70.609375 
L 48.25 70.609375 
L 48.25 62.203125 
L 19.671875 62.203125 
L 15.828125 42.96875 
Q 22.265625 47.46875 29.34375 47.46875 
Q 38.71875 47.46875 45.15625 40.96875 
Q 51.609375 34.46875 51.609375 24.265625 
Q 51.609375 14.546875 45.953125 7.46875 
Q 39.0625 -1.21875 27.15625 -1.21875 
Q 17.390625 -1.21875 11.203125 4.25 
Q 5.03125 9.71875 4.15625 18.75 
z
" id="ArialMT-53"/>
      </defs>
      <g transform="translate(7.6 36.768949)scale(0.08 -0.08)">
       <use transform="translate(0 0.879688)" xlink:href="#ArialMT-49"/>
       <use transform="translate(55.615234 0.879688)" xlink:href="#ArialMT-48"/>
       <use transform="translate(112.972813 70.573438)scale(0.7)" xlink:href="#ArialMT-53"/>
      </g>
     </g>
    </g>
    <g id="ytick_2">
     <g id="line2d_13">
      <g>
       <use style="stroke:#000000;stroke-width:0.8;" x="21.16" xlink:href="#mf58369cee2" y="23.749968"/>
      </g>
     </g>
     <g id="line2d_14">
      <g>
       <use style="stroke:#000000;stroke-width:0.8;" x="60.22" xlink:href="#m8155a03233" y="23.749968"/>
      </g>
     </g>
     <g id="text_5">
      <!-- $\mathdefault{10^{6}}$ -->
      <defs>
       <path d="M 49.75 54.046875 
L 41.015625 53.375 
Q 39.84375 58.546875 37.703125 60.890625 
Q 34.125 64.65625 28.90625 64.65625 
Q 24.703125 64.65625 21.53125 62.3125 
Q 17.390625 59.28125 14.984375 53.46875 
Q 12.59375 47.65625 12.5 36.921875 
Q 15.671875 41.75 20.265625 44.09375 
Q 24.859375 46.4375 29.890625 46.4375 
Q 38.671875 46.4375 44.84375 39.96875 
Q 51.03125 33.5 51.03125 23.25 
Q 51.03125 16.5 48.125 10.71875 
Q 45.21875 4.9375 40.140625 1.859375 
Q 35.0625 -1.21875 28.609375 -1.21875 
Q 17.625 -1.21875 10.6875 6.859375 
Q 3.765625 14.9375 3.765625 33.5 
Q 3.765625 54.25 11.421875 63.671875 
Q 18.109375 71.875 29.4375 71.875 
Q 37.890625 71.875 43.28125 67.140625 
Q 48.6875 62.40625 49.75 54.046875 
z
M 13.875 23.1875 
Q 13.875 18.65625 15.796875 14.5 
Q 17.71875 10.359375 21.1875 8.171875 
Q 24.65625 6 28.46875 6 
Q 34.03125 6 38.03125 10.484375 
Q 42.046875 14.984375 42.046875 22.703125 
Q 42.046875 30.125 38.078125 34.390625 
Q 34.125 38.671875 28.125 38.671875 
Q 22.171875 38.671875 18.015625 34.390625 
Q 13.875 30.125 13.875 23.1875 
z
" id="ArialMT-54"/>
      </defs>
      <g transform="translate(7.6 27.874968)scale(0.08 -0.08)">
       <use transform="translate(0 0.99375)" xlink:href="#ArialMT-49"/>
       <use transform="translate(55.615234 0.99375)" xlink:href="#ArialMT-48"/>
       <use transform="translate(112.972813 70.6875)scale(0.7)" xlink:href="#ArialMT-54"/>
      </g>
     </g>
    </g>
    <g id="ytick_3">
     <g id="line2d_15">
      <g>
       <use style="stroke:#000000;stroke-width:0.8;" x="21.16" xlink:href="#mf58369cee2" y="14.815986"/>
      </g>
     </g>
     <g id="line2d_16">
      <g>
       <use style="stroke:#000000;stroke-width:0.8;" x="60.22" xlink:href="#m8155a03233" y="14.815986"/>
      </g>
     </g>
     <g id="text_6">
      <!-- $\mathdefault{10^{7}}$ -->
      <defs>
       <path d="M 4.734375 62.203125 
L 4.734375 70.65625 
L 51.078125 70.65625 
L 51.078125 63.8125 
Q 44.234375 56.546875 37.515625 44.484375 
Q 30.8125 32.421875 27.15625 19.671875 
Q 24.515625 10.6875 23.78125 0 
L 14.75 0 
Q 14.890625 8.453125 18.0625 20.40625 
Q 21.234375 32.375 27.171875 43.484375 
Q 33.109375 54.59375 39.796875 62.203125 
z
" id="ArialMT-55"/>
      </defs>
      <g transform="translate(7.6 18.900986)scale(0.08 -0.08)">
       <use transform="translate(0 0.846875)" xlink:href="#ArialMT-49"/>
       <use transform="translate(55.615234 0.846875)" xlink:href="#ArialMT-48"/>
       <use transform="translate(112.972813 70.540625)scale(0.7)" xlink:href="#ArialMT-55"/>
      </g>
     </g>
    </g>
    <g id="ytick_4">
     <g id="line2d_17">
      <g>
       <use style="stroke:#000000;stroke-width:0.8;" x="21.16" xlink:href="#mf58369cee2" y="5.882005"/>
      </g>
     </g>
     <g id="line2d_18">
      <g>
       <use style="stroke:#000000;stroke-width:0.8;" x="60.22" xlink:href="#m8155a03233" y="5.882005"/>
      </g>
     </g>
     <g id="text_7">
      <!-- $\mathdefault{10^{8}}$ -->
      <defs>
       <path d="M 17.671875 38.8125 
Q 12.203125 40.828125 9.5625 44.53125 
Q 6.9375 48.25 6.9375 53.421875 
Q 6.9375 61.234375 12.546875 66.546875 
Q 18.171875 71.875 27.484375 71.875 
Q 36.859375 71.875 42.578125 66.421875 
Q 48.296875 60.984375 48.296875 53.171875 
Q 48.296875 48.1875 45.671875 44.5 
Q 43.0625 40.828125 37.75 38.8125 
Q 44.34375 36.671875 47.78125 31.875 
Q 51.21875 27.09375 51.21875 20.453125 
Q 51.21875 11.28125 44.71875 5.03125 
Q 38.234375 -1.21875 27.640625 -1.21875 
Q 17.046875 -1.21875 10.546875 5.046875 
Q 4.046875 11.328125 4.046875 20.703125 
Q 4.046875 27.6875 7.59375 32.390625 
Q 11.140625 37.109375 17.671875 38.8125 
z
M 15.921875 53.71875 
Q 15.921875 48.640625 19.1875 45.40625 
Q 22.46875 42.1875 27.6875 42.1875 
Q 32.765625 42.1875 36.015625 45.375 
Q 39.265625 48.578125 39.265625 53.21875 
Q 39.265625 58.0625 35.90625 61.359375 
Q 32.5625 64.65625 27.59375 64.65625 
Q 22.5625 64.65625 19.234375 61.421875 
Q 15.921875 58.203125 15.921875 53.71875 
z
M 13.09375 20.65625 
Q 13.09375 16.890625 14.875 13.375 
Q 16.65625 9.859375 20.171875 7.921875 
Q 23.6875 6 27.734375 6 
Q 34.03125 6 38.125 10.046875 
Q 42.234375 14.109375 42.234375 20.359375 
Q 42.234375 26.703125 38.015625 30.859375 
Q 33.796875 35.015625 27.4375 35.015625 
Q 21.234375 35.015625 17.15625 30.90625 
Q 13.09375 26.8125 13.09375 20.65625 
z
" id="ArialMT-56"/>
      </defs>
      <g transform="translate(7.6 10.007005)scale(0.08 -0.08)">
       <use transform="translate(0 0.99375)" xlink:href="#ArialMT-49"/>
       <use transform="translate(55.615234 0.99375)" xlink:href="#ArialMT-48"/>
       <use transform="translate(112.972813 70.6875)scale(0.7)" xlink:href="#ArialMT-56"/>
      </g>
     </g>
    </g>
    <g id="text_8">
     <!-- $\it{R}$ (Ω) -->
     <defs>
      <path d="M 25.203125 64.796875 
L 20.21875 38.921875 
L 32.90625 38.921875 
Q 40.375 38.921875 44.984375 43.046875 
Q 49.609375 47.171875 49.609375 53.8125 
Q 49.609375 59.125 46.5 61.953125 
Q 43.40625 64.796875 37.59375 64.796875 
z
M 43.3125 35.015625 
Q 46.4375 34.28125 48.515625 31.390625 
Q 50.59375 28.515625 53.328125 19.921875 
L 59.515625 0 
L 49.125 0 
L 43.40625 18.703125 
Q 41.21875 25.921875 38.328125 28.359375 
Q 35.453125 30.8125 29.5 30.8125 
L 18.609375 30.8125 
L 12.59375 0 
L 2.6875 0 
L 16.890625 72.90625 
L 39.109375 72.90625 
Q 49.21875 72.90625 54.609375 68.328125 
Q 60.015625 63.765625 60.015625 55.171875 
Q 60.015625 47.5625 55.421875 41.984375 
Q 50.828125 36.421875 43.3125 35.015625 
z
" id="DejaVuSans-Oblique-82"/>
      <path d="M 4.734375 8.453125 
L 20.359375 8.453125 
Q 5.515625 20.84375 5.515625 38.71875 
Q 5.515625 48.4375 9.421875 56.15625 
Q 13.328125 63.875 20.453125 68.328125 
Q 27.59375 72.796875 37.59375 72.796875 
Q 47.515625 72.796875 54.125 68.6875 
Q 60.75 64.59375 65.015625 56.921875 
Q 69.28125 49.265625 69.28125 38.71875 
Q 69.28125 20.84375 54.4375 8.453125 
L 70.0625 8.453125 
L 70.0625 0 
L 42.234375 0 
L 42.234375 7.90625 
Q 59.625 16.015625 59.625 37.25 
Q 59.625 49.21875 53.484375 56.953125 
Q 47.359375 64.703125 37.546875 64.703125 
Q 27.4375 64.703125 21.375 56.90625 
Q 15.328125 49.125 15.328125 37.75 
Q 15.328125 16.21875 32.625 7.90625 
L 32.625 0 
L 4.734375 0 
z
" id="ArialMT-937"/>
     </defs>
     <g transform="translate(5.84 28.586)rotate(-90)scale(0.08 -0.08)">
      <use transform="translate(0 0.09375)" xlink:href="#DejaVuSans-Oblique-82"/>
      <use transform="translate(69.482422 0.09375)" xlink:href="#ArialMT-32"/>
      <use transform="translate(97.265625 0.09375)" xlink:href="#ArialMT-40"/>
      <use transform="translate(130.566406 0.09375)" xlink:href="#ArialMT-937"/>
      <use transform="translate(205.322266 0.09375)" xlink:href="#ArialMT-41"/>
     </g>
    </g>
   </g>
   <g id="line2d_19">
    <path clip-path="url(#p06f80be869)" d="M 54.806769 13.812042 
L 51.560098 14.756574 
L 49.403627 15.408312 
L 43.986682 17.920619 
L 38.57252 20.194175 
L 33.157058 22.151721 
L 32.07394 21.951324 
L 30.996159 20.716125 
L 29.908721 20.492414 
L 28.825581 19.247449 
L 27.744508 17.927888 
L 26.659983 15.864268 
L 25.577124 14.099357 
L 24.494277 11.454361 
L 23.413659 6.266969 
L 22.762227 1.729636 
" style="fill:none;stroke:#e41a1c;stroke-linecap:square;stroke-width:1.5;"/>
    <defs>
     <path d="M 0 0.75 
C 0.198902 0.75 0.389685 0.670975 0.53033 0.53033 
C 0.670975 0.389685 0.75 0.198902 0.75 0 
C 0.75 -0.198902 0.670975 -0.389685 0.53033 -0.53033 
C 0.389685 -0.670975 0.198902 -0.75 0 -0.75 
C -0.198902 -0.75 -0.389685 -0.670975 -0.53033 -0.53033 
C -0.670975 -0.389685 -0.75 -0.198902 -0.75 0 
C -0.75 0.198902 -0.670975 0.389685 -0.53033 0.53033 
C -0.389685 0.670975 -0.198902 0.75 0 0.75 
z
" id="md323110955" style="stroke:#e41a1c;"/>
    </defs>
    <g clip-path="url(#p06f80be869)">
     <use style="fill:#e41a1c;stroke:#e41a1c;" x="54.806769" xlink:href="#md323110955" y="13.812042"/>
     <use style="fill:#e41a1c;stroke:#e41a1c;" x="51.560098" xlink:href="#md323110955" y="14.756574"/>
     <use style="fill:#e41a1c;stroke:#e41a1c;" x="49.403627" xlink:href="#md323110955" y="15.408312"/>
     <use style="fill:#e41a1c;stroke:#e41a1c;" x="43.986682" xlink:href="#md323110955" y="17.920619"/>
     <use style="fill:#e41a1c;stroke:#e41a1c;" x="38.57252" xlink:href="#md323110955" y="20.194175"/>
     <use style="fill:#e41a1c;stroke:#e41a1c;" x="33.157058" xlink:href="#md323110955" y="22.151721"/>
     <use style="fill:#e41a1c;stroke:#e41a1c;" x="32.07394" xlink:href="#md323110955" y="21.951324"/>
     <use style="fill:#e41a1c;stroke:#e41a1c;" x="30.996159" xlink:href="#md323110955" y="20.716125"/>
     <use style="fill:#e41a1c;stroke:#e41a1c;" x="29.908721" xlink:href="#md323110955" y="20.492414"/>
     <use style="fill:#e41a1c;stroke:#e41a1c;" x="28.825581" xlink:href="#md323110955" y="19.247449"/>
     <use style="fill:#e41a1c;stroke:#e41a1c;" x="27.744508" xlink:href="#md323110955" y="17.927888"/>
     <use style="fill:#e41a1c;stroke:#e41a1c;" x="26.659983" xlink:href="#md323110955" y="15.864268"/>
     <use style="fill:#e41a1c;stroke:#e41a1c;" x="25.577124" xlink:href="#md323110955" y="14.099357"/>
     <use style="fill:#e41a1c;stroke:#e41a1c;" x="24.494277" xlink:href="#md323110955" y="11.454361"/>
     <use style="fill:#e41a1c;stroke:#e41a1c;" x="23.413659" xlink:href="#md323110955" y="6.266969"/>
     <use style="fill:#e41a1c;stroke:#e41a1c;" x="22.762227" xlink:href="#md323110955" y="1.729636"/>
    </g>
   </g>
   <g id="line2d_20">
    <path clip-path="url(#p06f80be869)" d="M 54.806769 15.026392 
L 51.560098 16.370248 
L 49.403627 17.241188 
L 43.986682 19.86445 
L 38.57252 22.380883 
L 33.157058 24.749294 
L 32.07394 24.543708 
L 30.996159 24.556479 
L 29.908721 24.337559 
L 28.825581 23.818038 
L 27.744508 23.00576 
L 26.659983 22.293708 
L 25.577124 21.031633 
L 24.494277 19.400906 
L 23.413659 16.219681 
L 22.762227 11.301866 
" style="fill:none;stroke:#984ea3;stroke-linecap:square;stroke-width:1.5;"/>
    <defs>
     <path d="M 0 0.75 
C 0.198902 0.75 0.389685 0.670975 0.53033 0.53033 
C 0.670975 0.389685 0.75 0.198902 0.75 0 
C 0.75 -0.198902 0.670975 -0.389685 0.53033 -0.53033 
C 0.389685 -0.670975 0.198902 -0.75 0 -0.75 
C -0.198902 -0.75 -0.389685 -0.670975 -0.53033 -0.53033 
C -0.670975 -0.389685 -0.75 -0.198902 -0.75 0 
C -0.75 0.198902 -0.670975 0.389685 -0.53033 0.53033 
C -0.389685 0.670975 -0.198902 0.75 0 0.75 
z
" id="m976f6b9687" style="stroke:#984ea3;"/>
    </defs>
    <g clip-path="url(#p06f80be869)">
     <use style="fill:#984ea3;stroke:#984ea3;" x="54.806769" xlink:href="#m976f6b9687" y="15.026392"/>
     <use style="fill:#984ea3;stroke:#984ea3;" x="51.560098" xlink:href="#m976f6b9687" y="16.370248"/>
     <use style="fill:#984ea3;stroke:#984ea3;" x="49.403627" xlink:href="#m976f6b9687" y="17.241188"/>
     <use style="fill:#984ea3;stroke:#984ea3;" x="43.986682" xlink:href="#m976f6b9687" y="19.86445"/>
     <use style="fill:#984ea3;stroke:#984ea3;" x="38.57252" xlink:href="#m976f6b9687" y="22.380883"/>
     <use style="fill:#984ea3;stroke:#984ea3;" x="33.157058" xlink:href="#m976f6b9687" y="24.749294"/>
     <use style="fill:#984ea3;stroke:#984ea3;" x="32.07394" xlink:href="#m976f6b9687" y="24.543708"/>
     <use style="fill:#984ea3;stroke:#984ea3;" x="30.996159" xlink:href="#m976f6b9687" y="24.556479"/>
     <use style="fill:#984ea3;stroke:#984ea3;" x="29.908721" xlink:href="#m976f6b9687" y="24.337559"/>
     <use style="fill:#984ea3;stroke:#984ea3;" x="28.825581" xlink:href="#m976f6b9687" y="23.818038"/>
     <use style="fill:#984ea3;stroke:#984ea3;" x="27.744508" xlink:href="#m976f6b9687" y="23.00576"/>
     <use style="fill:#984ea3;stroke:#984ea3;" x="26.659983" xlink:href="#m976f6b9687" y="22.293708"/>
     <use style="fill:#984ea3;stroke:#984ea3;" x="25.577124" xlink:href="#m976f6b9687" y="21.031633"/>
     <use style="fill:#984ea3;stroke:#984ea3;" x="24.494277" xlink:href="#m976f6b9687" y="19.400906"/>
     <use style="fill:#984ea3;stroke:#984ea3;" x="23.413659" xlink:href="#m976f6b9687" y="16.219681"/>
     <use style="fill:#984ea3;stroke:#984ea3;" x="22.762227" xlink:href="#m976f6b9687" y="11.301866"/>
    </g>
   </g>
   <g id="line2d_21">
    <path clip-path="url(#p06f80be869)" d="M 54.806769 15.818007 
L 51.560098 17.353992 
L 49.403627 18.589288 
L 43.986682 21.730641 
L 38.57252 25.061175 
L 33.157058 29.368789 
L 32.07394 29.63055 
L 30.996159 30.155085 
L 29.908721 30.474779 
L 28.825581 30.52532 
L 27.744508 30.231842 
L 26.659983 29.665871 
L 25.577124 28.778853 
L 24.494277 27.501239 
L 23.413659 25.305551 
L 22.762227 22.398957 
" style="fill:none;stroke:#4daf4a;stroke-linecap:square;stroke-width:1.5;"/>
    <defs>
     <path d="M 0 0.75 
C 0.198902 0.75 0.389685 0.670975 0.53033 0.53033 
C 0.670975 0.389685 0.75 0.198902 0.75 0 
C 0.75 -0.198902 0.670975 -0.389685 0.53033 -0.53033 
C 0.389685 -0.670975 0.198902 -0.75 0 -0.75 
C -0.198902 -0.75 -0.389685 -0.670975 -0.53033 -0.53033 
C -0.670975 -0.389685 -0.75 -0.198902 -0.75 0 
C -0.75 0.198902 -0.670975 0.389685 -0.53033 0.53033 
C -0.389685 0.670975 -0.198902 0.75 0 0.75 
z
" id="mb56406f83a" style="stroke:#4daf4a;"/>
    </defs>
    <g clip-path="url(#p06f80be869)">
     <use style="fill:#4daf4a;stroke:#4daf4a;" x="54.806769" xlink:href="#mb56406f83a" y="15.818007"/>
     <use style="fill:#4daf4a;stroke:#4daf4a;" x="51.560098" xlink:href="#mb56406f83a" y="17.353992"/>
     <use style="fill:#4daf4a;stroke:#4daf4a;" x="49.403627" xlink:href="#mb56406f83a" y="18.589288"/>
     <use style="fill:#4daf4a;stroke:#4daf4a;" x="43.986682" xlink:href="#mb56406f83a" y="21.730641"/>
     <use style="fill:#4daf4a;stroke:#4daf4a;" x="38.57252" xlink:href="#mb56406f83a" y="25.061175"/>
     <use style="fill:#4daf4a;stroke:#4daf4a;" x="33.157058" xlink:href="#mb56406f83a" y="29.368789"/>
     <use style="fill:#4daf4a;stroke:#4daf4a;" x="32.07394" xlink:href="#mb56406f83a" y="29.63055"/>
     <use style="fill:#4daf4a;stroke:#4daf4a;" x="30.996159" xlink:href="#mb56406f83a" y="30.155085"/>
     <use style="fill:#4daf4a;stroke:#4daf4a;" x="29.908721" xlink:href="#mb56406f83a" y="30.474779"/>
     <use style="fill:#4daf4a;stroke:#4daf4a;" x="28.825581" xlink:href="#mb56406f83a" y="30.52532"/>
     <use style="fill:#4daf4a;stroke:#4daf4a;" x="27.744508" xlink:href="#mb56406f83a" y="30.231842"/>
     <use style="fill:#4daf4a;stroke:#4daf4a;" x="26.659983" xlink:href="#mb56406f83a" y="29.665871"/>
     <use style="fill:#4daf4a;stroke:#4daf4a;" x="25.577124" xlink:href="#mb56406f83a" y="28.778853"/>
     <use style="fill:#4daf4a;stroke:#4daf4a;" x="24.494277" xlink:href="#mb56406f83a" y="27.501239"/>
     <use style="fill:#4daf4a;stroke:#4daf4a;" x="23.413659" xlink:href="#mb56406f83a" y="25.305551"/>
     <use style="fill:#4daf4a;stroke:#4daf4a;" x="22.762227" xlink:href="#mb56406f83a" y="22.398957"/>
    </g>
   </g>
   <g id="line2d_22">
    <path clip-path="url(#p06f80be869)" d="M 54.806769 16.351361 
L 51.560098 18.045667 
L 49.403627 19.497875 
L 43.986682 23.226903 
L 38.57252 27.578504 
L 33.157058 33.126911 
L 32.07394 34.241039 
L 30.996159 35.099798 
L 29.908721 35.747233 
L 28.825581 36.137605 
L 27.744508 36.322364 
L 26.659983 36.238585 
L 25.577124 35.972246 
L 24.494277 35.560808 
L 23.413659 35.009059 
L 22.762227 34.54174 
" style="fill:none;stroke:#377eb8;stroke-linecap:square;stroke-width:1.5;"/>
    <defs>
     <path d="M 0 0.75 
C 0.198902 0.75 0.389685 0.670975 0.53033 0.53033 
C 0.670975 0.389685 0.75 0.198902 0.75 0 
C 0.75 -0.198902 0.670975 -0.389685 0.53033 -0.53033 
C 0.389685 -0.670975 0.198902 -0.75 0 -0.75 
C -0.198902 -0.75 -0.389685 -0.670975 -0.53033 -0.53033 
C -0.670975 -0.389685 -0.75 -0.198902 -0.75 0 
C -0.75 0.198902 -0.670975 0.389685 -0.53033 0.53033 
C -0.389685 0.670975 -0.198902 0.75 0 0.75 
z
" id="m2b5758bb5a" style="stroke:#377eb8;"/>
    </defs>
    <g clip-path="url(#p06f80be869)">
     <use style="fill:#377eb8;stroke:#377eb8;" x="54.806769" xlink:href="#m2b5758bb5a" y="16.351361"/>
     <use style="fill:#377eb8;stroke:#377eb8;" x="51.560098" xlink:href="#m2b5758bb5a" y="18.045667"/>
     <use style="fill:#377eb8;stroke:#377eb8;" x="49.403627" xlink:href="#m2b5758bb5a" y="19.497875"/>
     <use style="fill:#377eb8;stroke:#377eb8;" x="43.986682" xlink:href="#m2b5758bb5a" y="23.226903"/>
     <use style="fill:#377eb8;stroke:#377eb8;" x="38.57252" xlink:href="#m2b5758bb5a" y="27.578504"/>
     <use style="fill:#377eb8;stroke:#377eb8;" x="33.157058" xlink:href="#m2b5758bb5a" y="33.126911"/>
     <use style="fill:#377eb8;stroke:#377eb8;" x="32.07394" xlink:href="#m2b5758bb5a" y="34.241039"/>
     <use style="fill:#377eb8;stroke:#377eb8;" x="30.996159" xlink:href="#m2b5758bb5a" y="35.099798"/>
     <use style="fill:#377eb8;stroke:#377eb8;" x="29.908721" xlink:href="#m2b5758bb5a" y="35.747233"/>
     <use style="fill:#377eb8;stroke:#377eb8;" x="28.825581" xlink:href="#m2b5758bb5a" y="36.137605"/>
     <use style="fill:#377eb8;stroke:#377eb8;" x="27.744508" xlink:href="#m2b5758bb5a" y="36.322364"/>
     <use style="fill:#377eb8;stroke:#377eb8;" x="26.659983" xlink:href="#m2b5758bb5a" y="36.238585"/>
     <use style="fill:#377eb8;stroke:#377eb8;" x="25.577124" xlink:href="#m2b5758bb5a" y="35.972246"/>
     <use style="fill:#377eb8;stroke:#377eb8;" x="24.494277" xlink:href="#m2b5758bb5a" y="35.560808"/>
     <use style="fill:#377eb8;stroke:#377eb8;" x="23.413659" xlink:href="#m2b5758bb5a" y="35.009059"/>
     <use style="fill:#377eb8;stroke:#377eb8;" x="22.762227" xlink:href="#m2b5758bb5a" y="34.54174"/>
    </g>
   </g>
   <g id="patch_3">
    <path d="M 21.16 38.052 
L 21.16 0 
" style="fill:none;stroke:#000000;stroke-linecap:square;stroke-linejoin:miter;stroke-width:0.8;"/>
   </g>
   <g id="patch_4">
    <path d="M 60.22 38.052 
L 60.22 0 
" style="fill:none;stroke:#000000;stroke-linecap:square;stroke-linejoin:miter;stroke-width:0.8;"/>
   </g>
   <g id="patch_5">
    <path d="M 21.16 38.052 
L 60.22 38.052 
" style="fill:none;stroke:#000000;stroke-linecap:square;stroke-linejoin:miter;stroke-width:0.8;"/>
   </g>
   <g id="patch_6">
    <path d="M 21.16 0 
L 60.22 0 
" style="fill:none;stroke:#000000;stroke-linecap:square;stroke-linejoin:miter;stroke-width:0.8;"/>
   </g>
  </g>
 </g>
 <defs>
  <clipPath id="p06f80be869">
   <rect height="38.052" width="39.06" x="21.16" y="0"/>
  </clipPath>
 </defs>
</svg>
