<?xml version="1.0" encoding="utf-8" standalone="no"?>
<!DOCTYPE svg PUBLIC "-//W3C//DTD SVG 1.1//EN"
  "http://www.w3.org/Graphics/SVG/1.1/DTD/svg11.dtd">
<!-- Created with matplotlib (https://matplotlib.org/) -->
<svg height="99.35625pt" version="1.1" viewBox="0 0 100.261393 99.35625" width="100.261393pt" xmlns="http://www.w3.org/2000/svg" xmlns:xlink="http://www.w3.org/1999/xlink">
 <defs>
  <style type="text/css">
*{stroke-linecap:butt;stroke-linejoin:round;white-space:pre;}
  </style>
 </defs>
 <g id="figure_1">
  <g id="patch_1">
   <path d="M 0 99.35625 
L 100.261393 99.35625 
L 100.261393 0 
L 0 0 
z
" style="fill:none;"/>
  </g>
  <g id="axes_1">
   <g id="patch_2">
    <path d="M 14.94875 81.54 
L 98.64875 81.54 
L 98.64875 0 
L 14.94875 0 
z
" style="fill:none;"/>
   </g>
   <g id="matplotlib.axis_1">
    <g id="xtick_1">
     <g id="line2d_1">
      <defs>
       <path d="M 0 0 
L 0 -3.5 
" id="m452f8e9fba" style="stroke:#000000;stroke-width:0.8;"/>
      </defs>
      <g>
       <use style="stroke:#000000;stroke-width:0.8;" x="17.681037" xlink:href="#m452f8e9fba" y="81.54"/>
      </g>
     </g>
     <g id="line2d_2">
      <defs>
       <path d="M 0 0 
L 0 3.5 
" id="mfd58698cd3" style="stroke:#000000;stroke-width:0.8;"/>
      </defs>
      <g>
       <use style="stroke:#000000;stroke-width:0.8;" x="17.681037" xlink:href="#mfd58698cd3" y="0"/>
      </g>
     </g>
     <g id="text_1">
      <!-- 0 -->
      <defs>
       <path d="M 4.15625 35.296875 
Q 4.15625 48 6.765625 55.734375 
Q 9.375 63.484375 14.515625 67.671875 
Q 19.671875 71.875 27.484375 71.875 
Q 33.25 71.875 37.59375 69.546875 
Q 41.9375 67.234375 44.765625 62.859375 
Q 47.609375 58.5 49.21875 52.21875 
Q 50.828125 45.953125 50.828125 35.296875 
Q 50.828125 22.703125 48.234375 14.96875 
Q 45.65625 7.234375 40.5 3 
Q 35.359375 -1.21875 27.484375 -1.21875 
Q 17.140625 -1.21875 11.234375 6.203125 
Q 4.15625 15.140625 4.15625 35.296875 
z
M 13.1875 35.296875 
Q 13.1875 17.671875 17.3125 11.828125 
Q 21.4375 6 27.484375 6 
Q 33.546875 6 37.671875 11.859375 
Q 41.796875 17.71875 41.796875 35.296875 
Q 41.796875 52.984375 37.671875 58.78125 
Q 33.546875 64.59375 27.390625 64.59375 
Q 21.34375 64.59375 17.71875 59.46875 
Q 13.1875 52.9375 13.1875 35.296875 
z
" id="ArialMT-48"/>
      </defs>
      <g transform="translate(15.456662 88.26625)scale(0.08 -0.08)">
       <use xlink:href="#ArialMT-48"/>
      </g>
     </g>
    </g>
    <g id="xtick_2">
     <g id="line2d_3">
      <g>
       <use style="stroke:#000000;stroke-width:0.8;" x="42.983447" xlink:href="#m452f8e9fba" y="81.54"/>
      </g>
     </g>
     <g id="line2d_4">
      <g>
       <use style="stroke:#000000;stroke-width:0.8;" x="42.983447" xlink:href="#mfd58698cd3" y="0"/>
      </g>
     </g>
     <g id="text_2">
      <!-- 100 -->
      <defs>
       <path d="M 37.25 0 
L 28.46875 0 
L 28.46875 56 
Q 25.296875 52.984375 20.140625 49.953125 
Q 14.984375 46.921875 10.890625 45.40625 
L 10.890625 53.90625 
Q 18.265625 57.375 23.78125 62.296875 
Q 29.296875 67.234375 31.59375 71.875 
L 37.25 71.875 
z
" id="ArialMT-49"/>
      </defs>
      <g transform="translate(36.310322 88.26625)scale(0.08 -0.08)">
       <use xlink:href="#ArialMT-49"/>
       <use x="55.615234" xlink:href="#ArialMT-48"/>
       <use x="111.230469" xlink:href="#ArialMT-48"/>
      </g>
     </g>
    </g>
    <g id="xtick_3">
     <g id="line2d_5">
      <g>
       <use style="stroke:#000000;stroke-width:0.8;" x="68.285858" xlink:href="#m452f8e9fba" y="81.54"/>
      </g>
     </g>
     <g id="line2d_6">
      <g>
       <use style="stroke:#000000;stroke-width:0.8;" x="68.285858" xlink:href="#mfd58698cd3" y="0"/>
      </g>
     </g>
     <g id="text_3">
      <!-- 200 -->
      <defs>
       <path d="M 50.34375 8.453125 
L 50.34375 0 
L 3.03125 0 
Q 2.9375 3.171875 4.046875 6.109375 
Q 5.859375 10.9375 9.828125 15.625 
Q 13.8125 20.3125 21.34375 26.46875 
Q 33.015625 36.03125 37.109375 41.625 
Q 41.21875 47.21875 41.21875 52.203125 
Q 41.21875 57.421875 37.46875 61 
Q 33.734375 64.59375 27.734375 64.59375 
Q 21.390625 64.59375 17.578125 60.78125 
Q 13.765625 56.984375 13.71875 50.25 
L 4.6875 51.171875 
Q 5.609375 61.28125 11.65625 66.578125 
Q 17.71875 71.875 27.9375 71.875 
Q 38.234375 71.875 44.234375 66.15625 
Q 50.25 60.453125 50.25 52 
Q 50.25 47.703125 48.484375 43.546875 
Q 46.734375 39.40625 42.65625 34.8125 
Q 38.578125 30.21875 29.109375 22.21875 
Q 21.1875 15.578125 18.9375 13.203125 
Q 16.703125 10.84375 15.234375 8.453125 
z
" id="ArialMT-50"/>
      </defs>
      <g transform="translate(61.612733 88.26625)scale(0.08 -0.08)">
       <use xlink:href="#ArialMT-50"/>
       <use x="55.615234" xlink:href="#ArialMT-48"/>
       <use x="111.230469" xlink:href="#ArialMT-48"/>
      </g>
     </g>
    </g>
    <g id="xtick_4">
     <g id="line2d_7">
      <g>
       <use style="stroke:#000000;stroke-width:0.8;" x="93.588268" xlink:href="#m452f8e9fba" y="81.54"/>
      </g>
     </g>
     <g id="line2d_8">
      <g>
       <use style="stroke:#000000;stroke-width:0.8;" x="93.588268" xlink:href="#mfd58698cd3" y="0"/>
      </g>
     </g>
     <g id="text_4">
      <!-- 300 -->
      <defs>
       <path d="M 4.203125 18.890625 
L 12.984375 20.0625 
Q 14.5 12.59375 18.140625 9.296875 
Q 21.78125 6 27 6 
Q 33.203125 6 37.46875 10.296875 
Q 41.75 14.59375 41.75 20.953125 
Q 41.75 27 37.796875 30.921875 
Q 33.84375 34.859375 27.734375 34.859375 
Q 25.25 34.859375 21.53125 33.890625 
L 22.515625 41.609375 
Q 23.390625 41.5 23.921875 41.5 
Q 29.546875 41.5 34.03125 44.421875 
Q 38.53125 47.359375 38.53125 53.46875 
Q 38.53125 58.296875 35.25 61.46875 
Q 31.984375 64.65625 26.8125 64.65625 
Q 21.6875 64.65625 18.265625 61.421875 
Q 14.84375 58.203125 13.875 51.765625 
L 5.078125 53.328125 
Q 6.6875 62.15625 12.390625 67.015625 
Q 18.109375 71.875 26.609375 71.875 
Q 32.46875 71.875 37.390625 69.359375 
Q 42.328125 66.84375 44.9375 62.5 
Q 47.5625 58.15625 47.5625 53.265625 
Q 47.5625 48.640625 45.0625 44.828125 
Q 42.578125 41.015625 37.703125 38.765625 
Q 44.046875 37.3125 47.5625 32.6875 
Q 51.078125 28.078125 51.078125 21.140625 
Q 51.078125 11.765625 44.234375 5.25 
Q 37.40625 -1.265625 26.953125 -1.265625 
Q 17.53125 -1.265625 11.296875 4.34375 
Q 5.078125 9.96875 4.203125 18.890625 
z
" id="ArialMT-51"/>
      </defs>
      <g transform="translate(86.915143 88.26625)scale(0.08 -0.08)">
       <use xlink:href="#ArialMT-51"/>
       <use x="55.615234" xlink:href="#ArialMT-48"/>
       <use x="111.230469" xlink:href="#ArialMT-48"/>
      </g>
     </g>
    </g>
    <g id="xtick_5">
     <g id="line2d_9">
      <defs>
       <path d="M 0 0 
L 0 -2 
" id="m8ee270b111" style="stroke:#000000;stroke-width:0.6;"/>
      </defs>
      <g>
       <use style="stroke:#000000;stroke-width:0.6;" x="22.741519" xlink:href="#m8ee270b111" y="81.54"/>
      </g>
     </g>
     <g id="line2d_10">
      <defs>
       <path d="M 0 0 
L 0 2 
" id="m0152a9c619" style="stroke:#000000;stroke-width:0.6;"/>
      </defs>
      <g>
       <use style="stroke:#000000;stroke-width:0.6;" x="22.741519" xlink:href="#m0152a9c619" y="0"/>
      </g>
     </g>
    </g>
    <g id="xtick_6">
     <g id="line2d_11">
      <g>
       <use style="stroke:#000000;stroke-width:0.6;" x="27.802001" xlink:href="#m8ee270b111" y="81.54"/>
      </g>
     </g>
     <g id="line2d_12">
      <g>
       <use style="stroke:#000000;stroke-width:0.6;" x="27.802001" xlink:href="#m0152a9c619" y="0"/>
      </g>
     </g>
    </g>
    <g id="xtick_7">
     <g id="line2d_13">
      <g>
       <use style="stroke:#000000;stroke-width:0.6;" x="32.862483" xlink:href="#m8ee270b111" y="81.54"/>
      </g>
     </g>
     <g id="line2d_14">
      <g>
       <use style="stroke:#000000;stroke-width:0.6;" x="32.862483" xlink:href="#m0152a9c619" y="0"/>
      </g>
     </g>
    </g>
    <g id="xtick_8">
     <g id="line2d_15">
      <g>
       <use style="stroke:#000000;stroke-width:0.6;" x="37.922965" xlink:href="#m8ee270b111" y="81.54"/>
      </g>
     </g>
     <g id="line2d_16">
      <g>
       <use style="stroke:#000000;stroke-width:0.6;" x="37.922965" xlink:href="#m0152a9c619" y="0"/>
      </g>
     </g>
    </g>
    <g id="xtick_9">
     <g id="line2d_17">
      <g>
       <use style="stroke:#000000;stroke-width:0.6;" x="48.043929" xlink:href="#m8ee270b111" y="81.54"/>
      </g>
     </g>
     <g id="line2d_18">
      <g>
       <use style="stroke:#000000;stroke-width:0.6;" x="48.043929" xlink:href="#m0152a9c619" y="0"/>
      </g>
     </g>
    </g>
    <g id="xtick_10">
     <g id="line2d_19">
      <g>
       <use style="stroke:#000000;stroke-width:0.6;" x="53.104411" xlink:href="#m8ee270b111" y="81.54"/>
      </g>
     </g>
     <g id="line2d_20">
      <g>
       <use style="stroke:#000000;stroke-width:0.6;" x="53.104411" xlink:href="#m0152a9c619" y="0"/>
      </g>
     </g>
    </g>
    <g id="xtick_11">
     <g id="line2d_21">
      <g>
       <use style="stroke:#000000;stroke-width:0.6;" x="58.164894" xlink:href="#m8ee270b111" y="81.54"/>
      </g>
     </g>
     <g id="line2d_22">
      <g>
       <use style="stroke:#000000;stroke-width:0.6;" x="58.164894" xlink:href="#m0152a9c619" y="0"/>
      </g>
     </g>
    </g>
    <g id="xtick_12">
     <g id="line2d_23">
      <g>
       <use style="stroke:#000000;stroke-width:0.6;" x="63.225376" xlink:href="#m8ee270b111" y="81.54"/>
      </g>
     </g>
     <g id="line2d_24">
      <g>
       <use style="stroke:#000000;stroke-width:0.6;" x="63.225376" xlink:href="#m0152a9c619" y="0"/>
      </g>
     </g>
    </g>
    <g id="xtick_13">
     <g id="line2d_25">
      <g>
       <use style="stroke:#000000;stroke-width:0.6;" x="73.34634" xlink:href="#m8ee270b111" y="81.54"/>
      </g>
     </g>
     <g id="line2d_26">
      <g>
       <use style="stroke:#000000;stroke-width:0.6;" x="73.34634" xlink:href="#m0152a9c619" y="0"/>
      </g>
     </g>
    </g>
    <g id="xtick_14">
     <g id="line2d_27">
      <g>
       <use style="stroke:#000000;stroke-width:0.6;" x="78.406822" xlink:href="#m8ee270b111" y="81.54"/>
      </g>
     </g>
     <g id="line2d_28">
      <g>
       <use style="stroke:#000000;stroke-width:0.6;" x="78.406822" xlink:href="#m0152a9c619" y="0"/>
      </g>
     </g>
    </g>
    <g id="xtick_15">
     <g id="line2d_29">
      <g>
       <use style="stroke:#000000;stroke-width:0.6;" x="83.467304" xlink:href="#m8ee270b111" y="81.54"/>
      </g>
     </g>
     <g id="line2d_30">
      <g>
       <use style="stroke:#000000;stroke-width:0.6;" x="83.467304" xlink:href="#m0152a9c619" y="0"/>
      </g>
     </g>
    </g>
    <g id="xtick_16">
     <g id="line2d_31">
      <g>
       <use style="stroke:#000000;stroke-width:0.6;" x="88.527786" xlink:href="#m8ee270b111" y="81.54"/>
      </g>
     </g>
     <g id="line2d_32">
      <g>
       <use style="stroke:#000000;stroke-width:0.6;" x="88.527786" xlink:href="#m0152a9c619" y="0"/>
      </g>
     </g>
    </g>
    <g id="xtick_17">
     <g id="line2d_33">
      <g>
       <use style="stroke:#000000;stroke-width:0.6;" x="98.64875" xlink:href="#m8ee270b111" y="81.54"/>
      </g>
     </g>
     <g id="line2d_34">
      <g>
       <use style="stroke:#000000;stroke-width:0.6;" x="98.64875" xlink:href="#m0152a9c619" y="0"/>
      </g>
     </g>
    </g>
    <g id="text_5">
     <!-- $\it{T}$ (K) -->
     <defs>
      <path d="M 5.90625 72.90625 
L 67.578125 72.90625 
L 66.015625 64.59375 
L 39.984375 64.59375 
L 27.484375 0 
L 17.578125 0 
L 30.078125 64.59375 
L 4.296875 64.59375 
z
" id="DejaVuSans-Oblique-84"/>
      <path id="ArialMT-32"/>
      <path d="M 23.390625 -21.046875 
Q 16.109375 -11.859375 11.078125 0.4375 
Q 6.0625 12.75 6.0625 25.921875 
Q 6.0625 37.546875 9.8125 48.1875 
Q 14.203125 60.546875 23.390625 72.796875 
L 29.6875 72.796875 
Q 23.78125 62.640625 21.875 58.296875 
Q 18.890625 51.5625 17.1875 44.234375 
Q 15.09375 35.109375 15.09375 25.875 
Q 15.09375 2.390625 29.6875 -21.046875 
z
" id="ArialMT-40"/>
      <path d="M 7.328125 0 
L 7.328125 71.578125 
L 16.796875 71.578125 
L 16.796875 36.078125 
L 52.34375 71.578125 
L 65.1875 71.578125 
L 35.15625 42.578125 
L 66.5 0 
L 54 0 
L 28.515625 36.234375 
L 16.796875 24.8125 
L 16.796875 0 
z
" id="ArialMT-75"/>
      <path d="M 12.359375 -21.046875 
L 6.0625 -21.046875 
Q 20.65625 2.390625 20.65625 25.875 
Q 20.65625 35.0625 18.5625 44.09375 
Q 16.890625 51.421875 13.921875 58.15625 
Q 12.015625 62.546875 6.0625 72.796875 
L 12.359375 72.796875 
Q 21.53125 60.546875 25.921875 48.1875 
Q 29.6875 37.546875 29.6875 25.921875 
Q 29.6875 12.75 24.625 0.4375 
Q 19.578125 -11.859375 12.359375 -21.046875 
z
" id="ArialMT-41"/>
     </defs>
     <g transform="translate(45.64875 97.15625)scale(0.1 -0.1)">
      <use transform="translate(0 0.09375)" xlink:href="#DejaVuSans-Oblique-84"/>
      <use transform="translate(61.083984 0.09375)" xlink:href="#ArialMT-32"/>
      <use transform="translate(88.867188 0.09375)" xlink:href="#ArialMT-40"/>
      <use transform="translate(122.167969 0.09375)" xlink:href="#ArialMT-75"/>
      <use transform="translate(188.867188 0.09375)" xlink:href="#ArialMT-41"/>
     </g>
    </g>
   </g>
   <g id="matplotlib.axis_2">
    <g id="ytick_1">
     <g id="line2d_35">
      <defs>
       <path d="M 0 0 
L 3.5 0 
" id="maecd6af314" style="stroke:#000000;stroke-width:0.8;"/>
      </defs>
      <g>
       <use style="stroke:#000000;stroke-width:0.8;" x="14.94875" xlink:href="#maecd6af314" y="78.754071"/>
      </g>
     </g>
     <g id="line2d_36">
      <defs>
       <path d="M 0 0 
L -3.5 0 
" id="m0e4ee6090e" style="stroke:#000000;stroke-width:0.8;"/>
      </defs>
      <g>
       <use style="stroke:#000000;stroke-width:0.8;" x="98.64875" xlink:href="#m0e4ee6090e" y="78.754071"/>
      </g>
     </g>
     <g id="text_6">
      <!-- 0 -->
      <g transform="translate(9.5 81.617196)scale(0.08 -0.08)">
       <use xlink:href="#ArialMT-48"/>
      </g>
     </g>
    </g>
    <g id="ytick_2">
     <g id="line2d_37">
      <g>
       <use style="stroke:#000000;stroke-width:0.8;" x="14.94875" xlink:href="#maecd6af314" y="56.87794"/>
      </g>
     </g>
     <g id="line2d_38">
      <g>
       <use style="stroke:#000000;stroke-width:0.8;" x="98.64875" xlink:href="#m0e4ee6090e" y="56.87794"/>
      </g>
     </g>
     <g id="text_7">
      <!-- 1 -->
      <g transform="translate(9.5 59.741065)scale(0.08 -0.08)">
       <use xlink:href="#ArialMT-49"/>
      </g>
     </g>
    </g>
    <g id="ytick_3">
     <g id="line2d_39">
      <g>
       <use style="stroke:#000000;stroke-width:0.8;" x="14.94875" xlink:href="#maecd6af314" y="35.001809"/>
      </g>
     </g>
     <g id="line2d_40">
      <g>
       <use style="stroke:#000000;stroke-width:0.8;" x="98.64875" xlink:href="#m0e4ee6090e" y="35.001809"/>
      </g>
     </g>
     <g id="text_8">
      <!-- 2 -->
      <g transform="translate(9.5 37.864934)scale(0.08 -0.08)">
       <use xlink:href="#ArialMT-50"/>
      </g>
     </g>
    </g>
    <g id="ytick_4">
     <g id="line2d_41">
      <g>
       <use style="stroke:#000000;stroke-width:0.8;" x="14.94875" xlink:href="#maecd6af314" y="13.125679"/>
      </g>
     </g>
     <g id="line2d_42">
      <g>
       <use style="stroke:#000000;stroke-width:0.8;" x="98.64875" xlink:href="#m0e4ee6090e" y="13.125679"/>
      </g>
     </g>
     <g id="text_9">
      <!-- 3 -->
      <g transform="translate(9.5 15.988804)scale(0.08 -0.08)">
       <use xlink:href="#ArialMT-51"/>
      </g>
     </g>
    </g>
    <g id="ytick_5">
     <g id="line2d_43">
      <defs>
       <path d="M 0 0 
L 2 0 
" id="m136411c4d6" style="stroke:#000000;stroke-width:0.6;"/>
      </defs>
      <g>
       <use style="stroke:#000000;stroke-width:0.6;" x="14.94875" xlink:href="#m136411c4d6" y="74.378845"/>
      </g>
     </g>
     <g id="line2d_44">
      <defs>
       <path d="M 0 0 
L -2 0 
" id="mc5eef6ed74" style="stroke:#000000;stroke-width:0.6;"/>
      </defs>
      <g>
       <use style="stroke:#000000;stroke-width:0.6;" x="98.64875" xlink:href="#mc5eef6ed74" y="74.378845"/>
      </g>
     </g>
    </g>
    <g id="ytick_6">
     <g id="line2d_45">
      <g>
       <use style="stroke:#000000;stroke-width:0.6;" x="14.94875" xlink:href="#m136411c4d6" y="70.003619"/>
      </g>
     </g>
     <g id="line2d_46">
      <g>
       <use style="stroke:#000000;stroke-width:0.6;" x="98.64875" xlink:href="#mc5eef6ed74" y="70.003619"/>
      </g>
     </g>
    </g>
    <g id="ytick_7">
     <g id="line2d_47">
      <g>
       <use style="stroke:#000000;stroke-width:0.6;" x="14.94875" xlink:href="#m136411c4d6" y="65.628393"/>
      </g>
     </g>
     <g id="line2d_48">
      <g>
       <use style="stroke:#000000;stroke-width:0.6;" x="98.64875" xlink:href="#mc5eef6ed74" y="65.628393"/>
      </g>
     </g>
    </g>
    <g id="ytick_8">
     <g id="line2d_49">
      <g>
       <use style="stroke:#000000;stroke-width:0.6;" x="14.94875" xlink:href="#m136411c4d6" y="61.253167"/>
      </g>
     </g>
     <g id="line2d_50">
      <g>
       <use style="stroke:#000000;stroke-width:0.6;" x="98.64875" xlink:href="#mc5eef6ed74" y="61.253167"/>
      </g>
     </g>
    </g>
    <g id="ytick_9">
     <g id="line2d_51">
      <g>
       <use style="stroke:#000000;stroke-width:0.6;" x="14.94875" xlink:href="#m136411c4d6" y="52.502714"/>
      </g>
     </g>
     <g id="line2d_52">
      <g>
       <use style="stroke:#000000;stroke-width:0.6;" x="98.64875" xlink:href="#mc5eef6ed74" y="52.502714"/>
      </g>
     </g>
    </g>
    <g id="ytick_10">
     <g id="line2d_53">
      <g>
       <use style="stroke:#000000;stroke-width:0.6;" x="14.94875" xlink:href="#m136411c4d6" y="48.127488"/>
      </g>
     </g>
     <g id="line2d_54">
      <g>
       <use style="stroke:#000000;stroke-width:0.6;" x="98.64875" xlink:href="#mc5eef6ed74" y="48.127488"/>
      </g>
     </g>
    </g>
    <g id="ytick_11">
     <g id="line2d_55">
      <g>
       <use style="stroke:#000000;stroke-width:0.6;" x="14.94875" xlink:href="#m136411c4d6" y="43.752262"/>
      </g>
     </g>
     <g id="line2d_56">
      <g>
       <use style="stroke:#000000;stroke-width:0.6;" x="98.64875" xlink:href="#mc5eef6ed74" y="43.752262"/>
      </g>
     </g>
    </g>
    <g id="ytick_12">
     <g id="line2d_57">
      <g>
       <use style="stroke:#000000;stroke-width:0.6;" x="14.94875" xlink:href="#m136411c4d6" y="39.377036"/>
      </g>
     </g>
     <g id="line2d_58">
      <g>
       <use style="stroke:#000000;stroke-width:0.6;" x="98.64875" xlink:href="#mc5eef6ed74" y="39.377036"/>
      </g>
     </g>
    </g>
    <g id="ytick_13">
     <g id="line2d_59">
      <g>
       <use style="stroke:#000000;stroke-width:0.6;" x="14.94875" xlink:href="#m136411c4d6" y="30.626583"/>
      </g>
     </g>
     <g id="line2d_60">
      <g>
       <use style="stroke:#000000;stroke-width:0.6;" x="98.64875" xlink:href="#mc5eef6ed74" y="30.626583"/>
      </g>
     </g>
    </g>
    <g id="ytick_14">
     <g id="line2d_61">
      <g>
       <use style="stroke:#000000;stroke-width:0.6;" x="14.94875" xlink:href="#m136411c4d6" y="26.251357"/>
      </g>
     </g>
     <g id="line2d_62">
      <g>
       <use style="stroke:#000000;stroke-width:0.6;" x="98.64875" xlink:href="#mc5eef6ed74" y="26.251357"/>
      </g>
     </g>
    </g>
    <g id="ytick_15">
     <g id="line2d_63">
      <g>
       <use style="stroke:#000000;stroke-width:0.6;" x="14.94875" xlink:href="#m136411c4d6" y="21.876131"/>
      </g>
     </g>
     <g id="line2d_64">
      <g>
       <use style="stroke:#000000;stroke-width:0.6;" x="98.64875" xlink:href="#mc5eef6ed74" y="21.876131"/>
      </g>
     </g>
    </g>
    <g id="ytick_16">
     <g id="line2d_65">
      <g>
       <use style="stroke:#000000;stroke-width:0.6;" x="14.94875" xlink:href="#m136411c4d6" y="17.500905"/>
      </g>
     </g>
     <g id="line2d_66">
      <g>
       <use style="stroke:#000000;stroke-width:0.6;" x="98.64875" xlink:href="#mc5eef6ed74" y="17.500905"/>
      </g>
     </g>
    </g>
    <g id="ytick_17">
     <g id="line2d_67">
      <g>
       <use style="stroke:#000000;stroke-width:0.6;" x="14.94875" xlink:href="#m136411c4d6" y="8.750452"/>
      </g>
     </g>
     <g id="line2d_68">
      <g>
       <use style="stroke:#000000;stroke-width:0.6;" x="98.64875" xlink:href="#mc5eef6ed74" y="8.750452"/>
      </g>
     </g>
    </g>
    <g id="ytick_18">
     <g id="line2d_69">
      <g>
       <use style="stroke:#000000;stroke-width:0.6;" x="14.94875" xlink:href="#m136411c4d6" y="4.375226"/>
      </g>
     </g>
     <g id="line2d_70">
      <g>
       <use style="stroke:#000000;stroke-width:0.6;" x="98.64875" xlink:href="#mc5eef6ed74" y="4.375226"/>
      </g>
     </g>
    </g>
    <g id="text_10">
     <!-- $\it{I_{D}}$ (μA) -->
     <defs>
      <path d="M 16.890625 72.90625 
L 26.8125 72.90625 
L 12.59375 0 
L 2.6875 0 
z
" id="DejaVuSans-Oblique-73"/>
      <path d="M 16.890625 72.90625 
L 38.09375 72.90625 
Q 54.984375 72.90625 63.59375 65.75 
Q 72.21875 58.59375 72.21875 44.484375 
Q 72.21875 35.15625 68.9375 26.53125 
Q 65.671875 17.921875 59.90625 12.015625 
Q 54.109375 5.953125 45.171875 2.96875 
Q 36.234375 0 24.03125 0 
L 2.6875 0 
z
M 25.203125 64.796875 
L 14.203125 8.109375 
L 27.09375 8.109375 
Q 43.65625 8.109375 52.734375 17.625 
Q 61.8125 27.15625 61.8125 44.484375 
Q 61.8125 54.984375 55.953125 59.890625 
Q 50.09375 64.796875 37.59375 64.796875 
z
" id="DejaVuSans-Oblique-68"/>
      <path d="M 49.703125 51.859375 
L 49.703125 0 
L 41.84375 0 
L 41.84375 6.15625 
Q 39.3125 2.25 36.8125 0.78125 
Q 33.40625 -1.21875 28.859375 -1.21875 
Q 24.8125 -1.21875 21.6875 0.390625 
Q 19.34375 1.609375 16.5 5.21875 
L 16.5 -19.875 
L 7.8125 -19.875 
L 7.8125 51.859375 
L 16.5 51.859375 
L 16.5 29.890625 
Q 16.5 17.921875 17.765625 14.375 
Q 19.046875 10.84375 21.890625 8.78125 
Q 24.75 6.734375 28.46875 6.734375 
Q 32.375 6.734375 35.453125 8.875 
Q 38.53125 11.03125 39.796875 14.421875 
Q 41.0625 17.828125 41.0625 29.734375 
L 41.0625 51.859375 
z
" id="ArialMT-956"/>
      <path d="M -0.140625 0 
L 27.34375 71.578125 
L 37.546875 71.578125 
L 66.84375 0 
L 56.0625 0 
L 47.703125 21.6875 
L 17.78125 21.6875 
L 9.90625 0 
z
M 20.515625 29.390625 
L 44.78125 29.390625 
L 37.3125 49.21875 
Q 33.890625 58.25 32.234375 64.0625 
Q 30.859375 57.171875 28.375 50.390625 
z
" id="ArialMT-65"/>
     </defs>
     <g transform="translate(7.3 56.02)rotate(-90)scale(0.1 -0.1)">
      <use transform="translate(0 0.09375)" xlink:href="#DejaVuSans-Oblique-73"/>
      <use transform="translate(29.492188 -16.3125)scale(0.7)" xlink:href="#DejaVuSans-Oblique-68"/>
      <use transform="translate(86.12793 0.09375)" xlink:href="#ArialMT-32"/>
      <use transform="translate(113.911133 0.09375)" xlink:href="#ArialMT-40"/>
      <use transform="translate(147.211914 0.09375)" xlink:href="#ArialMT-956"/>
      <use transform="translate(204.829102 0.09375)" xlink:href="#ArialMT-65"/>
      <use transform="translate(271.52832 0.09375)" xlink:href="#ArialMT-41"/>
     </g>
    </g>
   </g>
   <g id="line2d_71">
    <path clip-path="url(#p7c958f19fc)" d="M 93.587711 78.585184 
L 85.99962 78.538634 
L 80.959531 78.499229 
L 68.299091 78.267128 
L 55.645153 77.879162 
L 42.988179 77.305048 
L 40.456723 77.377989 
L 37.937742 77.753182 
L 35.396191 77.809259 
L 32.864685 78.068593 
L 30.338011 78.266214 
L 27.803266 78.467451 
L 25.272418 78.572203 
L 22.741595 78.662091 
L 20.215984 78.729913 
L 18.693462 78.746569 
" style="fill:none;stroke:#e41a1c;stroke-linecap:square;stroke-width:1.5;"/>
    <defs>
     <path d="M 0 0.75 
C 0.198902 0.75 0.389685 0.670975 0.53033 0.53033 
C 0.670975 0.389685 0.75 0.198902 0.75 0 
C 0.75 -0.198902 0.670975 -0.389685 0.53033 -0.53033 
C 0.389685 -0.670975 0.198902 -0.75 0 -0.75 
C -0.198902 -0.75 -0.389685 -0.670975 -0.53033 -0.53033 
C -0.670975 -0.389685 -0.75 -0.198902 -0.75 0 
C -0.75 0.198902 -0.670975 0.389685 -0.53033 0.53033 
C -0.389685 0.670975 -0.198902 0.75 0 0.75 
z
" id="mabb325f006" style="stroke:#e41a1c;"/>
    </defs>
    <g clip-path="url(#p7c958f19fc)">
     <use style="fill:#e41a1c;stroke:#e41a1c;" x="93.587711" xlink:href="#mabb325f006" y="78.585184"/>
     <use style="fill:#e41a1c;stroke:#e41a1c;" x="85.99962" xlink:href="#mabb325f006" y="78.538634"/>
     <use style="fill:#e41a1c;stroke:#e41a1c;" x="80.959531" xlink:href="#mabb325f006" y="78.499229"/>
     <use style="fill:#e41a1c;stroke:#e41a1c;" x="68.299091" xlink:href="#mabb325f006" y="78.267128"/>
     <use style="fill:#e41a1c;stroke:#e41a1c;" x="55.645153" xlink:href="#mabb325f006" y="77.879162"/>
     <use style="fill:#e41a1c;stroke:#e41a1c;" x="42.988179" xlink:href="#mabb325f006" y="77.305048"/>
     <use style="fill:#e41a1c;stroke:#e41a1c;" x="40.456723" xlink:href="#mabb325f006" y="77.377989"/>
     <use style="fill:#e41a1c;stroke:#e41a1c;" x="37.937742" xlink:href="#mabb325f006" y="77.753182"/>
     <use style="fill:#e41a1c;stroke:#e41a1c;" x="35.396191" xlink:href="#mabb325f006" y="77.809259"/>
     <use style="fill:#e41a1c;stroke:#e41a1c;" x="32.864685" xlink:href="#mabb325f006" y="78.068593"/>
     <use style="fill:#e41a1c;stroke:#e41a1c;" x="30.338011" xlink:href="#mabb325f006" y="78.266214"/>
     <use style="fill:#e41a1c;stroke:#e41a1c;" x="27.803266" xlink:href="#mabb325f006" y="78.467451"/>
     <use style="fill:#e41a1c;stroke:#e41a1c;" x="25.272418" xlink:href="#mabb325f006" y="78.572203"/>
     <use style="fill:#e41a1c;stroke:#e41a1c;" x="22.741595" xlink:href="#mabb325f006" y="78.662091"/>
     <use style="fill:#e41a1c;stroke:#e41a1c;" x="20.215984" xlink:href="#mabb325f006" y="78.729913"/>
     <use style="fill:#e41a1c;stroke:#e41a1c;" x="18.693462" xlink:href="#mabb325f006" y="78.746569"/>
    </g>
   </g>
   <g id="line2d_72">
    <path clip-path="url(#p7c958f19fc)" d="M 93.587711 78.523119 
L 85.99962 78.427527 
L 80.959531 78.345349 
L 68.299091 77.950441 
L 55.645153 77.216887 
L 42.988179 75.923805 
L 40.456723 76.069867 
L 37.937742 76.061017 
L 35.396191 76.20876 
L 32.864685 76.52774 
L 30.338011 76.948271 
L 27.803266 77.251039 
L 25.272418 77.668392 
L 22.741595 78.040938 
L 20.215984 78.439956 
L 18.693462 78.665636 
" style="fill:none;stroke:#984ea3;stroke-linecap:square;stroke-width:1.5;"/>
    <defs>
     <path d="M 0 0.75 
C 0.198902 0.75 0.389685 0.670975 0.53033 0.53033 
C 0.670975 0.389685 0.75 0.198902 0.75 0 
C 0.75 -0.198902 0.670975 -0.389685 0.53033 -0.53033 
C 0.389685 -0.670975 0.198902 -0.75 0 -0.75 
C -0.198902 -0.75 -0.389685 -0.670975 -0.53033 -0.53033 
C -0.670975 -0.389685 -0.75 -0.198902 -0.75 0 
C -0.75 0.198902 -0.670975 0.389685 -0.53033 0.53033 
C -0.389685 0.670975 -0.198902 0.75 0 0.75 
z
" id="m1922bd1be9" style="stroke:#984ea3;"/>
    </defs>
    <g clip-path="url(#p7c958f19fc)">
     <use style="fill:#984ea3;stroke:#984ea3;" x="93.587711" xlink:href="#m1922bd1be9" y="78.523119"/>
     <use style="fill:#984ea3;stroke:#984ea3;" x="85.99962" xlink:href="#m1922bd1be9" y="78.427527"/>
     <use style="fill:#984ea3;stroke:#984ea3;" x="80.959531" xlink:href="#m1922bd1be9" y="78.345349"/>
     <use style="fill:#984ea3;stroke:#984ea3;" x="68.299091" xlink:href="#m1922bd1be9" y="77.950441"/>
     <use style="fill:#984ea3;stroke:#984ea3;" x="55.645153" xlink:href="#m1922bd1be9" y="77.216887"/>
     <use style="fill:#984ea3;stroke:#984ea3;" x="42.988179" xlink:href="#m1922bd1be9" y="75.923805"/>
     <use style="fill:#984ea3;stroke:#984ea3;" x="40.456723" xlink:href="#m1922bd1be9" y="76.069867"/>
     <use style="fill:#984ea3;stroke:#984ea3;" x="37.937742" xlink:href="#m1922bd1be9" y="76.061017"/>
     <use style="fill:#984ea3;stroke:#984ea3;" x="35.396191" xlink:href="#m1922bd1be9" y="76.20876"/>
     <use style="fill:#984ea3;stroke:#984ea3;" x="32.864685" xlink:href="#m1922bd1be9" y="76.52774"/>
     <use style="fill:#984ea3;stroke:#984ea3;" x="30.338011" xlink:href="#m1922bd1be9" y="76.948271"/>
     <use style="fill:#984ea3;stroke:#984ea3;" x="27.803266" xlink:href="#m1922bd1be9" y="77.251039"/>
     <use style="fill:#984ea3;stroke:#984ea3;" x="25.272418" xlink:href="#m1922bd1be9" y="77.668392"/>
     <use style="fill:#984ea3;stroke:#984ea3;" x="22.741595" xlink:href="#m1922bd1be9" y="78.040938"/>
     <use style="fill:#984ea3;stroke:#984ea3;" x="20.215984" xlink:href="#m1922bd1be9" y="78.439956"/>
     <use style="fill:#984ea3;stroke:#984ea3;" x="18.693462" xlink:href="#m1922bd1be9" y="78.665636"/>
    </g>
   </g>
   <g id="line2d_73">
    <path clip-path="url(#p7c958f19fc)" d="M 93.587711 78.470848 
L 85.99962 78.333291 
L 80.959531 78.175543 
L 68.299091 77.454073 
L 55.645153 75.686908 
L 42.988179 69.44519 
L 40.456723 68.795503 
L 37.937742 67.353954 
L 35.396191 66.374851 
L 32.864685 66.212541 
L 30.338011 67.126182 
L 27.803266 68.704431 
L 25.272418 70.758222 
L 22.741595 73.001546 
L 20.215984 75.487513 
L 18.693462 77.20971 
" style="fill:none;stroke:#4daf4a;stroke-linecap:square;stroke-width:1.5;"/>
    <defs>
     <path d="M 0 0.75 
C 0.198902 0.75 0.389685 0.670975 0.53033 0.53033 
C 0.670975 0.389685 0.75 0.198902 0.75 0 
C 0.75 -0.198902 0.670975 -0.389685 0.53033 -0.53033 
C 0.389685 -0.670975 0.198902 -0.75 0 -0.75 
C -0.198902 -0.75 -0.389685 -0.670975 -0.53033 -0.53033 
C -0.670975 -0.389685 -0.75 -0.198902 -0.75 0 
C -0.75 0.198902 -0.670975 0.389685 -0.53033 0.53033 
C -0.389685 0.670975 -0.198902 0.75 0 0.75 
z
" id="mc17be301fb" style="stroke:#4daf4a;"/>
    </defs>
    <g clip-path="url(#p7c958f19fc)">
     <use style="fill:#4daf4a;stroke:#4daf4a;" x="93.587711" xlink:href="#mc17be301fb" y="78.470848"/>
     <use style="fill:#4daf4a;stroke:#4daf4a;" x="85.99962" xlink:href="#mc17be301fb" y="78.333291"/>
     <use style="fill:#4daf4a;stroke:#4daf4a;" x="80.959531" xlink:href="#mc17be301fb" y="78.175543"/>
     <use style="fill:#4daf4a;stroke:#4daf4a;" x="68.299091" xlink:href="#mc17be301fb" y="77.454073"/>
     <use style="fill:#4daf4a;stroke:#4daf4a;" x="55.645153" xlink:href="#mc17be301fb" y="75.686908"/>
     <use style="fill:#4daf4a;stroke:#4daf4a;" x="42.988179" xlink:href="#mc17be301fb" y="69.44519"/>
     <use style="fill:#4daf4a;stroke:#4daf4a;" x="40.456723" xlink:href="#mc17be301fb" y="68.795503"/>
     <use style="fill:#4daf4a;stroke:#4daf4a;" x="37.937742" xlink:href="#mc17be301fb" y="67.353954"/>
     <use style="fill:#4daf4a;stroke:#4daf4a;" x="35.396191" xlink:href="#mc17be301fb" y="66.374851"/>
     <use style="fill:#4daf4a;stroke:#4daf4a;" x="32.864685" xlink:href="#mc17be301fb" y="66.212541"/>
     <use style="fill:#4daf4a;stroke:#4daf4a;" x="30.338011" xlink:href="#mc17be301fb" y="67.126182"/>
     <use style="fill:#4daf4a;stroke:#4daf4a;" x="27.803266" xlink:href="#mc17be301fb" y="68.704431"/>
     <use style="fill:#4daf4a;stroke:#4daf4a;" x="25.272418" xlink:href="#mc17be301fb" y="70.758222"/>
     <use style="fill:#4daf4a;stroke:#4daf4a;" x="22.741595" xlink:href="#mc17be301fb" y="73.001546"/>
     <use style="fill:#4daf4a;stroke:#4daf4a;" x="20.215984" xlink:href="#mc17be301fb" y="75.487513"/>
     <use style="fill:#4daf4a;stroke:#4daf4a;" x="18.693462" xlink:href="#mc17be301fb" y="77.20971"/>
    </g>
   </g>
   <g id="line2d_74">
    <path clip-path="url(#p7c958f19fc)" d="M 93.587711 78.429112 
L 85.99962 78.251178 
L 80.959531 78.022891 
L 68.299091 76.842358 
L 55.645153 72.885844 
L 42.988179 54.232274 
L 40.456723 46.075802 
L 37.937742 37.98021 
L 35.396191 30.575867 
L 32.864685 25.476332 
L 30.338011 22.877952 
L 27.803266 24.071529 
L 25.272418 27.699249 
L 22.741595 32.836004 
L 20.215984 38.922703 
L 18.693462 43.442493 
" style="fill:none;stroke:#377eb8;stroke-linecap:square;stroke-width:1.5;"/>
    <defs>
     <path d="M 0 0.75 
C 0.198902 0.75 0.389685 0.670975 0.53033 0.53033 
C 0.670975 0.389685 0.75 0.198902 0.75 0 
C 0.75 -0.198902 0.670975 -0.389685 0.53033 -0.53033 
C 0.389685 -0.670975 0.198902 -0.75 0 -0.75 
C -0.198902 -0.75 -0.389685 -0.670975 -0.53033 -0.53033 
C -0.670975 -0.389685 -0.75 -0.198902 -0.75 0 
C -0.75 0.198902 -0.670975 0.389685 -0.53033 0.53033 
C -0.389685 0.670975 -0.198902 0.75 0 0.75 
z
" id="mf27a848cf6" style="stroke:#377eb8;"/>
    </defs>
    <g clip-path="url(#p7c958f19fc)">
     <use style="fill:#377eb8;stroke:#377eb8;" x="93.587711" xlink:href="#mf27a848cf6" y="78.429112"/>
     <use style="fill:#377eb8;stroke:#377eb8;" x="85.99962" xlink:href="#mf27a848cf6" y="78.251178"/>
     <use style="fill:#377eb8;stroke:#377eb8;" x="80.959531" xlink:href="#mf27a848cf6" y="78.022891"/>
     <use style="fill:#377eb8;stroke:#377eb8;" x="68.299091" xlink:href="#mf27a848cf6" y="76.842358"/>
     <use style="fill:#377eb8;stroke:#377eb8;" x="55.645153" xlink:href="#mf27a848cf6" y="72.885844"/>
     <use style="fill:#377eb8;stroke:#377eb8;" x="42.988179" xlink:href="#mf27a848cf6" y="54.232274"/>
     <use style="fill:#377eb8;stroke:#377eb8;" x="40.456723" xlink:href="#mf27a848cf6" y="46.075802"/>
     <use style="fill:#377eb8;stroke:#377eb8;" x="37.937742" xlink:href="#mf27a848cf6" y="37.98021"/>
     <use style="fill:#377eb8;stroke:#377eb8;" x="35.396191" xlink:href="#mf27a848cf6" y="30.575867"/>
     <use style="fill:#377eb8;stroke:#377eb8;" x="32.864685" xlink:href="#mf27a848cf6" y="25.476332"/>
     <use style="fill:#377eb8;stroke:#377eb8;" x="30.338011" xlink:href="#mf27a848cf6" y="22.877952"/>
     <use style="fill:#377eb8;stroke:#377eb8;" x="27.803266" xlink:href="#mf27a848cf6" y="24.071529"/>
     <use style="fill:#377eb8;stroke:#377eb8;" x="25.272418" xlink:href="#mf27a848cf6" y="27.699249"/>
     <use style="fill:#377eb8;stroke:#377eb8;" x="22.741595" xlink:href="#mf27a848cf6" y="32.836004"/>
     <use style="fill:#377eb8;stroke:#377eb8;" x="20.215984" xlink:href="#mf27a848cf6" y="38.922703"/>
     <use style="fill:#377eb8;stroke:#377eb8;" x="18.693462" xlink:href="#mf27a848cf6" y="43.442493"/>
    </g>
   </g>
   <g id="patch_3">
    <path d="M 14.94875 81.54 
L 14.94875 0 
" style="fill:none;stroke:#000000;stroke-linecap:square;stroke-linejoin:miter;stroke-width:0.8;"/>
   </g>
   <g id="patch_4">
    <path d="M 98.64875 81.54 
L 98.64875 0 
" style="fill:none;stroke:#000000;stroke-linecap:square;stroke-linejoin:miter;stroke-width:0.8;"/>
   </g>
   <g id="patch_5">
    <path d="M 14.94875 81.54 
L 98.64875 81.54 
" style="fill:none;stroke:#000000;stroke-linecap:square;stroke-linejoin:miter;stroke-width:0.8;"/>
   </g>
   <g id="patch_6">
    <path d="M 14.94875 0 
L 98.64875 0 
" style="fill:none;stroke:#000000;stroke-linecap:square;stroke-linejoin:miter;stroke-width:0.8;"/>
   </g>
  </g>
 </g>
 <defs>
  <clipPath id="p7c958f19fc">
   <rect height="81.54" width="83.7" x="14.94875" y="0"/>
  </clipPath>
 </defs>
</svg>
