<?xml version="1.0" encoding="utf-8" standalone="no"?>
<!DOCTYPE svg PUBLIC "-//W3C//DTD SVG 1.1//EN"
  "http://www.w3.org/Graphics/SVG/1.1/DTD/svg11.dtd">
<!-- Created with matplotlib (https://matplotlib.org/) -->
<svg height="99.35625pt" version="1.1" viewBox="0 0 108.500568 99.35625" width="108.500568pt" xmlns="http://www.w3.org/2000/svg" xmlns:xlink="http://www.w3.org/1999/xlink">
 <defs>
  <style type="text/css">
*{stroke-linecap:butt;stroke-linejoin:round;white-space:pre;}
  </style>
 </defs>
 <g id="figure_1">
  <g id="patch_1">
   <path d="M 0 99.35625 
L 108.500568 99.35625 
L 108.500568 0 
L 0 0 
z
" style="fill:none;"/>
  </g>
  <g id="axes_1">
   <g id="patch_2">
    <path d="M 21.62 81.54 
L 105.32 81.54 
L 105.32 0 
L 21.62 0 
z
" style="fill:none;"/>
   </g>
   <g id="matplotlib.axis_1">
    <g id="xtick_1">
     <g id="line2d_1">
      <defs>
       <path d="M 0 0 
L 0 -3.5 
" id="m20115c1b50" style="stroke:#000000;stroke-width:0.8;"/>
      </defs>
      <g>
       <use style="stroke:#000000;stroke-width:0.8;" x="22.888182" xlink:href="#m20115c1b50" y="81.54"/>
      </g>
     </g>
     <g id="line2d_2">
      <defs>
       <path d="M 0 0 
L 0 3.5 
" id="m337e88537a" style="stroke:#000000;stroke-width:0.8;"/>
      </defs>
      <g>
       <use style="stroke:#000000;stroke-width:0.8;" x="22.888182" xlink:href="#m337e88537a" y="0"/>
      </g>
     </g>
     <g id="text_1">
      <!-- −80 -->
      <defs>
       <path d="M 52.828125 31.203125 
L 5.5625 31.203125 
L 5.5625 39.40625 
L 52.828125 39.40625 
z
" id="ArialMT-8722"/>
       <path d="M 17.671875 38.8125 
Q 12.203125 40.828125 9.5625 44.53125 
Q 6.9375 48.25 6.9375 53.421875 
Q 6.9375 61.234375 12.546875 66.546875 
Q 18.171875 71.875 27.484375 71.875 
Q 36.859375 71.875 42.578125 66.421875 
Q 48.296875 60.984375 48.296875 53.171875 
Q 48.296875 48.1875 45.671875 44.5 
Q 43.0625 40.828125 37.75 38.8125 
Q 44.34375 36.671875 47.78125 31.875 
Q 51.21875 27.09375 51.21875 20.453125 
Q 51.21875 11.28125 44.71875 5.03125 
Q 38.234375 -1.21875 27.640625 -1.21875 
Q 17.046875 -1.21875 10.546875 5.046875 
Q 4.046875 11.328125 4.046875 20.703125 
Q 4.046875 27.6875 7.59375 32.390625 
Q 11.140625 37.109375 17.671875 38.8125 
z
M 15.921875 53.71875 
Q 15.921875 48.640625 19.1875 45.40625 
Q 22.46875 42.1875 27.6875 42.1875 
Q 32.765625 42.1875 36.015625 45.375 
Q 39.265625 48.578125 39.265625 53.21875 
Q 39.265625 58.0625 35.90625 61.359375 
Q 32.5625 64.65625 27.59375 64.65625 
Q 22.5625 64.65625 19.234375 61.421875 
Q 15.921875 58.203125 15.921875 53.71875 
z
M 13.09375 20.65625 
Q 13.09375 16.890625 14.875 13.375 
Q 16.65625 9.859375 20.171875 7.921875 
Q 23.6875 6 27.734375 6 
Q 34.03125 6 38.125 10.046875 
Q 42.234375 14.109375 42.234375 20.359375 
Q 42.234375 26.703125 38.015625 30.859375 
Q 33.796875 35.015625 27.4375 35.015625 
Q 21.234375 35.015625 17.15625 30.90625 
Q 13.09375 26.8125 13.09375 20.65625 
z
" id="ArialMT-56"/>
       <path d="M 4.15625 35.296875 
Q 4.15625 48 6.765625 55.734375 
Q 9.375 63.484375 14.515625 67.671875 
Q 19.671875 71.875 27.484375 71.875 
Q 33.25 71.875 37.59375 69.546875 
Q 41.9375 67.234375 44.765625 62.859375 
Q 47.609375 58.5 49.21875 52.21875 
Q 50.828125 45.953125 50.828125 35.296875 
Q 50.828125 22.703125 48.234375 14.96875 
Q 45.65625 7.234375 40.5 3 
Q 35.359375 -1.21875 27.484375 -1.21875 
Q 17.140625 -1.21875 11.234375 6.203125 
Q 4.15625 15.140625 4.15625 35.296875 
z
M 13.1875 35.296875 
Q 13.1875 17.671875 17.3125 11.828125 
Q 21.4375 6 27.484375 6 
Q 33.546875 6 37.671875 11.859375 
Q 41.796875 17.71875 41.796875 35.296875 
Q 41.796875 52.984375 37.671875 58.78125 
Q 33.546875 64.59375 27.390625 64.59375 
Q 21.34375 64.59375 17.71875 59.46875 
Q 13.1875 52.9375 13.1875 35.296875 
z
" id="ArialMT-48"/>
      </defs>
      <g transform="translate(16.103182 88.26625)scale(0.08 -0.08)">
       <use xlink:href="#ArialMT-8722"/>
       <use x="58.398438" xlink:href="#ArialMT-56"/>
       <use x="114.013672" xlink:href="#ArialMT-48"/>
      </g>
     </g>
    </g>
    <g id="xtick_2">
     <g id="line2d_3">
      <g>
       <use style="stroke:#000000;stroke-width:0.8;" x="43.179091" xlink:href="#m20115c1b50" y="81.54"/>
      </g>
     </g>
     <g id="line2d_4">
      <g>
       <use style="stroke:#000000;stroke-width:0.8;" x="43.179091" xlink:href="#m337e88537a" y="0"/>
      </g>
     </g>
     <g id="text_2">
      <!-- −40 -->
      <defs>
       <path d="M 32.328125 0 
L 32.328125 17.140625 
L 1.265625 17.140625 
L 1.265625 25.203125 
L 33.9375 71.578125 
L 41.109375 71.578125 
L 41.109375 25.203125 
L 50.78125 25.203125 
L 50.78125 17.140625 
L 41.109375 17.140625 
L 41.109375 0 
z
M 32.328125 25.203125 
L 32.328125 57.46875 
L 9.90625 25.203125 
z
" id="ArialMT-52"/>
      </defs>
      <g transform="translate(36.394091 88.26625)scale(0.08 -0.08)">
       <use xlink:href="#ArialMT-8722"/>
       <use x="58.398438" xlink:href="#ArialMT-52"/>
       <use x="114.013672" xlink:href="#ArialMT-48"/>
      </g>
     </g>
    </g>
    <g id="xtick_3">
     <g id="line2d_5">
      <g>
       <use style="stroke:#000000;stroke-width:0.8;" x="63.47" xlink:href="#m20115c1b50" y="81.54"/>
      </g>
     </g>
     <g id="line2d_6">
      <g>
       <use style="stroke:#000000;stroke-width:0.8;" x="63.47" xlink:href="#m337e88537a" y="0"/>
      </g>
     </g>
     <g id="text_3">
      <!-- 0 -->
      <g transform="translate(61.245625 88.26625)scale(0.08 -0.08)">
       <use xlink:href="#ArialMT-48"/>
      </g>
     </g>
    </g>
    <g id="xtick_4">
     <g id="line2d_7">
      <g>
       <use style="stroke:#000000;stroke-width:0.8;" x="83.760909" xlink:href="#m20115c1b50" y="81.54"/>
      </g>
     </g>
     <g id="line2d_8">
      <g>
       <use style="stroke:#000000;stroke-width:0.8;" x="83.760909" xlink:href="#m337e88537a" y="0"/>
      </g>
     </g>
     <g id="text_4">
      <!-- 40 -->
      <g transform="translate(79.312159 88.26625)scale(0.08 -0.08)">
       <use xlink:href="#ArialMT-52"/>
       <use x="55.615234" xlink:href="#ArialMT-48"/>
      </g>
     </g>
    </g>
    <g id="xtick_5">
     <g id="line2d_9">
      <g>
       <use style="stroke:#000000;stroke-width:0.8;" x="104.051818" xlink:href="#m20115c1b50" y="81.54"/>
      </g>
     </g>
     <g id="line2d_10">
      <g>
       <use style="stroke:#000000;stroke-width:0.8;" x="104.051818" xlink:href="#m337e88537a" y="0"/>
      </g>
     </g>
     <g id="text_5">
      <!-- 80 -->
      <g transform="translate(99.603068 88.26625)scale(0.08 -0.08)">
       <use xlink:href="#ArialMT-56"/>
       <use x="55.615234" xlink:href="#ArialMT-48"/>
      </g>
     </g>
    </g>
    <g id="xtick_6">
     <g id="line2d_11">
      <defs>
       <path d="M 0 0 
L 0 -2 
" id="ma4c2b1819f" style="stroke:#000000;stroke-width:0.6;"/>
      </defs>
      <g>
       <use style="stroke:#000000;stroke-width:0.6;" x="27.960909" xlink:href="#ma4c2b1819f" y="81.54"/>
      </g>
     </g>
     <g id="line2d_12">
      <defs>
       <path d="M 0 0 
L 0 2 
" id="m421fe34c43" style="stroke:#000000;stroke-width:0.6;"/>
      </defs>
      <g>
       <use style="stroke:#000000;stroke-width:0.6;" x="27.960909" xlink:href="#m421fe34c43" y="0"/>
      </g>
     </g>
    </g>
    <g id="xtick_7">
     <g id="line2d_13">
      <g>
       <use style="stroke:#000000;stroke-width:0.6;" x="33.033636" xlink:href="#ma4c2b1819f" y="81.54"/>
      </g>
     </g>
     <g id="line2d_14">
      <g>
       <use style="stroke:#000000;stroke-width:0.6;" x="33.033636" xlink:href="#m421fe34c43" y="0"/>
      </g>
     </g>
    </g>
    <g id="xtick_8">
     <g id="line2d_15">
      <g>
       <use style="stroke:#000000;stroke-width:0.6;" x="38.106364" xlink:href="#ma4c2b1819f" y="81.54"/>
      </g>
     </g>
     <g id="line2d_16">
      <g>
       <use style="stroke:#000000;stroke-width:0.6;" x="38.106364" xlink:href="#m421fe34c43" y="0"/>
      </g>
     </g>
    </g>
    <g id="xtick_9">
     <g id="line2d_17">
      <g>
       <use style="stroke:#000000;stroke-width:0.6;" x="48.251818" xlink:href="#ma4c2b1819f" y="81.54"/>
      </g>
     </g>
     <g id="line2d_18">
      <g>
       <use style="stroke:#000000;stroke-width:0.6;" x="48.251818" xlink:href="#m421fe34c43" y="0"/>
      </g>
     </g>
    </g>
    <g id="xtick_10">
     <g id="line2d_19">
      <g>
       <use style="stroke:#000000;stroke-width:0.6;" x="53.324545" xlink:href="#ma4c2b1819f" y="81.54"/>
      </g>
     </g>
     <g id="line2d_20">
      <g>
       <use style="stroke:#000000;stroke-width:0.6;" x="53.324545" xlink:href="#m421fe34c43" y="0"/>
      </g>
     </g>
    </g>
    <g id="xtick_11">
     <g id="line2d_21">
      <g>
       <use style="stroke:#000000;stroke-width:0.6;" x="58.397273" xlink:href="#ma4c2b1819f" y="81.54"/>
      </g>
     </g>
     <g id="line2d_22">
      <g>
       <use style="stroke:#000000;stroke-width:0.6;" x="58.397273" xlink:href="#m421fe34c43" y="0"/>
      </g>
     </g>
    </g>
    <g id="xtick_12">
     <g id="line2d_23">
      <g>
       <use style="stroke:#000000;stroke-width:0.6;" x="68.542727" xlink:href="#ma4c2b1819f" y="81.54"/>
      </g>
     </g>
     <g id="line2d_24">
      <g>
       <use style="stroke:#000000;stroke-width:0.6;" x="68.542727" xlink:href="#m421fe34c43" y="0"/>
      </g>
     </g>
    </g>
    <g id="xtick_13">
     <g id="line2d_25">
      <g>
       <use style="stroke:#000000;stroke-width:0.6;" x="73.615455" xlink:href="#ma4c2b1819f" y="81.54"/>
      </g>
     </g>
     <g id="line2d_26">
      <g>
       <use style="stroke:#000000;stroke-width:0.6;" x="73.615455" xlink:href="#m421fe34c43" y="0"/>
      </g>
     </g>
    </g>
    <g id="xtick_14">
     <g id="line2d_27">
      <g>
       <use style="stroke:#000000;stroke-width:0.6;" x="78.688182" xlink:href="#ma4c2b1819f" y="81.54"/>
      </g>
     </g>
     <g id="line2d_28">
      <g>
       <use style="stroke:#000000;stroke-width:0.6;" x="78.688182" xlink:href="#m421fe34c43" y="0"/>
      </g>
     </g>
    </g>
    <g id="xtick_15">
     <g id="line2d_29">
      <g>
       <use style="stroke:#000000;stroke-width:0.6;" x="88.833636" xlink:href="#ma4c2b1819f" y="81.54"/>
      </g>
     </g>
     <g id="line2d_30">
      <g>
       <use style="stroke:#000000;stroke-width:0.6;" x="88.833636" xlink:href="#m421fe34c43" y="0"/>
      </g>
     </g>
    </g>
    <g id="xtick_16">
     <g id="line2d_31">
      <g>
       <use style="stroke:#000000;stroke-width:0.6;" x="93.906364" xlink:href="#ma4c2b1819f" y="81.54"/>
      </g>
     </g>
     <g id="line2d_32">
      <g>
       <use style="stroke:#000000;stroke-width:0.6;" x="93.906364" xlink:href="#m421fe34c43" y="0"/>
      </g>
     </g>
    </g>
    <g id="xtick_17">
     <g id="line2d_33">
      <g>
       <use style="stroke:#000000;stroke-width:0.6;" x="98.979091" xlink:href="#ma4c2b1819f" y="81.54"/>
      </g>
     </g>
     <g id="line2d_34">
      <g>
       <use style="stroke:#000000;stroke-width:0.6;" x="98.979091" xlink:href="#m421fe34c43" y="0"/>
      </g>
     </g>
    </g>
    <g id="text_6">
     <!-- $\it{V_{G}}$ (V) -->
     <defs>
      <path d="M 20.609375 0 
L 7.8125 72.90625 
L 17.484375 72.90625 
L 28.078125 10.203125 
L 63.484375 72.90625 
L 74.21875 72.90625 
L 32.078125 0 
z
" id="DejaVuSans-Oblique-86"/>
      <path d="M 54.59375 10.890625 
L 58.40625 29.984375 
L 42.1875 29.984375 
L 43.703125 38.09375 
L 69.578125 38.09375 
L 63.28125 6 
Q 56.78125 2.4375 49.109375 0.5 
Q 41.453125 -1.421875 33.6875 -1.421875 
Q 19.96875 -1.421875 12.234375 6.1875 
Q 4.5 13.8125 4.5 27.390625 
Q 4.5 38.671875 9.203125 48.84375 
Q 13.921875 59.03125 22.21875 65.828125 
Q 27.4375 70.0625 33.640625 72.140625 
Q 39.84375 74.21875 47.40625 74.21875 
Q 54.25 74.21875 60.515625 72.484375 
Q 66.796875 70.75 72.515625 67.28125 
L 70.515625 56.78125 
Q 66.109375 61.375 60.203125 63.796875 
Q 54.296875 66.21875 47.609375 66.21875 
Q 39.84375 66.21875 33.9375 63.25 
Q 28.03125 60.296875 23.390625 54.109375 
Q 19.4375 48.828125 17.15625 41.671875 
Q 14.890625 34.515625 14.890625 27.09375 
Q 14.890625 16.890625 20.109375 11.734375 
Q 25.34375 6.59375 35.6875 6.59375 
Q 40.875 6.59375 45.703125 7.6875 
Q 50.53125 8.796875 54.59375 10.890625 
z
" id="DejaVuSans-Oblique-71"/>
      <path id="ArialMT-32"/>
      <path d="M 23.390625 -21.046875 
Q 16.109375 -11.859375 11.078125 0.4375 
Q 6.0625 12.75 6.0625 25.921875 
Q 6.0625 37.546875 9.8125 48.1875 
Q 14.203125 60.546875 23.390625 72.796875 
L 29.6875 72.796875 
Q 23.78125 62.640625 21.875 58.296875 
Q 18.890625 51.5625 17.1875 44.234375 
Q 15.09375 35.109375 15.09375 25.875 
Q 15.09375 2.390625 29.6875 -21.046875 
z
" id="ArialMT-40"/>
      <path d="M 28.171875 0 
L 0.4375 71.578125 
L 10.6875 71.578125 
L 29.296875 19.578125 
Q 31.546875 13.328125 33.0625 7.859375 
Q 34.71875 13.71875 36.921875 19.578125 
L 56.25 71.578125 
L 65.921875 71.578125 
L 37.890625 0 
z
" id="ArialMT-86"/>
      <path d="M 12.359375 -21.046875 
L 6.0625 -21.046875 
Q 20.65625 2.390625 20.65625 25.875 
Q 20.65625 35.0625 18.5625 44.09375 
Q 16.890625 51.421875 13.921875 58.15625 
Q 12.015625 62.546875 6.0625 72.796875 
L 12.359375 72.796875 
Q 21.53125 60.546875 25.921875 48.1875 
Q 29.6875 37.546875 29.6875 25.921875 
Q 29.6875 12.75 24.625 0.4375 
Q 19.578125 -11.859375 12.359375 -21.046875 
z
" id="ArialMT-41"/>
     </defs>
     <g transform="translate(49.12 97.15625)scale(0.1 -0.1)">
      <use transform="translate(0 0.09375)" xlink:href="#DejaVuSans-Oblique-86"/>
      <use transform="translate(68.408203 -16.3125)scale(0.7)" xlink:href="#DejaVuSans-Oblique-71"/>
      <use transform="translate(125.385742 0.09375)" xlink:href="#ArialMT-32"/>
      <use transform="translate(153.168945 0.09375)" xlink:href="#ArialMT-40"/>
      <use transform="translate(186.469727 0.09375)" xlink:href="#ArialMT-86"/>
      <use transform="translate(253.168945 0.09375)" xlink:href="#ArialMT-41"/>
     </g>
    </g>
   </g>
   <g id="matplotlib.axis_2">
    <g id="ytick_1">
     <g id="line2d_35">
      <defs>
       <path d="M 0 0 
L 3.5 0 
" id="m41d40322c0" style="stroke:#000000;stroke-width:0.8;"/>
      </defs>
      <g>
       <use style="stroke:#000000;stroke-width:0.8;" x="21.62" xlink:href="#m41d40322c0" y="77.83237"/>
      </g>
     </g>
     <g id="line2d_36">
      <defs>
       <path d="M 0 0 
L -3.5 0 
" id="m516b97db56" style="stroke:#000000;stroke-width:0.8;"/>
      </defs>
      <g>
       <use style="stroke:#000000;stroke-width:0.8;" x="105.32" xlink:href="#m516b97db56" y="77.83237"/>
      </g>
     </g>
     <g id="text_7">
      <!-- 0.0 -->
      <defs>
       <path d="M 9.078125 0 
L 9.078125 10.015625 
L 19.09375 10.015625 
L 19.09375 0 
z
" id="ArialMT-46"/>
      </defs>
      <g transform="translate(9.5 80.695495)scale(0.08 -0.08)">
       <use xlink:href="#ArialMT-48"/>
       <use x="55.615234" xlink:href="#ArialMT-46"/>
       <use x="83.398438" xlink:href="#ArialMT-48"/>
      </g>
     </g>
    </g>
    <g id="ytick_2">
     <g id="line2d_37">
      <g>
       <use style="stroke:#000000;stroke-width:0.8;" x="21.62" xlink:href="#m41d40322c0" y="60.174939"/>
      </g>
     </g>
     <g id="line2d_38">
      <g>
       <use style="stroke:#000000;stroke-width:0.8;" x="105.32" xlink:href="#m516b97db56" y="60.174939"/>
      </g>
     </g>
     <g id="text_8">
      <!-- 0.5 -->
      <defs>
       <path d="M 4.15625 18.75 
L 13.375 19.53125 
Q 14.40625 12.796875 18.140625 9.390625 
Q 21.875 6 27.15625 6 
Q 33.5 6 37.890625 10.78125 
Q 42.28125 15.578125 42.28125 23.484375 
Q 42.28125 31 38.0625 35.34375 
Q 33.84375 39.703125 27 39.703125 
Q 22.75 39.703125 19.328125 37.765625 
Q 15.921875 35.84375 13.96875 32.765625 
L 5.71875 33.84375 
L 12.640625 70.609375 
L 48.25 70.609375 
L 48.25 62.203125 
L 19.671875 62.203125 
L 15.828125 42.96875 
Q 22.265625 47.46875 29.34375 47.46875 
Q 38.71875 47.46875 45.15625 40.96875 
Q 51.609375 34.46875 51.609375 24.265625 
Q 51.609375 14.546875 45.953125 7.46875 
Q 39.0625 -1.21875 27.15625 -1.21875 
Q 17.390625 -1.21875 11.203125 4.25 
Q 5.03125 9.71875 4.15625 18.75 
z
" id="ArialMT-53"/>
      </defs>
      <g transform="translate(9.5 63.038064)scale(0.08 -0.08)">
       <use xlink:href="#ArialMT-48"/>
       <use x="55.615234" xlink:href="#ArialMT-46"/>
       <use x="83.398438" xlink:href="#ArialMT-53"/>
      </g>
     </g>
    </g>
    <g id="ytick_3">
     <g id="line2d_39">
      <g>
       <use style="stroke:#000000;stroke-width:0.8;" x="21.62" xlink:href="#m41d40322c0" y="42.517508"/>
      </g>
     </g>
     <g id="line2d_40">
      <g>
       <use style="stroke:#000000;stroke-width:0.8;" x="105.32" xlink:href="#m516b97db56" y="42.517508"/>
      </g>
     </g>
     <g id="text_9">
      <!-- 1.0 -->
      <defs>
       <path d="M 37.25 0 
L 28.46875 0 
L 28.46875 56 
Q 25.296875 52.984375 20.140625 49.953125 
Q 14.984375 46.921875 10.890625 45.40625 
L 10.890625 53.90625 
Q 18.265625 57.375 23.78125 62.296875 
Q 29.296875 67.234375 31.59375 71.875 
L 37.25 71.875 
z
" id="ArialMT-49"/>
      </defs>
      <g transform="translate(9.5 45.380633)scale(0.08 -0.08)">
       <use xlink:href="#ArialMT-49"/>
       <use x="55.615234" xlink:href="#ArialMT-46"/>
       <use x="83.398438" xlink:href="#ArialMT-48"/>
      </g>
     </g>
    </g>
    <g id="ytick_4">
     <g id="line2d_41">
      <g>
       <use style="stroke:#000000;stroke-width:0.8;" x="21.62" xlink:href="#m41d40322c0" y="24.860077"/>
      </g>
     </g>
     <g id="line2d_42">
      <g>
       <use style="stroke:#000000;stroke-width:0.8;" x="105.32" xlink:href="#m516b97db56" y="24.860077"/>
      </g>
     </g>
     <g id="text_10">
      <!-- 1.5 -->
      <g transform="translate(9.5 27.723202)scale(0.08 -0.08)">
       <use xlink:href="#ArialMT-49"/>
       <use x="55.615234" xlink:href="#ArialMT-46"/>
       <use x="83.398438" xlink:href="#ArialMT-53"/>
      </g>
     </g>
    </g>
    <g id="ytick_5">
     <g id="line2d_43">
      <g>
       <use style="stroke:#000000;stroke-width:0.8;" x="21.62" xlink:href="#m41d40322c0" y="7.202646"/>
      </g>
     </g>
     <g id="line2d_44">
      <g>
       <use style="stroke:#000000;stroke-width:0.8;" x="105.32" xlink:href="#m516b97db56" y="7.202646"/>
      </g>
     </g>
     <g id="text_11">
      <!-- 2.0 -->
      <defs>
       <path d="M 50.34375 8.453125 
L 50.34375 0 
L 3.03125 0 
Q 2.9375 3.171875 4.046875 6.109375 
Q 5.859375 10.9375 9.828125 15.625 
Q 13.8125 20.3125 21.34375 26.46875 
Q 33.015625 36.03125 37.109375 41.625 
Q 41.21875 47.21875 41.21875 52.203125 
Q 41.21875 57.421875 37.46875 61 
Q 33.734375 64.59375 27.734375 64.59375 
Q 21.390625 64.59375 17.578125 60.78125 
Q 13.765625 56.984375 13.71875 50.25 
L 4.6875 51.171875 
Q 5.609375 61.28125 11.65625 66.578125 
Q 17.71875 71.875 27.9375 71.875 
Q 38.234375 71.875 44.234375 66.15625 
Q 50.25 60.453125 50.25 52 
Q 50.25 47.703125 48.484375 43.546875 
Q 46.734375 39.40625 42.65625 34.8125 
Q 38.578125 30.21875 29.109375 22.21875 
Q 21.1875 15.578125 18.9375 13.203125 
Q 16.703125 10.84375 15.234375 8.453125 
z
" id="ArialMT-50"/>
      </defs>
      <g transform="translate(9.5 10.065771)scale(0.08 -0.08)">
       <use xlink:href="#ArialMT-50"/>
       <use x="55.615234" xlink:href="#ArialMT-46"/>
       <use x="83.398438" xlink:href="#ArialMT-48"/>
      </g>
     </g>
    </g>
    <g id="ytick_6">
     <g id="line2d_45">
      <defs>
       <path d="M 0 0 
L 2 0 
" id="mfc5dd55c89" style="stroke:#000000;stroke-width:0.6;"/>
      </defs>
      <g>
       <use style="stroke:#000000;stroke-width:0.6;" x="21.62" xlink:href="#mfc5dd55c89" y="81.363856"/>
      </g>
     </g>
     <g id="line2d_46">
      <defs>
       <path d="M 0 0 
L -2 0 
" id="ma4a5e8a17b" style="stroke:#000000;stroke-width:0.6;"/>
      </defs>
      <g>
       <use style="stroke:#000000;stroke-width:0.6;" x="105.32" xlink:href="#ma4a5e8a17b" y="81.363856"/>
      </g>
     </g>
    </g>
    <g id="ytick_7">
     <g id="line2d_47">
      <g>
       <use style="stroke:#000000;stroke-width:0.6;" x="21.62" xlink:href="#mfc5dd55c89" y="74.300884"/>
      </g>
     </g>
     <g id="line2d_48">
      <g>
       <use style="stroke:#000000;stroke-width:0.6;" x="105.32" xlink:href="#ma4a5e8a17b" y="74.300884"/>
      </g>
     </g>
    </g>
    <g id="ytick_8">
     <g id="line2d_49">
      <g>
       <use style="stroke:#000000;stroke-width:0.6;" x="21.62" xlink:href="#mfc5dd55c89" y="70.769398"/>
      </g>
     </g>
     <g id="line2d_50">
      <g>
       <use style="stroke:#000000;stroke-width:0.6;" x="105.32" xlink:href="#ma4a5e8a17b" y="70.769398"/>
      </g>
     </g>
    </g>
    <g id="ytick_9">
     <g id="line2d_51">
      <g>
       <use style="stroke:#000000;stroke-width:0.6;" x="21.62" xlink:href="#mfc5dd55c89" y="67.237912"/>
      </g>
     </g>
     <g id="line2d_52">
      <g>
       <use style="stroke:#000000;stroke-width:0.6;" x="105.32" xlink:href="#ma4a5e8a17b" y="67.237912"/>
      </g>
     </g>
    </g>
    <g id="ytick_10">
     <g id="line2d_53">
      <g>
       <use style="stroke:#000000;stroke-width:0.6;" x="21.62" xlink:href="#mfc5dd55c89" y="63.706425"/>
      </g>
     </g>
     <g id="line2d_54">
      <g>
       <use style="stroke:#000000;stroke-width:0.6;" x="105.32" xlink:href="#ma4a5e8a17b" y="63.706425"/>
      </g>
     </g>
    </g>
    <g id="ytick_11">
     <g id="line2d_55">
      <g>
       <use style="stroke:#000000;stroke-width:0.6;" x="21.62" xlink:href="#mfc5dd55c89" y="56.643453"/>
      </g>
     </g>
     <g id="line2d_56">
      <g>
       <use style="stroke:#000000;stroke-width:0.6;" x="105.32" xlink:href="#ma4a5e8a17b" y="56.643453"/>
      </g>
     </g>
    </g>
    <g id="ytick_12">
     <g id="line2d_57">
      <g>
       <use style="stroke:#000000;stroke-width:0.6;" x="21.62" xlink:href="#mfc5dd55c89" y="53.111967"/>
      </g>
     </g>
     <g id="line2d_58">
      <g>
       <use style="stroke:#000000;stroke-width:0.6;" x="105.32" xlink:href="#ma4a5e8a17b" y="53.111967"/>
      </g>
     </g>
    </g>
    <g id="ytick_13">
     <g id="line2d_59">
      <g>
       <use style="stroke:#000000;stroke-width:0.6;" x="21.62" xlink:href="#mfc5dd55c89" y="49.58048"/>
      </g>
     </g>
     <g id="line2d_60">
      <g>
       <use style="stroke:#000000;stroke-width:0.6;" x="105.32" xlink:href="#ma4a5e8a17b" y="49.58048"/>
      </g>
     </g>
    </g>
    <g id="ytick_14">
     <g id="line2d_61">
      <g>
       <use style="stroke:#000000;stroke-width:0.6;" x="21.62" xlink:href="#mfc5dd55c89" y="46.048994"/>
      </g>
     </g>
     <g id="line2d_62">
      <g>
       <use style="stroke:#000000;stroke-width:0.6;" x="105.32" xlink:href="#ma4a5e8a17b" y="46.048994"/>
      </g>
     </g>
    </g>
    <g id="ytick_15">
     <g id="line2d_63">
      <g>
       <use style="stroke:#000000;stroke-width:0.6;" x="21.62" xlink:href="#mfc5dd55c89" y="38.986022"/>
      </g>
     </g>
     <g id="line2d_64">
      <g>
       <use style="stroke:#000000;stroke-width:0.6;" x="105.32" xlink:href="#ma4a5e8a17b" y="38.986022"/>
      </g>
     </g>
    </g>
    <g id="ytick_16">
     <g id="line2d_65">
      <g>
       <use style="stroke:#000000;stroke-width:0.6;" x="21.62" xlink:href="#mfc5dd55c89" y="35.454536"/>
      </g>
     </g>
     <g id="line2d_66">
      <g>
       <use style="stroke:#000000;stroke-width:0.6;" x="105.32" xlink:href="#ma4a5e8a17b" y="35.454536"/>
      </g>
     </g>
    </g>
    <g id="ytick_17">
     <g id="line2d_67">
      <g>
       <use style="stroke:#000000;stroke-width:0.6;" x="21.62" xlink:href="#mfc5dd55c89" y="31.923049"/>
      </g>
     </g>
     <g id="line2d_68">
      <g>
       <use style="stroke:#000000;stroke-width:0.6;" x="105.32" xlink:href="#ma4a5e8a17b" y="31.923049"/>
      </g>
     </g>
    </g>
    <g id="ytick_18">
     <g id="line2d_69">
      <g>
       <use style="stroke:#000000;stroke-width:0.6;" x="21.62" xlink:href="#mfc5dd55c89" y="28.391563"/>
      </g>
     </g>
     <g id="line2d_70">
      <g>
       <use style="stroke:#000000;stroke-width:0.6;" x="105.32" xlink:href="#ma4a5e8a17b" y="28.391563"/>
      </g>
     </g>
    </g>
    <g id="ytick_19">
     <g id="line2d_71">
      <g>
       <use style="stroke:#000000;stroke-width:0.6;" x="21.62" xlink:href="#mfc5dd55c89" y="21.328591"/>
      </g>
     </g>
     <g id="line2d_72">
      <g>
       <use style="stroke:#000000;stroke-width:0.6;" x="105.32" xlink:href="#ma4a5e8a17b" y="21.328591"/>
      </g>
     </g>
    </g>
    <g id="ytick_20">
     <g id="line2d_73">
      <g>
       <use style="stroke:#000000;stroke-width:0.6;" x="21.62" xlink:href="#mfc5dd55c89" y="17.797105"/>
      </g>
     </g>
     <g id="line2d_74">
      <g>
       <use style="stroke:#000000;stroke-width:0.6;" x="105.32" xlink:href="#ma4a5e8a17b" y="17.797105"/>
      </g>
     </g>
    </g>
    <g id="ytick_21">
     <g id="line2d_75">
      <g>
       <use style="stroke:#000000;stroke-width:0.6;" x="21.62" xlink:href="#mfc5dd55c89" y="14.265618"/>
      </g>
     </g>
     <g id="line2d_76">
      <g>
       <use style="stroke:#000000;stroke-width:0.6;" x="105.32" xlink:href="#ma4a5e8a17b" y="14.265618"/>
      </g>
     </g>
    </g>
    <g id="ytick_22">
     <g id="line2d_77">
      <g>
       <use style="stroke:#000000;stroke-width:0.6;" x="21.62" xlink:href="#mfc5dd55c89" y="10.734132"/>
      </g>
     </g>
     <g id="line2d_78">
      <g>
       <use style="stroke:#000000;stroke-width:0.6;" x="105.32" xlink:href="#ma4a5e8a17b" y="10.734132"/>
      </g>
     </g>
    </g>
    <g id="ytick_23">
     <g id="line2d_79">
      <g>
       <use style="stroke:#000000;stroke-width:0.6;" x="21.62" xlink:href="#mfc5dd55c89" y="3.67116"/>
      </g>
     </g>
     <g id="line2d_80">
      <g>
       <use style="stroke:#000000;stroke-width:0.6;" x="105.32" xlink:href="#ma4a5e8a17b" y="3.67116"/>
      </g>
     </g>
    </g>
    <g id="ytick_24">
     <g id="line2d_81">
      <g>
       <use style="stroke:#000000;stroke-width:0.6;" x="21.62" xlink:href="#mfc5dd55c89" y="0.139673"/>
      </g>
     </g>
     <g id="line2d_82">
      <g>
       <use style="stroke:#000000;stroke-width:0.6;" x="105.32" xlink:href="#ma4a5e8a17b" y="0.139673"/>
      </g>
     </g>
    </g>
    <g id="text_12">
     <!-- $\it{I_{SD}}$ (μA) -->
     <defs>
      <path d="M 16.890625 72.90625 
L 26.8125 72.90625 
L 12.59375 0 
L 2.6875 0 
z
" id="DejaVuSans-Oblique-73"/>
      <path d="M 60.296875 70.515625 
L 58.40625 60.890625 
Q 53.46875 63.53125 48.609375 64.875 
Q 43.75 66.21875 39.203125 66.21875 
Q 30.375 66.21875 25.140625 62.359375 
Q 19.921875 58.5 19.921875 52.09375 
Q 19.921875 48.578125 21.84375 46.703125 
Q 23.78125 44.828125 31.78125 42.671875 
L 37.703125 41.21875 
Q 47.703125 38.625 51.609375 34.640625 
Q 55.515625 30.671875 55.515625 23.484375 
Q 55.515625 12.453125 46.84375 5.515625 
Q 38.1875 -1.421875 24.03125 -1.421875 
Q 18.21875 -1.421875 12.359375 -0.265625 
Q 6.5 0.875 0.59375 3.21875 
L 2.59375 13.375 
Q 8.015625 10.015625 13.453125 8.296875 
Q 18.890625 6.59375 24.3125 6.59375 
Q 33.546875 6.59375 39.109375 10.6875 
Q 44.671875 14.796875 44.671875 21.390625 
Q 44.671875 25.78125 42.453125 28.046875 
Q 40.234375 30.328125 32.90625 32.171875 
L 27 33.6875 
Q 16.890625 36.328125 13.203125 39.765625 
Q 9.515625 43.21875 9.515625 49.421875 
Q 9.515625 60.296875 17.890625 67.25 
Q 26.265625 74.21875 39.703125 74.21875 
Q 44.921875 74.21875 50.046875 73.28125 
Q 55.171875 72.359375 60.296875 70.515625 
z
" id="DejaVuSans-Oblique-83"/>
      <path d="M 16.890625 72.90625 
L 38.09375 72.90625 
Q 54.984375 72.90625 63.59375 65.75 
Q 72.21875 58.59375 72.21875 44.484375 
Q 72.21875 35.15625 68.9375 26.53125 
Q 65.671875 17.921875 59.90625 12.015625 
Q 54.109375 5.953125 45.171875 2.96875 
Q 36.234375 0 24.03125 0 
L 2.6875 0 
z
M 25.203125 64.796875 
L 14.203125 8.109375 
L 27.09375 8.109375 
Q 43.65625 8.109375 52.734375 17.625 
Q 61.8125 27.15625 61.8125 44.484375 
Q 61.8125 54.984375 55.953125 59.890625 
Q 50.09375 64.796875 37.59375 64.796875 
z
" id="DejaVuSans-Oblique-68"/>
      <path d="M 49.703125 51.859375 
L 49.703125 0 
L 41.84375 0 
L 41.84375 6.15625 
Q 39.3125 2.25 36.8125 0.78125 
Q 33.40625 -1.21875 28.859375 -1.21875 
Q 24.8125 -1.21875 21.6875 0.390625 
Q 19.34375 1.609375 16.5 5.21875 
L 16.5 -19.875 
L 7.8125 -19.875 
L 7.8125 51.859375 
L 16.5 51.859375 
L 16.5 29.890625 
Q 16.5 17.921875 17.765625 14.375 
Q 19.046875 10.84375 21.890625 8.78125 
Q 24.75 6.734375 28.46875 6.734375 
Q 32.375 6.734375 35.453125 8.875 
Q 38.53125 11.03125 39.796875 14.421875 
Q 41.0625 17.828125 41.0625 29.734375 
L 41.0625 51.859375 
z
" id="ArialMT-956"/>
      <path d="M -0.140625 0 
L 27.34375 71.578125 
L 37.546875 71.578125 
L 66.84375 0 
L 56.0625 0 
L 47.703125 21.6875 
L 17.78125 21.6875 
L 9.90625 0 
z
M 20.515625 29.390625 
L 44.78125 29.390625 
L 37.3125 49.21875 
Q 33.890625 58.25 32.234375 64.0625 
Q 30.859375 57.171875 28.375 50.390625 
z
" id="ArialMT-65"/>
     </defs>
     <g transform="translate(7.3 58.27)rotate(-90)scale(0.1 -0.1)">
      <use transform="translate(0 0.09375)" xlink:href="#DejaVuSans-Oblique-73"/>
      <use transform="translate(29.492188 -16.3125)scale(0.7)" xlink:href="#DejaVuSans-Oblique-83"/>
      <use transform="translate(73.925781 -16.3125)scale(0.7)" xlink:href="#DejaVuSans-Oblique-68"/>
      <use transform="translate(130.561523 0.09375)" xlink:href="#ArialMT-32"/>
      <use transform="translate(158.344727 0.09375)" xlink:href="#ArialMT-40"/>
      <use transform="translate(191.645508 0.09375)" xlink:href="#ArialMT-956"/>
      <use transform="translate(249.262695 0.09375)" xlink:href="#ArialMT-65"/>
      <use transform="translate(315.961914 0.09375)" xlink:href="#ArialMT-41"/>
     </g>
    </g>
   </g>
   <g id="line2d_83">
    <path clip-path="url(#pf298bb94ea)" d="M 25.424545 77.832673 
L 27.960909 77.832386 
L 30.497273 77.83229 
L 33.033636 77.832342 
L 35.57 77.832343 
L 38.106364 77.8324 
L 40.642727 77.832498 
L 43.179091 77.832181 
L 45.715455 77.832442 
L 48.251818 77.832595 
L 50.788182 77.833636 
L 53.324545 77.832026 
L 55.860909 77.830827 
L 58.397273 77.817967 
L 60.933636 77.774051 
L 63.47 77.683885 
L 66.006364 77.60263 
L 68.542727 77.257165 
L 71.079091 77.018963 
L 73.615455 76.878506 
L 76.151818 76.681152 
L 78.688182 76.428489 
L 81.224545 76.000916 
L 83.760909 74.970005 
L 86.297273 72.730682 
L 88.833636 68.54601 
L 91.37 61.525542 
L 93.906364 50.967724 
L 96.442727 37.39435 
L 98.979091 21.218752 
L 101.515455 3.706364 
L 101.515455 7.902668 
L 98.979091 32.43433 
L 96.442727 51.602385 
L 93.906364 64.997652 
L 91.37 72.433904 
L 88.833636 75.80023 
L 86.297273 77.493942 
L 83.760909 77.744895 
L 81.224545 77.803937 
L 78.688182 77.832189 
L 76.151818 77.832073 
L 73.615455 77.832403 
L 71.079091 77.832382 
L 68.542727 77.832249 
L 66.006364 77.832204 
L 63.47 77.832221 
L 60.933636 77.832225 
L 58.397273 77.832227 
L 55.860909 77.832232 
L 53.324545 77.832233 
L 50.788182 77.832231 
L 48.251818 77.832228 
L 45.715455 77.832227 
L 43.179091 77.832231 
L 40.642727 77.832228 
L 38.106364 77.832223 
L 35.57 77.832215 
L 33.033636 77.832209 
L 30.497273 77.832248 
L 27.960909 77.832247 
L 25.424545 77.832246 
" style="fill:none;stroke:#377eb8;stroke-linecap:square;stroke-width:1.5;"/>
    <defs>
     <path d="M 0 0.75 
C 0.198902 0.75 0.389685 0.670975 0.53033 0.53033 
C 0.670975 0.389685 0.75 0.198902 0.75 0 
C 0.75 -0.198902 0.670975 -0.389685 0.53033 -0.53033 
C 0.389685 -0.670975 0.198902 -0.75 0 -0.75 
C -0.198902 -0.75 -0.389685 -0.670975 -0.53033 -0.53033 
C -0.670975 -0.389685 -0.75 -0.198902 -0.75 0 
C -0.75 0.198902 -0.670975 0.389685 -0.53033 0.53033 
C -0.389685 0.670975 -0.198902 0.75 0 0.75 
z
" id="m639a27aece" style="stroke:#377eb8;"/>
    </defs>
    <g clip-path="url(#pf298bb94ea)">
     <use style="fill:#377eb8;stroke:#377eb8;" x="25.424545" xlink:href="#m639a27aece" y="77.832673"/>
     <use style="fill:#377eb8;stroke:#377eb8;" x="27.960909" xlink:href="#m639a27aece" y="77.832386"/>
     <use style="fill:#377eb8;stroke:#377eb8;" x="30.497273" xlink:href="#m639a27aece" y="77.83229"/>
     <use style="fill:#377eb8;stroke:#377eb8;" x="33.033636" xlink:href="#m639a27aece" y="77.832342"/>
     <use style="fill:#377eb8;stroke:#377eb8;" x="35.57" xlink:href="#m639a27aece" y="77.832343"/>
     <use style="fill:#377eb8;stroke:#377eb8;" x="38.106364" xlink:href="#m639a27aece" y="77.8324"/>
     <use style="fill:#377eb8;stroke:#377eb8;" x="40.642727" xlink:href="#m639a27aece" y="77.832498"/>
     <use style="fill:#377eb8;stroke:#377eb8;" x="43.179091" xlink:href="#m639a27aece" y="77.832181"/>
     <use style="fill:#377eb8;stroke:#377eb8;" x="45.715455" xlink:href="#m639a27aece" y="77.832442"/>
     <use style="fill:#377eb8;stroke:#377eb8;" x="48.251818" xlink:href="#m639a27aece" y="77.832595"/>
     <use style="fill:#377eb8;stroke:#377eb8;" x="50.788182" xlink:href="#m639a27aece" y="77.833636"/>
     <use style="fill:#377eb8;stroke:#377eb8;" x="53.324545" xlink:href="#m639a27aece" y="77.832026"/>
     <use style="fill:#377eb8;stroke:#377eb8;" x="55.860909" xlink:href="#m639a27aece" y="77.830827"/>
     <use style="fill:#377eb8;stroke:#377eb8;" x="58.397273" xlink:href="#m639a27aece" y="77.817967"/>
     <use style="fill:#377eb8;stroke:#377eb8;" x="60.933636" xlink:href="#m639a27aece" y="77.774051"/>
     <use style="fill:#377eb8;stroke:#377eb8;" x="63.47" xlink:href="#m639a27aece" y="77.683885"/>
     <use style="fill:#377eb8;stroke:#377eb8;" x="66.006364" xlink:href="#m639a27aece" y="77.60263"/>
     <use style="fill:#377eb8;stroke:#377eb8;" x="68.542727" xlink:href="#m639a27aece" y="77.257165"/>
     <use style="fill:#377eb8;stroke:#377eb8;" x="71.079091" xlink:href="#m639a27aece" y="77.018963"/>
     <use style="fill:#377eb8;stroke:#377eb8;" x="73.615455" xlink:href="#m639a27aece" y="76.878506"/>
     <use style="fill:#377eb8;stroke:#377eb8;" x="76.151818" xlink:href="#m639a27aece" y="76.681152"/>
     <use style="fill:#377eb8;stroke:#377eb8;" x="78.688182" xlink:href="#m639a27aece" y="76.428489"/>
     <use style="fill:#377eb8;stroke:#377eb8;" x="81.224545" xlink:href="#m639a27aece" y="76.000916"/>
     <use style="fill:#377eb8;stroke:#377eb8;" x="83.760909" xlink:href="#m639a27aece" y="74.970005"/>
     <use style="fill:#377eb8;stroke:#377eb8;" x="86.297273" xlink:href="#m639a27aece" y="72.730682"/>
     <use style="fill:#377eb8;stroke:#377eb8;" x="88.833636" xlink:href="#m639a27aece" y="68.54601"/>
     <use style="fill:#377eb8;stroke:#377eb8;" x="91.37" xlink:href="#m639a27aece" y="61.525542"/>
     <use style="fill:#377eb8;stroke:#377eb8;" x="93.906364" xlink:href="#m639a27aece" y="50.967724"/>
     <use style="fill:#377eb8;stroke:#377eb8;" x="96.442727" xlink:href="#m639a27aece" y="37.39435"/>
     <use style="fill:#377eb8;stroke:#377eb8;" x="98.979091" xlink:href="#m639a27aece" y="21.218752"/>
     <use style="fill:#377eb8;stroke:#377eb8;" x="101.515455" xlink:href="#m639a27aece" y="3.706364"/>
     <use style="fill:#377eb8;stroke:#377eb8;" x="101.515455" xlink:href="#m639a27aece" y="7.902668"/>
     <use style="fill:#377eb8;stroke:#377eb8;" x="98.979091" xlink:href="#m639a27aece" y="32.43433"/>
     <use style="fill:#377eb8;stroke:#377eb8;" x="96.442727" xlink:href="#m639a27aece" y="51.602385"/>
     <use style="fill:#377eb8;stroke:#377eb8;" x="93.906364" xlink:href="#m639a27aece" y="64.997652"/>
     <use style="fill:#377eb8;stroke:#377eb8;" x="91.37" xlink:href="#m639a27aece" y="72.433904"/>
     <use style="fill:#377eb8;stroke:#377eb8;" x="88.833636" xlink:href="#m639a27aece" y="75.80023"/>
     <use style="fill:#377eb8;stroke:#377eb8;" x="86.297273" xlink:href="#m639a27aece" y="77.493942"/>
     <use style="fill:#377eb8;stroke:#377eb8;" x="83.760909" xlink:href="#m639a27aece" y="77.744895"/>
     <use style="fill:#377eb8;stroke:#377eb8;" x="81.224545" xlink:href="#m639a27aece" y="77.803937"/>
     <use style="fill:#377eb8;stroke:#377eb8;" x="78.688182" xlink:href="#m639a27aece" y="77.832189"/>
     <use style="fill:#377eb8;stroke:#377eb8;" x="76.151818" xlink:href="#m639a27aece" y="77.832073"/>
     <use style="fill:#377eb8;stroke:#377eb8;" x="73.615455" xlink:href="#m639a27aece" y="77.832403"/>
     <use style="fill:#377eb8;stroke:#377eb8;" x="71.079091" xlink:href="#m639a27aece" y="77.832382"/>
     <use style="fill:#377eb8;stroke:#377eb8;" x="68.542727" xlink:href="#m639a27aece" y="77.832249"/>
     <use style="fill:#377eb8;stroke:#377eb8;" x="66.006364" xlink:href="#m639a27aece" y="77.832204"/>
     <use style="fill:#377eb8;stroke:#377eb8;" x="63.47" xlink:href="#m639a27aece" y="77.832221"/>
     <use style="fill:#377eb8;stroke:#377eb8;" x="60.933636" xlink:href="#m639a27aece" y="77.832225"/>
     <use style="fill:#377eb8;stroke:#377eb8;" x="58.397273" xlink:href="#m639a27aece" y="77.832227"/>
     <use style="fill:#377eb8;stroke:#377eb8;" x="55.860909" xlink:href="#m639a27aece" y="77.832232"/>
     <use style="fill:#377eb8;stroke:#377eb8;" x="53.324545" xlink:href="#m639a27aece" y="77.832233"/>
     <use style="fill:#377eb8;stroke:#377eb8;" x="50.788182" xlink:href="#m639a27aece" y="77.832231"/>
     <use style="fill:#377eb8;stroke:#377eb8;" x="48.251818" xlink:href="#m639a27aece" y="77.832228"/>
     <use style="fill:#377eb8;stroke:#377eb8;" x="45.715455" xlink:href="#m639a27aece" y="77.832227"/>
     <use style="fill:#377eb8;stroke:#377eb8;" x="43.179091" xlink:href="#m639a27aece" y="77.832231"/>
     <use style="fill:#377eb8;stroke:#377eb8;" x="40.642727" xlink:href="#m639a27aece" y="77.832228"/>
     <use style="fill:#377eb8;stroke:#377eb8;" x="38.106364" xlink:href="#m639a27aece" y="77.832223"/>
     <use style="fill:#377eb8;stroke:#377eb8;" x="35.57" xlink:href="#m639a27aece" y="77.832215"/>
     <use style="fill:#377eb8;stroke:#377eb8;" x="33.033636" xlink:href="#m639a27aece" y="77.832209"/>
     <use style="fill:#377eb8;stroke:#377eb8;" x="30.497273" xlink:href="#m639a27aece" y="77.832248"/>
     <use style="fill:#377eb8;stroke:#377eb8;" x="27.960909" xlink:href="#m639a27aece" y="77.832247"/>
     <use style="fill:#377eb8;stroke:#377eb8;" x="25.424545" xlink:href="#m639a27aece" y="77.832246"/>
    </g>
   </g>
   <g id="patch_3">
    <path d="M 21.62 81.54 
L 21.62 0 
" style="fill:none;stroke:#000000;stroke-linecap:square;stroke-linejoin:miter;stroke-width:0.8;"/>
   </g>
   <g id="patch_4">
    <path d="M 105.32 81.54 
L 105.32 0 
" style="fill:none;stroke:#000000;stroke-linecap:square;stroke-linejoin:miter;stroke-width:0.8;"/>
   </g>
   <g id="patch_5">
    <path d="M 21.62 81.54 
L 105.32 81.54 
" style="fill:none;stroke:#000000;stroke-linecap:square;stroke-linejoin:miter;stroke-width:0.8;"/>
   </g>
   <g id="patch_6">
    <path d="M 21.62 0 
L 105.32 0 
" style="fill:none;stroke:#000000;stroke-linecap:square;stroke-linejoin:miter;stroke-width:0.8;"/>
   </g>
  </g>
 </g>
 <defs>
  <clipPath id="pf298bb94ea">
   <rect height="81.54" width="83.7" x="21.62" y="0"/>
  </clipPath>
 </defs>
</svg>
