<?xml version="1.0" encoding="utf-8" standalone="no"?>
<!DOCTYPE svg PUBLIC "-//W3C//DTD SVG 1.1//EN"
  "http://www.w3.org/Graphics/SVG/1.1/DTD/svg11.dtd">
<!-- Created with matplotlib (https://matplotlib.org/) -->
<svg height="99.35625pt" version="1.1" viewBox="0 0 106.278068 99.35625" width="106.278068pt" xmlns="http://www.w3.org/2000/svg" xmlns:xlink="http://www.w3.org/1999/xlink">
 <defs>
  <style type="text/css">
*{stroke-linecap:butt;stroke-linejoin:round;white-space:pre;}
  </style>
 </defs>
 <g id="figure_1">
  <g id="patch_1">
   <path d="M 0 99.35625 
L 106.278068 99.35625 
L 106.278068 0 
L 0 0 
z
" style="fill:none;"/>
  </g>
  <g id="axes_1">
   <g id="patch_2">
    <path d="M 19.3975 81.54 
L 103.0975 81.54 
L 103.0975 0 
L 19.3975 0 
z
" style="fill:none;"/>
   </g>
   <g id="matplotlib.axis_1">
    <g id="xtick_1">
     <g id="line2d_1">
      <defs>
       <path d="M 0 0 
L 0 -3.5 
" id="ma3f948ceb1" style="stroke:#000000;stroke-width:0.8;"/>
      </defs>
      <g>
       <use style="stroke:#000000;stroke-width:0.8;" x="20.665682" xlink:href="#ma3f948ceb1" y="81.54"/>
      </g>
     </g>
     <g id="line2d_2">
      <defs>
       <path d="M 0 0 
L 0 3.5 
" id="m1f5b99109f" style="stroke:#000000;stroke-width:0.8;"/>
      </defs>
      <g>
       <use style="stroke:#000000;stroke-width:0.8;" x="20.665682" xlink:href="#m1f5b99109f" y="0"/>
      </g>
     </g>
     <g id="text_1">
      <!-- −80 -->
      <defs>
       <path d="M 52.828125 31.203125 
L 5.5625 31.203125 
L 5.5625 39.40625 
L 52.828125 39.40625 
z
" id="ArialMT-8722"/>
       <path d="M 17.671875 38.8125 
Q 12.203125 40.828125 9.5625 44.53125 
Q 6.9375 48.25 6.9375 53.421875 
Q 6.9375 61.234375 12.546875 66.546875 
Q 18.171875 71.875 27.484375 71.875 
Q 36.859375 71.875 42.578125 66.421875 
Q 48.296875 60.984375 48.296875 53.171875 
Q 48.296875 48.1875 45.671875 44.5 
Q 43.0625 40.828125 37.75 38.8125 
Q 44.34375 36.671875 47.78125 31.875 
Q 51.21875 27.09375 51.21875 20.453125 
Q 51.21875 11.28125 44.71875 5.03125 
Q 38.234375 -1.21875 27.640625 -1.21875 
Q 17.046875 -1.21875 10.546875 5.046875 
Q 4.046875 11.328125 4.046875 20.703125 
Q 4.046875 27.6875 7.59375 32.390625 
Q 11.140625 37.109375 17.671875 38.8125 
z
M 15.921875 53.71875 
Q 15.921875 48.640625 19.1875 45.40625 
Q 22.46875 42.1875 27.6875 42.1875 
Q 32.765625 42.1875 36.015625 45.375 
Q 39.265625 48.578125 39.265625 53.21875 
Q 39.265625 58.0625 35.90625 61.359375 
Q 32.5625 64.65625 27.59375 64.65625 
Q 22.5625 64.65625 19.234375 61.421875 
Q 15.921875 58.203125 15.921875 53.71875 
z
M 13.09375 20.65625 
Q 13.09375 16.890625 14.875 13.375 
Q 16.65625 9.859375 20.171875 7.921875 
Q 23.6875 6 27.734375 6 
Q 34.03125 6 38.125 10.046875 
Q 42.234375 14.109375 42.234375 20.359375 
Q 42.234375 26.703125 38.015625 30.859375 
Q 33.796875 35.015625 27.4375 35.015625 
Q 21.234375 35.015625 17.15625 30.90625 
Q 13.09375 26.8125 13.09375 20.65625 
z
" id="ArialMT-56"/>
       <path d="M 4.15625 35.296875 
Q 4.15625 48 6.765625 55.734375 
Q 9.375 63.484375 14.515625 67.671875 
Q 19.671875 71.875 27.484375 71.875 
Q 33.25 71.875 37.59375 69.546875 
Q 41.9375 67.234375 44.765625 62.859375 
Q 47.609375 58.5 49.21875 52.21875 
Q 50.828125 45.953125 50.828125 35.296875 
Q 50.828125 22.703125 48.234375 14.96875 
Q 45.65625 7.234375 40.5 3 
Q 35.359375 -1.21875 27.484375 -1.21875 
Q 17.140625 -1.21875 11.234375 6.203125 
Q 4.15625 15.140625 4.15625 35.296875 
z
M 13.1875 35.296875 
Q 13.1875 17.671875 17.3125 11.828125 
Q 21.4375 6 27.484375 6 
Q 33.546875 6 37.671875 11.859375 
Q 41.796875 17.71875 41.796875 35.296875 
Q 41.796875 52.984375 37.671875 58.78125 
Q 33.546875 64.59375 27.390625 64.59375 
Q 21.34375 64.59375 17.71875 59.46875 
Q 13.1875 52.9375 13.1875 35.296875 
z
" id="ArialMT-48"/>
      </defs>
      <g transform="translate(13.880682 88.26625)scale(0.08 -0.08)">
       <use xlink:href="#ArialMT-8722"/>
       <use x="58.398438" xlink:href="#ArialMT-56"/>
       <use x="114.013672" xlink:href="#ArialMT-48"/>
      </g>
     </g>
    </g>
    <g id="xtick_2">
     <g id="line2d_3">
      <g>
       <use style="stroke:#000000;stroke-width:0.8;" x="40.956591" xlink:href="#ma3f948ceb1" y="81.54"/>
      </g>
     </g>
     <g id="line2d_4">
      <g>
       <use style="stroke:#000000;stroke-width:0.8;" x="40.956591" xlink:href="#m1f5b99109f" y="0"/>
      </g>
     </g>
     <g id="text_2">
      <!-- −40 -->
      <defs>
       <path d="M 32.328125 0 
L 32.328125 17.140625 
L 1.265625 17.140625 
L 1.265625 25.203125 
L 33.9375 71.578125 
L 41.109375 71.578125 
L 41.109375 25.203125 
L 50.78125 25.203125 
L 50.78125 17.140625 
L 41.109375 17.140625 
L 41.109375 0 
z
M 32.328125 25.203125 
L 32.328125 57.46875 
L 9.90625 25.203125 
z
" id="ArialMT-52"/>
      </defs>
      <g transform="translate(34.171591 88.26625)scale(0.08 -0.08)">
       <use xlink:href="#ArialMT-8722"/>
       <use x="58.398438" xlink:href="#ArialMT-52"/>
       <use x="114.013672" xlink:href="#ArialMT-48"/>
      </g>
     </g>
    </g>
    <g id="xtick_3">
     <g id="line2d_5">
      <g>
       <use style="stroke:#000000;stroke-width:0.8;" x="61.2475" xlink:href="#ma3f948ceb1" y="81.54"/>
      </g>
     </g>
     <g id="line2d_6">
      <g>
       <use style="stroke:#000000;stroke-width:0.8;" x="61.2475" xlink:href="#m1f5b99109f" y="0"/>
      </g>
     </g>
     <g id="text_3">
      <!-- 0 -->
      <g transform="translate(59.023125 88.26625)scale(0.08 -0.08)">
       <use xlink:href="#ArialMT-48"/>
      </g>
     </g>
    </g>
    <g id="xtick_4">
     <g id="line2d_7">
      <g>
       <use style="stroke:#000000;stroke-width:0.8;" x="81.538409" xlink:href="#ma3f948ceb1" y="81.54"/>
      </g>
     </g>
     <g id="line2d_8">
      <g>
       <use style="stroke:#000000;stroke-width:0.8;" x="81.538409" xlink:href="#m1f5b99109f" y="0"/>
      </g>
     </g>
     <g id="text_4">
      <!-- 40 -->
      <g transform="translate(77.089659 88.26625)scale(0.08 -0.08)">
       <use xlink:href="#ArialMT-52"/>
       <use x="55.615234" xlink:href="#ArialMT-48"/>
      </g>
     </g>
    </g>
    <g id="xtick_5">
     <g id="line2d_9">
      <g>
       <use style="stroke:#000000;stroke-width:0.8;" x="101.829318" xlink:href="#ma3f948ceb1" y="81.54"/>
      </g>
     </g>
     <g id="line2d_10">
      <g>
       <use style="stroke:#000000;stroke-width:0.8;" x="101.829318" xlink:href="#m1f5b99109f" y="0"/>
      </g>
     </g>
     <g id="text_5">
      <!-- 80 -->
      <g transform="translate(97.380568 88.26625)scale(0.08 -0.08)">
       <use xlink:href="#ArialMT-56"/>
       <use x="55.615234" xlink:href="#ArialMT-48"/>
      </g>
     </g>
    </g>
    <g id="xtick_6">
     <g id="line2d_11">
      <defs>
       <path d="M 0 0 
L 0 -2 
" id="mf3a4a7424d" style="stroke:#000000;stroke-width:0.6;"/>
      </defs>
      <g>
       <use style="stroke:#000000;stroke-width:0.6;" x="25.738409" xlink:href="#mf3a4a7424d" y="81.54"/>
      </g>
     </g>
     <g id="line2d_12">
      <defs>
       <path d="M 0 0 
L 0 2 
" id="m749c0ee202" style="stroke:#000000;stroke-width:0.6;"/>
      </defs>
      <g>
       <use style="stroke:#000000;stroke-width:0.6;" x="25.738409" xlink:href="#m749c0ee202" y="0"/>
      </g>
     </g>
    </g>
    <g id="xtick_7">
     <g id="line2d_13">
      <g>
       <use style="stroke:#000000;stroke-width:0.6;" x="30.811136" xlink:href="#mf3a4a7424d" y="81.54"/>
      </g>
     </g>
     <g id="line2d_14">
      <g>
       <use style="stroke:#000000;stroke-width:0.6;" x="30.811136" xlink:href="#m749c0ee202" y="0"/>
      </g>
     </g>
    </g>
    <g id="xtick_8">
     <g id="line2d_15">
      <g>
       <use style="stroke:#000000;stroke-width:0.6;" x="35.883864" xlink:href="#mf3a4a7424d" y="81.54"/>
      </g>
     </g>
     <g id="line2d_16">
      <g>
       <use style="stroke:#000000;stroke-width:0.6;" x="35.883864" xlink:href="#m749c0ee202" y="0"/>
      </g>
     </g>
    </g>
    <g id="xtick_9">
     <g id="line2d_17">
      <g>
       <use style="stroke:#000000;stroke-width:0.6;" x="46.029318" xlink:href="#mf3a4a7424d" y="81.54"/>
      </g>
     </g>
     <g id="line2d_18">
      <g>
       <use style="stroke:#000000;stroke-width:0.6;" x="46.029318" xlink:href="#m749c0ee202" y="0"/>
      </g>
     </g>
    </g>
    <g id="xtick_10">
     <g id="line2d_19">
      <g>
       <use style="stroke:#000000;stroke-width:0.6;" x="51.102045" xlink:href="#mf3a4a7424d" y="81.54"/>
      </g>
     </g>
     <g id="line2d_20">
      <g>
       <use style="stroke:#000000;stroke-width:0.6;" x="51.102045" xlink:href="#m749c0ee202" y="0"/>
      </g>
     </g>
    </g>
    <g id="xtick_11">
     <g id="line2d_21">
      <g>
       <use style="stroke:#000000;stroke-width:0.6;" x="56.174773" xlink:href="#mf3a4a7424d" y="81.54"/>
      </g>
     </g>
     <g id="line2d_22">
      <g>
       <use style="stroke:#000000;stroke-width:0.6;" x="56.174773" xlink:href="#m749c0ee202" y="0"/>
      </g>
     </g>
    </g>
    <g id="xtick_12">
     <g id="line2d_23">
      <g>
       <use style="stroke:#000000;stroke-width:0.6;" x="66.320227" xlink:href="#mf3a4a7424d" y="81.54"/>
      </g>
     </g>
     <g id="line2d_24">
      <g>
       <use style="stroke:#000000;stroke-width:0.6;" x="66.320227" xlink:href="#m749c0ee202" y="0"/>
      </g>
     </g>
    </g>
    <g id="xtick_13">
     <g id="line2d_25">
      <g>
       <use style="stroke:#000000;stroke-width:0.6;" x="71.392955" xlink:href="#mf3a4a7424d" y="81.54"/>
      </g>
     </g>
     <g id="line2d_26">
      <g>
       <use style="stroke:#000000;stroke-width:0.6;" x="71.392955" xlink:href="#m749c0ee202" y="0"/>
      </g>
     </g>
    </g>
    <g id="xtick_14">
     <g id="line2d_27">
      <g>
       <use style="stroke:#000000;stroke-width:0.6;" x="76.465682" xlink:href="#mf3a4a7424d" y="81.54"/>
      </g>
     </g>
     <g id="line2d_28">
      <g>
       <use style="stroke:#000000;stroke-width:0.6;" x="76.465682" xlink:href="#m749c0ee202" y="0"/>
      </g>
     </g>
    </g>
    <g id="xtick_15">
     <g id="line2d_29">
      <g>
       <use style="stroke:#000000;stroke-width:0.6;" x="86.611136" xlink:href="#mf3a4a7424d" y="81.54"/>
      </g>
     </g>
     <g id="line2d_30">
      <g>
       <use style="stroke:#000000;stroke-width:0.6;" x="86.611136" xlink:href="#m749c0ee202" y="0"/>
      </g>
     </g>
    </g>
    <g id="xtick_16">
     <g id="line2d_31">
      <g>
       <use style="stroke:#000000;stroke-width:0.6;" x="91.683864" xlink:href="#mf3a4a7424d" y="81.54"/>
      </g>
     </g>
     <g id="line2d_32">
      <g>
       <use style="stroke:#000000;stroke-width:0.6;" x="91.683864" xlink:href="#m749c0ee202" y="0"/>
      </g>
     </g>
    </g>
    <g id="xtick_17">
     <g id="line2d_33">
      <g>
       <use style="stroke:#000000;stroke-width:0.6;" x="96.756591" xlink:href="#mf3a4a7424d" y="81.54"/>
      </g>
     </g>
     <g id="line2d_34">
      <g>
       <use style="stroke:#000000;stroke-width:0.6;" x="96.756591" xlink:href="#m749c0ee202" y="0"/>
      </g>
     </g>
    </g>
    <g id="text_6">
     <!-- $\it{V_{G}}$ (V) -->
     <defs>
      <path d="M 20.609375 0 
L 7.8125 72.90625 
L 17.484375 72.90625 
L 28.078125 10.203125 
L 63.484375 72.90625 
L 74.21875 72.90625 
L 32.078125 0 
z
" id="DejaVuSans-Oblique-86"/>
      <path d="M 54.59375 10.890625 
L 58.40625 29.984375 
L 42.1875 29.984375 
L 43.703125 38.09375 
L 69.578125 38.09375 
L 63.28125 6 
Q 56.78125 2.4375 49.109375 0.5 
Q 41.453125 -1.421875 33.6875 -1.421875 
Q 19.96875 -1.421875 12.234375 6.1875 
Q 4.5 13.8125 4.5 27.390625 
Q 4.5 38.671875 9.203125 48.84375 
Q 13.921875 59.03125 22.21875 65.828125 
Q 27.4375 70.0625 33.640625 72.140625 
Q 39.84375 74.21875 47.40625 74.21875 
Q 54.25 74.21875 60.515625 72.484375 
Q 66.796875 70.75 72.515625 67.28125 
L 70.515625 56.78125 
Q 66.109375 61.375 60.203125 63.796875 
Q 54.296875 66.21875 47.609375 66.21875 
Q 39.84375 66.21875 33.9375 63.25 
Q 28.03125 60.296875 23.390625 54.109375 
Q 19.4375 48.828125 17.15625 41.671875 
Q 14.890625 34.515625 14.890625 27.09375 
Q 14.890625 16.890625 20.109375 11.734375 
Q 25.34375 6.59375 35.6875 6.59375 
Q 40.875 6.59375 45.703125 7.6875 
Q 50.53125 8.796875 54.59375 10.890625 
z
" id="DejaVuSans-Oblique-71"/>
      <path id="ArialMT-32"/>
      <path d="M 23.390625 -21.046875 
Q 16.109375 -11.859375 11.078125 0.4375 
Q 6.0625 12.75 6.0625 25.921875 
Q 6.0625 37.546875 9.8125 48.1875 
Q 14.203125 60.546875 23.390625 72.796875 
L 29.6875 72.796875 
Q 23.78125 62.640625 21.875 58.296875 
Q 18.890625 51.5625 17.1875 44.234375 
Q 15.09375 35.109375 15.09375 25.875 
Q 15.09375 2.390625 29.6875 -21.046875 
z
" id="ArialMT-40"/>
      <path d="M 28.171875 0 
L 0.4375 71.578125 
L 10.6875 71.578125 
L 29.296875 19.578125 
Q 31.546875 13.328125 33.0625 7.859375 
Q 34.71875 13.71875 36.921875 19.578125 
L 56.25 71.578125 
L 65.921875 71.578125 
L 37.890625 0 
z
" id="ArialMT-86"/>
      <path d="M 12.359375 -21.046875 
L 6.0625 -21.046875 
Q 20.65625 2.390625 20.65625 25.875 
Q 20.65625 35.0625 18.5625 44.09375 
Q 16.890625 51.421875 13.921875 58.15625 
Q 12.015625 62.546875 6.0625 72.796875 
L 12.359375 72.796875 
Q 21.53125 60.546875 25.921875 48.1875 
Q 29.6875 37.546875 29.6875 25.921875 
Q 29.6875 12.75 24.625 0.4375 
Q 19.578125 -11.859375 12.359375 -21.046875 
z
" id="ArialMT-41"/>
     </defs>
     <g transform="translate(46.8975 97.15625)scale(0.1 -0.1)">
      <use transform="translate(0 0.09375)" xlink:href="#DejaVuSans-Oblique-86"/>
      <use transform="translate(68.408203 -16.3125)scale(0.7)" xlink:href="#DejaVuSans-Oblique-71"/>
      <use transform="translate(125.385742 0.09375)" xlink:href="#ArialMT-32"/>
      <use transform="translate(153.168945 0.09375)" xlink:href="#ArialMT-40"/>
      <use transform="translate(186.469727 0.09375)" xlink:href="#ArialMT-86"/>
      <use transform="translate(253.168945 0.09375)" xlink:href="#ArialMT-41"/>
     </g>
    </g>
   </g>
   <g id="matplotlib.axis_2">
    <g id="ytick_1">
     <g id="line2d_35">
      <defs>
       <path d="M 0 0 
L 3.5 0 
" id="m05a2721515" style="stroke:#000000;stroke-width:0.8;"/>
      </defs>
      <g>
       <use style="stroke:#000000;stroke-width:0.8;" x="19.3975" xlink:href="#m05a2721515" y="55.6654"/>
      </g>
     </g>
     <g id="line2d_36">
      <defs>
       <path d="M 0 0 
L -3.5 0 
" id="m947b8aeee0" style="stroke:#000000;stroke-width:0.8;"/>
      </defs>
      <g>
       <use style="stroke:#000000;stroke-width:0.8;" x="103.0975" xlink:href="#m947b8aeee0" y="55.6654"/>
      </g>
     </g>
     <g id="text_7">
      <!-- 5 -->
      <defs>
       <path d="M 4.15625 18.75 
L 13.375 19.53125 
Q 14.40625 12.796875 18.140625 9.390625 
Q 21.875 6 27.15625 6 
Q 33.5 6 37.890625 10.78125 
Q 42.28125 15.578125 42.28125 23.484375 
Q 42.28125 31 38.0625 35.34375 
Q 33.84375 39.703125 27 39.703125 
Q 22.75 39.703125 19.328125 37.765625 
Q 15.921875 35.84375 13.96875 32.765625 
L 5.71875 33.84375 
L 12.640625 70.609375 
L 48.25 70.609375 
L 48.25 62.203125 
L 19.671875 62.203125 
L 15.828125 42.96875 
Q 22.265625 47.46875 29.34375 47.46875 
Q 38.71875 47.46875 45.15625 40.96875 
Q 51.609375 34.46875 51.609375 24.265625 
Q 51.609375 14.546875 45.953125 7.46875 
Q 39.0625 -1.21875 27.15625 -1.21875 
Q 17.390625 -1.21875 11.203125 4.25 
Q 5.03125 9.71875 4.15625 18.75 
z
" id="ArialMT-53"/>
      </defs>
      <g transform="translate(13.94875 58.528525)scale(0.08 -0.08)">
       <use xlink:href="#ArialMT-53"/>
      </g>
     </g>
    </g>
    <g id="ytick_2">
     <g id="line2d_37">
      <g>
       <use style="stroke:#000000;stroke-width:0.8;" x="19.3975" xlink:href="#m05a2721515" y="29.302278"/>
      </g>
     </g>
     <g id="line2d_38">
      <g>
       <use style="stroke:#000000;stroke-width:0.8;" x="103.0975" xlink:href="#m947b8aeee0" y="29.302278"/>
      </g>
     </g>
     <g id="text_8">
      <!-- 10 -->
      <defs>
       <path d="M 37.25 0 
L 28.46875 0 
L 28.46875 56 
Q 25.296875 52.984375 20.140625 49.953125 
Q 14.984375 46.921875 10.890625 45.40625 
L 10.890625 53.90625 
Q 18.265625 57.375 23.78125 62.296875 
Q 29.296875 67.234375 31.59375 71.875 
L 37.25 71.875 
z
" id="ArialMT-49"/>
      </defs>
      <g transform="translate(9.5 32.165403)scale(0.08 -0.08)">
       <use xlink:href="#ArialMT-49"/>
       <use x="55.615234" xlink:href="#ArialMT-48"/>
      </g>
     </g>
    </g>
    <g id="ytick_3">
     <g id="line2d_39">
      <g>
       <use style="stroke:#000000;stroke-width:0.8;" x="19.3975" xlink:href="#m05a2721515" y="2.939156"/>
      </g>
     </g>
     <g id="line2d_40">
      <g>
       <use style="stroke:#000000;stroke-width:0.8;" x="103.0975" xlink:href="#m947b8aeee0" y="2.939156"/>
      </g>
     </g>
     <g id="text_9">
      <!-- 15 -->
      <g transform="translate(9.5 5.802281)scale(0.08 -0.08)">
       <use xlink:href="#ArialMT-49"/>
       <use x="55.615234" xlink:href="#ArialMT-53"/>
      </g>
     </g>
    </g>
    <g id="ytick_4">
     <g id="line2d_41">
      <defs>
       <path d="M 0 0 
L 2 0 
" id="m3ae1523072" style="stroke:#000000;stroke-width:0.6;"/>
      </defs>
      <g>
       <use style="stroke:#000000;stroke-width:0.6;" x="19.3975" xlink:href="#m3ae1523072" y="76.755897"/>
      </g>
     </g>
     <g id="line2d_42">
      <defs>
       <path d="M 0 0 
L -2 0 
" id="m906de92712" style="stroke:#000000;stroke-width:0.6;"/>
      </defs>
      <g>
       <use style="stroke:#000000;stroke-width:0.6;" x="103.0975" xlink:href="#m906de92712" y="76.755897"/>
      </g>
     </g>
    </g>
    <g id="ytick_5">
     <g id="line2d_43">
      <g>
       <use style="stroke:#000000;stroke-width:0.6;" x="19.3975" xlink:href="#m3ae1523072" y="71.483273"/>
      </g>
     </g>
     <g id="line2d_44">
      <g>
       <use style="stroke:#000000;stroke-width:0.6;" x="103.0975" xlink:href="#m906de92712" y="71.483273"/>
      </g>
     </g>
    </g>
    <g id="ytick_6">
     <g id="line2d_45">
      <g>
       <use style="stroke:#000000;stroke-width:0.6;" x="19.3975" xlink:href="#m3ae1523072" y="66.210649"/>
      </g>
     </g>
     <g id="line2d_46">
      <g>
       <use style="stroke:#000000;stroke-width:0.6;" x="103.0975" xlink:href="#m906de92712" y="66.210649"/>
      </g>
     </g>
    </g>
    <g id="ytick_7">
     <g id="line2d_47">
      <g>
       <use style="stroke:#000000;stroke-width:0.6;" x="19.3975" xlink:href="#m3ae1523072" y="60.938024"/>
      </g>
     </g>
     <g id="line2d_48">
      <g>
       <use style="stroke:#000000;stroke-width:0.6;" x="103.0975" xlink:href="#m906de92712" y="60.938024"/>
      </g>
     </g>
    </g>
    <g id="ytick_8">
     <g id="line2d_49">
      <g>
       <use style="stroke:#000000;stroke-width:0.6;" x="19.3975" xlink:href="#m3ae1523072" y="50.392775"/>
      </g>
     </g>
     <g id="line2d_50">
      <g>
       <use style="stroke:#000000;stroke-width:0.6;" x="103.0975" xlink:href="#m906de92712" y="50.392775"/>
      </g>
     </g>
    </g>
    <g id="ytick_9">
     <g id="line2d_51">
      <g>
       <use style="stroke:#000000;stroke-width:0.6;" x="19.3975" xlink:href="#m3ae1523072" y="45.120151"/>
      </g>
     </g>
     <g id="line2d_52">
      <g>
       <use style="stroke:#000000;stroke-width:0.6;" x="103.0975" xlink:href="#m906de92712" y="45.120151"/>
      </g>
     </g>
    </g>
    <g id="ytick_10">
     <g id="line2d_53">
      <g>
       <use style="stroke:#000000;stroke-width:0.6;" x="19.3975" xlink:href="#m3ae1523072" y="39.847527"/>
      </g>
     </g>
     <g id="line2d_54">
      <g>
       <use style="stroke:#000000;stroke-width:0.6;" x="103.0975" xlink:href="#m906de92712" y="39.847527"/>
      </g>
     </g>
    </g>
    <g id="ytick_11">
     <g id="line2d_55">
      <g>
       <use style="stroke:#000000;stroke-width:0.6;" x="19.3975" xlink:href="#m3ae1523072" y="34.574902"/>
      </g>
     </g>
     <g id="line2d_56">
      <g>
       <use style="stroke:#000000;stroke-width:0.6;" x="103.0975" xlink:href="#m906de92712" y="34.574902"/>
      </g>
     </g>
    </g>
    <g id="ytick_12">
     <g id="line2d_57">
      <g>
       <use style="stroke:#000000;stroke-width:0.6;" x="19.3975" xlink:href="#m3ae1523072" y="24.029654"/>
      </g>
     </g>
     <g id="line2d_58">
      <g>
       <use style="stroke:#000000;stroke-width:0.6;" x="103.0975" xlink:href="#m906de92712" y="24.029654"/>
      </g>
     </g>
    </g>
    <g id="ytick_13">
     <g id="line2d_59">
      <g>
       <use style="stroke:#000000;stroke-width:0.6;" x="19.3975" xlink:href="#m3ae1523072" y="18.757029"/>
      </g>
     </g>
     <g id="line2d_60">
      <g>
       <use style="stroke:#000000;stroke-width:0.6;" x="103.0975" xlink:href="#m906de92712" y="18.757029"/>
      </g>
     </g>
    </g>
    <g id="ytick_14">
     <g id="line2d_61">
      <g>
       <use style="stroke:#000000;stroke-width:0.6;" x="19.3975" xlink:href="#m3ae1523072" y="13.484405"/>
      </g>
     </g>
     <g id="line2d_62">
      <g>
       <use style="stroke:#000000;stroke-width:0.6;" x="103.0975" xlink:href="#m906de92712" y="13.484405"/>
      </g>
     </g>
    </g>
    <g id="ytick_15">
     <g id="line2d_63">
      <g>
       <use style="stroke:#000000;stroke-width:0.6;" x="19.3975" xlink:href="#m3ae1523072" y="8.211781"/>
      </g>
     </g>
     <g id="line2d_64">
      <g>
       <use style="stroke:#000000;stroke-width:0.6;" x="103.0975" xlink:href="#m906de92712" y="8.211781"/>
      </g>
     </g>
    </g>
    <g id="text_10">
     <!-- $\it{I_{SD}}$ (nA) -->
     <defs>
      <path d="M 16.890625 72.90625 
L 26.8125 72.90625 
L 12.59375 0 
L 2.6875 0 
z
" id="DejaVuSans-Oblique-73"/>
      <path d="M 60.296875 70.515625 
L 58.40625 60.890625 
Q 53.46875 63.53125 48.609375 64.875 
Q 43.75 66.21875 39.203125 66.21875 
Q 30.375 66.21875 25.140625 62.359375 
Q 19.921875 58.5 19.921875 52.09375 
Q 19.921875 48.578125 21.84375 46.703125 
Q 23.78125 44.828125 31.78125 42.671875 
L 37.703125 41.21875 
Q 47.703125 38.625 51.609375 34.640625 
Q 55.515625 30.671875 55.515625 23.484375 
Q 55.515625 12.453125 46.84375 5.515625 
Q 38.1875 -1.421875 24.03125 -1.421875 
Q 18.21875 -1.421875 12.359375 -0.265625 
Q 6.5 0.875 0.59375 3.21875 
L 2.59375 13.375 
Q 8.015625 10.015625 13.453125 8.296875 
Q 18.890625 6.59375 24.3125 6.59375 
Q 33.546875 6.59375 39.109375 10.6875 
Q 44.671875 14.796875 44.671875 21.390625 
Q 44.671875 25.78125 42.453125 28.046875 
Q 40.234375 30.328125 32.90625 32.171875 
L 27 33.6875 
Q 16.890625 36.328125 13.203125 39.765625 
Q 9.515625 43.21875 9.515625 49.421875 
Q 9.515625 60.296875 17.890625 67.25 
Q 26.265625 74.21875 39.703125 74.21875 
Q 44.921875 74.21875 50.046875 73.28125 
Q 55.171875 72.359375 60.296875 70.515625 
z
" id="DejaVuSans-Oblique-83"/>
      <path d="M 16.890625 72.90625 
L 38.09375 72.90625 
Q 54.984375 72.90625 63.59375 65.75 
Q 72.21875 58.59375 72.21875 44.484375 
Q 72.21875 35.15625 68.9375 26.53125 
Q 65.671875 17.921875 59.90625 12.015625 
Q 54.109375 5.953125 45.171875 2.96875 
Q 36.234375 0 24.03125 0 
L 2.6875 0 
z
M 25.203125 64.796875 
L 14.203125 8.109375 
L 27.09375 8.109375 
Q 43.65625 8.109375 52.734375 17.625 
Q 61.8125 27.15625 61.8125 44.484375 
Q 61.8125 54.984375 55.953125 59.890625 
Q 50.09375 64.796875 37.59375 64.796875 
z
" id="DejaVuSans-Oblique-68"/>
      <path d="M 6.59375 0 
L 6.59375 51.859375 
L 14.5 51.859375 
L 14.5 44.484375 
Q 20.21875 53.03125 31 53.03125 
Q 35.6875 53.03125 39.625 51.34375 
Q 43.5625 49.65625 45.515625 46.921875 
Q 47.46875 44.1875 48.25 40.4375 
Q 48.734375 37.984375 48.734375 31.890625 
L 48.734375 0 
L 39.9375 0 
L 39.9375 31.546875 
Q 39.9375 36.921875 38.90625 39.578125 
Q 37.890625 42.234375 35.28125 43.8125 
Q 32.671875 45.40625 29.15625 45.40625 
Q 23.53125 45.40625 19.453125 41.84375 
Q 15.375 38.28125 15.375 28.328125 
L 15.375 0 
z
" id="ArialMT-110"/>
      <path d="M -0.140625 0 
L 27.34375 71.578125 
L 37.546875 71.578125 
L 66.84375 0 
L 56.0625 0 
L 47.703125 21.6875 
L 17.78125 21.6875 
L 9.90625 0 
z
M 20.515625 29.390625 
L 44.78125 29.390625 
L 37.3125 49.21875 
Q 33.890625 58.25 32.234375 64.0625 
Q 30.859375 57.171875 28.375 50.390625 
z
" id="ArialMT-65"/>
     </defs>
     <g transform="translate(7.3 58.17)rotate(-90)scale(0.1 -0.1)">
      <use transform="translate(0 0.09375)" xlink:href="#DejaVuSans-Oblique-73"/>
      <use transform="translate(29.492188 -16.3125)scale(0.7)" xlink:href="#DejaVuSans-Oblique-83"/>
      <use transform="translate(73.925781 -16.3125)scale(0.7)" xlink:href="#DejaVuSans-Oblique-68"/>
      <use transform="translate(130.561523 0.09375)" xlink:href="#ArialMT-32"/>
      <use transform="translate(158.344727 0.09375)" xlink:href="#ArialMT-40"/>
      <use transform="translate(191.645508 0.09375)" xlink:href="#ArialMT-110"/>
      <use transform="translate(247.260742 0.09375)" xlink:href="#ArialMT-65"/>
      <use transform="translate(313.959961 0.09375)" xlink:href="#ArialMT-41"/>
     </g>
    </g>
   </g>
   <g id="line2d_65">
    <path clip-path="url(#pb2ca9246a9)" d="M 23.202045 76.802216 
L 25.738409 74.254743 
L 28.274773 72.938267 
L 30.811136 71.61321 
L 33.3475 70.311516 
L 35.883864 69.057427 
L 38.420227 67.138761 
L 40.956591 64.993151 
L 43.492955 62.474432 
L 46.029318 59.694405 
L 48.565682 56.240387 
L 51.102045 53.124949 
L 53.638409 50.19192 
L 56.174773 47.053119 
L 58.711136 43.735185 
L 61.2475 41.32302 
L 63.783864 39.134787 
L 66.320227 36.802402 
L 68.856591 34.842096 
L 71.392955 30.885745 
L 73.929318 26.364064 
L 76.465682 23.027578 
L 79.002045 20.34922 
L 81.538409 18.656225 
L 84.074773 15.636439 
L 86.611136 13.76556 
L 89.1475 10.745999 
L 91.683864 8.900445 
L 94.220227 7.399397 
L 96.756591 5.636438 
L 99.292955 3.706364 
L 96.756591 51.442401 
L 94.220227 62.42236 
L 91.683864 67.597288 
L 89.1475 70.429029 
L 86.611136 72.264468 
L 84.074773 73.916542 
L 81.538409 74.671728 
L 79.002045 75.292656 
L 76.465682 75.688036 
L 73.929318 76.179458 
L 71.392955 76.373636 
L 68.856591 76.646797 
L 66.320227 76.842241 
L 63.783864 77.242368 
L 61.2475 77.304809 
L 58.711136 77.338959 
L 56.174773 77.288214 
L 53.638409 77.394726 
L 51.102045 77.364363 
L 48.565682 77.374107 
L 46.029318 77.280349 
L 43.492955 77.388422 
L 40.956591 77.465691 
L 38.420227 77.492523 
L 35.883864 77.280304 
L 33.3475 77.630813 
L 30.811136 77.714814 
L 28.274773 77.41963 
L 25.738409 77.616287 
L 23.202045 77.833636 
" style="fill:none;stroke:#377eb8;stroke-linecap:square;stroke-width:1.5;"/>
    <defs>
     <path d="M 0 0.75 
C 0.198902 0.75 0.389685 0.670975 0.53033 0.53033 
C 0.670975 0.389685 0.75 0.198902 0.75 0 
C 0.75 -0.198902 0.670975 -0.389685 0.53033 -0.53033 
C 0.389685 -0.670975 0.198902 -0.75 0 -0.75 
C -0.198902 -0.75 -0.389685 -0.670975 -0.53033 -0.53033 
C -0.670975 -0.389685 -0.75 -0.198902 -0.75 0 
C -0.75 0.198902 -0.670975 0.389685 -0.53033 0.53033 
C -0.389685 0.670975 -0.198902 0.75 0 0.75 
z
" id="m4138dbfb19" style="stroke:#377eb8;"/>
    </defs>
    <g clip-path="url(#pb2ca9246a9)">
     <use style="fill:#377eb8;stroke:#377eb8;" x="23.202045" xlink:href="#m4138dbfb19" y="76.802216"/>
     <use style="fill:#377eb8;stroke:#377eb8;" x="25.738409" xlink:href="#m4138dbfb19" y="74.254743"/>
     <use style="fill:#377eb8;stroke:#377eb8;" x="28.274773" xlink:href="#m4138dbfb19" y="72.938267"/>
     <use style="fill:#377eb8;stroke:#377eb8;" x="30.811136" xlink:href="#m4138dbfb19" y="71.61321"/>
     <use style="fill:#377eb8;stroke:#377eb8;" x="33.3475" xlink:href="#m4138dbfb19" y="70.311516"/>
     <use style="fill:#377eb8;stroke:#377eb8;" x="35.883864" xlink:href="#m4138dbfb19" y="69.057427"/>
     <use style="fill:#377eb8;stroke:#377eb8;" x="38.420227" xlink:href="#m4138dbfb19" y="67.138761"/>
     <use style="fill:#377eb8;stroke:#377eb8;" x="40.956591" xlink:href="#m4138dbfb19" y="64.993151"/>
     <use style="fill:#377eb8;stroke:#377eb8;" x="43.492955" xlink:href="#m4138dbfb19" y="62.474432"/>
     <use style="fill:#377eb8;stroke:#377eb8;" x="46.029318" xlink:href="#m4138dbfb19" y="59.694405"/>
     <use style="fill:#377eb8;stroke:#377eb8;" x="48.565682" xlink:href="#m4138dbfb19" y="56.240387"/>
     <use style="fill:#377eb8;stroke:#377eb8;" x="51.102045" xlink:href="#m4138dbfb19" y="53.124949"/>
     <use style="fill:#377eb8;stroke:#377eb8;" x="53.638409" xlink:href="#m4138dbfb19" y="50.19192"/>
     <use style="fill:#377eb8;stroke:#377eb8;" x="56.174773" xlink:href="#m4138dbfb19" y="47.053119"/>
     <use style="fill:#377eb8;stroke:#377eb8;" x="58.711136" xlink:href="#m4138dbfb19" y="43.735185"/>
     <use style="fill:#377eb8;stroke:#377eb8;" x="61.2475" xlink:href="#m4138dbfb19" y="41.32302"/>
     <use style="fill:#377eb8;stroke:#377eb8;" x="63.783864" xlink:href="#m4138dbfb19" y="39.134787"/>
     <use style="fill:#377eb8;stroke:#377eb8;" x="66.320227" xlink:href="#m4138dbfb19" y="36.802402"/>
     <use style="fill:#377eb8;stroke:#377eb8;" x="68.856591" xlink:href="#m4138dbfb19" y="34.842096"/>
     <use style="fill:#377eb8;stroke:#377eb8;" x="71.392955" xlink:href="#m4138dbfb19" y="30.885745"/>
     <use style="fill:#377eb8;stroke:#377eb8;" x="73.929318" xlink:href="#m4138dbfb19" y="26.364064"/>
     <use style="fill:#377eb8;stroke:#377eb8;" x="76.465682" xlink:href="#m4138dbfb19" y="23.027578"/>
     <use style="fill:#377eb8;stroke:#377eb8;" x="79.002045" xlink:href="#m4138dbfb19" y="20.34922"/>
     <use style="fill:#377eb8;stroke:#377eb8;" x="81.538409" xlink:href="#m4138dbfb19" y="18.656225"/>
     <use style="fill:#377eb8;stroke:#377eb8;" x="84.074773" xlink:href="#m4138dbfb19" y="15.636439"/>
     <use style="fill:#377eb8;stroke:#377eb8;" x="86.611136" xlink:href="#m4138dbfb19" y="13.76556"/>
     <use style="fill:#377eb8;stroke:#377eb8;" x="89.1475" xlink:href="#m4138dbfb19" y="10.745999"/>
     <use style="fill:#377eb8;stroke:#377eb8;" x="91.683864" xlink:href="#m4138dbfb19" y="8.900445"/>
     <use style="fill:#377eb8;stroke:#377eb8;" x="94.220227" xlink:href="#m4138dbfb19" y="7.399397"/>
     <use style="fill:#377eb8;stroke:#377eb8;" x="96.756591" xlink:href="#m4138dbfb19" y="5.636438"/>
     <use style="fill:#377eb8;stroke:#377eb8;" x="99.292955" xlink:href="#m4138dbfb19" y="3.706364"/>
     <use style="fill:#377eb8;stroke:#377eb8;" x="96.756591" xlink:href="#m4138dbfb19" y="51.442401"/>
     <use style="fill:#377eb8;stroke:#377eb8;" x="94.220227" xlink:href="#m4138dbfb19" y="62.42236"/>
     <use style="fill:#377eb8;stroke:#377eb8;" x="91.683864" xlink:href="#m4138dbfb19" y="67.597288"/>
     <use style="fill:#377eb8;stroke:#377eb8;" x="89.1475" xlink:href="#m4138dbfb19" y="70.429029"/>
     <use style="fill:#377eb8;stroke:#377eb8;" x="86.611136" xlink:href="#m4138dbfb19" y="72.264468"/>
     <use style="fill:#377eb8;stroke:#377eb8;" x="84.074773" xlink:href="#m4138dbfb19" y="73.916542"/>
     <use style="fill:#377eb8;stroke:#377eb8;" x="81.538409" xlink:href="#m4138dbfb19" y="74.671728"/>
     <use style="fill:#377eb8;stroke:#377eb8;" x="79.002045" xlink:href="#m4138dbfb19" y="75.292656"/>
     <use style="fill:#377eb8;stroke:#377eb8;" x="76.465682" xlink:href="#m4138dbfb19" y="75.688036"/>
     <use style="fill:#377eb8;stroke:#377eb8;" x="73.929318" xlink:href="#m4138dbfb19" y="76.179458"/>
     <use style="fill:#377eb8;stroke:#377eb8;" x="71.392955" xlink:href="#m4138dbfb19" y="76.373636"/>
     <use style="fill:#377eb8;stroke:#377eb8;" x="68.856591" xlink:href="#m4138dbfb19" y="76.646797"/>
     <use style="fill:#377eb8;stroke:#377eb8;" x="66.320227" xlink:href="#m4138dbfb19" y="76.842241"/>
     <use style="fill:#377eb8;stroke:#377eb8;" x="63.783864" xlink:href="#m4138dbfb19" y="77.242368"/>
     <use style="fill:#377eb8;stroke:#377eb8;" x="61.2475" xlink:href="#m4138dbfb19" y="77.304809"/>
     <use style="fill:#377eb8;stroke:#377eb8;" x="58.711136" xlink:href="#m4138dbfb19" y="77.338959"/>
     <use style="fill:#377eb8;stroke:#377eb8;" x="56.174773" xlink:href="#m4138dbfb19" y="77.288214"/>
     <use style="fill:#377eb8;stroke:#377eb8;" x="53.638409" xlink:href="#m4138dbfb19" y="77.394726"/>
     <use style="fill:#377eb8;stroke:#377eb8;" x="51.102045" xlink:href="#m4138dbfb19" y="77.364363"/>
     <use style="fill:#377eb8;stroke:#377eb8;" x="48.565682" xlink:href="#m4138dbfb19" y="77.374107"/>
     <use style="fill:#377eb8;stroke:#377eb8;" x="46.029318" xlink:href="#m4138dbfb19" y="77.280349"/>
     <use style="fill:#377eb8;stroke:#377eb8;" x="43.492955" xlink:href="#m4138dbfb19" y="77.388422"/>
     <use style="fill:#377eb8;stroke:#377eb8;" x="40.956591" xlink:href="#m4138dbfb19" y="77.465691"/>
     <use style="fill:#377eb8;stroke:#377eb8;" x="38.420227" xlink:href="#m4138dbfb19" y="77.492523"/>
     <use style="fill:#377eb8;stroke:#377eb8;" x="35.883864" xlink:href="#m4138dbfb19" y="77.280304"/>
     <use style="fill:#377eb8;stroke:#377eb8;" x="33.3475" xlink:href="#m4138dbfb19" y="77.630813"/>
     <use style="fill:#377eb8;stroke:#377eb8;" x="30.811136" xlink:href="#m4138dbfb19" y="77.714814"/>
     <use style="fill:#377eb8;stroke:#377eb8;" x="28.274773" xlink:href="#m4138dbfb19" y="77.41963"/>
     <use style="fill:#377eb8;stroke:#377eb8;" x="25.738409" xlink:href="#m4138dbfb19" y="77.616287"/>
     <use style="fill:#377eb8;stroke:#377eb8;" x="23.202045" xlink:href="#m4138dbfb19" y="77.833636"/>
    </g>
   </g>
   <g id="patch_3">
    <path d="M 19.3975 81.54 
L 19.3975 0 
" style="fill:none;stroke:#000000;stroke-linecap:square;stroke-linejoin:miter;stroke-width:0.8;"/>
   </g>
   <g id="patch_4">
    <path d="M 103.0975 81.54 
L 103.0975 0 
" style="fill:none;stroke:#000000;stroke-linecap:square;stroke-linejoin:miter;stroke-width:0.8;"/>
   </g>
   <g id="patch_5">
    <path d="M 19.3975 81.54 
L 103.0975 81.54 
" style="fill:none;stroke:#000000;stroke-linecap:square;stroke-linejoin:miter;stroke-width:0.8;"/>
   </g>
   <g id="patch_6">
    <path d="M 19.3975 0 
L 103.0975 0 
" style="fill:none;stroke:#000000;stroke-linecap:square;stroke-linejoin:miter;stroke-width:0.8;"/>
   </g>
  </g>
 </g>
 <defs>
  <clipPath id="pb2ca9246a9">
   <rect height="81.54" width="83.7" x="19.3975" y="0"/>
  </clipPath>
 </defs>
</svg>
