<?xml version="1.0" encoding="UTF-8" standalone="no"?>
<svg
   xmlns:dc="http://purl.org/dc/elements/1.1/"
   xmlns:cc="http://creativecommons.org/ns#"
   xmlns:rdf="http://www.w3.org/1999/02/22-rdf-syntax-ns#"
   xmlns:svg="http://www.w3.org/2000/svg"
   xmlns="http://www.w3.org/2000/svg"
   xmlns:xlink="http://www.w3.org/1999/xlink"
   xmlns:sodipodi="http://sodipodi.sourceforge.net/DTD/sodipodi-0.dtd"
   xmlns:inkscape="http://www.inkscape.org/namespaces/inkscape"
   width="36.314754mm"
   height="37.635395mm"
   viewBox="0 0 36.314754 37.635395"
   version="1.1"
   id="svg1179"
   inkscape:version="1.0.2 (e86c870879, 2021-01-15, custom)"
   sodipodi:docname="In2Se3_angled_SHG - In2Se3_SiO2Si_03262019_pol_5mW_50xLWD_55NA_1000ms_100umslit_1_1.svg">
  <defs
     id="defs1173">
    <clipPath
       id="pd6779338c5">
      <path
         d="m 125.56063,57.278962 c 0,-7.138489 -1.40613,-14.207566 -4.13791,-20.802671 -2.73179,-6.595105 -6.7361,-12.587979 -11.78377,-17.635653 C 104.59127,13.792963 98.598401,9.788653 92.003296,7.056871 85.408192,4.325089 78.339115,2.918962 71.200625,2.918962 c -7.13849,0 -14.207567,1.406127 -20.802671,4.137909 -6.595105,2.731782 -12.587979,6.736092 -17.635654,11.783767 -5.047674,5.047674 -9.051985,11.040548 -11.783766,17.635653 -2.731782,6.595105 -4.137909,13.664182 -4.137909,20.802671 0,7.13849 1.406127,14.207567 4.137909,20.802672 2.731781,6.595104 6.736092,12.587978 11.783766,17.635653 5.047675,5.047673 11.040549,9.051983 17.635654,11.783763 6.595104,2.73178 13.664181,4.13791 20.802671,4.13791 7.13849,0 14.207567,-1.40613 20.802671,-4.13791 6.595105,-2.73178 12.587974,-6.73609 17.635654,-11.783763 5.04767,-5.047675 9.05198,-11.040549 11.78377,-17.635653 2.73178,-6.595105 4.13791,-13.664182 4.13791,-20.802672 m -54.360005,0 c 0,0 0,0 0,0 0,0 0,0 0,0 0,0 0,0 0,0 0,0 0,0 0,0 0,0 0,0 0,0 0,0 0,0 0,0 0,0 0,0 0,0 0,0 0,0 0,0 0,0 0,0 0,0 0,0 0,0 0,0 0,0 0,0 0,0 0,0 0,0 0,0 0,0 0,0 0,0 0,0 0,0 0,0 0,0 0,0 0,0 0,0 0,0 0,0 m 54.360005,0 z"
         id="path256" />
    </clipPath>
    <clipPath
       id="clipPath994">
      <path
         d="m 125.56063,57.278962 c 0,-7.138489 -1.40613,-14.207566 -4.13791,-20.802671 -2.73179,-6.595105 -6.7361,-12.587979 -11.78377,-17.635653 C 104.59127,13.792963 98.598401,9.788653 92.003296,7.056871 85.408192,4.325089 78.339115,2.918962 71.200625,2.918962 c -7.13849,0 -14.207567,1.406127 -20.802671,4.137909 -6.595105,2.731782 -12.587979,6.736092 -17.635654,11.783767 -5.047674,5.047674 -9.051985,11.040548 -11.783766,17.635653 -2.731782,6.595105 -4.137909,13.664182 -4.137909,20.802671 0,7.13849 1.406127,14.207567 4.137909,20.802672 2.731781,6.595104 6.736092,12.587978 11.783766,17.635653 5.047675,5.047673 11.040549,9.051983 17.635654,11.783763 6.595104,2.73178 13.664181,4.13791 20.802671,4.13791 7.13849,0 14.207567,-1.40613 20.802671,-4.13791 6.595105,-2.73178 12.587974,-6.73609 17.635654,-11.783763 5.04767,-5.047675 9.05198,-11.040549 11.78377,-17.635653 2.73178,-6.595105 4.13791,-13.664182 4.13791,-20.802672 m -54.360005,0 c 0,0 0,0 0,0 0,0 0,0 0,0 0,0 0,0 0,0 0,0 0,0 0,0 0,0 0,0 0,0 0,0 0,0 0,0 0,0 0,0 0,0 0,0 0,0 0,0 0,0 0,0 0,0 0,0 0,0 0,0 0,0 0,0 0,0 0,0 0,0 0,0 0,0 0,0 0,0 0,0 0,0 0,0 0,0 0,0 0,0 0,0 0,0 0,0 m 54.360005,0 z"
         id="path992" />
    </clipPath>
    <clipPath
       id="clipPath998">
      <path
         d="m 125.56063,57.278962 c 0,-7.138489 -1.40613,-14.207566 -4.13791,-20.802671 -2.73179,-6.595105 -6.7361,-12.587979 -11.78377,-17.635653 C 104.59127,13.792963 98.598401,9.788653 92.003296,7.056871 85.408192,4.325089 78.339115,2.918962 71.200625,2.918962 c -7.13849,0 -14.207567,1.406127 -20.802671,4.137909 -6.595105,2.731782 -12.587979,6.736092 -17.635654,11.783767 -5.047674,5.047674 -9.051985,11.040548 -11.783766,17.635653 -2.731782,6.595105 -4.137909,13.664182 -4.137909,20.802671 0,7.13849 1.406127,14.207567 4.137909,20.802672 2.731781,6.595104 6.736092,12.587978 11.783766,17.635653 5.047675,5.047673 11.040549,9.051983 17.635654,11.783763 6.595104,2.73178 13.664181,4.13791 20.802671,4.13791 7.13849,0 14.207567,-1.40613 20.802671,-4.13791 6.595105,-2.73178 12.587974,-6.73609 17.635654,-11.783763 5.04767,-5.047675 9.05198,-11.040549 11.78377,-17.635653 2.73178,-6.595105 4.13791,-13.664182 4.13791,-20.802672 m -54.360005,0 c 0,0 0,0 0,0 0,0 0,0 0,0 0,0 0,0 0,0 0,0 0,0 0,0 0,0 0,0 0,0 0,0 0,0 0,0 0,0 0,0 0,0 0,0 0,0 0,0 0,0 0,0 0,0 0,0 0,0 0,0 0,0 0,0 0,0 0,0 0,0 0,0 0,0 0,0 0,0 0,0 0,0 0,0 0,0 0,0 0,0 0,0 0,0 0,0 m 54.360005,0 z"
         id="path996" />
    </clipPath>
    <clipPath
       id="clipPath1002">
      <path
         d="m 125.56063,57.278962 c 0,-7.138489 -1.40613,-14.207566 -4.13791,-20.802671 -2.73179,-6.595105 -6.7361,-12.587979 -11.78377,-17.635653 C 104.59127,13.792963 98.598401,9.788653 92.003296,7.056871 85.408192,4.325089 78.339115,2.918962 71.200625,2.918962 c -7.13849,0 -14.207567,1.406127 -20.802671,4.137909 -6.595105,2.731782 -12.587979,6.736092 -17.635654,11.783767 -5.047674,5.047674 -9.051985,11.040548 -11.783766,17.635653 -2.731782,6.595105 -4.137909,13.664182 -4.137909,20.802671 0,7.13849 1.406127,14.207567 4.137909,20.802672 2.731781,6.595104 6.736092,12.587978 11.783766,17.635653 5.047675,5.047673 11.040549,9.051983 17.635654,11.783763 6.595104,2.73178 13.664181,4.13791 20.802671,4.13791 7.13849,0 14.207567,-1.40613 20.802671,-4.13791 6.595105,-2.73178 12.587974,-6.73609 17.635654,-11.783763 5.04767,-5.047675 9.05198,-11.040549 11.78377,-17.635653 2.73178,-6.595105 4.13791,-13.664182 4.13791,-20.802672 m -54.360005,0 c 0,0 0,0 0,0 0,0 0,0 0,0 0,0 0,0 0,0 0,0 0,0 0,0 0,0 0,0 0,0 0,0 0,0 0,0 0,0 0,0 0,0 0,0 0,0 0,0 0,0 0,0 0,0 0,0 0,0 0,0 0,0 0,0 0,0 0,0 0,0 0,0 0,0 0,0 0,0 0,0 0,0 0,0 0,0 0,0 0,0 0,0 0,0 0,0 m 54.360005,0 z"
         id="path1000" />
    </clipPath>
    <clipPath
       id="clipPath1006">
      <path
         d="m 125.56063,57.278962 c 0,-7.138489 -1.40613,-14.207566 -4.13791,-20.802671 -2.73179,-6.595105 -6.7361,-12.587979 -11.78377,-17.635653 C 104.59127,13.792963 98.598401,9.788653 92.003296,7.056871 85.408192,4.325089 78.339115,2.918962 71.200625,2.918962 c -7.13849,0 -14.207567,1.406127 -20.802671,4.137909 -6.595105,2.731782 -12.587979,6.736092 -17.635654,11.783767 -5.047674,5.047674 -9.051985,11.040548 -11.783766,17.635653 -2.731782,6.595105 -4.137909,13.664182 -4.137909,20.802671 0,7.13849 1.406127,14.207567 4.137909,20.802672 2.731781,6.595104 6.736092,12.587978 11.783766,17.635653 5.047675,5.047673 11.040549,9.051983 17.635654,11.783763 6.595104,2.73178 13.664181,4.13791 20.802671,4.13791 7.13849,0 14.207567,-1.40613 20.802671,-4.13791 6.595105,-2.73178 12.587974,-6.73609 17.635654,-11.783763 5.04767,-5.047675 9.05198,-11.040549 11.78377,-17.635653 2.73178,-6.595105 4.13791,-13.664182 4.13791,-20.802672 m -54.360005,0 c 0,0 0,0 0,0 0,0 0,0 0,0 0,0 0,0 0,0 0,0 0,0 0,0 0,0 0,0 0,0 0,0 0,0 0,0 0,0 0,0 0,0 0,0 0,0 0,0 0,0 0,0 0,0 0,0 0,0 0,0 0,0 0,0 0,0 0,0 0,0 0,0 0,0 0,0 0,0 0,0 0,0 0,0 0,0 0,0 0,0 0,0 0,0 0,0 m 54.360005,0 z"
         id="path1004" />
    </clipPath>
    <clipPath
       id="clipPath1010">
      <path
         d="m 125.56063,57.278962 c 0,-7.138489 -1.40613,-14.207566 -4.13791,-20.802671 -2.73179,-6.595105 -6.7361,-12.587979 -11.78377,-17.635653 C 104.59127,13.792963 98.598401,9.788653 92.003296,7.056871 85.408192,4.325089 78.339115,2.918962 71.200625,2.918962 c -7.13849,0 -14.207567,1.406127 -20.802671,4.137909 -6.595105,2.731782 -12.587979,6.736092 -17.635654,11.783767 -5.047674,5.047674 -9.051985,11.040548 -11.783766,17.635653 -2.731782,6.595105 -4.137909,13.664182 -4.137909,20.802671 0,7.13849 1.406127,14.207567 4.137909,20.802672 2.731781,6.595104 6.736092,12.587978 11.783766,17.635653 5.047675,5.047673 11.040549,9.051983 17.635654,11.783763 6.595104,2.73178 13.664181,4.13791 20.802671,4.13791 7.13849,0 14.207567,-1.40613 20.802671,-4.13791 6.595105,-2.73178 12.587974,-6.73609 17.635654,-11.783763 5.04767,-5.047675 9.05198,-11.040549 11.78377,-17.635653 2.73178,-6.595105 4.13791,-13.664182 4.13791,-20.802672 m -54.360005,0 c 0,0 0,0 0,0 0,0 0,0 0,0 0,0 0,0 0,0 0,0 0,0 0,0 0,0 0,0 0,0 0,0 0,0 0,0 0,0 0,0 0,0 0,0 0,0 0,0 0,0 0,0 0,0 0,0 0,0 0,0 0,0 0,0 0,0 0,0 0,0 0,0 0,0 0,0 0,0 0,0 0,0 0,0 0,0 0,0 0,0 0,0 0,0 0,0 m 54.360005,0 z"
         id="path1008" />
    </clipPath>
    <clipPath
       id="clipPath1014">
      <path
         d="m 125.56063,57.278962 c 0,-7.138489 -1.40613,-14.207566 -4.13791,-20.802671 -2.73179,-6.595105 -6.7361,-12.587979 -11.78377,-17.635653 C 104.59127,13.792963 98.598401,9.788653 92.003296,7.056871 85.408192,4.325089 78.339115,2.918962 71.200625,2.918962 c -7.13849,0 -14.207567,1.406127 -20.802671,4.137909 -6.595105,2.731782 -12.587979,6.736092 -17.635654,11.783767 -5.047674,5.047674 -9.051985,11.040548 -11.783766,17.635653 -2.731782,6.595105 -4.137909,13.664182 -4.137909,20.802671 0,7.13849 1.406127,14.207567 4.137909,20.802672 2.731781,6.595104 6.736092,12.587978 11.783766,17.635653 5.047675,5.047673 11.040549,9.051983 17.635654,11.783763 6.595104,2.73178 13.664181,4.13791 20.802671,4.13791 7.13849,0 14.207567,-1.40613 20.802671,-4.13791 6.595105,-2.73178 12.587974,-6.73609 17.635654,-11.783763 5.04767,-5.047675 9.05198,-11.040549 11.78377,-17.635653 2.73178,-6.595105 4.13791,-13.664182 4.13791,-20.802672 m -54.360005,0 c 0,0 0,0 0,0 0,0 0,0 0,0 0,0 0,0 0,0 0,0 0,0 0,0 0,0 0,0 0,0 0,0 0,0 0,0 0,0 0,0 0,0 0,0 0,0 0,0 0,0 0,0 0,0 0,0 0,0 0,0 0,0 0,0 0,0 0,0 0,0 0,0 0,0 0,0 0,0 0,0 0,0 0,0 0,0 0,0 0,0 0,0 0,0 0,0 m 54.360005,0 z"
         id="path1012" />
    </clipPath>
    <clipPath
       id="clipPath1018">
      <path
         d="m 125.56063,57.278962 c 0,-7.138489 -1.40613,-14.207566 -4.13791,-20.802671 -2.73179,-6.595105 -6.7361,-12.587979 -11.78377,-17.635653 C 104.59127,13.792963 98.598401,9.788653 92.003296,7.056871 85.408192,4.325089 78.339115,2.918962 71.200625,2.918962 c -7.13849,0 -14.207567,1.406127 -20.802671,4.137909 -6.595105,2.731782 -12.587979,6.736092 -17.635654,11.783767 -5.047674,5.047674 -9.051985,11.040548 -11.783766,17.635653 -2.731782,6.595105 -4.137909,13.664182 -4.137909,20.802671 0,7.13849 1.406127,14.207567 4.137909,20.802672 2.731781,6.595104 6.736092,12.587978 11.783766,17.635653 5.047675,5.047673 11.040549,9.051983 17.635654,11.783763 6.595104,2.73178 13.664181,4.13791 20.802671,4.13791 7.13849,0 14.207567,-1.40613 20.802671,-4.13791 6.595105,-2.73178 12.587974,-6.73609 17.635654,-11.783763 5.04767,-5.047675 9.05198,-11.040549 11.78377,-17.635653 2.73178,-6.595105 4.13791,-13.664182 4.13791,-20.802672 m -54.360005,0 c 0,0 0,0 0,0 0,0 0,0 0,0 0,0 0,0 0,0 0,0 0,0 0,0 0,0 0,0 0,0 0,0 0,0 0,0 0,0 0,0 0,0 0,0 0,0 0,0 0,0 0,0 0,0 0,0 0,0 0,0 0,0 0,0 0,0 0,0 0,0 0,0 0,0 0,0 0,0 0,0 0,0 0,0 0,0 0,0 0,0 0,0 0,0 0,0 m 54.360005,0 z"
         id="path1016" />
    </clipPath>
    <clipPath
       id="clipPath1022">
      <path
         d="m 125.56063,57.278962 c 0,-7.138489 -1.40613,-14.207566 -4.13791,-20.802671 -2.73179,-6.595105 -6.7361,-12.587979 -11.78377,-17.635653 C 104.59127,13.792963 98.598401,9.788653 92.003296,7.056871 85.408192,4.325089 78.339115,2.918962 71.200625,2.918962 c -7.13849,0 -14.207567,1.406127 -20.802671,4.137909 -6.595105,2.731782 -12.587979,6.736092 -17.635654,11.783767 -5.047674,5.047674 -9.051985,11.040548 -11.783766,17.635653 -2.731782,6.595105 -4.137909,13.664182 -4.137909,20.802671 0,7.13849 1.406127,14.207567 4.137909,20.802672 2.731781,6.595104 6.736092,12.587978 11.783766,17.635653 5.047675,5.047673 11.040549,9.051983 17.635654,11.783763 6.595104,2.73178 13.664181,4.13791 20.802671,4.13791 7.13849,0 14.207567,-1.40613 20.802671,-4.13791 6.595105,-2.73178 12.587974,-6.73609 17.635654,-11.783763 5.04767,-5.047675 9.05198,-11.040549 11.78377,-17.635653 2.73178,-6.595105 4.13791,-13.664182 4.13791,-20.802672 m -54.360005,0 c 0,0 0,0 0,0 0,0 0,0 0,0 0,0 0,0 0,0 0,0 0,0 0,0 0,0 0,0 0,0 0,0 0,0 0,0 0,0 0,0 0,0 0,0 0,0 0,0 0,0 0,0 0,0 0,0 0,0 0,0 0,0 0,0 0,0 0,0 0,0 0,0 0,0 0,0 0,0 0,0 0,0 0,0 0,0 0,0 0,0 0,0 0,0 0,0 m 54.360005,0 z"
         id="path1020" />
    </clipPath>
    <clipPath
       id="clipPath1026">
      <path
         d="m 125.56063,57.278962 c 0,-7.138489 -1.40613,-14.207566 -4.13791,-20.802671 -2.73179,-6.595105 -6.7361,-12.587979 -11.78377,-17.635653 C 104.59127,13.792963 98.598401,9.788653 92.003296,7.056871 85.408192,4.325089 78.339115,2.918962 71.200625,2.918962 c -7.13849,0 -14.207567,1.406127 -20.802671,4.137909 -6.595105,2.731782 -12.587979,6.736092 -17.635654,11.783767 -5.047674,5.047674 -9.051985,11.040548 -11.783766,17.635653 -2.731782,6.595105 -4.137909,13.664182 -4.137909,20.802671 0,7.13849 1.406127,14.207567 4.137909,20.802672 2.731781,6.595104 6.736092,12.587978 11.783766,17.635653 5.047675,5.047673 11.040549,9.051983 17.635654,11.783763 6.595104,2.73178 13.664181,4.13791 20.802671,4.13791 7.13849,0 14.207567,-1.40613 20.802671,-4.13791 6.595105,-2.73178 12.587974,-6.73609 17.635654,-11.783763 5.04767,-5.047675 9.05198,-11.040549 11.78377,-17.635653 2.73178,-6.595105 4.13791,-13.664182 4.13791,-20.802672 m -54.360005,0 c 0,0 0,0 0,0 0,0 0,0 0,0 0,0 0,0 0,0 0,0 0,0 0,0 0,0 0,0 0,0 0,0 0,0 0,0 0,0 0,0 0,0 0,0 0,0 0,0 0,0 0,0 0,0 0,0 0,0 0,0 0,0 0,0 0,0 0,0 0,0 0,0 0,0 0,0 0,0 0,0 0,0 0,0 0,0 0,0 0,0 0,0 0,0 0,0 m 54.360005,0 z"
         id="path1024" />
    </clipPath>
    <path
       d="M 0,0.75 C 0.198902,0.75 0.389685,0.670975 0.53033,0.53033 0.670975,0.389685 0.75,0.198902 0.75,0 0.75,-0.198902 0.670975,-0.389685 0.53033,-0.53033 0.389685,-0.670975 0.198902,-0.75 0,-0.75 c -0.198902,0 -0.389685,0.079025 -0.53033,0.21967 C -0.670975,-0.389685 -0.75,-0.198902 -0.75,0 c 0,0.198902 0.079025,0.389685 0.21967,0.53033 C -0.389685,0.670975 -0.198902,0.75 0,0.75 Z"
       id="me543ffba98"
       style="stroke:#377eb8" />
  </defs>
  <sodipodi:namedview
     id="base"
     pagecolor="#ffffff"
     bordercolor="#666666"
     borderopacity="1.0"
     inkscape:pageopacity="0.0"
     inkscape:pageshadow="2"
     inkscape:zoom="3.959798"
     inkscape:cx="100.15076"
     inkscape:cy="91.560539"
     inkscape:document-units="mm"
     inkscape:current-layer="layer1"
     inkscape:document-rotation="0"
     showgrid="false"
     fit-margin-top="0"
     fit-margin-left="0"
     fit-margin-right="0"
     fit-margin-bottom="0"
     inkscape:window-width="1837"
     inkscape:window-height="1051"
     inkscape:window-x="74"
     inkscape:window-y="-9"
     inkscape:window-maximized="1" />
  <metadata
     id="metadata1176">
    <rdf:RDF>
      <cc:Work
         rdf:about="">
        <dc:format>image/svg+xml</dc:format>
        <dc:type
           rdf:resource="http://purl.org/dc/dcmitype/StillImage" />
        <dc:title></dc:title>
      </cc:Work>
    </rdf:RDF>
  </metadata>
  <g
     inkscape:label="Layer 1"
     inkscape:groupmode="layer"
     id="layer1"
     transform="translate(9.8419008,-78.700165)">
    <g
       id="figure_1"
       transform="matrix(0.26458333,0,0,0.26458333,-9.7328115,78.732566)"
       style="stroke-linecap:butt;stroke-linejoin:round">
      <g
         id="patch_1">
        <path
           d="M 0,114.55792 H 136.84031 V 0 H 0 Z"
           style="fill:none"
           id="path8" />
      </g>
      <g
         id="axes_1">
        <g
           id="patch_2">
          <path
             d="m 125.56063,57.278962 c 0,-7.138489 -1.40613,-14.207566 -4.13791,-20.802671 -2.73179,-6.595105 -6.7361,-12.587979 -11.78377,-17.635653 C 104.59127,13.792963 98.598401,9.788653 92.003296,7.056871 85.408192,4.325089 78.339115,2.918962 71.200625,2.918962 c -7.13849,0 -14.207567,1.406127 -20.802671,4.137909 -6.595105,2.731782 -12.587979,6.736092 -17.635654,11.783767 -5.047674,5.047674 -9.051985,11.040548 -11.783766,17.635653 -2.731782,6.595105 -4.137909,13.664182 -4.137909,20.802671 0,7.13849 1.406127,14.207567 4.137909,20.802672 2.731781,6.595104 6.736092,12.587978 11.783766,17.635653 5.047675,5.047673 11.040549,9.051983 17.635654,11.783763 6.595104,2.73178 13.664181,4.13791 20.802671,4.13791 7.13849,0 14.207567,-1.40613 20.802671,-4.13791 6.595105,-2.73178 12.587974,-6.73609 17.635654,-11.783763 5.04767,-5.047675 9.05198,-11.040549 11.78377,-17.635653 2.73178,-6.595105 4.13791,-13.664182 4.13791,-20.802672 m -54.360005,0 c 0,0 0,0 0,0 0,0 0,0 0,0 0,0 0,0 0,0 0,0 0,0 0,0 0,0 0,0 0,0 0,0 0,0 0,0 0,0 0,0 0,0 0,0 0,0 0,0 0,0 0,0 0,0 0,0 0,0 0,0 0,0 0,0 0,0 0,0 0,0 0,0 0,0 0,0 0,0 0,0 0,0 0,0 0,0 0,0 0,0 0,0 0,0 0,0 m 54.360005,0 z"
             style="fill:none"
             id="path11" />
        </g>
        <g
           id="matplotlib.axis_1">
          <g
             id="xtick_1">
            <g
               id="line2d_1">
              <path
                 clip-path="url(#pd6779338c5)"
                 d="M 71.200625,57.278962 H 125.56063"
                 style="fill:none;stroke:#b0b0b0;stroke-width:0.8;stroke-linecap:square"
                 id="path14" />
            </g>
            <g
               id="text_1">
              <text
                 style="font-style:normal;font-weight:normal;font-stretch:normal;font-size:10px;font-family:Arial;text-anchor:middle"
                 x="132.06062"
                 y="59.86412"
                 id="text17">0°</text>
            </g>
          </g>
          <g
             id="xtick_2">
            <g
               id="line2d_2">
              <path
                 clip-path="url(#pd6779338c5)"
                 d="m 71.200625,57.278962 27.18,-47.077141"
                 style="fill:none;stroke:#b0b0b0;stroke-width:0.8;stroke-linecap:square"
                 id="path21" />
            </g>
            <g
               id="text_2">
              <text
                 style="font-style:normal;font-weight:normal;font-stretch:normal;font-size:10px;font-family:Arial;text-anchor:middle"
                 x="101.63062"
                 y="7.1578131"
                 id="text24">60°</text>
            </g>
          </g>
          <g
             id="xtick_3">
            <g
               id="line2d_3">
              <path
                 clip-path="url(#pd6779338c5)"
                 d="m 71.200625,57.278962 -27.18,-47.077141"
                 style="fill:none;stroke:#b0b0b0;stroke-width:0.8;stroke-linecap:square"
                 id="path28" />
            </g>
            <g
               id="text_3">
              <text
                 style="font-style:normal;font-weight:normal;font-stretch:normal;font-size:10px;font-family:Arial;text-anchor:middle"
                 x="40.770626"
                 y="7.1578131"
                 id="text31">120°</text>
            </g>
          </g>
          <g
             id="xtick_4">
            <g
               id="line2d_4">
              <path
                 clip-path="url(#pd6779338c5)"
                 d="m 71.200625,57.278962 h -54.36"
                 style="fill:none;stroke:#b0b0b0;stroke-width:0.8;stroke-linecap:square"
                 id="path35" />
            </g>
            <g
               id="text_4">
              <text
                 style="font-style:normal;font-weight:normal;font-stretch:normal;font-size:10px;font-family:Arial;text-anchor:middle"
                 x="8.8406248"
                 y="59.86412"
                 id="text38">180°</text>
            </g>
          </g>
          <g
             id="xtick_5">
            <g
               id="line2d_5">
              <path
                 clip-path="url(#pd6779338c5)"
                 d="m 71.200625,57.278962 -27.18,47.077138"
                 style="fill:none;stroke:#b0b0b0;stroke-width:0.8;stroke-linecap:square"
                 id="path42" />
            </g>
            <g
               id="text_5">
              <text
                 style="font-style:normal;font-weight:normal;font-stretch:normal;font-size:10px;font-family:Arial;text-anchor:middle"
                 x="40.770626"
                 y="112.57043"
                 id="text45">240°</text>
            </g>
          </g>
          <g
             id="xtick_6">
            <g
               id="line2d_6">
              <path
                 clip-path="url(#pd6779338c5)"
                 d="m 71.200625,57.278962 27.18,47.077138"
                 style="fill:none;stroke:#b0b0b0;stroke-width:0.8;stroke-linecap:square"
                 id="path49" />
            </g>
            <g
               id="text_6">
              <text
                 style="font-style:normal;font-weight:normal;font-stretch:normal;font-size:10px;font-family:Arial;text-anchor:middle"
                 x="101.63062"
                 y="112.57043"
                 id="text52">300°</text>
            </g>
          </g>
        </g>
        <g
           id="matplotlib.axis_2">
          <g
             id="ytick_1">
            <g
               id="line2d_7">
              <path
                 clip-path="url(#pd6779338c5)"
                 d="m 97.105111,57.278962 c 0,-3.401746 -0.670069,-6.770414 -1.971861,-9.913217 -1.301792,-3.142804 -3.209989,-5.998623 -5.615387,-8.404021 -2.405398,-2.405397 -5.261217,-4.313595 -8.40402,-5.615386 -3.142804,-1.301792 -6.511472,-1.971862 -9.913218,-1.971862 -3.401746,0 -6.770414,0.67007 -9.913218,1.971862 -3.142803,1.301791 -5.998622,3.209989 -8.40402,5.615386 -2.405398,2.405398 -4.313595,5.261217 -5.615387,8.404021 -1.301792,3.142803 -1.971861,6.511471 -1.971861,9.913217 0,3.401746 0.670069,6.770415 1.971861,9.913218 1.301792,3.142804 3.209989,5.998623 5.615387,8.40402 2.405398,2.405398 5.261217,4.313595 8.40402,5.615387 3.142804,1.301792 6.511472,1.971862 9.913218,1.971862 3.401746,0 6.770414,-0.67007 9.913218,-1.971862 3.142803,-1.301792 5.998622,-3.209989 8.40402,-5.615387 2.405398,-2.405397 4.313595,-5.261216 5.615387,-8.40402 1.301792,-3.142803 1.971861,-6.511472 1.971861,-9.913218"
                 style="fill:none;stroke:#b0b0b0;stroke-width:0.8;stroke-linecap:square"
                 id="path57" />
            </g>
          </g>
          <g
             id="ytick_2">
            <g
               id="line2d_8">
              <path
                 clip-path="url(#pd6779338c5)"
                 d="m 123.0096,57.278962 c 0,-6.803492 -1.34014,-13.540828 -3.94372,-19.826435 C 116.46229,31.16692 112.6459,25.455282 107.8351,20.644486 103.02431,15.833691 97.312668,12.017296 91.027061,9.413713 84.741454,6.810129 78.004117,5.46999 71.200625,5.46999 c -6.803492,0 -13.540829,1.340139 -19.826436,3.943723 -6.285607,2.603583 -11.997245,6.419978 -16.80804,11.230773 -4.810795,4.810796 -8.62719,10.522434 -11.230774,16.808041 -2.603583,6.285607 -3.943723,13.022943 -3.943723,19.826435 0,6.803492 1.34014,13.540829 3.943723,19.826436 2.603584,6.285607 6.419979,11.997245 11.230774,16.80804 4.810795,4.810796 10.522433,8.627192 16.80804,11.230772 6.285607,2.60359 13.022944,3.94373 19.826436,3.94373 6.803492,0 13.540829,-1.34014 19.826436,-3.94373 6.285607,-2.60358 11.997249,-6.419976 16.808039,-11.230772 4.8108,-4.810795 8.62719,-10.522433 11.23078,-16.80804 2.60358,-6.285607 3.94372,-13.022944 3.94372,-19.826436"
                 style="fill:none;stroke:#b0b0b0;stroke-width:0.8;stroke-linecap:square"
                 id="path61" />
            </g>
          </g>
        </g>
        <g
           id="line2d_9">
          <path
             clip-path="url(#pd6779338c5)"
             d="m 103.72911,56.711185 -0.77637,-2.210158 -3.313256,-1.726348 -6.035327,-0.667913 -6.823578,0.408858 -6.605787,1.31847 -5.355304,1.757375 -2.69561,1.17572 0.06147,-0.127714 2.707432,-2.142739 4.418155,-4.267886 5.438928,-6.499174 4.18494,-6.851495 3.286178,-7.493909 1.472051,-6.740753 -0.7667,-4.563311 -3.469839,0.04524 -4.760738,3.995101 -4.57097,5.967797 -4.056589,8.107193 -2.80908,8.088036 -1.545901,7.138489 -0.483586,4.199468 -0.109543,0.121899 L 70.563393,52.090418 68.74472,44.64559 65.27275,35.156198 60.327875,25.701283 54.304357,17.4714 48.678449,13.072845 44.519183,12.86871 l -2.09156,3.321502 0.780564,6.522748 3.909429,8.740757 6.271755,9.215941 6.818339,7.707153 5.993649,5.401418 3.630928,2.678472 0.463541,0.361292 -3.278424,-1.314544 -5.88305,-1.690362 -7.799333,-1.321075 -7.291334,-0.103235 -5.912125,1.074762 -3.424581,2.00655 -1.09528,2.428441 1.214542,2.389213 4.640513,1.701443 6.579777,0.635671 7.042012,-0.419917 6.651289,-1.294452 5.689052,-1.872852 2.689278,-1.158712 -0.06069,0.142484 -2.394568,1.92361 -4.024215,3.907726 -4.304963,5.293329 -3.371455,5.662463 -1.639763,4.867638 -0.09249,3.733497 1.830609,1.17977 3.12732,-1.546291 3.454859,-3.468293 3.067015,-4.335187 2.465703,-4.857318 1.733299,-4.947753 0.948944,-4.237743 0.321153,-2.676796 0.07894,-0.148083 0.390163,2.54955 1.143407,4.540299 2.194098,5.941901 2.922038,5.353682 3.560556,4.711231 3.436613,2.70799 2.992014,0.891919 0.955393,-2.583077 0.660534,-2.59453 -2.082968,-5.209108 -3.734551,-5.751688 -4.605009,-5.262293 -4.189785,-3.798204 -2.624746,-1.944725 -0.372507,-0.287994 2.579536,1.035004 4.638172,1.333922 5.971976,0.995286 6.407959,0.223741 5.783024,-0.742992 4.166451,-1.616847"
             style="fill:none;stroke:#377eb8;stroke-linecap:square"
             id="path66" />
          <defs
             id="defs69">
            <path
               d="M 0,0.75 C 0.198902,0.75 0.389685,0.670975 0.53033,0.53033 0.670975,0.389685 0.75,0.198902 0.75,0 0.75,-0.198902 0.670975,-0.389685 0.53033,-0.53033 0.389685,-0.670975 0.198902,-0.75 0,-0.75 c -0.198902,0 -0.389685,0.079025 -0.53033,0.21967 C -0.670975,-0.389685 -0.75,-0.198902 -0.75,0 c 0,0.198902 0.079025,0.389685 0.21967,0.53033 C -0.389685,0.670975 -0.198902,0.75 0,0.75 Z"
               id="path1973"
               style="stroke:#377eb8" />
          </defs>
          <g
             clip-path="url(#pd6779338c5)"
             id="g251">
            <use
               style="fill:#377eb8;stroke:#377eb8"
               x="103.72912"
               xlink:href="#me543ffba98"
               y="56.711185"
               id="use71"
               width="100%"
               height="100%" />
            <use
               style="fill:#377eb8;stroke:#377eb8"
               x="102.95274"
               xlink:href="#me543ffba98"
               y="54.501026"
               id="use73"
               width="100%"
               height="100%" />
            <use
               style="fill:#377eb8;stroke:#377eb8"
               x="99.639481"
               xlink:href="#me543ffba98"
               y="52.774677"
               id="use75"
               width="100%"
               height="100%" />
            <use
               style="fill:#377eb8;stroke:#377eb8"
               x="93.604156"
               xlink:href="#me543ffba98"
               y="52.106766"
               id="use77"
               width="100%"
               height="100%" />
            <use
               style="fill:#377eb8;stroke:#377eb8"
               x="86.780579"
               xlink:href="#me543ffba98"
               y="52.515625"
               id="use79"
               width="100%"
               height="100%" />
            <use
               style="fill:#377eb8;stroke:#377eb8"
               x="80.174789"
               xlink:href="#me543ffba98"
               y="53.834095"
               id="use81"
               width="100%"
               height="100%" />
            <use
               style="fill:#377eb8;stroke:#377eb8"
               x="74.819489"
               xlink:href="#me543ffba98"
               y="55.591469"
               id="use83"
               width="100%"
               height="100%" />
            <use
               style="fill:#377eb8;stroke:#377eb8"
               x="72.123878"
               xlink:href="#me543ffba98"
               y="56.767189"
               id="use85"
               width="100%"
               height="100%" />
            <use
               style="fill:#377eb8;stroke:#377eb8"
               x="72.185349"
               xlink:href="#me543ffba98"
               y="56.639477"
               id="use87"
               width="100%"
               height="100%" />
            <use
               style="fill:#377eb8;stroke:#377eb8"
               x="74.892776"
               xlink:href="#me543ffba98"
               y="54.496735"
               id="use89"
               width="100%"
               height="100%" />
            <use
               style="fill:#377eb8;stroke:#377eb8"
               x="79.310936"
               xlink:href="#me543ffba98"
               y="50.228851"
               id="use91"
               width="100%"
               height="100%" />
            <use
               style="fill:#377eb8;stroke:#377eb8"
               x="84.749863"
               xlink:href="#me543ffba98"
               y="43.729675"
               id="use93"
               width="100%"
               height="100%" />
            <use
               style="fill:#377eb8;stroke:#377eb8"
               x="88.934799"
               xlink:href="#me543ffba98"
               y="36.878181"
               id="use95"
               width="100%"
               height="100%" />
            <use
               style="fill:#377eb8;stroke:#377eb8"
               x="92.220978"
               xlink:href="#me543ffba98"
               y="29.384272"
               id="use97"
               width="100%"
               height="100%" />
            <use
               style="fill:#377eb8;stroke:#377eb8"
               x="93.693031"
               xlink:href="#me543ffba98"
               y="22.643518"
               id="use99"
               width="100%"
               height="100%" />
            <use
               style="fill:#377eb8;stroke:#377eb8"
               x="92.926331"
               xlink:href="#me543ffba98"
               y="18.080208"
               id="use101"
               width="100%"
               height="100%" />
            <use
               style="fill:#377eb8;stroke:#377eb8"
               x="89.45649"
               xlink:href="#me543ffba98"
               y="18.125452"
               id="use103"
               width="100%"
               height="100%" />
            <use
               style="fill:#377eb8;stroke:#377eb8"
               x="84.695755"
               xlink:href="#me543ffba98"
               y="22.120552"
               id="use105"
               width="100%"
               height="100%" />
            <use
               style="fill:#377eb8;stroke:#377eb8"
               x="80.124786"
               xlink:href="#me543ffba98"
               y="28.08835"
               id="use107"
               width="100%"
               height="100%" />
            <use
               style="fill:#377eb8;stroke:#377eb8"
               x="76.068192"
               xlink:href="#me543ffba98"
               y="36.195541"
               id="use109"
               width="100%"
               height="100%" />
            <use
               style="fill:#377eb8;stroke:#377eb8"
               x="73.259117"
               xlink:href="#me543ffba98"
               y="44.283581"
               id="use111"
               width="100%"
               height="100%" />
            <use
               style="fill:#377eb8;stroke:#377eb8"
               x="71.713211"
               xlink:href="#me543ffba98"
               y="51.42207"
               id="use113"
               width="100%"
               height="100%" />
            <use
               style="fill:#377eb8;stroke:#377eb8"
               x="71.22963"
               xlink:href="#me543ffba98"
               y="55.621536"
               id="use115"
               width="100%"
               height="100%" />
            <use
               style="fill:#377eb8;stroke:#377eb8"
               x="71.120087"
               xlink:href="#me543ffba98"
               y="55.743435"
               id="use117"
               width="100%"
               height="100%" />
            <use
               style="fill:#377eb8;stroke:#377eb8"
               x="70.563393"
               xlink:href="#me543ffba98"
               y="52.090424"
               id="use119"
               width="100%"
               height="100%" />
            <use
               style="fill:#377eb8;stroke:#377eb8"
               x="68.74472"
               xlink:href="#me543ffba98"
               y="44.645596"
               id="use121"
               width="100%"
               height="100%" />
            <use
               style="fill:#377eb8;stroke:#377eb8"
               x="65.272751"
               xlink:href="#me543ffba98"
               y="35.1562"
               id="use123"
               width="100%"
               height="100%" />
            <use
               style="fill:#377eb8;stroke:#377eb8"
               x="60.327873"
               xlink:href="#me543ffba98"
               y="25.701286"
               id="use125"
               width="100%"
               height="100%" />
            <use
               style="fill:#377eb8;stroke:#377eb8"
               x="54.304356"
               xlink:href="#me543ffba98"
               y="17.471403"
               id="use127"
               width="100%"
               height="100%" />
            <use
               style="fill:#377eb8;stroke:#377eb8"
               x="48.678448"
               xlink:href="#me543ffba98"
               y="13.072849"
               id="use129"
               width="100%"
               height="100%" />
            <use
               style="fill:#377eb8;stroke:#377eb8"
               x="44.51918"
               xlink:href="#me543ffba98"
               y="12.868714"
               id="use131"
               width="100%"
               height="100%" />
            <use
               style="fill:#377eb8;stroke:#377eb8"
               x="42.42762"
               xlink:href="#me543ffba98"
               y="16.190216"
               id="use133"
               width="100%"
               height="100%" />
            <use
               style="fill:#377eb8;stroke:#377eb8"
               x="43.208183"
               xlink:href="#me543ffba98"
               y="22.712963"
               id="use135"
               width="100%"
               height="100%" />
            <use
               style="fill:#377eb8;stroke:#377eb8"
               x="47.117615"
               xlink:href="#me543ffba98"
               y="31.45372"
               id="use137"
               width="100%"
               height="100%" />
            <use
               style="fill:#377eb8;stroke:#377eb8"
               x="53.38937"
               xlink:href="#me543ffba98"
               y="40.669662"
               id="use139"
               width="100%"
               height="100%" />
            <use
               style="fill:#377eb8;stroke:#377eb8"
               x="60.207706"
               xlink:href="#me543ffba98"
               y="48.376816"
               id="use141"
               width="100%"
               height="100%" />
            <use
               style="fill:#377eb8;stroke:#377eb8"
               x="66.201355"
               xlink:href="#me543ffba98"
               y="53.778233"
               id="use143"
               width="100%"
               height="100%" />
            <use
               style="fill:#377eb8;stroke:#377eb8"
               x="69.832283"
               xlink:href="#me543ffba98"
               y="56.456703"
               id="use145"
               width="100%"
               height="100%" />
            <use
               style="fill:#377eb8;stroke:#377eb8"
               x="70.29583"
               xlink:href="#me543ffba98"
               y="56.817997"
               id="use147"
               width="100%"
               height="100%" />
            <use
               style="fill:#377eb8;stroke:#377eb8"
               x="67.017403"
               xlink:href="#me543ffba98"
               y="55.503452"
               id="use149"
               width="100%"
               height="100%" />
            <use
               style="fill:#377eb8;stroke:#377eb8"
               x="61.134354"
               xlink:href="#me543ffba98"
               y="53.813091"
               id="use151"
               width="100%"
               height="100%" />
            <use
               style="fill:#377eb8;stroke:#377eb8"
               x="53.335018"
               xlink:href="#me543ffba98"
               y="52.492016"
               id="use153"
               width="100%"
               height="100%" />
            <use
               style="fill:#377eb8;stroke:#377eb8"
               x="46.043686"
               xlink:href="#me543ffba98"
               y="52.388783"
               id="use155"
               width="100%"
               height="100%" />
            <use
               style="fill:#377eb8;stroke:#377eb8"
               x="40.131561"
               xlink:href="#me543ffba98"
               y="53.463543"
               id="use157"
               width="100%"
               height="100%" />
            <use
               style="fill:#377eb8;stroke:#377eb8"
               x="36.706978"
               xlink:href="#me543ffba98"
               y="55.470093"
               id="use159"
               width="100%"
               height="100%" />
            <use
               style="fill:#377eb8;stroke:#377eb8"
               x="35.611698"
               xlink:href="#me543ffba98"
               y="57.898533"
               id="use161"
               width="100%"
               height="100%" />
            <use
               style="fill:#377eb8;stroke:#377eb8"
               x="36.826241"
               xlink:href="#me543ffba98"
               y="60.287746"
               id="use163"
               width="100%"
               height="100%" />
            <use
               style="fill:#377eb8;stroke:#377eb8"
               x="41.466755"
               xlink:href="#me543ffba98"
               y="61.989189"
               id="use165"
               width="100%"
               height="100%" />
            <use
               style="fill:#377eb8;stroke:#377eb8"
               x="48.046532"
               xlink:href="#me543ffba98"
               y="62.624863"
               id="use167"
               width="100%"
               height="100%" />
            <use
               style="fill:#377eb8;stroke:#377eb8"
               x="55.088543"
               xlink:href="#me543ffba98"
               y="62.204945"
               id="use169"
               width="100%"
               height="100%" />
            <use
               style="fill:#377eb8;stroke:#377eb8"
               x="61.739834"
               xlink:href="#me543ffba98"
               y="60.910492"
               id="use171"
               width="100%"
               height="100%" />
            <use
               style="fill:#377eb8;stroke:#377eb8"
               x="67.428886"
               xlink:href="#me543ffba98"
               y="59.03764"
               id="use173"
               width="100%"
               height="100%" />
            <use
               style="fill:#377eb8;stroke:#377eb8"
               x="70.118164"
               xlink:href="#me543ffba98"
               y="57.878929"
               id="use175"
               width="100%"
               height="100%" />
            <use
               style="fill:#377eb8;stroke:#377eb8"
               x="70.057472"
               xlink:href="#me543ffba98"
               y="58.021412"
               id="use177"
               width="100%"
               height="100%" />
            <use
               style="fill:#377eb8;stroke:#377eb8"
               x="67.662903"
               xlink:href="#me543ffba98"
               y="59.945023"
               id="use179"
               width="100%"
               height="100%" />
            <use
               style="fill:#377eb8;stroke:#377eb8"
               x="63.638691"
               xlink:href="#me543ffba98"
               y="63.852749"
               id="use181"
               width="100%"
               height="100%" />
            <use
               style="fill:#377eb8;stroke:#377eb8"
               x="59.333729"
               xlink:href="#me543ffba98"
               y="69.14608"
               id="use183"
               width="100%"
               height="100%" />
            <use
               style="fill:#377eb8;stroke:#377eb8"
               x="55.962273"
               xlink:href="#me543ffba98"
               y="74.80854"
               id="use185"
               width="100%"
               height="100%" />
            <use
               style="fill:#377eb8;stroke:#377eb8"
               x="54.32251"
               xlink:href="#me543ffba98"
               y="79.676178"
               id="use187"
               width="100%"
               height="100%" />
            <use
               style="fill:#377eb8;stroke:#377eb8"
               x="54.230015"
               xlink:href="#me543ffba98"
               y="83.409676"
               id="use189"
               width="100%"
               height="100%" />
            <use
               style="fill:#377eb8;stroke:#377eb8"
               x="56.060623"
               xlink:href="#me543ffba98"
               y="84.589447"
               id="use191"
               width="100%"
               height="100%" />
            <use
               style="fill:#377eb8;stroke:#377eb8"
               x="59.187943"
               xlink:href="#me543ffba98"
               y="83.043152"
               id="use193"
               width="100%"
               height="100%" />
            <use
               style="fill:#377eb8;stroke:#377eb8"
               x="62.642803"
               xlink:href="#me543ffba98"
               y="79.57486"
               id="use195"
               width="100%"
               height="100%" />
            <use
               style="fill:#377eb8;stroke:#377eb8"
               x="65.709816"
               xlink:href="#me543ffba98"
               y="75.239677"
               id="use197"
               width="100%"
               height="100%" />
            <use
               style="fill:#377eb8;stroke:#377eb8"
               x="68.175522"
               xlink:href="#me543ffba98"
               y="70.382355"
               id="use199"
               width="100%"
               height="100%" />
            <use
               style="fill:#377eb8;stroke:#377eb8"
               x="69.908821"
               xlink:href="#me543ffba98"
               y="65.434601"
               id="use201"
               width="100%"
               height="100%" />
            <use
               style="fill:#377eb8;stroke:#377eb8"
               x="70.857765"
               xlink:href="#me543ffba98"
               y="61.196861"
               id="use203"
               width="100%"
               height="100%" />
            <use
               style="fill:#377eb8;stroke:#377eb8"
               x="71.178917"
               xlink:href="#me543ffba98"
               y="58.520065"
               id="use205"
               width="100%"
               height="100%" />
            <use
               style="fill:#377eb8;stroke:#377eb8"
               x="71.257851"
               xlink:href="#me543ffba98"
               y="58.371983"
               id="use207"
               width="100%"
               height="100%" />
            <use
               style="fill:#377eb8;stroke:#377eb8"
               x="71.648018"
               xlink:href="#me543ffba98"
               y="60.921532"
               id="use209"
               width="100%"
               height="100%" />
            <use
               style="fill:#377eb8;stroke:#377eb8"
               x="72.791428"
               xlink:href="#me543ffba98"
               y="65.46183"
               id="use211"
               width="100%"
               height="100%" />
            <use
               style="fill:#377eb8;stroke:#377eb8"
               x="74.985519"
               xlink:href="#me543ffba98"
               y="71.403732"
               id="use213"
               width="100%"
               height="100%" />
            <use
               style="fill:#377eb8;stroke:#377eb8"
               x="77.907562"
               xlink:href="#me543ffba98"
               y="76.757416"
               id="use215"
               width="100%"
               height="100%" />
            <use
               style="fill:#377eb8;stroke:#377eb8"
               x="81.468117"
               xlink:href="#me543ffba98"
               y="81.468643"
               id="use217"
               width="100%"
               height="100%" />
            <use
               style="fill:#377eb8;stroke:#377eb8"
               x="84.904732"
               xlink:href="#me543ffba98"
               y="84.176636"
               id="use219"
               width="100%"
               height="100%" />
            <use
               style="fill:#377eb8;stroke:#377eb8"
               x="87.896744"
               xlink:href="#me543ffba98"
               y="85.06855"
               id="use221"
               width="100%"
               height="100%" />
            <use
               style="fill:#377eb8;stroke:#377eb8"
               x="88.852135"
               xlink:href="#me543ffba98"
               y="82.485474"
               id="use223"
               width="100%"
               height="100%" />
            <use
               style="fill:#377eb8;stroke:#377eb8"
               x="89.512672"
               xlink:href="#me543ffba98"
               y="79.890945"
               id="use225"
               width="100%"
               height="100%" />
            <use
               style="fill:#377eb8;stroke:#377eb8"
               x="87.429703"
               xlink:href="#me543ffba98"
               y="74.681839"
               id="use227"
               width="100%"
               height="100%" />
            <use
               style="fill:#377eb8;stroke:#377eb8"
               x="83.695152"
               xlink:href="#me543ffba98"
               y="68.930153"
               id="use229"
               width="100%"
               height="100%" />
            <use
               style="fill:#377eb8;stroke:#377eb8"
               x="79.090141"
               xlink:href="#me543ffba98"
               y="63.667858"
               id="use231"
               width="100%"
               height="100%" />
            <use
               style="fill:#377eb8;stroke:#377eb8"
               x="74.90036"
               xlink:href="#me543ffba98"
               y="59.869652"
               id="use233"
               width="100%"
               height="100%" />
            <use
               style="fill:#377eb8;stroke:#377eb8"
               x="72.275612"
               xlink:href="#me543ffba98"
               y="57.924927"
               id="use235"
               width="100%"
               height="100%" />
            <use
               style="fill:#377eb8;stroke:#377eb8"
               x="71.903107"
               xlink:href="#me543ffba98"
               y="57.636932"
               id="use237"
               width="100%"
               height="100%" />
            <use
               style="fill:#377eb8;stroke:#377eb8"
               x="74.482643"
               xlink:href="#me543ffba98"
               y="58.67194"
               id="use239"
               width="100%"
               height="100%" />
            <use
               style="fill:#377eb8;stroke:#377eb8"
               x="79.120811"
               xlink:href="#me543ffba98"
               y="60.005859"
               id="use241"
               width="100%"
               height="100%" />
            <use
               style="fill:#377eb8;stroke:#377eb8"
               x="85.092789"
               xlink:href="#me543ffba98"
               y="61.001144"
               id="use243"
               width="100%"
               height="100%" />
            <use
               style="fill:#377eb8;stroke:#377eb8"
               x="91.500748"
               xlink:href="#me543ffba98"
               y="61.224888"
               id="use245"
               width="100%"
               height="100%" />
            <use
               style="fill:#377eb8;stroke:#377eb8"
               x="97.283768"
               xlink:href="#me543ffba98"
               y="60.481895"
               id="use247"
               width="100%"
               height="100%" />
            <use
               style="fill:#377eb8;stroke:#377eb8"
               x="101.45023"
               xlink:href="#me543ffba98"
               y="58.865047"
               id="use249"
               width="100%"
               height="100%" />
          </g>
        </g>
      </g>
    </g>
    <text
       xml:space="preserve"
       style="font-size:2.82223px;line-height:1.25;font-family:Arial;-inkscape-font-specification:Arial;stroke-width:0.264583;stroke-linecap:butt;stroke-linejoin:round"
       x="-3.8416102"
       y="115.74162"
       id="text980"><tspan
         sodipodi:role="line"
         id="tspan978"
         x="-3.8416102"
         y="115.74162"
         style="stroke-width:0.264583">Intensity (Arb. Unit)</tspan></text>
  </g>
</svg>
