<?xml version="1.0" encoding="utf-8" standalone="no"?>
<!DOCTYPE svg PUBLIC "-//W3C//DTD SVG 1.1//EN"
  "http://www.w3.org/Graphics/SVG/1.1/DTD/svg11.dtd">
<!-- Created with matplotlib (https://matplotlib.org/) -->
<svg height="114.557925pt" version="1.1" viewBox="0 0 136.840312 114.557925" width="136.840312pt" xmlns="http://www.w3.org/2000/svg" xmlns:xlink="http://www.w3.org/1999/xlink">
 <metadata>
  <rdf:RDF xmlns:cc="http://creativecommons.org/ns#" xmlns:dc="http://purl.org/dc/elements/1.1/" xmlns:rdf="http://www.w3.org/1999/02/22-rdf-syntax-ns#">
   <cc:Work>
    <dc:type rdf:resource="http://purl.org/dc/dcmitype/StillImage"/>
    <dc:date>2020-12-07T22:18:00.780250</dc:date>
    <dc:format>image/svg+xml</dc:format>
    <dc:creator>
     <cc:Agent>
      <dc:title>Matplotlib v3.3.0, https://matplotlib.org/</dc:title>
     </cc:Agent>
    </dc:creator>
   </cc:Work>
  </rdf:RDF>
 </metadata>
 <defs>
  <style type="text/css">*{stroke-linecap:butt;stroke-linejoin:round;}</style>
 </defs>
 <g id="figure_1">
  <g id="patch_1">
   <path d="M 0 114.557925 
L 136.840312 114.557925 
L 136.840312 0 
L 0 0 
z
" style="fill:none;"/>
  </g>
  <g id="axes_1">
   <g id="patch_2">
    <path d="M 125.560625 57.278962 
C 125.560625 50.140473 124.154498 43.071396 121.422716 36.476291 
C 118.690935 29.881186 114.686624 23.888312 109.63895 18.840638 
C 104.591275 13.792963 98.598401 9.788653 92.003296 7.056871 
C 85.408192 4.325089 78.339115 2.918962 71.200625 2.918962 
C 64.062135 2.918962 56.993058 4.325089 50.397954 7.056871 
C 43.802849 9.788653 37.809975 13.792963 32.7623 18.840638 
C 27.714626 23.888312 23.710315 29.881186 20.978534 36.476291 
C 18.246752 43.071396 16.840625 50.140473 16.840625 57.278962 
C 16.840625 64.417452 18.246752 71.486529 20.978534 78.081634 
C 23.710315 84.676738 27.714626 90.669612 32.7623 95.717287 
C 37.809975 100.764961 43.802849 104.769272 50.397954 107.501054 
C 56.993058 110.232835 64.062135 111.638962 71.200625 111.638962 
C 78.339115 111.638962 85.408192 110.232835 92.003296 107.501054 
C 98.598401 104.769272 104.591275 100.764961 109.63895 95.717287 
C 114.686624 90.669612 118.690935 84.676738 121.422716 78.081634 
C 124.154498 71.486529 125.560625 64.417452 125.560625 57.278962 
M 71.200625 57.278962 
C 71.200625 57.278962 71.200625 57.278962 71.200625 57.278962 
C 71.200625 57.278962 71.200625 57.278962 71.200625 57.278962 
C 71.200625 57.278962 71.200625 57.278962 71.200625 57.278962 
C 71.200625 57.278962 71.200625 57.278962 71.200625 57.278962 
C 71.200625 57.278962 71.200625 57.278962 71.200625 57.278962 
C 71.200625 57.278962 71.200625 57.278962 71.200625 57.278962 
C 71.200625 57.278962 71.200625 57.278962 71.200625 57.278962 
C 71.200625 57.278962 71.200625 57.278962 71.200625 57.278962 
C 71.200625 57.278962 71.200625 57.278962 71.200625 57.278962 
C 71.200625 57.278962 71.200625 57.278962 71.200625 57.278962 
C 71.200625 57.278962 71.200625 57.278962 71.200625 57.278962 
C 71.200625 57.278962 71.200625 57.278962 71.200625 57.278962 
C 71.200625 57.278962 71.200625 57.278962 71.200625 57.278962 
C 71.200625 57.278962 71.200625 57.278962 71.200625 57.278962 
C 71.200625 57.278962 71.200625 57.278962 71.200625 57.278962 
C 71.200625 57.278962 71.200625 57.278962 71.200625 57.278962 
M 125.560625 57.278962 
z
" style="fill:none;"/>
   </g>
   <g id="matplotlib.axis_1">
    <g id="xtick_1">
     <g id="line2d_1">
      <path clip-path="url(#pf9cc46cb81)" d="M 71.200625 57.278962 
L 125.560625 57.278962 
" style="fill:none;stroke:#b0b0b0;stroke-linecap:square;stroke-width:0.8;"/>
     </g>
     <g id="text_1">
      <!-- 0° -->
      <g transform="translate(127.280938 59.864119)scale(0.1 -0.1)">
       <defs>
        <path d="M 4.15625 35.296875 
Q 4.15625 48 6.765625 55.734375 
Q 9.375 63.484375 14.515625 67.671875 
Q 19.671875 71.875 27.484375 71.875 
Q 33.25 71.875 37.59375 69.546875 
Q 41.9375 67.234375 44.765625 62.859375 
Q 47.609375 58.5 49.21875 52.21875 
Q 50.828125 45.953125 50.828125 35.296875 
Q 50.828125 22.703125 48.234375 14.96875 
Q 45.65625 7.234375 40.5 3 
Q 35.359375 -1.21875 27.484375 -1.21875 
Q 17.140625 -1.21875 11.234375 6.203125 
Q 4.15625 15.140625 4.15625 35.296875 
z
M 13.1875 35.296875 
Q 13.1875 17.671875 17.3125 11.828125 
Q 21.4375 6 27.484375 6 
Q 33.546875 6 37.671875 11.859375 
Q 41.796875 17.71875 41.796875 35.296875 
Q 41.796875 52.984375 37.671875 58.78125 
Q 33.546875 64.59375 27.390625 64.59375 
Q 21.34375 64.59375 17.71875 59.46875 
Q 13.1875 52.9375 13.1875 35.296875 
z
" id="ArialMT-48"/>
        <path d="M 6.25 59.28125 
Q 6.25 64.890625 10.21875 68.84375 
Q 14.203125 72.796875 19.78125 72.796875 
Q 25.4375 72.796875 29.390625 68.84375 
Q 33.34375 64.890625 33.34375 59.28125 
Q 33.34375 53.65625 29.359375 49.671875 
Q 25.390625 45.703125 19.78125 45.703125 
Q 14.203125 45.703125 10.21875 49.65625 
Q 6.25 53.609375 6.25 59.28125 
z
M 11.578125 59.28125 
Q 11.578125 55.859375 13.984375 53.4375 
Q 16.40625 51.03125 19.828125 51.03125 
Q 23.1875 51.03125 25.609375 53.4375 
Q 28.03125 55.859375 28.03125 59.28125 
Q 28.03125 62.703125 25.609375 65.109375 
Q 23.1875 67.53125 19.828125 67.53125 
Q 16.40625 67.53125 13.984375 65.109375 
Q 11.578125 62.703125 11.578125 59.28125 
z
" id="ArialMT-176"/>
       </defs>
       <use xlink:href="#ArialMT-48"/>
       <use x="55.615234" xlink:href="#ArialMT-176"/>
      </g>
     </g>
    </g>
    <g id="xtick_2">
     <g id="line2d_2">
      <path clip-path="url(#pf9cc46cb81)" d="M 71.200625 57.278962 
L 98.380625 10.201821 
" style="fill:none;stroke:#b0b0b0;stroke-linecap:square;stroke-width:0.8;"/>
     </g>
     <g id="text_2">
      <!-- 60° -->
      <g transform="translate(94.070469 7.157813)scale(0.1 -0.1)">
       <defs>
        <path d="M 49.75 54.046875 
L 41.015625 53.375 
Q 39.84375 58.546875 37.703125 60.890625 
Q 34.125 64.65625 28.90625 64.65625 
Q 24.703125 64.65625 21.53125 62.3125 
Q 17.390625 59.28125 14.984375 53.46875 
Q 12.59375 47.65625 12.5 36.921875 
Q 15.671875 41.75 20.265625 44.09375 
Q 24.859375 46.4375 29.890625 46.4375 
Q 38.671875 46.4375 44.84375 39.96875 
Q 51.03125 33.5 51.03125 23.25 
Q 51.03125 16.5 48.125 10.71875 
Q 45.21875 4.9375 40.140625 1.859375 
Q 35.0625 -1.21875 28.609375 -1.21875 
Q 17.625 -1.21875 10.6875 6.859375 
Q 3.765625 14.9375 3.765625 33.5 
Q 3.765625 54.25 11.421875 63.671875 
Q 18.109375 71.875 29.4375 71.875 
Q 37.890625 71.875 43.28125 67.140625 
Q 48.6875 62.40625 49.75 54.046875 
z
M 13.875 23.1875 
Q 13.875 18.65625 15.796875 14.5 
Q 17.71875 10.359375 21.1875 8.171875 
Q 24.65625 6 28.46875 6 
Q 34.03125 6 38.03125 10.484375 
Q 42.046875 14.984375 42.046875 22.703125 
Q 42.046875 30.125 38.078125 34.390625 
Q 34.125 38.671875 28.125 38.671875 
Q 22.171875 38.671875 18.015625 34.390625 
Q 13.875 30.125 13.875 23.1875 
z
" id="ArialMT-54"/>
       </defs>
       <use xlink:href="#ArialMT-54"/>
       <use x="55.615234" xlink:href="#ArialMT-48"/>
       <use x="111.230469" xlink:href="#ArialMT-176"/>
      </g>
     </g>
    </g>
    <g id="xtick_3">
     <g id="line2d_3">
      <path clip-path="url(#pf9cc46cb81)" d="M 71.200625 57.278962 
L 44.020625 10.201821 
" style="fill:none;stroke:#b0b0b0;stroke-linecap:square;stroke-width:0.8;"/>
     </g>
     <g id="text_3">
      <!-- 120° -->
      <g transform="translate(30.43 7.157813)scale(0.1 -0.1)">
       <defs>
        <path d="M 37.25 0 
L 28.46875 0 
L 28.46875 56 
Q 25.296875 52.984375 20.140625 49.953125 
Q 14.984375 46.921875 10.890625 45.40625 
L 10.890625 53.90625 
Q 18.265625 57.375 23.78125 62.296875 
Q 29.296875 67.234375 31.59375 71.875 
L 37.25 71.875 
z
" id="ArialMT-49"/>
        <path d="M 50.34375 8.453125 
L 50.34375 0 
L 3.03125 0 
Q 2.9375 3.171875 4.046875 6.109375 
Q 5.859375 10.9375 9.828125 15.625 
Q 13.8125 20.3125 21.34375 26.46875 
Q 33.015625 36.03125 37.109375 41.625 
Q 41.21875 47.21875 41.21875 52.203125 
Q 41.21875 57.421875 37.46875 61 
Q 33.734375 64.59375 27.734375 64.59375 
Q 21.390625 64.59375 17.578125 60.78125 
Q 13.765625 56.984375 13.71875 50.25 
L 4.6875 51.171875 
Q 5.609375 61.28125 11.65625 66.578125 
Q 17.71875 71.875 27.9375 71.875 
Q 38.234375 71.875 44.234375 66.15625 
Q 50.25 60.453125 50.25 52 
Q 50.25 47.703125 48.484375 43.546875 
Q 46.734375 39.40625 42.65625 34.8125 
Q 38.578125 30.21875 29.109375 22.21875 
Q 21.1875 15.578125 18.9375 13.203125 
Q 16.703125 10.84375 15.234375 8.453125 
z
" id="ArialMT-50"/>
       </defs>
       <use xlink:href="#ArialMT-49"/>
       <use x="55.615234" xlink:href="#ArialMT-50"/>
       <use x="111.230469" xlink:href="#ArialMT-48"/>
       <use x="166.845703" xlink:href="#ArialMT-176"/>
      </g>
     </g>
    </g>
    <g id="xtick_4">
     <g id="line2d_4">
      <path clip-path="url(#pf9cc46cb81)" d="M 71.200625 57.278962 
L 16.840625 57.278962 
" style="fill:none;stroke:#b0b0b0;stroke-linecap:square;stroke-width:0.8;"/>
     </g>
     <g id="text_4">
      <!-- 180° -->
      <g transform="translate(0 59.864119)scale(0.1 -0.1)">
       <defs>
        <path d="M 17.671875 38.8125 
Q 12.203125 40.828125 9.5625 44.53125 
Q 6.9375 48.25 6.9375 53.421875 
Q 6.9375 61.234375 12.546875 66.546875 
Q 18.171875 71.875 27.484375 71.875 
Q 36.859375 71.875 42.578125 66.421875 
Q 48.296875 60.984375 48.296875 53.171875 
Q 48.296875 48.1875 45.671875 44.5 
Q 43.0625 40.828125 37.75 38.8125 
Q 44.34375 36.671875 47.78125 31.875 
Q 51.21875 27.09375 51.21875 20.453125 
Q 51.21875 11.28125 44.71875 5.03125 
Q 38.234375 -1.21875 27.640625 -1.21875 
Q 17.046875 -1.21875 10.546875 5.046875 
Q 4.046875 11.328125 4.046875 20.703125 
Q 4.046875 27.6875 7.59375 32.390625 
Q 11.140625 37.109375 17.671875 38.8125 
z
M 15.921875 53.71875 
Q 15.921875 48.640625 19.1875 45.40625 
Q 22.46875 42.1875 27.6875 42.1875 
Q 32.765625 42.1875 36.015625 45.375 
Q 39.265625 48.578125 39.265625 53.21875 
Q 39.265625 58.0625 35.90625 61.359375 
Q 32.5625 64.65625 27.59375 64.65625 
Q 22.5625 64.65625 19.234375 61.421875 
Q 15.921875 58.203125 15.921875 53.71875 
z
M 13.09375 20.65625 
Q 13.09375 16.890625 14.875 13.375 
Q 16.65625 9.859375 20.171875 7.921875 
Q 23.6875 6 27.734375 6 
Q 34.03125 6 38.125 10.046875 
Q 42.234375 14.109375 42.234375 20.359375 
Q 42.234375 26.703125 38.015625 30.859375 
Q 33.796875 35.015625 27.4375 35.015625 
Q 21.234375 35.015625 17.15625 30.90625 
Q 13.09375 26.8125 13.09375 20.65625 
z
" id="ArialMT-56"/>
       </defs>
       <use xlink:href="#ArialMT-49"/>
       <use x="55.615234" xlink:href="#ArialMT-56"/>
       <use x="111.230469" xlink:href="#ArialMT-48"/>
       <use x="166.845703" xlink:href="#ArialMT-176"/>
      </g>
     </g>
    </g>
    <g id="xtick_5">
     <g id="line2d_5">
      <path clip-path="url(#pf9cc46cb81)" d="M 71.200625 57.278962 
L 44.020625 104.356103 
" style="fill:none;stroke:#b0b0b0;stroke-linecap:square;stroke-width:0.8;"/>
     </g>
     <g id="text_5">
      <!-- 240° -->
      <g transform="translate(30.43 112.570425)scale(0.1 -0.1)">
       <defs>
        <path d="M 32.328125 0 
L 32.328125 17.140625 
L 1.265625 17.140625 
L 1.265625 25.203125 
L 33.9375 71.578125 
L 41.109375 71.578125 
L 41.109375 25.203125 
L 50.78125 25.203125 
L 50.78125 17.140625 
L 41.109375 17.140625 
L 41.109375 0 
z
M 32.328125 25.203125 
L 32.328125 57.46875 
L 9.90625 25.203125 
z
" id="ArialMT-52"/>
       </defs>
       <use xlink:href="#ArialMT-50"/>
       <use x="55.615234" xlink:href="#ArialMT-52"/>
       <use x="111.230469" xlink:href="#ArialMT-48"/>
       <use x="166.845703" xlink:href="#ArialMT-176"/>
      </g>
     </g>
    </g>
    <g id="xtick_6">
     <g id="line2d_6">
      <path clip-path="url(#pf9cc46cb81)" d="M 71.200625 57.278962 
L 98.380625 104.356103 
" style="fill:none;stroke:#b0b0b0;stroke-linecap:square;stroke-width:0.8;"/>
     </g>
     <g id="text_6">
      <!-- 300° -->
      <g transform="translate(91.29 112.570425)scale(0.1 -0.1)">
       <defs>
        <path d="M 4.203125 18.890625 
L 12.984375 20.0625 
Q 14.5 12.59375 18.140625 9.296875 
Q 21.78125 6 27 6 
Q 33.203125 6 37.46875 10.296875 
Q 41.75 14.59375 41.75 20.953125 
Q 41.75 27 37.796875 30.921875 
Q 33.84375 34.859375 27.734375 34.859375 
Q 25.25 34.859375 21.53125 33.890625 
L 22.515625 41.609375 
Q 23.390625 41.5 23.921875 41.5 
Q 29.546875 41.5 34.03125 44.421875 
Q 38.53125 47.359375 38.53125 53.46875 
Q 38.53125 58.296875 35.25 61.46875 
Q 31.984375 64.65625 26.8125 64.65625 
Q 21.6875 64.65625 18.265625 61.421875 
Q 14.84375 58.203125 13.875 51.765625 
L 5.078125 53.328125 
Q 6.6875 62.15625 12.390625 67.015625 
Q 18.109375 71.875 26.609375 71.875 
Q 32.46875 71.875 37.390625 69.359375 
Q 42.328125 66.84375 44.9375 62.5 
Q 47.5625 58.15625 47.5625 53.265625 
Q 47.5625 48.640625 45.0625 44.828125 
Q 42.578125 41.015625 37.703125 38.765625 
Q 44.046875 37.3125 47.5625 32.6875 
Q 51.078125 28.078125 51.078125 21.140625 
Q 51.078125 11.765625 44.234375 5.25 
Q 37.40625 -1.265625 26.953125 -1.265625 
Q 17.53125 -1.265625 11.296875 4.34375 
Q 5.078125 9.96875 4.203125 18.890625 
z
" id="ArialMT-51"/>
       </defs>
       <use xlink:href="#ArialMT-51"/>
       <use x="55.615234" xlink:href="#ArialMT-48"/>
       <use x="111.230469" xlink:href="#ArialMT-48"/>
       <use x="166.845703" xlink:href="#ArialMT-176"/>
      </g>
     </g>
    </g>
   </g>
   <g id="matplotlib.axis_2">
    <g id="ytick_1">
     <g id="line2d_7">
      <path clip-path="url(#pf9cc46cb81)" d="M 97.105111 57.278962 
C 97.105111 53.877216 96.435042 50.508548 95.13325 47.365745 
C 93.831458 44.222941 91.923261 41.367122 89.517863 38.961724 
C 87.112465 36.556327 84.256646 34.648129 81.113843 33.346338 
C 77.971039 32.044546 74.602371 31.374476 71.200625 31.374476 
C 67.798879 31.374476 64.430211 32.044546 61.287407 33.346338 
C 58.144604 34.648129 55.288785 36.556327 52.883387 38.961724 
C 50.477989 41.367122 48.569792 44.222941 47.268 47.365745 
C 45.966208 50.508548 45.296139 53.877216 45.296139 57.278962 
C 45.296139 60.680708 45.966208 64.049377 47.268 67.19218 
C 48.569792 70.334984 50.477989 73.190803 52.883387 75.5962 
C 55.288785 78.001598 58.144604 79.909795 61.287407 81.211587 
C 64.430211 82.513379 67.798879 83.183449 71.200625 83.183449 
C 74.602371 83.183449 77.971039 82.513379 81.113843 81.211587 
C 84.256646 79.909795 87.112465 78.001598 89.517863 75.5962 
C 91.923261 73.190803 93.831458 70.334984 95.13325 67.19218 
C 96.435042 64.049377 97.105111 60.680708 97.105111 57.278962 
" style="fill:none;stroke:#b0b0b0;stroke-linecap:square;stroke-width:0.8;"/>
     </g>
    </g>
    <g id="ytick_2">
     <g id="line2d_8">
      <path clip-path="url(#pf9cc46cb81)" d="M 123.009598 57.278962 
C 123.009598 50.47547 121.669458 43.738134 119.065875 37.452527 
C 116.462291 31.16692 112.645896 25.455282 107.835101 20.644486 
C 103.024306 15.833691 97.312668 12.017296 91.027061 9.413713 
C 84.741454 6.810129 78.004117 5.46999 71.200625 5.46999 
C 64.397133 5.46999 57.659796 6.810129 51.374189 9.413713 
C 45.088582 12.017296 39.376944 15.833691 34.566149 20.644486 
C 29.755354 25.455282 25.938959 31.16692 23.335375 37.452527 
C 20.731792 43.738134 19.391652 50.47547 19.391652 57.278962 
C 19.391652 64.082454 20.731792 70.819791 23.335375 77.105398 
C 25.938959 83.391005 29.755354 89.102643 34.566149 93.913438 
C 39.376944 98.724234 45.088582 102.540628 51.374189 105.144212 
C 57.659796 107.747796 64.397133 109.087935 71.200625 109.087935 
C 78.004117 109.087935 84.741454 107.747796 91.027061 105.144212 
C 97.312668 102.540628 103.024306 98.724234 107.835101 93.913438 
C 112.645896 89.102643 116.462291 83.391005 119.065875 77.105398 
C 121.669458 70.819791 123.009598 64.082454 123.009598 57.278962 
" style="fill:none;stroke:#b0b0b0;stroke-linecap:square;stroke-width:0.8;"/>
     </g>
    </g>
   </g>
   <g id="line2d_9">
    <path clip-path="url(#pf9cc46cb81)" d="M 103.729115 56.711185 
L 102.952737 54.501027 
L 99.639484 52.774679 
L 93.604157 52.106766 
L 86.780579 52.515624 
L 80.174792 53.834094 
L 74.819488 55.591469 
L 72.123878 56.767189 
L 72.185346 56.639475 
L 74.892778 54.496736 
L 79.310933 50.22885 
L 84.749861 43.729676 
L 88.934801 36.878181 
L 92.220979 29.384272 
L 93.69303 22.643519 
L 92.92633 18.080208 
L 89.456491 18.125452 
L 84.695753 22.120553 
L 80.124783 28.08835 
L 76.068194 36.195543 
L 73.259114 44.283579 
L 71.713213 51.422068 
L 71.229627 55.621536 
L 71.120084 55.743435 
L 70.563391 52.090422 
L 68.744718 44.645594 
L 65.272748 35.156202 
L 60.327873 25.701287 
L 54.304355 17.471404 
L 48.678447 13.072849 
L 44.519181 12.868714 
L 42.427621 16.190216 
L 43.208185 22.712964 
L 47.117614 31.453721 
L 53.389369 40.669662 
L 60.207708 48.376815 
L 66.201357 53.778233 
L 69.832285 56.456705 
L 70.295826 56.817997 
L 67.017402 55.503453 
L 61.134352 53.813091 
L 53.335019 52.492016 
L 46.043685 52.388781 
L 40.13156 53.463543 
L 36.706979 55.470093 
L 35.611699 57.898534 
L 36.826241 60.287747 
L 41.466754 61.98919 
L 48.046531 62.624861 
L 55.088543 62.204944 
L 61.739832 60.910492 
L 67.428884 59.03764 
L 70.118162 57.878928 
L 70.057474 58.021412 
L 67.662906 59.945022 
L 63.638691 63.852748 
L 59.333728 69.146077 
L 55.962273 74.80854 
L 54.32251 79.676178 
L 54.230015 83.409675 
L 56.060624 84.589445 
L 59.187944 83.043154 
L 62.642803 79.574861 
L 65.709818 75.239674 
L 68.175521 70.382356 
L 69.90882 65.434603 
L 70.857764 61.19686 
L 71.178917 58.520064 
L 71.257854 58.371981 
L 71.648017 60.921531 
L 72.791424 65.46183 
L 74.985522 71.403731 
L 77.90756 76.757413 
L 81.468116 81.468644 
L 84.904729 84.176634 
L 87.896743 85.068553 
L 88.852136 82.485476 
L 89.51267 79.890946 
L 87.429702 74.681838 
L 83.695151 68.93015 
L 79.090142 63.667857 
L 74.900357 59.869653 
L 72.275611 57.924928 
L 71.903104 57.636934 
L 74.48264 58.671938 
L 79.120812 60.00586 
L 85.092788 61.001146 
L 91.500747 61.224887 
L 97.283771 60.481895 
L 101.450224 58.865048 
" style="fill:none;stroke:#377eb8;stroke-linecap:square;"/>
    <defs>
     <path d="M 0 0.75 
C 0.198902 0.75 0.389685 0.670975 0.53033 0.53033 
C 0.670975 0.389685 0.75 0.198902 0.75 0 
C 0.75 -0.198902 0.670975 -0.389685 0.53033 -0.53033 
C 0.389685 -0.670975 0.198902 -0.75 0 -0.75 
C -0.198902 -0.75 -0.389685 -0.670975 -0.53033 -0.53033 
C -0.670975 -0.389685 -0.75 -0.198902 -0.75 0 
C -0.75 0.198902 -0.670975 0.389685 -0.53033 0.53033 
C -0.389685 0.670975 -0.198902 0.75 0 0.75 
z
" id="mce257524cc" style="stroke:#377eb8;"/>
    </defs>
    <g clip-path="url(#pf9cc46cb81)">
     <use style="fill:#377eb8;stroke:#377eb8;" x="103.729115" xlink:href="#mce257524cc" y="56.711185"/>
     <use style="fill:#377eb8;stroke:#377eb8;" x="102.952737" xlink:href="#mce257524cc" y="54.501027"/>
     <use style="fill:#377eb8;stroke:#377eb8;" x="99.639484" xlink:href="#mce257524cc" y="52.774679"/>
     <use style="fill:#377eb8;stroke:#377eb8;" x="93.604157" xlink:href="#mce257524cc" y="52.106766"/>
     <use style="fill:#377eb8;stroke:#377eb8;" x="86.780579" xlink:href="#mce257524cc" y="52.515624"/>
     <use style="fill:#377eb8;stroke:#377eb8;" x="80.174792" xlink:href="#mce257524cc" y="53.834094"/>
     <use style="fill:#377eb8;stroke:#377eb8;" x="74.819488" xlink:href="#mce257524cc" y="55.591469"/>
     <use style="fill:#377eb8;stroke:#377eb8;" x="72.123878" xlink:href="#mce257524cc" y="56.767189"/>
     <use style="fill:#377eb8;stroke:#377eb8;" x="72.185346" xlink:href="#mce257524cc" y="56.639475"/>
     <use style="fill:#377eb8;stroke:#377eb8;" x="74.892778" xlink:href="#mce257524cc" y="54.496736"/>
     <use style="fill:#377eb8;stroke:#377eb8;" x="79.310933" xlink:href="#mce257524cc" y="50.22885"/>
     <use style="fill:#377eb8;stroke:#377eb8;" x="84.749861" xlink:href="#mce257524cc" y="43.729676"/>
     <use style="fill:#377eb8;stroke:#377eb8;" x="88.934801" xlink:href="#mce257524cc" y="36.878181"/>
     <use style="fill:#377eb8;stroke:#377eb8;" x="92.220979" xlink:href="#mce257524cc" y="29.384272"/>
     <use style="fill:#377eb8;stroke:#377eb8;" x="93.69303" xlink:href="#mce257524cc" y="22.643519"/>
     <use style="fill:#377eb8;stroke:#377eb8;" x="92.92633" xlink:href="#mce257524cc" y="18.080208"/>
     <use style="fill:#377eb8;stroke:#377eb8;" x="89.456491" xlink:href="#mce257524cc" y="18.125452"/>
     <use style="fill:#377eb8;stroke:#377eb8;" x="84.695753" xlink:href="#mce257524cc" y="22.120553"/>
     <use style="fill:#377eb8;stroke:#377eb8;" x="80.124783" xlink:href="#mce257524cc" y="28.08835"/>
     <use style="fill:#377eb8;stroke:#377eb8;" x="76.068194" xlink:href="#mce257524cc" y="36.195543"/>
     <use style="fill:#377eb8;stroke:#377eb8;" x="73.259114" xlink:href="#mce257524cc" y="44.283579"/>
     <use style="fill:#377eb8;stroke:#377eb8;" x="71.713213" xlink:href="#mce257524cc" y="51.422068"/>
     <use style="fill:#377eb8;stroke:#377eb8;" x="71.229627" xlink:href="#mce257524cc" y="55.621536"/>
     <use style="fill:#377eb8;stroke:#377eb8;" x="71.120084" xlink:href="#mce257524cc" y="55.743435"/>
     <use style="fill:#377eb8;stroke:#377eb8;" x="70.563391" xlink:href="#mce257524cc" y="52.090422"/>
     <use style="fill:#377eb8;stroke:#377eb8;" x="68.744718" xlink:href="#mce257524cc" y="44.645594"/>
     <use style="fill:#377eb8;stroke:#377eb8;" x="65.272748" xlink:href="#mce257524cc" y="35.156202"/>
     <use style="fill:#377eb8;stroke:#377eb8;" x="60.327873" xlink:href="#mce257524cc" y="25.701287"/>
     <use style="fill:#377eb8;stroke:#377eb8;" x="54.304355" xlink:href="#mce257524cc" y="17.471404"/>
     <use style="fill:#377eb8;stroke:#377eb8;" x="48.678447" xlink:href="#mce257524cc" y="13.072849"/>
     <use style="fill:#377eb8;stroke:#377eb8;" x="44.519181" xlink:href="#mce257524cc" y="12.868714"/>
     <use style="fill:#377eb8;stroke:#377eb8;" x="42.427621" xlink:href="#mce257524cc" y="16.190216"/>
     <use style="fill:#377eb8;stroke:#377eb8;" x="43.208185" xlink:href="#mce257524cc" y="22.712964"/>
     <use style="fill:#377eb8;stroke:#377eb8;" x="47.117614" xlink:href="#mce257524cc" y="31.453721"/>
     <use style="fill:#377eb8;stroke:#377eb8;" x="53.389369" xlink:href="#mce257524cc" y="40.669662"/>
     <use style="fill:#377eb8;stroke:#377eb8;" x="60.207708" xlink:href="#mce257524cc" y="48.376815"/>
     <use style="fill:#377eb8;stroke:#377eb8;" x="66.201357" xlink:href="#mce257524cc" y="53.778233"/>
     <use style="fill:#377eb8;stroke:#377eb8;" x="69.832285" xlink:href="#mce257524cc" y="56.456705"/>
     <use style="fill:#377eb8;stroke:#377eb8;" x="70.295826" xlink:href="#mce257524cc" y="56.817997"/>
     <use style="fill:#377eb8;stroke:#377eb8;" x="67.017402" xlink:href="#mce257524cc" y="55.503453"/>
     <use style="fill:#377eb8;stroke:#377eb8;" x="61.134352" xlink:href="#mce257524cc" y="53.813091"/>
     <use style="fill:#377eb8;stroke:#377eb8;" x="53.335019" xlink:href="#mce257524cc" y="52.492016"/>
     <use style="fill:#377eb8;stroke:#377eb8;" x="46.043685" xlink:href="#mce257524cc" y="52.388781"/>
     <use style="fill:#377eb8;stroke:#377eb8;" x="40.13156" xlink:href="#mce257524cc" y="53.463543"/>
     <use style="fill:#377eb8;stroke:#377eb8;" x="36.706979" xlink:href="#mce257524cc" y="55.470093"/>
     <use style="fill:#377eb8;stroke:#377eb8;" x="35.611699" xlink:href="#mce257524cc" y="57.898534"/>
     <use style="fill:#377eb8;stroke:#377eb8;" x="36.826241" xlink:href="#mce257524cc" y="60.287747"/>
     <use style="fill:#377eb8;stroke:#377eb8;" x="41.466754" xlink:href="#mce257524cc" y="61.98919"/>
     <use style="fill:#377eb8;stroke:#377eb8;" x="48.046531" xlink:href="#mce257524cc" y="62.624861"/>
     <use style="fill:#377eb8;stroke:#377eb8;" x="55.088543" xlink:href="#mce257524cc" y="62.204944"/>
     <use style="fill:#377eb8;stroke:#377eb8;" x="61.739832" xlink:href="#mce257524cc" y="60.910492"/>
     <use style="fill:#377eb8;stroke:#377eb8;" x="67.428884" xlink:href="#mce257524cc" y="59.03764"/>
     <use style="fill:#377eb8;stroke:#377eb8;" x="70.118162" xlink:href="#mce257524cc" y="57.878928"/>
     <use style="fill:#377eb8;stroke:#377eb8;" x="70.057474" xlink:href="#mce257524cc" y="58.021412"/>
     <use style="fill:#377eb8;stroke:#377eb8;" x="67.662906" xlink:href="#mce257524cc" y="59.945022"/>
     <use style="fill:#377eb8;stroke:#377eb8;" x="63.638691" xlink:href="#mce257524cc" y="63.852748"/>
     <use style="fill:#377eb8;stroke:#377eb8;" x="59.333728" xlink:href="#mce257524cc" y="69.146077"/>
     <use style="fill:#377eb8;stroke:#377eb8;" x="55.962273" xlink:href="#mce257524cc" y="74.80854"/>
     <use style="fill:#377eb8;stroke:#377eb8;" x="54.32251" xlink:href="#mce257524cc" y="79.676178"/>
     <use style="fill:#377eb8;stroke:#377eb8;" x="54.230015" xlink:href="#mce257524cc" y="83.409675"/>
     <use style="fill:#377eb8;stroke:#377eb8;" x="56.060624" xlink:href="#mce257524cc" y="84.589445"/>
     <use style="fill:#377eb8;stroke:#377eb8;" x="59.187944" xlink:href="#mce257524cc" y="83.043154"/>
     <use style="fill:#377eb8;stroke:#377eb8;" x="62.642803" xlink:href="#mce257524cc" y="79.574861"/>
     <use style="fill:#377eb8;stroke:#377eb8;" x="65.709818" xlink:href="#mce257524cc" y="75.239674"/>
     <use style="fill:#377eb8;stroke:#377eb8;" x="68.175521" xlink:href="#mce257524cc" y="70.382356"/>
     <use style="fill:#377eb8;stroke:#377eb8;" x="69.90882" xlink:href="#mce257524cc" y="65.434603"/>
     <use style="fill:#377eb8;stroke:#377eb8;" x="70.857764" xlink:href="#mce257524cc" y="61.19686"/>
     <use style="fill:#377eb8;stroke:#377eb8;" x="71.178917" xlink:href="#mce257524cc" y="58.520064"/>
     <use style="fill:#377eb8;stroke:#377eb8;" x="71.257854" xlink:href="#mce257524cc" y="58.371981"/>
     <use style="fill:#377eb8;stroke:#377eb8;" x="71.648017" xlink:href="#mce257524cc" y="60.921531"/>
     <use style="fill:#377eb8;stroke:#377eb8;" x="72.791424" xlink:href="#mce257524cc" y="65.46183"/>
     <use style="fill:#377eb8;stroke:#377eb8;" x="74.985522" xlink:href="#mce257524cc" y="71.403731"/>
     <use style="fill:#377eb8;stroke:#377eb8;" x="77.90756" xlink:href="#mce257524cc" y="76.757413"/>
     <use style="fill:#377eb8;stroke:#377eb8;" x="81.468116" xlink:href="#mce257524cc" y="81.468644"/>
     <use style="fill:#377eb8;stroke:#377eb8;" x="84.904729" xlink:href="#mce257524cc" y="84.176634"/>
     <use style="fill:#377eb8;stroke:#377eb8;" x="87.896743" xlink:href="#mce257524cc" y="85.068553"/>
     <use style="fill:#377eb8;stroke:#377eb8;" x="88.852136" xlink:href="#mce257524cc" y="82.485476"/>
     <use style="fill:#377eb8;stroke:#377eb8;" x="89.51267" xlink:href="#mce257524cc" y="79.890946"/>
     <use style="fill:#377eb8;stroke:#377eb8;" x="87.429702" xlink:href="#mce257524cc" y="74.681838"/>
     <use style="fill:#377eb8;stroke:#377eb8;" x="83.695151" xlink:href="#mce257524cc" y="68.93015"/>
     <use style="fill:#377eb8;stroke:#377eb8;" x="79.090142" xlink:href="#mce257524cc" y="63.667857"/>
     <use style="fill:#377eb8;stroke:#377eb8;" x="74.900357" xlink:href="#mce257524cc" y="59.869653"/>
     <use style="fill:#377eb8;stroke:#377eb8;" x="72.275611" xlink:href="#mce257524cc" y="57.924928"/>
     <use style="fill:#377eb8;stroke:#377eb8;" x="71.903104" xlink:href="#mce257524cc" y="57.636934"/>
     <use style="fill:#377eb8;stroke:#377eb8;" x="74.48264" xlink:href="#mce257524cc" y="58.671938"/>
     <use style="fill:#377eb8;stroke:#377eb8;" x="79.120812" xlink:href="#mce257524cc" y="60.00586"/>
     <use style="fill:#377eb8;stroke:#377eb8;" x="85.092788" xlink:href="#mce257524cc" y="61.001146"/>
     <use style="fill:#377eb8;stroke:#377eb8;" x="91.500747" xlink:href="#mce257524cc" y="61.224887"/>
     <use style="fill:#377eb8;stroke:#377eb8;" x="97.283771" xlink:href="#mce257524cc" y="60.481895"/>
     <use style="fill:#377eb8;stroke:#377eb8;" x="101.450224" xlink:href="#mce257524cc" y="58.865048"/>
    </g>
   </g>
  </g>
 </g>
 <defs>
  <clipPath id="pf9cc46cb81">
   <path d="M 125.560625 57.278962 
C 125.560625 50.140473 124.154498 43.071396 121.422716 36.476291 
C 118.690935 29.881186 114.686624 23.888312 109.63895 18.840638 
C 104.591275 13.792963 98.598401 9.788653 92.003296 7.056871 
C 85.408192 4.325089 78.339115 2.918962 71.200625 2.918962 
C 64.062135 2.918962 56.993058 4.325089 50.397954 7.056871 
C 43.802849 9.788653 37.809975 13.792963 32.7623 18.840638 
C 27.714626 23.888312 23.710315 29.881186 20.978534 36.476291 
C 18.246752 43.071396 16.840625 50.140473 16.840625 57.278962 
C 16.840625 64.417452 18.246752 71.486529 20.978534 78.081634 
C 23.710315 84.676738 27.714626 90.669612 32.7623 95.717287 
C 37.809975 100.764961 43.802849 104.769272 50.397954 107.501054 
C 56.993058 110.232835 64.062135 111.638962 71.200625 111.638962 
C 78.339115 111.638962 85.408192 110.232835 92.003296 107.501054 
C 98.598401 104.769272 104.591275 100.764961 109.63895 95.717287 
C 114.686624 90.669612 118.690935 84.676738 121.422716 78.081634 
C 124.154498 71.486529 125.560625 64.417452 125.560625 57.278962 
M 71.200625 57.278962 
C 71.200625 57.278962 71.200625 57.278962 71.200625 57.278962 
C 71.200625 57.278962 71.200625 57.278962 71.200625 57.278962 
C 71.200625 57.278962 71.200625 57.278962 71.200625 57.278962 
C 71.200625 57.278962 71.200625 57.278962 71.200625 57.278962 
C 71.200625 57.278962 71.200625 57.278962 71.200625 57.278962 
C 71.200625 57.278962 71.200625 57.278962 71.200625 57.278962 
C 71.200625 57.278962 71.200625 57.278962 71.200625 57.278962 
C 71.200625 57.278962 71.200625 57.278962 71.200625 57.278962 
C 71.200625 57.278962 71.200625 57.278962 71.200625 57.278962 
C 71.200625 57.278962 71.200625 57.278962 71.200625 57.278962 
C 71.200625 57.278962 71.200625 57.278962 71.200625 57.278962 
C 71.200625 57.278962 71.200625 57.278962 71.200625 57.278962 
C 71.200625 57.278962 71.200625 57.278962 71.200625 57.278962 
C 71.200625 57.278962 71.200625 57.278962 71.200625 57.278962 
C 71.200625 57.278962 71.200625 57.278962 71.200625 57.278962 
C 71.200625 57.278962 71.200625 57.278962 71.200625 57.278962 
M 125.560625 57.278962 
z
"/>
  </clipPath>
 </defs>
</svg>
