<?xml version="1.0" encoding="UTF-8" standalone="no"?>
<svg
   xmlns:dc="http://purl.org/dc/elements/1.1/"
   xmlns:cc="http://creativecommons.org/ns#"
   xmlns:rdf="http://www.w3.org/1999/02/22-rdf-syntax-ns#"
   xmlns:svg="http://www.w3.org/2000/svg"
   xmlns="http://www.w3.org/2000/svg"
   xmlns:sodipodi="http://sodipodi.sourceforge.net/DTD/sodipodi-0.dtd"
   xmlns:inkscape="http://www.inkscape.org/namespaces/inkscape"
   width="1.6in"
   height="1.6in"
   viewBox="0 0 40.64 40.640002"
   version="1.1"
   id="svg1045"
   inkscape:version="1.0 (4035a4fb49, 2020-05-01)"
   sodipodi:docname="Landau 2nd Energy vs Polarization.svg"
   inkscape:export-filename="Landau 2nd Energy vs Polarization.png"
   inkscape:export-xdpi="600"
   inkscape:export-ydpi="600">
  <defs
     id="defs1039">
    <marker
       inkscape:isstock="true"
       style="overflow:visible"
       id="marker949"
       refX="0"
       refY="0"
       orient="auto"
       inkscape:stockid="TriangleOutM">
      <path
         inkscape:connector-curvature="0"
         transform="scale(0.4)"
         style="fill:#000000;fill-opacity:1;fill-rule:evenodd;stroke:#000000;stroke-width:1.00000003pt;stroke-opacity:1"
         d="M 5.77,0 -2.88,5 V -5 Z"
         id="path947" />
    </marker>
    <marker
       inkscape:isstock="true"
       style="overflow:visible"
       id="marker4986"
       refX="0"
       refY="0"
       orient="auto"
       inkscape:stockid="TriangleInM">
      <path
         inkscape:connector-curvature="0"
         transform="scale(-0.4)"
         style="fill:#000000;fill-opacity:1;fill-rule:evenodd;stroke:#000000;stroke-width:1.00000003pt;stroke-opacity:1"
         d="M 5.77,0 -2.88,5 V -5 Z"
         id="path4984" />
    </marker>
    <marker
       inkscape:stockid="TriangleOutM"
       orient="auto"
       refY="0"
       refX="0"
       id="marker4750"
       style="overflow:visible"
       inkscape:isstock="true">
      <path
         id="path4748"
         d="M 5.77,0 -2.88,5 V -5 Z"
         style="fill:#298fe3;fill-opacity:1;fill-rule:evenodd;stroke:#298fe3;stroke-width:1.00000003pt;stroke-opacity:1"
         transform="scale(0.4)"
         inkscape:connector-curvature="0" />
    </marker>
    <marker
       inkscape:isstock="true"
       style="overflow:visible"
       id="marker4428"
       refX="0"
       refY="0"
       orient="auto"
       inkscape:stockid="TriangleOutM">
      <path
         inkscape:connector-curvature="0"
         transform="scale(0.4)"
         style="fill:#298fe3;fill-opacity:1;fill-rule:evenodd;stroke:#298fe3;stroke-width:1.00000003pt;stroke-opacity:1"
         d="M 5.77,0 -2.88,5 V -5 Z"
         id="path4426" />
    </marker>
    <marker
       inkscape:stockid="TriangleOutM"
       orient="auto"
       refY="0"
       refX="0"
       id="marker2308"
       style="overflow:visible"
       inkscape:isstock="true">
      <path
         id="path2306"
         d="M 5.77,0 -2.88,5 V -5 Z"
         style="fill:#000000;fill-opacity:1;fill-rule:evenodd;stroke:#000000;stroke-width:1.00000003pt;stroke-opacity:1"
         transform="scale(0.4)"
         inkscape:connector-curvature="0" />
    </marker>
    <marker
       inkscape:stockid="EmptyDiamondSend"
       orient="auto"
       refY="0"
       refX="0"
       id="EmptyDiamondSend"
       style="overflow:visible"
       inkscape:isstock="true">
      <path
         id="path1725"
         d="M 0,-7.0710768 -7.0710894,0 0,7.0710589 7.0710462,0 Z"
         style="fill:#ffffff;fill-rule:evenodd;stroke:#4d2929;stroke-width:1.00000003pt;stroke-opacity:1"
         transform="matrix(0.2,0,0,0.2,-1.2,0)"
         inkscape:connector-curvature="0" />
    </marker>
    <style
       id="style50"
       type="text/css">
*{stroke-linecap:butt;stroke-linejoin:round;}
  </style>
    <clipPath
       id="pc66d710f9a">
      <rect
         id="rect74"
         y="-0"
         x="0"
         width="111.6"
         height="108.72" />
    </clipPath>
    <style
       id="style104"
       type="text/css">
*{stroke-linecap:butt;stroke-linejoin:round;}
  </style>
    <clipPath
       id="p6ab946efec">
      <rect
         id="rect125"
         y="-0"
         x="0"
         width="111.6"
         height="108.72" />
    </clipPath>
    <marker
       inkscape:stockid="TriangleOutM"
       orient="auto"
       refY="0"
       refX="0"
       id="marker5580"
       style="overflow:visible"
       inkscape:isstock="true"
       inkscape:collect="always">
      <path
         id="path5578"
         d="M 5.77,0 -2.88,5 V -5 Z"
         style="fill:#000000;fill-opacity:1;fill-rule:evenodd;stroke:#000000;stroke-width:1pt;stroke-opacity:1"
         transform="scale(0.4)"
         inkscape:connector-curvature="0" />
    </marker>
  </defs>
  <sodipodi:namedview
     id="base"
     pagecolor="#ffffff"
     bordercolor="#666666"
     borderopacity="1.0"
     inkscape:pageopacity="0.0"
     inkscape:pageshadow="2"
     inkscape:zoom="3.8018998"
     inkscape:cx="87.914298"
     inkscape:cy="70.080129"
     inkscape:document-units="mm"
     inkscape:current-layer="layer1"
     showgrid="false"
     units="in"
     inkscape:window-width="1618"
     inkscape:window-height="1027"
     inkscape:window-x="54"
     inkscape:window-y="-8"
     inkscape:window-maximized="1"
     showguides="true"
     inkscape:document-rotation="0" />
  <metadata
     id="metadata1042">
    <rdf:RDF>
      <cc:Work
         rdf:about="">
        <dc:format>image/svg+xml</dc:format>
        <dc:type
           rdf:resource="http://purl.org/dc/dcmitype/StillImage" />
        <dc:title />
      </cc:Work>
    </rdf:RDF>
  </metadata>
  <g
     inkscape:label="Layer 1"
     inkscape:groupmode="layer"
     id="layer1"
     transform="translate(0,-256.35999)">
    <text
       xml:space="preserve"
       style="font-style:normal;font-variant:normal;font-weight:normal;font-stretch:normal;font-size:2.82222px;line-height:1.25;font-family:Arial;-inkscape-font-specification:Arial;letter-spacing:0px;word-spacing:0px;fill:#000000;fill-opacity:1;stroke:none;stroke-width:0.264583"
       x="22.182802"
       y="259.77335"
       id="text2230"><tspan
         sodipodi:role="line"
         id="tspan2228"
         x="22.182802"
         y="259.77335"
         style="font-style:italic;font-size:3.52778px;stroke-width:0.264583">F</tspan></text>
    <path
       sodipodi:nodetypes="cc"
       inkscape:connector-curvature="0"
       id="path4982"
       d="M 38.992506,295.25859 H 0.2270643"
       style="opacity:1;fill:none;fill-opacity:1;fill-rule:nonzero;stroke:#000000;stroke-width:0.5;stroke-linecap:butt;stroke-linejoin:round;stroke-miterlimit:4;stroke-dasharray:none;stroke-dashoffset:0;stroke-opacity:1;marker-start:url(#marker4986);paint-order:normal" />
    <g
       id="g1047"
       transform="translate(0.4717194,-3.3579592)">
      <text
         id="text2230-3"
         y="296.44873"
         x="37.346584"
         style="font-style:normal;font-variant:normal;font-weight:normal;font-stretch:normal;font-size:2.82222px;line-height:1.25;font-family:Arial;-inkscape-font-specification:Arial;letter-spacing:0px;word-spacing:0px;fill:#000000;fill-opacity:1;stroke:none;stroke-width:0.264583"
         xml:space="preserve"><tspan
           style="font-style:italic;font-size:3.52778px;stroke-width:0.264583"
           y="296.44873"
           x="37.346584"
           id="tspan2228-7"
           sodipodi:role="line">P</tspan></text>
    </g>
    <g
       style="stroke-linecap:butt;stroke-linejoin:round"
       id="g151"
       transform="matrix(-0.38436847,0,0,0.35202994,41.888239,256.99561)">
      <g
         id="figure_1-7">
        <g
           id="patch_1-9">
          <path
             id="path108"
             style="fill:none"
             d="M 0,108.72 H 111.6 V 0 H 0 Z" />
        </g>
        <g
           id="axes_1-6">
          <g
             id="line2d_1-3">
            <path
               id="path111"
               style="fill:none;stroke:#e41a1c;stroke-width:1.5;stroke-linecap:square"
               d="m 25.944248,-1 0.64914,4.039312 1.024794,5.919188 1.024793,5.490368 1.024794,5.088664 1.024793,4.712442 1.024793,4.360139 1.024794,4.030264 1.024793,3.721386 1.024794,3.432143 1.024793,3.161228 1.024793,2.907396 1.024794,2.669452 1.024793,2.446257 1.024793,2.236721 1.024794,2.039799 1.024793,1.854489 1.024794,1.679832 1.024793,1.514909 1.024793,1.358831 1.024794,1.210748 1.024793,1.069836 1.024794,0.9353 1.024793,0.80637 1.024793,0.682296 1.024794,0.56235 1.024793,0.44582 1.024794,0.332003 1.024793,0.220213 1.024793,0.109771 h 1.024794 l 1.024793,-0.109771 1.024793,-0.220213 1.024794,-0.332003 1.024793,-0.44582 1.024794,-0.56235 1.024793,-0.682296 1.024793,-0.80637 1.024794,-0.9353 1.024793,-1.069836 1.024794,-1.210748 1.024793,-1.358831 1.024793,-1.514909 1.024794,-1.679832 1.024793,-1.854489 1.024794,-2.039799 1.024793,-2.236721 1.024793,-2.446257 1.024794,-2.669452 1.024793,-2.907396 1.024793,-3.161228 1.024794,-3.432143 1.024793,-3.721386 1.024794,-4.030264 1.024793,-4.360139 1.024793,-4.712442 1.024794,-5.088664 L 83.981818,8.9585 85.006612,3.039312 85.655752,-1"
               clip-path="url(#p6ab946efec)" />
          </g>
          <g
             id="line2d_2-6">
            <path
               id="path114"
               style="fill:none;stroke:#377eb8;stroke-width:1.5;stroke-linecap:square"
               d="m 16.961346,-1 0.408902,3.171527 1.024793,7.250706 1.024794,6.600868 1.024793,5.996504 1.024793,5.435215 1.024794,4.914698 1.024793,4.432746 1.024794,3.987241 1.024793,3.576152 1.024793,3.197533 1.024794,2.849521 1.024793,2.530332 1.024794,2.238259 1.024793,1.971667 1.024793,1.728996 1.024794,1.508751 1.024793,1.309505 1.024794,1.129893 1.024793,0.968609 1.024793,0.824407 1.024794,0.696094 1.024793,0.582531 1.024793,0.482626 1.024794,0.395334 1.024793,0.319655 1.024794,0.25463 1.024793,0.199337 1.024793,0.152891 1.024794,0.114438 1.024793,0.08316 1.024794,0.05825 1.024793,0.03895 1.024793,0.02451 1.024794,0.0142 1.024793,0.0073 1.024794,0.0031 1.024793,9.52e-4 1.024793,1.4e-4 h 1.024794 l 1.024793,-1.4e-4 1.024793,-9.52e-4 1.024794,-0.0031 1.024793,-0.0073 1.024794,-0.0142 1.024793,-0.02451 1.024793,-0.03895 1.024794,-0.05825 1.024793,-0.08316 1.024794,-0.114438 1.024793,-0.152891 1.024793,-0.199337 1.024794,-0.25463 1.024793,-0.319655 1.024794,-0.395334 1.024793,-0.482626 1.024793,-0.582531 1.024794,-0.696094 1.024793,-0.824407 1.024793,-0.968609 1.024794,-1.129893 1.024793,-1.309505 1.024794,-1.508751 1.024793,-1.728996 1.024793,-1.971667 1.024794,-2.238259 1.024793,-2.530332 1.024794,-2.849521 1.024793,-3.197533 1.024793,-3.576152 1.024794,-3.987241 1.024793,-4.432746 1.024794,-4.914698 1.024793,-5.435215 1.024793,-5.996504 L 93.204959,9.422233 94.229752,2.171527 94.638654,-1"
               clip-path="url(#p6ab946efec)" />
          </g>
          <g
             id="line2d_3-6">
            <path
               id="path117"
               style="fill:none;stroke:#4daf4a;stroke-width:1.5;stroke-linecap:square"
               d="m 6.593017,-1 0.529297,6.677051 1.024793,11.698896 1.024794,10.54905 1.024793,9.474528 1.024794,8.471823 1.024793,7.537549 1.024793,6.668447 1.024794,5.861368 1.024793,5.113283 1.024794,4.421275 1.024793,3.782534 1.024793,3.194359 1.024794,2.654154 1.024793,2.15942 1.024793,1.707761 1.024794,1.296876 1.024793,0.924556 1.024794,0.588681 1.024793,0.287222 1.024793,0.01824 1.024794,-0.220146 1.024793,-0.429704 1.024794,-0.612147 1.024793,-0.769107 1.024793,-0.902147 1.024794,-1.012761 1.024793,-1.102377 1.024794,-1.172357 1.024793,-1.224011 1.024793,-1.258582 1.024794,-1.277263 1.024793,-1.281195 1.024793,-1.27147 1.024794,-1.24913 1.024793,-1.215179 1.024794,-1.170572 1.024793,-1.116235 1.024793,-1.05305 1.024794,-0.981872 1.024793,-0.903521 1.024794,-0.818796 1.024793,-0.728464 1.024793,-0.633275 1.024794,-0.533959 1.024793,-0.431229 1.024794,-0.325783 1.024793,-0.21831 1.024793,-0.109491 h 1.024794 l 1.024793,0.109491 1.024793,0.21831 1.024794,0.325783 1.024793,0.431229 1.024794,0.533959 1.024793,0.633275 1.024793,0.728464 1.024794,0.818796 1.024793,0.903521 1.024794,0.981872 1.024793,1.05305 1.024793,1.116235 1.024794,1.170572 1.024793,1.215179 1.024794,1.24913 1.024793,1.27147 1.024793,1.281195 1.024794,1.277263 1.024793,1.258582 1.024793,1.224011 1.024794,1.172357 1.024793,1.102377 1.024794,1.012761 1.024793,0.902147 1.024793,0.769107 1.024794,0.612147 1.024793,0.429704 1.024794,0.220146 1.024793,-0.01824 1.024793,-0.287222 1.024794,-0.588681 1.024793,-0.924556 1.024794,-1.296876 1.024793,-1.707761 1.024793,-2.15942 1.024794,-2.654154 1.024793,-3.194359 1.024793,-3.782534 1.024794,-4.421275 1.024793,-5.113283 1.024794,-5.861368 1.024793,-6.668447 1.024791,-7.537549 1.0248,-8.471823 1.02479,-9.474528 1.02479,-10.54905 1.0248,-11.698896 L 105.00698,-1"
               clip-path="url(#p6ab946efec)" />
          </g>
          <g
             id="line2d_4-5">
            <path
               id="path120"
               style="fill:none;stroke:#984ea3;stroke-width:1.5;stroke-linecap:square"
               d="m 8.316131,-1 0.85577,9.171689 1.024793,9.908667 1.024794,8.905961 1.024793,7.971688 1.024793,7.102585 1.024794,6.295507 1.024793,5.547421 1.024794,4.855414 1.024793,4.216673 1.024793,3.628498 1.024794,3.088292 1.024793,2.593559 1.024793,2.1419 1.024794,1.731014 1.024793,1.358694 1.024794,1.02282 1.024793,0.721361 1.024793,0.452374 1.024794,0.213992 1.024793,0.0044 1.024794,-0.178008 1.024793,-0.334969 1.024793,-0.468009 1.024794,-0.578622 1.024793,-0.668237 1.024794,-0.73822 1.024793,-0.789872 1.024793,-0.824443 1.024794,-0.843124 1.024793,-0.847057 1.024793,-0.837331 1.024794,-0.814992 1.024793,-0.781039 1.024794,-0.736434 1.024793,-0.682097 1.024793,-0.618911 1.024794,-0.547733 1.024793,-0.469383 1.024794,-0.384657 1.024793,-0.294325 1.024793,-0.199137 1.024794,-0.09982 1.024793,0.0029 1.024794,0.108355 1.024793,0.215829 1.024793,0.324647 1.024794,0.434139 1.024793,0.54363 1.024793,0.652449 1.024794,0.759921 1.024793,0.865367 1.024794,0.968098 1.024793,1.067414 1.024793,1.162603 1.024794,1.252934 1.024793,1.33766 1.024794,1.416011 1.024793,1.487188 1.024793,1.550374 1.024794,1.604711 1.024793,1.649317 1.024794,1.683269 1.024793,1.705609 1.024793,1.715334 1.024794,1.711401 1.024793,1.692721 1.024793,1.658149 1.024794,1.606496 1.024793,1.536515 1.024794,1.4469 1.024793,1.33628 1.024793,1.20325 1.024794,1.04628 1.024793,0.86385 1.024794,0.65428 1.024793,0.4159 1.024793,0.14692 1.024794,-0.15454 1.024793,-0.49042 1.024794,-0.86274 1.024793,-1.27362 1.024793,-1.72528 1.024794,-2.220011 1.024793,-2.760221 1.024793,-3.348396 1.024794,-3.987136 1.024793,-4.679144 1.024794,-5.427229 1.024793,-6.234308 1.024791,-7.103411 1.0248,-8.037684 1.02479,-9.040389 1.02479,-10.114912 1.0248,-11.264757 1.02479,-12.493559 L 106.52727,0"
               clip-path="url(#p6ab946efec)" />
          </g>
        </g>
      </g>
    </g>
    <text
       xml:space="preserve"
       style="font-style:normal;font-variant:normal;font-weight:normal;font-stretch:normal;font-size:2.82222px;line-height:1.25;font-family:Arial;-inkscape-font-specification:Arial;letter-spacing:0px;word-spacing:0px;fill:#4daf4a;fill-opacity:1;stroke:none;stroke-width:0.264583"
       x="17.159401"
       y="273.83746"
       id="text2244"><tspan
         sodipodi:role="line"
         id="tspan2242"
         x="17.159401"
         y="273.83746"
         style="font-size:3.52778px;fill:#4daf4a;fill-opacity:1;stroke-width:0.264583"><tspan
   id="tspan939"
   style="font-style:italic">T</tspan>&lt;<tspan
   id="tspan941"
   style="font-style:italic">T</tspan><tspan
   style="font-style:italic;font-size:65%;baseline-shift:sub;fill:#4daf4a;fill-opacity:1"
   id="tspan153">C</tspan></tspan></text>
    <text
       id="text2244-8"
       y="269.3147"
       x="17.159401"
       style="font-style:normal;font-variant:normal;font-weight:normal;font-stretch:normal;font-size:2.82223px;line-height:1.25;font-family:Arial;-inkscape-font-specification:Arial;letter-spacing:0px;word-spacing:0px;fill:#377eb8;fill-opacity:1;stroke:none;stroke-width:0.264583;stroke-linecap:butt;stroke-linejoin:round"
       xml:space="preserve"><tspan
         style="font-size:3.52777px;fill:#377eb8;fill-opacity:1;stroke-width:0.264583"
         y="269.3147"
         x="17.159401"
         id="tspan2242-0"
         sodipodi:role="line"><tspan
   id="tspan935"
   style="font-style:italic">T</tspan>=<tspan
   id="tspan937"
   style="font-style:italic">T</tspan><tspan
   id="tspan153-8"
   style="font-style:italic;font-size:2.29306px;baseline-shift:sub;fill:#377eb8;fill-opacity:1;stroke-width:0.264583">C</tspan></tspan></text>
    <text
       id="text2244-0"
       y="293.81052"
       x="33.402992"
       style="font-style:normal;font-variant:normal;font-weight:normal;font-stretch:normal;font-size:2.82223px;line-height:1.25;font-family:Arial;-inkscape-font-specification:Arial;letter-spacing:0px;word-spacing:0px;fill:#26b047;fill-opacity:1;stroke:none;stroke-width:0.264583;stroke-linecap:butt;stroke-linejoin:round"
       xml:space="preserve"><tspan
         style="font-size:3.52777px;text-align:end;text-anchor:end;fill:#984ea3;fill-opacity:1;stroke-width:0.264583"
         y="293.81052"
         x="33.402992"
         sodipodi:role="line"
         id="tspan197"><tspan
   id="tspan943"
   style="font-style:italic">T</tspan>&lt;<tspan
   id="tspan945"
   style="font-style:italic">T</tspan><tspan
   style="font-style:italic;font-size:65%;text-align:end;baseline-shift:sub;text-anchor:end;fill:#984ea3;fill-opacity:1"
   id="tspan209">C</tspan><tspan
   id="tspan947"
   style="font-style:italic">, E</tspan>≠0</tspan></text>
    <text
       xml:space="preserve"
       style="font-style:normal;font-variant:normal;font-weight:normal;font-stretch:normal;font-size:2.82223px;line-height:1.25;font-family:Arial;-inkscape-font-specification:Arial;letter-spacing:0px;word-spacing:0px;fill:#e41a1c;fill-opacity:1;stroke:none;stroke-width:0.264583;stroke-linecap:butt;stroke-linejoin:round"
       x="17.159401"
       y="264.79193"
       id="text2244-8-2"><tspan
         sodipodi:role="line"
         id="tspan2242-0-2"
         x="17.159401"
         y="264.79193"
         style="font-size:3.52777px;fill:#e41a1c;fill-opacity:1;stroke-width:0.264583"><tspan
   id="tspan931"
   style="font-style:italic">T</tspan>&gt;<tspan
   id="tspan933"
   style="font-style:italic">T</tspan><tspan
   style="font-style:italic;font-size:2.29306px;baseline-shift:sub;fill:#e41a1c;fill-opacity:1;stroke-width:0.264583"
   id="tspan153-8-0">C</tspan></tspan></text>
    <path
       style="opacity:1;fill:none;fill-opacity:1;fill-rule:nonzero;stroke:#000000;stroke-width:0.499999;stroke-linecap:butt;stroke-linejoin:round;stroke-miterlimit:4;stroke-dasharray:none;stroke-dashoffset:0;stroke-opacity:1;marker-end:url(#marker5580);paint-order:normal"
       d="m 20.440479,261.48747 v -2.95206"
       id="rect1592"
       inkscape:connector-curvature="0"
       sodipodi:nodetypes="cc" />
    <path
       style="fill:none;stroke:#000000;stroke-width:0.499999;stroke-linecap:butt;stroke-linejoin:miter;stroke-miterlimit:4;stroke-dasharray:none;stroke-opacity:1"
       d="m 20.440479,275.70338 v 14.7803"
       id="path1782"
       sodipodi:nodetypes="cc" />
  </g>
</svg>
