<?xml version="1.0" encoding="UTF-8" standalone="no"?>
<svg
   sodipodi:docname="Landau 1st Ps vs Temperature.svg"
   inkscape:version="1.1 (c68e22c387, 2021-05-23)"
   id="svg1045"
   version="1.1"
   viewBox="0 0 40.64 40.640002"
   height="1.6in"
   width="1.6in"
   inkscape:export-filename="Landau 1st Ps vs Temperature.png"
   inkscape:export-xdpi="600"
   inkscape:export-ydpi="600"
   xmlns:inkscape="http://www.inkscape.org/namespaces/inkscape"
   xmlns:sodipodi="http://sodipodi.sourceforge.net/DTD/sodipodi-0.dtd"
   xmlns="http://www.w3.org/2000/svg"
   xmlns:svg="http://www.w3.org/2000/svg"
   xmlns:rdf="http://www.w3.org/1999/02/22-rdf-syntax-ns#"
   xmlns:cc="http://creativecommons.org/ns#"
   xmlns:dc="http://purl.org/dc/elements/1.1/">
  <defs
     id="defs1039">
    <marker
       inkscape:stockid="TriangleOutM"
       orient="auto"
       refY="0"
       refX="0"
       id="marker949"
       style="overflow:visible"
       inkscape:isstock="true">
      <path
         id="path947"
         d="M 5.77,0 -2.88,5 V -5 Z"
         style="fill:#000000;fill-opacity:1;fill-rule:evenodd;stroke:#000000;stroke-width:1.00000003pt;stroke-opacity:1"
         transform="scale(0.4)"
         inkscape:connector-curvature="0" />
    </marker>
    <marker
       inkscape:stockid="TriangleInM"
       orient="auto"
       refY="0"
       refX="0"
       id="marker4986"
       style="overflow:visible"
       inkscape:isstock="true">
      <path
         id="path4984"
         d="M 5.77,0 -2.88,5 V -5 Z"
         style="fill:#000000;fill-opacity:1;fill-rule:evenodd;stroke:#000000;stroke-width:1.00000003pt;stroke-opacity:1"
         transform="scale(-0.4)"
         inkscape:connector-curvature="0" />
    </marker>
    <marker
       inkscape:isstock="true"
       style="overflow:visible"
       id="marker4750"
       refX="0"
       refY="0"
       orient="auto"
       inkscape:stockid="TriangleOutM">
      <path
         inkscape:connector-curvature="0"
         transform="scale(0.4)"
         style="fill:#298fe3;fill-opacity:1;fill-rule:evenodd;stroke:#298fe3;stroke-width:1.00000003pt;stroke-opacity:1"
         d="M 5.77,0 -2.88,5 V -5 Z"
         id="path4748" />
    </marker>
    <marker
       inkscape:stockid="TriangleOutM"
       orient="auto"
       refY="0"
       refX="0"
       id="marker4428"
       style="overflow:visible"
       inkscape:isstock="true">
      <path
         id="path4426"
         d="M 5.77,0 -2.88,5 V -5 Z"
         style="fill:#298fe3;fill-opacity:1;fill-rule:evenodd;stroke:#298fe3;stroke-width:1.00000003pt;stroke-opacity:1"
         transform="scale(0.4)"
         inkscape:connector-curvature="0" />
    </marker>
    <marker
       inkscape:isstock="true"
       style="overflow:visible"
       id="marker2308"
       refX="0"
       refY="0"
       orient="auto"
       inkscape:stockid="TriangleOutM">
      <path
         inkscape:connector-curvature="0"
         transform="scale(0.4)"
         style="fill:#000000;fill-opacity:1;fill-rule:evenodd;stroke:#000000;stroke-width:1.00000003pt;stroke-opacity:1"
         d="M 5.77,0 -2.88,5 V -5 Z"
         id="path2306" />
    </marker>
    <marker
       inkscape:isstock="true"
       style="overflow:visible"
       id="EmptyDiamondSend"
       refX="0"
       refY="0"
       orient="auto"
       inkscape:stockid="EmptyDiamondSend">
      <path
         inkscape:connector-curvature="0"
         transform="matrix(0.2,0,0,0.2,-1.2,0)"
         style="fill:#ffffff;fill-rule:evenodd;stroke:#4d2929;stroke-width:1.00000003pt;stroke-opacity:1"
         d="M 0,-7.0710768 -7.0710894,0 0,7.0710589 7.0710462,0 Z"
         id="path1725" />
    </marker>
    <style
       type="text/css"
       id="style50">
*{stroke-linecap:butt;stroke-linejoin:round;}
  </style>
    <clipPath
       id="pc66d710f9a">
      <rect
         height="108.72"
         width="111.6"
         x="0"
         y="-0"
         id="rect74" />
    </clipPath>
    <style
       type="text/css"
       id="style104">
*{stroke-linecap:butt;stroke-linejoin:round;}
  </style>
    <clipPath
       id="p6ab946efec">
      <rect
         height="108.72"
         width="111.6"
         x="0"
         y="-0"
         id="rect125" />
    </clipPath>
    <style
       id="style925"
       type="text/css">
*{stroke-linecap:butt;stroke-linejoin:round;}
  </style>
    <clipPath
       id="pc66d710f9a-5">
      <rect
         id="rect949"
         y="-0"
         x="0"
         width="111.6"
         height="108.72" />
    </clipPath>
    <style
       id="style1058"
       type="text/css">
*{stroke-linecap:butt;stroke-linejoin:round;}
  </style>
    <clipPath
       id="p425d863e30">
      <rect
         id="rect1073"
         y="-0"
         x="0"
         width="111.6"
         height="108.72" />
    </clipPath>
    <style
       type="text/css"
       id="style970">
*{stroke-linecap:butt;stroke-linejoin:round;}
  </style>
    <clipPath
       id="pacecd20e99">
      <rect
         height="108.72"
         width="111.6"
         x="0"
         y="-0"
         id="rect991" />
    </clipPath>
  </defs>
  <sodipodi:namedview
     inkscape:document-rotation="0"
     showguides="true"
     inkscape:window-maximized="1"
     inkscape:window-y="-9"
     inkscape:window-x="87"
     inkscape:window-height="1051"
     inkscape:window-width="1824"
     units="in"
     showgrid="false"
     inkscape:current-layer="layer1"
     inkscape:document-units="mm"
     inkscape:cy="100.01321"
     inkscape:cx="64.900838"
     inkscape:zoom="3.9444791"
     inkscape:pageshadow="2"
     inkscape:pageopacity="0.0"
     borderopacity="1.0"
     bordercolor="#666666"
     pagecolor="#ffffff"
     id="base"
     inkscape:pagecheckerboard="0" />
  <metadata
     id="metadata1042">
    <rdf:RDF>
      <cc:Work
         rdf:about="">
        <dc:format>image/svg+xml</dc:format>
        <dc:type
           rdf:resource="http://purl.org/dc/dcmitype/StillImage" />
        <dc:title />
      </cc:Work>
    </rdf:RDF>
  </metadata>
  <g
     transform="translate(0,-256.35999)"
     id="layer1"
     inkscape:groupmode="layer"
     inkscape:label="Layer 1">
    <text
       id="text2230"
       y="259.60263"
       x="3.1520634"
       style="font-style:normal;font-variant:normal;font-weight:normal;font-stretch:normal;font-size:3.52778px;line-height:1.25;font-family:Arial;-inkscape-font-specification:Arial;letter-spacing:0px;word-spacing:0px;fill:#000000;fill-opacity:1;stroke:none;stroke-width:0.264583"
       xml:space="preserve"><tspan
         style="font-style:italic;font-size:3.52778px;stroke-width:0.264583"
         y="259.60263"
         x="3.1520634"
         id="tspan2228"
         sodipodi:role="line">P<tspan
   style="font-size:65%;baseline-shift:sub"
   id="tspan956">s</tspan></tspan></text>
    <g
       transform="translate(0.44588116,-0.25808198)"
       id="g1047">
      <text
         xml:space="preserve"
         style="font-style:normal;font-variant:normal;font-weight:normal;font-stretch:normal;font-size:2.82222px;line-height:1.25;font-family:Arial;-inkscape-font-specification:Arial;letter-spacing:0px;word-spacing:0px;fill:#000000;fill-opacity:1;stroke:none;stroke-width:0.264583"
         x="37.346584"
         y="296.44873"
         id="text2230-3"><tspan
           sodipodi:role="line"
           id="tspan2228-7"
           x="37.346584"
           y="296.44873"
           style="font-style:italic;font-size:3.52778px;stroke-width:0.264583">T</tspan></text>
    </g>
    <text
       xml:space="preserve"
       style="font-style:normal;font-variant:normal;font-weight:normal;font-stretch:normal;font-size:2.82222px;line-height:1.25;font-family:Arial;-inkscape-font-specification:Arial;letter-spacing:0px;word-spacing:0px;fill:#377eb8;fill-opacity:1;stroke:none;stroke-width:0.264583;stroke-linecap:butt;stroke-linejoin:round"
       x="3.2362609"
       y="285.57874"
       id="text2244-8"><tspan
         sodipodi:role="line"
         id="tspan2242-0"
         x="3.2362609"
         y="285.57874"
         style="font-size:2.82222px;fill:#377eb8;fill-opacity:1;stroke-width:0.264583"
         dy="-0.30000001 0 -0.30000001 0 0.30000001">|<tspan
   style="font-style:italic;font-size:2.82222px"
   id="tspan1143">Ɛ</tspan>| &gt; 0</tspan></text>
    <text
       id="text2244-8-2"
       y="290.32974"
       x="4.7024922"
       style="font-style:normal;font-variant:normal;font-weight:normal;font-stretch:normal;font-size:2.82222px;line-height:1.25;font-family:Arial;-inkscape-font-specification:Arial;letter-spacing:0px;word-spacing:0px;fill:#e41a1c;fill-opacity:1;stroke:none;stroke-width:0.264583;stroke-linecap:butt;stroke-linejoin:round"
       xml:space="preserve"><tspan
         style="font-size:2.82222px;fill:#e41a1c;fill-opacity:1;stroke-width:0.264583"
         y="290.32974"
         x="4.7024922"
         id="tspan2242-0-2"
         sodipodi:role="line"><tspan
   style="font-style:italic;font-size:2.82222px"
   id="tspan1141">Ɛ </tspan>= 0</tspan></text>
    <g
       transform="matrix(0.36032376,0,0,0.29950643,-0.3438749,260.59059)"
       id="g1017"
       style="stroke-linecap:butt;stroke-linejoin:round">
      <g
         id="figure_1-4">
        <g
           id="patch_1-2">
          <path
             d="M 0,108.72 H 111.6 V 0 H 0 Z"
             style="fill:none"
             id="path974" />
        </g>
        <g
           id="axes_1-8">
          <g
             id="line2d_1-4">
            <path
               clip-path="url(#pacecd20e99)"
               d="m 5.072727,8.181441 1.024794,0.405487 1.024793,0.411937 1.024793,0.418635 1.024794,0.425602 1.024793,0.432858 1.024794,0.440416 1.024793,0.448303 1.024793,0.456537 1.024794,0.465148 1.024793,0.474159 1.024794,0.483606 1.024793,0.493516 1.024793,0.503937 1.024794,0.514903 1.024793,0.526464 1.024793,0.538674 1.024794,0.551596 1.024793,0.565293 1.024794,0.579843 1.024793,0.59534 1.024793,0.611881 1.024794,0.62958 1.024793,0.648584 1.024794,0.669046 1.024793,0.691151 1.024793,0.715124 1.024794,0.741238 1.024793,0.769807 1.024794,0.80123 1.024793,0.835988 1.024793,0.874698 1.024794,0.918122 1.024793,0.96727 1.024793,1.02345 1.024794,1.088449 1.024793,1.164721 1.024794,1.255807 1.024793,1.366984 1.024793,1.506558 1.024794,1.688509 1.024793,1.938676 1.024794,2.311827 1.024793,2.953652 1.024793,4.499332 1.024794,55.192801 h 1.024793 1.024794 1.024793 1.024793 1.024794 1.024793 1.024793 1.024794 1.024793 1.024794 1.024793 1.024793 1.024794 1.024793 1.024794 1.024793 1.024793 1.024794 1.024793 1.024794 1.024793 1.024793 1.024794 1.024793 1.024793 1.024794 1.024793 1.024794 1.024793 1.024793 1.024794 1.024793 1.024794 1.024793 1.024793 1.024794 1.024793 1.024794 1.024793 1.024793 1.024794 1.024793 1.024793 1.024794 1.024793 1.024794 1.024793 1.024791 1.0248 1.02479 1.02479 1.0248 1.02479 1.02479"
               style="fill:none;stroke:#e41a1c;stroke-width:0.91321225;stroke-linecap:square;stroke-miterlimit:4;stroke-dasharray:none"
               id="path977" />
          </g>
          <g
             id="line2d_2-3">
            <path
               clip-path="url(#pacecd20e99)"
               d="m 5.072727,7.655295 1.024794,0.395148 1.024793,0.401164 1.024793,0.407408 1.024794,0.413885 1.024793,0.420614 1.024794,0.427613 1.024793,0.4349 1.024793,0.442489 1.024794,0.450406 1.024793,0.458671 1.024794,0.467308 1.024793,0.476349 1.024793,0.485819 1.024794,0.495757 1.024793,0.506198 1.024793,0.517183 1.024794,0.528758 1.024793,0.54098 1.024794,0.553901 1.024793,0.567594 1.024793,0.582133 1.024794,0.597601 1.024793,0.614099 1.024794,0.631742 1.024793,0.650661 1.024793,0.671013 1.024794,0.692966 1.024793,0.716746 1.024794,0.742602 1.024793,0.770839 1.024793,0.801829 1.024794,0.836023 1.024793,0.873991 1.024793,0.916439 1.024794,0.964279 1.024793,1.018699 1.024794,1.081272 1.024793,1.154147 1.024793,1.240342 1.024794,1.344241 1.024793,1.472509 1.024794,1.635842 1.024793,1.852758 1.024793,2.158716 1.024794,2.633038 1.024793,3.507243 1.024794,6.094313 1.024793,32.633062 1.024793,2.859702 1.024794,1.86871 1.024793,1.379571 1.024793,1.081947 1.024794,0.880636 1.024793,0.73537 1.024794,0.625829 1.024793,0.540503 1.024793,0.472392 1.024794,0.416944 1.024793,0.371083 1.024794,0.332633 1.024793,0.300031 1.024793,0.272117 1.024794,0.248008 1.024793,0.227032 1.024794,0.208645 1.024793,0.192445 1.024793,0.178087 1.024794,0.165295 1.024793,0.153851 1.024793,0.143563 1.024794,0.13429 1.024793,0.12589 1.024794,0.11826 1.024793,0.111311 1.024793,0.10496 1.024794,0.0991 1.024793,0.0938 1.024794,0.0889 1.024793,0.0843 1.024793,0.0801 1.024794,0.0762 1.024793,0.0726 1.024794,0.0692 1.024793,0.0661 1.024793,0.0632 1.024794,0.0605 1.024793,0.0579 1.024793,0.0555 1.024794,0.0532 1.024793,0.0511 1.024794,0.0491 1.024793,0.0472 1.024791,0.0455 1.0248,0.0438 1.02479,0.0422 1.02479,0.0407 1.0248,0.0393 1.02479,0.0379 1.02479,0.0366"
               style="fill:none;stroke:#377eb8;stroke-width:0.91321225;stroke-linecap:square;stroke-miterlimit:4;stroke-dasharray:none"
               id="path980" />
          </g>
          <g
             id="line2d_3">
            <path
               clip-path="url(#pacecd20e99)"
               d="m 5.072727,7.144872 1.024794,0.385508 1.024793,0.391141 1.024793,0.396971 1.024794,0.403015 1.024793,0.409287 1.024794,0.415792 1.024793,0.422547 1.024793,0.429575 1.024794,0.436889 1.024793,0.444504 1.024794,0.452444 1.024793,0.460735 1.024793,0.469397 1.024794,0.478459 1.024793,0.487948 1.024793,0.497902 1.024794,0.508356 1.024793,0.51935 1.024794,0.53093 1.024793,0.543147 1.024793,0.556063 1.024794,0.569734 1.024793,0.584241 1.024794,0.599667 1.024793,0.616101 1.024793,0.633661 1.024794,0.652469 1.024793,0.672677 1.024794,0.694447 1.024793,0.71799 1.024793,0.743543 1.024794,0.771393 1.024793,0.801887 1.024793,0.835444 1.024794,0.872588 1.024793,0.91396 1.024794,0.960389 1.024793,1.012918 1.024793,1.072945 1.024794,1.142303 1.024793,1.223535 1.024794,1.320229 1.024793,1.437639 1.024793,1.583818 1.024794,1.771827 1.024793,2.024472 1.024794,2.385867 1.024793,2.955215 1.024793,4.018279 1.024794,6.935143 1.024793,14.690108 1.024793,6.383793 1.024794,3.34628 1.024793,2.29082 1.024794,1.738516 1.024793,1.394107 1.024793,1.157239 1.024794,0.983828 1.024793,0.851245 1.024794,0.746579 1.024793,0.661921 1.024793,0.592101 1.024794,0.533606 1.024793,0.483959 1.024794,0.441353 1.024793,0.404445 1.024793,0.372212 1.024794,0.343854 1.024793,0.318752 1.024793,0.296404 1.024794,0.276406 1.024793,0.258429 1.024794,0.2422 1.024793,0.227493 1.024793,0.214119 1.024794,0.201916 1.024793,0.190749 1.024794,0.180502 1.024793,0.171072 1.024793,0.162375 1.024794,0.154336 1.024793,0.146886 1.024794,0.139972 1.024793,0.13354 1.024793,0.127546 1.024794,0.121952 1.024793,0.116722 1.024793,0.111824 1.024794,0.107231 1.024793,0.102918 1.024794,0.09886 1.024793,0.09504 1.024791,0.09144 1.0248,0.08804 1.02479,0.08483 1.02479,0.0818 1.0248,0.07892 1.02479,0.07619 1.02479,0.07361"
               style="fill:none;stroke:#4daf4a;stroke-width:0.91321225;stroke-linecap:square;stroke-miterlimit:4;stroke-dasharray:none"
               id="path983" />
          </g>
          <g
             id="line2d_4">
            <path
               clip-path="url(#pacecd20e99)"
               d="m 5.072727,4.941818 1.024794,0.347826 1.024793,0.352109 1.024793,0.356517 1.024794,0.361061 1.024793,0.365738 1.024794,0.370563 1.024793,0.375536 1.024793,0.380669 1.024794,0.385973 1.024793,0.391449 1.024794,0.397111 1.024793,0.402969 1.024793,0.409038 1.024794,0.415314 1.024793,0.421827 1.024793,0.428582 1.024794,0.435593 1.024793,0.44288 1.024794,0.450459 1.024793,0.458343 1.024793,0.46656 1.024794,0.475126 1.024793,0.484068 1.024794,0.493411 1.024793,0.503185 1.024793,0.513418 1.024794,0.524151 1.024793,0.535415 1.024794,0.547259 1.024793,0.559726 1.024793,0.57287 1.024794,0.586751 1.024793,0.60143 1.024793,0.616986 1.024794,0.6335 1.024793,0.651062 1.024794,0.669791 1.024793,0.689789 1.024793,0.711209 1.024794,0.734208 1.024793,0.75897 1.024794,0.785706 1.024793,0.814671 1.024793,0.846151 1.024794,0.880497 1.024793,0.918112 1.024794,0.959484 1.024793,1.005196 1.024793,1.055949 1.024794,1.112598 1.024793,1.176159 1.024793,1.247889 1.024794,1.329302 1.024793,1.422195 1.024794,1.528671 1.024793,1.651028 1.024793,1.791457 1.024794,1.951236 1.024793,2.129001 1.024794,2.317409 1.024793,2.498297 1.024793,2.639249 1.024794,2.699824 1.024793,2.653142 1.024794,2.507142 1.024793,2.29951 1.024793,2.072156 1.024794,1.853424 1.024793,1.656504 1.024793,1.484829 1.024794,1.337154 1.024793,1.21054 1.024794,1.101772 1.024793,1.007898 1.024793,0.9264 1.024794,0.855215 1.024793,0.792636 1.024794,0.737297 1.024793,0.688081 1.024793,0.644076 1.024794,0.604538 1.024793,0.568846 1.024794,0.536498 1.024793,0.507059 1.024793,0.480171 1.024794,0.455533 1.024793,0.432885 1.024793,0.412007 1.024794,0.392708 1.024793,0.374824 1.024794,0.358213 1.024793,0.342751 1.024791,0.328326 1.0248,0.314845 1.02479,0.302224 1.02479,0.290386 1.0248,0.279264 1.02479,0.268802 1.02479,0.258942"
               style="fill:none;stroke:#984ea3;stroke-width:0.91321225;stroke-linecap:square;stroke-miterlimit:4;stroke-dasharray:none"
               id="path986" />
          </g>
        </g>
      </g>
    </g>
    <g
       transform="translate(-3.1750001,-0.60428959)"
       id="g1244">
      <text
         xml:space="preserve"
         style="font-style:normal;font-variant:normal;font-weight:normal;font-stretch:normal;font-size:2.82222px;line-height:1.25;font-family:Arial;-inkscape-font-specification:Arial;letter-spacing:0px;word-spacing:0px;fill:#4daf4a;fill-opacity:1;stroke:none;stroke-width:0.264583;stroke-linecap:butt;stroke-linejoin:round"
         x="30.147976"
         y="278.90051"
         id="text2244-8-9"><tspan
           sodipodi:role="line"
           id="tspan2242-0-0"
           x="30.147976"
           y="278.90051"
           style="font-style:italic;font-size:2.82222px;fill:#4daf4a;fill-opacity:1;stroke-width:0.264583">Ɛ = Ɛ<tspan
   style="font-size:65%;baseline-shift:sub"
   id="tspan964">C</tspan></tspan></text>
      <text
         id="text2244-8-9-9"
         y="274.37775"
         x="30.253286"
         style="font-style:normal;font-variant:normal;font-weight:normal;font-stretch:normal;font-size:2.82222px;line-height:1.25;font-family:Arial;-inkscape-font-specification:Arial;letter-spacing:0px;word-spacing:0px;fill:#984ea3;fill-opacity:1;stroke:none;stroke-width:0.264583;stroke-linecap:butt;stroke-linejoin:round"
         xml:space="preserve"><tspan
           style="font-style:italic;font-size:2.82222px;fill:#984ea3;fill-opacity:1;stroke-width:0.264583"
           y="274.37775"
           x="30.253286"
           id="tspan2242-0-0-2"
           sodipodi:role="line">Ɛ &gt; Ɛ<tspan
   style="font-size:65%;baseline-shift:sub"
   id="tspan966">C</tspan></tspan></text>
    </g>
    <text
       id="text2230-3-4"
       y="295.68561"
       x="15.3661"
       style="font-style:normal;font-variant:normal;font-weight:normal;font-stretch:normal;font-size:2.82222px;line-height:1.25;font-family:Arial;-inkscape-font-specification:Arial;letter-spacing:0px;word-spacing:0px;fill:#000000;fill-opacity:1;stroke:none;stroke-width:0.264583;stroke-linecap:butt;stroke-linejoin:round"
       xml:space="preserve"><tspan
         style="font-style:italic;font-size:2.82222px;stroke-width:0.264583"
         y="295.68561"
         x="15.3661"
         id="tspan2228-7-9"
         sodipodi:role="line">T<tspan
   style="font-size:65%;baseline-shift:sub"
   id="tspan942">C</tspan></tspan></text>
    <path
       id="path1297"
       d="m 16.515589,287.38362 v 6.28176"
       style="fill:none;stroke:#000000;stroke-width:0.264583;stroke-linecap:butt;stroke-linejoin:miter;stroke-miterlimit:4;stroke-dasharray:0.793749, 0.264583;stroke-dashoffset:0;stroke-opacity:1" />
    <path
       id="path1297-3"
       d="m 18.118205,287.38362 v 6.28176"
       style="fill:none;stroke:#000000;stroke-width:0.264583;stroke-linecap:butt;stroke-linejoin:miter;stroke-miterlimit:4;stroke-dasharray:0.793749, 0.264583;stroke-dashoffset:0;stroke-opacity:1" />
    <path
       style="opacity:1;fill:none;fill-opacity:1;fill-rule:nonzero;stroke:#000000;stroke-width:0.176;stroke-linecap:butt;stroke-linejoin:round;stroke-miterlimit:4;stroke-dasharray:none;stroke-dashoffset:0;stroke-opacity:1;marker-start:url(#marker4986);marker-end:url(#marker949);paint-order:normal"
       d="M 40.065736,292.00845 H 1.2853976 v 0 -34.56789"
       id="path4982"
       inkscape:connector-curvature="0"
       sodipodi:nodetypes="cccc" />
    <text
       id="text2230-3-4-3"
       y="295.68561"
       x="18.825308"
       style="font-style:normal;font-variant:normal;font-weight:normal;font-stretch:normal;font-size:2.82222px;line-height:1.25;font-family:Arial;-inkscape-font-specification:Arial;letter-spacing:0px;word-spacing:0px;fill:#000000;fill-opacity:1;stroke:none;stroke-width:0.264583;stroke-linecap:butt;stroke-linejoin:round"
       xml:space="preserve"><tspan
         style="font-style:italic;font-size:2.82222px;stroke-width:0.264583"
         y="295.68561"
         x="18.825308"
         id="tspan2228-7-9-8"
         sodipodi:role="line">T<tspan
   style="font-size:65%;baseline-shift:sub"
   id="tspan942-2">1</tspan></tspan></text>
    <text
       xml:space="preserve"
       style="font-size:2.82223px;line-height:1.25;font-family:Arial;-inkscape-font-specification:Arial;stroke-width:0.264583"
       x="11.477594"
       y="295.68561"
       id="text6046"><tspan
         sodipodi:role="line"
         id="tspan6044"
         style="stroke-width:0.264583;font-style:italic"
         x="11.477594"
         y="295.68561">T<tspan
   style="font-size:65%;baseline-shift:sub;font-style:italic"
   id="tspan6708">0</tspan></tspan></text>
    <path
       id="path7675"
       d="m 12.811423,287.38362 v 6.28176"
       style="fill:none;stroke:#000000;stroke-width:0.264583;stroke-linecap:butt;stroke-linejoin:miter;stroke-miterlimit:4;stroke-dasharray:0.793749, 0.264583;stroke-dashoffset:0;stroke-opacity:1" />
  </g>
</svg>
