<?xml version="1.0" encoding="UTF-8" standalone="no"?>
<svg
   xmlns:dc="http://purl.org/dc/elements/1.1/"
   xmlns:cc="http://creativecommons.org/ns#"
   xmlns:rdf="http://www.w3.org/1999/02/22-rdf-syntax-ns#"
   xmlns:svg="http://www.w3.org/2000/svg"
   xmlns="http://www.w3.org/2000/svg"
   xmlns:sodipodi="http://sodipodi.sourceforge.net/DTD/sodipodi-0.dtd"
   xmlns:inkscape="http://www.inkscape.org/namespaces/inkscape"
   sodipodi:docname="Landau 1st Energy vs Polarization.svg"
   inkscape:version="1.0.2 (e86c870879, 2021-01-15, custom)"
   id="svg1045"
   version="1.1"
   viewBox="0 0 40.64 40.640002"
   height="1.6in"
   width="1.6in"
   inkscape:export-filename="Landau 1st Energy vs Polarization.png"
   inkscape:export-xdpi="600"
   inkscape:export-ydpi="600">
  <defs
     id="defs1039">
    <marker
       inkscape:isstock="true"
       orient="auto"
       refY="0"
       refX="0"
       id="InfiniteLineEnd"
       inkscape:stockid="InfiniteLineEnd"
       style="overflow:visible">
      <g
         style="fill:#000000;stroke:#000000;stroke-opacity:1;fill-opacity:1"
         id="g1537">
        <circle
           style="stroke:#000000;stroke-opacity:1;fill:#000000;fill-opacity:1"
           cx="3"
           cy="0"
           r="0.8"
           id="circle1531" />
        <circle
           style="stroke:#000000;stroke-opacity:1;fill:#000000;fill-opacity:1"
           cx="6.5"
           cy="0"
           r="0.8"
           id="circle1533" />
        <circle
           style="stroke:#000000;stroke-opacity:1;fill:#000000;fill-opacity:1"
           cx="10"
           cy="0"
           r="0.8"
           id="circle1535" />
      </g>
    </marker>
    <marker
       inkscape:isstock="true"
       inkscape:stockid="DistanceStart"
       orient="auto"
       refY="0.0"
       refX="0.0"
       id="DistanceStart"
       style="overflow:visible">
      <g
         style="stroke:#000000;stroke-opacity:1;fill:#000000;fill-opacity:1"
         id="g2300">
        <path
           id="path1558"
           d="M 0,0 L 2,0"
           style="fill:#000000;stroke:#000000;stroke-width:1.15;stroke-linecap:square;stroke-opacity:1;fill-opacity:1" />
        <path
           id="path2302"
           d="M 0,0 L 13,4 L 9,0 13,-4 L 0,0 z "
           style="fill:#000000;fill-rule:evenodd;stroke:#000000;stroke-opacity:1;fill-opacity:1" />
        <path
           id="path2304"
           d="M 0,-4 L 0,40"
           style="fill:#000000;stroke:#000000;stroke-width:1;stroke-linecap:square;stroke-opacity:1;fill-opacity:1" />
      </g>
    </marker>
    <marker
       inkscape:stockid="TriangleOutM"
       orient="auto"
       refY="0"
       refX="0"
       id="marker1200"
       style="overflow:visible"
       inkscape:isstock="true">
      <path
         id="path1198"
         d="M 5.77,0 -2.88,5 V -5 Z"
         style="fill:#000000;fill-opacity:1;fill-rule:evenodd;stroke:#000000;stroke-width:1.00000003pt;stroke-opacity:1"
         transform="scale(0.4)"
         inkscape:connector-curvature="0" />
    </marker>
    <marker
       inkscape:stockid="TriangleOutM"
       orient="auto"
       refY="0"
       refX="0"
       id="marker949"
       style="overflow:visible"
       inkscape:isstock="true">
      <path
         id="path947"
         d="M 5.77,0 -2.88,5 V -5 Z"
         style="fill:#000000;fill-opacity:1;fill-rule:evenodd;stroke:#000000;stroke-width:1.00000003pt;stroke-opacity:1"
         transform="scale(0.4)"
         inkscape:connector-curvature="0" />
    </marker>
    <marker
       inkscape:collect="always"
       inkscape:isstock="true"
       style="overflow:visible"
       id="marker5580"
       refX="0"
       refY="0"
       orient="auto"
       inkscape:stockid="TriangleOutM">
      <path
         inkscape:connector-curvature="0"
         transform="scale(0.4)"
         style="fill:#000000;fill-opacity:1;fill-rule:evenodd;stroke:#000000;stroke-width:1.00000003pt;stroke-opacity:1"
         d="M 5.77,0 -2.88,5 V -5 Z"
         id="path5578" />
    </marker>
    <marker
       inkscape:stockid="TriangleInM"
       orient="auto"
       refY="0"
       refX="0"
       id="marker4986"
       style="overflow:visible"
       inkscape:isstock="true">
      <path
         id="path4984"
         d="M 5.77,0 -2.88,5 V -5 Z"
         style="fill:#000000;fill-opacity:1;fill-rule:evenodd;stroke:#000000;stroke-width:1.00000003pt;stroke-opacity:1"
         transform="scale(-0.4)"
         inkscape:connector-curvature="0" />
    </marker>
    <marker
       inkscape:isstock="true"
       style="overflow:visible"
       id="marker4750"
       refX="0"
       refY="0"
       orient="auto"
       inkscape:stockid="TriangleOutM">
      <path
         inkscape:connector-curvature="0"
         transform="scale(0.4)"
         style="fill:#298fe3;fill-opacity:1;fill-rule:evenodd;stroke:#298fe3;stroke-width:1.00000003pt;stroke-opacity:1"
         d="M 5.77,0 -2.88,5 V -5 Z"
         id="path4748" />
    </marker>
    <marker
       inkscape:stockid="TriangleOutM"
       orient="auto"
       refY="0"
       refX="0"
       id="marker4428"
       style="overflow:visible"
       inkscape:isstock="true">
      <path
         id="path4426"
         d="M 5.77,0 -2.88,5 V -5 Z"
         style="fill:#298fe3;fill-opacity:1;fill-rule:evenodd;stroke:#298fe3;stroke-width:1.00000003pt;stroke-opacity:1"
         transform="scale(0.4)"
         inkscape:connector-curvature="0" />
    </marker>
    <marker
       inkscape:isstock="true"
       style="overflow:visible"
       id="marker2308"
       refX="0"
       refY="0"
       orient="auto"
       inkscape:stockid="TriangleOutM">
      <path
         inkscape:connector-curvature="0"
         transform="scale(0.4)"
         style="fill:#000000;fill-opacity:1;fill-rule:evenodd;stroke:#000000;stroke-width:1.00000003pt;stroke-opacity:1"
         d="M 5.77,0 -2.88,5 V -5 Z"
         id="path2306" />
    </marker>
    <marker
       inkscape:isstock="true"
       style="overflow:visible"
       id="EmptyDiamondSend"
       refX="0"
       refY="0"
       orient="auto"
       inkscape:stockid="EmptyDiamondSend">
      <path
         inkscape:connector-curvature="0"
         transform="matrix(0.2,0,0,0.2,-1.2,0)"
         style="fill:#ffffff;fill-rule:evenodd;stroke:#000000;stroke-width:1.00000003pt;stroke-opacity:1"
         d="M 0,-7.0710768 -7.0710894,0 0,7.0710589 7.0710462,0 Z"
         id="path1725" />
    </marker>
    <style
       type="text/css"
       id="style50">
*{stroke-linecap:butt;stroke-linejoin:round;}
  </style>
    <clipPath
       id="pc66d710f9a">
      <rect
         height="108.72"
         width="111.6"
         x="0"
         y="-0"
         id="rect74" />
    </clipPath>
    <style
       type="text/css"
       id="style104">
*{stroke-linecap:butt;stroke-linejoin:round;}
  </style>
    <clipPath
       id="p6ab946efec">
      <rect
         height="108.72"
         width="111.6"
         x="0"
         y="-0"
         id="rect125" />
    </clipPath>
    <style
       id="style925"
       type="text/css">
*{stroke-linecap:butt;stroke-linejoin:round;}
  </style>
    <clipPath
       id="pc66d710f9a-5">
      <rect
         id="rect949"
         y="-0"
         x="0"
         width="111.6"
         height="108.72" />
    </clipPath>
  </defs>
  <sodipodi:namedview
     inkscape:document-rotation="0"
     showguides="true"
     inkscape:window-maximized="1"
     inkscape:window-y="-9"
     inkscape:window-x="2474"
     inkscape:window-height="1051"
     inkscape:window-width="1837"
     units="in"
     showgrid="false"
     inkscape:current-layer="g1903"
     inkscape:document-units="mm"
     inkscape:cy="62.505315"
     inkscape:cx="68.32126"
     inkscape:zoom="4.1040375"
     inkscape:pageshadow="2"
     inkscape:pageopacity="0.0"
     borderopacity="1.0"
     bordercolor="#666666"
     pagecolor="#ffffff"
     id="base" />
  <metadata
     id="metadata1042">
    <rdf:RDF>
      <cc:Work
         rdf:about="">
        <dc:format>image/svg+xml</dc:format>
        <dc:type
           rdf:resource="http://purl.org/dc/dcmitype/StillImage" />
        <dc:title></dc:title>
      </cc:Work>
    </rdf:RDF>
  </metadata>
  <g
     transform="translate(0,-256.35999)"
     id="layer1"
     inkscape:groupmode="layer"
     inkscape:label="Layer 1">
    <path
       sodipodi:nodetypes="cc"
       inkscape:connector-curvature="0"
       id="rect1592"
       d="m 20.548526,261.24282 v -3.7391"
       style="opacity:1;fill:none;fill-opacity:1;fill-rule:nonzero;stroke:#000000;stroke-width:0.175;stroke-linecap:butt;stroke-linejoin:round;stroke-miterlimit:4;stroke-dasharray:none;stroke-dashoffset:0;stroke-opacity:1;marker-end:url(#marker5580);paint-order:normal" />
    <text
       id="text2230"
       y="259.77335"
       x="22.182802"
       style="font-style:normal;font-variant:normal;font-weight:normal;font-stretch:normal;font-size:3.52778px;line-height:1.25;font-family:Arial;-inkscape-font-specification:Arial;letter-spacing:0px;word-spacing:0px;fill:#000000;fill-opacity:1;stroke:none;stroke-width:0.264583"
       xml:space="preserve"><tspan
         style="font-style:italic;font-size:3.52778px;stroke-width:0.264583"
         y="259.77335"
         x="22.182802"
         id="tspan2228"
         sodipodi:role="line">F</tspan></text>
    <path
       style="opacity:1;fill:none;fill-opacity:1;fill-rule:nonzero;stroke:#000000;stroke-width:0.175;stroke-linecap:butt;stroke-linejoin:round;stroke-miterlimit:4;stroke-dasharray:none;stroke-dashoffset:0;stroke-opacity:1;marker-start:url(#marker4986);paint-order:normal"
       d="M 38.992506,295.25859 H 0.2270643"
       id="path4982"
       inkscape:connector-curvature="0"
       sodipodi:nodetypes="cc" />
    <g
       transform="translate(0.4717194,-3.3579592)"
       id="g1047">
      <text
         xml:space="preserve"
         style="font-style:normal;font-variant:normal;font-weight:normal;font-stretch:normal;font-size:3.52778px;line-height:1.25;font-family:Arial;-inkscape-font-specification:Arial;letter-spacing:0px;word-spacing:0px;fill:#000000;fill-opacity:1;stroke:none;stroke-width:0.264583"
         x="37.346584"
         y="296.44873"
         id="text2230-3"><tspan
           sodipodi:role="line"
           id="tspan2228-7"
           x="37.346584"
           y="296.44873"
           style="font-style:italic;font-size:3.52778px;stroke-width:0.264583">P</tspan></text>
    </g>
    <g
       style="stroke-linecap:butt;stroke-linejoin:round"
       id="g977"
       transform="matrix(0.38273632,0,0,0.35277779,-0.96171224,256.90459)">
      <g
         id="figure_1">
        <g
           id="patch_1">
          <path
             id="path929"
             style="fill:none"
             d="M 0,108.72 H 111.6 V 0 H 0 Z" />
        </g>
        <g
           id="axes_1">
          <g
             id="line2d_1">
            <path
               id="path932"
               style="fill:none;stroke:#e41a1c;stroke-width:0.81643347;stroke-linecap:square;stroke-miterlimit:4;stroke-dasharray:none"
               d="m 15.790693,-1 0.554762,4.337413 1.024793,7.137941 1.024793,6.364202 1.024794,5.68212 1.024793,5.083163 1.024793,4.559298 1.024794,4.102982 1.024793,3.707132 1.024794,3.365129 1.024793,3.070792 1.024793,2.818368 1.024794,2.602522 1.024793,2.418317 1.024794,2.261202 1.024793,2.127002 1.024793,2.011898 1.024794,1.912419 1.024793,1.825426 1.024794,1.748094 1.024793,1.677906 1.024793,1.612632 1.024794,1.550322 1.024793,1.489286 1.024793,1.42808 1.024794,1.365503 1.024793,1.300566 1.024794,1.232493 1.024793,1.1607 1.024793,1.084782 1.024794,1.0045 1.024793,0.919766 1.024794,0.830634 1.024793,0.737277 1.024793,0.639984 1.024794,0.539134 1.024793,0.435197 1.024794,0.328705 1.024793,0.220249 1.024793,0.110461 h 1.024794 l 1.024793,-0.110461 1.024793,-0.220249 1.024794,-0.328705 1.024793,-0.435197 1.024794,-0.539134 1.024793,-0.639984 1.024793,-0.737277 1.024794,-0.830634 1.024793,-0.919766 1.024794,-1.0045 1.024793,-1.084782 1.024793,-1.1607 1.024794,-1.232493 1.024793,-1.300566 1.024794,-1.365503 1.024793,-1.42808 1.024793,-1.489286 1.024794,-1.550322 1.024793,-1.612632 1.024793,-1.677906 1.024794,-1.748094 1.024793,-1.825426 1.024794,-1.912419 1.024793,-2.011898 1.024793,-2.127002 1.024794,-2.261202 1.024793,-2.418317 1.024794,-2.602522 1.024793,-2.818368 1.024793,-3.070792 1.024794,-3.365129 1.024793,-3.707132 1.024794,-4.102982 1.024793,-4.559298 1.024793,-5.083163 1.024794,-5.68212 1.024793,-6.364202 L 95.254545,3.337413 95.809307,-1"
               clip-path="url(#pc66d710f9a-5)" />
          </g>
          <g
             id="line2d_2">
            <path
               id="path935"
               style="fill:none;stroke:#377eb8;stroke-width:0.81643347;stroke-linecap:square;stroke-miterlimit:4;stroke-dasharray:none"
               d="m 8.525307,-1 0.646594,8.839722 1.024793,12.214866 1.024794,10.59901 1.024793,9.149598 1.024793,7.854231 1.024794,6.701108 1.024793,5.679005 1.024794,4.777265 1.024793,3.985785 1.024793,3.295 1.024794,2.695867 1.024793,2.179862 1.024793,1.73895 1.024794,1.365583 1.024793,1.052686 1.024794,0.793634 1.024793,0.582249 1.024793,0.412776 1.024794,0.279882 1.024793,0.178627 1.024794,0.104465 1.024793,0.05321 1.024793,0.02106 1.024794,0.0045 1.024793,4.94e-4 1.024794,0.0061 1.024793,0.01888 1.024793,0.03656 1.024794,0.0572 1.024793,0.07911 1.024793,0.100858 1.024794,0.121231 1.024793,0.139246 1.024794,0.154124 1.024793,0.165283 1.024793,0.172316 1.024794,0.174985 1.024793,0.173203 1.024794,0.167022 1.024793,0.156618 1.024793,0.142274 1.024794,0.124378 1.024793,0.103391 1.024794,0.07985 1.024793,0.05435 1.024793,0.02751 h 1.024794 l 1.024793,-0.02751 1.024793,-0.05435 1.024794,-0.07985 1.024793,-0.103391 1.024794,-0.124378 1.024793,-0.142274 1.024793,-0.156618 1.024794,-0.167022 1.024793,-0.173203 1.024794,-0.174985 1.024793,-0.172316 1.024793,-0.165283 1.024794,-0.154124 1.024793,-0.139246 1.024794,-0.121231 1.024793,-0.100858 1.024793,-0.07911 1.024794,-0.0572 1.024793,-0.03656 1.024793,-0.01888 1.024794,-0.0061 1.024793,-4.94e-4 1.024794,-0.0045 1.024793,-0.02106 1.024793,-0.05321 1.024794,-0.104465 1.024793,-0.178627 1.024794,-0.279882 1.024793,-0.412776 1.024793,-0.582249 1.024794,-0.793634 1.024793,-1.052686 1.024794,-1.365583 1.024793,-1.73895 1.024793,-2.179862 1.024794,-2.695867 1.024793,-3.295 1.024793,-3.985785 1.024794,-4.777265 1.024793,-5.679005 1.024794,-6.701108 1.024793,-7.854231 1.024791,-9.149598 1.0248,-10.59901 L 102.4281,7.839722 103.07469,-1"
               clip-path="url(#pc66d710f9a-5)" />
          </g>
          <g
             id="line2d_3">
            <path
               id="path938"
               style="fill:none;stroke:#4daf4a;stroke-width:0.81643347;stroke-linecap:square;stroke-miterlimit:4;stroke-dasharray:none"
               d="m 7.996533,-1 0.150574,2.302956 1.024794,13.692192 1.024793,11.903799 1.024794,10.294855 1.024793,8.852354 1.024793,7.563901 1.024794,6.417691 1.024793,5.4025 1.024794,4.507673 1.024793,3.723106 1.024793,3.039232 1.024794,2.447013 1.024793,1.93792 1.024793,1.503921 1.024794,1.137467 1.024793,0.831482 1.024794,0.579343 1.024793,0.37487 1.024793,0.21231 1.024794,0.08633 1.024793,-0.008 1.024794,-0.07526 1.024793,-0.1196 1.024793,-0.144839 1.024794,-0.154454 1.024793,-0.151584 1.024794,-0.139051 1.024793,-0.119376 1.024793,-0.09479 1.024794,-0.06723 1.024793,-0.0384 1.024793,-0.0097 1.024794,0.01754 1.024793,0.04247 1.024794,0.06426 1.024793,0.08233 1.024793,0.09628 1.024794,0.105859 1.024793,0.11099 1.024794,0.111721 1.024793,0.108229 1.024793,0.100799 1.024794,0.08981 1.024793,0.07574 1.024794,0.05911 1.024793,0.04052 1.024793,0.0206 h 1.024794 l 1.024793,-0.0206 1.024793,-0.04052 1.024794,-0.05911 1.024793,-0.07574 1.024794,-0.08981 1.024793,-0.100799 1.024793,-0.108229 1.024794,-0.111721 1.024793,-0.11099 1.024794,-0.105859 1.024793,-0.09628 1.024793,-0.08233 1.024794,-0.06426 1.024793,-0.04247 1.024794,-0.01754 1.024793,0.0097 1.024793,0.0384 1.024794,0.06723 1.024793,0.09479 1.024793,0.119376 1.024794,0.139051 1.024793,0.151584 1.024794,0.154454 1.024793,0.144839 1.024793,0.1196 1.024794,0.07526 1.024793,0.008 1.024794,-0.08633 1.024793,-0.21231 1.024793,-0.37487 1.024794,-0.579343 1.024793,-0.831482 1.024794,-1.137467 1.024793,-1.503921 1.024793,-1.93792 1.024794,-2.447013 1.024793,-3.039232 1.024793,-3.723106 1.024794,-4.507673 1.024793,-5.4025 1.024794,-6.417691 1.024793,-7.563901 1.024791,-8.852354 1.0248,-10.294855 L 102.4281,14.995148 103.45289,1.302956 103.60347,-1"
               clip-path="url(#pc66d710f9a-5)" />
          </g>
          <g
             id="line2d_4">
            <path
               id="path941"
               style="fill:none;stroke:#984ea3;stroke-width:0.81643347;stroke-linecap:square;stroke-miterlimit:4;stroke-dasharray:none"
               d="m 6.513273,-1 0.609041,10.024194 1.024793,14.698983 1.024794,12.738251 1.024793,10.970595 1.024794,9.382388 1.024793,7.960627 1.024793,6.692911 1.024794,5.567438 1.024793,4.572986 1.024794,3.698896 1.024793,2.935067 1.024793,2.271931 1.024794,1.700451 1.024793,1.212094 1.024793,0.798834 1.024794,0.453117 1.024793,0.167871 1.024794,-0.06353 1.024793,-0.247266 1.024793,-0.389088 1.024794,-0.494332 1.024793,-0.567935 1.024794,-0.614448 1.024793,-0.638047 1.024793,-0.642548 1.024794,-0.631425 1.024793,-0.607817 1.024794,-0.574546 1.024793,-0.534133 1.024793,-0.488804 1.024794,-0.440513 1.024793,-0.390948 1.024793,-0.34155 1.024794,-0.293526 1.024793,-0.247861 1.024794,-0.205332 1.024793,-0.166523 1.024793,-0.131839 1.024794,-0.10152 1.024793,-0.07565 1.024794,-0.05418 1.024793,-0.03694 1.024793,-0.02363 1.024794,-0.01387 1.024793,-0.0072 1.024794,-0.0031 1.024793,-9.55e-4 1.024793,-1.41e-4 h 1.024794 l 1.024793,1.41e-4 1.024793,9.55e-4 1.024794,0.0031 1.024793,0.0072 1.024794,0.01387 1.024793,0.02363 1.024793,0.03694 1.024794,0.05418 1.024793,0.07565 1.024794,0.10152 1.024793,0.131839 1.024793,0.166523 1.024794,0.205332 1.024793,0.247861 1.024794,0.293526 1.024793,0.34155 1.024793,0.390948 1.024794,0.440513 1.024793,0.488804 1.024793,0.534133 1.024794,0.574546 1.024793,0.607817 1.024794,0.631425 1.024793,0.642548 1.024793,0.638047 1.024794,0.614448 1.024793,0.567935 1.024794,0.494332 1.024793,0.389088 1.024793,0.247266 1.024794,0.06353 1.024793,-0.167871 1.024794,-0.453117 1.024793,-0.798834 1.024793,-1.212094 1.024794,-1.700451 1.024793,-2.271931 1.024793,-2.935067 1.024794,-3.698896 1.024793,-4.572986 1.024794,-5.567438 1.024793,-6.692911 1.024791,-7.960627 1.0248,-9.382388 1.02479,-10.970595 1.02479,-12.738251 1.0248,-14.698983 L 105.08673,-1"
               clip-path="url(#pc66d710f9a-5)" />
          </g>
          <g
             id="line2d_5">
            <path
               id="path944"
               style="fill:none;stroke:#ff7f00;stroke-width:0.81643347;stroke-linecap:square;stroke-miterlimit:4;stroke-dasharray:none"
               d="m 5.072727,0 1.024794,18.173479 1.024793,15.805276 1.024793,13.659324 1.024794,11.720713 1.024793,9.975178 1.024794,8.409092 1.024793,7.00945 1.024793,5.763854 1.024794,4.660503 1.024793,3.68817 1.024794,2.836201 1.024793,2.09449 1.024793,1.45348 1.024794,0.90412 1.024793,0.43788 1.024793,0.0467 1.024794,-0.27686 1.024793,-0.53998 1.024794,-0.74926 1.024793,-0.91088 1.024793,-1.03058 1.024794,-1.1137 1.024793,-1.16519 1.024794,-1.189576 1.024793,-1.191056 1.024793,-1.173437 1.024794,-1.140194 1.024793,-1.094465 1.024794,-1.039075 1.024793,-0.976541 1.024793,-0.909091 1.024794,-0.83868 1.024793,-0.766994 1.024793,-0.695476 1.024794,-0.625332 1.024793,-0.557547 1.024794,-0.492897 1.024793,-0.431967 1.024793,-0.375164 1.024794,-0.322724 1.024793,-0.274734 1.024794,-0.231145 1.024793,-0.191779 1.024793,-0.15635 1.024794,-0.124477 1.024793,-0.09569 1.024794,-0.06946 1.024793,-0.0452 1.024793,-0.02226 h 1.024794 l 1.024793,0.02226 1.024793,0.0452 1.024794,0.06946 1.024793,0.09569 1.024794,0.124477 1.024793,0.15635 1.024793,0.191779 1.024794,0.231145 1.024793,0.274734 1.024794,0.322724 1.024793,0.375164 1.024793,0.431967 1.024794,0.492897 1.024793,0.557547 1.024794,0.625332 1.024793,0.695476 1.024793,0.766994 1.024794,0.83868 1.024793,0.909091 1.024793,0.976541 1.024794,1.039075 1.024793,1.094465 1.024794,1.140194 1.024793,1.173437 1.024793,1.191056 1.024794,1.189576 1.024793,1.16519 1.024794,1.1137 1.024793,1.03058 1.024793,0.91088 1.024794,0.74926 1.024793,0.53998 1.024794,0.27686 1.024793,-0.0467 1.024793,-0.43788 1.024794,-0.90412 1.024793,-1.45348 1.024793,-2.09449 1.024794,-2.836201 1.024793,-3.68817 1.024794,-4.660503 1.024793,-5.763854 1.024791,-7.00945 1.0248,-8.409092 1.02479,-9.975178 1.02479,-11.720713 1.0248,-13.659324 1.02479,-15.805276 L 106.52727,0"
               clip-path="url(#pc66d710f9a-5)" />
          </g>
        </g>
      </g>
    </g>
    <g
       id="g1903"
       transform="translate(0.78704279)">
      <text
         xml:space="preserve"
         style="font-style:normal;font-variant:normal;font-weight:normal;font-stretch:normal;font-size:2.82222px;line-height:1.25;font-family:Arial;-inkscape-font-specification:Arial;text-align:start;letter-spacing:0px;word-spacing:0px;text-anchor:start;fill:#4daf4a;fill-opacity:1;stroke:none;stroke-width:0.264583"
         x="16.385162"
         y="273.85815"
         id="text2244"><tspan
           sodipodi:role="line"
           id="tspan2242"
           x="16.385162"
           y="273.85815"
           style="font-size:2.82222px;text-align:start;text-anchor:start;fill:#4daf4a;fill-opacity:1;stroke-width:0.264583"><tspan
   style="font-style:italic;font-size:2.82222px;text-align:start;text-anchor:start"
   id="tspan942">T </tspan>= <tspan
   style="font-style:italic;font-size:2.82222px;text-align:start;text-anchor:start"
   id="tspan944">T</tspan><tspan
   dy="0"
   style="font-style:italic;font-size:65%;text-align:start;baseline-shift:sub;text-anchor:start;fill:#4daf4a;fill-opacity:1"
   id="tspan153">C</tspan></tspan></text>
      <text
         id="text2244-8"
         y="269.33539"
         x="16.385162"
         style="font-style:normal;font-variant:normal;font-weight:normal;font-stretch:normal;font-size:2.82222px;line-height:1.25;font-family:Arial;-inkscape-font-specification:Arial;text-align:start;letter-spacing:0px;word-spacing:0px;text-anchor:start;fill:#377eb8;fill-opacity:1;stroke:none;stroke-width:0.264583;stroke-linecap:butt;stroke-linejoin:round"
         xml:space="preserve"><tspan
           style="font-size:2.82222px;text-align:start;text-anchor:start;fill:#377eb8;fill-opacity:1;stroke-width:0.264583"
           y="269.33539"
           x="16.385162"
           id="tspan2242-0"
           sodipodi:role="line"><tspan
   style="font-style:italic;font-size:2.82222px;text-align:start;text-anchor:start"
   id="tspan940">T </tspan>= <tspan
   style="font-style:italic;font-size:2.82222px;text-align:start;text-anchor:start"
   id="tspan938">T</tspan><tspan
   style="font-size:65%;text-align:start;baseline-shift:sub;text-anchor:start"
   id="tspan1031">1</tspan></tspan></text>
      <text
         id="text2244-0"
         y="278.38092"
         x="16.385162"
         style="font-style:normal;font-variant:normal;font-weight:normal;font-stretch:normal;font-size:2.82222px;line-height:1.25;font-family:Arial;-inkscape-font-specification:Arial;text-align:start;letter-spacing:0px;word-spacing:0px;text-anchor:start;fill:#26b047;fill-opacity:1;stroke:none;stroke-width:0.264583;stroke-linecap:butt;stroke-linejoin:round"
         xml:space="preserve"><tspan
           style="font-size:2.82222px;text-align:start;text-anchor:start;fill:#984ea3;fill-opacity:1;stroke-width:0.264583"
           y="278.38092"
           x="16.385162"
           id="tspan2242-02"
           sodipodi:role="line"><tspan
   style="font-style:italic;font-size:2.82222px;text-align:start;text-anchor:start"
   id="tspan946">T </tspan>= <tspan
   style="font-style:italic;font-size:2.82222px;text-align:start;text-anchor:start"
   id="tspan948">T</tspan><tspan
   style="font-size:65%;text-align:start;baseline-shift:sub;text-anchor:start"
   id="tspan1033">0</tspan></tspan><tspan
           style="font-size:2.82222px;text-align:start;text-anchor:start;fill:#984ea3;fill-opacity:1;stroke-width:0.264583"
           y="281.90869"
           x="16.385162"
           sodipodi:role="line"
           id="tspan197" /></text>
      <text
         xml:space="preserve"
         style="font-style:normal;font-variant:normal;font-weight:normal;font-stretch:normal;font-size:2.82222px;line-height:1.25;font-family:Arial;-inkscape-font-specification:Arial;text-align:start;letter-spacing:0px;word-spacing:0px;text-anchor:start;fill:#e41a1c;fill-opacity:1;stroke:none;stroke-width:0.264583;stroke-linecap:butt;stroke-linejoin:round"
         x="16.385162"
         y="264.81262"
         id="text2244-8-2"><tspan
           sodipodi:role="line"
           id="tspan2242-0-2"
           x="16.385162"
           y="264.81262"
           style="font-size:2.82222px;text-align:start;text-anchor:start;fill:#e41a1c;fill-opacity:1;stroke-width:0.264583"><tspan
   style="font-style:italic;font-size:2.82222px;text-align:start;text-anchor:start"
   id="tspan934">T </tspan>&gt; <tspan
   style="font-style:italic;font-size:2.82222px;text-align:start;text-anchor:start"
   id="tspan936">T</tspan><tspan
   style="font-size:65%;text-align:start;baseline-shift:sub;text-anchor:start"
   id="tspan1029">1</tspan></tspan></text>
      <text
         xml:space="preserve"
         style="font-style:normal;font-variant:normal;font-weight:normal;font-stretch:normal;font-size:2.82222px;line-height:1.25;font-family:Arial;-inkscape-font-specification:Arial;text-align:start;letter-spacing:0px;word-spacing:0px;text-anchor:start;fill:#ff7f00;fill-opacity:1;stroke:none;stroke-width:0.264583;stroke-linecap:butt;stroke-linejoin:round"
         x="16.385162"
         y="282.90369"
         id="text2244-0-3"><tspan
           sodipodi:role="line"
           id="tspan2242-02-3"
           x="16.385162"
           y="282.90369"
           style="font-size:2.82222px;text-align:start;text-anchor:start;fill:#ff7f00;fill-opacity:1;stroke-width:0.264583"><tspan
   style="font-style:italic;font-size:2.82222px;text-align:start;text-anchor:start"
   id="tspan950">T </tspan>&lt; T<tspan
   style="font-size:65%;text-align:start;baseline-shift:sub;text-anchor:start"
   id="tspan1035">0</tspan></tspan><tspan
           id="tspan197-7"
           sodipodi:role="line"
           x="16.385162"
           y="286.43146"
           style="font-size:2.82222px;text-align:start;text-anchor:start;fill:#ff7f00;fill-opacity:1;stroke-width:0.264583" /></text>
    </g>
    <path
       sodipodi:nodetypes="cc"
       id="path1782"
       d="m 20.548526,284.03336 v 9.48863"
       style="fill:none;stroke:#000000;stroke-width:0.175;stroke-linecap:butt;stroke-linejoin:miter;stroke-miterlimit:4;stroke-dasharray:none;stroke-opacity:1" />
  </g>
</svg>
