<?xml version="1.0" encoding="UTF-8" standalone="no"?>
<svg
   xmlns:dc="http://purl.org/dc/elements/1.1/"
   xmlns:cc="http://creativecommons.org/ns#"
   xmlns:rdf="http://www.w3.org/1999/02/22-rdf-syntax-ns#"
   xmlns:svg="http://www.w3.org/2000/svg"
   xmlns="http://www.w3.org/2000/svg"
   xmlns:xlink="http://www.w3.org/1999/xlink"
   xmlns:sodipodi="http://sodipodi.sourceforge.net/DTD/sodipodi-0.dtd"
   xmlns:inkscape="http://www.inkscape.org/namespaces/inkscape"
   width="50.124779mm"
   height="20.353525mm"
   viewBox="0 0 50.124779 20.353525"
   version="1.1"
   id="svg4133"
   inkscape:version="1.0.2 (e86c870879, 2021-01-15, custom)"
   sodipodi:docname="AFM mode tapping.svg">
  <defs
     id="defs4127">
    <marker
       style="overflow:visible"
       id="marker1098"
       refX="0"
       refY="0"
       orient="auto"
       inkscape:stockid="TriangleOutS"
       inkscape:isstock="true">
      <path
         transform="scale(0.2)"
         style="fill:#000000;fill-opacity:1;fill-rule:evenodd;stroke:#000000;stroke-width:1pt;stroke-opacity:1"
         d="M 5.77,0 -2.88,5 V -5 Z"
         id="path1096" />
    </marker>
    <marker
       style="overflow:visible"
       id="marker1088"
       refX="0"
       refY="0"
       orient="auto"
       inkscape:stockid="TriangleInS"
       inkscape:isstock="true">
      <path
         transform="scale(-0.2)"
         style="fill:#000000;fill-opacity:1;fill-rule:evenodd;stroke:#000000;stroke-width:1pt;stroke-opacity:1"
         d="M 5.77,0 -2.88,5 V -5 Z"
         id="path1086" />
    </marker>
    <linearGradient
       inkscape:collect="always"
       xlink:href="#linearGradient1047"
       id="linearGradient2282"
       gradientUnits="userSpaceOnUse"
       gradientTransform="translate(-15.276036,-24.632064)"
       x1="27.4025"
       y1="49.081852"
       x2="55.056385"
       y2="49.081852" />
    <linearGradient
       inkscape:collect="always"
       id="linearGradient1047">
      <stop
         style="stop-color:#848488;stop-opacity:1;"
         offset="0"
         id="stop1043" />
      <stop
         style="stop-color:#5b5bb0;stop-opacity:1"
         offset="1"
         id="stop1045" />
    </linearGradient>
    <marker
       style="overflow:visible"
       id="marker3156"
       refX="0"
       refY="0"
       orient="auto"
       inkscape:stockid="TriangleOutM"
       inkscape:isstock="true"
       inkscape:collect="always">
      <path
         transform="scale(0.4)"
         style="fill:#ff7f00;fill-opacity:1;fill-rule:evenodd;stroke:#ff7f00;stroke-width:1pt;stroke-opacity:1"
         d="M 5.77,0 -2.88,5 V -5 Z"
         id="path3154" />
    </marker>
    <marker
       style="overflow:visible"
       id="TriangleInS-5"
       refX="0"
       refY="0"
       orient="auto"
       inkscape:stockid="TriangleInS"
       inkscape:isstock="true"
       inkscape:collect="always">
      <path
         transform="scale(-0.2)"
         style="fill:#000000;fill-opacity:1;fill-rule:evenodd;stroke:#000000;stroke-width:1pt;stroke-opacity:1"
         d="M 5.77,0 -2.88,5 V -5 Z"
         id="path2961-8" />
    </marker>
    <marker
       style="overflow:visible"
       id="TriangleOutS-4"
       refX="0"
       refY="0"
       orient="auto"
       inkscape:stockid="TriangleOutS"
       inkscape:isstock="true"
       inkscape:collect="always">
      <path
         transform="scale(0.2)"
         style="fill:#000000;fill-opacity:1;fill-rule:evenodd;stroke:#000000;stroke-width:1pt;stroke-opacity:1"
         d="M 5.77,0 -2.88,5 V -5 Z"
         id="path2970-7" />
    </marker>
  </defs>
  <sodipodi:namedview
     id="base"
     pagecolor="#ffffff"
     bordercolor="#666666"
     borderopacity="1.0"
     inkscape:pageopacity="0.0"
     inkscape:pageshadow="2"
     inkscape:zoom="3.959798"
     inkscape:cx="-40.071822"
     inkscape:cy="48.796284"
     inkscape:document-units="mm"
     inkscape:current-layer="layer1"
     inkscape:document-rotation="0"
     showgrid="false"
     fit-margin-top="0"
     fit-margin-left="0"
     fit-margin-right="0"
     fit-margin-bottom="0"
     inkscape:window-width="1837"
     inkscape:window-height="1051"
     inkscape:window-x="74"
     inkscape:window-y="-9"
     inkscape:window-maximized="1" />
  <metadata
     id="metadata4130">
    <rdf:RDF>
      <cc:Work
         rdf:about="">
        <dc:format>image/svg+xml</dc:format>
        <dc:type
           rdf:resource="http://purl.org/dc/dcmitype/StillImage" />
        <dc:title />
      </cc:Work>
    </rdf:RDF>
  </metadata>
  <g
     inkscape:label="Layer 1"
     inkscape:groupmode="layer"
     id="layer1"
     transform="translate(6.9195318,-243.06728)">
    <g
       id="g2274"
       transform="translate(3.424897,215.91225)">
      <path
         style="fill:#7a7cff;fill-opacity:0.941176;stroke:#000000;stroke-width:0.346588px;stroke-linecap:butt;stroke-linejoin:miter;stroke-opacity:1"
         d="M 13.358365,32.188782 14.6089,44.747276 15.859434,32.188782"
         id="path2270"
         sodipodi:nodetypes="ccc" />
      <path
         style="fill:url(#linearGradient2282);fill-opacity:1;stroke:#000000;stroke-width:0.347134;stroke-linecap:butt;stroke-linejoin:bevel;stroke-miterlimit:4;stroke-dasharray:none;stroke-opacity:1"
         d="m 12.300031,32.188782 c 0,0 4.994209,0.163493 8.295652,-0.469237 2.455304,-0.470565 10.507044,-3.402713 13.752211,-3.395978 5.201839,0.0108 5.258889,0 5.258889,0 v -0.997445 h -5.26895 c -3.178421,0 -11.152967,2.864911 -13.560019,3.313725 -3.368958,0.628169 -8.477783,0.551491 -8.477783,0.551491 z"
         id="path2272"
         sodipodi:nodetypes="cssccsscc" />
    </g>
    <path
       style="fill:none;stroke:#000000;stroke-width:0.264525px;stroke-linecap:butt;stroke-linejoin:miter;stroke-opacity:1"
       d="m -6.861583,261.34875 5.209395,-2.5391 c 0,0 3.940439,2.67274 4.474736,2.67274 0.534297,0 10.752725,-2.07137 10.752725,-2.07137 0,0 3.673291,3.80864 4.140802,3.87546 0.467509,0.0668 7.14622,-3.47456 9.416982,-3.67501 2.270763,-0.20045 9.350197,0.0668 10.151647,0.60136 0.80144,0.53455 5.27618,0.53455 5.74369,0.3341"
       id="path2276"
       sodipodi:nodetypes="ccscsssc" />
    <path
       style="fill:none;stroke:#e41a1c;stroke-width:0.265;stroke-linecap:butt;stroke-linejoin:miter;stroke-miterlimit:4;stroke-dasharray:none;stroke-opacity:1"
       d="m -6.693573,258.81217 c 0,0 0.06662,-1.64234 0.32536,-1.64234 0.258741,0 0.32536,1.29035 0.32536,1.29035 0,0 0.06662,1.7581 0.32536,1.7581 0.25874,0 0.32536,-2.00614 0.32536,-2.00614 0,0 0.06662,-2.10064 0.32536,-2.10064 0.258741,0 0.32536,1.76991 0.32536,1.76991 0,0 0.06662,1.63053 0.32536,1.63053 0.25874,0 0.32536,-0.69977 0.32536,-0.69977 0,0 0.06662,-3.22984 0.32536,-3.22984 0.258741,0 0.32536,1.64234 0.32536,1.64234 0,0 0.06662,1.64235 0.32536,1.64235 0.25874,0 0.32536,-1.98252 0.32536,-1.98252 0,0 0.06662,-1.98489 0.32536,-1.98489 0.258741,0 0.32536,1.67778 0.32536,1.67778 0,0 0.06662,1.72502 0.32536,1.72502 0.25874,0 0.32536,-2.0085 0.32536,-2.0085 0,0 0.06662,-1.66597 0.32536,-1.66597 0.258741,0 0.32536,2.04394 0.32536,2.04394 0,0 0.06662,2.07702 0.325358,2.07702 0.25874,0 0.32536,-1.60691 0.32536,-1.60691 0,0 0.0666,-1.65651 0.32536,-1.65651 0.25875,0 0.32536,2.06756 0.32536,2.06756 0,0 0.0666,2.01796 0.32536,2.01796 0.25874,0 0.32536,-1.63998 0.32536,-1.63998 0,0 0.0666,-1.63053 0.32536,-1.63053 0.258752,0 0.325362,2.05339 0.325362,2.05339 0,0 0.0666,2.01795 0.32536,2.01795 0.25874,0 0.32536,-1.66596 0.32536,-1.66596 0,0 0.0666,-1.66597 0.32536,-1.66597 0.25875,0 0.32536,1.89039 0.32536,1.89039 0,0 0.0666,1.77227 0.32537,1.77227 0.25874,0 0.32536,-1.83133 0.32536,-1.83133 0,0 0.0666,-1.92582 0.32536,-1.92582 0.25874,0 0.32536,1.79589 0.32536,1.79589 0,0 0.0666,1.71322 0.32536,1.71322 0.25874,0 0.32536,-1.85496 0.32536,-1.85496 0,0 0.0666,-1.9022 0.32536,-1.9022 0.25874,0 0.32536,1.77227 0.32536,1.77227 0,0 0.0666,1.76046 0.32536,1.76046 0.25874,0 0.32536,-1.86676 0.32536,-1.86676 0,0 0.0666,-1.92583 0.32536,-1.92583 0.25874,0 0.32536,1.7959 0.32536,1.7959 0,0 0.0666,1.76046 0.32536,1.76046 0.25874,0 0.32536,-1.86677 0.32536,-1.86677 0,0 0.0666,-1.93763 0.32536,-1.93763 0.25874,0 0.32536,1.79589 0.32536,1.79589 0,0 0.0666,1.76046 0.32536,1.76046 0.25874,0 0.32536,-1.9211 0.32536,-1.9211 0,0 0.0666,-1.85495 0.32536,-1.85495 0.25874,0 0.32536,1.68959 0.32536,1.68959 0,0 0.0666,1.85495 0.32536,1.85495 0.25874,0 0.32536,-1.91401 0.32536,-1.91401 0,0 0.0666,-1.92346 0.32536,-1.92346 0.25874,0 0.32536,1.76046 0.32536,1.76046 0,0 0.0666,1.76991 0.32536,1.76991 0.25874,0 0.32536,-1.88803 0.32536,-1.88803 0,0 0.0666,-1.87858 0.32536,-1.87858 0.25874,0 0.32536,1.7392 0.32536,1.7392 0,0 0.0666,1.77936 0.32536,1.77936 0.25874,0 0.32536,-1.86204 0.32536,-1.86204 0,0 0.0666,-1.94945 0.32536,-1.94945 0.25874,0 0.32536,1.74865 0.32536,1.74865 0,0 0.0666,1.8644 0.32536,1.8644 0.25874,0 0.32536,-1.48879 0.32536,-1.48879 0,0 0.0666,-1.52422 0.32536,-1.52422 0.25874,0 0.32536,2.18332 0.32536,2.18332 0,0 0.0666,2.18096 0.32536,2.18096 0.25874,0 0.32536,-1.59274 0.32536,-1.59274 0,0 0.0666,-1.54784 0.32536,-1.54784 0.25874,0 0.32536,2.20694 0.32536,2.20694 0,0 0.0666,2.2282 0.32536,2.2282 0.25874,0 0.32536,-1.6069 0.32536,-1.6069 0,0 0.0666,-1.5006 0.32536,-1.5006 0.25874,0 0.32536,2.10063 0.32536,2.10063 0,0 0.0666,2.07702 0.32536,2.07702 0.25874,0 0.32536,-1.81716 0.32536,-1.81716"
       id="path2787"
       sodipodi:nodetypes="czczczczczczczczczczczczczczczczczczczczczczczczczczczczczczczczczczczczczczc" />
    <path
       style="fill:none;stroke:#ff7f00;stroke-width:0.5;stroke-linecap:butt;stroke-linejoin:miter;stroke-miterlimit:4;stroke-dasharray:none;stroke-opacity:1;marker-end:url(#marker3156)"
       d="M 24.90564,251.58956 H 35.39448"
       id="path3152" />
    <path
       style="fill:none;stroke:#000000;stroke-width:0.1;stroke-linecap:butt;stroke-linejoin:miter;stroke-miterlimit:4;stroke-dasharray:none;stroke-opacity:1"
       d="M -6.861583,243.16206 H 1.0097714"
       id="path7641-5"
       sodipodi:nodetypes="cc" />
    <path
       style="fill:none;stroke:#000000;stroke-width:0.1;stroke-linecap:butt;stroke-linejoin:miter;stroke-miterlimit:4;stroke-dasharray:none;stroke-opacity:1;marker-start:url(#TriangleInS-5);marker-end:url(#TriangleOutS-4)"
       d="M -4.2488225,261.15671 V 243.39057"
       id="path7301-3"
       sodipodi:nodetypes="cc" />
    <path
       style="fill:none;stroke:#000000;stroke-width:0.1;stroke-linecap:butt;stroke-linejoin:miter;stroke-miterlimit:4;stroke-dasharray:none;stroke-opacity:1"
       d="m -6.861583,261.34875 h 5.225521"
       id="path7641-5-6"
       sodipodi:nodetypes="cc" />
    <path
       style="fill:none;stroke:#000000;stroke-width:0.1;stroke-linecap:butt;stroke-linejoin:miter;stroke-miterlimit:4;stroke-dasharray:none;stroke-opacity:1"
       d="M -1.5699163,246.86622 H 1.0097714"
       id="path986"
       sodipodi:nodetypes="cc" />
    <path
       style="fill:none;stroke:#000000;stroke-width:0.1;stroke-linecap:butt;stroke-linejoin:miter;stroke-miterlimit:4;stroke-dasharray:none;stroke-opacity:1;marker-start:url(#marker1088);marker-end:url(#marker1098)"
       d="m -0.28007245,246.65743 v -3.26686"
       id="path1084"
       sodipodi:nodetypes="cc" />
    <text
       xml:space="preserve"
       style="font-size:2.82222px;line-height:1.25;font-family:Arial;-inkscape-font-specification:Arial;stroke-width:0.264583"
       x="0.24680054"
       y="246.0341"
       id="text1230"><tspan
         sodipodi:role="line"
         id="tspan1228"
         x="0.24680054"
         y="246.0341"
         style="font-style:italic;font-size:2.82222px;stroke-width:0.264583">D</tspan></text>
    <text
       xml:space="preserve"
       style="font-size:2.82222px;line-height:1.25;font-family:Arial;-inkscape-font-specification:Arial;stroke-width:0.264583"
       x="-6.3466578"
       y="246.0341"
       id="text1234"><tspan
         sodipodi:role="line"
         id="tspan1232"
         x="-6.3466578"
         y="246.0341"
         style="font-style:italic;font-size:2.82222px;stroke-width:0.264583">z</tspan></text>
  </g>
</svg>
