<?xml version="1.0" encoding="utf-8" standalone="no"?>
<!DOCTYPE svg PUBLIC "-//W3C//DTD SVG 1.1//EN"
  "http://www.w3.org/Graphics/SVG/1.1/DTD/svg11.dtd">
<!-- Created with matplotlib (https://matplotlib.org/) -->
<svg height="128.365312pt" version="1.1" viewBox="0 0 149.670028 128.365312" width="149.670028pt" xmlns="http://www.w3.org/2000/svg" xmlns:xlink="http://www.w3.org/1999/xlink">
 <defs>
  <style type="text/css">
*{stroke-linecap:butt;stroke-linejoin:round;}
  </style>
 </defs>
 <g id="figure_1">
  <g id="patch_1">
   <path d="M 0 128.365312 
L 149.670028 128.365312 
L 149.670028 0 
L 0 0 
z
" style="fill:none;"/>
  </g>
  <g id="axes_1">
   <g id="patch_2">
    <path d="M 34.2 108.72 
L 145.8 108.72 
L 145.8 0 
L 34.2 0 
z
" style="fill:none;"/>
   </g>
   <g id="matplotlib.axis_1">
    <g id="xtick_1">
     <g id="line2d_1">
      <defs>
       <path d="M 0 0 
L 0 -3.5 
" id="mf994266047" style="stroke:#000000;stroke-width:0.5;"/>
      </defs>
      <g>
       <use style="stroke:#000000;stroke-width:0.5;" x="35.890909" xlink:href="#mf994266047" y="108.72"/>
      </g>
     </g>
     <g id="line2d_2">
      <defs>
       <path d="M 0 0 
L 0 3.5 
" id="m840a45e5d3" style="stroke:#000000;stroke-width:0.5;"/>
      </defs>
      <g>
       <use style="stroke:#000000;stroke-width:0.5;" x="35.890909" xlink:href="#m840a45e5d3" y="0"/>
      </g>
     </g>
     <g id="text_1">
      <text style="font-family:Arial;font-size:10px;font-style:normal;font-weight:normal;text-anchor:middle;" transform="rotate(-0, 35.890909, 116.877812)" x="35.890909" y="116.877812">−80</text>
     </g>
    </g>
    <g id="xtick_2">
     <g id="line2d_3">
      <g>
       <use style="stroke:#000000;stroke-width:0.5;" x="62.945455" xlink:href="#mf994266047" y="108.72"/>
      </g>
     </g>
     <g id="line2d_4">
      <g>
       <use style="stroke:#000000;stroke-width:0.5;" x="62.945455" xlink:href="#m840a45e5d3" y="0"/>
      </g>
     </g>
     <g id="text_2">
      <text style="font-family:Arial;font-size:10px;font-style:normal;font-weight:normal;text-anchor:middle;" transform="rotate(-0, 62.945455, 116.877812)" x="62.945455" y="116.877812">−40</text>
     </g>
    </g>
    <g id="xtick_3">
     <g id="line2d_5">
      <g>
       <use style="stroke:#000000;stroke-width:0.5;" x="90" xlink:href="#mf994266047" y="108.72"/>
      </g>
     </g>
     <g id="line2d_6">
      <g>
       <use style="stroke:#000000;stroke-width:0.5;" x="90" xlink:href="#m840a45e5d3" y="0"/>
      </g>
     </g>
     <g id="text_3">
      <text style="font-family:Arial;font-size:10px;font-style:normal;font-weight:normal;text-anchor:middle;" transform="rotate(-0, 90, 116.877812)" x="90" y="116.877812">0</text>
     </g>
    </g>
    <g id="xtick_4">
     <g id="line2d_7">
      <g>
       <use style="stroke:#000000;stroke-width:0.5;" x="117.054545" xlink:href="#mf994266047" y="108.72"/>
      </g>
     </g>
     <g id="line2d_8">
      <g>
       <use style="stroke:#000000;stroke-width:0.5;" x="117.054545" xlink:href="#m840a45e5d3" y="0"/>
      </g>
     </g>
     <g id="text_4">
      <text style="font-family:Arial;font-size:10px;font-style:normal;font-weight:normal;text-anchor:middle;" transform="rotate(-0, 117.054545, 116.877812)" x="117.054545" y="116.877812">40</text>
     </g>
    </g>
    <g id="xtick_5">
     <g id="line2d_9">
      <g>
       <use style="stroke:#000000;stroke-width:0.5;" x="144.109091" xlink:href="#mf994266047" y="108.72"/>
      </g>
     </g>
     <g id="line2d_10">
      <g>
       <use style="stroke:#000000;stroke-width:0.5;" x="144.109091" xlink:href="#m840a45e5d3" y="0"/>
      </g>
     </g>
     <g id="text_5">
      <text style="font-family:Arial;font-size:10px;font-style:normal;font-weight:normal;text-anchor:middle;" transform="rotate(-0, 144.109091, 116.877812)" x="144.109091" y="116.877812">80</text>
     </g>
    </g>
    <g id="xtick_6">
     <g id="line2d_11">
      <defs>
       <path d="M 0 0 
L 0 -2 
" id="md16a7a7554" style="stroke:#000000;stroke-width:0.5;"/>
      </defs>
      <g>
       <use style="stroke:#000000;stroke-width:0.5;" x="42.654545" xlink:href="#md16a7a7554" y="108.72"/>
      </g>
     </g>
     <g id="line2d_12">
      <defs>
       <path d="M 0 0 
L 0 2 
" id="m1ba3c56915" style="stroke:#000000;stroke-width:0.5;"/>
      </defs>
      <g>
       <use style="stroke:#000000;stroke-width:0.5;" x="42.654545" xlink:href="#m1ba3c56915" y="0"/>
      </g>
     </g>
    </g>
    <g id="xtick_7">
     <g id="line2d_13">
      <g>
       <use style="stroke:#000000;stroke-width:0.5;" x="49.418182" xlink:href="#md16a7a7554" y="108.72"/>
      </g>
     </g>
     <g id="line2d_14">
      <g>
       <use style="stroke:#000000;stroke-width:0.5;" x="49.418182" xlink:href="#m1ba3c56915" y="0"/>
      </g>
     </g>
    </g>
    <g id="xtick_8">
     <g id="line2d_15">
      <g>
       <use style="stroke:#000000;stroke-width:0.5;" x="56.181818" xlink:href="#md16a7a7554" y="108.72"/>
      </g>
     </g>
     <g id="line2d_16">
      <g>
       <use style="stroke:#000000;stroke-width:0.5;" x="56.181818" xlink:href="#m1ba3c56915" y="0"/>
      </g>
     </g>
    </g>
    <g id="xtick_9">
     <g id="line2d_17">
      <g>
       <use style="stroke:#000000;stroke-width:0.5;" x="69.709091" xlink:href="#md16a7a7554" y="108.72"/>
      </g>
     </g>
     <g id="line2d_18">
      <g>
       <use style="stroke:#000000;stroke-width:0.5;" x="69.709091" xlink:href="#m1ba3c56915" y="0"/>
      </g>
     </g>
    </g>
    <g id="xtick_10">
     <g id="line2d_19">
      <g>
       <use style="stroke:#000000;stroke-width:0.5;" x="76.472727" xlink:href="#md16a7a7554" y="108.72"/>
      </g>
     </g>
     <g id="line2d_20">
      <g>
       <use style="stroke:#000000;stroke-width:0.5;" x="76.472727" xlink:href="#m1ba3c56915" y="0"/>
      </g>
     </g>
    </g>
    <g id="xtick_11">
     <g id="line2d_21">
      <g>
       <use style="stroke:#000000;stroke-width:0.5;" x="83.236364" xlink:href="#md16a7a7554" y="108.72"/>
      </g>
     </g>
     <g id="line2d_22">
      <g>
       <use style="stroke:#000000;stroke-width:0.5;" x="83.236364" xlink:href="#m1ba3c56915" y="0"/>
      </g>
     </g>
    </g>
    <g id="xtick_12">
     <g id="line2d_23">
      <g>
       <use style="stroke:#000000;stroke-width:0.5;" x="96.763636" xlink:href="#md16a7a7554" y="108.72"/>
      </g>
     </g>
     <g id="line2d_24">
      <g>
       <use style="stroke:#000000;stroke-width:0.5;" x="96.763636" xlink:href="#m1ba3c56915" y="0"/>
      </g>
     </g>
    </g>
    <g id="xtick_13">
     <g id="line2d_25">
      <g>
       <use style="stroke:#000000;stroke-width:0.5;" x="103.527273" xlink:href="#md16a7a7554" y="108.72"/>
      </g>
     </g>
     <g id="line2d_26">
      <g>
       <use style="stroke:#000000;stroke-width:0.5;" x="103.527273" xlink:href="#m1ba3c56915" y="0"/>
      </g>
     </g>
    </g>
    <g id="xtick_14">
     <g id="line2d_27">
      <g>
       <use style="stroke:#000000;stroke-width:0.5;" x="110.290909" xlink:href="#md16a7a7554" y="108.72"/>
      </g>
     </g>
     <g id="line2d_28">
      <g>
       <use style="stroke:#000000;stroke-width:0.5;" x="110.290909" xlink:href="#m1ba3c56915" y="0"/>
      </g>
     </g>
    </g>
    <g id="xtick_15">
     <g id="line2d_29">
      <g>
       <use style="stroke:#000000;stroke-width:0.5;" x="123.818182" xlink:href="#md16a7a7554" y="108.72"/>
      </g>
     </g>
     <g id="line2d_30">
      <g>
       <use style="stroke:#000000;stroke-width:0.5;" x="123.818182" xlink:href="#m1ba3c56915" y="0"/>
      </g>
     </g>
    </g>
    <g id="xtick_16">
     <g id="line2d_31">
      <g>
       <use style="stroke:#000000;stroke-width:0.5;" x="130.581818" xlink:href="#md16a7a7554" y="108.72"/>
      </g>
     </g>
     <g id="line2d_32">
      <g>
       <use style="stroke:#000000;stroke-width:0.5;" x="130.581818" xlink:href="#m1ba3c56915" y="0"/>
      </g>
     </g>
    </g>
    <g id="xtick_17">
     <g id="line2d_33">
      <g>
       <use style="stroke:#000000;stroke-width:0.5;" x="137.345455" xlink:href="#md16a7a7554" y="108.72"/>
      </g>
     </g>
     <g id="line2d_34">
      <g>
       <use style="stroke:#000000;stroke-width:0.5;" x="137.345455" xlink:href="#m1ba3c56915" y="0"/>
      </g>
     </g>
    </g>
    <g id="text_6">
     <!-- $\it{V_{G}}$ (V) -->
     <g transform="translate(75.65 126.165312)">
      <text>
       <tspan style="font-family:DejaVu Sans;font-size:10px;font-style:oblique;font-weight:oblique;" x="0" y="-0.703125">V</tspan>
       <tspan style="font-family:DejaVu Sans;font-size:7px;font-style:oblique;font-weight:oblique;" x="6.84082" y="0.9375">G</tspan>
       <tspan style="font-family:Arial;font-size:10px;font-style:regular;font-weight:regular;" x="12.538574 15.316895 18.646973 25.316895" y="-0.703125"> (V)</tspan>
      </text>
     </g>
    </g>
   </g>
   <g id="matplotlib.axis_2">
    <g id="ytick_1">
     <g id="line2d_35">
      <defs>
       <path d="M 0 0 
L 3.5 0 
" id="mc4a2bfec6e" style="stroke:#000000;stroke-width:0.5;"/>
      </defs>
      <g>
       <use style="stroke:#000000;stroke-width:0.5;" x="34.2" xlink:href="#mc4a2bfec6e" y="95.207928"/>
      </g>
     </g>
     <g id="line2d_36">
      <defs>
       <path d="M 0 0 
L -3.5 0 
" id="m27b4b8fda7" style="stroke:#000000;stroke-width:0.5;"/>
      </defs>
      <g>
       <use style="stroke:#000000;stroke-width:0.5;" x="145.8" xlink:href="#m27b4b8fda7" y="95.207928"/>
      </g>
     </g>
     <g id="text_7">
      <!-- $\mathdefault{10^{-13}}$ -->
      <g transform="translate(9.5 100.364178)">
       <text>
        <tspan style="font-family:Arial;font-size:10px;font-style:regular;font-weight:regular;" x="0 5.561523" y="-0.9993750000000006">10</tspan>
        <tspan style="font-family:Arial;font-size:7px;font-style:regular;font-weight:regular;" x="11.297281 15.385172 19.278238" y="-7.968749999999999">−13</tspan>
       </text>
      </g>
     </g>
    </g>
    <g id="ytick_2">
     <g id="line2d_37">
      <g>
       <use style="stroke:#000000;stroke-width:0.5;" x="34.2" xlink:href="#mc4a2bfec6e" y="74.75638"/>
      </g>
     </g>
     <g id="line2d_38">
      <g>
       <use style="stroke:#000000;stroke-width:0.5;" x="145.8" xlink:href="#m27b4b8fda7" y="74.75638"/>
      </g>
     </g>
     <g id="text_8">
      <!-- $\mathdefault{10^{-11}}$ -->
      <g transform="translate(9.5 79.91263)">
       <text>
        <tspan style="font-family:Arial;font-size:10px;font-style:regular;font-weight:regular;" x="0 5.561523" y="-0.9993750000000006">10</tspan>
        <tspan style="font-family:Arial;font-size:7px;font-style:regular;font-weight:regular;" x="11.297281 15.385172 19.278238" y="-7.968749999999999">−11</tspan>
       </text>
      </g>
     </g>
    </g>
    <g id="ytick_3">
     <g id="line2d_39">
      <g>
       <use style="stroke:#000000;stroke-width:0.5;" x="34.2" xlink:href="#mc4a2bfec6e" y="54.304832"/>
      </g>
     </g>
     <g id="line2d_40">
      <g>
       <use style="stroke:#000000;stroke-width:0.5;" x="145.8" xlink:href="#m27b4b8fda7" y="54.304832"/>
      </g>
     </g>
     <g id="text_9">
      <!-- $\mathdefault{10^{-9}}$ -->
      <g transform="translate(13.4 59.461082)">
       <text>
        <tspan style="font-family:Arial;font-size:10px;font-style:regular;font-weight:regular;" x="0 5.561523" y="-0.9993750000000006">10</tspan>
        <tspan style="font-family:Arial;font-size:7px;font-style:regular;font-weight:regular;" x="11.297281 15.385172" y="-7.968749999999999">−9</tspan>
       </text>
      </g>
     </g>
    </g>
    <g id="ytick_4">
     <g id="line2d_41">
      <g>
       <use style="stroke:#000000;stroke-width:0.5;" x="34.2" xlink:href="#mc4a2bfec6e" y="33.853284"/>
      </g>
     </g>
     <g id="line2d_42">
      <g>
       <use style="stroke:#000000;stroke-width:0.5;" x="145.8" xlink:href="#m27b4b8fda7" y="33.853284"/>
      </g>
     </g>
     <g id="text_10">
      <!-- $\mathdefault{10^{-7}}$ -->
      <g transform="translate(13.4 38.959534)">
       <text>
        <tspan style="font-family:Arial;font-size:10px;font-style:regular;font-weight:regular;" x="0 5.561523" y="-0.0868750000000027">10</tspan>
        <tspan style="font-family:Arial;font-size:7px;font-style:regular;font-weight:regular;" x="11.297281 15.385172" y="-7.056250000000001">−7</tspan>
       </text>
      </g>
     </g>
    </g>
    <g id="ytick_5">
     <g id="line2d_43">
      <g>
       <use style="stroke:#000000;stroke-width:0.5;" x="34.2" xlink:href="#mc4a2bfec6e" y="13.401736"/>
      </g>
     </g>
     <g id="line2d_44">
      <g>
       <use style="stroke:#000000;stroke-width:0.5;" x="145.8" xlink:href="#m27b4b8fda7" y="13.401736"/>
      </g>
     </g>
     <g id="text_11">
      <!-- $\mathdefault{10^{-5}}$ -->
      <g transform="translate(13.4 18.507986)">
       <text>
        <tspan style="font-family:Arial;font-size:10px;font-style:regular;font-weight:regular;" x="0 5.561523" y="-0.0868750000000027">10</tspan>
        <tspan style="font-family:Arial;font-size:7px;font-style:regular;font-weight:regular;" x="11.297281 15.385172" y="-7.056250000000001">−5</tspan>
       </text>
      </g>
     </g>
    </g>
    <g id="text_12">
     <!-- $\it{I_{D}}$ (A) -->
     <g transform="translate(7.3 66.76)rotate(-90)">
      <text>
       <tspan style="font-family:DejaVu Sans;font-size:10px;font-style:oblique;font-weight:oblique;" x="0" y="-0.703125">I</tspan>
       <tspan style="font-family:DejaVu Sans;font-size:7px;font-style:oblique;font-weight:oblique;" x="2.949219" y="0.9375">D</tspan>
       <tspan style="font-family:Arial;font-size:10px;font-style:regular;font-weight:regular;" x="8.612793 11.391113 14.721191 21.391113" y="-0.703125"> (A)</tspan>
      </text>
     </g>
    </g>
   </g>
   <g id="line2d_45">
    <path clip-path="url(#pc7047fd63b)" d="M 39.272727 77.019752 
L 42.654545 87.197406 
L 46.036364 91.914813 
L 49.418182 86.162915 
L 52.8 84.412706 
L 56.181818 83.797856 
L 59.563636 83.257055 
L 62.945455 82.878778 
L 66.327273 82.604332 
L 69.709091 82.401727 
L 73.090909 82.190058 
L 76.472727 82.07373 
L 79.854545 81.939943 
L 83.236364 82.504147 
L 86.618182 65.771037 
L 90 43.705999 
L 93.381818 37.340111 
L 96.763636 30.441554 
L 100.145455 23.565541 
L 103.527273 18.422562 
L 106.909091 15.015964 
L 110.290909 12.613607 
L 113.672727 10.812876 
L 117.054545 9.368859 
L 120.436364 8.147424 
L 123.818182 7.190631 
L 127.2 6.468829 
L 130.581818 5.881278 
L 133.963636 5.471547 
L 137.345455 5.156708 
L 140.727273 4.941818 
L 137.345455 5.452256 
L 133.963636 6.007498 
L 130.581818 6.607716 
L 127.2 7.299204 
L 123.818182 8.153188 
L 120.436364 9.241548 
L 117.054545 10.617641 
L 113.672727 12.268679 
L 110.290909 14.465957 
L 106.909091 17.495351 
L 103.527273 21.87921 
L 100.145455 29.259142 
L 96.763636 38.538731 
L 93.381818 52.628073 
L 90 77.635536 
L 86.618182 79.558572 
L 83.236364 79.135245 
L 79.854545 79.07547 
L 76.472727 79.063216 
L 73.090909 78.939383 
L 69.709091 78.952641 
L 66.327273 78.784998 
L 62.945455 78.580837 
L 59.563636 79.030851 
L 56.181818 79.084109 
L 52.8 79.086362 
L 49.418182 78.954073 
L 46.036364 78.607036 
L 42.654545 77.834912 
L 39.272727 76.578134 
" style="fill:none;stroke:#e41a1c;stroke-linecap:square;stroke-width:1.5;"/>
    <defs>
     <path d="M 0 0.75 
C 0.198902 0.75 0.389685 0.670975 0.53033 0.53033 
C 0.670975 0.389685 0.75 0.198902 0.75 0 
C 0.75 -0.198902 0.670975 -0.389685 0.53033 -0.53033 
C 0.389685 -0.670975 0.198902 -0.75 0 -0.75 
C -0.198902 -0.75 -0.389685 -0.670975 -0.53033 -0.53033 
C -0.670975 -0.389685 -0.75 -0.198902 -0.75 0 
C -0.75 0.198902 -0.670975 0.389685 -0.53033 0.53033 
C -0.389685 0.670975 -0.198902 0.75 0 0.75 
z
" id="m8ca6f2e353" style="stroke:#e41a1c;"/>
    </defs>
    <g clip-path="url(#pc7047fd63b)">
     <use style="fill:#e41a1c;stroke:#e41a1c;" x="39.272727" xlink:href="#m8ca6f2e353" y="77.019752"/>
     <use style="fill:#e41a1c;stroke:#e41a1c;" x="42.654545" xlink:href="#m8ca6f2e353" y="87.197406"/>
     <use style="fill:#e41a1c;stroke:#e41a1c;" x="46.036364" xlink:href="#m8ca6f2e353" y="91.914813"/>
     <use style="fill:#e41a1c;stroke:#e41a1c;" x="49.418182" xlink:href="#m8ca6f2e353" y="86.162915"/>
     <use style="fill:#e41a1c;stroke:#e41a1c;" x="52.8" xlink:href="#m8ca6f2e353" y="84.412706"/>
     <use style="fill:#e41a1c;stroke:#e41a1c;" x="56.181818" xlink:href="#m8ca6f2e353" y="83.797856"/>
     <use style="fill:#e41a1c;stroke:#e41a1c;" x="59.563636" xlink:href="#m8ca6f2e353" y="83.257055"/>
     <use style="fill:#e41a1c;stroke:#e41a1c;" x="62.945455" xlink:href="#m8ca6f2e353" y="82.878778"/>
     <use style="fill:#e41a1c;stroke:#e41a1c;" x="66.327273" xlink:href="#m8ca6f2e353" y="82.604332"/>
     <use style="fill:#e41a1c;stroke:#e41a1c;" x="69.709091" xlink:href="#m8ca6f2e353" y="82.401727"/>
     <use style="fill:#e41a1c;stroke:#e41a1c;" x="73.090909" xlink:href="#m8ca6f2e353" y="82.190058"/>
     <use style="fill:#e41a1c;stroke:#e41a1c;" x="76.472727" xlink:href="#m8ca6f2e353" y="82.07373"/>
     <use style="fill:#e41a1c;stroke:#e41a1c;" x="79.854545" xlink:href="#m8ca6f2e353" y="81.939943"/>
     <use style="fill:#e41a1c;stroke:#e41a1c;" x="83.236364" xlink:href="#m8ca6f2e353" y="82.504147"/>
     <use style="fill:#e41a1c;stroke:#e41a1c;" x="86.618182" xlink:href="#m8ca6f2e353" y="65.771037"/>
     <use style="fill:#e41a1c;stroke:#e41a1c;" x="90" xlink:href="#m8ca6f2e353" y="43.705999"/>
     <use style="fill:#e41a1c;stroke:#e41a1c;" x="93.381818" xlink:href="#m8ca6f2e353" y="37.340111"/>
     <use style="fill:#e41a1c;stroke:#e41a1c;" x="96.763636" xlink:href="#m8ca6f2e353" y="30.441554"/>
     <use style="fill:#e41a1c;stroke:#e41a1c;" x="100.145455" xlink:href="#m8ca6f2e353" y="23.565541"/>
     <use style="fill:#e41a1c;stroke:#e41a1c;" x="103.527273" xlink:href="#m8ca6f2e353" y="18.422562"/>
     <use style="fill:#e41a1c;stroke:#e41a1c;" x="106.909091" xlink:href="#m8ca6f2e353" y="15.015964"/>
     <use style="fill:#e41a1c;stroke:#e41a1c;" x="110.290909" xlink:href="#m8ca6f2e353" y="12.613607"/>
     <use style="fill:#e41a1c;stroke:#e41a1c;" x="113.672727" xlink:href="#m8ca6f2e353" y="10.812876"/>
     <use style="fill:#e41a1c;stroke:#e41a1c;" x="117.054545" xlink:href="#m8ca6f2e353" y="9.368859"/>
     <use style="fill:#e41a1c;stroke:#e41a1c;" x="120.436364" xlink:href="#m8ca6f2e353" y="8.147424"/>
     <use style="fill:#e41a1c;stroke:#e41a1c;" x="123.818182" xlink:href="#m8ca6f2e353" y="7.190631"/>
     <use style="fill:#e41a1c;stroke:#e41a1c;" x="127.2" xlink:href="#m8ca6f2e353" y="6.468829"/>
     <use style="fill:#e41a1c;stroke:#e41a1c;" x="130.581818" xlink:href="#m8ca6f2e353" y="5.881278"/>
     <use style="fill:#e41a1c;stroke:#e41a1c;" x="133.963636" xlink:href="#m8ca6f2e353" y="5.471547"/>
     <use style="fill:#e41a1c;stroke:#e41a1c;" x="137.345455" xlink:href="#m8ca6f2e353" y="5.156708"/>
     <use style="fill:#e41a1c;stroke:#e41a1c;" x="140.727273" xlink:href="#m8ca6f2e353" y="4.941818"/>
     <use style="fill:#e41a1c;stroke:#e41a1c;" x="137.345455" xlink:href="#m8ca6f2e353" y="5.452256"/>
     <use style="fill:#e41a1c;stroke:#e41a1c;" x="133.963636" xlink:href="#m8ca6f2e353" y="6.007498"/>
     <use style="fill:#e41a1c;stroke:#e41a1c;" x="130.581818" xlink:href="#m8ca6f2e353" y="6.607716"/>
     <use style="fill:#e41a1c;stroke:#e41a1c;" x="127.2" xlink:href="#m8ca6f2e353" y="7.299204"/>
     <use style="fill:#e41a1c;stroke:#e41a1c;" x="123.818182" xlink:href="#m8ca6f2e353" y="8.153188"/>
     <use style="fill:#e41a1c;stroke:#e41a1c;" x="120.436364" xlink:href="#m8ca6f2e353" y="9.241548"/>
     <use style="fill:#e41a1c;stroke:#e41a1c;" x="117.054545" xlink:href="#m8ca6f2e353" y="10.617641"/>
     <use style="fill:#e41a1c;stroke:#e41a1c;" x="113.672727" xlink:href="#m8ca6f2e353" y="12.268679"/>
     <use style="fill:#e41a1c;stroke:#e41a1c;" x="110.290909" xlink:href="#m8ca6f2e353" y="14.465957"/>
     <use style="fill:#e41a1c;stroke:#e41a1c;" x="106.909091" xlink:href="#m8ca6f2e353" y="17.495351"/>
     <use style="fill:#e41a1c;stroke:#e41a1c;" x="103.527273" xlink:href="#m8ca6f2e353" y="21.87921"/>
     <use style="fill:#e41a1c;stroke:#e41a1c;" x="100.145455" xlink:href="#m8ca6f2e353" y="29.259142"/>
     <use style="fill:#e41a1c;stroke:#e41a1c;" x="96.763636" xlink:href="#m8ca6f2e353" y="38.538731"/>
     <use style="fill:#e41a1c;stroke:#e41a1c;" x="93.381818" xlink:href="#m8ca6f2e353" y="52.628073"/>
     <use style="fill:#e41a1c;stroke:#e41a1c;" x="90" xlink:href="#m8ca6f2e353" y="77.635536"/>
     <use style="fill:#e41a1c;stroke:#e41a1c;" x="86.618182" xlink:href="#m8ca6f2e353" y="79.558572"/>
     <use style="fill:#e41a1c;stroke:#e41a1c;" x="83.236364" xlink:href="#m8ca6f2e353" y="79.135245"/>
     <use style="fill:#e41a1c;stroke:#e41a1c;" x="79.854545" xlink:href="#m8ca6f2e353" y="79.07547"/>
     <use style="fill:#e41a1c;stroke:#e41a1c;" x="76.472727" xlink:href="#m8ca6f2e353" y="79.063216"/>
     <use style="fill:#e41a1c;stroke:#e41a1c;" x="73.090909" xlink:href="#m8ca6f2e353" y="78.939383"/>
     <use style="fill:#e41a1c;stroke:#e41a1c;" x="69.709091" xlink:href="#m8ca6f2e353" y="78.952641"/>
     <use style="fill:#e41a1c;stroke:#e41a1c;" x="66.327273" xlink:href="#m8ca6f2e353" y="78.784998"/>
     <use style="fill:#e41a1c;stroke:#e41a1c;" x="62.945455" xlink:href="#m8ca6f2e353" y="78.580837"/>
     <use style="fill:#e41a1c;stroke:#e41a1c;" x="59.563636" xlink:href="#m8ca6f2e353" y="79.030851"/>
     <use style="fill:#e41a1c;stroke:#e41a1c;" x="56.181818" xlink:href="#m8ca6f2e353" y="79.084109"/>
     <use style="fill:#e41a1c;stroke:#e41a1c;" x="52.8" xlink:href="#m8ca6f2e353" y="79.086362"/>
     <use style="fill:#e41a1c;stroke:#e41a1c;" x="49.418182" xlink:href="#m8ca6f2e353" y="78.954073"/>
     <use style="fill:#e41a1c;stroke:#e41a1c;" x="46.036364" xlink:href="#m8ca6f2e353" y="78.607036"/>
     <use style="fill:#e41a1c;stroke:#e41a1c;" x="42.654545" xlink:href="#m8ca6f2e353" y="77.834912"/>
     <use style="fill:#e41a1c;stroke:#e41a1c;" x="39.272727" xlink:href="#m8ca6f2e353" y="76.578134"/>
    </g>
   </g>
   <g id="line2d_46">
    <path clip-path="url(#pc7047fd63b)" d="M 39.272727 77.323807 
L 42.654545 89.229791 
L 46.036364 89.787855 
L 49.418182 86.496284 
L 52.8 85.185527 
L 56.181818 84.402426 
L 59.563636 83.949326 
L 62.945455 83.688359 
L 66.327273 83.364595 
L 69.709091 83.1347 
L 73.090909 82.915041 
L 76.472727 82.733453 
L 79.854545 82.623547 
L 83.236364 82.728844 
L 86.618182 73.956007 
L 90 47.526951 
L 93.381818 38.131332 
L 96.763636 31.362137 
L 100.145455 24.025495 
L 103.527273 18.65831 
L 106.909091 15.154571 
L 110.290909 12.730033 
L 113.672727 10.881673 
L 117.054545 9.427673 
L 120.436364 8.175702 
L 123.818182 7.211171 
L 127.2 6.476995 
L 130.581818 5.891182 
L 133.963636 5.462379 
L 137.345455 5.146581 
L 140.727273 4.953727 
L 137.345455 5.467968 
L 133.963636 6.034423 
L 130.581818 6.639295 
L 127.2 7.340881 
L 123.818182 8.202137 
L 120.436364 9.308669 
L 117.054545 10.728748 
L 113.672727 12.460401 
L 110.290909 14.693507 
L 106.909091 17.765423 
L 103.527273 22.184095 
L 100.145455 30.054035 
L 96.763636 40.560382 
L 93.381818 58.535966 
L 90 79.741697 
L 86.618182 80.770428 
L 83.236364 80.826186 
L 79.854545 80.848496 
L 76.472727 80.734841 
L 73.090909 80.691768 
L 69.709091 80.573026 
L 66.327273 80.435124 
L 62.945455 80.230893 
L 59.563636 80.086534 
L 56.181818 79.724401 
L 52.8 79.348429 
L 49.418182 79.519459 
L 46.036364 79.036268 
L 42.654545 78.274618 
L 39.272727 77.15982 
" style="fill:none;stroke:#377eb8;stroke-linecap:square;stroke-width:1.5;"/>
    <defs>
     <path d="M 0 0.75 
C 0.198902 0.75 0.389685 0.670975 0.53033 0.53033 
C 0.670975 0.389685 0.75 0.198902 0.75 0 
C 0.75 -0.198902 0.670975 -0.389685 0.53033 -0.53033 
C 0.389685 -0.670975 0.198902 -0.75 0 -0.75 
C -0.198902 -0.75 -0.389685 -0.670975 -0.53033 -0.53033 
C -0.670975 -0.389685 -0.75 -0.198902 -0.75 0 
C -0.75 0.198902 -0.670975 0.389685 -0.53033 0.53033 
C -0.389685 0.670975 -0.198902 0.75 0 0.75 
z
" id="m7e1cbc6166" style="stroke:#377eb8;"/>
    </defs>
    <g clip-path="url(#pc7047fd63b)">
     <use style="fill:#377eb8;stroke:#377eb8;" x="39.272727" xlink:href="#m7e1cbc6166" y="77.323807"/>
     <use style="fill:#377eb8;stroke:#377eb8;" x="42.654545" xlink:href="#m7e1cbc6166" y="89.229791"/>
     <use style="fill:#377eb8;stroke:#377eb8;" x="46.036364" xlink:href="#m7e1cbc6166" y="89.787855"/>
     <use style="fill:#377eb8;stroke:#377eb8;" x="49.418182" xlink:href="#m7e1cbc6166" y="86.496284"/>
     <use style="fill:#377eb8;stroke:#377eb8;" x="52.8" xlink:href="#m7e1cbc6166" y="85.185527"/>
     <use style="fill:#377eb8;stroke:#377eb8;" x="56.181818" xlink:href="#m7e1cbc6166" y="84.402426"/>
     <use style="fill:#377eb8;stroke:#377eb8;" x="59.563636" xlink:href="#m7e1cbc6166" y="83.949326"/>
     <use style="fill:#377eb8;stroke:#377eb8;" x="62.945455" xlink:href="#m7e1cbc6166" y="83.688359"/>
     <use style="fill:#377eb8;stroke:#377eb8;" x="66.327273" xlink:href="#m7e1cbc6166" y="83.364595"/>
     <use style="fill:#377eb8;stroke:#377eb8;" x="69.709091" xlink:href="#m7e1cbc6166" y="83.1347"/>
     <use style="fill:#377eb8;stroke:#377eb8;" x="73.090909" xlink:href="#m7e1cbc6166" y="82.915041"/>
     <use style="fill:#377eb8;stroke:#377eb8;" x="76.472727" xlink:href="#m7e1cbc6166" y="82.733453"/>
     <use style="fill:#377eb8;stroke:#377eb8;" x="79.854545" xlink:href="#m7e1cbc6166" y="82.623547"/>
     <use style="fill:#377eb8;stroke:#377eb8;" x="83.236364" xlink:href="#m7e1cbc6166" y="82.728844"/>
     <use style="fill:#377eb8;stroke:#377eb8;" x="86.618182" xlink:href="#m7e1cbc6166" y="73.956007"/>
     <use style="fill:#377eb8;stroke:#377eb8;" x="90" xlink:href="#m7e1cbc6166" y="47.526951"/>
     <use style="fill:#377eb8;stroke:#377eb8;" x="93.381818" xlink:href="#m7e1cbc6166" y="38.131332"/>
     <use style="fill:#377eb8;stroke:#377eb8;" x="96.763636" xlink:href="#m7e1cbc6166" y="31.362137"/>
     <use style="fill:#377eb8;stroke:#377eb8;" x="100.145455" xlink:href="#m7e1cbc6166" y="24.025495"/>
     <use style="fill:#377eb8;stroke:#377eb8;" x="103.527273" xlink:href="#m7e1cbc6166" y="18.65831"/>
     <use style="fill:#377eb8;stroke:#377eb8;" x="106.909091" xlink:href="#m7e1cbc6166" y="15.154571"/>
     <use style="fill:#377eb8;stroke:#377eb8;" x="110.290909" xlink:href="#m7e1cbc6166" y="12.730033"/>
     <use style="fill:#377eb8;stroke:#377eb8;" x="113.672727" xlink:href="#m7e1cbc6166" y="10.881673"/>
     <use style="fill:#377eb8;stroke:#377eb8;" x="117.054545" xlink:href="#m7e1cbc6166" y="9.427673"/>
     <use style="fill:#377eb8;stroke:#377eb8;" x="120.436364" xlink:href="#m7e1cbc6166" y="8.175702"/>
     <use style="fill:#377eb8;stroke:#377eb8;" x="123.818182" xlink:href="#m7e1cbc6166" y="7.211171"/>
     <use style="fill:#377eb8;stroke:#377eb8;" x="127.2" xlink:href="#m7e1cbc6166" y="6.476995"/>
     <use style="fill:#377eb8;stroke:#377eb8;" x="130.581818" xlink:href="#m7e1cbc6166" y="5.891182"/>
     <use style="fill:#377eb8;stroke:#377eb8;" x="133.963636" xlink:href="#m7e1cbc6166" y="5.462379"/>
     <use style="fill:#377eb8;stroke:#377eb8;" x="137.345455" xlink:href="#m7e1cbc6166" y="5.146581"/>
     <use style="fill:#377eb8;stroke:#377eb8;" x="140.727273" xlink:href="#m7e1cbc6166" y="4.953727"/>
     <use style="fill:#377eb8;stroke:#377eb8;" x="137.345455" xlink:href="#m7e1cbc6166" y="5.467968"/>
     <use style="fill:#377eb8;stroke:#377eb8;" x="133.963636" xlink:href="#m7e1cbc6166" y="6.034423"/>
     <use style="fill:#377eb8;stroke:#377eb8;" x="130.581818" xlink:href="#m7e1cbc6166" y="6.639295"/>
     <use style="fill:#377eb8;stroke:#377eb8;" x="127.2" xlink:href="#m7e1cbc6166" y="7.340881"/>
     <use style="fill:#377eb8;stroke:#377eb8;" x="123.818182" xlink:href="#m7e1cbc6166" y="8.202137"/>
     <use style="fill:#377eb8;stroke:#377eb8;" x="120.436364" xlink:href="#m7e1cbc6166" y="9.308669"/>
     <use style="fill:#377eb8;stroke:#377eb8;" x="117.054545" xlink:href="#m7e1cbc6166" y="10.728748"/>
     <use style="fill:#377eb8;stroke:#377eb8;" x="113.672727" xlink:href="#m7e1cbc6166" y="12.460401"/>
     <use style="fill:#377eb8;stroke:#377eb8;" x="110.290909" xlink:href="#m7e1cbc6166" y="14.693507"/>
     <use style="fill:#377eb8;stroke:#377eb8;" x="106.909091" xlink:href="#m7e1cbc6166" y="17.765423"/>
     <use style="fill:#377eb8;stroke:#377eb8;" x="103.527273" xlink:href="#m7e1cbc6166" y="22.184095"/>
     <use style="fill:#377eb8;stroke:#377eb8;" x="100.145455" xlink:href="#m7e1cbc6166" y="30.054035"/>
     <use style="fill:#377eb8;stroke:#377eb8;" x="96.763636" xlink:href="#m7e1cbc6166" y="40.560382"/>
     <use style="fill:#377eb8;stroke:#377eb8;" x="93.381818" xlink:href="#m7e1cbc6166" y="58.535966"/>
     <use style="fill:#377eb8;stroke:#377eb8;" x="90" xlink:href="#m7e1cbc6166" y="79.741697"/>
     <use style="fill:#377eb8;stroke:#377eb8;" x="86.618182" xlink:href="#m7e1cbc6166" y="80.770428"/>
     <use style="fill:#377eb8;stroke:#377eb8;" x="83.236364" xlink:href="#m7e1cbc6166" y="80.826186"/>
     <use style="fill:#377eb8;stroke:#377eb8;" x="79.854545" xlink:href="#m7e1cbc6166" y="80.848496"/>
     <use style="fill:#377eb8;stroke:#377eb8;" x="76.472727" xlink:href="#m7e1cbc6166" y="80.734841"/>
     <use style="fill:#377eb8;stroke:#377eb8;" x="73.090909" xlink:href="#m7e1cbc6166" y="80.691768"/>
     <use style="fill:#377eb8;stroke:#377eb8;" x="69.709091" xlink:href="#m7e1cbc6166" y="80.573026"/>
     <use style="fill:#377eb8;stroke:#377eb8;" x="66.327273" xlink:href="#m7e1cbc6166" y="80.435124"/>
     <use style="fill:#377eb8;stroke:#377eb8;" x="62.945455" xlink:href="#m7e1cbc6166" y="80.230893"/>
     <use style="fill:#377eb8;stroke:#377eb8;" x="59.563636" xlink:href="#m7e1cbc6166" y="80.086534"/>
     <use style="fill:#377eb8;stroke:#377eb8;" x="56.181818" xlink:href="#m7e1cbc6166" y="79.724401"/>
     <use style="fill:#377eb8;stroke:#377eb8;" x="52.8" xlink:href="#m7e1cbc6166" y="79.348429"/>
     <use style="fill:#377eb8;stroke:#377eb8;" x="49.418182" xlink:href="#m7e1cbc6166" y="79.519459"/>
     <use style="fill:#377eb8;stroke:#377eb8;" x="46.036364" xlink:href="#m7e1cbc6166" y="79.036268"/>
     <use style="fill:#377eb8;stroke:#377eb8;" x="42.654545" xlink:href="#m7e1cbc6166" y="78.274618"/>
     <use style="fill:#377eb8;stroke:#377eb8;" x="39.272727" xlink:href="#m7e1cbc6166" y="77.15982"/>
    </g>
   </g>
   <g id="line2d_47">
    <path clip-path="url(#pc7047fd63b)" d="M 39.272727 81.485541 
L 42.654545 87.379124 
L 46.036364 103.778182 
L 49.418182 90.008498 
L 52.8 88.119319 
L 56.181818 87.365087 
L 59.563636 86.806805 
L 62.945455 86.516207 
L 66.327273 86.390512 
L 69.709091 86.31908 
L 73.090909 86.165944 
L 76.472727 86.099076 
L 79.854545 85.938175 
L 83.236364 88.516175 
L 86.618182 66.170951 
L 90 45.437927 
L 93.381818 36.40746 
L 96.763636 30.237925 
L 100.145455 23.490688 
L 103.527273 18.371618 
L 106.909091 14.930007 
L 110.290909 12.546174 
L 113.672727 10.765061 
L 117.054545 9.323396 
L 120.436364 8.130008 
L 123.818182 7.228285 
L 127.2 6.486411 
L 130.581818 5.89834 
L 133.963636 5.455968 
L 137.345455 5.177957 
L 140.727273 4.949402 
L 137.345455 5.458004 
L 133.963636 6.008348 
L 130.581818 6.603757 
L 127.2 7.291709 
L 123.818182 8.134918 
L 120.436364 9.184352 
L 117.054545 10.563921 
L 113.672727 12.287104 
L 110.290909 14.45146 
L 106.909091 17.383898 
L 103.527273 21.749252 
L 100.145455 29.120738 
L 96.763636 38.002185 
L 93.381818 51.451342 
L 90 78.085308 
L 86.618182 82.279987 
L 83.236364 82.293623 
L 79.854545 82.224144 
L 76.472727 82.184794 
L 73.090909 82.167497 
L 69.709091 82.174876 
L 66.327273 82.250542 
L 62.945455 82.109314 
L 59.563636 82.006696 
L 56.181818 81.621155 
L 52.8 81.349836 
L 49.418182 81.385508 
L 46.036364 81.48103 
L 42.654545 81.635788 
L 39.272727 81.442875 
" style="fill:none;stroke:#4daf4a;stroke-linecap:square;stroke-width:1.5;"/>
    <defs>
     <path d="M 0 0.75 
C 0.198902 0.75 0.389685 0.670975 0.53033 0.53033 
C 0.670975 0.389685 0.75 0.198902 0.75 0 
C 0.75 -0.198902 0.670975 -0.389685 0.53033 -0.53033 
C 0.389685 -0.670975 0.198902 -0.75 0 -0.75 
C -0.198902 -0.75 -0.389685 -0.670975 -0.53033 -0.53033 
C -0.670975 -0.389685 -0.75 -0.198902 -0.75 0 
C -0.75 0.198902 -0.670975 0.389685 -0.53033 0.53033 
C -0.389685 0.670975 -0.198902 0.75 0 0.75 
z
" id="mb1f7208542" style="stroke:#4daf4a;"/>
    </defs>
    <g clip-path="url(#pc7047fd63b)">
     <use style="fill:#4daf4a;stroke:#4daf4a;" x="39.272727" xlink:href="#mb1f7208542" y="81.485541"/>
     <use style="fill:#4daf4a;stroke:#4daf4a;" x="42.654545" xlink:href="#mb1f7208542" y="87.379124"/>
     <use style="fill:#4daf4a;stroke:#4daf4a;" x="46.036364" xlink:href="#mb1f7208542" y="103.778182"/>
     <use style="fill:#4daf4a;stroke:#4daf4a;" x="49.418182" xlink:href="#mb1f7208542" y="90.008498"/>
     <use style="fill:#4daf4a;stroke:#4daf4a;" x="52.8" xlink:href="#mb1f7208542" y="88.119319"/>
     <use style="fill:#4daf4a;stroke:#4daf4a;" x="56.181818" xlink:href="#mb1f7208542" y="87.365087"/>
     <use style="fill:#4daf4a;stroke:#4daf4a;" x="59.563636" xlink:href="#mb1f7208542" y="86.806805"/>
     <use style="fill:#4daf4a;stroke:#4daf4a;" x="62.945455" xlink:href="#mb1f7208542" y="86.516207"/>
     <use style="fill:#4daf4a;stroke:#4daf4a;" x="66.327273" xlink:href="#mb1f7208542" y="86.390512"/>
     <use style="fill:#4daf4a;stroke:#4daf4a;" x="69.709091" xlink:href="#mb1f7208542" y="86.31908"/>
     <use style="fill:#4daf4a;stroke:#4daf4a;" x="73.090909" xlink:href="#mb1f7208542" y="86.165944"/>
     <use style="fill:#4daf4a;stroke:#4daf4a;" x="76.472727" xlink:href="#mb1f7208542" y="86.099076"/>
     <use style="fill:#4daf4a;stroke:#4daf4a;" x="79.854545" xlink:href="#mb1f7208542" y="85.938175"/>
     <use style="fill:#4daf4a;stroke:#4daf4a;" x="83.236364" xlink:href="#mb1f7208542" y="88.516175"/>
     <use style="fill:#4daf4a;stroke:#4daf4a;" x="86.618182" xlink:href="#mb1f7208542" y="66.170951"/>
     <use style="fill:#4daf4a;stroke:#4daf4a;" x="90" xlink:href="#mb1f7208542" y="45.437927"/>
     <use style="fill:#4daf4a;stroke:#4daf4a;" x="93.381818" xlink:href="#mb1f7208542" y="36.40746"/>
     <use style="fill:#4daf4a;stroke:#4daf4a;" x="96.763636" xlink:href="#mb1f7208542" y="30.237925"/>
     <use style="fill:#4daf4a;stroke:#4daf4a;" x="100.145455" xlink:href="#mb1f7208542" y="23.490688"/>
     <use style="fill:#4daf4a;stroke:#4daf4a;" x="103.527273" xlink:href="#mb1f7208542" y="18.371618"/>
     <use style="fill:#4daf4a;stroke:#4daf4a;" x="106.909091" xlink:href="#mb1f7208542" y="14.930007"/>
     <use style="fill:#4daf4a;stroke:#4daf4a;" x="110.290909" xlink:href="#mb1f7208542" y="12.546174"/>
     <use style="fill:#4daf4a;stroke:#4daf4a;" x="113.672727" xlink:href="#mb1f7208542" y="10.765061"/>
     <use style="fill:#4daf4a;stroke:#4daf4a;" x="117.054545" xlink:href="#mb1f7208542" y="9.323396"/>
     <use style="fill:#4daf4a;stroke:#4daf4a;" x="120.436364" xlink:href="#mb1f7208542" y="8.130008"/>
     <use style="fill:#4daf4a;stroke:#4daf4a;" x="123.818182" xlink:href="#mb1f7208542" y="7.228285"/>
     <use style="fill:#4daf4a;stroke:#4daf4a;" x="127.2" xlink:href="#mb1f7208542" y="6.486411"/>
     <use style="fill:#4daf4a;stroke:#4daf4a;" x="130.581818" xlink:href="#mb1f7208542" y="5.89834"/>
     <use style="fill:#4daf4a;stroke:#4daf4a;" x="133.963636" xlink:href="#mb1f7208542" y="5.455968"/>
     <use style="fill:#4daf4a;stroke:#4daf4a;" x="137.345455" xlink:href="#mb1f7208542" y="5.177957"/>
     <use style="fill:#4daf4a;stroke:#4daf4a;" x="140.727273" xlink:href="#mb1f7208542" y="4.949402"/>
     <use style="fill:#4daf4a;stroke:#4daf4a;" x="137.345455" xlink:href="#mb1f7208542" y="5.458004"/>
     <use style="fill:#4daf4a;stroke:#4daf4a;" x="133.963636" xlink:href="#mb1f7208542" y="6.008348"/>
     <use style="fill:#4daf4a;stroke:#4daf4a;" x="130.581818" xlink:href="#mb1f7208542" y="6.603757"/>
     <use style="fill:#4daf4a;stroke:#4daf4a;" x="127.2" xlink:href="#mb1f7208542" y="7.291709"/>
     <use style="fill:#4daf4a;stroke:#4daf4a;" x="123.818182" xlink:href="#mb1f7208542" y="8.134918"/>
     <use style="fill:#4daf4a;stroke:#4daf4a;" x="120.436364" xlink:href="#mb1f7208542" y="9.184352"/>
     <use style="fill:#4daf4a;stroke:#4daf4a;" x="117.054545" xlink:href="#mb1f7208542" y="10.563921"/>
     <use style="fill:#4daf4a;stroke:#4daf4a;" x="113.672727" xlink:href="#mb1f7208542" y="12.287104"/>
     <use style="fill:#4daf4a;stroke:#4daf4a;" x="110.290909" xlink:href="#mb1f7208542" y="14.45146"/>
     <use style="fill:#4daf4a;stroke:#4daf4a;" x="106.909091" xlink:href="#mb1f7208542" y="17.383898"/>
     <use style="fill:#4daf4a;stroke:#4daf4a;" x="103.527273" xlink:href="#mb1f7208542" y="21.749252"/>
     <use style="fill:#4daf4a;stroke:#4daf4a;" x="100.145455" xlink:href="#mb1f7208542" y="29.120738"/>
     <use style="fill:#4daf4a;stroke:#4daf4a;" x="96.763636" xlink:href="#mb1f7208542" y="38.002185"/>
     <use style="fill:#4daf4a;stroke:#4daf4a;" x="93.381818" xlink:href="#mb1f7208542" y="51.451342"/>
     <use style="fill:#4daf4a;stroke:#4daf4a;" x="90" xlink:href="#mb1f7208542" y="78.085308"/>
     <use style="fill:#4daf4a;stroke:#4daf4a;" x="86.618182" xlink:href="#mb1f7208542" y="82.279987"/>
     <use style="fill:#4daf4a;stroke:#4daf4a;" x="83.236364" xlink:href="#mb1f7208542" y="82.293623"/>
     <use style="fill:#4daf4a;stroke:#4daf4a;" x="79.854545" xlink:href="#mb1f7208542" y="82.224144"/>
     <use style="fill:#4daf4a;stroke:#4daf4a;" x="76.472727" xlink:href="#mb1f7208542" y="82.184794"/>
     <use style="fill:#4daf4a;stroke:#4daf4a;" x="73.090909" xlink:href="#mb1f7208542" y="82.167497"/>
     <use style="fill:#4daf4a;stroke:#4daf4a;" x="69.709091" xlink:href="#mb1f7208542" y="82.174876"/>
     <use style="fill:#4daf4a;stroke:#4daf4a;" x="66.327273" xlink:href="#mb1f7208542" y="82.250542"/>
     <use style="fill:#4daf4a;stroke:#4daf4a;" x="62.945455" xlink:href="#mb1f7208542" y="82.109314"/>
     <use style="fill:#4daf4a;stroke:#4daf4a;" x="59.563636" xlink:href="#mb1f7208542" y="82.006696"/>
     <use style="fill:#4daf4a;stroke:#4daf4a;" x="56.181818" xlink:href="#mb1f7208542" y="81.621155"/>
     <use style="fill:#4daf4a;stroke:#4daf4a;" x="52.8" xlink:href="#mb1f7208542" y="81.349836"/>
     <use style="fill:#4daf4a;stroke:#4daf4a;" x="49.418182" xlink:href="#mb1f7208542" y="81.385508"/>
     <use style="fill:#4daf4a;stroke:#4daf4a;" x="46.036364" xlink:href="#mb1f7208542" y="81.48103"/>
     <use style="fill:#4daf4a;stroke:#4daf4a;" x="42.654545" xlink:href="#mb1f7208542" y="81.635788"/>
     <use style="fill:#4daf4a;stroke:#4daf4a;" x="39.272727" xlink:href="#mb1f7208542" y="81.442875"/>
    </g>
   </g>
   <g id="patch_3">
    <path d="M 34.2 108.72 
L 34.2 0 
" style="fill:none;stroke:#000000;stroke-linecap:square;stroke-linejoin:miter;stroke-width:0.5;"/>
   </g>
   <g id="patch_4">
    <path d="M 145.8 108.72 
L 145.8 0 
" style="fill:none;stroke:#000000;stroke-linecap:square;stroke-linejoin:miter;stroke-width:0.5;"/>
   </g>
   <g id="patch_5">
    <path d="M 34.2 108.72 
L 145.8 108.72 
" style="fill:none;stroke:#000000;stroke-linecap:square;stroke-linejoin:miter;stroke-width:0.5;"/>
   </g>
   <g id="patch_6">
    <path d="M 34.2 0 
L 145.8 0 
" style="fill:none;stroke:#000000;stroke-linecap:square;stroke-linejoin:miter;stroke-width:0.5;"/>
   </g>
  </g>
 </g>
 <defs>
  <clipPath id="pc7047fd63b">
   <rect height="108.72" width="111.6" x="34.2" y="0"/>
  </clipPath>
 </defs>
</svg>
