<?xml version="1.0" encoding="utf-8" standalone="no"?>
<!DOCTYPE svg PUBLIC "-//W3C//DTD SVG 1.1//EN"
  "http://www.w3.org/Graphics/SVG/1.1/DTD/svg11.dtd">
<!-- Created with matplotlib (https://matplotlib.org/) -->
<svg height="129.795411pt" version="1.1" viewBox="0 0 139.271023 129.795411" width="139.271023pt" xmlns="http://www.w3.org/2000/svg" xmlns:xlink="http://www.w3.org/1999/xlink">
 <defs>
  <style type="text/css">
*{stroke-linecap:butt;stroke-linejoin:round;}
  </style>
 </defs>
 <g id="figure_1">
  <g id="patch_1">
   <path d="M 0 129.795411 
L 139.271023 129.795411 
L 139.271023 0 
L 0 0 
z
" style="fill:none;"/>
  </g>
  <g id="axes_1">
   <g id="patch_2">
    <path d="M 27.182813 110.150098 
L 138.782813 110.150098 
L 138.782813 1.430098 
L 27.182813 1.430098 
z
" style="fill:none;"/>
   </g>
   <g id="matplotlib.axis_1">
    <g id="xtick_1">
     <g id="line2d_1">
      <defs>
       <path d="M 0 0 
L 0 -3.5 
" id="m601344f4da" style="stroke:#000000;stroke-width:0.5;"/>
      </defs>
      <g>
       <use style="stroke:#000000;stroke-width:0.5;" x="32.25554" xlink:href="#m601344f4da" y="110.150098"/>
      </g>
     </g>
     <g id="line2d_2">
      <defs>
       <path d="M 0 0 
L 0 3.5 
" id="m223c938d65" style="stroke:#000000;stroke-width:0.5;"/>
      </defs>
      <g>
       <use style="stroke:#000000;stroke-width:0.5;" x="32.25554" xlink:href="#m223c938d65" y="1.430098"/>
      </g>
     </g>
     <g id="text_1">
      <text style="font-family:Arial;font-size:10px;font-style:normal;font-weight:normal;text-anchor:middle;" transform="rotate(-0, 32.25554, 118.307911)" x="32.25554" y="118.307911">0</text>
     </g>
    </g>
    <g id="xtick_2">
     <g id="line2d_3">
      <g>
       <use style="stroke:#000000;stroke-width:0.5;" x="82.982813" xlink:href="#m601344f4da" y="110.150098"/>
      </g>
     </g>
     <g id="line2d_4">
      <g>
       <use style="stroke:#000000;stroke-width:0.5;" x="82.982813" xlink:href="#m223c938d65" y="1.430098"/>
      </g>
     </g>
     <g id="text_2">
      <text style="font-family:Arial;font-size:10px;font-style:normal;font-weight:normal;text-anchor:middle;" transform="rotate(-0, 82.982813, 118.307911)" x="82.982813" y="118.307911">5</text>
     </g>
    </g>
    <g id="xtick_3">
     <g id="line2d_5">
      <g>
       <use style="stroke:#000000;stroke-width:0.5;" x="133.710085" xlink:href="#m601344f4da" y="110.150098"/>
      </g>
     </g>
     <g id="line2d_6">
      <g>
       <use style="stroke:#000000;stroke-width:0.5;" x="133.710085" xlink:href="#m223c938d65" y="1.430098"/>
      </g>
     </g>
     <g id="text_3">
      <text style="font-family:Arial;font-size:10px;font-style:normal;font-weight:normal;text-anchor:middle;" transform="rotate(-0, 133.710085, 118.307911)" x="133.710085" y="118.307911">10</text>
     </g>
    </g>
    <g id="xtick_4">
     <g id="line2d_7">
      <defs>
       <path d="M 0 0 
L 0 -2 
" id="m55ddd42281" style="stroke:#000000;stroke-width:0.5;"/>
      </defs>
      <g>
       <use style="stroke:#000000;stroke-width:0.5;" x="42.400994" xlink:href="#m55ddd42281" y="110.150098"/>
      </g>
     </g>
     <g id="line2d_8">
      <defs>
       <path d="M 0 0 
L 0 2 
" id="m79f461ed68" style="stroke:#000000;stroke-width:0.5;"/>
      </defs>
      <g>
       <use style="stroke:#000000;stroke-width:0.5;" x="42.400994" xlink:href="#m79f461ed68" y="1.430098"/>
      </g>
     </g>
    </g>
    <g id="xtick_5">
     <g id="line2d_9">
      <g>
       <use style="stroke:#000000;stroke-width:0.5;" x="52.546449" xlink:href="#m55ddd42281" y="110.150098"/>
      </g>
     </g>
     <g id="line2d_10">
      <g>
       <use style="stroke:#000000;stroke-width:0.5;" x="52.546449" xlink:href="#m79f461ed68" y="1.430098"/>
      </g>
     </g>
    </g>
    <g id="xtick_6">
     <g id="line2d_11">
      <g>
       <use style="stroke:#000000;stroke-width:0.5;" x="62.691903" xlink:href="#m55ddd42281" y="110.150098"/>
      </g>
     </g>
     <g id="line2d_12">
      <g>
       <use style="stroke:#000000;stroke-width:0.5;" x="62.691903" xlink:href="#m79f461ed68" y="1.430098"/>
      </g>
     </g>
    </g>
    <g id="xtick_7">
     <g id="line2d_13">
      <g>
       <use style="stroke:#000000;stroke-width:0.5;" x="72.837358" xlink:href="#m55ddd42281" y="110.150098"/>
      </g>
     </g>
     <g id="line2d_14">
      <g>
       <use style="stroke:#000000;stroke-width:0.5;" x="72.837358" xlink:href="#m79f461ed68" y="1.430098"/>
      </g>
     </g>
    </g>
    <g id="xtick_8">
     <g id="line2d_15">
      <g>
       <use style="stroke:#000000;stroke-width:0.5;" x="93.128267" xlink:href="#m55ddd42281" y="110.150098"/>
      </g>
     </g>
     <g id="line2d_16">
      <g>
       <use style="stroke:#000000;stroke-width:0.5;" x="93.128267" xlink:href="#m79f461ed68" y="1.430098"/>
      </g>
     </g>
    </g>
    <g id="xtick_9">
     <g id="line2d_17">
      <g>
       <use style="stroke:#000000;stroke-width:0.5;" x="103.273722" xlink:href="#m55ddd42281" y="110.150098"/>
      </g>
     </g>
     <g id="line2d_18">
      <g>
       <use style="stroke:#000000;stroke-width:0.5;" x="103.273722" xlink:href="#m79f461ed68" y="1.430098"/>
      </g>
     </g>
    </g>
    <g id="xtick_10">
     <g id="line2d_19">
      <g>
       <use style="stroke:#000000;stroke-width:0.5;" x="113.419176" xlink:href="#m55ddd42281" y="110.150098"/>
      </g>
     </g>
     <g id="line2d_20">
      <g>
       <use style="stroke:#000000;stroke-width:0.5;" x="113.419176" xlink:href="#m79f461ed68" y="1.430098"/>
      </g>
     </g>
    </g>
    <g id="xtick_11">
     <g id="line2d_21">
      <g>
       <use style="stroke:#000000;stroke-width:0.5;" x="123.564631" xlink:href="#m55ddd42281" y="110.150098"/>
      </g>
     </g>
     <g id="line2d_22">
      <g>
       <use style="stroke:#000000;stroke-width:0.5;" x="123.564631" xlink:href="#m79f461ed68" y="1.430098"/>
      </g>
     </g>
    </g>
    <g id="text_4">
     <!-- $\it{V_{DS}}$ (V) -->
     <g transform="translate(66.432813 127.595411)">
      <text>
       <tspan style="font-family:DejaVu Sans;font-size:10px;font-style:oblique;font-weight:oblique;" x="0" y="-0.703125">V</tspan>
       <tspan style="font-family:DejaVu Sans;font-size:7px;font-style:oblique;font-weight:oblique;" x="6.84082 12.230957" y="0.9375">DS</tspan>
       <tspan style="font-family:Arial;font-size:10px;font-style:regular;font-weight:regular;" x="16.947754 19.726074 23.056152 29.726074" y="-0.703125"> (V)</tspan>
      </text>
     </g>
    </g>
   </g>
   <g id="matplotlib.axis_2">
    <g id="ytick_1">
     <g id="line2d_23">
      <defs>
       <path d="M 0 0 
L 3.5 0 
" id="mf9310cbebc" style="stroke:#000000;stroke-width:0.5;"/>
      </defs>
      <g>
       <use style="stroke:#000000;stroke-width:0.5;" x="27.182813" xlink:href="#mf9310cbebc" y="105.598584"/>
      </g>
     </g>
     <g id="line2d_24">
      <defs>
       <path d="M 0 0 
L -3.5 0 
" id="m3f7a64d3ca" style="stroke:#000000;stroke-width:0.5;"/>
      </defs>
      <g>
       <use style="stroke:#000000;stroke-width:0.5;" x="138.782813" xlink:href="#m3f7a64d3ca" y="105.598584"/>
      </g>
     </g>
     <g id="text_5">
      <text style="font-family:Arial;font-size:10px;font-style:normal;font-weight:normal;text-anchor:end;" transform="rotate(-0, 26.182813, 109.177491)" x="26.182813" y="109.177491">0</text>
     </g>
    </g>
    <g id="ytick_2">
     <g id="line2d_25">
      <g>
       <use style="stroke:#000000;stroke-width:0.5;" x="27.182813" xlink:href="#mf9310cbebc" y="71.592025"/>
      </g>
     </g>
     <g id="line2d_26">
      <g>
       <use style="stroke:#000000;stroke-width:0.5;" x="138.782813" xlink:href="#m3f7a64d3ca" y="71.592025"/>
      </g>
     </g>
     <g id="text_6">
      <text style="font-family:Arial;font-size:10px;font-style:normal;font-weight:normal;text-anchor:end;" transform="rotate(-0, 26.182813, 75.170931)" x="26.182813" y="75.170931">200</text>
     </g>
    </g>
    <g id="ytick_3">
     <g id="line2d_27">
      <g>
       <use style="stroke:#000000;stroke-width:0.5;" x="27.182813" xlink:href="#mf9310cbebc" y="37.585466"/>
      </g>
     </g>
     <g id="line2d_28">
      <g>
       <use style="stroke:#000000;stroke-width:0.5;" x="138.782813" xlink:href="#m3f7a64d3ca" y="37.585466"/>
      </g>
     </g>
     <g id="text_7">
      <text style="font-family:Arial;font-size:10px;font-style:normal;font-weight:normal;text-anchor:end;" transform="rotate(-0, 26.182813, 41.164372)" x="26.182813" y="41.164372">400</text>
     </g>
    </g>
    <g id="ytick_4">
     <g id="line2d_29">
      <g>
       <use style="stroke:#000000;stroke-width:0.5;" x="27.182813" xlink:href="#mf9310cbebc" y="3.578906"/>
      </g>
     </g>
     <g id="line2d_30">
      <g>
       <use style="stroke:#000000;stroke-width:0.5;" x="138.782813" xlink:href="#m3f7a64d3ca" y="3.578906"/>
      </g>
     </g>
     <g id="text_8">
      <text style="font-family:Arial;font-size:10px;font-style:normal;font-weight:normal;text-anchor:end;" transform="rotate(-0, 26.182813, 7.157812)" x="26.182813" y="7.157812">600</text>
     </g>
    </g>
    <g id="ytick_5">
     <g id="line2d_31">
      <defs>
       <path d="M 0 0 
L 2 0 
" id="m8ee02b8509" style="stroke:#000000;stroke-width:0.5;"/>
      </defs>
      <g>
       <use style="stroke:#000000;stroke-width:0.5;" x="27.182813" xlink:href="#m8ee02b8509" y="97.096944"/>
      </g>
     </g>
     <g id="line2d_32">
      <defs>
       <path d="M 0 0 
L -2 0 
" id="meb9b358ba1" style="stroke:#000000;stroke-width:0.5;"/>
      </defs>
      <g>
       <use style="stroke:#000000;stroke-width:0.5;" x="138.782813" xlink:href="#meb9b358ba1" y="97.096944"/>
      </g>
     </g>
    </g>
    <g id="ytick_6">
     <g id="line2d_33">
      <g>
       <use style="stroke:#000000;stroke-width:0.5;" x="27.182813" xlink:href="#m8ee02b8509" y="88.595305"/>
      </g>
     </g>
     <g id="line2d_34">
      <g>
       <use style="stroke:#000000;stroke-width:0.5;" x="138.782813" xlink:href="#meb9b358ba1" y="88.595305"/>
      </g>
     </g>
    </g>
    <g id="ytick_7">
     <g id="line2d_35">
      <g>
       <use style="stroke:#000000;stroke-width:0.5;" x="27.182813" xlink:href="#m8ee02b8509" y="80.093665"/>
      </g>
     </g>
     <g id="line2d_36">
      <g>
       <use style="stroke:#000000;stroke-width:0.5;" x="138.782813" xlink:href="#meb9b358ba1" y="80.093665"/>
      </g>
     </g>
    </g>
    <g id="ytick_8">
     <g id="line2d_37">
      <g>
       <use style="stroke:#000000;stroke-width:0.5;" x="27.182813" xlink:href="#m8ee02b8509" y="63.090385"/>
      </g>
     </g>
     <g id="line2d_38">
      <g>
       <use style="stroke:#000000;stroke-width:0.5;" x="138.782813" xlink:href="#meb9b358ba1" y="63.090385"/>
      </g>
     </g>
    </g>
    <g id="ytick_9">
     <g id="line2d_39">
      <g>
       <use style="stroke:#000000;stroke-width:0.5;" x="27.182813" xlink:href="#m8ee02b8509" y="54.588745"/>
      </g>
     </g>
     <g id="line2d_40">
      <g>
       <use style="stroke:#000000;stroke-width:0.5;" x="138.782813" xlink:href="#meb9b358ba1" y="54.588745"/>
      </g>
     </g>
    </g>
    <g id="ytick_10">
     <g id="line2d_41">
      <g>
       <use style="stroke:#000000;stroke-width:0.5;" x="27.182813" xlink:href="#m8ee02b8509" y="46.087105"/>
      </g>
     </g>
     <g id="line2d_42">
      <g>
       <use style="stroke:#000000;stroke-width:0.5;" x="138.782813" xlink:href="#meb9b358ba1" y="46.087105"/>
      </g>
     </g>
    </g>
    <g id="ytick_11">
     <g id="line2d_43">
      <g>
       <use style="stroke:#000000;stroke-width:0.5;" x="27.182813" xlink:href="#m8ee02b8509" y="29.083826"/>
      </g>
     </g>
     <g id="line2d_44">
      <g>
       <use style="stroke:#000000;stroke-width:0.5;" x="138.782813" xlink:href="#meb9b358ba1" y="29.083826"/>
      </g>
     </g>
    </g>
    <g id="ytick_12">
     <g id="line2d_45">
      <g>
       <use style="stroke:#000000;stroke-width:0.5;" x="27.182813" xlink:href="#m8ee02b8509" y="20.582186"/>
      </g>
     </g>
     <g id="line2d_46">
      <g>
       <use style="stroke:#000000;stroke-width:0.5;" x="138.782813" xlink:href="#meb9b358ba1" y="20.582186"/>
      </g>
     </g>
    </g>
    <g id="ytick_13">
     <g id="line2d_47">
      <g>
       <use style="stroke:#000000;stroke-width:0.5;" x="27.182813" xlink:href="#m8ee02b8509" y="12.080546"/>
      </g>
     </g>
     <g id="line2d_48">
      <g>
       <use style="stroke:#000000;stroke-width:0.5;" x="138.782813" xlink:href="#meb9b358ba1" y="12.080546"/>
      </g>
     </g>
    </g>
    <g id="text_9">
     <!-- $\it{I_{D}}$ (nA) -->
     <g transform="translate(7.3 70.940098)rotate(-90)">
      <text>
       <tspan style="font-family:DejaVu Sans;font-size:10px;font-style:oblique;font-weight:oblique;" x="0" y="-0.703125">I</tspan>
       <tspan style="font-family:DejaVu Sans;font-size:7px;font-style:oblique;font-weight:oblique;" x="2.949219" y="0.9375">D</tspan>
       <tspan style="font-family:Arial;font-size:10px;font-style:regular;font-weight:regular;" x="8.612793 11.391113 14.721191 20.282715 26.952637" y="-0.703125"> (nA)</tspan>
      </text>
     </g>
    </g>
   </g>
   <g id="line2d_49">
    <path clip-path="url(#p65b7bf50f7)" d="M 32.25554 105.585916 
L 37.328267 105.409163 
L 42.400994 105.267884 
L 47.473722 105.135496 
L 52.546449 105.006854 
L 57.619176 104.89718 
L 62.691903 104.670268 
L 67.764631 104.441967 
L 72.837358 104.066141 
L 77.910085 103.6604 
L 82.982813 103.19467 
L 88.05554 102.702809 
L 93.128267 102.143505 
L 98.200994 101.655458 
L 103.273722 101.21638 
L 108.346449 100.86478 
L 113.419176 100.611574 
L 118.491903 100.369675 
L 123.564631 100.083272 
L 128.637358 99.782423 
L 133.710085 99.492455 
" style="fill:none;stroke:#e41a1c;stroke-linecap:square;stroke-width:1.5;"/>
    <defs>
     <path d="M 0 0.5 
C 0.132602 0.5 0.25979 0.447317 0.353553 0.353553 
C 0.447317 0.25979 0.5 0.132602 0.5 0 
C 0.5 -0.132602 0.447317 -0.25979 0.353553 -0.353553 
C 0.25979 -0.447317 0.132602 -0.5 0 -0.5 
C -0.132602 -0.5 -0.25979 -0.447317 -0.353553 -0.353553 
C -0.447317 -0.25979 -0.5 -0.132602 -0.5 0 
C -0.5 0.132602 -0.447317 0.25979 -0.353553 0.353553 
C -0.25979 0.447317 -0.132602 0.5 0 0.5 
z
" id="mbb07130988" style="stroke:#e41a1c;"/>
    </defs>
    <g clip-path="url(#p65b7bf50f7)">
     <use style="fill:#e41a1c;stroke:#e41a1c;" x="32.25554" xlink:href="#mbb07130988" y="105.585916"/>
     <use style="fill:#e41a1c;stroke:#e41a1c;" x="37.328267" xlink:href="#mbb07130988" y="105.409163"/>
     <use style="fill:#e41a1c;stroke:#e41a1c;" x="42.400994" xlink:href="#mbb07130988" y="105.267884"/>
     <use style="fill:#e41a1c;stroke:#e41a1c;" x="47.473722" xlink:href="#mbb07130988" y="105.135496"/>
     <use style="fill:#e41a1c;stroke:#e41a1c;" x="52.546449" xlink:href="#mbb07130988" y="105.006854"/>
     <use style="fill:#e41a1c;stroke:#e41a1c;" x="57.619176" xlink:href="#mbb07130988" y="104.89718"/>
     <use style="fill:#e41a1c;stroke:#e41a1c;" x="62.691903" xlink:href="#mbb07130988" y="104.670268"/>
     <use style="fill:#e41a1c;stroke:#e41a1c;" x="67.764631" xlink:href="#mbb07130988" y="104.441967"/>
     <use style="fill:#e41a1c;stroke:#e41a1c;" x="72.837358" xlink:href="#mbb07130988" y="104.066141"/>
     <use style="fill:#e41a1c;stroke:#e41a1c;" x="77.910085" xlink:href="#mbb07130988" y="103.6604"/>
     <use style="fill:#e41a1c;stroke:#e41a1c;" x="82.982813" xlink:href="#mbb07130988" y="103.19467"/>
     <use style="fill:#e41a1c;stroke:#e41a1c;" x="88.05554" xlink:href="#mbb07130988" y="102.702809"/>
     <use style="fill:#e41a1c;stroke:#e41a1c;" x="93.128267" xlink:href="#mbb07130988" y="102.143505"/>
     <use style="fill:#e41a1c;stroke:#e41a1c;" x="98.200994" xlink:href="#mbb07130988" y="101.655458"/>
     <use style="fill:#e41a1c;stroke:#e41a1c;" x="103.273722" xlink:href="#mbb07130988" y="101.21638"/>
     <use style="fill:#e41a1c;stroke:#e41a1c;" x="108.346449" xlink:href="#mbb07130988" y="100.86478"/>
     <use style="fill:#e41a1c;stroke:#e41a1c;" x="113.419176" xlink:href="#mbb07130988" y="100.611574"/>
     <use style="fill:#e41a1c;stroke:#e41a1c;" x="118.491903" xlink:href="#mbb07130988" y="100.369675"/>
     <use style="fill:#e41a1c;stroke:#e41a1c;" x="123.564631" xlink:href="#mbb07130988" y="100.083272"/>
     <use style="fill:#e41a1c;stroke:#e41a1c;" x="128.637358" xlink:href="#mbb07130988" y="99.782423"/>
     <use style="fill:#e41a1c;stroke:#e41a1c;" x="133.710085" xlink:href="#mbb07130988" y="99.492455"/>
    </g>
   </g>
   <g id="line2d_50">
    <path clip-path="url(#p65b7bf50f7)" d="M 32.25554 105.619382 
L 37.328267 104.416019 
L 42.400994 103.355925 
L 47.473722 102.304575 
L 52.546449 101.41933 
L 57.619176 100.874054 
L 62.691903 100.436923 
L 67.764631 100.140134 
L 72.837358 99.849993 
L 77.910085 99.210628 
L 82.982813 98.760795 
L 88.05554 98.371415 
L 93.128267 98.164424 
L 98.200994 97.805087 
L 103.273722 97.218891 
L 108.346449 97.012206 
L 113.419176 96.867245 
L 118.491903 96.489396 
L 123.564631 95.945266 
L 128.637358 95.61812 
L 133.710085 95.481634 
" style="fill:none;stroke:#ff7f00;stroke-linecap:square;stroke-width:1.5;"/>
    <defs>
     <path d="M 0 0.5 
C 0.132602 0.5 0.25979 0.447317 0.353553 0.353553 
C 0.447317 0.25979 0.5 0.132602 0.5 0 
C 0.5 -0.132602 0.447317 -0.25979 0.353553 -0.353553 
C 0.25979 -0.447317 0.132602 -0.5 0 -0.5 
C -0.132602 -0.5 -0.25979 -0.447317 -0.353553 -0.353553 
C -0.447317 -0.25979 -0.5 -0.132602 -0.5 0 
C -0.5 0.132602 -0.447317 0.25979 -0.353553 0.353553 
C -0.25979 0.447317 -0.132602 0.5 0 0.5 
z
" id="m5a9d116db4" style="stroke:#ff7f00;"/>
    </defs>
    <g clip-path="url(#p65b7bf50f7)">
     <use style="fill:#ff7f00;stroke:#ff7f00;" x="32.25554" xlink:href="#m5a9d116db4" y="105.619382"/>
     <use style="fill:#ff7f00;stroke:#ff7f00;" x="37.328267" xlink:href="#m5a9d116db4" y="104.416019"/>
     <use style="fill:#ff7f00;stroke:#ff7f00;" x="42.400994" xlink:href="#m5a9d116db4" y="103.355925"/>
     <use style="fill:#ff7f00;stroke:#ff7f00;" x="47.473722" xlink:href="#m5a9d116db4" y="102.304575"/>
     <use style="fill:#ff7f00;stroke:#ff7f00;" x="52.546449" xlink:href="#m5a9d116db4" y="101.41933"/>
     <use style="fill:#ff7f00;stroke:#ff7f00;" x="57.619176" xlink:href="#m5a9d116db4" y="100.874054"/>
     <use style="fill:#ff7f00;stroke:#ff7f00;" x="62.691903" xlink:href="#m5a9d116db4" y="100.436923"/>
     <use style="fill:#ff7f00;stroke:#ff7f00;" x="67.764631" xlink:href="#m5a9d116db4" y="100.140134"/>
     <use style="fill:#ff7f00;stroke:#ff7f00;" x="72.837358" xlink:href="#m5a9d116db4" y="99.849993"/>
     <use style="fill:#ff7f00;stroke:#ff7f00;" x="77.910085" xlink:href="#m5a9d116db4" y="99.210628"/>
     <use style="fill:#ff7f00;stroke:#ff7f00;" x="82.982813" xlink:href="#m5a9d116db4" y="98.760795"/>
     <use style="fill:#ff7f00;stroke:#ff7f00;" x="88.05554" xlink:href="#m5a9d116db4" y="98.371415"/>
     <use style="fill:#ff7f00;stroke:#ff7f00;" x="93.128267" xlink:href="#m5a9d116db4" y="98.164424"/>
     <use style="fill:#ff7f00;stroke:#ff7f00;" x="98.200994" xlink:href="#m5a9d116db4" y="97.805087"/>
     <use style="fill:#ff7f00;stroke:#ff7f00;" x="103.273722" xlink:href="#m5a9d116db4" y="97.218891"/>
     <use style="fill:#ff7f00;stroke:#ff7f00;" x="108.346449" xlink:href="#m5a9d116db4" y="97.012206"/>
     <use style="fill:#ff7f00;stroke:#ff7f00;" x="113.419176" xlink:href="#m5a9d116db4" y="96.867245"/>
     <use style="fill:#ff7f00;stroke:#ff7f00;" x="118.491903" xlink:href="#m5a9d116db4" y="96.489396"/>
     <use style="fill:#ff7f00;stroke:#ff7f00;" x="123.564631" xlink:href="#m5a9d116db4" y="95.945266"/>
     <use style="fill:#ff7f00;stroke:#ff7f00;" x="128.637358" xlink:href="#m5a9d116db4" y="95.61812"/>
     <use style="fill:#ff7f00;stroke:#ff7f00;" x="133.710085" xlink:href="#m5a9d116db4" y="95.481634"/>
    </g>
   </g>
   <g id="line2d_51">
    <path clip-path="url(#p65b7bf50f7)" d="M 32.25554 105.607791 
L 37.328267 103.286571 
L 42.400994 101.361402 
L 47.473722 99.50935 
L 52.546449 97.984717 
L 57.619176 96.736774 
L 62.691903 96.252783 
L 67.764631 95.45965 
L 72.837358 95.070122 
L 77.910085 94.394564 
L 82.982813 93.909239 
L 88.05554 93.498828 
L 93.128267 92.993688 
L 98.200994 92.532387 
L 103.273722 91.680135 
L 108.346449 91.464534 
L 113.419176 90.881993 
L 118.491903 90.370941 
L 123.564631 89.780949 
L 128.637358 88.749422 
L 133.710085 88.138096 
" style="fill:none;stroke:#984ea3;stroke-linecap:square;stroke-width:1.5;"/>
    <defs>
     <path d="M 0 0.5 
C 0.132602 0.5 0.25979 0.447317 0.353553 0.353553 
C 0.447317 0.25979 0.5 0.132602 0.5 0 
C 0.5 -0.132602 0.447317 -0.25979 0.353553 -0.353553 
C 0.25979 -0.447317 0.132602 -0.5 0 -0.5 
C -0.132602 -0.5 -0.25979 -0.447317 -0.353553 -0.353553 
C -0.447317 -0.25979 -0.5 -0.132602 -0.5 0 
C -0.5 0.132602 -0.447317 0.25979 -0.353553 0.353553 
C -0.25979 0.447317 -0.132602 0.5 0 0.5 
z
" id="m2d56e8996d" style="stroke:#984ea3;"/>
    </defs>
    <g clip-path="url(#p65b7bf50f7)">
     <use style="fill:#984ea3;stroke:#984ea3;" x="32.25554" xlink:href="#m2d56e8996d" y="105.607791"/>
     <use style="fill:#984ea3;stroke:#984ea3;" x="37.328267" xlink:href="#m2d56e8996d" y="103.286571"/>
     <use style="fill:#984ea3;stroke:#984ea3;" x="42.400994" xlink:href="#m2d56e8996d" y="101.361402"/>
     <use style="fill:#984ea3;stroke:#984ea3;" x="47.473722" xlink:href="#m2d56e8996d" y="99.50935"/>
     <use style="fill:#984ea3;stroke:#984ea3;" x="52.546449" xlink:href="#m2d56e8996d" y="97.984717"/>
     <use style="fill:#984ea3;stroke:#984ea3;" x="57.619176" xlink:href="#m2d56e8996d" y="96.736774"/>
     <use style="fill:#984ea3;stroke:#984ea3;" x="62.691903" xlink:href="#m2d56e8996d" y="96.252783"/>
     <use style="fill:#984ea3;stroke:#984ea3;" x="67.764631" xlink:href="#m2d56e8996d" y="95.45965"/>
     <use style="fill:#984ea3;stroke:#984ea3;" x="72.837358" xlink:href="#m2d56e8996d" y="95.070122"/>
     <use style="fill:#984ea3;stroke:#984ea3;" x="77.910085" xlink:href="#m2d56e8996d" y="94.394564"/>
     <use style="fill:#984ea3;stroke:#984ea3;" x="82.982813" xlink:href="#m2d56e8996d" y="93.909239"/>
     <use style="fill:#984ea3;stroke:#984ea3;" x="88.05554" xlink:href="#m2d56e8996d" y="93.498828"/>
     <use style="fill:#984ea3;stroke:#984ea3;" x="93.128267" xlink:href="#m2d56e8996d" y="92.993688"/>
     <use style="fill:#984ea3;stroke:#984ea3;" x="98.200994" xlink:href="#m2d56e8996d" y="92.532387"/>
     <use style="fill:#984ea3;stroke:#984ea3;" x="103.273722" xlink:href="#m2d56e8996d" y="91.680135"/>
     <use style="fill:#984ea3;stroke:#984ea3;" x="108.346449" xlink:href="#m2d56e8996d" y="91.464534"/>
     <use style="fill:#984ea3;stroke:#984ea3;" x="113.419176" xlink:href="#m2d56e8996d" y="90.881993"/>
     <use style="fill:#984ea3;stroke:#984ea3;" x="118.491903" xlink:href="#m2d56e8996d" y="90.370941"/>
     <use style="fill:#984ea3;stroke:#984ea3;" x="123.564631" xlink:href="#m2d56e8996d" y="89.780949"/>
     <use style="fill:#984ea3;stroke:#984ea3;" x="128.637358" xlink:href="#m2d56e8996d" y="88.749422"/>
     <use style="fill:#984ea3;stroke:#984ea3;" x="133.710085" xlink:href="#m2d56e8996d" y="88.138096"/>
    </g>
   </g>
   <g id="line2d_52">
    <path clip-path="url(#p65b7bf50f7)" d="M 32.25554 105.624553 
L 37.328267 101.895806 
L 42.400994 98.523232 
L 47.473722 95.446518 
L 52.546449 92.739094 
L 57.619176 90.734086 
L 62.691903 88.993696 
L 67.764631 87.886824 
L 72.837358 86.491691 
L 77.910085 85.778693 
L 82.982813 84.671492 
L 88.05554 83.827316 
L 93.128267 83.324814 
L 98.200994 82.769195 
L 103.273722 82.072166 
L 108.346449 80.890416 
L 113.419176 80.400346 
L 118.491903 80.040388 
L 123.564631 79.938682 
L 128.637358 78.229683 
L 133.710085 78.243498 
" style="fill:none;stroke:#a65628;stroke-linecap:square;stroke-width:1.5;"/>
    <defs>
     <path d="M 0 0.5 
C 0.132602 0.5 0.25979 0.447317 0.353553 0.353553 
C 0.447317 0.25979 0.5 0.132602 0.5 0 
C 0.5 -0.132602 0.447317 -0.25979 0.353553 -0.353553 
C 0.25979 -0.447317 0.132602 -0.5 0 -0.5 
C -0.132602 -0.5 -0.25979 -0.447317 -0.353553 -0.353553 
C -0.447317 -0.25979 -0.5 -0.132602 -0.5 0 
C -0.5 0.132602 -0.447317 0.25979 -0.353553 0.353553 
C -0.25979 0.447317 -0.132602 0.5 0 0.5 
z
" id="m44a8ea497a" style="stroke:#a65628;"/>
    </defs>
    <g clip-path="url(#p65b7bf50f7)">
     <use style="fill:#a65628;stroke:#a65628;" x="32.25554" xlink:href="#m44a8ea497a" y="105.624553"/>
     <use style="fill:#a65628;stroke:#a65628;" x="37.328267" xlink:href="#m44a8ea497a" y="101.895806"/>
     <use style="fill:#a65628;stroke:#a65628;" x="42.400994" xlink:href="#m44a8ea497a" y="98.523232"/>
     <use style="fill:#a65628;stroke:#a65628;" x="47.473722" xlink:href="#m44a8ea497a" y="95.446518"/>
     <use style="fill:#a65628;stroke:#a65628;" x="52.546449" xlink:href="#m44a8ea497a" y="92.739094"/>
     <use style="fill:#a65628;stroke:#a65628;" x="57.619176" xlink:href="#m44a8ea497a" y="90.734086"/>
     <use style="fill:#a65628;stroke:#a65628;" x="62.691903" xlink:href="#m44a8ea497a" y="88.993696"/>
     <use style="fill:#a65628;stroke:#a65628;" x="67.764631" xlink:href="#m44a8ea497a" y="87.886824"/>
     <use style="fill:#a65628;stroke:#a65628;" x="72.837358" xlink:href="#m44a8ea497a" y="86.491691"/>
     <use style="fill:#a65628;stroke:#a65628;" x="77.910085" xlink:href="#m44a8ea497a" y="85.778693"/>
     <use style="fill:#a65628;stroke:#a65628;" x="82.982813" xlink:href="#m44a8ea497a" y="84.671492"/>
     <use style="fill:#a65628;stroke:#a65628;" x="88.05554" xlink:href="#m44a8ea497a" y="83.827316"/>
     <use style="fill:#a65628;stroke:#a65628;" x="93.128267" xlink:href="#m44a8ea497a" y="83.324814"/>
     <use style="fill:#a65628;stroke:#a65628;" x="98.200994" xlink:href="#m44a8ea497a" y="82.769195"/>
     <use style="fill:#a65628;stroke:#a65628;" x="103.273722" xlink:href="#m44a8ea497a" y="82.072166"/>
     <use style="fill:#a65628;stroke:#a65628;" x="108.346449" xlink:href="#m44a8ea497a" y="80.890416"/>
     <use style="fill:#a65628;stroke:#a65628;" x="113.419176" xlink:href="#m44a8ea497a" y="80.400346"/>
     <use style="fill:#a65628;stroke:#a65628;" x="118.491903" xlink:href="#m44a8ea497a" y="80.040388"/>
     <use style="fill:#a65628;stroke:#a65628;" x="123.564631" xlink:href="#m44a8ea497a" y="79.938682"/>
     <use style="fill:#a65628;stroke:#a65628;" x="128.637358" xlink:href="#m44a8ea497a" y="78.229683"/>
     <use style="fill:#a65628;stroke:#a65628;" x="133.710085" xlink:href="#m44a8ea497a" y="78.243498"/>
    </g>
   </g>
   <g id="line2d_53">
    <path clip-path="url(#p65b7bf50f7)" d="M 32.25554 105.628649 
L 37.328267 99.195345 
L 42.400994 93.677037 
L 47.473722 88.947958 
L 52.546449 85.092914 
L 57.619176 81.487248 
L 62.691903 79.543968 
L 67.764631 77.149627 
L 72.837358 74.979506 
L 77.910085 72.922284 
L 82.982813 71.537132 
L 88.05554 69.907385 
L 93.128267 68.206316 
L 98.200994 67.092533 
L 103.273722 65.745105 
L 108.346449 63.576666 
L 113.419176 62.570417 
L 118.491903 61.464163 
L 123.564631 59.824038 
L 128.637358 60.332769 
L 133.710085 59.429411 
" style="fill:none;stroke:#4daf4a;stroke-linecap:square;stroke-width:1.5;"/>
    <defs>
     <path d="M 0 0.5 
C 0.132602 0.5 0.25979 0.447317 0.353553 0.353553 
C 0.447317 0.25979 0.5 0.132602 0.5 0 
C 0.5 -0.132602 0.447317 -0.25979 0.353553 -0.353553 
C 0.25979 -0.447317 0.132602 -0.5 0 -0.5 
C -0.132602 -0.5 -0.25979 -0.447317 -0.353553 -0.353553 
C -0.447317 -0.25979 -0.5 -0.132602 -0.5 0 
C -0.5 0.132602 -0.447317 0.25979 -0.353553 0.353553 
C -0.25979 0.447317 -0.132602 0.5 0 0.5 
z
" id="m317af7d90c" style="stroke:#4daf4a;"/>
    </defs>
    <g clip-path="url(#p65b7bf50f7)">
     <use style="fill:#4daf4a;stroke:#4daf4a;" x="32.25554" xlink:href="#m317af7d90c" y="105.628649"/>
     <use style="fill:#4daf4a;stroke:#4daf4a;" x="37.328267" xlink:href="#m317af7d90c" y="99.195345"/>
     <use style="fill:#4daf4a;stroke:#4daf4a;" x="42.400994" xlink:href="#m317af7d90c" y="93.677037"/>
     <use style="fill:#4daf4a;stroke:#4daf4a;" x="47.473722" xlink:href="#m317af7d90c" y="88.947958"/>
     <use style="fill:#4daf4a;stroke:#4daf4a;" x="52.546449" xlink:href="#m317af7d90c" y="85.092914"/>
     <use style="fill:#4daf4a;stroke:#4daf4a;" x="57.619176" xlink:href="#m317af7d90c" y="81.487248"/>
     <use style="fill:#4daf4a;stroke:#4daf4a;" x="62.691903" xlink:href="#m317af7d90c" y="79.543968"/>
     <use style="fill:#4daf4a;stroke:#4daf4a;" x="67.764631" xlink:href="#m317af7d90c" y="77.149627"/>
     <use style="fill:#4daf4a;stroke:#4daf4a;" x="72.837358" xlink:href="#m317af7d90c" y="74.979506"/>
     <use style="fill:#4daf4a;stroke:#4daf4a;" x="77.910085" xlink:href="#m317af7d90c" y="72.922284"/>
     <use style="fill:#4daf4a;stroke:#4daf4a;" x="82.982813" xlink:href="#m317af7d90c" y="71.537132"/>
     <use style="fill:#4daf4a;stroke:#4daf4a;" x="88.05554" xlink:href="#m317af7d90c" y="69.907385"/>
     <use style="fill:#4daf4a;stroke:#4daf4a;" x="93.128267" xlink:href="#m317af7d90c" y="68.206316"/>
     <use style="fill:#4daf4a;stroke:#4daf4a;" x="98.200994" xlink:href="#m317af7d90c" y="67.092533"/>
     <use style="fill:#4daf4a;stroke:#4daf4a;" x="103.273722" xlink:href="#m317af7d90c" y="65.745105"/>
     <use style="fill:#4daf4a;stroke:#4daf4a;" x="108.346449" xlink:href="#m317af7d90c" y="63.576666"/>
     <use style="fill:#4daf4a;stroke:#4daf4a;" x="113.419176" xlink:href="#m317af7d90c" y="62.570417"/>
     <use style="fill:#4daf4a;stroke:#4daf4a;" x="118.491903" xlink:href="#m317af7d90c" y="61.464163"/>
     <use style="fill:#4daf4a;stroke:#4daf4a;" x="123.564631" xlink:href="#m317af7d90c" y="59.824038"/>
     <use style="fill:#4daf4a;stroke:#4daf4a;" x="128.637358" xlink:href="#m317af7d90c" y="60.332769"/>
     <use style="fill:#4daf4a;stroke:#4daf4a;" x="133.710085" xlink:href="#m317af7d90c" y="59.429411"/>
    </g>
   </g>
   <g id="line2d_54">
    <path clip-path="url(#p65b7bf50f7)" d="M 32.25554 105.630613 
L 37.328267 96.449829 
L 42.400994 88.418109 
L 47.473722 81.75286 
L 52.546449 76.574483 
L 57.619176 72.775142 
L 62.691903 69.499035 
L 67.764631 66.818836 
L 72.837358 63.195222 
L 77.910085 60.164812 
L 82.982813 57.331386 
L 88.05554 55.35881 
L 93.128267 52.220871 
L 98.200994 50.118888 
L 103.273722 47.896757 
L 108.346449 45.635773 
L 113.419176 43.665763 
L 118.491903 42.273862 
L 123.564631 40.779298 
L 128.637358 37.987794 
L 133.710085 36.157609 
" style="fill:none;stroke:#999999;stroke-linecap:square;stroke-width:1.5;"/>
    <defs>
     <path d="M 0 0.5 
C 0.132602 0.5 0.25979 0.447317 0.353553 0.353553 
C 0.447317 0.25979 0.5 0.132602 0.5 0 
C 0.5 -0.132602 0.447317 -0.25979 0.353553 -0.353553 
C 0.25979 -0.447317 0.132602 -0.5 0 -0.5 
C -0.132602 -0.5 -0.25979 -0.447317 -0.353553 -0.353553 
C -0.447317 -0.25979 -0.5 -0.132602 -0.5 0 
C -0.5 0.132602 -0.447317 0.25979 -0.353553 0.353553 
C -0.25979 0.447317 -0.132602 0.5 0 0.5 
z
" id="mac4dbf7175" style="stroke:#999999;"/>
    </defs>
    <g clip-path="url(#p65b7bf50f7)">
     <use style="fill:#999999;stroke:#999999;" x="32.25554" xlink:href="#mac4dbf7175" y="105.630613"/>
     <use style="fill:#999999;stroke:#999999;" x="37.328267" xlink:href="#mac4dbf7175" y="96.449829"/>
     <use style="fill:#999999;stroke:#999999;" x="42.400994" xlink:href="#mac4dbf7175" y="88.418109"/>
     <use style="fill:#999999;stroke:#999999;" x="47.473722" xlink:href="#mac4dbf7175" y="81.75286"/>
     <use style="fill:#999999;stroke:#999999;" x="52.546449" xlink:href="#mac4dbf7175" y="76.574483"/>
     <use style="fill:#999999;stroke:#999999;" x="57.619176" xlink:href="#mac4dbf7175" y="72.775142"/>
     <use style="fill:#999999;stroke:#999999;" x="62.691903" xlink:href="#mac4dbf7175" y="69.499035"/>
     <use style="fill:#999999;stroke:#999999;" x="67.764631" xlink:href="#mac4dbf7175" y="66.818836"/>
     <use style="fill:#999999;stroke:#999999;" x="72.837358" xlink:href="#mac4dbf7175" y="63.195222"/>
     <use style="fill:#999999;stroke:#999999;" x="77.910085" xlink:href="#mac4dbf7175" y="60.164812"/>
     <use style="fill:#999999;stroke:#999999;" x="82.982813" xlink:href="#mac4dbf7175" y="57.331386"/>
     <use style="fill:#999999;stroke:#999999;" x="88.05554" xlink:href="#mac4dbf7175" y="55.35881"/>
     <use style="fill:#999999;stroke:#999999;" x="93.128267" xlink:href="#mac4dbf7175" y="52.220871"/>
     <use style="fill:#999999;stroke:#999999;" x="98.200994" xlink:href="#mac4dbf7175" y="50.118888"/>
     <use style="fill:#999999;stroke:#999999;" x="103.273722" xlink:href="#mac4dbf7175" y="47.896757"/>
     <use style="fill:#999999;stroke:#999999;" x="108.346449" xlink:href="#mac4dbf7175" y="45.635773"/>
     <use style="fill:#999999;stroke:#999999;" x="113.419176" xlink:href="#mac4dbf7175" y="43.665763"/>
     <use style="fill:#999999;stroke:#999999;" x="118.491903" xlink:href="#mac4dbf7175" y="42.273862"/>
     <use style="fill:#999999;stroke:#999999;" x="123.564631" xlink:href="#mac4dbf7175" y="40.779298"/>
     <use style="fill:#999999;stroke:#999999;" x="128.637358" xlink:href="#mac4dbf7175" y="37.987794"/>
     <use style="fill:#999999;stroke:#999999;" x="133.710085" xlink:href="#mac4dbf7175" y="36.157609"/>
    </g>
   </g>
   <g id="line2d_55">
    <path clip-path="url(#p65b7bf50f7)" d="M 32.25554 105.630146 
L 37.328267 94.221066 
L 42.400994 83.985536 
L 47.473722 75.188471 
L 52.546449 68.274145 
L 57.619176 63.288256 
L 62.691903 58.90016 
L 67.764631 55.367998 
L 72.837358 51.476647 
L 77.910085 48.048242 
L 82.982813 44.101123 
L 88.05554 40.795516 
L 93.128267 38.066961 
L 98.200994 35.174817 
L 103.273722 31.176064 
L 108.346449 28.885374 
L 113.419176 24.951217 
L 118.491903 22.772791 
L 123.564631 20.675972 
L 128.637358 17.818917 
L 133.710085 15.410944 
" style="fill:none;stroke:#377eb8;stroke-linecap:square;stroke-width:1.5;"/>
    <defs>
     <path d="M 0 0.5 
C 0.132602 0.5 0.25979 0.447317 0.353553 0.353553 
C 0.447317 0.25979 0.5 0.132602 0.5 0 
C 0.5 -0.132602 0.447317 -0.25979 0.353553 -0.353553 
C 0.25979 -0.447317 0.132602 -0.5 0 -0.5 
C -0.132602 -0.5 -0.25979 -0.447317 -0.353553 -0.353553 
C -0.447317 -0.25979 -0.5 -0.132602 -0.5 0 
C -0.5 0.132602 -0.447317 0.25979 -0.353553 0.353553 
C -0.25979 0.447317 -0.132602 0.5 0 0.5 
z
" id="mf255151fd2" style="stroke:#377eb8;"/>
    </defs>
    <g clip-path="url(#p65b7bf50f7)">
     <use style="fill:#377eb8;stroke:#377eb8;" x="32.25554" xlink:href="#mf255151fd2" y="105.630146"/>
     <use style="fill:#377eb8;stroke:#377eb8;" x="37.328267" xlink:href="#mf255151fd2" y="94.221066"/>
     <use style="fill:#377eb8;stroke:#377eb8;" x="42.400994" xlink:href="#mf255151fd2" y="83.985536"/>
     <use style="fill:#377eb8;stroke:#377eb8;" x="47.473722" xlink:href="#mf255151fd2" y="75.188471"/>
     <use style="fill:#377eb8;stroke:#377eb8;" x="52.546449" xlink:href="#mf255151fd2" y="68.274145"/>
     <use style="fill:#377eb8;stroke:#377eb8;" x="57.619176" xlink:href="#mf255151fd2" y="63.288256"/>
     <use style="fill:#377eb8;stroke:#377eb8;" x="62.691903" xlink:href="#mf255151fd2" y="58.90016"/>
     <use style="fill:#377eb8;stroke:#377eb8;" x="67.764631" xlink:href="#mf255151fd2" y="55.367998"/>
     <use style="fill:#377eb8;stroke:#377eb8;" x="72.837358" xlink:href="#mf255151fd2" y="51.476647"/>
     <use style="fill:#377eb8;stroke:#377eb8;" x="77.910085" xlink:href="#mf255151fd2" y="48.048242"/>
     <use style="fill:#377eb8;stroke:#377eb8;" x="82.982813" xlink:href="#mf255151fd2" y="44.101123"/>
     <use style="fill:#377eb8;stroke:#377eb8;" x="88.05554" xlink:href="#mf255151fd2" y="40.795516"/>
     <use style="fill:#377eb8;stroke:#377eb8;" x="93.128267" xlink:href="#mf255151fd2" y="38.066961"/>
     <use style="fill:#377eb8;stroke:#377eb8;" x="98.200994" xlink:href="#mf255151fd2" y="35.174817"/>
     <use style="fill:#377eb8;stroke:#377eb8;" x="103.273722" xlink:href="#mf255151fd2" y="31.176064"/>
     <use style="fill:#377eb8;stroke:#377eb8;" x="108.346449" xlink:href="#mf255151fd2" y="28.885374"/>
     <use style="fill:#377eb8;stroke:#377eb8;" x="113.419176" xlink:href="#mf255151fd2" y="24.951217"/>
     <use style="fill:#377eb8;stroke:#377eb8;" x="118.491903" xlink:href="#mf255151fd2" y="22.772791"/>
     <use style="fill:#377eb8;stroke:#377eb8;" x="123.564631" xlink:href="#mf255151fd2" y="20.675972"/>
     <use style="fill:#377eb8;stroke:#377eb8;" x="128.637358" xlink:href="#mf255151fd2" y="17.818917"/>
     <use style="fill:#377eb8;stroke:#377eb8;" x="133.710085" xlink:href="#mf255151fd2" y="15.410944"/>
    </g>
   </g>
   <g id="patch_3">
    <path d="M 27.182813 110.150098 
L 27.182813 1.430098 
" style="fill:none;stroke:#000000;stroke-linecap:square;stroke-linejoin:miter;stroke-width:0.5;"/>
   </g>
   <g id="patch_4">
    <path d="M 138.782813 110.150098 
L 138.782813 1.430098 
" style="fill:none;stroke:#000000;stroke-linecap:square;stroke-linejoin:miter;stroke-width:0.5;"/>
   </g>
   <g id="patch_5">
    <path d="M 27.182813 110.150098 
L 138.782813 110.150098 
" style="fill:none;stroke:#000000;stroke-linecap:square;stroke-linejoin:miter;stroke-width:0.5;"/>
   </g>
   <g id="patch_6">
    <path d="M 27.182813 1.430098 
L 138.782813 1.430098 
" style="fill:none;stroke:#000000;stroke-linecap:square;stroke-linejoin:miter;stroke-width:0.5;"/>
   </g>
  </g>
 </g>
 <defs>
  <clipPath id="p65b7bf50f7">
   <rect height="108.72" width="111.6" x="27.182813" y="1.430098"/>
  </clipPath>
 </defs>
</svg>
