<?xml version="1.0" encoding="utf-8" standalone="no"?>
<!DOCTYPE svg PUBLIC "-//W3C//DTD SVG 1.1//EN"
  "http://www.w3.org/Graphics/SVG/1.1/DTD/svg11.dtd">
<!-- Created with matplotlib (https://matplotlib.org/) -->
<svg height="129.420309pt" version="1.1" viewBox="0 0 145.308523 129.420309" width="145.308523pt" xmlns="http://www.w3.org/2000/svg" xmlns:xlink="http://www.w3.org/1999/xlink">
 <defs>
  <style type="text/css">
*{stroke-linecap:butt;stroke-linejoin:round;}
  </style>
 </defs>
 <g id="figure_1">
  <g id="patch_1">
   <path d="M 0 129.420309 
L 145.308523 129.420309 
L 145.308523 0 
L 0 0 
z
" style="fill:none;"/>
  </g>
  <g id="axes_1">
   <g id="patch_2">
    <path d="M 30.3 109.774997 
L 141.9 109.774997 
L 141.9 1.054997 
L 30.3 1.054997 
z
" style="fill:none;"/>
   </g>
   <g id="matplotlib.axis_1">
    <g id="xtick_1">
     <g id="line2d_1">
      <defs>
       <path d="M 0 0 
L 0 -3.5 
" id="mc205452534" style="stroke:#000000;stroke-width:0.5;"/>
      </defs>
      <g>
       <use style="stroke:#000000;stroke-width:0.5;" x="136.827273" xlink:href="#mc205452534" y="109.774997"/>
      </g>
     </g>
     <g id="line2d_2">
      <defs>
       <path d="M 0 0 
L 0 3.5 
" id="m9e8a8118b9" style="stroke:#000000;stroke-width:0.5;"/>
      </defs>
      <g>
       <use style="stroke:#000000;stroke-width:0.5;" x="136.827273" xlink:href="#m9e8a8118b9" y="1.054997"/>
      </g>
     </g>
     <g id="text_1">
      <text style="font-family:Arial;font-size:10px;font-style:normal;font-weight:normal;text-anchor:middle;" transform="rotate(-0, 136.827273, 117.932809)" x="136.827273" y="117.932809">−10</text>
     </g>
    </g>
    <g id="xtick_2">
     <g id="line2d_3">
      <g>
       <use style="stroke:#000000;stroke-width:0.5;" x="86.1" xlink:href="#mc205452534" y="109.774997"/>
      </g>
     </g>
     <g id="line2d_4">
      <g>
       <use style="stroke:#000000;stroke-width:0.5;" x="86.1" xlink:href="#m9e8a8118b9" y="1.054997"/>
      </g>
     </g>
     <g id="text_2">
      <text style="font-family:Arial;font-size:10px;font-style:normal;font-weight:normal;text-anchor:middle;" transform="rotate(-0, 86.1, 117.932809)" x="86.1" y="117.932809">−5</text>
     </g>
    </g>
    <g id="xtick_3">
     <g id="line2d_5">
      <g>
       <use style="stroke:#000000;stroke-width:0.5;" x="35.372727" xlink:href="#mc205452534" y="109.774997"/>
      </g>
     </g>
     <g id="line2d_6">
      <g>
       <use style="stroke:#000000;stroke-width:0.5;" x="35.372727" xlink:href="#m9e8a8118b9" y="1.054997"/>
      </g>
     </g>
     <g id="text_3">
      <text style="font-family:Arial;font-size:10px;font-style:normal;font-weight:normal;text-anchor:middle;" transform="rotate(-0, 35.372727, 117.932809)" x="35.372727" y="117.932809">0</text>
     </g>
    </g>
    <g id="xtick_4">
     <g id="line2d_7">
      <defs>
       <path d="M 0 0 
L 0 -2 
" id="m313c5f5546" style="stroke:#000000;stroke-width:0.5;"/>
      </defs>
      <g>
       <use style="stroke:#000000;stroke-width:0.5;" x="126.681818" xlink:href="#m313c5f5546" y="109.774997"/>
      </g>
     </g>
     <g id="line2d_8">
      <defs>
       <path d="M 0 0 
L 0 2 
" id="m5e33612efd" style="stroke:#000000;stroke-width:0.5;"/>
      </defs>
      <g>
       <use style="stroke:#000000;stroke-width:0.5;" x="126.681818" xlink:href="#m5e33612efd" y="1.054997"/>
      </g>
     </g>
    </g>
    <g id="xtick_5">
     <g id="line2d_9">
      <g>
       <use style="stroke:#000000;stroke-width:0.5;" x="116.536364" xlink:href="#m313c5f5546" y="109.774997"/>
      </g>
     </g>
     <g id="line2d_10">
      <g>
       <use style="stroke:#000000;stroke-width:0.5;" x="116.536364" xlink:href="#m5e33612efd" y="1.054997"/>
      </g>
     </g>
    </g>
    <g id="xtick_6">
     <g id="line2d_11">
      <g>
       <use style="stroke:#000000;stroke-width:0.5;" x="106.390909" xlink:href="#m313c5f5546" y="109.774997"/>
      </g>
     </g>
     <g id="line2d_12">
      <g>
       <use style="stroke:#000000;stroke-width:0.5;" x="106.390909" xlink:href="#m5e33612efd" y="1.054997"/>
      </g>
     </g>
    </g>
    <g id="xtick_7">
     <g id="line2d_13">
      <g>
       <use style="stroke:#000000;stroke-width:0.5;" x="96.245455" xlink:href="#m313c5f5546" y="109.774997"/>
      </g>
     </g>
     <g id="line2d_14">
      <g>
       <use style="stroke:#000000;stroke-width:0.5;" x="96.245455" xlink:href="#m5e33612efd" y="1.054997"/>
      </g>
     </g>
    </g>
    <g id="xtick_8">
     <g id="line2d_15">
      <g>
       <use style="stroke:#000000;stroke-width:0.5;" x="75.954545" xlink:href="#m313c5f5546" y="109.774997"/>
      </g>
     </g>
     <g id="line2d_16">
      <g>
       <use style="stroke:#000000;stroke-width:0.5;" x="75.954545" xlink:href="#m5e33612efd" y="1.054997"/>
      </g>
     </g>
    </g>
    <g id="xtick_9">
     <g id="line2d_17">
      <g>
       <use style="stroke:#000000;stroke-width:0.5;" x="65.809091" xlink:href="#m313c5f5546" y="109.774997"/>
      </g>
     </g>
     <g id="line2d_18">
      <g>
       <use style="stroke:#000000;stroke-width:0.5;" x="65.809091" xlink:href="#m5e33612efd" y="1.054997"/>
      </g>
     </g>
    </g>
    <g id="xtick_10">
     <g id="line2d_19">
      <g>
       <use style="stroke:#000000;stroke-width:0.5;" x="55.663636" xlink:href="#m313c5f5546" y="109.774997"/>
      </g>
     </g>
     <g id="line2d_20">
      <g>
       <use style="stroke:#000000;stroke-width:0.5;" x="55.663636" xlink:href="#m5e33612efd" y="1.054997"/>
      </g>
     </g>
    </g>
    <g id="xtick_11">
     <g id="line2d_21">
      <g>
       <use style="stroke:#000000;stroke-width:0.5;" x="45.518182" xlink:href="#m313c5f5546" y="109.774997"/>
      </g>
     </g>
     <g id="line2d_22">
      <g>
       <use style="stroke:#000000;stroke-width:0.5;" x="45.518182" xlink:href="#m5e33612efd" y="1.054997"/>
      </g>
     </g>
    </g>
    <g id="text_4">
     <!-- $\it{-V_{DS}}$ (V) -->
     <g transform="translate(65.35 127.220309)">
      <text>
       <tspan style="font-family:DejaVu Sans;font-size:10px;font-style:book;font-weight:book;" x="0" y="-0.703125">−</tspan>
       <tspan style="font-family:DejaVu Sans;font-size:10px;font-style:oblique;font-weight:oblique;" x="8.378906" y="-0.703125">V</tspan>
       <tspan style="font-family:DejaVu Sans;font-size:7px;font-style:oblique;font-weight:oblique;" x="15.219727 20.609863" y="0.9375">DS</tspan>
       <tspan style="font-family:Arial;font-size:10px;font-style:regular;font-weight:regular;" x="25.32666 28.10498 31.435059 38.10498" y="-0.703125"> (V)</tspan>
      </text>
     </g>
    </g>
   </g>
   <g id="matplotlib.axis_2">
    <g id="ytick_1">
     <g id="line2d_23">
      <defs>
       <path d="M 0 0 
L 3.5 0 
" id="m07324a019c" style="stroke:#000000;stroke-width:0.5;"/>
      </defs>
      <g>
       <use style="stroke:#000000;stroke-width:0.5;" x="30.3" xlink:href="#m07324a019c" y="83.811016"/>
      </g>
     </g>
     <g id="line2d_24">
      <defs>
       <path d="M 0 0 
L -3.5 0 
" id="m91546e9466" style="stroke:#000000;stroke-width:0.5;"/>
      </defs>
      <g>
       <use style="stroke:#000000;stroke-width:0.5;" x="141.9" xlink:href="#m91546e9466" y="83.811016"/>
      </g>
     </g>
     <g id="text_5">
      <!-- $\mathdefault{10^{-9}}$ -->
      <g transform="translate(9.5 88.967266)">
       <text>
        <tspan style="font-family:Arial;font-size:10px;font-style:regular;font-weight:regular;" x="0 5.561523" y="-0.9993750000000006">10</tspan>
        <tspan style="font-family:Arial;font-size:7px;font-style:regular;font-weight:regular;" x="11.297281 15.385172" y="-7.968749999999999">−9</tspan>
       </text>
      </g>
     </g>
    </g>
    <g id="ytick_2">
     <g id="line2d_25">
      <g>
       <use style="stroke:#000000;stroke-width:0.5;" x="30.3" xlink:href="#m07324a019c" y="57.592761"/>
      </g>
     </g>
     <g id="line2d_26">
      <g>
       <use style="stroke:#000000;stroke-width:0.5;" x="141.9" xlink:href="#m91546e9466" y="57.592761"/>
      </g>
     </g>
     <g id="text_6">
      <!-- $\mathdefault{10^{-8}}$ -->
      <g transform="translate(9.5 62.749011)">
       <text>
        <tspan style="font-family:Arial;font-size:10px;font-style:regular;font-weight:regular;" x="0 5.561523" y="-0.9993750000000006">10</tspan>
        <tspan style="font-family:Arial;font-size:7px;font-style:regular;font-weight:regular;" x="11.297281 15.385172" y="-7.968749999999999">−8</tspan>
       </text>
      </g>
     </g>
    </g>
    <g id="ytick_3">
     <g id="line2d_27">
      <g>
       <use style="stroke:#000000;stroke-width:0.5;" x="30.3" xlink:href="#m07324a019c" y="31.374505"/>
      </g>
     </g>
     <g id="line2d_28">
      <g>
       <use style="stroke:#000000;stroke-width:0.5;" x="141.9" xlink:href="#m91546e9466" y="31.374505"/>
      </g>
     </g>
     <g id="text_7">
      <!-- $\mathdefault{10^{-7}}$ -->
      <g transform="translate(9.5 36.480755)">
       <text>
        <tspan style="font-family:Arial;font-size:10px;font-style:regular;font-weight:regular;" x="0 5.561523" y="-0.0868750000000027">10</tspan>
        <tspan style="font-family:Arial;font-size:7px;font-style:regular;font-weight:regular;" x="11.297281 15.385172" y="-7.056250000000001">−7</tspan>
       </text>
      </g>
     </g>
    </g>
    <g id="ytick_4">
     <g id="line2d_29">
      <g>
       <use style="stroke:#000000;stroke-width:0.5;" x="30.3" xlink:href="#m07324a019c" y="5.15625"/>
      </g>
     </g>
     <g id="line2d_30">
      <g>
       <use style="stroke:#000000;stroke-width:0.5;" x="141.9" xlink:href="#m91546e9466" y="5.15625"/>
      </g>
     </g>
     <g id="text_8">
      <!-- $\mathdefault{10^{-6}}$ -->
      <g transform="translate(9.5 10.3125)">
       <text>
        <tspan style="font-family:Arial;font-size:10px;font-style:regular;font-weight:regular;" x="0 5.561523" y="-0.9993750000000006">10</tspan>
        <tspan style="font-family:Arial;font-size:7px;font-style:regular;font-weight:regular;" x="11.297281 15.385172" y="-7.968749999999999">−6</tspan>
       </text>
      </g>
     </g>
    </g>
    <g id="ytick_5">
     <g id="line2d_31">
      <defs>
       <path d="M 0 0 
L 2 0 
" id="m5ae0e15b26" style="stroke:#000000;stroke-width:0.5;"/>
      </defs>
      <g>
       <use style="stroke:#000000;stroke-width:0.5;" x="30.3" xlink:href="#m5ae0e15b26" y="102.13679"/>
      </g>
     </g>
     <g id="line2d_32">
      <defs>
       <path d="M 0 0 
L -2 0 
" id="m80024656aa" style="stroke:#000000;stroke-width:0.5;"/>
      </defs>
      <g>
       <use style="stroke:#000000;stroke-width:0.5;" x="141.9" xlink:href="#m80024656aa" y="102.13679"/>
      </g>
     </g>
    </g>
    <g id="ytick_6">
     <g id="line2d_33">
      <g>
       <use style="stroke:#000000;stroke-width:0.5;" x="30.3" xlink:href="#m5ae0e15b26" y="97.519985"/>
      </g>
     </g>
     <g id="line2d_34">
      <g>
       <use style="stroke:#000000;stroke-width:0.5;" x="141.9" xlink:href="#m80024656aa" y="97.519985"/>
      </g>
     </g>
    </g>
    <g id="ytick_7">
     <g id="line2d_35">
      <g>
       <use style="stroke:#000000;stroke-width:0.5;" x="30.3" xlink:href="#m5ae0e15b26" y="94.244309"/>
      </g>
     </g>
     <g id="line2d_36">
      <g>
       <use style="stroke:#000000;stroke-width:0.5;" x="141.9" xlink:href="#m80024656aa" y="94.244309"/>
      </g>
     </g>
    </g>
    <g id="ytick_8">
     <g id="line2d_37">
      <g>
       <use style="stroke:#000000;stroke-width:0.5;" x="30.3" xlink:href="#m5ae0e15b26" y="91.703498"/>
      </g>
     </g>
     <g id="line2d_38">
      <g>
       <use style="stroke:#000000;stroke-width:0.5;" x="141.9" xlink:href="#m80024656aa" y="91.703498"/>
      </g>
     </g>
    </g>
    <g id="ytick_9">
     <g id="line2d_39">
      <g>
       <use style="stroke:#000000;stroke-width:0.5;" x="30.3" xlink:href="#m5ae0e15b26" y="89.627504"/>
      </g>
     </g>
     <g id="line2d_40">
      <g>
       <use style="stroke:#000000;stroke-width:0.5;" x="141.9" xlink:href="#m80024656aa" y="89.627504"/>
      </g>
     </g>
    </g>
    <g id="ytick_10">
     <g id="line2d_41">
      <g>
       <use style="stroke:#000000;stroke-width:0.5;" x="30.3" xlink:href="#m5ae0e15b26" y="87.872275"/>
      </g>
     </g>
     <g id="line2d_42">
      <g>
       <use style="stroke:#000000;stroke-width:0.5;" x="141.9" xlink:href="#m80024656aa" y="87.872275"/>
      </g>
     </g>
    </g>
    <g id="ytick_11">
     <g id="line2d_43">
      <g>
       <use style="stroke:#000000;stroke-width:0.5;" x="30.3" xlink:href="#m5ae0e15b26" y="86.351828"/>
      </g>
     </g>
     <g id="line2d_44">
      <g>
       <use style="stroke:#000000;stroke-width:0.5;" x="141.9" xlink:href="#m80024656aa" y="86.351828"/>
      </g>
     </g>
    </g>
    <g id="ytick_12">
     <g id="line2d_45">
      <g>
       <use style="stroke:#000000;stroke-width:0.5;" x="30.3" xlink:href="#m5ae0e15b26" y="85.010698"/>
      </g>
     </g>
     <g id="line2d_46">
      <g>
       <use style="stroke:#000000;stroke-width:0.5;" x="141.9" xlink:href="#m80024656aa" y="85.010698"/>
      </g>
     </g>
    </g>
    <g id="ytick_13">
     <g id="line2d_47">
      <g>
       <use style="stroke:#000000;stroke-width:0.5;" x="30.3" xlink:href="#m5ae0e15b26" y="75.918535"/>
      </g>
     </g>
     <g id="line2d_48">
      <g>
       <use style="stroke:#000000;stroke-width:0.5;" x="141.9" xlink:href="#m80024656aa" y="75.918535"/>
      </g>
     </g>
    </g>
    <g id="ytick_14">
     <g id="line2d_49">
      <g>
       <use style="stroke:#000000;stroke-width:0.5;" x="30.3" xlink:href="#m5ae0e15b26" y="71.301729"/>
      </g>
     </g>
     <g id="line2d_50">
      <g>
       <use style="stroke:#000000;stroke-width:0.5;" x="141.9" xlink:href="#m80024656aa" y="71.301729"/>
      </g>
     </g>
    </g>
    <g id="ytick_15">
     <g id="line2d_51">
      <g>
       <use style="stroke:#000000;stroke-width:0.5;" x="30.3" xlink:href="#m5ae0e15b26" y="68.026054"/>
      </g>
     </g>
     <g id="line2d_52">
      <g>
       <use style="stroke:#000000;stroke-width:0.5;" x="141.9" xlink:href="#m80024656aa" y="68.026054"/>
      </g>
     </g>
    </g>
    <g id="ytick_16">
     <g id="line2d_53">
      <g>
       <use style="stroke:#000000;stroke-width:0.5;" x="30.3" xlink:href="#m5ae0e15b26" y="65.485242"/>
      </g>
     </g>
     <g id="line2d_54">
      <g>
       <use style="stroke:#000000;stroke-width:0.5;" x="141.9" xlink:href="#m80024656aa" y="65.485242"/>
      </g>
     </g>
    </g>
    <g id="ytick_17">
     <g id="line2d_55">
      <g>
       <use style="stroke:#000000;stroke-width:0.5;" x="30.3" xlink:href="#m5ae0e15b26" y="63.409248"/>
      </g>
     </g>
     <g id="line2d_56">
      <g>
       <use style="stroke:#000000;stroke-width:0.5;" x="141.9" xlink:href="#m80024656aa" y="63.409248"/>
      </g>
     </g>
    </g>
    <g id="ytick_18">
     <g id="line2d_57">
      <g>
       <use style="stroke:#000000;stroke-width:0.5;" x="30.3" xlink:href="#m5ae0e15b26" y="61.65402"/>
      </g>
     </g>
     <g id="line2d_58">
      <g>
       <use style="stroke:#000000;stroke-width:0.5;" x="141.9" xlink:href="#m80024656aa" y="61.65402"/>
      </g>
     </g>
    </g>
    <g id="ytick_19">
     <g id="line2d_59">
      <g>
       <use style="stroke:#000000;stroke-width:0.5;" x="30.3" xlink:href="#m5ae0e15b26" y="60.133572"/>
      </g>
     </g>
     <g id="line2d_60">
      <g>
       <use style="stroke:#000000;stroke-width:0.5;" x="141.9" xlink:href="#m80024656aa" y="60.133572"/>
      </g>
     </g>
    </g>
    <g id="ytick_20">
     <g id="line2d_61">
      <g>
       <use style="stroke:#000000;stroke-width:0.5;" x="30.3" xlink:href="#m5ae0e15b26" y="58.792442"/>
      </g>
     </g>
     <g id="line2d_62">
      <g>
       <use style="stroke:#000000;stroke-width:0.5;" x="141.9" xlink:href="#m80024656aa" y="58.792442"/>
      </g>
     </g>
    </g>
    <g id="ytick_21">
     <g id="line2d_63">
      <g>
       <use style="stroke:#000000;stroke-width:0.5;" x="30.3" xlink:href="#m5ae0e15b26" y="49.70028"/>
      </g>
     </g>
     <g id="line2d_64">
      <g>
       <use style="stroke:#000000;stroke-width:0.5;" x="141.9" xlink:href="#m80024656aa" y="49.70028"/>
      </g>
     </g>
    </g>
    <g id="ytick_22">
     <g id="line2d_65">
      <g>
       <use style="stroke:#000000;stroke-width:0.5;" x="30.3" xlink:href="#m5ae0e15b26" y="45.083474"/>
      </g>
     </g>
     <g id="line2d_66">
      <g>
       <use style="stroke:#000000;stroke-width:0.5;" x="141.9" xlink:href="#m80024656aa" y="45.083474"/>
      </g>
     </g>
    </g>
    <g id="ytick_23">
     <g id="line2d_67">
      <g>
       <use style="stroke:#000000;stroke-width:0.5;" x="30.3" xlink:href="#m5ae0e15b26" y="41.807798"/>
      </g>
     </g>
     <g id="line2d_68">
      <g>
       <use style="stroke:#000000;stroke-width:0.5;" x="141.9" xlink:href="#m80024656aa" y="41.807798"/>
      </g>
     </g>
    </g>
    <g id="ytick_24">
     <g id="line2d_69">
      <g>
       <use style="stroke:#000000;stroke-width:0.5;" x="30.3" xlink:href="#m5ae0e15b26" y="39.266987"/>
      </g>
     </g>
     <g id="line2d_70">
      <g>
       <use style="stroke:#000000;stroke-width:0.5;" x="141.9" xlink:href="#m80024656aa" y="39.266987"/>
      </g>
     </g>
    </g>
    <g id="ytick_25">
     <g id="line2d_71">
      <g>
       <use style="stroke:#000000;stroke-width:0.5;" x="30.3" xlink:href="#m5ae0e15b26" y="37.190993"/>
      </g>
     </g>
     <g id="line2d_72">
      <g>
       <use style="stroke:#000000;stroke-width:0.5;" x="141.9" xlink:href="#m80024656aa" y="37.190993"/>
      </g>
     </g>
    </g>
    <g id="ytick_26">
     <g id="line2d_73">
      <g>
       <use style="stroke:#000000;stroke-width:0.5;" x="30.3" xlink:href="#m5ae0e15b26" y="35.435765"/>
      </g>
     </g>
     <g id="line2d_74">
      <g>
       <use style="stroke:#000000;stroke-width:0.5;" x="141.9" xlink:href="#m80024656aa" y="35.435765"/>
      </g>
     </g>
    </g>
    <g id="ytick_27">
     <g id="line2d_75">
      <g>
       <use style="stroke:#000000;stroke-width:0.5;" x="30.3" xlink:href="#m5ae0e15b26" y="33.915317"/>
      </g>
     </g>
     <g id="line2d_76">
      <g>
       <use style="stroke:#000000;stroke-width:0.5;" x="141.9" xlink:href="#m80024656aa" y="33.915317"/>
      </g>
     </g>
    </g>
    <g id="ytick_28">
     <g id="line2d_77">
      <g>
       <use style="stroke:#000000;stroke-width:0.5;" x="30.3" xlink:href="#m5ae0e15b26" y="32.574187"/>
      </g>
     </g>
     <g id="line2d_78">
      <g>
       <use style="stroke:#000000;stroke-width:0.5;" x="141.9" xlink:href="#m80024656aa" y="32.574187"/>
      </g>
     </g>
    </g>
    <g id="ytick_29">
     <g id="line2d_79">
      <g>
       <use style="stroke:#000000;stroke-width:0.5;" x="30.3" xlink:href="#m5ae0e15b26" y="23.482024"/>
      </g>
     </g>
     <g id="line2d_80">
      <g>
       <use style="stroke:#000000;stroke-width:0.5;" x="141.9" xlink:href="#m80024656aa" y="23.482024"/>
      </g>
     </g>
    </g>
    <g id="ytick_30">
     <g id="line2d_81">
      <g>
       <use style="stroke:#000000;stroke-width:0.5;" x="30.3" xlink:href="#m5ae0e15b26" y="18.865219"/>
      </g>
     </g>
     <g id="line2d_82">
      <g>
       <use style="stroke:#000000;stroke-width:0.5;" x="141.9" xlink:href="#m80024656aa" y="18.865219"/>
      </g>
     </g>
    </g>
    <g id="ytick_31">
     <g id="line2d_83">
      <g>
       <use style="stroke:#000000;stroke-width:0.5;" x="30.3" xlink:href="#m5ae0e15b26" y="15.589543"/>
      </g>
     </g>
     <g id="line2d_84">
      <g>
       <use style="stroke:#000000;stroke-width:0.5;" x="141.9" xlink:href="#m80024656aa" y="15.589543"/>
      </g>
     </g>
    </g>
    <g id="ytick_32">
     <g id="line2d_85">
      <g>
       <use style="stroke:#000000;stroke-width:0.5;" x="30.3" xlink:href="#m5ae0e15b26" y="13.048731"/>
      </g>
     </g>
     <g id="line2d_86">
      <g>
       <use style="stroke:#000000;stroke-width:0.5;" x="141.9" xlink:href="#m80024656aa" y="13.048731"/>
      </g>
     </g>
    </g>
    <g id="ytick_33">
     <g id="line2d_87">
      <g>
       <use style="stroke:#000000;stroke-width:0.5;" x="30.3" xlink:href="#m5ae0e15b26" y="10.972737"/>
      </g>
     </g>
     <g id="line2d_88">
      <g>
       <use style="stroke:#000000;stroke-width:0.5;" x="141.9" xlink:href="#m80024656aa" y="10.972737"/>
      </g>
     </g>
    </g>
    <g id="ytick_34">
     <g id="line2d_89">
      <g>
       <use style="stroke:#000000;stroke-width:0.5;" x="30.3" xlink:href="#m5ae0e15b26" y="9.217509"/>
      </g>
     </g>
     <g id="line2d_90">
      <g>
       <use style="stroke:#000000;stroke-width:0.5;" x="141.9" xlink:href="#m80024656aa" y="9.217509"/>
      </g>
     </g>
    </g>
    <g id="ytick_35">
     <g id="line2d_91">
      <g>
       <use style="stroke:#000000;stroke-width:0.5;" x="30.3" xlink:href="#m5ae0e15b26" y="7.697061"/>
      </g>
     </g>
     <g id="line2d_92">
      <g>
       <use style="stroke:#000000;stroke-width:0.5;" x="141.9" xlink:href="#m80024656aa" y="7.697061"/>
      </g>
     </g>
    </g>
    <g id="ytick_36">
     <g id="line2d_93">
      <g>
       <use style="stroke:#000000;stroke-width:0.5;" x="30.3" xlink:href="#m5ae0e15b26" y="6.355932"/>
      </g>
     </g>
     <g id="line2d_94">
      <g>
       <use style="stroke:#000000;stroke-width:0.5;" x="141.9" xlink:href="#m80024656aa" y="6.355932"/>
      </g>
     </g>
    </g>
    <g id="text_9">
     <!-- $\it{-I_{D}}$ (A) -->
     <g transform="translate(7.3 72.014997)rotate(-90)">
      <text>
       <tspan style="font-family:DejaVu Sans;font-size:10px;font-style:book;font-weight:book;" x="0" y="-0.703125">−</tspan>
       <tspan style="font-family:DejaVu Sans;font-size:10px;font-style:oblique;font-weight:oblique;" x="8.378906" y="-0.703125">I</tspan>
       <tspan style="font-family:DejaVu Sans;font-size:7px;font-style:oblique;font-weight:oblique;" x="11.328125" y="0.9375">D</tspan>
       <tspan style="font-family:Arial;font-size:10px;font-style:regular;font-weight:regular;" x="16.991699 19.77002 23.100098 29.77002" y="-0.703125"> (A)</tspan>
      </text>
     </g>
    </g>
   </g>
   <g id="line2d_95">
    <path clip-path="url(#p58697138bf)" d="M 35.372727 104.833178 
L 40.445455 38.997669 
L 45.518182 31.420638 
L 50.590909 27.475756 
L 55.663636 24.872839 
L 60.736364 22.467366 
L 65.809091 20.298386 
L 70.881818 18.536218 
L 75.954545 16.877392 
L 81.027273 15.635884 
L 86.1 14.282994 
L 91.172727 13.108755 
L 96.245455 12.082855 
L 101.318182 10.994249 
L 106.390909 10.057375 
L 111.463636 9.219702 
L 116.536364 8.370598 
L 121.609091 7.875602 
L 126.681818 7.102889 
L 131.754545 6.477649 
L 136.827273 5.996815 
" style="fill:none;stroke:#377eb8;stroke-linecap:square;stroke-width:1.5;"/>
    <defs>
     <path d="M 0 0.5 
C 0.132602 0.5 0.25979 0.447317 0.353553 0.353553 
C 0.447317 0.25979 0.5 0.132602 0.5 0 
C 0.5 -0.132602 0.447317 -0.25979 0.353553 -0.353553 
C 0.25979 -0.447317 0.132602 -0.5 0 -0.5 
C -0.132602 -0.5 -0.25979 -0.447317 -0.353553 -0.353553 
C -0.447317 -0.25979 -0.5 -0.132602 -0.5 0 
C -0.5 0.132602 -0.447317 0.25979 -0.353553 0.353553 
C -0.25979 0.447317 -0.132602 0.5 0 0.5 
z
" id="m3a44920212" style="stroke:#377eb8;"/>
    </defs>
    <g clip-path="url(#p58697138bf)">
     <use style="fill:#377eb8;stroke:#377eb8;" x="35.372727" xlink:href="#m3a44920212" y="104.833178"/>
     <use style="fill:#377eb8;stroke:#377eb8;" x="40.445455" xlink:href="#m3a44920212" y="38.997669"/>
     <use style="fill:#377eb8;stroke:#377eb8;" x="45.518182" xlink:href="#m3a44920212" y="31.420638"/>
     <use style="fill:#377eb8;stroke:#377eb8;" x="50.590909" xlink:href="#m3a44920212" y="27.475756"/>
     <use style="fill:#377eb8;stroke:#377eb8;" x="55.663636" xlink:href="#m3a44920212" y="24.872839"/>
     <use style="fill:#377eb8;stroke:#377eb8;" x="60.736364" xlink:href="#m3a44920212" y="22.467366"/>
     <use style="fill:#377eb8;stroke:#377eb8;" x="65.809091" xlink:href="#m3a44920212" y="20.298386"/>
     <use style="fill:#377eb8;stroke:#377eb8;" x="70.881818" xlink:href="#m3a44920212" y="18.536218"/>
     <use style="fill:#377eb8;stroke:#377eb8;" x="75.954545" xlink:href="#m3a44920212" y="16.877392"/>
     <use style="fill:#377eb8;stroke:#377eb8;" x="81.027273" xlink:href="#m3a44920212" y="15.635884"/>
     <use style="fill:#377eb8;stroke:#377eb8;" x="86.1" xlink:href="#m3a44920212" y="14.282994"/>
     <use style="fill:#377eb8;stroke:#377eb8;" x="91.172727" xlink:href="#m3a44920212" y="13.108755"/>
     <use style="fill:#377eb8;stroke:#377eb8;" x="96.245455" xlink:href="#m3a44920212" y="12.082855"/>
     <use style="fill:#377eb8;stroke:#377eb8;" x="101.318182" xlink:href="#m3a44920212" y="10.994249"/>
     <use style="fill:#377eb8;stroke:#377eb8;" x="106.390909" xlink:href="#m3a44920212" y="10.057375"/>
     <use style="fill:#377eb8;stroke:#377eb8;" x="111.463636" xlink:href="#m3a44920212" y="9.219702"/>
     <use style="fill:#377eb8;stroke:#377eb8;" x="116.536364" xlink:href="#m3a44920212" y="8.370598"/>
     <use style="fill:#377eb8;stroke:#377eb8;" x="121.609091" xlink:href="#m3a44920212" y="7.875602"/>
     <use style="fill:#377eb8;stroke:#377eb8;" x="126.681818" xlink:href="#m3a44920212" y="7.102889"/>
     <use style="fill:#377eb8;stroke:#377eb8;" x="131.754545" xlink:href="#m3a44920212" y="6.477649"/>
     <use style="fill:#377eb8;stroke:#377eb8;" x="136.827273" xlink:href="#m3a44920212" y="5.996815"/>
    </g>
   </g>
   <g id="line2d_96">
    <path clip-path="url(#p58697138bf)" d="M 35.372727 84.645272 
L 40.445455 50.234782 
L 45.518182 42.895707 
L 50.590909 39.468635 
L 55.663636 36.969942 
L 60.736364 33.679749 
L 65.809091 31.044943 
L 70.881818 29.077466 
L 75.954545 26.96664 
L 81.027273 25.331707 
L 86.1 23.700162 
L 91.172727 22.298601 
L 96.245455 21.08044 
L 101.318182 19.819485 
L 106.390909 18.630884 
L 111.463636 17.356193 
L 116.536364 16.554726 
L 121.609091 15.345752 
L 126.681818 14.327663 
L 131.754545 13.439989 
L 136.827273 12.708278 
" style="fill:none;stroke:#999999;stroke-linecap:square;stroke-width:1.5;"/>
    <defs>
     <path d="M 0 0.5 
C 0.132602 0.5 0.25979 0.447317 0.353553 0.353553 
C 0.447317 0.25979 0.5 0.132602 0.5 0 
C 0.5 -0.132602 0.447317 -0.25979 0.353553 -0.353553 
C 0.25979 -0.447317 0.132602 -0.5 0 -0.5 
C -0.132602 -0.5 -0.25979 -0.447317 -0.353553 -0.353553 
C -0.447317 -0.25979 -0.5 -0.132602 -0.5 0 
C -0.5 0.132602 -0.447317 0.25979 -0.353553 0.353553 
C -0.25979 0.447317 -0.132602 0.5 0 0.5 
z
" id="mc4f18dfd1e" style="stroke:#999999;"/>
    </defs>
    <g clip-path="url(#p58697138bf)">
     <use style="fill:#999999;stroke:#999999;" x="35.372727" xlink:href="#mc4f18dfd1e" y="84.645272"/>
     <use style="fill:#999999;stroke:#999999;" x="40.445455" xlink:href="#mc4f18dfd1e" y="50.234782"/>
     <use style="fill:#999999;stroke:#999999;" x="45.518182" xlink:href="#mc4f18dfd1e" y="42.895707"/>
     <use style="fill:#999999;stroke:#999999;" x="50.590909" xlink:href="#mc4f18dfd1e" y="39.468635"/>
     <use style="fill:#999999;stroke:#999999;" x="55.663636" xlink:href="#mc4f18dfd1e" y="36.969942"/>
     <use style="fill:#999999;stroke:#999999;" x="60.736364" xlink:href="#mc4f18dfd1e" y="33.679749"/>
     <use style="fill:#999999;stroke:#999999;" x="65.809091" xlink:href="#mc4f18dfd1e" y="31.044943"/>
     <use style="fill:#999999;stroke:#999999;" x="70.881818" xlink:href="#mc4f18dfd1e" y="29.077466"/>
     <use style="fill:#999999;stroke:#999999;" x="75.954545" xlink:href="#mc4f18dfd1e" y="26.96664"/>
     <use style="fill:#999999;stroke:#999999;" x="81.027273" xlink:href="#mc4f18dfd1e" y="25.331707"/>
     <use style="fill:#999999;stroke:#999999;" x="86.1" xlink:href="#mc4f18dfd1e" y="23.700162"/>
     <use style="fill:#999999;stroke:#999999;" x="91.172727" xlink:href="#mc4f18dfd1e" y="22.298601"/>
     <use style="fill:#999999;stroke:#999999;" x="96.245455" xlink:href="#mc4f18dfd1e" y="21.08044"/>
     <use style="fill:#999999;stroke:#999999;" x="101.318182" xlink:href="#mc4f18dfd1e" y="19.819485"/>
     <use style="fill:#999999;stroke:#999999;" x="106.390909" xlink:href="#mc4f18dfd1e" y="18.630884"/>
     <use style="fill:#999999;stroke:#999999;" x="111.463636" xlink:href="#mc4f18dfd1e" y="17.356193"/>
     <use style="fill:#999999;stroke:#999999;" x="116.536364" xlink:href="#mc4f18dfd1e" y="16.554726"/>
     <use style="fill:#999999;stroke:#999999;" x="121.609091" xlink:href="#mc4f18dfd1e" y="15.345752"/>
     <use style="fill:#999999;stroke:#999999;" x="126.681818" xlink:href="#mc4f18dfd1e" y="14.327663"/>
     <use style="fill:#999999;stroke:#999999;" x="131.754545" xlink:href="#mc4f18dfd1e" y="13.439989"/>
     <use style="fill:#999999;stroke:#999999;" x="136.827273" xlink:href="#mc4f18dfd1e" y="12.708278"/>
    </g>
   </g>
   <g id="line2d_97">
    <path clip-path="url(#p58697138bf)" d="M 35.372727 82.810206 
L 40.445455 55.977018 
L 45.518182 48.983404 
L 50.590909 46.040937 
L 55.663636 42.98161 
L 60.736364 39.711822 
L 65.809091 36.930502 
L 70.881818 34.188273 
L 75.954545 32.041299 
L 81.027273 29.561931 
L 86.1 27.967204 
L 91.172727 26.706374 
L 96.245455 25.334359 
L 101.318182 24.003104 
L 106.390909 22.745296 
L 111.463636 21.529053 
L 116.536364 20.562189 
L 121.609091 19.594969 
L 126.681818 18.584963 
L 131.754545 17.648347 
L 136.827273 16.627695 
" style="fill:none;stroke:#4daf4a;stroke-linecap:square;stroke-width:1.5;"/>
    <defs>
     <path d="M 0 0.5 
C 0.132602 0.5 0.25979 0.447317 0.353553 0.353553 
C 0.447317 0.25979 0.5 0.132602 0.5 0 
C 0.5 -0.132602 0.447317 -0.25979 0.353553 -0.353553 
C 0.25979 -0.447317 0.132602 -0.5 0 -0.5 
C -0.132602 -0.5 -0.25979 -0.447317 -0.353553 -0.353553 
C -0.447317 -0.25979 -0.5 -0.132602 -0.5 0 
C -0.5 0.132602 -0.447317 0.25979 -0.353553 0.353553 
C -0.25979 0.447317 -0.132602 0.5 0 0.5 
z
" id="m2f6f48e58b" style="stroke:#4daf4a;"/>
    </defs>
    <g clip-path="url(#p58697138bf)">
     <use style="fill:#4daf4a;stroke:#4daf4a;" x="35.372727" xlink:href="#m2f6f48e58b" y="82.810206"/>
     <use style="fill:#4daf4a;stroke:#4daf4a;" x="40.445455" xlink:href="#m2f6f48e58b" y="55.977018"/>
     <use style="fill:#4daf4a;stroke:#4daf4a;" x="45.518182" xlink:href="#m2f6f48e58b" y="48.983404"/>
     <use style="fill:#4daf4a;stroke:#4daf4a;" x="50.590909" xlink:href="#m2f6f48e58b" y="46.040937"/>
     <use style="fill:#4daf4a;stroke:#4daf4a;" x="55.663636" xlink:href="#m2f6f48e58b" y="42.98161"/>
     <use style="fill:#4daf4a;stroke:#4daf4a;" x="60.736364" xlink:href="#m2f6f48e58b" y="39.711822"/>
     <use style="fill:#4daf4a;stroke:#4daf4a;" x="65.809091" xlink:href="#m2f6f48e58b" y="36.930502"/>
     <use style="fill:#4daf4a;stroke:#4daf4a;" x="70.881818" xlink:href="#m2f6f48e58b" y="34.188273"/>
     <use style="fill:#4daf4a;stroke:#4daf4a;" x="75.954545" xlink:href="#m2f6f48e58b" y="32.041299"/>
     <use style="fill:#4daf4a;stroke:#4daf4a;" x="81.027273" xlink:href="#m2f6f48e58b" y="29.561931"/>
     <use style="fill:#4daf4a;stroke:#4daf4a;" x="86.1" xlink:href="#m2f6f48e58b" y="27.967204"/>
     <use style="fill:#4daf4a;stroke:#4daf4a;" x="91.172727" xlink:href="#m2f6f48e58b" y="26.706374"/>
     <use style="fill:#4daf4a;stroke:#4daf4a;" x="96.245455" xlink:href="#m2f6f48e58b" y="25.334359"/>
     <use style="fill:#4daf4a;stroke:#4daf4a;" x="101.318182" xlink:href="#m2f6f48e58b" y="24.003104"/>
     <use style="fill:#4daf4a;stroke:#4daf4a;" x="106.390909" xlink:href="#m2f6f48e58b" y="22.745296"/>
     <use style="fill:#4daf4a;stroke:#4daf4a;" x="111.463636" xlink:href="#m2f6f48e58b" y="21.529053"/>
     <use style="fill:#4daf4a;stroke:#4daf4a;" x="116.536364" xlink:href="#m2f6f48e58b" y="20.562189"/>
     <use style="fill:#4daf4a;stroke:#4daf4a;" x="121.609091" xlink:href="#m2f6f48e58b" y="19.594969"/>
     <use style="fill:#4daf4a;stroke:#4daf4a;" x="126.681818" xlink:href="#m2f6f48e58b" y="18.584963"/>
     <use style="fill:#4daf4a;stroke:#4daf4a;" x="131.754545" xlink:href="#m2f6f48e58b" y="17.648347"/>
     <use style="fill:#4daf4a;stroke:#4daf4a;" x="136.827273" xlink:href="#m2f6f48e58b" y="16.627695"/>
    </g>
   </g>
   <g id="line2d_98">
    <path clip-path="url(#p58697138bf)" d="M 35.372727 81.430475 
L 40.445455 60.269017 
L 45.518182 53.280774 
L 50.590909 49.95875 
L 55.663636 47.402078 
L 60.736364 44.205845 
L 65.809091 41.250399 
L 70.881818 38.293331 
L 75.954545 35.787325 
L 81.027273 33.583194 
L 86.1 31.765028 
L 91.172727 29.795261 
L 96.245455 28.77011 
L 101.318182 27.635672 
L 106.390909 26.358339 
L 111.463636 25.133181 
L 116.536364 24.129546 
L 121.609091 23.174938 
L 126.681818 22.268416 
L 131.754545 21.34259 
L 136.827273 20.613317 
" style="fill:none;stroke:#a65628;stroke-linecap:square;stroke-width:1.5;"/>
    <defs>
     <path d="M 0 0.5 
C 0.132602 0.5 0.25979 0.447317 0.353553 0.353553 
C 0.447317 0.25979 0.5 0.132602 0.5 0 
C 0.5 -0.132602 0.447317 -0.25979 0.353553 -0.353553 
C 0.25979 -0.447317 0.132602 -0.5 0 -0.5 
C -0.132602 -0.5 -0.25979 -0.447317 -0.353553 -0.353553 
C -0.447317 -0.25979 -0.5 -0.132602 -0.5 0 
C -0.5 0.132602 -0.447317 0.25979 -0.353553 0.353553 
C -0.25979 0.447317 -0.132602 0.5 0 0.5 
z
" id="mcf11be9cec" style="stroke:#a65628;"/>
    </defs>
    <g clip-path="url(#p58697138bf)">
     <use style="fill:#a65628;stroke:#a65628;" x="35.372727" xlink:href="#mcf11be9cec" y="81.430475"/>
     <use style="fill:#a65628;stroke:#a65628;" x="40.445455" xlink:href="#mcf11be9cec" y="60.269017"/>
     <use style="fill:#a65628;stroke:#a65628;" x="45.518182" xlink:href="#mcf11be9cec" y="53.280774"/>
     <use style="fill:#a65628;stroke:#a65628;" x="50.590909" xlink:href="#mcf11be9cec" y="49.95875"/>
     <use style="fill:#a65628;stroke:#a65628;" x="55.663636" xlink:href="#mcf11be9cec" y="47.402078"/>
     <use style="fill:#a65628;stroke:#a65628;" x="60.736364" xlink:href="#mcf11be9cec" y="44.205845"/>
     <use style="fill:#a65628;stroke:#a65628;" x="65.809091" xlink:href="#mcf11be9cec" y="41.250399"/>
     <use style="fill:#a65628;stroke:#a65628;" x="70.881818" xlink:href="#mcf11be9cec" y="38.293331"/>
     <use style="fill:#a65628;stroke:#a65628;" x="75.954545" xlink:href="#mcf11be9cec" y="35.787325"/>
     <use style="fill:#a65628;stroke:#a65628;" x="81.027273" xlink:href="#mcf11be9cec" y="33.583194"/>
     <use style="fill:#a65628;stroke:#a65628;" x="86.1" xlink:href="#mcf11be9cec" y="31.765028"/>
     <use style="fill:#a65628;stroke:#a65628;" x="91.172727" xlink:href="#mcf11be9cec" y="29.795261"/>
     <use style="fill:#a65628;stroke:#a65628;" x="96.245455" xlink:href="#mcf11be9cec" y="28.77011"/>
     <use style="fill:#a65628;stroke:#a65628;" x="101.318182" xlink:href="#mcf11be9cec" y="27.635672"/>
     <use style="fill:#a65628;stroke:#a65628;" x="106.390909" xlink:href="#mcf11be9cec" y="26.358339"/>
     <use style="fill:#a65628;stroke:#a65628;" x="111.463636" xlink:href="#mcf11be9cec" y="25.133181"/>
     <use style="fill:#a65628;stroke:#a65628;" x="116.536364" xlink:href="#mcf11be9cec" y="24.129546"/>
     <use style="fill:#a65628;stroke:#a65628;" x="121.609091" xlink:href="#mcf11be9cec" y="23.174938"/>
     <use style="fill:#a65628;stroke:#a65628;" x="126.681818" xlink:href="#mcf11be9cec" y="22.268416"/>
     <use style="fill:#a65628;stroke:#a65628;" x="131.754545" xlink:href="#mcf11be9cec" y="21.34259"/>
     <use style="fill:#a65628;stroke:#a65628;" x="136.827273" xlink:href="#mcf11be9cec" y="20.613317"/>
    </g>
   </g>
   <g id="line2d_99">
    <path clip-path="url(#p58697138bf)" d="M 35.372727 84.484462 
L 40.445455 62.950403 
L 45.518182 55.461174 
L 50.590909 52.726941 
L 55.663636 49.778489 
L 60.736364 47.361163 
L 65.809091 44.548675 
L 70.881818 41.257963 
L 75.954545 38.708866 
L 81.027273 36.439746 
L 86.1 34.737827 
L 91.172727 33.209974 
L 96.245455 31.906206 
L 101.318182 30.589632 
L 106.390909 29.618621 
L 111.463636 28.598226 
L 116.536364 27.838016 
L 121.609091 27.083628 
L 126.681818 26.322488 
L 131.754545 25.492527 
L 136.827273 24.866032 
" style="fill:none;stroke:#984ea3;stroke-linecap:square;stroke-width:1.5;"/>
    <defs>
     <path d="M 0 0.5 
C 0.132602 0.5 0.25979 0.447317 0.353553 0.353553 
C 0.447317 0.25979 0.5 0.132602 0.5 0 
C 0.5 -0.132602 0.447317 -0.25979 0.353553 -0.353553 
C 0.25979 -0.447317 0.132602 -0.5 0 -0.5 
C -0.132602 -0.5 -0.25979 -0.447317 -0.353553 -0.353553 
C -0.447317 -0.25979 -0.5 -0.132602 -0.5 0 
C -0.5 0.132602 -0.447317 0.25979 -0.353553 0.353553 
C -0.25979 0.447317 -0.132602 0.5 0 0.5 
z
" id="mc0bbeb0421" style="stroke:#984ea3;"/>
    </defs>
    <g clip-path="url(#p58697138bf)">
     <use style="fill:#984ea3;stroke:#984ea3;" x="35.372727" xlink:href="#mc0bbeb0421" y="84.484462"/>
     <use style="fill:#984ea3;stroke:#984ea3;" x="40.445455" xlink:href="#mc0bbeb0421" y="62.950403"/>
     <use style="fill:#984ea3;stroke:#984ea3;" x="45.518182" xlink:href="#mc0bbeb0421" y="55.461174"/>
     <use style="fill:#984ea3;stroke:#984ea3;" x="50.590909" xlink:href="#mc0bbeb0421" y="52.726941"/>
     <use style="fill:#984ea3;stroke:#984ea3;" x="55.663636" xlink:href="#mc0bbeb0421" y="49.778489"/>
     <use style="fill:#984ea3;stroke:#984ea3;" x="60.736364" xlink:href="#mc0bbeb0421" y="47.361163"/>
     <use style="fill:#984ea3;stroke:#984ea3;" x="65.809091" xlink:href="#mc0bbeb0421" y="44.548675"/>
     <use style="fill:#984ea3;stroke:#984ea3;" x="70.881818" xlink:href="#mc0bbeb0421" y="41.257963"/>
     <use style="fill:#984ea3;stroke:#984ea3;" x="75.954545" xlink:href="#mc0bbeb0421" y="38.708866"/>
     <use style="fill:#984ea3;stroke:#984ea3;" x="81.027273" xlink:href="#mc0bbeb0421" y="36.439746"/>
     <use style="fill:#984ea3;stroke:#984ea3;" x="86.1" xlink:href="#mc0bbeb0421" y="34.737827"/>
     <use style="fill:#984ea3;stroke:#984ea3;" x="91.172727" xlink:href="#mc0bbeb0421" y="33.209974"/>
     <use style="fill:#984ea3;stroke:#984ea3;" x="96.245455" xlink:href="#mc0bbeb0421" y="31.906206"/>
     <use style="fill:#984ea3;stroke:#984ea3;" x="101.318182" xlink:href="#mc0bbeb0421" y="30.589632"/>
     <use style="fill:#984ea3;stroke:#984ea3;" x="106.390909" xlink:href="#mc0bbeb0421" y="29.618621"/>
     <use style="fill:#984ea3;stroke:#984ea3;" x="111.463636" xlink:href="#mc0bbeb0421" y="28.598226"/>
     <use style="fill:#984ea3;stroke:#984ea3;" x="116.536364" xlink:href="#mc0bbeb0421" y="27.838016"/>
     <use style="fill:#984ea3;stroke:#984ea3;" x="121.609091" xlink:href="#mc0bbeb0421" y="27.083628"/>
     <use style="fill:#984ea3;stroke:#984ea3;" x="126.681818" xlink:href="#mc0bbeb0421" y="26.322488"/>
     <use style="fill:#984ea3;stroke:#984ea3;" x="131.754545" xlink:href="#mc0bbeb0421" y="25.492527"/>
     <use style="fill:#984ea3;stroke:#984ea3;" x="136.827273" xlink:href="#mc0bbeb0421" y="24.866032"/>
    </g>
   </g>
   <g id="line2d_100">
    <path clip-path="url(#p58697138bf)" d="M 35.372727 88.957224 
L 40.445455 65.731427 
L 45.518182 57.768754 
L 50.590909 53.811659 
L 55.663636 51.531085 
L 60.736364 49.0674 
L 65.809091 46.498847 
L 70.881818 43.768583 
L 75.954545 40.8282 
L 81.027273 38.774167 
L 86.1 37.105746 
L 91.172727 35.559089 
L 96.245455 34.313792 
L 101.318182 33.194185 
L 106.390909 32.22394 
L 111.463636 30.942341 
L 116.536364 30.251432 
L 121.609091 29.560233 
L 126.681818 28.786603 
L 131.754545 28.10555 
L 136.827273 27.327883 
" style="fill:none;stroke:#ff7f00;stroke-linecap:square;stroke-width:1.5;"/>
    <defs>
     <path d="M 0 0.5 
C 0.132602 0.5 0.25979 0.447317 0.353553 0.353553 
C 0.447317 0.25979 0.5 0.132602 0.5 0 
C 0.5 -0.132602 0.447317 -0.25979 0.353553 -0.353553 
C 0.25979 -0.447317 0.132602 -0.5 0 -0.5 
C -0.132602 -0.5 -0.25979 -0.447317 -0.353553 -0.353553 
C -0.447317 -0.25979 -0.5 -0.132602 -0.5 0 
C -0.5 0.132602 -0.447317 0.25979 -0.353553 0.353553 
C -0.25979 0.447317 -0.132602 0.5 0 0.5 
z
" id="m432cb15604" style="stroke:#ff7f00;"/>
    </defs>
    <g clip-path="url(#p58697138bf)">
     <use style="fill:#ff7f00;stroke:#ff7f00;" x="35.372727" xlink:href="#m432cb15604" y="88.957224"/>
     <use style="fill:#ff7f00;stroke:#ff7f00;" x="40.445455" xlink:href="#m432cb15604" y="65.731427"/>
     <use style="fill:#ff7f00;stroke:#ff7f00;" x="45.518182" xlink:href="#m432cb15604" y="57.768754"/>
     <use style="fill:#ff7f00;stroke:#ff7f00;" x="50.590909" xlink:href="#m432cb15604" y="53.811659"/>
     <use style="fill:#ff7f00;stroke:#ff7f00;" x="55.663636" xlink:href="#m432cb15604" y="51.531085"/>
     <use style="fill:#ff7f00;stroke:#ff7f00;" x="60.736364" xlink:href="#m432cb15604" y="49.0674"/>
     <use style="fill:#ff7f00;stroke:#ff7f00;" x="65.809091" xlink:href="#m432cb15604" y="46.498847"/>
     <use style="fill:#ff7f00;stroke:#ff7f00;" x="70.881818" xlink:href="#m432cb15604" y="43.768583"/>
     <use style="fill:#ff7f00;stroke:#ff7f00;" x="75.954545" xlink:href="#m432cb15604" y="40.8282"/>
     <use style="fill:#ff7f00;stroke:#ff7f00;" x="81.027273" xlink:href="#m432cb15604" y="38.774167"/>
     <use style="fill:#ff7f00;stroke:#ff7f00;" x="86.1" xlink:href="#m432cb15604" y="37.105746"/>
     <use style="fill:#ff7f00;stroke:#ff7f00;" x="91.172727" xlink:href="#m432cb15604" y="35.559089"/>
     <use style="fill:#ff7f00;stroke:#ff7f00;" x="96.245455" xlink:href="#m432cb15604" y="34.313792"/>
     <use style="fill:#ff7f00;stroke:#ff7f00;" x="101.318182" xlink:href="#m432cb15604" y="33.194185"/>
     <use style="fill:#ff7f00;stroke:#ff7f00;" x="106.390909" xlink:href="#m432cb15604" y="32.22394"/>
     <use style="fill:#ff7f00;stroke:#ff7f00;" x="111.463636" xlink:href="#m432cb15604" y="30.942341"/>
     <use style="fill:#ff7f00;stroke:#ff7f00;" x="116.536364" xlink:href="#m432cb15604" y="30.251432"/>
     <use style="fill:#ff7f00;stroke:#ff7f00;" x="121.609091" xlink:href="#m432cb15604" y="29.560233"/>
     <use style="fill:#ff7f00;stroke:#ff7f00;" x="126.681818" xlink:href="#m432cb15604" y="28.786603"/>
     <use style="fill:#ff7f00;stroke:#ff7f00;" x="131.754545" xlink:href="#m432cb15604" y="28.10555"/>
     <use style="fill:#ff7f00;stroke:#ff7f00;" x="136.827273" xlink:href="#m432cb15604" y="27.327883"/>
    </g>
   </g>
   <g id="line2d_101">
    <path clip-path="url(#p58697138bf)" d="M 35.372727 94.056176 
L 40.445455 66.976835 
L 45.518182 59.500909 
L 50.590909 56.17384 
L 55.663636 52.995825 
L 60.736364 51.459098 
L 65.809091 48.965794 
L 70.881818 45.942644 
L 75.954545 42.95108 
L 81.027273 40.773705 
L 86.1 38.733895 
L 91.172727 37.124464 
L 96.245455 35.940328 
L 101.318182 34.776706 
L 106.390909 33.727053 
L 111.463636 32.839933 
L 116.536364 31.948533 
L 121.609091 30.788357 
L 126.681818 30.331701 
L 131.754545 29.500927 
L 136.827273 28.874591 
" style="fill:none;stroke:#e41a1c;stroke-linecap:square;stroke-width:1.5;"/>
    <defs>
     <path d="M 0 0.5 
C 0.132602 0.5 0.25979 0.447317 0.353553 0.353553 
C 0.447317 0.25979 0.5 0.132602 0.5 0 
C 0.5 -0.132602 0.447317 -0.25979 0.353553 -0.353553 
C 0.25979 -0.447317 0.132602 -0.5 0 -0.5 
C -0.132602 -0.5 -0.25979 -0.447317 -0.353553 -0.353553 
C -0.447317 -0.25979 -0.5 -0.132602 -0.5 0 
C -0.5 0.132602 -0.447317 0.25979 -0.353553 0.353553 
C -0.25979 0.447317 -0.132602 0.5 0 0.5 
z
" id="m98a0d40fbc" style="stroke:#e41a1c;"/>
    </defs>
    <g clip-path="url(#p58697138bf)">
     <use style="fill:#e41a1c;stroke:#e41a1c;" x="35.372727" xlink:href="#m98a0d40fbc" y="94.056176"/>
     <use style="fill:#e41a1c;stroke:#e41a1c;" x="40.445455" xlink:href="#m98a0d40fbc" y="66.976835"/>
     <use style="fill:#e41a1c;stroke:#e41a1c;" x="45.518182" xlink:href="#m98a0d40fbc" y="59.500909"/>
     <use style="fill:#e41a1c;stroke:#e41a1c;" x="50.590909" xlink:href="#m98a0d40fbc" y="56.17384"/>
     <use style="fill:#e41a1c;stroke:#e41a1c;" x="55.663636" xlink:href="#m98a0d40fbc" y="52.995825"/>
     <use style="fill:#e41a1c;stroke:#e41a1c;" x="60.736364" xlink:href="#m98a0d40fbc" y="51.459098"/>
     <use style="fill:#e41a1c;stroke:#e41a1c;" x="65.809091" xlink:href="#m98a0d40fbc" y="48.965794"/>
     <use style="fill:#e41a1c;stroke:#e41a1c;" x="70.881818" xlink:href="#m98a0d40fbc" y="45.942644"/>
     <use style="fill:#e41a1c;stroke:#e41a1c;" x="75.954545" xlink:href="#m98a0d40fbc" y="42.95108"/>
     <use style="fill:#e41a1c;stroke:#e41a1c;" x="81.027273" xlink:href="#m98a0d40fbc" y="40.773705"/>
     <use style="fill:#e41a1c;stroke:#e41a1c;" x="86.1" xlink:href="#m98a0d40fbc" y="38.733895"/>
     <use style="fill:#e41a1c;stroke:#e41a1c;" x="91.172727" xlink:href="#m98a0d40fbc" y="37.124464"/>
     <use style="fill:#e41a1c;stroke:#e41a1c;" x="96.245455" xlink:href="#m98a0d40fbc" y="35.940328"/>
     <use style="fill:#e41a1c;stroke:#e41a1c;" x="101.318182" xlink:href="#m98a0d40fbc" y="34.776706"/>
     <use style="fill:#e41a1c;stroke:#e41a1c;" x="106.390909" xlink:href="#m98a0d40fbc" y="33.727053"/>
     <use style="fill:#e41a1c;stroke:#e41a1c;" x="111.463636" xlink:href="#m98a0d40fbc" y="32.839933"/>
     <use style="fill:#e41a1c;stroke:#e41a1c;" x="116.536364" xlink:href="#m98a0d40fbc" y="31.948533"/>
     <use style="fill:#e41a1c;stroke:#e41a1c;" x="121.609091" xlink:href="#m98a0d40fbc" y="30.788357"/>
     <use style="fill:#e41a1c;stroke:#e41a1c;" x="126.681818" xlink:href="#m98a0d40fbc" y="30.331701"/>
     <use style="fill:#e41a1c;stroke:#e41a1c;" x="131.754545" xlink:href="#m98a0d40fbc" y="29.500927"/>
     <use style="fill:#e41a1c;stroke:#e41a1c;" x="136.827273" xlink:href="#m98a0d40fbc" y="28.874591"/>
    </g>
   </g>
   <g id="patch_3">
    <path d="M 30.3 109.774997 
L 30.3 1.054997 
" style="fill:none;stroke:#000000;stroke-linecap:square;stroke-linejoin:miter;stroke-width:0.5;"/>
   </g>
   <g id="patch_4">
    <path d="M 141.9 109.774997 
L 141.9 1.054997 
" style="fill:none;stroke:#000000;stroke-linecap:square;stroke-linejoin:miter;stroke-width:0.5;"/>
   </g>
   <g id="patch_5">
    <path d="M 30.3 109.774997 
L 141.9 109.774997 
" style="fill:none;stroke:#000000;stroke-linecap:square;stroke-linejoin:miter;stroke-width:0.5;"/>
   </g>
   <g id="patch_6">
    <path d="M 30.3 1.054997 
L 141.9 1.054997 
" style="fill:none;stroke:#000000;stroke-linecap:square;stroke-linejoin:miter;stroke-width:0.5;"/>
   </g>
  </g>
 </g>
 <defs>
  <clipPath id="p58697138bf">
   <rect height="108.72" width="111.6" x="30.3" y="1.054997"/>
  </clipPath>
 </defs>
</svg>
