<?xml version="1.0" encoding="utf-8" standalone="no"?>
<!DOCTYPE svg PUBLIC "-//W3C//DTD SVG 1.1//EN"
  "http://www.w3.org/Graphics/SVG/1.1/DTD/svg11.dtd">
<!-- Created with matplotlib (https://matplotlib.org/) -->
<svg height="128.365312pt" version="1.1" viewBox="0 0 142.38821 128.365312" width="142.38821pt" xmlns="http://www.w3.org/2000/svg" xmlns:xlink="http://www.w3.org/1999/xlink">
 <defs>
  <style type="text/css">
*{stroke-linecap:butt;stroke-linejoin:round;}
  </style>
 </defs>
 <g id="figure_1">
  <g id="patch_1">
   <path d="M 0 128.365312 
L 142.38821 128.365312 
L 142.38821 0 
L 0 0 
z
" style="fill:none;"/>
  </g>
  <g id="axes_1">
   <g id="patch_2">
    <path d="M 30.3 108.72 
L 141.9 108.72 
L 141.9 0 
L 30.3 0 
z
" style="fill:none;"/>
   </g>
   <g id="matplotlib.axis_1">
    <g id="xtick_1">
     <g id="line2d_1">
      <defs>
       <path d="M 0 0 
L 0 -3.5 
" id="m26d038f6d0" style="stroke:#000000;stroke-width:0.5;"/>
      </defs>
      <g>
       <use style="stroke:#000000;stroke-width:0.5;" x="35.372727" xlink:href="#m26d038f6d0" y="108.72"/>
      </g>
     </g>
     <g id="line2d_2">
      <defs>
       <path d="M 0 0 
L 0 3.5 
" id="ma9c9c0cb4e" style="stroke:#000000;stroke-width:0.5;"/>
      </defs>
      <g>
       <use style="stroke:#000000;stroke-width:0.5;" x="35.372727" xlink:href="#ma9c9c0cb4e" y="0"/>
      </g>
     </g>
     <g id="text_1">
      <text style="font-family:Arial;font-size:10px;font-style:normal;font-weight:normal;text-anchor:middle;" transform="rotate(-0, 35.372727, 116.877812)" x="35.372727" y="116.877812">0</text>
     </g>
    </g>
    <g id="xtick_2">
     <g id="line2d_3">
      <g>
       <use style="stroke:#000000;stroke-width:0.5;" x="86.1" xlink:href="#m26d038f6d0" y="108.72"/>
      </g>
     </g>
     <g id="line2d_4">
      <g>
       <use style="stroke:#000000;stroke-width:0.5;" x="86.1" xlink:href="#ma9c9c0cb4e" y="0"/>
      </g>
     </g>
     <g id="text_2">
      <text style="font-family:Arial;font-size:10px;font-style:normal;font-weight:normal;text-anchor:middle;" transform="rotate(-0, 86.1, 116.877812)" x="86.1" y="116.877812">5</text>
     </g>
    </g>
    <g id="xtick_3">
     <g id="line2d_5">
      <g>
       <use style="stroke:#000000;stroke-width:0.5;" x="136.827273" xlink:href="#m26d038f6d0" y="108.72"/>
      </g>
     </g>
     <g id="line2d_6">
      <g>
       <use style="stroke:#000000;stroke-width:0.5;" x="136.827273" xlink:href="#ma9c9c0cb4e" y="0"/>
      </g>
     </g>
     <g id="text_3">
      <text style="font-family:Arial;font-size:10px;font-style:normal;font-weight:normal;text-anchor:middle;" transform="rotate(-0, 136.827273, 116.877812)" x="136.827273" y="116.877812">10</text>
     </g>
    </g>
    <g id="xtick_4">
     <g id="line2d_7">
      <defs>
       <path d="M 0 0 
L 0 -2 
" id="m5ac6813bf9" style="stroke:#000000;stroke-width:0.5;"/>
      </defs>
      <g>
       <use style="stroke:#000000;stroke-width:0.5;" x="45.518182" xlink:href="#m5ac6813bf9" y="108.72"/>
      </g>
     </g>
     <g id="line2d_8">
      <defs>
       <path d="M 0 0 
L 0 2 
" id="mf56992b455" style="stroke:#000000;stroke-width:0.5;"/>
      </defs>
      <g>
       <use style="stroke:#000000;stroke-width:0.5;" x="45.518182" xlink:href="#mf56992b455" y="0"/>
      </g>
     </g>
    </g>
    <g id="xtick_5">
     <g id="line2d_9">
      <g>
       <use style="stroke:#000000;stroke-width:0.5;" x="55.663636" xlink:href="#m5ac6813bf9" y="108.72"/>
      </g>
     </g>
     <g id="line2d_10">
      <g>
       <use style="stroke:#000000;stroke-width:0.5;" x="55.663636" xlink:href="#mf56992b455" y="0"/>
      </g>
     </g>
    </g>
    <g id="xtick_6">
     <g id="line2d_11">
      <g>
       <use style="stroke:#000000;stroke-width:0.5;" x="65.809091" xlink:href="#m5ac6813bf9" y="108.72"/>
      </g>
     </g>
     <g id="line2d_12">
      <g>
       <use style="stroke:#000000;stroke-width:0.5;" x="65.809091" xlink:href="#mf56992b455" y="0"/>
      </g>
     </g>
    </g>
    <g id="xtick_7">
     <g id="line2d_13">
      <g>
       <use style="stroke:#000000;stroke-width:0.5;" x="75.954545" xlink:href="#m5ac6813bf9" y="108.72"/>
      </g>
     </g>
     <g id="line2d_14">
      <g>
       <use style="stroke:#000000;stroke-width:0.5;" x="75.954545" xlink:href="#mf56992b455" y="0"/>
      </g>
     </g>
    </g>
    <g id="xtick_8">
     <g id="line2d_15">
      <g>
       <use style="stroke:#000000;stroke-width:0.5;" x="96.245455" xlink:href="#m5ac6813bf9" y="108.72"/>
      </g>
     </g>
     <g id="line2d_16">
      <g>
       <use style="stroke:#000000;stroke-width:0.5;" x="96.245455" xlink:href="#mf56992b455" y="0"/>
      </g>
     </g>
    </g>
    <g id="xtick_9">
     <g id="line2d_17">
      <g>
       <use style="stroke:#000000;stroke-width:0.5;" x="106.390909" xlink:href="#m5ac6813bf9" y="108.72"/>
      </g>
     </g>
     <g id="line2d_18">
      <g>
       <use style="stroke:#000000;stroke-width:0.5;" x="106.390909" xlink:href="#mf56992b455" y="0"/>
      </g>
     </g>
    </g>
    <g id="xtick_10">
     <g id="line2d_19">
      <g>
       <use style="stroke:#000000;stroke-width:0.5;" x="116.536364" xlink:href="#m5ac6813bf9" y="108.72"/>
      </g>
     </g>
     <g id="line2d_20">
      <g>
       <use style="stroke:#000000;stroke-width:0.5;" x="116.536364" xlink:href="#mf56992b455" y="0"/>
      </g>
     </g>
    </g>
    <g id="xtick_11">
     <g id="line2d_21">
      <g>
       <use style="stroke:#000000;stroke-width:0.5;" x="126.681818" xlink:href="#m5ac6813bf9" y="108.72"/>
      </g>
     </g>
     <g id="line2d_22">
      <g>
       <use style="stroke:#000000;stroke-width:0.5;" x="126.681818" xlink:href="#mf56992b455" y="0"/>
      </g>
     </g>
    </g>
    <g id="text_4">
     <!-- $\it{V_{DS}}$ (V) -->
     <g transform="translate(69.55 126.165312)">
      <text>
       <tspan style="font-family:DejaVu Sans;font-size:10px;font-style:oblique;font-weight:oblique;" x="0" y="-0.703125">V</tspan>
       <tspan style="font-family:DejaVu Sans;font-size:7px;font-style:oblique;font-weight:oblique;" x="6.84082 12.230957" y="0.9375">DS</tspan>
       <tspan style="font-family:Arial;font-size:10px;font-style:regular;font-weight:regular;" x="16.947754 19.726074 23.056152 29.726074" y="-0.703125"> (V)</tspan>
      </text>
     </g>
    </g>
   </g>
   <g id="matplotlib.axis_2">
    <g id="ytick_1">
     <g id="line2d_23">
      <defs>
       <path d="M 0 0 
L 3.5 0 
" id="m800b647fbb" style="stroke:#000000;stroke-width:0.5;"/>
      </defs>
      <g>
       <use style="stroke:#000000;stroke-width:0.5;" x="30.3" xlink:href="#m800b647fbb" y="82.355129"/>
      </g>
     </g>
     <g id="line2d_24">
      <defs>
       <path d="M 0 0 
L -3.5 0 
" id="medd1ed9e32" style="stroke:#000000;stroke-width:0.5;"/>
      </defs>
      <g>
       <use style="stroke:#000000;stroke-width:0.5;" x="141.9" xlink:href="#medd1ed9e32" y="82.355129"/>
      </g>
     </g>
     <g id="text_5">
      <!-- $\mathdefault{10^{-9}}$ -->
      <g transform="translate(9.5 87.511379)">
       <text>
        <tspan style="font-family:Arial;font-size:10px;font-style:regular;font-weight:regular;" x="0 5.561523" y="-0.9993750000000006">10</tspan>
        <tspan style="font-family:Arial;font-size:7px;font-style:regular;font-weight:regular;" x="11.297281 15.385172" y="-7.968749999999999">−9</tspan>
       </text>
      </g>
     </g>
    </g>
    <g id="ytick_2">
     <g id="line2d_25">
      <g>
       <use style="stroke:#000000;stroke-width:0.5;" x="30.3" xlink:href="#m800b647fbb" y="53.083779"/>
      </g>
     </g>
     <g id="line2d_26">
      <g>
       <use style="stroke:#000000;stroke-width:0.5;" x="141.9" xlink:href="#medd1ed9e32" y="53.083779"/>
      </g>
     </g>
     <g id="text_6">
      <!-- $\mathdefault{10^{-8}}$ -->
      <g transform="translate(9.5 58.240029)">
       <text>
        <tspan style="font-family:Arial;font-size:10px;font-style:regular;font-weight:regular;" x="0 5.561523" y="-0.9993750000000006">10</tspan>
        <tspan style="font-family:Arial;font-size:7px;font-style:regular;font-weight:regular;" x="11.297281 15.385172" y="-7.968749999999999">−8</tspan>
       </text>
      </g>
     </g>
    </g>
    <g id="ytick_3">
     <g id="line2d_27">
      <g>
       <use style="stroke:#000000;stroke-width:0.5;" x="30.3" xlink:href="#m800b647fbb" y="23.81243"/>
      </g>
     </g>
     <g id="line2d_28">
      <g>
       <use style="stroke:#000000;stroke-width:0.5;" x="141.9" xlink:href="#medd1ed9e32" y="23.81243"/>
      </g>
     </g>
     <g id="text_7">
      <!-- $\mathdefault{10^{-7}}$ -->
      <g transform="translate(9.5 28.91868)">
       <text>
        <tspan style="font-family:Arial;font-size:10px;font-style:regular;font-weight:regular;" x="0 5.561523" y="-0.0868750000000027">10</tspan>
        <tspan style="font-family:Arial;font-size:7px;font-style:regular;font-weight:regular;" x="11.297281 15.385172" y="-7.056250000000001">−7</tspan>
       </text>
      </g>
     </g>
    </g>
    <g id="ytick_4">
     <g id="line2d_29">
      <defs>
       <path d="M 0 0 
L 2 0 
" id="mabc549df73" style="stroke:#000000;stroke-width:0.5;"/>
      </defs>
      <g>
       <use style="stroke:#000000;stroke-width:0.5;" x="30.3" xlink:href="#mabc549df73" y="102.814924"/>
      </g>
     </g>
     <g id="line2d_30">
      <defs>
       <path d="M 0 0 
L -2 0 
" id="mc2531076f2" style="stroke:#000000;stroke-width:0.5;"/>
      </defs>
      <g>
       <use style="stroke:#000000;stroke-width:0.5;" x="141.9" xlink:href="#mc2531076f2" y="102.814924"/>
      </g>
     </g>
    </g>
    <g id="ytick_5">
     <g id="line2d_31">
      <g>
       <use style="stroke:#000000;stroke-width:0.5;" x="30.3" xlink:href="#mabc549df73" y="97.660495"/>
      </g>
     </g>
     <g id="line2d_32">
      <g>
       <use style="stroke:#000000;stroke-width:0.5;" x="141.9" xlink:href="#mc2531076f2" y="97.660495"/>
      </g>
     </g>
    </g>
    <g id="ytick_6">
     <g id="line2d_33">
      <g>
       <use style="stroke:#000000;stroke-width:0.5;" x="30.3" xlink:href="#mabc549df73" y="94.00337"/>
      </g>
     </g>
     <g id="line2d_34">
      <g>
       <use style="stroke:#000000;stroke-width:0.5;" x="141.9" xlink:href="#mc2531076f2" y="94.00337"/>
      </g>
     </g>
    </g>
    <g id="ytick_7">
     <g id="line2d_35">
      <g>
       <use style="stroke:#000000;stroke-width:0.5;" x="30.3" xlink:href="#mabc549df73" y="91.166683"/>
      </g>
     </g>
     <g id="line2d_36">
      <g>
       <use style="stroke:#000000;stroke-width:0.5;" x="141.9" xlink:href="#mc2531076f2" y="91.166683"/>
      </g>
     </g>
    </g>
    <g id="ytick_8">
     <g id="line2d_37">
      <g>
       <use style="stroke:#000000;stroke-width:0.5;" x="30.3" xlink:href="#mabc549df73" y="88.848941"/>
      </g>
     </g>
     <g id="line2d_38">
      <g>
       <use style="stroke:#000000;stroke-width:0.5;" x="141.9" xlink:href="#mc2531076f2" y="88.848941"/>
      </g>
     </g>
    </g>
    <g id="ytick_9">
     <g id="line2d_39">
      <g>
       <use style="stroke:#000000;stroke-width:0.5;" x="30.3" xlink:href="#mabc549df73" y="86.889318"/>
      </g>
     </g>
     <g id="line2d_40">
      <g>
       <use style="stroke:#000000;stroke-width:0.5;" x="141.9" xlink:href="#mc2531076f2" y="86.889318"/>
      </g>
     </g>
    </g>
    <g id="ytick_10">
     <g id="line2d_41">
      <g>
       <use style="stroke:#000000;stroke-width:0.5;" x="30.3" xlink:href="#mabc549df73" y="85.191816"/>
      </g>
     </g>
     <g id="line2d_42">
      <g>
       <use style="stroke:#000000;stroke-width:0.5;" x="141.9" xlink:href="#mc2531076f2" y="85.191816"/>
      </g>
     </g>
    </g>
    <g id="ytick_11">
     <g id="line2d_43">
      <g>
       <use style="stroke:#000000;stroke-width:0.5;" x="30.3" xlink:href="#mabc549df73" y="83.694512"/>
      </g>
     </g>
     <g id="line2d_44">
      <g>
       <use style="stroke:#000000;stroke-width:0.5;" x="141.9" xlink:href="#mc2531076f2" y="83.694512"/>
      </g>
     </g>
    </g>
    <g id="ytick_12">
     <g id="line2d_45">
      <g>
       <use style="stroke:#000000;stroke-width:0.5;" x="30.3" xlink:href="#mabc549df73" y="73.543575"/>
      </g>
     </g>
     <g id="line2d_46">
      <g>
       <use style="stroke:#000000;stroke-width:0.5;" x="141.9" xlink:href="#mc2531076f2" y="73.543575"/>
      </g>
     </g>
    </g>
    <g id="ytick_13">
     <g id="line2d_47">
      <g>
       <use style="stroke:#000000;stroke-width:0.5;" x="30.3" xlink:href="#mabc549df73" y="68.389146"/>
      </g>
     </g>
     <g id="line2d_48">
      <g>
       <use style="stroke:#000000;stroke-width:0.5;" x="141.9" xlink:href="#mc2531076f2" y="68.389146"/>
      </g>
     </g>
    </g>
    <g id="ytick_14">
     <g id="line2d_49">
      <g>
       <use style="stroke:#000000;stroke-width:0.5;" x="30.3" xlink:href="#mabc549df73" y="64.732021"/>
      </g>
     </g>
     <g id="line2d_50">
      <g>
       <use style="stroke:#000000;stroke-width:0.5;" x="141.9" xlink:href="#mc2531076f2" y="64.732021"/>
      </g>
     </g>
    </g>
    <g id="ytick_15">
     <g id="line2d_51">
      <g>
       <use style="stroke:#000000;stroke-width:0.5;" x="30.3" xlink:href="#mabc549df73" y="61.895334"/>
      </g>
     </g>
     <g id="line2d_52">
      <g>
       <use style="stroke:#000000;stroke-width:0.5;" x="141.9" xlink:href="#mc2531076f2" y="61.895334"/>
      </g>
     </g>
    </g>
    <g id="ytick_16">
     <g id="line2d_53">
      <g>
       <use style="stroke:#000000;stroke-width:0.5;" x="30.3" xlink:href="#mabc549df73" y="59.577592"/>
      </g>
     </g>
     <g id="line2d_54">
      <g>
       <use style="stroke:#000000;stroke-width:0.5;" x="141.9" xlink:href="#mc2531076f2" y="59.577592"/>
      </g>
     </g>
    </g>
    <g id="ytick_17">
     <g id="line2d_55">
      <g>
       <use style="stroke:#000000;stroke-width:0.5;" x="30.3" xlink:href="#mabc549df73" y="57.617969"/>
      </g>
     </g>
     <g id="line2d_56">
      <g>
       <use style="stroke:#000000;stroke-width:0.5;" x="141.9" xlink:href="#mc2531076f2" y="57.617969"/>
      </g>
     </g>
    </g>
    <g id="ytick_18">
     <g id="line2d_57">
      <g>
       <use style="stroke:#000000;stroke-width:0.5;" x="30.3" xlink:href="#mabc549df73" y="55.920466"/>
      </g>
     </g>
     <g id="line2d_58">
      <g>
       <use style="stroke:#000000;stroke-width:0.5;" x="141.9" xlink:href="#mc2531076f2" y="55.920466"/>
      </g>
     </g>
    </g>
    <g id="ytick_19">
     <g id="line2d_59">
      <g>
       <use style="stroke:#000000;stroke-width:0.5;" x="30.3" xlink:href="#mabc549df73" y="54.423163"/>
      </g>
     </g>
     <g id="line2d_60">
      <g>
       <use style="stroke:#000000;stroke-width:0.5;" x="141.9" xlink:href="#mc2531076f2" y="54.423163"/>
      </g>
     </g>
    </g>
    <g id="ytick_20">
     <g id="line2d_61">
      <g>
       <use style="stroke:#000000;stroke-width:0.5;" x="30.3" xlink:href="#mabc549df73" y="44.272225"/>
      </g>
     </g>
     <g id="line2d_62">
      <g>
       <use style="stroke:#000000;stroke-width:0.5;" x="141.9" xlink:href="#mc2531076f2" y="44.272225"/>
      </g>
     </g>
    </g>
    <g id="ytick_21">
     <g id="line2d_63">
      <g>
       <use style="stroke:#000000;stroke-width:0.5;" x="30.3" xlink:href="#mabc549df73" y="39.117797"/>
      </g>
     </g>
     <g id="line2d_64">
      <g>
       <use style="stroke:#000000;stroke-width:0.5;" x="141.9" xlink:href="#mc2531076f2" y="39.117797"/>
      </g>
     </g>
    </g>
    <g id="ytick_22">
     <g id="line2d_65">
      <g>
       <use style="stroke:#000000;stroke-width:0.5;" x="30.3" xlink:href="#mabc549df73" y="35.460671"/>
      </g>
     </g>
     <g id="line2d_66">
      <g>
       <use style="stroke:#000000;stroke-width:0.5;" x="141.9" xlink:href="#mc2531076f2" y="35.460671"/>
      </g>
     </g>
    </g>
    <g id="ytick_23">
     <g id="line2d_67">
      <g>
       <use style="stroke:#000000;stroke-width:0.5;" x="30.3" xlink:href="#mabc549df73" y="32.623984"/>
      </g>
     </g>
     <g id="line2d_68">
      <g>
       <use style="stroke:#000000;stroke-width:0.5;" x="141.9" xlink:href="#mc2531076f2" y="32.623984"/>
      </g>
     </g>
    </g>
    <g id="ytick_24">
     <g id="line2d_69">
      <g>
       <use style="stroke:#000000;stroke-width:0.5;" x="30.3" xlink:href="#mabc549df73" y="30.306242"/>
      </g>
     </g>
     <g id="line2d_70">
      <g>
       <use style="stroke:#000000;stroke-width:0.5;" x="141.9" xlink:href="#mc2531076f2" y="30.306242"/>
      </g>
     </g>
    </g>
    <g id="ytick_25">
     <g id="line2d_71">
      <g>
       <use style="stroke:#000000;stroke-width:0.5;" x="30.3" xlink:href="#mabc549df73" y="28.346619"/>
      </g>
     </g>
     <g id="line2d_72">
      <g>
       <use style="stroke:#000000;stroke-width:0.5;" x="141.9" xlink:href="#mc2531076f2" y="28.346619"/>
      </g>
     </g>
    </g>
    <g id="ytick_26">
     <g id="line2d_73">
      <g>
       <use style="stroke:#000000;stroke-width:0.5;" x="30.3" xlink:href="#mabc549df73" y="26.649117"/>
      </g>
     </g>
     <g id="line2d_74">
      <g>
       <use style="stroke:#000000;stroke-width:0.5;" x="141.9" xlink:href="#mc2531076f2" y="26.649117"/>
      </g>
     </g>
    </g>
    <g id="ytick_27">
     <g id="line2d_75">
      <g>
       <use style="stroke:#000000;stroke-width:0.5;" x="30.3" xlink:href="#mabc549df73" y="25.151814"/>
      </g>
     </g>
     <g id="line2d_76">
      <g>
       <use style="stroke:#000000;stroke-width:0.5;" x="141.9" xlink:href="#mc2531076f2" y="25.151814"/>
      </g>
     </g>
    </g>
    <g id="ytick_28">
     <g id="line2d_77">
      <g>
       <use style="stroke:#000000;stroke-width:0.5;" x="30.3" xlink:href="#mabc549df73" y="15.000876"/>
      </g>
     </g>
     <g id="line2d_78">
      <g>
       <use style="stroke:#000000;stroke-width:0.5;" x="141.9" xlink:href="#mc2531076f2" y="15.000876"/>
      </g>
     </g>
    </g>
    <g id="ytick_29">
     <g id="line2d_79">
      <g>
       <use style="stroke:#000000;stroke-width:0.5;" x="30.3" xlink:href="#mabc549df73" y="9.846447"/>
      </g>
     </g>
     <g id="line2d_80">
      <g>
       <use style="stroke:#000000;stroke-width:0.5;" x="141.9" xlink:href="#mc2531076f2" y="9.846447"/>
      </g>
     </g>
    </g>
    <g id="ytick_30">
     <g id="line2d_81">
      <g>
       <use style="stroke:#000000;stroke-width:0.5;" x="30.3" xlink:href="#mabc549df73" y="6.189322"/>
      </g>
     </g>
     <g id="line2d_82">
      <g>
       <use style="stroke:#000000;stroke-width:0.5;" x="141.9" xlink:href="#mc2531076f2" y="6.189322"/>
      </g>
     </g>
    </g>
    <g id="ytick_31">
     <g id="line2d_83">
      <g>
       <use style="stroke:#000000;stroke-width:0.5;" x="30.3" xlink:href="#mabc549df73" y="3.352635"/>
      </g>
     </g>
     <g id="line2d_84">
      <g>
       <use style="stroke:#000000;stroke-width:0.5;" x="141.9" xlink:href="#mc2531076f2" y="3.352635"/>
      </g>
     </g>
    </g>
    <g id="ytick_32">
     <g id="line2d_85">
      <g>
       <use style="stroke:#000000;stroke-width:0.5;" x="30.3" xlink:href="#mabc549df73" y="1.034893"/>
      </g>
     </g>
     <g id="line2d_86">
      <g>
       <use style="stroke:#000000;stroke-width:0.5;" x="141.9" xlink:href="#mc2531076f2" y="1.034893"/>
      </g>
     </g>
    </g>
    <g id="text_8">
     <!-- $\it{I_{D}}$ (A) -->
     <g transform="translate(7.3 66.76)rotate(-90)">
      <text>
       <tspan style="font-family:DejaVu Sans;font-size:10px;font-style:oblique;font-weight:oblique;" x="0" y="-0.703125">I</tspan>
       <tspan style="font-family:DejaVu Sans;font-size:7px;font-style:oblique;font-weight:oblique;" x="2.949219" y="0.9375">D</tspan>
       <tspan style="font-family:Arial;font-size:10px;font-style:regular;font-weight:regular;" x="8.612793 11.391113 14.721191 21.391113" y="-0.703125"> (A)</tspan>
      </text>
     </g>
    </g>
   </g>
   <g id="line2d_87">
    <path clip-path="url(#p808f02e349)" d="M 35.372727 103.778182 
L 40.445455 32.944426 
L 45.518182 24.679893 
L 50.590909 20.2916 
L 55.663636 17.72805 
L 60.736364 15.891319 
L 65.809091 14.816687 
L 70.881818 13.622123 
L 75.954545 12.497984 
L 81.027273 11.731606 
L 86.1 10.683805 
L 91.172727 10.006501 
L 96.245455 9.192754 
L 101.318182 8.644008 
L 106.390909 7.985501 
L 111.463636 7.461149 
L 116.536364 6.962099 
L 121.609091 6.357918 
L 126.681818 5.889507 
L 131.754545 5.266457 
L 136.827273 4.941818 
" style="fill:none;stroke:#377eb8;stroke-linecap:square;stroke-width:1.5;"/>
    <defs>
     <path d="M 0 0.5 
C 0.132602 0.5 0.25979 0.447317 0.353553 0.353553 
C 0.447317 0.25979 0.5 0.132602 0.5 0 
C 0.5 -0.132602 0.447317 -0.25979 0.353553 -0.353553 
C 0.25979 -0.447317 0.132602 -0.5 0 -0.5 
C -0.132602 -0.5 -0.25979 -0.447317 -0.353553 -0.353553 
C -0.447317 -0.25979 -0.5 -0.132602 -0.5 0 
C -0.5 0.132602 -0.447317 0.25979 -0.353553 0.353553 
C -0.25979 0.447317 -0.132602 0.5 0 0.5 
z
" id="mb0ccd6c5e5" style="stroke:#377eb8;"/>
    </defs>
    <g clip-path="url(#p808f02e349)">
     <use style="fill:#377eb8;stroke:#377eb8;" x="35.372727" xlink:href="#mb0ccd6c5e5" y="103.778182"/>
     <use style="fill:#377eb8;stroke:#377eb8;" x="40.445455" xlink:href="#mb0ccd6c5e5" y="32.944426"/>
     <use style="fill:#377eb8;stroke:#377eb8;" x="45.518182" xlink:href="#mb0ccd6c5e5" y="24.679893"/>
     <use style="fill:#377eb8;stroke:#377eb8;" x="50.590909" xlink:href="#mb0ccd6c5e5" y="20.2916"/>
     <use style="fill:#377eb8;stroke:#377eb8;" x="55.663636" xlink:href="#mb0ccd6c5e5" y="17.72805"/>
     <use style="fill:#377eb8;stroke:#377eb8;" x="60.736364" xlink:href="#mb0ccd6c5e5" y="15.891319"/>
     <use style="fill:#377eb8;stroke:#377eb8;" x="65.809091" xlink:href="#mb0ccd6c5e5" y="14.816687"/>
     <use style="fill:#377eb8;stroke:#377eb8;" x="70.881818" xlink:href="#mb0ccd6c5e5" y="13.622123"/>
     <use style="fill:#377eb8;stroke:#377eb8;" x="75.954545" xlink:href="#mb0ccd6c5e5" y="12.497984"/>
     <use style="fill:#377eb8;stroke:#377eb8;" x="81.027273" xlink:href="#mb0ccd6c5e5" y="11.731606"/>
     <use style="fill:#377eb8;stroke:#377eb8;" x="86.1" xlink:href="#mb0ccd6c5e5" y="10.683805"/>
     <use style="fill:#377eb8;stroke:#377eb8;" x="91.172727" xlink:href="#mb0ccd6c5e5" y="10.006501"/>
     <use style="fill:#377eb8;stroke:#377eb8;" x="96.245455" xlink:href="#mb0ccd6c5e5" y="9.192754"/>
     <use style="fill:#377eb8;stroke:#377eb8;" x="101.318182" xlink:href="#mb0ccd6c5e5" y="8.644008"/>
     <use style="fill:#377eb8;stroke:#377eb8;" x="106.390909" xlink:href="#mb0ccd6c5e5" y="7.985501"/>
     <use style="fill:#377eb8;stroke:#377eb8;" x="111.463636" xlink:href="#mb0ccd6c5e5" y="7.461149"/>
     <use style="fill:#377eb8;stroke:#377eb8;" x="116.536364" xlink:href="#mb0ccd6c5e5" y="6.962099"/>
     <use style="fill:#377eb8;stroke:#377eb8;" x="121.609091" xlink:href="#mb0ccd6c5e5" y="6.357918"/>
     <use style="fill:#377eb8;stroke:#377eb8;" x="126.681818" xlink:href="#mb0ccd6c5e5" y="5.889507"/>
     <use style="fill:#377eb8;stroke:#377eb8;" x="131.754545" xlink:href="#mb0ccd6c5e5" y="5.266457"/>
     <use style="fill:#377eb8;stroke:#377eb8;" x="136.827273" xlink:href="#mb0ccd6c5e5" y="4.941818"/>
    </g>
   </g>
   <g id="line2d_88">
    <path clip-path="url(#p808f02e349)" d="M 35.372727 102.686856 
L 40.445455 49.568541 
L 45.518182 40.40462 
L 50.590909 36.390225 
L 55.663636 33.187082 
L 60.736364 31.429309 
L 65.809091 30.424011 
L 70.881818 29.168149 
L 75.954545 28.328228 
L 81.027273 27.544313 
L 86.1 26.477142 
L 91.172727 25.536187 
L 96.245455 25.183877 
L 101.318182 23.630574 
L 106.390909 22.755284 
L 111.463636 21.903194 
L 116.536364 21.558372 
L 121.609091 20.459383 
L 126.681818 20.062166 
L 131.754545 19.615995 
L 136.827273 19.078547 
" style="fill:none;stroke:#999999;stroke-linecap:square;stroke-width:1.5;"/>
    <defs>
     <path d="M 0 0.5 
C 0.132602 0.5 0.25979 0.447317 0.353553 0.353553 
C 0.447317 0.25979 0.5 0.132602 0.5 0 
C 0.5 -0.132602 0.447317 -0.25979 0.353553 -0.353553 
C 0.25979 -0.447317 0.132602 -0.5 0 -0.5 
C -0.132602 -0.5 -0.25979 -0.447317 -0.353553 -0.353553 
C -0.447317 -0.25979 -0.5 -0.132602 -0.5 0 
C -0.5 0.132602 -0.447317 0.25979 -0.353553 0.353553 
C -0.25979 0.447317 -0.132602 0.5 0 0.5 
z
" id="m0ca5d98ee7" style="stroke:#999999;"/>
    </defs>
    <g clip-path="url(#p808f02e349)">
     <use style="fill:#999999;stroke:#999999;" x="35.372727" xlink:href="#m0ca5d98ee7" y="102.686856"/>
     <use style="fill:#999999;stroke:#999999;" x="40.445455" xlink:href="#m0ca5d98ee7" y="49.568541"/>
     <use style="fill:#999999;stroke:#999999;" x="45.518182" xlink:href="#m0ca5d98ee7" y="40.40462"/>
     <use style="fill:#999999;stroke:#999999;" x="50.590909" xlink:href="#m0ca5d98ee7" y="36.390225"/>
     <use style="fill:#999999;stroke:#999999;" x="55.663636" xlink:href="#m0ca5d98ee7" y="33.187082"/>
     <use style="fill:#999999;stroke:#999999;" x="60.736364" xlink:href="#m0ca5d98ee7" y="31.429309"/>
     <use style="fill:#999999;stroke:#999999;" x="65.809091" xlink:href="#m0ca5d98ee7" y="30.424011"/>
     <use style="fill:#999999;stroke:#999999;" x="70.881818" xlink:href="#m0ca5d98ee7" y="29.168149"/>
     <use style="fill:#999999;stroke:#999999;" x="75.954545" xlink:href="#m0ca5d98ee7" y="28.328228"/>
     <use style="fill:#999999;stroke:#999999;" x="81.027273" xlink:href="#m0ca5d98ee7" y="27.544313"/>
     <use style="fill:#999999;stroke:#999999;" x="86.1" xlink:href="#m0ca5d98ee7" y="26.477142"/>
     <use style="fill:#999999;stroke:#999999;" x="91.172727" xlink:href="#m0ca5d98ee7" y="25.536187"/>
     <use style="fill:#999999;stroke:#999999;" x="96.245455" xlink:href="#m0ca5d98ee7" y="25.183877"/>
     <use style="fill:#999999;stroke:#999999;" x="101.318182" xlink:href="#m0ca5d98ee7" y="23.630574"/>
     <use style="fill:#999999;stroke:#999999;" x="106.390909" xlink:href="#m0ca5d98ee7" y="22.755284"/>
     <use style="fill:#999999;stroke:#999999;" x="111.463636" xlink:href="#m0ca5d98ee7" y="21.903194"/>
     <use style="fill:#999999;stroke:#999999;" x="116.536364" xlink:href="#m0ca5d98ee7" y="21.558372"/>
     <use style="fill:#999999;stroke:#999999;" x="121.609091" xlink:href="#m0ca5d98ee7" y="20.459383"/>
     <use style="fill:#999999;stroke:#999999;" x="126.681818" xlink:href="#m0ca5d98ee7" y="20.062166"/>
     <use style="fill:#999999;stroke:#999999;" x="131.754545" xlink:href="#m0ca5d98ee7" y="19.615995"/>
     <use style="fill:#999999;stroke:#999999;" x="136.827273" xlink:href="#m0ca5d98ee7" y="19.078547"/>
    </g>
   </g>
   <g id="line2d_89">
    <path clip-path="url(#p808f02e349)" d="M 35.372727 81.618901 
L 40.445455 54.63954 
L 45.518182 46.985191 
L 50.590909 42.551103 
L 55.663636 40.069258 
L 60.736364 38.101786 
L 65.809091 37.09633 
L 70.881818 36.410221 
L 75.954545 35.318221 
L 81.027273 34.843719 
L 86.1 33.856289 
L 91.172727 32.996134 
L 96.245455 31.555416 
L 101.318182 31.267356 
L 106.390909 30.712426 
L 111.463636 29.86698 
L 116.536364 29.306561 
L 121.609091 28.394708 
L 126.681818 27.960137 
L 131.754545 27.529215 
L 136.827273 27.073362 
" style="fill:none;stroke:#4daf4a;stroke-linecap:square;stroke-width:1.5;"/>
    <defs>
     <path d="M 0 0.5 
C 0.132602 0.5 0.25979 0.447317 0.353553 0.353553 
C 0.447317 0.25979 0.5 0.132602 0.5 0 
C 0.5 -0.132602 0.447317 -0.25979 0.353553 -0.353553 
C 0.25979 -0.447317 0.132602 -0.5 0 -0.5 
C -0.132602 -0.5 -0.25979 -0.447317 -0.353553 -0.353553 
C -0.447317 -0.25979 -0.5 -0.132602 -0.5 0 
C -0.5 0.132602 -0.447317 0.25979 -0.353553 0.353553 
C -0.25979 0.447317 -0.132602 0.5 0 0.5 
z
" id="m22072fac2e" style="stroke:#4daf4a;"/>
    </defs>
    <g clip-path="url(#p808f02e349)">
     <use style="fill:#4daf4a;stroke:#4daf4a;" x="35.372727" xlink:href="#m22072fac2e" y="81.618901"/>
     <use style="fill:#4daf4a;stroke:#4daf4a;" x="40.445455" xlink:href="#m22072fac2e" y="54.63954"/>
     <use style="fill:#4daf4a;stroke:#4daf4a;" x="45.518182" xlink:href="#m22072fac2e" y="46.985191"/>
     <use style="fill:#4daf4a;stroke:#4daf4a;" x="50.590909" xlink:href="#m22072fac2e" y="42.551103"/>
     <use style="fill:#4daf4a;stroke:#4daf4a;" x="55.663636" xlink:href="#m22072fac2e" y="40.069258"/>
     <use style="fill:#4daf4a;stroke:#4daf4a;" x="60.736364" xlink:href="#m22072fac2e" y="38.101786"/>
     <use style="fill:#4daf4a;stroke:#4daf4a;" x="65.809091" xlink:href="#m22072fac2e" y="37.09633"/>
     <use style="fill:#4daf4a;stroke:#4daf4a;" x="70.881818" xlink:href="#m22072fac2e" y="36.410221"/>
     <use style="fill:#4daf4a;stroke:#4daf4a;" x="75.954545" xlink:href="#m22072fac2e" y="35.318221"/>
     <use style="fill:#4daf4a;stroke:#4daf4a;" x="81.027273" xlink:href="#m22072fac2e" y="34.843719"/>
     <use style="fill:#4daf4a;stroke:#4daf4a;" x="86.1" xlink:href="#m22072fac2e" y="33.856289"/>
     <use style="fill:#4daf4a;stroke:#4daf4a;" x="91.172727" xlink:href="#m22072fac2e" y="32.996134"/>
     <use style="fill:#4daf4a;stroke:#4daf4a;" x="96.245455" xlink:href="#m22072fac2e" y="31.555416"/>
     <use style="fill:#4daf4a;stroke:#4daf4a;" x="101.318182" xlink:href="#m22072fac2e" y="31.267356"/>
     <use style="fill:#4daf4a;stroke:#4daf4a;" x="106.390909" xlink:href="#m22072fac2e" y="30.712426"/>
     <use style="fill:#4daf4a;stroke:#4daf4a;" x="111.463636" xlink:href="#m22072fac2e" y="29.86698"/>
     <use style="fill:#4daf4a;stroke:#4daf4a;" x="116.536364" xlink:href="#m22072fac2e" y="29.306561"/>
     <use style="fill:#4daf4a;stroke:#4daf4a;" x="121.609091" xlink:href="#m22072fac2e" y="28.394708"/>
     <use style="fill:#4daf4a;stroke:#4daf4a;" x="126.681818" xlink:href="#m22072fac2e" y="27.960137"/>
     <use style="fill:#4daf4a;stroke:#4daf4a;" x="131.754545" xlink:href="#m22072fac2e" y="27.529215"/>
     <use style="fill:#4daf4a;stroke:#4daf4a;" x="136.827273" xlink:href="#m22072fac2e" y="27.073362"/>
    </g>
   </g>
   <g id="line2d_90">
    <path clip-path="url(#p808f02e349)" d="M 35.372727 88.68965 
L 40.445455 59.901205 
L 45.518182 51.110061 
L 50.590909 46.658211 
L 55.663636 44.157323 
L 60.736364 42.231751 
L 65.809091 40.817119 
L 70.881818 40.153905 
L 75.954545 39.310236 
L 81.027273 38.372559 
L 86.1 37.91598 
L 91.172727 37.112674 
L 96.245455 36.017715 
L 101.318182 35.586323 
L 106.390909 35.206931 
L 111.463636 34.637946 
L 116.536364 34.276011 
L 121.609091 33.306486 
L 126.681818 33.034509 
L 131.754545 31.569446 
L 136.827273 31.500767 
" style="fill:none;stroke:#a65628;stroke-linecap:square;stroke-width:1.5;"/>
    <defs>
     <path d="M 0 0.5 
C 0.132602 0.5 0.25979 0.447317 0.353553 0.353553 
C 0.447317 0.25979 0.5 0.132602 0.5 0 
C 0.5 -0.132602 0.447317 -0.25979 0.353553 -0.353553 
C 0.25979 -0.447317 0.132602 -0.5 0 -0.5 
C -0.132602 -0.5 -0.25979 -0.447317 -0.353553 -0.353553 
C -0.447317 -0.25979 -0.5 -0.132602 -0.5 0 
C -0.5 0.132602 -0.447317 0.25979 -0.353553 0.353553 
C -0.25979 0.447317 -0.132602 0.5 0 0.5 
z
" id="m97a7daf3dc" style="stroke:#a65628;"/>
    </defs>
    <g clip-path="url(#p808f02e349)">
     <use style="fill:#a65628;stroke:#a65628;" x="35.372727" xlink:href="#m97a7daf3dc" y="88.68965"/>
     <use style="fill:#a65628;stroke:#a65628;" x="40.445455" xlink:href="#m97a7daf3dc" y="59.901205"/>
     <use style="fill:#a65628;stroke:#a65628;" x="45.518182" xlink:href="#m97a7daf3dc" y="51.110061"/>
     <use style="fill:#a65628;stroke:#a65628;" x="50.590909" xlink:href="#m97a7daf3dc" y="46.658211"/>
     <use style="fill:#a65628;stroke:#a65628;" x="55.663636" xlink:href="#m97a7daf3dc" y="44.157323"/>
     <use style="fill:#a65628;stroke:#a65628;" x="60.736364" xlink:href="#m97a7daf3dc" y="42.231751"/>
     <use style="fill:#a65628;stroke:#a65628;" x="65.809091" xlink:href="#m97a7daf3dc" y="40.817119"/>
     <use style="fill:#a65628;stroke:#a65628;" x="70.881818" xlink:href="#m97a7daf3dc" y="40.153905"/>
     <use style="fill:#a65628;stroke:#a65628;" x="75.954545" xlink:href="#m97a7daf3dc" y="39.310236"/>
     <use style="fill:#a65628;stroke:#a65628;" x="81.027273" xlink:href="#m97a7daf3dc" y="38.372559"/>
     <use style="fill:#a65628;stroke:#a65628;" x="86.1" xlink:href="#m97a7daf3dc" y="37.91598"/>
     <use style="fill:#a65628;stroke:#a65628;" x="91.172727" xlink:href="#m97a7daf3dc" y="37.112674"/>
     <use style="fill:#a65628;stroke:#a65628;" x="96.245455" xlink:href="#m97a7daf3dc" y="36.017715"/>
     <use style="fill:#a65628;stroke:#a65628;" x="101.318182" xlink:href="#m97a7daf3dc" y="35.586323"/>
     <use style="fill:#a65628;stroke:#a65628;" x="106.390909" xlink:href="#m97a7daf3dc" y="35.206931"/>
     <use style="fill:#a65628;stroke:#a65628;" x="111.463636" xlink:href="#m97a7daf3dc" y="34.637946"/>
     <use style="fill:#a65628;stroke:#a65628;" x="116.536364" xlink:href="#m97a7daf3dc" y="34.276011"/>
     <use style="fill:#a65628;stroke:#a65628;" x="121.609091" xlink:href="#m97a7daf3dc" y="33.306486"/>
     <use style="fill:#a65628;stroke:#a65628;" x="126.681818" xlink:href="#m97a7daf3dc" y="33.034509"/>
     <use style="fill:#a65628;stroke:#a65628;" x="131.754545" xlink:href="#m97a7daf3dc" y="31.569446"/>
     <use style="fill:#a65628;stroke:#a65628;" x="136.827273" xlink:href="#m97a7daf3dc" y="31.500767"/>
    </g>
   </g>
   <g id="line2d_91">
    <path clip-path="url(#p808f02e349)" d="M 35.372727 93.372993 
L 40.445455 62.404044 
L 45.518182 53.141541 
L 50.590909 48.832636 
L 55.663636 46.067827 
L 60.736364 44.199853 
L 65.809091 43.19754 
L 70.881818 42.508376 
L 75.954545 41.727375 
L 81.027273 41.06552 
L 86.1 40.176142 
L 91.172727 39.861393 
L 96.245455 39.120343 
L 101.318182 39.06115 
L 106.390909 37.780149 
L 111.463636 37.442565 
L 116.536364 36.770275 
L 121.609091 36.137489 
L 126.681818 35.255635 
L 131.754545 34.546914 
L 136.827273 33.906764 
" style="fill:none;stroke:#984ea3;stroke-linecap:square;stroke-width:1.5;"/>
    <defs>
     <path d="M 0 0.5 
C 0.132602 0.5 0.25979 0.447317 0.353553 0.353553 
C 0.447317 0.25979 0.5 0.132602 0.5 0 
C 0.5 -0.132602 0.447317 -0.25979 0.353553 -0.353553 
C 0.25979 -0.447317 0.132602 -0.5 0 -0.5 
C -0.132602 -0.5 -0.25979 -0.447317 -0.353553 -0.353553 
C -0.447317 -0.25979 -0.5 -0.132602 -0.5 0 
C -0.5 0.132602 -0.447317 0.25979 -0.353553 0.353553 
C -0.25979 0.447317 -0.132602 0.5 0 0.5 
z
" id="mb6d2fded6a" style="stroke:#984ea3;"/>
    </defs>
    <g clip-path="url(#p808f02e349)">
     <use style="fill:#984ea3;stroke:#984ea3;" x="35.372727" xlink:href="#mb6d2fded6a" y="93.372993"/>
     <use style="fill:#984ea3;stroke:#984ea3;" x="40.445455" xlink:href="#mb6d2fded6a" y="62.404044"/>
     <use style="fill:#984ea3;stroke:#984ea3;" x="45.518182" xlink:href="#mb6d2fded6a" y="53.141541"/>
     <use style="fill:#984ea3;stroke:#984ea3;" x="50.590909" xlink:href="#mb6d2fded6a" y="48.832636"/>
     <use style="fill:#984ea3;stroke:#984ea3;" x="55.663636" xlink:href="#mb6d2fded6a" y="46.067827"/>
     <use style="fill:#984ea3;stroke:#984ea3;" x="60.736364" xlink:href="#mb6d2fded6a" y="44.199853"/>
     <use style="fill:#984ea3;stroke:#984ea3;" x="65.809091" xlink:href="#mb6d2fded6a" y="43.19754"/>
     <use style="fill:#984ea3;stroke:#984ea3;" x="70.881818" xlink:href="#mb6d2fded6a" y="42.508376"/>
     <use style="fill:#984ea3;stroke:#984ea3;" x="75.954545" xlink:href="#mb6d2fded6a" y="41.727375"/>
     <use style="fill:#984ea3;stroke:#984ea3;" x="81.027273" xlink:href="#mb6d2fded6a" y="41.06552"/>
     <use style="fill:#984ea3;stroke:#984ea3;" x="86.1" xlink:href="#mb6d2fded6a" y="40.176142"/>
     <use style="fill:#984ea3;stroke:#984ea3;" x="91.172727" xlink:href="#mb6d2fded6a" y="39.861393"/>
     <use style="fill:#984ea3;stroke:#984ea3;" x="96.245455" xlink:href="#mb6d2fded6a" y="39.120343"/>
     <use style="fill:#984ea3;stroke:#984ea3;" x="101.318182" xlink:href="#mb6d2fded6a" y="39.06115"/>
     <use style="fill:#984ea3;stroke:#984ea3;" x="106.390909" xlink:href="#mb6d2fded6a" y="37.780149"/>
     <use style="fill:#984ea3;stroke:#984ea3;" x="111.463636" xlink:href="#mb6d2fded6a" y="37.442565"/>
     <use style="fill:#984ea3;stroke:#984ea3;" x="116.536364" xlink:href="#mb6d2fded6a" y="36.770275"/>
     <use style="fill:#984ea3;stroke:#984ea3;" x="121.609091" xlink:href="#mb6d2fded6a" y="36.137489"/>
     <use style="fill:#984ea3;stroke:#984ea3;" x="126.681818" xlink:href="#mb6d2fded6a" y="35.255635"/>
     <use style="fill:#984ea3;stroke:#984ea3;" x="131.754545" xlink:href="#mb6d2fded6a" y="34.546914"/>
     <use style="fill:#984ea3;stroke:#984ea3;" x="136.827273" xlink:href="#mb6d2fded6a" y="33.906764"/>
    </g>
   </g>
   <g id="line2d_92">
    <path clip-path="url(#p808f02e349)" d="M 35.372727 95.165599 
L 40.445455 63.603099 
L 45.518182 54.762039 
L 50.590909 50.863376 
L 55.663636 47.737423 
L 60.736364 45.891605 
L 65.809091 44.803314 
L 70.881818 43.859455 
L 75.954545 43.009976 
L 81.027273 42.462164 
L 86.1 41.323998 
L 91.172727 41.130957 
L 96.245455 40.359384 
L 101.318182 39.774706 
L 106.390909 38.774913 
L 111.463636 38.317385 
L 116.536364 37.440031 
L 121.609091 36.816528 
L 126.681818 36.065405 
L 131.754545 35.521224 
L 136.827273 35.047481 
" style="fill:none;stroke:#ff7f00;stroke-linecap:square;stroke-width:1.5;"/>
    <defs>
     <path d="M 0 0.5 
C 0.132602 0.5 0.25979 0.447317 0.353553 0.353553 
C 0.447317 0.25979 0.5 0.132602 0.5 0 
C 0.5 -0.132602 0.447317 -0.25979 0.353553 -0.353553 
C 0.25979 -0.447317 0.132602 -0.5 0 -0.5 
C -0.132602 -0.5 -0.25979 -0.447317 -0.353553 -0.353553 
C -0.447317 -0.25979 -0.5 -0.132602 -0.5 0 
C -0.5 0.132602 -0.447317 0.25979 -0.353553 0.353553 
C -0.25979 0.447317 -0.132602 0.5 0 0.5 
z
" id="m982a5fc1bf" style="stroke:#ff7f00;"/>
    </defs>
    <g clip-path="url(#p808f02e349)">
     <use style="fill:#ff7f00;stroke:#ff7f00;" x="35.372727" xlink:href="#m982a5fc1bf" y="95.165599"/>
     <use style="fill:#ff7f00;stroke:#ff7f00;" x="40.445455" xlink:href="#m982a5fc1bf" y="63.603099"/>
     <use style="fill:#ff7f00;stroke:#ff7f00;" x="45.518182" xlink:href="#m982a5fc1bf" y="54.762039"/>
     <use style="fill:#ff7f00;stroke:#ff7f00;" x="50.590909" xlink:href="#m982a5fc1bf" y="50.863376"/>
     <use style="fill:#ff7f00;stroke:#ff7f00;" x="55.663636" xlink:href="#m982a5fc1bf" y="47.737423"/>
     <use style="fill:#ff7f00;stroke:#ff7f00;" x="60.736364" xlink:href="#m982a5fc1bf" y="45.891605"/>
     <use style="fill:#ff7f00;stroke:#ff7f00;" x="65.809091" xlink:href="#m982a5fc1bf" y="44.803314"/>
     <use style="fill:#ff7f00;stroke:#ff7f00;" x="70.881818" xlink:href="#m982a5fc1bf" y="43.859455"/>
     <use style="fill:#ff7f00;stroke:#ff7f00;" x="75.954545" xlink:href="#m982a5fc1bf" y="43.009976"/>
     <use style="fill:#ff7f00;stroke:#ff7f00;" x="81.027273" xlink:href="#m982a5fc1bf" y="42.462164"/>
     <use style="fill:#ff7f00;stroke:#ff7f00;" x="86.1" xlink:href="#m982a5fc1bf" y="41.323998"/>
     <use style="fill:#ff7f00;stroke:#ff7f00;" x="91.172727" xlink:href="#m982a5fc1bf" y="41.130957"/>
     <use style="fill:#ff7f00;stroke:#ff7f00;" x="96.245455" xlink:href="#m982a5fc1bf" y="40.359384"/>
     <use style="fill:#ff7f00;stroke:#ff7f00;" x="101.318182" xlink:href="#m982a5fc1bf" y="39.774706"/>
     <use style="fill:#ff7f00;stroke:#ff7f00;" x="106.390909" xlink:href="#m982a5fc1bf" y="38.774913"/>
     <use style="fill:#ff7f00;stroke:#ff7f00;" x="111.463636" xlink:href="#m982a5fc1bf" y="38.317385"/>
     <use style="fill:#ff7f00;stroke:#ff7f00;" x="116.536364" xlink:href="#m982a5fc1bf" y="37.440031"/>
     <use style="fill:#ff7f00;stroke:#ff7f00;" x="121.609091" xlink:href="#m982a5fc1bf" y="36.816528"/>
     <use style="fill:#ff7f00;stroke:#ff7f00;" x="126.681818" xlink:href="#m982a5fc1bf" y="36.065405"/>
     <use style="fill:#ff7f00;stroke:#ff7f00;" x="131.754545" xlink:href="#m982a5fc1bf" y="35.521224"/>
     <use style="fill:#ff7f00;stroke:#ff7f00;" x="136.827273" xlink:href="#m982a5fc1bf" y="35.047481"/>
    </g>
   </g>
   <g id="line2d_93">
    <path clip-path="url(#p808f02e349)" d="M 35.372727 96.454499 
L 40.445455 65.005143 
L 45.518182 55.887248 
L 50.590909 51.732845 
L 55.663636 48.822326 
L 60.736364 46.681847 
L 65.809091 44.99951 
L 70.881818 44.416876 
L 75.954545 43.599802 
L 81.027273 43.099069 
L 86.1 42.458549 
L 91.172727 41.908026 
L 96.245455 41.090848 
L 101.318182 40.400657 
L 106.390909 39.515957 
L 111.463636 39.144243 
L 116.536364 37.976931 
L 121.609091 37.057191 
L 126.681818 36.503769 
L 131.754545 35.856889 
L 136.827273 35.169193 
" style="fill:none;stroke:#e41a1c;stroke-linecap:square;stroke-width:1.5;"/>
    <defs>
     <path d="M 0 0.5 
C 0.132602 0.5 0.25979 0.447317 0.353553 0.353553 
C 0.447317 0.25979 0.5 0.132602 0.5 0 
C 0.5 -0.132602 0.447317 -0.25979 0.353553 -0.353553 
C 0.25979 -0.447317 0.132602 -0.5 0 -0.5 
C -0.132602 -0.5 -0.25979 -0.447317 -0.353553 -0.353553 
C -0.447317 -0.25979 -0.5 -0.132602 -0.5 0 
C -0.5 0.132602 -0.447317 0.25979 -0.353553 0.353553 
C -0.25979 0.447317 -0.132602 0.5 0 0.5 
z
" id="m469af3d821" style="stroke:#e41a1c;"/>
    </defs>
    <g clip-path="url(#p808f02e349)">
     <use style="fill:#e41a1c;stroke:#e41a1c;" x="35.372727" xlink:href="#m469af3d821" y="96.454499"/>
     <use style="fill:#e41a1c;stroke:#e41a1c;" x="40.445455" xlink:href="#m469af3d821" y="65.005143"/>
     <use style="fill:#e41a1c;stroke:#e41a1c;" x="45.518182" xlink:href="#m469af3d821" y="55.887248"/>
     <use style="fill:#e41a1c;stroke:#e41a1c;" x="50.590909" xlink:href="#m469af3d821" y="51.732845"/>
     <use style="fill:#e41a1c;stroke:#e41a1c;" x="55.663636" xlink:href="#m469af3d821" y="48.822326"/>
     <use style="fill:#e41a1c;stroke:#e41a1c;" x="60.736364" xlink:href="#m469af3d821" y="46.681847"/>
     <use style="fill:#e41a1c;stroke:#e41a1c;" x="65.809091" xlink:href="#m469af3d821" y="44.99951"/>
     <use style="fill:#e41a1c;stroke:#e41a1c;" x="70.881818" xlink:href="#m469af3d821" y="44.416876"/>
     <use style="fill:#e41a1c;stroke:#e41a1c;" x="75.954545" xlink:href="#m469af3d821" y="43.599802"/>
     <use style="fill:#e41a1c;stroke:#e41a1c;" x="81.027273" xlink:href="#m469af3d821" y="43.099069"/>
     <use style="fill:#e41a1c;stroke:#e41a1c;" x="86.1" xlink:href="#m469af3d821" y="42.458549"/>
     <use style="fill:#e41a1c;stroke:#e41a1c;" x="91.172727" xlink:href="#m469af3d821" y="41.908026"/>
     <use style="fill:#e41a1c;stroke:#e41a1c;" x="96.245455" xlink:href="#m469af3d821" y="41.090848"/>
     <use style="fill:#e41a1c;stroke:#e41a1c;" x="101.318182" xlink:href="#m469af3d821" y="40.400657"/>
     <use style="fill:#e41a1c;stroke:#e41a1c;" x="106.390909" xlink:href="#m469af3d821" y="39.515957"/>
     <use style="fill:#e41a1c;stroke:#e41a1c;" x="111.463636" xlink:href="#m469af3d821" y="39.144243"/>
     <use style="fill:#e41a1c;stroke:#e41a1c;" x="116.536364" xlink:href="#m469af3d821" y="37.976931"/>
     <use style="fill:#e41a1c;stroke:#e41a1c;" x="121.609091" xlink:href="#m469af3d821" y="37.057191"/>
     <use style="fill:#e41a1c;stroke:#e41a1c;" x="126.681818" xlink:href="#m469af3d821" y="36.503769"/>
     <use style="fill:#e41a1c;stroke:#e41a1c;" x="131.754545" xlink:href="#m469af3d821" y="35.856889"/>
     <use style="fill:#e41a1c;stroke:#e41a1c;" x="136.827273" xlink:href="#m469af3d821" y="35.169193"/>
    </g>
   </g>
   <g id="patch_3">
    <path d="M 30.3 108.72 
L 30.3 0 
" style="fill:none;stroke:#000000;stroke-linecap:square;stroke-linejoin:miter;stroke-width:0.5;"/>
   </g>
   <g id="patch_4">
    <path d="M 141.9 108.72 
L 141.9 0 
" style="fill:none;stroke:#000000;stroke-linecap:square;stroke-linejoin:miter;stroke-width:0.5;"/>
   </g>
   <g id="patch_5">
    <path d="M 30.3 108.72 
L 141.9 108.72 
" style="fill:none;stroke:#000000;stroke-linecap:square;stroke-linejoin:miter;stroke-width:0.5;"/>
   </g>
   <g id="patch_6">
    <path d="M 30.3 0 
L 141.9 0 
" style="fill:none;stroke:#000000;stroke-linecap:square;stroke-linejoin:miter;stroke-width:0.5;"/>
   </g>
  </g>
 </g>
 <defs>
  <clipPath id="p808f02e349">
   <rect height="108.72" width="111.6" x="30.3" y="0"/>
  </clipPath>
 </defs>
</svg>
