<?xml version="1.0" encoding="utf-8" standalone="no"?>
<!DOCTYPE svg PUBLIC "-//W3C//DTD SVG 1.1//EN"
  "http://www.w3.org/Graphics/SVG/1.1/DTD/svg11.dtd">
<!-- Created with matplotlib (https://matplotlib.org/) -->
<svg height="128.365312pt" version="1.1" viewBox="0 0 145.249148 128.365312" width="145.249148pt" xmlns="http://www.w3.org/2000/svg" xmlns:xlink="http://www.w3.org/1999/xlink">
 <defs>
  <style type="text/css">
*{stroke-linecap:butt;stroke-linejoin:round;}
  </style>
 </defs>
 <g id="figure_1">
  <g id="patch_1">
   <path d="M 0 128.365312 
L 145.249148 128.365312 
L 145.249148 0 
L 0 0 
z
" style="fill:none;"/>
  </g>
  <g id="axes_1">
   <g id="patch_2">
    <path d="M 30.240625 108.72 
L 141.840625 108.72 
L 141.840625 0 
L 30.240625 0 
z
" style="fill:none;"/>
   </g>
   <g id="matplotlib.axis_1">
    <g id="xtick_1">
     <g id="line2d_1">
      <defs>
       <path d="M 0 0 
L 0 -3.5 
" id="mceadb4c528" style="stroke:#000000;stroke-width:0.5;"/>
      </defs>
      <g>
       <use style="stroke:#000000;stroke-width:0.5;" x="136.767898" xlink:href="#mceadb4c528" y="108.72"/>
      </g>
     </g>
     <g id="line2d_2">
      <defs>
       <path d="M 0 0 
L 0 3.5 
" id="mf23e31ca8a" style="stroke:#000000;stroke-width:0.5;"/>
      </defs>
      <g>
       <use style="stroke:#000000;stroke-width:0.5;" x="136.767898" xlink:href="#mf23e31ca8a" y="0"/>
      </g>
     </g>
     <g id="text_1">
      <text style="font-family:Arial;font-size:10px;font-style:normal;font-weight:normal;text-anchor:middle;" transform="rotate(-0, 136.767898, 116.877812)" x="136.767898" y="116.877812">−10</text>
     </g>
    </g>
    <g id="xtick_2">
     <g id="line2d_3">
      <g>
       <use style="stroke:#000000;stroke-width:0.5;" x="86.040625" xlink:href="#mceadb4c528" y="108.72"/>
      </g>
     </g>
     <g id="line2d_4">
      <g>
       <use style="stroke:#000000;stroke-width:0.5;" x="86.040625" xlink:href="#mf23e31ca8a" y="0"/>
      </g>
     </g>
     <g id="text_2">
      <text style="font-family:Arial;font-size:10px;font-style:normal;font-weight:normal;text-anchor:middle;" transform="rotate(-0, 86.040625, 116.877812)" x="86.040625" y="116.877812">−5</text>
     </g>
    </g>
    <g id="xtick_3">
     <g id="line2d_5">
      <g>
       <use style="stroke:#000000;stroke-width:0.5;" x="35.313352" xlink:href="#mceadb4c528" y="108.72"/>
      </g>
     </g>
     <g id="line2d_6">
      <g>
       <use style="stroke:#000000;stroke-width:0.5;" x="35.313352" xlink:href="#mf23e31ca8a" y="0"/>
      </g>
     </g>
     <g id="text_3">
      <text style="font-family:Arial;font-size:10px;font-style:normal;font-weight:normal;text-anchor:middle;" transform="rotate(-0, 35.313352, 116.877812)" x="35.313352" y="116.877812">0</text>
     </g>
    </g>
    <g id="xtick_4">
     <g id="line2d_7">
      <defs>
       <path d="M 0 0 
L 0 -2 
" id="m5dd9c767ab" style="stroke:#000000;stroke-width:0.5;"/>
      </defs>
      <g>
       <use style="stroke:#000000;stroke-width:0.5;" x="126.622443" xlink:href="#m5dd9c767ab" y="108.72"/>
      </g>
     </g>
     <g id="line2d_8">
      <defs>
       <path d="M 0 0 
L 0 2 
" id="m73009bf8f3" style="stroke:#000000;stroke-width:0.5;"/>
      </defs>
      <g>
       <use style="stroke:#000000;stroke-width:0.5;" x="126.622443" xlink:href="#m73009bf8f3" y="0"/>
      </g>
     </g>
    </g>
    <g id="xtick_5">
     <g id="line2d_9">
      <g>
       <use style="stroke:#000000;stroke-width:0.5;" x="116.476989" xlink:href="#m5dd9c767ab" y="108.72"/>
      </g>
     </g>
     <g id="line2d_10">
      <g>
       <use style="stroke:#000000;stroke-width:0.5;" x="116.476989" xlink:href="#m73009bf8f3" y="0"/>
      </g>
     </g>
    </g>
    <g id="xtick_6">
     <g id="line2d_11">
      <g>
       <use style="stroke:#000000;stroke-width:0.5;" x="106.331534" xlink:href="#m5dd9c767ab" y="108.72"/>
      </g>
     </g>
     <g id="line2d_12">
      <g>
       <use style="stroke:#000000;stroke-width:0.5;" x="106.331534" xlink:href="#m73009bf8f3" y="0"/>
      </g>
     </g>
    </g>
    <g id="xtick_7">
     <g id="line2d_13">
      <g>
       <use style="stroke:#000000;stroke-width:0.5;" x="96.18608" xlink:href="#m5dd9c767ab" y="108.72"/>
      </g>
     </g>
     <g id="line2d_14">
      <g>
       <use style="stroke:#000000;stroke-width:0.5;" x="96.18608" xlink:href="#m73009bf8f3" y="0"/>
      </g>
     </g>
    </g>
    <g id="xtick_8">
     <g id="line2d_15">
      <g>
       <use style="stroke:#000000;stroke-width:0.5;" x="75.89517" xlink:href="#m5dd9c767ab" y="108.72"/>
      </g>
     </g>
     <g id="line2d_16">
      <g>
       <use style="stroke:#000000;stroke-width:0.5;" x="75.89517" xlink:href="#m73009bf8f3" y="0"/>
      </g>
     </g>
    </g>
    <g id="xtick_9">
     <g id="line2d_17">
      <g>
       <use style="stroke:#000000;stroke-width:0.5;" x="65.749716" xlink:href="#m5dd9c767ab" y="108.72"/>
      </g>
     </g>
     <g id="line2d_18">
      <g>
       <use style="stroke:#000000;stroke-width:0.5;" x="65.749716" xlink:href="#m73009bf8f3" y="0"/>
      </g>
     </g>
    </g>
    <g id="xtick_10">
     <g id="line2d_19">
      <g>
       <use style="stroke:#000000;stroke-width:0.5;" x="55.604261" xlink:href="#m5dd9c767ab" y="108.72"/>
      </g>
     </g>
     <g id="line2d_20">
      <g>
       <use style="stroke:#000000;stroke-width:0.5;" x="55.604261" xlink:href="#m73009bf8f3" y="0"/>
      </g>
     </g>
    </g>
    <g id="xtick_11">
     <g id="line2d_21">
      <g>
       <use style="stroke:#000000;stroke-width:0.5;" x="45.458807" xlink:href="#m5dd9c767ab" y="108.72"/>
      </g>
     </g>
     <g id="line2d_22">
      <g>
       <use style="stroke:#000000;stroke-width:0.5;" x="45.458807" xlink:href="#m73009bf8f3" y="0"/>
      </g>
     </g>
    </g>
    <g id="text_4">
     <!-- $\it{-V_{DS}}$ (V) -->
     <g transform="translate(65.290625 126.165312)">
      <text>
       <tspan style="font-family:DejaVu Sans;font-size:10px;font-style:book;font-weight:book;" x="0" y="-0.703125">−</tspan>
       <tspan style="font-family:DejaVu Sans;font-size:10px;font-style:oblique;font-weight:oblique;" x="8.378906" y="-0.703125">V</tspan>
       <tspan style="font-family:DejaVu Sans;font-size:7px;font-style:oblique;font-weight:oblique;" x="15.219727 20.609863" y="0.9375">DS</tspan>
       <tspan style="font-family:Arial;font-size:10px;font-style:regular;font-weight:regular;" x="25.32666 28.10498 31.435059 38.10498" y="-0.703125"> (V)</tspan>
      </text>
     </g>
    </g>
   </g>
   <g id="matplotlib.axis_2">
    <g id="ytick_1">
     <g id="line2d_23">
      <defs>
       <path d="M 0 0 
L 3.5 0 
" id="m735c818b00" style="stroke:#000000;stroke-width:0.5;"/>
      </defs>
      <g>
       <use style="stroke:#000000;stroke-width:0.5;" x="30.240625" xlink:href="#m735c818b00" y="15.390393"/>
      </g>
     </g>
     <g id="line2d_24">
      <defs>
       <path d="M 0 0 
L -3.5 0 
" id="m9b300931c9" style="stroke:#000000;stroke-width:0.5;"/>
      </defs>
      <g>
       <use style="stroke:#000000;stroke-width:0.5;" x="141.840625" xlink:href="#m9b300931c9" y="15.390393"/>
      </g>
     </g>
     <g id="text_5">
      <text style="font-family:Arial;font-size:10px;font-style:normal;font-weight:normal;text-anchor:end;" transform="rotate(-0, 29.240625, 18.9693)" x="29.240625" y="18.9693">−1.0</text>
     </g>
    </g>
    <g id="ytick_2">
     <g id="line2d_25">
      <g>
       <use style="stroke:#000000;stroke-width:0.5;" x="30.240625" xlink:href="#m735c818b00" y="57.734022"/>
      </g>
     </g>
     <g id="line2d_26">
      <g>
       <use style="stroke:#000000;stroke-width:0.5;" x="141.840625" xlink:href="#m9b300931c9" y="57.734022"/>
      </g>
     </g>
     <g id="text_6">
      <text style="font-family:Arial;font-size:10px;font-style:normal;font-weight:normal;text-anchor:end;" transform="rotate(-0, 29.240625, 61.312928)" x="29.240625" y="61.312928">−0.5</text>
     </g>
    </g>
    <g id="ytick_3">
     <g id="line2d_27">
      <g>
       <use style="stroke:#000000;stroke-width:0.5;" x="30.240625" xlink:href="#m735c818b00" y="100.077651"/>
      </g>
     </g>
     <g id="line2d_28">
      <g>
       <use style="stroke:#000000;stroke-width:0.5;" x="141.840625" xlink:href="#m9b300931c9" y="100.077651"/>
      </g>
     </g>
     <g id="text_7">
      <text style="font-family:Arial;font-size:10px;font-style:normal;font-weight:normal;text-anchor:end;" transform="rotate(-0, 29.240625, 103.656557)" x="29.240625" y="103.656557">0.0</text>
     </g>
    </g>
    <g id="ytick_4">
     <g id="line2d_29">
      <defs>
       <path d="M 0 0 
L 2 0 
" id="m538b28f463" style="stroke:#000000;stroke-width:0.5;"/>
      </defs>
      <g>
       <use style="stroke:#000000;stroke-width:0.5;" x="30.240625" xlink:href="#m538b28f463" y="6.921668"/>
      </g>
     </g>
     <g id="line2d_30">
      <defs>
       <path d="M 0 0 
L -2 0 
" id="m76ae255293" style="stroke:#000000;stroke-width:0.5;"/>
      </defs>
      <g>
       <use style="stroke:#000000;stroke-width:0.5;" x="141.840625" xlink:href="#m76ae255293" y="6.921668"/>
      </g>
     </g>
    </g>
    <g id="ytick_5">
     <g id="line2d_31">
      <g>
       <use style="stroke:#000000;stroke-width:0.5;" x="30.240625" xlink:href="#m538b28f463" y="23.859119"/>
      </g>
     </g>
     <g id="line2d_32">
      <g>
       <use style="stroke:#000000;stroke-width:0.5;" x="141.840625" xlink:href="#m76ae255293" y="23.859119"/>
      </g>
     </g>
    </g>
    <g id="ytick_6">
     <g id="line2d_33">
      <g>
       <use style="stroke:#000000;stroke-width:0.5;" x="30.240625" xlink:href="#m538b28f463" y="32.327845"/>
      </g>
     </g>
     <g id="line2d_34">
      <g>
       <use style="stroke:#000000;stroke-width:0.5;" x="141.840625" xlink:href="#m76ae255293" y="32.327845"/>
      </g>
     </g>
    </g>
    <g id="ytick_7">
     <g id="line2d_35">
      <g>
       <use style="stroke:#000000;stroke-width:0.5;" x="30.240625" xlink:href="#m538b28f463" y="40.796571"/>
      </g>
     </g>
     <g id="line2d_36">
      <g>
       <use style="stroke:#000000;stroke-width:0.5;" x="141.840625" xlink:href="#m76ae255293" y="40.796571"/>
      </g>
     </g>
    </g>
    <g id="ytick_8">
     <g id="line2d_37">
      <g>
       <use style="stroke:#000000;stroke-width:0.5;" x="30.240625" xlink:href="#m538b28f463" y="49.265296"/>
      </g>
     </g>
     <g id="line2d_38">
      <g>
       <use style="stroke:#000000;stroke-width:0.5;" x="141.840625" xlink:href="#m76ae255293" y="49.265296"/>
      </g>
     </g>
    </g>
    <g id="ytick_9">
     <g id="line2d_39">
      <g>
       <use style="stroke:#000000;stroke-width:0.5;" x="30.240625" xlink:href="#m538b28f463" y="66.202748"/>
      </g>
     </g>
     <g id="line2d_40">
      <g>
       <use style="stroke:#000000;stroke-width:0.5;" x="141.840625" xlink:href="#m76ae255293" y="66.202748"/>
      </g>
     </g>
    </g>
    <g id="ytick_10">
     <g id="line2d_41">
      <g>
       <use style="stroke:#000000;stroke-width:0.5;" x="30.240625" xlink:href="#m538b28f463" y="74.671473"/>
      </g>
     </g>
     <g id="line2d_42">
      <g>
       <use style="stroke:#000000;stroke-width:0.5;" x="141.840625" xlink:href="#m76ae255293" y="74.671473"/>
      </g>
     </g>
    </g>
    <g id="ytick_11">
     <g id="line2d_43">
      <g>
       <use style="stroke:#000000;stroke-width:0.5;" x="30.240625" xlink:href="#m538b28f463" y="83.140199"/>
      </g>
     </g>
     <g id="line2d_44">
      <g>
       <use style="stroke:#000000;stroke-width:0.5;" x="141.840625" xlink:href="#m76ae255293" y="83.140199"/>
      </g>
     </g>
    </g>
    <g id="ytick_12">
     <g id="line2d_45">
      <g>
       <use style="stroke:#000000;stroke-width:0.5;" x="30.240625" xlink:href="#m538b28f463" y="91.608925"/>
      </g>
     </g>
     <g id="line2d_46">
      <g>
       <use style="stroke:#000000;stroke-width:0.5;" x="141.840625" xlink:href="#m76ae255293" y="91.608925"/>
      </g>
     </g>
    </g>
    <g id="ytick_13">
     <g id="line2d_47">
      <g>
       <use style="stroke:#000000;stroke-width:0.5;" x="30.240625" xlink:href="#m538b28f463" y="108.546376"/>
      </g>
     </g>
     <g id="line2d_48">
      <g>
       <use style="stroke:#000000;stroke-width:0.5;" x="141.840625" xlink:href="#m76ae255293" y="108.546376"/>
      </g>
     </g>
    </g>
    <g id="text_8">
     <!-- $\it{-I_{D}}$ (μA) -->
     <g transform="translate(7.3 73.81)rotate(-90)">
      <text>
       <tspan style="font-family:DejaVu Sans;font-size:10px;font-style:book;font-weight:book;" x="0" y="-0.703125">−</tspan>
       <tspan style="font-family:DejaVu Sans;font-size:10px;font-style:oblique;font-weight:oblique;" x="8.378906" y="-0.703125">I</tspan>
       <tspan style="font-family:DejaVu Sans;font-size:7px;font-style:oblique;font-weight:oblique;" x="11.328125" y="0.9375">D</tspan>
       <tspan style="font-family:Arial;font-size:10px;font-style:regular;font-weight:regular;" x="16.991699 19.77002 23.100098 28.861816 35.531738" y="-0.703125"> (μA)</tspan>
      </text>
     </g>
    </g>
   </g>
   <g id="line2d_49">
    <path clip-path="url(#p51ccdd3f81)" d="M 35.313352 100.080973 
L 40.38608 99.606851 
L 45.458807 99.113431 
L 50.531534 98.626595 
L 55.604261 98.146897 
L 60.676989 97.699384 
L 65.749716 97.289179 
L 70.822443 96.841652 
L 75.89517 96.37986 
L 80.967898 95.995526 
L 86.040625 95.47861 
L 91.113352 94.939273 
L 96.18608 94.255123 
L 101.258807 93.734026 
L 106.331534 93.05965 
L 111.404261 92.199761 
L 116.476989 90.871467 
L 121.549716 90.114292 
L 126.622443 88.952941 
L 131.69517 87.700146 
L 136.767898 86.379618 
" style="fill:none;stroke:#e41a1c;stroke-linecap:square;stroke-width:1.5;"/>
    <defs>
     <path d="M 0 0.5 
C 0.132602 0.5 0.25979 0.447317 0.353553 0.353553 
C 0.447317 0.25979 0.5 0.132602 0.5 0 
C 0.5 -0.132602 0.447317 -0.25979 0.353553 -0.353553 
C 0.25979 -0.447317 0.132602 -0.5 0 -0.5 
C -0.132602 -0.5 -0.25979 -0.447317 -0.353553 -0.353553 
C -0.447317 -0.25979 -0.5 -0.132602 -0.5 0 
C -0.5 0.132602 -0.447317 0.25979 -0.353553 0.353553 
C -0.25979 0.447317 -0.132602 0.5 0 0.5 
z
" id="m5b4dc89ba6" style="stroke:#e41a1c;"/>
    </defs>
    <g clip-path="url(#p51ccdd3f81)">
     <use style="fill:#e41a1c;stroke:#e41a1c;" x="35.313352" xlink:href="#m5b4dc89ba6" y="100.080973"/>
     <use style="fill:#e41a1c;stroke:#e41a1c;" x="40.38608" xlink:href="#m5b4dc89ba6" y="99.606851"/>
     <use style="fill:#e41a1c;stroke:#e41a1c;" x="45.458807" xlink:href="#m5b4dc89ba6" y="99.113431"/>
     <use style="fill:#e41a1c;stroke:#e41a1c;" x="50.531534" xlink:href="#m5b4dc89ba6" y="98.626595"/>
     <use style="fill:#e41a1c;stroke:#e41a1c;" x="55.604261" xlink:href="#m5b4dc89ba6" y="98.146897"/>
     <use style="fill:#e41a1c;stroke:#e41a1c;" x="60.676989" xlink:href="#m5b4dc89ba6" y="97.699384"/>
     <use style="fill:#e41a1c;stroke:#e41a1c;" x="65.749716" xlink:href="#m5b4dc89ba6" y="97.289179"/>
     <use style="fill:#e41a1c;stroke:#e41a1c;" x="70.822443" xlink:href="#m5b4dc89ba6" y="96.841652"/>
     <use style="fill:#e41a1c;stroke:#e41a1c;" x="75.89517" xlink:href="#m5b4dc89ba6" y="96.37986"/>
     <use style="fill:#e41a1c;stroke:#e41a1c;" x="80.967898" xlink:href="#m5b4dc89ba6" y="95.995526"/>
     <use style="fill:#e41a1c;stroke:#e41a1c;" x="86.040625" xlink:href="#m5b4dc89ba6" y="95.47861"/>
     <use style="fill:#e41a1c;stroke:#e41a1c;" x="91.113352" xlink:href="#m5b4dc89ba6" y="94.939273"/>
     <use style="fill:#e41a1c;stroke:#e41a1c;" x="96.18608" xlink:href="#m5b4dc89ba6" y="94.255123"/>
     <use style="fill:#e41a1c;stroke:#e41a1c;" x="101.258807" xlink:href="#m5b4dc89ba6" y="93.734026"/>
     <use style="fill:#e41a1c;stroke:#e41a1c;" x="106.331534" xlink:href="#m5b4dc89ba6" y="93.05965"/>
     <use style="fill:#e41a1c;stroke:#e41a1c;" x="111.404261" xlink:href="#m5b4dc89ba6" y="92.199761"/>
     <use style="fill:#e41a1c;stroke:#e41a1c;" x="116.476989" xlink:href="#m5b4dc89ba6" y="90.871467"/>
     <use style="fill:#e41a1c;stroke:#e41a1c;" x="121.549716" xlink:href="#m5b4dc89ba6" y="90.114292"/>
     <use style="fill:#e41a1c;stroke:#e41a1c;" x="126.622443" xlink:href="#m5b4dc89ba6" y="88.952941"/>
     <use style="fill:#e41a1c;stroke:#e41a1c;" x="131.69517" xlink:href="#m5b4dc89ba6" y="87.700146"/>
     <use style="fill:#e41a1c;stroke:#e41a1c;" x="136.767898" xlink:href="#m5b4dc89ba6" y="86.379618"/>
    </g>
   </g>
   <g id="line2d_50">
    <path clip-path="url(#p51ccdd3f81)" d="M 35.313352 100.149834 
L 40.38608 98.778983 
L 45.458807 97.448953 
L 50.531534 96.125931 
L 55.604261 94.881966 
L 60.676989 93.668227 
L 65.749716 92.234436 
L 70.822443 90.493394 
L 75.89517 89.105317 
L 80.967898 87.373425 
L 86.040625 85.507386 
L 91.113352 83.771586 
L 96.18608 82.04688 
L 101.258807 80.326309 
L 106.331534 78.724086 
L 111.404261 77.747148 
L 116.476989 76.466471 
L 121.549716 75.046225 
L 126.622443 73.328241 
L 131.69517 72.0688 
L 136.767898 70.717621 
" style="fill:none;stroke:#ff7f00;stroke-linecap:square;stroke-width:1.5;"/>
    <defs>
     <path d="M 0 0.5 
C 0.132602 0.5 0.25979 0.447317 0.353553 0.353553 
C 0.447317 0.25979 0.5 0.132602 0.5 0 
C 0.5 -0.132602 0.447317 -0.25979 0.353553 -0.353553 
C 0.25979 -0.447317 0.132602 -0.5 0 -0.5 
C -0.132602 -0.5 -0.25979 -0.447317 -0.353553 -0.353553 
C -0.447317 -0.25979 -0.5 -0.132602 -0.5 0 
C -0.5 0.132602 -0.447317 0.25979 -0.353553 0.353553 
C -0.25979 0.447317 -0.132602 0.5 0 0.5 
z
" id="m511d28e268" style="stroke:#ff7f00;"/>
    </defs>
    <g clip-path="url(#p51ccdd3f81)">
     <use style="fill:#ff7f00;stroke:#ff7f00;" x="35.313352" xlink:href="#m511d28e268" y="100.149834"/>
     <use style="fill:#ff7f00;stroke:#ff7f00;" x="40.38608" xlink:href="#m511d28e268" y="98.778983"/>
     <use style="fill:#ff7f00;stroke:#ff7f00;" x="45.458807" xlink:href="#m511d28e268" y="97.448953"/>
     <use style="fill:#ff7f00;stroke:#ff7f00;" x="50.531534" xlink:href="#m511d28e268" y="96.125931"/>
     <use style="fill:#ff7f00;stroke:#ff7f00;" x="55.604261" xlink:href="#m511d28e268" y="94.881966"/>
     <use style="fill:#ff7f00;stroke:#ff7f00;" x="60.676989" xlink:href="#m511d28e268" y="93.668227"/>
     <use style="fill:#ff7f00;stroke:#ff7f00;" x="65.749716" xlink:href="#m511d28e268" y="92.234436"/>
     <use style="fill:#ff7f00;stroke:#ff7f00;" x="70.822443" xlink:href="#m511d28e268" y="90.493394"/>
     <use style="fill:#ff7f00;stroke:#ff7f00;" x="75.89517" xlink:href="#m511d28e268" y="89.105317"/>
     <use style="fill:#ff7f00;stroke:#ff7f00;" x="80.967898" xlink:href="#m511d28e268" y="87.373425"/>
     <use style="fill:#ff7f00;stroke:#ff7f00;" x="86.040625" xlink:href="#m511d28e268" y="85.507386"/>
     <use style="fill:#ff7f00;stroke:#ff7f00;" x="91.113352" xlink:href="#m511d28e268" y="83.771586"/>
     <use style="fill:#ff7f00;stroke:#ff7f00;" x="96.18608" xlink:href="#m511d28e268" y="82.04688"/>
     <use style="fill:#ff7f00;stroke:#ff7f00;" x="101.258807" xlink:href="#m511d28e268" y="80.326309"/>
     <use style="fill:#ff7f00;stroke:#ff7f00;" x="106.331534" xlink:href="#m511d28e268" y="78.724086"/>
     <use style="fill:#ff7f00;stroke:#ff7f00;" x="111.404261" xlink:href="#m511d28e268" y="77.747148"/>
     <use style="fill:#ff7f00;stroke:#ff7f00;" x="116.476989" xlink:href="#m511d28e268" y="76.466471"/>
     <use style="fill:#ff7f00;stroke:#ff7f00;" x="121.549716" xlink:href="#m511d28e268" y="75.046225"/>
     <use style="fill:#ff7f00;stroke:#ff7f00;" x="126.622443" xlink:href="#m511d28e268" y="73.328241"/>
     <use style="fill:#ff7f00;stroke:#ff7f00;" x="131.69517" xlink:href="#m511d28e268" y="72.0688"/>
     <use style="fill:#ff7f00;stroke:#ff7f00;" x="136.767898" xlink:href="#m511d28e268" y="70.717621"/>
    </g>
   </g>
   <g id="line2d_51">
    <path clip-path="url(#p51ccdd3f81)" d="M 35.313352 100.142336 
L 40.38608 98.061997 
L 45.458807 95.941684 
L 50.531534 93.830923 
L 55.604261 91.955714 
L 60.676989 89.349181 
L 65.749716 87.066602 
L 70.822443 84.325258 
L 75.89517 81.42774 
L 80.967898 78.290831 
L 86.040625 75.218813 
L 91.113352 72.301451 
L 96.18608 69.628031 
L 101.258807 66.989748 
L 106.331534 64.299165 
L 111.404261 61.948466 
L 116.476989 59.67682 
L 121.549716 57.547136 
L 126.622443 55.32744 
L 131.69517 53.262171 
L 136.767898 51.821717 
" style="fill:none;stroke:#984ea3;stroke-linecap:square;stroke-width:1.5;"/>
    <defs>
     <path d="M 0 0.5 
C 0.132602 0.5 0.25979 0.447317 0.353553 0.353553 
C 0.447317 0.25979 0.5 0.132602 0.5 0 
C 0.5 -0.132602 0.447317 -0.25979 0.353553 -0.353553 
C 0.25979 -0.447317 0.132602 -0.5 0 -0.5 
C -0.132602 -0.5 -0.25979 -0.447317 -0.353553 -0.353553 
C -0.447317 -0.25979 -0.5 -0.132602 -0.5 0 
C -0.5 0.132602 -0.447317 0.25979 -0.353553 0.353553 
C -0.25979 0.447317 -0.132602 0.5 0 0.5 
z
" id="m7bebf0c05c" style="stroke:#984ea3;"/>
    </defs>
    <g clip-path="url(#p51ccdd3f81)">
     <use style="fill:#984ea3;stroke:#984ea3;" x="35.313352" xlink:href="#m7bebf0c05c" y="100.142336"/>
     <use style="fill:#984ea3;stroke:#984ea3;" x="40.38608" xlink:href="#m7bebf0c05c" y="98.061997"/>
     <use style="fill:#984ea3;stroke:#984ea3;" x="45.458807" xlink:href="#m7bebf0c05c" y="95.941684"/>
     <use style="fill:#984ea3;stroke:#984ea3;" x="50.531534" xlink:href="#m7bebf0c05c" y="93.830923"/>
     <use style="fill:#984ea3;stroke:#984ea3;" x="55.604261" xlink:href="#m7bebf0c05c" y="91.955714"/>
     <use style="fill:#984ea3;stroke:#984ea3;" x="60.676989" xlink:href="#m7bebf0c05c" y="89.349181"/>
     <use style="fill:#984ea3;stroke:#984ea3;" x="65.749716" xlink:href="#m7bebf0c05c" y="87.066602"/>
     <use style="fill:#984ea3;stroke:#984ea3;" x="70.822443" xlink:href="#m7bebf0c05c" y="84.325258"/>
     <use style="fill:#984ea3;stroke:#984ea3;" x="75.89517" xlink:href="#m7bebf0c05c" y="81.42774"/>
     <use style="fill:#984ea3;stroke:#984ea3;" x="80.967898" xlink:href="#m7bebf0c05c" y="78.290831"/>
     <use style="fill:#984ea3;stroke:#984ea3;" x="86.040625" xlink:href="#m7bebf0c05c" y="75.218813"/>
     <use style="fill:#984ea3;stroke:#984ea3;" x="91.113352" xlink:href="#m7bebf0c05c" y="72.301451"/>
     <use style="fill:#984ea3;stroke:#984ea3;" x="96.18608" xlink:href="#m7bebf0c05c" y="69.628031"/>
     <use style="fill:#984ea3;stroke:#984ea3;" x="101.258807" xlink:href="#m7bebf0c05c" y="66.989748"/>
     <use style="fill:#984ea3;stroke:#984ea3;" x="106.331534" xlink:href="#m7bebf0c05c" y="64.299165"/>
     <use style="fill:#984ea3;stroke:#984ea3;" x="111.404261" xlink:href="#m7bebf0c05c" y="61.948466"/>
     <use style="fill:#984ea3;stroke:#984ea3;" x="116.476989" xlink:href="#m7bebf0c05c" y="59.67682"/>
     <use style="fill:#984ea3;stroke:#984ea3;" x="121.549716" xlink:href="#m7bebf0c05c" y="57.547136"/>
     <use style="fill:#984ea3;stroke:#984ea3;" x="126.622443" xlink:href="#m7bebf0c05c" y="55.32744"/>
     <use style="fill:#984ea3;stroke:#984ea3;" x="131.69517" xlink:href="#m7bebf0c05c" y="53.262171"/>
     <use style="fill:#984ea3;stroke:#984ea3;" x="136.767898" xlink:href="#m7bebf0c05c" y="51.821717"/>
    </g>
   </g>
   <g id="line2d_52">
    <path clip-path="url(#p51ccdd3f81)" d="M 35.313352 100.100563 
L 40.38608 96.934369 
L 45.458807 93.697877 
L 50.531534 90.675037 
L 55.604261 88.00688 
L 60.676989 85.162071 
L 65.749716 81.60014 
L 70.822443 78.03397 
L 75.89517 74.25863 
L 80.967898 70.225685 
L 86.040625 66.114618 
L 91.113352 62.719015 
L 96.18608 59.10402 
L 101.258807 56.141409 
L 106.331534 52.478282 
L 111.404261 49.236537 
L 116.476989 46.525727 
L 121.549716 43.377798 
L 126.622443 40.695812 
L 131.69517 37.390007 
L 136.767898 34.409724 
" style="fill:none;stroke:#a65628;stroke-linecap:square;stroke-width:1.5;"/>
    <defs>
     <path d="M 0 0.5 
C 0.132602 0.5 0.25979 0.447317 0.353553 0.353553 
C 0.447317 0.25979 0.5 0.132602 0.5 0 
C 0.5 -0.132602 0.447317 -0.25979 0.353553 -0.353553 
C 0.25979 -0.447317 0.132602 -0.5 0 -0.5 
C -0.132602 -0.5 -0.25979 -0.447317 -0.353553 -0.353553 
C -0.447317 -0.25979 -0.5 -0.132602 -0.5 0 
C -0.5 0.132602 -0.447317 0.25979 -0.353553 0.353553 
C -0.25979 0.447317 -0.132602 0.5 0 0.5 
z
" id="m4cb57585f8" style="stroke:#a65628;"/>
    </defs>
    <g clip-path="url(#p51ccdd3f81)">
     <use style="fill:#a65628;stroke:#a65628;" x="35.313352" xlink:href="#m4cb57585f8" y="100.100563"/>
     <use style="fill:#a65628;stroke:#a65628;" x="40.38608" xlink:href="#m4cb57585f8" y="96.934369"/>
     <use style="fill:#a65628;stroke:#a65628;" x="45.458807" xlink:href="#m4cb57585f8" y="93.697877"/>
     <use style="fill:#a65628;stroke:#a65628;" x="50.531534" xlink:href="#m4cb57585f8" y="90.675037"/>
     <use style="fill:#a65628;stroke:#a65628;" x="55.604261" xlink:href="#m4cb57585f8" y="88.00688"/>
     <use style="fill:#a65628;stroke:#a65628;" x="60.676989" xlink:href="#m4cb57585f8" y="85.162071"/>
     <use style="fill:#a65628;stroke:#a65628;" x="65.749716" xlink:href="#m4cb57585f8" y="81.60014"/>
     <use style="fill:#a65628;stroke:#a65628;" x="70.822443" xlink:href="#m4cb57585f8" y="78.03397"/>
     <use style="fill:#a65628;stroke:#a65628;" x="75.89517" xlink:href="#m4cb57585f8" y="74.25863"/>
     <use style="fill:#a65628;stroke:#a65628;" x="80.967898" xlink:href="#m4cb57585f8" y="70.225685"/>
     <use style="fill:#a65628;stroke:#a65628;" x="86.040625" xlink:href="#m4cb57585f8" y="66.114618"/>
     <use style="fill:#a65628;stroke:#a65628;" x="91.113352" xlink:href="#m4cb57585f8" y="62.719015"/>
     <use style="fill:#a65628;stroke:#a65628;" x="96.18608" xlink:href="#m4cb57585f8" y="59.10402"/>
     <use style="fill:#a65628;stroke:#a65628;" x="101.258807" xlink:href="#m4cb57585f8" y="56.141409"/>
     <use style="fill:#a65628;stroke:#a65628;" x="106.331534" xlink:href="#m4cb57585f8" y="52.478282"/>
     <use style="fill:#a65628;stroke:#a65628;" x="111.404261" xlink:href="#m4cb57585f8" y="49.236537"/>
     <use style="fill:#a65628;stroke:#a65628;" x="116.476989" xlink:href="#m4cb57585f8" y="46.525727"/>
     <use style="fill:#a65628;stroke:#a65628;" x="121.549716" xlink:href="#m4cb57585f8" y="43.377798"/>
     <use style="fill:#a65628;stroke:#a65628;" x="126.622443" xlink:href="#m4cb57585f8" y="40.695812"/>
     <use style="fill:#a65628;stroke:#a65628;" x="131.69517" xlink:href="#m4cb57585f8" y="37.390007"/>
     <use style="fill:#a65628;stroke:#a65628;" x="136.767898" xlink:href="#m4cb57585f8" y="34.409724"/>
    </g>
   </g>
   <g id="line2d_53">
    <path clip-path="url(#p51ccdd3f81)" d="M 35.313352 100.089842 
L 40.38608 95.343091 
L 45.458807 90.925455 
L 50.531534 86.825926 
L 55.604261 83.417858 
L 60.676989 79.697231 
L 65.749716 75.803236 
L 70.822443 71.828088 
L 75.89517 67.518029 
L 80.967898 63.714016 
L 86.040625 59.701461 
L 91.113352 55.745217 
L 96.18608 51.634673 
L 101.258807 48.312285 
L 106.331534 44.848241 
L 111.404261 40.835116 
L 116.476989 37.667083 
L 121.549716 34.786901 
L 126.622443 31.372386 
L 131.69517 28.181522 
L 136.767898 25.430334 
" style="fill:none;stroke:#4daf4a;stroke-linecap:square;stroke-width:1.5;"/>
    <defs>
     <path d="M 0 0.5 
C 0.132602 0.5 0.25979 0.447317 0.353553 0.353553 
C 0.447317 0.25979 0.5 0.132602 0.5 0 
C 0.5 -0.132602 0.447317 -0.25979 0.353553 -0.353553 
C 0.25979 -0.447317 0.132602 -0.5 0 -0.5 
C -0.132602 -0.5 -0.25979 -0.447317 -0.353553 -0.353553 
C -0.447317 -0.25979 -0.5 -0.132602 -0.5 0 
C -0.5 0.132602 -0.447317 0.25979 -0.353553 0.353553 
C -0.25979 0.447317 -0.132602 0.5 0 0.5 
z
" id="mf0d326669b" style="stroke:#4daf4a;"/>
    </defs>
    <g clip-path="url(#p51ccdd3f81)">
     <use style="fill:#4daf4a;stroke:#4daf4a;" x="35.313352" xlink:href="#mf0d326669b" y="100.089842"/>
     <use style="fill:#4daf4a;stroke:#4daf4a;" x="40.38608" xlink:href="#mf0d326669b" y="95.343091"/>
     <use style="fill:#4daf4a;stroke:#4daf4a;" x="45.458807" xlink:href="#mf0d326669b" y="90.925455"/>
     <use style="fill:#4daf4a;stroke:#4daf4a;" x="50.531534" xlink:href="#mf0d326669b" y="86.825926"/>
     <use style="fill:#4daf4a;stroke:#4daf4a;" x="55.604261" xlink:href="#mf0d326669b" y="83.417858"/>
     <use style="fill:#4daf4a;stroke:#4daf4a;" x="60.676989" xlink:href="#mf0d326669b" y="79.697231"/>
     <use style="fill:#4daf4a;stroke:#4daf4a;" x="65.749716" xlink:href="#mf0d326669b" y="75.803236"/>
     <use style="fill:#4daf4a;stroke:#4daf4a;" x="70.822443" xlink:href="#mf0d326669b" y="71.828088"/>
     <use style="fill:#4daf4a;stroke:#4daf4a;" x="75.89517" xlink:href="#mf0d326669b" y="67.518029"/>
     <use style="fill:#4daf4a;stroke:#4daf4a;" x="80.967898" xlink:href="#mf0d326669b" y="63.714016"/>
     <use style="fill:#4daf4a;stroke:#4daf4a;" x="86.040625" xlink:href="#mf0d326669b" y="59.701461"/>
     <use style="fill:#4daf4a;stroke:#4daf4a;" x="91.113352" xlink:href="#mf0d326669b" y="55.745217"/>
     <use style="fill:#4daf4a;stroke:#4daf4a;" x="96.18608" xlink:href="#mf0d326669b" y="51.634673"/>
     <use style="fill:#4daf4a;stroke:#4daf4a;" x="101.258807" xlink:href="#mf0d326669b" y="48.312285"/>
     <use style="fill:#4daf4a;stroke:#4daf4a;" x="106.331534" xlink:href="#mf0d326669b" y="44.848241"/>
     <use style="fill:#4daf4a;stroke:#4daf4a;" x="111.404261" xlink:href="#mf0d326669b" y="40.835116"/>
     <use style="fill:#4daf4a;stroke:#4daf4a;" x="116.476989" xlink:href="#mf0d326669b" y="37.667083"/>
     <use style="fill:#4daf4a;stroke:#4daf4a;" x="121.549716" xlink:href="#mf0d326669b" y="34.786901"/>
     <use style="fill:#4daf4a;stroke:#4daf4a;" x="126.622443" xlink:href="#mf0d326669b" y="31.372386"/>
     <use style="fill:#4daf4a;stroke:#4daf4a;" x="131.69517" xlink:href="#mf0d326669b" y="28.181522"/>
     <use style="fill:#4daf4a;stroke:#4daf4a;" x="136.767898" xlink:href="#mf0d326669b" y="25.430334"/>
    </g>
   </g>
   <g id="line2d_54">
    <path clip-path="url(#p51ccdd3f81)" d="M 35.313352 100.085273 
L 40.38608 93.660272 
L 45.458807 87.350564 
L 50.531534 82.383594 
L 55.604261 77.989403 
L 60.676989 73.903633 
L 65.749716 70.198674 
L 70.822443 65.433975 
L 75.89517 61.523552 
L 80.967898 57.487817 
L 86.040625 53.741895 
L 91.113352 49.019133 
L 96.18608 45.374955 
L 101.258807 41.3296 
L 106.331534 37.910677 
L 111.404261 34.242856 
L 116.476989 30.592111 
L 121.549716 27.91768 
L 126.622443 24.224893 
L 131.69517 20.958578 
L 136.767898 16.750077 
" style="fill:none;stroke:#999999;stroke-linecap:square;stroke-width:1.5;"/>
    <defs>
     <path d="M 0 0.5 
C 0.132602 0.5 0.25979 0.447317 0.353553 0.353553 
C 0.447317 0.25979 0.5 0.132602 0.5 0 
C 0.5 -0.132602 0.447317 -0.25979 0.353553 -0.353553 
C 0.25979 -0.447317 0.132602 -0.5 0 -0.5 
C -0.132602 -0.5 -0.25979 -0.447317 -0.353553 -0.353553 
C -0.447317 -0.25979 -0.5 -0.132602 -0.5 0 
C -0.5 0.132602 -0.447317 0.25979 -0.353553 0.353553 
C -0.25979 0.447317 -0.132602 0.5 0 0.5 
z
" id="m5e5ec444cb" style="stroke:#999999;"/>
    </defs>
    <g clip-path="url(#p51ccdd3f81)">
     <use style="fill:#999999;stroke:#999999;" x="35.313352" xlink:href="#m5e5ec444cb" y="100.085273"/>
     <use style="fill:#999999;stroke:#999999;" x="40.38608" xlink:href="#m5e5ec444cb" y="93.660272"/>
     <use style="fill:#999999;stroke:#999999;" x="45.458807" xlink:href="#m5e5ec444cb" y="87.350564"/>
     <use style="fill:#999999;stroke:#999999;" x="50.531534" xlink:href="#m5e5ec444cb" y="82.383594"/>
     <use style="fill:#999999;stroke:#999999;" x="55.604261" xlink:href="#m5e5ec444cb" y="77.989403"/>
     <use style="fill:#999999;stroke:#999999;" x="60.676989" xlink:href="#m5e5ec444cb" y="73.903633"/>
     <use style="fill:#999999;stroke:#999999;" x="65.749716" xlink:href="#m5e5ec444cb" y="70.198674"/>
     <use style="fill:#999999;stroke:#999999;" x="70.822443" xlink:href="#m5e5ec444cb" y="65.433975"/>
     <use style="fill:#999999;stroke:#999999;" x="75.89517" xlink:href="#m5e5ec444cb" y="61.523552"/>
     <use style="fill:#999999;stroke:#999999;" x="80.967898" xlink:href="#m5e5ec444cb" y="57.487817"/>
     <use style="fill:#999999;stroke:#999999;" x="86.040625" xlink:href="#m5e5ec444cb" y="53.741895"/>
     <use style="fill:#999999;stroke:#999999;" x="91.113352" xlink:href="#m5e5ec444cb" y="49.019133"/>
     <use style="fill:#999999;stroke:#999999;" x="96.18608" xlink:href="#m5e5ec444cb" y="45.374955"/>
     <use style="fill:#999999;stroke:#999999;" x="101.258807" xlink:href="#m5e5ec444cb" y="41.3296"/>
     <use style="fill:#999999;stroke:#999999;" x="106.331534" xlink:href="#m5e5ec444cb" y="37.910677"/>
     <use style="fill:#999999;stroke:#999999;" x="111.404261" xlink:href="#m5e5ec444cb" y="34.242856"/>
     <use style="fill:#999999;stroke:#999999;" x="116.476989" xlink:href="#m5e5ec444cb" y="30.592111"/>
     <use style="fill:#999999;stroke:#999999;" x="121.549716" xlink:href="#m5e5ec444cb" y="27.91768"/>
     <use style="fill:#999999;stroke:#999999;" x="126.622443" xlink:href="#m5e5ec444cb" y="24.224893"/>
     <use style="fill:#999999;stroke:#999999;" x="131.69517" xlink:href="#m5e5ec444cb" y="20.958578"/>
     <use style="fill:#999999;stroke:#999999;" x="136.767898" xlink:href="#m5e5ec444cb" y="16.750077"/>
    </g>
   </g>
   <g id="line2d_55">
    <path clip-path="url(#p51ccdd3f81)" d="M 35.313352 100.08165 
L 40.38608 92.274929 
L 45.458807 84.221514 
L 50.531534 77.891972 
L 55.604261 72.527855 
L 60.676989 68.259834 
L 65.749716 64.297276 
L 70.822443 60.539745 
L 75.89517 56.974681 
L 80.967898 52.877109 
L 86.040625 49.376086 
L 91.113352 45.21332 
L 96.18608 41.344315 
L 101.258807 36.731475 
L 106.331534 33.564853 
L 111.404261 30.555475 
L 116.476989 26.25626 
L 121.549716 22.873557 
L 126.622443 19.228463 
L 131.69517 16.213756 
L 136.767898 13.433771 
" style="fill:none;stroke:#377eb8;stroke-linecap:square;stroke-width:1.5;"/>
    <defs>
     <path d="M 0 0.5 
C 0.132602 0.5 0.25979 0.447317 0.353553 0.353553 
C 0.447317 0.25979 0.5 0.132602 0.5 0 
C 0.5 -0.132602 0.447317 -0.25979 0.353553 -0.353553 
C 0.25979 -0.447317 0.132602 -0.5 0 -0.5 
C -0.132602 -0.5 -0.25979 -0.447317 -0.353553 -0.353553 
C -0.447317 -0.25979 -0.5 -0.132602 -0.5 0 
C -0.5 0.132602 -0.447317 0.25979 -0.353553 0.353553 
C -0.25979 0.447317 -0.132602 0.5 0 0.5 
z
" id="mbdbbc78530" style="stroke:#377eb8;"/>
    </defs>
    <g clip-path="url(#p51ccdd3f81)">
     <use style="fill:#377eb8;stroke:#377eb8;" x="35.313352" xlink:href="#mbdbbc78530" y="100.08165"/>
     <use style="fill:#377eb8;stroke:#377eb8;" x="40.38608" xlink:href="#mbdbbc78530" y="92.274929"/>
     <use style="fill:#377eb8;stroke:#377eb8;" x="45.458807" xlink:href="#mbdbbc78530" y="84.221514"/>
     <use style="fill:#377eb8;stroke:#377eb8;" x="50.531534" xlink:href="#mbdbbc78530" y="77.891972"/>
     <use style="fill:#377eb8;stroke:#377eb8;" x="55.604261" xlink:href="#mbdbbc78530" y="72.527855"/>
     <use style="fill:#377eb8;stroke:#377eb8;" x="60.676989" xlink:href="#mbdbbc78530" y="68.259834"/>
     <use style="fill:#377eb8;stroke:#377eb8;" x="65.749716" xlink:href="#mbdbbc78530" y="64.297276"/>
     <use style="fill:#377eb8;stroke:#377eb8;" x="70.822443" xlink:href="#mbdbbc78530" y="60.539745"/>
     <use style="fill:#377eb8;stroke:#377eb8;" x="75.89517" xlink:href="#mbdbbc78530" y="56.974681"/>
     <use style="fill:#377eb8;stroke:#377eb8;" x="80.967898" xlink:href="#mbdbbc78530" y="52.877109"/>
     <use style="fill:#377eb8;stroke:#377eb8;" x="86.040625" xlink:href="#mbdbbc78530" y="49.376086"/>
     <use style="fill:#377eb8;stroke:#377eb8;" x="91.113352" xlink:href="#mbdbbc78530" y="45.21332"/>
     <use style="fill:#377eb8;stroke:#377eb8;" x="96.18608" xlink:href="#mbdbbc78530" y="41.344315"/>
     <use style="fill:#377eb8;stroke:#377eb8;" x="101.258807" xlink:href="#mbdbbc78530" y="36.731475"/>
     <use style="fill:#377eb8;stroke:#377eb8;" x="106.331534" xlink:href="#mbdbbc78530" y="33.564853"/>
     <use style="fill:#377eb8;stroke:#377eb8;" x="111.404261" xlink:href="#mbdbbc78530" y="30.555475"/>
     <use style="fill:#377eb8;stroke:#377eb8;" x="116.476989" xlink:href="#mbdbbc78530" y="26.25626"/>
     <use style="fill:#377eb8;stroke:#377eb8;" x="121.549716" xlink:href="#mbdbbc78530" y="22.873557"/>
     <use style="fill:#377eb8;stroke:#377eb8;" x="126.622443" xlink:href="#mbdbbc78530" y="19.228463"/>
     <use style="fill:#377eb8;stroke:#377eb8;" x="131.69517" xlink:href="#mbdbbc78530" y="16.213756"/>
     <use style="fill:#377eb8;stroke:#377eb8;" x="136.767898" xlink:href="#mbdbbc78530" y="13.433771"/>
    </g>
   </g>
   <g id="patch_3">
    <path d="M 30.240625 108.72 
L 30.240625 0 
" style="fill:none;stroke:#000000;stroke-linecap:square;stroke-linejoin:miter;stroke-width:0.5;"/>
   </g>
   <g id="patch_4">
    <path d="M 141.840625 108.72 
L 141.840625 0 
" style="fill:none;stroke:#000000;stroke-linecap:square;stroke-linejoin:miter;stroke-width:0.5;"/>
   </g>
   <g id="patch_5">
    <path d="M 30.240625 108.72 
L 141.840625 108.72 
" style="fill:none;stroke:#000000;stroke-linecap:square;stroke-linejoin:miter;stroke-width:0.5;"/>
   </g>
   <g id="patch_6">
    <path d="M 30.240625 0 
L 141.840625 0 
" style="fill:none;stroke:#000000;stroke-linecap:square;stroke-linejoin:miter;stroke-width:0.5;"/>
   </g>
  </g>
 </g>
 <defs>
  <clipPath id="p51ccdd3f81">
   <rect height="108.72" width="111.6" x="30.240625" y="0"/>
  </clipPath>
 </defs>
</svg>
