<?xml version="1.0" encoding="utf-8" standalone="no"?>
<!DOCTYPE svg PUBLIC "-//W3C//DTD SVG 1.1//EN"
  "http://www.w3.org/Graphics/SVG/1.1/DTD/svg11.dtd">
<!-- Created with matplotlib (https://matplotlib.org/) -->
<svg height="133.359743pt" version="1.1" viewBox="0 0 137.8 133.359743" width="137.8pt" xmlns="http://www.w3.org/2000/svg" xmlns:xlink="http://www.w3.org/1999/xlink">
 <metadata>
  <rdf:RDF xmlns:cc="http://creativecommons.org/ns#" xmlns:dc="http://purl.org/dc/elements/1.1/" xmlns:rdf="http://www.w3.org/1999/02/22-rdf-syntax-ns#">
   <cc:Work>
    <dc:type rdf:resource="http://purl.org/dc/dcmitype/StillImage"/>
    <dc:date>2020-12-08T00:50:33.962892</dc:date>
    <dc:format>image/svg+xml</dc:format>
    <dc:creator>
     <cc:Agent>
      <dc:title>Matplotlib v3.3.0, https://matplotlib.org/</dc:title>
     </cc:Agent>
    </dc:creator>
   </cc:Work>
  </rdf:RDF>
 </metadata>
 <defs>
  <style type="text/css">*{stroke-linecap:butt;stroke-linejoin:round;}</style>
 </defs>
 <g id="figure_1">
  <g id="patch_1">
   <path d="M 0 133.359743 
L 137.8 133.359743 
L 137.8 0 
L 0 0 
z
" style="fill:none;"/>
  </g>
  <g id="axes_1">
   <g id="patch_2">
    <path d="M 26.2 113.71443 
L 137.8 113.71443 
L 137.8 4.99443 
L 26.2 4.99443 
z
" style="fill:none;"/>
   </g>
   <g id="matplotlib.axis_1">
    <g id="xtick_1">
     <g id="line2d_1">
      <defs>
       <path d="M 0 0 
L 0 -3.5 
" id="m62a3766985" style="stroke:#000000;stroke-width:0.5;"/>
      </defs>
      <g>
       <use style="stroke:#000000;stroke-width:0.5;" x="29.736152" xlink:href="#m62a3766985" y="113.71443"/>
      </g>
     </g>
     <g id="line2d_2">
      <defs>
       <path d="M 0 0 
L 0 3.5 
" id="m1965bab313" style="stroke:#000000;stroke-width:0.5;"/>
      </defs>
      <g>
       <use style="stroke:#000000;stroke-width:0.5;" x="29.736152" xlink:href="#m1965bab313" y="4.99443"/>
      </g>
     </g>
     <g id="text_1">
      <!-- 0 -->
      <g transform="translate(26.955683 121.872243)scale(0.1 -0.1)">
       <defs>
        <path d="M 4.15625 35.296875 
Q 4.15625 48 6.765625 55.734375 
Q 9.375 63.484375 14.515625 67.671875 
Q 19.671875 71.875 27.484375 71.875 
Q 33.25 71.875 37.59375 69.546875 
Q 41.9375 67.234375 44.765625 62.859375 
Q 47.609375 58.5 49.21875 52.21875 
Q 50.828125 45.953125 50.828125 35.296875 
Q 50.828125 22.703125 48.234375 14.96875 
Q 45.65625 7.234375 40.5 3 
Q 35.359375 -1.21875 27.484375 -1.21875 
Q 17.140625 -1.21875 11.234375 6.203125 
Q 4.15625 15.140625 4.15625 35.296875 
z
M 13.1875 35.296875 
Q 13.1875 17.671875 17.3125 11.828125 
Q 21.4375 6 27.484375 6 
Q 33.546875 6 37.671875 11.859375 
Q 41.796875 17.71875 41.796875 35.296875 
Q 41.796875 52.984375 37.671875 58.78125 
Q 33.546875 64.59375 27.390625 64.59375 
Q 21.34375 64.59375 17.71875 59.46875 
Q 13.1875 52.9375 13.1875 35.296875 
z
" id="ArialMT-48"/>
       </defs>
       <use xlink:href="#ArialMT-48"/>
      </g>
     </g>
    </g>
    <g id="xtick_2">
     <g id="line2d_3">
      <g>
       <use style="stroke:#000000;stroke-width:0.5;" x="62.482773" xlink:href="#m62a3766985" y="113.71443"/>
      </g>
     </g>
     <g id="line2d_4">
      <g>
       <use style="stroke:#000000;stroke-width:0.5;" x="62.482773" xlink:href="#m1965bab313" y="4.99443"/>
      </g>
     </g>
     <g id="text_2">
      <!-- 100 -->
      <g transform="translate(54.141366 121.872243)scale(0.1 -0.1)">
       <defs>
        <path d="M 37.25 0 
L 28.46875 0 
L 28.46875 56 
Q 25.296875 52.984375 20.140625 49.953125 
Q 14.984375 46.921875 10.890625 45.40625 
L 10.890625 53.90625 
Q 18.265625 57.375 23.78125 62.296875 
Q 29.296875 67.234375 31.59375 71.875 
L 37.25 71.875 
z
" id="ArialMT-49"/>
       </defs>
       <use xlink:href="#ArialMT-49"/>
       <use x="55.615234" xlink:href="#ArialMT-48"/>
       <use x="111.230469" xlink:href="#ArialMT-48"/>
      </g>
     </g>
    </g>
    <g id="xtick_3">
     <g id="line2d_5">
      <g>
       <use style="stroke:#000000;stroke-width:0.5;" x="95.229393" xlink:href="#m62a3766985" y="113.71443"/>
      </g>
     </g>
     <g id="line2d_6">
      <g>
       <use style="stroke:#000000;stroke-width:0.5;" x="95.229393" xlink:href="#m1965bab313" y="4.99443"/>
      </g>
     </g>
     <g id="text_3">
      <!-- 200 -->
      <g transform="translate(86.887987 121.872243)scale(0.1 -0.1)">
       <defs>
        <path d="M 50.34375 8.453125 
L 50.34375 0 
L 3.03125 0 
Q 2.9375 3.171875 4.046875 6.109375 
Q 5.859375 10.9375 9.828125 15.625 
Q 13.8125 20.3125 21.34375 26.46875 
Q 33.015625 36.03125 37.109375 41.625 
Q 41.21875 47.21875 41.21875 52.203125 
Q 41.21875 57.421875 37.46875 61 
Q 33.734375 64.59375 27.734375 64.59375 
Q 21.390625 64.59375 17.578125 60.78125 
Q 13.765625 56.984375 13.71875 50.25 
L 4.6875 51.171875 
Q 5.609375 61.28125 11.65625 66.578125 
Q 17.71875 71.875 27.9375 71.875 
Q 38.234375 71.875 44.234375 66.15625 
Q 50.25 60.453125 50.25 52 
Q 50.25 47.703125 48.484375 43.546875 
Q 46.734375 39.40625 42.65625 34.8125 
Q 38.578125 30.21875 29.109375 22.21875 
Q 21.1875 15.578125 18.9375 13.203125 
Q 16.703125 10.84375 15.234375 8.453125 
z
" id="ArialMT-50"/>
       </defs>
       <use xlink:href="#ArialMT-50"/>
       <use x="55.615234" xlink:href="#ArialMT-48"/>
       <use x="111.230469" xlink:href="#ArialMT-48"/>
      </g>
     </g>
    </g>
    <g id="xtick_4">
     <g id="line2d_7">
      <g>
       <use style="stroke:#000000;stroke-width:0.5;" x="127.976014" xlink:href="#m62a3766985" y="113.71443"/>
      </g>
     </g>
     <g id="line2d_8">
      <g>
       <use style="stroke:#000000;stroke-width:0.5;" x="127.976014" xlink:href="#m1965bab313" y="4.99443"/>
      </g>
     </g>
     <g id="text_4">
      <!-- 300 -->
      <g transform="translate(119.634608 121.872243)scale(0.1 -0.1)">
       <defs>
        <path d="M 4.203125 18.890625 
L 12.984375 20.0625 
Q 14.5 12.59375 18.140625 9.296875 
Q 21.78125 6 27 6 
Q 33.203125 6 37.46875 10.296875 
Q 41.75 14.59375 41.75 20.953125 
Q 41.75 27 37.796875 30.921875 
Q 33.84375 34.859375 27.734375 34.859375 
Q 25.25 34.859375 21.53125 33.890625 
L 22.515625 41.609375 
Q 23.390625 41.5 23.921875 41.5 
Q 29.546875 41.5 34.03125 44.421875 
Q 38.53125 47.359375 38.53125 53.46875 
Q 38.53125 58.296875 35.25 61.46875 
Q 31.984375 64.65625 26.8125 64.65625 
Q 21.6875 64.65625 18.265625 61.421875 
Q 14.84375 58.203125 13.875 51.765625 
L 5.078125 53.328125 
Q 6.6875 62.15625 12.390625 67.015625 
Q 18.109375 71.875 26.609375 71.875 
Q 32.46875 71.875 37.390625 69.359375 
Q 42.328125 66.84375 44.9375 62.5 
Q 47.5625 58.15625 47.5625 53.265625 
Q 47.5625 48.640625 45.0625 44.828125 
Q 42.578125 41.015625 37.703125 38.765625 
Q 44.046875 37.3125 47.5625 32.6875 
Q 51.078125 28.078125 51.078125 21.140625 
Q 51.078125 11.765625 44.234375 5.25 
Q 37.40625 -1.265625 26.953125 -1.265625 
Q 17.53125 -1.265625 11.296875 4.34375 
Q 5.078125 9.96875 4.203125 18.890625 
z
" id="ArialMT-51"/>
       </defs>
       <use xlink:href="#ArialMT-51"/>
       <use x="55.615234" xlink:href="#ArialMT-48"/>
       <use x="111.230469" xlink:href="#ArialMT-48"/>
      </g>
     </g>
    </g>
    <g id="xtick_5">
     <g id="line2d_9">
      <defs>
       <path d="M 0 0 
L 0 -2 
" id="mb6336b13c4" style="stroke:#000000;stroke-width:0.5;"/>
      </defs>
      <g>
       <use style="stroke:#000000;stroke-width:0.5;" x="36.285476" xlink:href="#mb6336b13c4" y="113.71443"/>
      </g>
     </g>
     <g id="line2d_10">
      <defs>
       <path d="M 0 0 
L 0 2 
" id="mb4cea0855d" style="stroke:#000000;stroke-width:0.5;"/>
      </defs>
      <g>
       <use style="stroke:#000000;stroke-width:0.5;" x="36.285476" xlink:href="#mb4cea0855d" y="4.99443"/>
      </g>
     </g>
    </g>
    <g id="xtick_6">
     <g id="line2d_11">
      <g>
       <use style="stroke:#000000;stroke-width:0.5;" x="42.8348" xlink:href="#mb6336b13c4" y="113.71443"/>
      </g>
     </g>
     <g id="line2d_12">
      <g>
       <use style="stroke:#000000;stroke-width:0.5;" x="42.8348" xlink:href="#mb4cea0855d" y="4.99443"/>
      </g>
     </g>
    </g>
    <g id="xtick_7">
     <g id="line2d_13">
      <g>
       <use style="stroke:#000000;stroke-width:0.5;" x="49.384124" xlink:href="#mb6336b13c4" y="113.71443"/>
      </g>
     </g>
     <g id="line2d_14">
      <g>
       <use style="stroke:#000000;stroke-width:0.5;" x="49.384124" xlink:href="#mb4cea0855d" y="4.99443"/>
      </g>
     </g>
    </g>
    <g id="xtick_8">
     <g id="line2d_15">
      <g>
       <use style="stroke:#000000;stroke-width:0.5;" x="55.933448" xlink:href="#mb6336b13c4" y="113.71443"/>
      </g>
     </g>
     <g id="line2d_16">
      <g>
       <use style="stroke:#000000;stroke-width:0.5;" x="55.933448" xlink:href="#mb4cea0855d" y="4.99443"/>
      </g>
     </g>
    </g>
    <g id="xtick_9">
     <g id="line2d_17">
      <g>
       <use style="stroke:#000000;stroke-width:0.5;" x="69.032097" xlink:href="#mb6336b13c4" y="113.71443"/>
      </g>
     </g>
     <g id="line2d_18">
      <g>
       <use style="stroke:#000000;stroke-width:0.5;" x="69.032097" xlink:href="#mb4cea0855d" y="4.99443"/>
      </g>
     </g>
    </g>
    <g id="xtick_10">
     <g id="line2d_19">
      <g>
       <use style="stroke:#000000;stroke-width:0.5;" x="75.581421" xlink:href="#mb6336b13c4" y="113.71443"/>
      </g>
     </g>
     <g id="line2d_20">
      <g>
       <use style="stroke:#000000;stroke-width:0.5;" x="75.581421" xlink:href="#mb4cea0855d" y="4.99443"/>
      </g>
     </g>
    </g>
    <g id="xtick_11">
     <g id="line2d_21">
      <g>
       <use style="stroke:#000000;stroke-width:0.5;" x="82.130745" xlink:href="#mb6336b13c4" y="113.71443"/>
      </g>
     </g>
     <g id="line2d_22">
      <g>
       <use style="stroke:#000000;stroke-width:0.5;" x="82.130745" xlink:href="#mb4cea0855d" y="4.99443"/>
      </g>
     </g>
    </g>
    <g id="xtick_12">
     <g id="line2d_23">
      <g>
       <use style="stroke:#000000;stroke-width:0.5;" x="88.680069" xlink:href="#mb6336b13c4" y="113.71443"/>
      </g>
     </g>
     <g id="line2d_24">
      <g>
       <use style="stroke:#000000;stroke-width:0.5;" x="88.680069" xlink:href="#mb4cea0855d" y="4.99443"/>
      </g>
     </g>
    </g>
    <g id="xtick_13">
     <g id="line2d_25">
      <g>
       <use style="stroke:#000000;stroke-width:0.5;" x="101.778717" xlink:href="#mb6336b13c4" y="113.71443"/>
      </g>
     </g>
     <g id="line2d_26">
      <g>
       <use style="stroke:#000000;stroke-width:0.5;" x="101.778717" xlink:href="#mb4cea0855d" y="4.99443"/>
      </g>
     </g>
    </g>
    <g id="xtick_14">
     <g id="line2d_27">
      <g>
       <use style="stroke:#000000;stroke-width:0.5;" x="108.328041" xlink:href="#mb6336b13c4" y="113.71443"/>
      </g>
     </g>
     <g id="line2d_28">
      <g>
       <use style="stroke:#000000;stroke-width:0.5;" x="108.328041" xlink:href="#mb4cea0855d" y="4.99443"/>
      </g>
     </g>
    </g>
    <g id="xtick_15">
     <g id="line2d_29">
      <g>
       <use style="stroke:#000000;stroke-width:0.5;" x="114.877366" xlink:href="#mb6336b13c4" y="113.71443"/>
      </g>
     </g>
     <g id="line2d_30">
      <g>
       <use style="stroke:#000000;stroke-width:0.5;" x="114.877366" xlink:href="#mb4cea0855d" y="4.99443"/>
      </g>
     </g>
    </g>
    <g id="xtick_16">
     <g id="line2d_31">
      <g>
       <use style="stroke:#000000;stroke-width:0.5;" x="121.42669" xlink:href="#mb6336b13c4" y="113.71443"/>
      </g>
     </g>
     <g id="line2d_32">
      <g>
       <use style="stroke:#000000;stroke-width:0.5;" x="121.42669" xlink:href="#mb4cea0855d" y="4.99443"/>
      </g>
     </g>
    </g>
    <g id="xtick_17">
     <g id="line2d_33">
      <g>
       <use style="stroke:#000000;stroke-width:0.5;" x="134.525338" xlink:href="#mb6336b13c4" y="113.71443"/>
      </g>
     </g>
     <g id="line2d_34">
      <g>
       <use style="stroke:#000000;stroke-width:0.5;" x="134.525338" xlink:href="#mb4cea0855d" y="4.99443"/>
      </g>
     </g>
    </g>
    <g id="text_5">
     <!-- $\it{T}$ (K) -->
     <g transform="translate(70.85 131.159743)scale(0.1 -0.1)">
      <defs>
       <path d="M 5.90625 72.90625 
L 67.578125 72.90625 
L 66.015625 64.59375 
L 39.984375 64.59375 
L 27.484375 0 
L 17.578125 0 
L 30.078125 64.59375 
L 4.296875 64.59375 
z
" id="DejaVuSans-Oblique-84"/>
       <path id="ArialMT-32"/>
       <path d="M 23.390625 -21.046875 
Q 16.109375 -11.859375 11.078125 0.4375 
Q 6.0625 12.75 6.0625 25.921875 
Q 6.0625 37.546875 9.8125 48.1875 
Q 14.203125 60.546875 23.390625 72.796875 
L 29.6875 72.796875 
Q 23.78125 62.640625 21.875 58.296875 
Q 18.890625 51.5625 17.1875 44.234375 
Q 15.09375 35.109375 15.09375 25.875 
Q 15.09375 2.390625 29.6875 -21.046875 
z
" id="ArialMT-40"/>
       <path d="M 7.328125 0 
L 7.328125 71.578125 
L 16.796875 71.578125 
L 16.796875 36.078125 
L 52.34375 71.578125 
L 65.1875 71.578125 
L 35.15625 42.578125 
L 66.5 0 
L 54 0 
L 28.515625 36.234375 
L 16.796875 24.8125 
L 16.796875 0 
z
" id="ArialMT-75"/>
       <path d="M 12.359375 -21.046875 
L 6.0625 -21.046875 
Q 20.65625 2.390625 20.65625 25.875 
Q 20.65625 35.0625 18.5625 44.09375 
Q 16.890625 51.421875 13.921875 58.15625 
Q 12.015625 62.546875 6.0625 72.796875 
L 12.359375 72.796875 
Q 21.53125 60.546875 25.921875 48.1875 
Q 29.6875 37.546875 29.6875 25.921875 
Q 29.6875 12.75 24.625 0.4375 
Q 19.578125 -11.859375 12.359375 -21.046875 
z
" id="ArialMT-41"/>
      </defs>
      <use transform="translate(0 0.09375)" xlink:href="#DejaVuSans-Oblique-84"/>
      <use transform="translate(61.083984 0.09375)" xlink:href="#ArialMT-32"/>
      <use transform="translate(88.867188 0.09375)" xlink:href="#ArialMT-40"/>
      <use transform="translate(122.167969 0.09375)" xlink:href="#ArialMT-75"/>
      <use transform="translate(188.867188 0.09375)" xlink:href="#ArialMT-41"/>
     </g>
    </g>
   </g>
   <g id="matplotlib.axis_2">
    <g id="ytick_1">
     <g id="line2d_35">
      <defs>
       <path d="M 0 0 
L 3.5 0 
" id="m58001f4d71" style="stroke:#000000;stroke-width:0.5;"/>
      </defs>
      <g>
       <use style="stroke:#000000;stroke-width:0.5;" x="26.2" xlink:href="#m58001f4d71" y="91.234501"/>
      </g>
     </g>
     <g id="line2d_36">
      <defs>
       <path d="M 0 0 
L -3.5 0 
" id="m8eeec79f87" style="stroke:#000000;stroke-width:0.5;"/>
      </defs>
      <g>
       <use style="stroke:#000000;stroke-width:0.5;" x="137.8" xlink:href="#m8eeec79f87" y="91.234501"/>
      </g>
     </g>
     <g id="text_6">
      <!-- $\mathdefault{10^{5}}$ -->
      <g transform="translate(9.5 96.340751)scale(0.1 -0.1)">
       <defs>
        <path d="M 4.15625 18.75 
L 13.375 19.53125 
Q 14.40625 12.796875 18.140625 9.390625 
Q 21.875 6 27.15625 6 
Q 33.5 6 37.890625 10.78125 
Q 42.28125 15.578125 42.28125 23.484375 
Q 42.28125 31 38.0625 35.34375 
Q 33.84375 39.703125 27 39.703125 
Q 22.75 39.703125 19.328125 37.765625 
Q 15.921875 35.84375 13.96875 32.765625 
L 5.71875 33.84375 
L 12.640625 70.609375 
L 48.25 70.609375 
L 48.25 62.203125 
L 19.671875 62.203125 
L 15.828125 42.96875 
Q 22.265625 47.46875 29.34375 47.46875 
Q 38.71875 47.46875 45.15625 40.96875 
Q 51.609375 34.46875 51.609375 24.265625 
Q 51.609375 14.546875 45.953125 7.46875 
Q 39.0625 -1.21875 27.15625 -1.21875 
Q 17.390625 -1.21875 11.203125 4.25 
Q 5.03125 9.71875 4.15625 18.75 
z
" id="ArialMT-53"/>
       </defs>
       <use transform="translate(0 0.879688)" xlink:href="#ArialMT-49"/>
       <use transform="translate(55.615234 0.879688)" xlink:href="#ArialMT-48"/>
       <use transform="translate(112.972813 70.573438)scale(0.7)" xlink:href="#ArialMT-53"/>
      </g>
     </g>
    </g>
    <g id="ytick_2">
     <g id="line2d_37">
      <g>
       <use style="stroke:#000000;stroke-width:0.5;" x="26.2" xlink:href="#m58001f4d71" y="48.170375"/>
      </g>
     </g>
     <g id="line2d_38">
      <g>
       <use style="stroke:#000000;stroke-width:0.5;" x="137.8" xlink:href="#m8eeec79f87" y="48.170375"/>
      </g>
     </g>
     <g id="text_7">
      <!-- $\mathdefault{10^{6}}$ -->
      <g transform="translate(9.5 53.326625)scale(0.1 -0.1)">
       <defs>
        <path d="M 49.75 54.046875 
L 41.015625 53.375 
Q 39.84375 58.546875 37.703125 60.890625 
Q 34.125 64.65625 28.90625 64.65625 
Q 24.703125 64.65625 21.53125 62.3125 
Q 17.390625 59.28125 14.984375 53.46875 
Q 12.59375 47.65625 12.5 36.921875 
Q 15.671875 41.75 20.265625 44.09375 
Q 24.859375 46.4375 29.890625 46.4375 
Q 38.671875 46.4375 44.84375 39.96875 
Q 51.03125 33.5 51.03125 23.25 
Q 51.03125 16.5 48.125 10.71875 
Q 45.21875 4.9375 40.140625 1.859375 
Q 35.0625 -1.21875 28.609375 -1.21875 
Q 17.625 -1.21875 10.6875 6.859375 
Q 3.765625 14.9375 3.765625 33.5 
Q 3.765625 54.25 11.421875 63.671875 
Q 18.109375 71.875 29.4375 71.875 
Q 37.890625 71.875 43.28125 67.140625 
Q 48.6875 62.40625 49.75 54.046875 
z
M 13.875 23.1875 
Q 13.875 18.65625 15.796875 14.5 
Q 17.71875 10.359375 21.1875 8.171875 
Q 24.65625 6 28.46875 6 
Q 34.03125 6 38.03125 10.484375 
Q 42.046875 14.984375 42.046875 22.703125 
Q 42.046875 30.125 38.078125 34.390625 
Q 34.125 38.671875 28.125 38.671875 
Q 22.171875 38.671875 18.015625 34.390625 
Q 13.875 30.125 13.875 23.1875 
z
" id="ArialMT-54"/>
       </defs>
       <use transform="translate(0 0.99375)" xlink:href="#ArialMT-49"/>
       <use transform="translate(55.615234 0.99375)" xlink:href="#ArialMT-48"/>
       <use transform="translate(112.972813 70.6875)scale(0.7)" xlink:href="#ArialMT-54"/>
      </g>
     </g>
    </g>
    <g id="ytick_3">
     <g id="line2d_39">
      <g>
       <use style="stroke:#000000;stroke-width:0.5;" x="26.2" xlink:href="#m58001f4d71" y="5.10625"/>
      </g>
     </g>
     <g id="line2d_40">
      <g>
       <use style="stroke:#000000;stroke-width:0.5;" x="137.8" xlink:href="#m8eeec79f87" y="5.10625"/>
      </g>
     </g>
     <g id="text_8">
      <!-- $\mathdefault{10^{7}}$ -->
      <g transform="translate(9.5 10.2125)scale(0.1 -0.1)">
       <defs>
        <path d="M 4.734375 62.203125 
L 4.734375 70.65625 
L 51.078125 70.65625 
L 51.078125 63.8125 
Q 44.234375 56.546875 37.515625 44.484375 
Q 30.8125 32.421875 27.15625 19.671875 
Q 24.515625 10.6875 23.78125 0 
L 14.75 0 
Q 14.890625 8.453125 18.0625 20.40625 
Q 21.234375 32.375 27.171875 43.484375 
Q 33.109375 54.59375 39.796875 62.203125 
z
" id="ArialMT-55"/>
       </defs>
       <use transform="translate(0 0.846875)" xlink:href="#ArialMT-49"/>
       <use transform="translate(55.615234 0.846875)" xlink:href="#ArialMT-48"/>
       <use transform="translate(112.972813 70.540625)scale(0.7)" xlink:href="#ArialMT-55"/>
      </g>
     </g>
    </g>
    <g id="ytick_4">
     <g id="line2d_41">
      <defs>
       <path d="M 0 0 
L 2 0 
" id="mc26e1422b2" style="stroke:#000000;stroke-width:0.5;"/>
      </defs>
      <g>
       <use style="stroke:#000000;stroke-width:0.5;" x="26.2" xlink:href="#mc26e1422b2" y="108.371439"/>
      </g>
     </g>
     <g id="line2d_42">
      <defs>
       <path d="M 0 0 
L -2 0 
" id="mc60a2ccae5" style="stroke:#000000;stroke-width:0.5;"/>
      </defs>
      <g>
       <use style="stroke:#000000;stroke-width:0.5;" x="137.8" xlink:href="#mc60a2ccae5" y="108.371439"/>
      </g>
     </g>
    </g>
    <g id="ytick_5">
     <g id="line2d_43">
      <g>
       <use style="stroke:#000000;stroke-width:0.5;" x="26.2" xlink:href="#mc26e1422b2" y="104.198094"/>
      </g>
     </g>
     <g id="line2d_44">
      <g>
       <use style="stroke:#000000;stroke-width:0.5;" x="137.8" xlink:href="#mc60a2ccae5" y="104.198094"/>
      </g>
     </g>
    </g>
    <g id="ytick_6">
     <g id="line2d_45">
      <g>
       <use style="stroke:#000000;stroke-width:0.5;" x="26.2" xlink:href="#mc26e1422b2" y="100.788223"/>
      </g>
     </g>
     <g id="line2d_46">
      <g>
       <use style="stroke:#000000;stroke-width:0.5;" x="137.8" xlink:href="#mc60a2ccae5" y="100.788223"/>
      </g>
     </g>
    </g>
    <g id="ytick_7">
     <g id="line2d_47">
      <g>
       <use style="stroke:#000000;stroke-width:0.5;" x="26.2" xlink:href="#mc26e1422b2" y="97.905218"/>
      </g>
     </g>
     <g id="line2d_48">
      <g>
       <use style="stroke:#000000;stroke-width:0.5;" x="137.8" xlink:href="#mc60a2ccae5" y="97.905218"/>
      </g>
     </g>
    </g>
    <g id="ytick_8">
     <g id="line2d_49">
      <g>
       <use style="stroke:#000000;stroke-width:0.5;" x="26.2" xlink:href="#mc26e1422b2" y="95.407846"/>
      </g>
     </g>
     <g id="line2d_50">
      <g>
       <use style="stroke:#000000;stroke-width:0.5;" x="137.8" xlink:href="#mc60a2ccae5" y="95.407846"/>
      </g>
     </g>
    </g>
    <g id="ytick_9">
     <g id="line2d_51">
      <g>
       <use style="stroke:#000000;stroke-width:0.5;" x="26.2" xlink:href="#mc26e1422b2" y="93.205007"/>
      </g>
     </g>
     <g id="line2d_52">
      <g>
       <use style="stroke:#000000;stroke-width:0.5;" x="137.8" xlink:href="#mc60a2ccae5" y="93.205007"/>
      </g>
     </g>
    </g>
    <g id="ytick_10">
     <g id="line2d_53">
      <g>
       <use style="stroke:#000000;stroke-width:0.5;" x="26.2" xlink:href="#mc26e1422b2" y="78.270907"/>
      </g>
     </g>
     <g id="line2d_54">
      <g>
       <use style="stroke:#000000;stroke-width:0.5;" x="137.8" xlink:href="#mc60a2ccae5" y="78.270907"/>
      </g>
     </g>
    </g>
    <g id="ytick_11">
     <g id="line2d_55">
      <g>
       <use style="stroke:#000000;stroke-width:0.5;" x="26.2" xlink:href="#mc26e1422b2" y="70.687691"/>
      </g>
     </g>
     <g id="line2d_56">
      <g>
       <use style="stroke:#000000;stroke-width:0.5;" x="137.8" xlink:href="#mc60a2ccae5" y="70.687691"/>
      </g>
     </g>
    </g>
    <g id="ytick_12">
     <g id="line2d_57">
      <g>
       <use style="stroke:#000000;stroke-width:0.5;" x="26.2" xlink:href="#mc26e1422b2" y="65.307314"/>
      </g>
     </g>
     <g id="line2d_58">
      <g>
       <use style="stroke:#000000;stroke-width:0.5;" x="137.8" xlink:href="#mc60a2ccae5" y="65.307314"/>
      </g>
     </g>
    </g>
    <g id="ytick_13">
     <g id="line2d_59">
      <g>
       <use style="stroke:#000000;stroke-width:0.5;" x="26.2" xlink:href="#mc26e1422b2" y="61.133969"/>
      </g>
     </g>
     <g id="line2d_60">
      <g>
       <use style="stroke:#000000;stroke-width:0.5;" x="137.8" xlink:href="#mc60a2ccae5" y="61.133969"/>
      </g>
     </g>
    </g>
    <g id="ytick_14">
     <g id="line2d_61">
      <g>
       <use style="stroke:#000000;stroke-width:0.5;" x="26.2" xlink:href="#mc26e1422b2" y="57.724098"/>
      </g>
     </g>
     <g id="line2d_62">
      <g>
       <use style="stroke:#000000;stroke-width:0.5;" x="137.8" xlink:href="#mc60a2ccae5" y="57.724098"/>
      </g>
     </g>
    </g>
    <g id="ytick_15">
     <g id="line2d_63">
      <g>
       <use style="stroke:#000000;stroke-width:0.5;" x="26.2" xlink:href="#mc26e1422b2" y="54.841093"/>
      </g>
     </g>
     <g id="line2d_64">
      <g>
       <use style="stroke:#000000;stroke-width:0.5;" x="137.8" xlink:href="#mc60a2ccae5" y="54.841093"/>
      </g>
     </g>
    </g>
    <g id="ytick_16">
     <g id="line2d_65">
      <g>
       <use style="stroke:#000000;stroke-width:0.5;" x="26.2" xlink:href="#mc26e1422b2" y="52.34372"/>
      </g>
     </g>
     <g id="line2d_66">
      <g>
       <use style="stroke:#000000;stroke-width:0.5;" x="137.8" xlink:href="#mc60a2ccae5" y="52.34372"/>
      </g>
     </g>
    </g>
    <g id="ytick_17">
     <g id="line2d_67">
      <g>
       <use style="stroke:#000000;stroke-width:0.5;" x="26.2" xlink:href="#mc26e1422b2" y="50.140882"/>
      </g>
     </g>
     <g id="line2d_68">
      <g>
       <use style="stroke:#000000;stroke-width:0.5;" x="137.8" xlink:href="#mc60a2ccae5" y="50.140882"/>
      </g>
     </g>
    </g>
    <g id="ytick_18">
     <g id="line2d_69">
      <g>
       <use style="stroke:#000000;stroke-width:0.5;" x="26.2" xlink:href="#mc26e1422b2" y="35.206782"/>
      </g>
     </g>
     <g id="line2d_70">
      <g>
       <use style="stroke:#000000;stroke-width:0.5;" x="137.8" xlink:href="#mc60a2ccae5" y="35.206782"/>
      </g>
     </g>
    </g>
    <g id="ytick_19">
     <g id="line2d_71">
      <g>
       <use style="stroke:#000000;stroke-width:0.5;" x="26.2" xlink:href="#mc26e1422b2" y="27.623566"/>
      </g>
     </g>
     <g id="line2d_72">
      <g>
       <use style="stroke:#000000;stroke-width:0.5;" x="137.8" xlink:href="#mc60a2ccae5" y="27.623566"/>
      </g>
     </g>
    </g>
    <g id="ytick_20">
     <g id="line2d_73">
      <g>
       <use style="stroke:#000000;stroke-width:0.5;" x="26.2" xlink:href="#mc26e1422b2" y="22.243188"/>
      </g>
     </g>
     <g id="line2d_74">
      <g>
       <use style="stroke:#000000;stroke-width:0.5;" x="137.8" xlink:href="#mc60a2ccae5" y="22.243188"/>
      </g>
     </g>
    </g>
    <g id="ytick_21">
     <g id="line2d_75">
      <g>
       <use style="stroke:#000000;stroke-width:0.5;" x="26.2" xlink:href="#mc26e1422b2" y="18.069844"/>
      </g>
     </g>
     <g id="line2d_76">
      <g>
       <use style="stroke:#000000;stroke-width:0.5;" x="137.8" xlink:href="#mc60a2ccae5" y="18.069844"/>
      </g>
     </g>
    </g>
    <g id="ytick_22">
     <g id="line2d_77">
      <g>
       <use style="stroke:#000000;stroke-width:0.5;" x="26.2" xlink:href="#mc26e1422b2" y="14.659972"/>
      </g>
     </g>
     <g id="line2d_78">
      <g>
       <use style="stroke:#000000;stroke-width:0.5;" x="137.8" xlink:href="#mc60a2ccae5" y="14.659972"/>
      </g>
     </g>
    </g>
    <g id="ytick_23">
     <g id="line2d_79">
      <g>
       <use style="stroke:#000000;stroke-width:0.5;" x="26.2" xlink:href="#mc26e1422b2" y="11.776967"/>
      </g>
     </g>
     <g id="line2d_80">
      <g>
       <use style="stroke:#000000;stroke-width:0.5;" x="137.8" xlink:href="#mc60a2ccae5" y="11.776967"/>
      </g>
     </g>
    </g>
    <g id="ytick_24">
     <g id="line2d_81">
      <g>
       <use style="stroke:#000000;stroke-width:0.5;" x="26.2" xlink:href="#mc26e1422b2" y="9.279595"/>
      </g>
     </g>
     <g id="line2d_82">
      <g>
       <use style="stroke:#000000;stroke-width:0.5;" x="137.8" xlink:href="#mc60a2ccae5" y="9.279595"/>
      </g>
     </g>
    </g>
    <g id="ytick_25">
     <g id="line2d_83">
      <g>
       <use style="stroke:#000000;stroke-width:0.5;" x="26.2" xlink:href="#mc26e1422b2" y="7.076756"/>
      </g>
     </g>
     <g id="line2d_84">
      <g>
       <use style="stroke:#000000;stroke-width:0.5;" x="137.8" xlink:href="#mc60a2ccae5" y="7.076756"/>
      </g>
     </g>
    </g>
    <g id="text_9">
     <!-- $\it{R_{DS}}$ (Ω) -->
     <g transform="translate(7.3 76.35443)rotate(-90)scale(0.1 -0.1)">
      <defs>
       <path d="M 25.203125 64.796875 
L 20.21875 38.921875 
L 32.90625 38.921875 
Q 40.375 38.921875 44.984375 43.046875 
Q 49.609375 47.171875 49.609375 53.8125 
Q 49.609375 59.125 46.5 61.953125 
Q 43.40625 64.796875 37.59375 64.796875 
z
M 43.3125 35.015625 
Q 46.4375 34.28125 48.515625 31.390625 
Q 50.59375 28.515625 53.328125 19.921875 
L 59.515625 0 
L 49.125 0 
L 43.40625 18.703125 
Q 41.21875 25.921875 38.328125 28.359375 
Q 35.453125 30.8125 29.5 30.8125 
L 18.609375 30.8125 
L 12.59375 0 
L 2.6875 0 
L 16.890625 72.90625 
L 39.109375 72.90625 
Q 49.21875 72.90625 54.609375 68.328125 
Q 60.015625 63.765625 60.015625 55.171875 
Q 60.015625 47.5625 55.421875 41.984375 
Q 50.828125 36.421875 43.3125 35.015625 
z
" id="DejaVuSans-Oblique-82"/>
       <path d="M 16.890625 72.90625 
L 38.09375 72.90625 
Q 54.984375 72.90625 63.59375 65.75 
Q 72.21875 58.59375 72.21875 44.484375 
Q 72.21875 35.15625 68.9375 26.53125 
Q 65.671875 17.921875 59.90625 12.015625 
Q 54.109375 5.953125 45.171875 2.96875 
Q 36.234375 0 24.03125 0 
L 2.6875 0 
z
M 25.203125 64.796875 
L 14.203125 8.109375 
L 27.09375 8.109375 
Q 43.65625 8.109375 52.734375 17.625 
Q 61.8125 27.15625 61.8125 44.484375 
Q 61.8125 54.984375 55.953125 59.890625 
Q 50.09375 64.796875 37.59375 64.796875 
z
" id="DejaVuSans-Oblique-68"/>
       <path d="M 60.296875 70.515625 
L 58.40625 60.890625 
Q 53.46875 63.53125 48.609375 64.875 
Q 43.75 66.21875 39.203125 66.21875 
Q 30.375 66.21875 25.140625 62.359375 
Q 19.921875 58.5 19.921875 52.09375 
Q 19.921875 48.578125 21.84375 46.703125 
Q 23.78125 44.828125 31.78125 42.671875 
L 37.703125 41.21875 
Q 47.703125 38.625 51.609375 34.640625 
Q 55.515625 30.671875 55.515625 23.484375 
Q 55.515625 12.453125 46.84375 5.515625 
Q 38.1875 -1.421875 24.03125 -1.421875 
Q 18.21875 -1.421875 12.359375 -0.265625 
Q 6.5 0.875 0.59375 3.21875 
L 2.59375 13.375 
Q 8.015625 10.015625 13.453125 8.296875 
Q 18.890625 6.59375 24.3125 6.59375 
Q 33.546875 6.59375 39.109375 10.6875 
Q 44.671875 14.796875 44.671875 21.390625 
Q 44.671875 25.78125 42.453125 28.046875 
Q 40.234375 30.328125 32.90625 32.171875 
L 27 33.6875 
Q 16.890625 36.328125 13.203125 39.765625 
Q 9.515625 43.21875 9.515625 49.421875 
Q 9.515625 60.296875 17.890625 67.25 
Q 26.265625 74.21875 39.703125 74.21875 
Q 44.921875 74.21875 50.046875 73.28125 
Q 55.171875 72.359375 60.296875 70.515625 
z
" id="DejaVuSans-Oblique-83"/>
       <path d="M 4.734375 8.453125 
L 20.359375 8.453125 
Q 5.515625 20.84375 5.515625 38.71875 
Q 5.515625 48.4375 9.421875 56.15625 
Q 13.328125 63.875 20.453125 68.328125 
Q 27.59375 72.796875 37.59375 72.796875 
Q 47.515625 72.796875 54.125 68.6875 
Q 60.75 64.59375 65.015625 56.921875 
Q 69.28125 49.265625 69.28125 38.71875 
Q 69.28125 20.84375 54.4375 8.453125 
L 70.0625 8.453125 
L 70.0625 0 
L 42.234375 0 
L 42.234375 7.90625 
Q 59.625 16.015625 59.625 37.25 
Q 59.625 49.21875 53.484375 56.953125 
Q 47.359375 64.703125 37.546875 64.703125 
Q 27.4375 64.703125 21.375 56.90625 
Q 15.328125 49.125 15.328125 37.75 
Q 15.328125 16.21875 32.625 7.90625 
L 32.625 0 
L 4.734375 0 
z
" id="ArialMT-937"/>
      </defs>
      <use transform="translate(0 0.09375)" xlink:href="#DejaVuSans-Oblique-82"/>
      <use transform="translate(69.482422 -16.3125)scale(0.7)" xlink:href="#DejaVuSans-Oblique-68"/>
      <use transform="translate(123.383789 -16.3125)scale(0.7)" xlink:href="#DejaVuSans-Oblique-83"/>
      <use transform="translate(170.551758 0.09375)" xlink:href="#ArialMT-32"/>
      <use transform="translate(198.334961 0.09375)" xlink:href="#ArialMT-40"/>
      <use transform="translate(231.635742 0.09375)" xlink:href="#ArialMT-937"/>
      <use transform="translate(306.391602 0.09375)" xlink:href="#ArialMT-41"/>
     </g>
    </g>
   </g>
   <g id="line2d_85">
    <path clip-path="url(#p5c6a5eb974)" d="M 127.975293 9.936249 
L 118.154713 17.340101 
L 111.631783 23.294549 
L 95.24652 38.436695 
L 78.869673 54.49074 
L 62.488896 75.254565 
L 59.212662 76.51632 
L 55.952573 79.044717 
L 52.663273 80.585723 
L 49.386973 80.829348 
L 46.116929 79.414706 
L 42.836438 76.686577 
L 39.56099 72.410918 
L 36.285574 66.252485 
L 33.016905 55.668694 
L 31.046443 41.658151 
" style="fill:none;stroke:#4daf4a;stroke-linecap:square;stroke-width:1.5;"/>
    <defs>
     <path d="M 0 0.75 
C 0.198902 0.75 0.389685 0.670975 0.53033 0.53033 
C 0.670975 0.389685 0.75 0.198902 0.75 0 
C 0.75 -0.198902 0.670975 -0.389685 0.53033 -0.53033 
C 0.389685 -0.670975 0.198902 -0.75 0 -0.75 
C -0.198902 -0.75 -0.389685 -0.670975 -0.53033 -0.53033 
C -0.670975 -0.389685 -0.75 -0.198902 -0.75 0 
C -0.75 0.198902 -0.670975 0.389685 -0.53033 0.53033 
C -0.389685 0.670975 -0.198902 0.75 0 0.75 
z
" id="mae8933c801" style="stroke:#4daf4a;"/>
    </defs>
    <g clip-path="url(#p5c6a5eb974)">
     <use style="fill:#4daf4a;stroke:#4daf4a;" x="127.975293" xlink:href="#mae8933c801" y="9.936249"/>
     <use style="fill:#4daf4a;stroke:#4daf4a;" x="118.154713" xlink:href="#mae8933c801" y="17.340101"/>
     <use style="fill:#4daf4a;stroke:#4daf4a;" x="111.631783" xlink:href="#mae8933c801" y="23.294549"/>
     <use style="fill:#4daf4a;stroke:#4daf4a;" x="95.24652" xlink:href="#mae8933c801" y="38.436695"/>
     <use style="fill:#4daf4a;stroke:#4daf4a;" x="78.869673" xlink:href="#mae8933c801" y="54.49074"/>
     <use style="fill:#4daf4a;stroke:#4daf4a;" x="62.488896" xlink:href="#mae8933c801" y="75.254565"/>
     <use style="fill:#4daf4a;stroke:#4daf4a;" x="59.212662" xlink:href="#mae8933c801" y="76.51632"/>
     <use style="fill:#4daf4a;stroke:#4daf4a;" x="55.952573" xlink:href="#mae8933c801" y="79.044717"/>
     <use style="fill:#4daf4a;stroke:#4daf4a;" x="52.663273" xlink:href="#mae8933c801" y="80.585723"/>
     <use style="fill:#4daf4a;stroke:#4daf4a;" x="49.386973" xlink:href="#mae8933c801" y="80.829348"/>
     <use style="fill:#4daf4a;stroke:#4daf4a;" x="46.116929" xlink:href="#mae8933c801" y="79.414706"/>
     <use style="fill:#4daf4a;stroke:#4daf4a;" x="42.836438" xlink:href="#mae8933c801" y="76.686577"/>
     <use style="fill:#4daf4a;stroke:#4daf4a;" x="39.56099" xlink:href="#mae8933c801" y="72.410918"/>
     <use style="fill:#4daf4a;stroke:#4daf4a;" x="36.285574" xlink:href="#mae8933c801" y="66.252485"/>
     <use style="fill:#4daf4a;stroke:#4daf4a;" x="33.016905" xlink:href="#mae8933c801" y="55.668694"/>
     <use style="fill:#4daf4a;stroke:#4daf4a;" x="31.046443" xlink:href="#mae8933c801" y="41.658151"/>
    </g>
   </g>
   <g id="line2d_86">
    <path clip-path="url(#p5c6a5eb974)" d="M 127.975293 12.507156 
L 118.154713 20.674156 
L 111.631783 27.674177 
L 95.24652 45.649069 
L 78.869673 66.624922 
L 62.488896 93.369697 
L 59.212662 98.740084 
L 55.952573 102.879528 
L 52.663273 106.000332 
L 49.386973 107.882027 
L 46.116929 108.772612 
L 42.836438 108.368777 
L 39.56099 107.084952 
L 36.285574 105.101713 
L 33.016905 102.442142 
L 31.046443 100.18954 
" style="fill:none;stroke:#377eb8;stroke-linecap:square;stroke-width:1.5;"/>
    <defs>
     <path d="M 0 0.75 
C 0.198902 0.75 0.389685 0.670975 0.53033 0.53033 
C 0.670975 0.389685 0.75 0.198902 0.75 0 
C 0.75 -0.198902 0.670975 -0.389685 0.53033 -0.53033 
C 0.389685 -0.670975 0.198902 -0.75 0 -0.75 
C -0.198902 -0.75 -0.389685 -0.670975 -0.53033 -0.53033 
C -0.670975 -0.389685 -0.75 -0.198902 -0.75 0 
C -0.75 0.198902 -0.670975 0.389685 -0.53033 0.53033 
C -0.389685 0.670975 -0.198902 0.75 0 0.75 
z
" id="m0cf13c0a16" style="stroke:#377eb8;"/>
    </defs>
    <g clip-path="url(#p5c6a5eb974)">
     <use style="fill:#377eb8;stroke:#377eb8;" x="127.975293" xlink:href="#m0cf13c0a16" y="12.507156"/>
     <use style="fill:#377eb8;stroke:#377eb8;" x="118.154713" xlink:href="#m0cf13c0a16" y="20.674156"/>
     <use style="fill:#377eb8;stroke:#377eb8;" x="111.631783" xlink:href="#m0cf13c0a16" y="27.674177"/>
     <use style="fill:#377eb8;stroke:#377eb8;" x="95.24652" xlink:href="#m0cf13c0a16" y="45.649069"/>
     <use style="fill:#377eb8;stroke:#377eb8;" x="78.869673" xlink:href="#m0cf13c0a16" y="66.624922"/>
     <use style="fill:#377eb8;stroke:#377eb8;" x="62.488896" xlink:href="#m0cf13c0a16" y="93.369697"/>
     <use style="fill:#377eb8;stroke:#377eb8;" x="59.212662" xlink:href="#m0cf13c0a16" y="98.740084"/>
     <use style="fill:#377eb8;stroke:#377eb8;" x="55.952573" xlink:href="#m0cf13c0a16" y="102.879528"/>
     <use style="fill:#377eb8;stroke:#377eb8;" x="52.663273" xlink:href="#m0cf13c0a16" y="106.000332"/>
     <use style="fill:#377eb8;stroke:#377eb8;" x="49.386973" xlink:href="#m0cf13c0a16" y="107.882027"/>
     <use style="fill:#377eb8;stroke:#377eb8;" x="46.116929" xlink:href="#m0cf13c0a16" y="108.772612"/>
     <use style="fill:#377eb8;stroke:#377eb8;" x="42.836438" xlink:href="#m0cf13c0a16" y="108.368777"/>
     <use style="fill:#377eb8;stroke:#377eb8;" x="39.56099" xlink:href="#m0cf13c0a16" y="107.084952"/>
     <use style="fill:#377eb8;stroke:#377eb8;" x="36.285574" xlink:href="#m0cf13c0a16" y="105.101713"/>
     <use style="fill:#377eb8;stroke:#377eb8;" x="33.016905" xlink:href="#m0cf13c0a16" y="102.442142"/>
     <use style="fill:#377eb8;stroke:#377eb8;" x="31.046443" xlink:href="#m0cf13c0a16" y="100.18954"/>
    </g>
   </g>
   <g id="patch_3">
    <path d="M 26.2 113.71443 
L 26.2 4.99443 
" style="fill:none;stroke:#000000;stroke-linecap:square;stroke-linejoin:miter;stroke-width:0.5;"/>
   </g>
   <g id="patch_4">
    <path d="M 137.8 113.71443 
L 137.8 4.99443 
" style="fill:none;stroke:#000000;stroke-linecap:square;stroke-linejoin:miter;stroke-width:0.5;"/>
   </g>
   <g id="patch_5">
    <path d="M 26.2 113.71443 
L 137.8 113.71443 
" style="fill:none;stroke:#000000;stroke-linecap:square;stroke-linejoin:miter;stroke-width:0.5;"/>
   </g>
   <g id="patch_6">
    <path d="M 26.2 4.99443 
L 137.8 4.99443 
" style="fill:none;stroke:#000000;stroke-linecap:square;stroke-linejoin:miter;stroke-width:0.5;"/>
   </g>
  </g>
 </g>
 <defs>
  <clipPath id="p5c6a5eb974">
   <rect height="108.72" width="111.6" x="26.2" y="4.99443"/>
  </clipPath>
 </defs>
</svg>
