<?xml version="1.0" encoding="utf-8" standalone="no"?>
<!DOCTYPE svg PUBLIC "-//W3C//DTD SVG 1.1//EN"
  "http://www.w3.org/Graphics/SVG/1.1/DTD/svg11.dtd">
<!-- Created with matplotlib (https://matplotlib.org/) -->
<svg height="128.365312pt" version="1.1" viewBox="0 0 149.208523 128.365312" width="149.208523pt" xmlns="http://www.w3.org/2000/svg" xmlns:xlink="http://www.w3.org/1999/xlink">
 <defs>
  <style type="text/css">
*{stroke-linecap:butt;stroke-linejoin:round;}
  </style>
 </defs>
 <g id="figure_1">
  <g id="patch_1">
   <path d="M 0 128.365312 
L 149.208523 128.365312 
L 149.208523 0 
L 0 0 
z
" style="fill:none;"/>
  </g>
  <g id="axes_1">
   <g id="patch_2">
    <path d="M 34.2 108.72 
L 145.8 108.72 
L 145.8 0 
L 34.2 0 
z
" style="fill:none;"/>
   </g>
   <g id="matplotlib.axis_1">
    <g id="xtick_1">
     <g id="line2d_1">
      <defs>
       <path d="M 0 0 
L 0 -3.5 
" id="mf15a6663eb" style="stroke:#000000;stroke-width:0.5;"/>
      </defs>
      <g>
       <use style="stroke:#000000;stroke-width:0.5;" x="140.727273" xlink:href="#mf15a6663eb" y="108.72"/>
      </g>
     </g>
     <g id="line2d_2">
      <defs>
       <path d="M 0 0 
L 0 3.5 
" id="m090e870d36" style="stroke:#000000;stroke-width:0.5;"/>
      </defs>
      <g>
       <use style="stroke:#000000;stroke-width:0.5;" x="140.727273" xlink:href="#m090e870d36" y="0"/>
      </g>
     </g>
     <g id="text_1">
      <text style="font-family:Arial;font-size:10px;font-style:normal;font-weight:normal;text-anchor:middle;" transform="rotate(-0, 140.727273, 116.877812)" x="140.727273" y="116.877812">−10</text>
     </g>
    </g>
    <g id="xtick_2">
     <g id="line2d_3">
      <g>
       <use style="stroke:#000000;stroke-width:0.5;" x="90" xlink:href="#mf15a6663eb" y="108.72"/>
      </g>
     </g>
     <g id="line2d_4">
      <g>
       <use style="stroke:#000000;stroke-width:0.5;" x="90" xlink:href="#m090e870d36" y="0"/>
      </g>
     </g>
     <g id="text_2">
      <text style="font-family:Arial;font-size:10px;font-style:normal;font-weight:normal;text-anchor:middle;" transform="rotate(-0, 90, 116.877812)" x="90" y="116.877812">−5</text>
     </g>
    </g>
    <g id="xtick_3">
     <g id="line2d_5">
      <g>
       <use style="stroke:#000000;stroke-width:0.5;" x="39.272727" xlink:href="#mf15a6663eb" y="108.72"/>
      </g>
     </g>
     <g id="line2d_6">
      <g>
       <use style="stroke:#000000;stroke-width:0.5;" x="39.272727" xlink:href="#m090e870d36" y="0"/>
      </g>
     </g>
     <g id="text_3">
      <text style="font-family:Arial;font-size:10px;font-style:normal;font-weight:normal;text-anchor:middle;" transform="rotate(-0, 39.272727, 116.877812)" x="39.272727" y="116.877812">0</text>
     </g>
    </g>
    <g id="xtick_4">
     <g id="line2d_7">
      <defs>
       <path d="M 0 0 
L 0 -2 
" id="mc791f76c48" style="stroke:#000000;stroke-width:0.5;"/>
      </defs>
      <g>
       <use style="stroke:#000000;stroke-width:0.5;" x="130.581818" xlink:href="#mc791f76c48" y="108.72"/>
      </g>
     </g>
     <g id="line2d_8">
      <defs>
       <path d="M 0 0 
L 0 2 
" id="mea586f061f" style="stroke:#000000;stroke-width:0.5;"/>
      </defs>
      <g>
       <use style="stroke:#000000;stroke-width:0.5;" x="130.581818" xlink:href="#mea586f061f" y="0"/>
      </g>
     </g>
    </g>
    <g id="xtick_5">
     <g id="line2d_9">
      <g>
       <use style="stroke:#000000;stroke-width:0.5;" x="120.436364" xlink:href="#mc791f76c48" y="108.72"/>
      </g>
     </g>
     <g id="line2d_10">
      <g>
       <use style="stroke:#000000;stroke-width:0.5;" x="120.436364" xlink:href="#mea586f061f" y="0"/>
      </g>
     </g>
    </g>
    <g id="xtick_6">
     <g id="line2d_11">
      <g>
       <use style="stroke:#000000;stroke-width:0.5;" x="110.290909" xlink:href="#mc791f76c48" y="108.72"/>
      </g>
     </g>
     <g id="line2d_12">
      <g>
       <use style="stroke:#000000;stroke-width:0.5;" x="110.290909" xlink:href="#mea586f061f" y="0"/>
      </g>
     </g>
    </g>
    <g id="xtick_7">
     <g id="line2d_13">
      <g>
       <use style="stroke:#000000;stroke-width:0.5;" x="100.145455" xlink:href="#mc791f76c48" y="108.72"/>
      </g>
     </g>
     <g id="line2d_14">
      <g>
       <use style="stroke:#000000;stroke-width:0.5;" x="100.145455" xlink:href="#mea586f061f" y="0"/>
      </g>
     </g>
    </g>
    <g id="xtick_8">
     <g id="line2d_15">
      <g>
       <use style="stroke:#000000;stroke-width:0.5;" x="79.854545" xlink:href="#mc791f76c48" y="108.72"/>
      </g>
     </g>
     <g id="line2d_16">
      <g>
       <use style="stroke:#000000;stroke-width:0.5;" x="79.854545" xlink:href="#mea586f061f" y="0"/>
      </g>
     </g>
    </g>
    <g id="xtick_9">
     <g id="line2d_17">
      <g>
       <use style="stroke:#000000;stroke-width:0.5;" x="69.709091" xlink:href="#mc791f76c48" y="108.72"/>
      </g>
     </g>
     <g id="line2d_18">
      <g>
       <use style="stroke:#000000;stroke-width:0.5;" x="69.709091" xlink:href="#mea586f061f" y="0"/>
      </g>
     </g>
    </g>
    <g id="xtick_10">
     <g id="line2d_19">
      <g>
       <use style="stroke:#000000;stroke-width:0.5;" x="59.563636" xlink:href="#mc791f76c48" y="108.72"/>
      </g>
     </g>
     <g id="line2d_20">
      <g>
       <use style="stroke:#000000;stroke-width:0.5;" x="59.563636" xlink:href="#mea586f061f" y="0"/>
      </g>
     </g>
    </g>
    <g id="xtick_11">
     <g id="line2d_21">
      <g>
       <use style="stroke:#000000;stroke-width:0.5;" x="49.418182" xlink:href="#mc791f76c48" y="108.72"/>
      </g>
     </g>
     <g id="line2d_22">
      <g>
       <use style="stroke:#000000;stroke-width:0.5;" x="49.418182" xlink:href="#mea586f061f" y="0"/>
      </g>
     </g>
    </g>
    <g id="text_4">
     <!-- $\it{-V_{DS}}$ (V) -->
     <g transform="translate(69.25 126.165312)">
      <text>
       <tspan style="font-family:DejaVu Sans;font-size:10px;font-style:book;font-weight:book;" x="0" y="-0.703125">−</tspan>
       <tspan style="font-family:DejaVu Sans;font-size:10px;font-style:oblique;font-weight:oblique;" x="8.378906" y="-0.703125">V</tspan>
       <tspan style="font-family:DejaVu Sans;font-size:7px;font-style:oblique;font-weight:oblique;" x="15.219727 20.609863" y="0.9375">DS</tspan>
       <tspan style="font-family:Arial;font-size:10px;font-style:regular;font-weight:regular;" x="25.32666 28.10498 31.435059 38.10498" y="-0.703125"> (V)</tspan>
      </text>
     </g>
    </g>
   </g>
   <g id="matplotlib.axis_2">
    <g id="ytick_1">
     <g id="line2d_23">
      <defs>
       <path d="M 0 0 
L 3.5 0 
" id="m9373dd4a72" style="stroke:#000000;stroke-width:0.5;"/>
      </defs>
      <g>
       <use style="stroke:#000000;stroke-width:0.5;" x="34.2" xlink:href="#m9373dd4a72" y="94.685196"/>
      </g>
     </g>
     <g id="line2d_24">
      <defs>
       <path d="M 0 0 
L -3.5 0 
" id="m2e4cfceb31" style="stroke:#000000;stroke-width:0.5;"/>
      </defs>
      <g>
       <use style="stroke:#000000;stroke-width:0.5;" x="145.8" xlink:href="#m2e4cfceb31" y="94.685196"/>
      </g>
     </g>
     <g id="text_5">
      <!-- $\mathdefault{10^{-10}}$ -->
      <g transform="translate(9.5 99.841446)">
       <text>
        <tspan style="font-family:Arial;font-size:10px;font-style:regular;font-weight:regular;" x="0 5.561523" y="-0.9993750000000006">10</tspan>
        <tspan style="font-family:Arial;font-size:7px;font-style:regular;font-weight:regular;" x="11.297281 15.385172 19.278238" y="-7.968749999999999">−10</tspan>
       </text>
      </g>
     </g>
    </g>
    <g id="ytick_2">
     <g id="line2d_25">
      <g>
       <use style="stroke:#000000;stroke-width:0.5;" x="34.2" xlink:href="#m9373dd4a72" y="72.304854"/>
      </g>
     </g>
     <g id="line2d_26">
      <g>
       <use style="stroke:#000000;stroke-width:0.5;" x="145.8" xlink:href="#m2e4cfceb31" y="72.304854"/>
      </g>
     </g>
     <g id="text_6">
      <!-- $\mathdefault{10^{-9}}$ -->
      <g transform="translate(13.4 77.461104)">
       <text>
        <tspan style="font-family:Arial;font-size:10px;font-style:regular;font-weight:regular;" x="0 5.561523" y="-0.9993750000000006">10</tspan>
        <tspan style="font-family:Arial;font-size:7px;font-style:regular;font-weight:regular;" x="11.297281 15.385172" y="-7.968749999999999">−9</tspan>
       </text>
      </g>
     </g>
    </g>
    <g id="ytick_3">
     <g id="line2d_27">
      <g>
       <use style="stroke:#000000;stroke-width:0.5;" x="34.2" xlink:href="#m9373dd4a72" y="49.924512"/>
      </g>
     </g>
     <g id="line2d_28">
      <g>
       <use style="stroke:#000000;stroke-width:0.5;" x="145.8" xlink:href="#m2e4cfceb31" y="49.924512"/>
      </g>
     </g>
     <g id="text_7">
      <!-- $\mathdefault{10^{-8}}$ -->
      <g transform="translate(13.4 55.080762)">
       <text>
        <tspan style="font-family:Arial;font-size:10px;font-style:regular;font-weight:regular;" x="0 5.561523" y="-0.9993750000000006">10</tspan>
        <tspan style="font-family:Arial;font-size:7px;font-style:regular;font-weight:regular;" x="11.297281 15.385172" y="-7.968749999999999">−8</tspan>
       </text>
      </g>
     </g>
    </g>
    <g id="ytick_4">
     <g id="line2d_29">
      <g>
       <use style="stroke:#000000;stroke-width:0.5;" x="34.2" xlink:href="#m9373dd4a72" y="27.544169"/>
      </g>
     </g>
     <g id="line2d_30">
      <g>
       <use style="stroke:#000000;stroke-width:0.5;" x="145.8" xlink:href="#m2e4cfceb31" y="27.544169"/>
      </g>
     </g>
     <g id="text_8">
      <!-- $\mathdefault{10^{-7}}$ -->
      <g transform="translate(13.4 32.650419)">
       <text>
        <tspan style="font-family:Arial;font-size:10px;font-style:regular;font-weight:regular;" x="0 5.561523" y="-0.0868750000000027">10</tspan>
        <tspan style="font-family:Arial;font-size:7px;font-style:regular;font-weight:regular;" x="11.297281 15.385172" y="-7.056250000000001">−7</tspan>
       </text>
      </g>
     </g>
    </g>
    <g id="ytick_5">
     <g id="line2d_31">
      <g>
       <use style="stroke:#000000;stroke-width:0.5;" x="34.2" xlink:href="#m9373dd4a72" y="5.163827"/>
      </g>
     </g>
     <g id="line2d_32">
      <g>
       <use style="stroke:#000000;stroke-width:0.5;" x="145.8" xlink:href="#m2e4cfceb31" y="5.163827"/>
      </g>
     </g>
     <g id="text_9">
      <!-- $\mathdefault{10^{-6}}$ -->
      <g transform="translate(13.4 10.320077)">
       <text>
        <tspan style="font-family:Arial;font-size:10px;font-style:regular;font-weight:regular;" x="0 5.561523" y="-0.9993750000000006">10</tspan>
        <tspan style="font-family:Arial;font-size:7px;font-style:regular;font-weight:regular;" x="11.297281 15.385172" y="-7.968749999999999">−6</tspan>
       </text>
      </g>
     </g>
    </g>
    <g id="ytick_6">
     <g id="line2d_33">
      <defs>
       <path d="M 0 0 
L 2 0 
" id="m28300797cc" style="stroke:#000000;stroke-width:0.5;"/>
      </defs>
      <g>
       <use style="stroke:#000000;stroke-width:0.5;" x="34.2" xlink:href="#m28300797cc" y="106.387402"/>
      </g>
     </g>
     <g id="line2d_34">
      <defs>
       <path d="M 0 0 
L -2 0 
" id="m2b867caf17" style="stroke:#000000;stroke-width:0.5;"/>
      </defs>
      <g>
       <use style="stroke:#000000;stroke-width:0.5;" x="145.8" xlink:href="#m2b867caf17" y="106.387402"/>
      </g>
     </g>
    </g>
    <g id="ytick_7">
     <g id="line2d_35">
      <g>
       <use style="stroke:#000000;stroke-width:0.5;" x="34.2" xlink:href="#m28300797cc" y="103.59123"/>
      </g>
     </g>
     <g id="line2d_36">
      <g>
       <use style="stroke:#000000;stroke-width:0.5;" x="145.8" xlink:href="#m2b867caf17" y="103.59123"/>
      </g>
     </g>
    </g>
    <g id="ytick_8">
     <g id="line2d_37">
      <g>
       <use style="stroke:#000000;stroke-width:0.5;" x="34.2" xlink:href="#m28300797cc" y="101.422351"/>
      </g>
     </g>
     <g id="line2d_38">
      <g>
       <use style="stroke:#000000;stroke-width:0.5;" x="145.8" xlink:href="#m2b867caf17" y="101.422351"/>
      </g>
     </g>
    </g>
    <g id="ytick_9">
     <g id="line2d_39">
      <g>
       <use style="stroke:#000000;stroke-width:0.5;" x="34.2" xlink:href="#m28300797cc" y="99.650247"/>
      </g>
     </g>
     <g id="line2d_40">
      <g>
       <use style="stroke:#000000;stroke-width:0.5;" x="145.8" xlink:href="#m2b867caf17" y="99.650247"/>
      </g>
     </g>
    </g>
    <g id="ytick_10">
     <g id="line2d_41">
      <g>
       <use style="stroke:#000000;stroke-width:0.5;" x="34.2" xlink:href="#m28300797cc" y="98.151955"/>
      </g>
     </g>
     <g id="line2d_42">
      <g>
       <use style="stroke:#000000;stroke-width:0.5;" x="145.8" xlink:href="#m2b867caf17" y="98.151955"/>
      </g>
     </g>
    </g>
    <g id="ytick_11">
     <g id="line2d_43">
      <g>
       <use style="stroke:#000000;stroke-width:0.5;" x="34.2" xlink:href="#m28300797cc" y="96.854076"/>
      </g>
     </g>
     <g id="line2d_44">
      <g>
       <use style="stroke:#000000;stroke-width:0.5;" x="145.8" xlink:href="#m2b867caf17" y="96.854076"/>
      </g>
     </g>
    </g>
    <g id="ytick_12">
     <g id="line2d_45">
      <g>
       <use style="stroke:#000000;stroke-width:0.5;" x="34.2" xlink:href="#m28300797cc" y="95.709265"/>
      </g>
     </g>
     <g id="line2d_46">
      <g>
       <use style="stroke:#000000;stroke-width:0.5;" x="145.8" xlink:href="#m2b867caf17" y="95.709265"/>
      </g>
     </g>
    </g>
    <g id="ytick_13">
     <g id="line2d_47">
      <g>
       <use style="stroke:#000000;stroke-width:0.5;" x="34.2" xlink:href="#m28300797cc" y="87.948042"/>
      </g>
     </g>
     <g id="line2d_48">
      <g>
       <use style="stroke:#000000;stroke-width:0.5;" x="145.8" xlink:href="#m2b867caf17" y="87.948042"/>
      </g>
     </g>
    </g>
    <g id="ytick_14">
     <g id="line2d_49">
      <g>
       <use style="stroke:#000000;stroke-width:0.5;" x="34.2" xlink:href="#m28300797cc" y="84.007059"/>
      </g>
     </g>
     <g id="line2d_50">
      <g>
       <use style="stroke:#000000;stroke-width:0.5;" x="145.8" xlink:href="#m2b867caf17" y="84.007059"/>
      </g>
     </g>
    </g>
    <g id="ytick_15">
     <g id="line2d_51">
      <g>
       <use style="stroke:#000000;stroke-width:0.5;" x="34.2" xlink:href="#m28300797cc" y="81.210888"/>
      </g>
     </g>
     <g id="line2d_52">
      <g>
       <use style="stroke:#000000;stroke-width:0.5;" x="145.8" xlink:href="#m2b867caf17" y="81.210888"/>
      </g>
     </g>
    </g>
    <g id="ytick_16">
     <g id="line2d_53">
      <g>
       <use style="stroke:#000000;stroke-width:0.5;" x="34.2" xlink:href="#m28300797cc" y="79.042008"/>
      </g>
     </g>
     <g id="line2d_54">
      <g>
       <use style="stroke:#000000;stroke-width:0.5;" x="145.8" xlink:href="#m2b867caf17" y="79.042008"/>
      </g>
     </g>
    </g>
    <g id="ytick_17">
     <g id="line2d_55">
      <g>
       <use style="stroke:#000000;stroke-width:0.5;" x="34.2" xlink:href="#m28300797cc" y="77.269905"/>
      </g>
     </g>
     <g id="line2d_56">
      <g>
       <use style="stroke:#000000;stroke-width:0.5;" x="145.8" xlink:href="#m2b867caf17" y="77.269905"/>
      </g>
     </g>
    </g>
    <g id="ytick_18">
     <g id="line2d_57">
      <g>
       <use style="stroke:#000000;stroke-width:0.5;" x="34.2" xlink:href="#m28300797cc" y="75.771613"/>
      </g>
     </g>
     <g id="line2d_58">
      <g>
       <use style="stroke:#000000;stroke-width:0.5;" x="145.8" xlink:href="#m2b867caf17" y="75.771613"/>
      </g>
     </g>
    </g>
    <g id="ytick_19">
     <g id="line2d_59">
      <g>
       <use style="stroke:#000000;stroke-width:0.5;" x="34.2" xlink:href="#m28300797cc" y="74.473733"/>
      </g>
     </g>
     <g id="line2d_60">
      <g>
       <use style="stroke:#000000;stroke-width:0.5;" x="145.8" xlink:href="#m2b867caf17" y="74.473733"/>
      </g>
     </g>
    </g>
    <g id="ytick_20">
     <g id="line2d_61">
      <g>
       <use style="stroke:#000000;stroke-width:0.5;" x="34.2" xlink:href="#m28300797cc" y="73.328922"/>
      </g>
     </g>
     <g id="line2d_62">
      <g>
       <use style="stroke:#000000;stroke-width:0.5;" x="145.8" xlink:href="#m2b867caf17" y="73.328922"/>
      </g>
     </g>
    </g>
    <g id="ytick_21">
     <g id="line2d_63">
      <g>
       <use style="stroke:#000000;stroke-width:0.5;" x="34.2" xlink:href="#m28300797cc" y="65.5677"/>
      </g>
     </g>
     <g id="line2d_64">
      <g>
       <use style="stroke:#000000;stroke-width:0.5;" x="145.8" xlink:href="#m2b867caf17" y="65.5677"/>
      </g>
     </g>
    </g>
    <g id="ytick_22">
     <g id="line2d_65">
      <g>
       <use style="stroke:#000000;stroke-width:0.5;" x="34.2" xlink:href="#m28300797cc" y="61.626717"/>
      </g>
     </g>
     <g id="line2d_66">
      <g>
       <use style="stroke:#000000;stroke-width:0.5;" x="145.8" xlink:href="#m2b867caf17" y="61.626717"/>
      </g>
     </g>
    </g>
    <g id="ytick_23">
     <g id="line2d_67">
      <g>
       <use style="stroke:#000000;stroke-width:0.5;" x="34.2" xlink:href="#m28300797cc" y="58.830545"/>
      </g>
     </g>
     <g id="line2d_68">
      <g>
       <use style="stroke:#000000;stroke-width:0.5;" x="145.8" xlink:href="#m2b867caf17" y="58.830545"/>
      </g>
     </g>
    </g>
    <g id="ytick_24">
     <g id="line2d_69">
      <g>
       <use style="stroke:#000000;stroke-width:0.5;" x="34.2" xlink:href="#m28300797cc" y="56.661666"/>
      </g>
     </g>
     <g id="line2d_70">
      <g>
       <use style="stroke:#000000;stroke-width:0.5;" x="145.8" xlink:href="#m2b867caf17" y="56.661666"/>
      </g>
     </g>
    </g>
    <g id="ytick_25">
     <g id="line2d_71">
      <g>
       <use style="stroke:#000000;stroke-width:0.5;" x="34.2" xlink:href="#m28300797cc" y="54.889563"/>
      </g>
     </g>
     <g id="line2d_72">
      <g>
       <use style="stroke:#000000;stroke-width:0.5;" x="145.8" xlink:href="#m2b867caf17" y="54.889563"/>
      </g>
     </g>
    </g>
    <g id="ytick_26">
     <g id="line2d_73">
      <g>
       <use style="stroke:#000000;stroke-width:0.5;" x="34.2" xlink:href="#m28300797cc" y="53.391271"/>
      </g>
     </g>
     <g id="line2d_74">
      <g>
       <use style="stroke:#000000;stroke-width:0.5;" x="145.8" xlink:href="#m2b867caf17" y="53.391271"/>
      </g>
     </g>
    </g>
    <g id="ytick_27">
     <g id="line2d_75">
      <g>
       <use style="stroke:#000000;stroke-width:0.5;" x="34.2" xlink:href="#m28300797cc" y="52.093391"/>
      </g>
     </g>
     <g id="line2d_76">
      <g>
       <use style="stroke:#000000;stroke-width:0.5;" x="145.8" xlink:href="#m2b867caf17" y="52.093391"/>
      </g>
     </g>
    </g>
    <g id="ytick_28">
     <g id="line2d_77">
      <g>
       <use style="stroke:#000000;stroke-width:0.5;" x="34.2" xlink:href="#m28300797cc" y="50.94858"/>
      </g>
     </g>
     <g id="line2d_78">
      <g>
       <use style="stroke:#000000;stroke-width:0.5;" x="145.8" xlink:href="#m2b867caf17" y="50.94858"/>
      </g>
     </g>
    </g>
    <g id="ytick_29">
     <g id="line2d_79">
      <g>
       <use style="stroke:#000000;stroke-width:0.5;" x="34.2" xlink:href="#m28300797cc" y="43.187357"/>
      </g>
     </g>
     <g id="line2d_80">
      <g>
       <use style="stroke:#000000;stroke-width:0.5;" x="145.8" xlink:href="#m2b867caf17" y="43.187357"/>
      </g>
     </g>
    </g>
    <g id="ytick_30">
     <g id="line2d_81">
      <g>
       <use style="stroke:#000000;stroke-width:0.5;" x="34.2" xlink:href="#m28300797cc" y="39.246375"/>
      </g>
     </g>
     <g id="line2d_82">
      <g>
       <use style="stroke:#000000;stroke-width:0.5;" x="145.8" xlink:href="#m2b867caf17" y="39.246375"/>
      </g>
     </g>
    </g>
    <g id="ytick_31">
     <g id="line2d_83">
      <g>
       <use style="stroke:#000000;stroke-width:0.5;" x="34.2" xlink:href="#m28300797cc" y="36.450203"/>
      </g>
     </g>
     <g id="line2d_84">
      <g>
       <use style="stroke:#000000;stroke-width:0.5;" x="145.8" xlink:href="#m2b867caf17" y="36.450203"/>
      </g>
     </g>
    </g>
    <g id="ytick_32">
     <g id="line2d_85">
      <g>
       <use style="stroke:#000000;stroke-width:0.5;" x="34.2" xlink:href="#m28300797cc" y="34.281324"/>
      </g>
     </g>
     <g id="line2d_86">
      <g>
       <use style="stroke:#000000;stroke-width:0.5;" x="145.8" xlink:href="#m2b867caf17" y="34.281324"/>
      </g>
     </g>
    </g>
    <g id="ytick_33">
     <g id="line2d_87">
      <g>
       <use style="stroke:#000000;stroke-width:0.5;" x="34.2" xlink:href="#m28300797cc" y="32.50922"/>
      </g>
     </g>
     <g id="line2d_88">
      <g>
       <use style="stroke:#000000;stroke-width:0.5;" x="145.8" xlink:href="#m2b867caf17" y="32.50922"/>
      </g>
     </g>
    </g>
    <g id="ytick_34">
     <g id="line2d_89">
      <g>
       <use style="stroke:#000000;stroke-width:0.5;" x="34.2" xlink:href="#m28300797cc" y="31.010928"/>
      </g>
     </g>
     <g id="line2d_90">
      <g>
       <use style="stroke:#000000;stroke-width:0.5;" x="145.8" xlink:href="#m2b867caf17" y="31.010928"/>
      </g>
     </g>
    </g>
    <g id="ytick_35">
     <g id="line2d_91">
      <g>
       <use style="stroke:#000000;stroke-width:0.5;" x="34.2" xlink:href="#m28300797cc" y="29.713049"/>
      </g>
     </g>
     <g id="line2d_92">
      <g>
       <use style="stroke:#000000;stroke-width:0.5;" x="145.8" xlink:href="#m2b867caf17" y="29.713049"/>
      </g>
     </g>
    </g>
    <g id="ytick_36">
     <g id="line2d_93">
      <g>
       <use style="stroke:#000000;stroke-width:0.5;" x="34.2" xlink:href="#m28300797cc" y="28.568238"/>
      </g>
     </g>
     <g id="line2d_94">
      <g>
       <use style="stroke:#000000;stroke-width:0.5;" x="145.8" xlink:href="#m2b867caf17" y="28.568238"/>
      </g>
     </g>
    </g>
    <g id="ytick_37">
     <g id="line2d_95">
      <g>
       <use style="stroke:#000000;stroke-width:0.5;" x="34.2" xlink:href="#m28300797cc" y="20.807015"/>
      </g>
     </g>
     <g id="line2d_96">
      <g>
       <use style="stroke:#000000;stroke-width:0.5;" x="145.8" xlink:href="#m2b867caf17" y="20.807015"/>
      </g>
     </g>
    </g>
    <g id="ytick_38">
     <g id="line2d_97">
      <g>
       <use style="stroke:#000000;stroke-width:0.5;" x="34.2" xlink:href="#m28300797cc" y="16.866032"/>
      </g>
     </g>
     <g id="line2d_98">
      <g>
       <use style="stroke:#000000;stroke-width:0.5;" x="145.8" xlink:href="#m2b867caf17" y="16.866032"/>
      </g>
     </g>
    </g>
    <g id="ytick_39">
     <g id="line2d_99">
      <g>
       <use style="stroke:#000000;stroke-width:0.5;" x="34.2" xlink:href="#m28300797cc" y="14.069861"/>
      </g>
     </g>
     <g id="line2d_100">
      <g>
       <use style="stroke:#000000;stroke-width:0.5;" x="145.8" xlink:href="#m2b867caf17" y="14.069861"/>
      </g>
     </g>
    </g>
    <g id="ytick_40">
     <g id="line2d_101">
      <g>
       <use style="stroke:#000000;stroke-width:0.5;" x="34.2" xlink:href="#m28300797cc" y="11.900982"/>
      </g>
     </g>
     <g id="line2d_102">
      <g>
       <use style="stroke:#000000;stroke-width:0.5;" x="145.8" xlink:href="#m2b867caf17" y="11.900982"/>
      </g>
     </g>
    </g>
    <g id="ytick_41">
     <g id="line2d_103">
      <g>
       <use style="stroke:#000000;stroke-width:0.5;" x="34.2" xlink:href="#m28300797cc" y="10.128878"/>
      </g>
     </g>
     <g id="line2d_104">
      <g>
       <use style="stroke:#000000;stroke-width:0.5;" x="145.8" xlink:href="#m2b867caf17" y="10.128878"/>
      </g>
     </g>
    </g>
    <g id="ytick_42">
     <g id="line2d_105">
      <g>
       <use style="stroke:#000000;stroke-width:0.5;" x="34.2" xlink:href="#m28300797cc" y="8.630586"/>
      </g>
     </g>
     <g id="line2d_106">
      <g>
       <use style="stroke:#000000;stroke-width:0.5;" x="145.8" xlink:href="#m2b867caf17" y="8.630586"/>
      </g>
     </g>
    </g>
    <g id="ytick_43">
     <g id="line2d_107">
      <g>
       <use style="stroke:#000000;stroke-width:0.5;" x="34.2" xlink:href="#m28300797cc" y="7.332706"/>
      </g>
     </g>
     <g id="line2d_108">
      <g>
       <use style="stroke:#000000;stroke-width:0.5;" x="145.8" xlink:href="#m2b867caf17" y="7.332706"/>
      </g>
     </g>
    </g>
    <g id="ytick_44">
     <g id="line2d_109">
      <g>
       <use style="stroke:#000000;stroke-width:0.5;" x="34.2" xlink:href="#m28300797cc" y="6.187895"/>
      </g>
     </g>
     <g id="line2d_110">
      <g>
       <use style="stroke:#000000;stroke-width:0.5;" x="145.8" xlink:href="#m2b867caf17" y="6.187895"/>
      </g>
     </g>
    </g>
    <g id="text_10">
     <!-- $\it{-I_{D}}$ (A) -->
     <g transform="translate(7.3 70.96)rotate(-90)">
      <text>
       <tspan style="font-family:DejaVu Sans;font-size:10px;font-style:book;font-weight:book;" x="0" y="-0.703125">−</tspan>
       <tspan style="font-family:DejaVu Sans;font-size:10px;font-style:oblique;font-weight:oblique;" x="8.378906" y="-0.703125">I</tspan>
       <tspan style="font-family:DejaVu Sans;font-size:7px;font-style:oblique;font-weight:oblique;" x="11.328125" y="0.9375">D</tspan>
       <tspan style="font-family:Arial;font-size:10px;font-style:regular;font-weight:regular;" x="16.991699 19.77002 23.100098 29.77002" y="-0.703125"> (A)</tspan>
      </text>
     </g>
    </g>
   </g>
   <g id="line2d_111">
    <path clip-path="url(#pdfb2dbc7ae)" d="M 39.272727 103.778182 
L 44.345455 55.631091 
L 49.418182 48.663209 
L 54.490909 44.690515 
L 59.563636 41.914389 
L 64.636364 39.888216 
L 69.709091 38.341607 
L 74.781818 36.894896 
L 79.854545 35.598311 
L 84.927273 34.637211 
L 90 33.478337 
L 95.072727 32.400525 
L 100.145455 31.185596 
L 105.218182 30.352468 
L 110.290909 29.37051 
L 115.363636 28.247095 
L 120.436364 26.732623 
L 125.509091 25.964393 
L 130.581818 24.892756 
L 135.654545 23.855553 
L 140.727273 22.870256 
" style="fill:none;stroke:#e41a1c;stroke-linecap:square;stroke-width:1.5;"/>
    <defs>
     <path d="M 0 0.5 
C 0.132602 0.5 0.25979 0.447317 0.353553 0.353553 
C 0.447317 0.25979 0.5 0.132602 0.5 0 
C 0.5 -0.132602 0.447317 -0.25979 0.353553 -0.353553 
C 0.25979 -0.447317 0.132602 -0.5 0 -0.5 
C -0.132602 -0.5 -0.25979 -0.447317 -0.353553 -0.353553 
C -0.447317 -0.25979 -0.5 -0.132602 -0.5 0 
C -0.5 0.132602 -0.447317 0.25979 -0.353553 0.353553 
C -0.25979 0.447317 -0.132602 0.5 0 0.5 
z
" id="mbbfd5aa0cc" style="stroke:#e41a1c;"/>
    </defs>
    <g clip-path="url(#pdfb2dbc7ae)">
     <use style="fill:#e41a1c;stroke:#e41a1c;" x="39.272727" xlink:href="#mbbfd5aa0cc" y="103.778182"/>
     <use style="fill:#e41a1c;stroke:#e41a1c;" x="44.345455" xlink:href="#mbbfd5aa0cc" y="55.631091"/>
     <use style="fill:#e41a1c;stroke:#e41a1c;" x="49.418182" xlink:href="#mbbfd5aa0cc" y="48.663209"/>
     <use style="fill:#e41a1c;stroke:#e41a1c;" x="54.490909" xlink:href="#mbbfd5aa0cc" y="44.690515"/>
     <use style="fill:#e41a1c;stroke:#e41a1c;" x="59.563636" xlink:href="#mbbfd5aa0cc" y="41.914389"/>
     <use style="fill:#e41a1c;stroke:#e41a1c;" x="64.636364" xlink:href="#mbbfd5aa0cc" y="39.888216"/>
     <use style="fill:#e41a1c;stroke:#e41a1c;" x="69.709091" xlink:href="#mbbfd5aa0cc" y="38.341607"/>
     <use style="fill:#e41a1c;stroke:#e41a1c;" x="74.781818" xlink:href="#mbbfd5aa0cc" y="36.894896"/>
     <use style="fill:#e41a1c;stroke:#e41a1c;" x="79.854545" xlink:href="#mbbfd5aa0cc" y="35.598311"/>
     <use style="fill:#e41a1c;stroke:#e41a1c;" x="84.927273" xlink:href="#mbbfd5aa0cc" y="34.637211"/>
     <use style="fill:#e41a1c;stroke:#e41a1c;" x="90" xlink:href="#mbbfd5aa0cc" y="33.478337"/>
     <use style="fill:#e41a1c;stroke:#e41a1c;" x="95.072727" xlink:href="#mbbfd5aa0cc" y="32.400525"/>
     <use style="fill:#e41a1c;stroke:#e41a1c;" x="100.145455" xlink:href="#mbbfd5aa0cc" y="31.185596"/>
     <use style="fill:#e41a1c;stroke:#e41a1c;" x="105.218182" xlink:href="#mbbfd5aa0cc" y="30.352468"/>
     <use style="fill:#e41a1c;stroke:#e41a1c;" x="110.290909" xlink:href="#mbbfd5aa0cc" y="29.37051"/>
     <use style="fill:#e41a1c;stroke:#e41a1c;" x="115.363636" xlink:href="#mbbfd5aa0cc" y="28.247095"/>
     <use style="fill:#e41a1c;stroke:#e41a1c;" x="120.436364" xlink:href="#mbbfd5aa0cc" y="26.732623"/>
     <use style="fill:#e41a1c;stroke:#e41a1c;" x="125.509091" xlink:href="#mbbfd5aa0cc" y="25.964393"/>
     <use style="fill:#e41a1c;stroke:#e41a1c;" x="130.581818" xlink:href="#mbbfd5aa0cc" y="24.892756"/>
     <use style="fill:#e41a1c;stroke:#e41a1c;" x="135.654545" xlink:href="#mbbfd5aa0cc" y="23.855553"/>
     <use style="fill:#e41a1c;stroke:#e41a1c;" x="140.727273" xlink:href="#mbbfd5aa0cc" y="22.870256"/>
    </g>
   </g>
   <g id="line2d_112">
    <path clip-path="url(#pdfb2dbc7ae)" d="M 39.272727 73.857606 
L 44.345455 45.768935 
L 49.418182 38.915115 
L 54.490909 34.952779 
L 59.563636 32.292725 
L 64.636364 30.252171 
L 69.709091 28.289971 
L 74.781818 26.341442 
L 79.854545 25.026808 
L 84.927273 23.602317 
L 90 22.270256 
L 95.072727 21.176266 
L 100.145455 20.199026 
L 105.218182 19.31316 
L 110.290909 18.555053 
L 115.363636 18.120245 
L 120.436364 17.578212 
L 125.509091 17.010469 
L 130.581818 16.365275 
L 135.654545 15.918092 
L 140.727273 15.460163 
" style="fill:none;stroke:#ff7f00;stroke-linecap:square;stroke-width:1.5;"/>
    <defs>
     <path d="M 0 0.5 
C 0.132602 0.5 0.25979 0.447317 0.353553 0.353553 
C 0.447317 0.25979 0.5 0.132602 0.5 0 
C 0.5 -0.132602 0.447317 -0.25979 0.353553 -0.353553 
C 0.25979 -0.447317 0.132602 -0.5 0 -0.5 
C -0.132602 -0.5 -0.25979 -0.447317 -0.353553 -0.353553 
C -0.447317 -0.25979 -0.5 -0.132602 -0.5 0 
C -0.5 0.132602 -0.447317 0.25979 -0.353553 0.353553 
C -0.25979 0.447317 -0.132602 0.5 0 0.5 
z
" id="md2b50efc46" style="stroke:#ff7f00;"/>
    </defs>
    <g clip-path="url(#pdfb2dbc7ae)">
     <use style="fill:#ff7f00;stroke:#ff7f00;" x="39.272727" xlink:href="#md2b50efc46" y="73.857606"/>
     <use style="fill:#ff7f00;stroke:#ff7f00;" x="44.345455" xlink:href="#md2b50efc46" y="45.768935"/>
     <use style="fill:#ff7f00;stroke:#ff7f00;" x="49.418182" xlink:href="#md2b50efc46" y="38.915115"/>
     <use style="fill:#ff7f00;stroke:#ff7f00;" x="54.490909" xlink:href="#md2b50efc46" y="34.952779"/>
     <use style="fill:#ff7f00;stroke:#ff7f00;" x="59.563636" xlink:href="#md2b50efc46" y="32.292725"/>
     <use style="fill:#ff7f00;stroke:#ff7f00;" x="64.636364" xlink:href="#md2b50efc46" y="30.252171"/>
     <use style="fill:#ff7f00;stroke:#ff7f00;" x="69.709091" xlink:href="#md2b50efc46" y="28.289971"/>
     <use style="fill:#ff7f00;stroke:#ff7f00;" x="74.781818" xlink:href="#md2b50efc46" y="26.341442"/>
     <use style="fill:#ff7f00;stroke:#ff7f00;" x="79.854545" xlink:href="#md2b50efc46" y="25.026808"/>
     <use style="fill:#ff7f00;stroke:#ff7f00;" x="84.927273" xlink:href="#md2b50efc46" y="23.602317"/>
     <use style="fill:#ff7f00;stroke:#ff7f00;" x="90" xlink:href="#md2b50efc46" y="22.270256"/>
     <use style="fill:#ff7f00;stroke:#ff7f00;" x="95.072727" xlink:href="#md2b50efc46" y="21.176266"/>
     <use style="fill:#ff7f00;stroke:#ff7f00;" x="100.145455" xlink:href="#md2b50efc46" y="20.199026"/>
     <use style="fill:#ff7f00;stroke:#ff7f00;" x="105.218182" xlink:href="#md2b50efc46" y="19.31316"/>
     <use style="fill:#ff7f00;stroke:#ff7f00;" x="110.290909" xlink:href="#md2b50efc46" y="18.555053"/>
     <use style="fill:#ff7f00;stroke:#ff7f00;" x="115.363636" xlink:href="#md2b50efc46" y="18.120245"/>
     <use style="fill:#ff7f00;stroke:#ff7f00;" x="120.436364" xlink:href="#md2b50efc46" y="17.578212"/>
     <use style="fill:#ff7f00;stroke:#ff7f00;" x="125.509091" xlink:href="#md2b50efc46" y="17.010469"/>
     <use style="fill:#ff7f00;stroke:#ff7f00;" x="130.581818" xlink:href="#md2b50efc46" y="16.365275"/>
     <use style="fill:#ff7f00;stroke:#ff7f00;" x="135.654545" xlink:href="#md2b50efc46" y="15.918092"/>
     <use style="fill:#ff7f00;stroke:#ff7f00;" x="140.727273" xlink:href="#md2b50efc46" y="15.460163"/>
    </g>
   </g>
   <g id="line2d_113">
    <path clip-path="url(#pdfb2dbc7ae)" d="M 39.272727 74.92361 
L 44.345455 41.496124 
L 49.418182 34.509851 
L 54.490909 30.502079 
L 59.563636 27.950562 
L 64.636364 25.245267 
L 69.709091 23.370364 
L 74.781818 21.51203 
L 79.854545 19.870875 
L 84.927273 18.35982 
L 90 17.077717 
L 95.072727 15.999163 
L 100.145455 15.105985 
L 105.218182 14.298338 
L 110.290909 13.538464 
L 115.363636 12.919971 
L 120.436364 12.357491 
L 125.509091 11.858178 
L 130.581818 11.363696 
L 135.654545 10.925167 
L 140.727273 10.630614 
" style="fill:none;stroke:#984ea3;stroke-linecap:square;stroke-width:1.5;"/>
    <defs>
     <path d="M 0 0.5 
C 0.132602 0.5 0.25979 0.447317 0.353553 0.353553 
C 0.447317 0.25979 0.5 0.132602 0.5 0 
C 0.5 -0.132602 0.447317 -0.25979 0.353553 -0.353553 
C 0.25979 -0.447317 0.132602 -0.5 0 -0.5 
C -0.132602 -0.5 -0.25979 -0.447317 -0.353553 -0.353553 
C -0.447317 -0.25979 -0.5 -0.132602 -0.5 0 
C -0.5 0.132602 -0.447317 0.25979 -0.353553 0.353553 
C -0.25979 0.447317 -0.132602 0.5 0 0.5 
z
" id="m5828700918" style="stroke:#984ea3;"/>
    </defs>
    <g clip-path="url(#pdfb2dbc7ae)">
     <use style="fill:#984ea3;stroke:#984ea3;" x="39.272727" xlink:href="#m5828700918" y="74.92361"/>
     <use style="fill:#984ea3;stroke:#984ea3;" x="44.345455" xlink:href="#m5828700918" y="41.496124"/>
     <use style="fill:#984ea3;stroke:#984ea3;" x="49.418182" xlink:href="#m5828700918" y="34.509851"/>
     <use style="fill:#984ea3;stroke:#984ea3;" x="54.490909" xlink:href="#m5828700918" y="30.502079"/>
     <use style="fill:#984ea3;stroke:#984ea3;" x="59.563636" xlink:href="#m5828700918" y="27.950562"/>
     <use style="fill:#984ea3;stroke:#984ea3;" x="64.636364" xlink:href="#m5828700918" y="25.245267"/>
     <use style="fill:#984ea3;stroke:#984ea3;" x="69.709091" xlink:href="#m5828700918" y="23.370364"/>
     <use style="fill:#984ea3;stroke:#984ea3;" x="74.781818" xlink:href="#m5828700918" y="21.51203"/>
     <use style="fill:#984ea3;stroke:#984ea3;" x="79.854545" xlink:href="#m5828700918" y="19.870875"/>
     <use style="fill:#984ea3;stroke:#984ea3;" x="84.927273" xlink:href="#m5828700918" y="18.35982"/>
     <use style="fill:#984ea3;stroke:#984ea3;" x="90" xlink:href="#m5828700918" y="17.077717"/>
     <use style="fill:#984ea3;stroke:#984ea3;" x="95.072727" xlink:href="#m5828700918" y="15.999163"/>
     <use style="fill:#984ea3;stroke:#984ea3;" x="100.145455" xlink:href="#m5828700918" y="15.105985"/>
     <use style="fill:#984ea3;stroke:#984ea3;" x="105.218182" xlink:href="#m5828700918" y="14.298338"/>
     <use style="fill:#984ea3;stroke:#984ea3;" x="110.290909" xlink:href="#m5828700918" y="13.538464"/>
     <use style="fill:#984ea3;stroke:#984ea3;" x="115.363636" xlink:href="#m5828700918" y="12.919971"/>
     <use style="fill:#984ea3;stroke:#984ea3;" x="120.436364" xlink:href="#m5828700918" y="12.357491"/>
     <use style="fill:#984ea3;stroke:#984ea3;" x="125.509091" xlink:href="#m5828700918" y="11.858178"/>
     <use style="fill:#984ea3;stroke:#984ea3;" x="130.581818" xlink:href="#m5828700918" y="11.363696"/>
     <use style="fill:#984ea3;stroke:#984ea3;" x="135.654545" xlink:href="#m5828700918" y="10.925167"/>
     <use style="fill:#984ea3;stroke:#984ea3;" x="140.727273" xlink:href="#m5828700918" y="10.630614"/>
    </g>
   </g>
   <g id="line2d_114">
    <path clip-path="url(#pdfb2dbc7ae)" d="M 39.272727 85.011134 
L 44.345455 37.177448 
L 49.418182 30.297237 
L 54.490909 26.527419 
L 59.563636 24.099456 
L 64.636364 22.042587 
L 69.709091 19.961141 
L 74.781818 18.245897 
L 79.854545 16.70936 
L 84.927273 15.298656 
L 90 14.044607 
L 95.072727 13.118406 
L 100.145455 12.220654 
L 105.218182 11.542117 
L 110.290909 10.763767 
L 115.363636 10.123379 
L 120.436364 9.618477 
L 125.509091 9.063292 
L 130.581818 8.61408 
L 135.654545 8.087508 
L 140.727273 7.636066 
" style="fill:none;stroke:#a65628;stroke-linecap:square;stroke-width:1.5;"/>
    <defs>
     <path d="M 0 0.5 
C 0.132602 0.5 0.25979 0.447317 0.353553 0.353553 
C 0.447317 0.25979 0.5 0.132602 0.5 0 
C 0.5 -0.132602 0.447317 -0.25979 0.353553 -0.353553 
C 0.25979 -0.447317 0.132602 -0.5 0 -0.5 
C -0.132602 -0.5 -0.25979 -0.447317 -0.353553 -0.353553 
C -0.447317 -0.25979 -0.5 -0.132602 -0.5 0 
C -0.5 0.132602 -0.447317 0.25979 -0.353553 0.353553 
C -0.25979 0.447317 -0.132602 0.5 0 0.5 
z
" id="m9dc5ee10f2" style="stroke:#a65628;"/>
    </defs>
    <g clip-path="url(#pdfb2dbc7ae)">
     <use style="fill:#a65628;stroke:#a65628;" x="39.272727" xlink:href="#m9dc5ee10f2" y="85.011134"/>
     <use style="fill:#a65628;stroke:#a65628;" x="44.345455" xlink:href="#m9dc5ee10f2" y="37.177448"/>
     <use style="fill:#a65628;stroke:#a65628;" x="49.418182" xlink:href="#m9dc5ee10f2" y="30.297237"/>
     <use style="fill:#a65628;stroke:#a65628;" x="54.490909" xlink:href="#m9dc5ee10f2" y="26.527419"/>
     <use style="fill:#a65628;stroke:#a65628;" x="59.563636" xlink:href="#m9dc5ee10f2" y="24.099456"/>
     <use style="fill:#a65628;stroke:#a65628;" x="64.636364" xlink:href="#m9dc5ee10f2" y="22.042587"/>
     <use style="fill:#a65628;stroke:#a65628;" x="69.709091" xlink:href="#m9dc5ee10f2" y="19.961141"/>
     <use style="fill:#a65628;stroke:#a65628;" x="74.781818" xlink:href="#m9dc5ee10f2" y="18.245897"/>
     <use style="fill:#a65628;stroke:#a65628;" x="79.854545" xlink:href="#m9dc5ee10f2" y="16.70936"/>
     <use style="fill:#a65628;stroke:#a65628;" x="84.927273" xlink:href="#m9dc5ee10f2" y="15.298656"/>
     <use style="fill:#a65628;stroke:#a65628;" x="90" xlink:href="#m9dc5ee10f2" y="14.044607"/>
     <use style="fill:#a65628;stroke:#a65628;" x="95.072727" xlink:href="#m9dc5ee10f2" y="13.118406"/>
     <use style="fill:#a65628;stroke:#a65628;" x="100.145455" xlink:href="#m9dc5ee10f2" y="12.220654"/>
     <use style="fill:#a65628;stroke:#a65628;" x="105.218182" xlink:href="#m9dc5ee10f2" y="11.542117"/>
     <use style="fill:#a65628;stroke:#a65628;" x="110.290909" xlink:href="#m9dc5ee10f2" y="10.763767"/>
     <use style="fill:#a65628;stroke:#a65628;" x="115.363636" xlink:href="#m9dc5ee10f2" y="10.123379"/>
     <use style="fill:#a65628;stroke:#a65628;" x="120.436364" xlink:href="#m9dc5ee10f2" y="9.618477"/>
     <use style="fill:#a65628;stroke:#a65628;" x="125.509091" xlink:href="#m9dc5ee10f2" y="9.063292"/>
     <use style="fill:#a65628;stroke:#a65628;" x="130.581818" xlink:href="#m9dc5ee10f2" y="8.61408"/>
     <use style="fill:#a65628;stroke:#a65628;" x="135.654545" xlink:href="#m9dc5ee10f2" y="8.087508"/>
     <use style="fill:#a65628;stroke:#a65628;" x="140.727273" xlink:href="#m9dc5ee10f2" y="7.636066"/>
    </g>
   </g>
   <g id="line2d_115">
    <path clip-path="url(#pdfb2dbc7ae)" d="M 39.272727 91.143831 
L 44.345455 33.196068 
L 49.418182 26.789791 
L 54.490909 23.192215 
L 59.563636 20.967672 
L 64.636364 19.008418 
L 69.709091 17.308952 
L 74.781818 15.834916 
L 79.854545 14.454774 
L 84.927273 13.380787 
L 90 12.363421 
L 95.072727 11.454863 
L 100.145455 10.593013 
L 105.218182 9.948269 
L 110.290909 9.318685 
L 115.363636 8.636908 
L 120.436364 8.130564 
L 125.509091 7.692054 
L 130.581818 7.19659 
L 135.654545 6.755351 
L 140.727273 6.390356 
" style="fill:none;stroke:#4daf4a;stroke-linecap:square;stroke-width:1.5;"/>
    <defs>
     <path d="M 0 0.5 
C 0.132602 0.5 0.25979 0.447317 0.353553 0.353553 
C 0.447317 0.25979 0.5 0.132602 0.5 0 
C 0.5 -0.132602 0.447317 -0.25979 0.353553 -0.353553 
C 0.25979 -0.447317 0.132602 -0.5 0 -0.5 
C -0.132602 -0.5 -0.25979 -0.447317 -0.353553 -0.353553 
C -0.447317 -0.25979 -0.5 -0.132602 -0.5 0 
C -0.5 0.132602 -0.447317 0.25979 -0.353553 0.353553 
C -0.25979 0.447317 -0.132602 0.5 0 0.5 
z
" id="ma881677049" style="stroke:#4daf4a;"/>
    </defs>
    <g clip-path="url(#pdfb2dbc7ae)">
     <use style="fill:#4daf4a;stroke:#4daf4a;" x="39.272727" xlink:href="#ma881677049" y="91.143831"/>
     <use style="fill:#4daf4a;stroke:#4daf4a;" x="44.345455" xlink:href="#ma881677049" y="33.196068"/>
     <use style="fill:#4daf4a;stroke:#4daf4a;" x="49.418182" xlink:href="#ma881677049" y="26.789791"/>
     <use style="fill:#4daf4a;stroke:#4daf4a;" x="54.490909" xlink:href="#ma881677049" y="23.192215"/>
     <use style="fill:#4daf4a;stroke:#4daf4a;" x="59.563636" xlink:href="#ma881677049" y="20.967672"/>
     <use style="fill:#4daf4a;stroke:#4daf4a;" x="64.636364" xlink:href="#ma881677049" y="19.008418"/>
     <use style="fill:#4daf4a;stroke:#4daf4a;" x="69.709091" xlink:href="#ma881677049" y="17.308952"/>
     <use style="fill:#4daf4a;stroke:#4daf4a;" x="74.781818" xlink:href="#ma881677049" y="15.834916"/>
     <use style="fill:#4daf4a;stroke:#4daf4a;" x="79.854545" xlink:href="#ma881677049" y="14.454774"/>
     <use style="fill:#4daf4a;stroke:#4daf4a;" x="84.927273" xlink:href="#ma881677049" y="13.380787"/>
     <use style="fill:#4daf4a;stroke:#4daf4a;" x="90" xlink:href="#ma881677049" y="12.363421"/>
     <use style="fill:#4daf4a;stroke:#4daf4a;" x="95.072727" xlink:href="#ma881677049" y="11.454863"/>
     <use style="fill:#4daf4a;stroke:#4daf4a;" x="100.145455" xlink:href="#ma881677049" y="10.593013"/>
     <use style="fill:#4daf4a;stroke:#4daf4a;" x="105.218182" xlink:href="#ma881677049" y="9.948269"/>
     <use style="fill:#4daf4a;stroke:#4daf4a;" x="110.290909" xlink:href="#ma881677049" y="9.318685"/>
     <use style="fill:#4daf4a;stroke:#4daf4a;" x="115.363636" xlink:href="#ma881677049" y="8.636908"/>
     <use style="fill:#4daf4a;stroke:#4daf4a;" x="120.436364" xlink:href="#ma881677049" y="8.130564"/>
     <use style="fill:#4daf4a;stroke:#4daf4a;" x="125.509091" xlink:href="#ma881677049" y="7.692054"/>
     <use style="fill:#4daf4a;stroke:#4daf4a;" x="130.581818" xlink:href="#ma881677049" y="7.19659"/>
     <use style="fill:#4daf4a;stroke:#4daf4a;" x="135.654545" xlink:href="#ma881677049" y="6.755351"/>
     <use style="fill:#4daf4a;stroke:#4daf4a;" x="140.727273" xlink:href="#ma881677049" y="6.390356"/>
    </g>
   </g>
   <g id="line2d_116">
    <path clip-path="url(#pdfb2dbc7ae)" d="M 39.272727 95.707936 
L 44.345455 30.240114 
L 49.418182 23.584842 
L 54.490909 20.382251 
L 59.563636 18.226266 
L 64.636364 16.576631 
L 69.709091 15.289866 
L 74.781818 13.851744 
L 79.854545 12.812254 
L 84.927273 11.844631 
L 90 11.02528 
L 95.072727 10.081904 
L 100.145455 9.411825 
L 105.218182 8.718376 
L 110.290909 8.168575 
L 115.363636 7.611399 
L 120.436364 7.086827 
L 125.509091 6.719747 
L 130.581818 6.234653 
L 135.654545 5.824873 
L 140.727273 5.321146 
" style="fill:none;stroke:#999999;stroke-linecap:square;stroke-width:1.5;"/>
    <defs>
     <path d="M 0 0.5 
C 0.132602 0.5 0.25979 0.447317 0.353553 0.353553 
C 0.447317 0.25979 0.5 0.132602 0.5 0 
C 0.5 -0.132602 0.447317 -0.25979 0.353553 -0.353553 
C 0.25979 -0.447317 0.132602 -0.5 0 -0.5 
C -0.132602 -0.5 -0.25979 -0.447317 -0.353553 -0.353553 
C -0.447317 -0.25979 -0.5 -0.132602 -0.5 0 
C -0.5 0.132602 -0.447317 0.25979 -0.353553 0.353553 
C -0.25979 0.447317 -0.132602 0.5 0 0.5 
z
" id="ma83a7a6f80" style="stroke:#999999;"/>
    </defs>
    <g clip-path="url(#pdfb2dbc7ae)">
     <use style="fill:#999999;stroke:#999999;" x="39.272727" xlink:href="#ma83a7a6f80" y="95.707936"/>
     <use style="fill:#999999;stroke:#999999;" x="44.345455" xlink:href="#ma83a7a6f80" y="30.240114"/>
     <use style="fill:#999999;stroke:#999999;" x="49.418182" xlink:href="#ma83a7a6f80" y="23.584842"/>
     <use style="fill:#999999;stroke:#999999;" x="54.490909" xlink:href="#ma83a7a6f80" y="20.382251"/>
     <use style="fill:#999999;stroke:#999999;" x="59.563636" xlink:href="#ma83a7a6f80" y="18.226266"/>
     <use style="fill:#999999;stroke:#999999;" x="64.636364" xlink:href="#ma83a7a6f80" y="16.576631"/>
     <use style="fill:#999999;stroke:#999999;" x="69.709091" xlink:href="#ma83a7a6f80" y="15.289866"/>
     <use style="fill:#999999;stroke:#999999;" x="74.781818" xlink:href="#ma83a7a6f80" y="13.851744"/>
     <use style="fill:#999999;stroke:#999999;" x="79.854545" xlink:href="#ma83a7a6f80" y="12.812254"/>
     <use style="fill:#999999;stroke:#999999;" x="84.927273" xlink:href="#ma83a7a6f80" y="11.844631"/>
     <use style="fill:#999999;stroke:#999999;" x="90" xlink:href="#ma83a7a6f80" y="11.02528"/>
     <use style="fill:#999999;stroke:#999999;" x="95.072727" xlink:href="#ma83a7a6f80" y="10.081904"/>
     <use style="fill:#999999;stroke:#999999;" x="100.145455" xlink:href="#ma83a7a6f80" y="9.411825"/>
     <use style="fill:#999999;stroke:#999999;" x="105.218182" xlink:href="#ma83a7a6f80" y="8.718376"/>
     <use style="fill:#999999;stroke:#999999;" x="110.290909" xlink:href="#ma83a7a6f80" y="8.168575"/>
     <use style="fill:#999999;stroke:#999999;" x="115.363636" xlink:href="#ma83a7a6f80" y="7.611399"/>
     <use style="fill:#999999;stroke:#999999;" x="120.436364" xlink:href="#ma83a7a6f80" y="7.086827"/>
     <use style="fill:#999999;stroke:#999999;" x="125.509091" xlink:href="#ma83a7a6f80" y="6.719747"/>
     <use style="fill:#999999;stroke:#999999;" x="130.581818" xlink:href="#ma83a7a6f80" y="6.234653"/>
     <use style="fill:#999999;stroke:#999999;" x="135.654545" xlink:href="#ma83a7a6f80" y="5.824873"/>
     <use style="fill:#999999;stroke:#999999;" x="140.727273" xlink:href="#ma83a7a6f80" y="5.321146"/>
    </g>
   </g>
   <g id="line2d_117">
    <path clip-path="url(#pdfb2dbc7ae)" d="M 39.272727 101.977628 
L 44.345455 28.340283 
L 49.418182 21.448228 
L 54.490909 18.183487 
L 59.563636 16.078713 
L 64.636364 14.678778 
L 69.709091 13.537951 
L 74.781818 12.567343 
L 79.854545 11.728225 
L 84.927273 10.845549 
L 90 10.150094 
L 95.072727 9.383148 
L 100.145455 8.720811 
L 105.218182 7.985936 
L 110.290909 7.511813 
L 115.363636 7.081704 
L 120.436364 6.498498 
L 125.509091 6.063019 
L 130.581818 5.614621 
L 135.654545 5.258788 
L 140.727273 4.941818 
" style="fill:none;stroke:#377eb8;stroke-linecap:square;stroke-width:1.5;"/>
    <defs>
     <path d="M 0 0.5 
C 0.132602 0.5 0.25979 0.447317 0.353553 0.353553 
C 0.447317 0.25979 0.5 0.132602 0.5 0 
C 0.5 -0.132602 0.447317 -0.25979 0.353553 -0.353553 
C 0.25979 -0.447317 0.132602 -0.5 0 -0.5 
C -0.132602 -0.5 -0.25979 -0.447317 -0.353553 -0.353553 
C -0.447317 -0.25979 -0.5 -0.132602 -0.5 0 
C -0.5 0.132602 -0.447317 0.25979 -0.353553 0.353553 
C -0.25979 0.447317 -0.132602 0.5 0 0.5 
z
" id="m68fabe3257" style="stroke:#377eb8;"/>
    </defs>
    <g clip-path="url(#pdfb2dbc7ae)">
     <use style="fill:#377eb8;stroke:#377eb8;" x="39.272727" xlink:href="#m68fabe3257" y="101.977628"/>
     <use style="fill:#377eb8;stroke:#377eb8;" x="44.345455" xlink:href="#m68fabe3257" y="28.340283"/>
     <use style="fill:#377eb8;stroke:#377eb8;" x="49.418182" xlink:href="#m68fabe3257" y="21.448228"/>
     <use style="fill:#377eb8;stroke:#377eb8;" x="54.490909" xlink:href="#m68fabe3257" y="18.183487"/>
     <use style="fill:#377eb8;stroke:#377eb8;" x="59.563636" xlink:href="#m68fabe3257" y="16.078713"/>
     <use style="fill:#377eb8;stroke:#377eb8;" x="64.636364" xlink:href="#m68fabe3257" y="14.678778"/>
     <use style="fill:#377eb8;stroke:#377eb8;" x="69.709091" xlink:href="#m68fabe3257" y="13.537951"/>
     <use style="fill:#377eb8;stroke:#377eb8;" x="74.781818" xlink:href="#m68fabe3257" y="12.567343"/>
     <use style="fill:#377eb8;stroke:#377eb8;" x="79.854545" xlink:href="#m68fabe3257" y="11.728225"/>
     <use style="fill:#377eb8;stroke:#377eb8;" x="84.927273" xlink:href="#m68fabe3257" y="10.845549"/>
     <use style="fill:#377eb8;stroke:#377eb8;" x="90" xlink:href="#m68fabe3257" y="10.150094"/>
     <use style="fill:#377eb8;stroke:#377eb8;" x="95.072727" xlink:href="#m68fabe3257" y="9.383148"/>
     <use style="fill:#377eb8;stroke:#377eb8;" x="100.145455" xlink:href="#m68fabe3257" y="8.720811"/>
     <use style="fill:#377eb8;stroke:#377eb8;" x="105.218182" xlink:href="#m68fabe3257" y="7.985936"/>
     <use style="fill:#377eb8;stroke:#377eb8;" x="110.290909" xlink:href="#m68fabe3257" y="7.511813"/>
     <use style="fill:#377eb8;stroke:#377eb8;" x="115.363636" xlink:href="#m68fabe3257" y="7.081704"/>
     <use style="fill:#377eb8;stroke:#377eb8;" x="120.436364" xlink:href="#m68fabe3257" y="6.498498"/>
     <use style="fill:#377eb8;stroke:#377eb8;" x="125.509091" xlink:href="#m68fabe3257" y="6.063019"/>
     <use style="fill:#377eb8;stroke:#377eb8;" x="130.581818" xlink:href="#m68fabe3257" y="5.614621"/>
     <use style="fill:#377eb8;stroke:#377eb8;" x="135.654545" xlink:href="#m68fabe3257" y="5.258788"/>
     <use style="fill:#377eb8;stroke:#377eb8;" x="140.727273" xlink:href="#m68fabe3257" y="4.941818"/>
    </g>
   </g>
   <g id="patch_3">
    <path d="M 34.2 108.72 
L 34.2 0 
" style="fill:none;stroke:#000000;stroke-linecap:square;stroke-linejoin:miter;stroke-width:0.5;"/>
   </g>
   <g id="patch_4">
    <path d="M 145.8 108.72 
L 145.8 0 
" style="fill:none;stroke:#000000;stroke-linecap:square;stroke-linejoin:miter;stroke-width:0.5;"/>
   </g>
   <g id="patch_5">
    <path d="M 34.2 108.72 
L 145.8 108.72 
" style="fill:none;stroke:#000000;stroke-linecap:square;stroke-linejoin:miter;stroke-width:0.5;"/>
   </g>
   <g id="patch_6">
    <path d="M 34.2 0 
L 145.8 0 
" style="fill:none;stroke:#000000;stroke-linecap:square;stroke-linejoin:miter;stroke-width:0.5;"/>
   </g>
  </g>
 </g>
 <defs>
  <clipPath id="pdfb2dbc7ae">
   <rect height="108.72" width="111.6" x="34.2" y="0"/>
  </clipPath>
 </defs>
</svg>
