<?xml version="1.0" encoding="utf-8" standalone="no"?>
<!DOCTYPE svg PUBLIC "-//W3C//DTD SVG 1.1//EN"
  "http://www.w3.org/Graphics/SVG/1.1/DTD/svg11.dtd">
<!-- Created with matplotlib (https://matplotlib.org/) -->
<svg height="128.365312pt" version="1.1" viewBox="0 0 146.28821 128.365312" width="146.28821pt" xmlns="http://www.w3.org/2000/svg" xmlns:xlink="http://www.w3.org/1999/xlink">
 <defs>
  <style type="text/css">
*{stroke-linecap:butt;stroke-linejoin:round;}
  </style>
 </defs>
 <g id="figure_1">
  <g id="patch_1">
   <path d="M 0 128.365312 
L 146.28821 128.365312 
L 146.28821 0 
L 0 0 
z
" style="fill:none;"/>
  </g>
  <g id="axes_1">
   <g id="patch_2">
    <path d="M 34.2 108.72 
L 145.8 108.72 
L 145.8 0 
L 34.2 0 
z
" style="fill:none;"/>
   </g>
   <g id="matplotlib.axis_1">
    <g id="xtick_1">
     <g id="line2d_1">
      <defs>
       <path d="M 0 0 
L 0 -3.5 
" id="ma0d4da8435" style="stroke:#000000;stroke-width:0.5;"/>
      </defs>
      <g>
       <use style="stroke:#000000;stroke-width:0.5;" x="39.272727" xlink:href="#ma0d4da8435" y="108.72"/>
      </g>
     </g>
     <g id="line2d_2">
      <defs>
       <path d="M 0 0 
L 0 3.5 
" id="m4906863a0a" style="stroke:#000000;stroke-width:0.5;"/>
      </defs>
      <g>
       <use style="stroke:#000000;stroke-width:0.5;" x="39.272727" xlink:href="#m4906863a0a" y="0"/>
      </g>
     </g>
     <g id="text_1">
      <text style="font-family:Arial;font-size:10px;font-style:normal;font-weight:normal;text-anchor:middle;" transform="rotate(-0, 39.272727, 116.877812)" x="39.272727" y="116.877812">0</text>
     </g>
    </g>
    <g id="xtick_2">
     <g id="line2d_3">
      <g>
       <use style="stroke:#000000;stroke-width:0.5;" x="90" xlink:href="#ma0d4da8435" y="108.72"/>
      </g>
     </g>
     <g id="line2d_4">
      <g>
       <use style="stroke:#000000;stroke-width:0.5;" x="90" xlink:href="#m4906863a0a" y="0"/>
      </g>
     </g>
     <g id="text_2">
      <text style="font-family:Arial;font-size:10px;font-style:normal;font-weight:normal;text-anchor:middle;" transform="rotate(-0, 90, 116.877812)" x="90" y="116.877812">5</text>
     </g>
    </g>
    <g id="xtick_3">
     <g id="line2d_5">
      <g>
       <use style="stroke:#000000;stroke-width:0.5;" x="140.727273" xlink:href="#ma0d4da8435" y="108.72"/>
      </g>
     </g>
     <g id="line2d_6">
      <g>
       <use style="stroke:#000000;stroke-width:0.5;" x="140.727273" xlink:href="#m4906863a0a" y="0"/>
      </g>
     </g>
     <g id="text_3">
      <text style="font-family:Arial;font-size:10px;font-style:normal;font-weight:normal;text-anchor:middle;" transform="rotate(-0, 140.727273, 116.877812)" x="140.727273" y="116.877812">10</text>
     </g>
    </g>
    <g id="xtick_4">
     <g id="line2d_7">
      <defs>
       <path d="M 0 0 
L 0 -2 
" id="me63094bdf0" style="stroke:#000000;stroke-width:0.5;"/>
      </defs>
      <g>
       <use style="stroke:#000000;stroke-width:0.5;" x="49.418182" xlink:href="#me63094bdf0" y="108.72"/>
      </g>
     </g>
     <g id="line2d_8">
      <defs>
       <path d="M 0 0 
L 0 2 
" id="m8fa2883b5c" style="stroke:#000000;stroke-width:0.5;"/>
      </defs>
      <g>
       <use style="stroke:#000000;stroke-width:0.5;" x="49.418182" xlink:href="#m8fa2883b5c" y="0"/>
      </g>
     </g>
    </g>
    <g id="xtick_5">
     <g id="line2d_9">
      <g>
       <use style="stroke:#000000;stroke-width:0.5;" x="59.563636" xlink:href="#me63094bdf0" y="108.72"/>
      </g>
     </g>
     <g id="line2d_10">
      <g>
       <use style="stroke:#000000;stroke-width:0.5;" x="59.563636" xlink:href="#m8fa2883b5c" y="0"/>
      </g>
     </g>
    </g>
    <g id="xtick_6">
     <g id="line2d_11">
      <g>
       <use style="stroke:#000000;stroke-width:0.5;" x="69.709091" xlink:href="#me63094bdf0" y="108.72"/>
      </g>
     </g>
     <g id="line2d_12">
      <g>
       <use style="stroke:#000000;stroke-width:0.5;" x="69.709091" xlink:href="#m8fa2883b5c" y="0"/>
      </g>
     </g>
    </g>
    <g id="xtick_7">
     <g id="line2d_13">
      <g>
       <use style="stroke:#000000;stroke-width:0.5;" x="79.854545" xlink:href="#me63094bdf0" y="108.72"/>
      </g>
     </g>
     <g id="line2d_14">
      <g>
       <use style="stroke:#000000;stroke-width:0.5;" x="79.854545" xlink:href="#m8fa2883b5c" y="0"/>
      </g>
     </g>
    </g>
    <g id="xtick_8">
     <g id="line2d_15">
      <g>
       <use style="stroke:#000000;stroke-width:0.5;" x="100.145455" xlink:href="#me63094bdf0" y="108.72"/>
      </g>
     </g>
     <g id="line2d_16">
      <g>
       <use style="stroke:#000000;stroke-width:0.5;" x="100.145455" xlink:href="#m8fa2883b5c" y="0"/>
      </g>
     </g>
    </g>
    <g id="xtick_9">
     <g id="line2d_17">
      <g>
       <use style="stroke:#000000;stroke-width:0.5;" x="110.290909" xlink:href="#me63094bdf0" y="108.72"/>
      </g>
     </g>
     <g id="line2d_18">
      <g>
       <use style="stroke:#000000;stroke-width:0.5;" x="110.290909" xlink:href="#m8fa2883b5c" y="0"/>
      </g>
     </g>
    </g>
    <g id="xtick_10">
     <g id="line2d_19">
      <g>
       <use style="stroke:#000000;stroke-width:0.5;" x="120.436364" xlink:href="#me63094bdf0" y="108.72"/>
      </g>
     </g>
     <g id="line2d_20">
      <g>
       <use style="stroke:#000000;stroke-width:0.5;" x="120.436364" xlink:href="#m8fa2883b5c" y="0"/>
      </g>
     </g>
    </g>
    <g id="xtick_11">
     <g id="line2d_21">
      <g>
       <use style="stroke:#000000;stroke-width:0.5;" x="130.581818" xlink:href="#me63094bdf0" y="108.72"/>
      </g>
     </g>
     <g id="line2d_22">
      <g>
       <use style="stroke:#000000;stroke-width:0.5;" x="130.581818" xlink:href="#m8fa2883b5c" y="0"/>
      </g>
     </g>
    </g>
    <g id="text_4">
     <!-- $\it{V_{DS}}$ (V) -->
     <g transform="translate(73.45 126.165312)">
      <text>
       <tspan style="font-family:DejaVu Sans;font-size:10px;font-style:oblique;font-weight:oblique;" x="0" y="-0.703125">V</tspan>
       <tspan style="font-family:DejaVu Sans;font-size:7px;font-style:oblique;font-weight:oblique;" x="6.84082 12.230957" y="0.9375">DS</tspan>
       <tspan style="font-family:Arial;font-size:10px;font-style:regular;font-weight:regular;" x="16.947754 19.726074 23.056152 29.726074" y="-0.703125"> (V)</tspan>
      </text>
     </g>
    </g>
   </g>
   <g id="matplotlib.axis_2">
    <g id="ytick_1">
     <g id="line2d_23">
      <defs>
       <path d="M 0 0 
L 3.5 0 
" id="m8a283fc530" style="stroke:#000000;stroke-width:0.5;"/>
      </defs>
      <g>
       <use style="stroke:#000000;stroke-width:0.5;" x="34.2" xlink:href="#m8a283fc530" y="97.18054"/>
      </g>
     </g>
     <g id="line2d_24">
      <defs>
       <path d="M 0 0 
L -3.5 0 
" id="m1f421b3dce" style="stroke:#000000;stroke-width:0.5;"/>
      </defs>
      <g>
       <use style="stroke:#000000;stroke-width:0.5;" x="145.8" xlink:href="#m1f421b3dce" y="97.18054"/>
      </g>
     </g>
     <g id="text_5">
      <!-- $\mathdefault{10^{-10}}$ -->
      <g transform="translate(9.5 102.33679)">
       <text>
        <tspan style="font-family:Arial;font-size:10px;font-style:regular;font-weight:regular;" x="0 5.561523" y="-0.9993750000000006">10</tspan>
        <tspan style="font-family:Arial;font-size:7px;font-style:regular;font-weight:regular;" x="11.297281 15.385172 19.278238" y="-7.968749999999999">−10</tspan>
       </text>
      </g>
     </g>
    </g>
    <g id="ytick_2">
     <g id="line2d_25">
      <g>
       <use style="stroke:#000000;stroke-width:0.5;" x="34.2" xlink:href="#m8a283fc530" y="72.415903"/>
      </g>
     </g>
     <g id="line2d_26">
      <g>
       <use style="stroke:#000000;stroke-width:0.5;" x="145.8" xlink:href="#m1f421b3dce" y="72.415903"/>
      </g>
     </g>
     <g id="text_6">
      <!-- $\mathdefault{10^{-9}}$ -->
      <g transform="translate(13.4 77.572153)">
       <text>
        <tspan style="font-family:Arial;font-size:10px;font-style:regular;font-weight:regular;" x="0 5.561523" y="-0.9993750000000006">10</tspan>
        <tspan style="font-family:Arial;font-size:7px;font-style:regular;font-weight:regular;" x="11.297281 15.385172" y="-7.968749999999999">−9</tspan>
       </text>
      </g>
     </g>
    </g>
    <g id="ytick_3">
     <g id="line2d_27">
      <g>
       <use style="stroke:#000000;stroke-width:0.5;" x="34.2" xlink:href="#m8a283fc530" y="47.651266"/>
      </g>
     </g>
     <g id="line2d_28">
      <g>
       <use style="stroke:#000000;stroke-width:0.5;" x="145.8" xlink:href="#m1f421b3dce" y="47.651266"/>
      </g>
     </g>
     <g id="text_7">
      <!-- $\mathdefault{10^{-8}}$ -->
      <g transform="translate(13.4 52.807516)">
       <text>
        <tspan style="font-family:Arial;font-size:10px;font-style:regular;font-weight:regular;" x="0 5.561523" y="-0.9993750000000006">10</tspan>
        <tspan style="font-family:Arial;font-size:7px;font-style:regular;font-weight:regular;" x="11.297281 15.385172" y="-7.968749999999999">−8</tspan>
       </text>
      </g>
     </g>
    </g>
    <g id="ytick_4">
     <g id="line2d_29">
      <g>
       <use style="stroke:#000000;stroke-width:0.5;" x="34.2" xlink:href="#m8a283fc530" y="22.886629"/>
      </g>
     </g>
     <g id="line2d_30">
      <g>
       <use style="stroke:#000000;stroke-width:0.5;" x="145.8" xlink:href="#m1f421b3dce" y="22.886629"/>
      </g>
     </g>
     <g id="text_8">
      <!-- $\mathdefault{10^{-7}}$ -->
      <g transform="translate(13.4 27.992879)">
       <text>
        <tspan style="font-family:Arial;font-size:10px;font-style:regular;font-weight:regular;" x="0 5.561523" y="-0.0868750000000027">10</tspan>
        <tspan style="font-family:Arial;font-size:7px;font-style:regular;font-weight:regular;" x="11.297281 15.385172" y="-7.056250000000001">−7</tspan>
       </text>
      </g>
     </g>
    </g>
    <g id="ytick_5">
     <g id="line2d_31">
      <defs>
       <path d="M 0 0 
L 2 0 
" id="mfe387e443d" style="stroke:#000000;stroke-width:0.5;"/>
      </defs>
      <g>
       <use style="stroke:#000000;stroke-width:0.5;" x="34.2" xlink:href="#mfe387e443d" y="107.03538"/>
      </g>
     </g>
     <g id="line2d_32">
      <defs>
       <path d="M 0 0 
L -2 0 
" id="mf28ee6ffef" style="stroke:#000000;stroke-width:0.5;"/>
      </defs>
      <g>
       <use style="stroke:#000000;stroke-width:0.5;" x="145.8" xlink:href="#mf28ee6ffef" y="107.03538"/>
      </g>
     </g>
    </g>
    <g id="ytick_6">
     <g id="line2d_33">
      <g>
       <use style="stroke:#000000;stroke-width:0.5;" x="34.2" xlink:href="#mfe387e443d" y="104.635439"/>
      </g>
     </g>
     <g id="line2d_34">
      <g>
       <use style="stroke:#000000;stroke-width:0.5;" x="145.8" xlink:href="#mf28ee6ffef" y="104.635439"/>
      </g>
     </g>
    </g>
    <g id="ytick_7">
     <g id="line2d_35">
      <g>
       <use style="stroke:#000000;stroke-width:0.5;" x="34.2" xlink:href="#mfe387e443d" y="102.674544"/>
      </g>
     </g>
     <g id="line2d_36">
      <g>
       <use style="stroke:#000000;stroke-width:0.5;" x="145.8" xlink:href="#mf28ee6ffef" y="102.674544"/>
      </g>
     </g>
    </g>
    <g id="ytick_8">
     <g id="line2d_37">
      <g>
       <use style="stroke:#000000;stroke-width:0.5;" x="34.2" xlink:href="#mfe387e443d" y="101.016631"/>
      </g>
     </g>
     <g id="line2d_38">
      <g>
       <use style="stroke:#000000;stroke-width:0.5;" x="145.8" xlink:href="#mf28ee6ffef" y="101.016631"/>
      </g>
     </g>
    </g>
    <g id="ytick_9">
     <g id="line2d_39">
      <g>
       <use style="stroke:#000000;stroke-width:0.5;" x="34.2" xlink:href="#mfe387e443d" y="99.580481"/>
      </g>
     </g>
     <g id="line2d_40">
      <g>
       <use style="stroke:#000000;stroke-width:0.5;" x="145.8" xlink:href="#mf28ee6ffef" y="99.580481"/>
      </g>
     </g>
    </g>
    <g id="ytick_10">
     <g id="line2d_41">
      <g>
       <use style="stroke:#000000;stroke-width:0.5;" x="34.2" xlink:href="#mfe387e443d" y="98.313708"/>
      </g>
     </g>
     <g id="line2d_42">
      <g>
       <use style="stroke:#000000;stroke-width:0.5;" x="145.8" xlink:href="#mf28ee6ffef" y="98.313708"/>
      </g>
     </g>
    </g>
    <g id="ytick_11">
     <g id="line2d_43">
      <g>
       <use style="stroke:#000000;stroke-width:0.5;" x="34.2" xlink:href="#mfe387e443d" y="89.725641"/>
      </g>
     </g>
     <g id="line2d_44">
      <g>
       <use style="stroke:#000000;stroke-width:0.5;" x="145.8" xlink:href="#mf28ee6ffef" y="89.725641"/>
      </g>
     </g>
    </g>
    <g id="ytick_12">
     <g id="line2d_45">
      <g>
       <use style="stroke:#000000;stroke-width:0.5;" x="34.2" xlink:href="#mfe387e443d" y="85.364805"/>
      </g>
     </g>
     <g id="line2d_46">
      <g>
       <use style="stroke:#000000;stroke-width:0.5;" x="145.8" xlink:href="#mf28ee6ffef" y="85.364805"/>
      </g>
     </g>
    </g>
    <g id="ytick_13">
     <g id="line2d_47">
      <g>
       <use style="stroke:#000000;stroke-width:0.5;" x="34.2" xlink:href="#mfe387e443d" y="82.270743"/>
      </g>
     </g>
     <g id="line2d_48">
      <g>
       <use style="stroke:#000000;stroke-width:0.5;" x="145.8" xlink:href="#mf28ee6ffef" y="82.270743"/>
      </g>
     </g>
    </g>
    <g id="ytick_14">
     <g id="line2d_49">
      <g>
       <use style="stroke:#000000;stroke-width:0.5;" x="34.2" xlink:href="#mfe387e443d" y="79.870802"/>
      </g>
     </g>
     <g id="line2d_50">
      <g>
       <use style="stroke:#000000;stroke-width:0.5;" x="145.8" xlink:href="#mf28ee6ffef" y="79.870802"/>
      </g>
     </g>
    </g>
    <g id="ytick_15">
     <g id="line2d_51">
      <g>
       <use style="stroke:#000000;stroke-width:0.5;" x="34.2" xlink:href="#mfe387e443d" y="77.909907"/>
      </g>
     </g>
     <g id="line2d_52">
      <g>
       <use style="stroke:#000000;stroke-width:0.5;" x="145.8" xlink:href="#mf28ee6ffef" y="77.909907"/>
      </g>
     </g>
    </g>
    <g id="ytick_16">
     <g id="line2d_53">
      <g>
       <use style="stroke:#000000;stroke-width:0.5;" x="34.2" xlink:href="#mfe387e443d" y="76.251994"/>
      </g>
     </g>
     <g id="line2d_54">
      <g>
       <use style="stroke:#000000;stroke-width:0.5;" x="145.8" xlink:href="#mf28ee6ffef" y="76.251994"/>
      </g>
     </g>
    </g>
    <g id="ytick_17">
     <g id="line2d_55">
      <g>
       <use style="stroke:#000000;stroke-width:0.5;" x="34.2" xlink:href="#mfe387e443d" y="74.815844"/>
      </g>
     </g>
     <g id="line2d_56">
      <g>
       <use style="stroke:#000000;stroke-width:0.5;" x="145.8" xlink:href="#mf28ee6ffef" y="74.815844"/>
      </g>
     </g>
    </g>
    <g id="ytick_18">
     <g id="line2d_57">
      <g>
       <use style="stroke:#000000;stroke-width:0.5;" x="34.2" xlink:href="#mfe387e443d" y="73.549071"/>
      </g>
     </g>
     <g id="line2d_58">
      <g>
       <use style="stroke:#000000;stroke-width:0.5;" x="145.8" xlink:href="#mf28ee6ffef" y="73.549071"/>
      </g>
     </g>
    </g>
    <g id="ytick_19">
     <g id="line2d_59">
      <g>
       <use style="stroke:#000000;stroke-width:0.5;" x="34.2" xlink:href="#mfe387e443d" y="64.961004"/>
      </g>
     </g>
     <g id="line2d_60">
      <g>
       <use style="stroke:#000000;stroke-width:0.5;" x="145.8" xlink:href="#mf28ee6ffef" y="64.961004"/>
      </g>
     </g>
    </g>
    <g id="ytick_20">
     <g id="line2d_61">
      <g>
       <use style="stroke:#000000;stroke-width:0.5;" x="34.2" xlink:href="#mfe387e443d" y="60.600168"/>
      </g>
     </g>
     <g id="line2d_62">
      <g>
       <use style="stroke:#000000;stroke-width:0.5;" x="145.8" xlink:href="#mf28ee6ffef" y="60.600168"/>
      </g>
     </g>
    </g>
    <g id="ytick_21">
     <g id="line2d_63">
      <g>
       <use style="stroke:#000000;stroke-width:0.5;" x="34.2" xlink:href="#mfe387e443d" y="57.506106"/>
      </g>
     </g>
     <g id="line2d_64">
      <g>
       <use style="stroke:#000000;stroke-width:0.5;" x="145.8" xlink:href="#mf28ee6ffef" y="57.506106"/>
      </g>
     </g>
    </g>
    <g id="ytick_22">
     <g id="line2d_65">
      <g>
       <use style="stroke:#000000;stroke-width:0.5;" x="34.2" xlink:href="#mfe387e443d" y="55.106165"/>
      </g>
     </g>
     <g id="line2d_66">
      <g>
       <use style="stroke:#000000;stroke-width:0.5;" x="145.8" xlink:href="#mf28ee6ffef" y="55.106165"/>
      </g>
     </g>
    </g>
    <g id="ytick_23">
     <g id="line2d_67">
      <g>
       <use style="stroke:#000000;stroke-width:0.5;" x="34.2" xlink:href="#mfe387e443d" y="53.14527"/>
      </g>
     </g>
     <g id="line2d_68">
      <g>
       <use style="stroke:#000000;stroke-width:0.5;" x="145.8" xlink:href="#mf28ee6ffef" y="53.14527"/>
      </g>
     </g>
    </g>
    <g id="ytick_24">
     <g id="line2d_69">
      <g>
       <use style="stroke:#000000;stroke-width:0.5;" x="34.2" xlink:href="#mfe387e443d" y="51.487357"/>
      </g>
     </g>
     <g id="line2d_70">
      <g>
       <use style="stroke:#000000;stroke-width:0.5;" x="145.8" xlink:href="#mf28ee6ffef" y="51.487357"/>
      </g>
     </g>
    </g>
    <g id="ytick_25">
     <g id="line2d_71">
      <g>
       <use style="stroke:#000000;stroke-width:0.5;" x="34.2" xlink:href="#mfe387e443d" y="50.051207"/>
      </g>
     </g>
     <g id="line2d_72">
      <g>
       <use style="stroke:#000000;stroke-width:0.5;" x="145.8" xlink:href="#mf28ee6ffef" y="50.051207"/>
      </g>
     </g>
    </g>
    <g id="ytick_26">
     <g id="line2d_73">
      <g>
       <use style="stroke:#000000;stroke-width:0.5;" x="34.2" xlink:href="#mfe387e443d" y="48.784434"/>
      </g>
     </g>
     <g id="line2d_74">
      <g>
       <use style="stroke:#000000;stroke-width:0.5;" x="145.8" xlink:href="#mf28ee6ffef" y="48.784434"/>
      </g>
     </g>
    </g>
    <g id="ytick_27">
     <g id="line2d_75">
      <g>
       <use style="stroke:#000000;stroke-width:0.5;" x="34.2" xlink:href="#mfe387e443d" y="40.196367"/>
      </g>
     </g>
     <g id="line2d_76">
      <g>
       <use style="stroke:#000000;stroke-width:0.5;" x="145.8" xlink:href="#mf28ee6ffef" y="40.196367"/>
      </g>
     </g>
    </g>
    <g id="ytick_28">
     <g id="line2d_77">
      <g>
       <use style="stroke:#000000;stroke-width:0.5;" x="34.2" xlink:href="#mfe387e443d" y="35.835531"/>
      </g>
     </g>
     <g id="line2d_78">
      <g>
       <use style="stroke:#000000;stroke-width:0.5;" x="145.8" xlink:href="#mf28ee6ffef" y="35.835531"/>
      </g>
     </g>
    </g>
    <g id="ytick_29">
     <g id="line2d_79">
      <g>
       <use style="stroke:#000000;stroke-width:0.5;" x="34.2" xlink:href="#mfe387e443d" y="32.741469"/>
      </g>
     </g>
     <g id="line2d_80">
      <g>
       <use style="stroke:#000000;stroke-width:0.5;" x="145.8" xlink:href="#mf28ee6ffef" y="32.741469"/>
      </g>
     </g>
    </g>
    <g id="ytick_30">
     <g id="line2d_81">
      <g>
       <use style="stroke:#000000;stroke-width:0.5;" x="34.2" xlink:href="#mfe387e443d" y="30.341528"/>
      </g>
     </g>
     <g id="line2d_82">
      <g>
       <use style="stroke:#000000;stroke-width:0.5;" x="145.8" xlink:href="#mf28ee6ffef" y="30.341528"/>
      </g>
     </g>
    </g>
    <g id="ytick_31">
     <g id="line2d_83">
      <g>
       <use style="stroke:#000000;stroke-width:0.5;" x="34.2" xlink:href="#mfe387e443d" y="28.380633"/>
      </g>
     </g>
     <g id="line2d_84">
      <g>
       <use style="stroke:#000000;stroke-width:0.5;" x="145.8" xlink:href="#mf28ee6ffef" y="28.380633"/>
      </g>
     </g>
    </g>
    <g id="ytick_32">
     <g id="line2d_85">
      <g>
       <use style="stroke:#000000;stroke-width:0.5;" x="34.2" xlink:href="#mfe387e443d" y="26.72272"/>
      </g>
     </g>
     <g id="line2d_86">
      <g>
       <use style="stroke:#000000;stroke-width:0.5;" x="145.8" xlink:href="#mf28ee6ffef" y="26.72272"/>
      </g>
     </g>
    </g>
    <g id="ytick_33">
     <g id="line2d_87">
      <g>
       <use style="stroke:#000000;stroke-width:0.5;" x="34.2" xlink:href="#mfe387e443d" y="25.28657"/>
      </g>
     </g>
     <g id="line2d_88">
      <g>
       <use style="stroke:#000000;stroke-width:0.5;" x="145.8" xlink:href="#mf28ee6ffef" y="25.28657"/>
      </g>
     </g>
    </g>
    <g id="ytick_34">
     <g id="line2d_89">
      <g>
       <use style="stroke:#000000;stroke-width:0.5;" x="34.2" xlink:href="#mfe387e443d" y="24.019797"/>
      </g>
     </g>
     <g id="line2d_90">
      <g>
       <use style="stroke:#000000;stroke-width:0.5;" x="145.8" xlink:href="#mf28ee6ffef" y="24.019797"/>
      </g>
     </g>
    </g>
    <g id="ytick_35">
     <g id="line2d_91">
      <g>
       <use style="stroke:#000000;stroke-width:0.5;" x="34.2" xlink:href="#mfe387e443d" y="15.43173"/>
      </g>
     </g>
     <g id="line2d_92">
      <g>
       <use style="stroke:#000000;stroke-width:0.5;" x="145.8" xlink:href="#mf28ee6ffef" y="15.43173"/>
      </g>
     </g>
    </g>
    <g id="ytick_36">
     <g id="line2d_93">
      <g>
       <use style="stroke:#000000;stroke-width:0.5;" x="34.2" xlink:href="#mfe387e443d" y="11.070894"/>
      </g>
     </g>
     <g id="line2d_94">
      <g>
       <use style="stroke:#000000;stroke-width:0.5;" x="145.8" xlink:href="#mf28ee6ffef" y="11.070894"/>
      </g>
     </g>
    </g>
    <g id="ytick_37">
     <g id="line2d_95">
      <g>
       <use style="stroke:#000000;stroke-width:0.5;" x="34.2" xlink:href="#mfe387e443d" y="7.976832"/>
      </g>
     </g>
     <g id="line2d_96">
      <g>
       <use style="stroke:#000000;stroke-width:0.5;" x="145.8" xlink:href="#mf28ee6ffef" y="7.976832"/>
      </g>
     </g>
    </g>
    <g id="ytick_38">
     <g id="line2d_97">
      <g>
       <use style="stroke:#000000;stroke-width:0.5;" x="34.2" xlink:href="#mfe387e443d" y="5.576891"/>
      </g>
     </g>
     <g id="line2d_98">
      <g>
       <use style="stroke:#000000;stroke-width:0.5;" x="145.8" xlink:href="#mf28ee6ffef" y="5.576891"/>
      </g>
     </g>
    </g>
    <g id="ytick_39">
     <g id="line2d_99">
      <g>
       <use style="stroke:#000000;stroke-width:0.5;" x="34.2" xlink:href="#mfe387e443d" y="3.615996"/>
      </g>
     </g>
     <g id="line2d_100">
      <g>
       <use style="stroke:#000000;stroke-width:0.5;" x="145.8" xlink:href="#mf28ee6ffef" y="3.615996"/>
      </g>
     </g>
    </g>
    <g id="ytick_40">
     <g id="line2d_101">
      <g>
       <use style="stroke:#000000;stroke-width:0.5;" x="34.2" xlink:href="#mfe387e443d" y="1.958083"/>
      </g>
     </g>
     <g id="line2d_102">
      <g>
       <use style="stroke:#000000;stroke-width:0.5;" x="145.8" xlink:href="#mf28ee6ffef" y="1.958083"/>
      </g>
     </g>
    </g>
    <g id="ytick_41">
     <g id="line2d_103">
      <g>
       <use style="stroke:#000000;stroke-width:0.5;" x="34.2" xlink:href="#mfe387e443d" y="0.521933"/>
      </g>
     </g>
     <g id="line2d_104">
      <g>
       <use style="stroke:#000000;stroke-width:0.5;" x="145.8" xlink:href="#mf28ee6ffef" y="0.521933"/>
      </g>
     </g>
    </g>
    <g id="text_9">
     <!-- $\it{I_{D}}$ (A) -->
     <g transform="translate(7.3 66.76)rotate(-90)">
      <text>
       <tspan style="font-family:DejaVu Sans;font-size:10px;font-style:oblique;font-weight:oblique;" x="0" y="-0.703125">I</tspan>
       <tspan style="font-family:DejaVu Sans;font-size:7px;font-style:oblique;font-weight:oblique;" x="2.949219" y="0.9375">D</tspan>
       <tspan style="font-family:Arial;font-size:10px;font-style:regular;font-weight:regular;" x="8.612793 11.391113 14.721191 21.391113" y="-0.703125"> (A)</tspan>
      </text>
     </g>
    </g>
   </g>
   <g id="line2d_105">
    <path clip-path="url(#pdd980a3f55)" d="M 39.272727 100.345902 
L 44.345455 71.254535 
L 49.418182 65.261341 
L 54.490909 61.640033 
L 59.563636 59.003595 
L 64.636364 57.174864 
L 69.709091 54.160324 
L 74.781818 51.795457 
L 79.854545 48.769346 
L 84.927273 46.243088 
L 90 43.927006 
L 95.072727 41.924887 
L 100.145455 40.025609 
L 105.218182 38.604545 
L 110.290909 37.469041 
L 115.363636 36.638987 
L 120.436364 36.078564 
L 125.509091 35.569135 
L 130.581818 34.99561 
L 135.654545 34.42438 
L 140.727273 33.901115 
" style="fill:none;stroke:#e41a1c;stroke-linecap:square;stroke-width:1.5;"/>
    <defs>
     <path d="M 0 0.5 
C 0.132602 0.5 0.25979 0.447317 0.353553 0.353553 
C 0.447317 0.25979 0.5 0.132602 0.5 0 
C 0.5 -0.132602 0.447317 -0.25979 0.353553 -0.353553 
C 0.25979 -0.447317 0.132602 -0.5 0 -0.5 
C -0.132602 -0.5 -0.25979 -0.447317 -0.353553 -0.353553 
C -0.447317 -0.25979 -0.5 -0.132602 -0.5 0 
C -0.5 0.132602 -0.447317 0.25979 -0.353553 0.353553 
C -0.25979 0.447317 -0.132602 0.5 0 0.5 
z
" id="m4b35859206" style="stroke:#e41a1c;"/>
    </defs>
    <g clip-path="url(#pdd980a3f55)">
     <use style="fill:#e41a1c;stroke:#e41a1c;" x="39.272727" xlink:href="#m4b35859206" y="100.345902"/>
     <use style="fill:#e41a1c;stroke:#e41a1c;" x="44.345455" xlink:href="#m4b35859206" y="71.254535"/>
     <use style="fill:#e41a1c;stroke:#e41a1c;" x="49.418182" xlink:href="#m4b35859206" y="65.261341"/>
     <use style="fill:#e41a1c;stroke:#e41a1c;" x="54.490909" xlink:href="#m4b35859206" y="61.640033"/>
     <use style="fill:#e41a1c;stroke:#e41a1c;" x="59.563636" xlink:href="#m4b35859206" y="59.003595"/>
     <use style="fill:#e41a1c;stroke:#e41a1c;" x="64.636364" xlink:href="#m4b35859206" y="57.174864"/>
     <use style="fill:#e41a1c;stroke:#e41a1c;" x="69.709091" xlink:href="#m4b35859206" y="54.160324"/>
     <use style="fill:#e41a1c;stroke:#e41a1c;" x="74.781818" xlink:href="#m4b35859206" y="51.795457"/>
     <use style="fill:#e41a1c;stroke:#e41a1c;" x="79.854545" xlink:href="#m4b35859206" y="48.769346"/>
     <use style="fill:#e41a1c;stroke:#e41a1c;" x="84.927273" xlink:href="#m4b35859206" y="46.243088"/>
     <use style="fill:#e41a1c;stroke:#e41a1c;" x="90" xlink:href="#m4b35859206" y="43.927006"/>
     <use style="fill:#e41a1c;stroke:#e41a1c;" x="95.072727" xlink:href="#m4b35859206" y="41.924887"/>
     <use style="fill:#e41a1c;stroke:#e41a1c;" x="100.145455" xlink:href="#m4b35859206" y="40.025609"/>
     <use style="fill:#e41a1c;stroke:#e41a1c;" x="105.218182" xlink:href="#m4b35859206" y="38.604545"/>
     <use style="fill:#e41a1c;stroke:#e41a1c;" x="110.290909" xlink:href="#m4b35859206" y="37.469041"/>
     <use style="fill:#e41a1c;stroke:#e41a1c;" x="115.363636" xlink:href="#m4b35859206" y="36.638987"/>
     <use style="fill:#e41a1c;stroke:#e41a1c;" x="120.436364" xlink:href="#m4b35859206" y="36.078564"/>
     <use style="fill:#e41a1c;stroke:#e41a1c;" x="125.509091" xlink:href="#m4b35859206" y="35.569135"/>
     <use style="fill:#e41a1c;stroke:#e41a1c;" x="130.581818" xlink:href="#m4b35859206" y="34.99561"/>
     <use style="fill:#e41a1c;stroke:#e41a1c;" x="135.654545" xlink:href="#m4b35859206" y="34.42438"/>
     <use style="fill:#e41a1c;stroke:#e41a1c;" x="140.727273" xlink:href="#m4b35859206" y="33.901115"/>
    </g>
   </g>
   <g id="line2d_106">
    <path clip-path="url(#pdd980a3f55)" d="M 39.272727 95.01423 
L 44.345455 51.556835 
L 49.418182 44.673799 
L 54.490909 40.539056 
L 59.563636 37.979039 
L 64.636364 36.660078 
L 69.709091 35.708351 
L 74.781818 35.107068 
L 79.854545 34.550062 
L 84.927273 33.415828 
L 90 32.68394 
L 95.072727 32.088288 
L 100.145455 31.784582 
L 105.218182 31.276896 
L 110.290909 30.496916 
L 115.363636 30.234858 
L 120.436364 30.054799 
L 125.509091 29.599159 
L 130.581818 28.975165 
L 135.654545 28.616719 
L 140.727273 28.470635 
" style="fill:none;stroke:#ff7f00;stroke-linecap:square;stroke-width:1.5;"/>
    <defs>
     <path d="M 0 0.5 
C 0.132602 0.5 0.25979 0.447317 0.353553 0.353553 
C 0.447317 0.25979 0.5 0.132602 0.5 0 
C 0.5 -0.132602 0.447317 -0.25979 0.353553 -0.353553 
C 0.25979 -0.447317 0.132602 -0.5 0 -0.5 
C -0.132602 -0.5 -0.25979 -0.447317 -0.353553 -0.353553 
C -0.447317 -0.25979 -0.5 -0.132602 -0.5 0 
C -0.5 0.132602 -0.447317 0.25979 -0.353553 0.353553 
C -0.25979 0.447317 -0.132602 0.5 0 0.5 
z
" id="m4e802b7b7e" style="stroke:#ff7f00;"/>
    </defs>
    <g clip-path="url(#pdd980a3f55)">
     <use style="fill:#ff7f00;stroke:#ff7f00;" x="39.272727" xlink:href="#m4e802b7b7e" y="95.01423"/>
     <use style="fill:#ff7f00;stroke:#ff7f00;" x="44.345455" xlink:href="#m4e802b7b7e" y="51.556835"/>
     <use style="fill:#ff7f00;stroke:#ff7f00;" x="49.418182" xlink:href="#m4e802b7b7e" y="44.673799"/>
     <use style="fill:#ff7f00;stroke:#ff7f00;" x="54.490909" xlink:href="#m4e802b7b7e" y="40.539056"/>
     <use style="fill:#ff7f00;stroke:#ff7f00;" x="59.563636" xlink:href="#m4e802b7b7e" y="37.979039"/>
     <use style="fill:#ff7f00;stroke:#ff7f00;" x="64.636364" xlink:href="#m4e802b7b7e" y="36.660078"/>
     <use style="fill:#ff7f00;stroke:#ff7f00;" x="69.709091" xlink:href="#m4e802b7b7e" y="35.708351"/>
     <use style="fill:#ff7f00;stroke:#ff7f00;" x="74.781818" xlink:href="#m4e802b7b7e" y="35.107068"/>
     <use style="fill:#ff7f00;stroke:#ff7f00;" x="79.854545" xlink:href="#m4e802b7b7e" y="34.550062"/>
     <use style="fill:#ff7f00;stroke:#ff7f00;" x="84.927273" xlink:href="#m4e802b7b7e" y="33.415828"/>
     <use style="fill:#ff7f00;stroke:#ff7f00;" x="90" xlink:href="#m4e802b7b7e" y="32.68394"/>
     <use style="fill:#ff7f00;stroke:#ff7f00;" x="95.072727" xlink:href="#m4e802b7b7e" y="32.088288"/>
     <use style="fill:#ff7f00;stroke:#ff7f00;" x="100.145455" xlink:href="#m4e802b7b7e" y="31.784582"/>
     <use style="fill:#ff7f00;stroke:#ff7f00;" x="105.218182" xlink:href="#m4e802b7b7e" y="31.276896"/>
     <use style="fill:#ff7f00;stroke:#ff7f00;" x="110.290909" xlink:href="#m4e802b7b7e" y="30.496916"/>
     <use style="fill:#ff7f00;stroke:#ff7f00;" x="115.363636" xlink:href="#m4e802b7b7e" y="30.234858"/>
     <use style="fill:#ff7f00;stroke:#ff7f00;" x="120.436364" xlink:href="#m4e802b7b7e" y="30.054799"/>
     <use style="fill:#ff7f00;stroke:#ff7f00;" x="125.509091" xlink:href="#m4e802b7b7e" y="29.599159"/>
     <use style="fill:#ff7f00;stroke:#ff7f00;" x="130.581818" xlink:href="#m4e802b7b7e" y="28.975165"/>
     <use style="fill:#ff7f00;stroke:#ff7f00;" x="135.654545" xlink:href="#m4e802b7b7e" y="28.616719"/>
     <use style="fill:#ff7f00;stroke:#ff7f00;" x="140.727273" xlink:href="#m4e802b7b7e" y="28.470635"/>
    </g>
   </g>
   <g id="line2d_107">
    <path clip-path="url(#pdd980a3f55)" d="M 39.272727 103.778182 
L 44.345455 44.346234 
L 49.418182 37.830986 
L 54.490909 33.930915 
L 59.563636 31.527689 
L 64.636364 29.895275 
L 69.709091 29.323359 
L 74.781818 28.44729 
L 79.854545 28.041827 
L 84.927273 27.372961 
L 90 26.916888 
L 95.072727 26.545755 
L 100.145455 26.105869 
L 105.218182 25.719294 
L 110.290909 25.039712 
L 115.363636 24.874389 
L 120.436364 24.440003 
L 125.509091 24.072855 
L 130.581818 23.664019 
L 135.654545 22.984558 
L 140.727273 22.601249 
" style="fill:none;stroke:#984ea3;stroke-linecap:square;stroke-width:1.5;"/>
    <defs>
     <path d="M 0 0.5 
C 0.132602 0.5 0.25979 0.447317 0.353553 0.353553 
C 0.447317 0.25979 0.5 0.132602 0.5 0 
C 0.5 -0.132602 0.447317 -0.25979 0.353553 -0.353553 
C 0.25979 -0.447317 0.132602 -0.5 0 -0.5 
C -0.132602 -0.5 -0.25979 -0.447317 -0.353553 -0.353553 
C -0.447317 -0.25979 -0.5 -0.132602 -0.5 0 
C -0.5 0.132602 -0.447317 0.25979 -0.353553 0.353553 
C -0.25979 0.447317 -0.132602 0.5 0 0.5 
z
" id="mfc46143126" style="stroke:#984ea3;"/>
    </defs>
    <g clip-path="url(#pdd980a3f55)">
     <use style="fill:#984ea3;stroke:#984ea3;" x="39.272727" xlink:href="#mfc46143126" y="103.778182"/>
     <use style="fill:#984ea3;stroke:#984ea3;" x="44.345455" xlink:href="#mfc46143126" y="44.346234"/>
     <use style="fill:#984ea3;stroke:#984ea3;" x="49.418182" xlink:href="#mfc46143126" y="37.830986"/>
     <use style="fill:#984ea3;stroke:#984ea3;" x="54.490909" xlink:href="#mfc46143126" y="33.930915"/>
     <use style="fill:#984ea3;stroke:#984ea3;" x="59.563636" xlink:href="#mfc46143126" y="31.527689"/>
     <use style="fill:#984ea3;stroke:#984ea3;" x="64.636364" xlink:href="#mfc46143126" y="29.895275"/>
     <use style="fill:#984ea3;stroke:#984ea3;" x="69.709091" xlink:href="#mfc46143126" y="29.323359"/>
     <use style="fill:#984ea3;stroke:#984ea3;" x="74.781818" xlink:href="#mfc46143126" y="28.44729"/>
     <use style="fill:#984ea3;stroke:#984ea3;" x="79.854545" xlink:href="#mfc46143126" y="28.041827"/>
     <use style="fill:#984ea3;stroke:#984ea3;" x="84.927273" xlink:href="#mfc46143126" y="27.372961"/>
     <use style="fill:#984ea3;stroke:#984ea3;" x="90" xlink:href="#mfc46143126" y="26.916888"/>
     <use style="fill:#984ea3;stroke:#984ea3;" x="95.072727" xlink:href="#mfc46143126" y="26.545755"/>
     <use style="fill:#984ea3;stroke:#984ea3;" x="100.145455" xlink:href="#mfc46143126" y="26.105869"/>
     <use style="fill:#984ea3;stroke:#984ea3;" x="105.218182" xlink:href="#mfc46143126" y="25.719294"/>
     <use style="fill:#984ea3;stroke:#984ea3;" x="110.290909" xlink:href="#mfc46143126" y="25.039712"/>
     <use style="fill:#984ea3;stroke:#984ea3;" x="115.363636" xlink:href="#mfc46143126" y="24.874389"/>
     <use style="fill:#984ea3;stroke:#984ea3;" x="120.436364" xlink:href="#mfc46143126" y="24.440003"/>
     <use style="fill:#984ea3;stroke:#984ea3;" x="125.509091" xlink:href="#mfc46143126" y="24.072855"/>
     <use style="fill:#984ea3;stroke:#984ea3;" x="130.581818" xlink:href="#mfc46143126" y="23.664019"/>
     <use style="fill:#984ea3;stroke:#984ea3;" x="135.654545" xlink:href="#mfc46143126" y="22.984558"/>
     <use style="fill:#984ea3;stroke:#984ea3;" x="140.727273" xlink:href="#mfc46143126" y="22.601249"/>
    </g>
   </g>
   <g id="line2d_108">
    <path clip-path="url(#pdd980a3f55)" d="M 39.272727 92.62583 
L 44.345455 39.280943 
L 49.418182 32.316622 
L 54.490909 28.433369 
L 59.563636 25.890801 
L 64.636364 24.332449 
L 69.709091 23.141624 
L 74.781818 22.447576 
L 79.854545 21.632117 
L 84.927273 21.238083 
L 90 20.653448 
L 95.072727 20.22812 
L 100.145455 19.982702 
L 105.218182 19.717706 
L 110.290909 19.394243 
L 115.363636 18.867134 
L 120.436364 18.655901 
L 125.509091 18.50335 
L 130.581818 18.460636 
L 135.654545 17.767168 
L 140.727273 17.772598 
" style="fill:none;stroke:#a65628;stroke-linecap:square;stroke-width:1.5;"/>
    <defs>
     <path d="M 0 0.5 
C 0.132602 0.5 0.25979 0.447317 0.353553 0.353553 
C 0.447317 0.25979 0.5 0.132602 0.5 0 
C 0.5 -0.132602 0.447317 -0.25979 0.353553 -0.353553 
C 0.25979 -0.447317 0.132602 -0.5 0 -0.5 
C -0.132602 -0.5 -0.25979 -0.447317 -0.353553 -0.353553 
C -0.447317 -0.25979 -0.5 -0.132602 -0.5 0 
C -0.5 0.132602 -0.447317 0.25979 -0.353553 0.353553 
C -0.25979 0.447317 -0.132602 0.5 0 0.5 
z
" id="m207c3830d9" style="stroke:#a65628;"/>
    </defs>
    <g clip-path="url(#pdd980a3f55)">
     <use style="fill:#a65628;stroke:#a65628;" x="39.272727" xlink:href="#m207c3830d9" y="92.62583"/>
     <use style="fill:#a65628;stroke:#a65628;" x="44.345455" xlink:href="#m207c3830d9" y="39.280943"/>
     <use style="fill:#a65628;stroke:#a65628;" x="49.418182" xlink:href="#m207c3830d9" y="32.316622"/>
     <use style="fill:#a65628;stroke:#a65628;" x="54.490909" xlink:href="#m207c3830d9" y="28.433369"/>
     <use style="fill:#a65628;stroke:#a65628;" x="59.563636" xlink:href="#m207c3830d9" y="25.890801"/>
     <use style="fill:#a65628;stroke:#a65628;" x="64.636364" xlink:href="#m207c3830d9" y="24.332449"/>
     <use style="fill:#a65628;stroke:#a65628;" x="69.709091" xlink:href="#m207c3830d9" y="23.141624"/>
     <use style="fill:#a65628;stroke:#a65628;" x="74.781818" xlink:href="#m207c3830d9" y="22.447576"/>
     <use style="fill:#a65628;stroke:#a65628;" x="79.854545" xlink:href="#m207c3830d9" y="21.632117"/>
     <use style="fill:#a65628;stroke:#a65628;" x="84.927273" xlink:href="#m207c3830d9" y="21.238083"/>
     <use style="fill:#a65628;stroke:#a65628;" x="90" xlink:href="#m207c3830d9" y="20.653448"/>
     <use style="fill:#a65628;stroke:#a65628;" x="95.072727" xlink:href="#m207c3830d9" y="20.22812"/>
     <use style="fill:#a65628;stroke:#a65628;" x="100.145455" xlink:href="#m207c3830d9" y="19.982702"/>
     <use style="fill:#a65628;stroke:#a65628;" x="105.218182" xlink:href="#m207c3830d9" y="19.717706"/>
     <use style="fill:#a65628;stroke:#a65628;" x="110.290909" xlink:href="#m207c3830d9" y="19.394243"/>
     <use style="fill:#a65628;stroke:#a65628;" x="115.363636" xlink:href="#m207c3830d9" y="18.867134"/>
     <use style="fill:#a65628;stroke:#a65628;" x="120.436364" xlink:href="#m207c3830d9" y="18.655901"/>
     <use style="fill:#a65628;stroke:#a65628;" x="125.509091" xlink:href="#m207c3830d9" y="18.50335"/>
     <use style="fill:#a65628;stroke:#a65628;" x="130.581818" xlink:href="#m207c3830d9" y="18.460636"/>
     <use style="fill:#a65628;stroke:#a65628;" x="135.654545" xlink:href="#m207c3830d9" y="17.767168"/>
     <use style="fill:#a65628;stroke:#a65628;" x="140.727273" xlink:href="#m207c3830d9" y="17.772598"/>
    </g>
   </g>
   <g id="line2d_109">
    <path clip-path="url(#pdd980a3f55)" d="M 39.272727 91.050571 
L 44.345455 33.390128 
L 49.418182 26.705338 
L 54.490909 23.11204 
L 59.563636 20.872242 
L 64.636364 19.130116 
L 69.709091 18.296454 
L 74.781818 17.350899 
L 79.854545 16.560269 
L 84.927273 15.860897 
L 90 15.414384 
L 95.072727 14.911712 
L 100.145455 14.410954 
L 105.218182 14.095275 
L 110.290909 13.725359 
L 115.363636 13.155534 
L 120.436364 12.901028 
L 125.509091 12.628008 
L 130.581818 12.235573 
L 135.654545 12.355773 
L 140.727273 12.143249 
" style="fill:none;stroke:#4daf4a;stroke-linecap:square;stroke-width:1.5;"/>
    <defs>
     <path d="M 0 0.5 
C 0.132602 0.5 0.25979 0.447317 0.353553 0.353553 
C 0.447317 0.25979 0.5 0.132602 0.5 0 
C 0.5 -0.132602 0.447317 -0.25979 0.353553 -0.353553 
C 0.25979 -0.447317 0.132602 -0.5 0 -0.5 
C -0.132602 -0.5 -0.25979 -0.447317 -0.353553 -0.353553 
C -0.447317 -0.25979 -0.5 -0.132602 -0.5 0 
C -0.5 0.132602 -0.447317 0.25979 -0.353553 0.353553 
C -0.25979 0.447317 -0.132602 0.5 0 0.5 
z
" id="mb6b4422e75" style="stroke:#4daf4a;"/>
    </defs>
    <g clip-path="url(#pdd980a3f55)">
     <use style="fill:#4daf4a;stroke:#4daf4a;" x="39.272727" xlink:href="#mb6b4422e75" y="91.050571"/>
     <use style="fill:#4daf4a;stroke:#4daf4a;" x="44.345455" xlink:href="#mb6b4422e75" y="33.390128"/>
     <use style="fill:#4daf4a;stroke:#4daf4a;" x="49.418182" xlink:href="#mb6b4422e75" y="26.705338"/>
     <use style="fill:#4daf4a;stroke:#4daf4a;" x="54.490909" xlink:href="#mb6b4422e75" y="23.11204"/>
     <use style="fill:#4daf4a;stroke:#4daf4a;" x="59.563636" xlink:href="#mb6b4422e75" y="20.872242"/>
     <use style="fill:#4daf4a;stroke:#4daf4a;" x="64.636364" xlink:href="#mb6b4422e75" y="19.130116"/>
     <use style="fill:#4daf4a;stroke:#4daf4a;" x="69.709091" xlink:href="#mb6b4422e75" y="18.296454"/>
     <use style="fill:#4daf4a;stroke:#4daf4a;" x="74.781818" xlink:href="#mb6b4422e75" y="17.350899"/>
     <use style="fill:#4daf4a;stroke:#4daf4a;" x="79.854545" xlink:href="#mb6b4422e75" y="16.560269"/>
     <use style="fill:#4daf4a;stroke:#4daf4a;" x="84.927273" xlink:href="#mb6b4422e75" y="15.860897"/>
     <use style="fill:#4daf4a;stroke:#4daf4a;" x="90" xlink:href="#mb6b4422e75" y="15.414384"/>
     <use style="fill:#4daf4a;stroke:#4daf4a;" x="95.072727" xlink:href="#mb6b4422e75" y="14.911712"/>
     <use style="fill:#4daf4a;stroke:#4daf4a;" x="100.145455" xlink:href="#mb6b4422e75" y="14.410954"/>
     <use style="fill:#4daf4a;stroke:#4daf4a;" x="105.218182" xlink:href="#mb6b4422e75" y="14.095275"/>
     <use style="fill:#4daf4a;stroke:#4daf4a;" x="110.290909" xlink:href="#mb6b4422e75" y="13.725359"/>
     <use style="fill:#4daf4a;stroke:#4daf4a;" x="115.363636" xlink:href="#mb6b4422e75" y="13.155534"/>
     <use style="fill:#4daf4a;stroke:#4daf4a;" x="120.436364" xlink:href="#mb6b4422e75" y="12.901028"/>
     <use style="fill:#4daf4a;stroke:#4daf4a;" x="125.509091" xlink:href="#mb6b4422e75" y="12.628008"/>
     <use style="fill:#4daf4a;stroke:#4daf4a;" x="130.581818" xlink:href="#mb6b4422e75" y="12.235573"/>
     <use style="fill:#4daf4a;stroke:#4daf4a;" x="135.654545" xlink:href="#mb6b4422e75" y="12.355773"/>
     <use style="fill:#4daf4a;stroke:#4daf4a;" x="140.727273" xlink:href="#mb6b4422e75" y="12.143249"/>
    </g>
   </g>
   <g id="line2d_110">
    <path clip-path="url(#pdd980a3f55)" d="M 39.272727 90.370104 
L 44.345455 29.552543 
L 49.418182 22.775127 
L 54.490909 19.249253 
L 59.563636 17.135634 
L 64.636364 15.812575 
L 69.709091 14.789358 
L 74.781818 14.019099 
L 79.854545 13.058347 
L 84.927273 12.31594 
L 90 11.665292 
L 95.072727 11.234496 
L 100.145455 10.582882 
L 105.218182 10.167477 
L 110.290909 9.745104 
L 115.363636 9.331722 
L 120.436364 8.984055 
L 125.509091 8.745016 
L 130.581818 8.494127 
L 135.654545 8.040642 
L 140.727273 7.753377 
" style="fill:none;stroke:#999999;stroke-linecap:square;stroke-width:1.5;"/>
    <defs>
     <path d="M 0 0.5 
C 0.132602 0.5 0.25979 0.447317 0.353553 0.353553 
C 0.447317 0.25979 0.5 0.132602 0.5 0 
C 0.5 -0.132602 0.447317 -0.25979 0.353553 -0.353553 
C 0.25979 -0.447317 0.132602 -0.5 0 -0.5 
C -0.132602 -0.5 -0.25979 -0.447317 -0.353553 -0.353553 
C -0.447317 -0.25979 -0.5 -0.132602 -0.5 0 
C -0.5 0.132602 -0.447317 0.25979 -0.353553 0.353553 
C -0.25979 0.447317 -0.132602 0.5 0 0.5 
z
" id="maf97d0f4e6" style="stroke:#999999;"/>
    </defs>
    <g clip-path="url(#pdd980a3f55)">
     <use style="fill:#999999;stroke:#999999;" x="39.272727" xlink:href="#maf97d0f4e6" y="90.370104"/>
     <use style="fill:#999999;stroke:#999999;" x="44.345455" xlink:href="#maf97d0f4e6" y="29.552543"/>
     <use style="fill:#999999;stroke:#999999;" x="49.418182" xlink:href="#maf97d0f4e6" y="22.775127"/>
     <use style="fill:#999999;stroke:#999999;" x="54.490909" xlink:href="#maf97d0f4e6" y="19.249253"/>
     <use style="fill:#999999;stroke:#999999;" x="59.563636" xlink:href="#maf97d0f4e6" y="17.135634"/>
     <use style="fill:#999999;stroke:#999999;" x="64.636364" xlink:href="#maf97d0f4e6" y="15.812575"/>
     <use style="fill:#999999;stroke:#999999;" x="69.709091" xlink:href="#maf97d0f4e6" y="14.789358"/>
     <use style="fill:#999999;stroke:#999999;" x="74.781818" xlink:href="#maf97d0f4e6" y="14.019099"/>
     <use style="fill:#999999;stroke:#999999;" x="79.854545" xlink:href="#maf97d0f4e6" y="13.058347"/>
     <use style="fill:#999999;stroke:#999999;" x="84.927273" xlink:href="#maf97d0f4e6" y="12.31594"/>
     <use style="fill:#999999;stroke:#999999;" x="90" xlink:href="#maf97d0f4e6" y="11.665292"/>
     <use style="fill:#999999;stroke:#999999;" x="95.072727" xlink:href="#maf97d0f4e6" y="11.234496"/>
     <use style="fill:#999999;stroke:#999999;" x="100.145455" xlink:href="#maf97d0f4e6" y="10.582882"/>
     <use style="fill:#999999;stroke:#999999;" x="105.218182" xlink:href="#maf97d0f4e6" y="10.167477"/>
     <use style="fill:#999999;stroke:#999999;" x="110.290909" xlink:href="#maf97d0f4e6" y="9.745104"/>
     <use style="fill:#999999;stroke:#999999;" x="115.363636" xlink:href="#maf97d0f4e6" y="9.331722"/>
     <use style="fill:#999999;stroke:#999999;" x="120.436364" xlink:href="#maf97d0f4e6" y="8.984055"/>
     <use style="fill:#999999;stroke:#999999;" x="125.509091" xlink:href="#maf97d0f4e6" y="8.745016"/>
     <use style="fill:#999999;stroke:#999999;" x="130.581818" xlink:href="#maf97d0f4e6" y="8.494127"/>
     <use style="fill:#999999;stroke:#999999;" x="135.654545" xlink:href="#maf97d0f4e6" y="8.040642"/>
     <use style="fill:#999999;stroke:#999999;" x="140.727273" xlink:href="#maf97d0f4e6" y="7.753377"/>
    </g>
   </g>
   <g id="line2d_111">
    <path clip-path="url(#pdd980a3f55)" d="M 39.272727 90.528077 
L 44.345455 27.20769 
L 49.418182 20.306567 
L 54.490909 16.633921 
L 59.563636 14.430481 
L 64.636364 13.08197 
L 69.709091 12.020661 
L 74.781818 11.236463 
L 79.854545 10.433963 
L 84.927273 9.773377 
L 90 9.059926 
L 95.072727 8.496818 
L 100.145455 8.053243 
L 105.218182 7.602228 
L 110.290909 7.008245 
L 115.363636 6.682199 
L 120.436364 6.14431 
L 125.509091 5.85765 
L 130.581818 5.588762 
L 135.654545 5.232879 
L 140.727273 4.941818 
" style="fill:none;stroke:#377eb8;stroke-linecap:square;stroke-width:1.5;"/>
    <defs>
     <path d="M 0 0.5 
C 0.132602 0.5 0.25979 0.447317 0.353553 0.353553 
C 0.447317 0.25979 0.5 0.132602 0.5 0 
C 0.5 -0.132602 0.447317 -0.25979 0.353553 -0.353553 
C 0.25979 -0.447317 0.132602 -0.5 0 -0.5 
C -0.132602 -0.5 -0.25979 -0.447317 -0.353553 -0.353553 
C -0.447317 -0.25979 -0.5 -0.132602 -0.5 0 
C -0.5 0.132602 -0.447317 0.25979 -0.353553 0.353553 
C -0.25979 0.447317 -0.132602 0.5 0 0.5 
z
" id="ma34d703d14" style="stroke:#377eb8;"/>
    </defs>
    <g clip-path="url(#pdd980a3f55)">
     <use style="fill:#377eb8;stroke:#377eb8;" x="39.272727" xlink:href="#ma34d703d14" y="90.528077"/>
     <use style="fill:#377eb8;stroke:#377eb8;" x="44.345455" xlink:href="#ma34d703d14" y="27.20769"/>
     <use style="fill:#377eb8;stroke:#377eb8;" x="49.418182" xlink:href="#ma34d703d14" y="20.306567"/>
     <use style="fill:#377eb8;stroke:#377eb8;" x="54.490909" xlink:href="#ma34d703d14" y="16.633921"/>
     <use style="fill:#377eb8;stroke:#377eb8;" x="59.563636" xlink:href="#ma34d703d14" y="14.430481"/>
     <use style="fill:#377eb8;stroke:#377eb8;" x="64.636364" xlink:href="#ma34d703d14" y="13.08197"/>
     <use style="fill:#377eb8;stroke:#377eb8;" x="69.709091" xlink:href="#ma34d703d14" y="12.020661"/>
     <use style="fill:#377eb8;stroke:#377eb8;" x="74.781818" xlink:href="#ma34d703d14" y="11.236463"/>
     <use style="fill:#377eb8;stroke:#377eb8;" x="79.854545" xlink:href="#ma34d703d14" y="10.433963"/>
     <use style="fill:#377eb8;stroke:#377eb8;" x="84.927273" xlink:href="#ma34d703d14" y="9.773377"/>
     <use style="fill:#377eb8;stroke:#377eb8;" x="90" xlink:href="#ma34d703d14" y="9.059926"/>
     <use style="fill:#377eb8;stroke:#377eb8;" x="95.072727" xlink:href="#ma34d703d14" y="8.496818"/>
     <use style="fill:#377eb8;stroke:#377eb8;" x="100.145455" xlink:href="#ma34d703d14" y="8.053243"/>
     <use style="fill:#377eb8;stroke:#377eb8;" x="105.218182" xlink:href="#ma34d703d14" y="7.602228"/>
     <use style="fill:#377eb8;stroke:#377eb8;" x="110.290909" xlink:href="#ma34d703d14" y="7.008245"/>
     <use style="fill:#377eb8;stroke:#377eb8;" x="115.363636" xlink:href="#ma34d703d14" y="6.682199"/>
     <use style="fill:#377eb8;stroke:#377eb8;" x="120.436364" xlink:href="#ma34d703d14" y="6.14431"/>
     <use style="fill:#377eb8;stroke:#377eb8;" x="125.509091" xlink:href="#ma34d703d14" y="5.85765"/>
     <use style="fill:#377eb8;stroke:#377eb8;" x="130.581818" xlink:href="#ma34d703d14" y="5.588762"/>
     <use style="fill:#377eb8;stroke:#377eb8;" x="135.654545" xlink:href="#ma34d703d14" y="5.232879"/>
     <use style="fill:#377eb8;stroke:#377eb8;" x="140.727273" xlink:href="#ma34d703d14" y="4.941818"/>
    </g>
   </g>
   <g id="patch_3">
    <path d="M 34.2 108.72 
L 34.2 0 
" style="fill:none;stroke:#000000;stroke-linecap:square;stroke-linejoin:miter;stroke-width:0.5;"/>
   </g>
   <g id="patch_4">
    <path d="M 145.8 108.72 
L 145.8 0 
" style="fill:none;stroke:#000000;stroke-linecap:square;stroke-linejoin:miter;stroke-width:0.5;"/>
   </g>
   <g id="patch_5">
    <path d="M 34.2 108.72 
L 145.8 108.72 
" style="fill:none;stroke:#000000;stroke-linecap:square;stroke-linejoin:miter;stroke-width:0.5;"/>
   </g>
   <g id="patch_6">
    <path d="M 34.2 0 
L 145.8 0 
" style="fill:none;stroke:#000000;stroke-linecap:square;stroke-linejoin:miter;stroke-width:0.5;"/>
   </g>
  </g>
 </g>
 <defs>
  <clipPath id="pdd980a3f55">
   <rect height="108.72" width="111.6" x="34.2" y="0"/>
  </clipPath>
 </defs>
</svg>
