<?xml version="1.0" encoding="utf-8" standalone="no"?>
<!DOCTYPE svg PUBLIC "-//W3C//DTD SVG 1.1//EN"
  "http://www.w3.org/Graphics/SVG/1.1/DTD/svg11.dtd">
<!-- Created with matplotlib (https://matplotlib.org/) -->
<svg height="128.365312pt" version="1.1" viewBox="0 0 139.271023 128.365312" width="139.271023pt" xmlns="http://www.w3.org/2000/svg" xmlns:xlink="http://www.w3.org/1999/xlink">
 <defs>
  <style type="text/css">
*{stroke-linecap:butt;stroke-linejoin:round;}
  </style>
 </defs>
 <g id="figure_1">
  <g id="patch_1">
   <path d="M 0 128.365312 
L 139.271023 128.365312 
L 139.271023 0 
L 0 0 
z
" style="fill:none;"/>
  </g>
  <g id="axes_1">
   <g id="patch_2">
    <path d="M 27.182813 108.72 
L 138.782813 108.72 
L 138.782813 0 
L 27.182813 0 
z
" style="fill:none;"/>
   </g>
   <g id="matplotlib.axis_1">
    <g id="xtick_1">
     <g id="line2d_1">
      <defs>
       <path d="M 0 0 
L 0 -3.5 
" id="m4f45a9fd1b" style="stroke:#000000;stroke-width:0.5;"/>
      </defs>
      <g>
       <use style="stroke:#000000;stroke-width:0.5;" x="32.25554" xlink:href="#m4f45a9fd1b" y="108.72"/>
      </g>
     </g>
     <g id="line2d_2">
      <defs>
       <path d="M 0 0 
L 0 3.5 
" id="m340bb93ca2" style="stroke:#000000;stroke-width:0.5;"/>
      </defs>
      <g>
       <use style="stroke:#000000;stroke-width:0.5;" x="32.25554" xlink:href="#m340bb93ca2" y="0"/>
      </g>
     </g>
     <g id="text_1">
      <text style="font-family:Arial;font-size:10px;font-style:normal;font-weight:normal;text-anchor:middle;" transform="rotate(-0, 32.25554, 116.877812)" x="32.25554" y="116.877812">0</text>
     </g>
    </g>
    <g id="xtick_2">
     <g id="line2d_3">
      <g>
       <use style="stroke:#000000;stroke-width:0.5;" x="82.982813" xlink:href="#m4f45a9fd1b" y="108.72"/>
      </g>
     </g>
     <g id="line2d_4">
      <g>
       <use style="stroke:#000000;stroke-width:0.5;" x="82.982813" xlink:href="#m340bb93ca2" y="0"/>
      </g>
     </g>
     <g id="text_2">
      <text style="font-family:Arial;font-size:10px;font-style:normal;font-weight:normal;text-anchor:middle;" transform="rotate(-0, 82.982813, 116.877812)" x="82.982813" y="116.877812">5</text>
     </g>
    </g>
    <g id="xtick_3">
     <g id="line2d_5">
      <g>
       <use style="stroke:#000000;stroke-width:0.5;" x="133.710085" xlink:href="#m4f45a9fd1b" y="108.72"/>
      </g>
     </g>
     <g id="line2d_6">
      <g>
       <use style="stroke:#000000;stroke-width:0.5;" x="133.710085" xlink:href="#m340bb93ca2" y="0"/>
      </g>
     </g>
     <g id="text_3">
      <text style="font-family:Arial;font-size:10px;font-style:normal;font-weight:normal;text-anchor:middle;" transform="rotate(-0, 133.710085, 116.877812)" x="133.710085" y="116.877812">10</text>
     </g>
    </g>
    <g id="xtick_4">
     <g id="line2d_7">
      <defs>
       <path d="M 0 0 
L 0 -2 
" id="m6c9ddad96d" style="stroke:#000000;stroke-width:0.5;"/>
      </defs>
      <g>
       <use style="stroke:#000000;stroke-width:0.5;" x="42.400994" xlink:href="#m6c9ddad96d" y="108.72"/>
      </g>
     </g>
     <g id="line2d_8">
      <defs>
       <path d="M 0 0 
L 0 2 
" id="mc431ea2102" style="stroke:#000000;stroke-width:0.5;"/>
      </defs>
      <g>
       <use style="stroke:#000000;stroke-width:0.5;" x="42.400994" xlink:href="#mc431ea2102" y="0"/>
      </g>
     </g>
    </g>
    <g id="xtick_5">
     <g id="line2d_9">
      <g>
       <use style="stroke:#000000;stroke-width:0.5;" x="52.546449" xlink:href="#m6c9ddad96d" y="108.72"/>
      </g>
     </g>
     <g id="line2d_10">
      <g>
       <use style="stroke:#000000;stroke-width:0.5;" x="52.546449" xlink:href="#mc431ea2102" y="0"/>
      </g>
     </g>
    </g>
    <g id="xtick_6">
     <g id="line2d_11">
      <g>
       <use style="stroke:#000000;stroke-width:0.5;" x="62.691903" xlink:href="#m6c9ddad96d" y="108.72"/>
      </g>
     </g>
     <g id="line2d_12">
      <g>
       <use style="stroke:#000000;stroke-width:0.5;" x="62.691903" xlink:href="#mc431ea2102" y="0"/>
      </g>
     </g>
    </g>
    <g id="xtick_7">
     <g id="line2d_13">
      <g>
       <use style="stroke:#000000;stroke-width:0.5;" x="72.837358" xlink:href="#m6c9ddad96d" y="108.72"/>
      </g>
     </g>
     <g id="line2d_14">
      <g>
       <use style="stroke:#000000;stroke-width:0.5;" x="72.837358" xlink:href="#mc431ea2102" y="0"/>
      </g>
     </g>
    </g>
    <g id="xtick_8">
     <g id="line2d_15">
      <g>
       <use style="stroke:#000000;stroke-width:0.5;" x="93.128267" xlink:href="#m6c9ddad96d" y="108.72"/>
      </g>
     </g>
     <g id="line2d_16">
      <g>
       <use style="stroke:#000000;stroke-width:0.5;" x="93.128267" xlink:href="#mc431ea2102" y="0"/>
      </g>
     </g>
    </g>
    <g id="xtick_9">
     <g id="line2d_17">
      <g>
       <use style="stroke:#000000;stroke-width:0.5;" x="103.273722" xlink:href="#m6c9ddad96d" y="108.72"/>
      </g>
     </g>
     <g id="line2d_18">
      <g>
       <use style="stroke:#000000;stroke-width:0.5;" x="103.273722" xlink:href="#mc431ea2102" y="0"/>
      </g>
     </g>
    </g>
    <g id="xtick_10">
     <g id="line2d_19">
      <g>
       <use style="stroke:#000000;stroke-width:0.5;" x="113.419176" xlink:href="#m6c9ddad96d" y="108.72"/>
      </g>
     </g>
     <g id="line2d_20">
      <g>
       <use style="stroke:#000000;stroke-width:0.5;" x="113.419176" xlink:href="#mc431ea2102" y="0"/>
      </g>
     </g>
    </g>
    <g id="xtick_11">
     <g id="line2d_21">
      <g>
       <use style="stroke:#000000;stroke-width:0.5;" x="123.564631" xlink:href="#m6c9ddad96d" y="108.72"/>
      </g>
     </g>
     <g id="line2d_22">
      <g>
       <use style="stroke:#000000;stroke-width:0.5;" x="123.564631" xlink:href="#mc431ea2102" y="0"/>
      </g>
     </g>
    </g>
    <g id="text_4">
     <!-- $\it{V_{DS}}$ (V) -->
     <g transform="translate(66.432813 126.165312)">
      <text>
       <tspan style="font-family:DejaVu Sans;font-size:10px;font-style:oblique;font-weight:oblique;" x="0" y="-0.703125">V</tspan>
       <tspan style="font-family:DejaVu Sans;font-size:7px;font-style:oblique;font-weight:oblique;" x="6.84082 12.230957" y="0.9375">DS</tspan>
       <tspan style="font-family:Arial;font-size:10px;font-style:regular;font-weight:regular;" x="16.947754 19.726074 23.056152 29.726074" y="-0.703125"> (V)</tspan>
      </text>
     </g>
    </g>
   </g>
   <g id="matplotlib.axis_2">
    <g id="ytick_1">
     <g id="line2d_23">
      <defs>
       <path d="M 0 0 
L 3.5 0 
" id="m19a1f11361" style="stroke:#000000;stroke-width:0.5;"/>
      </defs>
      <g>
       <use style="stroke:#000000;stroke-width:0.5;" x="27.182813" xlink:href="#m19a1f11361" y="103.98195"/>
      </g>
     </g>
     <g id="line2d_24">
      <defs>
       <path d="M 0 0 
L -3.5 0 
" id="mce7cd2a423" style="stroke:#000000;stroke-width:0.5;"/>
      </defs>
      <g>
       <use style="stroke:#000000;stroke-width:0.5;" x="138.782813" xlink:href="#mce7cd2a423" y="103.98195"/>
      </g>
     </g>
     <g id="text_5">
      <text style="font-family:Arial;font-size:10px;font-style:normal;font-weight:normal;text-anchor:end;" transform="rotate(-0, 26.182813, 107.560857)" x="26.182813" y="107.560857">0</text>
     </g>
    </g>
    <g id="ytick_2">
     <g id="line2d_25">
      <g>
       <use style="stroke:#000000;stroke-width:0.5;" x="27.182813" xlink:href="#m19a1f11361" y="63.1803"/>
      </g>
     </g>
     <g id="line2d_26">
      <g>
       <use style="stroke:#000000;stroke-width:0.5;" x="138.782813" xlink:href="#mce7cd2a423" y="63.1803"/>
      </g>
     </g>
     <g id="text_6">
      <text style="font-family:Arial;font-size:10px;font-style:normal;font-weight:normal;text-anchor:end;" transform="rotate(-0, 26.182813, 66.759206)" x="26.182813" y="66.759206">200</text>
     </g>
    </g>
    <g id="ytick_3">
     <g id="line2d_27">
      <g>
       <use style="stroke:#000000;stroke-width:0.5;" x="27.182813" xlink:href="#m19a1f11361" y="22.378649"/>
      </g>
     </g>
     <g id="line2d_28">
      <g>
       <use style="stroke:#000000;stroke-width:0.5;" x="138.782813" xlink:href="#mce7cd2a423" y="22.378649"/>
      </g>
     </g>
     <g id="text_7">
      <text style="font-family:Arial;font-size:10px;font-style:normal;font-weight:normal;text-anchor:end;" transform="rotate(-0, 26.182813, 25.957555)" x="26.182813" y="25.957555">400</text>
     </g>
    </g>
    <g id="ytick_4">
     <g id="line2d_29">
      <defs>
       <path d="M 0 0 
L 2 0 
" id="mb9209fd139" style="stroke:#000000;stroke-width:0.5;"/>
      </defs>
      <g>
       <use style="stroke:#000000;stroke-width:0.5;" x="27.182813" xlink:href="#mb9209fd139" y="93.781538"/>
      </g>
     </g>
     <g id="line2d_30">
      <defs>
       <path d="M 0 0 
L -2 0 
" id="mb0c1fa2fa6" style="stroke:#000000;stroke-width:0.5;"/>
      </defs>
      <g>
       <use style="stroke:#000000;stroke-width:0.5;" x="138.782813" xlink:href="#mb0c1fa2fa6" y="93.781538"/>
      </g>
     </g>
    </g>
    <g id="ytick_5">
     <g id="line2d_31">
      <g>
       <use style="stroke:#000000;stroke-width:0.5;" x="27.182813" xlink:href="#mb9209fd139" y="83.581125"/>
      </g>
     </g>
     <g id="line2d_32">
      <g>
       <use style="stroke:#000000;stroke-width:0.5;" x="138.782813" xlink:href="#mb0c1fa2fa6" y="83.581125"/>
      </g>
     </g>
    </g>
    <g id="ytick_6">
     <g id="line2d_33">
      <g>
       <use style="stroke:#000000;stroke-width:0.5;" x="27.182813" xlink:href="#mb9209fd139" y="73.380712"/>
      </g>
     </g>
     <g id="line2d_34">
      <g>
       <use style="stroke:#000000;stroke-width:0.5;" x="138.782813" xlink:href="#mb0c1fa2fa6" y="73.380712"/>
      </g>
     </g>
    </g>
    <g id="ytick_7">
     <g id="line2d_35">
      <g>
       <use style="stroke:#000000;stroke-width:0.5;" x="27.182813" xlink:href="#mb9209fd139" y="52.979887"/>
      </g>
     </g>
     <g id="line2d_36">
      <g>
       <use style="stroke:#000000;stroke-width:0.5;" x="138.782813" xlink:href="#mb0c1fa2fa6" y="52.979887"/>
      </g>
     </g>
    </g>
    <g id="ytick_8">
     <g id="line2d_37">
      <g>
       <use style="stroke:#000000;stroke-width:0.5;" x="27.182813" xlink:href="#mb9209fd139" y="42.779474"/>
      </g>
     </g>
     <g id="line2d_38">
      <g>
       <use style="stroke:#000000;stroke-width:0.5;" x="138.782813" xlink:href="#mb0c1fa2fa6" y="42.779474"/>
      </g>
     </g>
    </g>
    <g id="ytick_9">
     <g id="line2d_39">
      <g>
       <use style="stroke:#000000;stroke-width:0.5;" x="27.182813" xlink:href="#mb9209fd139" y="32.579062"/>
      </g>
     </g>
     <g id="line2d_40">
      <g>
       <use style="stroke:#000000;stroke-width:0.5;" x="138.782813" xlink:href="#mb0c1fa2fa6" y="32.579062"/>
      </g>
     </g>
    </g>
    <g id="ytick_10">
     <g id="line2d_41">
      <g>
       <use style="stroke:#000000;stroke-width:0.5;" x="27.182813" xlink:href="#mb9209fd139" y="12.178236"/>
      </g>
     </g>
     <g id="line2d_42">
      <g>
       <use style="stroke:#000000;stroke-width:0.5;" x="138.782813" xlink:href="#mb0c1fa2fa6" y="12.178236"/>
      </g>
     </g>
    </g>
    <g id="ytick_11">
     <g id="line2d_43">
      <g>
       <use style="stroke:#000000;stroke-width:0.5;" x="27.182813" xlink:href="#mb9209fd139" y="1.977824"/>
      </g>
     </g>
     <g id="line2d_44">
      <g>
       <use style="stroke:#000000;stroke-width:0.5;" x="138.782813" xlink:href="#mb0c1fa2fa6" y="1.977824"/>
      </g>
     </g>
    </g>
    <g id="text_8">
     <!-- $\it{I_{D}}$ (nA) -->
     <g transform="translate(7.3 69.51)rotate(-90)">
      <text>
       <tspan style="font-family:DejaVu Sans;font-size:10px;font-style:oblique;font-weight:oblique;" x="0" y="-0.703125">I</tspan>
       <tspan style="font-family:DejaVu Sans;font-size:7px;font-style:oblique;font-weight:oblique;" x="2.949219" y="0.9375">D</tspan>
       <tspan style="font-family:Arial;font-size:10px;font-style:regular;font-weight:regular;" x="8.612793 11.391113 14.721191 20.282715 26.952637" y="-0.703125"> (nA)</tspan>
      </text>
     </g>
    </g>
   </g>
   <g id="line2d_45">
    <path clip-path="url(#p4ad1bca012)" d="M 32.25554 104.019775 
L 37.328267 94.035447 
L 42.400994 84.926794 
L 47.473722 77.070927 
L 52.546449 71.058223 
L 57.619176 65.940467 
L 62.691903 62.584823 
L 67.764631 58.506167 
L 72.837358 54.301642 
L 77.910085 51.214499 
L 82.982813 46.680945 
L 88.05554 43.545209 
L 93.128267 39.550016 
L 98.200994 36.70783 
L 103.273722 33.131162 
L 108.346449 30.147651 
L 113.419176 27.191492 
L 118.491903 23.453755 
L 123.564631 20.431208 
L 128.637358 16.234269 
L 133.710085 13.964582 
" style="fill:none;stroke:#377eb8;stroke-linecap:square;stroke-width:1.5;"/>
    <defs>
     <path d="M 0 0.5 
C 0.132602 0.5 0.25979 0.447317 0.353553 0.353553 
C 0.447317 0.25979 0.5 0.132602 0.5 0 
C 0.5 -0.132602 0.447317 -0.25979 0.353553 -0.353553 
C 0.25979 -0.447317 0.132602 -0.5 0 -0.5 
C -0.132602 -0.5 -0.25979 -0.447317 -0.353553 -0.353553 
C -0.447317 -0.25979 -0.5 -0.132602 -0.5 0 
C -0.5 0.132602 -0.447317 0.25979 -0.353553 0.353553 
C -0.25979 0.447317 -0.132602 0.5 0 0.5 
z
" id="m505df1119b" style="stroke:#377eb8;"/>
    </defs>
    <g clip-path="url(#p4ad1bca012)">
     <use style="fill:#377eb8;stroke:#377eb8;" x="32.25554" xlink:href="#m505df1119b" y="104.019775"/>
     <use style="fill:#377eb8;stroke:#377eb8;" x="37.328267" xlink:href="#m505df1119b" y="94.035447"/>
     <use style="fill:#377eb8;stroke:#377eb8;" x="42.400994" xlink:href="#m505df1119b" y="84.926794"/>
     <use style="fill:#377eb8;stroke:#377eb8;" x="47.473722" xlink:href="#m505df1119b" y="77.070927"/>
     <use style="fill:#377eb8;stroke:#377eb8;" x="52.546449" xlink:href="#m505df1119b" y="71.058223"/>
     <use style="fill:#377eb8;stroke:#377eb8;" x="57.619176" xlink:href="#m505df1119b" y="65.940467"/>
     <use style="fill:#377eb8;stroke:#377eb8;" x="62.691903" xlink:href="#m505df1119b" y="62.584823"/>
     <use style="fill:#377eb8;stroke:#377eb8;" x="67.764631" xlink:href="#m505df1119b" y="58.506167"/>
     <use style="fill:#377eb8;stroke:#377eb8;" x="72.837358" xlink:href="#m505df1119b" y="54.301642"/>
     <use style="fill:#377eb8;stroke:#377eb8;" x="77.910085" xlink:href="#m505df1119b" y="51.214499"/>
     <use style="fill:#377eb8;stroke:#377eb8;" x="82.982813" xlink:href="#m505df1119b" y="46.680945"/>
     <use style="fill:#377eb8;stroke:#377eb8;" x="88.05554" xlink:href="#m505df1119b" y="43.545209"/>
     <use style="fill:#377eb8;stroke:#377eb8;" x="93.128267" xlink:href="#m505df1119b" y="39.550016"/>
     <use style="fill:#377eb8;stroke:#377eb8;" x="98.200994" xlink:href="#m505df1119b" y="36.70783"/>
     <use style="fill:#377eb8;stroke:#377eb8;" x="103.273722" xlink:href="#m505df1119b" y="33.131162"/>
     <use style="fill:#377eb8;stroke:#377eb8;" x="108.346449" xlink:href="#m505df1119b" y="30.147651"/>
     <use style="fill:#377eb8;stroke:#377eb8;" x="113.419176" xlink:href="#m505df1119b" y="27.191492"/>
     <use style="fill:#377eb8;stroke:#377eb8;" x="118.491903" xlink:href="#m505df1119b" y="23.453755"/>
     <use style="fill:#377eb8;stroke:#377eb8;" x="123.564631" xlink:href="#m505df1119b" y="20.431208"/>
     <use style="fill:#377eb8;stroke:#377eb8;" x="128.637358" xlink:href="#m505df1119b" y="16.234269"/>
     <use style="fill:#377eb8;stroke:#377eb8;" x="133.710085" xlink:href="#m505df1119b" y="13.964582"/>
    </g>
   </g>
   <g id="line2d_46">
    <path clip-path="url(#p4ad1bca012)" d="M 32.25554 104.023165 
L 37.328267 101.292032 
L 42.400994 98.450907 
L 47.473722 96.397025 
L 52.546449 94.223506 
L 57.619176 92.776442 
L 62.691903 91.854329 
L 67.764631 90.595058 
L 72.837358 89.680698 
L 77.910085 88.771045 
L 82.982813 87.439002 
L 88.05554 86.168057 
L 93.128267 85.667459 
L 98.200994 83.287185 
L 103.273722 81.812081 
L 108.346449 80.275139 
L 113.419176 79.623292 
L 118.491903 77.423777 
L 123.564631 76.580826 
L 128.637358 75.602043 
L 133.710085 74.376488 
" style="fill:none;stroke:#999999;stroke-linecap:square;stroke-width:1.5;"/>
    <defs>
     <path d="M 0 0.5 
C 0.132602 0.5 0.25979 0.447317 0.353553 0.353553 
C 0.447317 0.25979 0.5 0.132602 0.5 0 
C 0.5 -0.132602 0.447317 -0.25979 0.353553 -0.353553 
C 0.25979 -0.447317 0.132602 -0.5 0 -0.5 
C -0.132602 -0.5 -0.25979 -0.447317 -0.353553 -0.353553 
C -0.447317 -0.25979 -0.5 -0.132602 -0.5 0 
C -0.5 0.132602 -0.447317 0.25979 -0.353553 0.353553 
C -0.25979 0.447317 -0.132602 0.5 0 0.5 
z
" id="m2f32499d96" style="stroke:#999999;"/>
    </defs>
    <g clip-path="url(#p4ad1bca012)">
     <use style="fill:#999999;stroke:#999999;" x="32.25554" xlink:href="#m2f32499d96" y="104.023165"/>
     <use style="fill:#999999;stroke:#999999;" x="37.328267" xlink:href="#m2f32499d96" y="101.292032"/>
     <use style="fill:#999999;stroke:#999999;" x="42.400994" xlink:href="#m2f32499d96" y="98.450907"/>
     <use style="fill:#999999;stroke:#999999;" x="47.473722" xlink:href="#m2f32499d96" y="96.397025"/>
     <use style="fill:#999999;stroke:#999999;" x="52.546449" xlink:href="#m2f32499d96" y="94.223506"/>
     <use style="fill:#999999;stroke:#999999;" x="57.619176" xlink:href="#m2f32499d96" y="92.776442"/>
     <use style="fill:#999999;stroke:#999999;" x="62.691903" xlink:href="#m2f32499d96" y="91.854329"/>
     <use style="fill:#999999;stroke:#999999;" x="67.764631" xlink:href="#m2f32499d96" y="90.595058"/>
     <use style="fill:#999999;stroke:#999999;" x="72.837358" xlink:href="#m2f32499d96" y="89.680698"/>
     <use style="fill:#999999;stroke:#999999;" x="77.910085" xlink:href="#m2f32499d96" y="88.771045"/>
     <use style="fill:#999999;stroke:#999999;" x="82.982813" xlink:href="#m2f32499d96" y="87.439002"/>
     <use style="fill:#999999;stroke:#999999;" x="88.05554" xlink:href="#m2f32499d96" y="86.168057"/>
     <use style="fill:#999999;stroke:#999999;" x="93.128267" xlink:href="#m2f32499d96" y="85.667459"/>
     <use style="fill:#999999;stroke:#999999;" x="98.200994" xlink:href="#m2f32499d96" y="83.287185"/>
     <use style="fill:#999999;stroke:#999999;" x="103.273722" xlink:href="#m2f32499d96" y="81.812081"/>
     <use style="fill:#999999;stroke:#999999;" x="108.346449" xlink:href="#m2f32499d96" y="80.275139"/>
     <use style="fill:#999999;stroke:#999999;" x="113.419176" xlink:href="#m2f32499d96" y="79.623292"/>
     <use style="fill:#999999;stroke:#999999;" x="118.491903" xlink:href="#m2f32499d96" y="77.423777"/>
     <use style="fill:#999999;stroke:#999999;" x="123.564631" xlink:href="#m2f32499d96" y="76.580826"/>
     <use style="fill:#999999;stroke:#999999;" x="128.637358" xlink:href="#m2f32499d96" y="75.602043"/>
     <use style="fill:#999999;stroke:#999999;" x="133.710085" xlink:href="#m2f32499d96" y="74.376488"/>
    </g>
   </g>
   <g id="line2d_47">
    <path clip-path="url(#p4ad1bca012)" d="M 32.25554 104.198123 
L 37.328267 102.176864 
L 42.400994 100.685896 
L 47.473722 99.310233 
L 52.546449 98.303052 
L 57.619176 97.352476 
L 62.691903 96.80684 
L 67.764631 96.408947 
L 72.837358 95.729664 
L 77.910085 95.415819 
L 82.982813 94.723924 
L 88.05554 94.075822 
L 93.128267 92.887051 
L 98.200994 92.632773 
L 103.273722 92.126379 
L 108.346449 91.311106 
L 113.419176 90.740024 
L 118.491903 89.755291 
L 123.564631 89.260547 
L 128.637358 88.75297 
L 133.710085 88.196964 
" style="fill:none;stroke:#4daf4a;stroke-linecap:square;stroke-width:1.5;"/>
    <defs>
     <path d="M 0 0.5 
C 0.132602 0.5 0.25979 0.447317 0.353553 0.353553 
C 0.447317 0.25979 0.5 0.132602 0.5 0 
C 0.5 -0.132602 0.447317 -0.25979 0.353553 -0.353553 
C 0.25979 -0.447317 0.132602 -0.5 0 -0.5 
C -0.132602 -0.5 -0.25979 -0.447317 -0.353553 -0.353553 
C -0.447317 -0.25979 -0.5 -0.132602 -0.5 0 
C -0.5 0.132602 -0.447317 0.25979 -0.353553 0.353553 
C -0.25979 0.447317 -0.132602 0.5 0 0.5 
z
" id="m0dbf9a8d69" style="stroke:#4daf4a;"/>
    </defs>
    <g clip-path="url(#p4ad1bca012)">
     <use style="fill:#4daf4a;stroke:#4daf4a;" x="32.25554" xlink:href="#m0dbf9a8d69" y="104.198123"/>
     <use style="fill:#4daf4a;stroke:#4daf4a;" x="37.328267" xlink:href="#m0dbf9a8d69" y="102.176864"/>
     <use style="fill:#4daf4a;stroke:#4daf4a;" x="42.400994" xlink:href="#m0dbf9a8d69" y="100.685896"/>
     <use style="fill:#4daf4a;stroke:#4daf4a;" x="47.473722" xlink:href="#m0dbf9a8d69" y="99.310233"/>
     <use style="fill:#4daf4a;stroke:#4daf4a;" x="52.546449" xlink:href="#m0dbf9a8d69" y="98.303052"/>
     <use style="fill:#4daf4a;stroke:#4daf4a;" x="57.619176" xlink:href="#m0dbf9a8d69" y="97.352476"/>
     <use style="fill:#4daf4a;stroke:#4daf4a;" x="62.691903" xlink:href="#m0dbf9a8d69" y="96.80684"/>
     <use style="fill:#4daf4a;stroke:#4daf4a;" x="67.764631" xlink:href="#m0dbf9a8d69" y="96.408947"/>
     <use style="fill:#4daf4a;stroke:#4daf4a;" x="72.837358" xlink:href="#m0dbf9a8d69" y="95.729664"/>
     <use style="fill:#4daf4a;stroke:#4daf4a;" x="77.910085" xlink:href="#m0dbf9a8d69" y="95.415819"/>
     <use style="fill:#4daf4a;stroke:#4daf4a;" x="82.982813" xlink:href="#m0dbf9a8d69" y="94.723924"/>
     <use style="fill:#4daf4a;stroke:#4daf4a;" x="88.05554" xlink:href="#m0dbf9a8d69" y="94.075822"/>
     <use style="fill:#4daf4a;stroke:#4daf4a;" x="93.128267" xlink:href="#m0dbf9a8d69" y="92.887051"/>
     <use style="fill:#4daf4a;stroke:#4daf4a;" x="98.200994" xlink:href="#m0dbf9a8d69" y="92.632773"/>
     <use style="fill:#4daf4a;stroke:#4daf4a;" x="103.273722" xlink:href="#m0dbf9a8d69" y="92.126379"/>
     <use style="fill:#4daf4a;stroke:#4daf4a;" x="108.346449" xlink:href="#m0dbf9a8d69" y="91.311106"/>
     <use style="fill:#4daf4a;stroke:#4daf4a;" x="113.419176" xlink:href="#m0dbf9a8d69" y="90.740024"/>
     <use style="fill:#4daf4a;stroke:#4daf4a;" x="118.491903" xlink:href="#m0dbf9a8d69" y="89.755291"/>
     <use style="fill:#4daf4a;stroke:#4daf4a;" x="123.564631" xlink:href="#m0dbf9a8d69" y="89.260547"/>
     <use style="fill:#4daf4a;stroke:#4daf4a;" x="128.637358" xlink:href="#m0dbf9a8d69" y="88.75297"/>
     <use style="fill:#4daf4a;stroke:#4daf4a;" x="133.710085" xlink:href="#m0dbf9a8d69" y="88.196964"/>
    </g>
   </g>
   <g id="line2d_48">
    <path clip-path="url(#p4ad1bca012)" d="M 32.25554 104.105899 
L 37.328267 102.788668 
L 42.400994 101.599214 
L 47.473722 100.600017 
L 52.546449 99.864739 
L 57.619176 99.191386 
L 62.691903 98.6275 
L 67.764631 98.34074 
L 72.837358 97.953653 
L 77.910085 97.492191 
L 82.982813 97.254868 
L 88.05554 96.81606 
L 93.128267 96.171477 
L 98.200994 95.901882 
L 103.273722 95.657103 
L 108.346449 95.276032 
L 113.419176 95.024604 
L 118.491903 94.314735 
L 123.564631 94.105681 
L 128.637358 92.899289 
L 133.710085 92.839254 
" style="fill:none;stroke:#a65628;stroke-linecap:square;stroke-width:1.5;"/>
    <defs>
     <path d="M 0 0.5 
C 0.132602 0.5 0.25979 0.447317 0.353553 0.353553 
C 0.447317 0.25979 0.5 0.132602 0.5 0 
C 0.5 -0.132602 0.447317 -0.25979 0.353553 -0.353553 
C 0.25979 -0.447317 0.132602 -0.5 0 -0.5 
C -0.132602 -0.5 -0.25979 -0.447317 -0.353553 -0.353553 
C -0.447317 -0.25979 -0.5 -0.132602 -0.5 0 
C -0.5 0.132602 -0.447317 0.25979 -0.353553 0.353553 
C -0.25979 0.447317 -0.132602 0.5 0 0.5 
z
" id="mc79a872a23" style="stroke:#a65628;"/>
    </defs>
    <g clip-path="url(#p4ad1bca012)">
     <use style="fill:#a65628;stroke:#a65628;" x="32.25554" xlink:href="#mc79a872a23" y="104.105899"/>
     <use style="fill:#a65628;stroke:#a65628;" x="37.328267" xlink:href="#mc79a872a23" y="102.788668"/>
     <use style="fill:#a65628;stroke:#a65628;" x="42.400994" xlink:href="#mc79a872a23" y="101.599214"/>
     <use style="fill:#a65628;stroke:#a65628;" x="47.473722" xlink:href="#mc79a872a23" y="100.600017"/>
     <use style="fill:#a65628;stroke:#a65628;" x="52.546449" xlink:href="#mc79a872a23" y="99.864739"/>
     <use style="fill:#a65628;stroke:#a65628;" x="57.619176" xlink:href="#mc79a872a23" y="99.191386"/>
     <use style="fill:#a65628;stroke:#a65628;" x="62.691903" xlink:href="#mc79a872a23" y="98.6275"/>
     <use style="fill:#a65628;stroke:#a65628;" x="67.764631" xlink:href="#mc79a872a23" y="98.34074"/>
     <use style="fill:#a65628;stroke:#a65628;" x="72.837358" xlink:href="#mc79a872a23" y="97.953653"/>
     <use style="fill:#a65628;stroke:#a65628;" x="77.910085" xlink:href="#mc79a872a23" y="97.492191"/>
     <use style="fill:#a65628;stroke:#a65628;" x="82.982813" xlink:href="#mc79a872a23" y="97.254868"/>
     <use style="fill:#a65628;stroke:#a65628;" x="88.05554" xlink:href="#mc79a872a23" y="96.81606"/>
     <use style="fill:#a65628;stroke:#a65628;" x="93.128267" xlink:href="#mc79a872a23" y="96.171477"/>
     <use style="fill:#a65628;stroke:#a65628;" x="98.200994" xlink:href="#mc79a872a23" y="95.901882"/>
     <use style="fill:#a65628;stroke:#a65628;" x="103.273722" xlink:href="#mc79a872a23" y="95.657103"/>
     <use style="fill:#a65628;stroke:#a65628;" x="108.346449" xlink:href="#mc79a872a23" y="95.276032"/>
     <use style="fill:#a65628;stroke:#a65628;" x="113.419176" xlink:href="#mc79a872a23" y="95.024604"/>
     <use style="fill:#a65628;stroke:#a65628;" x="118.491903" xlink:href="#mc79a872a23" y="94.314735"/>
     <use style="fill:#a65628;stroke:#a65628;" x="123.564631" xlink:href="#mc79a872a23" y="94.105681"/>
     <use style="fill:#a65628;stroke:#a65628;" x="128.637358" xlink:href="#mc79a872a23" y="92.899289"/>
     <use style="fill:#a65628;stroke:#a65628;" x="133.710085" xlink:href="#mc79a872a23" y="92.839254"/>
    </g>
   </g>
   <g id="line2d_49">
    <path clip-path="url(#p4ad1bca012)" d="M 32.25554 104.067702 
L 37.328267 103.001922 
L 42.400994 101.951116 
L 47.473722 101.13172 
L 52.546449 100.43925 
L 57.619176 99.878491 
L 62.691903 99.541855 
L 67.764631 99.294504 
L 72.837358 98.997495 
L 77.910085 98.731111 
L 82.982813 98.350599 
L 88.05554 98.209431 
L 93.128267 97.862928 
L 98.200994 97.83437 
L 103.273722 97.182604 
L 108.346449 96.999625 
L 113.419176 96.620429 
L 118.491903 96.24472 
L 123.564631 95.688936 
L 128.637358 95.213467 
L 133.710085 94.760611 
" style="fill:none;stroke:#984ea3;stroke-linecap:square;stroke-width:1.5;"/>
    <defs>
     <path d="M 0 0.5 
C 0.132602 0.5 0.25979 0.447317 0.353553 0.353553 
C 0.447317 0.25979 0.5 0.132602 0.5 0 
C 0.5 -0.132602 0.447317 -0.25979 0.353553 -0.353553 
C 0.25979 -0.447317 0.132602 -0.5 0 -0.5 
C -0.132602 -0.5 -0.25979 -0.447317 -0.353553 -0.353553 
C -0.447317 -0.25979 -0.5 -0.132602 -0.5 0 
C -0.5 0.132602 -0.447317 0.25979 -0.353553 0.353553 
C -0.25979 0.447317 -0.132602 0.5 0 0.5 
z
" id="m48b0cef850" style="stroke:#984ea3;"/>
    </defs>
    <g clip-path="url(#p4ad1bca012)">
     <use style="fill:#984ea3;stroke:#984ea3;" x="32.25554" xlink:href="#m48b0cef850" y="104.067702"/>
     <use style="fill:#984ea3;stroke:#984ea3;" x="37.328267" xlink:href="#m48b0cef850" y="103.001922"/>
     <use style="fill:#984ea3;stroke:#984ea3;" x="42.400994" xlink:href="#m48b0cef850" y="101.951116"/>
     <use style="fill:#984ea3;stroke:#984ea3;" x="47.473722" xlink:href="#m48b0cef850" y="101.13172"/>
     <use style="fill:#984ea3;stroke:#984ea3;" x="52.546449" xlink:href="#m48b0cef850" y="100.43925"/>
     <use style="fill:#984ea3;stroke:#984ea3;" x="57.619176" xlink:href="#m48b0cef850" y="99.878491"/>
     <use style="fill:#984ea3;stroke:#984ea3;" x="62.691903" xlink:href="#m48b0cef850" y="99.541855"/>
     <use style="fill:#984ea3;stroke:#984ea3;" x="67.764631" xlink:href="#m48b0cef850" y="99.294504"/>
     <use style="fill:#984ea3;stroke:#984ea3;" x="72.837358" xlink:href="#m48b0cef850" y="98.997495"/>
     <use style="fill:#984ea3;stroke:#984ea3;" x="77.910085" xlink:href="#m48b0cef850" y="98.731111"/>
     <use style="fill:#984ea3;stroke:#984ea3;" x="82.982813" xlink:href="#m48b0cef850" y="98.350599"/>
     <use style="fill:#984ea3;stroke:#984ea3;" x="88.05554" xlink:href="#m48b0cef850" y="98.209431"/>
     <use style="fill:#984ea3;stroke:#984ea3;" x="93.128267" xlink:href="#m48b0cef850" y="97.862928"/>
     <use style="fill:#984ea3;stroke:#984ea3;" x="98.200994" xlink:href="#m48b0cef850" y="97.83437"/>
     <use style="fill:#984ea3;stroke:#984ea3;" x="103.273722" xlink:href="#m48b0cef850" y="97.182604"/>
     <use style="fill:#984ea3;stroke:#984ea3;" x="108.346449" xlink:href="#m48b0cef850" y="96.999625"/>
     <use style="fill:#984ea3;stroke:#984ea3;" x="113.419176" xlink:href="#m48b0cef850" y="96.620429"/>
     <use style="fill:#984ea3;stroke:#984ea3;" x="118.491903" xlink:href="#m48b0cef850" y="96.24472"/>
     <use style="fill:#984ea3;stroke:#984ea3;" x="123.564631" xlink:href="#m48b0cef850" y="95.688936"/>
     <use style="fill:#984ea3;stroke:#984ea3;" x="128.637358" xlink:href="#m48b0cef850" y="95.213467"/>
     <use style="fill:#984ea3;stroke:#984ea3;" x="133.710085" xlink:href="#m48b0cef850" y="94.760611"/>
    </g>
   </g>
   <g id="line2d_50">
    <path clip-path="url(#p4ad1bca012)" d="M 32.25554 104.056424 
L 37.328267 103.090135 
L 42.400994 102.194174 
L 47.473722 101.552525 
L 52.546449 100.875275 
L 57.619176 100.389798 
L 62.691903 100.068732 
L 67.764631 99.767129 
L 72.837358 99.475858 
L 77.910085 99.277434 
L 82.982813 98.836797 
L 88.05554 98.75807 
L 93.128267 98.43119 
L 98.200994 98.169933 
L 103.273722 97.694379 
L 108.346449 97.463963 
L 113.419176 96.998233 
L 118.491903 96.647164 
L 123.564631 96.200722 
L 128.637358 95.860398 
L 133.710085 95.552028 
" style="fill:none;stroke:#ff7f00;stroke-linecap:square;stroke-width:1.5;"/>
    <defs>
     <path d="M 0 0.5 
C 0.132602 0.5 0.25979 0.447317 0.353553 0.353553 
C 0.447317 0.25979 0.5 0.132602 0.5 0 
C 0.5 -0.132602 0.447317 -0.25979 0.353553 -0.353553 
C 0.25979 -0.447317 0.132602 -0.5 0 -0.5 
C -0.132602 -0.5 -0.25979 -0.447317 -0.353553 -0.353553 
C -0.447317 -0.25979 -0.5 -0.132602 -0.5 0 
C -0.5 0.132602 -0.447317 0.25979 -0.353553 0.353553 
C -0.25979 0.447317 -0.132602 0.5 0 0.5 
z
" id="mc41d469c8e" style="stroke:#ff7f00;"/>
    </defs>
    <g clip-path="url(#p4ad1bca012)">
     <use style="fill:#ff7f00;stroke:#ff7f00;" x="32.25554" xlink:href="#mc41d469c8e" y="104.056424"/>
     <use style="fill:#ff7f00;stroke:#ff7f00;" x="37.328267" xlink:href="#mc41d469c8e" y="103.090135"/>
     <use style="fill:#ff7f00;stroke:#ff7f00;" x="42.400994" xlink:href="#mc41d469c8e" y="102.194174"/>
     <use style="fill:#ff7f00;stroke:#ff7f00;" x="47.473722" xlink:href="#mc41d469c8e" y="101.552525"/>
     <use style="fill:#ff7f00;stroke:#ff7f00;" x="52.546449" xlink:href="#mc41d469c8e" y="100.875275"/>
     <use style="fill:#ff7f00;stroke:#ff7f00;" x="57.619176" xlink:href="#mc41d469c8e" y="100.389798"/>
     <use style="fill:#ff7f00;stroke:#ff7f00;" x="62.691903" xlink:href="#mc41d469c8e" y="100.068732"/>
     <use style="fill:#ff7f00;stroke:#ff7f00;" x="67.764631" xlink:href="#mc41d469c8e" y="99.767129"/>
     <use style="fill:#ff7f00;stroke:#ff7f00;" x="72.837358" xlink:href="#mc41d469c8e" y="99.475858"/>
     <use style="fill:#ff7f00;stroke:#ff7f00;" x="77.910085" xlink:href="#mc41d469c8e" y="99.277434"/>
     <use style="fill:#ff7f00;stroke:#ff7f00;" x="82.982813" xlink:href="#mc41d469c8e" y="98.836797"/>
     <use style="fill:#ff7f00;stroke:#ff7f00;" x="88.05554" xlink:href="#mc41d469c8e" y="98.75807"/>
     <use style="fill:#ff7f00;stroke:#ff7f00;" x="93.128267" xlink:href="#mc41d469c8e" y="98.43119"/>
     <use style="fill:#ff7f00;stroke:#ff7f00;" x="98.200994" xlink:href="#mc41d469c8e" y="98.169933"/>
     <use style="fill:#ff7f00;stroke:#ff7f00;" x="103.273722" xlink:href="#mc41d469c8e" y="97.694379"/>
     <use style="fill:#ff7f00;stroke:#ff7f00;" x="108.346449" xlink:href="#mc41d469c8e" y="97.463963"/>
     <use style="fill:#ff7f00;stroke:#ff7f00;" x="113.419176" xlink:href="#mc41d469c8e" y="96.998233"/>
     <use style="fill:#ff7f00;stroke:#ff7f00;" x="118.491903" xlink:href="#mc41d469c8e" y="96.647164"/>
     <use style="fill:#ff7f00;stroke:#ff7f00;" x="123.564631" xlink:href="#mc41d469c8e" y="96.200722"/>
     <use style="fill:#ff7f00;stroke:#ff7f00;" x="128.637358" xlink:href="#mc41d469c8e" y="95.860398"/>
     <use style="fill:#ff7f00;stroke:#ff7f00;" x="133.710085" xlink:href="#mc41d469c8e" y="95.552028"/>
    </g>
   </g>
   <g id="line2d_51">
    <path clip-path="url(#p4ad1bca012)" d="M 32.25554 104.049243 
L 37.328267 103.183263 
L 42.400994 102.345614 
L 47.473722 101.713132 
L 52.546449 101.129408 
L 57.619176 100.606299 
L 62.691903 100.128663 
L 67.764631 99.947949 
L 72.837358 99.680155 
L 77.910085 99.507328 
L 82.982813 99.276095 
L 88.05554 99.067827 
L 93.128267 98.741563 
L 98.200994 98.449182 
L 103.273722 98.050422 
L 108.346449 97.874422 
L 113.419176 97.287044 
L 118.491903 96.784716 
L 123.564631 96.46447 
L 128.637358 96.072038 
L 133.710085 95.632353 
" style="fill:none;stroke:#e41a1c;stroke-linecap:square;stroke-width:1.5;"/>
    <defs>
     <path d="M 0 0.5 
C 0.132602 0.5 0.25979 0.447317 0.353553 0.353553 
C 0.447317 0.25979 0.5 0.132602 0.5 0 
C 0.5 -0.132602 0.447317 -0.25979 0.353553 -0.353553 
C 0.25979 -0.447317 0.132602 -0.5 0 -0.5 
C -0.132602 -0.5 -0.25979 -0.447317 -0.353553 -0.353553 
C -0.447317 -0.25979 -0.5 -0.132602 -0.5 0 
C -0.5 0.132602 -0.447317 0.25979 -0.353553 0.353553 
C -0.25979 0.447317 -0.132602 0.5 0 0.5 
z
" id="mb33ab8a5ce" style="stroke:#e41a1c;"/>
    </defs>
    <g clip-path="url(#p4ad1bca012)">
     <use style="fill:#e41a1c;stroke:#e41a1c;" x="32.25554" xlink:href="#mb33ab8a5ce" y="104.049243"/>
     <use style="fill:#e41a1c;stroke:#e41a1c;" x="37.328267" xlink:href="#mb33ab8a5ce" y="103.183263"/>
     <use style="fill:#e41a1c;stroke:#e41a1c;" x="42.400994" xlink:href="#mb33ab8a5ce" y="102.345614"/>
     <use style="fill:#e41a1c;stroke:#e41a1c;" x="47.473722" xlink:href="#mb33ab8a5ce" y="101.713132"/>
     <use style="fill:#e41a1c;stroke:#e41a1c;" x="52.546449" xlink:href="#mb33ab8a5ce" y="101.129408"/>
     <use style="fill:#e41a1c;stroke:#e41a1c;" x="57.619176" xlink:href="#mb33ab8a5ce" y="100.606299"/>
     <use style="fill:#e41a1c;stroke:#e41a1c;" x="62.691903" xlink:href="#mb33ab8a5ce" y="100.128663"/>
     <use style="fill:#e41a1c;stroke:#e41a1c;" x="67.764631" xlink:href="#mb33ab8a5ce" y="99.947949"/>
     <use style="fill:#e41a1c;stroke:#e41a1c;" x="72.837358" xlink:href="#mb33ab8a5ce" y="99.680155"/>
     <use style="fill:#e41a1c;stroke:#e41a1c;" x="77.910085" xlink:href="#mb33ab8a5ce" y="99.507328"/>
     <use style="fill:#e41a1c;stroke:#e41a1c;" x="82.982813" xlink:href="#mb33ab8a5ce" y="99.276095"/>
     <use style="fill:#e41a1c;stroke:#e41a1c;" x="88.05554" xlink:href="#mb33ab8a5ce" y="99.067827"/>
     <use style="fill:#e41a1c;stroke:#e41a1c;" x="93.128267" xlink:href="#mb33ab8a5ce" y="98.741563"/>
     <use style="fill:#e41a1c;stroke:#e41a1c;" x="98.200994" xlink:href="#mb33ab8a5ce" y="98.449182"/>
     <use style="fill:#e41a1c;stroke:#e41a1c;" x="103.273722" xlink:href="#mb33ab8a5ce" y="98.050422"/>
     <use style="fill:#e41a1c;stroke:#e41a1c;" x="108.346449" xlink:href="#mb33ab8a5ce" y="97.874422"/>
     <use style="fill:#e41a1c;stroke:#e41a1c;" x="113.419176" xlink:href="#mb33ab8a5ce" y="97.287044"/>
     <use style="fill:#e41a1c;stroke:#e41a1c;" x="118.491903" xlink:href="#mb33ab8a5ce" y="96.784716"/>
     <use style="fill:#e41a1c;stroke:#e41a1c;" x="123.564631" xlink:href="#mb33ab8a5ce" y="96.46447"/>
     <use style="fill:#e41a1c;stroke:#e41a1c;" x="128.637358" xlink:href="#mb33ab8a5ce" y="96.072038"/>
     <use style="fill:#e41a1c;stroke:#e41a1c;" x="133.710085" xlink:href="#mb33ab8a5ce" y="95.632353"/>
    </g>
   </g>
   <g id="patch_3">
    <path d="M 27.182813 108.72 
L 27.182813 0 
" style="fill:none;stroke:#000000;stroke-linecap:square;stroke-linejoin:miter;stroke-width:0.5;"/>
   </g>
   <g id="patch_4">
    <path d="M 138.782813 108.72 
L 138.782813 0 
" style="fill:none;stroke:#000000;stroke-linecap:square;stroke-linejoin:miter;stroke-width:0.5;"/>
   </g>
   <g id="patch_5">
    <path d="M 27.182813 108.72 
L 138.782813 108.72 
" style="fill:none;stroke:#000000;stroke-linecap:square;stroke-linejoin:miter;stroke-width:0.5;"/>
   </g>
   <g id="patch_6">
    <path d="M 27.182813 0 
L 138.782813 0 
" style="fill:none;stroke:#000000;stroke-linecap:square;stroke-linejoin:miter;stroke-width:0.5;"/>
   </g>
  </g>
 </g>
 <defs>
  <clipPath id="p4ad1bca012">
   <rect height="108.72" width="111.6" x="27.182813" y="0"/>
  </clipPath>
 </defs>
</svg>
