<?xml version="1.0" encoding="utf-8" standalone="no"?>
<!DOCTYPE svg PUBLIC "-//W3C//DTD SVG 1.1//EN"
  "http://www.w3.org/Graphics/SVG/1.1/DTD/svg11.dtd">
<!-- Created with matplotlib (https://matplotlib.org/) -->
<svg height="128.365313pt" version="1.1" viewBox="0 0 145.770028 128.365313" width="145.770028pt" xmlns="http://www.w3.org/2000/svg" xmlns:xlink="http://www.w3.org/1999/xlink">
 <metadata>
  <rdf:RDF xmlns:cc="http://creativecommons.org/ns#" xmlns:dc="http://purl.org/dc/elements/1.1/" xmlns:rdf="http://www.w3.org/1999/02/22-rdf-syntax-ns#">
   <cc:Work>
    <dc:type rdf:resource="http://purl.org/dc/dcmitype/StillImage"/>
    <dc:date>2020-12-08T00:49:52.017666</dc:date>
    <dc:format>image/svg+xml</dc:format>
    <dc:creator>
     <cc:Agent>
      <dc:title>Matplotlib v3.3.0, https://matplotlib.org/</dc:title>
     </cc:Agent>
    </dc:creator>
   </cc:Work>
  </rdf:RDF>
 </metadata>
 <defs>
  <style type="text/css">*{stroke-linecap:butt;stroke-linejoin:round;}</style>
 </defs>
 <g id="figure_1">
  <g id="patch_1">
   <path d="M 0 128.365313 
L 145.770028 128.365313 
L 145.770028 0 
L 0 0 
z
" style="fill:none;"/>
  </g>
  <g id="axes_1">
   <g id="patch_2">
    <path d="M 30.3 108.72 
L 141.9 108.72 
L 141.9 0 
L 30.3 0 
z
" style="fill:none;"/>
   </g>
   <g id="matplotlib.axis_1">
    <g id="xtick_1">
     <g id="line2d_1">
      <defs>
       <path d="M 0 0 
L 0 -3.5 
" id="me40c81da96" style="stroke:#000000;stroke-width:0.5;"/>
      </defs>
      <g>
       <use style="stroke:#000000;stroke-width:0.5;" x="31.990909" xlink:href="#me40c81da96" y="108.72"/>
      </g>
     </g>
     <g id="line2d_2">
      <defs>
       <path d="M 0 0 
L 0 3.5 
" id="m94197f8cdb" style="stroke:#000000;stroke-width:0.5;"/>
      </defs>
      <g>
       <use style="stroke:#000000;stroke-width:0.5;" x="31.990909" xlink:href="#m94197f8cdb" y="0"/>
      </g>
     </g>
     <g id="text_1">
      <!-- −80 -->
      <g transform="translate(23.509659 116.877813)scale(0.1 -0.1)">
       <defs>
        <path d="M 52.828125 31.203125 
L 5.5625 31.203125 
L 5.5625 39.40625 
L 52.828125 39.40625 
z
" id="ArialMT-8722"/>
        <path d="M 17.671875 38.8125 
Q 12.203125 40.828125 9.5625 44.53125 
Q 6.9375 48.25 6.9375 53.421875 
Q 6.9375 61.234375 12.546875 66.546875 
Q 18.171875 71.875 27.484375 71.875 
Q 36.859375 71.875 42.578125 66.421875 
Q 48.296875 60.984375 48.296875 53.171875 
Q 48.296875 48.1875 45.671875 44.5 
Q 43.0625 40.828125 37.75 38.8125 
Q 44.34375 36.671875 47.78125 31.875 
Q 51.21875 27.09375 51.21875 20.453125 
Q 51.21875 11.28125 44.71875 5.03125 
Q 38.234375 -1.21875 27.640625 -1.21875 
Q 17.046875 -1.21875 10.546875 5.046875 
Q 4.046875 11.328125 4.046875 20.703125 
Q 4.046875 27.6875 7.59375 32.390625 
Q 11.140625 37.109375 17.671875 38.8125 
z
M 15.921875 53.71875 
Q 15.921875 48.640625 19.1875 45.40625 
Q 22.46875 42.1875 27.6875 42.1875 
Q 32.765625 42.1875 36.015625 45.375 
Q 39.265625 48.578125 39.265625 53.21875 
Q 39.265625 58.0625 35.90625 61.359375 
Q 32.5625 64.65625 27.59375 64.65625 
Q 22.5625 64.65625 19.234375 61.421875 
Q 15.921875 58.203125 15.921875 53.71875 
z
M 13.09375 20.65625 
Q 13.09375 16.890625 14.875 13.375 
Q 16.65625 9.859375 20.171875 7.921875 
Q 23.6875 6 27.734375 6 
Q 34.03125 6 38.125 10.046875 
Q 42.234375 14.109375 42.234375 20.359375 
Q 42.234375 26.703125 38.015625 30.859375 
Q 33.796875 35.015625 27.4375 35.015625 
Q 21.234375 35.015625 17.15625 30.90625 
Q 13.09375 26.8125 13.09375 20.65625 
z
" id="ArialMT-56"/>
        <path d="M 4.15625 35.296875 
Q 4.15625 48 6.765625 55.734375 
Q 9.375 63.484375 14.515625 67.671875 
Q 19.671875 71.875 27.484375 71.875 
Q 33.25 71.875 37.59375 69.546875 
Q 41.9375 67.234375 44.765625 62.859375 
Q 47.609375 58.5 49.21875 52.21875 
Q 50.828125 45.953125 50.828125 35.296875 
Q 50.828125 22.703125 48.234375 14.96875 
Q 45.65625 7.234375 40.5 3 
Q 35.359375 -1.21875 27.484375 -1.21875 
Q 17.140625 -1.21875 11.234375 6.203125 
Q 4.15625 15.140625 4.15625 35.296875 
z
M 13.1875 35.296875 
Q 13.1875 17.671875 17.3125 11.828125 
Q 21.4375 6 27.484375 6 
Q 33.546875 6 37.671875 11.859375 
Q 41.796875 17.71875 41.796875 35.296875 
Q 41.796875 52.984375 37.671875 58.78125 
Q 33.546875 64.59375 27.390625 64.59375 
Q 21.34375 64.59375 17.71875 59.46875 
Q 13.1875 52.9375 13.1875 35.296875 
z
" id="ArialMT-48"/>
       </defs>
       <use xlink:href="#ArialMT-8722"/>
       <use x="58.398438" xlink:href="#ArialMT-56"/>
       <use x="114.013672" xlink:href="#ArialMT-48"/>
      </g>
     </g>
    </g>
    <g id="xtick_2">
     <g id="line2d_3">
      <g>
       <use style="stroke:#000000;stroke-width:0.5;" x="59.045455" xlink:href="#me40c81da96" y="108.72"/>
      </g>
     </g>
     <g id="line2d_4">
      <g>
       <use style="stroke:#000000;stroke-width:0.5;" x="59.045455" xlink:href="#m94197f8cdb" y="0"/>
      </g>
     </g>
     <g id="text_2">
      <!-- −40 -->
      <g transform="translate(50.564205 116.877813)scale(0.1 -0.1)">
       <defs>
        <path d="M 32.328125 0 
L 32.328125 17.140625 
L 1.265625 17.140625 
L 1.265625 25.203125 
L 33.9375 71.578125 
L 41.109375 71.578125 
L 41.109375 25.203125 
L 50.78125 25.203125 
L 50.78125 17.140625 
L 41.109375 17.140625 
L 41.109375 0 
z
M 32.328125 25.203125 
L 32.328125 57.46875 
L 9.90625 25.203125 
z
" id="ArialMT-52"/>
       </defs>
       <use xlink:href="#ArialMT-8722"/>
       <use x="58.398438" xlink:href="#ArialMT-52"/>
       <use x="114.013672" xlink:href="#ArialMT-48"/>
      </g>
     </g>
    </g>
    <g id="xtick_3">
     <g id="line2d_5">
      <g>
       <use style="stroke:#000000;stroke-width:0.5;" x="86.1" xlink:href="#me40c81da96" y="108.72"/>
      </g>
     </g>
     <g id="line2d_6">
      <g>
       <use style="stroke:#000000;stroke-width:0.5;" x="86.1" xlink:href="#m94197f8cdb" y="0"/>
      </g>
     </g>
     <g id="text_3">
      <!-- 0 -->
      <g transform="translate(83.319531 116.877813)scale(0.1 -0.1)">
       <use xlink:href="#ArialMT-48"/>
      </g>
     </g>
    </g>
    <g id="xtick_4">
     <g id="line2d_7">
      <g>
       <use style="stroke:#000000;stroke-width:0.5;" x="113.154545" xlink:href="#me40c81da96" y="108.72"/>
      </g>
     </g>
     <g id="line2d_8">
      <g>
       <use style="stroke:#000000;stroke-width:0.5;" x="113.154545" xlink:href="#m94197f8cdb" y="0"/>
      </g>
     </g>
     <g id="text_4">
      <!-- 40 -->
      <g transform="translate(107.593608 116.877813)scale(0.1 -0.1)">
       <use xlink:href="#ArialMT-52"/>
       <use x="55.615234" xlink:href="#ArialMT-48"/>
      </g>
     </g>
    </g>
    <g id="xtick_5">
     <g id="line2d_9">
      <g>
       <use style="stroke:#000000;stroke-width:0.5;" x="140.209091" xlink:href="#me40c81da96" y="108.72"/>
      </g>
     </g>
     <g id="line2d_10">
      <g>
       <use style="stroke:#000000;stroke-width:0.5;" x="140.209091" xlink:href="#m94197f8cdb" y="0"/>
      </g>
     </g>
     <g id="text_5">
      <!-- 80 -->
      <g transform="translate(134.648153 116.877813)scale(0.1 -0.1)">
       <use xlink:href="#ArialMT-56"/>
       <use x="55.615234" xlink:href="#ArialMT-48"/>
      </g>
     </g>
    </g>
    <g id="xtick_6">
     <g id="line2d_11">
      <defs>
       <path d="M 0 0 
L 0 -2 
" id="m7af55d4b02" style="stroke:#000000;stroke-width:0.5;"/>
      </defs>
      <g>
       <use style="stroke:#000000;stroke-width:0.5;" x="38.754545" xlink:href="#m7af55d4b02" y="108.72"/>
      </g>
     </g>
     <g id="line2d_12">
      <defs>
       <path d="M 0 0 
L 0 2 
" id="m3e940d5e05" style="stroke:#000000;stroke-width:0.5;"/>
      </defs>
      <g>
       <use style="stroke:#000000;stroke-width:0.5;" x="38.754545" xlink:href="#m3e940d5e05" y="0"/>
      </g>
     </g>
    </g>
    <g id="xtick_7">
     <g id="line2d_13">
      <g>
       <use style="stroke:#000000;stroke-width:0.5;" x="45.518182" xlink:href="#m7af55d4b02" y="108.72"/>
      </g>
     </g>
     <g id="line2d_14">
      <g>
       <use style="stroke:#000000;stroke-width:0.5;" x="45.518182" xlink:href="#m3e940d5e05" y="0"/>
      </g>
     </g>
    </g>
    <g id="xtick_8">
     <g id="line2d_15">
      <g>
       <use style="stroke:#000000;stroke-width:0.5;" x="52.281818" xlink:href="#m7af55d4b02" y="108.72"/>
      </g>
     </g>
     <g id="line2d_16">
      <g>
       <use style="stroke:#000000;stroke-width:0.5;" x="52.281818" xlink:href="#m3e940d5e05" y="0"/>
      </g>
     </g>
    </g>
    <g id="xtick_9">
     <g id="line2d_17">
      <g>
       <use style="stroke:#000000;stroke-width:0.5;" x="65.809091" xlink:href="#m7af55d4b02" y="108.72"/>
      </g>
     </g>
     <g id="line2d_18">
      <g>
       <use style="stroke:#000000;stroke-width:0.5;" x="65.809091" xlink:href="#m3e940d5e05" y="0"/>
      </g>
     </g>
    </g>
    <g id="xtick_10">
     <g id="line2d_19">
      <g>
       <use style="stroke:#000000;stroke-width:0.5;" x="72.572727" xlink:href="#m7af55d4b02" y="108.72"/>
      </g>
     </g>
     <g id="line2d_20">
      <g>
       <use style="stroke:#000000;stroke-width:0.5;" x="72.572727" xlink:href="#m3e940d5e05" y="0"/>
      </g>
     </g>
    </g>
    <g id="xtick_11">
     <g id="line2d_21">
      <g>
       <use style="stroke:#000000;stroke-width:0.5;" x="79.336364" xlink:href="#m7af55d4b02" y="108.72"/>
      </g>
     </g>
     <g id="line2d_22">
      <g>
       <use style="stroke:#000000;stroke-width:0.5;" x="79.336364" xlink:href="#m3e940d5e05" y="0"/>
      </g>
     </g>
    </g>
    <g id="xtick_12">
     <g id="line2d_23">
      <g>
       <use style="stroke:#000000;stroke-width:0.5;" x="92.863636" xlink:href="#m7af55d4b02" y="108.72"/>
      </g>
     </g>
     <g id="line2d_24">
      <g>
       <use style="stroke:#000000;stroke-width:0.5;" x="92.863636" xlink:href="#m3e940d5e05" y="0"/>
      </g>
     </g>
    </g>
    <g id="xtick_13">
     <g id="line2d_25">
      <g>
       <use style="stroke:#000000;stroke-width:0.5;" x="99.627273" xlink:href="#m7af55d4b02" y="108.72"/>
      </g>
     </g>
     <g id="line2d_26">
      <g>
       <use style="stroke:#000000;stroke-width:0.5;" x="99.627273" xlink:href="#m3e940d5e05" y="0"/>
      </g>
     </g>
    </g>
    <g id="xtick_14">
     <g id="line2d_27">
      <g>
       <use style="stroke:#000000;stroke-width:0.5;" x="106.390909" xlink:href="#m7af55d4b02" y="108.72"/>
      </g>
     </g>
     <g id="line2d_28">
      <g>
       <use style="stroke:#000000;stroke-width:0.5;" x="106.390909" xlink:href="#m3e940d5e05" y="0"/>
      </g>
     </g>
    </g>
    <g id="xtick_15">
     <g id="line2d_29">
      <g>
       <use style="stroke:#000000;stroke-width:0.5;" x="119.918182" xlink:href="#m7af55d4b02" y="108.72"/>
      </g>
     </g>
     <g id="line2d_30">
      <g>
       <use style="stroke:#000000;stroke-width:0.5;" x="119.918182" xlink:href="#m3e940d5e05" y="0"/>
      </g>
     </g>
    </g>
    <g id="xtick_16">
     <g id="line2d_31">
      <g>
       <use style="stroke:#000000;stroke-width:0.5;" x="126.681818" xlink:href="#m7af55d4b02" y="108.72"/>
      </g>
     </g>
     <g id="line2d_32">
      <g>
       <use style="stroke:#000000;stroke-width:0.5;" x="126.681818" xlink:href="#m3e940d5e05" y="0"/>
      </g>
     </g>
    </g>
    <g id="xtick_17">
     <g id="line2d_33">
      <g>
       <use style="stroke:#000000;stroke-width:0.5;" x="133.445455" xlink:href="#m7af55d4b02" y="108.72"/>
      </g>
     </g>
     <g id="line2d_34">
      <g>
       <use style="stroke:#000000;stroke-width:0.5;" x="133.445455" xlink:href="#m3e940d5e05" y="0"/>
      </g>
     </g>
    </g>
    <g id="text_6">
     <!-- $\it{V_{G}}$ (V) -->
     <g transform="translate(71.75 126.165313)scale(0.1 -0.1)">
      <defs>
       <path d="M 20.609375 0 
L 7.8125 72.90625 
L 17.484375 72.90625 
L 28.078125 10.203125 
L 63.484375 72.90625 
L 74.21875 72.90625 
L 32.078125 0 
z
" id="DejaVuSans-Oblique-86"/>
       <path d="M 54.59375 10.890625 
L 58.40625 29.984375 
L 42.1875 29.984375 
L 43.703125 38.09375 
L 69.578125 38.09375 
L 63.28125 6 
Q 56.78125 2.4375 49.109375 0.5 
Q 41.453125 -1.421875 33.6875 -1.421875 
Q 19.96875 -1.421875 12.234375 6.1875 
Q 4.5 13.8125 4.5 27.390625 
Q 4.5 38.671875 9.203125 48.84375 
Q 13.921875 59.03125 22.21875 65.828125 
Q 27.4375 70.0625 33.640625 72.140625 
Q 39.84375 74.21875 47.40625 74.21875 
Q 54.25 74.21875 60.515625 72.484375 
Q 66.796875 70.75 72.515625 67.28125 
L 70.515625 56.78125 
Q 66.109375 61.375 60.203125 63.796875 
Q 54.296875 66.21875 47.609375 66.21875 
Q 39.84375 66.21875 33.9375 63.25 
Q 28.03125 60.296875 23.390625 54.109375 
Q 19.4375 48.828125 17.15625 41.671875 
Q 14.890625 34.515625 14.890625 27.09375 
Q 14.890625 16.890625 20.109375 11.734375 
Q 25.34375 6.59375 35.6875 6.59375 
Q 40.875 6.59375 45.703125 7.6875 
Q 50.53125 8.796875 54.59375 10.890625 
z
" id="DejaVuSans-Oblique-71"/>
       <path id="ArialMT-32"/>
       <path d="M 23.390625 -21.046875 
Q 16.109375 -11.859375 11.078125 0.4375 
Q 6.0625 12.75 6.0625 25.921875 
Q 6.0625 37.546875 9.8125 48.1875 
Q 14.203125 60.546875 23.390625 72.796875 
L 29.6875 72.796875 
Q 23.78125 62.640625 21.875 58.296875 
Q 18.890625 51.5625 17.1875 44.234375 
Q 15.09375 35.109375 15.09375 25.875 
Q 15.09375 2.390625 29.6875 -21.046875 
z
" id="ArialMT-40"/>
       <path d="M 28.171875 0 
L 0.4375 71.578125 
L 10.6875 71.578125 
L 29.296875 19.578125 
Q 31.546875 13.328125 33.0625 7.859375 
Q 34.71875 13.71875 36.921875 19.578125 
L 56.25 71.578125 
L 65.921875 71.578125 
L 37.890625 0 
z
" id="ArialMT-86"/>
       <path d="M 12.359375 -21.046875 
L 6.0625 -21.046875 
Q 20.65625 2.390625 20.65625 25.875 
Q 20.65625 35.0625 18.5625 44.09375 
Q 16.890625 51.421875 13.921875 58.15625 
Q 12.015625 62.546875 6.0625 72.796875 
L 12.359375 72.796875 
Q 21.53125 60.546875 25.921875 48.1875 
Q 29.6875 37.546875 29.6875 25.921875 
Q 29.6875 12.75 24.625 0.4375 
Q 19.578125 -11.859375 12.359375 -21.046875 
z
" id="ArialMT-41"/>
      </defs>
      <use transform="translate(0 0.09375)" xlink:href="#DejaVuSans-Oblique-86"/>
      <use transform="translate(68.408203 -16.3125)scale(0.7)" xlink:href="#DejaVuSans-Oblique-71"/>
      <use transform="translate(125.385742 0.09375)" xlink:href="#ArialMT-32"/>
      <use transform="translate(153.168945 0.09375)" xlink:href="#ArialMT-40"/>
      <use transform="translate(186.469727 0.09375)" xlink:href="#ArialMT-86"/>
      <use transform="translate(253.168945 0.09375)" xlink:href="#ArialMT-41"/>
     </g>
    </g>
   </g>
   <g id="matplotlib.axis_2">
    <g id="ytick_1">
     <g id="line2d_35">
      <defs>
       <path d="M 0 0 
L 3.5 0 
" id="mc02b4cd411" style="stroke:#000000;stroke-width:0.5;"/>
      </defs>
      <g>
       <use style="stroke:#000000;stroke-width:0.5;" x="30.3" xlink:href="#mc02b4cd411" y="96.056824"/>
      </g>
     </g>
     <g id="line2d_36">
      <defs>
       <path d="M 0 0 
L -3.5 0 
" id="m262a78d3c7" style="stroke:#000000;stroke-width:0.5;"/>
      </defs>
      <g>
       <use style="stroke:#000000;stroke-width:0.5;" x="141.9" xlink:href="#m262a78d3c7" y="96.056824"/>
      </g>
     </g>
     <g id="text_7">
      <!-- $\mathdefault{10^{-9}}$ -->
      <g transform="translate(9.5 101.213074)scale(0.1 -0.1)">
       <defs>
        <path d="M 37.25 0 
L 28.46875 0 
L 28.46875 56 
Q 25.296875 52.984375 20.140625 49.953125 
Q 14.984375 46.921875 10.890625 45.40625 
L 10.890625 53.90625 
Q 18.265625 57.375 23.78125 62.296875 
Q 29.296875 67.234375 31.59375 71.875 
L 37.25 71.875 
z
" id="ArialMT-49"/>
        <path d="M 5.46875 16.546875 
L 13.921875 17.328125 
Q 14.984375 11.375 18.015625 8.6875 
Q 21.046875 6 25.78125 6 
Q 29.828125 6 32.875 7.859375 
Q 35.9375 9.71875 37.890625 12.8125 
Q 39.84375 15.921875 41.15625 21.1875 
Q 42.484375 26.46875 42.484375 31.9375 
Q 42.484375 32.515625 42.4375 33.6875 
Q 39.796875 29.5 35.234375 26.875 
Q 30.671875 24.265625 25.34375 24.265625 
Q 16.453125 24.265625 10.296875 30.703125 
Q 4.15625 37.15625 4.15625 47.703125 
Q 4.15625 58.59375 10.578125 65.234375 
Q 17 71.875 26.65625 71.875 
Q 33.640625 71.875 39.421875 68.109375 
Q 45.21875 64.359375 48.21875 57.390625 
Q 51.21875 50.4375 51.21875 37.25 
Q 51.21875 23.53125 48.234375 15.40625 
Q 45.265625 7.28125 39.375 3.03125 
Q 33.5 -1.21875 25.59375 -1.21875 
Q 17.1875 -1.21875 11.859375 3.4375 
Q 6.546875 8.109375 5.46875 16.546875 
z
M 41.453125 48.140625 
Q 41.453125 55.71875 37.421875 60.15625 
Q 33.40625 64.59375 27.734375 64.59375 
Q 21.875 64.59375 17.53125 59.8125 
Q 13.1875 55.03125 13.1875 47.40625 
Q 13.1875 40.578125 17.3125 36.296875 
Q 21.4375 32.03125 27.484375 32.03125 
Q 33.59375 32.03125 37.515625 36.296875 
Q 41.453125 40.578125 41.453125 48.140625 
z
" id="ArialMT-57"/>
       </defs>
       <use transform="translate(0 0.99375)" xlink:href="#ArialMT-49"/>
       <use transform="translate(55.615234 0.99375)" xlink:href="#ArialMT-48"/>
       <use transform="translate(112.972813 70.6875)scale(0.7)" xlink:href="#ArialMT-8722"/>
       <use transform="translate(153.851719 70.6875)scale(0.7)" xlink:href="#ArialMT-57"/>
      </g>
     </g>
    </g>
    <g id="ytick_2">
     <g id="line2d_37">
      <g>
       <use style="stroke:#000000;stroke-width:0.5;" x="30.3" xlink:href="#mc02b4cd411" y="18.304212"/>
      </g>
     </g>
     <g id="line2d_38">
      <g>
       <use style="stroke:#000000;stroke-width:0.5;" x="141.9" xlink:href="#m262a78d3c7" y="18.304212"/>
      </g>
     </g>
     <g id="text_8">
      <!-- $\mathdefault{10^{-8}}$ -->
      <g transform="translate(9.5 23.460462)scale(0.1 -0.1)">
       <use transform="translate(0 0.99375)" xlink:href="#ArialMT-49"/>
       <use transform="translate(55.615234 0.99375)" xlink:href="#ArialMT-48"/>
       <use transform="translate(112.972813 70.6875)scale(0.7)" xlink:href="#ArialMT-8722"/>
       <use transform="translate(153.851719 70.6875)scale(0.7)" xlink:href="#ArialMT-56"/>
      </g>
     </g>
    </g>
    <g id="ytick_3">
     <g id="line2d_39">
      <defs>
       <path d="M 0 0 
L 2 0 
" id="m22d867530d" style="stroke:#000000;stroke-width:0.5;"/>
      </defs>
      <g>
       <use style="stroke:#000000;stroke-width:0.5;" x="30.3" xlink:href="#m22d867530d" y="108.100855"/>
      </g>
     </g>
     <g id="line2d_40">
      <defs>
       <path d="M 0 0 
L -2 0 
" id="m28f9ba588a" style="stroke:#000000;stroke-width:0.5;"/>
      </defs>
      <g>
       <use style="stroke:#000000;stroke-width:0.5;" x="141.9" xlink:href="#m28f9ba588a" y="108.100855"/>
      </g>
     </g>
    </g>
    <g id="ytick_4">
     <g id="line2d_41">
      <g>
       <use style="stroke:#000000;stroke-width:0.5;" x="30.3" xlink:href="#m22d867530d" y="103.59183"/>
      </g>
     </g>
     <g id="line2d_42">
      <g>
       <use style="stroke:#000000;stroke-width:0.5;" x="141.9" xlink:href="#m28f9ba588a" y="103.59183"/>
      </g>
     </g>
    </g>
    <g id="ytick_5">
     <g id="line2d_43">
      <g>
       <use style="stroke:#000000;stroke-width:0.5;" x="30.3" xlink:href="#m22d867530d" y="99.614588"/>
      </g>
     </g>
     <g id="line2d_44">
      <g>
       <use style="stroke:#000000;stroke-width:0.5;" x="141.9" xlink:href="#m28f9ba588a" y="99.614588"/>
      </g>
     </g>
    </g>
    <g id="ytick_6">
     <g id="line2d_45">
      <g>
       <use style="stroke:#000000;stroke-width:0.5;" x="30.3" xlink:href="#m22d867530d" y="72.650955"/>
      </g>
     </g>
     <g id="line2d_46">
      <g>
       <use style="stroke:#000000;stroke-width:0.5;" x="141.9" xlink:href="#m28f9ba588a" y="72.650955"/>
      </g>
     </g>
    </g>
    <g id="ytick_7">
     <g id="line2d_47">
      <g>
       <use style="stroke:#000000;stroke-width:0.5;" x="30.3" xlink:href="#m22d867530d" y="58.9594"/>
      </g>
     </g>
     <g id="line2d_48">
      <g>
       <use style="stroke:#000000;stroke-width:0.5;" x="141.9" xlink:href="#m28f9ba588a" y="58.9594"/>
      </g>
     </g>
    </g>
    <g id="ytick_8">
     <g id="line2d_49">
      <g>
       <use style="stroke:#000000;stroke-width:0.5;" x="30.3" xlink:href="#m22d867530d" y="49.245087"/>
      </g>
     </g>
     <g id="line2d_50">
      <g>
       <use style="stroke:#000000;stroke-width:0.5;" x="141.9" xlink:href="#m28f9ba588a" y="49.245087"/>
      </g>
     </g>
    </g>
    <g id="ytick_9">
     <g id="line2d_51">
      <g>
       <use style="stroke:#000000;stroke-width:0.5;" x="30.3" xlink:href="#m22d867530d" y="41.71008"/>
      </g>
     </g>
     <g id="line2d_52">
      <g>
       <use style="stroke:#000000;stroke-width:0.5;" x="141.9" xlink:href="#m28f9ba588a" y="41.71008"/>
      </g>
     </g>
    </g>
    <g id="ytick_10">
     <g id="line2d_53">
      <g>
       <use style="stroke:#000000;stroke-width:0.5;" x="30.3" xlink:href="#m22d867530d" y="35.553532"/>
      </g>
     </g>
     <g id="line2d_54">
      <g>
       <use style="stroke:#000000;stroke-width:0.5;" x="141.9" xlink:href="#m28f9ba588a" y="35.553532"/>
      </g>
     </g>
    </g>
    <g id="ytick_11">
     <g id="line2d_55">
      <g>
       <use style="stroke:#000000;stroke-width:0.5;" x="30.3" xlink:href="#m22d867530d" y="30.348244"/>
      </g>
     </g>
     <g id="line2d_56">
      <g>
       <use style="stroke:#000000;stroke-width:0.5;" x="141.9" xlink:href="#m28f9ba588a" y="30.348244"/>
      </g>
     </g>
    </g>
    <g id="ytick_12">
     <g id="line2d_57">
      <g>
       <use style="stroke:#000000;stroke-width:0.5;" x="30.3" xlink:href="#m22d867530d" y="25.839219"/>
      </g>
     </g>
     <g id="line2d_58">
      <g>
       <use style="stroke:#000000;stroke-width:0.5;" x="141.9" xlink:href="#m28f9ba588a" y="25.839219"/>
      </g>
     </g>
    </g>
    <g id="ytick_13">
     <g id="line2d_59">
      <g>
       <use style="stroke:#000000;stroke-width:0.5;" x="30.3" xlink:href="#m22d867530d" y="21.861976"/>
      </g>
     </g>
     <g id="line2d_60">
      <g>
       <use style="stroke:#000000;stroke-width:0.5;" x="141.9" xlink:href="#m28f9ba588a" y="21.861976"/>
      </g>
     </g>
    </g>
    <g id="text_9">
     <!-- $\it{I_{D}}$ (A) -->
     <g transform="translate(7.3 66.76)rotate(-90)scale(0.1 -0.1)">
      <defs>
       <path d="M 16.890625 72.90625 
L 26.8125 72.90625 
L 12.59375 0 
L 2.6875 0 
z
" id="DejaVuSans-Oblique-73"/>
       <path d="M 16.890625 72.90625 
L 38.09375 72.90625 
Q 54.984375 72.90625 63.59375 65.75 
Q 72.21875 58.59375 72.21875 44.484375 
Q 72.21875 35.15625 68.9375 26.53125 
Q 65.671875 17.921875 59.90625 12.015625 
Q 54.109375 5.953125 45.171875 2.96875 
Q 36.234375 0 24.03125 0 
L 2.6875 0 
z
M 25.203125 64.796875 
L 14.203125 8.109375 
L 27.09375 8.109375 
Q 43.65625 8.109375 52.734375 17.625 
Q 61.8125 27.15625 61.8125 44.484375 
Q 61.8125 54.984375 55.953125 59.890625 
Q 50.09375 64.796875 37.59375 64.796875 
z
" id="DejaVuSans-Oblique-68"/>
       <path d="M -0.140625 0 
L 27.34375 71.578125 
L 37.546875 71.578125 
L 66.84375 0 
L 56.0625 0 
L 47.703125 21.6875 
L 17.78125 21.6875 
L 9.90625 0 
z
M 20.515625 29.390625 
L 44.78125 29.390625 
L 37.3125 49.21875 
Q 33.890625 58.25 32.234375 64.0625 
Q 30.859375 57.171875 28.375 50.390625 
z
" id="ArialMT-65"/>
      </defs>
      <use transform="translate(0 0.09375)" xlink:href="#DejaVuSans-Oblique-73"/>
      <use transform="translate(29.492188 -16.3125)scale(0.7)" xlink:href="#DejaVuSans-Oblique-68"/>
      <use transform="translate(86.12793 0.09375)" xlink:href="#ArialMT-32"/>
      <use transform="translate(113.911133 0.09375)" xlink:href="#ArialMT-40"/>
      <use transform="translate(147.211914 0.09375)" xlink:href="#ArialMT-65"/>
      <use transform="translate(213.911133 0.09375)" xlink:href="#ArialMT-41"/>
     </g>
    </g>
   </g>
   <g id="line2d_61">
    <path clip-path="url(#pff098dce0e)" d="M 35.372727 96.354774 
L 38.754545 82.947316 
L 42.136364 77.664503 
L 45.518182 73.069619 
L 48.9 69.093009 
L 52.281818 65.659456 
L 55.663636 61.001213 
L 59.045455 56.455493 
L 62.427273 51.799199 
L 65.809091 47.31045 
L 69.190909 42.454709 
L 72.572727 38.603499 
L 75.954545 35.339819 
L 79.336364 32.164712 
L 82.718182 29.104331 
L 86.1 27.041563 
L 89.481818 25.27341 
L 92.863636 23.485452 
L 96.245455 22.052646 
L 99.627273 19.333853 
L 103.009091 16.473049 
L 106.390909 14.507386 
L 109.772727 13.008278 
L 113.154545 12.093907 
L 116.536364 10.521995 
L 119.918182 9.583612 
L 123.3 8.122023 
L 126.681818 7.258885 
L 130.063636 6.57278 
L 133.445455 5.784368 
L 136.827273 4.941818 
L 133.445455 36.692894 
L 130.063636 51.709397 
L 126.681818 62.057425 
L 123.3 69.433385 
L 119.918182 75.249965 
L 116.536364 81.50931 
L 113.154545 84.808997 
L 109.772727 87.786545 
L 106.390909 89.829173 
L 103.009091 92.553327 
L 99.627273 93.69338 
L 96.245455 95.365242 
L 92.863636 96.614376 
L 89.481818 99.325556 
L 86.1 99.768994 
L 82.718182 100.014004 
L 79.336364 99.65057 
L 75.954545 100.417965 
L 72.572727 100.197422 
L 69.190909 100.26804 
L 65.809091 99.594596 
L 62.427273 100.372055 
L 59.045455 100.939103 
L 55.663636 101.138261 
L 52.281818 99.594273 
L 48.9 102.183762 
L 45.518182 102.834998 
L 42.136364 100.599934 
L 38.754545 102.072408 
L 35.372727 103.778182 
" style="fill:none;stroke:#377eb8;stroke-linecap:square;stroke-width:1.5;"/>
    <defs>
     <path d="M 0 0.75 
C 0.198902 0.75 0.389685 0.670975 0.53033 0.53033 
C 0.670975 0.389685 0.75 0.198902 0.75 0 
C 0.75 -0.198902 0.670975 -0.389685 0.53033 -0.53033 
C 0.389685 -0.670975 0.198902 -0.75 0 -0.75 
C -0.198902 -0.75 -0.389685 -0.670975 -0.53033 -0.53033 
C -0.670975 -0.389685 -0.75 -0.198902 -0.75 0 
C -0.75 0.198902 -0.670975 0.389685 -0.53033 0.53033 
C -0.389685 0.670975 -0.198902 0.75 0 0.75 
z
" id="m912bb55ace" style="stroke:#377eb8;"/>
    </defs>
    <g clip-path="url(#pff098dce0e)">
     <use style="fill:#377eb8;stroke:#377eb8;" x="35.372727" xlink:href="#m912bb55ace" y="96.354774"/>
     <use style="fill:#377eb8;stroke:#377eb8;" x="38.754545" xlink:href="#m912bb55ace" y="82.947316"/>
     <use style="fill:#377eb8;stroke:#377eb8;" x="42.136364" xlink:href="#m912bb55ace" y="77.664503"/>
     <use style="fill:#377eb8;stroke:#377eb8;" x="45.518182" xlink:href="#m912bb55ace" y="73.069619"/>
     <use style="fill:#377eb8;stroke:#377eb8;" x="48.9" xlink:href="#m912bb55ace" y="69.093009"/>
     <use style="fill:#377eb8;stroke:#377eb8;" x="52.281818" xlink:href="#m912bb55ace" y="65.659456"/>
     <use style="fill:#377eb8;stroke:#377eb8;" x="55.663636" xlink:href="#m912bb55ace" y="61.001213"/>
     <use style="fill:#377eb8;stroke:#377eb8;" x="59.045455" xlink:href="#m912bb55ace" y="56.455493"/>
     <use style="fill:#377eb8;stroke:#377eb8;" x="62.427273" xlink:href="#m912bb55ace" y="51.799199"/>
     <use style="fill:#377eb8;stroke:#377eb8;" x="65.809091" xlink:href="#m912bb55ace" y="47.31045"/>
     <use style="fill:#377eb8;stroke:#377eb8;" x="69.190909" xlink:href="#m912bb55ace" y="42.454709"/>
     <use style="fill:#377eb8;stroke:#377eb8;" x="72.572727" xlink:href="#m912bb55ace" y="38.603499"/>
     <use style="fill:#377eb8;stroke:#377eb8;" x="75.954545" xlink:href="#m912bb55ace" y="35.339819"/>
     <use style="fill:#377eb8;stroke:#377eb8;" x="79.336364" xlink:href="#m912bb55ace" y="32.164712"/>
     <use style="fill:#377eb8;stroke:#377eb8;" x="82.718182" xlink:href="#m912bb55ace" y="29.104331"/>
     <use style="fill:#377eb8;stroke:#377eb8;" x="86.1" xlink:href="#m912bb55ace" y="27.041563"/>
     <use style="fill:#377eb8;stroke:#377eb8;" x="89.481818" xlink:href="#m912bb55ace" y="25.27341"/>
     <use style="fill:#377eb8;stroke:#377eb8;" x="92.863636" xlink:href="#m912bb55ace" y="23.485452"/>
     <use style="fill:#377eb8;stroke:#377eb8;" x="96.245455" xlink:href="#m912bb55ace" y="22.052646"/>
     <use style="fill:#377eb8;stroke:#377eb8;" x="99.627273" xlink:href="#m912bb55ace" y="19.333853"/>
     <use style="fill:#377eb8;stroke:#377eb8;" x="103.009091" xlink:href="#m912bb55ace" y="16.473049"/>
     <use style="fill:#377eb8;stroke:#377eb8;" x="106.390909" xlink:href="#m912bb55ace" y="14.507386"/>
     <use style="fill:#377eb8;stroke:#377eb8;" x="109.772727" xlink:href="#m912bb55ace" y="13.008278"/>
     <use style="fill:#377eb8;stroke:#377eb8;" x="113.154545" xlink:href="#m912bb55ace" y="12.093907"/>
     <use style="fill:#377eb8;stroke:#377eb8;" x="116.536364" xlink:href="#m912bb55ace" y="10.521995"/>
     <use style="fill:#377eb8;stroke:#377eb8;" x="119.918182" xlink:href="#m912bb55ace" y="9.583612"/>
     <use style="fill:#377eb8;stroke:#377eb8;" x="123.3" xlink:href="#m912bb55ace" y="8.122023"/>
     <use style="fill:#377eb8;stroke:#377eb8;" x="126.681818" xlink:href="#m912bb55ace" y="7.258885"/>
     <use style="fill:#377eb8;stroke:#377eb8;" x="130.063636" xlink:href="#m912bb55ace" y="6.57278"/>
     <use style="fill:#377eb8;stroke:#377eb8;" x="133.445455" xlink:href="#m912bb55ace" y="5.784368"/>
     <use style="fill:#377eb8;stroke:#377eb8;" x="136.827273" xlink:href="#m912bb55ace" y="4.941818"/>
     <use style="fill:#377eb8;stroke:#377eb8;" x="133.445455" xlink:href="#m912bb55ace" y="36.692894"/>
     <use style="fill:#377eb8;stroke:#377eb8;" x="130.063636" xlink:href="#m912bb55ace" y="51.709397"/>
     <use style="fill:#377eb8;stroke:#377eb8;" x="126.681818" xlink:href="#m912bb55ace" y="62.057425"/>
     <use style="fill:#377eb8;stroke:#377eb8;" x="123.3" xlink:href="#m912bb55ace" y="69.433385"/>
     <use style="fill:#377eb8;stroke:#377eb8;" x="119.918182" xlink:href="#m912bb55ace" y="75.249965"/>
     <use style="fill:#377eb8;stroke:#377eb8;" x="116.536364" xlink:href="#m912bb55ace" y="81.50931"/>
     <use style="fill:#377eb8;stroke:#377eb8;" x="113.154545" xlink:href="#m912bb55ace" y="84.808997"/>
     <use style="fill:#377eb8;stroke:#377eb8;" x="109.772727" xlink:href="#m912bb55ace" y="87.786545"/>
     <use style="fill:#377eb8;stroke:#377eb8;" x="106.390909" xlink:href="#m912bb55ace" y="89.829173"/>
     <use style="fill:#377eb8;stroke:#377eb8;" x="103.009091" xlink:href="#m912bb55ace" y="92.553327"/>
     <use style="fill:#377eb8;stroke:#377eb8;" x="99.627273" xlink:href="#m912bb55ace" y="93.69338"/>
     <use style="fill:#377eb8;stroke:#377eb8;" x="96.245455" xlink:href="#m912bb55ace" y="95.365242"/>
     <use style="fill:#377eb8;stroke:#377eb8;" x="92.863636" xlink:href="#m912bb55ace" y="96.614376"/>
     <use style="fill:#377eb8;stroke:#377eb8;" x="89.481818" xlink:href="#m912bb55ace" y="99.325556"/>
     <use style="fill:#377eb8;stroke:#377eb8;" x="86.1" xlink:href="#m912bb55ace" y="99.768994"/>
     <use style="fill:#377eb8;stroke:#377eb8;" x="82.718182" xlink:href="#m912bb55ace" y="100.014004"/>
     <use style="fill:#377eb8;stroke:#377eb8;" x="79.336364" xlink:href="#m912bb55ace" y="99.65057"/>
     <use style="fill:#377eb8;stroke:#377eb8;" x="75.954545" xlink:href="#m912bb55ace" y="100.417965"/>
     <use style="fill:#377eb8;stroke:#377eb8;" x="72.572727" xlink:href="#m912bb55ace" y="100.197422"/>
     <use style="fill:#377eb8;stroke:#377eb8;" x="69.190909" xlink:href="#m912bb55ace" y="100.26804"/>
     <use style="fill:#377eb8;stroke:#377eb8;" x="65.809091" xlink:href="#m912bb55ace" y="99.594596"/>
     <use style="fill:#377eb8;stroke:#377eb8;" x="62.427273" xlink:href="#m912bb55ace" y="100.372055"/>
     <use style="fill:#377eb8;stroke:#377eb8;" x="59.045455" xlink:href="#m912bb55ace" y="100.939103"/>
     <use style="fill:#377eb8;stroke:#377eb8;" x="55.663636" xlink:href="#m912bb55ace" y="101.138261"/>
     <use style="fill:#377eb8;stroke:#377eb8;" x="52.281818" xlink:href="#m912bb55ace" y="99.594273"/>
     <use style="fill:#377eb8;stroke:#377eb8;" x="48.9" xlink:href="#m912bb55ace" y="102.183762"/>
     <use style="fill:#377eb8;stroke:#377eb8;" x="45.518182" xlink:href="#m912bb55ace" y="102.834998"/>
     <use style="fill:#377eb8;stroke:#377eb8;" x="42.136364" xlink:href="#m912bb55ace" y="100.599934"/>
     <use style="fill:#377eb8;stroke:#377eb8;" x="38.754545" xlink:href="#m912bb55ace" y="102.072408"/>
     <use style="fill:#377eb8;stroke:#377eb8;" x="35.372727" xlink:href="#m912bb55ace" y="103.778182"/>
    </g>
   </g>
   <g id="patch_3">
    <path d="M 30.3 108.72 
L 30.3 0 
" style="fill:none;stroke:#000000;stroke-linecap:square;stroke-linejoin:miter;stroke-width:0.5;"/>
   </g>
   <g id="patch_4">
    <path d="M 141.9 108.72 
L 141.9 0 
" style="fill:none;stroke:#000000;stroke-linecap:square;stroke-linejoin:miter;stroke-width:0.5;"/>
   </g>
   <g id="patch_5">
    <path d="M 30.3 108.72 
L 141.9 108.72 
" style="fill:none;stroke:#000000;stroke-linecap:square;stroke-linejoin:miter;stroke-width:0.5;"/>
   </g>
   <g id="patch_6">
    <path d="M 30.3 0 
L 141.9 0 
" style="fill:none;stroke:#000000;stroke-linecap:square;stroke-linejoin:miter;stroke-width:0.5;"/>
   </g>
  </g>
 </g>
 <defs>
  <clipPath id="pff098dce0e">
   <rect height="108.72" width="111.6" x="30.3" y="0"/>
  </clipPath>
 </defs>
</svg>
