<?xml version="1.0" encoding="utf-8" standalone="no"?>
<!DOCTYPE svg PUBLIC "-//W3C//DTD SVG 1.1//EN"
  "http://www.w3.org/Graphics/SVG/1.1/DTD/svg11.dtd">
<!-- Created with matplotlib (https://matplotlib.org/) -->
<svg height="99.35625pt" version="1.1" viewBox="0 0 112.949318 99.35625" width="112.949318pt" xmlns="http://www.w3.org/2000/svg" xmlns:xlink="http://www.w3.org/1999/xlink">
 <defs>
  <style type="text/css">
*{stroke-linecap:butt;stroke-linejoin:round;white-space:pre;}
  </style>
 </defs>
 <g id="figure_1">
  <g id="patch_1">
   <path d="M 0 99.35625 
L 112.949318 99.35625 
L 112.949318 0 
L 0 0 
z
" style="fill:none;"/>
  </g>
  <g id="axes_1">
   <g id="patch_2">
    <path d="M 26.06875 81.54 
L 109.76875 81.54 
L 109.76875 0 
L 26.06875 0 
z
" style="fill:none;"/>
   </g>
   <g id="matplotlib.axis_1">
    <g id="xtick_1">
     <g id="line2d_1">
      <defs>
       <path d="M 0 0 
L 0 -3.5 
" id="mb9d5323585" style="stroke:#000000;stroke-width:0.8;"/>
      </defs>
      <g>
       <use style="stroke:#000000;stroke-width:0.8;" x="27.336932" xlink:href="#mb9d5323585" y="81.54"/>
      </g>
     </g>
     <g id="line2d_2">
      <defs>
       <path d="M 0 0 
L 0 3.5 
" id="md7cffd0b15" style="stroke:#000000;stroke-width:0.8;"/>
      </defs>
      <g>
       <use style="stroke:#000000;stroke-width:0.8;" x="27.336932" xlink:href="#md7cffd0b15" y="0"/>
      </g>
     </g>
     <g id="text_1">
      <!-- −80 -->
      <defs>
       <path d="M 52.828125 31.203125 
L 5.5625 31.203125 
L 5.5625 39.40625 
L 52.828125 39.40625 
z
" id="ArialMT-8722"/>
       <path d="M 17.671875 38.8125 
Q 12.203125 40.828125 9.5625 44.53125 
Q 6.9375 48.25 6.9375 53.421875 
Q 6.9375 61.234375 12.546875 66.546875 
Q 18.171875 71.875 27.484375 71.875 
Q 36.859375 71.875 42.578125 66.421875 
Q 48.296875 60.984375 48.296875 53.171875 
Q 48.296875 48.1875 45.671875 44.5 
Q 43.0625 40.828125 37.75 38.8125 
Q 44.34375 36.671875 47.78125 31.875 
Q 51.21875 27.09375 51.21875 20.453125 
Q 51.21875 11.28125 44.71875 5.03125 
Q 38.234375 -1.21875 27.640625 -1.21875 
Q 17.046875 -1.21875 10.546875 5.046875 
Q 4.046875 11.328125 4.046875 20.703125 
Q 4.046875 27.6875 7.59375 32.390625 
Q 11.140625 37.109375 17.671875 38.8125 
z
M 15.921875 53.71875 
Q 15.921875 48.640625 19.1875 45.40625 
Q 22.46875 42.1875 27.6875 42.1875 
Q 32.765625 42.1875 36.015625 45.375 
Q 39.265625 48.578125 39.265625 53.21875 
Q 39.265625 58.0625 35.90625 61.359375 
Q 32.5625 64.65625 27.59375 64.65625 
Q 22.5625 64.65625 19.234375 61.421875 
Q 15.921875 58.203125 15.921875 53.71875 
z
M 13.09375 20.65625 
Q 13.09375 16.890625 14.875 13.375 
Q 16.65625 9.859375 20.171875 7.921875 
Q 23.6875 6 27.734375 6 
Q 34.03125 6 38.125 10.046875 
Q 42.234375 14.109375 42.234375 20.359375 
Q 42.234375 26.703125 38.015625 30.859375 
Q 33.796875 35.015625 27.4375 35.015625 
Q 21.234375 35.015625 17.15625 30.90625 
Q 13.09375 26.8125 13.09375 20.65625 
z
" id="ArialMT-56"/>
       <path d="M 4.15625 35.296875 
Q 4.15625 48 6.765625 55.734375 
Q 9.375 63.484375 14.515625 67.671875 
Q 19.671875 71.875 27.484375 71.875 
Q 33.25 71.875 37.59375 69.546875 
Q 41.9375 67.234375 44.765625 62.859375 
Q 47.609375 58.5 49.21875 52.21875 
Q 50.828125 45.953125 50.828125 35.296875 
Q 50.828125 22.703125 48.234375 14.96875 
Q 45.65625 7.234375 40.5 3 
Q 35.359375 -1.21875 27.484375 -1.21875 
Q 17.140625 -1.21875 11.234375 6.203125 
Q 4.15625 15.140625 4.15625 35.296875 
z
M 13.1875 35.296875 
Q 13.1875 17.671875 17.3125 11.828125 
Q 21.4375 6 27.484375 6 
Q 33.546875 6 37.671875 11.859375 
Q 41.796875 17.71875 41.796875 35.296875 
Q 41.796875 52.984375 37.671875 58.78125 
Q 33.546875 64.59375 27.390625 64.59375 
Q 21.34375 64.59375 17.71875 59.46875 
Q 13.1875 52.9375 13.1875 35.296875 
z
" id="ArialMT-48"/>
      </defs>
      <g transform="translate(20.551932 88.26625)scale(0.08 -0.08)">
       <use xlink:href="#ArialMT-8722"/>
       <use x="58.398438" xlink:href="#ArialMT-56"/>
       <use x="114.013672" xlink:href="#ArialMT-48"/>
      </g>
     </g>
    </g>
    <g id="xtick_2">
     <g id="line2d_3">
      <g>
       <use style="stroke:#000000;stroke-width:0.8;" x="47.627841" xlink:href="#mb9d5323585" y="81.54"/>
      </g>
     </g>
     <g id="line2d_4">
      <g>
       <use style="stroke:#000000;stroke-width:0.8;" x="47.627841" xlink:href="#md7cffd0b15" y="0"/>
      </g>
     </g>
     <g id="text_2">
      <!-- −40 -->
      <defs>
       <path d="M 32.328125 0 
L 32.328125 17.140625 
L 1.265625 17.140625 
L 1.265625 25.203125 
L 33.9375 71.578125 
L 41.109375 71.578125 
L 41.109375 25.203125 
L 50.78125 25.203125 
L 50.78125 17.140625 
L 41.109375 17.140625 
L 41.109375 0 
z
M 32.328125 25.203125 
L 32.328125 57.46875 
L 9.90625 25.203125 
z
" id="ArialMT-52"/>
      </defs>
      <g transform="translate(40.842841 88.26625)scale(0.08 -0.08)">
       <use xlink:href="#ArialMT-8722"/>
       <use x="58.398438" xlink:href="#ArialMT-52"/>
       <use x="114.013672" xlink:href="#ArialMT-48"/>
      </g>
     </g>
    </g>
    <g id="xtick_3">
     <g id="line2d_5">
      <g>
       <use style="stroke:#000000;stroke-width:0.8;" x="67.91875" xlink:href="#mb9d5323585" y="81.54"/>
      </g>
     </g>
     <g id="line2d_6">
      <g>
       <use style="stroke:#000000;stroke-width:0.8;" x="67.91875" xlink:href="#md7cffd0b15" y="0"/>
      </g>
     </g>
     <g id="text_3">
      <!-- 0 -->
      <g transform="translate(65.694375 88.26625)scale(0.08 -0.08)">
       <use xlink:href="#ArialMT-48"/>
      </g>
     </g>
    </g>
    <g id="xtick_4">
     <g id="line2d_7">
      <g>
       <use style="stroke:#000000;stroke-width:0.8;" x="88.209659" xlink:href="#mb9d5323585" y="81.54"/>
      </g>
     </g>
     <g id="line2d_8">
      <g>
       <use style="stroke:#000000;stroke-width:0.8;" x="88.209659" xlink:href="#md7cffd0b15" y="0"/>
      </g>
     </g>
     <g id="text_4">
      <!-- 40 -->
      <g transform="translate(83.760909 88.26625)scale(0.08 -0.08)">
       <use xlink:href="#ArialMT-52"/>
       <use x="55.615234" xlink:href="#ArialMT-48"/>
      </g>
     </g>
    </g>
    <g id="xtick_5">
     <g id="line2d_9">
      <g>
       <use style="stroke:#000000;stroke-width:0.8;" x="108.500568" xlink:href="#mb9d5323585" y="81.54"/>
      </g>
     </g>
     <g id="line2d_10">
      <g>
       <use style="stroke:#000000;stroke-width:0.8;" x="108.500568" xlink:href="#md7cffd0b15" y="0"/>
      </g>
     </g>
     <g id="text_5">
      <!-- 80 -->
      <g transform="translate(104.051818 88.26625)scale(0.08 -0.08)">
       <use xlink:href="#ArialMT-56"/>
       <use x="55.615234" xlink:href="#ArialMT-48"/>
      </g>
     </g>
    </g>
    <g id="xtick_6">
     <g id="line2d_11">
      <defs>
       <path d="M 0 0 
L 0 -2 
" id="m96f34ea6be" style="stroke:#000000;stroke-width:0.6;"/>
      </defs>
      <g>
       <use style="stroke:#000000;stroke-width:0.6;" x="32.409659" xlink:href="#m96f34ea6be" y="81.54"/>
      </g>
     </g>
     <g id="line2d_12">
      <defs>
       <path d="M 0 0 
L 0 2 
" id="m46b1290b2f" style="stroke:#000000;stroke-width:0.6;"/>
      </defs>
      <g>
       <use style="stroke:#000000;stroke-width:0.6;" x="32.409659" xlink:href="#m46b1290b2f" y="0"/>
      </g>
     </g>
    </g>
    <g id="xtick_7">
     <g id="line2d_13">
      <g>
       <use style="stroke:#000000;stroke-width:0.6;" x="37.482386" xlink:href="#m96f34ea6be" y="81.54"/>
      </g>
     </g>
     <g id="line2d_14">
      <g>
       <use style="stroke:#000000;stroke-width:0.6;" x="37.482386" xlink:href="#m46b1290b2f" y="0"/>
      </g>
     </g>
    </g>
    <g id="xtick_8">
     <g id="line2d_15">
      <g>
       <use style="stroke:#000000;stroke-width:0.6;" x="42.555114" xlink:href="#m96f34ea6be" y="81.54"/>
      </g>
     </g>
     <g id="line2d_16">
      <g>
       <use style="stroke:#000000;stroke-width:0.6;" x="42.555114" xlink:href="#m46b1290b2f" y="0"/>
      </g>
     </g>
    </g>
    <g id="xtick_9">
     <g id="line2d_17">
      <g>
       <use style="stroke:#000000;stroke-width:0.6;" x="52.700568" xlink:href="#m96f34ea6be" y="81.54"/>
      </g>
     </g>
     <g id="line2d_18">
      <g>
       <use style="stroke:#000000;stroke-width:0.6;" x="52.700568" xlink:href="#m46b1290b2f" y="0"/>
      </g>
     </g>
    </g>
    <g id="xtick_10">
     <g id="line2d_19">
      <g>
       <use style="stroke:#000000;stroke-width:0.6;" x="57.773295" xlink:href="#m96f34ea6be" y="81.54"/>
      </g>
     </g>
     <g id="line2d_20">
      <g>
       <use style="stroke:#000000;stroke-width:0.6;" x="57.773295" xlink:href="#m46b1290b2f" y="0"/>
      </g>
     </g>
    </g>
    <g id="xtick_11">
     <g id="line2d_21">
      <g>
       <use style="stroke:#000000;stroke-width:0.6;" x="62.846023" xlink:href="#m96f34ea6be" y="81.54"/>
      </g>
     </g>
     <g id="line2d_22">
      <g>
       <use style="stroke:#000000;stroke-width:0.6;" x="62.846023" xlink:href="#m46b1290b2f" y="0"/>
      </g>
     </g>
    </g>
    <g id="xtick_12">
     <g id="line2d_23">
      <g>
       <use style="stroke:#000000;stroke-width:0.6;" x="72.991477" xlink:href="#m96f34ea6be" y="81.54"/>
      </g>
     </g>
     <g id="line2d_24">
      <g>
       <use style="stroke:#000000;stroke-width:0.6;" x="72.991477" xlink:href="#m46b1290b2f" y="0"/>
      </g>
     </g>
    </g>
    <g id="xtick_13">
     <g id="line2d_25">
      <g>
       <use style="stroke:#000000;stroke-width:0.6;" x="78.064205" xlink:href="#m96f34ea6be" y="81.54"/>
      </g>
     </g>
     <g id="line2d_26">
      <g>
       <use style="stroke:#000000;stroke-width:0.6;" x="78.064205" xlink:href="#m46b1290b2f" y="0"/>
      </g>
     </g>
    </g>
    <g id="xtick_14">
     <g id="line2d_27">
      <g>
       <use style="stroke:#000000;stroke-width:0.6;" x="83.136932" xlink:href="#m96f34ea6be" y="81.54"/>
      </g>
     </g>
     <g id="line2d_28">
      <g>
       <use style="stroke:#000000;stroke-width:0.6;" x="83.136932" xlink:href="#m46b1290b2f" y="0"/>
      </g>
     </g>
    </g>
    <g id="xtick_15">
     <g id="line2d_29">
      <g>
       <use style="stroke:#000000;stroke-width:0.6;" x="93.282386" xlink:href="#m96f34ea6be" y="81.54"/>
      </g>
     </g>
     <g id="line2d_30">
      <g>
       <use style="stroke:#000000;stroke-width:0.6;" x="93.282386" xlink:href="#m46b1290b2f" y="0"/>
      </g>
     </g>
    </g>
    <g id="xtick_16">
     <g id="line2d_31">
      <g>
       <use style="stroke:#000000;stroke-width:0.6;" x="98.355114" xlink:href="#m96f34ea6be" y="81.54"/>
      </g>
     </g>
     <g id="line2d_32">
      <g>
       <use style="stroke:#000000;stroke-width:0.6;" x="98.355114" xlink:href="#m46b1290b2f" y="0"/>
      </g>
     </g>
    </g>
    <g id="xtick_17">
     <g id="line2d_33">
      <g>
       <use style="stroke:#000000;stroke-width:0.6;" x="103.427841" xlink:href="#m96f34ea6be" y="81.54"/>
      </g>
     </g>
     <g id="line2d_34">
      <g>
       <use style="stroke:#000000;stroke-width:0.6;" x="103.427841" xlink:href="#m46b1290b2f" y="0"/>
      </g>
     </g>
    </g>
    <g id="text_6">
     <!-- $\it{V_{G}}$ (V) -->
     <defs>
      <path d="M 20.609375 0 
L 7.8125 72.90625 
L 17.484375 72.90625 
L 28.078125 10.203125 
L 63.484375 72.90625 
L 74.21875 72.90625 
L 32.078125 0 
z
" id="DejaVuSans-Oblique-86"/>
      <path d="M 54.59375 10.890625 
L 58.40625 29.984375 
L 42.1875 29.984375 
L 43.703125 38.09375 
L 69.578125 38.09375 
L 63.28125 6 
Q 56.78125 2.4375 49.109375 0.5 
Q 41.453125 -1.421875 33.6875 -1.421875 
Q 19.96875 -1.421875 12.234375 6.1875 
Q 4.5 13.8125 4.5 27.390625 
Q 4.5 38.671875 9.203125 48.84375 
Q 13.921875 59.03125 22.21875 65.828125 
Q 27.4375 70.0625 33.640625 72.140625 
Q 39.84375 74.21875 47.40625 74.21875 
Q 54.25 74.21875 60.515625 72.484375 
Q 66.796875 70.75 72.515625 67.28125 
L 70.515625 56.78125 
Q 66.109375 61.375 60.203125 63.796875 
Q 54.296875 66.21875 47.609375 66.21875 
Q 39.84375 66.21875 33.9375 63.25 
Q 28.03125 60.296875 23.390625 54.109375 
Q 19.4375 48.828125 17.15625 41.671875 
Q 14.890625 34.515625 14.890625 27.09375 
Q 14.890625 16.890625 20.109375 11.734375 
Q 25.34375 6.59375 35.6875 6.59375 
Q 40.875 6.59375 45.703125 7.6875 
Q 50.53125 8.796875 54.59375 10.890625 
z
" id="DejaVuSans-Oblique-71"/>
      <path id="ArialMT-32"/>
      <path d="M 23.390625 -21.046875 
Q 16.109375 -11.859375 11.078125 0.4375 
Q 6.0625 12.75 6.0625 25.921875 
Q 6.0625 37.546875 9.8125 48.1875 
Q 14.203125 60.546875 23.390625 72.796875 
L 29.6875 72.796875 
Q 23.78125 62.640625 21.875 58.296875 
Q 18.890625 51.5625 17.1875 44.234375 
Q 15.09375 35.109375 15.09375 25.875 
Q 15.09375 2.390625 29.6875 -21.046875 
z
" id="ArialMT-40"/>
      <path d="M 28.171875 0 
L 0.4375 71.578125 
L 10.6875 71.578125 
L 29.296875 19.578125 
Q 31.546875 13.328125 33.0625 7.859375 
Q 34.71875 13.71875 36.921875 19.578125 
L 56.25 71.578125 
L 65.921875 71.578125 
L 37.890625 0 
z
" id="ArialMT-86"/>
      <path d="M 12.359375 -21.046875 
L 6.0625 -21.046875 
Q 20.65625 2.390625 20.65625 25.875 
Q 20.65625 35.0625 18.5625 44.09375 
Q 16.890625 51.421875 13.921875 58.15625 
Q 12.015625 62.546875 6.0625 72.796875 
L 12.359375 72.796875 
Q 21.53125 60.546875 25.921875 48.1875 
Q 29.6875 37.546875 29.6875 25.921875 
Q 29.6875 12.75 24.625 0.4375 
Q 19.578125 -11.859375 12.359375 -21.046875 
z
" id="ArialMT-41"/>
     </defs>
     <g transform="translate(53.56875 97.15625)scale(0.1 -0.1)">
      <use transform="translate(0 0.09375)" xlink:href="#DejaVuSans-Oblique-86"/>
      <use transform="translate(68.408203 -16.3125)scale(0.7)" xlink:href="#DejaVuSans-Oblique-71"/>
      <use transform="translate(125.385742 0.09375)" xlink:href="#ArialMT-32"/>
      <use transform="translate(153.168945 0.09375)" xlink:href="#ArialMT-40"/>
      <use transform="translate(186.469727 0.09375)" xlink:href="#ArialMT-86"/>
      <use transform="translate(253.168945 0.09375)" xlink:href="#ArialMT-41"/>
     </g>
    </g>
   </g>
   <g id="matplotlib.axis_2">
    <g id="ytick_1">
     <g id="line2d_35">
      <defs>
       <path d="M 0 0 
L 3.5 0 
" id="m0595fdfaab" style="stroke:#000000;stroke-width:0.8;"/>
      </defs>
      <g>
       <use style="stroke:#000000;stroke-width:0.8;" x="26.06875" xlink:href="#m0595fdfaab" y="77.784698"/>
      </g>
     </g>
     <g id="line2d_36">
      <defs>
       <path d="M 0 0 
L -3.5 0 
" id="m0e5dec4cea" style="stroke:#000000;stroke-width:0.8;"/>
      </defs>
      <g>
       <use style="stroke:#000000;stroke-width:0.8;" x="109.76875" xlink:href="#m0e5dec4cea" y="77.784698"/>
      </g>
     </g>
     <g id="text_7">
      <!-- 0.00 -->
      <defs>
       <path d="M 9.078125 0 
L 9.078125 10.015625 
L 19.09375 10.015625 
L 19.09375 0 
z
" id="ArialMT-46"/>
      </defs>
      <g transform="translate(9.5 80.647823)scale(0.08 -0.08)">
       <use xlink:href="#ArialMT-48"/>
       <use x="55.615234" xlink:href="#ArialMT-46"/>
       <use x="83.398438" xlink:href="#ArialMT-48"/>
       <use x="139.013672" xlink:href="#ArialMT-48"/>
      </g>
     </g>
    </g>
    <g id="ytick_2">
     <g id="line2d_37">
      <g>
       <use style="stroke:#000000;stroke-width:0.8;" x="26.06875" xlink:href="#m0595fdfaab" y="61.309941"/>
      </g>
     </g>
     <g id="line2d_38">
      <g>
       <use style="stroke:#000000;stroke-width:0.8;" x="109.76875" xlink:href="#m0e5dec4cea" y="61.309941"/>
      </g>
     </g>
     <g id="text_8">
      <!-- 0.25 -->
      <defs>
       <path d="M 50.34375 8.453125 
L 50.34375 0 
L 3.03125 0 
Q 2.9375 3.171875 4.046875 6.109375 
Q 5.859375 10.9375 9.828125 15.625 
Q 13.8125 20.3125 21.34375 26.46875 
Q 33.015625 36.03125 37.109375 41.625 
Q 41.21875 47.21875 41.21875 52.203125 
Q 41.21875 57.421875 37.46875 61 
Q 33.734375 64.59375 27.734375 64.59375 
Q 21.390625 64.59375 17.578125 60.78125 
Q 13.765625 56.984375 13.71875 50.25 
L 4.6875 51.171875 
Q 5.609375 61.28125 11.65625 66.578125 
Q 17.71875 71.875 27.9375 71.875 
Q 38.234375 71.875 44.234375 66.15625 
Q 50.25 60.453125 50.25 52 
Q 50.25 47.703125 48.484375 43.546875 
Q 46.734375 39.40625 42.65625 34.8125 
Q 38.578125 30.21875 29.109375 22.21875 
Q 21.1875 15.578125 18.9375 13.203125 
Q 16.703125 10.84375 15.234375 8.453125 
z
" id="ArialMT-50"/>
       <path d="M 4.15625 18.75 
L 13.375 19.53125 
Q 14.40625 12.796875 18.140625 9.390625 
Q 21.875 6 27.15625 6 
Q 33.5 6 37.890625 10.78125 
Q 42.28125 15.578125 42.28125 23.484375 
Q 42.28125 31 38.0625 35.34375 
Q 33.84375 39.703125 27 39.703125 
Q 22.75 39.703125 19.328125 37.765625 
Q 15.921875 35.84375 13.96875 32.765625 
L 5.71875 33.84375 
L 12.640625 70.609375 
L 48.25 70.609375 
L 48.25 62.203125 
L 19.671875 62.203125 
L 15.828125 42.96875 
Q 22.265625 47.46875 29.34375 47.46875 
Q 38.71875 47.46875 45.15625 40.96875 
Q 51.609375 34.46875 51.609375 24.265625 
Q 51.609375 14.546875 45.953125 7.46875 
Q 39.0625 -1.21875 27.15625 -1.21875 
Q 17.390625 -1.21875 11.203125 4.25 
Q 5.03125 9.71875 4.15625 18.75 
z
" id="ArialMT-53"/>
      </defs>
      <g transform="translate(9.5 64.173066)scale(0.08 -0.08)">
       <use xlink:href="#ArialMT-48"/>
       <use x="55.615234" xlink:href="#ArialMT-46"/>
       <use x="83.398438" xlink:href="#ArialMT-50"/>
       <use x="139.013672" xlink:href="#ArialMT-53"/>
      </g>
     </g>
    </g>
    <g id="ytick_3">
     <g id="line2d_39">
      <g>
       <use style="stroke:#000000;stroke-width:0.8;" x="26.06875" xlink:href="#m0595fdfaab" y="44.835185"/>
      </g>
     </g>
     <g id="line2d_40">
      <g>
       <use style="stroke:#000000;stroke-width:0.8;" x="109.76875" xlink:href="#m0e5dec4cea" y="44.835185"/>
      </g>
     </g>
     <g id="text_9">
      <!-- 0.50 -->
      <g transform="translate(9.5 47.69831)scale(0.08 -0.08)">
       <use xlink:href="#ArialMT-48"/>
       <use x="55.615234" xlink:href="#ArialMT-46"/>
       <use x="83.398438" xlink:href="#ArialMT-53"/>
       <use x="139.013672" xlink:href="#ArialMT-48"/>
      </g>
     </g>
    </g>
    <g id="ytick_4">
     <g id="line2d_41">
      <g>
       <use style="stroke:#000000;stroke-width:0.8;" x="26.06875" xlink:href="#m0595fdfaab" y="28.360429"/>
      </g>
     </g>
     <g id="line2d_42">
      <g>
       <use style="stroke:#000000;stroke-width:0.8;" x="109.76875" xlink:href="#m0e5dec4cea" y="28.360429"/>
      </g>
     </g>
     <g id="text_10">
      <!-- 0.75 -->
      <defs>
       <path d="M 4.734375 62.203125 
L 4.734375 70.65625 
L 51.078125 70.65625 
L 51.078125 63.8125 
Q 44.234375 56.546875 37.515625 44.484375 
Q 30.8125 32.421875 27.15625 19.671875 
Q 24.515625 10.6875 23.78125 0 
L 14.75 0 
Q 14.890625 8.453125 18.0625 20.40625 
Q 21.234375 32.375 27.171875 43.484375 
Q 33.109375 54.59375 39.796875 62.203125 
z
" id="ArialMT-55"/>
      </defs>
      <g transform="translate(9.5 31.223554)scale(0.08 -0.08)">
       <use xlink:href="#ArialMT-48"/>
       <use x="55.615234" xlink:href="#ArialMT-46"/>
       <use x="83.398438" xlink:href="#ArialMT-55"/>
       <use x="139.013672" xlink:href="#ArialMT-53"/>
      </g>
     </g>
    </g>
    <g id="ytick_5">
     <g id="line2d_43">
      <g>
       <use style="stroke:#000000;stroke-width:0.8;" x="26.06875" xlink:href="#m0595fdfaab" y="11.885673"/>
      </g>
     </g>
     <g id="line2d_44">
      <g>
       <use style="stroke:#000000;stroke-width:0.8;" x="109.76875" xlink:href="#m0e5dec4cea" y="11.885673"/>
      </g>
     </g>
     <g id="text_11">
      <!-- 1.00 -->
      <defs>
       <path d="M 37.25 0 
L 28.46875 0 
L 28.46875 56 
Q 25.296875 52.984375 20.140625 49.953125 
Q 14.984375 46.921875 10.890625 45.40625 
L 10.890625 53.90625 
Q 18.265625 57.375 23.78125 62.296875 
Q 29.296875 67.234375 31.59375 71.875 
L 37.25 71.875 
z
" id="ArialMT-49"/>
      </defs>
      <g transform="translate(9.5 14.748798)scale(0.08 -0.08)">
       <use xlink:href="#ArialMT-49"/>
       <use x="55.615234" xlink:href="#ArialMT-46"/>
       <use x="83.398438" xlink:href="#ArialMT-48"/>
       <use x="139.013672" xlink:href="#ArialMT-48"/>
      </g>
     </g>
    </g>
    <g id="ytick_6">
     <g id="line2d_45">
      <defs>
       <path d="M 0 0 
L 2 0 
" id="mc38399b187" style="stroke:#000000;stroke-width:0.6;"/>
      </defs>
      <g>
       <use style="stroke:#000000;stroke-width:0.6;" x="26.06875" xlink:href="#mc38399b187" y="81.079649"/>
      </g>
     </g>
     <g id="line2d_46">
      <defs>
       <path d="M 0 0 
L -2 0 
" id="m5293fd93c1" style="stroke:#000000;stroke-width:0.6;"/>
      </defs>
      <g>
       <use style="stroke:#000000;stroke-width:0.6;" x="109.76875" xlink:href="#m5293fd93c1" y="81.079649"/>
      </g>
     </g>
    </g>
    <g id="ytick_7">
     <g id="line2d_47">
      <g>
       <use style="stroke:#000000;stroke-width:0.6;" x="26.06875" xlink:href="#mc38399b187" y="74.489746"/>
      </g>
     </g>
     <g id="line2d_48">
      <g>
       <use style="stroke:#000000;stroke-width:0.6;" x="109.76875" xlink:href="#m5293fd93c1" y="74.489746"/>
      </g>
     </g>
    </g>
    <g id="ytick_8">
     <g id="line2d_49">
      <g>
       <use style="stroke:#000000;stroke-width:0.6;" x="26.06875" xlink:href="#mc38399b187" y="71.194795"/>
      </g>
     </g>
     <g id="line2d_50">
      <g>
       <use style="stroke:#000000;stroke-width:0.6;" x="109.76875" xlink:href="#m5293fd93c1" y="71.194795"/>
      </g>
     </g>
    </g>
    <g id="ytick_9">
     <g id="line2d_51">
      <g>
       <use style="stroke:#000000;stroke-width:0.6;" x="26.06875" xlink:href="#mc38399b187" y="67.899844"/>
      </g>
     </g>
     <g id="line2d_52">
      <g>
       <use style="stroke:#000000;stroke-width:0.6;" x="109.76875" xlink:href="#m5293fd93c1" y="67.899844"/>
      </g>
     </g>
    </g>
    <g id="ytick_10">
     <g id="line2d_53">
      <g>
       <use style="stroke:#000000;stroke-width:0.6;" x="26.06875" xlink:href="#mc38399b187" y="64.604893"/>
      </g>
     </g>
     <g id="line2d_54">
      <g>
       <use style="stroke:#000000;stroke-width:0.6;" x="109.76875" xlink:href="#m5293fd93c1" y="64.604893"/>
      </g>
     </g>
    </g>
    <g id="ytick_11">
     <g id="line2d_55">
      <g>
       <use style="stroke:#000000;stroke-width:0.6;" x="26.06875" xlink:href="#mc38399b187" y="58.01499"/>
      </g>
     </g>
     <g id="line2d_56">
      <g>
       <use style="stroke:#000000;stroke-width:0.6;" x="109.76875" xlink:href="#m5293fd93c1" y="58.01499"/>
      </g>
     </g>
    </g>
    <g id="ytick_12">
     <g id="line2d_57">
      <g>
       <use style="stroke:#000000;stroke-width:0.6;" x="26.06875" xlink:href="#mc38399b187" y="54.720039"/>
      </g>
     </g>
     <g id="line2d_58">
      <g>
       <use style="stroke:#000000;stroke-width:0.6;" x="109.76875" xlink:href="#m5293fd93c1" y="54.720039"/>
      </g>
     </g>
    </g>
    <g id="ytick_13">
     <g id="line2d_59">
      <g>
       <use style="stroke:#000000;stroke-width:0.6;" x="26.06875" xlink:href="#mc38399b187" y="51.425088"/>
      </g>
     </g>
     <g id="line2d_60">
      <g>
       <use style="stroke:#000000;stroke-width:0.6;" x="109.76875" xlink:href="#m5293fd93c1" y="51.425088"/>
      </g>
     </g>
    </g>
    <g id="ytick_14">
     <g id="line2d_61">
      <g>
       <use style="stroke:#000000;stroke-width:0.6;" x="26.06875" xlink:href="#mc38399b187" y="48.130137"/>
      </g>
     </g>
     <g id="line2d_62">
      <g>
       <use style="stroke:#000000;stroke-width:0.6;" x="109.76875" xlink:href="#m5293fd93c1" y="48.130137"/>
      </g>
     </g>
    </g>
    <g id="ytick_15">
     <g id="line2d_63">
      <g>
       <use style="stroke:#000000;stroke-width:0.6;" x="26.06875" xlink:href="#mc38399b187" y="41.540234"/>
      </g>
     </g>
     <g id="line2d_64">
      <g>
       <use style="stroke:#000000;stroke-width:0.6;" x="109.76875" xlink:href="#m5293fd93c1" y="41.540234"/>
      </g>
     </g>
    </g>
    <g id="ytick_16">
     <g id="line2d_65">
      <g>
       <use style="stroke:#000000;stroke-width:0.6;" x="26.06875" xlink:href="#mc38399b187" y="38.245283"/>
      </g>
     </g>
     <g id="line2d_66">
      <g>
       <use style="stroke:#000000;stroke-width:0.6;" x="109.76875" xlink:href="#m5293fd93c1" y="38.245283"/>
      </g>
     </g>
    </g>
    <g id="ytick_17">
     <g id="line2d_67">
      <g>
       <use style="stroke:#000000;stroke-width:0.6;" x="26.06875" xlink:href="#mc38399b187" y="34.950332"/>
      </g>
     </g>
     <g id="line2d_68">
      <g>
       <use style="stroke:#000000;stroke-width:0.6;" x="109.76875" xlink:href="#m5293fd93c1" y="34.950332"/>
      </g>
     </g>
    </g>
    <g id="ytick_18">
     <g id="line2d_69">
      <g>
       <use style="stroke:#000000;stroke-width:0.6;" x="26.06875" xlink:href="#mc38399b187" y="31.65538"/>
      </g>
     </g>
     <g id="line2d_70">
      <g>
       <use style="stroke:#000000;stroke-width:0.6;" x="109.76875" xlink:href="#m5293fd93c1" y="31.65538"/>
      </g>
     </g>
    </g>
    <g id="ytick_19">
     <g id="line2d_71">
      <g>
       <use style="stroke:#000000;stroke-width:0.6;" x="26.06875" xlink:href="#mc38399b187" y="25.065478"/>
      </g>
     </g>
     <g id="line2d_72">
      <g>
       <use style="stroke:#000000;stroke-width:0.6;" x="109.76875" xlink:href="#m5293fd93c1" y="25.065478"/>
      </g>
     </g>
    </g>
    <g id="ytick_20">
     <g id="line2d_73">
      <g>
       <use style="stroke:#000000;stroke-width:0.6;" x="26.06875" xlink:href="#mc38399b187" y="21.770527"/>
      </g>
     </g>
     <g id="line2d_74">
      <g>
       <use style="stroke:#000000;stroke-width:0.6;" x="109.76875" xlink:href="#m5293fd93c1" y="21.770527"/>
      </g>
     </g>
    </g>
    <g id="ytick_21">
     <g id="line2d_75">
      <g>
       <use style="stroke:#000000;stroke-width:0.6;" x="26.06875" xlink:href="#mc38399b187" y="18.475575"/>
      </g>
     </g>
     <g id="line2d_76">
      <g>
       <use style="stroke:#000000;stroke-width:0.6;" x="109.76875" xlink:href="#m5293fd93c1" y="18.475575"/>
      </g>
     </g>
    </g>
    <g id="ytick_22">
     <g id="line2d_77">
      <g>
       <use style="stroke:#000000;stroke-width:0.6;" x="26.06875" xlink:href="#mc38399b187" y="15.180624"/>
      </g>
     </g>
     <g id="line2d_78">
      <g>
       <use style="stroke:#000000;stroke-width:0.6;" x="109.76875" xlink:href="#m5293fd93c1" y="15.180624"/>
      </g>
     </g>
    </g>
    <g id="ytick_23">
     <g id="line2d_79">
      <g>
       <use style="stroke:#000000;stroke-width:0.6;" x="26.06875" xlink:href="#mc38399b187" y="8.590722"/>
      </g>
     </g>
     <g id="line2d_80">
      <g>
       <use style="stroke:#000000;stroke-width:0.6;" x="109.76875" xlink:href="#m5293fd93c1" y="8.590722"/>
      </g>
     </g>
    </g>
    <g id="ytick_24">
     <g id="line2d_81">
      <g>
       <use style="stroke:#000000;stroke-width:0.6;" x="26.06875" xlink:href="#mc38399b187" y="5.295771"/>
      </g>
     </g>
     <g id="line2d_82">
      <g>
       <use style="stroke:#000000;stroke-width:0.6;" x="109.76875" xlink:href="#m5293fd93c1" y="5.295771"/>
      </g>
     </g>
    </g>
    <g id="ytick_25">
     <g id="line2d_83">
      <g>
       <use style="stroke:#000000;stroke-width:0.6;" x="26.06875" xlink:href="#mc38399b187" y="2.000819"/>
      </g>
     </g>
     <g id="line2d_84">
      <g>
       <use style="stroke:#000000;stroke-width:0.6;" x="109.76875" xlink:href="#m5293fd93c1" y="2.000819"/>
      </g>
     </g>
    </g>
    <g id="text_12">
     <!-- $\it{I_{D}}$ (μA) -->
     <defs>
      <path d="M 16.890625 72.90625 
L 26.8125 72.90625 
L 12.59375 0 
L 2.6875 0 
z
" id="DejaVuSans-Oblique-73"/>
      <path d="M 16.890625 72.90625 
L 38.09375 72.90625 
Q 54.984375 72.90625 63.59375 65.75 
Q 72.21875 58.59375 72.21875 44.484375 
Q 72.21875 35.15625 68.9375 26.53125 
Q 65.671875 17.921875 59.90625 12.015625 
Q 54.109375 5.953125 45.171875 2.96875 
Q 36.234375 0 24.03125 0 
L 2.6875 0 
z
M 25.203125 64.796875 
L 14.203125 8.109375 
L 27.09375 8.109375 
Q 43.65625 8.109375 52.734375 17.625 
Q 61.8125 27.15625 61.8125 44.484375 
Q 61.8125 54.984375 55.953125 59.890625 
Q 50.09375 64.796875 37.59375 64.796875 
z
" id="DejaVuSans-Oblique-68"/>
      <path d="M 49.703125 51.859375 
L 49.703125 0 
L 41.84375 0 
L 41.84375 6.15625 
Q 39.3125 2.25 36.8125 0.78125 
Q 33.40625 -1.21875 28.859375 -1.21875 
Q 24.8125 -1.21875 21.6875 0.390625 
Q 19.34375 1.609375 16.5 5.21875 
L 16.5 -19.875 
L 7.8125 -19.875 
L 7.8125 51.859375 
L 16.5 51.859375 
L 16.5 29.890625 
Q 16.5 17.921875 17.765625 14.375 
Q 19.046875 10.84375 21.890625 8.78125 
Q 24.75 6.734375 28.46875 6.734375 
Q 32.375 6.734375 35.453125 8.875 
Q 38.53125 11.03125 39.796875 14.421875 
Q 41.0625 17.828125 41.0625 29.734375 
L 41.0625 51.859375 
z
" id="ArialMT-956"/>
      <path d="M -0.140625 0 
L 27.34375 71.578125 
L 37.546875 71.578125 
L 66.84375 0 
L 56.0625 0 
L 47.703125 21.6875 
L 17.78125 21.6875 
L 9.90625 0 
z
M 20.515625 29.390625 
L 44.78125 29.390625 
L 37.3125 49.21875 
Q 33.890625 58.25 32.234375 64.0625 
Q 30.859375 57.171875 28.375 50.390625 
z
" id="ArialMT-65"/>
     </defs>
     <g transform="translate(7.3 56.02)rotate(-90)scale(0.1 -0.1)">
      <use transform="translate(0 0.09375)" xlink:href="#DejaVuSans-Oblique-73"/>
      <use transform="translate(29.492188 -16.3125)scale(0.7)" xlink:href="#DejaVuSans-Oblique-68"/>
      <use transform="translate(86.12793 0.09375)" xlink:href="#ArialMT-32"/>
      <use transform="translate(113.911133 0.09375)" xlink:href="#ArialMT-40"/>
      <use transform="translate(147.211914 0.09375)" xlink:href="#ArialMT-956"/>
      <use transform="translate(204.829102 0.09375)" xlink:href="#ArialMT-65"/>
      <use transform="translate(271.52832 0.09375)" xlink:href="#ArialMT-41"/>
     </g>
    </g>
   </g>
   <g id="line2d_85">
    <path clip-path="url(#p4badb97613)" d="M 29.873295 77.759585 
L 31.141477 77.799187 
L 32.409659 77.788853 
L 33.677841 77.803181 
L 34.946023 77.742132 
L 36.214205 77.773935 
L 37.482386 77.80107 
L 38.750568 77.774229 
L 40.01875 77.808273 
L 41.286932 77.833636 
L 42.555114 77.720465 
L 43.823295 77.78931 
L 45.091477 77.74187 
L 46.359659 77.730922 
L 47.627841 77.764654 
L 48.896023 77.784318 
L 50.164205 77.79188 
L 51.432386 77.761344 
L 52.700568 77.733703 
L 53.96875 77.783349 
L 55.236932 77.760139 
L 56.505114 77.801493 
L 57.773295 77.763333 
L 59.041477 77.766602 
L 60.309659 77.739655 
L 61.577841 77.7281 
L 62.846023 77.564251 
L 64.114205 77.247535 
L 65.382386 76.294523 
L 66.650568 74.766764 
L 67.91875 72.92842 
L 69.186932 68.569177 
L 70.455114 65.230723 
L 71.723295 60.814875 
L 72.991477 55.885859 
L 74.259659 50.85125 
L 75.527841 45.785448 
L 76.796023 40.509046 
L 78.064205 35.932438 
L 79.332386 31.994693 
L 80.600568 28.871442 
L 81.86875 25.793129 
L 83.136932 22.940624 
L 84.405114 20.437799 
L 85.673295 18.90312 
L 86.941477 16.968232 
L 88.209659 15.494797 
L 89.477841 14.05883 
L 90.746023 13.235927 
L 92.014205 11.804561 
L 93.282386 10.853235 
L 94.550568 10.214524 
L 95.81875 9.561514 
L 97.086932 8.095397 
L 98.355114 7.37381 
L 99.623295 6.392328 
L 100.891477 5.839645 
L 102.159659 5.28346 
L 103.427841 4.511223 
L 104.696023 4.176076 
L 105.964205 3.706364 
L 104.696023 4.538963 
L 103.427841 5.200107 
L 102.159659 6.081875 
L 100.891477 7.233555 
L 99.623295 7.948191 
L 98.355114 9.055783 
L 97.086932 10.23956 
L 95.81875 11.444306 
L 94.550568 12.957389 
L 93.282386 14.171896 
L 92.014205 15.655467 
L 90.746023 17.251611 
L 89.477841 19.592823 
L 88.209659 22.116987 
L 86.941477 24.401083 
L 85.673295 27.160862 
L 84.405114 31.1399 
L 83.136932 35.536743 
L 81.86875 39.567464 
L 80.600568 44.284075 
L 79.332386 49.676268 
L 78.064205 54.434488 
L 76.796023 59.501621 
L 75.527841 64.988426 
L 74.259659 68.688851 
L 72.991477 72.75728 
L 71.723295 74.886543 
L 70.455114 76.465121 
L 69.186932 77.332138 
L 67.91875 77.643984 
L 66.650568 77.765675 
L 65.382386 77.778759 
L 64.114205 77.799221 
L 62.846023 77.786073 
L 61.577841 77.795023 
L 60.309659 77.798038 
L 59.041477 77.762053 
L 57.773295 77.771464 
L 56.505114 77.763993 
L 55.236932 77.764017 
L 53.96875 77.819957 
L 52.700568 77.776373 
L 51.432386 77.815189 
L 50.164205 77.77871 
L 48.896023 77.786883 
L 47.627841 77.797963 
L 46.359659 77.777097 
L 45.091477 77.799695 
L 43.823295 77.785724 
L 42.555114 77.733612 
L 41.286932 77.760809 
L 40.01875 77.813946 
L 38.750568 77.756328 
L 37.482386 77.800678 
L 36.214205 77.791774 
L 34.946023 77.75801 
L 33.677841 77.734957 
L 32.409659 77.779847 
L 31.141477 77.828282 
L 29.873295 77.828974 
" style="fill:none;stroke:#377eb8;stroke-linecap:square;stroke-width:1.5;"/>
    <defs>
     <path d="M 0 0.75 
C 0.198902 0.75 0.389685 0.670975 0.53033 0.53033 
C 0.670975 0.389685 0.75 0.198902 0.75 0 
C 0.75 -0.198902 0.670975 -0.389685 0.53033 -0.53033 
C 0.389685 -0.670975 0.198902 -0.75 0 -0.75 
C -0.198902 -0.75 -0.389685 -0.670975 -0.53033 -0.53033 
C -0.670975 -0.389685 -0.75 -0.198902 -0.75 0 
C -0.75 0.198902 -0.670975 0.389685 -0.53033 0.53033 
C -0.389685 0.670975 -0.198902 0.75 0 0.75 
z
" id="m46be7da6ec" style="stroke:#377eb8;"/>
    </defs>
    <g clip-path="url(#p4badb97613)">
     <use style="fill:#377eb8;stroke:#377eb8;" x="29.873295" xlink:href="#m46be7da6ec" y="77.759585"/>
     <use style="fill:#377eb8;stroke:#377eb8;" x="31.141477" xlink:href="#m46be7da6ec" y="77.799187"/>
     <use style="fill:#377eb8;stroke:#377eb8;" x="32.409659" xlink:href="#m46be7da6ec" y="77.788853"/>
     <use style="fill:#377eb8;stroke:#377eb8;" x="33.677841" xlink:href="#m46be7da6ec" y="77.803181"/>
     <use style="fill:#377eb8;stroke:#377eb8;" x="34.946023" xlink:href="#m46be7da6ec" y="77.742132"/>
     <use style="fill:#377eb8;stroke:#377eb8;" x="36.214205" xlink:href="#m46be7da6ec" y="77.773935"/>
     <use style="fill:#377eb8;stroke:#377eb8;" x="37.482386" xlink:href="#m46be7da6ec" y="77.80107"/>
     <use style="fill:#377eb8;stroke:#377eb8;" x="38.750568" xlink:href="#m46be7da6ec" y="77.774229"/>
     <use style="fill:#377eb8;stroke:#377eb8;" x="40.01875" xlink:href="#m46be7da6ec" y="77.808273"/>
     <use style="fill:#377eb8;stroke:#377eb8;" x="41.286932" xlink:href="#m46be7da6ec" y="77.833636"/>
     <use style="fill:#377eb8;stroke:#377eb8;" x="42.555114" xlink:href="#m46be7da6ec" y="77.720465"/>
     <use style="fill:#377eb8;stroke:#377eb8;" x="43.823295" xlink:href="#m46be7da6ec" y="77.78931"/>
     <use style="fill:#377eb8;stroke:#377eb8;" x="45.091477" xlink:href="#m46be7da6ec" y="77.74187"/>
     <use style="fill:#377eb8;stroke:#377eb8;" x="46.359659" xlink:href="#m46be7da6ec" y="77.730922"/>
     <use style="fill:#377eb8;stroke:#377eb8;" x="47.627841" xlink:href="#m46be7da6ec" y="77.764654"/>
     <use style="fill:#377eb8;stroke:#377eb8;" x="48.896023" xlink:href="#m46be7da6ec" y="77.784318"/>
     <use style="fill:#377eb8;stroke:#377eb8;" x="50.164205" xlink:href="#m46be7da6ec" y="77.79188"/>
     <use style="fill:#377eb8;stroke:#377eb8;" x="51.432386" xlink:href="#m46be7da6ec" y="77.761344"/>
     <use style="fill:#377eb8;stroke:#377eb8;" x="52.700568" xlink:href="#m46be7da6ec" y="77.733703"/>
     <use style="fill:#377eb8;stroke:#377eb8;" x="53.96875" xlink:href="#m46be7da6ec" y="77.783349"/>
     <use style="fill:#377eb8;stroke:#377eb8;" x="55.236932" xlink:href="#m46be7da6ec" y="77.760139"/>
     <use style="fill:#377eb8;stroke:#377eb8;" x="56.505114" xlink:href="#m46be7da6ec" y="77.801493"/>
     <use style="fill:#377eb8;stroke:#377eb8;" x="57.773295" xlink:href="#m46be7da6ec" y="77.763333"/>
     <use style="fill:#377eb8;stroke:#377eb8;" x="59.041477" xlink:href="#m46be7da6ec" y="77.766602"/>
     <use style="fill:#377eb8;stroke:#377eb8;" x="60.309659" xlink:href="#m46be7da6ec" y="77.739655"/>
     <use style="fill:#377eb8;stroke:#377eb8;" x="61.577841" xlink:href="#m46be7da6ec" y="77.7281"/>
     <use style="fill:#377eb8;stroke:#377eb8;" x="62.846023" xlink:href="#m46be7da6ec" y="77.564251"/>
     <use style="fill:#377eb8;stroke:#377eb8;" x="64.114205" xlink:href="#m46be7da6ec" y="77.247535"/>
     <use style="fill:#377eb8;stroke:#377eb8;" x="65.382386" xlink:href="#m46be7da6ec" y="76.294523"/>
     <use style="fill:#377eb8;stroke:#377eb8;" x="66.650568" xlink:href="#m46be7da6ec" y="74.766764"/>
     <use style="fill:#377eb8;stroke:#377eb8;" x="67.91875" xlink:href="#m46be7da6ec" y="72.92842"/>
     <use style="fill:#377eb8;stroke:#377eb8;" x="69.186932" xlink:href="#m46be7da6ec" y="68.569177"/>
     <use style="fill:#377eb8;stroke:#377eb8;" x="70.455114" xlink:href="#m46be7da6ec" y="65.230723"/>
     <use style="fill:#377eb8;stroke:#377eb8;" x="71.723295" xlink:href="#m46be7da6ec" y="60.814875"/>
     <use style="fill:#377eb8;stroke:#377eb8;" x="72.991477" xlink:href="#m46be7da6ec" y="55.885859"/>
     <use style="fill:#377eb8;stroke:#377eb8;" x="74.259659" xlink:href="#m46be7da6ec" y="50.85125"/>
     <use style="fill:#377eb8;stroke:#377eb8;" x="75.527841" xlink:href="#m46be7da6ec" y="45.785448"/>
     <use style="fill:#377eb8;stroke:#377eb8;" x="76.796023" xlink:href="#m46be7da6ec" y="40.509046"/>
     <use style="fill:#377eb8;stroke:#377eb8;" x="78.064205" xlink:href="#m46be7da6ec" y="35.932438"/>
     <use style="fill:#377eb8;stroke:#377eb8;" x="79.332386" xlink:href="#m46be7da6ec" y="31.994693"/>
     <use style="fill:#377eb8;stroke:#377eb8;" x="80.600568" xlink:href="#m46be7da6ec" y="28.871442"/>
     <use style="fill:#377eb8;stroke:#377eb8;" x="81.86875" xlink:href="#m46be7da6ec" y="25.793129"/>
     <use style="fill:#377eb8;stroke:#377eb8;" x="83.136932" xlink:href="#m46be7da6ec" y="22.940624"/>
     <use style="fill:#377eb8;stroke:#377eb8;" x="84.405114" xlink:href="#m46be7da6ec" y="20.437799"/>
     <use style="fill:#377eb8;stroke:#377eb8;" x="85.673295" xlink:href="#m46be7da6ec" y="18.90312"/>
     <use style="fill:#377eb8;stroke:#377eb8;" x="86.941477" xlink:href="#m46be7da6ec" y="16.968232"/>
     <use style="fill:#377eb8;stroke:#377eb8;" x="88.209659" xlink:href="#m46be7da6ec" y="15.494797"/>
     <use style="fill:#377eb8;stroke:#377eb8;" x="89.477841" xlink:href="#m46be7da6ec" y="14.05883"/>
     <use style="fill:#377eb8;stroke:#377eb8;" x="90.746023" xlink:href="#m46be7da6ec" y="13.235927"/>
     <use style="fill:#377eb8;stroke:#377eb8;" x="92.014205" xlink:href="#m46be7da6ec" y="11.804561"/>
     <use style="fill:#377eb8;stroke:#377eb8;" x="93.282386" xlink:href="#m46be7da6ec" y="10.853235"/>
     <use style="fill:#377eb8;stroke:#377eb8;" x="94.550568" xlink:href="#m46be7da6ec" y="10.214524"/>
     <use style="fill:#377eb8;stroke:#377eb8;" x="95.81875" xlink:href="#m46be7da6ec" y="9.561514"/>
     <use style="fill:#377eb8;stroke:#377eb8;" x="97.086932" xlink:href="#m46be7da6ec" y="8.095397"/>
     <use style="fill:#377eb8;stroke:#377eb8;" x="98.355114" xlink:href="#m46be7da6ec" y="7.37381"/>
     <use style="fill:#377eb8;stroke:#377eb8;" x="99.623295" xlink:href="#m46be7da6ec" y="6.392328"/>
     <use style="fill:#377eb8;stroke:#377eb8;" x="100.891477" xlink:href="#m46be7da6ec" y="5.839645"/>
     <use style="fill:#377eb8;stroke:#377eb8;" x="102.159659" xlink:href="#m46be7da6ec" y="5.28346"/>
     <use style="fill:#377eb8;stroke:#377eb8;" x="103.427841" xlink:href="#m46be7da6ec" y="4.511223"/>
     <use style="fill:#377eb8;stroke:#377eb8;" x="104.696023" xlink:href="#m46be7da6ec" y="4.176076"/>
     <use style="fill:#377eb8;stroke:#377eb8;" x="105.964205" xlink:href="#m46be7da6ec" y="3.706364"/>
     <use style="fill:#377eb8;stroke:#377eb8;" x="104.696023" xlink:href="#m46be7da6ec" y="4.538963"/>
     <use style="fill:#377eb8;stroke:#377eb8;" x="103.427841" xlink:href="#m46be7da6ec" y="5.200107"/>
     <use style="fill:#377eb8;stroke:#377eb8;" x="102.159659" xlink:href="#m46be7da6ec" y="6.081875"/>
     <use style="fill:#377eb8;stroke:#377eb8;" x="100.891477" xlink:href="#m46be7da6ec" y="7.233555"/>
     <use style="fill:#377eb8;stroke:#377eb8;" x="99.623295" xlink:href="#m46be7da6ec" y="7.948191"/>
     <use style="fill:#377eb8;stroke:#377eb8;" x="98.355114" xlink:href="#m46be7da6ec" y="9.055783"/>
     <use style="fill:#377eb8;stroke:#377eb8;" x="97.086932" xlink:href="#m46be7da6ec" y="10.23956"/>
     <use style="fill:#377eb8;stroke:#377eb8;" x="95.81875" xlink:href="#m46be7da6ec" y="11.444306"/>
     <use style="fill:#377eb8;stroke:#377eb8;" x="94.550568" xlink:href="#m46be7da6ec" y="12.957389"/>
     <use style="fill:#377eb8;stroke:#377eb8;" x="93.282386" xlink:href="#m46be7da6ec" y="14.171896"/>
     <use style="fill:#377eb8;stroke:#377eb8;" x="92.014205" xlink:href="#m46be7da6ec" y="15.655467"/>
     <use style="fill:#377eb8;stroke:#377eb8;" x="90.746023" xlink:href="#m46be7da6ec" y="17.251611"/>
     <use style="fill:#377eb8;stroke:#377eb8;" x="89.477841" xlink:href="#m46be7da6ec" y="19.592823"/>
     <use style="fill:#377eb8;stroke:#377eb8;" x="88.209659" xlink:href="#m46be7da6ec" y="22.116987"/>
     <use style="fill:#377eb8;stroke:#377eb8;" x="86.941477" xlink:href="#m46be7da6ec" y="24.401083"/>
     <use style="fill:#377eb8;stroke:#377eb8;" x="85.673295" xlink:href="#m46be7da6ec" y="27.160862"/>
     <use style="fill:#377eb8;stroke:#377eb8;" x="84.405114" xlink:href="#m46be7da6ec" y="31.1399"/>
     <use style="fill:#377eb8;stroke:#377eb8;" x="83.136932" xlink:href="#m46be7da6ec" y="35.536743"/>
     <use style="fill:#377eb8;stroke:#377eb8;" x="81.86875" xlink:href="#m46be7da6ec" y="39.567464"/>
     <use style="fill:#377eb8;stroke:#377eb8;" x="80.600568" xlink:href="#m46be7da6ec" y="44.284075"/>
     <use style="fill:#377eb8;stroke:#377eb8;" x="79.332386" xlink:href="#m46be7da6ec" y="49.676268"/>
     <use style="fill:#377eb8;stroke:#377eb8;" x="78.064205" xlink:href="#m46be7da6ec" y="54.434488"/>
     <use style="fill:#377eb8;stroke:#377eb8;" x="76.796023" xlink:href="#m46be7da6ec" y="59.501621"/>
     <use style="fill:#377eb8;stroke:#377eb8;" x="75.527841" xlink:href="#m46be7da6ec" y="64.988426"/>
     <use style="fill:#377eb8;stroke:#377eb8;" x="74.259659" xlink:href="#m46be7da6ec" y="68.688851"/>
     <use style="fill:#377eb8;stroke:#377eb8;" x="72.991477" xlink:href="#m46be7da6ec" y="72.75728"/>
     <use style="fill:#377eb8;stroke:#377eb8;" x="71.723295" xlink:href="#m46be7da6ec" y="74.886543"/>
     <use style="fill:#377eb8;stroke:#377eb8;" x="70.455114" xlink:href="#m46be7da6ec" y="76.465121"/>
     <use style="fill:#377eb8;stroke:#377eb8;" x="69.186932" xlink:href="#m46be7da6ec" y="77.332138"/>
     <use style="fill:#377eb8;stroke:#377eb8;" x="67.91875" xlink:href="#m46be7da6ec" y="77.643984"/>
     <use style="fill:#377eb8;stroke:#377eb8;" x="66.650568" xlink:href="#m46be7da6ec" y="77.765675"/>
     <use style="fill:#377eb8;stroke:#377eb8;" x="65.382386" xlink:href="#m46be7da6ec" y="77.778759"/>
     <use style="fill:#377eb8;stroke:#377eb8;" x="64.114205" xlink:href="#m46be7da6ec" y="77.799221"/>
     <use style="fill:#377eb8;stroke:#377eb8;" x="62.846023" xlink:href="#m46be7da6ec" y="77.786073"/>
     <use style="fill:#377eb8;stroke:#377eb8;" x="61.577841" xlink:href="#m46be7da6ec" y="77.795023"/>
     <use style="fill:#377eb8;stroke:#377eb8;" x="60.309659" xlink:href="#m46be7da6ec" y="77.798038"/>
     <use style="fill:#377eb8;stroke:#377eb8;" x="59.041477" xlink:href="#m46be7da6ec" y="77.762053"/>
     <use style="fill:#377eb8;stroke:#377eb8;" x="57.773295" xlink:href="#m46be7da6ec" y="77.771464"/>
     <use style="fill:#377eb8;stroke:#377eb8;" x="56.505114" xlink:href="#m46be7da6ec" y="77.763993"/>
     <use style="fill:#377eb8;stroke:#377eb8;" x="55.236932" xlink:href="#m46be7da6ec" y="77.764017"/>
     <use style="fill:#377eb8;stroke:#377eb8;" x="53.96875" xlink:href="#m46be7da6ec" y="77.819957"/>
     <use style="fill:#377eb8;stroke:#377eb8;" x="52.700568" xlink:href="#m46be7da6ec" y="77.776373"/>
     <use style="fill:#377eb8;stroke:#377eb8;" x="51.432386" xlink:href="#m46be7da6ec" y="77.815189"/>
     <use style="fill:#377eb8;stroke:#377eb8;" x="50.164205" xlink:href="#m46be7da6ec" y="77.77871"/>
     <use style="fill:#377eb8;stroke:#377eb8;" x="48.896023" xlink:href="#m46be7da6ec" y="77.786883"/>
     <use style="fill:#377eb8;stroke:#377eb8;" x="47.627841" xlink:href="#m46be7da6ec" y="77.797963"/>
     <use style="fill:#377eb8;stroke:#377eb8;" x="46.359659" xlink:href="#m46be7da6ec" y="77.777097"/>
     <use style="fill:#377eb8;stroke:#377eb8;" x="45.091477" xlink:href="#m46be7da6ec" y="77.799695"/>
     <use style="fill:#377eb8;stroke:#377eb8;" x="43.823295" xlink:href="#m46be7da6ec" y="77.785724"/>
     <use style="fill:#377eb8;stroke:#377eb8;" x="42.555114" xlink:href="#m46be7da6ec" y="77.733612"/>
     <use style="fill:#377eb8;stroke:#377eb8;" x="41.286932" xlink:href="#m46be7da6ec" y="77.760809"/>
     <use style="fill:#377eb8;stroke:#377eb8;" x="40.01875" xlink:href="#m46be7da6ec" y="77.813946"/>
     <use style="fill:#377eb8;stroke:#377eb8;" x="38.750568" xlink:href="#m46be7da6ec" y="77.756328"/>
     <use style="fill:#377eb8;stroke:#377eb8;" x="37.482386" xlink:href="#m46be7da6ec" y="77.800678"/>
     <use style="fill:#377eb8;stroke:#377eb8;" x="36.214205" xlink:href="#m46be7da6ec" y="77.791774"/>
     <use style="fill:#377eb8;stroke:#377eb8;" x="34.946023" xlink:href="#m46be7da6ec" y="77.75801"/>
     <use style="fill:#377eb8;stroke:#377eb8;" x="33.677841" xlink:href="#m46be7da6ec" y="77.734957"/>
     <use style="fill:#377eb8;stroke:#377eb8;" x="32.409659" xlink:href="#m46be7da6ec" y="77.779847"/>
     <use style="fill:#377eb8;stroke:#377eb8;" x="31.141477" xlink:href="#m46be7da6ec" y="77.828282"/>
     <use style="fill:#377eb8;stroke:#377eb8;" x="29.873295" xlink:href="#m46be7da6ec" y="77.828974"/>
    </g>
   </g>
   <g id="patch_3">
    <path d="M 26.06875 81.54 
L 26.06875 0 
" style="fill:none;stroke:#000000;stroke-linecap:square;stroke-linejoin:miter;stroke-width:0.8;"/>
   </g>
   <g id="patch_4">
    <path d="M 109.76875 81.54 
L 109.76875 0 
" style="fill:none;stroke:#000000;stroke-linecap:square;stroke-linejoin:miter;stroke-width:0.8;"/>
   </g>
   <g id="patch_5">
    <path d="M 26.06875 81.54 
L 109.76875 81.54 
" style="fill:none;stroke:#000000;stroke-linecap:square;stroke-linejoin:miter;stroke-width:0.8;"/>
   </g>
   <g id="patch_6">
    <path d="M 26.06875 0 
L 109.76875 0 
" style="fill:none;stroke:#000000;stroke-linecap:square;stroke-linejoin:miter;stroke-width:0.8;"/>
   </g>
  </g>
 </g>
 <defs>
  <clipPath id="p4badb97613">
   <rect height="81.54" width="83.7" x="26.06875" y="0"/>
  </clipPath>
 </defs>
</svg>
