<?xml version="1.0" encoding="utf-8" standalone="no"?>
<!DOCTYPE svg PUBLIC "-//W3C//DTD SVG 1.1//EN"
  "http://www.w3.org/Graphics/SVG/1.1/DTD/svg11.dtd">
<!-- Created with matplotlib (https://matplotlib.org/) -->
<svg height="99.35625pt" version="1.1" viewBox="0 0 110.726818 99.35625" width="110.726818pt" xmlns="http://www.w3.org/2000/svg" xmlns:xlink="http://www.w3.org/1999/xlink">
 <defs>
  <style type="text/css">
*{stroke-linecap:butt;stroke-linejoin:round;white-space:pre;}
  </style>
 </defs>
 <g id="figure_1">
  <g id="patch_1">
   <path d="M 0 99.35625 
L 110.726818 99.35625 
L 110.726818 0 
L 0 0 
z
" style="fill:none;"/>
  </g>
  <g id="axes_1">
   <g id="patch_2">
    <path d="M 23.84625 81.54 
L 107.54625 81.54 
L 107.54625 0 
L 23.84625 0 
z
" style="fill:none;"/>
   </g>
   <g id="matplotlib.axis_1">
    <g id="xtick_1">
     <g id="line2d_1">
      <defs>
       <path d="M 0 0 
L 0 -3.5 
" id="m5d990187d4" style="stroke:#000000;stroke-width:0.8;"/>
      </defs>
      <g>
       <use style="stroke:#000000;stroke-width:0.8;" x="25.114432" xlink:href="#m5d990187d4" y="81.54"/>
      </g>
     </g>
     <g id="line2d_2">
      <defs>
       <path d="M 0 0 
L 0 3.5 
" id="ma728d35dc7" style="stroke:#000000;stroke-width:0.8;"/>
      </defs>
      <g>
       <use style="stroke:#000000;stroke-width:0.8;" x="25.114432" xlink:href="#ma728d35dc7" y="0"/>
      </g>
     </g>
     <g id="text_1">
      <!-- −80 -->
      <defs>
       <path d="M 52.828125 31.203125 
L 5.5625 31.203125 
L 5.5625 39.40625 
L 52.828125 39.40625 
z
" id="ArialMT-8722"/>
       <path d="M 17.671875 38.8125 
Q 12.203125 40.828125 9.5625 44.53125 
Q 6.9375 48.25 6.9375 53.421875 
Q 6.9375 61.234375 12.546875 66.546875 
Q 18.171875 71.875 27.484375 71.875 
Q 36.859375 71.875 42.578125 66.421875 
Q 48.296875 60.984375 48.296875 53.171875 
Q 48.296875 48.1875 45.671875 44.5 
Q 43.0625 40.828125 37.75 38.8125 
Q 44.34375 36.671875 47.78125 31.875 
Q 51.21875 27.09375 51.21875 20.453125 
Q 51.21875 11.28125 44.71875 5.03125 
Q 38.234375 -1.21875 27.640625 -1.21875 
Q 17.046875 -1.21875 10.546875 5.046875 
Q 4.046875 11.328125 4.046875 20.703125 
Q 4.046875 27.6875 7.59375 32.390625 
Q 11.140625 37.109375 17.671875 38.8125 
z
M 15.921875 53.71875 
Q 15.921875 48.640625 19.1875 45.40625 
Q 22.46875 42.1875 27.6875 42.1875 
Q 32.765625 42.1875 36.015625 45.375 
Q 39.265625 48.578125 39.265625 53.21875 
Q 39.265625 58.0625 35.90625 61.359375 
Q 32.5625 64.65625 27.59375 64.65625 
Q 22.5625 64.65625 19.234375 61.421875 
Q 15.921875 58.203125 15.921875 53.71875 
z
M 13.09375 20.65625 
Q 13.09375 16.890625 14.875 13.375 
Q 16.65625 9.859375 20.171875 7.921875 
Q 23.6875 6 27.734375 6 
Q 34.03125 6 38.125 10.046875 
Q 42.234375 14.109375 42.234375 20.359375 
Q 42.234375 26.703125 38.015625 30.859375 
Q 33.796875 35.015625 27.4375 35.015625 
Q 21.234375 35.015625 17.15625 30.90625 
Q 13.09375 26.8125 13.09375 20.65625 
z
" id="ArialMT-56"/>
       <path d="M 4.15625 35.296875 
Q 4.15625 48 6.765625 55.734375 
Q 9.375 63.484375 14.515625 67.671875 
Q 19.671875 71.875 27.484375 71.875 
Q 33.25 71.875 37.59375 69.546875 
Q 41.9375 67.234375 44.765625 62.859375 
Q 47.609375 58.5 49.21875 52.21875 
Q 50.828125 45.953125 50.828125 35.296875 
Q 50.828125 22.703125 48.234375 14.96875 
Q 45.65625 7.234375 40.5 3 
Q 35.359375 -1.21875 27.484375 -1.21875 
Q 17.140625 -1.21875 11.234375 6.203125 
Q 4.15625 15.140625 4.15625 35.296875 
z
M 13.1875 35.296875 
Q 13.1875 17.671875 17.3125 11.828125 
Q 21.4375 6 27.484375 6 
Q 33.546875 6 37.671875 11.859375 
Q 41.796875 17.71875 41.796875 35.296875 
Q 41.796875 52.984375 37.671875 58.78125 
Q 33.546875 64.59375 27.390625 64.59375 
Q 21.34375 64.59375 17.71875 59.46875 
Q 13.1875 52.9375 13.1875 35.296875 
z
" id="ArialMT-48"/>
      </defs>
      <g transform="translate(18.329432 88.26625)scale(0.08 -0.08)">
       <use xlink:href="#ArialMT-8722"/>
       <use x="58.398438" xlink:href="#ArialMT-56"/>
       <use x="114.013672" xlink:href="#ArialMT-48"/>
      </g>
     </g>
    </g>
    <g id="xtick_2">
     <g id="line2d_3">
      <g>
       <use style="stroke:#000000;stroke-width:0.8;" x="45.405341" xlink:href="#m5d990187d4" y="81.54"/>
      </g>
     </g>
     <g id="line2d_4">
      <g>
       <use style="stroke:#000000;stroke-width:0.8;" x="45.405341" xlink:href="#ma728d35dc7" y="0"/>
      </g>
     </g>
     <g id="text_2">
      <!-- −40 -->
      <defs>
       <path d="M 32.328125 0 
L 32.328125 17.140625 
L 1.265625 17.140625 
L 1.265625 25.203125 
L 33.9375 71.578125 
L 41.109375 71.578125 
L 41.109375 25.203125 
L 50.78125 25.203125 
L 50.78125 17.140625 
L 41.109375 17.140625 
L 41.109375 0 
z
M 32.328125 25.203125 
L 32.328125 57.46875 
L 9.90625 25.203125 
z
" id="ArialMT-52"/>
      </defs>
      <g transform="translate(38.620341 88.26625)scale(0.08 -0.08)">
       <use xlink:href="#ArialMT-8722"/>
       <use x="58.398438" xlink:href="#ArialMT-52"/>
       <use x="114.013672" xlink:href="#ArialMT-48"/>
      </g>
     </g>
    </g>
    <g id="xtick_3">
     <g id="line2d_5">
      <g>
       <use style="stroke:#000000;stroke-width:0.8;" x="65.69625" xlink:href="#m5d990187d4" y="81.54"/>
      </g>
     </g>
     <g id="line2d_6">
      <g>
       <use style="stroke:#000000;stroke-width:0.8;" x="65.69625" xlink:href="#ma728d35dc7" y="0"/>
      </g>
     </g>
     <g id="text_3">
      <!-- 0 -->
      <g transform="translate(63.471875 88.26625)scale(0.08 -0.08)">
       <use xlink:href="#ArialMT-48"/>
      </g>
     </g>
    </g>
    <g id="xtick_4">
     <g id="line2d_7">
      <g>
       <use style="stroke:#000000;stroke-width:0.8;" x="85.987159" xlink:href="#m5d990187d4" y="81.54"/>
      </g>
     </g>
     <g id="line2d_8">
      <g>
       <use style="stroke:#000000;stroke-width:0.8;" x="85.987159" xlink:href="#ma728d35dc7" y="0"/>
      </g>
     </g>
     <g id="text_4">
      <!-- 40 -->
      <g transform="translate(81.538409 88.26625)scale(0.08 -0.08)">
       <use xlink:href="#ArialMT-52"/>
       <use x="55.615234" xlink:href="#ArialMT-48"/>
      </g>
     </g>
    </g>
    <g id="xtick_5">
     <g id="line2d_9">
      <g>
       <use style="stroke:#000000;stroke-width:0.8;" x="106.278068" xlink:href="#m5d990187d4" y="81.54"/>
      </g>
     </g>
     <g id="line2d_10">
      <g>
       <use style="stroke:#000000;stroke-width:0.8;" x="106.278068" xlink:href="#ma728d35dc7" y="0"/>
      </g>
     </g>
     <g id="text_5">
      <!-- 80 -->
      <g transform="translate(101.829318 88.26625)scale(0.08 -0.08)">
       <use xlink:href="#ArialMT-56"/>
       <use x="55.615234" xlink:href="#ArialMT-48"/>
      </g>
     </g>
    </g>
    <g id="xtick_6">
     <g id="line2d_11">
      <defs>
       <path d="M 0 0 
L 0 -2 
" id="mbfabe3278d" style="stroke:#000000;stroke-width:0.6;"/>
      </defs>
      <g>
       <use style="stroke:#000000;stroke-width:0.6;" x="30.187159" xlink:href="#mbfabe3278d" y="81.54"/>
      </g>
     </g>
     <g id="line2d_12">
      <defs>
       <path d="M 0 0 
L 0 2 
" id="mc6a691a3d6" style="stroke:#000000;stroke-width:0.6;"/>
      </defs>
      <g>
       <use style="stroke:#000000;stroke-width:0.6;" x="30.187159" xlink:href="#mc6a691a3d6" y="0"/>
      </g>
     </g>
    </g>
    <g id="xtick_7">
     <g id="line2d_13">
      <g>
       <use style="stroke:#000000;stroke-width:0.6;" x="35.259886" xlink:href="#mbfabe3278d" y="81.54"/>
      </g>
     </g>
     <g id="line2d_14">
      <g>
       <use style="stroke:#000000;stroke-width:0.6;" x="35.259886" xlink:href="#mc6a691a3d6" y="0"/>
      </g>
     </g>
    </g>
    <g id="xtick_8">
     <g id="line2d_15">
      <g>
       <use style="stroke:#000000;stroke-width:0.6;" x="40.332614" xlink:href="#mbfabe3278d" y="81.54"/>
      </g>
     </g>
     <g id="line2d_16">
      <g>
       <use style="stroke:#000000;stroke-width:0.6;" x="40.332614" xlink:href="#mc6a691a3d6" y="0"/>
      </g>
     </g>
    </g>
    <g id="xtick_9">
     <g id="line2d_17">
      <g>
       <use style="stroke:#000000;stroke-width:0.6;" x="50.478068" xlink:href="#mbfabe3278d" y="81.54"/>
      </g>
     </g>
     <g id="line2d_18">
      <g>
       <use style="stroke:#000000;stroke-width:0.6;" x="50.478068" xlink:href="#mc6a691a3d6" y="0"/>
      </g>
     </g>
    </g>
    <g id="xtick_10">
     <g id="line2d_19">
      <g>
       <use style="stroke:#000000;stroke-width:0.6;" x="55.550795" xlink:href="#mbfabe3278d" y="81.54"/>
      </g>
     </g>
     <g id="line2d_20">
      <g>
       <use style="stroke:#000000;stroke-width:0.6;" x="55.550795" xlink:href="#mc6a691a3d6" y="0"/>
      </g>
     </g>
    </g>
    <g id="xtick_11">
     <g id="line2d_21">
      <g>
       <use style="stroke:#000000;stroke-width:0.6;" x="60.623523" xlink:href="#mbfabe3278d" y="81.54"/>
      </g>
     </g>
     <g id="line2d_22">
      <g>
       <use style="stroke:#000000;stroke-width:0.6;" x="60.623523" xlink:href="#mc6a691a3d6" y="0"/>
      </g>
     </g>
    </g>
    <g id="xtick_12">
     <g id="line2d_23">
      <g>
       <use style="stroke:#000000;stroke-width:0.6;" x="70.768977" xlink:href="#mbfabe3278d" y="81.54"/>
      </g>
     </g>
     <g id="line2d_24">
      <g>
       <use style="stroke:#000000;stroke-width:0.6;" x="70.768977" xlink:href="#mc6a691a3d6" y="0"/>
      </g>
     </g>
    </g>
    <g id="xtick_13">
     <g id="line2d_25">
      <g>
       <use style="stroke:#000000;stroke-width:0.6;" x="75.841705" xlink:href="#mbfabe3278d" y="81.54"/>
      </g>
     </g>
     <g id="line2d_26">
      <g>
       <use style="stroke:#000000;stroke-width:0.6;" x="75.841705" xlink:href="#mc6a691a3d6" y="0"/>
      </g>
     </g>
    </g>
    <g id="xtick_14">
     <g id="line2d_27">
      <g>
       <use style="stroke:#000000;stroke-width:0.6;" x="80.914432" xlink:href="#mbfabe3278d" y="81.54"/>
      </g>
     </g>
     <g id="line2d_28">
      <g>
       <use style="stroke:#000000;stroke-width:0.6;" x="80.914432" xlink:href="#mc6a691a3d6" y="0"/>
      </g>
     </g>
    </g>
    <g id="xtick_15">
     <g id="line2d_29">
      <g>
       <use style="stroke:#000000;stroke-width:0.6;" x="91.059886" xlink:href="#mbfabe3278d" y="81.54"/>
      </g>
     </g>
     <g id="line2d_30">
      <g>
       <use style="stroke:#000000;stroke-width:0.6;" x="91.059886" xlink:href="#mc6a691a3d6" y="0"/>
      </g>
     </g>
    </g>
    <g id="xtick_16">
     <g id="line2d_31">
      <g>
       <use style="stroke:#000000;stroke-width:0.6;" x="96.132614" xlink:href="#mbfabe3278d" y="81.54"/>
      </g>
     </g>
     <g id="line2d_32">
      <g>
       <use style="stroke:#000000;stroke-width:0.6;" x="96.132614" xlink:href="#mc6a691a3d6" y="0"/>
      </g>
     </g>
    </g>
    <g id="xtick_17">
     <g id="line2d_33">
      <g>
       <use style="stroke:#000000;stroke-width:0.6;" x="101.205341" xlink:href="#mbfabe3278d" y="81.54"/>
      </g>
     </g>
     <g id="line2d_34">
      <g>
       <use style="stroke:#000000;stroke-width:0.6;" x="101.205341" xlink:href="#mc6a691a3d6" y="0"/>
      </g>
     </g>
    </g>
    <g id="text_6">
     <!-- $\it{V_{G}}$ (V) -->
     <defs>
      <path d="M 20.609375 0 
L 7.8125 72.90625 
L 17.484375 72.90625 
L 28.078125 10.203125 
L 63.484375 72.90625 
L 74.21875 72.90625 
L 32.078125 0 
z
" id="DejaVuSans-Oblique-86"/>
      <path d="M 54.59375 10.890625 
L 58.40625 29.984375 
L 42.1875 29.984375 
L 43.703125 38.09375 
L 69.578125 38.09375 
L 63.28125 6 
Q 56.78125 2.4375 49.109375 0.5 
Q 41.453125 -1.421875 33.6875 -1.421875 
Q 19.96875 -1.421875 12.234375 6.1875 
Q 4.5 13.8125 4.5 27.390625 
Q 4.5 38.671875 9.203125 48.84375 
Q 13.921875 59.03125 22.21875 65.828125 
Q 27.4375 70.0625 33.640625 72.140625 
Q 39.84375 74.21875 47.40625 74.21875 
Q 54.25 74.21875 60.515625 72.484375 
Q 66.796875 70.75 72.515625 67.28125 
L 70.515625 56.78125 
Q 66.109375 61.375 60.203125 63.796875 
Q 54.296875 66.21875 47.609375 66.21875 
Q 39.84375 66.21875 33.9375 63.25 
Q 28.03125 60.296875 23.390625 54.109375 
Q 19.4375 48.828125 17.15625 41.671875 
Q 14.890625 34.515625 14.890625 27.09375 
Q 14.890625 16.890625 20.109375 11.734375 
Q 25.34375 6.59375 35.6875 6.59375 
Q 40.875 6.59375 45.703125 7.6875 
Q 50.53125 8.796875 54.59375 10.890625 
z
" id="DejaVuSans-Oblique-71"/>
      <path id="ArialMT-32"/>
      <path d="M 23.390625 -21.046875 
Q 16.109375 -11.859375 11.078125 0.4375 
Q 6.0625 12.75 6.0625 25.921875 
Q 6.0625 37.546875 9.8125 48.1875 
Q 14.203125 60.546875 23.390625 72.796875 
L 29.6875 72.796875 
Q 23.78125 62.640625 21.875 58.296875 
Q 18.890625 51.5625 17.1875 44.234375 
Q 15.09375 35.109375 15.09375 25.875 
Q 15.09375 2.390625 29.6875 -21.046875 
z
" id="ArialMT-40"/>
      <path d="M 28.171875 0 
L 0.4375 71.578125 
L 10.6875 71.578125 
L 29.296875 19.578125 
Q 31.546875 13.328125 33.0625 7.859375 
Q 34.71875 13.71875 36.921875 19.578125 
L 56.25 71.578125 
L 65.921875 71.578125 
L 37.890625 0 
z
" id="ArialMT-86"/>
      <path d="M 12.359375 -21.046875 
L 6.0625 -21.046875 
Q 20.65625 2.390625 20.65625 25.875 
Q 20.65625 35.0625 18.5625 44.09375 
Q 16.890625 51.421875 13.921875 58.15625 
Q 12.015625 62.546875 6.0625 72.796875 
L 12.359375 72.796875 
Q 21.53125 60.546875 25.921875 48.1875 
Q 29.6875 37.546875 29.6875 25.921875 
Q 29.6875 12.75 24.625 0.4375 
Q 19.578125 -11.859375 12.359375 -21.046875 
z
" id="ArialMT-41"/>
     </defs>
     <g transform="translate(51.34625 97.15625)scale(0.1 -0.1)">
      <use transform="translate(0 0.09375)" xlink:href="#DejaVuSans-Oblique-86"/>
      <use transform="translate(68.408203 -16.3125)scale(0.7)" xlink:href="#DejaVuSans-Oblique-71"/>
      <use transform="translate(125.385742 0.09375)" xlink:href="#ArialMT-32"/>
      <use transform="translate(153.168945 0.09375)" xlink:href="#ArialMT-40"/>
      <use transform="translate(186.469727 0.09375)" xlink:href="#ArialMT-86"/>
      <use transform="translate(253.168945 0.09375)" xlink:href="#ArialMT-41"/>
     </g>
    </g>
   </g>
   <g id="matplotlib.axis_2">
    <g id="ytick_1">
     <g id="line2d_35">
      <defs>
       <path d="M 0 0 
L 3.5 0 
" id="md63a644f07" style="stroke:#000000;stroke-width:0.8;"/>
      </defs>
      <g>
       <use style="stroke:#000000;stroke-width:0.8;" x="23.84625" xlink:href="#md63a644f07" y="77.774238"/>
      </g>
     </g>
     <g id="line2d_36">
      <defs>
       <path d="M 0 0 
L -3.5 0 
" id="mc3347bb0e8" style="stroke:#000000;stroke-width:0.8;"/>
      </defs>
      <g>
       <use style="stroke:#000000;stroke-width:0.8;" x="107.54625" xlink:href="#mc3347bb0e8" y="77.774238"/>
      </g>
     </g>
     <g id="text_7">
      <!-- 0 -->
      <g transform="translate(18.3975 80.637363)scale(0.08 -0.08)">
       <use xlink:href="#ArialMT-48"/>
      </g>
     </g>
    </g>
    <g id="ytick_2">
     <g id="line2d_37">
      <g>
       <use style="stroke:#000000;stroke-width:0.8;" x="23.84625" xlink:href="#md63a644f07" y="59.088472"/>
      </g>
     </g>
     <g id="line2d_38">
      <g>
       <use style="stroke:#000000;stroke-width:0.8;" x="107.54625" xlink:href="#mc3347bb0e8" y="59.088472"/>
      </g>
     </g>
     <g id="text_8">
      <!-- 200 -->
      <defs>
       <path d="M 50.34375 8.453125 
L 50.34375 0 
L 3.03125 0 
Q 2.9375 3.171875 4.046875 6.109375 
Q 5.859375 10.9375 9.828125 15.625 
Q 13.8125 20.3125 21.34375 26.46875 
Q 33.015625 36.03125 37.109375 41.625 
Q 41.21875 47.21875 41.21875 52.203125 
Q 41.21875 57.421875 37.46875 61 
Q 33.734375 64.59375 27.734375 64.59375 
Q 21.390625 64.59375 17.578125 60.78125 
Q 13.765625 56.984375 13.71875 50.25 
L 4.6875 51.171875 
Q 5.609375 61.28125 11.65625 66.578125 
Q 17.71875 71.875 27.9375 71.875 
Q 38.234375 71.875 44.234375 66.15625 
Q 50.25 60.453125 50.25 52 
Q 50.25 47.703125 48.484375 43.546875 
Q 46.734375 39.40625 42.65625 34.8125 
Q 38.578125 30.21875 29.109375 22.21875 
Q 21.1875 15.578125 18.9375 13.203125 
Q 16.703125 10.84375 15.234375 8.453125 
z
" id="ArialMT-50"/>
      </defs>
      <g transform="translate(9.5 61.951597)scale(0.08 -0.08)">
       <use xlink:href="#ArialMT-50"/>
       <use x="55.615234" xlink:href="#ArialMT-48"/>
       <use x="111.230469" xlink:href="#ArialMT-48"/>
      </g>
     </g>
    </g>
    <g id="ytick_3">
     <g id="line2d_39">
      <g>
       <use style="stroke:#000000;stroke-width:0.8;" x="23.84625" xlink:href="#md63a644f07" y="40.402706"/>
      </g>
     </g>
     <g id="line2d_40">
      <g>
       <use style="stroke:#000000;stroke-width:0.8;" x="107.54625" xlink:href="#mc3347bb0e8" y="40.402706"/>
      </g>
     </g>
     <g id="text_9">
      <!-- 400 -->
      <g transform="translate(9.5 43.265831)scale(0.08 -0.08)">
       <use xlink:href="#ArialMT-52"/>
       <use x="55.615234" xlink:href="#ArialMT-48"/>
       <use x="111.230469" xlink:href="#ArialMT-48"/>
      </g>
     </g>
    </g>
    <g id="ytick_4">
     <g id="line2d_41">
      <g>
       <use style="stroke:#000000;stroke-width:0.8;" x="23.84625" xlink:href="#md63a644f07" y="21.71694"/>
      </g>
     </g>
     <g id="line2d_42">
      <g>
       <use style="stroke:#000000;stroke-width:0.8;" x="107.54625" xlink:href="#mc3347bb0e8" y="21.71694"/>
      </g>
     </g>
     <g id="text_10">
      <!-- 600 -->
      <defs>
       <path d="M 49.75 54.046875 
L 41.015625 53.375 
Q 39.84375 58.546875 37.703125 60.890625 
Q 34.125 64.65625 28.90625 64.65625 
Q 24.703125 64.65625 21.53125 62.3125 
Q 17.390625 59.28125 14.984375 53.46875 
Q 12.59375 47.65625 12.5 36.921875 
Q 15.671875 41.75 20.265625 44.09375 
Q 24.859375 46.4375 29.890625 46.4375 
Q 38.671875 46.4375 44.84375 39.96875 
Q 51.03125 33.5 51.03125 23.25 
Q 51.03125 16.5 48.125 10.71875 
Q 45.21875 4.9375 40.140625 1.859375 
Q 35.0625 -1.21875 28.609375 -1.21875 
Q 17.625 -1.21875 10.6875 6.859375 
Q 3.765625 14.9375 3.765625 33.5 
Q 3.765625 54.25 11.421875 63.671875 
Q 18.109375 71.875 29.4375 71.875 
Q 37.890625 71.875 43.28125 67.140625 
Q 48.6875 62.40625 49.75 54.046875 
z
M 13.875 23.1875 
Q 13.875 18.65625 15.796875 14.5 
Q 17.71875 10.359375 21.1875 8.171875 
Q 24.65625 6 28.46875 6 
Q 34.03125 6 38.03125 10.484375 
Q 42.046875 14.984375 42.046875 22.703125 
Q 42.046875 30.125 38.078125 34.390625 
Q 34.125 38.671875 28.125 38.671875 
Q 22.171875 38.671875 18.015625 34.390625 
Q 13.875 30.125 13.875 23.1875 
z
" id="ArialMT-54"/>
      </defs>
      <g transform="translate(9.5 24.580065)scale(0.08 -0.08)">
       <use xlink:href="#ArialMT-54"/>
       <use x="55.615234" xlink:href="#ArialMT-48"/>
       <use x="111.230469" xlink:href="#ArialMT-48"/>
      </g>
     </g>
    </g>
    <g id="ytick_5">
     <g id="line2d_43">
      <g>
       <use style="stroke:#000000;stroke-width:0.8;" x="23.84625" xlink:href="#md63a644f07" y="3.031174"/>
      </g>
     </g>
     <g id="line2d_44">
      <g>
       <use style="stroke:#000000;stroke-width:0.8;" x="107.54625" xlink:href="#mc3347bb0e8" y="3.031174"/>
      </g>
     </g>
     <g id="text_11">
      <!-- 800 -->
      <g transform="translate(9.5 5.894299)scale(0.08 -0.08)">
       <use xlink:href="#ArialMT-56"/>
       <use x="55.615234" xlink:href="#ArialMT-48"/>
       <use x="111.230469" xlink:href="#ArialMT-48"/>
      </g>
     </g>
    </g>
    <g id="ytick_6">
     <g id="line2d_45">
      <defs>
       <path d="M 0 0 
L 2 0 
" id="m861306ab36" style="stroke:#000000;stroke-width:0.6;"/>
      </defs>
      <g>
       <use style="stroke:#000000;stroke-width:0.6;" x="23.84625" xlink:href="#m861306ab36" y="73.102796"/>
      </g>
     </g>
     <g id="line2d_46">
      <defs>
       <path d="M 0 0 
L -2 0 
" id="m49e3a3f803" style="stroke:#000000;stroke-width:0.6;"/>
      </defs>
      <g>
       <use style="stroke:#000000;stroke-width:0.6;" x="107.54625" xlink:href="#m49e3a3f803" y="73.102796"/>
      </g>
     </g>
    </g>
    <g id="ytick_7">
     <g id="line2d_47">
      <g>
       <use style="stroke:#000000;stroke-width:0.6;" x="23.84625" xlink:href="#m861306ab36" y="68.431355"/>
      </g>
     </g>
     <g id="line2d_48">
      <g>
       <use style="stroke:#000000;stroke-width:0.6;" x="107.54625" xlink:href="#m49e3a3f803" y="68.431355"/>
      </g>
     </g>
    </g>
    <g id="ytick_8">
     <g id="line2d_49">
      <g>
       <use style="stroke:#000000;stroke-width:0.6;" x="23.84625" xlink:href="#m861306ab36" y="63.759913"/>
      </g>
     </g>
     <g id="line2d_50">
      <g>
       <use style="stroke:#000000;stroke-width:0.6;" x="107.54625" xlink:href="#m49e3a3f803" y="63.759913"/>
      </g>
     </g>
    </g>
    <g id="ytick_9">
     <g id="line2d_51">
      <g>
       <use style="stroke:#000000;stroke-width:0.6;" x="23.84625" xlink:href="#m861306ab36" y="54.41703"/>
      </g>
     </g>
     <g id="line2d_52">
      <g>
       <use style="stroke:#000000;stroke-width:0.6;" x="107.54625" xlink:href="#m49e3a3f803" y="54.41703"/>
      </g>
     </g>
    </g>
    <g id="ytick_10">
     <g id="line2d_53">
      <g>
       <use style="stroke:#000000;stroke-width:0.6;" x="23.84625" xlink:href="#m861306ab36" y="49.745589"/>
      </g>
     </g>
     <g id="line2d_54">
      <g>
       <use style="stroke:#000000;stroke-width:0.6;" x="107.54625" xlink:href="#m49e3a3f803" y="49.745589"/>
      </g>
     </g>
    </g>
    <g id="ytick_11">
     <g id="line2d_55">
      <g>
       <use style="stroke:#000000;stroke-width:0.6;" x="23.84625" xlink:href="#m861306ab36" y="45.074147"/>
      </g>
     </g>
     <g id="line2d_56">
      <g>
       <use style="stroke:#000000;stroke-width:0.6;" x="107.54625" xlink:href="#m49e3a3f803" y="45.074147"/>
      </g>
     </g>
    </g>
    <g id="ytick_12">
     <g id="line2d_57">
      <g>
       <use style="stroke:#000000;stroke-width:0.6;" x="23.84625" xlink:href="#m861306ab36" y="35.731264"/>
      </g>
     </g>
     <g id="line2d_58">
      <g>
       <use style="stroke:#000000;stroke-width:0.6;" x="107.54625" xlink:href="#m49e3a3f803" y="35.731264"/>
      </g>
     </g>
    </g>
    <g id="ytick_13">
     <g id="line2d_59">
      <g>
       <use style="stroke:#000000;stroke-width:0.6;" x="23.84625" xlink:href="#m861306ab36" y="31.059823"/>
      </g>
     </g>
     <g id="line2d_60">
      <g>
       <use style="stroke:#000000;stroke-width:0.6;" x="107.54625" xlink:href="#m49e3a3f803" y="31.059823"/>
      </g>
     </g>
    </g>
    <g id="ytick_14">
     <g id="line2d_61">
      <g>
       <use style="stroke:#000000;stroke-width:0.6;" x="23.84625" xlink:href="#m861306ab36" y="26.388382"/>
      </g>
     </g>
     <g id="line2d_62">
      <g>
       <use style="stroke:#000000;stroke-width:0.6;" x="107.54625" xlink:href="#m49e3a3f803" y="26.388382"/>
      </g>
     </g>
    </g>
    <g id="ytick_15">
     <g id="line2d_63">
      <g>
       <use style="stroke:#000000;stroke-width:0.6;" x="23.84625" xlink:href="#m861306ab36" y="17.045499"/>
      </g>
     </g>
     <g id="line2d_64">
      <g>
       <use style="stroke:#000000;stroke-width:0.6;" x="107.54625" xlink:href="#m49e3a3f803" y="17.045499"/>
      </g>
     </g>
    </g>
    <g id="ytick_16">
     <g id="line2d_65">
      <g>
       <use style="stroke:#000000;stroke-width:0.6;" x="23.84625" xlink:href="#m861306ab36" y="12.374057"/>
      </g>
     </g>
     <g id="line2d_66">
      <g>
       <use style="stroke:#000000;stroke-width:0.6;" x="107.54625" xlink:href="#m49e3a3f803" y="12.374057"/>
      </g>
     </g>
    </g>
    <g id="ytick_17">
     <g id="line2d_67">
      <g>
       <use style="stroke:#000000;stroke-width:0.6;" x="23.84625" xlink:href="#m861306ab36" y="7.702616"/>
      </g>
     </g>
     <g id="line2d_68">
      <g>
       <use style="stroke:#000000;stroke-width:0.6;" x="107.54625" xlink:href="#m49e3a3f803" y="7.702616"/>
      </g>
     </g>
    </g>
    <g id="text_12">
     <!-- $\it{I_{D}}$ (nA) -->
     <defs>
      <path d="M 16.890625 72.90625 
L 26.8125 72.90625 
L 12.59375 0 
L 2.6875 0 
z
" id="DejaVuSans-Oblique-73"/>
      <path d="M 16.890625 72.90625 
L 38.09375 72.90625 
Q 54.984375 72.90625 63.59375 65.75 
Q 72.21875 58.59375 72.21875 44.484375 
Q 72.21875 35.15625 68.9375 26.53125 
Q 65.671875 17.921875 59.90625 12.015625 
Q 54.109375 5.953125 45.171875 2.96875 
Q 36.234375 0 24.03125 0 
L 2.6875 0 
z
M 25.203125 64.796875 
L 14.203125 8.109375 
L 27.09375 8.109375 
Q 43.65625 8.109375 52.734375 17.625 
Q 61.8125 27.15625 61.8125 44.484375 
Q 61.8125 54.984375 55.953125 59.890625 
Q 50.09375 64.796875 37.59375 64.796875 
z
" id="DejaVuSans-Oblique-68"/>
      <path d="M 6.59375 0 
L 6.59375 51.859375 
L 14.5 51.859375 
L 14.5 44.484375 
Q 20.21875 53.03125 31 53.03125 
Q 35.6875 53.03125 39.625 51.34375 
Q 43.5625 49.65625 45.515625 46.921875 
Q 47.46875 44.1875 48.25 40.4375 
Q 48.734375 37.984375 48.734375 31.890625 
L 48.734375 0 
L 39.9375 0 
L 39.9375 31.546875 
Q 39.9375 36.921875 38.90625 39.578125 
Q 37.890625 42.234375 35.28125 43.8125 
Q 32.671875 45.40625 29.15625 45.40625 
Q 23.53125 45.40625 19.453125 41.84375 
Q 15.375 38.28125 15.375 28.328125 
L 15.375 0 
z
" id="ArialMT-110"/>
      <path d="M -0.140625 0 
L 27.34375 71.578125 
L 37.546875 71.578125 
L 66.84375 0 
L 56.0625 0 
L 47.703125 21.6875 
L 17.78125 21.6875 
L 9.90625 0 
z
M 20.515625 29.390625 
L 44.78125 29.390625 
L 37.3125 49.21875 
Q 33.890625 58.25 32.234375 64.0625 
Q 30.859375 57.171875 28.375 50.390625 
z
" id="ArialMT-65"/>
     </defs>
     <g transform="translate(7.3 55.92)rotate(-90)scale(0.1 -0.1)">
      <use transform="translate(0 0.09375)" xlink:href="#DejaVuSans-Oblique-73"/>
      <use transform="translate(29.492188 -16.3125)scale(0.7)" xlink:href="#DejaVuSans-Oblique-68"/>
      <use transform="translate(86.12793 0.09375)" xlink:href="#ArialMT-32"/>
      <use transform="translate(113.911133 0.09375)" xlink:href="#ArialMT-40"/>
      <use transform="translate(147.211914 0.09375)" xlink:href="#ArialMT-110"/>
      <use transform="translate(202.827148 0.09375)" xlink:href="#ArialMT-65"/>
      <use transform="translate(269.526367 0.09375)" xlink:href="#ArialMT-41"/>
     </g>
    </g>
   </g>
   <g id="line2d_69">
    <path clip-path="url(#p346ad01f65)" d="M 27.650795 77.745681 
L 28.918977 77.768049 
L 30.187159 77.738788 
L 31.455341 77.750584 
L 32.723523 77.730739 
L 33.991705 77.715149 
L 35.259886 77.708602 
L 36.528068 77.759745 
L 37.79625 77.748223 
L 39.064432 77.768858 
L 40.332614 77.766274 
L 41.600795 77.738301 
L 42.868977 77.663969 
L 44.137159 77.614931 
L 45.405341 77.550665 
L 46.673523 77.460194 
L 47.941705 77.348502 
L 49.209886 77.068635 
L 50.478068 76.678439 
L 51.74625 76.444357 
L 53.014432 75.891505 
L 54.282614 75.419133 
L 55.550795 74.788009 
L 56.818977 74.301681 
L 58.087159 73.466357 
L 59.355341 72.578071 
L 60.623523 71.284139 
L 61.891705 67.793413 
L 63.159886 65.526027 
L 64.428068 62.503404 
L 65.69625 58.968637 
L 66.964432 56.111375 
L 68.232614 52.155969 
L 69.500795 48.506182 
L 70.768977 45.818943 
L 72.037159 43.009437 
L 73.305341 40.674522 
L 74.573523 38.255934 
L 75.841705 36.415671 
L 77.109886 33.571538 
L 78.378068 32.045558 
L 79.64625 29.851492 
L 80.914432 27.668222 
L 82.182614 25.961262 
L 83.450795 23.796354 
L 84.718977 22.671889 
L 85.987159 20.364153 
L 87.255341 19.817313 
L 88.523523 17.946364 
L 89.791705 15.402872 
L 91.059886 14.418122 
L 92.328068 13.13569 
L 93.59625 12.140813 
L 94.864432 10.145725 
L 96.132614 8.734418 
L 97.400795 7.974281 
L 98.668977 7.256674 
L 99.937159 5.728768 
L 101.205341 3.943571 
L 102.473523 4.214349 
L 103.741705 3.706364 
L 102.473523 8.530949 
L 101.205341 13.373161 
L 99.937159 17.032687 
L 98.668977 20.939597 
L 97.400795 24.864391 
L 96.132614 30.45052 
L 94.864432 32.758621 
L 93.59625 37.994638 
L 92.328068 42.806893 
L 91.059886 46.241647 
L 89.791705 50.765129 
L 88.523523 53.954126 
L 87.255341 57.126403 
L 85.987159 60.777787 
L 84.718977 63.963418 
L 83.450795 66.188946 
L 82.182614 68.560029 
L 80.914432 71.331384 
L 79.64625 72.699406 
L 78.378068 73.82733 
L 77.109886 74.620128 
L 75.841705 75.421873 
L 74.573523 76.088044 
L 73.305341 76.577427 
L 72.037159 76.98048 
L 70.768977 77.365504 
L 69.500795 77.527702 
L 68.232614 77.597449 
L 66.964432 77.668658 
L 65.69625 77.748968 
L 64.428068 77.718066 
L 63.159886 77.720887 
L 61.891705 77.730722 
L 60.623523 77.701881 
L 59.355341 77.740166 
L 58.087159 77.814881 
L 56.818977 77.699819 
L 55.550795 77.79095 
L 54.282614 77.733772 
L 53.014432 77.793513 
L 51.74625 77.809236 
L 50.478068 77.751672 
L 49.209886 77.788094 
L 47.941705 77.752516 
L 46.673523 77.767915 
L 45.405341 77.724247 
L 44.137159 77.794655 
L 42.868977 77.754162 
L 41.600795 77.779717 
L 40.332614 77.762781 
L 39.064432 77.750902 
L 37.79625 77.767621 
L 36.528068 77.813036 
L 35.259886 77.762299 
L 33.991705 77.744619 
L 32.723523 77.820888 
L 31.455341 77.741946 
L 30.187159 77.833636 
L 28.918977 77.768938 
L 27.650795 77.739875 
" style="fill:none;stroke:#377eb8;stroke-linecap:square;stroke-width:1.5;"/>
    <defs>
     <path d="M 0 0.75 
C 0.198902 0.75 0.389685 0.670975 0.53033 0.53033 
C 0.670975 0.389685 0.75 0.198902 0.75 0 
C 0.75 -0.198902 0.670975 -0.389685 0.53033 -0.53033 
C 0.389685 -0.670975 0.198902 -0.75 0 -0.75 
C -0.198902 -0.75 -0.389685 -0.670975 -0.53033 -0.53033 
C -0.670975 -0.389685 -0.75 -0.198902 -0.75 0 
C -0.75 0.198902 -0.670975 0.389685 -0.53033 0.53033 
C -0.389685 0.670975 -0.198902 0.75 0 0.75 
z
" id="mda3456a586" style="stroke:#377eb8;"/>
    </defs>
    <g clip-path="url(#p346ad01f65)">
     <use style="fill:#377eb8;stroke:#377eb8;" x="27.650795" xlink:href="#mda3456a586" y="77.745681"/>
     <use style="fill:#377eb8;stroke:#377eb8;" x="28.918977" xlink:href="#mda3456a586" y="77.768049"/>
     <use style="fill:#377eb8;stroke:#377eb8;" x="30.187159" xlink:href="#mda3456a586" y="77.738788"/>
     <use style="fill:#377eb8;stroke:#377eb8;" x="31.455341" xlink:href="#mda3456a586" y="77.750584"/>
     <use style="fill:#377eb8;stroke:#377eb8;" x="32.723523" xlink:href="#mda3456a586" y="77.730739"/>
     <use style="fill:#377eb8;stroke:#377eb8;" x="33.991705" xlink:href="#mda3456a586" y="77.715149"/>
     <use style="fill:#377eb8;stroke:#377eb8;" x="35.259886" xlink:href="#mda3456a586" y="77.708602"/>
     <use style="fill:#377eb8;stroke:#377eb8;" x="36.528068" xlink:href="#mda3456a586" y="77.759745"/>
     <use style="fill:#377eb8;stroke:#377eb8;" x="37.79625" xlink:href="#mda3456a586" y="77.748223"/>
     <use style="fill:#377eb8;stroke:#377eb8;" x="39.064432" xlink:href="#mda3456a586" y="77.768858"/>
     <use style="fill:#377eb8;stroke:#377eb8;" x="40.332614" xlink:href="#mda3456a586" y="77.766274"/>
     <use style="fill:#377eb8;stroke:#377eb8;" x="41.600795" xlink:href="#mda3456a586" y="77.738301"/>
     <use style="fill:#377eb8;stroke:#377eb8;" x="42.868977" xlink:href="#mda3456a586" y="77.663969"/>
     <use style="fill:#377eb8;stroke:#377eb8;" x="44.137159" xlink:href="#mda3456a586" y="77.614931"/>
     <use style="fill:#377eb8;stroke:#377eb8;" x="45.405341" xlink:href="#mda3456a586" y="77.550665"/>
     <use style="fill:#377eb8;stroke:#377eb8;" x="46.673523" xlink:href="#mda3456a586" y="77.460194"/>
     <use style="fill:#377eb8;stroke:#377eb8;" x="47.941705" xlink:href="#mda3456a586" y="77.348502"/>
     <use style="fill:#377eb8;stroke:#377eb8;" x="49.209886" xlink:href="#mda3456a586" y="77.068635"/>
     <use style="fill:#377eb8;stroke:#377eb8;" x="50.478068" xlink:href="#mda3456a586" y="76.678439"/>
     <use style="fill:#377eb8;stroke:#377eb8;" x="51.74625" xlink:href="#mda3456a586" y="76.444357"/>
     <use style="fill:#377eb8;stroke:#377eb8;" x="53.014432" xlink:href="#mda3456a586" y="75.891505"/>
     <use style="fill:#377eb8;stroke:#377eb8;" x="54.282614" xlink:href="#mda3456a586" y="75.419133"/>
     <use style="fill:#377eb8;stroke:#377eb8;" x="55.550795" xlink:href="#mda3456a586" y="74.788009"/>
     <use style="fill:#377eb8;stroke:#377eb8;" x="56.818977" xlink:href="#mda3456a586" y="74.301681"/>
     <use style="fill:#377eb8;stroke:#377eb8;" x="58.087159" xlink:href="#mda3456a586" y="73.466357"/>
     <use style="fill:#377eb8;stroke:#377eb8;" x="59.355341" xlink:href="#mda3456a586" y="72.578071"/>
     <use style="fill:#377eb8;stroke:#377eb8;" x="60.623523" xlink:href="#mda3456a586" y="71.284139"/>
     <use style="fill:#377eb8;stroke:#377eb8;" x="61.891705" xlink:href="#mda3456a586" y="67.793413"/>
     <use style="fill:#377eb8;stroke:#377eb8;" x="63.159886" xlink:href="#mda3456a586" y="65.526027"/>
     <use style="fill:#377eb8;stroke:#377eb8;" x="64.428068" xlink:href="#mda3456a586" y="62.503404"/>
     <use style="fill:#377eb8;stroke:#377eb8;" x="65.69625" xlink:href="#mda3456a586" y="58.968637"/>
     <use style="fill:#377eb8;stroke:#377eb8;" x="66.964432" xlink:href="#mda3456a586" y="56.111375"/>
     <use style="fill:#377eb8;stroke:#377eb8;" x="68.232614" xlink:href="#mda3456a586" y="52.155969"/>
     <use style="fill:#377eb8;stroke:#377eb8;" x="69.500795" xlink:href="#mda3456a586" y="48.506182"/>
     <use style="fill:#377eb8;stroke:#377eb8;" x="70.768977" xlink:href="#mda3456a586" y="45.818943"/>
     <use style="fill:#377eb8;stroke:#377eb8;" x="72.037159" xlink:href="#mda3456a586" y="43.009437"/>
     <use style="fill:#377eb8;stroke:#377eb8;" x="73.305341" xlink:href="#mda3456a586" y="40.674522"/>
     <use style="fill:#377eb8;stroke:#377eb8;" x="74.573523" xlink:href="#mda3456a586" y="38.255934"/>
     <use style="fill:#377eb8;stroke:#377eb8;" x="75.841705" xlink:href="#mda3456a586" y="36.415671"/>
     <use style="fill:#377eb8;stroke:#377eb8;" x="77.109886" xlink:href="#mda3456a586" y="33.571538"/>
     <use style="fill:#377eb8;stroke:#377eb8;" x="78.378068" xlink:href="#mda3456a586" y="32.045558"/>
     <use style="fill:#377eb8;stroke:#377eb8;" x="79.64625" xlink:href="#mda3456a586" y="29.851492"/>
     <use style="fill:#377eb8;stroke:#377eb8;" x="80.914432" xlink:href="#mda3456a586" y="27.668222"/>
     <use style="fill:#377eb8;stroke:#377eb8;" x="82.182614" xlink:href="#mda3456a586" y="25.961262"/>
     <use style="fill:#377eb8;stroke:#377eb8;" x="83.450795" xlink:href="#mda3456a586" y="23.796354"/>
     <use style="fill:#377eb8;stroke:#377eb8;" x="84.718977" xlink:href="#mda3456a586" y="22.671889"/>
     <use style="fill:#377eb8;stroke:#377eb8;" x="85.987159" xlink:href="#mda3456a586" y="20.364153"/>
     <use style="fill:#377eb8;stroke:#377eb8;" x="87.255341" xlink:href="#mda3456a586" y="19.817313"/>
     <use style="fill:#377eb8;stroke:#377eb8;" x="88.523523" xlink:href="#mda3456a586" y="17.946364"/>
     <use style="fill:#377eb8;stroke:#377eb8;" x="89.791705" xlink:href="#mda3456a586" y="15.402872"/>
     <use style="fill:#377eb8;stroke:#377eb8;" x="91.059886" xlink:href="#mda3456a586" y="14.418122"/>
     <use style="fill:#377eb8;stroke:#377eb8;" x="92.328068" xlink:href="#mda3456a586" y="13.13569"/>
     <use style="fill:#377eb8;stroke:#377eb8;" x="93.59625" xlink:href="#mda3456a586" y="12.140813"/>
     <use style="fill:#377eb8;stroke:#377eb8;" x="94.864432" xlink:href="#mda3456a586" y="10.145725"/>
     <use style="fill:#377eb8;stroke:#377eb8;" x="96.132614" xlink:href="#mda3456a586" y="8.734418"/>
     <use style="fill:#377eb8;stroke:#377eb8;" x="97.400795" xlink:href="#mda3456a586" y="7.974281"/>
     <use style="fill:#377eb8;stroke:#377eb8;" x="98.668977" xlink:href="#mda3456a586" y="7.256674"/>
     <use style="fill:#377eb8;stroke:#377eb8;" x="99.937159" xlink:href="#mda3456a586" y="5.728768"/>
     <use style="fill:#377eb8;stroke:#377eb8;" x="101.205341" xlink:href="#mda3456a586" y="3.943571"/>
     <use style="fill:#377eb8;stroke:#377eb8;" x="102.473523" xlink:href="#mda3456a586" y="4.214349"/>
     <use style="fill:#377eb8;stroke:#377eb8;" x="103.741705" xlink:href="#mda3456a586" y="3.706364"/>
     <use style="fill:#377eb8;stroke:#377eb8;" x="102.473523" xlink:href="#mda3456a586" y="8.530949"/>
     <use style="fill:#377eb8;stroke:#377eb8;" x="101.205341" xlink:href="#mda3456a586" y="13.373161"/>
     <use style="fill:#377eb8;stroke:#377eb8;" x="99.937159" xlink:href="#mda3456a586" y="17.032687"/>
     <use style="fill:#377eb8;stroke:#377eb8;" x="98.668977" xlink:href="#mda3456a586" y="20.939597"/>
     <use style="fill:#377eb8;stroke:#377eb8;" x="97.400795" xlink:href="#mda3456a586" y="24.864391"/>
     <use style="fill:#377eb8;stroke:#377eb8;" x="96.132614" xlink:href="#mda3456a586" y="30.45052"/>
     <use style="fill:#377eb8;stroke:#377eb8;" x="94.864432" xlink:href="#mda3456a586" y="32.758621"/>
     <use style="fill:#377eb8;stroke:#377eb8;" x="93.59625" xlink:href="#mda3456a586" y="37.994638"/>
     <use style="fill:#377eb8;stroke:#377eb8;" x="92.328068" xlink:href="#mda3456a586" y="42.806893"/>
     <use style="fill:#377eb8;stroke:#377eb8;" x="91.059886" xlink:href="#mda3456a586" y="46.241647"/>
     <use style="fill:#377eb8;stroke:#377eb8;" x="89.791705" xlink:href="#mda3456a586" y="50.765129"/>
     <use style="fill:#377eb8;stroke:#377eb8;" x="88.523523" xlink:href="#mda3456a586" y="53.954126"/>
     <use style="fill:#377eb8;stroke:#377eb8;" x="87.255341" xlink:href="#mda3456a586" y="57.126403"/>
     <use style="fill:#377eb8;stroke:#377eb8;" x="85.987159" xlink:href="#mda3456a586" y="60.777787"/>
     <use style="fill:#377eb8;stroke:#377eb8;" x="84.718977" xlink:href="#mda3456a586" y="63.963418"/>
     <use style="fill:#377eb8;stroke:#377eb8;" x="83.450795" xlink:href="#mda3456a586" y="66.188946"/>
     <use style="fill:#377eb8;stroke:#377eb8;" x="82.182614" xlink:href="#mda3456a586" y="68.560029"/>
     <use style="fill:#377eb8;stroke:#377eb8;" x="80.914432" xlink:href="#mda3456a586" y="71.331384"/>
     <use style="fill:#377eb8;stroke:#377eb8;" x="79.64625" xlink:href="#mda3456a586" y="72.699406"/>
     <use style="fill:#377eb8;stroke:#377eb8;" x="78.378068" xlink:href="#mda3456a586" y="73.82733"/>
     <use style="fill:#377eb8;stroke:#377eb8;" x="77.109886" xlink:href="#mda3456a586" y="74.620128"/>
     <use style="fill:#377eb8;stroke:#377eb8;" x="75.841705" xlink:href="#mda3456a586" y="75.421873"/>
     <use style="fill:#377eb8;stroke:#377eb8;" x="74.573523" xlink:href="#mda3456a586" y="76.088044"/>
     <use style="fill:#377eb8;stroke:#377eb8;" x="73.305341" xlink:href="#mda3456a586" y="76.577427"/>
     <use style="fill:#377eb8;stroke:#377eb8;" x="72.037159" xlink:href="#mda3456a586" y="76.98048"/>
     <use style="fill:#377eb8;stroke:#377eb8;" x="70.768977" xlink:href="#mda3456a586" y="77.365504"/>
     <use style="fill:#377eb8;stroke:#377eb8;" x="69.500795" xlink:href="#mda3456a586" y="77.527702"/>
     <use style="fill:#377eb8;stroke:#377eb8;" x="68.232614" xlink:href="#mda3456a586" y="77.597449"/>
     <use style="fill:#377eb8;stroke:#377eb8;" x="66.964432" xlink:href="#mda3456a586" y="77.668658"/>
     <use style="fill:#377eb8;stroke:#377eb8;" x="65.69625" xlink:href="#mda3456a586" y="77.748968"/>
     <use style="fill:#377eb8;stroke:#377eb8;" x="64.428068" xlink:href="#mda3456a586" y="77.718066"/>
     <use style="fill:#377eb8;stroke:#377eb8;" x="63.159886" xlink:href="#mda3456a586" y="77.720887"/>
     <use style="fill:#377eb8;stroke:#377eb8;" x="61.891705" xlink:href="#mda3456a586" y="77.730722"/>
     <use style="fill:#377eb8;stroke:#377eb8;" x="60.623523" xlink:href="#mda3456a586" y="77.701881"/>
     <use style="fill:#377eb8;stroke:#377eb8;" x="59.355341" xlink:href="#mda3456a586" y="77.740166"/>
     <use style="fill:#377eb8;stroke:#377eb8;" x="58.087159" xlink:href="#mda3456a586" y="77.814881"/>
     <use style="fill:#377eb8;stroke:#377eb8;" x="56.818977" xlink:href="#mda3456a586" y="77.699819"/>
     <use style="fill:#377eb8;stroke:#377eb8;" x="55.550795" xlink:href="#mda3456a586" y="77.79095"/>
     <use style="fill:#377eb8;stroke:#377eb8;" x="54.282614" xlink:href="#mda3456a586" y="77.733772"/>
     <use style="fill:#377eb8;stroke:#377eb8;" x="53.014432" xlink:href="#mda3456a586" y="77.793513"/>
     <use style="fill:#377eb8;stroke:#377eb8;" x="51.74625" xlink:href="#mda3456a586" y="77.809236"/>
     <use style="fill:#377eb8;stroke:#377eb8;" x="50.478068" xlink:href="#mda3456a586" y="77.751672"/>
     <use style="fill:#377eb8;stroke:#377eb8;" x="49.209886" xlink:href="#mda3456a586" y="77.788094"/>
     <use style="fill:#377eb8;stroke:#377eb8;" x="47.941705" xlink:href="#mda3456a586" y="77.752516"/>
     <use style="fill:#377eb8;stroke:#377eb8;" x="46.673523" xlink:href="#mda3456a586" y="77.767915"/>
     <use style="fill:#377eb8;stroke:#377eb8;" x="45.405341" xlink:href="#mda3456a586" y="77.724247"/>
     <use style="fill:#377eb8;stroke:#377eb8;" x="44.137159" xlink:href="#mda3456a586" y="77.794655"/>
     <use style="fill:#377eb8;stroke:#377eb8;" x="42.868977" xlink:href="#mda3456a586" y="77.754162"/>
     <use style="fill:#377eb8;stroke:#377eb8;" x="41.600795" xlink:href="#mda3456a586" y="77.779717"/>
     <use style="fill:#377eb8;stroke:#377eb8;" x="40.332614" xlink:href="#mda3456a586" y="77.762781"/>
     <use style="fill:#377eb8;stroke:#377eb8;" x="39.064432" xlink:href="#mda3456a586" y="77.750902"/>
     <use style="fill:#377eb8;stroke:#377eb8;" x="37.79625" xlink:href="#mda3456a586" y="77.767621"/>
     <use style="fill:#377eb8;stroke:#377eb8;" x="36.528068" xlink:href="#mda3456a586" y="77.813036"/>
     <use style="fill:#377eb8;stroke:#377eb8;" x="35.259886" xlink:href="#mda3456a586" y="77.762299"/>
     <use style="fill:#377eb8;stroke:#377eb8;" x="33.991705" xlink:href="#mda3456a586" y="77.744619"/>
     <use style="fill:#377eb8;stroke:#377eb8;" x="32.723523" xlink:href="#mda3456a586" y="77.820888"/>
     <use style="fill:#377eb8;stroke:#377eb8;" x="31.455341" xlink:href="#mda3456a586" y="77.741946"/>
     <use style="fill:#377eb8;stroke:#377eb8;" x="30.187159" xlink:href="#mda3456a586" y="77.833636"/>
     <use style="fill:#377eb8;stroke:#377eb8;" x="28.918977" xlink:href="#mda3456a586" y="77.768938"/>
     <use style="fill:#377eb8;stroke:#377eb8;" x="27.650795" xlink:href="#mda3456a586" y="77.739875"/>
    </g>
   </g>
   <g id="patch_3">
    <path d="M 23.84625 81.54 
L 23.84625 0 
" style="fill:none;stroke:#000000;stroke-linecap:square;stroke-linejoin:miter;stroke-width:0.8;"/>
   </g>
   <g id="patch_4">
    <path d="M 107.54625 81.54 
L 107.54625 0 
" style="fill:none;stroke:#000000;stroke-linecap:square;stroke-linejoin:miter;stroke-width:0.8;"/>
   </g>
   <g id="patch_5">
    <path d="M 23.84625 81.54 
L 107.54625 81.54 
" style="fill:none;stroke:#000000;stroke-linecap:square;stroke-linejoin:miter;stroke-width:0.8;"/>
   </g>
   <g id="patch_6">
    <path d="M 23.84625 0 
L 107.54625 0 
" style="fill:none;stroke:#000000;stroke-linecap:square;stroke-linejoin:miter;stroke-width:0.8;"/>
   </g>
  </g>
 </g>
 <defs>
  <clipPath id="p346ad01f65">
   <rect height="81.54" width="83.7" x="23.84625" y="0"/>
  </clipPath>
 </defs>
</svg>
