<?xml version="1.0" encoding="utf-8" standalone="no"?>
<!DOCTYPE svg PUBLIC "-//W3C//DTD SVG 1.1//EN"
  "http://www.w3.org/Graphics/SVG/1.1/DTD/svg11.dtd">
<!-- Created with matplotlib (https://matplotlib.org/) -->
<svg height="99.35625pt" version="1.1" viewBox="0 0 112.949318 99.35625" width="112.949318pt" xmlns="http://www.w3.org/2000/svg" xmlns:xlink="http://www.w3.org/1999/xlink">
 <defs>
  <style type="text/css">
*{stroke-linecap:butt;stroke-linejoin:round;white-space:pre;}
  </style>
 </defs>
 <g id="figure_1">
  <g id="patch_1">
   <path d="M 0 99.35625 
L 112.949318 99.35625 
L 112.949318 0 
L 0 0 
z
" style="fill:none;"/>
  </g>
  <g id="axes_1">
   <g id="patch_2">
    <path d="M 26.06875 81.54 
L 109.76875 81.54 
L 109.76875 0 
L 26.06875 0 
z
" style="fill:none;"/>
   </g>
   <g id="matplotlib.axis_1">
    <g id="xtick_1">
     <g id="line2d_1">
      <defs>
       <path d="M 0 0 
L 0 -3.5 
" id="m625fdfa68b" style="stroke:#000000;stroke-width:0.8;"/>
      </defs>
      <g>
       <use style="stroke:#000000;stroke-width:0.8;" x="27.336932" xlink:href="#m625fdfa68b" y="81.54"/>
      </g>
     </g>
     <g id="line2d_2">
      <defs>
       <path d="M 0 0 
L 0 3.5 
" id="m79d16ff70e" style="stroke:#000000;stroke-width:0.8;"/>
      </defs>
      <g>
       <use style="stroke:#000000;stroke-width:0.8;" x="27.336932" xlink:href="#m79d16ff70e" y="0"/>
      </g>
     </g>
     <g id="text_1">
      <!-- −80 -->
      <defs>
       <path d="M 52.828125 31.203125 
L 5.5625 31.203125 
L 5.5625 39.40625 
L 52.828125 39.40625 
z
" id="ArialMT-8722"/>
       <path d="M 17.671875 38.8125 
Q 12.203125 40.828125 9.5625 44.53125 
Q 6.9375 48.25 6.9375 53.421875 
Q 6.9375 61.234375 12.546875 66.546875 
Q 18.171875 71.875 27.484375 71.875 
Q 36.859375 71.875 42.578125 66.421875 
Q 48.296875 60.984375 48.296875 53.171875 
Q 48.296875 48.1875 45.671875 44.5 
Q 43.0625 40.828125 37.75 38.8125 
Q 44.34375 36.671875 47.78125 31.875 
Q 51.21875 27.09375 51.21875 20.453125 
Q 51.21875 11.28125 44.71875 5.03125 
Q 38.234375 -1.21875 27.640625 -1.21875 
Q 17.046875 -1.21875 10.546875 5.046875 
Q 4.046875 11.328125 4.046875 20.703125 
Q 4.046875 27.6875 7.59375 32.390625 
Q 11.140625 37.109375 17.671875 38.8125 
z
M 15.921875 53.71875 
Q 15.921875 48.640625 19.1875 45.40625 
Q 22.46875 42.1875 27.6875 42.1875 
Q 32.765625 42.1875 36.015625 45.375 
Q 39.265625 48.578125 39.265625 53.21875 
Q 39.265625 58.0625 35.90625 61.359375 
Q 32.5625 64.65625 27.59375 64.65625 
Q 22.5625 64.65625 19.234375 61.421875 
Q 15.921875 58.203125 15.921875 53.71875 
z
M 13.09375 20.65625 
Q 13.09375 16.890625 14.875 13.375 
Q 16.65625 9.859375 20.171875 7.921875 
Q 23.6875 6 27.734375 6 
Q 34.03125 6 38.125 10.046875 
Q 42.234375 14.109375 42.234375 20.359375 
Q 42.234375 26.703125 38.015625 30.859375 
Q 33.796875 35.015625 27.4375 35.015625 
Q 21.234375 35.015625 17.15625 30.90625 
Q 13.09375 26.8125 13.09375 20.65625 
z
" id="ArialMT-56"/>
       <path d="M 4.15625 35.296875 
Q 4.15625 48 6.765625 55.734375 
Q 9.375 63.484375 14.515625 67.671875 
Q 19.671875 71.875 27.484375 71.875 
Q 33.25 71.875 37.59375 69.546875 
Q 41.9375 67.234375 44.765625 62.859375 
Q 47.609375 58.5 49.21875 52.21875 
Q 50.828125 45.953125 50.828125 35.296875 
Q 50.828125 22.703125 48.234375 14.96875 
Q 45.65625 7.234375 40.5 3 
Q 35.359375 -1.21875 27.484375 -1.21875 
Q 17.140625 -1.21875 11.234375 6.203125 
Q 4.15625 15.140625 4.15625 35.296875 
z
M 13.1875 35.296875 
Q 13.1875 17.671875 17.3125 11.828125 
Q 21.4375 6 27.484375 6 
Q 33.546875 6 37.671875 11.859375 
Q 41.796875 17.71875 41.796875 35.296875 
Q 41.796875 52.984375 37.671875 58.78125 
Q 33.546875 64.59375 27.390625 64.59375 
Q 21.34375 64.59375 17.71875 59.46875 
Q 13.1875 52.9375 13.1875 35.296875 
z
" id="ArialMT-48"/>
      </defs>
      <g transform="translate(20.551932 88.26625)scale(0.08 -0.08)">
       <use xlink:href="#ArialMT-8722"/>
       <use x="58.398438" xlink:href="#ArialMT-56"/>
       <use x="114.013672" xlink:href="#ArialMT-48"/>
      </g>
     </g>
    </g>
    <g id="xtick_2">
     <g id="line2d_3">
      <g>
       <use style="stroke:#000000;stroke-width:0.8;" x="47.627841" xlink:href="#m625fdfa68b" y="81.54"/>
      </g>
     </g>
     <g id="line2d_4">
      <g>
       <use style="stroke:#000000;stroke-width:0.8;" x="47.627841" xlink:href="#m79d16ff70e" y="0"/>
      </g>
     </g>
     <g id="text_2">
      <!-- −40 -->
      <defs>
       <path d="M 32.328125 0 
L 32.328125 17.140625 
L 1.265625 17.140625 
L 1.265625 25.203125 
L 33.9375 71.578125 
L 41.109375 71.578125 
L 41.109375 25.203125 
L 50.78125 25.203125 
L 50.78125 17.140625 
L 41.109375 17.140625 
L 41.109375 0 
z
M 32.328125 25.203125 
L 32.328125 57.46875 
L 9.90625 25.203125 
z
" id="ArialMT-52"/>
      </defs>
      <g transform="translate(40.842841 88.26625)scale(0.08 -0.08)">
       <use xlink:href="#ArialMT-8722"/>
       <use x="58.398438" xlink:href="#ArialMT-52"/>
       <use x="114.013672" xlink:href="#ArialMT-48"/>
      </g>
     </g>
    </g>
    <g id="xtick_3">
     <g id="line2d_5">
      <g>
       <use style="stroke:#000000;stroke-width:0.8;" x="67.91875" xlink:href="#m625fdfa68b" y="81.54"/>
      </g>
     </g>
     <g id="line2d_6">
      <g>
       <use style="stroke:#000000;stroke-width:0.8;" x="67.91875" xlink:href="#m79d16ff70e" y="0"/>
      </g>
     </g>
     <g id="text_3">
      <!-- 0 -->
      <g transform="translate(65.694375 88.26625)scale(0.08 -0.08)">
       <use xlink:href="#ArialMT-48"/>
      </g>
     </g>
    </g>
    <g id="xtick_4">
     <g id="line2d_7">
      <g>
       <use style="stroke:#000000;stroke-width:0.8;" x="88.209659" xlink:href="#m625fdfa68b" y="81.54"/>
      </g>
     </g>
     <g id="line2d_8">
      <g>
       <use style="stroke:#000000;stroke-width:0.8;" x="88.209659" xlink:href="#m79d16ff70e" y="0"/>
      </g>
     </g>
     <g id="text_4">
      <!-- 40 -->
      <g transform="translate(83.760909 88.26625)scale(0.08 -0.08)">
       <use xlink:href="#ArialMT-52"/>
       <use x="55.615234" xlink:href="#ArialMT-48"/>
      </g>
     </g>
    </g>
    <g id="xtick_5">
     <g id="line2d_9">
      <g>
       <use style="stroke:#000000;stroke-width:0.8;" x="108.500568" xlink:href="#m625fdfa68b" y="81.54"/>
      </g>
     </g>
     <g id="line2d_10">
      <g>
       <use style="stroke:#000000;stroke-width:0.8;" x="108.500568" xlink:href="#m79d16ff70e" y="0"/>
      </g>
     </g>
     <g id="text_5">
      <!-- 80 -->
      <g transform="translate(104.051818 88.26625)scale(0.08 -0.08)">
       <use xlink:href="#ArialMT-56"/>
       <use x="55.615234" xlink:href="#ArialMT-48"/>
      </g>
     </g>
    </g>
    <g id="xtick_6">
     <g id="line2d_11">
      <defs>
       <path d="M 0 0 
L 0 -2 
" id="m4da1223c30" style="stroke:#000000;stroke-width:0.6;"/>
      </defs>
      <g>
       <use style="stroke:#000000;stroke-width:0.6;" x="32.409659" xlink:href="#m4da1223c30" y="81.54"/>
      </g>
     </g>
     <g id="line2d_12">
      <defs>
       <path d="M 0 0 
L 0 2 
" id="m9b67d1b4ce" style="stroke:#000000;stroke-width:0.6;"/>
      </defs>
      <g>
       <use style="stroke:#000000;stroke-width:0.6;" x="32.409659" xlink:href="#m9b67d1b4ce" y="0"/>
      </g>
     </g>
    </g>
    <g id="xtick_7">
     <g id="line2d_13">
      <g>
       <use style="stroke:#000000;stroke-width:0.6;" x="37.482386" xlink:href="#m4da1223c30" y="81.54"/>
      </g>
     </g>
     <g id="line2d_14">
      <g>
       <use style="stroke:#000000;stroke-width:0.6;" x="37.482386" xlink:href="#m9b67d1b4ce" y="0"/>
      </g>
     </g>
    </g>
    <g id="xtick_8">
     <g id="line2d_15">
      <g>
       <use style="stroke:#000000;stroke-width:0.6;" x="42.555114" xlink:href="#m4da1223c30" y="81.54"/>
      </g>
     </g>
     <g id="line2d_16">
      <g>
       <use style="stroke:#000000;stroke-width:0.6;" x="42.555114" xlink:href="#m9b67d1b4ce" y="0"/>
      </g>
     </g>
    </g>
    <g id="xtick_9">
     <g id="line2d_17">
      <g>
       <use style="stroke:#000000;stroke-width:0.6;" x="52.700568" xlink:href="#m4da1223c30" y="81.54"/>
      </g>
     </g>
     <g id="line2d_18">
      <g>
       <use style="stroke:#000000;stroke-width:0.6;" x="52.700568" xlink:href="#m9b67d1b4ce" y="0"/>
      </g>
     </g>
    </g>
    <g id="xtick_10">
     <g id="line2d_19">
      <g>
       <use style="stroke:#000000;stroke-width:0.6;" x="57.773295" xlink:href="#m4da1223c30" y="81.54"/>
      </g>
     </g>
     <g id="line2d_20">
      <g>
       <use style="stroke:#000000;stroke-width:0.6;" x="57.773295" xlink:href="#m9b67d1b4ce" y="0"/>
      </g>
     </g>
    </g>
    <g id="xtick_11">
     <g id="line2d_21">
      <g>
       <use style="stroke:#000000;stroke-width:0.6;" x="62.846023" xlink:href="#m4da1223c30" y="81.54"/>
      </g>
     </g>
     <g id="line2d_22">
      <g>
       <use style="stroke:#000000;stroke-width:0.6;" x="62.846023" xlink:href="#m9b67d1b4ce" y="0"/>
      </g>
     </g>
    </g>
    <g id="xtick_12">
     <g id="line2d_23">
      <g>
       <use style="stroke:#000000;stroke-width:0.6;" x="72.991477" xlink:href="#m4da1223c30" y="81.54"/>
      </g>
     </g>
     <g id="line2d_24">
      <g>
       <use style="stroke:#000000;stroke-width:0.6;" x="72.991477" xlink:href="#m9b67d1b4ce" y="0"/>
      </g>
     </g>
    </g>
    <g id="xtick_13">
     <g id="line2d_25">
      <g>
       <use style="stroke:#000000;stroke-width:0.6;" x="78.064205" xlink:href="#m4da1223c30" y="81.54"/>
      </g>
     </g>
     <g id="line2d_26">
      <g>
       <use style="stroke:#000000;stroke-width:0.6;" x="78.064205" xlink:href="#m9b67d1b4ce" y="0"/>
      </g>
     </g>
    </g>
    <g id="xtick_14">
     <g id="line2d_27">
      <g>
       <use style="stroke:#000000;stroke-width:0.6;" x="83.136932" xlink:href="#m4da1223c30" y="81.54"/>
      </g>
     </g>
     <g id="line2d_28">
      <g>
       <use style="stroke:#000000;stroke-width:0.6;" x="83.136932" xlink:href="#m9b67d1b4ce" y="0"/>
      </g>
     </g>
    </g>
    <g id="xtick_15">
     <g id="line2d_29">
      <g>
       <use style="stroke:#000000;stroke-width:0.6;" x="93.282386" xlink:href="#m4da1223c30" y="81.54"/>
      </g>
     </g>
     <g id="line2d_30">
      <g>
       <use style="stroke:#000000;stroke-width:0.6;" x="93.282386" xlink:href="#m9b67d1b4ce" y="0"/>
      </g>
     </g>
    </g>
    <g id="xtick_16">
     <g id="line2d_31">
      <g>
       <use style="stroke:#000000;stroke-width:0.6;" x="98.355114" xlink:href="#m4da1223c30" y="81.54"/>
      </g>
     </g>
     <g id="line2d_32">
      <g>
       <use style="stroke:#000000;stroke-width:0.6;" x="98.355114" xlink:href="#m9b67d1b4ce" y="0"/>
      </g>
     </g>
    </g>
    <g id="xtick_17">
     <g id="line2d_33">
      <g>
       <use style="stroke:#000000;stroke-width:0.6;" x="103.427841" xlink:href="#m4da1223c30" y="81.54"/>
      </g>
     </g>
     <g id="line2d_34">
      <g>
       <use style="stroke:#000000;stroke-width:0.6;" x="103.427841" xlink:href="#m9b67d1b4ce" y="0"/>
      </g>
     </g>
    </g>
    <g id="text_6">
     <!-- $\it{V_{G}}$ (V) -->
     <defs>
      <path d="M 20.609375 0 
L 7.8125 72.90625 
L 17.484375 72.90625 
L 28.078125 10.203125 
L 63.484375 72.90625 
L 74.21875 72.90625 
L 32.078125 0 
z
" id="DejaVuSans-Oblique-86"/>
      <path d="M 54.59375 10.890625 
L 58.40625 29.984375 
L 42.1875 29.984375 
L 43.703125 38.09375 
L 69.578125 38.09375 
L 63.28125 6 
Q 56.78125 2.4375 49.109375 0.5 
Q 41.453125 -1.421875 33.6875 -1.421875 
Q 19.96875 -1.421875 12.234375 6.1875 
Q 4.5 13.8125 4.5 27.390625 
Q 4.5 38.671875 9.203125 48.84375 
Q 13.921875 59.03125 22.21875 65.828125 
Q 27.4375 70.0625 33.640625 72.140625 
Q 39.84375 74.21875 47.40625 74.21875 
Q 54.25 74.21875 60.515625 72.484375 
Q 66.796875 70.75 72.515625 67.28125 
L 70.515625 56.78125 
Q 66.109375 61.375 60.203125 63.796875 
Q 54.296875 66.21875 47.609375 66.21875 
Q 39.84375 66.21875 33.9375 63.25 
Q 28.03125 60.296875 23.390625 54.109375 
Q 19.4375 48.828125 17.15625 41.671875 
Q 14.890625 34.515625 14.890625 27.09375 
Q 14.890625 16.890625 20.109375 11.734375 
Q 25.34375 6.59375 35.6875 6.59375 
Q 40.875 6.59375 45.703125 7.6875 
Q 50.53125 8.796875 54.59375 10.890625 
z
" id="DejaVuSans-Oblique-71"/>
      <path id="ArialMT-32"/>
      <path d="M 23.390625 -21.046875 
Q 16.109375 -11.859375 11.078125 0.4375 
Q 6.0625 12.75 6.0625 25.921875 
Q 6.0625 37.546875 9.8125 48.1875 
Q 14.203125 60.546875 23.390625 72.796875 
L 29.6875 72.796875 
Q 23.78125 62.640625 21.875 58.296875 
Q 18.890625 51.5625 17.1875 44.234375 
Q 15.09375 35.109375 15.09375 25.875 
Q 15.09375 2.390625 29.6875 -21.046875 
z
" id="ArialMT-40"/>
      <path d="M 28.171875 0 
L 0.4375 71.578125 
L 10.6875 71.578125 
L 29.296875 19.578125 
Q 31.546875 13.328125 33.0625 7.859375 
Q 34.71875 13.71875 36.921875 19.578125 
L 56.25 71.578125 
L 65.921875 71.578125 
L 37.890625 0 
z
" id="ArialMT-86"/>
      <path d="M 12.359375 -21.046875 
L 6.0625 -21.046875 
Q 20.65625 2.390625 20.65625 25.875 
Q 20.65625 35.0625 18.5625 44.09375 
Q 16.890625 51.421875 13.921875 58.15625 
Q 12.015625 62.546875 6.0625 72.796875 
L 12.359375 72.796875 
Q 21.53125 60.546875 25.921875 48.1875 
Q 29.6875 37.546875 29.6875 25.921875 
Q 29.6875 12.75 24.625 0.4375 
Q 19.578125 -11.859375 12.359375 -21.046875 
z
" id="ArialMT-41"/>
     </defs>
     <g transform="translate(53.56875 97.15625)scale(0.1 -0.1)">
      <use transform="translate(0 0.09375)" xlink:href="#DejaVuSans-Oblique-86"/>
      <use transform="translate(68.408203 -16.3125)scale(0.7)" xlink:href="#DejaVuSans-Oblique-71"/>
      <use transform="translate(125.385742 0.09375)" xlink:href="#ArialMT-32"/>
      <use transform="translate(153.168945 0.09375)" xlink:href="#ArialMT-40"/>
      <use transform="translate(186.469727 0.09375)" xlink:href="#ArialMT-86"/>
      <use transform="translate(253.168945 0.09375)" xlink:href="#ArialMT-41"/>
     </g>
    </g>
   </g>
   <g id="matplotlib.axis_2">
    <g id="ytick_1">
     <g id="line2d_35">
      <defs>
       <path d="M 0 0 
L 3.5 0 
" id="mc443838b97" style="stroke:#000000;stroke-width:0.8;"/>
      </defs>
      <g>
       <use style="stroke:#000000;stroke-width:0.8;" x="26.06875" xlink:href="#mc443838b97" y="77.754114"/>
      </g>
     </g>
     <g id="line2d_36">
      <defs>
       <path d="M 0 0 
L -3.5 0 
" id="m6cc5d11fcc" style="stroke:#000000;stroke-width:0.8;"/>
      </defs>
      <g>
       <use style="stroke:#000000;stroke-width:0.8;" x="109.76875" xlink:href="#m6cc5d11fcc" y="77.754114"/>
      </g>
     </g>
     <g id="text_7">
      <!-- 0.00 -->
      <defs>
       <path d="M 9.078125 0 
L 9.078125 10.015625 
L 19.09375 10.015625 
L 19.09375 0 
z
" id="ArialMT-46"/>
      </defs>
      <g transform="translate(9.5 80.617239)scale(0.08 -0.08)">
       <use xlink:href="#ArialMT-48"/>
       <use x="55.615234" xlink:href="#ArialMT-46"/>
       <use x="83.398438" xlink:href="#ArialMT-48"/>
       <use x="139.013672" xlink:href="#ArialMT-48"/>
      </g>
     </g>
    </g>
    <g id="ytick_2">
     <g id="line2d_37">
      <g>
       <use style="stroke:#000000;stroke-width:0.8;" x="26.06875" xlink:href="#mc443838b97" y="60.525683"/>
      </g>
     </g>
     <g id="line2d_38">
      <g>
       <use style="stroke:#000000;stroke-width:0.8;" x="109.76875" xlink:href="#m6cc5d11fcc" y="60.525683"/>
      </g>
     </g>
     <g id="text_8">
      <!-- 0.25 -->
      <defs>
       <path d="M 50.34375 8.453125 
L 50.34375 0 
L 3.03125 0 
Q 2.9375 3.171875 4.046875 6.109375 
Q 5.859375 10.9375 9.828125 15.625 
Q 13.8125 20.3125 21.34375 26.46875 
Q 33.015625 36.03125 37.109375 41.625 
Q 41.21875 47.21875 41.21875 52.203125 
Q 41.21875 57.421875 37.46875 61 
Q 33.734375 64.59375 27.734375 64.59375 
Q 21.390625 64.59375 17.578125 60.78125 
Q 13.765625 56.984375 13.71875 50.25 
L 4.6875 51.171875 
Q 5.609375 61.28125 11.65625 66.578125 
Q 17.71875 71.875 27.9375 71.875 
Q 38.234375 71.875 44.234375 66.15625 
Q 50.25 60.453125 50.25 52 
Q 50.25 47.703125 48.484375 43.546875 
Q 46.734375 39.40625 42.65625 34.8125 
Q 38.578125 30.21875 29.109375 22.21875 
Q 21.1875 15.578125 18.9375 13.203125 
Q 16.703125 10.84375 15.234375 8.453125 
z
" id="ArialMT-50"/>
       <path d="M 4.15625 18.75 
L 13.375 19.53125 
Q 14.40625 12.796875 18.140625 9.390625 
Q 21.875 6 27.15625 6 
Q 33.5 6 37.890625 10.78125 
Q 42.28125 15.578125 42.28125 23.484375 
Q 42.28125 31 38.0625 35.34375 
Q 33.84375 39.703125 27 39.703125 
Q 22.75 39.703125 19.328125 37.765625 
Q 15.921875 35.84375 13.96875 32.765625 
L 5.71875 33.84375 
L 12.640625 70.609375 
L 48.25 70.609375 
L 48.25 62.203125 
L 19.671875 62.203125 
L 15.828125 42.96875 
Q 22.265625 47.46875 29.34375 47.46875 
Q 38.71875 47.46875 45.15625 40.96875 
Q 51.609375 34.46875 51.609375 24.265625 
Q 51.609375 14.546875 45.953125 7.46875 
Q 39.0625 -1.21875 27.15625 -1.21875 
Q 17.390625 -1.21875 11.203125 4.25 
Q 5.03125 9.71875 4.15625 18.75 
z
" id="ArialMT-53"/>
      </defs>
      <g transform="translate(9.5 63.388808)scale(0.08 -0.08)">
       <use xlink:href="#ArialMT-48"/>
       <use x="55.615234" xlink:href="#ArialMT-46"/>
       <use x="83.398438" xlink:href="#ArialMT-50"/>
       <use x="139.013672" xlink:href="#ArialMT-53"/>
      </g>
     </g>
    </g>
    <g id="ytick_3">
     <g id="line2d_39">
      <g>
       <use style="stroke:#000000;stroke-width:0.8;" x="26.06875" xlink:href="#mc443838b97" y="43.297251"/>
      </g>
     </g>
     <g id="line2d_40">
      <g>
       <use style="stroke:#000000;stroke-width:0.8;" x="109.76875" xlink:href="#m6cc5d11fcc" y="43.297251"/>
      </g>
     </g>
     <g id="text_9">
      <!-- 0.50 -->
      <g transform="translate(9.5 46.160376)scale(0.08 -0.08)">
       <use xlink:href="#ArialMT-48"/>
       <use x="55.615234" xlink:href="#ArialMT-46"/>
       <use x="83.398438" xlink:href="#ArialMT-53"/>
       <use x="139.013672" xlink:href="#ArialMT-48"/>
      </g>
     </g>
    </g>
    <g id="ytick_4">
     <g id="line2d_41">
      <g>
       <use style="stroke:#000000;stroke-width:0.8;" x="26.06875" xlink:href="#mc443838b97" y="26.06882"/>
      </g>
     </g>
     <g id="line2d_42">
      <g>
       <use style="stroke:#000000;stroke-width:0.8;" x="109.76875" xlink:href="#m6cc5d11fcc" y="26.06882"/>
      </g>
     </g>
     <g id="text_10">
      <!-- 0.75 -->
      <defs>
       <path d="M 4.734375 62.203125 
L 4.734375 70.65625 
L 51.078125 70.65625 
L 51.078125 63.8125 
Q 44.234375 56.546875 37.515625 44.484375 
Q 30.8125 32.421875 27.15625 19.671875 
Q 24.515625 10.6875 23.78125 0 
L 14.75 0 
Q 14.890625 8.453125 18.0625 20.40625 
Q 21.234375 32.375 27.171875 43.484375 
Q 33.109375 54.59375 39.796875 62.203125 
z
" id="ArialMT-55"/>
      </defs>
      <g transform="translate(9.5 28.931945)scale(0.08 -0.08)">
       <use xlink:href="#ArialMT-48"/>
       <use x="55.615234" xlink:href="#ArialMT-46"/>
       <use x="83.398438" xlink:href="#ArialMT-55"/>
       <use x="139.013672" xlink:href="#ArialMT-53"/>
      </g>
     </g>
    </g>
    <g id="ytick_5">
     <g id="line2d_43">
      <g>
       <use style="stroke:#000000;stroke-width:0.8;" x="26.06875" xlink:href="#mc443838b97" y="8.840388"/>
      </g>
     </g>
     <g id="line2d_44">
      <g>
       <use style="stroke:#000000;stroke-width:0.8;" x="109.76875" xlink:href="#m6cc5d11fcc" y="8.840388"/>
      </g>
     </g>
     <g id="text_11">
      <!-- 1.00 -->
      <defs>
       <path d="M 37.25 0 
L 28.46875 0 
L 28.46875 56 
Q 25.296875 52.984375 20.140625 49.953125 
Q 14.984375 46.921875 10.890625 45.40625 
L 10.890625 53.90625 
Q 18.265625 57.375 23.78125 62.296875 
Q 29.296875 67.234375 31.59375 71.875 
L 37.25 71.875 
z
" id="ArialMT-49"/>
      </defs>
      <g transform="translate(9.5 11.703513)scale(0.08 -0.08)">
       <use xlink:href="#ArialMT-49"/>
       <use x="55.615234" xlink:href="#ArialMT-46"/>
       <use x="83.398438" xlink:href="#ArialMT-48"/>
       <use x="139.013672" xlink:href="#ArialMT-48"/>
      </g>
     </g>
    </g>
    <g id="ytick_6">
     <g id="line2d_45">
      <defs>
       <path d="M 0 0 
L 2 0 
" id="m6a8fea587e" style="stroke:#000000;stroke-width:0.6;"/>
      </defs>
      <g>
       <use style="stroke:#000000;stroke-width:0.6;" x="26.06875" xlink:href="#m6a8fea587e" y="81.1998"/>
      </g>
     </g>
     <g id="line2d_46">
      <defs>
       <path d="M 0 0 
L -2 0 
" id="me6b950a37b" style="stroke:#000000;stroke-width:0.6;"/>
      </defs>
      <g>
       <use style="stroke:#000000;stroke-width:0.6;" x="109.76875" xlink:href="#me6b950a37b" y="81.1998"/>
      </g>
     </g>
    </g>
    <g id="ytick_7">
     <g id="line2d_47">
      <g>
       <use style="stroke:#000000;stroke-width:0.6;" x="26.06875" xlink:href="#m6a8fea587e" y="74.308428"/>
      </g>
     </g>
     <g id="line2d_48">
      <g>
       <use style="stroke:#000000;stroke-width:0.6;" x="109.76875" xlink:href="#me6b950a37b" y="74.308428"/>
      </g>
     </g>
    </g>
    <g id="ytick_8">
     <g id="line2d_49">
      <g>
       <use style="stroke:#000000;stroke-width:0.6;" x="26.06875" xlink:href="#m6a8fea587e" y="70.862742"/>
      </g>
     </g>
     <g id="line2d_50">
      <g>
       <use style="stroke:#000000;stroke-width:0.6;" x="109.76875" xlink:href="#me6b950a37b" y="70.862742"/>
      </g>
     </g>
    </g>
    <g id="ytick_9">
     <g id="line2d_51">
      <g>
       <use style="stroke:#000000;stroke-width:0.6;" x="26.06875" xlink:href="#m6a8fea587e" y="67.417055"/>
      </g>
     </g>
     <g id="line2d_52">
      <g>
       <use style="stroke:#000000;stroke-width:0.6;" x="109.76875" xlink:href="#me6b950a37b" y="67.417055"/>
      </g>
     </g>
    </g>
    <g id="ytick_10">
     <g id="line2d_53">
      <g>
       <use style="stroke:#000000;stroke-width:0.6;" x="26.06875" xlink:href="#m6a8fea587e" y="63.971369"/>
      </g>
     </g>
     <g id="line2d_54">
      <g>
       <use style="stroke:#000000;stroke-width:0.6;" x="109.76875" xlink:href="#me6b950a37b" y="63.971369"/>
      </g>
     </g>
    </g>
    <g id="ytick_11">
     <g id="line2d_55">
      <g>
       <use style="stroke:#000000;stroke-width:0.6;" x="26.06875" xlink:href="#m6a8fea587e" y="57.079996"/>
      </g>
     </g>
     <g id="line2d_56">
      <g>
       <use style="stroke:#000000;stroke-width:0.6;" x="109.76875" xlink:href="#me6b950a37b" y="57.079996"/>
      </g>
     </g>
    </g>
    <g id="ytick_12">
     <g id="line2d_57">
      <g>
       <use style="stroke:#000000;stroke-width:0.6;" x="26.06875" xlink:href="#m6a8fea587e" y="53.63431"/>
      </g>
     </g>
     <g id="line2d_58">
      <g>
       <use style="stroke:#000000;stroke-width:0.6;" x="109.76875" xlink:href="#me6b950a37b" y="53.63431"/>
      </g>
     </g>
    </g>
    <g id="ytick_13">
     <g id="line2d_59">
      <g>
       <use style="stroke:#000000;stroke-width:0.6;" x="26.06875" xlink:href="#m6a8fea587e" y="50.188624"/>
      </g>
     </g>
     <g id="line2d_60">
      <g>
       <use style="stroke:#000000;stroke-width:0.6;" x="109.76875" xlink:href="#me6b950a37b" y="50.188624"/>
      </g>
     </g>
    </g>
    <g id="ytick_14">
     <g id="line2d_61">
      <g>
       <use style="stroke:#000000;stroke-width:0.6;" x="26.06875" xlink:href="#m6a8fea587e" y="46.742937"/>
      </g>
     </g>
     <g id="line2d_62">
      <g>
       <use style="stroke:#000000;stroke-width:0.6;" x="109.76875" xlink:href="#me6b950a37b" y="46.742937"/>
      </g>
     </g>
    </g>
    <g id="ytick_15">
     <g id="line2d_63">
      <g>
       <use style="stroke:#000000;stroke-width:0.6;" x="26.06875" xlink:href="#m6a8fea587e" y="39.851565"/>
      </g>
     </g>
     <g id="line2d_64">
      <g>
       <use style="stroke:#000000;stroke-width:0.6;" x="109.76875" xlink:href="#me6b950a37b" y="39.851565"/>
      </g>
     </g>
    </g>
    <g id="ytick_16">
     <g id="line2d_65">
      <g>
       <use style="stroke:#000000;stroke-width:0.6;" x="26.06875" xlink:href="#m6a8fea587e" y="36.405878"/>
      </g>
     </g>
     <g id="line2d_66">
      <g>
       <use style="stroke:#000000;stroke-width:0.6;" x="109.76875" xlink:href="#me6b950a37b" y="36.405878"/>
      </g>
     </g>
    </g>
    <g id="ytick_17">
     <g id="line2d_67">
      <g>
       <use style="stroke:#000000;stroke-width:0.6;" x="26.06875" xlink:href="#m6a8fea587e" y="32.960192"/>
      </g>
     </g>
     <g id="line2d_68">
      <g>
       <use style="stroke:#000000;stroke-width:0.6;" x="109.76875" xlink:href="#me6b950a37b" y="32.960192"/>
      </g>
     </g>
    </g>
    <g id="ytick_18">
     <g id="line2d_69">
      <g>
       <use style="stroke:#000000;stroke-width:0.6;" x="26.06875" xlink:href="#m6a8fea587e" y="29.514506"/>
      </g>
     </g>
     <g id="line2d_70">
      <g>
       <use style="stroke:#000000;stroke-width:0.6;" x="109.76875" xlink:href="#me6b950a37b" y="29.514506"/>
      </g>
     </g>
    </g>
    <g id="ytick_19">
     <g id="line2d_71">
      <g>
       <use style="stroke:#000000;stroke-width:0.6;" x="26.06875" xlink:href="#m6a8fea587e" y="22.623133"/>
      </g>
     </g>
     <g id="line2d_72">
      <g>
       <use style="stroke:#000000;stroke-width:0.6;" x="109.76875" xlink:href="#me6b950a37b" y="22.623133"/>
      </g>
     </g>
    </g>
    <g id="ytick_20">
     <g id="line2d_73">
      <g>
       <use style="stroke:#000000;stroke-width:0.6;" x="26.06875" xlink:href="#m6a8fea587e" y="19.177447"/>
      </g>
     </g>
     <g id="line2d_74">
      <g>
       <use style="stroke:#000000;stroke-width:0.6;" x="109.76875" xlink:href="#me6b950a37b" y="19.177447"/>
      </g>
     </g>
    </g>
    <g id="ytick_21">
     <g id="line2d_75">
      <g>
       <use style="stroke:#000000;stroke-width:0.6;" x="26.06875" xlink:href="#m6a8fea587e" y="15.731761"/>
      </g>
     </g>
     <g id="line2d_76">
      <g>
       <use style="stroke:#000000;stroke-width:0.6;" x="109.76875" xlink:href="#me6b950a37b" y="15.731761"/>
      </g>
     </g>
    </g>
    <g id="ytick_22">
     <g id="line2d_77">
      <g>
       <use style="stroke:#000000;stroke-width:0.6;" x="26.06875" xlink:href="#m6a8fea587e" y="12.286074"/>
      </g>
     </g>
     <g id="line2d_78">
      <g>
       <use style="stroke:#000000;stroke-width:0.6;" x="109.76875" xlink:href="#me6b950a37b" y="12.286074"/>
      </g>
     </g>
    </g>
    <g id="ytick_23">
     <g id="line2d_79">
      <g>
       <use style="stroke:#000000;stroke-width:0.6;" x="26.06875" xlink:href="#m6a8fea587e" y="5.394702"/>
      </g>
     </g>
     <g id="line2d_80">
      <g>
       <use style="stroke:#000000;stroke-width:0.6;" x="109.76875" xlink:href="#me6b950a37b" y="5.394702"/>
      </g>
     </g>
    </g>
    <g id="ytick_24">
     <g id="line2d_81">
      <g>
       <use style="stroke:#000000;stroke-width:0.6;" x="26.06875" xlink:href="#m6a8fea587e" y="1.949015"/>
      </g>
     </g>
     <g id="line2d_82">
      <g>
       <use style="stroke:#000000;stroke-width:0.6;" x="109.76875" xlink:href="#me6b950a37b" y="1.949015"/>
      </g>
     </g>
    </g>
    <g id="text_12">
     <!-- $\it{I_{D}}$ (μA) -->
     <defs>
      <path d="M 16.890625 72.90625 
L 26.8125 72.90625 
L 12.59375 0 
L 2.6875 0 
z
" id="DejaVuSans-Oblique-73"/>
      <path d="M 16.890625 72.90625 
L 38.09375 72.90625 
Q 54.984375 72.90625 63.59375 65.75 
Q 72.21875 58.59375 72.21875 44.484375 
Q 72.21875 35.15625 68.9375 26.53125 
Q 65.671875 17.921875 59.90625 12.015625 
Q 54.109375 5.953125 45.171875 2.96875 
Q 36.234375 0 24.03125 0 
L 2.6875 0 
z
M 25.203125 64.796875 
L 14.203125 8.109375 
L 27.09375 8.109375 
Q 43.65625 8.109375 52.734375 17.625 
Q 61.8125 27.15625 61.8125 44.484375 
Q 61.8125 54.984375 55.953125 59.890625 
Q 50.09375 64.796875 37.59375 64.796875 
z
" id="DejaVuSans-Oblique-68"/>
      <path d="M 49.703125 51.859375 
L 49.703125 0 
L 41.84375 0 
L 41.84375 6.15625 
Q 39.3125 2.25 36.8125 0.78125 
Q 33.40625 -1.21875 28.859375 -1.21875 
Q 24.8125 -1.21875 21.6875 0.390625 
Q 19.34375 1.609375 16.5 5.21875 
L 16.5 -19.875 
L 7.8125 -19.875 
L 7.8125 51.859375 
L 16.5 51.859375 
L 16.5 29.890625 
Q 16.5 17.921875 17.765625 14.375 
Q 19.046875 10.84375 21.890625 8.78125 
Q 24.75 6.734375 28.46875 6.734375 
Q 32.375 6.734375 35.453125 8.875 
Q 38.53125 11.03125 39.796875 14.421875 
Q 41.0625 17.828125 41.0625 29.734375 
L 41.0625 51.859375 
z
" id="ArialMT-956"/>
      <path d="M -0.140625 0 
L 27.34375 71.578125 
L 37.546875 71.578125 
L 66.84375 0 
L 56.0625 0 
L 47.703125 21.6875 
L 17.78125 21.6875 
L 9.90625 0 
z
M 20.515625 29.390625 
L 44.78125 29.390625 
L 37.3125 49.21875 
Q 33.890625 58.25 32.234375 64.0625 
Q 30.859375 57.171875 28.375 50.390625 
z
" id="ArialMT-65"/>
     </defs>
     <g transform="translate(7.3 56.02)rotate(-90)scale(0.1 -0.1)">
      <use transform="translate(0 0.09375)" xlink:href="#DejaVuSans-Oblique-73"/>
      <use transform="translate(29.492188 -16.3125)scale(0.7)" xlink:href="#DejaVuSans-Oblique-68"/>
      <use transform="translate(86.12793 0.09375)" xlink:href="#ArialMT-32"/>
      <use transform="translate(113.911133 0.09375)" xlink:href="#ArialMT-40"/>
      <use transform="translate(147.211914 0.09375)" xlink:href="#ArialMT-956"/>
      <use transform="translate(204.829102 0.09375)" xlink:href="#ArialMT-65"/>
      <use transform="translate(271.52832 0.09375)" xlink:href="#ArialMT-41"/>
     </g>
    </g>
   </g>
   <g id="line2d_83">
    <path clip-path="url(#pc0722b2d2a)" d="M 29.873295 77.751907 
L 31.141477 77.791822 
L 32.409659 77.741119 
L 33.677841 77.752042 
L 34.946023 77.747191 
L 36.214205 77.758028 
L 37.482386 77.755409 
L 38.750568 77.721507 
L 40.01875 77.763142 
L 41.286932 77.751814 
L 42.555114 77.74509 
L 43.823295 77.735611 
L 45.091477 77.728272 
L 46.359659 77.774858 
L 47.627841 77.740254 
L 48.896023 77.833636 
L 50.164205 77.728109 
L 51.432386 77.712047 
L 52.700568 77.71487 
L 53.96875 77.63787 
L 55.236932 77.475374 
L 56.505114 77.208247 
L 57.773295 76.461042 
L 59.041477 75.232598 
L 60.309659 73.32014 
L 61.577841 70.731936 
L 62.846023 66.808485 
L 64.114205 62.541456 
L 65.382386 58.182721 
L 66.650568 54.001129 
L 67.91875 49.860615 
L 69.186932 45.822294 
L 70.455114 41.909313 
L 71.723295 38.177531 
L 72.991477 34.816286 
L 74.259659 31.935633 
L 75.527841 29.340872 
L 76.796023 26.894244 
L 78.064205 24.737361 
L 79.332386 23.006241 
L 80.600568 21.384446 
L 81.86875 19.862472 
L 83.136932 18.520663 
L 84.405114 17.327782 
L 85.673295 16.124094 
L 86.941477 15.059377 
L 88.209659 14.037452 
L 89.477841 12.79553 
L 90.746023 12.040777 
L 92.014205 10.963037 
L 93.282386 10.469531 
L 94.550568 9.561457 
L 95.81875 8.431943 
L 97.086932 7.550811 
L 98.355114 6.995131 
L 99.623295 6.226164 
L 100.891477 5.592578 
L 102.159659 5.046157 
L 103.427841 4.570303 
L 104.696023 4.233115 
L 105.964205 3.706364 
L 104.696023 4.829975 
L 103.427841 5.789242 
L 102.159659 7.180824 
L 100.891477 8.481627 
L 99.623295 10.28276 
L 98.355114 11.918802 
L 97.086932 13.596153 
L 95.81875 15.597428 
L 94.550568 17.802658 
L 93.282386 20.323719 
L 92.014205 23.008622 
L 90.746023 25.562607 
L 89.477841 28.754256 
L 88.209659 32.452135 
L 86.941477 36.477906 
L 85.673295 41.257733 
L 84.405114 45.767722 
L 83.136932 50.551586 
L 81.86875 55.426056 
L 80.600568 60.428271 
L 79.332386 64.943933 
L 78.064205 69.168332 
L 76.796023 72.955015 
L 75.527841 75.131603 
L 74.259659 76.640388 
L 72.991477 77.443697 
L 71.723295 77.636824 
L 70.455114 77.684496 
L 69.186932 77.665257 
L 67.91875 77.743277 
L 66.650568 77.759288 
L 65.382386 77.753674 
L 64.114205 77.736675 
L 62.846023 77.767729 
L 61.577841 77.702505 
L 60.309659 77.757556 
L 59.041477 77.765988 
L 57.773295 77.76653 
L 56.505114 77.731235 
L 55.236932 77.711544 
L 53.96875 77.724484 
L 52.700568 77.732301 
L 51.432386 77.724408 
L 50.164205 77.76106 
L 48.896023 77.748144 
L 47.627841 77.737758 
L 46.359659 77.76206 
L 45.091477 77.759851 
L 43.823295 77.768111 
L 42.555114 77.747675 
L 41.286932 77.722202 
L 40.01875 77.737181 
L 38.750568 77.730199 
L 37.482386 77.737263 
L 36.214205 77.760158 
L 34.946023 77.747315 
L 33.677841 77.750404 
L 32.409659 77.760761 
L 31.141477 77.812001 
L 29.873295 77.736282 
" style="fill:none;stroke:#377eb8;stroke-linecap:square;stroke-width:1.5;"/>
    <defs>
     <path d="M 0 0.75 
C 0.198902 0.75 0.389685 0.670975 0.53033 0.53033 
C 0.670975 0.389685 0.75 0.198902 0.75 0 
C 0.75 -0.198902 0.670975 -0.389685 0.53033 -0.53033 
C 0.389685 -0.670975 0.198902 -0.75 0 -0.75 
C -0.198902 -0.75 -0.389685 -0.670975 -0.53033 -0.53033 
C -0.670975 -0.389685 -0.75 -0.198902 -0.75 0 
C -0.75 0.198902 -0.670975 0.389685 -0.53033 0.53033 
C -0.389685 0.670975 -0.198902 0.75 0 0.75 
z
" id="m12921ee329" style="stroke:#377eb8;"/>
    </defs>
    <g clip-path="url(#pc0722b2d2a)">
     <use style="fill:#377eb8;stroke:#377eb8;" x="29.873295" xlink:href="#m12921ee329" y="77.751907"/>
     <use style="fill:#377eb8;stroke:#377eb8;" x="31.141477" xlink:href="#m12921ee329" y="77.791822"/>
     <use style="fill:#377eb8;stroke:#377eb8;" x="32.409659" xlink:href="#m12921ee329" y="77.741119"/>
     <use style="fill:#377eb8;stroke:#377eb8;" x="33.677841" xlink:href="#m12921ee329" y="77.752042"/>
     <use style="fill:#377eb8;stroke:#377eb8;" x="34.946023" xlink:href="#m12921ee329" y="77.747191"/>
     <use style="fill:#377eb8;stroke:#377eb8;" x="36.214205" xlink:href="#m12921ee329" y="77.758028"/>
     <use style="fill:#377eb8;stroke:#377eb8;" x="37.482386" xlink:href="#m12921ee329" y="77.755409"/>
     <use style="fill:#377eb8;stroke:#377eb8;" x="38.750568" xlink:href="#m12921ee329" y="77.721507"/>
     <use style="fill:#377eb8;stroke:#377eb8;" x="40.01875" xlink:href="#m12921ee329" y="77.763142"/>
     <use style="fill:#377eb8;stroke:#377eb8;" x="41.286932" xlink:href="#m12921ee329" y="77.751814"/>
     <use style="fill:#377eb8;stroke:#377eb8;" x="42.555114" xlink:href="#m12921ee329" y="77.74509"/>
     <use style="fill:#377eb8;stroke:#377eb8;" x="43.823295" xlink:href="#m12921ee329" y="77.735611"/>
     <use style="fill:#377eb8;stroke:#377eb8;" x="45.091477" xlink:href="#m12921ee329" y="77.728272"/>
     <use style="fill:#377eb8;stroke:#377eb8;" x="46.359659" xlink:href="#m12921ee329" y="77.774858"/>
     <use style="fill:#377eb8;stroke:#377eb8;" x="47.627841" xlink:href="#m12921ee329" y="77.740254"/>
     <use style="fill:#377eb8;stroke:#377eb8;" x="48.896023" xlink:href="#m12921ee329" y="77.833636"/>
     <use style="fill:#377eb8;stroke:#377eb8;" x="50.164205" xlink:href="#m12921ee329" y="77.728109"/>
     <use style="fill:#377eb8;stroke:#377eb8;" x="51.432386" xlink:href="#m12921ee329" y="77.712047"/>
     <use style="fill:#377eb8;stroke:#377eb8;" x="52.700568" xlink:href="#m12921ee329" y="77.71487"/>
     <use style="fill:#377eb8;stroke:#377eb8;" x="53.96875" xlink:href="#m12921ee329" y="77.63787"/>
     <use style="fill:#377eb8;stroke:#377eb8;" x="55.236932" xlink:href="#m12921ee329" y="77.475374"/>
     <use style="fill:#377eb8;stroke:#377eb8;" x="56.505114" xlink:href="#m12921ee329" y="77.208247"/>
     <use style="fill:#377eb8;stroke:#377eb8;" x="57.773295" xlink:href="#m12921ee329" y="76.461042"/>
     <use style="fill:#377eb8;stroke:#377eb8;" x="59.041477" xlink:href="#m12921ee329" y="75.232598"/>
     <use style="fill:#377eb8;stroke:#377eb8;" x="60.309659" xlink:href="#m12921ee329" y="73.32014"/>
     <use style="fill:#377eb8;stroke:#377eb8;" x="61.577841" xlink:href="#m12921ee329" y="70.731936"/>
     <use style="fill:#377eb8;stroke:#377eb8;" x="62.846023" xlink:href="#m12921ee329" y="66.808485"/>
     <use style="fill:#377eb8;stroke:#377eb8;" x="64.114205" xlink:href="#m12921ee329" y="62.541456"/>
     <use style="fill:#377eb8;stroke:#377eb8;" x="65.382386" xlink:href="#m12921ee329" y="58.182721"/>
     <use style="fill:#377eb8;stroke:#377eb8;" x="66.650568" xlink:href="#m12921ee329" y="54.001129"/>
     <use style="fill:#377eb8;stroke:#377eb8;" x="67.91875" xlink:href="#m12921ee329" y="49.860615"/>
     <use style="fill:#377eb8;stroke:#377eb8;" x="69.186932" xlink:href="#m12921ee329" y="45.822294"/>
     <use style="fill:#377eb8;stroke:#377eb8;" x="70.455114" xlink:href="#m12921ee329" y="41.909313"/>
     <use style="fill:#377eb8;stroke:#377eb8;" x="71.723295" xlink:href="#m12921ee329" y="38.177531"/>
     <use style="fill:#377eb8;stroke:#377eb8;" x="72.991477" xlink:href="#m12921ee329" y="34.816286"/>
     <use style="fill:#377eb8;stroke:#377eb8;" x="74.259659" xlink:href="#m12921ee329" y="31.935633"/>
     <use style="fill:#377eb8;stroke:#377eb8;" x="75.527841" xlink:href="#m12921ee329" y="29.340872"/>
     <use style="fill:#377eb8;stroke:#377eb8;" x="76.796023" xlink:href="#m12921ee329" y="26.894244"/>
     <use style="fill:#377eb8;stroke:#377eb8;" x="78.064205" xlink:href="#m12921ee329" y="24.737361"/>
     <use style="fill:#377eb8;stroke:#377eb8;" x="79.332386" xlink:href="#m12921ee329" y="23.006241"/>
     <use style="fill:#377eb8;stroke:#377eb8;" x="80.600568" xlink:href="#m12921ee329" y="21.384446"/>
     <use style="fill:#377eb8;stroke:#377eb8;" x="81.86875" xlink:href="#m12921ee329" y="19.862472"/>
     <use style="fill:#377eb8;stroke:#377eb8;" x="83.136932" xlink:href="#m12921ee329" y="18.520663"/>
     <use style="fill:#377eb8;stroke:#377eb8;" x="84.405114" xlink:href="#m12921ee329" y="17.327782"/>
     <use style="fill:#377eb8;stroke:#377eb8;" x="85.673295" xlink:href="#m12921ee329" y="16.124094"/>
     <use style="fill:#377eb8;stroke:#377eb8;" x="86.941477" xlink:href="#m12921ee329" y="15.059377"/>
     <use style="fill:#377eb8;stroke:#377eb8;" x="88.209659" xlink:href="#m12921ee329" y="14.037452"/>
     <use style="fill:#377eb8;stroke:#377eb8;" x="89.477841" xlink:href="#m12921ee329" y="12.79553"/>
     <use style="fill:#377eb8;stroke:#377eb8;" x="90.746023" xlink:href="#m12921ee329" y="12.040777"/>
     <use style="fill:#377eb8;stroke:#377eb8;" x="92.014205" xlink:href="#m12921ee329" y="10.963037"/>
     <use style="fill:#377eb8;stroke:#377eb8;" x="93.282386" xlink:href="#m12921ee329" y="10.469531"/>
     <use style="fill:#377eb8;stroke:#377eb8;" x="94.550568" xlink:href="#m12921ee329" y="9.561457"/>
     <use style="fill:#377eb8;stroke:#377eb8;" x="95.81875" xlink:href="#m12921ee329" y="8.431943"/>
     <use style="fill:#377eb8;stroke:#377eb8;" x="97.086932" xlink:href="#m12921ee329" y="7.550811"/>
     <use style="fill:#377eb8;stroke:#377eb8;" x="98.355114" xlink:href="#m12921ee329" y="6.995131"/>
     <use style="fill:#377eb8;stroke:#377eb8;" x="99.623295" xlink:href="#m12921ee329" y="6.226164"/>
     <use style="fill:#377eb8;stroke:#377eb8;" x="100.891477" xlink:href="#m12921ee329" y="5.592578"/>
     <use style="fill:#377eb8;stroke:#377eb8;" x="102.159659" xlink:href="#m12921ee329" y="5.046157"/>
     <use style="fill:#377eb8;stroke:#377eb8;" x="103.427841" xlink:href="#m12921ee329" y="4.570303"/>
     <use style="fill:#377eb8;stroke:#377eb8;" x="104.696023" xlink:href="#m12921ee329" y="4.233115"/>
     <use style="fill:#377eb8;stroke:#377eb8;" x="105.964205" xlink:href="#m12921ee329" y="3.706364"/>
     <use style="fill:#377eb8;stroke:#377eb8;" x="104.696023" xlink:href="#m12921ee329" y="4.829975"/>
     <use style="fill:#377eb8;stroke:#377eb8;" x="103.427841" xlink:href="#m12921ee329" y="5.789242"/>
     <use style="fill:#377eb8;stroke:#377eb8;" x="102.159659" xlink:href="#m12921ee329" y="7.180824"/>
     <use style="fill:#377eb8;stroke:#377eb8;" x="100.891477" xlink:href="#m12921ee329" y="8.481627"/>
     <use style="fill:#377eb8;stroke:#377eb8;" x="99.623295" xlink:href="#m12921ee329" y="10.28276"/>
     <use style="fill:#377eb8;stroke:#377eb8;" x="98.355114" xlink:href="#m12921ee329" y="11.918802"/>
     <use style="fill:#377eb8;stroke:#377eb8;" x="97.086932" xlink:href="#m12921ee329" y="13.596153"/>
     <use style="fill:#377eb8;stroke:#377eb8;" x="95.81875" xlink:href="#m12921ee329" y="15.597428"/>
     <use style="fill:#377eb8;stroke:#377eb8;" x="94.550568" xlink:href="#m12921ee329" y="17.802658"/>
     <use style="fill:#377eb8;stroke:#377eb8;" x="93.282386" xlink:href="#m12921ee329" y="20.323719"/>
     <use style="fill:#377eb8;stroke:#377eb8;" x="92.014205" xlink:href="#m12921ee329" y="23.008622"/>
     <use style="fill:#377eb8;stroke:#377eb8;" x="90.746023" xlink:href="#m12921ee329" y="25.562607"/>
     <use style="fill:#377eb8;stroke:#377eb8;" x="89.477841" xlink:href="#m12921ee329" y="28.754256"/>
     <use style="fill:#377eb8;stroke:#377eb8;" x="88.209659" xlink:href="#m12921ee329" y="32.452135"/>
     <use style="fill:#377eb8;stroke:#377eb8;" x="86.941477" xlink:href="#m12921ee329" y="36.477906"/>
     <use style="fill:#377eb8;stroke:#377eb8;" x="85.673295" xlink:href="#m12921ee329" y="41.257733"/>
     <use style="fill:#377eb8;stroke:#377eb8;" x="84.405114" xlink:href="#m12921ee329" y="45.767722"/>
     <use style="fill:#377eb8;stroke:#377eb8;" x="83.136932" xlink:href="#m12921ee329" y="50.551586"/>
     <use style="fill:#377eb8;stroke:#377eb8;" x="81.86875" xlink:href="#m12921ee329" y="55.426056"/>
     <use style="fill:#377eb8;stroke:#377eb8;" x="80.600568" xlink:href="#m12921ee329" y="60.428271"/>
     <use style="fill:#377eb8;stroke:#377eb8;" x="79.332386" xlink:href="#m12921ee329" y="64.943933"/>
     <use style="fill:#377eb8;stroke:#377eb8;" x="78.064205" xlink:href="#m12921ee329" y="69.168332"/>
     <use style="fill:#377eb8;stroke:#377eb8;" x="76.796023" xlink:href="#m12921ee329" y="72.955015"/>
     <use style="fill:#377eb8;stroke:#377eb8;" x="75.527841" xlink:href="#m12921ee329" y="75.131603"/>
     <use style="fill:#377eb8;stroke:#377eb8;" x="74.259659" xlink:href="#m12921ee329" y="76.640388"/>
     <use style="fill:#377eb8;stroke:#377eb8;" x="72.991477" xlink:href="#m12921ee329" y="77.443697"/>
     <use style="fill:#377eb8;stroke:#377eb8;" x="71.723295" xlink:href="#m12921ee329" y="77.636824"/>
     <use style="fill:#377eb8;stroke:#377eb8;" x="70.455114" xlink:href="#m12921ee329" y="77.684496"/>
     <use style="fill:#377eb8;stroke:#377eb8;" x="69.186932" xlink:href="#m12921ee329" y="77.665257"/>
     <use style="fill:#377eb8;stroke:#377eb8;" x="67.91875" xlink:href="#m12921ee329" y="77.743277"/>
     <use style="fill:#377eb8;stroke:#377eb8;" x="66.650568" xlink:href="#m12921ee329" y="77.759288"/>
     <use style="fill:#377eb8;stroke:#377eb8;" x="65.382386" xlink:href="#m12921ee329" y="77.753674"/>
     <use style="fill:#377eb8;stroke:#377eb8;" x="64.114205" xlink:href="#m12921ee329" y="77.736675"/>
     <use style="fill:#377eb8;stroke:#377eb8;" x="62.846023" xlink:href="#m12921ee329" y="77.767729"/>
     <use style="fill:#377eb8;stroke:#377eb8;" x="61.577841" xlink:href="#m12921ee329" y="77.702505"/>
     <use style="fill:#377eb8;stroke:#377eb8;" x="60.309659" xlink:href="#m12921ee329" y="77.757556"/>
     <use style="fill:#377eb8;stroke:#377eb8;" x="59.041477" xlink:href="#m12921ee329" y="77.765988"/>
     <use style="fill:#377eb8;stroke:#377eb8;" x="57.773295" xlink:href="#m12921ee329" y="77.76653"/>
     <use style="fill:#377eb8;stroke:#377eb8;" x="56.505114" xlink:href="#m12921ee329" y="77.731235"/>
     <use style="fill:#377eb8;stroke:#377eb8;" x="55.236932" xlink:href="#m12921ee329" y="77.711544"/>
     <use style="fill:#377eb8;stroke:#377eb8;" x="53.96875" xlink:href="#m12921ee329" y="77.724484"/>
     <use style="fill:#377eb8;stroke:#377eb8;" x="52.700568" xlink:href="#m12921ee329" y="77.732301"/>
     <use style="fill:#377eb8;stroke:#377eb8;" x="51.432386" xlink:href="#m12921ee329" y="77.724408"/>
     <use style="fill:#377eb8;stroke:#377eb8;" x="50.164205" xlink:href="#m12921ee329" y="77.76106"/>
     <use style="fill:#377eb8;stroke:#377eb8;" x="48.896023" xlink:href="#m12921ee329" y="77.748144"/>
     <use style="fill:#377eb8;stroke:#377eb8;" x="47.627841" xlink:href="#m12921ee329" y="77.737758"/>
     <use style="fill:#377eb8;stroke:#377eb8;" x="46.359659" xlink:href="#m12921ee329" y="77.76206"/>
     <use style="fill:#377eb8;stroke:#377eb8;" x="45.091477" xlink:href="#m12921ee329" y="77.759851"/>
     <use style="fill:#377eb8;stroke:#377eb8;" x="43.823295" xlink:href="#m12921ee329" y="77.768111"/>
     <use style="fill:#377eb8;stroke:#377eb8;" x="42.555114" xlink:href="#m12921ee329" y="77.747675"/>
     <use style="fill:#377eb8;stroke:#377eb8;" x="41.286932" xlink:href="#m12921ee329" y="77.722202"/>
     <use style="fill:#377eb8;stroke:#377eb8;" x="40.01875" xlink:href="#m12921ee329" y="77.737181"/>
     <use style="fill:#377eb8;stroke:#377eb8;" x="38.750568" xlink:href="#m12921ee329" y="77.730199"/>
     <use style="fill:#377eb8;stroke:#377eb8;" x="37.482386" xlink:href="#m12921ee329" y="77.737263"/>
     <use style="fill:#377eb8;stroke:#377eb8;" x="36.214205" xlink:href="#m12921ee329" y="77.760158"/>
     <use style="fill:#377eb8;stroke:#377eb8;" x="34.946023" xlink:href="#m12921ee329" y="77.747315"/>
     <use style="fill:#377eb8;stroke:#377eb8;" x="33.677841" xlink:href="#m12921ee329" y="77.750404"/>
     <use style="fill:#377eb8;stroke:#377eb8;" x="32.409659" xlink:href="#m12921ee329" y="77.760761"/>
     <use style="fill:#377eb8;stroke:#377eb8;" x="31.141477" xlink:href="#m12921ee329" y="77.812001"/>
     <use style="fill:#377eb8;stroke:#377eb8;" x="29.873295" xlink:href="#m12921ee329" y="77.736282"/>
    </g>
   </g>
   <g id="patch_3">
    <path d="M 26.06875 81.54 
L 26.06875 0 
" style="fill:none;stroke:#000000;stroke-linecap:square;stroke-linejoin:miter;stroke-width:0.8;"/>
   </g>
   <g id="patch_4">
    <path d="M 109.76875 81.54 
L 109.76875 0 
" style="fill:none;stroke:#000000;stroke-linecap:square;stroke-linejoin:miter;stroke-width:0.8;"/>
   </g>
   <g id="patch_5">
    <path d="M 26.06875 81.54 
L 109.76875 81.54 
" style="fill:none;stroke:#000000;stroke-linecap:square;stroke-linejoin:miter;stroke-width:0.8;"/>
   </g>
   <g id="patch_6">
    <path d="M 26.06875 0 
L 109.76875 0 
" style="fill:none;stroke:#000000;stroke-linecap:square;stroke-linejoin:miter;stroke-width:0.8;"/>
   </g>
  </g>
 </g>
 <defs>
  <clipPath id="pc0722b2d2a">
   <rect height="81.54" width="83.7" x="26.06875" y="0"/>
  </clipPath>
 </defs>
</svg>
