<?xml version="1.0" encoding="utf-8" standalone="no"?>
<!DOCTYPE svg PUBLIC "-//W3C//DTD SVG 1.1//EN"
  "http://www.w3.org/Graphics/SVG/1.1/DTD/svg11.dtd">
<!-- Created with matplotlib (https://matplotlib.org/) -->
<svg height="99.35625pt" version="1.1" viewBox="0 0 110.726818 99.35625" width="110.726818pt" xmlns="http://www.w3.org/2000/svg" xmlns:xlink="http://www.w3.org/1999/xlink">
 <defs>
  <style type="text/css">
*{stroke-linecap:butt;stroke-linejoin:round;white-space:pre;}
  </style>
 </defs>
 <g id="figure_1">
  <g id="patch_1">
   <path d="M 0 99.35625 
L 110.726818 99.35625 
L 110.726818 0 
L 0 0 
z
" style="fill:none;"/>
  </g>
  <g id="axes_1">
   <g id="patch_2">
    <path d="M 23.84625 81.54 
L 107.54625 81.54 
L 107.54625 0 
L 23.84625 0 
z
" style="fill:none;"/>
   </g>
   <g id="matplotlib.axis_1">
    <g id="xtick_1">
     <g id="line2d_1">
      <defs>
       <path d="M 0 0 
L 0 -3.5 
" id="m66d09424b0" style="stroke:#000000;stroke-width:0.8;"/>
      </defs>
      <g>
       <use style="stroke:#000000;stroke-width:0.8;" x="25.114432" xlink:href="#m66d09424b0" y="81.54"/>
      </g>
     </g>
     <g id="line2d_2">
      <defs>
       <path d="M 0 0 
L 0 3.5 
" id="m1159440493" style="stroke:#000000;stroke-width:0.8;"/>
      </defs>
      <g>
       <use style="stroke:#000000;stroke-width:0.8;" x="25.114432" xlink:href="#m1159440493" y="0"/>
      </g>
     </g>
     <g id="text_1">
      <!-- −80 -->
      <defs>
       <path d="M 52.828125 31.203125 
L 5.5625 31.203125 
L 5.5625 39.40625 
L 52.828125 39.40625 
z
" id="ArialMT-8722"/>
       <path d="M 17.671875 38.8125 
Q 12.203125 40.828125 9.5625 44.53125 
Q 6.9375 48.25 6.9375 53.421875 
Q 6.9375 61.234375 12.546875 66.546875 
Q 18.171875 71.875 27.484375 71.875 
Q 36.859375 71.875 42.578125 66.421875 
Q 48.296875 60.984375 48.296875 53.171875 
Q 48.296875 48.1875 45.671875 44.5 
Q 43.0625 40.828125 37.75 38.8125 
Q 44.34375 36.671875 47.78125 31.875 
Q 51.21875 27.09375 51.21875 20.453125 
Q 51.21875 11.28125 44.71875 5.03125 
Q 38.234375 -1.21875 27.640625 -1.21875 
Q 17.046875 -1.21875 10.546875 5.046875 
Q 4.046875 11.328125 4.046875 20.703125 
Q 4.046875 27.6875 7.59375 32.390625 
Q 11.140625 37.109375 17.671875 38.8125 
z
M 15.921875 53.71875 
Q 15.921875 48.640625 19.1875 45.40625 
Q 22.46875 42.1875 27.6875 42.1875 
Q 32.765625 42.1875 36.015625 45.375 
Q 39.265625 48.578125 39.265625 53.21875 
Q 39.265625 58.0625 35.90625 61.359375 
Q 32.5625 64.65625 27.59375 64.65625 
Q 22.5625 64.65625 19.234375 61.421875 
Q 15.921875 58.203125 15.921875 53.71875 
z
M 13.09375 20.65625 
Q 13.09375 16.890625 14.875 13.375 
Q 16.65625 9.859375 20.171875 7.921875 
Q 23.6875 6 27.734375 6 
Q 34.03125 6 38.125 10.046875 
Q 42.234375 14.109375 42.234375 20.359375 
Q 42.234375 26.703125 38.015625 30.859375 
Q 33.796875 35.015625 27.4375 35.015625 
Q 21.234375 35.015625 17.15625 30.90625 
Q 13.09375 26.8125 13.09375 20.65625 
z
" id="ArialMT-56"/>
       <path d="M 4.15625 35.296875 
Q 4.15625 48 6.765625 55.734375 
Q 9.375 63.484375 14.515625 67.671875 
Q 19.671875 71.875 27.484375 71.875 
Q 33.25 71.875 37.59375 69.546875 
Q 41.9375 67.234375 44.765625 62.859375 
Q 47.609375 58.5 49.21875 52.21875 
Q 50.828125 45.953125 50.828125 35.296875 
Q 50.828125 22.703125 48.234375 14.96875 
Q 45.65625 7.234375 40.5 3 
Q 35.359375 -1.21875 27.484375 -1.21875 
Q 17.140625 -1.21875 11.234375 6.203125 
Q 4.15625 15.140625 4.15625 35.296875 
z
M 13.1875 35.296875 
Q 13.1875 17.671875 17.3125 11.828125 
Q 21.4375 6 27.484375 6 
Q 33.546875 6 37.671875 11.859375 
Q 41.796875 17.71875 41.796875 35.296875 
Q 41.796875 52.984375 37.671875 58.78125 
Q 33.546875 64.59375 27.390625 64.59375 
Q 21.34375 64.59375 17.71875 59.46875 
Q 13.1875 52.9375 13.1875 35.296875 
z
" id="ArialMT-48"/>
      </defs>
      <g transform="translate(18.329432 88.26625)scale(0.08 -0.08)">
       <use xlink:href="#ArialMT-8722"/>
       <use x="58.398438" xlink:href="#ArialMT-56"/>
       <use x="114.013672" xlink:href="#ArialMT-48"/>
      </g>
     </g>
    </g>
    <g id="xtick_2">
     <g id="line2d_3">
      <g>
       <use style="stroke:#000000;stroke-width:0.8;" x="45.405341" xlink:href="#m66d09424b0" y="81.54"/>
      </g>
     </g>
     <g id="line2d_4">
      <g>
       <use style="stroke:#000000;stroke-width:0.8;" x="45.405341" xlink:href="#m1159440493" y="0"/>
      </g>
     </g>
     <g id="text_2">
      <!-- −40 -->
      <defs>
       <path d="M 32.328125 0 
L 32.328125 17.140625 
L 1.265625 17.140625 
L 1.265625 25.203125 
L 33.9375 71.578125 
L 41.109375 71.578125 
L 41.109375 25.203125 
L 50.78125 25.203125 
L 50.78125 17.140625 
L 41.109375 17.140625 
L 41.109375 0 
z
M 32.328125 25.203125 
L 32.328125 57.46875 
L 9.90625 25.203125 
z
" id="ArialMT-52"/>
      </defs>
      <g transform="translate(38.620341 88.26625)scale(0.08 -0.08)">
       <use xlink:href="#ArialMT-8722"/>
       <use x="58.398438" xlink:href="#ArialMT-52"/>
       <use x="114.013672" xlink:href="#ArialMT-48"/>
      </g>
     </g>
    </g>
    <g id="xtick_3">
     <g id="line2d_5">
      <g>
       <use style="stroke:#000000;stroke-width:0.8;" x="65.69625" xlink:href="#m66d09424b0" y="81.54"/>
      </g>
     </g>
     <g id="line2d_6">
      <g>
       <use style="stroke:#000000;stroke-width:0.8;" x="65.69625" xlink:href="#m1159440493" y="0"/>
      </g>
     </g>
     <g id="text_3">
      <!-- 0 -->
      <g transform="translate(63.471875 88.26625)scale(0.08 -0.08)">
       <use xlink:href="#ArialMT-48"/>
      </g>
     </g>
    </g>
    <g id="xtick_4">
     <g id="line2d_7">
      <g>
       <use style="stroke:#000000;stroke-width:0.8;" x="85.987159" xlink:href="#m66d09424b0" y="81.54"/>
      </g>
     </g>
     <g id="line2d_8">
      <g>
       <use style="stroke:#000000;stroke-width:0.8;" x="85.987159" xlink:href="#m1159440493" y="0"/>
      </g>
     </g>
     <g id="text_4">
      <!-- 40 -->
      <g transform="translate(81.538409 88.26625)scale(0.08 -0.08)">
       <use xlink:href="#ArialMT-52"/>
       <use x="55.615234" xlink:href="#ArialMT-48"/>
      </g>
     </g>
    </g>
    <g id="xtick_5">
     <g id="line2d_9">
      <g>
       <use style="stroke:#000000;stroke-width:0.8;" x="106.278068" xlink:href="#m66d09424b0" y="81.54"/>
      </g>
     </g>
     <g id="line2d_10">
      <g>
       <use style="stroke:#000000;stroke-width:0.8;" x="106.278068" xlink:href="#m1159440493" y="0"/>
      </g>
     </g>
     <g id="text_5">
      <!-- 80 -->
      <g transform="translate(101.829318 88.26625)scale(0.08 -0.08)">
       <use xlink:href="#ArialMT-56"/>
       <use x="55.615234" xlink:href="#ArialMT-48"/>
      </g>
     </g>
    </g>
    <g id="xtick_6">
     <g id="line2d_11">
      <defs>
       <path d="M 0 0 
L 0 -2 
" id="m9d62c6d4a9" style="stroke:#000000;stroke-width:0.6;"/>
      </defs>
      <g>
       <use style="stroke:#000000;stroke-width:0.6;" x="30.187159" xlink:href="#m9d62c6d4a9" y="81.54"/>
      </g>
     </g>
     <g id="line2d_12">
      <defs>
       <path d="M 0 0 
L 0 2 
" id="md24a1e4b60" style="stroke:#000000;stroke-width:0.6;"/>
      </defs>
      <g>
       <use style="stroke:#000000;stroke-width:0.6;" x="30.187159" xlink:href="#md24a1e4b60" y="0"/>
      </g>
     </g>
    </g>
    <g id="xtick_7">
     <g id="line2d_13">
      <g>
       <use style="stroke:#000000;stroke-width:0.6;" x="35.259886" xlink:href="#m9d62c6d4a9" y="81.54"/>
      </g>
     </g>
     <g id="line2d_14">
      <g>
       <use style="stroke:#000000;stroke-width:0.6;" x="35.259886" xlink:href="#md24a1e4b60" y="0"/>
      </g>
     </g>
    </g>
    <g id="xtick_8">
     <g id="line2d_15">
      <g>
       <use style="stroke:#000000;stroke-width:0.6;" x="40.332614" xlink:href="#m9d62c6d4a9" y="81.54"/>
      </g>
     </g>
     <g id="line2d_16">
      <g>
       <use style="stroke:#000000;stroke-width:0.6;" x="40.332614" xlink:href="#md24a1e4b60" y="0"/>
      </g>
     </g>
    </g>
    <g id="xtick_9">
     <g id="line2d_17">
      <g>
       <use style="stroke:#000000;stroke-width:0.6;" x="50.478068" xlink:href="#m9d62c6d4a9" y="81.54"/>
      </g>
     </g>
     <g id="line2d_18">
      <g>
       <use style="stroke:#000000;stroke-width:0.6;" x="50.478068" xlink:href="#md24a1e4b60" y="0"/>
      </g>
     </g>
    </g>
    <g id="xtick_10">
     <g id="line2d_19">
      <g>
       <use style="stroke:#000000;stroke-width:0.6;" x="55.550795" xlink:href="#m9d62c6d4a9" y="81.54"/>
      </g>
     </g>
     <g id="line2d_20">
      <g>
       <use style="stroke:#000000;stroke-width:0.6;" x="55.550795" xlink:href="#md24a1e4b60" y="0"/>
      </g>
     </g>
    </g>
    <g id="xtick_11">
     <g id="line2d_21">
      <g>
       <use style="stroke:#000000;stroke-width:0.6;" x="60.623523" xlink:href="#m9d62c6d4a9" y="81.54"/>
      </g>
     </g>
     <g id="line2d_22">
      <g>
       <use style="stroke:#000000;stroke-width:0.6;" x="60.623523" xlink:href="#md24a1e4b60" y="0"/>
      </g>
     </g>
    </g>
    <g id="xtick_12">
     <g id="line2d_23">
      <g>
       <use style="stroke:#000000;stroke-width:0.6;" x="70.768977" xlink:href="#m9d62c6d4a9" y="81.54"/>
      </g>
     </g>
     <g id="line2d_24">
      <g>
       <use style="stroke:#000000;stroke-width:0.6;" x="70.768977" xlink:href="#md24a1e4b60" y="0"/>
      </g>
     </g>
    </g>
    <g id="xtick_13">
     <g id="line2d_25">
      <g>
       <use style="stroke:#000000;stroke-width:0.6;" x="75.841705" xlink:href="#m9d62c6d4a9" y="81.54"/>
      </g>
     </g>
     <g id="line2d_26">
      <g>
       <use style="stroke:#000000;stroke-width:0.6;" x="75.841705" xlink:href="#md24a1e4b60" y="0"/>
      </g>
     </g>
    </g>
    <g id="xtick_14">
     <g id="line2d_27">
      <g>
       <use style="stroke:#000000;stroke-width:0.6;" x="80.914432" xlink:href="#m9d62c6d4a9" y="81.54"/>
      </g>
     </g>
     <g id="line2d_28">
      <g>
       <use style="stroke:#000000;stroke-width:0.6;" x="80.914432" xlink:href="#md24a1e4b60" y="0"/>
      </g>
     </g>
    </g>
    <g id="xtick_15">
     <g id="line2d_29">
      <g>
       <use style="stroke:#000000;stroke-width:0.6;" x="91.059886" xlink:href="#m9d62c6d4a9" y="81.54"/>
      </g>
     </g>
     <g id="line2d_30">
      <g>
       <use style="stroke:#000000;stroke-width:0.6;" x="91.059886" xlink:href="#md24a1e4b60" y="0"/>
      </g>
     </g>
    </g>
    <g id="xtick_16">
     <g id="line2d_31">
      <g>
       <use style="stroke:#000000;stroke-width:0.6;" x="96.132614" xlink:href="#m9d62c6d4a9" y="81.54"/>
      </g>
     </g>
     <g id="line2d_32">
      <g>
       <use style="stroke:#000000;stroke-width:0.6;" x="96.132614" xlink:href="#md24a1e4b60" y="0"/>
      </g>
     </g>
    </g>
    <g id="xtick_17">
     <g id="line2d_33">
      <g>
       <use style="stroke:#000000;stroke-width:0.6;" x="101.205341" xlink:href="#m9d62c6d4a9" y="81.54"/>
      </g>
     </g>
     <g id="line2d_34">
      <g>
       <use style="stroke:#000000;stroke-width:0.6;" x="101.205341" xlink:href="#md24a1e4b60" y="0"/>
      </g>
     </g>
    </g>
    <g id="text_6">
     <!-- $\it{V_{G}}$ (V) -->
     <defs>
      <path d="M 20.609375 0 
L 7.8125 72.90625 
L 17.484375 72.90625 
L 28.078125 10.203125 
L 63.484375 72.90625 
L 74.21875 72.90625 
L 32.078125 0 
z
" id="DejaVuSans-Oblique-86"/>
      <path d="M 54.59375 10.890625 
L 58.40625 29.984375 
L 42.1875 29.984375 
L 43.703125 38.09375 
L 69.578125 38.09375 
L 63.28125 6 
Q 56.78125 2.4375 49.109375 0.5 
Q 41.453125 -1.421875 33.6875 -1.421875 
Q 19.96875 -1.421875 12.234375 6.1875 
Q 4.5 13.8125 4.5 27.390625 
Q 4.5 38.671875 9.203125 48.84375 
Q 13.921875 59.03125 22.21875 65.828125 
Q 27.4375 70.0625 33.640625 72.140625 
Q 39.84375 74.21875 47.40625 74.21875 
Q 54.25 74.21875 60.515625 72.484375 
Q 66.796875 70.75 72.515625 67.28125 
L 70.515625 56.78125 
Q 66.109375 61.375 60.203125 63.796875 
Q 54.296875 66.21875 47.609375 66.21875 
Q 39.84375 66.21875 33.9375 63.25 
Q 28.03125 60.296875 23.390625 54.109375 
Q 19.4375 48.828125 17.15625 41.671875 
Q 14.890625 34.515625 14.890625 27.09375 
Q 14.890625 16.890625 20.109375 11.734375 
Q 25.34375 6.59375 35.6875 6.59375 
Q 40.875 6.59375 45.703125 7.6875 
Q 50.53125 8.796875 54.59375 10.890625 
z
" id="DejaVuSans-Oblique-71"/>
      <path id="ArialMT-32"/>
      <path d="M 23.390625 -21.046875 
Q 16.109375 -11.859375 11.078125 0.4375 
Q 6.0625 12.75 6.0625 25.921875 
Q 6.0625 37.546875 9.8125 48.1875 
Q 14.203125 60.546875 23.390625 72.796875 
L 29.6875 72.796875 
Q 23.78125 62.640625 21.875 58.296875 
Q 18.890625 51.5625 17.1875 44.234375 
Q 15.09375 35.109375 15.09375 25.875 
Q 15.09375 2.390625 29.6875 -21.046875 
z
" id="ArialMT-40"/>
      <path d="M 28.171875 0 
L 0.4375 71.578125 
L 10.6875 71.578125 
L 29.296875 19.578125 
Q 31.546875 13.328125 33.0625 7.859375 
Q 34.71875 13.71875 36.921875 19.578125 
L 56.25 71.578125 
L 65.921875 71.578125 
L 37.890625 0 
z
" id="ArialMT-86"/>
      <path d="M 12.359375 -21.046875 
L 6.0625 -21.046875 
Q 20.65625 2.390625 20.65625 25.875 
Q 20.65625 35.0625 18.5625 44.09375 
Q 16.890625 51.421875 13.921875 58.15625 
Q 12.015625 62.546875 6.0625 72.796875 
L 12.359375 72.796875 
Q 21.53125 60.546875 25.921875 48.1875 
Q 29.6875 37.546875 29.6875 25.921875 
Q 29.6875 12.75 24.625 0.4375 
Q 19.578125 -11.859375 12.359375 -21.046875 
z
" id="ArialMT-41"/>
     </defs>
     <g transform="translate(51.34625 97.15625)scale(0.1 -0.1)">
      <use transform="translate(0 0.09375)" xlink:href="#DejaVuSans-Oblique-86"/>
      <use transform="translate(68.408203 -16.3125)scale(0.7)" xlink:href="#DejaVuSans-Oblique-71"/>
      <use transform="translate(125.385742 0.09375)" xlink:href="#ArialMT-32"/>
      <use transform="translate(153.168945 0.09375)" xlink:href="#ArialMT-40"/>
      <use transform="translate(186.469727 0.09375)" xlink:href="#ArialMT-86"/>
      <use transform="translate(253.168945 0.09375)" xlink:href="#ArialMT-41"/>
     </g>
    </g>
   </g>
   <g id="matplotlib.axis_2">
    <g id="ytick_1">
     <g id="line2d_35">
      <defs>
       <path d="M 0 0 
L 3.5 0 
" id="m3055ea80b9" style="stroke:#000000;stroke-width:0.8;"/>
      </defs>
      <g>
       <use style="stroke:#000000;stroke-width:0.8;" x="23.84625" xlink:href="#m3055ea80b9" y="77.72422"/>
      </g>
     </g>
     <g id="line2d_36">
      <defs>
       <path d="M 0 0 
L -3.5 0 
" id="me1b420d739" style="stroke:#000000;stroke-width:0.8;"/>
      </defs>
      <g>
       <use style="stroke:#000000;stroke-width:0.8;" x="107.54625" xlink:href="#me1b420d739" y="77.72422"/>
      </g>
     </g>
     <g id="text_7">
      <!-- 0 -->
      <g transform="translate(18.3975 80.587345)scale(0.08 -0.08)">
       <use xlink:href="#ArialMT-48"/>
      </g>
     </g>
    </g>
    <g id="ytick_2">
     <g id="line2d_37">
      <g>
       <use style="stroke:#000000;stroke-width:0.8;" x="23.84625" xlink:href="#m3055ea80b9" y="49.777081"/>
      </g>
     </g>
     <g id="line2d_38">
      <g>
       <use style="stroke:#000000;stroke-width:0.8;" x="107.54625" xlink:href="#me1b420d739" y="49.777081"/>
      </g>
     </g>
     <g id="text_8">
      <!-- 200 -->
      <defs>
       <path d="M 50.34375 8.453125 
L 50.34375 0 
L 3.03125 0 
Q 2.9375 3.171875 4.046875 6.109375 
Q 5.859375 10.9375 9.828125 15.625 
Q 13.8125 20.3125 21.34375 26.46875 
Q 33.015625 36.03125 37.109375 41.625 
Q 41.21875 47.21875 41.21875 52.203125 
Q 41.21875 57.421875 37.46875 61 
Q 33.734375 64.59375 27.734375 64.59375 
Q 21.390625 64.59375 17.578125 60.78125 
Q 13.765625 56.984375 13.71875 50.25 
L 4.6875 51.171875 
Q 5.609375 61.28125 11.65625 66.578125 
Q 17.71875 71.875 27.9375 71.875 
Q 38.234375 71.875 44.234375 66.15625 
Q 50.25 60.453125 50.25 52 
Q 50.25 47.703125 48.484375 43.546875 
Q 46.734375 39.40625 42.65625 34.8125 
Q 38.578125 30.21875 29.109375 22.21875 
Q 21.1875 15.578125 18.9375 13.203125 
Q 16.703125 10.84375 15.234375 8.453125 
z
" id="ArialMT-50"/>
      </defs>
      <g transform="translate(9.5 52.640206)scale(0.08 -0.08)">
       <use xlink:href="#ArialMT-50"/>
       <use x="55.615234" xlink:href="#ArialMT-48"/>
       <use x="111.230469" xlink:href="#ArialMT-48"/>
      </g>
     </g>
    </g>
    <g id="ytick_3">
     <g id="line2d_39">
      <g>
       <use style="stroke:#000000;stroke-width:0.8;" x="23.84625" xlink:href="#m3055ea80b9" y="21.829941"/>
      </g>
     </g>
     <g id="line2d_40">
      <g>
       <use style="stroke:#000000;stroke-width:0.8;" x="107.54625" xlink:href="#me1b420d739" y="21.829941"/>
      </g>
     </g>
     <g id="text_9">
      <!-- 400 -->
      <g transform="translate(9.5 24.693066)scale(0.08 -0.08)">
       <use xlink:href="#ArialMT-52"/>
       <use x="55.615234" xlink:href="#ArialMT-48"/>
       <use x="111.230469" xlink:href="#ArialMT-48"/>
      </g>
     </g>
    </g>
    <g id="ytick_4">
     <g id="line2d_41">
      <defs>
       <path d="M 0 0 
L 2 0 
" id="m3c0a106264" style="stroke:#000000;stroke-width:0.6;"/>
      </defs>
      <g>
       <use style="stroke:#000000;stroke-width:0.6;" x="23.84625" xlink:href="#m3c0a106264" y="70.737435"/>
      </g>
     </g>
     <g id="line2d_42">
      <defs>
       <path d="M 0 0 
L -2 0 
" id="m91e6049221" style="stroke:#000000;stroke-width:0.6;"/>
      </defs>
      <g>
       <use style="stroke:#000000;stroke-width:0.6;" x="107.54625" xlink:href="#m91e6049221" y="70.737435"/>
      </g>
     </g>
    </g>
    <g id="ytick_5">
     <g id="line2d_43">
      <g>
       <use style="stroke:#000000;stroke-width:0.6;" x="23.84625" xlink:href="#m3c0a106264" y="63.75065"/>
      </g>
     </g>
     <g id="line2d_44">
      <g>
       <use style="stroke:#000000;stroke-width:0.6;" x="107.54625" xlink:href="#m91e6049221" y="63.75065"/>
      </g>
     </g>
    </g>
    <g id="ytick_6">
     <g id="line2d_45">
      <g>
       <use style="stroke:#000000;stroke-width:0.6;" x="23.84625" xlink:href="#m3c0a106264" y="56.763865"/>
      </g>
     </g>
     <g id="line2d_46">
      <g>
       <use style="stroke:#000000;stroke-width:0.6;" x="107.54625" xlink:href="#m91e6049221" y="56.763865"/>
      </g>
     </g>
    </g>
    <g id="ytick_7">
     <g id="line2d_47">
      <g>
       <use style="stroke:#000000;stroke-width:0.6;" x="23.84625" xlink:href="#m3c0a106264" y="42.790296"/>
      </g>
     </g>
     <g id="line2d_48">
      <g>
       <use style="stroke:#000000;stroke-width:0.6;" x="107.54625" xlink:href="#m91e6049221" y="42.790296"/>
      </g>
     </g>
    </g>
    <g id="ytick_8">
     <g id="line2d_49">
      <g>
       <use style="stroke:#000000;stroke-width:0.6;" x="23.84625" xlink:href="#m3c0a106264" y="35.803511"/>
      </g>
     </g>
     <g id="line2d_50">
      <g>
       <use style="stroke:#000000;stroke-width:0.6;" x="107.54625" xlink:href="#m91e6049221" y="35.803511"/>
      </g>
     </g>
    </g>
    <g id="ytick_9">
     <g id="line2d_51">
      <g>
       <use style="stroke:#000000;stroke-width:0.6;" x="23.84625" xlink:href="#m3c0a106264" y="28.816726"/>
      </g>
     </g>
     <g id="line2d_52">
      <g>
       <use style="stroke:#000000;stroke-width:0.6;" x="107.54625" xlink:href="#m91e6049221" y="28.816726"/>
      </g>
     </g>
    </g>
    <g id="ytick_10">
     <g id="line2d_53">
      <g>
       <use style="stroke:#000000;stroke-width:0.6;" x="23.84625" xlink:href="#m3c0a106264" y="14.843157"/>
      </g>
     </g>
     <g id="line2d_54">
      <g>
       <use style="stroke:#000000;stroke-width:0.6;" x="107.54625" xlink:href="#m91e6049221" y="14.843157"/>
      </g>
     </g>
    </g>
    <g id="ytick_11">
     <g id="line2d_55">
      <g>
       <use style="stroke:#000000;stroke-width:0.6;" x="23.84625" xlink:href="#m3c0a106264" y="7.856372"/>
      </g>
     </g>
     <g id="line2d_56">
      <g>
       <use style="stroke:#000000;stroke-width:0.6;" x="107.54625" xlink:href="#m91e6049221" y="7.856372"/>
      </g>
     </g>
    </g>
    <g id="ytick_12">
     <g id="line2d_57">
      <g>
       <use style="stroke:#000000;stroke-width:0.6;" x="23.84625" xlink:href="#m3c0a106264" y="0.869587"/>
      </g>
     </g>
     <g id="line2d_58">
      <g>
       <use style="stroke:#000000;stroke-width:0.6;" x="107.54625" xlink:href="#m91e6049221" y="0.869587"/>
      </g>
     </g>
    </g>
    <g id="text_10">
     <!-- $\it{I_{D}}$ (nA) -->
     <defs>
      <path d="M 16.890625 72.90625 
L 26.8125 72.90625 
L 12.59375 0 
L 2.6875 0 
z
" id="DejaVuSans-Oblique-73"/>
      <path d="M 16.890625 72.90625 
L 38.09375 72.90625 
Q 54.984375 72.90625 63.59375 65.75 
Q 72.21875 58.59375 72.21875 44.484375 
Q 72.21875 35.15625 68.9375 26.53125 
Q 65.671875 17.921875 59.90625 12.015625 
Q 54.109375 5.953125 45.171875 2.96875 
Q 36.234375 0 24.03125 0 
L 2.6875 0 
z
M 25.203125 64.796875 
L 14.203125 8.109375 
L 27.09375 8.109375 
Q 43.65625 8.109375 52.734375 17.625 
Q 61.8125 27.15625 61.8125 44.484375 
Q 61.8125 54.984375 55.953125 59.890625 
Q 50.09375 64.796875 37.59375 64.796875 
z
" id="DejaVuSans-Oblique-68"/>
      <path d="M 6.59375 0 
L 6.59375 51.859375 
L 14.5 51.859375 
L 14.5 44.484375 
Q 20.21875 53.03125 31 53.03125 
Q 35.6875 53.03125 39.625 51.34375 
Q 43.5625 49.65625 45.515625 46.921875 
Q 47.46875 44.1875 48.25 40.4375 
Q 48.734375 37.984375 48.734375 31.890625 
L 48.734375 0 
L 39.9375 0 
L 39.9375 31.546875 
Q 39.9375 36.921875 38.90625 39.578125 
Q 37.890625 42.234375 35.28125 43.8125 
Q 32.671875 45.40625 29.15625 45.40625 
Q 23.53125 45.40625 19.453125 41.84375 
Q 15.375 38.28125 15.375 28.328125 
L 15.375 0 
z
" id="ArialMT-110"/>
      <path d="M -0.140625 0 
L 27.34375 71.578125 
L 37.546875 71.578125 
L 66.84375 0 
L 56.0625 0 
L 47.703125 21.6875 
L 17.78125 21.6875 
L 9.90625 0 
z
M 20.515625 29.390625 
L 44.78125 29.390625 
L 37.3125 49.21875 
Q 33.890625 58.25 32.234375 64.0625 
Q 30.859375 57.171875 28.375 50.390625 
z
" id="ArialMT-65"/>
     </defs>
     <g transform="translate(7.3 55.92)rotate(-90)scale(0.1 -0.1)">
      <use transform="translate(0 0.09375)" xlink:href="#DejaVuSans-Oblique-73"/>
      <use transform="translate(29.492188 -16.3125)scale(0.7)" xlink:href="#DejaVuSans-Oblique-68"/>
      <use transform="translate(86.12793 0.09375)" xlink:href="#ArialMT-32"/>
      <use transform="translate(113.911133 0.09375)" xlink:href="#ArialMT-40"/>
      <use transform="translate(147.211914 0.09375)" xlink:href="#ArialMT-110"/>
      <use transform="translate(202.827148 0.09375)" xlink:href="#ArialMT-65"/>
      <use transform="translate(269.526367 0.09375)" xlink:href="#ArialMT-41"/>
     </g>
    </g>
   </g>
   <g id="line2d_59">
    <path clip-path="url(#p024d2161d7)" d="M 27.650795 77.78287 
L 28.918977 77.608652 
L 30.187159 77.658818 
L 31.455341 77.783863 
L 32.723523 77.681412 
L 33.991705 77.594962 
L 35.259886 77.531968 
L 36.528068 77.457553 
L 37.79625 77.369092 
L 39.064432 77.246254 
L 40.332614 77.062176 
L 41.600795 76.781567 
L 42.868977 76.300673 
L 44.137159 75.832064 
L 45.405341 75.365519 
L 46.673523 74.865299 
L 47.941705 74.307053 
L 49.209886 73.551363 
L 50.478068 72.636447 
L 51.74625 71.93543 
L 53.014432 70.719897 
L 54.282614 69.726127 
L 55.550795 68.1988 
L 56.818977 66.993848 
L 58.087159 62.701096 
L 59.355341 60.909536 
L 60.623523 57.646311 
L 61.891705 55.79646 
L 63.159886 53.349377 
L 64.428068 51.38462 
L 65.69625 48.645973 
L 66.964432 46.493836 
L 68.232614 43.575417 
L 69.500795 41.540369 
L 70.768977 39.197384 
L 72.037159 37.256577 
L 73.305341 34.730938 
L 74.573523 32.41439 
L 75.841705 30.411321 
L 77.109886 27.165754 
L 78.378068 26.769427 
L 79.64625 24.399002 
L 80.914432 23.388014 
L 82.182614 22.190147 
L 83.450795 19.818193 
L 84.718977 17.839685 
L 85.987159 17.045347 
L 87.255341 15.157434 
L 88.523523 13.268066 
L 89.791705 12.502554 
L 91.059886 11.731697 
L 92.328068 11.147604 
L 93.59625 11.550654 
L 94.864432 10.448627 
L 96.132614 9.031364 
L 97.400795 7.412509 
L 98.668977 7.17096 
L 99.937159 6.396193 
L 101.205341 6.0238 
L 102.473523 5.668533 
L 103.741705 3.706364 
L 102.473523 14.266827 
L 101.205341 23.014843 
L 99.937159 30.929657 
L 98.668977 36.638094 
L 97.400795 42.937621 
L 96.132614 46.854565 
L 94.864432 51.415308 
L 93.59625 54.765772 
L 92.328068 58.598392 
L 91.059886 61.877089 
L 89.791705 64.189839 
L 88.523523 67.628373 
L 87.255341 69.252409 
L 85.987159 70.961571 
L 84.718977 72.470165 
L 83.450795 73.26811 
L 82.182614 74.375174 
L 80.914432 75.041326 
L 79.64625 75.75368 
L 78.378068 76.211714 
L 77.109886 77.004532 
L 75.841705 77.158991 
L 74.573523 77.39335 
L 73.305341 77.498468 
L 72.037159 77.590816 
L 70.768977 77.660704 
L 69.500795 77.679143 
L 68.232614 77.627977 
L 66.964432 77.661766 
L 65.69625 77.768589 
L 64.428068 77.571023 
L 63.159886 77.521161 
L 61.891705 77.587613 
L 60.623523 77.61215 
L 59.355341 77.663057 
L 58.087159 77.651906 
L 56.818977 77.717375 
L 55.550795 77.757551 
L 54.282614 77.669252 
L 53.014432 77.743578 
L 51.74625 77.735729 
L 50.478068 77.75339 
L 49.209886 77.790298 
L 47.941705 77.712478 
L 46.673523 77.689686 
L 45.405341 77.716726 
L 44.137159 77.740323 
L 42.868977 77.699037 
L 41.600795 77.692706 
L 40.332614 77.734168 
L 39.064432 77.701033 
L 37.79625 77.833636 
L 36.528068 77.714636 
L 35.259886 77.670819 
L 33.991705 77.748934 
L 32.723523 77.806772 
L 31.455341 77.571713 
L 30.187159 77.605806 
L 28.918977 77.702283 
L 27.650795 77.631943 
" style="fill:none;stroke:#377eb8;stroke-linecap:square;stroke-width:1.5;"/>
    <defs>
     <path d="M 0 0.75 
C 0.198902 0.75 0.389685 0.670975 0.53033 0.53033 
C 0.670975 0.389685 0.75 0.198902 0.75 0 
C 0.75 -0.198902 0.670975 -0.389685 0.53033 -0.53033 
C 0.389685 -0.670975 0.198902 -0.75 0 -0.75 
C -0.198902 -0.75 -0.389685 -0.670975 -0.53033 -0.53033 
C -0.670975 -0.389685 -0.75 -0.198902 -0.75 0 
C -0.75 0.198902 -0.670975 0.389685 -0.53033 0.53033 
C -0.389685 0.670975 -0.198902 0.75 0 0.75 
z
" id="m61dec69e60" style="stroke:#377eb8;"/>
    </defs>
    <g clip-path="url(#p024d2161d7)">
     <use style="fill:#377eb8;stroke:#377eb8;" x="27.650795" xlink:href="#m61dec69e60" y="77.78287"/>
     <use style="fill:#377eb8;stroke:#377eb8;" x="28.918977" xlink:href="#m61dec69e60" y="77.608652"/>
     <use style="fill:#377eb8;stroke:#377eb8;" x="30.187159" xlink:href="#m61dec69e60" y="77.658818"/>
     <use style="fill:#377eb8;stroke:#377eb8;" x="31.455341" xlink:href="#m61dec69e60" y="77.783863"/>
     <use style="fill:#377eb8;stroke:#377eb8;" x="32.723523" xlink:href="#m61dec69e60" y="77.681412"/>
     <use style="fill:#377eb8;stroke:#377eb8;" x="33.991705" xlink:href="#m61dec69e60" y="77.594962"/>
     <use style="fill:#377eb8;stroke:#377eb8;" x="35.259886" xlink:href="#m61dec69e60" y="77.531968"/>
     <use style="fill:#377eb8;stroke:#377eb8;" x="36.528068" xlink:href="#m61dec69e60" y="77.457553"/>
     <use style="fill:#377eb8;stroke:#377eb8;" x="37.79625" xlink:href="#m61dec69e60" y="77.369092"/>
     <use style="fill:#377eb8;stroke:#377eb8;" x="39.064432" xlink:href="#m61dec69e60" y="77.246254"/>
     <use style="fill:#377eb8;stroke:#377eb8;" x="40.332614" xlink:href="#m61dec69e60" y="77.062176"/>
     <use style="fill:#377eb8;stroke:#377eb8;" x="41.600795" xlink:href="#m61dec69e60" y="76.781567"/>
     <use style="fill:#377eb8;stroke:#377eb8;" x="42.868977" xlink:href="#m61dec69e60" y="76.300673"/>
     <use style="fill:#377eb8;stroke:#377eb8;" x="44.137159" xlink:href="#m61dec69e60" y="75.832064"/>
     <use style="fill:#377eb8;stroke:#377eb8;" x="45.405341" xlink:href="#m61dec69e60" y="75.365519"/>
     <use style="fill:#377eb8;stroke:#377eb8;" x="46.673523" xlink:href="#m61dec69e60" y="74.865299"/>
     <use style="fill:#377eb8;stroke:#377eb8;" x="47.941705" xlink:href="#m61dec69e60" y="74.307053"/>
     <use style="fill:#377eb8;stroke:#377eb8;" x="49.209886" xlink:href="#m61dec69e60" y="73.551363"/>
     <use style="fill:#377eb8;stroke:#377eb8;" x="50.478068" xlink:href="#m61dec69e60" y="72.636447"/>
     <use style="fill:#377eb8;stroke:#377eb8;" x="51.74625" xlink:href="#m61dec69e60" y="71.93543"/>
     <use style="fill:#377eb8;stroke:#377eb8;" x="53.014432" xlink:href="#m61dec69e60" y="70.719897"/>
     <use style="fill:#377eb8;stroke:#377eb8;" x="54.282614" xlink:href="#m61dec69e60" y="69.726127"/>
     <use style="fill:#377eb8;stroke:#377eb8;" x="55.550795" xlink:href="#m61dec69e60" y="68.1988"/>
     <use style="fill:#377eb8;stroke:#377eb8;" x="56.818977" xlink:href="#m61dec69e60" y="66.993848"/>
     <use style="fill:#377eb8;stroke:#377eb8;" x="58.087159" xlink:href="#m61dec69e60" y="62.701096"/>
     <use style="fill:#377eb8;stroke:#377eb8;" x="59.355341" xlink:href="#m61dec69e60" y="60.909536"/>
     <use style="fill:#377eb8;stroke:#377eb8;" x="60.623523" xlink:href="#m61dec69e60" y="57.646311"/>
     <use style="fill:#377eb8;stroke:#377eb8;" x="61.891705" xlink:href="#m61dec69e60" y="55.79646"/>
     <use style="fill:#377eb8;stroke:#377eb8;" x="63.159886" xlink:href="#m61dec69e60" y="53.349377"/>
     <use style="fill:#377eb8;stroke:#377eb8;" x="64.428068" xlink:href="#m61dec69e60" y="51.38462"/>
     <use style="fill:#377eb8;stroke:#377eb8;" x="65.69625" xlink:href="#m61dec69e60" y="48.645973"/>
     <use style="fill:#377eb8;stroke:#377eb8;" x="66.964432" xlink:href="#m61dec69e60" y="46.493836"/>
     <use style="fill:#377eb8;stroke:#377eb8;" x="68.232614" xlink:href="#m61dec69e60" y="43.575417"/>
     <use style="fill:#377eb8;stroke:#377eb8;" x="69.500795" xlink:href="#m61dec69e60" y="41.540369"/>
     <use style="fill:#377eb8;stroke:#377eb8;" x="70.768977" xlink:href="#m61dec69e60" y="39.197384"/>
     <use style="fill:#377eb8;stroke:#377eb8;" x="72.037159" xlink:href="#m61dec69e60" y="37.256577"/>
     <use style="fill:#377eb8;stroke:#377eb8;" x="73.305341" xlink:href="#m61dec69e60" y="34.730938"/>
     <use style="fill:#377eb8;stroke:#377eb8;" x="74.573523" xlink:href="#m61dec69e60" y="32.41439"/>
     <use style="fill:#377eb8;stroke:#377eb8;" x="75.841705" xlink:href="#m61dec69e60" y="30.411321"/>
     <use style="fill:#377eb8;stroke:#377eb8;" x="77.109886" xlink:href="#m61dec69e60" y="27.165754"/>
     <use style="fill:#377eb8;stroke:#377eb8;" x="78.378068" xlink:href="#m61dec69e60" y="26.769427"/>
     <use style="fill:#377eb8;stroke:#377eb8;" x="79.64625" xlink:href="#m61dec69e60" y="24.399002"/>
     <use style="fill:#377eb8;stroke:#377eb8;" x="80.914432" xlink:href="#m61dec69e60" y="23.388014"/>
     <use style="fill:#377eb8;stroke:#377eb8;" x="82.182614" xlink:href="#m61dec69e60" y="22.190147"/>
     <use style="fill:#377eb8;stroke:#377eb8;" x="83.450795" xlink:href="#m61dec69e60" y="19.818193"/>
     <use style="fill:#377eb8;stroke:#377eb8;" x="84.718977" xlink:href="#m61dec69e60" y="17.839685"/>
     <use style="fill:#377eb8;stroke:#377eb8;" x="85.987159" xlink:href="#m61dec69e60" y="17.045347"/>
     <use style="fill:#377eb8;stroke:#377eb8;" x="87.255341" xlink:href="#m61dec69e60" y="15.157434"/>
     <use style="fill:#377eb8;stroke:#377eb8;" x="88.523523" xlink:href="#m61dec69e60" y="13.268066"/>
     <use style="fill:#377eb8;stroke:#377eb8;" x="89.791705" xlink:href="#m61dec69e60" y="12.502554"/>
     <use style="fill:#377eb8;stroke:#377eb8;" x="91.059886" xlink:href="#m61dec69e60" y="11.731697"/>
     <use style="fill:#377eb8;stroke:#377eb8;" x="92.328068" xlink:href="#m61dec69e60" y="11.147604"/>
     <use style="fill:#377eb8;stroke:#377eb8;" x="93.59625" xlink:href="#m61dec69e60" y="11.550654"/>
     <use style="fill:#377eb8;stroke:#377eb8;" x="94.864432" xlink:href="#m61dec69e60" y="10.448627"/>
     <use style="fill:#377eb8;stroke:#377eb8;" x="96.132614" xlink:href="#m61dec69e60" y="9.031364"/>
     <use style="fill:#377eb8;stroke:#377eb8;" x="97.400795" xlink:href="#m61dec69e60" y="7.412509"/>
     <use style="fill:#377eb8;stroke:#377eb8;" x="98.668977" xlink:href="#m61dec69e60" y="7.17096"/>
     <use style="fill:#377eb8;stroke:#377eb8;" x="99.937159" xlink:href="#m61dec69e60" y="6.396193"/>
     <use style="fill:#377eb8;stroke:#377eb8;" x="101.205341" xlink:href="#m61dec69e60" y="6.0238"/>
     <use style="fill:#377eb8;stroke:#377eb8;" x="102.473523" xlink:href="#m61dec69e60" y="5.668533"/>
     <use style="fill:#377eb8;stroke:#377eb8;" x="103.741705" xlink:href="#m61dec69e60" y="3.706364"/>
     <use style="fill:#377eb8;stroke:#377eb8;" x="102.473523" xlink:href="#m61dec69e60" y="14.266827"/>
     <use style="fill:#377eb8;stroke:#377eb8;" x="101.205341" xlink:href="#m61dec69e60" y="23.014843"/>
     <use style="fill:#377eb8;stroke:#377eb8;" x="99.937159" xlink:href="#m61dec69e60" y="30.929657"/>
     <use style="fill:#377eb8;stroke:#377eb8;" x="98.668977" xlink:href="#m61dec69e60" y="36.638094"/>
     <use style="fill:#377eb8;stroke:#377eb8;" x="97.400795" xlink:href="#m61dec69e60" y="42.937621"/>
     <use style="fill:#377eb8;stroke:#377eb8;" x="96.132614" xlink:href="#m61dec69e60" y="46.854565"/>
     <use style="fill:#377eb8;stroke:#377eb8;" x="94.864432" xlink:href="#m61dec69e60" y="51.415308"/>
     <use style="fill:#377eb8;stroke:#377eb8;" x="93.59625" xlink:href="#m61dec69e60" y="54.765772"/>
     <use style="fill:#377eb8;stroke:#377eb8;" x="92.328068" xlink:href="#m61dec69e60" y="58.598392"/>
     <use style="fill:#377eb8;stroke:#377eb8;" x="91.059886" xlink:href="#m61dec69e60" y="61.877089"/>
     <use style="fill:#377eb8;stroke:#377eb8;" x="89.791705" xlink:href="#m61dec69e60" y="64.189839"/>
     <use style="fill:#377eb8;stroke:#377eb8;" x="88.523523" xlink:href="#m61dec69e60" y="67.628373"/>
     <use style="fill:#377eb8;stroke:#377eb8;" x="87.255341" xlink:href="#m61dec69e60" y="69.252409"/>
     <use style="fill:#377eb8;stroke:#377eb8;" x="85.987159" xlink:href="#m61dec69e60" y="70.961571"/>
     <use style="fill:#377eb8;stroke:#377eb8;" x="84.718977" xlink:href="#m61dec69e60" y="72.470165"/>
     <use style="fill:#377eb8;stroke:#377eb8;" x="83.450795" xlink:href="#m61dec69e60" y="73.26811"/>
     <use style="fill:#377eb8;stroke:#377eb8;" x="82.182614" xlink:href="#m61dec69e60" y="74.375174"/>
     <use style="fill:#377eb8;stroke:#377eb8;" x="80.914432" xlink:href="#m61dec69e60" y="75.041326"/>
     <use style="fill:#377eb8;stroke:#377eb8;" x="79.64625" xlink:href="#m61dec69e60" y="75.75368"/>
     <use style="fill:#377eb8;stroke:#377eb8;" x="78.378068" xlink:href="#m61dec69e60" y="76.211714"/>
     <use style="fill:#377eb8;stroke:#377eb8;" x="77.109886" xlink:href="#m61dec69e60" y="77.004532"/>
     <use style="fill:#377eb8;stroke:#377eb8;" x="75.841705" xlink:href="#m61dec69e60" y="77.158991"/>
     <use style="fill:#377eb8;stroke:#377eb8;" x="74.573523" xlink:href="#m61dec69e60" y="77.39335"/>
     <use style="fill:#377eb8;stroke:#377eb8;" x="73.305341" xlink:href="#m61dec69e60" y="77.498468"/>
     <use style="fill:#377eb8;stroke:#377eb8;" x="72.037159" xlink:href="#m61dec69e60" y="77.590816"/>
     <use style="fill:#377eb8;stroke:#377eb8;" x="70.768977" xlink:href="#m61dec69e60" y="77.660704"/>
     <use style="fill:#377eb8;stroke:#377eb8;" x="69.500795" xlink:href="#m61dec69e60" y="77.679143"/>
     <use style="fill:#377eb8;stroke:#377eb8;" x="68.232614" xlink:href="#m61dec69e60" y="77.627977"/>
     <use style="fill:#377eb8;stroke:#377eb8;" x="66.964432" xlink:href="#m61dec69e60" y="77.661766"/>
     <use style="fill:#377eb8;stroke:#377eb8;" x="65.69625" xlink:href="#m61dec69e60" y="77.768589"/>
     <use style="fill:#377eb8;stroke:#377eb8;" x="64.428068" xlink:href="#m61dec69e60" y="77.571023"/>
     <use style="fill:#377eb8;stroke:#377eb8;" x="63.159886" xlink:href="#m61dec69e60" y="77.521161"/>
     <use style="fill:#377eb8;stroke:#377eb8;" x="61.891705" xlink:href="#m61dec69e60" y="77.587613"/>
     <use style="fill:#377eb8;stroke:#377eb8;" x="60.623523" xlink:href="#m61dec69e60" y="77.61215"/>
     <use style="fill:#377eb8;stroke:#377eb8;" x="59.355341" xlink:href="#m61dec69e60" y="77.663057"/>
     <use style="fill:#377eb8;stroke:#377eb8;" x="58.087159" xlink:href="#m61dec69e60" y="77.651906"/>
     <use style="fill:#377eb8;stroke:#377eb8;" x="56.818977" xlink:href="#m61dec69e60" y="77.717375"/>
     <use style="fill:#377eb8;stroke:#377eb8;" x="55.550795" xlink:href="#m61dec69e60" y="77.757551"/>
     <use style="fill:#377eb8;stroke:#377eb8;" x="54.282614" xlink:href="#m61dec69e60" y="77.669252"/>
     <use style="fill:#377eb8;stroke:#377eb8;" x="53.014432" xlink:href="#m61dec69e60" y="77.743578"/>
     <use style="fill:#377eb8;stroke:#377eb8;" x="51.74625" xlink:href="#m61dec69e60" y="77.735729"/>
     <use style="fill:#377eb8;stroke:#377eb8;" x="50.478068" xlink:href="#m61dec69e60" y="77.75339"/>
     <use style="fill:#377eb8;stroke:#377eb8;" x="49.209886" xlink:href="#m61dec69e60" y="77.790298"/>
     <use style="fill:#377eb8;stroke:#377eb8;" x="47.941705" xlink:href="#m61dec69e60" y="77.712478"/>
     <use style="fill:#377eb8;stroke:#377eb8;" x="46.673523" xlink:href="#m61dec69e60" y="77.689686"/>
     <use style="fill:#377eb8;stroke:#377eb8;" x="45.405341" xlink:href="#m61dec69e60" y="77.716726"/>
     <use style="fill:#377eb8;stroke:#377eb8;" x="44.137159" xlink:href="#m61dec69e60" y="77.740323"/>
     <use style="fill:#377eb8;stroke:#377eb8;" x="42.868977" xlink:href="#m61dec69e60" y="77.699037"/>
     <use style="fill:#377eb8;stroke:#377eb8;" x="41.600795" xlink:href="#m61dec69e60" y="77.692706"/>
     <use style="fill:#377eb8;stroke:#377eb8;" x="40.332614" xlink:href="#m61dec69e60" y="77.734168"/>
     <use style="fill:#377eb8;stroke:#377eb8;" x="39.064432" xlink:href="#m61dec69e60" y="77.701033"/>
     <use style="fill:#377eb8;stroke:#377eb8;" x="37.79625" xlink:href="#m61dec69e60" y="77.833636"/>
     <use style="fill:#377eb8;stroke:#377eb8;" x="36.528068" xlink:href="#m61dec69e60" y="77.714636"/>
     <use style="fill:#377eb8;stroke:#377eb8;" x="35.259886" xlink:href="#m61dec69e60" y="77.670819"/>
     <use style="fill:#377eb8;stroke:#377eb8;" x="33.991705" xlink:href="#m61dec69e60" y="77.748934"/>
     <use style="fill:#377eb8;stroke:#377eb8;" x="32.723523" xlink:href="#m61dec69e60" y="77.806772"/>
     <use style="fill:#377eb8;stroke:#377eb8;" x="31.455341" xlink:href="#m61dec69e60" y="77.571713"/>
     <use style="fill:#377eb8;stroke:#377eb8;" x="30.187159" xlink:href="#m61dec69e60" y="77.605806"/>
     <use style="fill:#377eb8;stroke:#377eb8;" x="28.918977" xlink:href="#m61dec69e60" y="77.702283"/>
     <use style="fill:#377eb8;stroke:#377eb8;" x="27.650795" xlink:href="#m61dec69e60" y="77.631943"/>
    </g>
   </g>
   <g id="patch_3">
    <path d="M 23.84625 81.54 
L 23.84625 0 
" style="fill:none;stroke:#000000;stroke-linecap:square;stroke-linejoin:miter;stroke-width:0.8;"/>
   </g>
   <g id="patch_4">
    <path d="M 107.54625 81.54 
L 107.54625 0 
" style="fill:none;stroke:#000000;stroke-linecap:square;stroke-linejoin:miter;stroke-width:0.8;"/>
   </g>
   <g id="patch_5">
    <path d="M 23.84625 81.54 
L 107.54625 81.54 
" style="fill:none;stroke:#000000;stroke-linecap:square;stroke-linejoin:miter;stroke-width:0.8;"/>
   </g>
   <g id="patch_6">
    <path d="M 23.84625 0 
L 107.54625 0 
" style="fill:none;stroke:#000000;stroke-linecap:square;stroke-linejoin:miter;stroke-width:0.8;"/>
   </g>
  </g>
 </g>
 <defs>
  <clipPath id="p024d2161d7">
   <rect height="81.54" width="83.7" x="23.84625" y="0"/>
  </clipPath>
 </defs>
</svg>
