<?xml version="1.0" encoding="utf-8" standalone="no"?>
<!DOCTYPE svg PUBLIC "-//W3C//DTD SVG 1.1//EN"
  "http://www.w3.org/Graphics/SVG/1.1/DTD/svg11.dtd">
<!-- Created with matplotlib (https://matplotlib.org/) -->
<svg height="99.35625pt" version="1.1" viewBox="0 0 110.726818 99.35625" width="110.726818pt" xmlns="http://www.w3.org/2000/svg" xmlns:xlink="http://www.w3.org/1999/xlink">
 <defs>
  <style type="text/css">
*{stroke-linecap:butt;stroke-linejoin:round;white-space:pre;}
  </style>
 </defs>
 <g id="figure_1">
  <g id="patch_1">
   <path d="M 0 99.35625 
L 110.726818 99.35625 
L 110.726818 0 
L 0 0 
z
" style="fill:none;"/>
  </g>
  <g id="axes_1">
   <g id="patch_2">
    <path d="M 23.84625 81.54 
L 107.54625 81.54 
L 107.54625 0 
L 23.84625 0 
z
" style="fill:none;"/>
   </g>
   <g id="matplotlib.axis_1">
    <g id="xtick_1">
     <g id="line2d_1">
      <defs>
       <path d="M 0 0 
L 0 -3.5 
" id="mc55f67a6b7" style="stroke:#000000;stroke-width:0.8;"/>
      </defs>
      <g>
       <use style="stroke:#000000;stroke-width:0.8;" x="25.114432" xlink:href="#mc55f67a6b7" y="81.54"/>
      </g>
     </g>
     <g id="line2d_2">
      <defs>
       <path d="M 0 0 
L 0 3.5 
" id="ma2cc003c24" style="stroke:#000000;stroke-width:0.8;"/>
      </defs>
      <g>
       <use style="stroke:#000000;stroke-width:0.8;" x="25.114432" xlink:href="#ma2cc003c24" y="0"/>
      </g>
     </g>
     <g id="text_1">
      <!-- −80 -->
      <defs>
       <path d="M 52.828125 31.203125 
L 5.5625 31.203125 
L 5.5625 39.40625 
L 52.828125 39.40625 
z
" id="ArialMT-8722"/>
       <path d="M 17.671875 38.8125 
Q 12.203125 40.828125 9.5625 44.53125 
Q 6.9375 48.25 6.9375 53.421875 
Q 6.9375 61.234375 12.546875 66.546875 
Q 18.171875 71.875 27.484375 71.875 
Q 36.859375 71.875 42.578125 66.421875 
Q 48.296875 60.984375 48.296875 53.171875 
Q 48.296875 48.1875 45.671875 44.5 
Q 43.0625 40.828125 37.75 38.8125 
Q 44.34375 36.671875 47.78125 31.875 
Q 51.21875 27.09375 51.21875 20.453125 
Q 51.21875 11.28125 44.71875 5.03125 
Q 38.234375 -1.21875 27.640625 -1.21875 
Q 17.046875 -1.21875 10.546875 5.046875 
Q 4.046875 11.328125 4.046875 20.703125 
Q 4.046875 27.6875 7.59375 32.390625 
Q 11.140625 37.109375 17.671875 38.8125 
z
M 15.921875 53.71875 
Q 15.921875 48.640625 19.1875 45.40625 
Q 22.46875 42.1875 27.6875 42.1875 
Q 32.765625 42.1875 36.015625 45.375 
Q 39.265625 48.578125 39.265625 53.21875 
Q 39.265625 58.0625 35.90625 61.359375 
Q 32.5625 64.65625 27.59375 64.65625 
Q 22.5625 64.65625 19.234375 61.421875 
Q 15.921875 58.203125 15.921875 53.71875 
z
M 13.09375 20.65625 
Q 13.09375 16.890625 14.875 13.375 
Q 16.65625 9.859375 20.171875 7.921875 
Q 23.6875 6 27.734375 6 
Q 34.03125 6 38.125 10.046875 
Q 42.234375 14.109375 42.234375 20.359375 
Q 42.234375 26.703125 38.015625 30.859375 
Q 33.796875 35.015625 27.4375 35.015625 
Q 21.234375 35.015625 17.15625 30.90625 
Q 13.09375 26.8125 13.09375 20.65625 
z
" id="ArialMT-56"/>
       <path d="M 4.15625 35.296875 
Q 4.15625 48 6.765625 55.734375 
Q 9.375 63.484375 14.515625 67.671875 
Q 19.671875 71.875 27.484375 71.875 
Q 33.25 71.875 37.59375 69.546875 
Q 41.9375 67.234375 44.765625 62.859375 
Q 47.609375 58.5 49.21875 52.21875 
Q 50.828125 45.953125 50.828125 35.296875 
Q 50.828125 22.703125 48.234375 14.96875 
Q 45.65625 7.234375 40.5 3 
Q 35.359375 -1.21875 27.484375 -1.21875 
Q 17.140625 -1.21875 11.234375 6.203125 
Q 4.15625 15.140625 4.15625 35.296875 
z
M 13.1875 35.296875 
Q 13.1875 17.671875 17.3125 11.828125 
Q 21.4375 6 27.484375 6 
Q 33.546875 6 37.671875 11.859375 
Q 41.796875 17.71875 41.796875 35.296875 
Q 41.796875 52.984375 37.671875 58.78125 
Q 33.546875 64.59375 27.390625 64.59375 
Q 21.34375 64.59375 17.71875 59.46875 
Q 13.1875 52.9375 13.1875 35.296875 
z
" id="ArialMT-48"/>
      </defs>
      <g transform="translate(18.329432 88.26625)scale(0.08 -0.08)">
       <use xlink:href="#ArialMT-8722"/>
       <use x="58.398438" xlink:href="#ArialMT-56"/>
       <use x="114.013672" xlink:href="#ArialMT-48"/>
      </g>
     </g>
    </g>
    <g id="xtick_2">
     <g id="line2d_3">
      <g>
       <use style="stroke:#000000;stroke-width:0.8;" x="45.405341" xlink:href="#mc55f67a6b7" y="81.54"/>
      </g>
     </g>
     <g id="line2d_4">
      <g>
       <use style="stroke:#000000;stroke-width:0.8;" x="45.405341" xlink:href="#ma2cc003c24" y="0"/>
      </g>
     </g>
     <g id="text_2">
      <!-- −40 -->
      <defs>
       <path d="M 32.328125 0 
L 32.328125 17.140625 
L 1.265625 17.140625 
L 1.265625 25.203125 
L 33.9375 71.578125 
L 41.109375 71.578125 
L 41.109375 25.203125 
L 50.78125 25.203125 
L 50.78125 17.140625 
L 41.109375 17.140625 
L 41.109375 0 
z
M 32.328125 25.203125 
L 32.328125 57.46875 
L 9.90625 25.203125 
z
" id="ArialMT-52"/>
      </defs>
      <g transform="translate(38.620341 88.26625)scale(0.08 -0.08)">
       <use xlink:href="#ArialMT-8722"/>
       <use x="58.398438" xlink:href="#ArialMT-52"/>
       <use x="114.013672" xlink:href="#ArialMT-48"/>
      </g>
     </g>
    </g>
    <g id="xtick_3">
     <g id="line2d_5">
      <g>
       <use style="stroke:#000000;stroke-width:0.8;" x="65.69625" xlink:href="#mc55f67a6b7" y="81.54"/>
      </g>
     </g>
     <g id="line2d_6">
      <g>
       <use style="stroke:#000000;stroke-width:0.8;" x="65.69625" xlink:href="#ma2cc003c24" y="0"/>
      </g>
     </g>
     <g id="text_3">
      <!-- 0 -->
      <g transform="translate(63.471875 88.26625)scale(0.08 -0.08)">
       <use xlink:href="#ArialMT-48"/>
      </g>
     </g>
    </g>
    <g id="xtick_4">
     <g id="line2d_7">
      <g>
       <use style="stroke:#000000;stroke-width:0.8;" x="85.987159" xlink:href="#mc55f67a6b7" y="81.54"/>
      </g>
     </g>
     <g id="line2d_8">
      <g>
       <use style="stroke:#000000;stroke-width:0.8;" x="85.987159" xlink:href="#ma2cc003c24" y="0"/>
      </g>
     </g>
     <g id="text_4">
      <!-- 40 -->
      <g transform="translate(81.538409 88.26625)scale(0.08 -0.08)">
       <use xlink:href="#ArialMT-52"/>
       <use x="55.615234" xlink:href="#ArialMT-48"/>
      </g>
     </g>
    </g>
    <g id="xtick_5">
     <g id="line2d_9">
      <g>
       <use style="stroke:#000000;stroke-width:0.8;" x="106.278068" xlink:href="#mc55f67a6b7" y="81.54"/>
      </g>
     </g>
     <g id="line2d_10">
      <g>
       <use style="stroke:#000000;stroke-width:0.8;" x="106.278068" xlink:href="#ma2cc003c24" y="0"/>
      </g>
     </g>
     <g id="text_5">
      <!-- 80 -->
      <g transform="translate(101.829318 88.26625)scale(0.08 -0.08)">
       <use xlink:href="#ArialMT-56"/>
       <use x="55.615234" xlink:href="#ArialMT-48"/>
      </g>
     </g>
    </g>
    <g id="xtick_6">
     <g id="line2d_11">
      <defs>
       <path d="M 0 0 
L 0 -2 
" id="ma6f15b359f" style="stroke:#000000;stroke-width:0.6;"/>
      </defs>
      <g>
       <use style="stroke:#000000;stroke-width:0.6;" x="30.187159" xlink:href="#ma6f15b359f" y="81.54"/>
      </g>
     </g>
     <g id="line2d_12">
      <defs>
       <path d="M 0 0 
L 0 2 
" id="me5a202050c" style="stroke:#000000;stroke-width:0.6;"/>
      </defs>
      <g>
       <use style="stroke:#000000;stroke-width:0.6;" x="30.187159" xlink:href="#me5a202050c" y="0"/>
      </g>
     </g>
    </g>
    <g id="xtick_7">
     <g id="line2d_13">
      <g>
       <use style="stroke:#000000;stroke-width:0.6;" x="35.259886" xlink:href="#ma6f15b359f" y="81.54"/>
      </g>
     </g>
     <g id="line2d_14">
      <g>
       <use style="stroke:#000000;stroke-width:0.6;" x="35.259886" xlink:href="#me5a202050c" y="0"/>
      </g>
     </g>
    </g>
    <g id="xtick_8">
     <g id="line2d_15">
      <g>
       <use style="stroke:#000000;stroke-width:0.6;" x="40.332614" xlink:href="#ma6f15b359f" y="81.54"/>
      </g>
     </g>
     <g id="line2d_16">
      <g>
       <use style="stroke:#000000;stroke-width:0.6;" x="40.332614" xlink:href="#me5a202050c" y="0"/>
      </g>
     </g>
    </g>
    <g id="xtick_9">
     <g id="line2d_17">
      <g>
       <use style="stroke:#000000;stroke-width:0.6;" x="50.478068" xlink:href="#ma6f15b359f" y="81.54"/>
      </g>
     </g>
     <g id="line2d_18">
      <g>
       <use style="stroke:#000000;stroke-width:0.6;" x="50.478068" xlink:href="#me5a202050c" y="0"/>
      </g>
     </g>
    </g>
    <g id="xtick_10">
     <g id="line2d_19">
      <g>
       <use style="stroke:#000000;stroke-width:0.6;" x="55.550795" xlink:href="#ma6f15b359f" y="81.54"/>
      </g>
     </g>
     <g id="line2d_20">
      <g>
       <use style="stroke:#000000;stroke-width:0.6;" x="55.550795" xlink:href="#me5a202050c" y="0"/>
      </g>
     </g>
    </g>
    <g id="xtick_11">
     <g id="line2d_21">
      <g>
       <use style="stroke:#000000;stroke-width:0.6;" x="60.623523" xlink:href="#ma6f15b359f" y="81.54"/>
      </g>
     </g>
     <g id="line2d_22">
      <g>
       <use style="stroke:#000000;stroke-width:0.6;" x="60.623523" xlink:href="#me5a202050c" y="0"/>
      </g>
     </g>
    </g>
    <g id="xtick_12">
     <g id="line2d_23">
      <g>
       <use style="stroke:#000000;stroke-width:0.6;" x="70.768977" xlink:href="#ma6f15b359f" y="81.54"/>
      </g>
     </g>
     <g id="line2d_24">
      <g>
       <use style="stroke:#000000;stroke-width:0.6;" x="70.768977" xlink:href="#me5a202050c" y="0"/>
      </g>
     </g>
    </g>
    <g id="xtick_13">
     <g id="line2d_25">
      <g>
       <use style="stroke:#000000;stroke-width:0.6;" x="75.841705" xlink:href="#ma6f15b359f" y="81.54"/>
      </g>
     </g>
     <g id="line2d_26">
      <g>
       <use style="stroke:#000000;stroke-width:0.6;" x="75.841705" xlink:href="#me5a202050c" y="0"/>
      </g>
     </g>
    </g>
    <g id="xtick_14">
     <g id="line2d_27">
      <g>
       <use style="stroke:#000000;stroke-width:0.6;" x="80.914432" xlink:href="#ma6f15b359f" y="81.54"/>
      </g>
     </g>
     <g id="line2d_28">
      <g>
       <use style="stroke:#000000;stroke-width:0.6;" x="80.914432" xlink:href="#me5a202050c" y="0"/>
      </g>
     </g>
    </g>
    <g id="xtick_15">
     <g id="line2d_29">
      <g>
       <use style="stroke:#000000;stroke-width:0.6;" x="91.059886" xlink:href="#ma6f15b359f" y="81.54"/>
      </g>
     </g>
     <g id="line2d_30">
      <g>
       <use style="stroke:#000000;stroke-width:0.6;" x="91.059886" xlink:href="#me5a202050c" y="0"/>
      </g>
     </g>
    </g>
    <g id="xtick_16">
     <g id="line2d_31">
      <g>
       <use style="stroke:#000000;stroke-width:0.6;" x="96.132614" xlink:href="#ma6f15b359f" y="81.54"/>
      </g>
     </g>
     <g id="line2d_32">
      <g>
       <use style="stroke:#000000;stroke-width:0.6;" x="96.132614" xlink:href="#me5a202050c" y="0"/>
      </g>
     </g>
    </g>
    <g id="xtick_17">
     <g id="line2d_33">
      <g>
       <use style="stroke:#000000;stroke-width:0.6;" x="101.205341" xlink:href="#ma6f15b359f" y="81.54"/>
      </g>
     </g>
     <g id="line2d_34">
      <g>
       <use style="stroke:#000000;stroke-width:0.6;" x="101.205341" xlink:href="#me5a202050c" y="0"/>
      </g>
     </g>
    </g>
    <g id="text_6">
     <!-- $\it{V_{G}}$ (V) -->
     <defs>
      <path d="M 20.609375 0 
L 7.8125 72.90625 
L 17.484375 72.90625 
L 28.078125 10.203125 
L 63.484375 72.90625 
L 74.21875 72.90625 
L 32.078125 0 
z
" id="DejaVuSans-Oblique-86"/>
      <path d="M 54.59375 10.890625 
L 58.40625 29.984375 
L 42.1875 29.984375 
L 43.703125 38.09375 
L 69.578125 38.09375 
L 63.28125 6 
Q 56.78125 2.4375 49.109375 0.5 
Q 41.453125 -1.421875 33.6875 -1.421875 
Q 19.96875 -1.421875 12.234375 6.1875 
Q 4.5 13.8125 4.5 27.390625 
Q 4.5 38.671875 9.203125 48.84375 
Q 13.921875 59.03125 22.21875 65.828125 
Q 27.4375 70.0625 33.640625 72.140625 
Q 39.84375 74.21875 47.40625 74.21875 
Q 54.25 74.21875 60.515625 72.484375 
Q 66.796875 70.75 72.515625 67.28125 
L 70.515625 56.78125 
Q 66.109375 61.375 60.203125 63.796875 
Q 54.296875 66.21875 47.609375 66.21875 
Q 39.84375 66.21875 33.9375 63.25 
Q 28.03125 60.296875 23.390625 54.109375 
Q 19.4375 48.828125 17.15625 41.671875 
Q 14.890625 34.515625 14.890625 27.09375 
Q 14.890625 16.890625 20.109375 11.734375 
Q 25.34375 6.59375 35.6875 6.59375 
Q 40.875 6.59375 45.703125 7.6875 
Q 50.53125 8.796875 54.59375 10.890625 
z
" id="DejaVuSans-Oblique-71"/>
      <path id="ArialMT-32"/>
      <path d="M 23.390625 -21.046875 
Q 16.109375 -11.859375 11.078125 0.4375 
Q 6.0625 12.75 6.0625 25.921875 
Q 6.0625 37.546875 9.8125 48.1875 
Q 14.203125 60.546875 23.390625 72.796875 
L 29.6875 72.796875 
Q 23.78125 62.640625 21.875 58.296875 
Q 18.890625 51.5625 17.1875 44.234375 
Q 15.09375 35.109375 15.09375 25.875 
Q 15.09375 2.390625 29.6875 -21.046875 
z
" id="ArialMT-40"/>
      <path d="M 28.171875 0 
L 0.4375 71.578125 
L 10.6875 71.578125 
L 29.296875 19.578125 
Q 31.546875 13.328125 33.0625 7.859375 
Q 34.71875 13.71875 36.921875 19.578125 
L 56.25 71.578125 
L 65.921875 71.578125 
L 37.890625 0 
z
" id="ArialMT-86"/>
      <path d="M 12.359375 -21.046875 
L 6.0625 -21.046875 
Q 20.65625 2.390625 20.65625 25.875 
Q 20.65625 35.0625 18.5625 44.09375 
Q 16.890625 51.421875 13.921875 58.15625 
Q 12.015625 62.546875 6.0625 72.796875 
L 12.359375 72.796875 
Q 21.53125 60.546875 25.921875 48.1875 
Q 29.6875 37.546875 29.6875 25.921875 
Q 29.6875 12.75 24.625 0.4375 
Q 19.578125 -11.859375 12.359375 -21.046875 
z
" id="ArialMT-41"/>
     </defs>
     <g transform="translate(51.34625 97.15625)scale(0.1 -0.1)">
      <use transform="translate(0 0.09375)" xlink:href="#DejaVuSans-Oblique-86"/>
      <use transform="translate(68.408203 -16.3125)scale(0.7)" xlink:href="#DejaVuSans-Oblique-71"/>
      <use transform="translate(125.385742 0.09375)" xlink:href="#ArialMT-32"/>
      <use transform="translate(153.168945 0.09375)" xlink:href="#ArialMT-40"/>
      <use transform="translate(186.469727 0.09375)" xlink:href="#ArialMT-86"/>
      <use transform="translate(253.168945 0.09375)" xlink:href="#ArialMT-41"/>
     </g>
    </g>
   </g>
   <g id="matplotlib.axis_2">
    <g id="ytick_1">
     <g id="line2d_35">
      <defs>
       <path d="M 0 0 
L 3.5 0 
" id="md34aa6cbc0" style="stroke:#000000;stroke-width:0.8;"/>
      </defs>
      <g>
       <use style="stroke:#000000;stroke-width:0.8;" x="23.84625" xlink:href="#md34aa6cbc0" y="77.991088"/>
      </g>
     </g>
     <g id="line2d_36">
      <defs>
       <path d="M 0 0 
L -3.5 0 
" id="m8df667687b" style="stroke:#000000;stroke-width:0.8;"/>
      </defs>
      <g>
       <use style="stroke:#000000;stroke-width:0.8;" x="107.54625" xlink:href="#m8df667687b" y="77.991088"/>
      </g>
     </g>
     <g id="text_7">
      <!-- 0 -->
      <g transform="translate(18.3975 80.854213)scale(0.08 -0.08)">
       <use xlink:href="#ArialMT-48"/>
      </g>
     </g>
    </g>
    <g id="ytick_2">
     <g id="line2d_37">
      <g>
       <use style="stroke:#000000;stroke-width:0.8;" x="23.84625" xlink:href="#md34aa6cbc0" y="61.518089"/>
      </g>
     </g>
     <g id="line2d_38">
      <g>
       <use style="stroke:#000000;stroke-width:0.8;" x="107.54625" xlink:href="#m8df667687b" y="61.518089"/>
      </g>
     </g>
     <g id="text_8">
      <!-- 50 -->
      <defs>
       <path d="M 4.15625 18.75 
L 13.375 19.53125 
Q 14.40625 12.796875 18.140625 9.390625 
Q 21.875 6 27.15625 6 
Q 33.5 6 37.890625 10.78125 
Q 42.28125 15.578125 42.28125 23.484375 
Q 42.28125 31 38.0625 35.34375 
Q 33.84375 39.703125 27 39.703125 
Q 22.75 39.703125 19.328125 37.765625 
Q 15.921875 35.84375 13.96875 32.765625 
L 5.71875 33.84375 
L 12.640625 70.609375 
L 48.25 70.609375 
L 48.25 62.203125 
L 19.671875 62.203125 
L 15.828125 42.96875 
Q 22.265625 47.46875 29.34375 47.46875 
Q 38.71875 47.46875 45.15625 40.96875 
Q 51.609375 34.46875 51.609375 24.265625 
Q 51.609375 14.546875 45.953125 7.46875 
Q 39.0625 -1.21875 27.15625 -1.21875 
Q 17.390625 -1.21875 11.203125 4.25 
Q 5.03125 9.71875 4.15625 18.75 
z
" id="ArialMT-53"/>
      </defs>
      <g transform="translate(13.94875 64.381214)scale(0.08 -0.08)">
       <use xlink:href="#ArialMT-53"/>
       <use x="55.615234" xlink:href="#ArialMT-48"/>
      </g>
     </g>
    </g>
    <g id="ytick_3">
     <g id="line2d_39">
      <g>
       <use style="stroke:#000000;stroke-width:0.8;" x="23.84625" xlink:href="#md34aa6cbc0" y="45.04509"/>
      </g>
     </g>
     <g id="line2d_40">
      <g>
       <use style="stroke:#000000;stroke-width:0.8;" x="107.54625" xlink:href="#m8df667687b" y="45.04509"/>
      </g>
     </g>
     <g id="text_9">
      <!-- 100 -->
      <defs>
       <path d="M 37.25 0 
L 28.46875 0 
L 28.46875 56 
Q 25.296875 52.984375 20.140625 49.953125 
Q 14.984375 46.921875 10.890625 45.40625 
L 10.890625 53.90625 
Q 18.265625 57.375 23.78125 62.296875 
Q 29.296875 67.234375 31.59375 71.875 
L 37.25 71.875 
z
" id="ArialMT-49"/>
      </defs>
      <g transform="translate(9.5 47.908215)scale(0.08 -0.08)">
       <use xlink:href="#ArialMT-49"/>
       <use x="55.615234" xlink:href="#ArialMT-48"/>
       <use x="111.230469" xlink:href="#ArialMT-48"/>
      </g>
     </g>
    </g>
    <g id="ytick_4">
     <g id="line2d_41">
      <g>
       <use style="stroke:#000000;stroke-width:0.8;" x="23.84625" xlink:href="#md34aa6cbc0" y="28.572091"/>
      </g>
     </g>
     <g id="line2d_42">
      <g>
       <use style="stroke:#000000;stroke-width:0.8;" x="107.54625" xlink:href="#m8df667687b" y="28.572091"/>
      </g>
     </g>
     <g id="text_10">
      <!-- 150 -->
      <g transform="translate(9.5 31.435216)scale(0.08 -0.08)">
       <use xlink:href="#ArialMT-49"/>
       <use x="55.615234" xlink:href="#ArialMT-53"/>
       <use x="111.230469" xlink:href="#ArialMT-48"/>
      </g>
     </g>
    </g>
    <g id="ytick_5">
     <g id="line2d_43">
      <g>
       <use style="stroke:#000000;stroke-width:0.8;" x="23.84625" xlink:href="#md34aa6cbc0" y="12.099092"/>
      </g>
     </g>
     <g id="line2d_44">
      <g>
       <use style="stroke:#000000;stroke-width:0.8;" x="107.54625" xlink:href="#m8df667687b" y="12.099092"/>
      </g>
     </g>
     <g id="text_11">
      <!-- 200 -->
      <defs>
       <path d="M 50.34375 8.453125 
L 50.34375 0 
L 3.03125 0 
Q 2.9375 3.171875 4.046875 6.109375 
Q 5.859375 10.9375 9.828125 15.625 
Q 13.8125 20.3125 21.34375 26.46875 
Q 33.015625 36.03125 37.109375 41.625 
Q 41.21875 47.21875 41.21875 52.203125 
Q 41.21875 57.421875 37.46875 61 
Q 33.734375 64.59375 27.734375 64.59375 
Q 21.390625 64.59375 17.578125 60.78125 
Q 13.765625 56.984375 13.71875 50.25 
L 4.6875 51.171875 
Q 5.609375 61.28125 11.65625 66.578125 
Q 17.71875 71.875 27.9375 71.875 
Q 38.234375 71.875 44.234375 66.15625 
Q 50.25 60.453125 50.25 52 
Q 50.25 47.703125 48.484375 43.546875 
Q 46.734375 39.40625 42.65625 34.8125 
Q 38.578125 30.21875 29.109375 22.21875 
Q 21.1875 15.578125 18.9375 13.203125 
Q 16.703125 10.84375 15.234375 8.453125 
z
" id="ArialMT-50"/>
      </defs>
      <g transform="translate(9.5 14.962217)scale(0.08 -0.08)">
       <use xlink:href="#ArialMT-50"/>
       <use x="55.615234" xlink:href="#ArialMT-48"/>
       <use x="111.230469" xlink:href="#ArialMT-48"/>
      </g>
     </g>
    </g>
    <g id="ytick_6">
     <g id="line2d_45">
      <defs>
       <path d="M 0 0 
L 2 0 
" id="madb2b76870" style="stroke:#000000;stroke-width:0.6;"/>
      </defs>
      <g>
       <use style="stroke:#000000;stroke-width:0.6;" x="23.84625" xlink:href="#madb2b76870" y="81.285688"/>
      </g>
     </g>
     <g id="line2d_46">
      <defs>
       <path d="M 0 0 
L -2 0 
" id="mb00cbfa15f" style="stroke:#000000;stroke-width:0.6;"/>
      </defs>
      <g>
       <use style="stroke:#000000;stroke-width:0.6;" x="107.54625" xlink:href="#mb00cbfa15f" y="81.285688"/>
      </g>
     </g>
    </g>
    <g id="ytick_7">
     <g id="line2d_47">
      <g>
       <use style="stroke:#000000;stroke-width:0.6;" x="23.84625" xlink:href="#madb2b76870" y="74.696488"/>
      </g>
     </g>
     <g id="line2d_48">
      <g>
       <use style="stroke:#000000;stroke-width:0.6;" x="107.54625" xlink:href="#mb00cbfa15f" y="74.696488"/>
      </g>
     </g>
    </g>
    <g id="ytick_8">
     <g id="line2d_49">
      <g>
       <use style="stroke:#000000;stroke-width:0.6;" x="23.84625" xlink:href="#madb2b76870" y="71.401889"/>
      </g>
     </g>
     <g id="line2d_50">
      <g>
       <use style="stroke:#000000;stroke-width:0.6;" x="107.54625" xlink:href="#mb00cbfa15f" y="71.401889"/>
      </g>
     </g>
    </g>
    <g id="ytick_9">
     <g id="line2d_51">
      <g>
       <use style="stroke:#000000;stroke-width:0.6;" x="23.84625" xlink:href="#madb2b76870" y="68.107289"/>
      </g>
     </g>
     <g id="line2d_52">
      <g>
       <use style="stroke:#000000;stroke-width:0.6;" x="107.54625" xlink:href="#mb00cbfa15f" y="68.107289"/>
      </g>
     </g>
    </g>
    <g id="ytick_10">
     <g id="line2d_53">
      <g>
       <use style="stroke:#000000;stroke-width:0.6;" x="23.84625" xlink:href="#madb2b76870" y="64.812689"/>
      </g>
     </g>
     <g id="line2d_54">
      <g>
       <use style="stroke:#000000;stroke-width:0.6;" x="107.54625" xlink:href="#mb00cbfa15f" y="64.812689"/>
      </g>
     </g>
    </g>
    <g id="ytick_11">
     <g id="line2d_55">
      <g>
       <use style="stroke:#000000;stroke-width:0.6;" x="23.84625" xlink:href="#madb2b76870" y="58.223489"/>
      </g>
     </g>
     <g id="line2d_56">
      <g>
       <use style="stroke:#000000;stroke-width:0.6;" x="107.54625" xlink:href="#mb00cbfa15f" y="58.223489"/>
      </g>
     </g>
    </g>
    <g id="ytick_12">
     <g id="line2d_57">
      <g>
       <use style="stroke:#000000;stroke-width:0.6;" x="23.84625" xlink:href="#madb2b76870" y="54.92889"/>
      </g>
     </g>
     <g id="line2d_58">
      <g>
       <use style="stroke:#000000;stroke-width:0.6;" x="107.54625" xlink:href="#mb00cbfa15f" y="54.92889"/>
      </g>
     </g>
    </g>
    <g id="ytick_13">
     <g id="line2d_59">
      <g>
       <use style="stroke:#000000;stroke-width:0.6;" x="23.84625" xlink:href="#madb2b76870" y="51.63429"/>
      </g>
     </g>
     <g id="line2d_60">
      <g>
       <use style="stroke:#000000;stroke-width:0.6;" x="107.54625" xlink:href="#mb00cbfa15f" y="51.63429"/>
      </g>
     </g>
    </g>
    <g id="ytick_14">
     <g id="line2d_61">
      <g>
       <use style="stroke:#000000;stroke-width:0.6;" x="23.84625" xlink:href="#madb2b76870" y="48.33969"/>
      </g>
     </g>
     <g id="line2d_62">
      <g>
       <use style="stroke:#000000;stroke-width:0.6;" x="107.54625" xlink:href="#mb00cbfa15f" y="48.33969"/>
      </g>
     </g>
    </g>
    <g id="ytick_15">
     <g id="line2d_63">
      <g>
       <use style="stroke:#000000;stroke-width:0.6;" x="23.84625" xlink:href="#madb2b76870" y="41.75049"/>
      </g>
     </g>
     <g id="line2d_64">
      <g>
       <use style="stroke:#000000;stroke-width:0.6;" x="107.54625" xlink:href="#mb00cbfa15f" y="41.75049"/>
      </g>
     </g>
    </g>
    <g id="ytick_16">
     <g id="line2d_65">
      <g>
       <use style="stroke:#000000;stroke-width:0.6;" x="23.84625" xlink:href="#madb2b76870" y="38.455891"/>
      </g>
     </g>
     <g id="line2d_66">
      <g>
       <use style="stroke:#000000;stroke-width:0.6;" x="107.54625" xlink:href="#mb00cbfa15f" y="38.455891"/>
      </g>
     </g>
    </g>
    <g id="ytick_17">
     <g id="line2d_67">
      <g>
       <use style="stroke:#000000;stroke-width:0.6;" x="23.84625" xlink:href="#madb2b76870" y="35.161291"/>
      </g>
     </g>
     <g id="line2d_68">
      <g>
       <use style="stroke:#000000;stroke-width:0.6;" x="107.54625" xlink:href="#mb00cbfa15f" y="35.161291"/>
      </g>
     </g>
    </g>
    <g id="ytick_18">
     <g id="line2d_69">
      <g>
       <use style="stroke:#000000;stroke-width:0.6;" x="23.84625" xlink:href="#madb2b76870" y="31.866691"/>
      </g>
     </g>
     <g id="line2d_70">
      <g>
       <use style="stroke:#000000;stroke-width:0.6;" x="107.54625" xlink:href="#mb00cbfa15f" y="31.866691"/>
      </g>
     </g>
    </g>
    <g id="ytick_19">
     <g id="line2d_71">
      <g>
       <use style="stroke:#000000;stroke-width:0.6;" x="23.84625" xlink:href="#madb2b76870" y="25.277491"/>
      </g>
     </g>
     <g id="line2d_72">
      <g>
       <use style="stroke:#000000;stroke-width:0.6;" x="107.54625" xlink:href="#mb00cbfa15f" y="25.277491"/>
      </g>
     </g>
    </g>
    <g id="ytick_20">
     <g id="line2d_73">
      <g>
       <use style="stroke:#000000;stroke-width:0.6;" x="23.84625" xlink:href="#madb2b76870" y="21.982892"/>
      </g>
     </g>
     <g id="line2d_74">
      <g>
       <use style="stroke:#000000;stroke-width:0.6;" x="107.54625" xlink:href="#mb00cbfa15f" y="21.982892"/>
      </g>
     </g>
    </g>
    <g id="ytick_21">
     <g id="line2d_75">
      <g>
       <use style="stroke:#000000;stroke-width:0.6;" x="23.84625" xlink:href="#madb2b76870" y="18.688292"/>
      </g>
     </g>
     <g id="line2d_76">
      <g>
       <use style="stroke:#000000;stroke-width:0.6;" x="107.54625" xlink:href="#mb00cbfa15f" y="18.688292"/>
      </g>
     </g>
    </g>
    <g id="ytick_22">
     <g id="line2d_77">
      <g>
       <use style="stroke:#000000;stroke-width:0.6;" x="23.84625" xlink:href="#madb2b76870" y="15.393692"/>
      </g>
     </g>
     <g id="line2d_78">
      <g>
       <use style="stroke:#000000;stroke-width:0.6;" x="107.54625" xlink:href="#mb00cbfa15f" y="15.393692"/>
      </g>
     </g>
    </g>
    <g id="ytick_23">
     <g id="line2d_79">
      <g>
       <use style="stroke:#000000;stroke-width:0.6;" x="23.84625" xlink:href="#madb2b76870" y="8.804492"/>
      </g>
     </g>
     <g id="line2d_80">
      <g>
       <use style="stroke:#000000;stroke-width:0.6;" x="107.54625" xlink:href="#mb00cbfa15f" y="8.804492"/>
      </g>
     </g>
    </g>
    <g id="ytick_24">
     <g id="line2d_81">
      <g>
       <use style="stroke:#000000;stroke-width:0.6;" x="23.84625" xlink:href="#madb2b76870" y="5.509893"/>
      </g>
     </g>
     <g id="line2d_82">
      <g>
       <use style="stroke:#000000;stroke-width:0.6;" x="107.54625" xlink:href="#mb00cbfa15f" y="5.509893"/>
      </g>
     </g>
    </g>
    <g id="ytick_25">
     <g id="line2d_83">
      <g>
       <use style="stroke:#000000;stroke-width:0.6;" x="23.84625" xlink:href="#madb2b76870" y="2.215293"/>
      </g>
     </g>
     <g id="line2d_84">
      <g>
       <use style="stroke:#000000;stroke-width:0.6;" x="107.54625" xlink:href="#mb00cbfa15f" y="2.215293"/>
      </g>
     </g>
    </g>
    <g id="text_12">
     <!-- $\it{I_{D}}$ (nA) -->
     <defs>
      <path d="M 16.890625 72.90625 
L 26.8125 72.90625 
L 12.59375 0 
L 2.6875 0 
z
" id="DejaVuSans-Oblique-73"/>
      <path d="M 16.890625 72.90625 
L 38.09375 72.90625 
Q 54.984375 72.90625 63.59375 65.75 
Q 72.21875 58.59375 72.21875 44.484375 
Q 72.21875 35.15625 68.9375 26.53125 
Q 65.671875 17.921875 59.90625 12.015625 
Q 54.109375 5.953125 45.171875 2.96875 
Q 36.234375 0 24.03125 0 
L 2.6875 0 
z
M 25.203125 64.796875 
L 14.203125 8.109375 
L 27.09375 8.109375 
Q 43.65625 8.109375 52.734375 17.625 
Q 61.8125 27.15625 61.8125 44.484375 
Q 61.8125 54.984375 55.953125 59.890625 
Q 50.09375 64.796875 37.59375 64.796875 
z
" id="DejaVuSans-Oblique-68"/>
      <path d="M 6.59375 0 
L 6.59375 51.859375 
L 14.5 51.859375 
L 14.5 44.484375 
Q 20.21875 53.03125 31 53.03125 
Q 35.6875 53.03125 39.625 51.34375 
Q 43.5625 49.65625 45.515625 46.921875 
Q 47.46875 44.1875 48.25 40.4375 
Q 48.734375 37.984375 48.734375 31.890625 
L 48.734375 0 
L 39.9375 0 
L 39.9375 31.546875 
Q 39.9375 36.921875 38.90625 39.578125 
Q 37.890625 42.234375 35.28125 43.8125 
Q 32.671875 45.40625 29.15625 45.40625 
Q 23.53125 45.40625 19.453125 41.84375 
Q 15.375 38.28125 15.375 28.328125 
L 15.375 0 
z
" id="ArialMT-110"/>
      <path d="M -0.140625 0 
L 27.34375 71.578125 
L 37.546875 71.578125 
L 66.84375 0 
L 56.0625 0 
L 47.703125 21.6875 
L 17.78125 21.6875 
L 9.90625 0 
z
M 20.515625 29.390625 
L 44.78125 29.390625 
L 37.3125 49.21875 
Q 33.890625 58.25 32.234375 64.0625 
Q 30.859375 57.171875 28.375 50.390625 
z
" id="ArialMT-65"/>
     </defs>
     <g transform="translate(7.3 55.92)rotate(-90)scale(0.1 -0.1)">
      <use transform="translate(0 0.09375)" xlink:href="#DejaVuSans-Oblique-73"/>
      <use transform="translate(29.492188 -16.3125)scale(0.7)" xlink:href="#DejaVuSans-Oblique-68"/>
      <use transform="translate(86.12793 0.09375)" xlink:href="#ArialMT-32"/>
      <use transform="translate(113.911133 0.09375)" xlink:href="#ArialMT-40"/>
      <use transform="translate(147.211914 0.09375)" xlink:href="#ArialMT-110"/>
      <use transform="translate(202.827148 0.09375)" xlink:href="#ArialMT-65"/>
      <use transform="translate(269.526367 0.09375)" xlink:href="#ArialMT-41"/>
     </g>
    </g>
   </g>
   <g id="line2d_85">
    <path clip-path="url(#p8ecbfe71cf)" d="M 27.650795 77.394428 
L 28.918977 76.720911 
L 30.187159 76.193817 
L 31.455341 75.792925 
L 32.723523 74.409867 
L 33.991705 73.340438 
L 35.259886 72.409486 
L 36.528068 71.680537 
L 37.79625 70.879505 
L 39.064432 69.999157 
L 40.332614 68.788963 
L 41.600795 66.192023 
L 42.868977 66.203672 
L 44.137159 64.761601 
L 45.405341 63.364673 
L 46.673523 62.108542 
L 47.941705 60.535059 
L 49.209886 59.08772 
L 50.478068 57.716346 
L 51.74625 56.368128 
L 53.014432 55.214812 
L 54.282614 54.6929 
L 55.550795 52.369052 
L 56.818977 44.979055 
L 58.087159 43.942831 
L 59.355341 41.016767 
L 60.623523 39.908279 
L 61.891705 38.377414 
L 63.159886 33.790803 
L 64.428068 33.97364 
L 65.69625 33.768843 
L 66.964432 32.84659 
L 68.232614 30.51646 
L 69.500795 28.90443 
L 70.768977 24.45861 
L 72.037159 22.808895 
L 73.305341 20.7918 
L 74.573523 18.324845 
L 75.841705 17.732304 
L 77.109886 17.10961 
L 78.378068 16.09124 
L 79.64625 14.652774 
L 80.914432 13.836178 
L 82.182614 12.769576 
L 83.450795 13.172126 
L 84.718977 10.316522 
L 85.987159 11.974694 
L 87.255341 10.510826 
L 88.523523 8.575552 
L 89.791705 8.748519 
L 91.059886 7.186443 
L 92.328068 6.397318 
L 93.59625 5.704576 
L 94.864432 6.787352 
L 96.132614 5.874326 
L 97.400795 5.5521 
L 98.668977 5.231672 
L 99.937159 5.655968 
L 101.205341 4.779503 
L 102.473523 3.706364 
L 103.741705 4.766273 
L 102.473523 27.580163 
L 101.205341 42.826892 
L 99.937159 56.31828 
L 98.668977 60.387203 
L 97.400795 63.641376 
L 96.132614 63.640337 
L 94.864432 67.705072 
L 93.59625 69.7433 
L 92.328068 70.18328 
L 91.059886 72.158208 
L 89.791705 72.820049 
L 88.523523 73.108185 
L 87.255341 74.19471 
L 85.987159 74.660645 
L 84.718977 74.816333 
L 83.450795 76.029153 
L 82.182614 76.14051 
L 80.914432 76.475728 
L 79.64625 76.610185 
L 78.378068 76.836469 
L 77.109886 76.713352 
L 75.841705 76.961144 
L 74.573523 77.230557 
L 73.305341 77.064551 
L 72.037159 77.204669 
L 70.768977 77.268968 
L 69.500795 77.482935 
L 68.232614 77.275573 
L 66.964432 77.338372 
L 65.69625 77.44064 
L 64.428068 77.442425 
L 63.159886 77.410296 
L 61.891705 77.446136 
L 60.623523 77.525367 
L 59.355341 77.50796 
L 58.087159 77.574346 
L 56.818977 77.670605 
L 55.550795 77.554323 
L 54.282614 77.697471 
L 53.014432 77.70908 
L 51.74625 77.666656 
L 50.478068 77.630321 
L 49.209886 77.61366 
L 47.941705 77.725125 
L 46.673523 77.708592 
L 45.405341 77.713883 
L 44.137159 77.699534 
L 42.868977 77.627506 
L 41.600795 77.726703 
L 40.332614 77.707681 
L 39.064432 77.734098 
L 37.79625 77.680545 
L 36.528068 77.719379 
L 35.259886 77.724996 
L 33.991705 77.77393 
L 32.723523 77.702612 
L 31.455341 77.833636 
L 30.187159 77.814282 
L 28.918977 77.733401 
L 27.650795 77.753139 
" style="fill:none;stroke:#377eb8;stroke-linecap:square;stroke-width:1.5;"/>
    <defs>
     <path d="M 0 0.75 
C 0.198902 0.75 0.389685 0.670975 0.53033 0.53033 
C 0.670975 0.389685 0.75 0.198902 0.75 0 
C 0.75 -0.198902 0.670975 -0.389685 0.53033 -0.53033 
C 0.389685 -0.670975 0.198902 -0.75 0 -0.75 
C -0.198902 -0.75 -0.389685 -0.670975 -0.53033 -0.53033 
C -0.670975 -0.389685 -0.75 -0.198902 -0.75 0 
C -0.75 0.198902 -0.670975 0.389685 -0.53033 0.53033 
C -0.389685 0.670975 -0.198902 0.75 0 0.75 
z
" id="mad1d7050fa" style="stroke:#377eb8;"/>
    </defs>
    <g clip-path="url(#p8ecbfe71cf)">
     <use style="fill:#377eb8;stroke:#377eb8;" x="27.650795" xlink:href="#mad1d7050fa" y="77.394428"/>
     <use style="fill:#377eb8;stroke:#377eb8;" x="28.918977" xlink:href="#mad1d7050fa" y="76.720911"/>
     <use style="fill:#377eb8;stroke:#377eb8;" x="30.187159" xlink:href="#mad1d7050fa" y="76.193817"/>
     <use style="fill:#377eb8;stroke:#377eb8;" x="31.455341" xlink:href="#mad1d7050fa" y="75.792925"/>
     <use style="fill:#377eb8;stroke:#377eb8;" x="32.723523" xlink:href="#mad1d7050fa" y="74.409867"/>
     <use style="fill:#377eb8;stroke:#377eb8;" x="33.991705" xlink:href="#mad1d7050fa" y="73.340438"/>
     <use style="fill:#377eb8;stroke:#377eb8;" x="35.259886" xlink:href="#mad1d7050fa" y="72.409486"/>
     <use style="fill:#377eb8;stroke:#377eb8;" x="36.528068" xlink:href="#mad1d7050fa" y="71.680537"/>
     <use style="fill:#377eb8;stroke:#377eb8;" x="37.79625" xlink:href="#mad1d7050fa" y="70.879505"/>
     <use style="fill:#377eb8;stroke:#377eb8;" x="39.064432" xlink:href="#mad1d7050fa" y="69.999157"/>
     <use style="fill:#377eb8;stroke:#377eb8;" x="40.332614" xlink:href="#mad1d7050fa" y="68.788963"/>
     <use style="fill:#377eb8;stroke:#377eb8;" x="41.600795" xlink:href="#mad1d7050fa" y="66.192023"/>
     <use style="fill:#377eb8;stroke:#377eb8;" x="42.868977" xlink:href="#mad1d7050fa" y="66.203672"/>
     <use style="fill:#377eb8;stroke:#377eb8;" x="44.137159" xlink:href="#mad1d7050fa" y="64.761601"/>
     <use style="fill:#377eb8;stroke:#377eb8;" x="45.405341" xlink:href="#mad1d7050fa" y="63.364673"/>
     <use style="fill:#377eb8;stroke:#377eb8;" x="46.673523" xlink:href="#mad1d7050fa" y="62.108542"/>
     <use style="fill:#377eb8;stroke:#377eb8;" x="47.941705" xlink:href="#mad1d7050fa" y="60.535059"/>
     <use style="fill:#377eb8;stroke:#377eb8;" x="49.209886" xlink:href="#mad1d7050fa" y="59.08772"/>
     <use style="fill:#377eb8;stroke:#377eb8;" x="50.478068" xlink:href="#mad1d7050fa" y="57.716346"/>
     <use style="fill:#377eb8;stroke:#377eb8;" x="51.74625" xlink:href="#mad1d7050fa" y="56.368128"/>
     <use style="fill:#377eb8;stroke:#377eb8;" x="53.014432" xlink:href="#mad1d7050fa" y="55.214812"/>
     <use style="fill:#377eb8;stroke:#377eb8;" x="54.282614" xlink:href="#mad1d7050fa" y="54.6929"/>
     <use style="fill:#377eb8;stroke:#377eb8;" x="55.550795" xlink:href="#mad1d7050fa" y="52.369052"/>
     <use style="fill:#377eb8;stroke:#377eb8;" x="56.818977" xlink:href="#mad1d7050fa" y="44.979055"/>
     <use style="fill:#377eb8;stroke:#377eb8;" x="58.087159" xlink:href="#mad1d7050fa" y="43.942831"/>
     <use style="fill:#377eb8;stroke:#377eb8;" x="59.355341" xlink:href="#mad1d7050fa" y="41.016767"/>
     <use style="fill:#377eb8;stroke:#377eb8;" x="60.623523" xlink:href="#mad1d7050fa" y="39.908279"/>
     <use style="fill:#377eb8;stroke:#377eb8;" x="61.891705" xlink:href="#mad1d7050fa" y="38.377414"/>
     <use style="fill:#377eb8;stroke:#377eb8;" x="63.159886" xlink:href="#mad1d7050fa" y="33.790803"/>
     <use style="fill:#377eb8;stroke:#377eb8;" x="64.428068" xlink:href="#mad1d7050fa" y="33.97364"/>
     <use style="fill:#377eb8;stroke:#377eb8;" x="65.69625" xlink:href="#mad1d7050fa" y="33.768843"/>
     <use style="fill:#377eb8;stroke:#377eb8;" x="66.964432" xlink:href="#mad1d7050fa" y="32.84659"/>
     <use style="fill:#377eb8;stroke:#377eb8;" x="68.232614" xlink:href="#mad1d7050fa" y="30.51646"/>
     <use style="fill:#377eb8;stroke:#377eb8;" x="69.500795" xlink:href="#mad1d7050fa" y="28.90443"/>
     <use style="fill:#377eb8;stroke:#377eb8;" x="70.768977" xlink:href="#mad1d7050fa" y="24.45861"/>
     <use style="fill:#377eb8;stroke:#377eb8;" x="72.037159" xlink:href="#mad1d7050fa" y="22.808895"/>
     <use style="fill:#377eb8;stroke:#377eb8;" x="73.305341" xlink:href="#mad1d7050fa" y="20.7918"/>
     <use style="fill:#377eb8;stroke:#377eb8;" x="74.573523" xlink:href="#mad1d7050fa" y="18.324845"/>
     <use style="fill:#377eb8;stroke:#377eb8;" x="75.841705" xlink:href="#mad1d7050fa" y="17.732304"/>
     <use style="fill:#377eb8;stroke:#377eb8;" x="77.109886" xlink:href="#mad1d7050fa" y="17.10961"/>
     <use style="fill:#377eb8;stroke:#377eb8;" x="78.378068" xlink:href="#mad1d7050fa" y="16.09124"/>
     <use style="fill:#377eb8;stroke:#377eb8;" x="79.64625" xlink:href="#mad1d7050fa" y="14.652774"/>
     <use style="fill:#377eb8;stroke:#377eb8;" x="80.914432" xlink:href="#mad1d7050fa" y="13.836178"/>
     <use style="fill:#377eb8;stroke:#377eb8;" x="82.182614" xlink:href="#mad1d7050fa" y="12.769576"/>
     <use style="fill:#377eb8;stroke:#377eb8;" x="83.450795" xlink:href="#mad1d7050fa" y="13.172126"/>
     <use style="fill:#377eb8;stroke:#377eb8;" x="84.718977" xlink:href="#mad1d7050fa" y="10.316522"/>
     <use style="fill:#377eb8;stroke:#377eb8;" x="85.987159" xlink:href="#mad1d7050fa" y="11.974694"/>
     <use style="fill:#377eb8;stroke:#377eb8;" x="87.255341" xlink:href="#mad1d7050fa" y="10.510826"/>
     <use style="fill:#377eb8;stroke:#377eb8;" x="88.523523" xlink:href="#mad1d7050fa" y="8.575552"/>
     <use style="fill:#377eb8;stroke:#377eb8;" x="89.791705" xlink:href="#mad1d7050fa" y="8.748519"/>
     <use style="fill:#377eb8;stroke:#377eb8;" x="91.059886" xlink:href="#mad1d7050fa" y="7.186443"/>
     <use style="fill:#377eb8;stroke:#377eb8;" x="92.328068" xlink:href="#mad1d7050fa" y="6.397318"/>
     <use style="fill:#377eb8;stroke:#377eb8;" x="93.59625" xlink:href="#mad1d7050fa" y="5.704576"/>
     <use style="fill:#377eb8;stroke:#377eb8;" x="94.864432" xlink:href="#mad1d7050fa" y="6.787352"/>
     <use style="fill:#377eb8;stroke:#377eb8;" x="96.132614" xlink:href="#mad1d7050fa" y="5.874326"/>
     <use style="fill:#377eb8;stroke:#377eb8;" x="97.400795" xlink:href="#mad1d7050fa" y="5.5521"/>
     <use style="fill:#377eb8;stroke:#377eb8;" x="98.668977" xlink:href="#mad1d7050fa" y="5.231672"/>
     <use style="fill:#377eb8;stroke:#377eb8;" x="99.937159" xlink:href="#mad1d7050fa" y="5.655968"/>
     <use style="fill:#377eb8;stroke:#377eb8;" x="101.205341" xlink:href="#mad1d7050fa" y="4.779503"/>
     <use style="fill:#377eb8;stroke:#377eb8;" x="102.473523" xlink:href="#mad1d7050fa" y="3.706364"/>
     <use style="fill:#377eb8;stroke:#377eb8;" x="103.741705" xlink:href="#mad1d7050fa" y="4.766273"/>
     <use style="fill:#377eb8;stroke:#377eb8;" x="102.473523" xlink:href="#mad1d7050fa" y="27.580163"/>
     <use style="fill:#377eb8;stroke:#377eb8;" x="101.205341" xlink:href="#mad1d7050fa" y="42.826892"/>
     <use style="fill:#377eb8;stroke:#377eb8;" x="99.937159" xlink:href="#mad1d7050fa" y="56.31828"/>
     <use style="fill:#377eb8;stroke:#377eb8;" x="98.668977" xlink:href="#mad1d7050fa" y="60.387203"/>
     <use style="fill:#377eb8;stroke:#377eb8;" x="97.400795" xlink:href="#mad1d7050fa" y="63.641376"/>
     <use style="fill:#377eb8;stroke:#377eb8;" x="96.132614" xlink:href="#mad1d7050fa" y="63.640337"/>
     <use style="fill:#377eb8;stroke:#377eb8;" x="94.864432" xlink:href="#mad1d7050fa" y="67.705072"/>
     <use style="fill:#377eb8;stroke:#377eb8;" x="93.59625" xlink:href="#mad1d7050fa" y="69.7433"/>
     <use style="fill:#377eb8;stroke:#377eb8;" x="92.328068" xlink:href="#mad1d7050fa" y="70.18328"/>
     <use style="fill:#377eb8;stroke:#377eb8;" x="91.059886" xlink:href="#mad1d7050fa" y="72.158208"/>
     <use style="fill:#377eb8;stroke:#377eb8;" x="89.791705" xlink:href="#mad1d7050fa" y="72.820049"/>
     <use style="fill:#377eb8;stroke:#377eb8;" x="88.523523" xlink:href="#mad1d7050fa" y="73.108185"/>
     <use style="fill:#377eb8;stroke:#377eb8;" x="87.255341" xlink:href="#mad1d7050fa" y="74.19471"/>
     <use style="fill:#377eb8;stroke:#377eb8;" x="85.987159" xlink:href="#mad1d7050fa" y="74.660645"/>
     <use style="fill:#377eb8;stroke:#377eb8;" x="84.718977" xlink:href="#mad1d7050fa" y="74.816333"/>
     <use style="fill:#377eb8;stroke:#377eb8;" x="83.450795" xlink:href="#mad1d7050fa" y="76.029153"/>
     <use style="fill:#377eb8;stroke:#377eb8;" x="82.182614" xlink:href="#mad1d7050fa" y="76.14051"/>
     <use style="fill:#377eb8;stroke:#377eb8;" x="80.914432" xlink:href="#mad1d7050fa" y="76.475728"/>
     <use style="fill:#377eb8;stroke:#377eb8;" x="79.64625" xlink:href="#mad1d7050fa" y="76.610185"/>
     <use style="fill:#377eb8;stroke:#377eb8;" x="78.378068" xlink:href="#mad1d7050fa" y="76.836469"/>
     <use style="fill:#377eb8;stroke:#377eb8;" x="77.109886" xlink:href="#mad1d7050fa" y="76.713352"/>
     <use style="fill:#377eb8;stroke:#377eb8;" x="75.841705" xlink:href="#mad1d7050fa" y="76.961144"/>
     <use style="fill:#377eb8;stroke:#377eb8;" x="74.573523" xlink:href="#mad1d7050fa" y="77.230557"/>
     <use style="fill:#377eb8;stroke:#377eb8;" x="73.305341" xlink:href="#mad1d7050fa" y="77.064551"/>
     <use style="fill:#377eb8;stroke:#377eb8;" x="72.037159" xlink:href="#mad1d7050fa" y="77.204669"/>
     <use style="fill:#377eb8;stroke:#377eb8;" x="70.768977" xlink:href="#mad1d7050fa" y="77.268968"/>
     <use style="fill:#377eb8;stroke:#377eb8;" x="69.500795" xlink:href="#mad1d7050fa" y="77.482935"/>
     <use style="fill:#377eb8;stroke:#377eb8;" x="68.232614" xlink:href="#mad1d7050fa" y="77.275573"/>
     <use style="fill:#377eb8;stroke:#377eb8;" x="66.964432" xlink:href="#mad1d7050fa" y="77.338372"/>
     <use style="fill:#377eb8;stroke:#377eb8;" x="65.69625" xlink:href="#mad1d7050fa" y="77.44064"/>
     <use style="fill:#377eb8;stroke:#377eb8;" x="64.428068" xlink:href="#mad1d7050fa" y="77.442425"/>
     <use style="fill:#377eb8;stroke:#377eb8;" x="63.159886" xlink:href="#mad1d7050fa" y="77.410296"/>
     <use style="fill:#377eb8;stroke:#377eb8;" x="61.891705" xlink:href="#mad1d7050fa" y="77.446136"/>
     <use style="fill:#377eb8;stroke:#377eb8;" x="60.623523" xlink:href="#mad1d7050fa" y="77.525367"/>
     <use style="fill:#377eb8;stroke:#377eb8;" x="59.355341" xlink:href="#mad1d7050fa" y="77.50796"/>
     <use style="fill:#377eb8;stroke:#377eb8;" x="58.087159" xlink:href="#mad1d7050fa" y="77.574346"/>
     <use style="fill:#377eb8;stroke:#377eb8;" x="56.818977" xlink:href="#mad1d7050fa" y="77.670605"/>
     <use style="fill:#377eb8;stroke:#377eb8;" x="55.550795" xlink:href="#mad1d7050fa" y="77.554323"/>
     <use style="fill:#377eb8;stroke:#377eb8;" x="54.282614" xlink:href="#mad1d7050fa" y="77.697471"/>
     <use style="fill:#377eb8;stroke:#377eb8;" x="53.014432" xlink:href="#mad1d7050fa" y="77.70908"/>
     <use style="fill:#377eb8;stroke:#377eb8;" x="51.74625" xlink:href="#mad1d7050fa" y="77.666656"/>
     <use style="fill:#377eb8;stroke:#377eb8;" x="50.478068" xlink:href="#mad1d7050fa" y="77.630321"/>
     <use style="fill:#377eb8;stroke:#377eb8;" x="49.209886" xlink:href="#mad1d7050fa" y="77.61366"/>
     <use style="fill:#377eb8;stroke:#377eb8;" x="47.941705" xlink:href="#mad1d7050fa" y="77.725125"/>
     <use style="fill:#377eb8;stroke:#377eb8;" x="46.673523" xlink:href="#mad1d7050fa" y="77.708592"/>
     <use style="fill:#377eb8;stroke:#377eb8;" x="45.405341" xlink:href="#mad1d7050fa" y="77.713883"/>
     <use style="fill:#377eb8;stroke:#377eb8;" x="44.137159" xlink:href="#mad1d7050fa" y="77.699534"/>
     <use style="fill:#377eb8;stroke:#377eb8;" x="42.868977" xlink:href="#mad1d7050fa" y="77.627506"/>
     <use style="fill:#377eb8;stroke:#377eb8;" x="41.600795" xlink:href="#mad1d7050fa" y="77.726703"/>
     <use style="fill:#377eb8;stroke:#377eb8;" x="40.332614" xlink:href="#mad1d7050fa" y="77.707681"/>
     <use style="fill:#377eb8;stroke:#377eb8;" x="39.064432" xlink:href="#mad1d7050fa" y="77.734098"/>
     <use style="fill:#377eb8;stroke:#377eb8;" x="37.79625" xlink:href="#mad1d7050fa" y="77.680545"/>
     <use style="fill:#377eb8;stroke:#377eb8;" x="36.528068" xlink:href="#mad1d7050fa" y="77.719379"/>
     <use style="fill:#377eb8;stroke:#377eb8;" x="35.259886" xlink:href="#mad1d7050fa" y="77.724996"/>
     <use style="fill:#377eb8;stroke:#377eb8;" x="33.991705" xlink:href="#mad1d7050fa" y="77.77393"/>
     <use style="fill:#377eb8;stroke:#377eb8;" x="32.723523" xlink:href="#mad1d7050fa" y="77.702612"/>
     <use style="fill:#377eb8;stroke:#377eb8;" x="31.455341" xlink:href="#mad1d7050fa" y="77.833636"/>
     <use style="fill:#377eb8;stroke:#377eb8;" x="30.187159" xlink:href="#mad1d7050fa" y="77.814282"/>
     <use style="fill:#377eb8;stroke:#377eb8;" x="28.918977" xlink:href="#mad1d7050fa" y="77.733401"/>
     <use style="fill:#377eb8;stroke:#377eb8;" x="27.650795" xlink:href="#mad1d7050fa" y="77.753139"/>
    </g>
   </g>
   <g id="patch_3">
    <path d="M 23.84625 81.54 
L 23.84625 0 
" style="fill:none;stroke:#000000;stroke-linecap:square;stroke-linejoin:miter;stroke-width:0.8;"/>
   </g>
   <g id="patch_4">
    <path d="M 107.54625 81.54 
L 107.54625 0 
" style="fill:none;stroke:#000000;stroke-linecap:square;stroke-linejoin:miter;stroke-width:0.8;"/>
   </g>
   <g id="patch_5">
    <path d="M 23.84625 81.54 
L 107.54625 81.54 
" style="fill:none;stroke:#000000;stroke-linecap:square;stroke-linejoin:miter;stroke-width:0.8;"/>
   </g>
   <g id="patch_6">
    <path d="M 23.84625 0 
L 107.54625 0 
" style="fill:none;stroke:#000000;stroke-linecap:square;stroke-linejoin:miter;stroke-width:0.8;"/>
   </g>
  </g>
 </g>
 <defs>
  <clipPath id="p8ecbfe71cf">
   <rect height="81.54" width="83.7" x="23.84625" y="0"/>
  </clipPath>
 </defs>
</svg>
