<?xml version="1.0" encoding="utf-8" standalone="no"?>
<!DOCTYPE svg PUBLIC "-//W3C//DTD SVG 1.1//EN"
  "http://www.w3.org/Graphics/SVG/1.1/DTD/svg11.dtd">
<!-- Created with matplotlib (https://matplotlib.org/) -->
<svg height="99.35625pt" version="1.1" viewBox="0 0 113.220568 99.35625" width="113.220568pt" xmlns="http://www.w3.org/2000/svg" xmlns:xlink="http://www.w3.org/1999/xlink">
 <defs>
  <style type="text/css">
*{stroke-linecap:butt;stroke-linejoin:round;white-space:pre;}
  </style>
 </defs>
 <g id="figure_1">
  <g id="patch_1">
   <path d="M 0 99.35625 
L 113.220568 99.35625 
L 113.220568 0 
L 0 0 
z
" style="fill:none;"/>
  </g>
  <g id="axes_1">
   <g id="patch_2">
    <path d="M 26.34 81.54 
L 110.04 81.54 
L 110.04 0 
L 26.34 0 
z
" style="fill:none;"/>
   </g>
   <g id="matplotlib.axis_1">
    <g id="xtick_1">
     <g id="line2d_1">
      <defs>
       <path d="M 0 0 
L 0 -3.5 
" id="m7e704982f4" style="stroke:#000000;stroke-width:0.8;"/>
      </defs>
      <g>
       <use style="stroke:#000000;stroke-width:0.8;" x="27.608182" xlink:href="#m7e704982f4" y="81.54"/>
      </g>
     </g>
     <g id="line2d_2">
      <defs>
       <path d="M 0 0 
L 0 3.5 
" id="mb63a0d919f" style="stroke:#000000;stroke-width:0.8;"/>
      </defs>
      <g>
       <use style="stroke:#000000;stroke-width:0.8;" x="27.608182" xlink:href="#mb63a0d919f" y="0"/>
      </g>
     </g>
     <g id="text_1">
      <!-- −80 -->
      <defs>
       <path d="M 52.828125 31.203125 
L 5.5625 31.203125 
L 5.5625 39.40625 
L 52.828125 39.40625 
z
" id="ArialMT-8722"/>
       <path d="M 17.671875 38.8125 
Q 12.203125 40.828125 9.5625 44.53125 
Q 6.9375 48.25 6.9375 53.421875 
Q 6.9375 61.234375 12.546875 66.546875 
Q 18.171875 71.875 27.484375 71.875 
Q 36.859375 71.875 42.578125 66.421875 
Q 48.296875 60.984375 48.296875 53.171875 
Q 48.296875 48.1875 45.671875 44.5 
Q 43.0625 40.828125 37.75 38.8125 
Q 44.34375 36.671875 47.78125 31.875 
Q 51.21875 27.09375 51.21875 20.453125 
Q 51.21875 11.28125 44.71875 5.03125 
Q 38.234375 -1.21875 27.640625 -1.21875 
Q 17.046875 -1.21875 10.546875 5.046875 
Q 4.046875 11.328125 4.046875 20.703125 
Q 4.046875 27.6875 7.59375 32.390625 
Q 11.140625 37.109375 17.671875 38.8125 
z
M 15.921875 53.71875 
Q 15.921875 48.640625 19.1875 45.40625 
Q 22.46875 42.1875 27.6875 42.1875 
Q 32.765625 42.1875 36.015625 45.375 
Q 39.265625 48.578125 39.265625 53.21875 
Q 39.265625 58.0625 35.90625 61.359375 
Q 32.5625 64.65625 27.59375 64.65625 
Q 22.5625 64.65625 19.234375 61.421875 
Q 15.921875 58.203125 15.921875 53.71875 
z
M 13.09375 20.65625 
Q 13.09375 16.890625 14.875 13.375 
Q 16.65625 9.859375 20.171875 7.921875 
Q 23.6875 6 27.734375 6 
Q 34.03125 6 38.125 10.046875 
Q 42.234375 14.109375 42.234375 20.359375 
Q 42.234375 26.703125 38.015625 30.859375 
Q 33.796875 35.015625 27.4375 35.015625 
Q 21.234375 35.015625 17.15625 30.90625 
Q 13.09375 26.8125 13.09375 20.65625 
z
" id="ArialMT-56"/>
       <path d="M 4.15625 35.296875 
Q 4.15625 48 6.765625 55.734375 
Q 9.375 63.484375 14.515625 67.671875 
Q 19.671875 71.875 27.484375 71.875 
Q 33.25 71.875 37.59375 69.546875 
Q 41.9375 67.234375 44.765625 62.859375 
Q 47.609375 58.5 49.21875 52.21875 
Q 50.828125 45.953125 50.828125 35.296875 
Q 50.828125 22.703125 48.234375 14.96875 
Q 45.65625 7.234375 40.5 3 
Q 35.359375 -1.21875 27.484375 -1.21875 
Q 17.140625 -1.21875 11.234375 6.203125 
Q 4.15625 15.140625 4.15625 35.296875 
z
M 13.1875 35.296875 
Q 13.1875 17.671875 17.3125 11.828125 
Q 21.4375 6 27.484375 6 
Q 33.546875 6 37.671875 11.859375 
Q 41.796875 17.71875 41.796875 35.296875 
Q 41.796875 52.984375 37.671875 58.78125 
Q 33.546875 64.59375 27.390625 64.59375 
Q 21.34375 64.59375 17.71875 59.46875 
Q 13.1875 52.9375 13.1875 35.296875 
z
" id="ArialMT-48"/>
      </defs>
      <g transform="translate(20.823182 88.26625)scale(0.08 -0.08)">
       <use xlink:href="#ArialMT-8722"/>
       <use x="58.398438" xlink:href="#ArialMT-56"/>
       <use x="114.013672" xlink:href="#ArialMT-48"/>
      </g>
     </g>
    </g>
    <g id="xtick_2">
     <g id="line2d_3">
      <g>
       <use style="stroke:#000000;stroke-width:0.8;" x="47.899091" xlink:href="#m7e704982f4" y="81.54"/>
      </g>
     </g>
     <g id="line2d_4">
      <g>
       <use style="stroke:#000000;stroke-width:0.8;" x="47.899091" xlink:href="#mb63a0d919f" y="0"/>
      </g>
     </g>
     <g id="text_2">
      <!-- −40 -->
      <defs>
       <path d="M 32.328125 0 
L 32.328125 17.140625 
L 1.265625 17.140625 
L 1.265625 25.203125 
L 33.9375 71.578125 
L 41.109375 71.578125 
L 41.109375 25.203125 
L 50.78125 25.203125 
L 50.78125 17.140625 
L 41.109375 17.140625 
L 41.109375 0 
z
M 32.328125 25.203125 
L 32.328125 57.46875 
L 9.90625 25.203125 
z
" id="ArialMT-52"/>
      </defs>
      <g transform="translate(41.114091 88.26625)scale(0.08 -0.08)">
       <use xlink:href="#ArialMT-8722"/>
       <use x="58.398438" xlink:href="#ArialMT-52"/>
       <use x="114.013672" xlink:href="#ArialMT-48"/>
      </g>
     </g>
    </g>
    <g id="xtick_3">
     <g id="line2d_5">
      <g>
       <use style="stroke:#000000;stroke-width:0.8;" x="68.19" xlink:href="#m7e704982f4" y="81.54"/>
      </g>
     </g>
     <g id="line2d_6">
      <g>
       <use style="stroke:#000000;stroke-width:0.8;" x="68.19" xlink:href="#mb63a0d919f" y="0"/>
      </g>
     </g>
     <g id="text_3">
      <!-- 0 -->
      <g transform="translate(65.965625 88.26625)scale(0.08 -0.08)">
       <use xlink:href="#ArialMT-48"/>
      </g>
     </g>
    </g>
    <g id="xtick_4">
     <g id="line2d_7">
      <g>
       <use style="stroke:#000000;stroke-width:0.8;" x="88.480909" xlink:href="#m7e704982f4" y="81.54"/>
      </g>
     </g>
     <g id="line2d_8">
      <g>
       <use style="stroke:#000000;stroke-width:0.8;" x="88.480909" xlink:href="#mb63a0d919f" y="0"/>
      </g>
     </g>
     <g id="text_4">
      <!-- 40 -->
      <g transform="translate(84.032159 88.26625)scale(0.08 -0.08)">
       <use xlink:href="#ArialMT-52"/>
       <use x="55.615234" xlink:href="#ArialMT-48"/>
      </g>
     </g>
    </g>
    <g id="xtick_5">
     <g id="line2d_9">
      <g>
       <use style="stroke:#000000;stroke-width:0.8;" x="108.771818" xlink:href="#m7e704982f4" y="81.54"/>
      </g>
     </g>
     <g id="line2d_10">
      <g>
       <use style="stroke:#000000;stroke-width:0.8;" x="108.771818" xlink:href="#mb63a0d919f" y="0"/>
      </g>
     </g>
     <g id="text_5">
      <!-- 80 -->
      <g transform="translate(104.323068 88.26625)scale(0.08 -0.08)">
       <use xlink:href="#ArialMT-56"/>
       <use x="55.615234" xlink:href="#ArialMT-48"/>
      </g>
     </g>
    </g>
    <g id="xtick_6">
     <g id="line2d_11">
      <defs>
       <path d="M 0 0 
L 0 -2 
" id="m540048fd70" style="stroke:#000000;stroke-width:0.6;"/>
      </defs>
      <g>
       <use style="stroke:#000000;stroke-width:0.6;" x="32.680909" xlink:href="#m540048fd70" y="81.54"/>
      </g>
     </g>
     <g id="line2d_12">
      <defs>
       <path d="M 0 0 
L 0 2 
" id="m4775d389e9" style="stroke:#000000;stroke-width:0.6;"/>
      </defs>
      <g>
       <use style="stroke:#000000;stroke-width:0.6;" x="32.680909" xlink:href="#m4775d389e9" y="0"/>
      </g>
     </g>
    </g>
    <g id="xtick_7">
     <g id="line2d_13">
      <g>
       <use style="stroke:#000000;stroke-width:0.6;" x="37.753636" xlink:href="#m540048fd70" y="81.54"/>
      </g>
     </g>
     <g id="line2d_14">
      <g>
       <use style="stroke:#000000;stroke-width:0.6;" x="37.753636" xlink:href="#m4775d389e9" y="0"/>
      </g>
     </g>
    </g>
    <g id="xtick_8">
     <g id="line2d_15">
      <g>
       <use style="stroke:#000000;stroke-width:0.6;" x="42.826364" xlink:href="#m540048fd70" y="81.54"/>
      </g>
     </g>
     <g id="line2d_16">
      <g>
       <use style="stroke:#000000;stroke-width:0.6;" x="42.826364" xlink:href="#m4775d389e9" y="0"/>
      </g>
     </g>
    </g>
    <g id="xtick_9">
     <g id="line2d_17">
      <g>
       <use style="stroke:#000000;stroke-width:0.6;" x="52.971818" xlink:href="#m540048fd70" y="81.54"/>
      </g>
     </g>
     <g id="line2d_18">
      <g>
       <use style="stroke:#000000;stroke-width:0.6;" x="52.971818" xlink:href="#m4775d389e9" y="0"/>
      </g>
     </g>
    </g>
    <g id="xtick_10">
     <g id="line2d_19">
      <g>
       <use style="stroke:#000000;stroke-width:0.6;" x="58.044545" xlink:href="#m540048fd70" y="81.54"/>
      </g>
     </g>
     <g id="line2d_20">
      <g>
       <use style="stroke:#000000;stroke-width:0.6;" x="58.044545" xlink:href="#m4775d389e9" y="0"/>
      </g>
     </g>
    </g>
    <g id="xtick_11">
     <g id="line2d_21">
      <g>
       <use style="stroke:#000000;stroke-width:0.6;" x="63.117273" xlink:href="#m540048fd70" y="81.54"/>
      </g>
     </g>
     <g id="line2d_22">
      <g>
       <use style="stroke:#000000;stroke-width:0.6;" x="63.117273" xlink:href="#m4775d389e9" y="0"/>
      </g>
     </g>
    </g>
    <g id="xtick_12">
     <g id="line2d_23">
      <g>
       <use style="stroke:#000000;stroke-width:0.6;" x="73.262727" xlink:href="#m540048fd70" y="81.54"/>
      </g>
     </g>
     <g id="line2d_24">
      <g>
       <use style="stroke:#000000;stroke-width:0.6;" x="73.262727" xlink:href="#m4775d389e9" y="0"/>
      </g>
     </g>
    </g>
    <g id="xtick_13">
     <g id="line2d_25">
      <g>
       <use style="stroke:#000000;stroke-width:0.6;" x="78.335455" xlink:href="#m540048fd70" y="81.54"/>
      </g>
     </g>
     <g id="line2d_26">
      <g>
       <use style="stroke:#000000;stroke-width:0.6;" x="78.335455" xlink:href="#m4775d389e9" y="0"/>
      </g>
     </g>
    </g>
    <g id="xtick_14">
     <g id="line2d_27">
      <g>
       <use style="stroke:#000000;stroke-width:0.6;" x="83.408182" xlink:href="#m540048fd70" y="81.54"/>
      </g>
     </g>
     <g id="line2d_28">
      <g>
       <use style="stroke:#000000;stroke-width:0.6;" x="83.408182" xlink:href="#m4775d389e9" y="0"/>
      </g>
     </g>
    </g>
    <g id="xtick_15">
     <g id="line2d_29">
      <g>
       <use style="stroke:#000000;stroke-width:0.6;" x="93.553636" xlink:href="#m540048fd70" y="81.54"/>
      </g>
     </g>
     <g id="line2d_30">
      <g>
       <use style="stroke:#000000;stroke-width:0.6;" x="93.553636" xlink:href="#m4775d389e9" y="0"/>
      </g>
     </g>
    </g>
    <g id="xtick_16">
     <g id="line2d_31">
      <g>
       <use style="stroke:#000000;stroke-width:0.6;" x="98.626364" xlink:href="#m540048fd70" y="81.54"/>
      </g>
     </g>
     <g id="line2d_32">
      <g>
       <use style="stroke:#000000;stroke-width:0.6;" x="98.626364" xlink:href="#m4775d389e9" y="0"/>
      </g>
     </g>
    </g>
    <g id="xtick_17">
     <g id="line2d_33">
      <g>
       <use style="stroke:#000000;stroke-width:0.6;" x="103.699091" xlink:href="#m540048fd70" y="81.54"/>
      </g>
     </g>
     <g id="line2d_34">
      <g>
       <use style="stroke:#000000;stroke-width:0.6;" x="103.699091" xlink:href="#m4775d389e9" y="0"/>
      </g>
     </g>
    </g>
    <g id="text_6">
     <!-- $\it{V_{G}}$ (V) -->
     <defs>
      <path d="M 20.609375 0 
L 7.8125 72.90625 
L 17.484375 72.90625 
L 28.078125 10.203125 
L 63.484375 72.90625 
L 74.21875 72.90625 
L 32.078125 0 
z
" id="DejaVuSans-Oblique-86"/>
      <path d="M 54.59375 10.890625 
L 58.40625 29.984375 
L 42.1875 29.984375 
L 43.703125 38.09375 
L 69.578125 38.09375 
L 63.28125 6 
Q 56.78125 2.4375 49.109375 0.5 
Q 41.453125 -1.421875 33.6875 -1.421875 
Q 19.96875 -1.421875 12.234375 6.1875 
Q 4.5 13.8125 4.5 27.390625 
Q 4.5 38.671875 9.203125 48.84375 
Q 13.921875 59.03125 22.21875 65.828125 
Q 27.4375 70.0625 33.640625 72.140625 
Q 39.84375 74.21875 47.40625 74.21875 
Q 54.25 74.21875 60.515625 72.484375 
Q 66.796875 70.75 72.515625 67.28125 
L 70.515625 56.78125 
Q 66.109375 61.375 60.203125 63.796875 
Q 54.296875 66.21875 47.609375 66.21875 
Q 39.84375 66.21875 33.9375 63.25 
Q 28.03125 60.296875 23.390625 54.109375 
Q 19.4375 48.828125 17.15625 41.671875 
Q 14.890625 34.515625 14.890625 27.09375 
Q 14.890625 16.890625 20.109375 11.734375 
Q 25.34375 6.59375 35.6875 6.59375 
Q 40.875 6.59375 45.703125 7.6875 
Q 50.53125 8.796875 54.59375 10.890625 
z
" id="DejaVuSans-Oblique-71"/>
      <path id="ArialMT-32"/>
      <path d="M 23.390625 -21.046875 
Q 16.109375 -11.859375 11.078125 0.4375 
Q 6.0625 12.75 6.0625 25.921875 
Q 6.0625 37.546875 9.8125 48.1875 
Q 14.203125 60.546875 23.390625 72.796875 
L 29.6875 72.796875 
Q 23.78125 62.640625 21.875 58.296875 
Q 18.890625 51.5625 17.1875 44.234375 
Q 15.09375 35.109375 15.09375 25.875 
Q 15.09375 2.390625 29.6875 -21.046875 
z
" id="ArialMT-40"/>
      <path d="M 28.171875 0 
L 0.4375 71.578125 
L 10.6875 71.578125 
L 29.296875 19.578125 
Q 31.546875 13.328125 33.0625 7.859375 
Q 34.71875 13.71875 36.921875 19.578125 
L 56.25 71.578125 
L 65.921875 71.578125 
L 37.890625 0 
z
" id="ArialMT-86"/>
      <path d="M 12.359375 -21.046875 
L 6.0625 -21.046875 
Q 20.65625 2.390625 20.65625 25.875 
Q 20.65625 35.0625 18.5625 44.09375 
Q 16.890625 51.421875 13.921875 58.15625 
Q 12.015625 62.546875 6.0625 72.796875 
L 12.359375 72.796875 
Q 21.53125 60.546875 25.921875 48.1875 
Q 29.6875 37.546875 29.6875 25.921875 
Q 29.6875 12.75 24.625 0.4375 
Q 19.578125 -11.859375 12.359375 -21.046875 
z
" id="ArialMT-41"/>
     </defs>
     <g transform="translate(53.84 97.15625)scale(0.1 -0.1)">
      <use transform="translate(0 0.09375)" xlink:href="#DejaVuSans-Oblique-86"/>
      <use transform="translate(68.408203 -16.3125)scale(0.7)" xlink:href="#DejaVuSans-Oblique-71"/>
      <use transform="translate(125.385742 0.09375)" xlink:href="#ArialMT-32"/>
      <use transform="translate(153.168945 0.09375)" xlink:href="#ArialMT-40"/>
      <use transform="translate(186.469727 0.09375)" xlink:href="#ArialMT-86"/>
      <use transform="translate(253.168945 0.09375)" xlink:href="#ArialMT-41"/>
     </g>
    </g>
   </g>
   <g id="matplotlib.axis_2">
    <g id="ytick_1">
     <g id="line2d_35">
      <defs>
       <path d="M 0 0 
L 3.5 0 
" id="m18e12d5cc5" style="stroke:#000000;stroke-width:0.8;"/>
      </defs>
      <g>
       <use style="stroke:#000000;stroke-width:0.8;" x="26.34" xlink:href="#m18e12d5cc5" y="74.042961"/>
      </g>
     </g>
     <g id="line2d_36">
      <defs>
       <path d="M 0 0 
L -3.5 0 
" id="m41ccce866e" style="stroke:#000000;stroke-width:0.8;"/>
      </defs>
      <g>
       <use style="stroke:#000000;stroke-width:0.8;" x="110.04" xlink:href="#m41ccce866e" y="74.042961"/>
      </g>
     </g>
     <g id="text_7">
      <!-- $\mathdefault{10^{-9}}$ -->
      <defs>
       <path d="M 37.25 0 
L 28.46875 0 
L 28.46875 56 
Q 25.296875 52.984375 20.140625 49.953125 
Q 14.984375 46.921875 10.890625 45.40625 
L 10.890625 53.90625 
Q 18.265625 57.375 23.78125 62.296875 
Q 29.296875 67.234375 31.59375 71.875 
L 37.25 71.875 
z
" id="ArialMT-49"/>
       <path d="M 5.46875 16.546875 
L 13.921875 17.328125 
Q 14.984375 11.375 18.015625 8.6875 
Q 21.046875 6 25.78125 6 
Q 29.828125 6 32.875 7.859375 
Q 35.9375 9.71875 37.890625 12.8125 
Q 39.84375 15.921875 41.15625 21.1875 
Q 42.484375 26.46875 42.484375 31.9375 
Q 42.484375 32.515625 42.4375 33.6875 
Q 39.796875 29.5 35.234375 26.875 
Q 30.671875 24.265625 25.34375 24.265625 
Q 16.453125 24.265625 10.296875 30.703125 
Q 4.15625 37.15625 4.15625 47.703125 
Q 4.15625 58.59375 10.578125 65.234375 
Q 17 71.875 26.65625 71.875 
Q 33.640625 71.875 39.421875 68.109375 
Q 45.21875 64.359375 48.21875 57.390625 
Q 51.21875 50.4375 51.21875 37.25 
Q 51.21875 23.53125 48.234375 15.40625 
Q 45.265625 7.28125 39.375 3.03125 
Q 33.5 -1.21875 25.59375 -1.21875 
Q 17.1875 -1.21875 11.859375 3.4375 
Q 6.546875 8.109375 5.46875 16.546875 
z
M 41.453125 48.140625 
Q 41.453125 55.71875 37.421875 60.15625 
Q 33.40625 64.59375 27.734375 64.59375 
Q 21.875 64.59375 17.53125 59.8125 
Q 13.1875 55.03125 13.1875 47.40625 
Q 13.1875 40.578125 17.3125 36.296875 
Q 21.4375 32.03125 27.484375 32.03125 
Q 33.59375 32.03125 37.515625 36.296875 
Q 41.453125 40.578125 41.453125 48.140625 
z
" id="ArialMT-57"/>
      </defs>
      <g transform="translate(9.5 78.167961)scale(0.08 -0.08)">
       <use transform="translate(0 0.99375)" xlink:href="#ArialMT-49"/>
       <use transform="translate(55.615234 0.99375)" xlink:href="#ArialMT-48"/>
       <use transform="translate(112.972813 70.6875)scale(0.7)" xlink:href="#ArialMT-8722"/>
       <use transform="translate(153.851719 70.6875)scale(0.7)" xlink:href="#ArialMT-57"/>
      </g>
     </g>
    </g>
    <g id="ytick_2">
     <g id="line2d_37">
      <g>
       <use style="stroke:#000000;stroke-width:0.8;" x="26.34" xlink:href="#m18e12d5cc5" y="44.147055"/>
      </g>
     </g>
     <g id="line2d_38">
      <g>
       <use style="stroke:#000000;stroke-width:0.8;" x="110.04" xlink:href="#m41ccce866e" y="44.147055"/>
      </g>
     </g>
     <g id="text_8">
      <!-- $\mathdefault{10^{-8}}$ -->
      <g transform="translate(9.5 48.272055)scale(0.08 -0.08)">
       <use transform="translate(0 0.99375)" xlink:href="#ArialMT-49"/>
       <use transform="translate(55.615234 0.99375)" xlink:href="#ArialMT-48"/>
       <use transform="translate(112.972813 70.6875)scale(0.7)" xlink:href="#ArialMT-8722"/>
       <use transform="translate(153.851719 70.6875)scale(0.7)" xlink:href="#ArialMT-56"/>
      </g>
     </g>
    </g>
    <g id="ytick_3">
     <g id="line2d_39">
      <g>
       <use style="stroke:#000000;stroke-width:0.8;" x="26.34" xlink:href="#m18e12d5cc5" y="14.251148"/>
      </g>
     </g>
     <g id="line2d_40">
      <g>
       <use style="stroke:#000000;stroke-width:0.8;" x="110.04" xlink:href="#m41ccce866e" y="14.251148"/>
      </g>
     </g>
     <g id="text_9">
      <!-- $\mathdefault{10^{-7}}$ -->
      <defs>
       <path d="M 4.734375 62.203125 
L 4.734375 70.65625 
L 51.078125 70.65625 
L 51.078125 63.8125 
Q 44.234375 56.546875 37.515625 44.484375 
Q 30.8125 32.421875 27.15625 19.671875 
Q 24.515625 10.6875 23.78125 0 
L 14.75 0 
Q 14.890625 8.453125 18.0625 20.40625 
Q 21.234375 32.375 27.171875 43.484375 
Q 33.109375 54.59375 39.796875 62.203125 
z
" id="ArialMT-55"/>
      </defs>
      <g transform="translate(9.5 18.336148)scale(0.08 -0.08)">
       <use transform="translate(0 0.846875)" xlink:href="#ArialMT-49"/>
       <use transform="translate(55.615234 0.846875)" xlink:href="#ArialMT-48"/>
       <use transform="translate(112.972813 70.540625)scale(0.7)" xlink:href="#ArialMT-8722"/>
       <use transform="translate(153.851719 70.540625)scale(0.7)" xlink:href="#ArialMT-55"/>
      </g>
     </g>
    </g>
    <g id="ytick_4">
     <g id="line2d_41">
      <defs>
       <path d="M 0 0 
L 2 0 
" id="m5af79a3840" style="stroke:#000000;stroke-width:0.6;"/>
      </defs>
      <g>
       <use style="stroke:#000000;stroke-width:0.6;" x="26.34" xlink:href="#m5af79a3840" y="80.67533"/>
      </g>
     </g>
     <g id="line2d_42">
      <defs>
       <path d="M 0 0 
L -2 0 
" id="m1103b57d18" style="stroke:#000000;stroke-width:0.6;"/>
      </defs>
      <g>
       <use style="stroke:#000000;stroke-width:0.6;" x="110.04" xlink:href="#m1103b57d18" y="80.67533"/>
      </g>
     </g>
    </g>
    <g id="ytick_5">
     <g id="line2d_43">
      <g>
       <use style="stroke:#000000;stroke-width:0.6;" x="26.34" xlink:href="#m5af79a3840" y="78.673895"/>
      </g>
     </g>
     <g id="line2d_44">
      <g>
       <use style="stroke:#000000;stroke-width:0.6;" x="110.04" xlink:href="#m1103b57d18" y="78.673895"/>
      </g>
     </g>
    </g>
    <g id="ytick_6">
     <g id="line2d_45">
      <g>
       <use style="stroke:#000000;stroke-width:0.6;" x="26.34" xlink:href="#m5af79a3840" y="76.940174"/>
      </g>
     </g>
     <g id="line2d_46">
      <g>
       <use style="stroke:#000000;stroke-width:0.6;" x="110.04" xlink:href="#m1103b57d18" y="76.940174"/>
      </g>
     </g>
    </g>
    <g id="ytick_7">
     <g id="line2d_47">
      <g>
       <use style="stroke:#000000;stroke-width:0.6;" x="26.34" xlink:href="#m5af79a3840" y="75.410923"/>
      </g>
     </g>
     <g id="line2d_48">
      <g>
       <use style="stroke:#000000;stroke-width:0.6;" x="110.04" xlink:href="#m1103b57d18" y="75.410923"/>
      </g>
     </g>
    </g>
    <g id="ytick_8">
     <g id="line2d_49">
      <g>
       <use style="stroke:#000000;stroke-width:0.6;" x="26.34" xlink:href="#m5af79a3840" y="65.043396"/>
      </g>
     </g>
     <g id="line2d_50">
      <g>
       <use style="stroke:#000000;stroke-width:0.6;" x="110.04" xlink:href="#m1103b57d18" y="65.043396"/>
      </g>
     </g>
    </g>
    <g id="ytick_9">
     <g id="line2d_51">
      <g>
       <use style="stroke:#000000;stroke-width:0.6;" x="26.34" xlink:href="#m5af79a3840" y="59.778989"/>
      </g>
     </g>
     <g id="line2d_52">
      <g>
       <use style="stroke:#000000;stroke-width:0.6;" x="110.04" xlink:href="#m1103b57d18" y="59.778989"/>
      </g>
     </g>
    </g>
    <g id="ytick_10">
     <g id="line2d_53">
      <g>
       <use style="stroke:#000000;stroke-width:0.6;" x="26.34" xlink:href="#m5af79a3840" y="56.043832"/>
      </g>
     </g>
     <g id="line2d_54">
      <g>
       <use style="stroke:#000000;stroke-width:0.6;" x="110.04" xlink:href="#m1103b57d18" y="56.043832"/>
      </g>
     </g>
    </g>
    <g id="ytick_11">
     <g id="line2d_55">
      <g>
       <use style="stroke:#000000;stroke-width:0.6;" x="26.34" xlink:href="#m5af79a3840" y="53.146619"/>
      </g>
     </g>
     <g id="line2d_56">
      <g>
       <use style="stroke:#000000;stroke-width:0.6;" x="110.04" xlink:href="#m1103b57d18" y="53.146619"/>
      </g>
     </g>
    </g>
    <g id="ytick_12">
     <g id="line2d_57">
      <g>
       <use style="stroke:#000000;stroke-width:0.6;" x="26.34" xlink:href="#m5af79a3840" y="50.779424"/>
      </g>
     </g>
     <g id="line2d_58">
      <g>
       <use style="stroke:#000000;stroke-width:0.6;" x="110.04" xlink:href="#m1103b57d18" y="50.779424"/>
      </g>
     </g>
    </g>
    <g id="ytick_13">
     <g id="line2d_59">
      <g>
       <use style="stroke:#000000;stroke-width:0.6;" x="26.34" xlink:href="#m5af79a3840" y="48.777989"/>
      </g>
     </g>
     <g id="line2d_60">
      <g>
       <use style="stroke:#000000;stroke-width:0.6;" x="110.04" xlink:href="#m1103b57d18" y="48.777989"/>
      </g>
     </g>
    </g>
    <g id="ytick_14">
     <g id="line2d_61">
      <g>
       <use style="stroke:#000000;stroke-width:0.6;" x="26.34" xlink:href="#m5af79a3840" y="47.044267"/>
      </g>
     </g>
     <g id="line2d_62">
      <g>
       <use style="stroke:#000000;stroke-width:0.6;" x="110.04" xlink:href="#m1103b57d18" y="47.044267"/>
      </g>
     </g>
    </g>
    <g id="ytick_15">
     <g id="line2d_63">
      <g>
       <use style="stroke:#000000;stroke-width:0.6;" x="26.34" xlink:href="#m5af79a3840" y="45.515016"/>
      </g>
     </g>
     <g id="line2d_64">
      <g>
       <use style="stroke:#000000;stroke-width:0.6;" x="110.04" xlink:href="#m1103b57d18" y="45.515016"/>
      </g>
     </g>
    </g>
    <g id="ytick_16">
     <g id="line2d_65">
      <g>
       <use style="stroke:#000000;stroke-width:0.6;" x="26.34" xlink:href="#m5af79a3840" y="35.14749"/>
      </g>
     </g>
     <g id="line2d_66">
      <g>
       <use style="stroke:#000000;stroke-width:0.6;" x="110.04" xlink:href="#m1103b57d18" y="35.14749"/>
      </g>
     </g>
    </g>
    <g id="ytick_17">
     <g id="line2d_67">
      <g>
       <use style="stroke:#000000;stroke-width:0.6;" x="26.34" xlink:href="#m5af79a3840" y="29.883082"/>
      </g>
     </g>
     <g id="line2d_68">
      <g>
       <use style="stroke:#000000;stroke-width:0.6;" x="110.04" xlink:href="#m1103b57d18" y="29.883082"/>
      </g>
     </g>
    </g>
    <g id="ytick_18">
     <g id="line2d_69">
      <g>
       <use style="stroke:#000000;stroke-width:0.6;" x="26.34" xlink:href="#m5af79a3840" y="26.147926"/>
      </g>
     </g>
     <g id="line2d_70">
      <g>
       <use style="stroke:#000000;stroke-width:0.6;" x="110.04" xlink:href="#m1103b57d18" y="26.147926"/>
      </g>
     </g>
    </g>
    <g id="ytick_19">
     <g id="line2d_71">
      <g>
       <use style="stroke:#000000;stroke-width:0.6;" x="26.34" xlink:href="#m5af79a3840" y="23.250713"/>
      </g>
     </g>
     <g id="line2d_72">
      <g>
       <use style="stroke:#000000;stroke-width:0.6;" x="110.04" xlink:href="#m1103b57d18" y="23.250713"/>
      </g>
     </g>
    </g>
    <g id="ytick_20">
     <g id="line2d_73">
      <g>
       <use style="stroke:#000000;stroke-width:0.6;" x="26.34" xlink:href="#m5af79a3840" y="20.883518"/>
      </g>
     </g>
     <g id="line2d_74">
      <g>
       <use style="stroke:#000000;stroke-width:0.6;" x="110.04" xlink:href="#m1103b57d18" y="20.883518"/>
      </g>
     </g>
    </g>
    <g id="ytick_21">
     <g id="line2d_75">
      <g>
       <use style="stroke:#000000;stroke-width:0.6;" x="26.34" xlink:href="#m5af79a3840" y="18.882083"/>
      </g>
     </g>
     <g id="line2d_76">
      <g>
       <use style="stroke:#000000;stroke-width:0.6;" x="110.04" xlink:href="#m1103b57d18" y="18.882083"/>
      </g>
     </g>
    </g>
    <g id="ytick_22">
     <g id="line2d_77">
      <g>
       <use style="stroke:#000000;stroke-width:0.6;" x="26.34" xlink:href="#m5af79a3840" y="17.148361"/>
      </g>
     </g>
     <g id="line2d_78">
      <g>
       <use style="stroke:#000000;stroke-width:0.6;" x="110.04" xlink:href="#m1103b57d18" y="17.148361"/>
      </g>
     </g>
    </g>
    <g id="ytick_23">
     <g id="line2d_79">
      <g>
       <use style="stroke:#000000;stroke-width:0.6;" x="26.34" xlink:href="#m5af79a3840" y="15.61911"/>
      </g>
     </g>
     <g id="line2d_80">
      <g>
       <use style="stroke:#000000;stroke-width:0.6;" x="110.04" xlink:href="#m1103b57d18" y="15.61911"/>
      </g>
     </g>
    </g>
    <g id="ytick_24">
     <g id="line2d_81">
      <g>
       <use style="stroke:#000000;stroke-width:0.6;" x="26.34" xlink:href="#m5af79a3840" y="5.251584"/>
      </g>
     </g>
     <g id="line2d_82">
      <g>
       <use style="stroke:#000000;stroke-width:0.6;" x="110.04" xlink:href="#m1103b57d18" y="5.251584"/>
      </g>
     </g>
    </g>
    <g id="text_10">
     <!-- $\it{I_{D}}$ (A) -->
     <defs>
      <path d="M 16.890625 72.90625 
L 26.8125 72.90625 
L 12.59375 0 
L 2.6875 0 
z
" id="DejaVuSans-Oblique-73"/>
      <path d="M 16.890625 72.90625 
L 38.09375 72.90625 
Q 54.984375 72.90625 63.59375 65.75 
Q 72.21875 58.59375 72.21875 44.484375 
Q 72.21875 35.15625 68.9375 26.53125 
Q 65.671875 17.921875 59.90625 12.015625 
Q 54.109375 5.953125 45.171875 2.96875 
Q 36.234375 0 24.03125 0 
L 2.6875 0 
z
M 25.203125 64.796875 
L 14.203125 8.109375 
L 27.09375 8.109375 
Q 43.65625 8.109375 52.734375 17.625 
Q 61.8125 27.15625 61.8125 44.484375 
Q 61.8125 54.984375 55.953125 59.890625 
Q 50.09375 64.796875 37.59375 64.796875 
z
" id="DejaVuSans-Oblique-68"/>
      <path d="M -0.140625 0 
L 27.34375 71.578125 
L 37.546875 71.578125 
L 66.84375 0 
L 56.0625 0 
L 47.703125 21.6875 
L 17.78125 21.6875 
L 9.90625 0 
z
M 20.515625 29.390625 
L 44.78125 29.390625 
L 37.3125 49.21875 
Q 33.890625 58.25 32.234375 64.0625 
Q 30.859375 57.171875 28.375 50.390625 
z
" id="ArialMT-65"/>
     </defs>
     <g transform="translate(7.3 53.17)rotate(-90)scale(0.1 -0.1)">
      <use transform="translate(0 0.09375)" xlink:href="#DejaVuSans-Oblique-73"/>
      <use transform="translate(29.492188 -16.3125)scale(0.7)" xlink:href="#DejaVuSans-Oblique-68"/>
      <use transform="translate(86.12793 0.09375)" xlink:href="#ArialMT-32"/>
      <use transform="translate(113.911133 0.09375)" xlink:href="#ArialMT-40"/>
      <use transform="translate(147.211914 0.09375)" xlink:href="#ArialMT-65"/>
      <use transform="translate(213.911133 0.09375)" xlink:href="#ArialMT-41"/>
     </g>
    </g>
   </g>
   <g id="line2d_83">
    <path clip-path="url(#p97f915ef48)" d="M 30.144545 64.517592 
L 31.412727 55.807223 
L 32.680909 51.523735 
L 33.949091 49.025257 
L 35.217273 42.836964 
L 36.485455 39.497692 
L 37.753636 37.182539 
L 39.021818 35.606963 
L 40.29 34.073308 
L 41.558182 32.570335 
L 42.826364 30.754698 
L 44.094545 27.545625 
L 45.362727 27.55881 
L 46.630909 26.067392 
L 47.899091 24.768277 
L 49.167273 23.700985 
L 50.435455 22.478434 
L 51.703636 21.448516 
L 52.971818 20.539845 
L 54.24 19.705551 
L 55.508182 19.033067 
L 56.776364 18.740271 
L 58.044545 17.50821 
L 59.312727 14.220279 
L 60.580909 13.818978 
L 61.849091 12.749482 
L 63.117273 12.367165 
L 64.385455 11.855917 
L 65.653636 10.433782 
L 66.921818 10.487493 
L 68.19 10.429285 
L 69.458182 10.161755 
L 70.726364 9.509199 
L 71.994545 9.075287 
L 73.262727 7.949646 
L 74.530909 7.557338 
L 75.799091 7.090886 
L 77.067273 6.543981 
L 78.335455 6.415475 
L 79.603636 6.282286 
L 80.871818 6.068667 
L 82.14 5.769738 
L 83.408182 5.603729 
L 84.676364 5.389791 
L 85.944545 5.471814 
L 87.212727 4.912303 
L 88.480909 5.234209 
L 89.749091 4.950146 
L 91.017273 4.582767 
L 92.285455 4.616048 
L 93.553636 4.325799 
L 94.821818 4.182839 
L 96.09 4.05789 
L 97.358182 4.254449 
L 98.626364 4.08916 
L 99.894545 4.031483 
L 101.162727 3.974532 
L 102.430909 4.050262 
L 103.699091 3.895192 
L 104.967273 3.706364 
L 106.235455 3.893744 
L 104.967273 8.738858 
L 103.699091 13.41569 
L 102.430909 19.704777 
L 101.162727 22.407127 
L 99.894545 25.063263 
L 98.626364 25.0603 
L 97.358182 29.379472 
L 96.09 32.244808 
L 94.821818 32.951556 
L 93.553636 36.733811 
L 92.285455 38.303495 
L 91.017273 39.014345 
L 89.749091 42.279272 
L 88.480909 43.974519 
L 87.212727 44.577809 
L 85.944545 50.817012 
L 84.676364 51.550299 
L 83.408182 54.091999 
L 82.14 55.267384 
L 80.871818 57.539246 
L 79.603636 56.235485 
L 78.335455 58.942886 
L 77.067273 62.794513 
L 75.799091 60.345899 
L 74.530909 62.389743 
L 73.262727 63.192605 
L 71.994545 67.692456 
L 70.726364 63.341368 
L 69.458182 64.463828 
L 68.19 66.635338 
L 66.921818 66.67159 
L 65.653636 65.760986 
L 64.385455 66.621594 
L 63.117273 68.447581 
L 61.849091 67.932693 
L 60.580909 69.719388 
L 59.312727 72.715179 
L 58.044545 68.949478 
L 56.776364 73.510526 
L 55.508182 73.798865 
L 54.24 72.243674 
L 52.971818 70.857057 
L 51.703636 70.291578 
L 50.435455 74.104454 
L 49.167273 73.418888 
L 47.899091 73.388137 
L 46.630909 72.934294 
L 45.362727 70.540178 
L 44.094545 73.861851 
L 42.826364 73.087057 
L 41.558182 73.980123 
L 40.29 71.995722 
L 39.021818 73.254738 
L 37.753636 73.27364 
L 36.485455 75.326748 
L 35.217273 72.524704 
L 33.949091 77.833636 
L 32.680909 76.743645 
L 31.412727 73.43552 
L 30.144545 74.008585 
" style="fill:none;stroke:#377eb8;stroke-linecap:square;stroke-width:1.5;"/>
    <defs>
     <path d="M 0 0.75 
C 0.198902 0.75 0.389685 0.670975 0.53033 0.53033 
C 0.670975 0.389685 0.75 0.198902 0.75 0 
C 0.75 -0.198902 0.670975 -0.389685 0.53033 -0.53033 
C 0.389685 -0.670975 0.198902 -0.75 0 -0.75 
C -0.198902 -0.75 -0.389685 -0.670975 -0.53033 -0.53033 
C -0.670975 -0.389685 -0.75 -0.198902 -0.75 0 
C -0.75 0.198902 -0.670975 0.389685 -0.53033 0.53033 
C -0.389685 0.670975 -0.198902 0.75 0 0.75 
z
" id="me90121e610" style="stroke:#377eb8;"/>
    </defs>
    <g clip-path="url(#p97f915ef48)">
     <use style="fill:#377eb8;stroke:#377eb8;" x="30.144545" xlink:href="#me90121e610" y="64.517592"/>
     <use style="fill:#377eb8;stroke:#377eb8;" x="31.412727" xlink:href="#me90121e610" y="55.807223"/>
     <use style="fill:#377eb8;stroke:#377eb8;" x="32.680909" xlink:href="#me90121e610" y="51.523735"/>
     <use style="fill:#377eb8;stroke:#377eb8;" x="33.949091" xlink:href="#me90121e610" y="49.025257"/>
     <use style="fill:#377eb8;stroke:#377eb8;" x="35.217273" xlink:href="#me90121e610" y="42.836964"/>
     <use style="fill:#377eb8;stroke:#377eb8;" x="36.485455" xlink:href="#me90121e610" y="39.497692"/>
     <use style="fill:#377eb8;stroke:#377eb8;" x="37.753636" xlink:href="#me90121e610" y="37.182539"/>
     <use style="fill:#377eb8;stroke:#377eb8;" x="39.021818" xlink:href="#me90121e610" y="35.606963"/>
     <use style="fill:#377eb8;stroke:#377eb8;" x="40.29" xlink:href="#me90121e610" y="34.073308"/>
     <use style="fill:#377eb8;stroke:#377eb8;" x="41.558182" xlink:href="#me90121e610" y="32.570335"/>
     <use style="fill:#377eb8;stroke:#377eb8;" x="42.826364" xlink:href="#me90121e610" y="30.754698"/>
     <use style="fill:#377eb8;stroke:#377eb8;" x="44.094545" xlink:href="#me90121e610" y="27.545625"/>
     <use style="fill:#377eb8;stroke:#377eb8;" x="45.362727" xlink:href="#me90121e610" y="27.55881"/>
     <use style="fill:#377eb8;stroke:#377eb8;" x="46.630909" xlink:href="#me90121e610" y="26.067392"/>
     <use style="fill:#377eb8;stroke:#377eb8;" x="47.899091" xlink:href="#me90121e610" y="24.768277"/>
     <use style="fill:#377eb8;stroke:#377eb8;" x="49.167273" xlink:href="#me90121e610" y="23.700985"/>
     <use style="fill:#377eb8;stroke:#377eb8;" x="50.435455" xlink:href="#me90121e610" y="22.478434"/>
     <use style="fill:#377eb8;stroke:#377eb8;" x="51.703636" xlink:href="#me90121e610" y="21.448516"/>
     <use style="fill:#377eb8;stroke:#377eb8;" x="52.971818" xlink:href="#me90121e610" y="20.539845"/>
     <use style="fill:#377eb8;stroke:#377eb8;" x="54.24" xlink:href="#me90121e610" y="19.705551"/>
     <use style="fill:#377eb8;stroke:#377eb8;" x="55.508182" xlink:href="#me90121e610" y="19.033067"/>
     <use style="fill:#377eb8;stroke:#377eb8;" x="56.776364" xlink:href="#me90121e610" y="18.740271"/>
     <use style="fill:#377eb8;stroke:#377eb8;" x="58.044545" xlink:href="#me90121e610" y="17.50821"/>
     <use style="fill:#377eb8;stroke:#377eb8;" x="59.312727" xlink:href="#me90121e610" y="14.220279"/>
     <use style="fill:#377eb8;stroke:#377eb8;" x="60.580909" xlink:href="#me90121e610" y="13.818978"/>
     <use style="fill:#377eb8;stroke:#377eb8;" x="61.849091" xlink:href="#me90121e610" y="12.749482"/>
     <use style="fill:#377eb8;stroke:#377eb8;" x="63.117273" xlink:href="#me90121e610" y="12.367165"/>
     <use style="fill:#377eb8;stroke:#377eb8;" x="64.385455" xlink:href="#me90121e610" y="11.855917"/>
     <use style="fill:#377eb8;stroke:#377eb8;" x="65.653636" xlink:href="#me90121e610" y="10.433782"/>
     <use style="fill:#377eb8;stroke:#377eb8;" x="66.921818" xlink:href="#me90121e610" y="10.487493"/>
     <use style="fill:#377eb8;stroke:#377eb8;" x="68.19" xlink:href="#me90121e610" y="10.429285"/>
     <use style="fill:#377eb8;stroke:#377eb8;" x="69.458182" xlink:href="#me90121e610" y="10.161755"/>
     <use style="fill:#377eb8;stroke:#377eb8;" x="70.726364" xlink:href="#me90121e610" y="9.509199"/>
     <use style="fill:#377eb8;stroke:#377eb8;" x="71.994545" xlink:href="#me90121e610" y="9.075287"/>
     <use style="fill:#377eb8;stroke:#377eb8;" x="73.262727" xlink:href="#me90121e610" y="7.949646"/>
     <use style="fill:#377eb8;stroke:#377eb8;" x="74.530909" xlink:href="#me90121e610" y="7.557338"/>
     <use style="fill:#377eb8;stroke:#377eb8;" x="75.799091" xlink:href="#me90121e610" y="7.090886"/>
     <use style="fill:#377eb8;stroke:#377eb8;" x="77.067273" xlink:href="#me90121e610" y="6.543981"/>
     <use style="fill:#377eb8;stroke:#377eb8;" x="78.335455" xlink:href="#me90121e610" y="6.415475"/>
     <use style="fill:#377eb8;stroke:#377eb8;" x="79.603636" xlink:href="#me90121e610" y="6.282286"/>
     <use style="fill:#377eb8;stroke:#377eb8;" x="80.871818" xlink:href="#me90121e610" y="6.068667"/>
     <use style="fill:#377eb8;stroke:#377eb8;" x="82.14" xlink:href="#me90121e610" y="5.769738"/>
     <use style="fill:#377eb8;stroke:#377eb8;" x="83.408182" xlink:href="#me90121e610" y="5.603729"/>
     <use style="fill:#377eb8;stroke:#377eb8;" x="84.676364" xlink:href="#me90121e610" y="5.389791"/>
     <use style="fill:#377eb8;stroke:#377eb8;" x="85.944545" xlink:href="#me90121e610" y="5.471814"/>
     <use style="fill:#377eb8;stroke:#377eb8;" x="87.212727" xlink:href="#me90121e610" y="4.912303"/>
     <use style="fill:#377eb8;stroke:#377eb8;" x="88.480909" xlink:href="#me90121e610" y="5.234209"/>
     <use style="fill:#377eb8;stroke:#377eb8;" x="89.749091" xlink:href="#me90121e610" y="4.950146"/>
     <use style="fill:#377eb8;stroke:#377eb8;" x="91.017273" xlink:href="#me90121e610" y="4.582767"/>
     <use style="fill:#377eb8;stroke:#377eb8;" x="92.285455" xlink:href="#me90121e610" y="4.616048"/>
     <use style="fill:#377eb8;stroke:#377eb8;" x="93.553636" xlink:href="#me90121e610" y="4.325799"/>
     <use style="fill:#377eb8;stroke:#377eb8;" x="94.821818" xlink:href="#me90121e610" y="4.182839"/>
     <use style="fill:#377eb8;stroke:#377eb8;" x="96.09" xlink:href="#me90121e610" y="4.05789"/>
     <use style="fill:#377eb8;stroke:#377eb8;" x="97.358182" xlink:href="#me90121e610" y="4.254449"/>
     <use style="fill:#377eb8;stroke:#377eb8;" x="98.626364" xlink:href="#me90121e610" y="4.08916"/>
     <use style="fill:#377eb8;stroke:#377eb8;" x="99.894545" xlink:href="#me90121e610" y="4.031483"/>
     <use style="fill:#377eb8;stroke:#377eb8;" x="101.162727" xlink:href="#me90121e610" y="3.974532"/>
     <use style="fill:#377eb8;stroke:#377eb8;" x="102.430909" xlink:href="#me90121e610" y="4.050262"/>
     <use style="fill:#377eb8;stroke:#377eb8;" x="103.699091" xlink:href="#me90121e610" y="3.895192"/>
     <use style="fill:#377eb8;stroke:#377eb8;" x="104.967273" xlink:href="#me90121e610" y="3.706364"/>
     <use style="fill:#377eb8;stroke:#377eb8;" x="106.235455" xlink:href="#me90121e610" y="3.893744"/>
     <use style="fill:#377eb8;stroke:#377eb8;" x="104.967273" xlink:href="#me90121e610" y="8.738858"/>
     <use style="fill:#377eb8;stroke:#377eb8;" x="103.699091" xlink:href="#me90121e610" y="13.41569"/>
     <use style="fill:#377eb8;stroke:#377eb8;" x="102.430909" xlink:href="#me90121e610" y="19.704777"/>
     <use style="fill:#377eb8;stroke:#377eb8;" x="101.162727" xlink:href="#me90121e610" y="22.407127"/>
     <use style="fill:#377eb8;stroke:#377eb8;" x="99.894545" xlink:href="#me90121e610" y="25.063263"/>
     <use style="fill:#377eb8;stroke:#377eb8;" x="98.626364" xlink:href="#me90121e610" y="25.0603"/>
     <use style="fill:#377eb8;stroke:#377eb8;" x="97.358182" xlink:href="#me90121e610" y="29.379472"/>
     <use style="fill:#377eb8;stroke:#377eb8;" x="96.09" xlink:href="#me90121e610" y="32.244808"/>
     <use style="fill:#377eb8;stroke:#377eb8;" x="94.821818" xlink:href="#me90121e610" y="32.951556"/>
     <use style="fill:#377eb8;stroke:#377eb8;" x="93.553636" xlink:href="#me90121e610" y="36.733811"/>
     <use style="fill:#377eb8;stroke:#377eb8;" x="92.285455" xlink:href="#me90121e610" y="38.303495"/>
     <use style="fill:#377eb8;stroke:#377eb8;" x="91.017273" xlink:href="#me90121e610" y="39.014345"/>
     <use style="fill:#377eb8;stroke:#377eb8;" x="89.749091" xlink:href="#me90121e610" y="42.279272"/>
     <use style="fill:#377eb8;stroke:#377eb8;" x="88.480909" xlink:href="#me90121e610" y="43.974519"/>
     <use style="fill:#377eb8;stroke:#377eb8;" x="87.212727" xlink:href="#me90121e610" y="44.577809"/>
     <use style="fill:#377eb8;stroke:#377eb8;" x="85.944545" xlink:href="#me90121e610" y="50.817012"/>
     <use style="fill:#377eb8;stroke:#377eb8;" x="84.676364" xlink:href="#me90121e610" y="51.550299"/>
     <use style="fill:#377eb8;stroke:#377eb8;" x="83.408182" xlink:href="#me90121e610" y="54.091999"/>
     <use style="fill:#377eb8;stroke:#377eb8;" x="82.14" xlink:href="#me90121e610" y="55.267384"/>
     <use style="fill:#377eb8;stroke:#377eb8;" x="80.871818" xlink:href="#me90121e610" y="57.539246"/>
     <use style="fill:#377eb8;stroke:#377eb8;" x="79.603636" xlink:href="#me90121e610" y="56.235485"/>
     <use style="fill:#377eb8;stroke:#377eb8;" x="78.335455" xlink:href="#me90121e610" y="58.942886"/>
     <use style="fill:#377eb8;stroke:#377eb8;" x="77.067273" xlink:href="#me90121e610" y="62.794513"/>
     <use style="fill:#377eb8;stroke:#377eb8;" x="75.799091" xlink:href="#me90121e610" y="60.345899"/>
     <use style="fill:#377eb8;stroke:#377eb8;" x="74.530909" xlink:href="#me90121e610" y="62.389743"/>
     <use style="fill:#377eb8;stroke:#377eb8;" x="73.262727" xlink:href="#me90121e610" y="63.192605"/>
     <use style="fill:#377eb8;stroke:#377eb8;" x="71.994545" xlink:href="#me90121e610" y="67.692456"/>
     <use style="fill:#377eb8;stroke:#377eb8;" x="70.726364" xlink:href="#me90121e610" y="63.341368"/>
     <use style="fill:#377eb8;stroke:#377eb8;" x="69.458182" xlink:href="#me90121e610" y="64.463828"/>
     <use style="fill:#377eb8;stroke:#377eb8;" x="68.19" xlink:href="#me90121e610" y="66.635338"/>
     <use style="fill:#377eb8;stroke:#377eb8;" x="66.921818" xlink:href="#me90121e610" y="66.67159"/>
     <use style="fill:#377eb8;stroke:#377eb8;" x="65.653636" xlink:href="#me90121e610" y="65.760986"/>
     <use style="fill:#377eb8;stroke:#377eb8;" x="64.385455" xlink:href="#me90121e610" y="66.621594"/>
     <use style="fill:#377eb8;stroke:#377eb8;" x="63.117273" xlink:href="#me90121e610" y="68.447581"/>
     <use style="fill:#377eb8;stroke:#377eb8;" x="61.849091" xlink:href="#me90121e610" y="67.932693"/>
     <use style="fill:#377eb8;stroke:#377eb8;" x="60.580909" xlink:href="#me90121e610" y="69.719388"/>
     <use style="fill:#377eb8;stroke:#377eb8;" x="59.312727" xlink:href="#me90121e610" y="72.715179"/>
     <use style="fill:#377eb8;stroke:#377eb8;" x="58.044545" xlink:href="#me90121e610" y="68.949478"/>
     <use style="fill:#377eb8;stroke:#377eb8;" x="56.776364" xlink:href="#me90121e610" y="73.510526"/>
     <use style="fill:#377eb8;stroke:#377eb8;" x="55.508182" xlink:href="#me90121e610" y="73.798865"/>
     <use style="fill:#377eb8;stroke:#377eb8;" x="54.24" xlink:href="#me90121e610" y="72.243674"/>
     <use style="fill:#377eb8;stroke:#377eb8;" x="52.971818" xlink:href="#me90121e610" y="70.857057"/>
     <use style="fill:#377eb8;stroke:#377eb8;" x="51.703636" xlink:href="#me90121e610" y="70.291578"/>
     <use style="fill:#377eb8;stroke:#377eb8;" x="50.435455" xlink:href="#me90121e610" y="74.104454"/>
     <use style="fill:#377eb8;stroke:#377eb8;" x="49.167273" xlink:href="#me90121e610" y="73.418888"/>
     <use style="fill:#377eb8;stroke:#377eb8;" x="47.899091" xlink:href="#me90121e610" y="73.388137"/>
     <use style="fill:#377eb8;stroke:#377eb8;" x="46.630909" xlink:href="#me90121e610" y="72.934294"/>
     <use style="fill:#377eb8;stroke:#377eb8;" x="45.362727" xlink:href="#me90121e610" y="70.540178"/>
     <use style="fill:#377eb8;stroke:#377eb8;" x="44.094545" xlink:href="#me90121e610" y="73.861851"/>
     <use style="fill:#377eb8;stroke:#377eb8;" x="42.826364" xlink:href="#me90121e610" y="73.087057"/>
     <use style="fill:#377eb8;stroke:#377eb8;" x="41.558182" xlink:href="#me90121e610" y="73.980123"/>
     <use style="fill:#377eb8;stroke:#377eb8;" x="40.29" xlink:href="#me90121e610" y="71.995722"/>
     <use style="fill:#377eb8;stroke:#377eb8;" x="39.021818" xlink:href="#me90121e610" y="73.254738"/>
     <use style="fill:#377eb8;stroke:#377eb8;" x="37.753636" xlink:href="#me90121e610" y="73.27364"/>
     <use style="fill:#377eb8;stroke:#377eb8;" x="36.485455" xlink:href="#me90121e610" y="75.326748"/>
     <use style="fill:#377eb8;stroke:#377eb8;" x="35.217273" xlink:href="#me90121e610" y="72.524704"/>
     <use style="fill:#377eb8;stroke:#377eb8;" x="33.949091" xlink:href="#me90121e610" y="77.833636"/>
     <use style="fill:#377eb8;stroke:#377eb8;" x="32.680909" xlink:href="#me90121e610" y="76.743645"/>
     <use style="fill:#377eb8;stroke:#377eb8;" x="31.412727" xlink:href="#me90121e610" y="73.43552"/>
     <use style="fill:#377eb8;stroke:#377eb8;" x="30.144545" xlink:href="#me90121e610" y="74.008585"/>
    </g>
   </g>
   <g id="patch_3">
    <path d="M 26.34 81.54 
L 26.34 0 
" style="fill:none;stroke:#000000;stroke-linecap:square;stroke-linejoin:miter;stroke-width:0.8;"/>
   </g>
   <g id="patch_4">
    <path d="M 110.04 81.54 
L 110.04 0 
" style="fill:none;stroke:#000000;stroke-linecap:square;stroke-linejoin:miter;stroke-width:0.8;"/>
   </g>
   <g id="patch_5">
    <path d="M 26.34 81.54 
L 110.04 81.54 
" style="fill:none;stroke:#000000;stroke-linecap:square;stroke-linejoin:miter;stroke-width:0.8;"/>
   </g>
   <g id="patch_6">
    <path d="M 26.34 0 
L 110.04 0 
" style="fill:none;stroke:#000000;stroke-linecap:square;stroke-linejoin:miter;stroke-width:0.8;"/>
   </g>
  </g>
 </g>
 <defs>
  <clipPath id="p97f915ef48">
   <rect height="81.54" width="83.7" x="26.34" y="0"/>
  </clipPath>
 </defs>
</svg>
