<?xml version="1.0" encoding="utf-8" standalone="no"?>
<!DOCTYPE svg PUBLIC "-//W3C//DTD SVG 1.1//EN"
  "http://www.w3.org/Graphics/SVG/1.1/DTD/svg11.dtd">
<!-- Created with matplotlib (https://matplotlib.org/) -->
<svg height="128.365312pt" version="1.1" viewBox="0 0 138.428125 128.365312" width="138.428125pt" xmlns="http://www.w3.org/2000/svg" xmlns:xlink="http://www.w3.org/1999/xlink">
 <metadata>
  <rdf:RDF xmlns:cc="http://creativecommons.org/ns#" xmlns:dc="http://purl.org/dc/elements/1.1/" xmlns:rdf="http://www.w3.org/1999/02/22-rdf-syntax-ns#">
   <cc:Work>
    <dc:type rdf:resource="http://purl.org/dc/dcmitype/StillImage"/>
    <dc:date>2020-12-08T00:49:44.091920</dc:date>
    <dc:format>image/svg+xml</dc:format>
    <dc:creator>
     <cc:Agent>
      <dc:title>Matplotlib v3.3.0, https://matplotlib.org/</dc:title>
     </cc:Agent>
    </dc:creator>
   </cc:Work>
  </rdf:RDF>
 </metadata>
 <defs>
  <style type="text/css">*{stroke-linecap:butt;stroke-linejoin:round;}</style>
 </defs>
 <g id="figure_1">
  <g id="patch_1">
   <path d="M 0 128.365312 
L 138.428125 128.365312 
L 138.428125 0 
L 0 0 
z
" style="fill:none;"/>
  </g>
  <g id="axes_1">
   <g id="patch_2">
    <path d="M 26.828125 108.72 
L 138.428125 108.72 
L 138.428125 0 
L 26.828125 0 
z
" style="fill:none;"/>
   </g>
   <g id="matplotlib.axis_1">
    <g id="xtick_1">
     <g id="line2d_1">
      <defs>
       <path d="M 0 0 
L 0 -3.5 
" id="m1153ff2ee3" style="stroke:#000000;stroke-width:0.5;"/>
      </defs>
      <g>
       <use style="stroke:#000000;stroke-width:0.5;" x="37.300243" xlink:href="#m1153ff2ee3" y="108.72"/>
      </g>
     </g>
     <g id="line2d_2">
      <defs>
       <path d="M 0 0 
L 0 3.5 
" id="m5b0e6bf0c8" style="stroke:#000000;stroke-width:0.5;"/>
      </defs>
      <g>
       <use style="stroke:#000000;stroke-width:0.5;" x="37.300243" xlink:href="#m5b0e6bf0c8" y="0"/>
      </g>
     </g>
     <g id="text_1">
      <!-- −8 -->
      <g transform="translate(31.599462 116.877812)scale(0.1 -0.1)">
       <defs>
        <path d="M 52.828125 31.203125 
L 5.5625 31.203125 
L 5.5625 39.40625 
L 52.828125 39.40625 
z
" id="ArialMT-8722"/>
        <path d="M 17.671875 38.8125 
Q 12.203125 40.828125 9.5625 44.53125 
Q 6.9375 48.25 6.9375 53.421875 
Q 6.9375 61.234375 12.546875 66.546875 
Q 18.171875 71.875 27.484375 71.875 
Q 36.859375 71.875 42.578125 66.421875 
Q 48.296875 60.984375 48.296875 53.171875 
Q 48.296875 48.1875 45.671875 44.5 
Q 43.0625 40.828125 37.75 38.8125 
Q 44.34375 36.671875 47.78125 31.875 
Q 51.21875 27.09375 51.21875 20.453125 
Q 51.21875 11.28125 44.71875 5.03125 
Q 38.234375 -1.21875 27.640625 -1.21875 
Q 17.046875 -1.21875 10.546875 5.046875 
Q 4.046875 11.328125 4.046875 20.703125 
Q 4.046875 27.6875 7.59375 32.390625 
Q 11.140625 37.109375 17.671875 38.8125 
z
M 15.921875 53.71875 
Q 15.921875 48.640625 19.1875 45.40625 
Q 22.46875 42.1875 27.6875 42.1875 
Q 32.765625 42.1875 36.015625 45.375 
Q 39.265625 48.578125 39.265625 53.21875 
Q 39.265625 58.0625 35.90625 61.359375 
Q 32.5625 64.65625 27.59375 64.65625 
Q 22.5625 64.65625 19.234375 61.421875 
Q 15.921875 58.203125 15.921875 53.71875 
z
M 13.09375 20.65625 
Q 13.09375 16.890625 14.875 13.375 
Q 16.65625 9.859375 20.171875 7.921875 
Q 23.6875 6 27.734375 6 
Q 34.03125 6 38.125 10.046875 
Q 42.234375 14.109375 42.234375 20.359375 
Q 42.234375 26.703125 38.015625 30.859375 
Q 33.796875 35.015625 27.4375 35.015625 
Q 21.234375 35.015625 17.15625 30.90625 
Q 13.09375 26.8125 13.09375 20.65625 
z
" id="ArialMT-56"/>
       </defs>
       <use xlink:href="#ArialMT-8722"/>
       <use x="58.398438" xlink:href="#ArialMT-56"/>
      </g>
     </g>
    </g>
    <g id="xtick_2">
     <g id="line2d_3">
      <g>
       <use style="stroke:#000000;stroke-width:0.5;" x="60.035163" xlink:href="#m1153ff2ee3" y="108.72"/>
      </g>
     </g>
     <g id="line2d_4">
      <g>
       <use style="stroke:#000000;stroke-width:0.5;" x="60.035163" xlink:href="#m5b0e6bf0c8" y="0"/>
      </g>
     </g>
     <g id="text_2">
      <!-- −4 -->
      <g transform="translate(54.334382 116.877812)scale(0.1 -0.1)">
       <defs>
        <path d="M 32.328125 0 
L 32.328125 17.140625 
L 1.265625 17.140625 
L 1.265625 25.203125 
L 33.9375 71.578125 
L 41.109375 71.578125 
L 41.109375 25.203125 
L 50.78125 25.203125 
L 50.78125 17.140625 
L 41.109375 17.140625 
L 41.109375 0 
z
M 32.328125 25.203125 
L 32.328125 57.46875 
L 9.90625 25.203125 
z
" id="ArialMT-52"/>
       </defs>
       <use xlink:href="#ArialMT-8722"/>
       <use x="58.398438" xlink:href="#ArialMT-52"/>
      </g>
     </g>
    </g>
    <g id="xtick_3">
     <g id="line2d_5">
      <g>
       <use style="stroke:#000000;stroke-width:0.5;" x="82.770084" xlink:href="#m1153ff2ee3" y="108.72"/>
      </g>
     </g>
     <g id="line2d_6">
      <g>
       <use style="stroke:#000000;stroke-width:0.5;" x="82.770084" xlink:href="#m5b0e6bf0c8" y="0"/>
      </g>
     </g>
     <g id="text_3">
      <!-- 0 -->
      <g transform="translate(79.989615 116.877812)scale(0.1 -0.1)">
       <defs>
        <path d="M 4.15625 35.296875 
Q 4.15625 48 6.765625 55.734375 
Q 9.375 63.484375 14.515625 67.671875 
Q 19.671875 71.875 27.484375 71.875 
Q 33.25 71.875 37.59375 69.546875 
Q 41.9375 67.234375 44.765625 62.859375 
Q 47.609375 58.5 49.21875 52.21875 
Q 50.828125 45.953125 50.828125 35.296875 
Q 50.828125 22.703125 48.234375 14.96875 
Q 45.65625 7.234375 40.5 3 
Q 35.359375 -1.21875 27.484375 -1.21875 
Q 17.140625 -1.21875 11.234375 6.203125 
Q 4.15625 15.140625 4.15625 35.296875 
z
M 13.1875 35.296875 
Q 13.1875 17.671875 17.3125 11.828125 
Q 21.4375 6 27.484375 6 
Q 33.546875 6 37.671875 11.859375 
Q 41.796875 17.71875 41.796875 35.296875 
Q 41.796875 52.984375 37.671875 58.78125 
Q 33.546875 64.59375 27.390625 64.59375 
Q 21.34375 64.59375 17.71875 59.46875 
Q 13.1875 52.9375 13.1875 35.296875 
z
" id="ArialMT-48"/>
       </defs>
       <use xlink:href="#ArialMT-48"/>
      </g>
     </g>
    </g>
    <g id="xtick_4">
     <g id="line2d_7">
      <g>
       <use style="stroke:#000000;stroke-width:0.5;" x="105.505004" xlink:href="#m1153ff2ee3" y="108.72"/>
      </g>
     </g>
     <g id="line2d_8">
      <g>
       <use style="stroke:#000000;stroke-width:0.5;" x="105.505004" xlink:href="#m5b0e6bf0c8" y="0"/>
      </g>
     </g>
     <g id="text_4">
      <!-- 4 -->
      <g transform="translate(102.724535 116.877812)scale(0.1 -0.1)">
       <use xlink:href="#ArialMT-52"/>
      </g>
     </g>
    </g>
    <g id="xtick_5">
     <g id="line2d_9">
      <g>
       <use style="stroke:#000000;stroke-width:0.5;" x="128.239924" xlink:href="#m1153ff2ee3" y="108.72"/>
      </g>
     </g>
     <g id="line2d_10">
      <g>
       <use style="stroke:#000000;stroke-width:0.5;" x="128.239924" xlink:href="#m5b0e6bf0c8" y="0"/>
      </g>
     </g>
     <g id="text_5">
      <!-- 8 -->
      <g transform="translate(125.459455 116.877812)scale(0.1 -0.1)">
       <use xlink:href="#ArialMT-56"/>
      </g>
     </g>
    </g>
    <g id="xtick_6">
     <g id="line2d_11">
      <defs>
       <path d="M 0 0 
L 0 -2 
" id="m51434b06f6" style="stroke:#000000;stroke-width:0.5;"/>
      </defs>
      <g>
       <use style="stroke:#000000;stroke-width:0.5;" x="31.616513" xlink:href="#m51434b06f6" y="108.72"/>
      </g>
     </g>
     <g id="line2d_12">
      <defs>
       <path d="M 0 0 
L 0 2 
" id="m996663a4c2" style="stroke:#000000;stroke-width:0.5;"/>
      </defs>
      <g>
       <use style="stroke:#000000;stroke-width:0.5;" x="31.616513" xlink:href="#m996663a4c2" y="0"/>
      </g>
     </g>
    </g>
    <g id="xtick_7">
     <g id="line2d_13">
      <g>
       <use style="stroke:#000000;stroke-width:0.5;" x="42.983973" xlink:href="#m51434b06f6" y="108.72"/>
      </g>
     </g>
     <g id="line2d_14">
      <g>
       <use style="stroke:#000000;stroke-width:0.5;" x="42.983973" xlink:href="#m996663a4c2" y="0"/>
      </g>
     </g>
    </g>
    <g id="xtick_8">
     <g id="line2d_15">
      <g>
       <use style="stroke:#000000;stroke-width:0.5;" x="48.667703" xlink:href="#m51434b06f6" y="108.72"/>
      </g>
     </g>
     <g id="line2d_16">
      <g>
       <use style="stroke:#000000;stroke-width:0.5;" x="48.667703" xlink:href="#m996663a4c2" y="0"/>
      </g>
     </g>
    </g>
    <g id="xtick_9">
     <g id="line2d_17">
      <g>
       <use style="stroke:#000000;stroke-width:0.5;" x="54.351433" xlink:href="#m51434b06f6" y="108.72"/>
      </g>
     </g>
     <g id="line2d_18">
      <g>
       <use style="stroke:#000000;stroke-width:0.5;" x="54.351433" xlink:href="#m996663a4c2" y="0"/>
      </g>
     </g>
    </g>
    <g id="xtick_10">
     <g id="line2d_19">
      <g>
       <use style="stroke:#000000;stroke-width:0.5;" x="65.718893" xlink:href="#m51434b06f6" y="108.72"/>
      </g>
     </g>
     <g id="line2d_20">
      <g>
       <use style="stroke:#000000;stroke-width:0.5;" x="65.718893" xlink:href="#m996663a4c2" y="0"/>
      </g>
     </g>
    </g>
    <g id="xtick_11">
     <g id="line2d_21">
      <g>
       <use style="stroke:#000000;stroke-width:0.5;" x="71.402624" xlink:href="#m51434b06f6" y="108.72"/>
      </g>
     </g>
     <g id="line2d_22">
      <g>
       <use style="stroke:#000000;stroke-width:0.5;" x="71.402624" xlink:href="#m996663a4c2" y="0"/>
      </g>
     </g>
    </g>
    <g id="xtick_12">
     <g id="line2d_23">
      <g>
       <use style="stroke:#000000;stroke-width:0.5;" x="77.086354" xlink:href="#m51434b06f6" y="108.72"/>
      </g>
     </g>
     <g id="line2d_24">
      <g>
       <use style="stroke:#000000;stroke-width:0.5;" x="77.086354" xlink:href="#m996663a4c2" y="0"/>
      </g>
     </g>
    </g>
    <g id="xtick_13">
     <g id="line2d_25">
      <g>
       <use style="stroke:#000000;stroke-width:0.5;" x="88.453814" xlink:href="#m51434b06f6" y="108.72"/>
      </g>
     </g>
     <g id="line2d_26">
      <g>
       <use style="stroke:#000000;stroke-width:0.5;" x="88.453814" xlink:href="#m996663a4c2" y="0"/>
      </g>
     </g>
    </g>
    <g id="xtick_14">
     <g id="line2d_27">
      <g>
       <use style="stroke:#000000;stroke-width:0.5;" x="94.137544" xlink:href="#m51434b06f6" y="108.72"/>
      </g>
     </g>
     <g id="line2d_28">
      <g>
       <use style="stroke:#000000;stroke-width:0.5;" x="94.137544" xlink:href="#m996663a4c2" y="0"/>
      </g>
     </g>
    </g>
    <g id="xtick_15">
     <g id="line2d_29">
      <g>
       <use style="stroke:#000000;stroke-width:0.5;" x="99.821274" xlink:href="#m51434b06f6" y="108.72"/>
      </g>
     </g>
     <g id="line2d_30">
      <g>
       <use style="stroke:#000000;stroke-width:0.5;" x="99.821274" xlink:href="#m996663a4c2" y="0"/>
      </g>
     </g>
    </g>
    <g id="xtick_16">
     <g id="line2d_31">
      <g>
       <use style="stroke:#000000;stroke-width:0.5;" x="111.188734" xlink:href="#m51434b06f6" y="108.72"/>
      </g>
     </g>
     <g id="line2d_32">
      <g>
       <use style="stroke:#000000;stroke-width:0.5;" x="111.188734" xlink:href="#m996663a4c2" y="0"/>
      </g>
     </g>
    </g>
    <g id="xtick_17">
     <g id="line2d_33">
      <g>
       <use style="stroke:#000000;stroke-width:0.5;" x="116.872464" xlink:href="#m51434b06f6" y="108.72"/>
      </g>
     </g>
     <g id="line2d_34">
      <g>
       <use style="stroke:#000000;stroke-width:0.5;" x="116.872464" xlink:href="#m996663a4c2" y="0"/>
      </g>
     </g>
    </g>
    <g id="xtick_18">
     <g id="line2d_35">
      <g>
       <use style="stroke:#000000;stroke-width:0.5;" x="122.556194" xlink:href="#m51434b06f6" y="108.72"/>
      </g>
     </g>
     <g id="line2d_36">
      <g>
       <use style="stroke:#000000;stroke-width:0.5;" x="122.556194" xlink:href="#m996663a4c2" y="0"/>
      </g>
     </g>
    </g>
    <g id="xtick_19">
     <g id="line2d_37">
      <g>
       <use style="stroke:#000000;stroke-width:0.5;" x="133.923654" xlink:href="#m51434b06f6" y="108.72"/>
      </g>
     </g>
     <g id="line2d_38">
      <g>
       <use style="stroke:#000000;stroke-width:0.5;" x="133.923654" xlink:href="#m996663a4c2" y="0"/>
      </g>
     </g>
    </g>
    <g id="text_6">
     <!-- $\it{B}$ (T) -->
     <g transform="translate(71.378125 126.165312)scale(0.1 -0.1)">
      <defs>
       <path d="M 16.890625 72.90625 
L 42.09375 72.90625 
Q 52.34375 72.90625 57.421875 69.09375 
Q 62.5 65.28125 62.5 57.625 
Q 62.5 50.59375 58.125 45.484375 
Q 53.765625 40.375 46.6875 39.3125 
Q 52.734375 37.9375 55.765625 34.078125 
Q 58.796875 30.21875 58.796875 23.78125 
Q 58.796875 12.796875 50.65625 6.390625 
Q 42.53125 0 28.421875 0 
L 2.6875 0 
z
M 19.28125 34.8125 
L 14.109375 8.109375 
L 29.984375 8.109375 
Q 38.921875 8.109375 43.75 12.203125 
Q 48.578125 16.3125 48.578125 23.78125 
Q 48.578125 29.546875 45.375 32.171875 
Q 42.1875 34.8125 35.109375 34.8125 
z
M 25.09375 64.796875 
L 20.796875 42.828125 
L 35.5 42.828125 
Q 43.359375 42.828125 47.78125 46.234375 
Q 52.203125 49.65625 52.203125 55.71875 
Q 52.203125 60.453125 49.21875 62.625 
Q 46.234375 64.796875 39.703125 64.796875 
z
" id="DejaVuSans-Oblique-66"/>
       <path id="ArialMT-32"/>
       <path d="M 23.390625 -21.046875 
Q 16.109375 -11.859375 11.078125 0.4375 
Q 6.0625 12.75 6.0625 25.921875 
Q 6.0625 37.546875 9.8125 48.1875 
Q 14.203125 60.546875 23.390625 72.796875 
L 29.6875 72.796875 
Q 23.78125 62.640625 21.875 58.296875 
Q 18.890625 51.5625 17.1875 44.234375 
Q 15.09375 35.109375 15.09375 25.875 
Q 15.09375 2.390625 29.6875 -21.046875 
z
" id="ArialMT-40"/>
       <path d="M 25.921875 0 
L 25.921875 63.140625 
L 2.34375 63.140625 
L 2.34375 71.578125 
L 59.078125 71.578125 
L 59.078125 63.140625 
L 35.40625 63.140625 
L 35.40625 0 
z
" id="ArialMT-84"/>
       <path d="M 12.359375 -21.046875 
L 6.0625 -21.046875 
Q 20.65625 2.390625 20.65625 25.875 
Q 20.65625 35.0625 18.5625 44.09375 
Q 16.890625 51.421875 13.921875 58.15625 
Q 12.015625 62.546875 6.0625 72.796875 
L 12.359375 72.796875 
Q 21.53125 60.546875 25.921875 48.1875 
Q 29.6875 37.546875 29.6875 25.921875 
Q 29.6875 12.75 24.625 0.4375 
Q 19.578125 -11.859375 12.359375 -21.046875 
z
" id="ArialMT-41"/>
      </defs>
      <use transform="translate(0 0.09375)" xlink:href="#DejaVuSans-Oblique-66"/>
      <use transform="translate(68.603516 0.09375)" xlink:href="#ArialMT-32"/>
      <use transform="translate(96.386719 0.09375)" xlink:href="#ArialMT-40"/>
      <use transform="translate(129.6875 0.09375)" xlink:href="#ArialMT-84"/>
      <use transform="translate(190.771484 0.09375)" xlink:href="#ArialMT-41"/>
     </g>
    </g>
   </g>
   <g id="matplotlib.axis_2">
    <g id="ytick_1">
     <g id="line2d_39">
      <defs>
       <path d="M 0 0 
L 3.5 0 
" id="m79cd04d2c9" style="stroke:#000000;stroke-width:0.5;"/>
      </defs>
      <g>
       <use style="stroke:#000000;stroke-width:0.5;" x="26.828125" xlink:href="#m79cd04d2c9" y="103.778182"/>
      </g>
     </g>
     <g id="line2d_40">
      <defs>
       <path d="M 0 0 
L -3.5 0 
" id="m83ff16c19f" style="stroke:#000000;stroke-width:0.5;"/>
      </defs>
      <g>
       <use style="stroke:#000000;stroke-width:0.5;" x="138.428125" xlink:href="#m83ff16c19f" y="103.778182"/>
      </g>
     </g>
     <g id="text_7">
      <!-- 0 -->
      <g transform="translate(20.267188 107.357088)scale(0.1 -0.1)">
       <use xlink:href="#ArialMT-48"/>
      </g>
     </g>
    </g>
    <g id="ytick_2">
     <g id="line2d_41">
      <g>
       <use style="stroke:#000000;stroke-width:0.5;" x="26.828125" xlink:href="#m79cd04d2c9" y="79.069091"/>
      </g>
     </g>
     <g id="line2d_42">
      <g>
       <use style="stroke:#000000;stroke-width:0.5;" x="138.428125" xlink:href="#m83ff16c19f" y="79.069091"/>
      </g>
     </g>
     <g id="text_8">
      <!-- 25 -->
      <g transform="translate(14.70625 82.647997)scale(0.1 -0.1)">
       <defs>
        <path d="M 50.34375 8.453125 
L 50.34375 0 
L 3.03125 0 
Q 2.9375 3.171875 4.046875 6.109375 
Q 5.859375 10.9375 9.828125 15.625 
Q 13.8125 20.3125 21.34375 26.46875 
Q 33.015625 36.03125 37.109375 41.625 
Q 41.21875 47.21875 41.21875 52.203125 
Q 41.21875 57.421875 37.46875 61 
Q 33.734375 64.59375 27.734375 64.59375 
Q 21.390625 64.59375 17.578125 60.78125 
Q 13.765625 56.984375 13.71875 50.25 
L 4.6875 51.171875 
Q 5.609375 61.28125 11.65625 66.578125 
Q 17.71875 71.875 27.9375 71.875 
Q 38.234375 71.875 44.234375 66.15625 
Q 50.25 60.453125 50.25 52 
Q 50.25 47.703125 48.484375 43.546875 
Q 46.734375 39.40625 42.65625 34.8125 
Q 38.578125 30.21875 29.109375 22.21875 
Q 21.1875 15.578125 18.9375 13.203125 
Q 16.703125 10.84375 15.234375 8.453125 
z
" id="ArialMT-50"/>
        <path d="M 4.15625 18.75 
L 13.375 19.53125 
Q 14.40625 12.796875 18.140625 9.390625 
Q 21.875 6 27.15625 6 
Q 33.5 6 37.890625 10.78125 
Q 42.28125 15.578125 42.28125 23.484375 
Q 42.28125 31 38.0625 35.34375 
Q 33.84375 39.703125 27 39.703125 
Q 22.75 39.703125 19.328125 37.765625 
Q 15.921875 35.84375 13.96875 32.765625 
L 5.71875 33.84375 
L 12.640625 70.609375 
L 48.25 70.609375 
L 48.25 62.203125 
L 19.671875 62.203125 
L 15.828125 42.96875 
Q 22.265625 47.46875 29.34375 47.46875 
Q 38.71875 47.46875 45.15625 40.96875 
Q 51.609375 34.46875 51.609375 24.265625 
Q 51.609375 14.546875 45.953125 7.46875 
Q 39.0625 -1.21875 27.15625 -1.21875 
Q 17.390625 -1.21875 11.203125 4.25 
Q 5.03125 9.71875 4.15625 18.75 
z
" id="ArialMT-53"/>
       </defs>
       <use xlink:href="#ArialMT-50"/>
       <use x="55.615234" xlink:href="#ArialMT-53"/>
      </g>
     </g>
    </g>
    <g id="ytick_3">
     <g id="line2d_43">
      <g>
       <use style="stroke:#000000;stroke-width:0.5;" x="26.828125" xlink:href="#m79cd04d2c9" y="54.36"/>
      </g>
     </g>
     <g id="line2d_44">
      <g>
       <use style="stroke:#000000;stroke-width:0.5;" x="138.428125" xlink:href="#m83ff16c19f" y="54.36"/>
      </g>
     </g>
     <g id="text_9">
      <!-- 50 -->
      <g transform="translate(14.70625 57.938906)scale(0.1 -0.1)">
       <use xlink:href="#ArialMT-53"/>
       <use x="55.615234" xlink:href="#ArialMT-48"/>
      </g>
     </g>
    </g>
    <g id="ytick_4">
     <g id="line2d_45">
      <g>
       <use style="stroke:#000000;stroke-width:0.5;" x="26.828125" xlink:href="#m79cd04d2c9" y="29.650909"/>
      </g>
     </g>
     <g id="line2d_46">
      <g>
       <use style="stroke:#000000;stroke-width:0.5;" x="138.428125" xlink:href="#m83ff16c19f" y="29.650909"/>
      </g>
     </g>
     <g id="text_10">
      <!-- 75 -->
      <g transform="translate(14.70625 33.229815)scale(0.1 -0.1)">
       <defs>
        <path d="M 4.734375 62.203125 
L 4.734375 70.65625 
L 51.078125 70.65625 
L 51.078125 63.8125 
Q 44.234375 56.546875 37.515625 44.484375 
Q 30.8125 32.421875 27.15625 19.671875 
Q 24.515625 10.6875 23.78125 0 
L 14.75 0 
Q 14.890625 8.453125 18.0625 20.40625 
Q 21.234375 32.375 27.171875 43.484375 
Q 33.109375 54.59375 39.796875 62.203125 
z
" id="ArialMT-55"/>
       </defs>
       <use xlink:href="#ArialMT-55"/>
       <use x="55.615234" xlink:href="#ArialMT-53"/>
      </g>
     </g>
    </g>
    <g id="ytick_5">
     <g id="line2d_47">
      <g>
       <use style="stroke:#000000;stroke-width:0.5;" x="26.828125" xlink:href="#m79cd04d2c9" y="4.941818"/>
      </g>
     </g>
     <g id="line2d_48">
      <g>
       <use style="stroke:#000000;stroke-width:0.5;" x="138.428125" xlink:href="#m83ff16c19f" y="4.941818"/>
      </g>
     </g>
     <g id="text_11">
      <!-- 100 -->
      <g transform="translate(9.145313 8.520724)scale(0.1 -0.1)">
       <defs>
        <path d="M 37.25 0 
L 28.46875 0 
L 28.46875 56 
Q 25.296875 52.984375 20.140625 49.953125 
Q 14.984375 46.921875 10.890625 45.40625 
L 10.890625 53.90625 
Q 18.265625 57.375 23.78125 62.296875 
Q 29.296875 67.234375 31.59375 71.875 
L 37.25 71.875 
z
" id="ArialMT-49"/>
       </defs>
       <use xlink:href="#ArialMT-49"/>
       <use x="55.615234" xlink:href="#ArialMT-48"/>
       <use x="111.230469" xlink:href="#ArialMT-48"/>
      </g>
     </g>
    </g>
    <g id="ytick_6">
     <g id="line2d_49">
      <defs>
       <path d="M 0 0 
L 2 0 
" id="m86ca642647" style="stroke:#000000;stroke-width:0.5;"/>
      </defs>
      <g>
       <use style="stroke:#000000;stroke-width:0.5;" x="26.828125" xlink:href="#m86ca642647" y="98.836364"/>
      </g>
     </g>
     <g id="line2d_50">
      <defs>
       <path d="M 0 0 
L -2 0 
" id="m41bc351702" style="stroke:#000000;stroke-width:0.5;"/>
      </defs>
      <g>
       <use style="stroke:#000000;stroke-width:0.5;" x="138.428125" xlink:href="#m41bc351702" y="98.836364"/>
      </g>
     </g>
    </g>
    <g id="ytick_7">
     <g id="line2d_51">
      <g>
       <use style="stroke:#000000;stroke-width:0.5;" x="26.828125" xlink:href="#m86ca642647" y="93.894545"/>
      </g>
     </g>
     <g id="line2d_52">
      <g>
       <use style="stroke:#000000;stroke-width:0.5;" x="138.428125" xlink:href="#m41bc351702" y="93.894545"/>
      </g>
     </g>
    </g>
    <g id="ytick_8">
     <g id="line2d_53">
      <g>
       <use style="stroke:#000000;stroke-width:0.5;" x="26.828125" xlink:href="#m86ca642647" y="88.952727"/>
      </g>
     </g>
     <g id="line2d_54">
      <g>
       <use style="stroke:#000000;stroke-width:0.5;" x="138.428125" xlink:href="#m41bc351702" y="88.952727"/>
      </g>
     </g>
    </g>
    <g id="ytick_9">
     <g id="line2d_55">
      <g>
       <use style="stroke:#000000;stroke-width:0.5;" x="26.828125" xlink:href="#m86ca642647" y="84.010909"/>
      </g>
     </g>
     <g id="line2d_56">
      <g>
       <use style="stroke:#000000;stroke-width:0.5;" x="138.428125" xlink:href="#m41bc351702" y="84.010909"/>
      </g>
     </g>
    </g>
    <g id="ytick_10">
     <g id="line2d_57">
      <g>
       <use style="stroke:#000000;stroke-width:0.5;" x="26.828125" xlink:href="#m86ca642647" y="74.127273"/>
      </g>
     </g>
     <g id="line2d_58">
      <g>
       <use style="stroke:#000000;stroke-width:0.5;" x="138.428125" xlink:href="#m41bc351702" y="74.127273"/>
      </g>
     </g>
    </g>
    <g id="ytick_11">
     <g id="line2d_59">
      <g>
       <use style="stroke:#000000;stroke-width:0.5;" x="26.828125" xlink:href="#m86ca642647" y="69.185455"/>
      </g>
     </g>
     <g id="line2d_60">
      <g>
       <use style="stroke:#000000;stroke-width:0.5;" x="138.428125" xlink:href="#m41bc351702" y="69.185455"/>
      </g>
     </g>
    </g>
    <g id="ytick_12">
     <g id="line2d_61">
      <g>
       <use style="stroke:#000000;stroke-width:0.5;" x="26.828125" xlink:href="#m86ca642647" y="64.243636"/>
      </g>
     </g>
     <g id="line2d_62">
      <g>
       <use style="stroke:#000000;stroke-width:0.5;" x="138.428125" xlink:href="#m41bc351702" y="64.243636"/>
      </g>
     </g>
    </g>
    <g id="ytick_13">
     <g id="line2d_63">
      <g>
       <use style="stroke:#000000;stroke-width:0.5;" x="26.828125" xlink:href="#m86ca642647" y="59.301818"/>
      </g>
     </g>
     <g id="line2d_64">
      <g>
       <use style="stroke:#000000;stroke-width:0.5;" x="138.428125" xlink:href="#m41bc351702" y="59.301818"/>
      </g>
     </g>
    </g>
    <g id="ytick_14">
     <g id="line2d_65">
      <g>
       <use style="stroke:#000000;stroke-width:0.5;" x="26.828125" xlink:href="#m86ca642647" y="49.418182"/>
      </g>
     </g>
     <g id="line2d_66">
      <g>
       <use style="stroke:#000000;stroke-width:0.5;" x="138.428125" xlink:href="#m41bc351702" y="49.418182"/>
      </g>
     </g>
    </g>
    <g id="ytick_15">
     <g id="line2d_67">
      <g>
       <use style="stroke:#000000;stroke-width:0.5;" x="26.828125" xlink:href="#m86ca642647" y="44.476364"/>
      </g>
     </g>
     <g id="line2d_68">
      <g>
       <use style="stroke:#000000;stroke-width:0.5;" x="138.428125" xlink:href="#m41bc351702" y="44.476364"/>
      </g>
     </g>
    </g>
    <g id="ytick_16">
     <g id="line2d_69">
      <g>
       <use style="stroke:#000000;stroke-width:0.5;" x="26.828125" xlink:href="#m86ca642647" y="39.534545"/>
      </g>
     </g>
     <g id="line2d_70">
      <g>
       <use style="stroke:#000000;stroke-width:0.5;" x="138.428125" xlink:href="#m41bc351702" y="39.534545"/>
      </g>
     </g>
    </g>
    <g id="ytick_17">
     <g id="line2d_71">
      <g>
       <use style="stroke:#000000;stroke-width:0.5;" x="26.828125" xlink:href="#m86ca642647" y="34.592727"/>
      </g>
     </g>
     <g id="line2d_72">
      <g>
       <use style="stroke:#000000;stroke-width:0.5;" x="138.428125" xlink:href="#m41bc351702" y="34.592727"/>
      </g>
     </g>
    </g>
    <g id="ytick_18">
     <g id="line2d_73">
      <g>
       <use style="stroke:#000000;stroke-width:0.5;" x="26.828125" xlink:href="#m86ca642647" y="24.709091"/>
      </g>
     </g>
     <g id="line2d_74">
      <g>
       <use style="stroke:#000000;stroke-width:0.5;" x="138.428125" xlink:href="#m41bc351702" y="24.709091"/>
      </g>
     </g>
    </g>
    <g id="ytick_19">
     <g id="line2d_75">
      <g>
       <use style="stroke:#000000;stroke-width:0.5;" x="26.828125" xlink:href="#m86ca642647" y="19.767273"/>
      </g>
     </g>
     <g id="line2d_76">
      <g>
       <use style="stroke:#000000;stroke-width:0.5;" x="138.428125" xlink:href="#m41bc351702" y="19.767273"/>
      </g>
     </g>
    </g>
    <g id="ytick_20">
     <g id="line2d_77">
      <g>
       <use style="stroke:#000000;stroke-width:0.5;" x="26.828125" xlink:href="#m86ca642647" y="14.825455"/>
      </g>
     </g>
     <g id="line2d_78">
      <g>
       <use style="stroke:#000000;stroke-width:0.5;" x="138.428125" xlink:href="#m41bc351702" y="14.825455"/>
      </g>
     </g>
    </g>
    <g id="ytick_21">
     <g id="line2d_79">
      <g>
       <use style="stroke:#000000;stroke-width:0.5;" x="26.828125" xlink:href="#m86ca642647" y="9.883636"/>
      </g>
     </g>
     <g id="line2d_80">
      <g>
       <use style="stroke:#000000;stroke-width:0.5;" x="138.428125" xlink:href="#m41bc351702" y="9.883636"/>
      </g>
     </g>
    </g>
    <g id="ytick_22">
     <g id="line2d_81">
      <g>
       <use style="stroke:#000000;stroke-width:0.5;" x="26.828125" xlink:href="#m86ca642647" y="0"/>
      </g>
     </g>
     <g id="line2d_82">
      <g>
       <use style="stroke:#000000;stroke-width:0.5;" x="138.428125" xlink:href="#m41bc351702" y="0"/>
      </g>
     </g>
    </g>
    <g id="text_12">
     <!-- $\it{Δσ}\,  (nS)}$ -->
     <g transform="translate(7.157813 72.01)rotate(-90)scale(0.1 -0.1)">
      <defs>
       <path d="M 34.1875 63.1875 
L 14.15625 8.203125 
L 54.25 8.203125 
z
M 0.78125 0 
L 28.609375 72.90625 
L 39.796875 72.90625 
L 67.578125 0 
z
" id="DejaVuSans-916"/>
       <path d="M 34.671875 47.5625 
Q 27.25 47.5625 22.21875 42.1875 
Q 16.890625 36.578125 15.140625 27.296875 
Q 13.1875 17.484375 16.3125 11.8125 
Q 19.390625 6.203125 26.65625 6.203125 
Q 33.84375 6.203125 39.109375 11.859375 
Q 44.4375 17.53125 46.34375 27.296875 
Q 48.046875 36.234375 45.015625 42.1875 
Q 42.1875 47.5625 34.671875 47.5625 
z
M 36.078125 54.734375 
L 65.921875 54.6875 
L 64.15625 45.703125 
L 54.109375 45.703125 
Q 57.90625 38.09375 55.859375 27.296875 
Q 53.21875 13.875 45.0625 6.25 
Q 36.859375 -1.421875 25.140625 -1.421875 
Q 13.375 -1.421875 8.203125 6.25 
Q 3.03125 13.875 5.671875 27.296875 
Q 8.25 40.765625 16.40625 48.390625 
Q 23.1875 54.734375 36.078125 54.734375 
z
" id="DejaVuSans-Oblique-963"/>
       <path d="M 31 75.875 
Q 24.46875 64.65625 21.28125 53.65625 
Q 18.109375 42.671875 18.109375 31.390625 
Q 18.109375 20.125 21.3125 9.0625 
Q 24.515625 -2 31 -13.1875 
L 23.1875 -13.1875 
Q 15.875 -1.703125 12.234375 9.375 
Q 8.59375 20.453125 8.59375 31.390625 
Q 8.59375 42.28125 12.203125 53.3125 
Q 15.828125 64.359375 23.1875 75.875 
z
" id="DejaVuSans-40"/>
       <path d="M 55.71875 33.015625 
L 49.3125 0 
L 40.28125 0 
L 46.6875 32.671875 
Q 47.125 34.96875 47.359375 36.71875 
Q 47.609375 38.484375 47.609375 39.5 
Q 47.609375 43.609375 45.015625 45.890625 
Q 42.4375 48.1875 37.796875 48.1875 
Q 30.5625 48.1875 25.34375 43.375 
Q 20.125 38.578125 18.5 30.328125 
L 12.5 0 
L 3.515625 0 
L 14.109375 54.6875 
L 23.09375 54.6875 
L 21.296875 46.09375 
Q 25.046875 50.828125 30.3125 53.40625 
Q 35.59375 56 41.40625 56 
Q 48.640625 56 52.609375 52.09375 
Q 56.59375 48.1875 56.59375 41.109375 
Q 56.59375 39.359375 56.375 37.359375 
Q 56.15625 35.359375 55.71875 33.015625 
z
" id="DejaVuSans-Oblique-110"/>
       <path d="M 60.296875 70.515625 
L 58.40625 60.890625 
Q 53.46875 63.53125 48.609375 64.875 
Q 43.75 66.21875 39.203125 66.21875 
Q 30.375 66.21875 25.140625 62.359375 
Q 19.921875 58.5 19.921875 52.09375 
Q 19.921875 48.578125 21.84375 46.703125 
Q 23.78125 44.828125 31.78125 42.671875 
L 37.703125 41.21875 
Q 47.703125 38.625 51.609375 34.640625 
Q 55.515625 30.671875 55.515625 23.484375 
Q 55.515625 12.453125 46.84375 5.515625 
Q 38.1875 -1.421875 24.03125 -1.421875 
Q 18.21875 -1.421875 12.359375 -0.265625 
Q 6.5 0.875 0.59375 3.21875 
L 2.59375 13.375 
Q 8.015625 10.015625 13.453125 8.296875 
Q 18.890625 6.59375 24.3125 6.59375 
Q 33.546875 6.59375 39.109375 10.6875 
Q 44.671875 14.796875 44.671875 21.390625 
Q 44.671875 25.78125 42.453125 28.046875 
Q 40.234375 30.328125 32.90625 32.171875 
L 27 33.6875 
Q 16.890625 36.328125 13.203125 39.765625 
Q 9.515625 43.21875 9.515625 49.421875 
Q 9.515625 60.296875 17.890625 67.25 
Q 26.265625 74.21875 39.703125 74.21875 
Q 44.921875 74.21875 50.046875 73.28125 
Q 55.171875 72.359375 60.296875 70.515625 
z
" id="DejaVuSans-Oblique-83"/>
       <path d="M 8.015625 75.875 
L 15.828125 75.875 
Q 23.140625 64.359375 26.78125 53.3125 
Q 30.421875 42.28125 30.421875 31.390625 
Q 30.421875 20.453125 26.78125 9.375 
Q 23.140625 -1.703125 15.828125 -13.1875 
L 8.015625 -13.1875 
Q 14.5 -2 17.703125 9.0625 
Q 20.90625 20.125 20.90625 31.390625 
Q 20.90625 42.671875 17.703125 53.65625 
Q 14.5 64.65625 8.015625 75.875 
z
" id="DejaVuSans-41"/>
      </defs>
      <use transform="translate(0 0.125)" xlink:href="#DejaVuSans-916"/>
      <use transform="translate(68.408203 0.125)" xlink:href="#DejaVuSans-Oblique-963"/>
      <use transform="translate(148.022786 0.125)" xlink:href="#DejaVuSans-40"/>
      <use transform="translate(187.036458 0.125)" xlink:href="#DejaVuSans-Oblique-110"/>
      <use transform="translate(250.415364 0.125)" xlink:href="#DejaVuSans-Oblique-83"/>
      <use transform="translate(313.891926 0.125)" xlink:href="#DejaVuSans-41"/>
     </g>
    </g>
   </g>
   <g id="line2d_83">
    <path clip-path="url(#p745e62e137)" d="M 31.900852 22.593803 
L 32.753443 13.433812 
L 33.60593 21.480825 
L 34.458526 13.136375 
L 35.311185 16.125214 
L 36.16369 11.701707 
L 37.016223 8.274853 
L 37.868797 8.801563 
L 38.721293 17.000145 
L 39.573855 23.180683 
L 40.426376 19.414013 
L 41.278946 19.869155 
L 42.131547 19.54644 
L 42.984093 27.393454 
L 43.836585 17.144797 
L 44.689189 15.205113 
L 45.541747 19.350094 
L 46.39435 29.736651 
L 47.246869 28.26216 
L 48.099475 18.313361 
L 48.951981 17.692193 
L 49.804524 25.352583 
L 50.65711 21.644059 
L 51.509661 24.07147 
L 52.362254 23.3064 
L 53.214798 28.283397 
L 54.067351 25.528493 
L 54.919877 28.489683 
L 55.772466 24.985684 
L 56.625008 29.070591 
L 57.477525 27.393347 
L 58.329985 25.417859 
L 59.182576 28.255958 
L 60.035197 29.632674 
L 60.887706 28.21688 
L 61.740294 27.946941 
L 62.592874 27.802542 
L 63.44551 35.094387 
L 64.298039 43.332045 
L 65.150627 43.350243 
L 66.003156 50.880449 
L 66.855692 40.855663 
L 67.708309 42.281662 
L 68.560801 44.089118 
L 69.4134 46.495171 
L 70.265982 43.981742 
L 71.118535 50.211447 
L 71.97113 48.071827 
L 72.823626 46.804546 
L 73.676167 46.171689 
L 74.528698 47.282003 
L 75.381351 55.915119 
L 76.233807 57.726678 
L 77.08639 60.51333 
L 77.938978 61.323762 
L 78.791427 69.63811 
L 79.643943 77.842152 
L 80.496497 84.540366 
L 81.349085 94.285132 
L 82.201645 103.778182 
L 83.054184 103.778182 
L 83.906742 94.285132 
L 84.759265 84.540366 
L 85.611872 77.842152 
L 86.464448 69.63811 
L 87.316935 61.323762 
L 88.169545 60.51333 
L 89.022067 57.726678 
L 89.874633 55.915119 
L 90.727226 47.282003 
L 91.579756 46.171689 
L 92.432312 46.804546 
L 93.284882 48.071827 
L 94.137446 50.211447 
L 94.989988 43.981742 
L 95.842574 46.495171 
L 96.695111 44.089118 
L 97.547682 42.281662 
L 98.400276 40.855663 
L 99.252782 50.880449 
L 100.105472 43.350243 
L 100.95811 43.332045 
L 101.810679 35.094387 
L 102.663283 27.802542 
L 103.515794 27.946941 
L 104.3684 28.21688 
L 105.220961 29.632674 
L 106.073501 28.255958 
L 106.926075 25.417859 
L 107.778636 27.393347 
L 108.631182 29.070591 
L 109.483769 24.985684 
L 110.336359 28.489683 
L 111.188882 25.528493 
L 112.041491 28.283397 
L 112.893998 23.3064 
L 113.746625 24.07147 
L 114.599172 21.644059 
L 115.451752 25.352583 
L 116.304299 17.692193 
L 117.156893 18.313361 
L 118.009442 28.26216 
L 118.861953 29.736651 
L 119.714599 19.350094 
L 120.567048 15.205113 
L 121.419562 17.144797 
L 122.272209 27.393454 
L 123.12475 19.54644 
L 123.977299 19.869155 
L 124.829852 19.414013 
L 125.682438 23.180683 
L 126.534981 17.000145 
L 127.387557 8.801563 
L 128.240053 8.274853 
L 129.092639 11.701707 
L 129.945169 16.125214 
L 130.797771 13.136375 
L 131.65031 21.480825 
L 132.502837 13.433812 
L 133.355398 22.593803 
" style="fill:none;stroke:#377eb8;stroke-linecap:square;"/>
   </g>
   <g id="line2d_84">
    <path clip-path="url(#p745e62e137)" d="M 31.900852 18.301457 
L 32.753443 18.458075 
L 33.60593 18.619688 
L 34.458526 18.786581 
L 35.311185 18.959006 
L 36.16369 19.137198 
L 37.016223 19.321489 
L 37.868797 19.512201 
L 38.721293 19.709648 
L 39.573855 19.914226 
L 40.426376 20.126302 
L 41.278946 20.346319 
L 42.131547 20.574725 
L 42.984093 20.811985 
L 43.836585 21.058623 
L 44.689189 21.315256 
L 45.541747 21.582452 
L 46.39435 21.860907 
L 47.246869 22.151301 
L 48.099475 22.454478 
L 48.951981 22.771231 
L 49.804524 23.102542 
L 50.65711 23.449439 
L 51.509661 23.813012 
L 52.362254 24.194525 
L 53.214798 24.59529 
L 54.067351 25.016827 
L 54.919877 25.460771 
L 55.772466 25.928998 
L 56.625008 26.423485 
L 57.477525 26.94651 
L 58.329985 27.500583 
L 59.182576 28.088671 
L 60.035197 28.713916 
L 60.887706 29.379816 
L 61.740294 30.090609 
L 62.592874 30.850883 
L 63.44551 31.666015 
L 64.298039 32.541937 
L 65.150627 33.485843 
L 66.003156 34.505736 
L 66.855692 35.611157 
L 67.708309 36.813304 
L 68.560801 38.124928 
L 69.4134 39.56185 
L 70.265982 41.142325 
L 71.118535 42.888467 
L 71.97113 44.827209 
L 72.823626 46.990838 
L 73.676167 49.41973 
L 74.528698 52.163174 
L 75.381351 55.283028 
L 76.233807 58.854345 
L 77.08639 62.972722 
L 77.938978 67.751801 
L 78.791427 73.320222 
L 79.643943 79.79981 
L 80.496497 87.211903 
L 81.349085 95.178515 
L 82.201645 101.997837 
L 83.054184 103.308574 
L 83.906742 97.736092 
L 84.759265 89.850147 
L 85.611872 82.173882 
L 86.464448 75.375183 
L 87.316935 69.514243 
L 88.169545 64.486356 
L 89.022067 60.161644 
L 89.874633 56.419098 
L 90.727226 53.158004 
L 91.579756 50.29671 
L 92.432312 47.768916 
L 93.284882 45.521574 
L 94.137446 43.511817 
L 94.989988 41.704769 
L 95.842574 40.071711 
L 96.695111 38.589246 
L 97.547682 37.237638 
L 98.400276 36.000526 
L 99.252782 34.86426 
L 100.105472 33.816791 
L 100.95811 32.848454 
L 101.810679 31.950696 
L 102.663283 31.11603 
L 103.515794 30.338188 
L 104.3684 29.611437 
L 105.220961 28.931041 
L 106.073501 28.292706 
L 106.926075 27.69263 
L 107.778636 27.127519 
L 108.631182 26.594417 
L 109.483769 26.090657 
L 110.336359 25.613911 
L 111.188882 25.162106 
L 112.041491 24.733267 
L 112.893998 24.325777 
L 113.746625 23.937987 
L 114.599172 23.568591 
L 115.451752 23.216268 
L 116.304299 22.87989 
L 117.156893 22.55837 
L 118.009442 22.25078 
L 118.861953 21.956233 
L 119.714599 21.673863 
L 120.567048 21.403035 
L 121.419562 21.142977 
L 122.272209 20.893041 
L 123.12475 20.652715 
L 123.977299 20.421426 
L 124.829852 20.198674 
L 125.682438 19.98399 
L 126.534981 19.776961 
L 127.387557 19.577168 
L 128.240053 19.384264 
L 129.092639 19.197863 
L 129.945169 19.017671 
L 130.797771 18.843359 
L 131.65031 18.67467 
L 132.502837 18.511326 
L 133.355398 18.353069 
" style="fill:none;stroke:#000000;stroke-linecap:square;"/>
   </g>
   <g id="patch_3">
    <path d="M 26.828125 108.72 
L 26.828125 0 
" style="fill:none;stroke:#000000;stroke-linecap:square;stroke-linejoin:miter;stroke-width:0.5;"/>
   </g>
   <g id="patch_4">
    <path d="M 138.428125 108.72 
L 138.428125 0 
" style="fill:none;stroke:#000000;stroke-linecap:square;stroke-linejoin:miter;stroke-width:0.5;"/>
   </g>
   <g id="patch_5">
    <path d="M 26.828125 108.72 
L 138.428125 108.72 
" style="fill:none;stroke:#000000;stroke-linecap:square;stroke-linejoin:miter;stroke-width:0.5;"/>
   </g>
   <g id="patch_6">
    <path d="M 26.828125 0 
L 138.428125 0 
" style="fill:none;stroke:#000000;stroke-linecap:square;stroke-linejoin:miter;stroke-width:0.5;"/>
   </g>
  </g>
 </g>
 <defs>
  <clipPath id="p745e62e137">
   <rect height="108.72" width="111.6" x="26.828125" y="0"/>
  </clipPath>
 </defs>
</svg>
