<?xml version="1.0" encoding="utf-8" standalone="no"?>
<!DOCTYPE svg PUBLIC "-//W3C//DTD SVG 1.1//EN"
  "http://www.w3.org/Graphics/SVG/1.1/DTD/svg11.dtd">
<!-- Created with matplotlib (https://matplotlib.org/) -->
<svg height="122.929312pt" version="1.1" viewBox="0 0 132.848125 122.929312" width="132.848125pt" xmlns="http://www.w3.org/2000/svg" xmlns:xlink="http://www.w3.org/1999/xlink">
 <metadata>
  <rdf:RDF xmlns:cc="http://creativecommons.org/ns#" xmlns:dc="http://purl.org/dc/elements/1.1/" xmlns:rdf="http://www.w3.org/1999/02/22-rdf-syntax-ns#">
   <cc:Work>
    <dc:type rdf:resource="http://purl.org/dc/dcmitype/StillImage"/>
    <dc:date>2020-12-08T00:49:33.493623</dc:date>
    <dc:format>image/svg+xml</dc:format>
    <dc:creator>
     <cc:Agent>
      <dc:title>Matplotlib v3.3.0, https://matplotlib.org/</dc:title>
     </cc:Agent>
    </dc:creator>
   </cc:Work>
  </rdf:RDF>
 </metadata>
 <defs>
  <style type="text/css">*{stroke-linecap:butt;stroke-linejoin:round;}</style>
 </defs>
 <g id="figure_1">
  <g id="patch_1">
   <path d="M 0 122.929312 
L 132.848125 122.929312 
L 132.848125 0 
L 0 0 
z
" style="fill:none;"/>
  </g>
  <g id="axes_1">
   <g id="patch_2">
    <path d="M 26.828125 103.284 
L 132.848125 103.284 
L 132.848125 -0 
L 26.828125 -0 
z
" style="fill:none;"/>
   </g>
   <g id="matplotlib.axis_1">
    <g id="xtick_1">
     <g id="line2d_1">
      <defs>
       <path d="M 0 0 
L 0 -3.5 
" id="mcf515d3fe5" style="stroke:#000000;stroke-width:0.5;"/>
      </defs>
      <g>
       <use style="stroke:#000000;stroke-width:0.5;" x="36.776645" xlink:href="#mcf515d3fe5" y="103.284"/>
      </g>
     </g>
     <g id="line2d_2">
      <defs>
       <path d="M 0 0 
L 0 3.5 
" id="mbf17eeb719" style="stroke:#000000;stroke-width:0.5;"/>
      </defs>
      <g>
       <use style="stroke:#000000;stroke-width:0.5;" x="36.776645" xlink:href="#mbf17eeb719" y="-0"/>
      </g>
     </g>
     <g id="text_1">
      <!-- −8 -->
      <g transform="translate(31.075864 111.441812)scale(0.1 -0.1)">
       <defs>
        <path d="M 52.828125 31.203125 
L 5.5625 31.203125 
L 5.5625 39.40625 
L 52.828125 39.40625 
z
" id="ArialMT-8722"/>
        <path d="M 17.671875 38.8125 
Q 12.203125 40.828125 9.5625 44.53125 
Q 6.9375 48.25 6.9375 53.421875 
Q 6.9375 61.234375 12.546875 66.546875 
Q 18.171875 71.875 27.484375 71.875 
Q 36.859375 71.875 42.578125 66.421875 
Q 48.296875 60.984375 48.296875 53.171875 
Q 48.296875 48.1875 45.671875 44.5 
Q 43.0625 40.828125 37.75 38.8125 
Q 44.34375 36.671875 47.78125 31.875 
Q 51.21875 27.09375 51.21875 20.453125 
Q 51.21875 11.28125 44.71875 5.03125 
Q 38.234375 -1.21875 27.640625 -1.21875 
Q 17.046875 -1.21875 10.546875 5.046875 
Q 4.046875 11.328125 4.046875 20.703125 
Q 4.046875 27.6875 7.59375 32.390625 
Q 11.140625 37.109375 17.671875 38.8125 
z
M 15.921875 53.71875 
Q 15.921875 48.640625 19.1875 45.40625 
Q 22.46875 42.1875 27.6875 42.1875 
Q 32.765625 42.1875 36.015625 45.375 
Q 39.265625 48.578125 39.265625 53.21875 
Q 39.265625 58.0625 35.90625 61.359375 
Q 32.5625 64.65625 27.59375 64.65625 
Q 22.5625 64.65625 19.234375 61.421875 
Q 15.921875 58.203125 15.921875 53.71875 
z
M 13.09375 20.65625 
Q 13.09375 16.890625 14.875 13.375 
Q 16.65625 9.859375 20.171875 7.921875 
Q 23.6875 6 27.734375 6 
Q 34.03125 6 38.125 10.046875 
Q 42.234375 14.109375 42.234375 20.359375 
Q 42.234375 26.703125 38.015625 30.859375 
Q 33.796875 35.015625 27.4375 35.015625 
Q 21.234375 35.015625 17.15625 30.90625 
Q 13.09375 26.8125 13.09375 20.65625 
z
" id="ArialMT-56"/>
       </defs>
       <use xlink:href="#ArialMT-8722"/>
       <use x="58.398438" xlink:href="#ArialMT-56"/>
      </g>
     </g>
    </g>
    <g id="xtick_2">
     <g id="line2d_3">
      <g>
       <use style="stroke:#000000;stroke-width:0.5;" x="58.374809" xlink:href="#mcf515d3fe5" y="103.284"/>
      </g>
     </g>
     <g id="line2d_4">
      <g>
       <use style="stroke:#000000;stroke-width:0.5;" x="58.374809" xlink:href="#mbf17eeb719" y="-0"/>
      </g>
     </g>
     <g id="text_2">
      <!-- −4 -->
      <g transform="translate(52.674028 111.441812)scale(0.1 -0.1)">
       <defs>
        <path d="M 32.328125 0 
L 32.328125 17.140625 
L 1.265625 17.140625 
L 1.265625 25.203125 
L 33.9375 71.578125 
L 41.109375 71.578125 
L 41.109375 25.203125 
L 50.78125 25.203125 
L 50.78125 17.140625 
L 41.109375 17.140625 
L 41.109375 0 
z
M 32.328125 25.203125 
L 32.328125 57.46875 
L 9.90625 25.203125 
z
" id="ArialMT-52"/>
       </defs>
       <use xlink:href="#ArialMT-8722"/>
       <use x="58.398438" xlink:href="#ArialMT-52"/>
      </g>
     </g>
    </g>
    <g id="xtick_3">
     <g id="line2d_5">
      <g>
       <use style="stroke:#000000;stroke-width:0.5;" x="79.972974" xlink:href="#mcf515d3fe5" y="103.284"/>
      </g>
     </g>
     <g id="line2d_6">
      <g>
       <use style="stroke:#000000;stroke-width:0.5;" x="79.972974" xlink:href="#mbf17eeb719" y="-0"/>
      </g>
     </g>
     <g id="text_3">
      <!-- 0 -->
      <g transform="translate(77.192505 111.441812)scale(0.1 -0.1)">
       <defs>
        <path d="M 4.15625 35.296875 
Q 4.15625 48 6.765625 55.734375 
Q 9.375 63.484375 14.515625 67.671875 
Q 19.671875 71.875 27.484375 71.875 
Q 33.25 71.875 37.59375 69.546875 
Q 41.9375 67.234375 44.765625 62.859375 
Q 47.609375 58.5 49.21875 52.21875 
Q 50.828125 45.953125 50.828125 35.296875 
Q 50.828125 22.703125 48.234375 14.96875 
Q 45.65625 7.234375 40.5 3 
Q 35.359375 -1.21875 27.484375 -1.21875 
Q 17.140625 -1.21875 11.234375 6.203125 
Q 4.15625 15.140625 4.15625 35.296875 
z
M 13.1875 35.296875 
Q 13.1875 17.671875 17.3125 11.828125 
Q 21.4375 6 27.484375 6 
Q 33.546875 6 37.671875 11.859375 
Q 41.796875 17.71875 41.796875 35.296875 
Q 41.796875 52.984375 37.671875 58.78125 
Q 33.546875 64.59375 27.390625 64.59375 
Q 21.34375 64.59375 17.71875 59.46875 
Q 13.1875 52.9375 13.1875 35.296875 
z
" id="ArialMT-48"/>
       </defs>
       <use xlink:href="#ArialMT-48"/>
      </g>
     </g>
    </g>
    <g id="xtick_4">
     <g id="line2d_7">
      <g>
       <use style="stroke:#000000;stroke-width:0.5;" x="101.571138" xlink:href="#mcf515d3fe5" y="103.284"/>
      </g>
     </g>
     <g id="line2d_8">
      <g>
       <use style="stroke:#000000;stroke-width:0.5;" x="101.571138" xlink:href="#mbf17eeb719" y="-0"/>
      </g>
     </g>
     <g id="text_4">
      <!-- 4 -->
      <g transform="translate(98.790669 111.441812)scale(0.1 -0.1)">
       <use xlink:href="#ArialMT-52"/>
      </g>
     </g>
    </g>
    <g id="xtick_5">
     <g id="line2d_9">
      <g>
       <use style="stroke:#000000;stroke-width:0.5;" x="123.169302" xlink:href="#mcf515d3fe5" y="103.284"/>
      </g>
     </g>
     <g id="line2d_10">
      <g>
       <use style="stroke:#000000;stroke-width:0.5;" x="123.169302" xlink:href="#mbf17eeb719" y="-0"/>
      </g>
     </g>
     <g id="text_5">
      <!-- 8 -->
      <g transform="translate(120.388834 111.441812)scale(0.1 -0.1)">
       <use xlink:href="#ArialMT-56"/>
      </g>
     </g>
    </g>
    <g id="xtick_6">
     <g id="line2d_11">
      <defs>
       <path d="M 0 0 
L 0 -2 
" id="m8841288e04" style="stroke:#000000;stroke-width:0.5;"/>
      </defs>
      <g>
       <use style="stroke:#000000;stroke-width:0.5;" x="31.377104" xlink:href="#m8841288e04" y="103.284"/>
      </g>
     </g>
     <g id="line2d_12">
      <defs>
       <path d="M 0 0 
L 0 2 
" id="m2af815c536" style="stroke:#000000;stroke-width:0.5;"/>
      </defs>
      <g>
       <use style="stroke:#000000;stroke-width:0.5;" x="31.377104" xlink:href="#m2af815c536" y="-0"/>
      </g>
     </g>
    </g>
    <g id="xtick_7">
     <g id="line2d_13">
      <g>
       <use style="stroke:#000000;stroke-width:0.5;" x="42.176186" xlink:href="#m8841288e04" y="103.284"/>
      </g>
     </g>
     <g id="line2d_14">
      <g>
       <use style="stroke:#000000;stroke-width:0.5;" x="42.176186" xlink:href="#m2af815c536" y="-0"/>
      </g>
     </g>
    </g>
    <g id="xtick_8">
     <g id="line2d_15">
      <g>
       <use style="stroke:#000000;stroke-width:0.5;" x="47.575727" xlink:href="#m8841288e04" y="103.284"/>
      </g>
     </g>
     <g id="line2d_16">
      <g>
       <use style="stroke:#000000;stroke-width:0.5;" x="47.575727" xlink:href="#m2af815c536" y="-0"/>
      </g>
     </g>
    </g>
    <g id="xtick_9">
     <g id="line2d_17">
      <g>
       <use style="stroke:#000000;stroke-width:0.5;" x="52.975268" xlink:href="#m8841288e04" y="103.284"/>
      </g>
     </g>
     <g id="line2d_18">
      <g>
       <use style="stroke:#000000;stroke-width:0.5;" x="52.975268" xlink:href="#m2af815c536" y="-0"/>
      </g>
     </g>
    </g>
    <g id="xtick_10">
     <g id="line2d_19">
      <g>
       <use style="stroke:#000000;stroke-width:0.5;" x="63.77435" xlink:href="#m8841288e04" y="103.284"/>
      </g>
     </g>
     <g id="line2d_20">
      <g>
       <use style="stroke:#000000;stroke-width:0.5;" x="63.77435" xlink:href="#m2af815c536" y="-0"/>
      </g>
     </g>
    </g>
    <g id="xtick_11">
     <g id="line2d_21">
      <g>
       <use style="stroke:#000000;stroke-width:0.5;" x="69.173891" xlink:href="#m8841288e04" y="103.284"/>
      </g>
     </g>
     <g id="line2d_22">
      <g>
       <use style="stroke:#000000;stroke-width:0.5;" x="69.173891" xlink:href="#m2af815c536" y="-0"/>
      </g>
     </g>
    </g>
    <g id="xtick_12">
     <g id="line2d_23">
      <g>
       <use style="stroke:#000000;stroke-width:0.5;" x="74.573433" xlink:href="#m8841288e04" y="103.284"/>
      </g>
     </g>
     <g id="line2d_24">
      <g>
       <use style="stroke:#000000;stroke-width:0.5;" x="74.573433" xlink:href="#m2af815c536" y="-0"/>
      </g>
     </g>
    </g>
    <g id="xtick_13">
     <g id="line2d_25">
      <g>
       <use style="stroke:#000000;stroke-width:0.5;" x="85.372515" xlink:href="#m8841288e04" y="103.284"/>
      </g>
     </g>
     <g id="line2d_26">
      <g>
       <use style="stroke:#000000;stroke-width:0.5;" x="85.372515" xlink:href="#m2af815c536" y="-0"/>
      </g>
     </g>
    </g>
    <g id="xtick_14">
     <g id="line2d_27">
      <g>
       <use style="stroke:#000000;stroke-width:0.5;" x="90.772056" xlink:href="#m8841288e04" y="103.284"/>
      </g>
     </g>
     <g id="line2d_28">
      <g>
       <use style="stroke:#000000;stroke-width:0.5;" x="90.772056" xlink:href="#m2af815c536" y="-0"/>
      </g>
     </g>
    </g>
    <g id="xtick_15">
     <g id="line2d_29">
      <g>
       <use style="stroke:#000000;stroke-width:0.5;" x="96.171597" xlink:href="#m8841288e04" y="103.284"/>
      </g>
     </g>
     <g id="line2d_30">
      <g>
       <use style="stroke:#000000;stroke-width:0.5;" x="96.171597" xlink:href="#m2af815c536" y="-0"/>
      </g>
     </g>
    </g>
    <g id="xtick_16">
     <g id="line2d_31">
      <g>
       <use style="stroke:#000000;stroke-width:0.5;" x="106.970679" xlink:href="#m8841288e04" y="103.284"/>
      </g>
     </g>
     <g id="line2d_32">
      <g>
       <use style="stroke:#000000;stroke-width:0.5;" x="106.970679" xlink:href="#m2af815c536" y="-0"/>
      </g>
     </g>
    </g>
    <g id="xtick_17">
     <g id="line2d_33">
      <g>
       <use style="stroke:#000000;stroke-width:0.5;" x="112.37022" xlink:href="#m8841288e04" y="103.284"/>
      </g>
     </g>
     <g id="line2d_34">
      <g>
       <use style="stroke:#000000;stroke-width:0.5;" x="112.37022" xlink:href="#m2af815c536" y="-0"/>
      </g>
     </g>
    </g>
    <g id="xtick_18">
     <g id="line2d_35">
      <g>
       <use style="stroke:#000000;stroke-width:0.5;" x="117.769761" xlink:href="#m8841288e04" y="103.284"/>
      </g>
     </g>
     <g id="line2d_36">
      <g>
       <use style="stroke:#000000;stroke-width:0.5;" x="117.769761" xlink:href="#m2af815c536" y="-0"/>
      </g>
     </g>
    </g>
    <g id="xtick_19">
     <g id="line2d_37">
      <g>
       <use style="stroke:#000000;stroke-width:0.5;" x="128.568843" xlink:href="#m8841288e04" y="103.284"/>
      </g>
     </g>
     <g id="line2d_38">
      <g>
       <use style="stroke:#000000;stroke-width:0.5;" x="128.568843" xlink:href="#m2af815c536" y="-0"/>
      </g>
     </g>
    </g>
    <g id="text_6">
     <!-- $\it{B}$ (T) -->
     <g transform="translate(68.588125 120.729312)scale(0.1 -0.1)">
      <defs>
       <path d="M 16.890625 72.90625 
L 42.09375 72.90625 
Q 52.34375 72.90625 57.421875 69.09375 
Q 62.5 65.28125 62.5 57.625 
Q 62.5 50.59375 58.125 45.484375 
Q 53.765625 40.375 46.6875 39.3125 
Q 52.734375 37.9375 55.765625 34.078125 
Q 58.796875 30.21875 58.796875 23.78125 
Q 58.796875 12.796875 50.65625 6.390625 
Q 42.53125 0 28.421875 0 
L 2.6875 0 
z
M 19.28125 34.8125 
L 14.109375 8.109375 
L 29.984375 8.109375 
Q 38.921875 8.109375 43.75 12.203125 
Q 48.578125 16.3125 48.578125 23.78125 
Q 48.578125 29.546875 45.375 32.171875 
Q 42.1875 34.8125 35.109375 34.8125 
z
M 25.09375 64.796875 
L 20.796875 42.828125 
L 35.5 42.828125 
Q 43.359375 42.828125 47.78125 46.234375 
Q 52.203125 49.65625 52.203125 55.71875 
Q 52.203125 60.453125 49.21875 62.625 
Q 46.234375 64.796875 39.703125 64.796875 
z
" id="DejaVuSans-Oblique-66"/>
       <path id="ArialMT-32"/>
       <path d="M 23.390625 -21.046875 
Q 16.109375 -11.859375 11.078125 0.4375 
Q 6.0625 12.75 6.0625 25.921875 
Q 6.0625 37.546875 9.8125 48.1875 
Q 14.203125 60.546875 23.390625 72.796875 
L 29.6875 72.796875 
Q 23.78125 62.640625 21.875 58.296875 
Q 18.890625 51.5625 17.1875 44.234375 
Q 15.09375 35.109375 15.09375 25.875 
Q 15.09375 2.390625 29.6875 -21.046875 
z
" id="ArialMT-40"/>
       <path d="M 25.921875 0 
L 25.921875 63.140625 
L 2.34375 63.140625 
L 2.34375 71.578125 
L 59.078125 71.578125 
L 59.078125 63.140625 
L 35.40625 63.140625 
L 35.40625 0 
z
" id="ArialMT-84"/>
       <path d="M 12.359375 -21.046875 
L 6.0625 -21.046875 
Q 20.65625 2.390625 20.65625 25.875 
Q 20.65625 35.0625 18.5625 44.09375 
Q 16.890625 51.421875 13.921875 58.15625 
Q 12.015625 62.546875 6.0625 72.796875 
L 12.359375 72.796875 
Q 21.53125 60.546875 25.921875 48.1875 
Q 29.6875 37.546875 29.6875 25.921875 
Q 29.6875 12.75 24.625 0.4375 
Q 19.578125 -11.859375 12.359375 -21.046875 
z
" id="ArialMT-41"/>
      </defs>
      <use transform="translate(0 0.09375)" xlink:href="#DejaVuSans-Oblique-66"/>
      <use transform="translate(68.603516 0.09375)" xlink:href="#ArialMT-32"/>
      <use transform="translate(96.386719 0.09375)" xlink:href="#ArialMT-40"/>
      <use transform="translate(129.6875 0.09375)" xlink:href="#ArialMT-84"/>
      <use transform="translate(190.771484 0.09375)" xlink:href="#ArialMT-41"/>
     </g>
    </g>
   </g>
   <g id="matplotlib.axis_2">
    <g id="ytick_1">
     <g id="line2d_39">
      <defs>
       <path d="M 0 0 
L 3.5 0 
" id="me50a389b25" style="stroke:#000000;stroke-width:0.5;"/>
      </defs>
      <g>
       <use style="stroke:#000000;stroke-width:0.5;" x="26.828125" xlink:href="#me50a389b25" y="98.589273"/>
      </g>
     </g>
     <g id="line2d_40">
      <defs>
       <path d="M 0 0 
L -3.5 0 
" id="m6b36a4932f" style="stroke:#000000;stroke-width:0.5;"/>
      </defs>
      <g>
       <use style="stroke:#000000;stroke-width:0.5;" x="132.848125" xlink:href="#m6b36a4932f" y="98.589273"/>
      </g>
     </g>
     <g id="text_7">
      <!-- 0 -->
      <g transform="translate(20.267188 102.168179)scale(0.1 -0.1)">
       <use xlink:href="#ArialMT-48"/>
      </g>
     </g>
    </g>
    <g id="ytick_2">
     <g id="line2d_41">
      <g>
       <use style="stroke:#000000;stroke-width:0.5;" x="26.828125" xlink:href="#me50a389b25" y="75.115636"/>
      </g>
     </g>
     <g id="line2d_42">
      <g>
       <use style="stroke:#000000;stroke-width:0.5;" x="132.848125" xlink:href="#m6b36a4932f" y="75.115636"/>
      </g>
     </g>
     <g id="text_8">
      <!-- 25 -->
      <g transform="translate(14.70625 78.694543)scale(0.1 -0.1)">
       <defs>
        <path d="M 50.34375 8.453125 
L 50.34375 0 
L 3.03125 0 
Q 2.9375 3.171875 4.046875 6.109375 
Q 5.859375 10.9375 9.828125 15.625 
Q 13.8125 20.3125 21.34375 26.46875 
Q 33.015625 36.03125 37.109375 41.625 
Q 41.21875 47.21875 41.21875 52.203125 
Q 41.21875 57.421875 37.46875 61 
Q 33.734375 64.59375 27.734375 64.59375 
Q 21.390625 64.59375 17.578125 60.78125 
Q 13.765625 56.984375 13.71875 50.25 
L 4.6875 51.171875 
Q 5.609375 61.28125 11.65625 66.578125 
Q 17.71875 71.875 27.9375 71.875 
Q 38.234375 71.875 44.234375 66.15625 
Q 50.25 60.453125 50.25 52 
Q 50.25 47.703125 48.484375 43.546875 
Q 46.734375 39.40625 42.65625 34.8125 
Q 38.578125 30.21875 29.109375 22.21875 
Q 21.1875 15.578125 18.9375 13.203125 
Q 16.703125 10.84375 15.234375 8.453125 
z
" id="ArialMT-50"/>
        <path d="M 4.15625 18.75 
L 13.375 19.53125 
Q 14.40625 12.796875 18.140625 9.390625 
Q 21.875 6 27.15625 6 
Q 33.5 6 37.890625 10.78125 
Q 42.28125 15.578125 42.28125 23.484375 
Q 42.28125 31 38.0625 35.34375 
Q 33.84375 39.703125 27 39.703125 
Q 22.75 39.703125 19.328125 37.765625 
Q 15.921875 35.84375 13.96875 32.765625 
L 5.71875 33.84375 
L 12.640625 70.609375 
L 48.25 70.609375 
L 48.25 62.203125 
L 19.671875 62.203125 
L 15.828125 42.96875 
Q 22.265625 47.46875 29.34375 47.46875 
Q 38.71875 47.46875 45.15625 40.96875 
Q 51.609375 34.46875 51.609375 24.265625 
Q 51.609375 14.546875 45.953125 7.46875 
Q 39.0625 -1.21875 27.15625 -1.21875 
Q 17.390625 -1.21875 11.203125 4.25 
Q 5.03125 9.71875 4.15625 18.75 
z
" id="ArialMT-53"/>
       </defs>
       <use xlink:href="#ArialMT-50"/>
       <use x="55.615234" xlink:href="#ArialMT-53"/>
      </g>
     </g>
    </g>
    <g id="ytick_3">
     <g id="line2d_43">
      <g>
       <use style="stroke:#000000;stroke-width:0.5;" x="26.828125" xlink:href="#me50a389b25" y="51.642"/>
      </g>
     </g>
     <g id="line2d_44">
      <g>
       <use style="stroke:#000000;stroke-width:0.5;" x="132.848125" xlink:href="#m6b36a4932f" y="51.642"/>
      </g>
     </g>
     <g id="text_9">
      <!-- 50 -->
      <g transform="translate(14.70625 55.220906)scale(0.1 -0.1)">
       <use xlink:href="#ArialMT-53"/>
       <use x="55.615234" xlink:href="#ArialMT-48"/>
      </g>
     </g>
    </g>
    <g id="ytick_4">
     <g id="line2d_45">
      <g>
       <use style="stroke:#000000;stroke-width:0.5;" x="26.828125" xlink:href="#me50a389b25" y="28.168364"/>
      </g>
     </g>
     <g id="line2d_46">
      <g>
       <use style="stroke:#000000;stroke-width:0.5;" x="132.848125" xlink:href="#m6b36a4932f" y="28.168364"/>
      </g>
     </g>
     <g id="text_10">
      <!-- 75 -->
      <g transform="translate(14.70625 31.74727)scale(0.1 -0.1)">
       <defs>
        <path d="M 4.734375 62.203125 
L 4.734375 70.65625 
L 51.078125 70.65625 
L 51.078125 63.8125 
Q 44.234375 56.546875 37.515625 44.484375 
Q 30.8125 32.421875 27.15625 19.671875 
Q 24.515625 10.6875 23.78125 0 
L 14.75 0 
Q 14.890625 8.453125 18.0625 20.40625 
Q 21.234375 32.375 27.171875 43.484375 
Q 33.109375 54.59375 39.796875 62.203125 
z
" id="ArialMT-55"/>
       </defs>
       <use xlink:href="#ArialMT-55"/>
       <use x="55.615234" xlink:href="#ArialMT-53"/>
      </g>
     </g>
    </g>
    <g id="ytick_5">
     <g id="line2d_47">
      <g>
       <use style="stroke:#000000;stroke-width:0.5;" x="26.828125" xlink:href="#me50a389b25" y="4.694727"/>
      </g>
     </g>
     <g id="line2d_48">
      <g>
       <use style="stroke:#000000;stroke-width:0.5;" x="132.848125" xlink:href="#m6b36a4932f" y="4.694727"/>
      </g>
     </g>
     <g id="text_11">
      <!-- 100 -->
      <g transform="translate(9.145313 8.273634)scale(0.1 -0.1)">
       <defs>
        <path d="M 37.25 0 
L 28.46875 0 
L 28.46875 56 
Q 25.296875 52.984375 20.140625 49.953125 
Q 14.984375 46.921875 10.890625 45.40625 
L 10.890625 53.90625 
Q 18.265625 57.375 23.78125 62.296875 
Q 29.296875 67.234375 31.59375 71.875 
L 37.25 71.875 
z
" id="ArialMT-49"/>
       </defs>
       <use xlink:href="#ArialMT-49"/>
       <use x="55.615234" xlink:href="#ArialMT-48"/>
       <use x="111.230469" xlink:href="#ArialMT-48"/>
      </g>
     </g>
    </g>
    <g id="ytick_6">
     <g id="line2d_49">
      <defs>
       <path d="M 0 0 
L 2 0 
" id="m5d6ac4e2b0" style="stroke:#000000;stroke-width:0.5;"/>
      </defs>
      <g>
       <use style="stroke:#000000;stroke-width:0.5;" x="26.828125" xlink:href="#m5d6ac4e2b0" y="93.894545"/>
      </g>
     </g>
     <g id="line2d_50">
      <defs>
       <path d="M 0 0 
L -2 0 
" id="mfbea3c74fb" style="stroke:#000000;stroke-width:0.5;"/>
      </defs>
      <g>
       <use style="stroke:#000000;stroke-width:0.5;" x="132.848125" xlink:href="#mfbea3c74fb" y="93.894545"/>
      </g>
     </g>
    </g>
    <g id="ytick_7">
     <g id="line2d_51">
      <g>
       <use style="stroke:#000000;stroke-width:0.5;" x="26.828125" xlink:href="#m5d6ac4e2b0" y="89.199818"/>
      </g>
     </g>
     <g id="line2d_52">
      <g>
       <use style="stroke:#000000;stroke-width:0.5;" x="132.848125" xlink:href="#mfbea3c74fb" y="89.199818"/>
      </g>
     </g>
    </g>
    <g id="ytick_8">
     <g id="line2d_53">
      <g>
       <use style="stroke:#000000;stroke-width:0.5;" x="26.828125" xlink:href="#m5d6ac4e2b0" y="84.505091"/>
      </g>
     </g>
     <g id="line2d_54">
      <g>
       <use style="stroke:#000000;stroke-width:0.5;" x="132.848125" xlink:href="#mfbea3c74fb" y="84.505091"/>
      </g>
     </g>
    </g>
    <g id="ytick_9">
     <g id="line2d_55">
      <g>
       <use style="stroke:#000000;stroke-width:0.5;" x="26.828125" xlink:href="#m5d6ac4e2b0" y="79.810364"/>
      </g>
     </g>
     <g id="line2d_56">
      <g>
       <use style="stroke:#000000;stroke-width:0.5;" x="132.848125" xlink:href="#mfbea3c74fb" y="79.810364"/>
      </g>
     </g>
    </g>
    <g id="ytick_10">
     <g id="line2d_57">
      <g>
       <use style="stroke:#000000;stroke-width:0.5;" x="26.828125" xlink:href="#m5d6ac4e2b0" y="70.420909"/>
      </g>
     </g>
     <g id="line2d_58">
      <g>
       <use style="stroke:#000000;stroke-width:0.5;" x="132.848125" xlink:href="#mfbea3c74fb" y="70.420909"/>
      </g>
     </g>
    </g>
    <g id="ytick_11">
     <g id="line2d_59">
      <g>
       <use style="stroke:#000000;stroke-width:0.5;" x="26.828125" xlink:href="#m5d6ac4e2b0" y="65.726182"/>
      </g>
     </g>
     <g id="line2d_60">
      <g>
       <use style="stroke:#000000;stroke-width:0.5;" x="132.848125" xlink:href="#mfbea3c74fb" y="65.726182"/>
      </g>
     </g>
    </g>
    <g id="ytick_12">
     <g id="line2d_61">
      <g>
       <use style="stroke:#000000;stroke-width:0.5;" x="26.828125" xlink:href="#m5d6ac4e2b0" y="61.031455"/>
      </g>
     </g>
     <g id="line2d_62">
      <g>
       <use style="stroke:#000000;stroke-width:0.5;" x="132.848125" xlink:href="#mfbea3c74fb" y="61.031455"/>
      </g>
     </g>
    </g>
    <g id="ytick_13">
     <g id="line2d_63">
      <g>
       <use style="stroke:#000000;stroke-width:0.5;" x="26.828125" xlink:href="#m5d6ac4e2b0" y="56.336727"/>
      </g>
     </g>
     <g id="line2d_64">
      <g>
       <use style="stroke:#000000;stroke-width:0.5;" x="132.848125" xlink:href="#mfbea3c74fb" y="56.336727"/>
      </g>
     </g>
    </g>
    <g id="ytick_14">
     <g id="line2d_65">
      <g>
       <use style="stroke:#000000;stroke-width:0.5;" x="26.828125" xlink:href="#m5d6ac4e2b0" y="46.947273"/>
      </g>
     </g>
     <g id="line2d_66">
      <g>
       <use style="stroke:#000000;stroke-width:0.5;" x="132.848125" xlink:href="#mfbea3c74fb" y="46.947273"/>
      </g>
     </g>
    </g>
    <g id="ytick_15">
     <g id="line2d_67">
      <g>
       <use style="stroke:#000000;stroke-width:0.5;" x="26.828125" xlink:href="#m5d6ac4e2b0" y="42.252545"/>
      </g>
     </g>
     <g id="line2d_68">
      <g>
       <use style="stroke:#000000;stroke-width:0.5;" x="132.848125" xlink:href="#mfbea3c74fb" y="42.252545"/>
      </g>
     </g>
    </g>
    <g id="ytick_16">
     <g id="line2d_69">
      <g>
       <use style="stroke:#000000;stroke-width:0.5;" x="26.828125" xlink:href="#m5d6ac4e2b0" y="37.557818"/>
      </g>
     </g>
     <g id="line2d_70">
      <g>
       <use style="stroke:#000000;stroke-width:0.5;" x="132.848125" xlink:href="#mfbea3c74fb" y="37.557818"/>
      </g>
     </g>
    </g>
    <g id="ytick_17">
     <g id="line2d_71">
      <g>
       <use style="stroke:#000000;stroke-width:0.5;" x="26.828125" xlink:href="#m5d6ac4e2b0" y="32.863091"/>
      </g>
     </g>
     <g id="line2d_72">
      <g>
       <use style="stroke:#000000;stroke-width:0.5;" x="132.848125" xlink:href="#mfbea3c74fb" y="32.863091"/>
      </g>
     </g>
    </g>
    <g id="ytick_18">
     <g id="line2d_73">
      <g>
       <use style="stroke:#000000;stroke-width:0.5;" x="26.828125" xlink:href="#m5d6ac4e2b0" y="23.473636"/>
      </g>
     </g>
     <g id="line2d_74">
      <g>
       <use style="stroke:#000000;stroke-width:0.5;" x="132.848125" xlink:href="#mfbea3c74fb" y="23.473636"/>
      </g>
     </g>
    </g>
    <g id="ytick_19">
     <g id="line2d_75">
      <g>
       <use style="stroke:#000000;stroke-width:0.5;" x="26.828125" xlink:href="#m5d6ac4e2b0" y="18.778909"/>
      </g>
     </g>
     <g id="line2d_76">
      <g>
       <use style="stroke:#000000;stroke-width:0.5;" x="132.848125" xlink:href="#mfbea3c74fb" y="18.778909"/>
      </g>
     </g>
    </g>
    <g id="ytick_20">
     <g id="line2d_77">
      <g>
       <use style="stroke:#000000;stroke-width:0.5;" x="26.828125" xlink:href="#m5d6ac4e2b0" y="14.084182"/>
      </g>
     </g>
     <g id="line2d_78">
      <g>
       <use style="stroke:#000000;stroke-width:0.5;" x="132.848125" xlink:href="#mfbea3c74fb" y="14.084182"/>
      </g>
     </g>
    </g>
    <g id="ytick_21">
     <g id="line2d_79">
      <g>
       <use style="stroke:#000000;stroke-width:0.5;" x="26.828125" xlink:href="#m5d6ac4e2b0" y="9.389455"/>
      </g>
     </g>
     <g id="line2d_80">
      <g>
       <use style="stroke:#000000;stroke-width:0.5;" x="132.848125" xlink:href="#mfbea3c74fb" y="9.389455"/>
      </g>
     </g>
    </g>
    <g id="ytick_22">
     <g id="line2d_81">
      <g>
       <use style="stroke:#000000;stroke-width:0.5;" x="26.828125" xlink:href="#m5d6ac4e2b0" y="0"/>
      </g>
     </g>
     <g id="line2d_82">
      <g>
       <use style="stroke:#000000;stroke-width:0.5;" x="132.848125" xlink:href="#mfbea3c74fb" y="0"/>
      </g>
     </g>
    </g>
    <g id="text_12">
     <!-- $\it{Δσ}\,  (nS)}$ -->
     <g transform="translate(7.157813 69.292)rotate(-90)scale(0.1 -0.1)">
      <defs>
       <path d="M 34.1875 63.1875 
L 14.15625 8.203125 
L 54.25 8.203125 
z
M 0.78125 0 
L 28.609375 72.90625 
L 39.796875 72.90625 
L 67.578125 0 
z
" id="DejaVuSans-916"/>
       <path d="M 34.671875 47.5625 
Q 27.25 47.5625 22.21875 42.1875 
Q 16.890625 36.578125 15.140625 27.296875 
Q 13.1875 17.484375 16.3125 11.8125 
Q 19.390625 6.203125 26.65625 6.203125 
Q 33.84375 6.203125 39.109375 11.859375 
Q 44.4375 17.53125 46.34375 27.296875 
Q 48.046875 36.234375 45.015625 42.1875 
Q 42.1875 47.5625 34.671875 47.5625 
z
M 36.078125 54.734375 
L 65.921875 54.6875 
L 64.15625 45.703125 
L 54.109375 45.703125 
Q 57.90625 38.09375 55.859375 27.296875 
Q 53.21875 13.875 45.0625 6.25 
Q 36.859375 -1.421875 25.140625 -1.421875 
Q 13.375 -1.421875 8.203125 6.25 
Q 3.03125 13.875 5.671875 27.296875 
Q 8.25 40.765625 16.40625 48.390625 
Q 23.1875 54.734375 36.078125 54.734375 
z
" id="DejaVuSans-Oblique-963"/>
       <path d="M 31 75.875 
Q 24.46875 64.65625 21.28125 53.65625 
Q 18.109375 42.671875 18.109375 31.390625 
Q 18.109375 20.125 21.3125 9.0625 
Q 24.515625 -2 31 -13.1875 
L 23.1875 -13.1875 
Q 15.875 -1.703125 12.234375 9.375 
Q 8.59375 20.453125 8.59375 31.390625 
Q 8.59375 42.28125 12.203125 53.3125 
Q 15.828125 64.359375 23.1875 75.875 
z
" id="DejaVuSans-40"/>
       <path d="M 55.71875 33.015625 
L 49.3125 0 
L 40.28125 0 
L 46.6875 32.671875 
Q 47.125 34.96875 47.359375 36.71875 
Q 47.609375 38.484375 47.609375 39.5 
Q 47.609375 43.609375 45.015625 45.890625 
Q 42.4375 48.1875 37.796875 48.1875 
Q 30.5625 48.1875 25.34375 43.375 
Q 20.125 38.578125 18.5 30.328125 
L 12.5 0 
L 3.515625 0 
L 14.109375 54.6875 
L 23.09375 54.6875 
L 21.296875 46.09375 
Q 25.046875 50.828125 30.3125 53.40625 
Q 35.59375 56 41.40625 56 
Q 48.640625 56 52.609375 52.09375 
Q 56.59375 48.1875 56.59375 41.109375 
Q 56.59375 39.359375 56.375 37.359375 
Q 56.15625 35.359375 55.71875 33.015625 
z
" id="DejaVuSans-Oblique-110"/>
       <path d="M 60.296875 70.515625 
L 58.40625 60.890625 
Q 53.46875 63.53125 48.609375 64.875 
Q 43.75 66.21875 39.203125 66.21875 
Q 30.375 66.21875 25.140625 62.359375 
Q 19.921875 58.5 19.921875 52.09375 
Q 19.921875 48.578125 21.84375 46.703125 
Q 23.78125 44.828125 31.78125 42.671875 
L 37.703125 41.21875 
Q 47.703125 38.625 51.609375 34.640625 
Q 55.515625 30.671875 55.515625 23.484375 
Q 55.515625 12.453125 46.84375 5.515625 
Q 38.1875 -1.421875 24.03125 -1.421875 
Q 18.21875 -1.421875 12.359375 -0.265625 
Q 6.5 0.875 0.59375 3.21875 
L 2.59375 13.375 
Q 8.015625 10.015625 13.453125 8.296875 
Q 18.890625 6.59375 24.3125 6.59375 
Q 33.546875 6.59375 39.109375 10.6875 
Q 44.671875 14.796875 44.671875 21.390625 
Q 44.671875 25.78125 42.453125 28.046875 
Q 40.234375 30.328125 32.90625 32.171875 
L 27 33.6875 
Q 16.890625 36.328125 13.203125 39.765625 
Q 9.515625 43.21875 9.515625 49.421875 
Q 9.515625 60.296875 17.890625 67.25 
Q 26.265625 74.21875 39.703125 74.21875 
Q 44.921875 74.21875 50.046875 73.28125 
Q 55.171875 72.359375 60.296875 70.515625 
z
" id="DejaVuSans-Oblique-83"/>
       <path d="M 8.015625 75.875 
L 15.828125 75.875 
Q 23.140625 64.359375 26.78125 53.3125 
Q 30.421875 42.28125 30.421875 31.390625 
Q 30.421875 20.453125 26.78125 9.375 
Q 23.140625 -1.703125 15.828125 -13.1875 
L 8.015625 -13.1875 
Q 14.5 -2 17.703125 9.0625 
Q 20.90625 20.125 20.90625 31.390625 
Q 20.90625 42.671875 17.703125 53.65625 
Q 14.5 64.65625 8.015625 75.875 
z
" id="DejaVuSans-41"/>
      </defs>
      <use transform="translate(0 0.125)" xlink:href="#DejaVuSans-916"/>
      <use transform="translate(68.408203 0.125)" xlink:href="#DejaVuSans-Oblique-963"/>
      <use transform="translate(148.022786 0.125)" xlink:href="#DejaVuSans-40"/>
      <use transform="translate(187.036458 0.125)" xlink:href="#DejaVuSans-Oblique-110"/>
      <use transform="translate(250.415364 0.125)" xlink:href="#DejaVuSans-Oblique-83"/>
      <use transform="translate(313.891926 0.125)" xlink:href="#DejaVuSans-41"/>
     </g>
    </g>
   </g>
   <g id="line2d_83">
    <path clip-path="url(#p452c2c863c)" d="M 31.647216 75.123959 
L 32.45722 75.709922 
L 33.267111 83.816506 
L 34.077012 83.754832 
L 34.887019 85.011335 
L 35.696942 84.231205 
L 36.506851 84.623424 
L 37.316785 84.861144 
L 38.126751 80.705383 
L 38.936554 88.789797 
L 39.746487 87.332861 
L 40.556428 88.255476 
L 41.366393 88.760328 
L 42.176331 85.058733 
L 42.9862 86.017501 
L 43.796123 81.816587 
L 44.606067 79.306829 
L 45.416031 81.722974 
L 46.225953 81.240079 
L 47.035845 82.480354 
L 47.845784 81.774519 
L 48.655736 81.958606 
L 49.465645 84.526032 
L 50.275576 80.563201 
L 51.085517 81.309745 
L 51.895457 80.565066 
L 52.705398 78.165108 
L 53.515323 73.475033 
L 55.945094 85.651988 
L 56.754939 86.036003 
L 57.564844 83.728473 
L 58.374818 87.968196 
L 59.18466 86.011054 
L 59.994685 87.271798 
L 60.804628 91.230003 
L 61.6146 89.882868 
L 62.424547 87.418524 
L 63.2345 90.677087 
L 64.044392 88.352123 
L 64.854302 90.737155 
L 65.664271 89.834993 
L 66.474209 86.173698 
L 67.284126 88.884448 
L 68.09409 88.349362 
L 68.904012 89.609542 
L 69.713967 90.32293 
L 70.523851 91.16638 
L 71.333804 95.726662 
L 72.143675 93.861887 
L 72.953649 95.163409 
L 73.763477 95.961589 
L 74.573385 94.54909 
L 75.383402 99.794147 
L 76.193236 100.431283 
L 77.003134 97.482613 
L 77.813073 96.055311 
L 78.62301 99.856409 
L 79.432938 98.589273 
L 80.242828 98.589273 
L 81.052761 99.856409 
L 81.862744 96.055311 
L 82.672638 97.482613 
L 83.482632 100.431283 
L 84.292473 99.794147 
L 85.102432 94.54909 
L 85.912391 95.961589 
L 86.722391 95.163409 
L 87.532256 93.861887 
L 88.342177 95.726662 
L 89.152126 91.16638 
L 89.961987 90.32293 
L 90.771969 89.609542 
L 91.581867 88.349362 
L 92.391851 88.884448 
L 93.201736 86.173698 
L 94.011697 89.834993 
L 94.821609 90.737155 
L 95.631551 88.352123 
L 96.441593 90.677087 
L 97.251595 87.418524 
L 98.061488 89.882868 
L 98.871476 91.230003 
L 99.681375 87.271798 
L 100.491307 86.011054 
L 101.301236 87.968196 
L 102.111204 83.728473 
L 102.921167 86.036003 
L 103.73107 85.651988 
L 106.160883 73.475033 
L 106.97082 78.165108 
L 107.78079 80.565066 
L 108.590716 81.309745 
L 109.400663 80.563201 
L 110.210622 84.526032 
L 111.020544 81.958606 
L 111.830473 81.774519 
L 112.640444 82.480354 
L 113.450334 81.240079 
L 114.260289 81.722974 
L 115.070165 79.306829 
L 115.880086 81.816587 
L 116.690043 86.017501 
L 117.499959 85.058733 
L 118.309862 88.760328 
L 119.119804 88.255476 
L 119.929742 87.332861 
L 120.739666 88.789797 
L 121.549644 80.705383 
L 122.359545 84.861144 
L 123.169456 84.623424 
L 123.979342 84.231205 
L 124.789309 85.011335 
L 125.599266 83.754832 
L 126.409156 83.816506 
L 127.219086 75.709922 
L 128.029034 75.123959 
" style="fill:none;stroke:#e41a1c;stroke-linecap:square;"/>
   </g>
   <g id="line2d_84">
    <path clip-path="url(#p452c2c863c)" d="M 31.647216 81.761256 
L 32.45722 81.824716 
L 33.267111 81.890107 
L 34.077012 81.957529 
L 34.887019 82.027085 
L 35.696942 82.098861 
L 36.506851 82.172971 
L 37.316785 82.249535 
L 38.126751 82.328674 
L 38.936554 82.410502 
L 39.746487 82.495188 
L 40.556428 82.582869 
L 41.366393 82.673709 
L 42.176331 82.767873 
L 42.9862 82.865542 
L 43.796123 82.966928 
L 44.606067 83.072242 
L 45.416031 83.181715 
L 46.225953 83.295586 
L 47.035845 83.414126 
L 47.845784 83.537635 
L 48.655736 83.666426 
L 49.465645 83.80083 
L 50.275576 83.941229 
L 51.085517 84.088027 
L 51.895457 84.241662 
L 52.705398 84.402616 
L 53.515323 84.571414 
L 55.945094 85.130956 
L 56.754939 85.337502 
L 57.564844 85.555441 
L 58.374818 85.785721 
L 59.18466 86.029325 
L 59.994685 86.287513 
L 60.804628 86.561495 
L 61.6146 86.852748 
L 62.424547 87.162865 
L 63.2345 87.49366 
L 64.044392 87.847124 
L 64.854302 88.225554 
L 65.664271 88.631511 
L 66.474209 89.067793 
L 67.284126 89.537577 
L 68.09409 90.044426 
L 68.904012 90.59216 
L 69.713967 91.185022 
L 70.523851 91.82734 
L 71.333804 92.523623 
L 72.143675 93.277673 
L 72.953649 94.092252 
L 73.763477 94.966685 
L 74.573385 95.894662 
L 75.383402 96.857679 
L 76.193236 97.813845 
L 77.003134 98.679016 
L 77.813073 99.294236 
L 78.62301 99.40668 
L 79.432938 98.873883 
L 80.242828 98.672593 
L 81.052761 99.290247 
L 81.862744 99.401861 
L 82.672638 98.922718 
L 83.482632 98.118439 
L 84.292473 97.180322 
L 85.102432 96.213371 
L 85.912391 95.270788 
L 86.722391 94.377182 
L 87.532256 93.542446 
L 88.342177 92.768389 
L 89.152126 92.053222 
L 89.961987 91.393432 
L 90.771969 90.784541 
L 91.581867 90.222268 
L 92.391851 89.702216 
L 93.201736 89.220514 
L 94.011697 88.773417 
L 94.821609 88.357706 
L 95.631551 87.97039 
L 96.441593 87.608806 
L 97.251595 87.270666 
L 98.061488 86.953892 
L 98.871476 86.656533 
L 99.681375 86.376983 
L 100.491307 86.113704 
L 101.301236 85.865367 
L 102.111204 85.630757 
L 102.921167 85.408806 
L 103.73107 85.198553 
L 106.160883 84.629471 
L 106.97082 84.457932 
L 107.78079 84.29442 
L 108.590716 84.138406 
L 109.400663 83.989381 
L 110.210622 83.846894 
L 111.020544 83.710535 
L 111.830473 83.579917 
L 112.640444 83.45468 
L 113.450334 83.334522 
L 114.260289 83.219121 
L 115.070165 83.108223 
L 115.880086 83.001554 
L 116.690043 82.898881 
L 117.499959 82.799994 
L 118.309862 82.704685 
L 119.119804 82.61276 
L 119.929742 82.524046 
L 120.739666 82.438381 
L 121.549644 82.355605 
L 122.359545 82.275586 
L 123.169456 82.198183 
L 123.979342 82.123272 
L 124.789309 82.050726 
L 125.599266 81.980445 
L 126.409156 81.912327 
L 127.219086 81.846267 
L 128.029034 81.782176 
" style="fill:none;stroke:#000000;stroke-linecap:square;"/>
   </g>
   <g id="line2d_85">
    <path clip-path="url(#p452c2c863c)" d="M 31.647226 21.464112 
L 32.457186 12.762122 
L 33.267049 20.406784 
L 34.077015 12.479556 
L 34.88704 15.318953 
L 35.69692 11.116621 
L 36.506825 7.861111 
L 37.316771 8.361485 
L 38.126641 16.150138 
L 38.936575 22.021649 
L 39.74647 18.443313 
L 40.556411 18.875697 
L 41.366381 18.569118 
L 42.1763 26.023781 
L 42.986166 16.287558 
L 43.79614 14.444857 
L 44.60607 18.382589 
L 45.416042 28.249819 
L 46.225935 26.849052 
L 47.03591 17.397693 
L 47.845791 16.807583 
L 48.655706 24.084954 
L 49.465662 20.561856 
L 50.275586 22.867897 
L 51.085549 22.14108 
L 51.895465 26.869227 
L 52.70539 24.252068 
L 53.51529 27.065199 
L 54.325248 23.7364 
L 55.135163 27.617061 
L 55.945054 26.02368 
L 56.754891 24.146966 
L 57.564851 26.84316 
L 58.374842 28.15104 
L 59.184724 26.806036 
L 59.994682 26.549594 
L 60.804633 26.412415 
L 61.614637 33.339667 
L 62.424539 41.165443 
L 63.234497 41.182731 
L 64.0444 48.336426 
L 64.854309 38.81288 
L 65.664295 40.167579 
L 66.474161 41.884662 
L 67.28413 44.170412 
L 68.094082 41.782655 
L 68.904008 47.700875 
L 69.713972 45.668235 
L 70.523843 44.464319 
L 71.333757 43.863105 
L 72.143661 44.917902 
L 72.953681 53.119363 
L 73.763514 54.840344 
L 74.573467 57.487663 
L 75.383426 58.257574 
L 76.193251 66.156204 
L 77.003142 73.950044 
L 77.813067 80.313347 
L 78.623026 89.570875 
L 79.432957 98.589273 
L 80.242869 98.589273 
L 81.052799 89.570875 
L 81.862695 80.313347 
L 82.672671 73.950044 
L 83.482618 66.156204 
L 84.292481 58.257574 
L 85.102459 57.487663 
L 85.912355 54.840344 
L 86.722293 53.119363 
L 87.532256 44.917902 
L 88.342159 43.863105 
L 89.152087 44.464319 
L 89.962028 45.668235 
L 90.771963 47.700875 
L 91.581877 41.782655 
L 92.391834 44.170412 
L 93.201744 41.884662 
L 94.011686 40.167579 
L 94.82165 38.81288 
L 95.63153 48.336426 
L 96.441586 41.182731 
L 97.251591 41.165443 
L 98.061531 33.339667 
L 98.871505 26.412415 
L 99.681389 26.549594 
L 100.491365 26.806036 
L 101.301297 28.15104 
L 102.11121 26.84316 
L 102.921155 24.146966 
L 103.731087 26.02368 
L 104.541006 27.617061 
L 105.350964 23.7364 
L 106.160924 27.065199 
L 106.97082 24.252068 
L 107.780798 26.869227 
L 108.590679 22.14108 
L 109.400675 22.867897 
L 110.210594 20.561856 
L 111.020544 24.084954 
L 111.830464 16.807583 
L 112.640428 17.397693 
L 113.450349 26.849052 
L 114.260234 28.249819 
L 115.070247 18.382589 
L 115.880074 14.444857 
L 116.689961 16.287558 
L 117.499975 26.023781 
L 118.30989 18.569118 
L 119.119811 18.875697 
L 119.929735 18.443313 
L 120.739692 22.021649 
L 121.549607 16.150138 
L 122.359554 8.361485 
L 123.169425 7.861111 
L 123.979381 11.116621 
L 124.789284 15.318953 
L 125.599256 12.479556 
L 126.409168 20.406784 
L 127.219068 12.762122 
L 128.029 21.464112 
" style="fill:none;stroke:#377eb8;stroke-linecap:square;"/>
   </g>
   <g id="line2d_86">
    <path clip-path="url(#p452c2c863c)" d="M 31.647226 17.386559 
L 32.457186 17.535344 
L 33.267049 17.688873 
L 34.077015 17.847418 
L 34.88704 18.011219 
L 35.69692 18.180498 
L 36.506825 18.355571 
L 37.316771 18.536745 
L 38.126641 18.724315 
L 38.936575 18.918661 
L 39.74647 19.12013 
L 40.556411 19.329142 
L 41.366381 19.546124 
L 42.1763 19.771517 
L 42.986166 20.005818 
L 43.79614 20.249615 
L 44.60607 20.503446 
L 45.416042 20.767974 
L 46.225935 21.043843 
L 47.03591 21.331856 
L 47.845791 21.632765 
L 48.655706 21.947505 
L 49.465662 22.277051 
L 50.275586 22.622439 
L 51.085549 22.98487 
L 51.895465 23.365589 
L 52.70539 23.766043 
L 53.51529 24.187781 
L 54.325248 24.632589 
L 55.135163 25.102343 
L 55.945054 25.599208 
L 56.754891 26.125567 
L 57.564851 26.684241 
L 58.374842 27.278213 
L 59.184724 27.910806 
L 59.994682 28.586048 
L 60.804633 29.308296 
L 61.614637 30.082657 
L 62.424539 30.914768 
L 63.234497 31.811463 
L 64.0444 32.780344 
L 64.854309 33.830476 
L 65.664295 34.972496 
L 66.474161 36.218518 
L 67.28413 37.583571 
L 68.094082 39.084998 
L 68.904008 40.743805 
L 69.713972 42.585581 
L 70.523843 44.640997 
L 71.333757 46.94841 
L 72.143661 49.554645 
L 72.953681 52.518468 
L 73.763514 55.911177 
L 74.573467 59.823594 
L 75.383426 64.363682 
L 76.193251 69.653654 
L 77.003142 75.809258 
L 77.813067 82.850792 
L 78.623026 90.419217 
L 79.432957 96.897834 
L 80.242869 98.143114 
L 81.052799 92.848992 
L 81.862695 85.357159 
L 82.672671 78.064634 
L 83.482618 71.605862 
L 84.292481 66.037991 
L 85.102459 61.261533 
L 85.912355 57.153097 
L 86.722293 53.597721 
L 87.532256 50.49972 
L 88.342159 47.781529 
L 89.152087 45.38016 
L 89.962028 43.245218 
L 90.771963 41.335978 
L 91.581877 39.61931 
L 92.391834 38.067931 
L 93.201744 36.659613 
L 94.011686 35.375607 
L 94.82165 34.200371 
L 95.63153 33.120936 
L 96.441586 32.125858 
L 97.251591 31.205954 
L 98.061531 30.353099 
L 98.871505 29.56018 
L 99.681389 28.821243 
L 100.491365 28.130843 
L 101.301297 27.484478 
L 102.11121 26.878071 
L 102.921155 26.308009 
L 103.731087 25.771164 
L 104.541006 25.264725 
L 105.350964 24.786162 
L 106.160924 24.333262 
L 106.97082 23.904055 
L 107.780798 23.496665 
L 108.590679 23.109557 
L 109.400675 22.741163 
L 110.210594 22.390244 
L 111.020544 22.055543 
L 111.830464 21.735989 
L 112.640428 21.430551 
L 113.450349 21.138346 
L 114.260234 20.858532 
L 115.070247 20.590286 
L 115.880074 20.333003 
L 116.689961 20.085953 
L 117.499975 19.848518 
L 118.30989 19.620213 
L 119.119811 19.400492 
L 119.929735 19.188882 
L 120.739692 18.984936 
L 121.549607 18.788262 
L 122.359554 18.598462 
L 123.169425 18.415207 
L 123.979381 18.238129 
L 124.789284 18.06695 
L 125.599256 17.901357 
L 126.409168 17.741105 
L 127.219068 17.585931 
L 128.029 17.43559 
" style="fill:none;stroke:#000000;stroke-linecap:square;"/>
   </g>
   <g id="patch_3">
    <path d="M 26.828125 103.284 
L 26.828125 0 
" style="fill:none;stroke:#000000;stroke-linecap:square;stroke-linejoin:miter;stroke-width:0.5;"/>
   </g>
   <g id="patch_4">
    <path d="M 132.848125 103.284 
L 132.848125 0 
" style="fill:none;stroke:#000000;stroke-linecap:square;stroke-linejoin:miter;stroke-width:0.5;"/>
   </g>
   <g id="patch_5">
    <path d="M 26.828125 103.284 
L 132.848125 103.284 
" style="fill:none;stroke:#000000;stroke-linecap:square;stroke-linejoin:miter;stroke-width:0.5;"/>
   </g>
   <g id="patch_6">
    <path d="M 26.828125 -0 
L 132.848125 -0 
" style="fill:none;stroke:#000000;stroke-linecap:square;stroke-linejoin:miter;stroke-width:0.5;"/>
   </g>
  </g>
 </g>
 <defs>
  <clipPath id="p452c2c863c">
   <rect height="103.284" width="106.02" x="26.828125" y="-0"/>
  </clipPath>
 </defs>
</svg>
