<?xml version="1.0" encoding="utf-8" standalone="no"?>
<!DOCTYPE svg PUBLIC "-//W3C//DTD SVG 1.1//EN"
  "http://www.w3.org/Graphics/SVG/1.1/DTD/svg11.dtd">
<!-- Created with matplotlib (https://matplotlib.org/) -->
<svg height="128.365312pt" version="1.1" viewBox="0 0 138.428125 128.365312" width="138.428125pt" xmlns="http://www.w3.org/2000/svg" xmlns:xlink="http://www.w3.org/1999/xlink">
 <defs>
  <style type="text/css">
*{stroke-linecap:butt;stroke-linejoin:round;}
  </style>
 </defs>
 <g id="figure_1">
  <g id="patch_1">
   <path d="M 0 128.365312 
L 138.428125 128.365312 
L 138.428125 0 
L 0 0 
z
" style="fill:none;"/>
  </g>
  <g id="axes_1">
   <g id="patch_2">
    <path d="M 26.828125 108.72 
L 138.428125 108.72 
L 138.428125 0 
L 26.828125 0 
z
" style="fill:none;"/>
   </g>
   <g id="matplotlib.axis_1">
    <g id="xtick_1">
     <g id="line2d_1">
      <defs>
       <path d="M 0 0 
L 0 -3.5 
" id="me5dd28d424" style="stroke:#000000;stroke-width:0.5;"/>
      </defs>
      <g>
       <use style="stroke:#000000;stroke-width:0.5;" x="37.300243" xlink:href="#me5dd28d424" y="108.72"/>
      </g>
     </g>
     <g id="line2d_2">
      <defs>
       <path d="M 0 0 
L 0 3.5 
" id="mb0e9ee7d5e" style="stroke:#000000;stroke-width:0.5;"/>
      </defs>
      <g>
       <use style="stroke:#000000;stroke-width:0.5;" x="37.300243" xlink:href="#mb0e9ee7d5e" y="0"/>
      </g>
     </g>
     <g id="text_1">
      <text style="font-family:Arial;font-size:10px;font-style:normal;font-weight:normal;text-anchor:middle;" transform="rotate(-0, 37.300243, 116.877812)" x="37.300243" y="116.877812">−8</text>
     </g>
    </g>
    <g id="xtick_2">
     <g id="line2d_3">
      <g>
       <use style="stroke:#000000;stroke-width:0.5;" x="60.035163" xlink:href="#me5dd28d424" y="108.72"/>
      </g>
     </g>
     <g id="line2d_4">
      <g>
       <use style="stroke:#000000;stroke-width:0.5;" x="60.035163" xlink:href="#mb0e9ee7d5e" y="0"/>
      </g>
     </g>
     <g id="text_2">
      <text style="font-family:Arial;font-size:10px;font-style:normal;font-weight:normal;text-anchor:middle;" transform="rotate(-0, 60.035163, 116.877812)" x="60.035163" y="116.877812">−4</text>
     </g>
    </g>
    <g id="xtick_3">
     <g id="line2d_5">
      <g>
       <use style="stroke:#000000;stroke-width:0.5;" x="82.770084" xlink:href="#me5dd28d424" y="108.72"/>
      </g>
     </g>
     <g id="line2d_6">
      <g>
       <use style="stroke:#000000;stroke-width:0.5;" x="82.770084" xlink:href="#mb0e9ee7d5e" y="0"/>
      </g>
     </g>
     <g id="text_3">
      <text style="font-family:Arial;font-size:10px;font-style:normal;font-weight:normal;text-anchor:middle;" transform="rotate(-0, 82.770084, 116.877812)" x="82.770084" y="116.877812">0</text>
     </g>
    </g>
    <g id="xtick_4">
     <g id="line2d_7">
      <g>
       <use style="stroke:#000000;stroke-width:0.5;" x="105.505004" xlink:href="#me5dd28d424" y="108.72"/>
      </g>
     </g>
     <g id="line2d_8">
      <g>
       <use style="stroke:#000000;stroke-width:0.5;" x="105.505004" xlink:href="#mb0e9ee7d5e" y="0"/>
      </g>
     </g>
     <g id="text_4">
      <text style="font-family:Arial;font-size:10px;font-style:normal;font-weight:normal;text-anchor:middle;" transform="rotate(-0, 105.505004, 116.877812)" x="105.505004" y="116.877812">4</text>
     </g>
    </g>
    <g id="xtick_5">
     <g id="line2d_9">
      <g>
       <use style="stroke:#000000;stroke-width:0.5;" x="128.239924" xlink:href="#me5dd28d424" y="108.72"/>
      </g>
     </g>
     <g id="line2d_10">
      <g>
       <use style="stroke:#000000;stroke-width:0.5;" x="128.239924" xlink:href="#mb0e9ee7d5e" y="0"/>
      </g>
     </g>
     <g id="text_5">
      <text style="font-family:Arial;font-size:10px;font-style:normal;font-weight:normal;text-anchor:middle;" transform="rotate(-0, 128.239924, 116.877812)" x="128.239924" y="116.877812">8</text>
     </g>
    </g>
    <g id="xtick_6">
     <g id="line2d_11">
      <defs>
       <path d="M 0 0 
L 0 -2 
" id="m168f833aa8" style="stroke:#000000;stroke-width:0.5;"/>
      </defs>
      <g>
       <use style="stroke:#000000;stroke-width:0.5;" x="31.616513" xlink:href="#m168f833aa8" y="108.72"/>
      </g>
     </g>
     <g id="line2d_12">
      <defs>
       <path d="M 0 0 
L 0 2 
" id="mcd8e98e992" style="stroke:#000000;stroke-width:0.5;"/>
      </defs>
      <g>
       <use style="stroke:#000000;stroke-width:0.5;" x="31.616513" xlink:href="#mcd8e98e992" y="0"/>
      </g>
     </g>
    </g>
    <g id="xtick_7">
     <g id="line2d_13">
      <g>
       <use style="stroke:#000000;stroke-width:0.5;" x="42.983973" xlink:href="#m168f833aa8" y="108.72"/>
      </g>
     </g>
     <g id="line2d_14">
      <g>
       <use style="stroke:#000000;stroke-width:0.5;" x="42.983973" xlink:href="#mcd8e98e992" y="0"/>
      </g>
     </g>
    </g>
    <g id="xtick_8">
     <g id="line2d_15">
      <g>
       <use style="stroke:#000000;stroke-width:0.5;" x="48.667703" xlink:href="#m168f833aa8" y="108.72"/>
      </g>
     </g>
     <g id="line2d_16">
      <g>
       <use style="stroke:#000000;stroke-width:0.5;" x="48.667703" xlink:href="#mcd8e98e992" y="0"/>
      </g>
     </g>
    </g>
    <g id="xtick_9">
     <g id="line2d_17">
      <g>
       <use style="stroke:#000000;stroke-width:0.5;" x="54.351433" xlink:href="#m168f833aa8" y="108.72"/>
      </g>
     </g>
     <g id="line2d_18">
      <g>
       <use style="stroke:#000000;stroke-width:0.5;" x="54.351433" xlink:href="#mcd8e98e992" y="0"/>
      </g>
     </g>
    </g>
    <g id="xtick_10">
     <g id="line2d_19">
      <g>
       <use style="stroke:#000000;stroke-width:0.5;" x="65.718893" xlink:href="#m168f833aa8" y="108.72"/>
      </g>
     </g>
     <g id="line2d_20">
      <g>
       <use style="stroke:#000000;stroke-width:0.5;" x="65.718893" xlink:href="#mcd8e98e992" y="0"/>
      </g>
     </g>
    </g>
    <g id="xtick_11">
     <g id="line2d_21">
      <g>
       <use style="stroke:#000000;stroke-width:0.5;" x="71.402624" xlink:href="#m168f833aa8" y="108.72"/>
      </g>
     </g>
     <g id="line2d_22">
      <g>
       <use style="stroke:#000000;stroke-width:0.5;" x="71.402624" xlink:href="#mcd8e98e992" y="0"/>
      </g>
     </g>
    </g>
    <g id="xtick_12">
     <g id="line2d_23">
      <g>
       <use style="stroke:#000000;stroke-width:0.5;" x="77.086354" xlink:href="#m168f833aa8" y="108.72"/>
      </g>
     </g>
     <g id="line2d_24">
      <g>
       <use style="stroke:#000000;stroke-width:0.5;" x="77.086354" xlink:href="#mcd8e98e992" y="0"/>
      </g>
     </g>
    </g>
    <g id="xtick_13">
     <g id="line2d_25">
      <g>
       <use style="stroke:#000000;stroke-width:0.5;" x="88.453814" xlink:href="#m168f833aa8" y="108.72"/>
      </g>
     </g>
     <g id="line2d_26">
      <g>
       <use style="stroke:#000000;stroke-width:0.5;" x="88.453814" xlink:href="#mcd8e98e992" y="0"/>
      </g>
     </g>
    </g>
    <g id="xtick_14">
     <g id="line2d_27">
      <g>
       <use style="stroke:#000000;stroke-width:0.5;" x="94.137544" xlink:href="#m168f833aa8" y="108.72"/>
      </g>
     </g>
     <g id="line2d_28">
      <g>
       <use style="stroke:#000000;stroke-width:0.5;" x="94.137544" xlink:href="#mcd8e98e992" y="0"/>
      </g>
     </g>
    </g>
    <g id="xtick_15">
     <g id="line2d_29">
      <g>
       <use style="stroke:#000000;stroke-width:0.5;" x="99.821274" xlink:href="#m168f833aa8" y="108.72"/>
      </g>
     </g>
     <g id="line2d_30">
      <g>
       <use style="stroke:#000000;stroke-width:0.5;" x="99.821274" xlink:href="#mcd8e98e992" y="0"/>
      </g>
     </g>
    </g>
    <g id="xtick_16">
     <g id="line2d_31">
      <g>
       <use style="stroke:#000000;stroke-width:0.5;" x="111.188734" xlink:href="#m168f833aa8" y="108.72"/>
      </g>
     </g>
     <g id="line2d_32">
      <g>
       <use style="stroke:#000000;stroke-width:0.5;" x="111.188734" xlink:href="#mcd8e98e992" y="0"/>
      </g>
     </g>
    </g>
    <g id="xtick_17">
     <g id="line2d_33">
      <g>
       <use style="stroke:#000000;stroke-width:0.5;" x="116.872464" xlink:href="#m168f833aa8" y="108.72"/>
      </g>
     </g>
     <g id="line2d_34">
      <g>
       <use style="stroke:#000000;stroke-width:0.5;" x="116.872464" xlink:href="#mcd8e98e992" y="0"/>
      </g>
     </g>
    </g>
    <g id="xtick_18">
     <g id="line2d_35">
      <g>
       <use style="stroke:#000000;stroke-width:0.5;" x="122.556194" xlink:href="#m168f833aa8" y="108.72"/>
      </g>
     </g>
     <g id="line2d_36">
      <g>
       <use style="stroke:#000000;stroke-width:0.5;" x="122.556194" xlink:href="#mcd8e98e992" y="0"/>
      </g>
     </g>
    </g>
    <g id="xtick_19">
     <g id="line2d_37">
      <g>
       <use style="stroke:#000000;stroke-width:0.5;" x="133.923654" xlink:href="#m168f833aa8" y="108.72"/>
      </g>
     </g>
     <g id="line2d_38">
      <g>
       <use style="stroke:#000000;stroke-width:0.5;" x="133.923654" xlink:href="#mcd8e98e992" y="0"/>
      </g>
     </g>
    </g>
    <g id="text_6">
     <!-- $\it{B}$ (T) -->
     <g transform="translate(71.378125 126.165312)">
      <text>
       <tspan style="font-family:DejaVu Sans;font-size:10px;font-style:oblique;font-weight:oblique;" x="0" y="-0.703125">B</tspan>
       <tspan style="font-family:Arial;font-size:10px;font-style:regular;font-weight:regular;" x="6.860352 9.638672 12.96875 19.077148" y="-0.703125"> (T)</tspan>
      </text>
     </g>
    </g>
   </g>
   <g id="matplotlib.axis_2">
    <g id="ytick_1">
     <g id="line2d_39">
      <defs>
       <path d="M 0 0 
L 3.5 0 
" id="m49d20ceafe" style="stroke:#000000;stroke-width:0.5;"/>
      </defs>
      <g>
       <use style="stroke:#000000;stroke-width:0.5;" x="26.828125" xlink:href="#m49d20ceafe" y="103.778182"/>
      </g>
     </g>
     <g id="line2d_40">
      <defs>
       <path d="M 0 0 
L -3.5 0 
" id="m4025177620" style="stroke:#000000;stroke-width:0.5;"/>
      </defs>
      <g>
       <use style="stroke:#000000;stroke-width:0.5;" x="138.428125" xlink:href="#m4025177620" y="103.778182"/>
      </g>
     </g>
     <g id="text_7">
      <text style="font-family:Arial;font-size:10px;font-style:normal;font-weight:normal;text-anchor:end;" transform="rotate(-0, 25.828125, 107.357088)" x="25.828125" y="107.357088">0</text>
     </g>
    </g>
    <g id="ytick_2">
     <g id="line2d_41">
      <g>
       <use style="stroke:#000000;stroke-width:0.5;" x="26.828125" xlink:href="#m49d20ceafe" y="79.069091"/>
      </g>
     </g>
     <g id="line2d_42">
      <g>
       <use style="stroke:#000000;stroke-width:0.5;" x="138.428125" xlink:href="#m4025177620" y="79.069091"/>
      </g>
     </g>
     <g id="text_8">
      <text style="font-family:Arial;font-size:10px;font-style:normal;font-weight:normal;text-anchor:end;" transform="rotate(-0, 25.828125, 82.647997)" x="25.828125" y="82.647997">25</text>
     </g>
    </g>
    <g id="ytick_3">
     <g id="line2d_43">
      <g>
       <use style="stroke:#000000;stroke-width:0.5;" x="26.828125" xlink:href="#m49d20ceafe" y="54.36"/>
      </g>
     </g>
     <g id="line2d_44">
      <g>
       <use style="stroke:#000000;stroke-width:0.5;" x="138.428125" xlink:href="#m4025177620" y="54.36"/>
      </g>
     </g>
     <g id="text_9">
      <text style="font-family:Arial;font-size:10px;font-style:normal;font-weight:normal;text-anchor:end;" transform="rotate(-0, 25.828125, 57.938906)" x="25.828125" y="57.938906">50</text>
     </g>
    </g>
    <g id="ytick_4">
     <g id="line2d_45">
      <g>
       <use style="stroke:#000000;stroke-width:0.5;" x="26.828125" xlink:href="#m49d20ceafe" y="29.650909"/>
      </g>
     </g>
     <g id="line2d_46">
      <g>
       <use style="stroke:#000000;stroke-width:0.5;" x="138.428125" xlink:href="#m4025177620" y="29.650909"/>
      </g>
     </g>
     <g id="text_10">
      <text style="font-family:Arial;font-size:10px;font-style:normal;font-weight:normal;text-anchor:end;" transform="rotate(-0, 25.828125, 33.229815)" x="25.828125" y="33.229815">75</text>
     </g>
    </g>
    <g id="ytick_5">
     <g id="line2d_47">
      <g>
       <use style="stroke:#000000;stroke-width:0.5;" x="26.828125" xlink:href="#m49d20ceafe" y="4.941818"/>
      </g>
     </g>
     <g id="line2d_48">
      <g>
       <use style="stroke:#000000;stroke-width:0.5;" x="138.428125" xlink:href="#m4025177620" y="4.941818"/>
      </g>
     </g>
     <g id="text_11">
      <text style="font-family:Arial;font-size:10px;font-style:normal;font-weight:normal;text-anchor:end;" transform="rotate(-0, 25.828125, 8.520724)" x="25.828125" y="8.520724">100</text>
     </g>
    </g>
    <g id="ytick_6">
     <g id="line2d_49">
      <defs>
       <path d="M 0 0 
L 2 0 
" id="mfd0e3b2689" style="stroke:#000000;stroke-width:0.5;"/>
      </defs>
      <g>
       <use style="stroke:#000000;stroke-width:0.5;" x="26.828125" xlink:href="#mfd0e3b2689" y="98.836364"/>
      </g>
     </g>
     <g id="line2d_50">
      <defs>
       <path d="M 0 0 
L -2 0 
" id="m4f313c8e06" style="stroke:#000000;stroke-width:0.5;"/>
      </defs>
      <g>
       <use style="stroke:#000000;stroke-width:0.5;" x="138.428125" xlink:href="#m4f313c8e06" y="98.836364"/>
      </g>
     </g>
    </g>
    <g id="ytick_7">
     <g id="line2d_51">
      <g>
       <use style="stroke:#000000;stroke-width:0.5;" x="26.828125" xlink:href="#mfd0e3b2689" y="93.894545"/>
      </g>
     </g>
     <g id="line2d_52">
      <g>
       <use style="stroke:#000000;stroke-width:0.5;" x="138.428125" xlink:href="#m4f313c8e06" y="93.894545"/>
      </g>
     </g>
    </g>
    <g id="ytick_8">
     <g id="line2d_53">
      <g>
       <use style="stroke:#000000;stroke-width:0.5;" x="26.828125" xlink:href="#mfd0e3b2689" y="88.952727"/>
      </g>
     </g>
     <g id="line2d_54">
      <g>
       <use style="stroke:#000000;stroke-width:0.5;" x="138.428125" xlink:href="#m4f313c8e06" y="88.952727"/>
      </g>
     </g>
    </g>
    <g id="ytick_9">
     <g id="line2d_55">
      <g>
       <use style="stroke:#000000;stroke-width:0.5;" x="26.828125" xlink:href="#mfd0e3b2689" y="84.010909"/>
      </g>
     </g>
     <g id="line2d_56">
      <g>
       <use style="stroke:#000000;stroke-width:0.5;" x="138.428125" xlink:href="#m4f313c8e06" y="84.010909"/>
      </g>
     </g>
    </g>
    <g id="ytick_10">
     <g id="line2d_57">
      <g>
       <use style="stroke:#000000;stroke-width:0.5;" x="26.828125" xlink:href="#mfd0e3b2689" y="74.127273"/>
      </g>
     </g>
     <g id="line2d_58">
      <g>
       <use style="stroke:#000000;stroke-width:0.5;" x="138.428125" xlink:href="#m4f313c8e06" y="74.127273"/>
      </g>
     </g>
    </g>
    <g id="ytick_11">
     <g id="line2d_59">
      <g>
       <use style="stroke:#000000;stroke-width:0.5;" x="26.828125" xlink:href="#mfd0e3b2689" y="69.185455"/>
      </g>
     </g>
     <g id="line2d_60">
      <g>
       <use style="stroke:#000000;stroke-width:0.5;" x="138.428125" xlink:href="#m4f313c8e06" y="69.185455"/>
      </g>
     </g>
    </g>
    <g id="ytick_12">
     <g id="line2d_61">
      <g>
       <use style="stroke:#000000;stroke-width:0.5;" x="26.828125" xlink:href="#mfd0e3b2689" y="64.243636"/>
      </g>
     </g>
     <g id="line2d_62">
      <g>
       <use style="stroke:#000000;stroke-width:0.5;" x="138.428125" xlink:href="#m4f313c8e06" y="64.243636"/>
      </g>
     </g>
    </g>
    <g id="ytick_13">
     <g id="line2d_63">
      <g>
       <use style="stroke:#000000;stroke-width:0.5;" x="26.828125" xlink:href="#mfd0e3b2689" y="59.301818"/>
      </g>
     </g>
     <g id="line2d_64">
      <g>
       <use style="stroke:#000000;stroke-width:0.5;" x="138.428125" xlink:href="#m4f313c8e06" y="59.301818"/>
      </g>
     </g>
    </g>
    <g id="ytick_14">
     <g id="line2d_65">
      <g>
       <use style="stroke:#000000;stroke-width:0.5;" x="26.828125" xlink:href="#mfd0e3b2689" y="49.418182"/>
      </g>
     </g>
     <g id="line2d_66">
      <g>
       <use style="stroke:#000000;stroke-width:0.5;" x="138.428125" xlink:href="#m4f313c8e06" y="49.418182"/>
      </g>
     </g>
    </g>
    <g id="ytick_15">
     <g id="line2d_67">
      <g>
       <use style="stroke:#000000;stroke-width:0.5;" x="26.828125" xlink:href="#mfd0e3b2689" y="44.476364"/>
      </g>
     </g>
     <g id="line2d_68">
      <g>
       <use style="stroke:#000000;stroke-width:0.5;" x="138.428125" xlink:href="#m4f313c8e06" y="44.476364"/>
      </g>
     </g>
    </g>
    <g id="ytick_16">
     <g id="line2d_69">
      <g>
       <use style="stroke:#000000;stroke-width:0.5;" x="26.828125" xlink:href="#mfd0e3b2689" y="39.534545"/>
      </g>
     </g>
     <g id="line2d_70">
      <g>
       <use style="stroke:#000000;stroke-width:0.5;" x="138.428125" xlink:href="#m4f313c8e06" y="39.534545"/>
      </g>
     </g>
    </g>
    <g id="ytick_17">
     <g id="line2d_71">
      <g>
       <use style="stroke:#000000;stroke-width:0.5;" x="26.828125" xlink:href="#mfd0e3b2689" y="34.592727"/>
      </g>
     </g>
     <g id="line2d_72">
      <g>
       <use style="stroke:#000000;stroke-width:0.5;" x="138.428125" xlink:href="#m4f313c8e06" y="34.592727"/>
      </g>
     </g>
    </g>
    <g id="ytick_18">
     <g id="line2d_73">
      <g>
       <use style="stroke:#000000;stroke-width:0.5;" x="26.828125" xlink:href="#mfd0e3b2689" y="24.709091"/>
      </g>
     </g>
     <g id="line2d_74">
      <g>
       <use style="stroke:#000000;stroke-width:0.5;" x="138.428125" xlink:href="#m4f313c8e06" y="24.709091"/>
      </g>
     </g>
    </g>
    <g id="ytick_19">
     <g id="line2d_75">
      <g>
       <use style="stroke:#000000;stroke-width:0.5;" x="26.828125" xlink:href="#mfd0e3b2689" y="19.767273"/>
      </g>
     </g>
     <g id="line2d_76">
      <g>
       <use style="stroke:#000000;stroke-width:0.5;" x="138.428125" xlink:href="#m4f313c8e06" y="19.767273"/>
      </g>
     </g>
    </g>
    <g id="ytick_20">
     <g id="line2d_77">
      <g>
       <use style="stroke:#000000;stroke-width:0.5;" x="26.828125" xlink:href="#mfd0e3b2689" y="14.825455"/>
      </g>
     </g>
     <g id="line2d_78">
      <g>
       <use style="stroke:#000000;stroke-width:0.5;" x="138.428125" xlink:href="#m4f313c8e06" y="14.825455"/>
      </g>
     </g>
    </g>
    <g id="ytick_21">
     <g id="line2d_79">
      <g>
       <use style="stroke:#000000;stroke-width:0.5;" x="26.828125" xlink:href="#mfd0e3b2689" y="9.883636"/>
      </g>
     </g>
     <g id="line2d_80">
      <g>
       <use style="stroke:#000000;stroke-width:0.5;" x="138.428125" xlink:href="#m4f313c8e06" y="9.883636"/>
      </g>
     </g>
    </g>
    <g id="ytick_22">
     <g id="line2d_81">
      <g>
       <use style="stroke:#000000;stroke-width:0.5;" x="26.828125" xlink:href="#mfd0e3b2689" y="0"/>
      </g>
     </g>
     <g id="line2d_82">
      <g>
       <use style="stroke:#000000;stroke-width:0.5;" x="138.428125" xlink:href="#m4f313c8e06" y="0"/>
      </g>
     </g>
    </g>
    <g id="text_12">
     <!-- $\it{Δσ}\,  (nS)}$ -->
     <g transform="translate(7.157813 72.01)rotate(-90)">
      <text>
       <tspan style="font-family:DejaVu Sans;font-size:10px;font-style:book;font-weight:book;" x="0 14.802279 31.389193" y="-0.40625">Δ()</tspan>
       <tspan style="font-family:DejaVu Sans;font-size:10px;font-style:oblique;font-weight:oblique;" x="6.84082 18.703646 25.041536" y="-0.40625">σnS</tspan>
      </text>
     </g>
    </g>
   </g>
   <g id="line2d_83">
    <path clip-path="url(#p981733ff28)" d="M 31.900852 22.593803 
L 32.753443 13.433812 
L 33.60593 21.480825 
L 34.458526 13.136375 
L 35.311185 16.125214 
L 36.16369 11.701707 
L 37.016223 8.274853 
L 37.868797 8.801563 
L 38.721293 17.000145 
L 39.573855 23.180683 
L 40.426376 19.414013 
L 41.278946 19.869155 
L 42.131547 19.54644 
L 42.984093 27.393454 
L 43.836585 17.144797 
L 44.689189 15.205113 
L 45.541747 19.350094 
L 46.39435 29.736651 
L 47.246869 28.26216 
L 48.099475 18.313361 
L 48.951981 17.692193 
L 49.804524 25.352583 
L 50.65711 21.644059 
L 51.509661 24.07147 
L 52.362254 23.3064 
L 53.214798 28.283397 
L 54.067351 25.528493 
L 54.919877 28.489683 
L 55.772466 24.985684 
L 56.625008 29.070591 
L 57.477525 27.393347 
L 58.329985 25.417859 
L 59.182576 28.255958 
L 60.035197 29.632674 
L 60.887706 28.21688 
L 61.740294 27.946941 
L 62.592874 27.802542 
L 63.44551 35.094387 
L 64.298039 43.332045 
L 65.150627 43.350243 
L 66.003156 50.880449 
L 66.855692 40.855663 
L 67.708309 42.281662 
L 68.560801 44.089118 
L 69.4134 46.495171 
L 70.265982 43.981742 
L 71.118535 50.211447 
L 71.97113 48.071827 
L 72.823626 46.804546 
L 73.676167 46.171689 
L 74.528698 47.282003 
L 75.381351 55.915119 
L 76.233807 57.726678 
L 77.08639 60.51333 
L 77.938978 61.323762 
L 78.791427 69.63811 
L 79.643943 77.842152 
L 80.496497 84.540366 
L 81.349085 94.285132 
L 82.201645 103.778182 
L 83.054184 103.778182 
L 83.906742 94.285132 
L 84.759265 84.540366 
L 85.611872 77.842152 
L 86.464448 69.63811 
L 87.316935 61.323762 
L 88.169545 60.51333 
L 89.022067 57.726678 
L 89.874633 55.915119 
L 90.727226 47.282003 
L 91.579756 46.171689 
L 92.432312 46.804546 
L 93.284882 48.071827 
L 94.137446 50.211447 
L 94.989988 43.981742 
L 95.842574 46.495171 
L 96.695111 44.089118 
L 97.547682 42.281662 
L 98.400276 40.855663 
L 99.252782 50.880449 
L 100.105472 43.350243 
L 100.95811 43.332045 
L 101.810679 35.094387 
L 102.663283 27.802542 
L 103.515794 27.946941 
L 104.3684 28.21688 
L 105.220961 29.632674 
L 106.073501 28.255958 
L 106.926075 25.417859 
L 107.778636 27.393347 
L 108.631182 29.070591 
L 109.483769 24.985684 
L 110.336359 28.489683 
L 111.188882 25.528493 
L 112.041491 28.283397 
L 112.893998 23.3064 
L 113.746625 24.07147 
L 114.599172 21.644059 
L 115.451752 25.352583 
L 116.304299 17.692193 
L 117.156893 18.313361 
L 118.009442 28.26216 
L 118.861953 29.736651 
L 119.714599 19.350094 
L 120.567048 15.205113 
L 121.419562 17.144797 
L 122.272209 27.393454 
L 123.12475 19.54644 
L 123.977299 19.869155 
L 124.829852 19.414013 
L 125.682438 23.180683 
L 126.534981 17.000145 
L 127.387557 8.801563 
L 128.240053 8.274853 
L 129.092639 11.701707 
L 129.945169 16.125214 
L 130.797771 13.136375 
L 131.65031 21.480825 
L 132.502837 13.433812 
L 133.355398 22.593803 
" style="fill:none;stroke:#377eb8;stroke-linecap:square;"/>
   </g>
   <g id="line2d_84">
    <path clip-path="url(#p981733ff28)" d="M 31.900852 18.301689 
L 32.753443 18.458303 
L 33.60593 18.619912 
L 34.458526 18.7868 
L 35.311185 18.959221 
L 36.16369 19.137408 
L 37.016223 19.321694 
L 37.868797 19.512402 
L 38.721293 19.709843 
L 39.573855 19.914416 
L 40.426376 20.126487 
L 41.278946 20.346498 
L 42.131547 20.574898 
L 42.984093 20.812152 
L 43.836585 21.058784 
L 44.689189 21.31541 
L 45.541747 21.5826 
L 46.39435 21.861047 
L 47.246869 22.151434 
L 48.099475 22.454604 
L 48.951981 22.771349 
L 49.804524 23.102652 
L 50.65711 23.44954 
L 51.509661 23.813104 
L 52.362254 24.194608 
L 53.214798 24.595363 
L 54.067351 25.01689 
L 54.919877 25.460823 
L 55.772466 25.929039 
L 56.625008 26.423515 
L 57.477525 26.946527 
L 58.329985 27.500587 
L 59.182576 28.088662 
L 60.035197 28.713892 
L 60.887706 29.379777 
L 61.740294 30.090555 
L 62.592874 30.850812 
L 63.44551 31.665925 
L 64.298039 32.541829 
L 65.150627 33.485714 
L 66.003156 34.505586 
L 66.855692 35.610984 
L 67.708309 36.813107 
L 68.560801 38.124705 
L 69.4134 39.5616 
L 70.265982 41.142046 
L 71.118535 42.888157 
L 71.97113 44.826866 
L 72.823626 46.99046 
L 73.676167 49.419316 
L 74.528698 52.162722 
L 75.381351 55.282538 
L 76.233807 58.853816 
L 77.08639 62.972159 
L 77.938978 67.751212 
L 78.791427 73.319622 
L 79.643943 79.799229 
L 80.496497 87.211396 
L 81.349085 95.178171 
L 82.201645 101.997742 
L 83.054184 103.308547 
L 83.906742 97.735826 
L 84.759265 89.849683 
L 85.611872 82.173318 
L 86.464448 75.374585 
L 87.316935 69.513648 
L 88.169545 64.485783 
L 89.022067 60.161103 
L 89.874633 56.418595 
L 90.727226 53.157539 
L 91.579756 50.296283 
L 92.432312 47.768526 
L 93.284882 45.52122 
L 94.137446 43.511496 
L 94.989988 41.70448 
L 95.842574 40.071451 
L 96.695111 38.589015 
L 97.547682 37.237433 
L 98.400276 36.000346 
L 99.252782 34.864103 
L 100.105472 33.816655 
L 100.95811 32.848339 
L 101.810679 31.9506 
L 102.663283 31.115952 
L 103.515794 30.338127 
L 104.3684 29.611393 
L 105.220961 28.931012 
L 106.073501 28.292692 
L 106.926075 27.69263 
L 107.778636 27.127532 
L 108.631182 26.594442 
L 109.483769 26.090694 
L 110.336359 25.61396 
L 111.188882 25.162166 
L 112.041491 24.733336 
L 112.893998 24.325856 
L 113.746625 23.938076 
L 114.599172 23.568689 
L 115.451752 23.216375 
L 116.304299 22.880005 
L 117.156893 22.558493 
L 118.009442 22.250911 
L 118.861953 21.956372 
L 119.714599 21.674009 
L 120.567048 21.403187 
L 121.419562 21.143135 
L 122.272209 20.893206 
L 123.12475 20.652886 
L 123.977299 20.421603 
L 124.829852 20.198857 
L 125.682438 19.984178 
L 126.534981 19.777154 
L 127.387557 19.577367 
L 128.240053 19.384468 
L 129.092639 19.198071 
L 129.945169 19.017884 
L 130.797771 18.843577 
L 131.65031 18.674892 
L 132.502837 18.511552 
L 133.355398 18.3533 
" style="fill:none;stroke:#000000;stroke-linecap:square;"/>
   </g>
   <g id="patch_3">
    <path d="M 26.828125 108.72 
L 26.828125 0 
" style="fill:none;stroke:#000000;stroke-linecap:square;stroke-linejoin:miter;stroke-width:0.5;"/>
   </g>
   <g id="patch_4">
    <path d="M 138.428125 108.72 
L 138.428125 0 
" style="fill:none;stroke:#000000;stroke-linecap:square;stroke-linejoin:miter;stroke-width:0.5;"/>
   </g>
   <g id="patch_5">
    <path d="M 26.828125 108.72 
L 138.428125 108.72 
" style="fill:none;stroke:#000000;stroke-linecap:square;stroke-linejoin:miter;stroke-width:0.5;"/>
   </g>
   <g id="patch_6">
    <path d="M 26.828125 0 
L 138.428125 0 
" style="fill:none;stroke:#000000;stroke-linecap:square;stroke-linejoin:miter;stroke-width:0.5;"/>
   </g>
  </g>
 </g>
 <defs>
  <clipPath id="p981733ff28">
   <rect height="108.72" width="111.6" x="26.828125" y="0"/>
  </clipPath>
 </defs>
</svg>
