<?xml version="1.0" encoding="utf-8" standalone="no"?>
<!DOCTYPE svg PUBLIC "-//W3C//DTD SVG 1.1//EN"
  "http://www.w3.org/Graphics/SVG/1.1/DTD/svg11.dtd">
<!-- Created with matplotlib (https://matplotlib.org/) -->
<svg height="128.365313pt" version="1.1" viewBox="0 0 137.8 128.365313" width="137.8pt" xmlns="http://www.w3.org/2000/svg" xmlns:xlink="http://www.w3.org/1999/xlink">
 <defs>
  <style type="text/css">
*{stroke-linecap:butt;stroke-linejoin:round;}
  </style>
 </defs>
 <g id="figure_1">
  <g id="patch_1">
   <path d="M 0 128.365313 
L 137.8 128.365313 
L 137.8 0 
L 0 0 
z
" style="fill:none;"/>
  </g>
  <g id="axes_1">
   <g id="patch_2">
    <path d="M 26.2 108.72 
L 137.8 108.72 
L 137.8 0 
L 26.2 0 
z
" style="fill:none;"/>
   </g>
   <g id="matplotlib.axis_1">
    <g id="xtick_1">
     <g id="line2d_1">
      <defs>
       <path d="M 0 0 
L 0 -3.5 
" id="m06040076df" style="stroke:#000000;stroke-width:0.5;"/>
      </defs>
      <g>
       <use style="stroke:#000000;stroke-width:0.5;" x="30.354233" xlink:href="#m06040076df" y="108.72"/>
      </g>
     </g>
     <g id="line2d_2">
      <defs>
       <path d="M 0 0 
L 0 3.5 
" id="m5b393deec4" style="stroke:#000000;stroke-width:0.5;"/>
      </defs>
      <g>
       <use style="stroke:#000000;stroke-width:0.5;" x="30.354233" xlink:href="#m5b393deec4" y="0"/>
      </g>
     </g>
     <g id="text_1">
      <text style="font-family:Arial;font-size:10px;font-style:normal;font-weight:normal;text-anchor:middle;" transform="rotate(-0, 30.354233, 116.877813)" x="30.354233" y="116.877813">0</text>
     </g>
    </g>
    <g id="xtick_2">
     <g id="line2d_3">
      <g>
       <use style="stroke:#000000;stroke-width:0.5;" x="62.913556" xlink:href="#m06040076df" y="108.72"/>
      </g>
     </g>
     <g id="line2d_4">
      <g>
       <use style="stroke:#000000;stroke-width:0.5;" x="62.913556" xlink:href="#m5b393deec4" y="0"/>
      </g>
     </g>
     <g id="text_2">
      <text style="font-family:Arial;font-size:10px;font-style:normal;font-weight:normal;text-anchor:middle;" transform="rotate(-0, 62.913556, 116.877813)" x="62.913556" y="116.877813">100</text>
     </g>
    </g>
    <g id="xtick_3">
     <g id="line2d_5">
      <g>
       <use style="stroke:#000000;stroke-width:0.5;" x="95.47288" xlink:href="#m06040076df" y="108.72"/>
      </g>
     </g>
     <g id="line2d_6">
      <g>
       <use style="stroke:#000000;stroke-width:0.5;" x="95.47288" xlink:href="#m5b393deec4" y="0"/>
      </g>
     </g>
     <g id="text_3">
      <text style="font-family:Arial;font-size:10px;font-style:normal;font-weight:normal;text-anchor:middle;" transform="rotate(-0, 95.47288, 116.877813)" x="95.47288" y="116.877813">200</text>
     </g>
    </g>
    <g id="xtick_4">
     <g id="line2d_7">
      <g>
       <use style="stroke:#000000;stroke-width:0.5;" x="128.032203" xlink:href="#m06040076df" y="108.72"/>
      </g>
     </g>
     <g id="line2d_8">
      <g>
       <use style="stroke:#000000;stroke-width:0.5;" x="128.032203" xlink:href="#m5b393deec4" y="0"/>
      </g>
     </g>
     <g id="text_4">
      <text style="font-family:Arial;font-size:10px;font-style:normal;font-weight:normal;text-anchor:middle;" transform="rotate(-0, 128.032203, 116.877813)" x="128.032203" y="116.877813">300</text>
     </g>
    </g>
    <g id="xtick_5">
     <g id="line2d_9">
      <defs>
       <path d="M 0 0 
L 0 -2 
" id="m2c439ba380" style="stroke:#000000;stroke-width:0.5;"/>
      </defs>
      <g>
       <use style="stroke:#000000;stroke-width:0.5;" x="36.866097" xlink:href="#m2c439ba380" y="108.72"/>
      </g>
     </g>
     <g id="line2d_10">
      <defs>
       <path d="M 0 0 
L 0 2 
" id="mba55d84057" style="stroke:#000000;stroke-width:0.5;"/>
      </defs>
      <g>
       <use style="stroke:#000000;stroke-width:0.5;" x="36.866097" xlink:href="#mba55d84057" y="0"/>
      </g>
     </g>
    </g>
    <g id="xtick_6">
     <g id="line2d_11">
      <g>
       <use style="stroke:#000000;stroke-width:0.5;" x="43.377962" xlink:href="#m2c439ba380" y="108.72"/>
      </g>
     </g>
     <g id="line2d_12">
      <g>
       <use style="stroke:#000000;stroke-width:0.5;" x="43.377962" xlink:href="#mba55d84057" y="0"/>
      </g>
     </g>
    </g>
    <g id="xtick_7">
     <g id="line2d_13">
      <g>
       <use style="stroke:#000000;stroke-width:0.5;" x="49.889827" xlink:href="#m2c439ba380" y="108.72"/>
      </g>
     </g>
     <g id="line2d_14">
      <g>
       <use style="stroke:#000000;stroke-width:0.5;" x="49.889827" xlink:href="#mba55d84057" y="0"/>
      </g>
     </g>
    </g>
    <g id="xtick_8">
     <g id="line2d_15">
      <g>
       <use style="stroke:#000000;stroke-width:0.5;" x="56.401691" xlink:href="#m2c439ba380" y="108.72"/>
      </g>
     </g>
     <g id="line2d_16">
      <g>
       <use style="stroke:#000000;stroke-width:0.5;" x="56.401691" xlink:href="#mba55d84057" y="0"/>
      </g>
     </g>
    </g>
    <g id="xtick_9">
     <g id="line2d_17">
      <g>
       <use style="stroke:#000000;stroke-width:0.5;" x="69.425421" xlink:href="#m2c439ba380" y="108.72"/>
      </g>
     </g>
     <g id="line2d_18">
      <g>
       <use style="stroke:#000000;stroke-width:0.5;" x="69.425421" xlink:href="#mba55d84057" y="0"/>
      </g>
     </g>
    </g>
    <g id="xtick_10">
     <g id="line2d_19">
      <g>
       <use style="stroke:#000000;stroke-width:0.5;" x="75.937285" xlink:href="#m2c439ba380" y="108.72"/>
      </g>
     </g>
     <g id="line2d_20">
      <g>
       <use style="stroke:#000000;stroke-width:0.5;" x="75.937285" xlink:href="#mba55d84057" y="0"/>
      </g>
     </g>
    </g>
    <g id="xtick_11">
     <g id="line2d_21">
      <g>
       <use style="stroke:#000000;stroke-width:0.5;" x="82.44915" xlink:href="#m2c439ba380" y="108.72"/>
      </g>
     </g>
     <g id="line2d_22">
      <g>
       <use style="stroke:#000000;stroke-width:0.5;" x="82.44915" xlink:href="#mba55d84057" y="0"/>
      </g>
     </g>
    </g>
    <g id="xtick_12">
     <g id="line2d_23">
      <g>
       <use style="stroke:#000000;stroke-width:0.5;" x="88.961015" xlink:href="#m2c439ba380" y="108.72"/>
      </g>
     </g>
     <g id="line2d_24">
      <g>
       <use style="stroke:#000000;stroke-width:0.5;" x="88.961015" xlink:href="#mba55d84057" y="0"/>
      </g>
     </g>
    </g>
    <g id="xtick_13">
     <g id="line2d_25">
      <g>
       <use style="stroke:#000000;stroke-width:0.5;" x="101.984744" xlink:href="#m2c439ba380" y="108.72"/>
      </g>
     </g>
     <g id="line2d_26">
      <g>
       <use style="stroke:#000000;stroke-width:0.5;" x="101.984744" xlink:href="#mba55d84057" y="0"/>
      </g>
     </g>
    </g>
    <g id="xtick_14">
     <g id="line2d_27">
      <g>
       <use style="stroke:#000000;stroke-width:0.5;" x="108.496609" xlink:href="#m2c439ba380" y="108.72"/>
      </g>
     </g>
     <g id="line2d_28">
      <g>
       <use style="stroke:#000000;stroke-width:0.5;" x="108.496609" xlink:href="#mba55d84057" y="0"/>
      </g>
     </g>
    </g>
    <g id="xtick_15">
     <g id="line2d_29">
      <g>
       <use style="stroke:#000000;stroke-width:0.5;" x="115.008474" xlink:href="#m2c439ba380" y="108.72"/>
      </g>
     </g>
     <g id="line2d_30">
      <g>
       <use style="stroke:#000000;stroke-width:0.5;" x="115.008474" xlink:href="#mba55d84057" y="0"/>
      </g>
     </g>
    </g>
    <g id="xtick_16">
     <g id="line2d_31">
      <g>
       <use style="stroke:#000000;stroke-width:0.5;" x="121.520338" xlink:href="#m2c439ba380" y="108.72"/>
      </g>
     </g>
     <g id="line2d_32">
      <g>
       <use style="stroke:#000000;stroke-width:0.5;" x="121.520338" xlink:href="#mba55d84057" y="0"/>
      </g>
     </g>
    </g>
    <g id="xtick_17">
     <g id="line2d_33">
      <g>
       <use style="stroke:#000000;stroke-width:0.5;" x="134.544068" xlink:href="#m2c439ba380" y="108.72"/>
      </g>
     </g>
     <g id="line2d_34">
      <g>
       <use style="stroke:#000000;stroke-width:0.5;" x="134.544068" xlink:href="#mba55d84057" y="0"/>
      </g>
     </g>
    </g>
    <g id="text_5">
     <!-- $\it{T}$ (K) -->
     <g transform="translate(70.85 126.165313)">
      <text>
       <tspan style="font-family:DejaVu Sans;font-size:10px;font-style:oblique;font-weight:oblique;" x="0" y="-0.703125">T</tspan>
       <tspan style="font-family:Arial;font-size:10px;font-style:regular;font-weight:regular;" x="6.108398 8.886719 12.216797 18.886719" y="-0.703125"> (K)</tspan>
      </text>
     </g>
    </g>
   </g>
   <g id="matplotlib.axis_2">
    <g id="ytick_1">
     <g id="line2d_35">
      <defs>
       <path d="M 0 0 
L 3.5 0 
" id="mac1e85aa83" style="stroke:#000000;stroke-width:0.5;"/>
      </defs>
      <g>
       <use style="stroke:#000000;stroke-width:0.5;" x="26.2" xlink:href="#mac1e85aa83" y="99.485816"/>
      </g>
     </g>
     <g id="line2d_36">
      <defs>
       <path d="M 0 0 
L -3.5 0 
" id="m214b618625" style="stroke:#000000;stroke-width:0.5;"/>
      </defs>
      <g>
       <use style="stroke:#000000;stroke-width:0.5;" x="137.8" xlink:href="#m214b618625" y="99.485816"/>
      </g>
     </g>
     <g id="text_6">
      <!-- $\mathdefault{10^{5}}$ -->
      <g transform="translate(9.5 104.592066)">
       <text>
        <tspan style="font-family:Arial;font-size:10px;font-style:regular;font-weight:regular;" x="0 5.561523" y="-0.0868750000000027">10</tspan>
        <tspan style="font-family:Arial;font-size:7px;font-style:regular;font-weight:regular;" x="11.297281" y="-7.056250000000001">5</tspan>
       </text>
      </g>
     </g>
    </g>
    <g id="ytick_2">
     <g id="line2d_37">
      <g>
       <use style="stroke:#000000;stroke-width:0.5;" x="26.2" xlink:href="#mac1e85aa83" y="16.008821"/>
      </g>
     </g>
     <g id="line2d_38">
      <g>
       <use style="stroke:#000000;stroke-width:0.5;" x="137.8" xlink:href="#m214b618625" y="16.008821"/>
      </g>
     </g>
     <g id="text_7">
      <!-- $\mathdefault{10^{6}}$ -->
      <g transform="translate(9.5 21.165071)">
       <text>
        <tspan style="font-family:Arial;font-size:10px;font-style:regular;font-weight:regular;" x="0 5.561523" y="-0.9993750000000006">10</tspan>
        <tspan style="font-family:Arial;font-size:7px;font-style:regular;font-weight:regular;" x="11.297281" y="-7.968749999999999">6</tspan>
       </text>
      </g>
     </g>
    </g>
    <g id="ytick_3">
     <g id="line2d_39">
      <defs>
       <path d="M 0 0 
L 2 0 
" id="mcfc31d3669" style="stroke:#000000;stroke-width:0.5;"/>
      </defs>
      <g>
       <use style="stroke:#000000;stroke-width:0.5;" x="26.2" xlink:href="#mcfc31d3669" y="107.575573"/>
      </g>
     </g>
     <g id="line2d_40">
      <defs>
       <path d="M 0 0 
L -2 0 
" id="m666a878c0d" style="stroke:#000000;stroke-width:0.5;"/>
      </defs>
      <g>
       <use style="stroke:#000000;stroke-width:0.5;" x="137.8" xlink:href="#m666a878c0d" y="107.575573"/>
      </g>
     </g>
    </g>
    <g id="ytick_4">
     <g id="line2d_41">
      <g>
       <use style="stroke:#000000;stroke-width:0.5;" x="26.2" xlink:href="#mcfc31d3669" y="103.305514"/>
      </g>
     </g>
     <g id="line2d_42">
      <g>
       <use style="stroke:#000000;stroke-width:0.5;" x="137.8" xlink:href="#m666a878c0d" y="103.305514"/>
      </g>
     </g>
    </g>
    <g id="ytick_5">
     <g id="line2d_43">
      <g>
       <use style="stroke:#000000;stroke-width:0.5;" x="26.2" xlink:href="#mcfc31d3669" y="74.356737"/>
      </g>
     </g>
     <g id="line2d_44">
      <g>
       <use style="stroke:#000000;stroke-width:0.5;" x="137.8" xlink:href="#m666a878c0d" y="74.356737"/>
      </g>
     </g>
    </g>
    <g id="ytick_6">
     <g id="line2d_45">
      <g>
       <use style="stroke:#000000;stroke-width:0.5;" x="26.2" xlink:href="#mcfc31d3669" y="59.657168"/>
      </g>
     </g>
     <g id="line2d_46">
      <g>
       <use style="stroke:#000000;stroke-width:0.5;" x="137.8" xlink:href="#m666a878c0d" y="59.657168"/>
      </g>
     </g>
    </g>
    <g id="ytick_7">
     <g id="line2d_47">
      <g>
       <use style="stroke:#000000;stroke-width:0.5;" x="26.2" xlink:href="#mcfc31d3669" y="49.227657"/>
      </g>
     </g>
     <g id="line2d_48">
      <g>
       <use style="stroke:#000000;stroke-width:0.5;" x="137.8" xlink:href="#m666a878c0d" y="49.227657"/>
      </g>
     </g>
    </g>
    <g id="ytick_8">
     <g id="line2d_49">
      <g>
       <use style="stroke:#000000;stroke-width:0.5;" x="26.2" xlink:href="#mcfc31d3669" y="41.1379"/>
      </g>
     </g>
     <g id="line2d_50">
      <g>
       <use style="stroke:#000000;stroke-width:0.5;" x="137.8" xlink:href="#m666a878c0d" y="41.1379"/>
      </g>
     </g>
    </g>
    <g id="ytick_9">
     <g id="line2d_51">
      <g>
       <use style="stroke:#000000;stroke-width:0.5;" x="26.2" xlink:href="#mcfc31d3669" y="34.528088"/>
      </g>
     </g>
     <g id="line2d_52">
      <g>
       <use style="stroke:#000000;stroke-width:0.5;" x="137.8" xlink:href="#m666a878c0d" y="34.528088"/>
      </g>
     </g>
    </g>
    <g id="ytick_10">
     <g id="line2d_53">
      <g>
       <use style="stroke:#000000;stroke-width:0.5;" x="26.2" xlink:href="#mcfc31d3669" y="28.939571"/>
      </g>
     </g>
     <g id="line2d_54">
      <g>
       <use style="stroke:#000000;stroke-width:0.5;" x="137.8" xlink:href="#m666a878c0d" y="28.939571"/>
      </g>
     </g>
    </g>
    <g id="ytick_11">
     <g id="line2d_55">
      <g>
       <use style="stroke:#000000;stroke-width:0.5;" x="26.2" xlink:href="#mcfc31d3669" y="24.098578"/>
      </g>
     </g>
     <g id="line2d_56">
      <g>
       <use style="stroke:#000000;stroke-width:0.5;" x="137.8" xlink:href="#m666a878c0d" y="24.098578"/>
      </g>
     </g>
    </g>
    <g id="ytick_12">
     <g id="line2d_57">
      <g>
       <use style="stroke:#000000;stroke-width:0.5;" x="26.2" xlink:href="#mcfc31d3669" y="19.828519"/>
      </g>
     </g>
     <g id="line2d_58">
      <g>
       <use style="stroke:#000000;stroke-width:0.5;" x="137.8" xlink:href="#m666a878c0d" y="19.828519"/>
      </g>
     </g>
    </g>
    <g id="text_8">
     <!-- $\it{R_{DS}}$ (Ω) -->
     <g transform="translate(7.3 71.36)rotate(-90)">
      <text>
       <tspan style="font-family:DejaVu Sans;font-size:10px;font-style:oblique;font-weight:oblique;" x="0" y="-0.703125">R</tspan>
       <tspan style="font-family:DejaVu Sans;font-size:7px;font-style:oblique;font-weight:oblique;" x="6.948242 12.338379" y="0.9375">DS</tspan>
       <tspan style="font-family:Arial;font-size:10px;font-style:regular;font-weight:regular;" x="17.055176 19.833496 23.163574 30.63916" y="-0.703125"> (Ω)</tspan>
      </text>
     </g>
    </g>
   </g>
   <g id="line2d_59">
    <path clip-path="url(#p673aaac2a0)" d="M 31.049179 4.941818 
L 33.630222 27.298103 
L 46.627676 52.86652 
L 62.960767 66.695824 
L 79.166552 55.795368 
L 95.465521 41.369658 
L 111.748927 42.57628 
L 128.032756 26.680363 
" style="fill:none;stroke:#e41a1c;stroke-linecap:square;stroke-width:1.5;"/>
    <defs>
     <path d="M 0 0.75 
C 0.198902 0.75 0.389685 0.670975 0.53033 0.53033 
C 0.670975 0.389685 0.75 0.198902 0.75 0 
C 0.75 -0.198902 0.670975 -0.389685 0.53033 -0.53033 
C 0.389685 -0.670975 0.198902 -0.75 0 -0.75 
C -0.198902 -0.75 -0.389685 -0.670975 -0.53033 -0.53033 
C -0.670975 -0.389685 -0.75 -0.198902 -0.75 0 
C -0.75 0.198902 -0.670975 0.389685 -0.53033 0.53033 
C -0.389685 0.670975 -0.198902 0.75 0 0.75 
z
" id="m8f8c8e1547" style="stroke:#e41a1c;"/>
    </defs>
    <g clip-path="url(#p673aaac2a0)">
     <use style="fill:#e41a1c;stroke:#e41a1c;" x="31.049179" xlink:href="#m8f8c8e1547" y="4.941818"/>
     <use style="fill:#e41a1c;stroke:#e41a1c;" x="33.630222" xlink:href="#m8f8c8e1547" y="27.298103"/>
     <use style="fill:#e41a1c;stroke:#e41a1c;" x="46.627676" xlink:href="#m8f8c8e1547" y="52.86652"/>
     <use style="fill:#e41a1c;stroke:#e41a1c;" x="62.960767" xlink:href="#m8f8c8e1547" y="66.695824"/>
     <use style="fill:#e41a1c;stroke:#e41a1c;" x="79.166552" xlink:href="#m8f8c8e1547" y="55.795368"/>
     <use style="fill:#e41a1c;stroke:#e41a1c;" x="95.465521" xlink:href="#m8f8c8e1547" y="41.369658"/>
     <use style="fill:#e41a1c;stroke:#e41a1c;" x="111.748927" xlink:href="#m8f8c8e1547" y="42.57628"/>
     <use style="fill:#e41a1c;stroke:#e41a1c;" x="128.032756" xlink:href="#m8f8c8e1547" y="26.680363"/>
    </g>
   </g>
   <g id="line2d_60">
    <path clip-path="url(#p673aaac2a0)" d="M 31.049179 88.679517 
L 33.630222 90.833595 
L 46.627676 93.869608 
L 62.960767 92.201592 
L 79.166552 84.094562 
L 95.465521 73.583551 
L 111.748927 62.912681 
L 128.032756 38.872077 
" style="fill:none;stroke:#984ea3;stroke-linecap:square;stroke-width:1.5;"/>
    <defs>
     <path d="M 0 0.75 
C 0.198902 0.75 0.389685 0.670975 0.53033 0.53033 
C 0.670975 0.389685 0.75 0.198902 0.75 0 
C 0.75 -0.198902 0.670975 -0.389685 0.53033 -0.53033 
C 0.389685 -0.670975 0.198902 -0.75 0 -0.75 
C -0.198902 -0.75 -0.389685 -0.670975 -0.53033 -0.53033 
C -0.670975 -0.389685 -0.75 -0.198902 -0.75 0 
C -0.75 0.198902 -0.670975 0.389685 -0.53033 0.53033 
C -0.389685 0.670975 -0.198902 0.75 0 0.75 
z
" id="mf2b1c089c2" style="stroke:#984ea3;"/>
    </defs>
    <g clip-path="url(#p673aaac2a0)">
     <use style="fill:#984ea3;stroke:#984ea3;" x="31.049179" xlink:href="#mf2b1c089c2" y="88.679517"/>
     <use style="fill:#984ea3;stroke:#984ea3;" x="33.630222" xlink:href="#mf2b1c089c2" y="90.833595"/>
     <use style="fill:#984ea3;stroke:#984ea3;" x="46.627676" xlink:href="#mf2b1c089c2" y="93.869608"/>
     <use style="fill:#984ea3;stroke:#984ea3;" x="62.960767" xlink:href="#mf2b1c089c2" y="92.201592"/>
     <use style="fill:#984ea3;stroke:#984ea3;" x="79.166552" xlink:href="#mf2b1c089c2" y="84.094562"/>
     <use style="fill:#984ea3;stroke:#984ea3;" x="95.465521" xlink:href="#mf2b1c089c2" y="73.583551"/>
     <use style="fill:#984ea3;stroke:#984ea3;" x="111.748927" xlink:href="#mf2b1c089c2" y="62.912681"/>
     <use style="fill:#984ea3;stroke:#984ea3;" x="128.032756" xlink:href="#mf2b1c089c2" y="38.872077"/>
    </g>
   </g>
   <g id="line2d_61">
    <path clip-path="url(#p673aaac2a0)" d="M 31.049179 100.049396 
L 33.630222 100.344478 
L 46.627676 100.680352 
L 62.960767 98.618476 
L 79.166552 93.909089 
L 95.465521 85.403884 
L 111.748927 72.287956 
L 128.032756 43.74481 
" style="fill:none;stroke:#4daf4a;stroke-linecap:square;stroke-width:1.5;"/>
    <defs>
     <path d="M 0 0.75 
C 0.198902 0.75 0.389685 0.670975 0.53033 0.53033 
C 0.670975 0.389685 0.75 0.198902 0.75 0 
C 0.75 -0.198902 0.670975 -0.389685 0.53033 -0.53033 
C 0.389685 -0.670975 0.198902 -0.75 0 -0.75 
C -0.198902 -0.75 -0.389685 -0.670975 -0.53033 -0.53033 
C -0.670975 -0.389685 -0.75 -0.198902 -0.75 0 
C -0.75 0.198902 -0.670975 0.389685 -0.53033 0.53033 
C -0.389685 0.670975 -0.198902 0.75 0 0.75 
z
" id="m0556a7b78d" style="stroke:#4daf4a;"/>
    </defs>
    <g clip-path="url(#p673aaac2a0)">
     <use style="fill:#4daf4a;stroke:#4daf4a;" x="31.049179" xlink:href="#m0556a7b78d" y="100.049396"/>
     <use style="fill:#4daf4a;stroke:#4daf4a;" x="33.630222" xlink:href="#m0556a7b78d" y="100.344478"/>
     <use style="fill:#4daf4a;stroke:#4daf4a;" x="46.627676" xlink:href="#m0556a7b78d" y="100.680352"/>
     <use style="fill:#4daf4a;stroke:#4daf4a;" x="62.960767" xlink:href="#m0556a7b78d" y="98.618476"/>
     <use style="fill:#4daf4a;stroke:#4daf4a;" x="79.166552" xlink:href="#m0556a7b78d" y="93.909089"/>
     <use style="fill:#4daf4a;stroke:#4daf4a;" x="95.465521" xlink:href="#m0556a7b78d" y="85.403884"/>
     <use style="fill:#4daf4a;stroke:#4daf4a;" x="111.748927" xlink:href="#m0556a7b78d" y="72.287956"/>
     <use style="fill:#4daf4a;stroke:#4daf4a;" x="128.032756" xlink:href="#m0556a7b78d" y="43.74481"/>
    </g>
   </g>
   <g id="line2d_62">
    <path clip-path="url(#p673aaac2a0)" d="M 31.049179 103.727467 
L 33.630222 103.778182 
L 46.627676 103.740737 
L 62.960767 102.09081 
L 79.166552 98.033044 
L 95.465521 91.067075 
L 111.748927 76.448598 
L 128.032756 44.963285 
" style="fill:none;stroke:#377eb8;stroke-linecap:square;stroke-width:1.5;"/>
    <defs>
     <path d="M 0 0.75 
C 0.198902 0.75 0.389685 0.670975 0.53033 0.53033 
C 0.670975 0.389685 0.75 0.198902 0.75 0 
C 0.75 -0.198902 0.670975 -0.389685 0.53033 -0.53033 
C 0.389685 -0.670975 0.198902 -0.75 0 -0.75 
C -0.198902 -0.75 -0.389685 -0.670975 -0.53033 -0.53033 
C -0.670975 -0.389685 -0.75 -0.198902 -0.75 0 
C -0.75 0.198902 -0.670975 0.389685 -0.53033 0.53033 
C -0.389685 0.670975 -0.198902 0.75 0 0.75 
z
" id="m2a31c5545e" style="stroke:#377eb8;"/>
    </defs>
    <g clip-path="url(#p673aaac2a0)">
     <use style="fill:#377eb8;stroke:#377eb8;" x="31.049179" xlink:href="#m2a31c5545e" y="103.727467"/>
     <use style="fill:#377eb8;stroke:#377eb8;" x="33.630222" xlink:href="#m2a31c5545e" y="103.778182"/>
     <use style="fill:#377eb8;stroke:#377eb8;" x="46.627676" xlink:href="#m2a31c5545e" y="103.740737"/>
     <use style="fill:#377eb8;stroke:#377eb8;" x="62.960767" xlink:href="#m2a31c5545e" y="102.09081"/>
     <use style="fill:#377eb8;stroke:#377eb8;" x="79.166552" xlink:href="#m2a31c5545e" y="98.033044"/>
     <use style="fill:#377eb8;stroke:#377eb8;" x="95.465521" xlink:href="#m2a31c5545e" y="91.067075"/>
     <use style="fill:#377eb8;stroke:#377eb8;" x="111.748927" xlink:href="#m2a31c5545e" y="76.448598"/>
     <use style="fill:#377eb8;stroke:#377eb8;" x="128.032756" xlink:href="#m2a31c5545e" y="44.963285"/>
    </g>
   </g>
   <g id="patch_3">
    <path d="M 26.2 108.72 
L 26.2 0 
" style="fill:none;stroke:#000000;stroke-linecap:square;stroke-linejoin:miter;stroke-width:0.5;"/>
   </g>
   <g id="patch_4">
    <path d="M 137.8 108.72 
L 137.8 0 
" style="fill:none;stroke:#000000;stroke-linecap:square;stroke-linejoin:miter;stroke-width:0.5;"/>
   </g>
   <g id="patch_5">
    <path d="M 26.2 108.72 
L 137.8 108.72 
" style="fill:none;stroke:#000000;stroke-linecap:square;stroke-linejoin:miter;stroke-width:0.5;"/>
   </g>
   <g id="patch_6">
    <path d="M 26.2 0 
L 137.8 0 
" style="fill:none;stroke:#000000;stroke-linecap:square;stroke-linejoin:miter;stroke-width:0.5;"/>
   </g>
  </g>
 </g>
 <defs>
  <clipPath id="p673aaac2a0">
   <rect height="108.72" width="111.6" x="26.2" y="0"/>
  </clipPath>
 </defs>
</svg>
