<?xml version="1.0" encoding="utf-8" standalone="no"?>
<!DOCTYPE svg PUBLIC "-//W3C//DTD SVG 1.1//EN"
  "http://www.w3.org/Graphics/SVG/1.1/DTD/svg11.dtd">
<!-- Created with matplotlib (https://matplotlib.org/) -->
<svg height="122.929312pt" version="1.1" viewBox="0 0 132.848125 122.929312" width="132.848125pt" xmlns="http://www.w3.org/2000/svg" xmlns:xlink="http://www.w3.org/1999/xlink">
 <defs>
  <style type="text/css">
*{stroke-linecap:butt;stroke-linejoin:round;}
  </style>
 </defs>
 <g id="figure_1">
  <g id="patch_1">
   <path d="M 0 122.929312 
L 132.848125 122.929312 
L 132.848125 0 
L 0 0 
z
" style="fill:none;"/>
  </g>
  <g id="axes_1">
   <g id="patch_2">
    <path d="M 26.828125 103.284 
L 132.848125 103.284 
L 132.848125 -0 
L 26.828125 -0 
z
" style="fill:none;"/>
   </g>
   <g id="matplotlib.axis_1">
    <g id="xtick_1">
     <g id="line2d_1">
      <defs>
       <path d="M 0 0 
L 0 -3.5 
" id="m074a4353bb" style="stroke:#000000;stroke-width:0.5;"/>
      </defs>
      <g>
       <use style="stroke:#000000;stroke-width:0.5;" x="36.776645" xlink:href="#m074a4353bb" y="103.284"/>
      </g>
     </g>
     <g id="line2d_2">
      <defs>
       <path d="M 0 0 
L 0 3.5 
" id="m5530146534" style="stroke:#000000;stroke-width:0.5;"/>
      </defs>
      <g>
       <use style="stroke:#000000;stroke-width:0.5;" x="36.776645" xlink:href="#m5530146534" y="-0"/>
      </g>
     </g>
     <g id="text_1">
      <text style="font-family:Arial;font-size:10px;font-style:normal;font-weight:normal;text-anchor:middle;" transform="rotate(-0, 36.776645, 111.441812)" x="36.776645" y="111.441812">−8</text>
     </g>
    </g>
    <g id="xtick_2">
     <g id="line2d_3">
      <g>
       <use style="stroke:#000000;stroke-width:0.5;" x="58.374809" xlink:href="#m074a4353bb" y="103.284"/>
      </g>
     </g>
     <g id="line2d_4">
      <g>
       <use style="stroke:#000000;stroke-width:0.5;" x="58.374809" xlink:href="#m5530146534" y="-0"/>
      </g>
     </g>
     <g id="text_2">
      <text style="font-family:Arial;font-size:10px;font-style:normal;font-weight:normal;text-anchor:middle;" transform="rotate(-0, 58.374809, 111.441812)" x="58.374809" y="111.441812">−4</text>
     </g>
    </g>
    <g id="xtick_3">
     <g id="line2d_5">
      <g>
       <use style="stroke:#000000;stroke-width:0.5;" x="79.972974" xlink:href="#m074a4353bb" y="103.284"/>
      </g>
     </g>
     <g id="line2d_6">
      <g>
       <use style="stroke:#000000;stroke-width:0.5;" x="79.972974" xlink:href="#m5530146534" y="-0"/>
      </g>
     </g>
     <g id="text_3">
      <text style="font-family:Arial;font-size:10px;font-style:normal;font-weight:normal;text-anchor:middle;" transform="rotate(-0, 79.972974, 111.441812)" x="79.972974" y="111.441812">0</text>
     </g>
    </g>
    <g id="xtick_4">
     <g id="line2d_7">
      <g>
       <use style="stroke:#000000;stroke-width:0.5;" x="101.571138" xlink:href="#m074a4353bb" y="103.284"/>
      </g>
     </g>
     <g id="line2d_8">
      <g>
       <use style="stroke:#000000;stroke-width:0.5;" x="101.571138" xlink:href="#m5530146534" y="-0"/>
      </g>
     </g>
     <g id="text_4">
      <text style="font-family:Arial;font-size:10px;font-style:normal;font-weight:normal;text-anchor:middle;" transform="rotate(-0, 101.571138, 111.441812)" x="101.571138" y="111.441812">4</text>
     </g>
    </g>
    <g id="xtick_5">
     <g id="line2d_9">
      <g>
       <use style="stroke:#000000;stroke-width:0.5;" x="123.169302" xlink:href="#m074a4353bb" y="103.284"/>
      </g>
     </g>
     <g id="line2d_10">
      <g>
       <use style="stroke:#000000;stroke-width:0.5;" x="123.169302" xlink:href="#m5530146534" y="-0"/>
      </g>
     </g>
     <g id="text_5">
      <text style="font-family:Arial;font-size:10px;font-style:normal;font-weight:normal;text-anchor:middle;" transform="rotate(-0, 123.169302, 111.441812)" x="123.169302" y="111.441812">8</text>
     </g>
    </g>
    <g id="xtick_6">
     <g id="line2d_11">
      <defs>
       <path d="M 0 0 
L 0 -2 
" id="m2bfed31726" style="stroke:#000000;stroke-width:0.5;"/>
      </defs>
      <g>
       <use style="stroke:#000000;stroke-width:0.5;" x="31.377104" xlink:href="#m2bfed31726" y="103.284"/>
      </g>
     </g>
     <g id="line2d_12">
      <defs>
       <path d="M 0 0 
L 0 2 
" id="m9db0ef4afd" style="stroke:#000000;stroke-width:0.5;"/>
      </defs>
      <g>
       <use style="stroke:#000000;stroke-width:0.5;" x="31.377104" xlink:href="#m9db0ef4afd" y="-0"/>
      </g>
     </g>
    </g>
    <g id="xtick_7">
     <g id="line2d_13">
      <g>
       <use style="stroke:#000000;stroke-width:0.5;" x="42.176186" xlink:href="#m2bfed31726" y="103.284"/>
      </g>
     </g>
     <g id="line2d_14">
      <g>
       <use style="stroke:#000000;stroke-width:0.5;" x="42.176186" xlink:href="#m9db0ef4afd" y="-0"/>
      </g>
     </g>
    </g>
    <g id="xtick_8">
     <g id="line2d_15">
      <g>
       <use style="stroke:#000000;stroke-width:0.5;" x="47.575727" xlink:href="#m2bfed31726" y="103.284"/>
      </g>
     </g>
     <g id="line2d_16">
      <g>
       <use style="stroke:#000000;stroke-width:0.5;" x="47.575727" xlink:href="#m9db0ef4afd" y="-0"/>
      </g>
     </g>
    </g>
    <g id="xtick_9">
     <g id="line2d_17">
      <g>
       <use style="stroke:#000000;stroke-width:0.5;" x="52.975268" xlink:href="#m2bfed31726" y="103.284"/>
      </g>
     </g>
     <g id="line2d_18">
      <g>
       <use style="stroke:#000000;stroke-width:0.5;" x="52.975268" xlink:href="#m9db0ef4afd" y="-0"/>
      </g>
     </g>
    </g>
    <g id="xtick_10">
     <g id="line2d_19">
      <g>
       <use style="stroke:#000000;stroke-width:0.5;" x="63.77435" xlink:href="#m2bfed31726" y="103.284"/>
      </g>
     </g>
     <g id="line2d_20">
      <g>
       <use style="stroke:#000000;stroke-width:0.5;" x="63.77435" xlink:href="#m9db0ef4afd" y="-0"/>
      </g>
     </g>
    </g>
    <g id="xtick_11">
     <g id="line2d_21">
      <g>
       <use style="stroke:#000000;stroke-width:0.5;" x="69.173891" xlink:href="#m2bfed31726" y="103.284"/>
      </g>
     </g>
     <g id="line2d_22">
      <g>
       <use style="stroke:#000000;stroke-width:0.5;" x="69.173891" xlink:href="#m9db0ef4afd" y="-0"/>
      </g>
     </g>
    </g>
    <g id="xtick_12">
     <g id="line2d_23">
      <g>
       <use style="stroke:#000000;stroke-width:0.5;" x="74.573433" xlink:href="#m2bfed31726" y="103.284"/>
      </g>
     </g>
     <g id="line2d_24">
      <g>
       <use style="stroke:#000000;stroke-width:0.5;" x="74.573433" xlink:href="#m9db0ef4afd" y="-0"/>
      </g>
     </g>
    </g>
    <g id="xtick_13">
     <g id="line2d_25">
      <g>
       <use style="stroke:#000000;stroke-width:0.5;" x="85.372515" xlink:href="#m2bfed31726" y="103.284"/>
      </g>
     </g>
     <g id="line2d_26">
      <g>
       <use style="stroke:#000000;stroke-width:0.5;" x="85.372515" xlink:href="#m9db0ef4afd" y="-0"/>
      </g>
     </g>
    </g>
    <g id="xtick_14">
     <g id="line2d_27">
      <g>
       <use style="stroke:#000000;stroke-width:0.5;" x="90.772056" xlink:href="#m2bfed31726" y="103.284"/>
      </g>
     </g>
     <g id="line2d_28">
      <g>
       <use style="stroke:#000000;stroke-width:0.5;" x="90.772056" xlink:href="#m9db0ef4afd" y="-0"/>
      </g>
     </g>
    </g>
    <g id="xtick_15">
     <g id="line2d_29">
      <g>
       <use style="stroke:#000000;stroke-width:0.5;" x="96.171597" xlink:href="#m2bfed31726" y="103.284"/>
      </g>
     </g>
     <g id="line2d_30">
      <g>
       <use style="stroke:#000000;stroke-width:0.5;" x="96.171597" xlink:href="#m9db0ef4afd" y="-0"/>
      </g>
     </g>
    </g>
    <g id="xtick_16">
     <g id="line2d_31">
      <g>
       <use style="stroke:#000000;stroke-width:0.5;" x="106.970679" xlink:href="#m2bfed31726" y="103.284"/>
      </g>
     </g>
     <g id="line2d_32">
      <g>
       <use style="stroke:#000000;stroke-width:0.5;" x="106.970679" xlink:href="#m9db0ef4afd" y="-0"/>
      </g>
     </g>
    </g>
    <g id="xtick_17">
     <g id="line2d_33">
      <g>
       <use style="stroke:#000000;stroke-width:0.5;" x="112.37022" xlink:href="#m2bfed31726" y="103.284"/>
      </g>
     </g>
     <g id="line2d_34">
      <g>
       <use style="stroke:#000000;stroke-width:0.5;" x="112.37022" xlink:href="#m9db0ef4afd" y="-0"/>
      </g>
     </g>
    </g>
    <g id="xtick_18">
     <g id="line2d_35">
      <g>
       <use style="stroke:#000000;stroke-width:0.5;" x="117.769761" xlink:href="#m2bfed31726" y="103.284"/>
      </g>
     </g>
     <g id="line2d_36">
      <g>
       <use style="stroke:#000000;stroke-width:0.5;" x="117.769761" xlink:href="#m9db0ef4afd" y="-0"/>
      </g>
     </g>
    </g>
    <g id="xtick_19">
     <g id="line2d_37">
      <g>
       <use style="stroke:#000000;stroke-width:0.5;" x="128.568843" xlink:href="#m2bfed31726" y="103.284"/>
      </g>
     </g>
     <g id="line2d_38">
      <g>
       <use style="stroke:#000000;stroke-width:0.5;" x="128.568843" xlink:href="#m9db0ef4afd" y="-0"/>
      </g>
     </g>
    </g>
    <g id="text_6">
     <!-- $\it{B}$ (T) -->
     <g transform="translate(68.588125 120.729312)">
      <text>
       <tspan style="font-family:DejaVu Sans;font-size:10px;font-style:oblique;font-weight:oblique;" x="0" y="-0.703125">B</tspan>
       <tspan style="font-family:Arial;font-size:10px;font-style:regular;font-weight:regular;" x="6.860352 9.638672 12.96875 19.077148" y="-0.703125"> (T)</tspan>
      </text>
     </g>
    </g>
   </g>
   <g id="matplotlib.axis_2">
    <g id="ytick_1">
     <g id="line2d_39">
      <defs>
       <path d="M 0 0 
L 3.5 0 
" id="m31b1bb52dc" style="stroke:#000000;stroke-width:0.5;"/>
      </defs>
      <g>
       <use style="stroke:#000000;stroke-width:0.5;" x="26.828125" xlink:href="#m31b1bb52dc" y="98.589273"/>
      </g>
     </g>
     <g id="line2d_40">
      <defs>
       <path d="M 0 0 
L -3.5 0 
" id="m321b92e54b" style="stroke:#000000;stroke-width:0.5;"/>
      </defs>
      <g>
       <use style="stroke:#000000;stroke-width:0.5;" x="132.848125" xlink:href="#m321b92e54b" y="98.589273"/>
      </g>
     </g>
     <g id="text_7">
      <text style="font-family:Arial;font-size:10px;font-style:normal;font-weight:normal;text-anchor:end;" transform="rotate(-0, 25.828125, 102.168179)" x="25.828125" y="102.168179">0</text>
     </g>
    </g>
    <g id="ytick_2">
     <g id="line2d_41">
      <g>
       <use style="stroke:#000000;stroke-width:0.5;" x="26.828125" xlink:href="#m31b1bb52dc" y="75.115636"/>
      </g>
     </g>
     <g id="line2d_42">
      <g>
       <use style="stroke:#000000;stroke-width:0.5;" x="132.848125" xlink:href="#m321b92e54b" y="75.115636"/>
      </g>
     </g>
     <g id="text_8">
      <text style="font-family:Arial;font-size:10px;font-style:normal;font-weight:normal;text-anchor:end;" transform="rotate(-0, 25.828125, 78.694543)" x="25.828125" y="78.694543">25</text>
     </g>
    </g>
    <g id="ytick_3">
     <g id="line2d_43">
      <g>
       <use style="stroke:#000000;stroke-width:0.5;" x="26.828125" xlink:href="#m31b1bb52dc" y="51.642"/>
      </g>
     </g>
     <g id="line2d_44">
      <g>
       <use style="stroke:#000000;stroke-width:0.5;" x="132.848125" xlink:href="#m321b92e54b" y="51.642"/>
      </g>
     </g>
     <g id="text_9">
      <text style="font-family:Arial;font-size:10px;font-style:normal;font-weight:normal;text-anchor:end;" transform="rotate(-0, 25.828125, 55.220906)" x="25.828125" y="55.220906">50</text>
     </g>
    </g>
    <g id="ytick_4">
     <g id="line2d_45">
      <g>
       <use style="stroke:#000000;stroke-width:0.5;" x="26.828125" xlink:href="#m31b1bb52dc" y="28.168364"/>
      </g>
     </g>
     <g id="line2d_46">
      <g>
       <use style="stroke:#000000;stroke-width:0.5;" x="132.848125" xlink:href="#m321b92e54b" y="28.168364"/>
      </g>
     </g>
     <g id="text_10">
      <text style="font-family:Arial;font-size:10px;font-style:normal;font-weight:normal;text-anchor:end;" transform="rotate(-0, 25.828125, 31.74727)" x="25.828125" y="31.74727">75</text>
     </g>
    </g>
    <g id="ytick_5">
     <g id="line2d_47">
      <g>
       <use style="stroke:#000000;stroke-width:0.5;" x="26.828125" xlink:href="#m31b1bb52dc" y="4.694727"/>
      </g>
     </g>
     <g id="line2d_48">
      <g>
       <use style="stroke:#000000;stroke-width:0.5;" x="132.848125" xlink:href="#m321b92e54b" y="4.694727"/>
      </g>
     </g>
     <g id="text_11">
      <text style="font-family:Arial;font-size:10px;font-style:normal;font-weight:normal;text-anchor:end;" transform="rotate(-0, 25.828125, 8.273634)" x="25.828125" y="8.273634">100</text>
     </g>
    </g>
    <g id="ytick_6">
     <g id="line2d_49">
      <defs>
       <path d="M 0 0 
L 2 0 
" id="m9a7d441b62" style="stroke:#000000;stroke-width:0.5;"/>
      </defs>
      <g>
       <use style="stroke:#000000;stroke-width:0.5;" x="26.828125" xlink:href="#m9a7d441b62" y="93.894545"/>
      </g>
     </g>
     <g id="line2d_50">
      <defs>
       <path d="M 0 0 
L -2 0 
" id="mb4586e2360" style="stroke:#000000;stroke-width:0.5;"/>
      </defs>
      <g>
       <use style="stroke:#000000;stroke-width:0.5;" x="132.848125" xlink:href="#mb4586e2360" y="93.894545"/>
      </g>
     </g>
    </g>
    <g id="ytick_7">
     <g id="line2d_51">
      <g>
       <use style="stroke:#000000;stroke-width:0.5;" x="26.828125" xlink:href="#m9a7d441b62" y="89.199818"/>
      </g>
     </g>
     <g id="line2d_52">
      <g>
       <use style="stroke:#000000;stroke-width:0.5;" x="132.848125" xlink:href="#mb4586e2360" y="89.199818"/>
      </g>
     </g>
    </g>
    <g id="ytick_8">
     <g id="line2d_53">
      <g>
       <use style="stroke:#000000;stroke-width:0.5;" x="26.828125" xlink:href="#m9a7d441b62" y="84.505091"/>
      </g>
     </g>
     <g id="line2d_54">
      <g>
       <use style="stroke:#000000;stroke-width:0.5;" x="132.848125" xlink:href="#mb4586e2360" y="84.505091"/>
      </g>
     </g>
    </g>
    <g id="ytick_9">
     <g id="line2d_55">
      <g>
       <use style="stroke:#000000;stroke-width:0.5;" x="26.828125" xlink:href="#m9a7d441b62" y="79.810364"/>
      </g>
     </g>
     <g id="line2d_56">
      <g>
       <use style="stroke:#000000;stroke-width:0.5;" x="132.848125" xlink:href="#mb4586e2360" y="79.810364"/>
      </g>
     </g>
    </g>
    <g id="ytick_10">
     <g id="line2d_57">
      <g>
       <use style="stroke:#000000;stroke-width:0.5;" x="26.828125" xlink:href="#m9a7d441b62" y="70.420909"/>
      </g>
     </g>
     <g id="line2d_58">
      <g>
       <use style="stroke:#000000;stroke-width:0.5;" x="132.848125" xlink:href="#mb4586e2360" y="70.420909"/>
      </g>
     </g>
    </g>
    <g id="ytick_11">
     <g id="line2d_59">
      <g>
       <use style="stroke:#000000;stroke-width:0.5;" x="26.828125" xlink:href="#m9a7d441b62" y="65.726182"/>
      </g>
     </g>
     <g id="line2d_60">
      <g>
       <use style="stroke:#000000;stroke-width:0.5;" x="132.848125" xlink:href="#mb4586e2360" y="65.726182"/>
      </g>
     </g>
    </g>
    <g id="ytick_12">
     <g id="line2d_61">
      <g>
       <use style="stroke:#000000;stroke-width:0.5;" x="26.828125" xlink:href="#m9a7d441b62" y="61.031455"/>
      </g>
     </g>
     <g id="line2d_62">
      <g>
       <use style="stroke:#000000;stroke-width:0.5;" x="132.848125" xlink:href="#mb4586e2360" y="61.031455"/>
      </g>
     </g>
    </g>
    <g id="ytick_13">
     <g id="line2d_63">
      <g>
       <use style="stroke:#000000;stroke-width:0.5;" x="26.828125" xlink:href="#m9a7d441b62" y="56.336727"/>
      </g>
     </g>
     <g id="line2d_64">
      <g>
       <use style="stroke:#000000;stroke-width:0.5;" x="132.848125" xlink:href="#mb4586e2360" y="56.336727"/>
      </g>
     </g>
    </g>
    <g id="ytick_14">
     <g id="line2d_65">
      <g>
       <use style="stroke:#000000;stroke-width:0.5;" x="26.828125" xlink:href="#m9a7d441b62" y="46.947273"/>
      </g>
     </g>
     <g id="line2d_66">
      <g>
       <use style="stroke:#000000;stroke-width:0.5;" x="132.848125" xlink:href="#mb4586e2360" y="46.947273"/>
      </g>
     </g>
    </g>
    <g id="ytick_15">
     <g id="line2d_67">
      <g>
       <use style="stroke:#000000;stroke-width:0.5;" x="26.828125" xlink:href="#m9a7d441b62" y="42.252545"/>
      </g>
     </g>
     <g id="line2d_68">
      <g>
       <use style="stroke:#000000;stroke-width:0.5;" x="132.848125" xlink:href="#mb4586e2360" y="42.252545"/>
      </g>
     </g>
    </g>
    <g id="ytick_16">
     <g id="line2d_69">
      <g>
       <use style="stroke:#000000;stroke-width:0.5;" x="26.828125" xlink:href="#m9a7d441b62" y="37.557818"/>
      </g>
     </g>
     <g id="line2d_70">
      <g>
       <use style="stroke:#000000;stroke-width:0.5;" x="132.848125" xlink:href="#mb4586e2360" y="37.557818"/>
      </g>
     </g>
    </g>
    <g id="ytick_17">
     <g id="line2d_71">
      <g>
       <use style="stroke:#000000;stroke-width:0.5;" x="26.828125" xlink:href="#m9a7d441b62" y="32.863091"/>
      </g>
     </g>
     <g id="line2d_72">
      <g>
       <use style="stroke:#000000;stroke-width:0.5;" x="132.848125" xlink:href="#mb4586e2360" y="32.863091"/>
      </g>
     </g>
    </g>
    <g id="ytick_18">
     <g id="line2d_73">
      <g>
       <use style="stroke:#000000;stroke-width:0.5;" x="26.828125" xlink:href="#m9a7d441b62" y="23.473636"/>
      </g>
     </g>
     <g id="line2d_74">
      <g>
       <use style="stroke:#000000;stroke-width:0.5;" x="132.848125" xlink:href="#mb4586e2360" y="23.473636"/>
      </g>
     </g>
    </g>
    <g id="ytick_19">
     <g id="line2d_75">
      <g>
       <use style="stroke:#000000;stroke-width:0.5;" x="26.828125" xlink:href="#m9a7d441b62" y="18.778909"/>
      </g>
     </g>
     <g id="line2d_76">
      <g>
       <use style="stroke:#000000;stroke-width:0.5;" x="132.848125" xlink:href="#mb4586e2360" y="18.778909"/>
      </g>
     </g>
    </g>
    <g id="ytick_20">
     <g id="line2d_77">
      <g>
       <use style="stroke:#000000;stroke-width:0.5;" x="26.828125" xlink:href="#m9a7d441b62" y="14.084182"/>
      </g>
     </g>
     <g id="line2d_78">
      <g>
       <use style="stroke:#000000;stroke-width:0.5;" x="132.848125" xlink:href="#mb4586e2360" y="14.084182"/>
      </g>
     </g>
    </g>
    <g id="ytick_21">
     <g id="line2d_79">
      <g>
       <use style="stroke:#000000;stroke-width:0.5;" x="26.828125" xlink:href="#m9a7d441b62" y="9.389455"/>
      </g>
     </g>
     <g id="line2d_80">
      <g>
       <use style="stroke:#000000;stroke-width:0.5;" x="132.848125" xlink:href="#mb4586e2360" y="9.389455"/>
      </g>
     </g>
    </g>
    <g id="ytick_22">
     <g id="line2d_81">
      <g>
       <use style="stroke:#000000;stroke-width:0.5;" x="26.828125" xlink:href="#m9a7d441b62" y="0"/>
      </g>
     </g>
     <g id="line2d_82">
      <g>
       <use style="stroke:#000000;stroke-width:0.5;" x="132.848125" xlink:href="#mb4586e2360" y="0"/>
      </g>
     </g>
    </g>
    <g id="text_12">
     <!-- $\it{Δσ}\,  (nS)}$ -->
     <g transform="translate(7.157813 69.292)rotate(-90)">
      <text>
       <tspan style="font-family:DejaVu Sans;font-size:10px;font-style:book;font-weight:book;" x="0 14.802279 31.389193" y="-0.40625">Δ()</tspan>
       <tspan style="font-family:DejaVu Sans;font-size:10px;font-style:oblique;font-weight:oblique;" x="6.84082 18.703646 25.041536" y="-0.40625">σnS</tspan>
      </text>
     </g>
    </g>
   </g>
   <g id="line2d_83">
    <path clip-path="url(#p9be71510b9)" d="M 31.647216 75.123959 
L 32.45722 75.709922 
L 33.267111 83.816506 
L 34.077012 83.754832 
L 34.887019 85.011335 
L 35.696942 84.231205 
L 36.506851 84.623424 
L 37.316785 84.861144 
L 38.126751 80.705383 
L 38.936554 88.789797 
L 39.746487 87.332861 
L 40.556428 88.255476 
L 41.366393 88.760328 
L 42.176331 85.058733 
L 42.9862 86.017501 
L 43.796123 81.816587 
L 44.606067 79.306829 
L 45.416031 81.722974 
L 46.225953 81.240079 
L 47.035845 82.480354 
L 47.845784 81.774519 
L 48.655736 81.958606 
L 49.465645 84.526032 
L 50.275576 80.563201 
L 51.085517 81.309745 
L 51.895457 80.565066 
L 52.705398 78.165108 
L 53.515323 73.475033 
L 55.945094 85.651988 
L 56.754939 86.036003 
L 57.564844 83.728473 
L 58.374818 87.968196 
L 59.18466 86.011054 
L 59.994685 87.271798 
L 60.804628 91.230003 
L 61.6146 89.882868 
L 62.424547 87.418524 
L 63.2345 90.677087 
L 64.044392 88.352123 
L 64.854302 90.737155 
L 65.664271 89.834993 
L 66.474209 86.173698 
L 67.284126 88.884448 
L 68.09409 88.349362 
L 68.904012 89.609542 
L 69.713967 90.32293 
L 70.523851 91.16638 
L 71.333804 95.726662 
L 72.143675 93.861887 
L 72.953649 95.163409 
L 73.763477 95.961589 
L 74.573385 94.54909 
L 75.383402 99.794147 
L 76.193236 100.431283 
L 77.003134 97.482613 
L 77.813073 96.055311 
L 78.62301 99.856409 
L 79.432938 98.589273 
L 80.242828 98.589273 
L 81.052761 99.856409 
L 81.862744 96.055311 
L 82.672638 97.482613 
L 83.482632 100.431283 
L 84.292473 99.794147 
L 85.102432 94.54909 
L 85.912391 95.961589 
L 86.722391 95.163409 
L 87.532256 93.861887 
L 88.342177 95.726662 
L 89.152126 91.16638 
L 89.961987 90.32293 
L 90.771969 89.609542 
L 91.581867 88.349362 
L 92.391851 88.884448 
L 93.201736 86.173698 
L 94.011697 89.834993 
L 94.821609 90.737155 
L 95.631551 88.352123 
L 96.441593 90.677087 
L 97.251595 87.418524 
L 98.061488 89.882868 
L 98.871476 91.230003 
L 99.681375 87.271798 
L 100.491307 86.011054 
L 101.301236 87.968196 
L 102.111204 83.728473 
L 102.921167 86.036003 
L 103.73107 85.651988 
L 106.160883 73.475033 
L 106.97082 78.165108 
L 107.78079 80.565066 
L 108.590716 81.309745 
L 109.400663 80.563201 
L 110.210622 84.526032 
L 111.020544 81.958606 
L 111.830473 81.774519 
L 112.640444 82.480354 
L 113.450334 81.240079 
L 114.260289 81.722974 
L 115.070165 79.306829 
L 115.880086 81.816587 
L 116.690043 86.017501 
L 117.499959 85.058733 
L 118.309862 88.760328 
L 119.119804 88.255476 
L 119.929742 87.332861 
L 120.739666 88.789797 
L 121.549644 80.705383 
L 122.359545 84.861144 
L 123.169456 84.623424 
L 123.979342 84.231205 
L 124.789309 85.011335 
L 125.599266 83.754832 
L 126.409156 83.816506 
L 127.219086 75.709922 
L 128.029034 75.123959 
" style="fill:none;stroke:#e41a1c;stroke-linecap:square;"/>
   </g>
   <g id="line2d_84">
    <path clip-path="url(#p9be71510b9)" d="M 31.647216 81.761261 
L 32.45722 81.82472 
L 33.267111 81.890111 
L 34.077012 81.957533 
L 34.887019 82.027089 
L 35.696942 82.098865 
L 36.506851 82.172975 
L 37.316785 82.249538 
L 38.126751 82.328677 
L 38.936554 82.410505 
L 39.746487 82.495191 
L 40.556428 82.582872 
L 41.366393 82.673711 
L 42.176331 82.767876 
L 42.9862 82.865544 
L 43.796123 82.96693 
L 44.606067 83.072244 
L 45.416031 83.181717 
L 46.225953 83.295588 
L 47.035845 83.414127 
L 47.845784 83.537636 
L 48.655736 83.666427 
L 49.465645 83.800831 
L 50.275576 83.94123 
L 51.085517 84.088027 
L 51.895457 84.241662 
L 52.705398 84.402616 
L 53.515323 84.571414 
L 55.945094 85.130955 
L 56.754939 85.3375 
L 57.564844 85.555439 
L 58.374818 85.785718 
L 59.18466 86.029323 
L 59.994685 86.28751 
L 60.804628 86.561492 
L 61.6146 86.852745 
L 62.424547 87.162861 
L 63.2345 87.493656 
L 64.044392 87.84712 
L 64.854302 88.225549 
L 65.664271 88.631506 
L 66.474209 89.067788 
L 67.284126 89.537571 
L 68.09409 90.044421 
L 68.904012 90.592155 
L 69.713967 91.185016 
L 70.523851 91.827335 
L 71.333804 92.523618 
L 72.143675 93.277669 
L 72.953649 94.092248 
L 73.763477 94.966683 
L 74.573385 95.894662 
L 75.383402 96.857681 
L 76.193236 97.81385 
L 77.003134 98.679023 
L 77.813073 99.294246 
L 78.62301 99.40669 
L 79.432938 98.873887 
L 80.242828 98.672594 
L 81.052761 99.290255 
L 81.862744 99.401872 
L 82.672638 98.922726 
L 83.482632 98.118444 
L 84.292473 97.180325 
L 85.102432 96.213371 
L 85.912391 95.270786 
L 86.722391 94.377179 
L 87.532256 93.542442 
L 88.342177 92.768384 
L 89.152126 92.053217 
L 89.961987 91.393426 
L 90.771969 90.784535 
L 91.581867 90.222263 
L 92.391851 89.70221 
L 93.201736 89.220509 
L 94.011697 88.773412 
L 94.821609 88.357702 
L 95.631551 87.970386 
L 96.441593 87.608802 
L 97.251595 87.270662 
L 98.061488 86.953888 
L 98.871476 86.65653 
L 99.681375 86.37698 
L 100.491307 86.113701 
L 101.301236 85.865364 
L 102.111204 85.630755 
L 102.921167 85.408804 
L 103.73107 85.198552 
L 106.160883 84.629471 
L 106.97082 84.457932 
L 107.78079 84.29442 
L 108.590716 84.138406 
L 109.400663 83.989382 
L 110.210622 83.846894 
L 111.020544 83.710536 
L 111.830473 83.579917 
L 112.640444 83.454682 
L 113.450334 83.334523 
L 114.260289 83.219123 
L 115.070165 83.108225 
L 115.880086 83.001556 
L 116.690043 82.898883 
L 117.499959 82.799996 
L 118.309862 82.704688 
L 119.119804 82.612762 
L 119.929742 82.524049 
L 120.739666 82.438384 
L 121.549644 82.355608 
L 122.359545 82.275589 
L 123.169456 82.198186 
L 123.979342 82.123275 
L 124.789309 82.05073 
L 125.599266 81.980448 
L 126.409156 81.912331 
L 127.219086 81.846271 
L 128.029034 81.78218 
" style="fill:none;stroke:#000000;stroke-linecap:square;"/>
   </g>
   <g id="line2d_85">
    <path clip-path="url(#p9be71510b9)" d="M 31.647226 21.464112 
L 32.457186 12.762122 
L 33.267049 20.406784 
L 34.077015 12.479556 
L 34.88704 15.318953 
L 35.69692 11.116621 
L 36.506825 7.861111 
L 37.316771 8.361485 
L 38.126641 16.150138 
L 38.936575 22.021649 
L 39.74647 18.443313 
L 40.556411 18.875697 
L 41.366381 18.569118 
L 42.1763 26.023781 
L 42.986166 16.287558 
L 43.79614 14.444857 
L 44.60607 18.382589 
L 45.416042 28.249819 
L 46.225935 26.849052 
L 47.03591 17.397693 
L 47.845791 16.807583 
L 48.655706 24.084954 
L 49.465662 20.561856 
L 50.275586 22.867897 
L 51.085549 22.14108 
L 51.895465 26.869227 
L 52.70539 24.252068 
L 53.51529 27.065199 
L 54.325248 23.7364 
L 55.135163 27.617061 
L 55.945054 26.02368 
L 56.754891 24.146966 
L 57.564851 26.84316 
L 58.374842 28.15104 
L 59.184724 26.806036 
L 59.994682 26.549594 
L 60.804633 26.412415 
L 61.614637 33.339667 
L 62.424539 41.165443 
L 63.234497 41.182731 
L 64.0444 48.336426 
L 64.854309 38.81288 
L 65.664295 40.167579 
L 66.474161 41.884662 
L 67.28413 44.170412 
L 68.094082 41.782655 
L 68.904008 47.700875 
L 69.713972 45.668235 
L 70.523843 44.464319 
L 71.333757 43.863105 
L 72.143661 44.917902 
L 72.953681 53.119363 
L 73.763514 54.840344 
L 74.573467 57.487663 
L 75.383426 58.257574 
L 76.193251 66.156204 
L 77.003142 73.950044 
L 77.813067 80.313347 
L 78.623026 89.570875 
L 79.432957 98.589273 
L 80.242869 98.589273 
L 81.052799 89.570875 
L 81.862695 80.313347 
L 82.672671 73.950044 
L 83.482618 66.156204 
L 84.292481 58.257574 
L 85.102459 57.487663 
L 85.912355 54.840344 
L 86.722293 53.119363 
L 87.532256 44.917902 
L 88.342159 43.863105 
L 89.152087 44.464319 
L 89.962028 45.668235 
L 90.771963 47.700875 
L 91.581877 41.782655 
L 92.391834 44.170412 
L 93.201744 41.884662 
L 94.011686 40.167579 
L 94.82165 38.81288 
L 95.63153 48.336426 
L 96.441586 41.182731 
L 97.251591 41.165443 
L 98.061531 33.339667 
L 98.871505 26.412415 
L 99.681389 26.549594 
L 100.491365 26.806036 
L 101.301297 28.15104 
L 102.11121 26.84316 
L 102.921155 24.146966 
L 103.731087 26.02368 
L 104.541006 27.617061 
L 105.350964 23.7364 
L 106.160924 27.065199 
L 106.97082 24.252068 
L 107.780798 26.869227 
L 108.590679 22.14108 
L 109.400675 22.867897 
L 110.210594 20.561856 
L 111.020544 24.084954 
L 111.830464 16.807583 
L 112.640428 17.397693 
L 113.450349 26.849052 
L 114.260234 28.249819 
L 115.070247 18.382589 
L 115.880074 14.444857 
L 116.689961 16.287558 
L 117.499975 26.023781 
L 118.30989 18.569118 
L 119.119811 18.875697 
L 119.929735 18.443313 
L 120.739692 22.021649 
L 121.549607 16.150138 
L 122.359554 8.361485 
L 123.169425 7.861111 
L 123.979381 11.116621 
L 124.789284 15.318953 
L 125.599256 12.479556 
L 126.409168 20.406784 
L 127.219068 12.762122 
L 128.029 21.464112 
" style="fill:none;stroke:#377eb8;stroke-linecap:square;"/>
   </g>
   <g id="line2d_86">
    <path clip-path="url(#p9be71510b9)" d="M 31.647226 17.386592 
L 32.457186 17.535376 
L 33.267049 17.688905 
L 34.077015 17.847449 
L 34.88704 18.011249 
L 35.69692 18.180526 
L 36.506825 18.355598 
L 37.316771 18.536771 
L 38.126641 18.72434 
L 38.936575 18.918685 
L 39.74647 19.120153 
L 40.556411 19.329163 
L 41.366381 19.546144 
L 42.1763 19.771536 
L 42.986166 20.005836 
L 43.79614 20.249631 
L 44.60607 20.503462 
L 45.416042 20.767987 
L 46.225935 21.043855 
L 47.03591 21.331867 
L 47.845791 21.632775 
L 48.655706 21.947513 
L 49.465662 22.277058 
L 50.275586 22.622444 
L 51.085549 22.984873 
L 51.895465 23.36559 
L 52.70539 23.766042 
L 53.51529 24.187779 
L 54.325248 24.632585 
L 55.135163 25.102337 
L 55.945054 25.5992 
L 56.754891 26.125557 
L 57.564851 26.684229 
L 58.374842 27.278198 
L 59.184724 27.91079 
L 59.994682 28.586029 
L 60.804633 29.308275 
L 61.614637 30.082633 
L 62.424539 30.914743 
L 63.234497 31.811435 
L 64.0444 32.780314 
L 64.854309 33.830444 
L 65.664295 34.972462 
L 66.474161 36.218482 
L 67.28413 37.583534 
L 68.094082 39.084959 
L 68.904008 40.743766 
L 69.713972 42.585541 
L 70.523843 44.640958 
L 71.333757 46.948373 
L 72.143661 49.554611 
L 72.953681 52.518438 
L 73.763514 55.911155 
L 74.573467 59.823583 
L 75.383426 64.363686 
L 76.193251 69.653676 
L 77.003142 75.809304 
L 77.813067 82.850858 
L 78.623026 90.419285 
L 79.432957 96.897862 
L 80.242869 98.143122 
L 81.052799 92.849053 
L 81.862695 85.357229 
L 82.672671 78.064687 
L 83.482618 71.605892 
L 84.292481 66.038001 
L 85.102459 61.261527 
L 85.912355 57.153079 
L 86.722293 53.597693 
L 87.532256 50.499687 
L 88.342159 47.781492 
L 89.152087 45.380121 
L 89.962028 43.245178 
L 90.771963 41.335938 
L 91.581877 39.619271 
L 92.391834 38.067893 
L 93.201744 36.659576 
L 94.011686 35.375572 
L 94.82165 34.200338 
L 95.63153 33.120905 
L 96.441586 32.125829 
L 97.251591 31.205927 
L 98.061531 30.353075 
L 98.871505 29.560158 
L 99.681389 28.821224 
L 100.491365 28.130825 
L 101.301297 27.484463 
L 102.11121 26.878058 
L 102.921155 26.307998 
L 103.731087 25.771155 
L 104.541006 25.264718 
L 105.350964 24.786157 
L 106.160924 24.333259 
L 106.97082 23.904054 
L 107.780798 23.496666 
L 108.590679 23.109559 
L 109.400675 22.741167 
L 110.210594 22.390249 
L 111.020544 22.055551 
L 111.830464 21.735998 
L 112.640428 21.430562 
L 113.450349 21.138358 
L 114.260234 20.858546 
L 115.070247 20.5903 
L 115.880074 20.333019 
L 116.689961 20.08597 
L 117.499975 19.848537 
L 118.30989 19.620233 
L 119.119811 19.400513 
L 119.929735 19.188904 
L 120.739692 18.984959 
L 121.549607 18.788286 
L 122.359554 18.598488 
L 123.169425 18.415234 
L 123.979381 18.238157 
L 124.789284 18.066979 
L 125.599256 17.901386 
L 126.409168 17.741135 
L 127.219068 17.585963 
L 128.029 17.435623 
" style="fill:none;stroke:#000000;stroke-linecap:square;"/>
   </g>
   <g id="patch_3">
    <path d="M 26.828125 103.284 
L 26.828125 0 
" style="fill:none;stroke:#000000;stroke-linecap:square;stroke-linejoin:miter;stroke-width:0.5;"/>
   </g>
   <g id="patch_4">
    <path d="M 132.848125 103.284 
L 132.848125 0 
" style="fill:none;stroke:#000000;stroke-linecap:square;stroke-linejoin:miter;stroke-width:0.5;"/>
   </g>
   <g id="patch_5">
    <path d="M 26.828125 103.284 
L 132.848125 103.284 
" style="fill:none;stroke:#000000;stroke-linecap:square;stroke-linejoin:miter;stroke-width:0.5;"/>
   </g>
   <g id="patch_6">
    <path d="M 26.828125 -0 
L 132.848125 -0 
" style="fill:none;stroke:#000000;stroke-linecap:square;stroke-linejoin:miter;stroke-width:0.5;"/>
   </g>
  </g>
 </g>
 <defs>
  <clipPath id="p9be71510b9">
   <rect height="103.284" width="106.02" x="26.828125" y="-0"/>
  </clipPath>
 </defs>
</svg>
