<?xml version="1.0" encoding="utf-8" standalone="no"?>
<!DOCTYPE svg PUBLIC "-//W3C//DTD SVG 1.1//EN"
  "http://www.w3.org/Graphics/SVG/1.1/DTD/svg11.dtd">
<!-- Created with matplotlib (https://matplotlib.org/) -->
<svg height="128.365312pt" version="1.1" viewBox="0 0 145.770028 128.365312" width="145.770028pt" xmlns="http://www.w3.org/2000/svg" xmlns:xlink="http://www.w3.org/1999/xlink">
 <metadata>
  <rdf:RDF xmlns:cc="http://creativecommons.org/ns#" xmlns:dc="http://purl.org/dc/elements/1.1/" xmlns:rdf="http://www.w3.org/1999/02/22-rdf-syntax-ns#">
   <cc:Work>
    <dc:type rdf:resource="http://purl.org/dc/dcmitype/StillImage"/>
    <dc:date>2020-12-08T00:49:06.073565</dc:date>
    <dc:format>image/svg+xml</dc:format>
    <dc:creator>
     <cc:Agent>
      <dc:title>Matplotlib v3.3.0, https://matplotlib.org/</dc:title>
     </cc:Agent>
    </dc:creator>
   </cc:Work>
  </rdf:RDF>
 </metadata>
 <defs>
  <style type="text/css">*{stroke-linecap:butt;stroke-linejoin:round;}</style>
 </defs>
 <g id="figure_1">
  <g id="patch_1">
   <path d="M 0 128.365312 
L 145.770028 128.365312 
L 145.770028 0 
L 0 0 
z
" style="fill:none;"/>
  </g>
  <g id="axes_1">
   <g id="patch_2">
    <path d="M 30.3 108.72 
L 141.9 108.72 
L 141.9 0 
L 30.3 0 
z
" style="fill:none;"/>
   </g>
   <g id="matplotlib.axis_1">
    <g id="xtick_1">
     <g id="line2d_1">
      <defs>
       <path d="M 0 0 
L 0 -3.5 
" id="m0cc3c3da5c" style="stroke:#000000;stroke-width:0.5;"/>
      </defs>
      <g>
       <use style="stroke:#000000;stroke-width:0.5;" x="31.990909" xlink:href="#m0cc3c3da5c" y="108.72"/>
      </g>
     </g>
     <g id="line2d_2">
      <defs>
       <path d="M 0 0 
L 0 3.5 
" id="mc3edf27d86" style="stroke:#000000;stroke-width:0.5;"/>
      </defs>
      <g>
       <use style="stroke:#000000;stroke-width:0.5;" x="31.990909" xlink:href="#mc3edf27d86" y="0"/>
      </g>
     </g>
     <g id="text_1">
      <!-- −80 -->
      <g transform="translate(23.509659 116.877812)scale(0.1 -0.1)">
       <defs>
        <path d="M 52.828125 31.203125 
L 5.5625 31.203125 
L 5.5625 39.40625 
L 52.828125 39.40625 
z
" id="ArialMT-8722"/>
        <path d="M 17.671875 38.8125 
Q 12.203125 40.828125 9.5625 44.53125 
Q 6.9375 48.25 6.9375 53.421875 
Q 6.9375 61.234375 12.546875 66.546875 
Q 18.171875 71.875 27.484375 71.875 
Q 36.859375 71.875 42.578125 66.421875 
Q 48.296875 60.984375 48.296875 53.171875 
Q 48.296875 48.1875 45.671875 44.5 
Q 43.0625 40.828125 37.75 38.8125 
Q 44.34375 36.671875 47.78125 31.875 
Q 51.21875 27.09375 51.21875 20.453125 
Q 51.21875 11.28125 44.71875 5.03125 
Q 38.234375 -1.21875 27.640625 -1.21875 
Q 17.046875 -1.21875 10.546875 5.046875 
Q 4.046875 11.328125 4.046875 20.703125 
Q 4.046875 27.6875 7.59375 32.390625 
Q 11.140625 37.109375 17.671875 38.8125 
z
M 15.921875 53.71875 
Q 15.921875 48.640625 19.1875 45.40625 
Q 22.46875 42.1875 27.6875 42.1875 
Q 32.765625 42.1875 36.015625 45.375 
Q 39.265625 48.578125 39.265625 53.21875 
Q 39.265625 58.0625 35.90625 61.359375 
Q 32.5625 64.65625 27.59375 64.65625 
Q 22.5625 64.65625 19.234375 61.421875 
Q 15.921875 58.203125 15.921875 53.71875 
z
M 13.09375 20.65625 
Q 13.09375 16.890625 14.875 13.375 
Q 16.65625 9.859375 20.171875 7.921875 
Q 23.6875 6 27.734375 6 
Q 34.03125 6 38.125 10.046875 
Q 42.234375 14.109375 42.234375 20.359375 
Q 42.234375 26.703125 38.015625 30.859375 
Q 33.796875 35.015625 27.4375 35.015625 
Q 21.234375 35.015625 17.15625 30.90625 
Q 13.09375 26.8125 13.09375 20.65625 
z
" id="ArialMT-56"/>
        <path d="M 4.15625 35.296875 
Q 4.15625 48 6.765625 55.734375 
Q 9.375 63.484375 14.515625 67.671875 
Q 19.671875 71.875 27.484375 71.875 
Q 33.25 71.875 37.59375 69.546875 
Q 41.9375 67.234375 44.765625 62.859375 
Q 47.609375 58.5 49.21875 52.21875 
Q 50.828125 45.953125 50.828125 35.296875 
Q 50.828125 22.703125 48.234375 14.96875 
Q 45.65625 7.234375 40.5 3 
Q 35.359375 -1.21875 27.484375 -1.21875 
Q 17.140625 -1.21875 11.234375 6.203125 
Q 4.15625 15.140625 4.15625 35.296875 
z
M 13.1875 35.296875 
Q 13.1875 17.671875 17.3125 11.828125 
Q 21.4375 6 27.484375 6 
Q 33.546875 6 37.671875 11.859375 
Q 41.796875 17.71875 41.796875 35.296875 
Q 41.796875 52.984375 37.671875 58.78125 
Q 33.546875 64.59375 27.390625 64.59375 
Q 21.34375 64.59375 17.71875 59.46875 
Q 13.1875 52.9375 13.1875 35.296875 
z
" id="ArialMT-48"/>
       </defs>
       <use xlink:href="#ArialMT-8722"/>
       <use x="58.398438" xlink:href="#ArialMT-56"/>
       <use x="114.013672" xlink:href="#ArialMT-48"/>
      </g>
     </g>
    </g>
    <g id="xtick_2">
     <g id="line2d_3">
      <g>
       <use style="stroke:#000000;stroke-width:0.5;" x="59.045455" xlink:href="#m0cc3c3da5c" y="108.72"/>
      </g>
     </g>
     <g id="line2d_4">
      <g>
       <use style="stroke:#000000;stroke-width:0.5;" x="59.045455" xlink:href="#mc3edf27d86" y="0"/>
      </g>
     </g>
     <g id="text_2">
      <!-- −40 -->
      <g transform="translate(50.564205 116.877812)scale(0.1 -0.1)">
       <defs>
        <path d="M 32.328125 0 
L 32.328125 17.140625 
L 1.265625 17.140625 
L 1.265625 25.203125 
L 33.9375 71.578125 
L 41.109375 71.578125 
L 41.109375 25.203125 
L 50.78125 25.203125 
L 50.78125 17.140625 
L 41.109375 17.140625 
L 41.109375 0 
z
M 32.328125 25.203125 
L 32.328125 57.46875 
L 9.90625 25.203125 
z
" id="ArialMT-52"/>
       </defs>
       <use xlink:href="#ArialMT-8722"/>
       <use x="58.398438" xlink:href="#ArialMT-52"/>
       <use x="114.013672" xlink:href="#ArialMT-48"/>
      </g>
     </g>
    </g>
    <g id="xtick_3">
     <g id="line2d_5">
      <g>
       <use style="stroke:#000000;stroke-width:0.5;" x="86.1" xlink:href="#m0cc3c3da5c" y="108.72"/>
      </g>
     </g>
     <g id="line2d_6">
      <g>
       <use style="stroke:#000000;stroke-width:0.5;" x="86.1" xlink:href="#mc3edf27d86" y="0"/>
      </g>
     </g>
     <g id="text_3">
      <!-- 0 -->
      <g transform="translate(83.319531 116.877812)scale(0.1 -0.1)">
       <use xlink:href="#ArialMT-48"/>
      </g>
     </g>
    </g>
    <g id="xtick_4">
     <g id="line2d_7">
      <g>
       <use style="stroke:#000000;stroke-width:0.5;" x="113.154545" xlink:href="#m0cc3c3da5c" y="108.72"/>
      </g>
     </g>
     <g id="line2d_8">
      <g>
       <use style="stroke:#000000;stroke-width:0.5;" x="113.154545" xlink:href="#mc3edf27d86" y="0"/>
      </g>
     </g>
     <g id="text_4">
      <!-- 40 -->
      <g transform="translate(107.593608 116.877812)scale(0.1 -0.1)">
       <use xlink:href="#ArialMT-52"/>
       <use x="55.615234" xlink:href="#ArialMT-48"/>
      </g>
     </g>
    </g>
    <g id="xtick_5">
     <g id="line2d_9">
      <g>
       <use style="stroke:#000000;stroke-width:0.5;" x="140.209091" xlink:href="#m0cc3c3da5c" y="108.72"/>
      </g>
     </g>
     <g id="line2d_10">
      <g>
       <use style="stroke:#000000;stroke-width:0.5;" x="140.209091" xlink:href="#mc3edf27d86" y="0"/>
      </g>
     </g>
     <g id="text_5">
      <!-- 80 -->
      <g transform="translate(134.648153 116.877812)scale(0.1 -0.1)">
       <use xlink:href="#ArialMT-56"/>
       <use x="55.615234" xlink:href="#ArialMT-48"/>
      </g>
     </g>
    </g>
    <g id="xtick_6">
     <g id="line2d_11">
      <defs>
       <path d="M 0 0 
L 0 -2 
" id="m64e8dcd846" style="stroke:#000000;stroke-width:0.5;"/>
      </defs>
      <g>
       <use style="stroke:#000000;stroke-width:0.5;" x="38.754545" xlink:href="#m64e8dcd846" y="108.72"/>
      </g>
     </g>
     <g id="line2d_12">
      <defs>
       <path d="M 0 0 
L 0 2 
" id="m7188335c77" style="stroke:#000000;stroke-width:0.5;"/>
      </defs>
      <g>
       <use style="stroke:#000000;stroke-width:0.5;" x="38.754545" xlink:href="#m7188335c77" y="0"/>
      </g>
     </g>
    </g>
    <g id="xtick_7">
     <g id="line2d_13">
      <g>
       <use style="stroke:#000000;stroke-width:0.5;" x="45.518182" xlink:href="#m64e8dcd846" y="108.72"/>
      </g>
     </g>
     <g id="line2d_14">
      <g>
       <use style="stroke:#000000;stroke-width:0.5;" x="45.518182" xlink:href="#m7188335c77" y="0"/>
      </g>
     </g>
    </g>
    <g id="xtick_8">
     <g id="line2d_15">
      <g>
       <use style="stroke:#000000;stroke-width:0.5;" x="52.281818" xlink:href="#m64e8dcd846" y="108.72"/>
      </g>
     </g>
     <g id="line2d_16">
      <g>
       <use style="stroke:#000000;stroke-width:0.5;" x="52.281818" xlink:href="#m7188335c77" y="0"/>
      </g>
     </g>
    </g>
    <g id="xtick_9">
     <g id="line2d_17">
      <g>
       <use style="stroke:#000000;stroke-width:0.5;" x="65.809091" xlink:href="#m64e8dcd846" y="108.72"/>
      </g>
     </g>
     <g id="line2d_18">
      <g>
       <use style="stroke:#000000;stroke-width:0.5;" x="65.809091" xlink:href="#m7188335c77" y="0"/>
      </g>
     </g>
    </g>
    <g id="xtick_10">
     <g id="line2d_19">
      <g>
       <use style="stroke:#000000;stroke-width:0.5;" x="72.572727" xlink:href="#m64e8dcd846" y="108.72"/>
      </g>
     </g>
     <g id="line2d_20">
      <g>
       <use style="stroke:#000000;stroke-width:0.5;" x="72.572727" xlink:href="#m7188335c77" y="0"/>
      </g>
     </g>
    </g>
    <g id="xtick_11">
     <g id="line2d_21">
      <g>
       <use style="stroke:#000000;stroke-width:0.5;" x="79.336364" xlink:href="#m64e8dcd846" y="108.72"/>
      </g>
     </g>
     <g id="line2d_22">
      <g>
       <use style="stroke:#000000;stroke-width:0.5;" x="79.336364" xlink:href="#m7188335c77" y="0"/>
      </g>
     </g>
    </g>
    <g id="xtick_12">
     <g id="line2d_23">
      <g>
       <use style="stroke:#000000;stroke-width:0.5;" x="92.863636" xlink:href="#m64e8dcd846" y="108.72"/>
      </g>
     </g>
     <g id="line2d_24">
      <g>
       <use style="stroke:#000000;stroke-width:0.5;" x="92.863636" xlink:href="#m7188335c77" y="0"/>
      </g>
     </g>
    </g>
    <g id="xtick_13">
     <g id="line2d_25">
      <g>
       <use style="stroke:#000000;stroke-width:0.5;" x="99.627273" xlink:href="#m64e8dcd846" y="108.72"/>
      </g>
     </g>
     <g id="line2d_26">
      <g>
       <use style="stroke:#000000;stroke-width:0.5;" x="99.627273" xlink:href="#m7188335c77" y="0"/>
      </g>
     </g>
    </g>
    <g id="xtick_14">
     <g id="line2d_27">
      <g>
       <use style="stroke:#000000;stroke-width:0.5;" x="106.390909" xlink:href="#m64e8dcd846" y="108.72"/>
      </g>
     </g>
     <g id="line2d_28">
      <g>
       <use style="stroke:#000000;stroke-width:0.5;" x="106.390909" xlink:href="#m7188335c77" y="0"/>
      </g>
     </g>
    </g>
    <g id="xtick_15">
     <g id="line2d_29">
      <g>
       <use style="stroke:#000000;stroke-width:0.5;" x="119.918182" xlink:href="#m64e8dcd846" y="108.72"/>
      </g>
     </g>
     <g id="line2d_30">
      <g>
       <use style="stroke:#000000;stroke-width:0.5;" x="119.918182" xlink:href="#m7188335c77" y="0"/>
      </g>
     </g>
    </g>
    <g id="xtick_16">
     <g id="line2d_31">
      <g>
       <use style="stroke:#000000;stroke-width:0.5;" x="126.681818" xlink:href="#m64e8dcd846" y="108.72"/>
      </g>
     </g>
     <g id="line2d_32">
      <g>
       <use style="stroke:#000000;stroke-width:0.5;" x="126.681818" xlink:href="#m7188335c77" y="0"/>
      </g>
     </g>
    </g>
    <g id="xtick_17">
     <g id="line2d_33">
      <g>
       <use style="stroke:#000000;stroke-width:0.5;" x="133.445455" xlink:href="#m64e8dcd846" y="108.72"/>
      </g>
     </g>
     <g id="line2d_34">
      <g>
       <use style="stroke:#000000;stroke-width:0.5;" x="133.445455" xlink:href="#m7188335c77" y="0"/>
      </g>
     </g>
    </g>
    <g id="text_6">
     <!-- $\it{V_{G}}$ (V) -->
     <g transform="translate(71.75 126.165312)scale(0.1 -0.1)">
      <defs>
       <path d="M 20.609375 0 
L 7.8125 72.90625 
L 17.484375 72.90625 
L 28.078125 10.203125 
L 63.484375 72.90625 
L 74.21875 72.90625 
L 32.078125 0 
z
" id="DejaVuSans-Oblique-86"/>
       <path d="M 54.59375 10.890625 
L 58.40625 29.984375 
L 42.1875 29.984375 
L 43.703125 38.09375 
L 69.578125 38.09375 
L 63.28125 6 
Q 56.78125 2.4375 49.109375 0.5 
Q 41.453125 -1.421875 33.6875 -1.421875 
Q 19.96875 -1.421875 12.234375 6.1875 
Q 4.5 13.8125 4.5 27.390625 
Q 4.5 38.671875 9.203125 48.84375 
Q 13.921875 59.03125 22.21875 65.828125 
Q 27.4375 70.0625 33.640625 72.140625 
Q 39.84375 74.21875 47.40625 74.21875 
Q 54.25 74.21875 60.515625 72.484375 
Q 66.796875 70.75 72.515625 67.28125 
L 70.515625 56.78125 
Q 66.109375 61.375 60.203125 63.796875 
Q 54.296875 66.21875 47.609375 66.21875 
Q 39.84375 66.21875 33.9375 63.25 
Q 28.03125 60.296875 23.390625 54.109375 
Q 19.4375 48.828125 17.15625 41.671875 
Q 14.890625 34.515625 14.890625 27.09375 
Q 14.890625 16.890625 20.109375 11.734375 
Q 25.34375 6.59375 35.6875 6.59375 
Q 40.875 6.59375 45.703125 7.6875 
Q 50.53125 8.796875 54.59375 10.890625 
z
" id="DejaVuSans-Oblique-71"/>
       <path id="ArialMT-32"/>
       <path d="M 23.390625 -21.046875 
Q 16.109375 -11.859375 11.078125 0.4375 
Q 6.0625 12.75 6.0625 25.921875 
Q 6.0625 37.546875 9.8125 48.1875 
Q 14.203125 60.546875 23.390625 72.796875 
L 29.6875 72.796875 
Q 23.78125 62.640625 21.875 58.296875 
Q 18.890625 51.5625 17.1875 44.234375 
Q 15.09375 35.109375 15.09375 25.875 
Q 15.09375 2.390625 29.6875 -21.046875 
z
" id="ArialMT-40"/>
       <path d="M 28.171875 0 
L 0.4375 71.578125 
L 10.6875 71.578125 
L 29.296875 19.578125 
Q 31.546875 13.328125 33.0625 7.859375 
Q 34.71875 13.71875 36.921875 19.578125 
L 56.25 71.578125 
L 65.921875 71.578125 
L 37.890625 0 
z
" id="ArialMT-86"/>
       <path d="M 12.359375 -21.046875 
L 6.0625 -21.046875 
Q 20.65625 2.390625 20.65625 25.875 
Q 20.65625 35.0625 18.5625 44.09375 
Q 16.890625 51.421875 13.921875 58.15625 
Q 12.015625 62.546875 6.0625 72.796875 
L 12.359375 72.796875 
Q 21.53125 60.546875 25.921875 48.1875 
Q 29.6875 37.546875 29.6875 25.921875 
Q 29.6875 12.75 24.625 0.4375 
Q 19.578125 -11.859375 12.359375 -21.046875 
z
" id="ArialMT-41"/>
      </defs>
      <use transform="translate(0 0.09375)" xlink:href="#DejaVuSans-Oblique-86"/>
      <use transform="translate(68.408203 -16.3125)scale(0.7)" xlink:href="#DejaVuSans-Oblique-71"/>
      <use transform="translate(125.385742 0.09375)" xlink:href="#ArialMT-32"/>
      <use transform="translate(153.168945 0.09375)" xlink:href="#ArialMT-40"/>
      <use transform="translate(186.469727 0.09375)" xlink:href="#ArialMT-86"/>
      <use transform="translate(253.168945 0.09375)" xlink:href="#ArialMT-41"/>
     </g>
    </g>
   </g>
   <g id="matplotlib.axis_2">
    <g id="ytick_1">
     <g id="line2d_35">
      <defs>
       <path d="M 0 0 
L 3.5 0 
" id="m5f088242a7" style="stroke:#000000;stroke-width:0.5;"/>
      </defs>
      <g>
       <use style="stroke:#000000;stroke-width:0.5;" x="30.3" xlink:href="#m5f088242a7" y="91.925043"/>
      </g>
     </g>
     <g id="line2d_36">
      <defs>
       <path d="M 0 0 
L -3.5 0 
" id="m0a647ec8c1" style="stroke:#000000;stroke-width:0.5;"/>
      </defs>
      <g>
       <use style="stroke:#000000;stroke-width:0.5;" x="141.9" xlink:href="#m0a647ec8c1" y="91.925043"/>
      </g>
     </g>
     <g id="text_7">
      <!-- $\mathdefault{10^{-9}}$ -->
      <g transform="translate(9.5 97.081293)scale(0.1 -0.1)">
       <defs>
        <path d="M 37.25 0 
L 28.46875 0 
L 28.46875 56 
Q 25.296875 52.984375 20.140625 49.953125 
Q 14.984375 46.921875 10.890625 45.40625 
L 10.890625 53.90625 
Q 18.265625 57.375 23.78125 62.296875 
Q 29.296875 67.234375 31.59375 71.875 
L 37.25 71.875 
z
" id="ArialMT-49"/>
        <path d="M 5.46875 16.546875 
L 13.921875 17.328125 
Q 14.984375 11.375 18.015625 8.6875 
Q 21.046875 6 25.78125 6 
Q 29.828125 6 32.875 7.859375 
Q 35.9375 9.71875 37.890625 12.8125 
Q 39.84375 15.921875 41.15625 21.1875 
Q 42.484375 26.46875 42.484375 31.9375 
Q 42.484375 32.515625 42.4375 33.6875 
Q 39.796875 29.5 35.234375 26.875 
Q 30.671875 24.265625 25.34375 24.265625 
Q 16.453125 24.265625 10.296875 30.703125 
Q 4.15625 37.15625 4.15625 47.703125 
Q 4.15625 58.59375 10.578125 65.234375 
Q 17 71.875 26.65625 71.875 
Q 33.640625 71.875 39.421875 68.109375 
Q 45.21875 64.359375 48.21875 57.390625 
Q 51.21875 50.4375 51.21875 37.25 
Q 51.21875 23.53125 48.234375 15.40625 
Q 45.265625 7.28125 39.375 3.03125 
Q 33.5 -1.21875 25.59375 -1.21875 
Q 17.1875 -1.21875 11.859375 3.4375 
Q 6.546875 8.109375 5.46875 16.546875 
z
M 41.453125 48.140625 
Q 41.453125 55.71875 37.421875 60.15625 
Q 33.40625 64.59375 27.734375 64.59375 
Q 21.875 64.59375 17.53125 59.8125 
Q 13.1875 55.03125 13.1875 47.40625 
Q 13.1875 40.578125 17.3125 36.296875 
Q 21.4375 32.03125 27.484375 32.03125 
Q 33.59375 32.03125 37.515625 36.296875 
Q 41.453125 40.578125 41.453125 48.140625 
z
" id="ArialMT-57"/>
       </defs>
       <use transform="translate(0 0.99375)" xlink:href="#ArialMT-49"/>
       <use transform="translate(55.615234 0.99375)" xlink:href="#ArialMT-48"/>
       <use transform="translate(112.972813 70.6875)scale(0.7)" xlink:href="#ArialMT-8722"/>
       <use transform="translate(153.851719 70.6875)scale(0.7)" xlink:href="#ArialMT-57"/>
      </g>
     </g>
    </g>
    <g id="ytick_2">
     <g id="line2d_37">
      <g>
       <use style="stroke:#000000;stroke-width:0.5;" x="30.3" xlink:href="#m5f088242a7" y="54.959618"/>
      </g>
     </g>
     <g id="line2d_38">
      <g>
       <use style="stroke:#000000;stroke-width:0.5;" x="141.9" xlink:href="#m0a647ec8c1" y="54.959618"/>
      </g>
     </g>
     <g id="text_8">
      <!-- $\mathdefault{10^{-8}}$ -->
      <g transform="translate(9.5 60.115868)scale(0.1 -0.1)">
       <use transform="translate(0 0.99375)" xlink:href="#ArialMT-49"/>
       <use transform="translate(55.615234 0.99375)" xlink:href="#ArialMT-48"/>
       <use transform="translate(112.972813 70.6875)scale(0.7)" xlink:href="#ArialMT-8722"/>
       <use transform="translate(153.851719 70.6875)scale(0.7)" xlink:href="#ArialMT-56"/>
      </g>
     </g>
    </g>
    <g id="ytick_3">
     <g id="line2d_39">
      <g>
       <use style="stroke:#000000;stroke-width:0.5;" x="30.3" xlink:href="#m5f088242a7" y="17.994193"/>
      </g>
     </g>
     <g id="line2d_40">
      <g>
       <use style="stroke:#000000;stroke-width:0.5;" x="141.9" xlink:href="#m0a647ec8c1" y="17.994193"/>
      </g>
     </g>
     <g id="text_9">
      <!-- $\mathdefault{10^{-7}}$ -->
      <g transform="translate(9.5 23.100443)scale(0.1 -0.1)">
       <defs>
        <path d="M 4.734375 62.203125 
L 4.734375 70.65625 
L 51.078125 70.65625 
L 51.078125 63.8125 
Q 44.234375 56.546875 37.515625 44.484375 
Q 30.8125 32.421875 27.15625 19.671875 
Q 24.515625 10.6875 23.78125 0 
L 14.75 0 
Q 14.890625 8.453125 18.0625 20.40625 
Q 21.234375 32.375 27.171875 43.484375 
Q 33.109375 54.59375 39.796875 62.203125 
z
" id="ArialMT-55"/>
       </defs>
       <use transform="translate(0 0.846875)" xlink:href="#ArialMT-49"/>
       <use transform="translate(55.615234 0.846875)" xlink:href="#ArialMT-48"/>
       <use transform="translate(112.972813 70.540625)scale(0.7)" xlink:href="#ArialMT-8722"/>
       <use transform="translate(153.851719 70.540625)scale(0.7)" xlink:href="#ArialMT-55"/>
      </g>
     </g>
    </g>
    <g id="ytick_4">
     <g id="line2d_41">
      <defs>
       <path d="M 0 0 
L 2 0 
" id="m8ba0606388" style="stroke:#000000;stroke-width:0.5;"/>
      </defs>
      <g>
       <use style="stroke:#000000;stroke-width:0.5;" x="30.3" xlink:href="#m8ba0606388" y="106.635064"/>
      </g>
     </g>
     <g id="line2d_42">
      <defs>
       <path d="M 0 0 
L -2 0 
" id="mb9a3ad50b3" style="stroke:#000000;stroke-width:0.5;"/>
      </defs>
      <g>
       <use style="stroke:#000000;stroke-width:0.5;" x="141.9" xlink:href="#mb9a3ad50b3" y="106.635064"/>
      </g>
     </g>
    </g>
    <g id="ytick_5">
     <g id="line2d_43">
      <g>
       <use style="stroke:#000000;stroke-width:0.5;" x="30.3" xlink:href="#m8ba0606388" y="103.052745"/>
      </g>
     </g>
     <g id="line2d_44">
      <g>
       <use style="stroke:#000000;stroke-width:0.5;" x="141.9" xlink:href="#mb9a3ad50b3" y="103.052745"/>
      </g>
     </g>
    </g>
    <g id="ytick_6">
     <g id="line2d_45">
      <g>
       <use style="stroke:#000000;stroke-width:0.5;" x="30.3" xlink:href="#m8ba0606388" y="100.125776"/>
      </g>
     </g>
     <g id="line2d_46">
      <g>
       <use style="stroke:#000000;stroke-width:0.5;" x="141.9" xlink:href="#mb9a3ad50b3" y="100.125776"/>
      </g>
     </g>
    </g>
    <g id="ytick_7">
     <g id="line2d_47">
      <g>
       <use style="stroke:#000000;stroke-width:0.5;" x="30.3" xlink:href="#m8ba0606388" y="97.65106"/>
      </g>
     </g>
     <g id="line2d_48">
      <g>
       <use style="stroke:#000000;stroke-width:0.5;" x="141.9" xlink:href="#mb9a3ad50b3" y="97.65106"/>
      </g>
     </g>
    </g>
    <g id="ytick_8">
     <g id="line2d_49">
      <g>
       <use style="stroke:#000000;stroke-width:0.5;" x="30.3" xlink:href="#m8ba0606388" y="95.507363"/>
      </g>
     </g>
     <g id="line2d_50">
      <g>
       <use style="stroke:#000000;stroke-width:0.5;" x="141.9" xlink:href="#mb9a3ad50b3" y="95.507363"/>
      </g>
     </g>
    </g>
    <g id="ytick_9">
     <g id="line2d_51">
      <g>
       <use style="stroke:#000000;stroke-width:0.5;" x="30.3" xlink:href="#m8ba0606388" y="93.616488"/>
      </g>
     </g>
     <g id="line2d_52">
      <g>
       <use style="stroke:#000000;stroke-width:0.5;" x="141.9" xlink:href="#mb9a3ad50b3" y="93.616488"/>
      </g>
     </g>
    </g>
    <g id="ytick_10">
     <g id="line2d_53">
      <g>
       <use style="stroke:#000000;stroke-width:0.5;" x="30.3" xlink:href="#m8ba0606388" y="80.797341"/>
      </g>
     </g>
     <g id="line2d_54">
      <g>
       <use style="stroke:#000000;stroke-width:0.5;" x="141.9" xlink:href="#mb9a3ad50b3" y="80.797341"/>
      </g>
     </g>
    </g>
    <g id="ytick_11">
     <g id="line2d_55">
      <g>
       <use style="stroke:#000000;stroke-width:0.5;" x="30.3" xlink:href="#m8ba0606388" y="74.288053"/>
      </g>
     </g>
     <g id="line2d_56">
      <g>
       <use style="stroke:#000000;stroke-width:0.5;" x="141.9" xlink:href="#mb9a3ad50b3" y="74.288053"/>
      </g>
     </g>
    </g>
    <g id="ytick_12">
     <g id="line2d_57">
      <g>
       <use style="stroke:#000000;stroke-width:0.5;" x="30.3" xlink:href="#m8ba0606388" y="69.66964"/>
      </g>
     </g>
     <g id="line2d_58">
      <g>
       <use style="stroke:#000000;stroke-width:0.5;" x="141.9" xlink:href="#mb9a3ad50b3" y="69.66964"/>
      </g>
     </g>
    </g>
    <g id="ytick_13">
     <g id="line2d_59">
      <g>
       <use style="stroke:#000000;stroke-width:0.5;" x="30.3" xlink:href="#m8ba0606388" y="66.08732"/>
      </g>
     </g>
     <g id="line2d_60">
      <g>
       <use style="stroke:#000000;stroke-width:0.5;" x="141.9" xlink:href="#mb9a3ad50b3" y="66.08732"/>
      </g>
     </g>
    </g>
    <g id="ytick_14">
     <g id="line2d_61">
      <g>
       <use style="stroke:#000000;stroke-width:0.5;" x="30.3" xlink:href="#m8ba0606388" y="63.160351"/>
      </g>
     </g>
     <g id="line2d_62">
      <g>
       <use style="stroke:#000000;stroke-width:0.5;" x="141.9" xlink:href="#mb9a3ad50b3" y="63.160351"/>
      </g>
     </g>
    </g>
    <g id="ytick_15">
     <g id="line2d_63">
      <g>
       <use style="stroke:#000000;stroke-width:0.5;" x="30.3" xlink:href="#m8ba0606388" y="60.685635"/>
      </g>
     </g>
     <g id="line2d_64">
      <g>
       <use style="stroke:#000000;stroke-width:0.5;" x="141.9" xlink:href="#mb9a3ad50b3" y="60.685635"/>
      </g>
     </g>
    </g>
    <g id="ytick_16">
     <g id="line2d_65">
      <g>
       <use style="stroke:#000000;stroke-width:0.5;" x="30.3" xlink:href="#m8ba0606388" y="58.541938"/>
      </g>
     </g>
     <g id="line2d_66">
      <g>
       <use style="stroke:#000000;stroke-width:0.5;" x="141.9" xlink:href="#mb9a3ad50b3" y="58.541938"/>
      </g>
     </g>
    </g>
    <g id="ytick_17">
     <g id="line2d_67">
      <g>
       <use style="stroke:#000000;stroke-width:0.5;" x="30.3" xlink:href="#m8ba0606388" y="56.651063"/>
      </g>
     </g>
     <g id="line2d_68">
      <g>
       <use style="stroke:#000000;stroke-width:0.5;" x="141.9" xlink:href="#mb9a3ad50b3" y="56.651063"/>
      </g>
     </g>
    </g>
    <g id="ytick_18">
     <g id="line2d_69">
      <g>
       <use style="stroke:#000000;stroke-width:0.5;" x="30.3" xlink:href="#m8ba0606388" y="43.831916"/>
      </g>
     </g>
     <g id="line2d_70">
      <g>
       <use style="stroke:#000000;stroke-width:0.5;" x="141.9" xlink:href="#mb9a3ad50b3" y="43.831916"/>
      </g>
     </g>
    </g>
    <g id="ytick_19">
     <g id="line2d_71">
      <g>
       <use style="stroke:#000000;stroke-width:0.5;" x="30.3" xlink:href="#m8ba0606388" y="37.322628"/>
      </g>
     </g>
     <g id="line2d_72">
      <g>
       <use style="stroke:#000000;stroke-width:0.5;" x="141.9" xlink:href="#mb9a3ad50b3" y="37.322628"/>
      </g>
     </g>
    </g>
    <g id="ytick_20">
     <g id="line2d_73">
      <g>
       <use style="stroke:#000000;stroke-width:0.5;" x="30.3" xlink:href="#m8ba0606388" y="32.704215"/>
      </g>
     </g>
     <g id="line2d_74">
      <g>
       <use style="stroke:#000000;stroke-width:0.5;" x="141.9" xlink:href="#mb9a3ad50b3" y="32.704215"/>
      </g>
     </g>
    </g>
    <g id="ytick_21">
     <g id="line2d_75">
      <g>
       <use style="stroke:#000000;stroke-width:0.5;" x="30.3" xlink:href="#m8ba0606388" y="29.121895"/>
      </g>
     </g>
     <g id="line2d_76">
      <g>
       <use style="stroke:#000000;stroke-width:0.5;" x="141.9" xlink:href="#mb9a3ad50b3" y="29.121895"/>
      </g>
     </g>
    </g>
    <g id="ytick_22">
     <g id="line2d_77">
      <g>
       <use style="stroke:#000000;stroke-width:0.5;" x="30.3" xlink:href="#m8ba0606388" y="26.194927"/>
      </g>
     </g>
     <g id="line2d_78">
      <g>
       <use style="stroke:#000000;stroke-width:0.5;" x="141.9" xlink:href="#mb9a3ad50b3" y="26.194927"/>
      </g>
     </g>
    </g>
    <g id="ytick_23">
     <g id="line2d_79">
      <g>
       <use style="stroke:#000000;stroke-width:0.5;" x="30.3" xlink:href="#m8ba0606388" y="23.72021"/>
      </g>
     </g>
     <g id="line2d_80">
      <g>
       <use style="stroke:#000000;stroke-width:0.5;" x="141.9" xlink:href="#mb9a3ad50b3" y="23.72021"/>
      </g>
     </g>
    </g>
    <g id="ytick_24">
     <g id="line2d_81">
      <g>
       <use style="stroke:#000000;stroke-width:0.5;" x="30.3" xlink:href="#m8ba0606388" y="21.576513"/>
      </g>
     </g>
     <g id="line2d_82">
      <g>
       <use style="stroke:#000000;stroke-width:0.5;" x="141.9" xlink:href="#mb9a3ad50b3" y="21.576513"/>
      </g>
     </g>
    </g>
    <g id="ytick_25">
     <g id="line2d_83">
      <g>
       <use style="stroke:#000000;stroke-width:0.5;" x="30.3" xlink:href="#m8ba0606388" y="19.685638"/>
      </g>
     </g>
     <g id="line2d_84">
      <g>
       <use style="stroke:#000000;stroke-width:0.5;" x="141.9" xlink:href="#mb9a3ad50b3" y="19.685638"/>
      </g>
     </g>
    </g>
    <g id="ytick_26">
     <g id="line2d_85">
      <g>
       <use style="stroke:#000000;stroke-width:0.5;" x="30.3" xlink:href="#m8ba0606388" y="6.866492"/>
      </g>
     </g>
     <g id="line2d_86">
      <g>
       <use style="stroke:#000000;stroke-width:0.5;" x="141.9" xlink:href="#mb9a3ad50b3" y="6.866492"/>
      </g>
     </g>
    </g>
    <g id="ytick_27">
     <g id="line2d_87">
      <g>
       <use style="stroke:#000000;stroke-width:0.5;" x="30.3" xlink:href="#m8ba0606388" y="0.357203"/>
      </g>
     </g>
     <g id="line2d_88">
      <g>
       <use style="stroke:#000000;stroke-width:0.5;" x="141.9" xlink:href="#mb9a3ad50b3" y="0.357203"/>
      </g>
     </g>
    </g>
    <g id="text_10">
     <!-- $\it{I_{D}}$ (A) -->
     <g transform="translate(7.3 66.76)rotate(-90)scale(0.1 -0.1)">
      <defs>
       <path d="M 16.890625 72.90625 
L 26.8125 72.90625 
L 12.59375 0 
L 2.6875 0 
z
" id="DejaVuSans-Oblique-73"/>
       <path d="M 16.890625 72.90625 
L 38.09375 72.90625 
Q 54.984375 72.90625 63.59375 65.75 
Q 72.21875 58.59375 72.21875 44.484375 
Q 72.21875 35.15625 68.9375 26.53125 
Q 65.671875 17.921875 59.90625 12.015625 
Q 54.109375 5.953125 45.171875 2.96875 
Q 36.234375 0 24.03125 0 
L 2.6875 0 
z
M 25.203125 64.796875 
L 14.203125 8.109375 
L 27.09375 8.109375 
Q 43.65625 8.109375 52.734375 17.625 
Q 61.8125 27.15625 61.8125 44.484375 
Q 61.8125 54.984375 55.953125 59.890625 
Q 50.09375 64.796875 37.59375 64.796875 
z
" id="DejaVuSans-Oblique-68"/>
       <path d="M -0.140625 0 
L 27.34375 71.578125 
L 37.546875 71.578125 
L 66.84375 0 
L 56.0625 0 
L 47.703125 21.6875 
L 17.78125 21.6875 
L 9.90625 0 
z
M 20.515625 29.390625 
L 44.78125 29.390625 
L 37.3125 49.21875 
Q 33.890625 58.25 32.234375 64.0625 
Q 30.859375 57.171875 28.375 50.390625 
z
" id="ArialMT-65"/>
      </defs>
      <use transform="translate(0 0.09375)" xlink:href="#DejaVuSans-Oblique-73"/>
      <use transform="translate(29.492188 -16.3125)scale(0.7)" xlink:href="#DejaVuSans-Oblique-68"/>
      <use transform="translate(86.12793 0.09375)" xlink:href="#ArialMT-32"/>
      <use transform="translate(113.911133 0.09375)" xlink:href="#ArialMT-40"/>
      <use transform="translate(147.211914 0.09375)" xlink:href="#ArialMT-65"/>
      <use transform="translate(213.911133 0.09375)" xlink:href="#ArialMT-41"/>
     </g>
    </g>
   </g>
   <g id="line2d_89">
    <path clip-path="url(#pafd7c2141b)" d="M 35.372727 82.390751 
L 37.063636 70.261019 
L 38.754545 64.688517 
L 40.445455 61.456023 
L 42.136364 53.620417 
L 43.827273 49.425485 
L 45.518182 46.496154 
L 47.209091 44.525585 
L 48.9 42.607117 
L 50.590909 40.733508 
L 52.281818 38.469879 
L 53.972727 34.479112 
L 55.663636 34.494969 
L 57.354545 32.642099 
L 59.045455 31.030596 
L 60.736364 29.707891 
L 62.427273 28.191372 
L 64.118182 26.9126 
L 65.809091 25.788254 
L 67.5 24.754708 
L 69.190909 23.920488 
L 70.881818 23.556769 
L 72.572727 22.030412 
L 74.263636 17.962048 
L 75.954545 17.465875 
L 77.645455 16.142316 
L 79.336364 15.668096 
L 81.027273 15.03539 
L 82.718182 13.276577 
L 84.409091 13.343122 
L 86.1 13.268603 
L 87.790909 12.937243 
L 89.481818 12.1293 
L 91.172727 11.593231 
L 92.863636 10.201339 
L 94.554545 9.714075 
L 96.245455 9.137723 
L 97.936364 8.459848 
L 99.627273 8.301205 
L 101.318182 8.136161 
L 103.009091 7.869847 
L 104.7 7.501046 
L 106.390909 7.295392 
L 108.081818 7.030684 
L 109.772727 7.130077 
L 111.463636 6.437958 
L 113.154545 6.836212 
L 114.845455 6.484118 
L 116.536364 6.030185 
L 118.227273 6.070238 
L 119.918182 5.712095 
L 121.609091 5.534163 
L 123.3 5.379572 
L 124.990909 5.621861 
L 126.681818 5.417315 
L 128.372727 5.345745 
L 130.063636 5.274888 
L 131.754545 5.36878 
L 133.445455 5.175429 
L 135.136364 4.941818 
L 136.827273 5.172528 
L 135.136364 11.165866 
L 133.445455 16.948145 
L 131.754545 24.717741 
L 130.063636 28.055965 
L 128.372727 31.337213 
L 126.681818 31.336051 
L 124.990909 36.682266 
L 123.3 40.227608 
L 121.609091 41.107695 
L 119.918182 45.78922 
L 118.227273 47.722707 
L 116.536364 48.643134 
L 114.845455 52.683773 
L 113.154545 54.785904 
L 111.463636 55.554479 
L 109.772727 63.281204 
L 108.081818 64.219277 
L 106.390909 67.427568 
L 104.7 68.919219 
L 103.009091 71.792337 
L 101.318182 70.165766 
L 99.627273 73.626743 
L 97.936364 78.494975 
L 96.245455 75.325333 
L 94.554545 77.957599 
L 92.863636 79.326979 
L 91.172727 84.968435 
L 89.481818 79.474478 
L 87.790909 80.949215 
L 86.1 83.684934 
L 84.409091 83.73709 
L 82.718182 82.823471 
L 81.027273 83.846023 
L 79.336364 86.368283 
L 77.645455 85.77919 
L 75.954545 88.152185 
L 74.263636 92.368548 
L 72.572727 87.398783 
L 70.881818 93.77412 
L 69.190909 94.421719 
L 67.5 92.171898 
L 65.809091 90.467696 
L 64.118182 89.742922 
L 62.427273 95.362137 
L 60.736364 94.393948 
L 59.045455 94.697519 
L 57.354545 93.887305 
L 55.663636 90.342927 
L 53.972727 95.457641 
L 52.281818 94.342258 
L 50.590909 95.913123 
L 48.9 92.874314 
L 47.209091 95.019 
L 45.518182 95.35434 
L 43.827273 98.616728 
L 42.136364 94.057655 
L 40.445455 103.778182 
L 38.754545 101.916947 
L 37.063636 95.869604 
L 35.372727 97.148957 
" style="fill:none;stroke:#377eb8;stroke-linecap:square;stroke-width:1.5;"/>
    <defs>
     <path d="M 0 0.75 
C 0.198902 0.75 0.389685 0.670975 0.53033 0.53033 
C 0.670975 0.389685 0.75 0.198902 0.75 0 
C 0.75 -0.198902 0.670975 -0.389685 0.53033 -0.53033 
C 0.389685 -0.670975 0.198902 -0.75 0 -0.75 
C -0.198902 -0.75 -0.389685 -0.670975 -0.53033 -0.53033 
C -0.670975 -0.389685 -0.75 -0.198902 -0.75 0 
C -0.75 0.198902 -0.670975 0.389685 -0.53033 0.53033 
C -0.389685 0.670975 -0.198902 0.75 0 0.75 
z
" id="m34dbbcee52" style="stroke:#377eb8;"/>
    </defs>
    <g clip-path="url(#pafd7c2141b)">
     <use style="fill:#377eb8;stroke:#377eb8;" x="35.372727" xlink:href="#m34dbbcee52" y="82.390751"/>
     <use style="fill:#377eb8;stroke:#377eb8;" x="37.063636" xlink:href="#m34dbbcee52" y="70.261019"/>
     <use style="fill:#377eb8;stroke:#377eb8;" x="38.754545" xlink:href="#m34dbbcee52" y="64.688517"/>
     <use style="fill:#377eb8;stroke:#377eb8;" x="40.445455" xlink:href="#m34dbbcee52" y="61.456023"/>
     <use style="fill:#377eb8;stroke:#377eb8;" x="42.136364" xlink:href="#m34dbbcee52" y="53.620417"/>
     <use style="fill:#377eb8;stroke:#377eb8;" x="43.827273" xlink:href="#m34dbbcee52" y="49.425485"/>
     <use style="fill:#377eb8;stroke:#377eb8;" x="45.518182" xlink:href="#m34dbbcee52" y="46.496154"/>
     <use style="fill:#377eb8;stroke:#377eb8;" x="47.209091" xlink:href="#m34dbbcee52" y="44.525585"/>
     <use style="fill:#377eb8;stroke:#377eb8;" x="48.9" xlink:href="#m34dbbcee52" y="42.607117"/>
     <use style="fill:#377eb8;stroke:#377eb8;" x="50.590909" xlink:href="#m34dbbcee52" y="40.733508"/>
     <use style="fill:#377eb8;stroke:#377eb8;" x="52.281818" xlink:href="#m34dbbcee52" y="38.469879"/>
     <use style="fill:#377eb8;stroke:#377eb8;" x="53.972727" xlink:href="#m34dbbcee52" y="34.479112"/>
     <use style="fill:#377eb8;stroke:#377eb8;" x="55.663636" xlink:href="#m34dbbcee52" y="34.494969"/>
     <use style="fill:#377eb8;stroke:#377eb8;" x="57.354545" xlink:href="#m34dbbcee52" y="32.642099"/>
     <use style="fill:#377eb8;stroke:#377eb8;" x="59.045455" xlink:href="#m34dbbcee52" y="31.030596"/>
     <use style="fill:#377eb8;stroke:#377eb8;" x="60.736364" xlink:href="#m34dbbcee52" y="29.707891"/>
     <use style="fill:#377eb8;stroke:#377eb8;" x="62.427273" xlink:href="#m34dbbcee52" y="28.191372"/>
     <use style="fill:#377eb8;stroke:#377eb8;" x="64.118182" xlink:href="#m34dbbcee52" y="26.9126"/>
     <use style="fill:#377eb8;stroke:#377eb8;" x="65.809091" xlink:href="#m34dbbcee52" y="25.788254"/>
     <use style="fill:#377eb8;stroke:#377eb8;" x="67.5" xlink:href="#m34dbbcee52" y="24.754708"/>
     <use style="fill:#377eb8;stroke:#377eb8;" x="69.190909" xlink:href="#m34dbbcee52" y="23.920488"/>
     <use style="fill:#377eb8;stroke:#377eb8;" x="70.881818" xlink:href="#m34dbbcee52" y="23.556769"/>
     <use style="fill:#377eb8;stroke:#377eb8;" x="72.572727" xlink:href="#m34dbbcee52" y="22.030412"/>
     <use style="fill:#377eb8;stroke:#377eb8;" x="74.263636" xlink:href="#m34dbbcee52" y="17.962048"/>
     <use style="fill:#377eb8;stroke:#377eb8;" x="75.954545" xlink:href="#m34dbbcee52" y="17.465875"/>
     <use style="fill:#377eb8;stroke:#377eb8;" x="77.645455" xlink:href="#m34dbbcee52" y="16.142316"/>
     <use style="fill:#377eb8;stroke:#377eb8;" x="79.336364" xlink:href="#m34dbbcee52" y="15.668096"/>
     <use style="fill:#377eb8;stroke:#377eb8;" x="81.027273" xlink:href="#m34dbbcee52" y="15.03539"/>
     <use style="fill:#377eb8;stroke:#377eb8;" x="82.718182" xlink:href="#m34dbbcee52" y="13.276577"/>
     <use style="fill:#377eb8;stroke:#377eb8;" x="84.409091" xlink:href="#m34dbbcee52" y="13.343122"/>
     <use style="fill:#377eb8;stroke:#377eb8;" x="86.1" xlink:href="#m34dbbcee52" y="13.268603"/>
     <use style="fill:#377eb8;stroke:#377eb8;" x="87.790909" xlink:href="#m34dbbcee52" y="12.937243"/>
     <use style="fill:#377eb8;stroke:#377eb8;" x="89.481818" xlink:href="#m34dbbcee52" y="12.1293"/>
     <use style="fill:#377eb8;stroke:#377eb8;" x="91.172727" xlink:href="#m34dbbcee52" y="11.593231"/>
     <use style="fill:#377eb8;stroke:#377eb8;" x="92.863636" xlink:href="#m34dbbcee52" y="10.201339"/>
     <use style="fill:#377eb8;stroke:#377eb8;" x="94.554545" xlink:href="#m34dbbcee52" y="9.714075"/>
     <use style="fill:#377eb8;stroke:#377eb8;" x="96.245455" xlink:href="#m34dbbcee52" y="9.137723"/>
     <use style="fill:#377eb8;stroke:#377eb8;" x="97.936364" xlink:href="#m34dbbcee52" y="8.459848"/>
     <use style="fill:#377eb8;stroke:#377eb8;" x="99.627273" xlink:href="#m34dbbcee52" y="8.301205"/>
     <use style="fill:#377eb8;stroke:#377eb8;" x="101.318182" xlink:href="#m34dbbcee52" y="8.136161"/>
     <use style="fill:#377eb8;stroke:#377eb8;" x="103.009091" xlink:href="#m34dbbcee52" y="7.869847"/>
     <use style="fill:#377eb8;stroke:#377eb8;" x="104.7" xlink:href="#m34dbbcee52" y="7.501046"/>
     <use style="fill:#377eb8;stroke:#377eb8;" x="106.390909" xlink:href="#m34dbbcee52" y="7.295392"/>
     <use style="fill:#377eb8;stroke:#377eb8;" x="108.081818" xlink:href="#m34dbbcee52" y="7.030684"/>
     <use style="fill:#377eb8;stroke:#377eb8;" x="109.772727" xlink:href="#m34dbbcee52" y="7.130077"/>
     <use style="fill:#377eb8;stroke:#377eb8;" x="111.463636" xlink:href="#m34dbbcee52" y="6.437958"/>
     <use style="fill:#377eb8;stroke:#377eb8;" x="113.154545" xlink:href="#m34dbbcee52" y="6.836212"/>
     <use style="fill:#377eb8;stroke:#377eb8;" x="114.845455" xlink:href="#m34dbbcee52" y="6.484118"/>
     <use style="fill:#377eb8;stroke:#377eb8;" x="116.536364" xlink:href="#m34dbbcee52" y="6.030185"/>
     <use style="fill:#377eb8;stroke:#377eb8;" x="118.227273" xlink:href="#m34dbbcee52" y="6.070238"/>
     <use style="fill:#377eb8;stroke:#377eb8;" x="119.918182" xlink:href="#m34dbbcee52" y="5.712095"/>
     <use style="fill:#377eb8;stroke:#377eb8;" x="121.609091" xlink:href="#m34dbbcee52" y="5.534163"/>
     <use style="fill:#377eb8;stroke:#377eb8;" x="123.3" xlink:href="#m34dbbcee52" y="5.379572"/>
     <use style="fill:#377eb8;stroke:#377eb8;" x="124.990909" xlink:href="#m34dbbcee52" y="5.621861"/>
     <use style="fill:#377eb8;stroke:#377eb8;" x="126.681818" xlink:href="#m34dbbcee52" y="5.417315"/>
     <use style="fill:#377eb8;stroke:#377eb8;" x="128.372727" xlink:href="#m34dbbcee52" y="5.345745"/>
     <use style="fill:#377eb8;stroke:#377eb8;" x="130.063636" xlink:href="#m34dbbcee52" y="5.274888"/>
     <use style="fill:#377eb8;stroke:#377eb8;" x="131.754545" xlink:href="#m34dbbcee52" y="5.36878"/>
     <use style="fill:#377eb8;stroke:#377eb8;" x="133.445455" xlink:href="#m34dbbcee52" y="5.175429"/>
     <use style="fill:#377eb8;stroke:#377eb8;" x="135.136364" xlink:href="#m34dbbcee52" y="4.941818"/>
     <use style="fill:#377eb8;stroke:#377eb8;" x="136.827273" xlink:href="#m34dbbcee52" y="5.172528"/>
     <use style="fill:#377eb8;stroke:#377eb8;" x="135.136364" xlink:href="#m34dbbcee52" y="11.165866"/>
     <use style="fill:#377eb8;stroke:#377eb8;" x="133.445455" xlink:href="#m34dbbcee52" y="16.948145"/>
     <use style="fill:#377eb8;stroke:#377eb8;" x="131.754545" xlink:href="#m34dbbcee52" y="24.717741"/>
     <use style="fill:#377eb8;stroke:#377eb8;" x="130.063636" xlink:href="#m34dbbcee52" y="28.055965"/>
     <use style="fill:#377eb8;stroke:#377eb8;" x="128.372727" xlink:href="#m34dbbcee52" y="31.337213"/>
     <use style="fill:#377eb8;stroke:#377eb8;" x="126.681818" xlink:href="#m34dbbcee52" y="31.336051"/>
     <use style="fill:#377eb8;stroke:#377eb8;" x="124.990909" xlink:href="#m34dbbcee52" y="36.682266"/>
     <use style="fill:#377eb8;stroke:#377eb8;" x="123.3" xlink:href="#m34dbbcee52" y="40.227608"/>
     <use style="fill:#377eb8;stroke:#377eb8;" x="121.609091" xlink:href="#m34dbbcee52" y="41.107695"/>
     <use style="fill:#377eb8;stroke:#377eb8;" x="119.918182" xlink:href="#m34dbbcee52" y="45.78922"/>
     <use style="fill:#377eb8;stroke:#377eb8;" x="118.227273" xlink:href="#m34dbbcee52" y="47.722707"/>
     <use style="fill:#377eb8;stroke:#377eb8;" x="116.536364" xlink:href="#m34dbbcee52" y="48.643134"/>
     <use style="fill:#377eb8;stroke:#377eb8;" x="114.845455" xlink:href="#m34dbbcee52" y="52.683773"/>
     <use style="fill:#377eb8;stroke:#377eb8;" x="113.154545" xlink:href="#m34dbbcee52" y="54.785904"/>
     <use style="fill:#377eb8;stroke:#377eb8;" x="111.463636" xlink:href="#m34dbbcee52" y="55.554479"/>
     <use style="fill:#377eb8;stroke:#377eb8;" x="109.772727" xlink:href="#m34dbbcee52" y="63.281204"/>
     <use style="fill:#377eb8;stroke:#377eb8;" x="108.081818" xlink:href="#m34dbbcee52" y="64.219277"/>
     <use style="fill:#377eb8;stroke:#377eb8;" x="106.390909" xlink:href="#m34dbbcee52" y="67.427568"/>
     <use style="fill:#377eb8;stroke:#377eb8;" x="104.7" xlink:href="#m34dbbcee52" y="68.919219"/>
     <use style="fill:#377eb8;stroke:#377eb8;" x="103.009091" xlink:href="#m34dbbcee52" y="71.792337"/>
     <use style="fill:#377eb8;stroke:#377eb8;" x="101.318182" xlink:href="#m34dbbcee52" y="70.165766"/>
     <use style="fill:#377eb8;stroke:#377eb8;" x="99.627273" xlink:href="#m34dbbcee52" y="73.626743"/>
     <use style="fill:#377eb8;stroke:#377eb8;" x="97.936364" xlink:href="#m34dbbcee52" y="78.494975"/>
     <use style="fill:#377eb8;stroke:#377eb8;" x="96.245455" xlink:href="#m34dbbcee52" y="75.325333"/>
     <use style="fill:#377eb8;stroke:#377eb8;" x="94.554545" xlink:href="#m34dbbcee52" y="77.957599"/>
     <use style="fill:#377eb8;stroke:#377eb8;" x="92.863636" xlink:href="#m34dbbcee52" y="79.326979"/>
     <use style="fill:#377eb8;stroke:#377eb8;" x="91.172727" xlink:href="#m34dbbcee52" y="84.968435"/>
     <use style="fill:#377eb8;stroke:#377eb8;" x="89.481818" xlink:href="#m34dbbcee52" y="79.474478"/>
     <use style="fill:#377eb8;stroke:#377eb8;" x="87.790909" xlink:href="#m34dbbcee52" y="80.949215"/>
     <use style="fill:#377eb8;stroke:#377eb8;" x="86.1" xlink:href="#m34dbbcee52" y="83.684934"/>
     <use style="fill:#377eb8;stroke:#377eb8;" x="84.409091" xlink:href="#m34dbbcee52" y="83.73709"/>
     <use style="fill:#377eb8;stroke:#377eb8;" x="82.718182" xlink:href="#m34dbbcee52" y="82.823471"/>
     <use style="fill:#377eb8;stroke:#377eb8;" x="81.027273" xlink:href="#m34dbbcee52" y="83.846023"/>
     <use style="fill:#377eb8;stroke:#377eb8;" x="79.336364" xlink:href="#m34dbbcee52" y="86.368283"/>
     <use style="fill:#377eb8;stroke:#377eb8;" x="77.645455" xlink:href="#m34dbbcee52" y="85.77919"/>
     <use style="fill:#377eb8;stroke:#377eb8;" x="75.954545" xlink:href="#m34dbbcee52" y="88.152185"/>
     <use style="fill:#377eb8;stroke:#377eb8;" x="74.263636" xlink:href="#m34dbbcee52" y="92.368548"/>
     <use style="fill:#377eb8;stroke:#377eb8;" x="72.572727" xlink:href="#m34dbbcee52" y="87.398783"/>
     <use style="fill:#377eb8;stroke:#377eb8;" x="70.881818" xlink:href="#m34dbbcee52" y="93.77412"/>
     <use style="fill:#377eb8;stroke:#377eb8;" x="69.190909" xlink:href="#m34dbbcee52" y="94.421719"/>
     <use style="fill:#377eb8;stroke:#377eb8;" x="67.5" xlink:href="#m34dbbcee52" y="92.171898"/>
     <use style="fill:#377eb8;stroke:#377eb8;" x="65.809091" xlink:href="#m34dbbcee52" y="90.467696"/>
     <use style="fill:#377eb8;stroke:#377eb8;" x="64.118182" xlink:href="#m34dbbcee52" y="89.742922"/>
     <use style="fill:#377eb8;stroke:#377eb8;" x="62.427273" xlink:href="#m34dbbcee52" y="95.362137"/>
     <use style="fill:#377eb8;stroke:#377eb8;" x="60.736364" xlink:href="#m34dbbcee52" y="94.393948"/>
     <use style="fill:#377eb8;stroke:#377eb8;" x="59.045455" xlink:href="#m34dbbcee52" y="94.697519"/>
     <use style="fill:#377eb8;stroke:#377eb8;" x="57.354545" xlink:href="#m34dbbcee52" y="93.887305"/>
     <use style="fill:#377eb8;stroke:#377eb8;" x="55.663636" xlink:href="#m34dbbcee52" y="90.342927"/>
     <use style="fill:#377eb8;stroke:#377eb8;" x="53.972727" xlink:href="#m34dbbcee52" y="95.457641"/>
     <use style="fill:#377eb8;stroke:#377eb8;" x="52.281818" xlink:href="#m34dbbcee52" y="94.342258"/>
     <use style="fill:#377eb8;stroke:#377eb8;" x="50.590909" xlink:href="#m34dbbcee52" y="95.913123"/>
     <use style="fill:#377eb8;stroke:#377eb8;" x="48.9" xlink:href="#m34dbbcee52" y="92.874314"/>
     <use style="fill:#377eb8;stroke:#377eb8;" x="47.209091" xlink:href="#m34dbbcee52" y="95.019"/>
     <use style="fill:#377eb8;stroke:#377eb8;" x="45.518182" xlink:href="#m34dbbcee52" y="95.35434"/>
     <use style="fill:#377eb8;stroke:#377eb8;" x="43.827273" xlink:href="#m34dbbcee52" y="98.616728"/>
     <use style="fill:#377eb8;stroke:#377eb8;" x="42.136364" xlink:href="#m34dbbcee52" y="94.057655"/>
     <use style="fill:#377eb8;stroke:#377eb8;" x="40.445455" xlink:href="#m34dbbcee52" y="103.778182"/>
     <use style="fill:#377eb8;stroke:#377eb8;" x="38.754545" xlink:href="#m34dbbcee52" y="101.916947"/>
     <use style="fill:#377eb8;stroke:#377eb8;" x="37.063636" xlink:href="#m34dbbcee52" y="95.869604"/>
     <use style="fill:#377eb8;stroke:#377eb8;" x="35.372727" xlink:href="#m34dbbcee52" y="97.148957"/>
    </g>
   </g>
   <g id="patch_3">
    <path d="M 30.3 108.72 
L 30.3 0 
" style="fill:none;stroke:#000000;stroke-linecap:square;stroke-linejoin:miter;stroke-width:0.5;"/>
   </g>
   <g id="patch_4">
    <path d="M 141.9 108.72 
L 141.9 0 
" style="fill:none;stroke:#000000;stroke-linecap:square;stroke-linejoin:miter;stroke-width:0.5;"/>
   </g>
   <g id="patch_5">
    <path d="M 30.3 108.72 
L 141.9 108.72 
" style="fill:none;stroke:#000000;stroke-linecap:square;stroke-linejoin:miter;stroke-width:0.5;"/>
   </g>
   <g id="patch_6">
    <path d="M 30.3 0 
L 141.9 0 
" style="fill:none;stroke:#000000;stroke-linecap:square;stroke-linejoin:miter;stroke-width:0.5;"/>
   </g>
  </g>
 </g>
 <defs>
  <clipPath id="pafd7c2141b">
   <rect height="108.72" width="111.6" x="30.3" y="0"/>
  </clipPath>
 </defs>
</svg>
