<?xml version="1.0" encoding="utf-8" standalone="no"?>
<!DOCTYPE svg PUBLIC "-//W3C//DTD SVG 1.1//EN"
  "http://www.w3.org/Graphics/SVG/1.1/DTD/svg11.dtd">
<!-- Created with matplotlib (https://matplotlib.org/) -->
<svg height="101.048551pt" version="1.1" viewBox="0 0 107.191562 101.048551" width="107.191562pt" xmlns="http://www.w3.org/2000/svg" xmlns:xlink="http://www.w3.org/1999/xlink">
 <defs>
  <style type="text/css">
*{stroke-linecap:butt;stroke-linejoin:round;}
  </style>
 </defs>
 <g id="figure_1">
  <g id="patch_1">
   <path d="M 0 101.048551 
L 107.191562 101.048551 
L 107.191562 0 
L 0 0 
z
" style="fill:none;"/>
  </g>
  <g id="axes_1">
   <g id="patch_2">
    <path d="M 23.491563 83.232301 
L 107.191563 83.232301 
L 107.191563 1.692301 
L 23.491563 1.692301 
z
" style="fill:none;"/>
   </g>
   <g id="matplotlib.axis_1">
    <g id="xtick_1">
     <g id="line2d_1">
      <defs>
       <path d="M 0 0 
L 0 -3.5 
" id="m1230a04b49" style="stroke:#000000;stroke-width:0.5;"/>
      </defs>
      <g>
       <use style="stroke:#000000;stroke-width:0.5;" x="31.345657" xlink:href="#m1230a04b49" y="83.232301"/>
      </g>
     </g>
     <g id="line2d_2">
      <defs>
       <path d="M 0 0 
L 0 3.5 
" id="m0ae112e314" style="stroke:#000000;stroke-width:0.5;"/>
      </defs>
      <g>
       <use style="stroke:#000000;stroke-width:0.5;" x="31.345657" xlink:href="#m0ae112e314" y="1.692301"/>
      </g>
     </g>
     <g id="text_1">
      <!-- −8 -->
      <defs>
       <path d="M 52.828125 31.203125 
L 5.5625 31.203125 
L 5.5625 39.40625 
L 52.828125 39.40625 
z
" id="ArialMT-8722"/>
       <path d="M 17.671875 38.8125 
Q 12.203125 40.828125 9.5625 44.53125 
Q 6.9375 48.25 6.9375 53.421875 
Q 6.9375 61.234375 12.546875 66.546875 
Q 18.171875 71.875 27.484375 71.875 
Q 36.859375 71.875 42.578125 66.421875 
Q 48.296875 60.984375 48.296875 53.171875 
Q 48.296875 48.1875 45.671875 44.5 
Q 43.0625 40.828125 37.75 38.8125 
Q 44.34375 36.671875 47.78125 31.875 
Q 51.21875 27.09375 51.21875 20.453125 
Q 51.21875 11.28125 44.71875 5.03125 
Q 38.234375 -1.21875 27.640625 -1.21875 
Q 17.046875 -1.21875 10.546875 5.046875 
Q 4.046875 11.328125 4.046875 20.703125 
Q 4.046875 27.6875 7.59375 32.390625 
Q 11.140625 37.109375 17.671875 38.8125 
z
M 15.921875 53.71875 
Q 15.921875 48.640625 19.1875 45.40625 
Q 22.46875 42.1875 27.6875 42.1875 
Q 32.765625 42.1875 36.015625 45.375 
Q 39.265625 48.578125 39.265625 53.21875 
Q 39.265625 58.0625 35.90625 61.359375 
Q 32.5625 64.65625 27.59375 64.65625 
Q 22.5625 64.65625 19.234375 61.421875 
Q 15.921875 58.203125 15.921875 53.71875 
z
M 13.09375 20.65625 
Q 13.09375 16.890625 14.875 13.375 
Q 16.65625 9.859375 20.171875 7.921875 
Q 23.6875 6 27.734375 6 
Q 34.03125 6 38.125 10.046875 
Q 42.234375 14.109375 42.234375 20.359375 
Q 42.234375 26.703125 38.015625 30.859375 
Q 33.796875 35.015625 27.4375 35.015625 
Q 21.234375 35.015625 17.15625 30.90625 
Q 13.09375 26.8125 13.09375 20.65625 
z
" id="ArialMT-56"/>
      </defs>
      <g transform="translate(26.785032 89.958551)scale(0.08 -0.08)">
       <use xlink:href="#ArialMT-8722"/>
       <use x="58.398438" xlink:href="#ArialMT-56"/>
      </g>
     </g>
    </g>
    <g id="xtick_2">
     <g id="line2d_3">
      <g>
       <use style="stroke:#000000;stroke-width:0.5;" x="48.39684" xlink:href="#m1230a04b49" y="83.232301"/>
      </g>
     </g>
     <g id="line2d_4">
      <g>
       <use style="stroke:#000000;stroke-width:0.5;" x="48.39684" xlink:href="#m0ae112e314" y="1.692301"/>
      </g>
     </g>
     <g id="text_2">
      <!-- −4 -->
      <defs>
       <path d="M 32.328125 0 
L 32.328125 17.140625 
L 1.265625 17.140625 
L 1.265625 25.203125 
L 33.9375 71.578125 
L 41.109375 71.578125 
L 41.109375 25.203125 
L 50.78125 25.203125 
L 50.78125 17.140625 
L 41.109375 17.140625 
L 41.109375 0 
z
M 32.328125 25.203125 
L 32.328125 57.46875 
L 9.90625 25.203125 
z
" id="ArialMT-52"/>
      </defs>
      <g transform="translate(43.836215 89.958551)scale(0.08 -0.08)">
       <use xlink:href="#ArialMT-8722"/>
       <use x="58.398438" xlink:href="#ArialMT-52"/>
      </g>
     </g>
    </g>
    <g id="xtick_3">
     <g id="line2d_5">
      <g>
       <use style="stroke:#000000;stroke-width:0.5;" x="65.448022" xlink:href="#m1230a04b49" y="83.232301"/>
      </g>
     </g>
     <g id="line2d_6">
      <g>
       <use style="stroke:#000000;stroke-width:0.5;" x="65.448022" xlink:href="#m0ae112e314" y="1.692301"/>
      </g>
     </g>
     <g id="text_3">
      <!-- 0 -->
      <defs>
       <path d="M 4.15625 35.296875 
Q 4.15625 48 6.765625 55.734375 
Q 9.375 63.484375 14.515625 67.671875 
Q 19.671875 71.875 27.484375 71.875 
Q 33.25 71.875 37.59375 69.546875 
Q 41.9375 67.234375 44.765625 62.859375 
Q 47.609375 58.5 49.21875 52.21875 
Q 50.828125 45.953125 50.828125 35.296875 
Q 50.828125 22.703125 48.234375 14.96875 
Q 45.65625 7.234375 40.5 3 
Q 35.359375 -1.21875 27.484375 -1.21875 
Q 17.140625 -1.21875 11.234375 6.203125 
Q 4.15625 15.140625 4.15625 35.296875 
z
M 13.1875 35.296875 
Q 13.1875 17.671875 17.3125 11.828125 
Q 21.4375 6 27.484375 6 
Q 33.546875 6 37.671875 11.859375 
Q 41.796875 17.71875 41.796875 35.296875 
Q 41.796875 52.984375 37.671875 58.78125 
Q 33.546875 64.59375 27.390625 64.59375 
Q 21.34375 64.59375 17.71875 59.46875 
Q 13.1875 52.9375 13.1875 35.296875 
z
" id="ArialMT-48"/>
      </defs>
      <g transform="translate(63.223647 89.958551)scale(0.08 -0.08)">
       <use xlink:href="#ArialMT-48"/>
      </g>
     </g>
    </g>
    <g id="xtick_4">
     <g id="line2d_7">
      <g>
       <use style="stroke:#000000;stroke-width:0.5;" x="82.499204" xlink:href="#m1230a04b49" y="83.232301"/>
      </g>
     </g>
     <g id="line2d_8">
      <g>
       <use style="stroke:#000000;stroke-width:0.5;" x="82.499204" xlink:href="#m0ae112e314" y="1.692301"/>
      </g>
     </g>
     <g id="text_4">
      <!-- 4 -->
      <g transform="translate(80.274829 89.958551)scale(0.08 -0.08)">
       <use xlink:href="#ArialMT-52"/>
      </g>
     </g>
    </g>
    <g id="xtick_5">
     <g id="line2d_9">
      <g>
       <use style="stroke:#000000;stroke-width:0.5;" x="99.550387" xlink:href="#m1230a04b49" y="83.232301"/>
      </g>
     </g>
     <g id="line2d_10">
      <g>
       <use style="stroke:#000000;stroke-width:0.5;" x="99.550387" xlink:href="#m0ae112e314" y="1.692301"/>
      </g>
     </g>
     <g id="text_5">
      <!-- 8 -->
      <g transform="translate(97.326012 89.958551)scale(0.08 -0.08)">
       <use xlink:href="#ArialMT-56"/>
      </g>
     </g>
    </g>
    <g id="xtick_6">
     <g id="line2d_11">
      <defs>
       <path d="M 0 0 
L 0 -2 
" id="m5c185b60c0" style="stroke:#000000;stroke-width:0.5;"/>
      </defs>
      <g>
       <use style="stroke:#000000;stroke-width:0.5;" x="27.082862" xlink:href="#m5c185b60c0" y="83.232301"/>
      </g>
     </g>
     <g id="line2d_12">
      <defs>
       <path d="M 0 0 
L 0 2 
" id="m602b36c27c" style="stroke:#000000;stroke-width:0.5;"/>
      </defs>
      <g>
       <use style="stroke:#000000;stroke-width:0.5;" x="27.082862" xlink:href="#m602b36c27c" y="1.692301"/>
      </g>
     </g>
    </g>
    <g id="xtick_7">
     <g id="line2d_13">
      <g>
       <use style="stroke:#000000;stroke-width:0.5;" x="35.608453" xlink:href="#m5c185b60c0" y="83.232301"/>
      </g>
     </g>
     <g id="line2d_14">
      <g>
       <use style="stroke:#000000;stroke-width:0.5;" x="35.608453" xlink:href="#m602b36c27c" y="1.692301"/>
      </g>
     </g>
    </g>
    <g id="xtick_8">
     <g id="line2d_15">
      <g>
       <use style="stroke:#000000;stroke-width:0.5;" x="39.871248" xlink:href="#m5c185b60c0" y="83.232301"/>
      </g>
     </g>
     <g id="line2d_16">
      <g>
       <use style="stroke:#000000;stroke-width:0.5;" x="39.871248" xlink:href="#m602b36c27c" y="1.692301"/>
      </g>
     </g>
    </g>
    <g id="xtick_9">
     <g id="line2d_17">
      <g>
       <use style="stroke:#000000;stroke-width:0.5;" x="44.134044" xlink:href="#m5c185b60c0" y="83.232301"/>
      </g>
     </g>
     <g id="line2d_18">
      <g>
       <use style="stroke:#000000;stroke-width:0.5;" x="44.134044" xlink:href="#m602b36c27c" y="1.692301"/>
      </g>
     </g>
    </g>
    <g id="xtick_10">
     <g id="line2d_19">
      <g>
       <use style="stroke:#000000;stroke-width:0.5;" x="52.659635" xlink:href="#m5c185b60c0" y="83.232301"/>
      </g>
     </g>
     <g id="line2d_20">
      <g>
       <use style="stroke:#000000;stroke-width:0.5;" x="52.659635" xlink:href="#m602b36c27c" y="1.692301"/>
      </g>
     </g>
    </g>
    <g id="xtick_11">
     <g id="line2d_21">
      <g>
       <use style="stroke:#000000;stroke-width:0.5;" x="56.922431" xlink:href="#m5c185b60c0" y="83.232301"/>
      </g>
     </g>
     <g id="line2d_22">
      <g>
       <use style="stroke:#000000;stroke-width:0.5;" x="56.922431" xlink:href="#m602b36c27c" y="1.692301"/>
      </g>
     </g>
    </g>
    <g id="xtick_12">
     <g id="line2d_23">
      <g>
       <use style="stroke:#000000;stroke-width:0.5;" x="61.185226" xlink:href="#m5c185b60c0" y="83.232301"/>
      </g>
     </g>
     <g id="line2d_24">
      <g>
       <use style="stroke:#000000;stroke-width:0.5;" x="61.185226" xlink:href="#m602b36c27c" y="1.692301"/>
      </g>
     </g>
    </g>
    <g id="xtick_13">
     <g id="line2d_25">
      <g>
       <use style="stroke:#000000;stroke-width:0.5;" x="69.710818" xlink:href="#m5c185b60c0" y="83.232301"/>
      </g>
     </g>
     <g id="line2d_26">
      <g>
       <use style="stroke:#000000;stroke-width:0.5;" x="69.710818" xlink:href="#m602b36c27c" y="1.692301"/>
      </g>
     </g>
    </g>
    <g id="xtick_14">
     <g id="line2d_27">
      <g>
       <use style="stroke:#000000;stroke-width:0.5;" x="73.973613" xlink:href="#m5c185b60c0" y="83.232301"/>
      </g>
     </g>
     <g id="line2d_28">
      <g>
       <use style="stroke:#000000;stroke-width:0.5;" x="73.973613" xlink:href="#m602b36c27c" y="1.692301"/>
      </g>
     </g>
    </g>
    <g id="xtick_15">
     <g id="line2d_29">
      <g>
       <use style="stroke:#000000;stroke-width:0.5;" x="78.236409" xlink:href="#m5c185b60c0" y="83.232301"/>
      </g>
     </g>
     <g id="line2d_30">
      <g>
       <use style="stroke:#000000;stroke-width:0.5;" x="78.236409" xlink:href="#m602b36c27c" y="1.692301"/>
      </g>
     </g>
    </g>
    <g id="xtick_16">
     <g id="line2d_31">
      <g>
       <use style="stroke:#000000;stroke-width:0.5;" x="86.762" xlink:href="#m5c185b60c0" y="83.232301"/>
      </g>
     </g>
     <g id="line2d_32">
      <g>
       <use style="stroke:#000000;stroke-width:0.5;" x="86.762" xlink:href="#m602b36c27c" y="1.692301"/>
      </g>
     </g>
    </g>
    <g id="xtick_17">
     <g id="line2d_33">
      <g>
       <use style="stroke:#000000;stroke-width:0.5;" x="91.024795" xlink:href="#m5c185b60c0" y="83.232301"/>
      </g>
     </g>
     <g id="line2d_34">
      <g>
       <use style="stroke:#000000;stroke-width:0.5;" x="91.024795" xlink:href="#m602b36c27c" y="1.692301"/>
      </g>
     </g>
    </g>
    <g id="xtick_18">
     <g id="line2d_35">
      <g>
       <use style="stroke:#000000;stroke-width:0.5;" x="95.287591" xlink:href="#m5c185b60c0" y="83.232301"/>
      </g>
     </g>
     <g id="line2d_36">
      <g>
       <use style="stroke:#000000;stroke-width:0.5;" x="95.287591" xlink:href="#m602b36c27c" y="1.692301"/>
      </g>
     </g>
    </g>
    <g id="xtick_19">
     <g id="line2d_37">
      <g>
       <use style="stroke:#000000;stroke-width:0.5;" x="103.813182" xlink:href="#m5c185b60c0" y="83.232301"/>
      </g>
     </g>
     <g id="line2d_38">
      <g>
       <use style="stroke:#000000;stroke-width:0.5;" x="103.813182" xlink:href="#m602b36c27c" y="1.692301"/>
      </g>
     </g>
    </g>
    <g id="text_6">
     <!-- $\it{B}$ (T) -->
     <defs>
      <path d="M 16.890625 72.90625 
L 42.09375 72.90625 
Q 52.34375 72.90625 57.421875 69.09375 
Q 62.5 65.28125 62.5 57.625 
Q 62.5 50.59375 58.125 45.484375 
Q 53.765625 40.375 46.6875 39.3125 
Q 52.734375 37.9375 55.765625 34.078125 
Q 58.796875 30.21875 58.796875 23.78125 
Q 58.796875 12.796875 50.65625 6.390625 
Q 42.53125 0 28.421875 0 
L 2.6875 0 
z
M 19.28125 34.8125 
L 14.109375 8.109375 
L 29.984375 8.109375 
Q 38.921875 8.109375 43.75 12.203125 
Q 48.578125 16.3125 48.578125 23.78125 
Q 48.578125 29.546875 45.375 32.171875 
Q 42.1875 34.8125 35.109375 34.8125 
z
M 25.09375 64.796875 
L 20.796875 42.828125 
L 35.5 42.828125 
Q 43.359375 42.828125 47.78125 46.234375 
Q 52.203125 49.65625 52.203125 55.71875 
Q 52.203125 60.453125 49.21875 62.625 
Q 46.234375 64.796875 39.703125 64.796875 
z
" id="DejaVuSans-Oblique-66"/>
      <path id="ArialMT-32"/>
      <path d="M 23.390625 -21.046875 
Q 16.109375 -11.859375 11.078125 0.4375 
Q 6.0625 12.75 6.0625 25.921875 
Q 6.0625 37.546875 9.8125 48.1875 
Q 14.203125 60.546875 23.390625 72.796875 
L 29.6875 72.796875 
Q 23.78125 62.640625 21.875 58.296875 
Q 18.890625 51.5625 17.1875 44.234375 
Q 15.09375 35.109375 15.09375 25.875 
Q 15.09375 2.390625 29.6875 -21.046875 
z
" id="ArialMT-40"/>
      <path d="M 25.921875 0 
L 25.921875 63.140625 
L 2.34375 63.140625 
L 2.34375 71.578125 
L 59.078125 71.578125 
L 59.078125 63.140625 
L 35.40625 63.140625 
L 35.40625 0 
z
" id="ArialMT-84"/>
      <path d="M 12.359375 -21.046875 
L 6.0625 -21.046875 
Q 20.65625 2.390625 20.65625 25.875 
Q 20.65625 35.0625 18.5625 44.09375 
Q 16.890625 51.421875 13.921875 58.15625 
Q 12.015625 62.546875 6.0625 72.796875 
L 12.359375 72.796875 
Q 21.53125 60.546875 25.921875 48.1875 
Q 29.6875 37.546875 29.6875 25.921875 
Q 29.6875 12.75 24.625 0.4375 
Q 19.578125 -11.859375 12.359375 -21.046875 
z
" id="ArialMT-41"/>
     </defs>
     <g transform="translate(54.091563 98.848551)scale(0.1 -0.1)">
      <use transform="translate(0 0.09375)" xlink:href="#DejaVuSans-Oblique-66"/>
      <use transform="translate(68.603516 0.09375)" xlink:href="#ArialMT-32"/>
      <use transform="translate(96.386719 0.09375)" xlink:href="#ArialMT-40"/>
      <use transform="translate(129.6875 0.09375)" xlink:href="#ArialMT-84"/>
      <use transform="translate(190.771484 0.09375)" xlink:href="#ArialMT-41"/>
     </g>
    </g>
   </g>
   <g id="matplotlib.axis_2">
    <g id="ytick_1">
     <g id="line2d_39">
      <defs>
       <path d="M 0 0 
L 3.5 0 
" id="ma4532fdf28" style="stroke:#000000;stroke-width:0.5;"/>
      </defs>
      <g>
       <use style="stroke:#000000;stroke-width:0.5;" x="23.491563" xlink:href="#ma4532fdf28" y="78.050914"/>
      </g>
     </g>
     <g id="line2d_40">
      <defs>
       <path d="M 0 0 
L -3.5 0 
" id="m31d6dc0699" style="stroke:#000000;stroke-width:0.5;"/>
      </defs>
      <g>
       <use style="stroke:#000000;stroke-width:0.5;" x="107.191563" xlink:href="#m31d6dc0699" y="78.050914"/>
      </g>
     </g>
     <g id="text_7">
      <!-- 0 -->
      <g transform="translate(18.042813 80.914039)scale(0.08 -0.08)">
       <use xlink:href="#ArialMT-48"/>
      </g>
     </g>
    </g>
    <g id="ytick_2">
     <g id="line2d_41">
      <g>
       <use style="stroke:#000000;stroke-width:0.5;" x="23.491563" xlink:href="#ma4532fdf28" y="59.253967"/>
      </g>
     </g>
     <g id="line2d_42">
      <g>
       <use style="stroke:#000000;stroke-width:0.5;" x="107.191563" xlink:href="#m31d6dc0699" y="59.253967"/>
      </g>
     </g>
     <g id="text_8">
      <!-- 25 -->
      <defs>
       <path d="M 50.34375 8.453125 
L 50.34375 0 
L 3.03125 0 
Q 2.9375 3.171875 4.046875 6.109375 
Q 5.859375 10.9375 9.828125 15.625 
Q 13.8125 20.3125 21.34375 26.46875 
Q 33.015625 36.03125 37.109375 41.625 
Q 41.21875 47.21875 41.21875 52.203125 
Q 41.21875 57.421875 37.46875 61 
Q 33.734375 64.59375 27.734375 64.59375 
Q 21.390625 64.59375 17.578125 60.78125 
Q 13.765625 56.984375 13.71875 50.25 
L 4.6875 51.171875 
Q 5.609375 61.28125 11.65625 66.578125 
Q 17.71875 71.875 27.9375 71.875 
Q 38.234375 71.875 44.234375 66.15625 
Q 50.25 60.453125 50.25 52 
Q 50.25 47.703125 48.484375 43.546875 
Q 46.734375 39.40625 42.65625 34.8125 
Q 38.578125 30.21875 29.109375 22.21875 
Q 21.1875 15.578125 18.9375 13.203125 
Q 16.703125 10.84375 15.234375 8.453125 
z
" id="ArialMT-50"/>
       <path d="M 4.15625 18.75 
L 13.375 19.53125 
Q 14.40625 12.796875 18.140625 9.390625 
Q 21.875 6 27.15625 6 
Q 33.5 6 37.890625 10.78125 
Q 42.28125 15.578125 42.28125 23.484375 
Q 42.28125 31 38.0625 35.34375 
Q 33.84375 39.703125 27 39.703125 
Q 22.75 39.703125 19.328125 37.765625 
Q 15.921875 35.84375 13.96875 32.765625 
L 5.71875 33.84375 
L 12.640625 70.609375 
L 48.25 70.609375 
L 48.25 62.203125 
L 19.671875 62.203125 
L 15.828125 42.96875 
Q 22.265625 47.46875 29.34375 47.46875 
Q 38.71875 47.46875 45.15625 40.96875 
Q 51.609375 34.46875 51.609375 24.265625 
Q 51.609375 14.546875 45.953125 7.46875 
Q 39.0625 -1.21875 27.15625 -1.21875 
Q 17.390625 -1.21875 11.203125 4.25 
Q 5.03125 9.71875 4.15625 18.75 
z
" id="ArialMT-53"/>
      </defs>
      <g transform="translate(13.594062 62.117092)scale(0.08 -0.08)">
       <use xlink:href="#ArialMT-50"/>
       <use x="55.615234" xlink:href="#ArialMT-53"/>
      </g>
     </g>
    </g>
    <g id="ytick_3">
     <g id="line2d_43">
      <g>
       <use style="stroke:#000000;stroke-width:0.5;" x="23.491563" xlink:href="#ma4532fdf28" y="40.457019"/>
      </g>
     </g>
     <g id="line2d_44">
      <g>
       <use style="stroke:#000000;stroke-width:0.5;" x="107.191563" xlink:href="#m31d6dc0699" y="40.457019"/>
      </g>
     </g>
     <g id="text_9">
      <!-- 50 -->
      <g transform="translate(13.594062 43.320144)scale(0.08 -0.08)">
       <use xlink:href="#ArialMT-53"/>
       <use x="55.615234" xlink:href="#ArialMT-48"/>
      </g>
     </g>
    </g>
    <g id="ytick_4">
     <g id="line2d_45">
      <g>
       <use style="stroke:#000000;stroke-width:0.5;" x="23.491563" xlink:href="#ma4532fdf28" y="21.660072"/>
      </g>
     </g>
     <g id="line2d_46">
      <g>
       <use style="stroke:#000000;stroke-width:0.5;" x="107.191563" xlink:href="#m31d6dc0699" y="21.660072"/>
      </g>
     </g>
     <g id="text_10">
      <!-- 75 -->
      <defs>
       <path d="M 4.734375 62.203125 
L 4.734375 70.65625 
L 51.078125 70.65625 
L 51.078125 63.8125 
Q 44.234375 56.546875 37.515625 44.484375 
Q 30.8125 32.421875 27.15625 19.671875 
Q 24.515625 10.6875 23.78125 0 
L 14.75 0 
Q 14.890625 8.453125 18.0625 20.40625 
Q 21.234375 32.375 27.171875 43.484375 
Q 33.109375 54.59375 39.796875 62.203125 
z
" id="ArialMT-55"/>
      </defs>
      <g transform="translate(13.594062 24.523197)scale(0.08 -0.08)">
       <use xlink:href="#ArialMT-55"/>
       <use x="55.615234" xlink:href="#ArialMT-53"/>
      </g>
     </g>
    </g>
    <g id="ytick_5">
     <g id="line2d_47">
      <g>
       <use style="stroke:#000000;stroke-width:0.5;" x="23.491563" xlink:href="#ma4532fdf28" y="2.863125"/>
      </g>
     </g>
     <g id="line2d_48">
      <g>
       <use style="stroke:#000000;stroke-width:0.5;" x="107.191563" xlink:href="#m31d6dc0699" y="2.863125"/>
      </g>
     </g>
     <g id="text_11">
      <!-- 100 -->
      <defs>
       <path d="M 37.25 0 
L 28.46875 0 
L 28.46875 56 
Q 25.296875 52.984375 20.140625 49.953125 
Q 14.984375 46.921875 10.890625 45.40625 
L 10.890625 53.90625 
Q 18.265625 57.375 23.78125 62.296875 
Q 29.296875 67.234375 31.59375 71.875 
L 37.25 71.875 
z
" id="ArialMT-49"/>
      </defs>
      <g transform="translate(9.145313 5.72625)scale(0.08 -0.08)">
       <use xlink:href="#ArialMT-49"/>
       <use x="55.615234" xlink:href="#ArialMT-48"/>
       <use x="111.230469" xlink:href="#ArialMT-48"/>
      </g>
     </g>
    </g>
    <g id="ytick_6">
     <g id="line2d_49">
      <defs>
       <path d="M 0 0 
L 2 0 
" id="mddb7ea5227" style="stroke:#000000;stroke-width:0.5;"/>
      </defs>
      <g>
       <use style="stroke:#000000;stroke-width:0.5;" x="23.491563" xlink:href="#mddb7ea5227" y="81.810303"/>
      </g>
     </g>
     <g id="line2d_50">
      <defs>
       <path d="M 0 0 
L -2 0 
" id="mdcba4ac281" style="stroke:#000000;stroke-width:0.5;"/>
      </defs>
      <g>
       <use style="stroke:#000000;stroke-width:0.5;" x="107.191563" xlink:href="#mdcba4ac281" y="81.810303"/>
      </g>
     </g>
    </g>
    <g id="ytick_7">
     <g id="line2d_51">
      <g>
       <use style="stroke:#000000;stroke-width:0.5;" x="23.491563" xlink:href="#mddb7ea5227" y="74.291524"/>
      </g>
     </g>
     <g id="line2d_52">
      <g>
       <use style="stroke:#000000;stroke-width:0.5;" x="107.191563" xlink:href="#mdcba4ac281" y="74.291524"/>
      </g>
     </g>
    </g>
    <g id="ytick_8">
     <g id="line2d_53">
      <g>
       <use style="stroke:#000000;stroke-width:0.5;" x="23.491563" xlink:href="#mddb7ea5227" y="70.532135"/>
      </g>
     </g>
     <g id="line2d_54">
      <g>
       <use style="stroke:#000000;stroke-width:0.5;" x="107.191563" xlink:href="#mdcba4ac281" y="70.532135"/>
      </g>
     </g>
    </g>
    <g id="ytick_9">
     <g id="line2d_55">
      <g>
       <use style="stroke:#000000;stroke-width:0.5;" x="23.491563" xlink:href="#mddb7ea5227" y="66.772746"/>
      </g>
     </g>
     <g id="line2d_56">
      <g>
       <use style="stroke:#000000;stroke-width:0.5;" x="107.191563" xlink:href="#mdcba4ac281" y="66.772746"/>
      </g>
     </g>
    </g>
    <g id="ytick_10">
     <g id="line2d_57">
      <g>
       <use style="stroke:#000000;stroke-width:0.5;" x="23.491563" xlink:href="#mddb7ea5227" y="63.013356"/>
      </g>
     </g>
     <g id="line2d_58">
      <g>
       <use style="stroke:#000000;stroke-width:0.5;" x="107.191563" xlink:href="#mdcba4ac281" y="63.013356"/>
      </g>
     </g>
    </g>
    <g id="ytick_11">
     <g id="line2d_59">
      <g>
       <use style="stroke:#000000;stroke-width:0.5;" x="23.491563" xlink:href="#mddb7ea5227" y="55.494577"/>
      </g>
     </g>
     <g id="line2d_60">
      <g>
       <use style="stroke:#000000;stroke-width:0.5;" x="107.191563" xlink:href="#mdcba4ac281" y="55.494577"/>
      </g>
     </g>
    </g>
    <g id="ytick_12">
     <g id="line2d_61">
      <g>
       <use style="stroke:#000000;stroke-width:0.5;" x="23.491563" xlink:href="#mddb7ea5227" y="51.735188"/>
      </g>
     </g>
     <g id="line2d_62">
      <g>
       <use style="stroke:#000000;stroke-width:0.5;" x="107.191563" xlink:href="#mdcba4ac281" y="51.735188"/>
      </g>
     </g>
    </g>
    <g id="ytick_13">
     <g id="line2d_63">
      <g>
       <use style="stroke:#000000;stroke-width:0.5;" x="23.491563" xlink:href="#mddb7ea5227" y="47.975798"/>
      </g>
     </g>
     <g id="line2d_64">
      <g>
       <use style="stroke:#000000;stroke-width:0.5;" x="107.191563" xlink:href="#mdcba4ac281" y="47.975798"/>
      </g>
     </g>
    </g>
    <g id="ytick_14">
     <g id="line2d_65">
      <g>
       <use style="stroke:#000000;stroke-width:0.5;" x="23.491563" xlink:href="#mddb7ea5227" y="44.216409"/>
      </g>
     </g>
     <g id="line2d_66">
      <g>
       <use style="stroke:#000000;stroke-width:0.5;" x="107.191563" xlink:href="#mdcba4ac281" y="44.216409"/>
      </g>
     </g>
    </g>
    <g id="ytick_15">
     <g id="line2d_67">
      <g>
       <use style="stroke:#000000;stroke-width:0.5;" x="23.491563" xlink:href="#mddb7ea5227" y="36.69763"/>
      </g>
     </g>
     <g id="line2d_68">
      <g>
       <use style="stroke:#000000;stroke-width:0.5;" x="107.191563" xlink:href="#mdcba4ac281" y="36.69763"/>
      </g>
     </g>
    </g>
    <g id="ytick_16">
     <g id="line2d_69">
      <g>
       <use style="stroke:#000000;stroke-width:0.5;" x="23.491563" xlink:href="#mddb7ea5227" y="32.938241"/>
      </g>
     </g>
     <g id="line2d_70">
      <g>
       <use style="stroke:#000000;stroke-width:0.5;" x="107.191563" xlink:href="#mdcba4ac281" y="32.938241"/>
      </g>
     </g>
    </g>
    <g id="ytick_17">
     <g id="line2d_71">
      <g>
       <use style="stroke:#000000;stroke-width:0.5;" x="23.491563" xlink:href="#mddb7ea5227" y="29.178851"/>
      </g>
     </g>
     <g id="line2d_72">
      <g>
       <use style="stroke:#000000;stroke-width:0.5;" x="107.191563" xlink:href="#mdcba4ac281" y="29.178851"/>
      </g>
     </g>
    </g>
    <g id="ytick_18">
     <g id="line2d_73">
      <g>
       <use style="stroke:#000000;stroke-width:0.5;" x="23.491563" xlink:href="#mddb7ea5227" y="25.419462"/>
      </g>
     </g>
     <g id="line2d_74">
      <g>
       <use style="stroke:#000000;stroke-width:0.5;" x="107.191563" xlink:href="#mdcba4ac281" y="25.419462"/>
      </g>
     </g>
    </g>
    <g id="ytick_19">
     <g id="line2d_75">
      <g>
       <use style="stroke:#000000;stroke-width:0.5;" x="23.491563" xlink:href="#mddb7ea5227" y="17.900683"/>
      </g>
     </g>
     <g id="line2d_76">
      <g>
       <use style="stroke:#000000;stroke-width:0.5;" x="107.191563" xlink:href="#mdcba4ac281" y="17.900683"/>
      </g>
     </g>
    </g>
    <g id="ytick_20">
     <g id="line2d_77">
      <g>
       <use style="stroke:#000000;stroke-width:0.5;" x="23.491563" xlink:href="#mddb7ea5227" y="14.141293"/>
      </g>
     </g>
     <g id="line2d_78">
      <g>
       <use style="stroke:#000000;stroke-width:0.5;" x="107.191563" xlink:href="#mdcba4ac281" y="14.141293"/>
      </g>
     </g>
    </g>
    <g id="ytick_21">
     <g id="line2d_79">
      <g>
       <use style="stroke:#000000;stroke-width:0.5;" x="23.491563" xlink:href="#mddb7ea5227" y="10.381904"/>
      </g>
     </g>
     <g id="line2d_80">
      <g>
       <use style="stroke:#000000;stroke-width:0.5;" x="107.191563" xlink:href="#mdcba4ac281" y="10.381904"/>
      </g>
     </g>
    </g>
    <g id="ytick_22">
     <g id="line2d_81">
      <g>
       <use style="stroke:#000000;stroke-width:0.5;" x="23.491563" xlink:href="#mddb7ea5227" y="6.622514"/>
      </g>
     </g>
     <g id="line2d_82">
      <g>
       <use style="stroke:#000000;stroke-width:0.5;" x="107.191563" xlink:href="#mdcba4ac281" y="6.622514"/>
      </g>
     </g>
    </g>
    <g id="text_12">
     <!-- $\it{Δσ}  (nS)}$ -->
     <defs>
      <path d="M 34.1875 63.1875 
L 14.15625 8.203125 
L 54.25 8.203125 
z
M 0.78125 0 
L 28.609375 72.90625 
L 39.796875 72.90625 
L 67.578125 0 
z
" id="DejaVuSans-916"/>
      <path d="M 34.671875 47.5625 
Q 27.25 47.5625 22.21875 42.1875 
Q 16.890625 36.578125 15.140625 27.296875 
Q 13.1875 17.484375 16.3125 11.8125 
Q 19.390625 6.203125 26.65625 6.203125 
Q 33.84375 6.203125 39.109375 11.859375 
Q 44.4375 17.53125 46.34375 27.296875 
Q 48.046875 36.234375 45.015625 42.1875 
Q 42.1875 47.5625 34.671875 47.5625 
z
M 36.078125 54.734375 
L 65.921875 54.6875 
L 64.15625 45.703125 
L 54.109375 45.703125 
Q 57.90625 38.09375 55.859375 27.296875 
Q 53.21875 13.875 45.0625 6.25 
Q 36.859375 -1.421875 25.140625 -1.421875 
Q 13.375 -1.421875 8.203125 6.25 
Q 3.03125 13.875 5.671875 27.296875 
Q 8.25 40.765625 16.40625 48.390625 
Q 23.1875 54.734375 36.078125 54.734375 
z
" id="DejaVuSans-Oblique-963"/>
      <path d="M 31 75.875 
Q 24.46875 64.65625 21.28125 53.65625 
Q 18.109375 42.671875 18.109375 31.390625 
Q 18.109375 20.125 21.3125 9.0625 
Q 24.515625 -2 31 -13.1875 
L 23.1875 -13.1875 
Q 15.875 -1.703125 12.234375 9.375 
Q 8.59375 20.453125 8.59375 31.390625 
Q 8.59375 42.28125 12.203125 53.3125 
Q 15.828125 64.359375 23.1875 75.875 
z
" id="DejaVuSans-40"/>
      <path d="M 55.71875 33.015625 
L 49.3125 0 
L 40.28125 0 
L 46.6875 32.671875 
Q 47.125 34.96875 47.359375 36.71875 
Q 47.609375 38.484375 47.609375 39.5 
Q 47.609375 43.609375 45.015625 45.890625 
Q 42.4375 48.1875 37.796875 48.1875 
Q 30.5625 48.1875 25.34375 43.375 
Q 20.125 38.578125 18.5 30.328125 
L 12.5 0 
L 3.515625 0 
L 14.109375 54.6875 
L 23.09375 54.6875 
L 21.296875 46.09375 
Q 25.046875 50.828125 30.3125 53.40625 
Q 35.59375 56 41.40625 56 
Q 48.640625 56 52.609375 52.09375 
Q 56.59375 48.1875 56.59375 41.109375 
Q 56.59375 39.359375 56.375 37.359375 
Q 56.15625 35.359375 55.71875 33.015625 
z
" id="DejaVuSans-Oblique-110"/>
      <path d="M 60.296875 70.515625 
L 58.40625 60.890625 
Q 53.46875 63.53125 48.609375 64.875 
Q 43.75 66.21875 39.203125 66.21875 
Q 30.375 66.21875 25.140625 62.359375 
Q 19.921875 58.5 19.921875 52.09375 
Q 19.921875 48.578125 21.84375 46.703125 
Q 23.78125 44.828125 31.78125 42.671875 
L 37.703125 41.21875 
Q 47.703125 38.625 51.609375 34.640625 
Q 55.515625 30.671875 55.515625 23.484375 
Q 55.515625 12.453125 46.84375 5.515625 
Q 38.1875 -1.421875 24.03125 -1.421875 
Q 18.21875 -1.421875 12.359375 -0.265625 
Q 6.5 0.875 0.59375 3.21875 
L 2.59375 13.375 
Q 8.015625 10.015625 13.453125 8.296875 
Q 18.890625 6.59375 24.3125 6.59375 
Q 33.546875 6.59375 39.109375 10.6875 
Q 44.671875 14.796875 44.671875 21.390625 
Q 44.671875 25.78125 42.453125 28.046875 
Q 40.234375 30.328125 32.90625 32.171875 
L 27 33.6875 
Q 16.890625 36.328125 13.203125 39.765625 
Q 9.515625 43.21875 9.515625 49.421875 
Q 9.515625 60.296875 17.890625 67.25 
Q 26.265625 74.21875 39.703125 74.21875 
Q 44.921875 74.21875 50.046875 73.28125 
Q 55.171875 72.359375 60.296875 70.515625 
z
" id="DejaVuSans-Oblique-83"/>
      <path d="M 8.015625 75.875 
L 15.828125 75.875 
Q 23.140625 64.359375 26.78125 53.3125 
Q 30.421875 42.28125 30.421875 31.390625 
Q 30.421875 20.453125 26.78125 9.375 
Q 23.140625 -1.703125 15.828125 -13.1875 
L 8.015625 -13.1875 
Q 14.5 -2 17.703125 9.0625 
Q 20.90625 20.125 20.90625 31.390625 
Q 20.90625 42.671875 17.703125 53.65625 
Q 14.5 64.65625 8.015625 75.875 
z
" id="DejaVuSans-41"/>
     </defs>
     <g transform="translate(7.157812 59.312301)rotate(-90)scale(0.1 -0.1)">
      <use transform="translate(0 0.125)" xlink:href="#DejaVuSans-916"/>
      <use transform="translate(68.408203 0.125)" xlink:href="#DejaVuSans-Oblique-963"/>
      <use transform="translate(131.787109 0.125)" xlink:href="#DejaVuSans-40"/>
      <use transform="translate(170.800781 0.125)" xlink:href="#DejaVuSans-Oblique-110"/>
      <use transform="translate(234.179688 0.125)" xlink:href="#DejaVuSans-Oblique-83"/>
      <use transform="translate(297.65625 0.125)" xlink:href="#DejaVuSans-41"/>
     </g>
    </g>
   </g>
   <g id="line2d_83">
    <path clip-path="url(#pa9d17b1c20)" d="M 27.296108 59.260631 
L 27.935585 59.729852 
L 28.574972 66.221348 
L 29.214368 66.171962 
L 29.853847 67.17813 
L 30.49326 66.553426 
L 31.132662 66.867503 
L 31.772083 67.057862 
L 32.41153 63.730059 
L 33.050849 70.203803 
L 33.690269 69.037135 
L 34.329696 69.775936 
L 34.969142 70.180205 
L 35.608567 67.216085 
L 36.247938 67.983836 
L 36.88735 64.619877 
L 37.52678 62.610141 
L 38.166225 64.544914 
L 38.805637 64.158227 
L 39.445025 65.1514 
L 40.084451 64.586189 
L 40.723887 64.733601 
L 41.363289 66.789514 
L 42.002708 63.616204 
L 42.642135 64.214013 
L 43.281561 63.617698 
L 43.920989 61.695887 
L 44.560403 57.940224 
L 46.478643 67.691144 
L 47.117994 67.998652 
L 47.757393 66.150855 
L 48.396847 69.54589 
L 49.036195 67.978673 
L 49.675689 68.988238 
L 50.315118 72.157843 
L 50.954569 71.0791 
L 51.594001 69.105731 
L 52.233438 71.715085 
L 52.872826 69.853328 
L 53.512228 71.763186 
L 54.151678 71.040763 
L 54.791103 68.108914 
L 55.430511 70.279597 
L 56.069956 69.851117 
L 56.709368 70.860229 
L 57.348806 71.431487 
L 57.988188 72.106896 
L 58.627625 75.758626 
L 59.266997 74.265373 
L 59.90645 75.30759 
L 60.545788 75.946748 
L 61.185189 74.815663 
L 61.824676 79.015739 
L 62.464018 79.525938 
L 63.103412 77.164736 
L 63.742837 76.021797 
L 64.382261 79.065596 
L 65.021678 78.050914 
L 65.661065 78.050914 
L 66.300486 79.065596 
L 66.939946 76.021797 
L 67.579336 77.164736 
L 68.218805 79.525938 
L 68.858153 79.015739 
L 69.497594 74.815663 
L 70.137036 75.946748 
L 70.776509 75.30759 
L 71.415876 74.265373 
L 72.055288 75.758626 
L 72.694721 72.106896 
L 73.334085 71.431487 
L 73.973545 70.860229 
L 74.612938 69.851117 
L 75.252399 70.279597 
L 75.891782 68.108914 
L 76.531225 71.040763 
L 77.170629 71.763186 
L 77.810057 69.853328 
L 78.449564 71.715085 
L 79.089039 69.105731 
L 79.728428 71.0791 
L 80.367892 72.157843 
L 81.007286 68.988238 
L 81.646706 67.978673 
L 82.286124 69.54589 
L 82.925572 66.150855 
L 83.565017 67.998652 
L 84.204414 67.691144 
L 86.122687 57.940224 
L 86.762111 61.695887 
L 87.401561 63.617698 
L 88.040976 64.214013 
L 88.680408 63.616204 
L 89.31985 66.789514 
L 89.959262 64.733601 
L 90.598679 64.586189 
L 91.23813 65.1514 
L 91.877517 64.158227 
L 92.516955 64.544914 
L 93.156331 62.610141 
L 93.795743 64.619877 
L 94.435182 67.983836 
L 95.074589 67.216085 
L 95.713986 70.180205 
L 96.353414 69.775936 
L 96.992839 69.037135 
L 97.632253 70.203803 
L 98.271709 63.730059 
L 98.911105 67.057862 
L 99.550508 66.867503 
L 100.189891 66.553426 
L 100.82934 67.17813 
L 101.468779 66.171962 
L 102.108166 66.221348 
L 102.747584 59.729852 
L 103.387017 59.260631 
" style="fill:none;stroke:#e41a1c;stroke-linecap:square;"/>
   </g>
   <g id="line2d_84">
    <path clip-path="url(#pa9d17b1c20)" d="M 27.296116 16.291519 
L 27.935558 9.32324 
L 28.574923 15.444844 
L 29.21437 9.096971 
L 29.853864 11.37067 
L 30.493242 8.005575 
L 31.132642 5.398665 
L 31.772072 5.799349 
L 32.411444 12.036256 
L 33.050865 16.737977 
L 33.690256 13.872558 
L 34.329683 14.218798 
L 34.969133 13.973299 
L 35.608543 19.942758 
L 36.247911 12.146298 
L 36.887364 10.670721 
L 37.526782 13.823933 
L 38.166234 21.725299 
L 38.805623 20.603609 
L 39.445077 13.035259 
L 40.084456 12.562718 
L 40.723864 18.390206 
L 41.363302 15.569021 
L 42.002716 17.415626 
L 42.64216 16.833614 
L 43.281568 20.619764 
L 43.920982 18.524026 
L 44.560377 20.776692 
L 45.199818 18.111095 
L 45.839224 21.218606 
L 46.478612 19.942677 
L 47.117956 18.439864 
L 47.757399 20.598891 
L 48.396865 21.6462 
L 49.036246 20.569163 
L 49.675687 20.363812 
L 50.315121 20.253964 
L 50.954599 25.801089 
L 51.593995 32.067723 
L 52.233436 32.081567 
L 52.872832 37.81002 
L 53.512234 30.183865 
L 54.151696 31.268665 
L 54.791065 32.643651 
L 55.430514 34.474008 
L 56.06995 32.561967 
L 56.709365 37.301091 
L 57.34881 35.673417 
L 57.988182 34.709359 
L 58.627588 34.227925 
L 59.266986 35.072574 
L 59.906475 41.640045 
L 60.545817 43.018153 
L 61.185254 45.138042 
L 61.824695 45.754562 
L 62.464031 52.079536 
L 63.103418 58.320597 
L 63.742833 63.41613 
L 64.382274 70.829266 
L 65.021693 78.050914 
L 65.661097 78.050914 
L 66.300515 70.829266 
L 66.939907 63.41613 
L 67.579362 58.320597 
L 68.218794 52.079536 
L 68.858159 45.754562 
L 69.497616 45.138042 
L 70.137008 43.018153 
L 70.776432 41.640045 
L 71.415876 35.072574 
L 72.055274 34.227925 
L 72.69469 34.709359 
L 73.334117 35.673417 
L 73.97354 37.301091 
L 74.612946 32.561967 
L 75.252385 34.474008 
L 75.891788 32.643651 
L 76.531216 31.268665 
L 77.170661 30.183865 
L 77.81004 37.81002 
L 78.449558 32.081567 
L 79.089036 32.067723 
L 79.728462 25.801089 
L 80.367915 20.253964 
L 81.007297 20.363812 
L 81.646752 20.569163 
L 82.286172 21.6462 
L 82.925577 20.598891 
L 83.565008 18.439864 
L 84.204427 19.942677 
L 84.843837 21.218606 
L 85.483277 18.111095 
L 86.122719 20.776692 
L 86.762111 18.524026 
L 87.401567 20.619764 
L 88.040947 16.833614 
L 88.680418 17.415626 
L 89.319828 15.569021 
L 89.959262 18.390206 
L 90.598672 12.562718 
L 91.238117 13.035259 
L 91.877529 20.603609 
L 92.516912 21.725299 
L 93.156396 13.823933 
L 93.795733 10.670721 
L 94.435117 12.146298 
L 95.074602 19.942758 
L 95.714008 13.973299 
L 96.35342 14.218798 
L 96.992834 13.872558 
L 97.632273 16.737977 
L 98.27168 12.036256 
L 98.911112 5.799349 
L 99.550483 5.398665 
L 100.189923 8.005575 
L 100.82932 11.37067 
L 101.468771 9.096971 
L 102.108175 15.444844 
L 102.74757 9.32324 
L 103.38699 16.291519 
" style="fill:none;stroke:#377eb8;stroke-linecap:square;"/>
   </g>
   <g id="line2d_85">
    <path clip-path="url(#pa9d17b1c20)" d="M 65.661097 77.693667 
L 66.300515 73.454488 
L 66.939907 67.455392 
L 67.579362 61.615814 
L 68.218794 56.443834 
L 68.858159 51.98524 
L 69.497616 48.160377 
L 70.137008 44.870441 
L 70.776432 42.023378 
L 71.415876 39.54257 
L 72.055274 37.365902 
L 72.69469 35.442937 
L 73.334117 33.733321 
L 73.97354 32.204442 
L 74.612946 30.82977 
L 75.252385 29.587457 
L 75.891788 28.459705 
L 76.531216 27.4315 
L 77.170661 26.490394 
L 77.81004 25.626005 
L 78.449558 24.829166 
L 79.089036 24.092526 
L 79.728462 23.409576 
L 80.367915 22.774623 
L 81.007297 22.182898 
L 81.646752 21.630039 
L 82.286172 21.112443 
L 82.925577 20.626844 
L 83.565008 20.17035 
L 84.204427 19.740455 
L 84.843837 19.334909 
L 85.483277 18.951685 
L 86.122719 18.589012 
L 86.762111 18.245312 
L 87.401567 17.919082 
L 88.040947 17.609093 
L 88.680418 17.314091 
L 89.319828 17.033082 
L 89.959262 16.76506 
L 90.598672 16.509168 
L 91.238117 16.264579 
L 91.877529 16.030587 
L 92.516912 15.806518 
L 93.156396 15.591711 
L 93.795733 15.385685 
L 94.435117 15.187852 
L 95.074602 14.997719 
L 95.714008 14.814897 
L 96.35342 14.638949 
L 96.992834 14.469496 
L 97.632273 14.306179 
L 98.27168 14.148687 
L 98.911112 13.996699 
L 99.550483 13.849952 
L 100.189923 13.708151 
L 100.82932 13.571075 
L 101.468771 13.438471 
L 102.108175 13.310144 
L 102.74757 13.185884 
L 103.38699 13.065495 
" style="fill:none;stroke:#000000;stroke-linecap:square;"/>
   </g>
   <g id="patch_3">
    <path d="M 23.491563 83.232301 
L 23.491563 1.692301 
" style="fill:none;stroke:#000000;stroke-linecap:square;stroke-linejoin:miter;stroke-width:0.5;"/>
   </g>
   <g id="patch_4">
    <path d="M 107.191563 83.232301 
L 107.191563 1.692301 
" style="fill:none;stroke:#000000;stroke-linecap:square;stroke-linejoin:miter;stroke-width:0.5;"/>
   </g>
   <g id="patch_5">
    <path d="M 23.491563 83.232301 
L 107.191563 83.232301 
" style="fill:none;stroke:#000000;stroke-linecap:square;stroke-linejoin:miter;stroke-width:0.5;"/>
   </g>
   <g id="patch_6">
    <path d="M 23.491563 1.692301 
L 107.191563 1.692301 
" style="fill:none;stroke:#000000;stroke-linecap:square;stroke-linejoin:miter;stroke-width:0.5;"/>
   </g>
  </g>
 </g>
 <defs>
  <clipPath id="pa9d17b1c20">
   <rect height="81.54" width="83.7" x="23.491563" y="1.692301"/>
  </clipPath>
 </defs>
</svg>
