<?xml version="1.0" encoding="utf-8" standalone="no"?>
<!DOCTYPE svg PUBLIC "-//W3C//DTD SVG 1.1//EN"
  "http://www.w3.org/Graphics/SVG/1.1/DTD/svg11.dtd">
<!-- Created with matplotlib (https://matplotlib.org/) -->
<svg height="99.35625pt" version="1.1" viewBox="0 0 110.66875 99.35625" width="110.66875pt" xmlns="http://www.w3.org/2000/svg" xmlns:xlink="http://www.w3.org/1999/xlink">
 <defs>
  <style type="text/css">
*{stroke-linecap:butt;stroke-linejoin:round;}
  </style>
 </defs>
 <g id="figure_1">
  <g id="patch_1">
   <path d="M 0 99.35625 
L 110.66875 99.35625 
L 110.66875 0 
L 0 0 
z
" style="fill:none;"/>
  </g>
  <g id="axes_1">
   <g id="patch_2">
    <path d="M 26.96875 81.54 
L 110.66875 81.54 
L 110.66875 0 
L 26.96875 0 
z
" style="fill:none;"/>
   </g>
   <g id="matplotlib.axis_1">
    <g id="xtick_1">
     <g id="line2d_1">
      <defs>
       <path d="M 0 0 
L 0 -3.5 
" id="md2ea1e3e63" style="stroke:#000000;stroke-width:0.5;"/>
      </defs>
      <g>
       <use style="stroke:#000000;stroke-width:0.5;" x="34.822845" xlink:href="#md2ea1e3e63" y="81.54"/>
      </g>
     </g>
     <g id="line2d_2">
      <defs>
       <path d="M 0 0 
L 0 3.5 
" id="m287470f626" style="stroke:#000000;stroke-width:0.5;"/>
      </defs>
      <g>
       <use style="stroke:#000000;stroke-width:0.5;" x="34.822845" xlink:href="#m287470f626" y="0"/>
      </g>
     </g>
     <g id="text_1">
      <!-- −8 -->
      <defs>
       <path d="M 52.828125 31.203125 
L 5.5625 31.203125 
L 5.5625 39.40625 
L 52.828125 39.40625 
z
" id="ArialMT-8722"/>
       <path d="M 17.671875 38.8125 
Q 12.203125 40.828125 9.5625 44.53125 
Q 6.9375 48.25 6.9375 53.421875 
Q 6.9375 61.234375 12.546875 66.546875 
Q 18.171875 71.875 27.484375 71.875 
Q 36.859375 71.875 42.578125 66.421875 
Q 48.296875 60.984375 48.296875 53.171875 
Q 48.296875 48.1875 45.671875 44.5 
Q 43.0625 40.828125 37.75 38.8125 
Q 44.34375 36.671875 47.78125 31.875 
Q 51.21875 27.09375 51.21875 20.453125 
Q 51.21875 11.28125 44.71875 5.03125 
Q 38.234375 -1.21875 27.640625 -1.21875 
Q 17.046875 -1.21875 10.546875 5.046875 
Q 4.046875 11.328125 4.046875 20.703125 
Q 4.046875 27.6875 7.59375 32.390625 
Q 11.140625 37.109375 17.671875 38.8125 
z
M 15.921875 53.71875 
Q 15.921875 48.640625 19.1875 45.40625 
Q 22.46875 42.1875 27.6875 42.1875 
Q 32.765625 42.1875 36.015625 45.375 
Q 39.265625 48.578125 39.265625 53.21875 
Q 39.265625 58.0625 35.90625 61.359375 
Q 32.5625 64.65625 27.59375 64.65625 
Q 22.5625 64.65625 19.234375 61.421875 
Q 15.921875 58.203125 15.921875 53.71875 
z
M 13.09375 20.65625 
Q 13.09375 16.890625 14.875 13.375 
Q 16.65625 9.859375 20.171875 7.921875 
Q 23.6875 6 27.734375 6 
Q 34.03125 6 38.125 10.046875 
Q 42.234375 14.109375 42.234375 20.359375 
Q 42.234375 26.703125 38.015625 30.859375 
Q 33.796875 35.015625 27.4375 35.015625 
Q 21.234375 35.015625 17.15625 30.90625 
Q 13.09375 26.8125 13.09375 20.65625 
z
" id="ArialMT-56"/>
      </defs>
      <g transform="translate(30.26222 88.26625)scale(0.08 -0.08)">
       <use xlink:href="#ArialMT-8722"/>
       <use x="58.398438" xlink:href="#ArialMT-56"/>
      </g>
     </g>
    </g>
    <g id="xtick_2">
     <g id="line2d_3">
      <g>
       <use style="stroke:#000000;stroke-width:0.5;" x="51.874027" xlink:href="#md2ea1e3e63" y="81.54"/>
      </g>
     </g>
     <g id="line2d_4">
      <g>
       <use style="stroke:#000000;stroke-width:0.5;" x="51.874027" xlink:href="#m287470f626" y="0"/>
      </g>
     </g>
     <g id="text_2">
      <!-- −4 -->
      <defs>
       <path d="M 32.328125 0 
L 32.328125 17.140625 
L 1.265625 17.140625 
L 1.265625 25.203125 
L 33.9375 71.578125 
L 41.109375 71.578125 
L 41.109375 25.203125 
L 50.78125 25.203125 
L 50.78125 17.140625 
L 41.109375 17.140625 
L 41.109375 0 
z
M 32.328125 25.203125 
L 32.328125 57.46875 
L 9.90625 25.203125 
z
" id="ArialMT-52"/>
      </defs>
      <g transform="translate(47.313402 88.26625)scale(0.08 -0.08)">
       <use xlink:href="#ArialMT-8722"/>
       <use x="58.398438" xlink:href="#ArialMT-52"/>
      </g>
     </g>
    </g>
    <g id="xtick_3">
     <g id="line2d_5">
      <g>
       <use style="stroke:#000000;stroke-width:0.5;" x="68.925209" xlink:href="#md2ea1e3e63" y="81.54"/>
      </g>
     </g>
     <g id="line2d_6">
      <g>
       <use style="stroke:#000000;stroke-width:0.5;" x="68.925209" xlink:href="#m287470f626" y="0"/>
      </g>
     </g>
     <g id="text_3">
      <!-- 0 -->
      <defs>
       <path d="M 4.15625 35.296875 
Q 4.15625 48 6.765625 55.734375 
Q 9.375 63.484375 14.515625 67.671875 
Q 19.671875 71.875 27.484375 71.875 
Q 33.25 71.875 37.59375 69.546875 
Q 41.9375 67.234375 44.765625 62.859375 
Q 47.609375 58.5 49.21875 52.21875 
Q 50.828125 45.953125 50.828125 35.296875 
Q 50.828125 22.703125 48.234375 14.96875 
Q 45.65625 7.234375 40.5 3 
Q 35.359375 -1.21875 27.484375 -1.21875 
Q 17.140625 -1.21875 11.234375 6.203125 
Q 4.15625 15.140625 4.15625 35.296875 
z
M 13.1875 35.296875 
Q 13.1875 17.671875 17.3125 11.828125 
Q 21.4375 6 27.484375 6 
Q 33.546875 6 37.671875 11.859375 
Q 41.796875 17.71875 41.796875 35.296875 
Q 41.796875 52.984375 37.671875 58.78125 
Q 33.546875 64.59375 27.390625 64.59375 
Q 21.34375 64.59375 17.71875 59.46875 
Q 13.1875 52.9375 13.1875 35.296875 
z
" id="ArialMT-48"/>
      </defs>
      <g transform="translate(66.700834 88.26625)scale(0.08 -0.08)">
       <use xlink:href="#ArialMT-48"/>
      </g>
     </g>
    </g>
    <g id="xtick_4">
     <g id="line2d_7">
      <g>
       <use style="stroke:#000000;stroke-width:0.5;" x="85.976392" xlink:href="#md2ea1e3e63" y="81.54"/>
      </g>
     </g>
     <g id="line2d_8">
      <g>
       <use style="stroke:#000000;stroke-width:0.5;" x="85.976392" xlink:href="#m287470f626" y="0"/>
      </g>
     </g>
     <g id="text_4">
      <!-- 4 -->
      <g transform="translate(83.752017 88.26625)scale(0.08 -0.08)">
       <use xlink:href="#ArialMT-52"/>
      </g>
     </g>
    </g>
    <g id="xtick_5">
     <g id="line2d_9">
      <g>
       <use style="stroke:#000000;stroke-width:0.5;" x="103.027574" xlink:href="#md2ea1e3e63" y="81.54"/>
      </g>
     </g>
     <g id="line2d_10">
      <g>
       <use style="stroke:#000000;stroke-width:0.5;" x="103.027574" xlink:href="#m287470f626" y="0"/>
      </g>
     </g>
     <g id="text_5">
      <!-- 8 -->
      <g transform="translate(100.803199 88.26625)scale(0.08 -0.08)">
       <use xlink:href="#ArialMT-56"/>
      </g>
     </g>
    </g>
    <g id="xtick_6">
     <g id="line2d_11">
      <defs>
       <path d="M 0 0 
L 0 -2 
" id="m27db13b7a6" style="stroke:#000000;stroke-width:0.5;"/>
      </defs>
      <g>
       <use style="stroke:#000000;stroke-width:0.5;" x="30.560049" xlink:href="#m27db13b7a6" y="81.54"/>
      </g>
     </g>
     <g id="line2d_12">
      <defs>
       <path d="M 0 0 
L 0 2 
" id="m606726f7e3" style="stroke:#000000;stroke-width:0.5;"/>
      </defs>
      <g>
       <use style="stroke:#000000;stroke-width:0.5;" x="30.560049" xlink:href="#m606726f7e3" y="0"/>
      </g>
     </g>
    </g>
    <g id="xtick_7">
     <g id="line2d_13">
      <g>
       <use style="stroke:#000000;stroke-width:0.5;" x="39.08564" xlink:href="#m27db13b7a6" y="81.54"/>
      </g>
     </g>
     <g id="line2d_14">
      <g>
       <use style="stroke:#000000;stroke-width:0.5;" x="39.08564" xlink:href="#m606726f7e3" y="0"/>
      </g>
     </g>
    </g>
    <g id="xtick_8">
     <g id="line2d_15">
      <g>
       <use style="stroke:#000000;stroke-width:0.5;" x="43.348436" xlink:href="#m27db13b7a6" y="81.54"/>
      </g>
     </g>
     <g id="line2d_16">
      <g>
       <use style="stroke:#000000;stroke-width:0.5;" x="43.348436" xlink:href="#m606726f7e3" y="0"/>
      </g>
     </g>
    </g>
    <g id="xtick_9">
     <g id="line2d_17">
      <g>
       <use style="stroke:#000000;stroke-width:0.5;" x="47.611231" xlink:href="#m27db13b7a6" y="81.54"/>
      </g>
     </g>
     <g id="line2d_18">
      <g>
       <use style="stroke:#000000;stroke-width:0.5;" x="47.611231" xlink:href="#m606726f7e3" y="0"/>
      </g>
     </g>
    </g>
    <g id="xtick_10">
     <g id="line2d_19">
      <g>
       <use style="stroke:#000000;stroke-width:0.5;" x="56.136823" xlink:href="#m27db13b7a6" y="81.54"/>
      </g>
     </g>
     <g id="line2d_20">
      <g>
       <use style="stroke:#000000;stroke-width:0.5;" x="56.136823" xlink:href="#m606726f7e3" y="0"/>
      </g>
     </g>
    </g>
    <g id="xtick_11">
     <g id="line2d_21">
      <g>
       <use style="stroke:#000000;stroke-width:0.5;" x="60.399618" xlink:href="#m27db13b7a6" y="81.54"/>
      </g>
     </g>
     <g id="line2d_22">
      <g>
       <use style="stroke:#000000;stroke-width:0.5;" x="60.399618" xlink:href="#m606726f7e3" y="0"/>
      </g>
     </g>
    </g>
    <g id="xtick_12">
     <g id="line2d_23">
      <g>
       <use style="stroke:#000000;stroke-width:0.5;" x="64.662414" xlink:href="#m27db13b7a6" y="81.54"/>
      </g>
     </g>
     <g id="line2d_24">
      <g>
       <use style="stroke:#000000;stroke-width:0.5;" x="64.662414" xlink:href="#m606726f7e3" y="0"/>
      </g>
     </g>
    </g>
    <g id="xtick_13">
     <g id="line2d_25">
      <g>
       <use style="stroke:#000000;stroke-width:0.5;" x="73.188005" xlink:href="#m27db13b7a6" y="81.54"/>
      </g>
     </g>
     <g id="line2d_26">
      <g>
       <use style="stroke:#000000;stroke-width:0.5;" x="73.188005" xlink:href="#m606726f7e3" y="0"/>
      </g>
     </g>
    </g>
    <g id="xtick_14">
     <g id="line2d_27">
      <g>
       <use style="stroke:#000000;stroke-width:0.5;" x="77.450801" xlink:href="#m27db13b7a6" y="81.54"/>
      </g>
     </g>
     <g id="line2d_28">
      <g>
       <use style="stroke:#000000;stroke-width:0.5;" x="77.450801" xlink:href="#m606726f7e3" y="0"/>
      </g>
     </g>
    </g>
    <g id="xtick_15">
     <g id="line2d_29">
      <g>
       <use style="stroke:#000000;stroke-width:0.5;" x="81.713596" xlink:href="#m27db13b7a6" y="81.54"/>
      </g>
     </g>
     <g id="line2d_30">
      <g>
       <use style="stroke:#000000;stroke-width:0.5;" x="81.713596" xlink:href="#m606726f7e3" y="0"/>
      </g>
     </g>
    </g>
    <g id="xtick_16">
     <g id="line2d_31">
      <g>
       <use style="stroke:#000000;stroke-width:0.5;" x="90.239187" xlink:href="#m27db13b7a6" y="81.54"/>
      </g>
     </g>
     <g id="line2d_32">
      <g>
       <use style="stroke:#000000;stroke-width:0.5;" x="90.239187" xlink:href="#m606726f7e3" y="0"/>
      </g>
     </g>
    </g>
    <g id="xtick_17">
     <g id="line2d_33">
      <g>
       <use style="stroke:#000000;stroke-width:0.5;" x="94.501983" xlink:href="#m27db13b7a6" y="81.54"/>
      </g>
     </g>
     <g id="line2d_34">
      <g>
       <use style="stroke:#000000;stroke-width:0.5;" x="94.501983" xlink:href="#m606726f7e3" y="0"/>
      </g>
     </g>
    </g>
    <g id="xtick_18">
     <g id="line2d_35">
      <g>
       <use style="stroke:#000000;stroke-width:0.5;" x="98.764779" xlink:href="#m27db13b7a6" y="81.54"/>
      </g>
     </g>
     <g id="line2d_36">
      <g>
       <use style="stroke:#000000;stroke-width:0.5;" x="98.764779" xlink:href="#m606726f7e3" y="0"/>
      </g>
     </g>
    </g>
    <g id="xtick_19">
     <g id="line2d_37">
      <g>
       <use style="stroke:#000000;stroke-width:0.5;" x="107.29037" xlink:href="#m27db13b7a6" y="81.54"/>
      </g>
     </g>
     <g id="line2d_38">
      <g>
       <use style="stroke:#000000;stroke-width:0.5;" x="107.29037" xlink:href="#m606726f7e3" y="0"/>
      </g>
     </g>
    </g>
    <g id="text_6">
     <!-- $\it{B}$ (T) -->
     <defs>
      <path d="M 16.890625 72.90625 
L 42.09375 72.90625 
Q 52.34375 72.90625 57.421875 69.09375 
Q 62.5 65.28125 62.5 57.625 
Q 62.5 50.59375 58.125 45.484375 
Q 53.765625 40.375 46.6875 39.3125 
Q 52.734375 37.9375 55.765625 34.078125 
Q 58.796875 30.21875 58.796875 23.78125 
Q 58.796875 12.796875 50.65625 6.390625 
Q 42.53125 0 28.421875 0 
L 2.6875 0 
z
M 19.28125 34.8125 
L 14.109375 8.109375 
L 29.984375 8.109375 
Q 38.921875 8.109375 43.75 12.203125 
Q 48.578125 16.3125 48.578125 23.78125 
Q 48.578125 29.546875 45.375 32.171875 
Q 42.1875 34.8125 35.109375 34.8125 
z
M 25.09375 64.796875 
L 20.796875 42.828125 
L 35.5 42.828125 
Q 43.359375 42.828125 47.78125 46.234375 
Q 52.203125 49.65625 52.203125 55.71875 
Q 52.203125 60.453125 49.21875 62.625 
Q 46.234375 64.796875 39.703125 64.796875 
z
" id="DejaVuSans-Oblique-66"/>
      <path id="ArialMT-32"/>
      <path d="M 23.390625 -21.046875 
Q 16.109375 -11.859375 11.078125 0.4375 
Q 6.0625 12.75 6.0625 25.921875 
Q 6.0625 37.546875 9.8125 48.1875 
Q 14.203125 60.546875 23.390625 72.796875 
L 29.6875 72.796875 
Q 23.78125 62.640625 21.875 58.296875 
Q 18.890625 51.5625 17.1875 44.234375 
Q 15.09375 35.109375 15.09375 25.875 
Q 15.09375 2.390625 29.6875 -21.046875 
z
" id="ArialMT-40"/>
      <path d="M 25.921875 0 
L 25.921875 63.140625 
L 2.34375 63.140625 
L 2.34375 71.578125 
L 59.078125 71.578125 
L 59.078125 63.140625 
L 35.40625 63.140625 
L 35.40625 0 
z
" id="ArialMT-84"/>
      <path d="M 12.359375 -21.046875 
L 6.0625 -21.046875 
Q 20.65625 2.390625 20.65625 25.875 
Q 20.65625 35.0625 18.5625 44.09375 
Q 16.890625 51.421875 13.921875 58.15625 
Q 12.015625 62.546875 6.0625 72.796875 
L 12.359375 72.796875 
Q 21.53125 60.546875 25.921875 48.1875 
Q 29.6875 37.546875 29.6875 25.921875 
Q 29.6875 12.75 24.625 0.4375 
Q 19.578125 -11.859375 12.359375 -21.046875 
z
" id="ArialMT-41"/>
     </defs>
     <g transform="translate(57.56875 97.15625)scale(0.1 -0.1)">
      <use transform="translate(0 0.09375)" xlink:href="#DejaVuSans-Oblique-66"/>
      <use transform="translate(68.603516 0.09375)" xlink:href="#ArialMT-32"/>
      <use transform="translate(96.386719 0.09375)" xlink:href="#ArialMT-40"/>
      <use transform="translate(129.6875 0.09375)" xlink:href="#ArialMT-84"/>
      <use transform="translate(190.771484 0.09375)" xlink:href="#ArialMT-41"/>
     </g>
    </g>
   </g>
   <g id="matplotlib.axis_2">
    <g id="ytick_1">
     <g id="line2d_39">
      <defs>
       <path d="M 0 0 
L 3.5 0 
" id="m6ff8141bb8" style="stroke:#000000;stroke-width:0.5;"/>
      </defs>
      <g>
       <use style="stroke:#000000;stroke-width:0.5;" x="26.96875" xlink:href="#m6ff8141bb8" y="76.420757"/>
      </g>
     </g>
     <g id="line2d_40">
      <defs>
       <path d="M 0 0 
L -3.5 0 
" id="mc6cd7963f6" style="stroke:#000000;stroke-width:0.5;"/>
      </defs>
      <g>
       <use style="stroke:#000000;stroke-width:0.5;" x="110.66875" xlink:href="#mc6cd7963f6" y="76.420757"/>
      </g>
     </g>
     <g id="text_7">
      <!-- 0.00 -->
      <defs>
       <path d="M 9.078125 0 
L 9.078125 10.015625 
L 19.09375 10.015625 
L 19.09375 0 
z
" id="ArialMT-46"/>
      </defs>
      <g transform="translate(10.4 79.283882)scale(0.08 -0.08)">
       <use xlink:href="#ArialMT-48"/>
       <use x="55.615234" xlink:href="#ArialMT-46"/>
       <use x="83.398438" xlink:href="#ArialMT-48"/>
       <use x="139.013672" xlink:href="#ArialMT-48"/>
      </g>
     </g>
    </g>
    <g id="ytick_2">
     <g id="line2d_41">
      <g>
       <use style="stroke:#000000;stroke-width:0.5;" x="26.96875" xlink:href="#m6ff8141bb8" y="58.415752"/>
      </g>
     </g>
     <g id="line2d_42">
      <g>
       <use style="stroke:#000000;stroke-width:0.5;" x="110.66875" xlink:href="#mc6cd7963f6" y="58.415752"/>
      </g>
     </g>
     <g id="text_8">
      <!-- 0.25 -->
      <defs>
       <path d="M 50.34375 8.453125 
L 50.34375 0 
L 3.03125 0 
Q 2.9375 3.171875 4.046875 6.109375 
Q 5.859375 10.9375 9.828125 15.625 
Q 13.8125 20.3125 21.34375 26.46875 
Q 33.015625 36.03125 37.109375 41.625 
Q 41.21875 47.21875 41.21875 52.203125 
Q 41.21875 57.421875 37.46875 61 
Q 33.734375 64.59375 27.734375 64.59375 
Q 21.390625 64.59375 17.578125 60.78125 
Q 13.765625 56.984375 13.71875 50.25 
L 4.6875 51.171875 
Q 5.609375 61.28125 11.65625 66.578125 
Q 17.71875 71.875 27.9375 71.875 
Q 38.234375 71.875 44.234375 66.15625 
Q 50.25 60.453125 50.25 52 
Q 50.25 47.703125 48.484375 43.546875 
Q 46.734375 39.40625 42.65625 34.8125 
Q 38.578125 30.21875 29.109375 22.21875 
Q 21.1875 15.578125 18.9375 13.203125 
Q 16.703125 10.84375 15.234375 8.453125 
z
" id="ArialMT-50"/>
       <path d="M 4.15625 18.75 
L 13.375 19.53125 
Q 14.40625 12.796875 18.140625 9.390625 
Q 21.875 6 27.15625 6 
Q 33.5 6 37.890625 10.78125 
Q 42.28125 15.578125 42.28125 23.484375 
Q 42.28125 31 38.0625 35.34375 
Q 33.84375 39.703125 27 39.703125 
Q 22.75 39.703125 19.328125 37.765625 
Q 15.921875 35.84375 13.96875 32.765625 
L 5.71875 33.84375 
L 12.640625 70.609375 
L 48.25 70.609375 
L 48.25 62.203125 
L 19.671875 62.203125 
L 15.828125 42.96875 
Q 22.265625 47.46875 29.34375 47.46875 
Q 38.71875 47.46875 45.15625 40.96875 
Q 51.609375 34.46875 51.609375 24.265625 
Q 51.609375 14.546875 45.953125 7.46875 
Q 39.0625 -1.21875 27.15625 -1.21875 
Q 17.390625 -1.21875 11.203125 4.25 
Q 5.03125 9.71875 4.15625 18.75 
z
" id="ArialMT-53"/>
      </defs>
      <g transform="translate(10.4 61.278877)scale(0.08 -0.08)">
       <use xlink:href="#ArialMT-48"/>
       <use x="55.615234" xlink:href="#ArialMT-46"/>
       <use x="83.398438" xlink:href="#ArialMT-50"/>
       <use x="139.013672" xlink:href="#ArialMT-53"/>
      </g>
     </g>
    </g>
    <g id="ytick_3">
     <g id="line2d_43">
      <g>
       <use style="stroke:#000000;stroke-width:0.5;" x="26.96875" xlink:href="#m6ff8141bb8" y="40.410746"/>
      </g>
     </g>
     <g id="line2d_44">
      <g>
       <use style="stroke:#000000;stroke-width:0.5;" x="110.66875" xlink:href="#mc6cd7963f6" y="40.410746"/>
      </g>
     </g>
     <g id="text_9">
      <!-- 0.50 -->
      <g transform="translate(10.4 43.273871)scale(0.08 -0.08)">
       <use xlink:href="#ArialMT-48"/>
       <use x="55.615234" xlink:href="#ArialMT-46"/>
       <use x="83.398438" xlink:href="#ArialMT-53"/>
       <use x="139.013672" xlink:href="#ArialMT-48"/>
      </g>
     </g>
    </g>
    <g id="ytick_4">
     <g id="line2d_45">
      <g>
       <use style="stroke:#000000;stroke-width:0.5;" x="26.96875" xlink:href="#m6ff8141bb8" y="22.40574"/>
      </g>
     </g>
     <g id="line2d_46">
      <g>
       <use style="stroke:#000000;stroke-width:0.5;" x="110.66875" xlink:href="#mc6cd7963f6" y="22.40574"/>
      </g>
     </g>
     <g id="text_10">
      <!-- 0.75 -->
      <defs>
       <path d="M 4.734375 62.203125 
L 4.734375 70.65625 
L 51.078125 70.65625 
L 51.078125 63.8125 
Q 44.234375 56.546875 37.515625 44.484375 
Q 30.8125 32.421875 27.15625 19.671875 
Q 24.515625 10.6875 23.78125 0 
L 14.75 0 
Q 14.890625 8.453125 18.0625 20.40625 
Q 21.234375 32.375 27.171875 43.484375 
Q 33.109375 54.59375 39.796875 62.203125 
z
" id="ArialMT-55"/>
      </defs>
      <g transform="translate(10.4 25.268865)scale(0.08 -0.08)">
       <use xlink:href="#ArialMT-48"/>
       <use x="55.615234" xlink:href="#ArialMT-46"/>
       <use x="83.398438" xlink:href="#ArialMT-55"/>
       <use x="139.013672" xlink:href="#ArialMT-53"/>
      </g>
     </g>
    </g>
    <g id="ytick_5">
     <g id="line2d_47">
      <g>
       <use style="stroke:#000000;stroke-width:0.5;" x="26.96875" xlink:href="#m6ff8141bb8" y="4.400734"/>
      </g>
     </g>
     <g id="line2d_48">
      <g>
       <use style="stroke:#000000;stroke-width:0.5;" x="110.66875" xlink:href="#mc6cd7963f6" y="4.400734"/>
      </g>
     </g>
     <g id="text_11">
      <!-- 1.00 -->
      <defs>
       <path d="M 37.25 0 
L 28.46875 0 
L 28.46875 56 
Q 25.296875 52.984375 20.140625 49.953125 
Q 14.984375 46.921875 10.890625 45.40625 
L 10.890625 53.90625 
Q 18.265625 57.375 23.78125 62.296875 
Q 29.296875 67.234375 31.59375 71.875 
L 37.25 71.875 
z
" id="ArialMT-49"/>
      </defs>
      <g transform="translate(10.4 7.263859)scale(0.08 -0.08)">
       <use xlink:href="#ArialMT-49"/>
       <use x="55.615234" xlink:href="#ArialMT-46"/>
       <use x="83.398438" xlink:href="#ArialMT-48"/>
       <use x="139.013672" xlink:href="#ArialMT-48"/>
      </g>
     </g>
    </g>
    <g id="ytick_6">
     <g id="line2d_49">
      <defs>
       <path d="M 0 0 
L 2 0 
" id="m9faa850bd8" style="stroke:#000000;stroke-width:0.5;"/>
      </defs>
      <g>
       <use style="stroke:#000000;stroke-width:0.5;" x="26.96875" xlink:href="#m9faa850bd8" y="80.021759"/>
      </g>
     </g>
     <g id="line2d_50">
      <defs>
       <path d="M 0 0 
L -2 0 
" id="m09134cabf4" style="stroke:#000000;stroke-width:0.5;"/>
      </defs>
      <g>
       <use style="stroke:#000000;stroke-width:0.5;" x="110.66875" xlink:href="#m09134cabf4" y="80.021759"/>
      </g>
     </g>
    </g>
    <g id="ytick_7">
     <g id="line2d_51">
      <g>
       <use style="stroke:#000000;stroke-width:0.5;" x="26.96875" xlink:href="#m9faa850bd8" y="72.819756"/>
      </g>
     </g>
     <g id="line2d_52">
      <g>
       <use style="stroke:#000000;stroke-width:0.5;" x="110.66875" xlink:href="#m09134cabf4" y="72.819756"/>
      </g>
     </g>
    </g>
    <g id="ytick_8">
     <g id="line2d_53">
      <g>
       <use style="stroke:#000000;stroke-width:0.5;" x="26.96875" xlink:href="#m9faa850bd8" y="69.218755"/>
      </g>
     </g>
     <g id="line2d_54">
      <g>
       <use style="stroke:#000000;stroke-width:0.5;" x="110.66875" xlink:href="#m09134cabf4" y="69.218755"/>
      </g>
     </g>
    </g>
    <g id="ytick_9">
     <g id="line2d_55">
      <g>
       <use style="stroke:#000000;stroke-width:0.5;" x="26.96875" xlink:href="#m9faa850bd8" y="65.617754"/>
      </g>
     </g>
     <g id="line2d_56">
      <g>
       <use style="stroke:#000000;stroke-width:0.5;" x="110.66875" xlink:href="#m09134cabf4" y="65.617754"/>
      </g>
     </g>
    </g>
    <g id="ytick_10">
     <g id="line2d_57">
      <g>
       <use style="stroke:#000000;stroke-width:0.5;" x="26.96875" xlink:href="#m9faa850bd8" y="62.016753"/>
      </g>
     </g>
     <g id="line2d_58">
      <g>
       <use style="stroke:#000000;stroke-width:0.5;" x="110.66875" xlink:href="#m09134cabf4" y="62.016753"/>
      </g>
     </g>
    </g>
    <g id="ytick_11">
     <g id="line2d_59">
      <g>
       <use style="stroke:#000000;stroke-width:0.5;" x="26.96875" xlink:href="#m9faa850bd8" y="54.81475"/>
      </g>
     </g>
     <g id="line2d_60">
      <g>
       <use style="stroke:#000000;stroke-width:0.5;" x="110.66875" xlink:href="#m09134cabf4" y="54.81475"/>
      </g>
     </g>
    </g>
    <g id="ytick_12">
     <g id="line2d_61">
      <g>
       <use style="stroke:#000000;stroke-width:0.5;" x="26.96875" xlink:href="#m9faa850bd8" y="51.213749"/>
      </g>
     </g>
     <g id="line2d_62">
      <g>
       <use style="stroke:#000000;stroke-width:0.5;" x="110.66875" xlink:href="#m09134cabf4" y="51.213749"/>
      </g>
     </g>
    </g>
    <g id="ytick_13">
     <g id="line2d_63">
      <g>
       <use style="stroke:#000000;stroke-width:0.5;" x="26.96875" xlink:href="#m9faa850bd8" y="47.612748"/>
      </g>
     </g>
     <g id="line2d_64">
      <g>
       <use style="stroke:#000000;stroke-width:0.5;" x="110.66875" xlink:href="#m09134cabf4" y="47.612748"/>
      </g>
     </g>
    </g>
    <g id="ytick_14">
     <g id="line2d_65">
      <g>
       <use style="stroke:#000000;stroke-width:0.5;" x="26.96875" xlink:href="#m9faa850bd8" y="44.011747"/>
      </g>
     </g>
     <g id="line2d_66">
      <g>
       <use style="stroke:#000000;stroke-width:0.5;" x="110.66875" xlink:href="#m09134cabf4" y="44.011747"/>
      </g>
     </g>
    </g>
    <g id="ytick_15">
     <g id="line2d_67">
      <g>
       <use style="stroke:#000000;stroke-width:0.5;" x="26.96875" xlink:href="#m9faa850bd8" y="36.809744"/>
      </g>
     </g>
     <g id="line2d_68">
      <g>
       <use style="stroke:#000000;stroke-width:0.5;" x="110.66875" xlink:href="#m09134cabf4" y="36.809744"/>
      </g>
     </g>
    </g>
    <g id="ytick_16">
     <g id="line2d_69">
      <g>
       <use style="stroke:#000000;stroke-width:0.5;" x="26.96875" xlink:href="#m9faa850bd8" y="33.208743"/>
      </g>
     </g>
     <g id="line2d_70">
      <g>
       <use style="stroke:#000000;stroke-width:0.5;" x="110.66875" xlink:href="#m09134cabf4" y="33.208743"/>
      </g>
     </g>
    </g>
    <g id="ytick_17">
     <g id="line2d_71">
      <g>
       <use style="stroke:#000000;stroke-width:0.5;" x="26.96875" xlink:href="#m9faa850bd8" y="29.607742"/>
      </g>
     </g>
     <g id="line2d_72">
      <g>
       <use style="stroke:#000000;stroke-width:0.5;" x="110.66875" xlink:href="#m09134cabf4" y="29.607742"/>
      </g>
     </g>
    </g>
    <g id="ytick_18">
     <g id="line2d_73">
      <g>
       <use style="stroke:#000000;stroke-width:0.5;" x="26.96875" xlink:href="#m9faa850bd8" y="26.006741"/>
      </g>
     </g>
     <g id="line2d_74">
      <g>
       <use style="stroke:#000000;stroke-width:0.5;" x="110.66875" xlink:href="#m09134cabf4" y="26.006741"/>
      </g>
     </g>
    </g>
    <g id="ytick_19">
     <g id="line2d_75">
      <g>
       <use style="stroke:#000000;stroke-width:0.5;" x="26.96875" xlink:href="#m9faa850bd8" y="18.804739"/>
      </g>
     </g>
     <g id="line2d_76">
      <g>
       <use style="stroke:#000000;stroke-width:0.5;" x="110.66875" xlink:href="#m09134cabf4" y="18.804739"/>
      </g>
     </g>
    </g>
    <g id="ytick_20">
     <g id="line2d_77">
      <g>
       <use style="stroke:#000000;stroke-width:0.5;" x="26.96875" xlink:href="#m9faa850bd8" y="15.203737"/>
      </g>
     </g>
     <g id="line2d_78">
      <g>
       <use style="stroke:#000000;stroke-width:0.5;" x="110.66875" xlink:href="#m09134cabf4" y="15.203737"/>
      </g>
     </g>
    </g>
    <g id="ytick_21">
     <g id="line2d_79">
      <g>
       <use style="stroke:#000000;stroke-width:0.5;" x="26.96875" xlink:href="#m9faa850bd8" y="11.602736"/>
      </g>
     </g>
     <g id="line2d_80">
      <g>
       <use style="stroke:#000000;stroke-width:0.5;" x="110.66875" xlink:href="#m09134cabf4" y="11.602736"/>
      </g>
     </g>
    </g>
    <g id="ytick_22">
     <g id="line2d_81">
      <g>
       <use style="stroke:#000000;stroke-width:0.5;" x="26.96875" xlink:href="#m9faa850bd8" y="8.001735"/>
      </g>
     </g>
     <g id="line2d_82">
      <g>
       <use style="stroke:#000000;stroke-width:0.5;" x="110.66875" xlink:href="#m09134cabf4" y="8.001735"/>
      </g>
     </g>
    </g>
    <g id="ytick_23">
     <g id="line2d_83">
      <g>
       <use style="stroke:#000000;stroke-width:0.5;" x="26.96875" xlink:href="#m9faa850bd8" y="0.799733"/>
      </g>
     </g>
     <g id="line2d_84">
      <g>
       <use style="stroke:#000000;stroke-width:0.5;" x="110.66875" xlink:href="#m09134cabf4" y="0.799733"/>
      </g>
     </g>
    </g>
    <g id="text_12">
     <!-- $\it{Δσ}  (\times 10^{-7} S)}$ -->
     <defs>
      <path d="M 34.1875 63.1875 
L 14.15625 8.203125 
L 54.25 8.203125 
z
M 0.78125 0 
L 28.609375 72.90625 
L 39.796875 72.90625 
L 67.578125 0 
z
" id="DejaVuSans-916"/>
      <path d="M 34.671875 47.5625 
Q 27.25 47.5625 22.21875 42.1875 
Q 16.890625 36.578125 15.140625 27.296875 
Q 13.1875 17.484375 16.3125 11.8125 
Q 19.390625 6.203125 26.65625 6.203125 
Q 33.84375 6.203125 39.109375 11.859375 
Q 44.4375 17.53125 46.34375 27.296875 
Q 48.046875 36.234375 45.015625 42.1875 
Q 42.1875 47.5625 34.671875 47.5625 
z
M 36.078125 54.734375 
L 65.921875 54.6875 
L 64.15625 45.703125 
L 54.109375 45.703125 
Q 57.90625 38.09375 55.859375 27.296875 
Q 53.21875 13.875 45.0625 6.25 
Q 36.859375 -1.421875 25.140625 -1.421875 
Q 13.375 -1.421875 8.203125 6.25 
Q 3.03125 13.875 5.671875 27.296875 
Q 8.25 40.765625 16.40625 48.390625 
Q 23.1875 54.734375 36.078125 54.734375 
z
" id="DejaVuSans-Oblique-963"/>
      <path d="M 31 75.875 
Q 24.46875 64.65625 21.28125 53.65625 
Q 18.109375 42.671875 18.109375 31.390625 
Q 18.109375 20.125 21.3125 9.0625 
Q 24.515625 -2 31 -13.1875 
L 23.1875 -13.1875 
Q 15.875 -1.703125 12.234375 9.375 
Q 8.59375 20.453125 8.59375 31.390625 
Q 8.59375 42.28125 12.203125 53.3125 
Q 15.828125 64.359375 23.1875 75.875 
z
" id="DejaVuSans-40"/>
      <path d="M 70.125 53.71875 
L 47.796875 31.296875 
L 70.125 8.984375 
L 64.3125 3.078125 
L 41.890625 25.484375 
L 19.484375 3.078125 
L 13.71875 8.984375 
L 35.984375 31.296875 
L 13.71875 53.71875 
L 19.484375 59.625 
L 41.890625 37.203125 
L 64.3125 59.625 
z
" id="DejaVuSans-215"/>
      <path d="M 12.40625 8.296875 
L 28.515625 8.296875 
L 28.515625 63.921875 
L 10.984375 60.40625 
L 10.984375 69.390625 
L 28.421875 72.90625 
L 38.28125 72.90625 
L 38.28125 8.296875 
L 54.390625 8.296875 
L 54.390625 0 
L 12.40625 0 
z
" id="DejaVuSans-49"/>
      <path d="M 31.78125 66.40625 
Q 24.171875 66.40625 20.328125 58.90625 
Q 16.5 51.421875 16.5 36.375 
Q 16.5 21.390625 20.328125 13.890625 
Q 24.171875 6.390625 31.78125 6.390625 
Q 39.453125 6.390625 43.28125 13.890625 
Q 47.125 21.390625 47.125 36.375 
Q 47.125 51.421875 43.28125 58.90625 
Q 39.453125 66.40625 31.78125 66.40625 
z
M 31.78125 74.21875 
Q 44.046875 74.21875 50.515625 64.515625 
Q 56.984375 54.828125 56.984375 36.375 
Q 56.984375 17.96875 50.515625 8.265625 
Q 44.046875 -1.421875 31.78125 -1.421875 
Q 19.53125 -1.421875 13.0625 8.265625 
Q 6.59375 17.96875 6.59375 36.375 
Q 6.59375 54.828125 13.0625 64.515625 
Q 19.53125 74.21875 31.78125 74.21875 
z
" id="DejaVuSans-48"/>
      <path d="M 10.59375 35.5 
L 73.1875 35.5 
L 73.1875 27.203125 
L 10.59375 27.203125 
z
" id="DejaVuSans-8722"/>
      <path d="M 8.203125 72.90625 
L 55.078125 72.90625 
L 55.078125 68.703125 
L 28.609375 0 
L 18.3125 0 
L 43.21875 64.59375 
L 8.203125 64.59375 
z
" id="DejaVuSans-55"/>
      <path d="M 60.296875 70.515625 
L 58.40625 60.890625 
Q 53.46875 63.53125 48.609375 64.875 
Q 43.75 66.21875 39.203125 66.21875 
Q 30.375 66.21875 25.140625 62.359375 
Q 19.921875 58.5 19.921875 52.09375 
Q 19.921875 48.578125 21.84375 46.703125 
Q 23.78125 44.828125 31.78125 42.671875 
L 37.703125 41.21875 
Q 47.703125 38.625 51.609375 34.640625 
Q 55.515625 30.671875 55.515625 23.484375 
Q 55.515625 12.453125 46.84375 5.515625 
Q 38.1875 -1.421875 24.03125 -1.421875 
Q 18.21875 -1.421875 12.359375 -0.265625 
Q 6.5 0.875 0.59375 3.21875 
L 2.59375 13.375 
Q 8.015625 10.015625 13.453125 8.296875 
Q 18.890625 6.59375 24.3125 6.59375 
Q 33.546875 6.59375 39.109375 10.6875 
Q 44.671875 14.796875 44.671875 21.390625 
Q 44.671875 25.78125 42.453125 28.046875 
Q 40.234375 30.328125 32.90625 32.171875 
L 27 33.6875 
Q 16.890625 36.328125 13.203125 39.765625 
Q 9.515625 43.21875 9.515625 49.421875 
Q 9.515625 60.296875 17.890625 67.25 
Q 26.265625 74.21875 39.703125 74.21875 
Q 44.921875 74.21875 50.046875 73.28125 
Q 55.171875 72.359375 60.296875 70.515625 
z
" id="DejaVuSans-Oblique-83"/>
      <path d="M 8.015625 75.875 
L 15.828125 75.875 
Q 23.140625 64.359375 26.78125 53.3125 
Q 30.421875 42.28125 30.421875 31.390625 
Q 30.421875 20.453125 26.78125 9.375 
Q 23.140625 -1.703125 15.828125 -13.1875 
L 8.015625 -13.1875 
Q 14.5 -2 17.703125 9.0625 
Q 20.90625 20.125 20.90625 31.390625 
Q 20.90625 42.671875 17.703125 53.65625 
Q 14.5 64.65625 8.015625 75.875 
z
" id="DejaVuSans-41"/>
     </defs>
     <g transform="translate(8.4125 70.37)rotate(-90)scale(0.1 -0.1)">
      <use transform="translate(0 0.684375)" xlink:href="#DejaVuSans-916"/>
      <use transform="translate(68.408203 0.684375)" xlink:href="#DejaVuSans-Oblique-963"/>
      <use transform="translate(131.787109 0.684375)" xlink:href="#DejaVuSans-40"/>
      <use transform="translate(170.800781 0.684375)" xlink:href="#DejaVuSans-215"/>
      <use transform="translate(254.589844 0.684375)" xlink:href="#DejaVuSans-49"/>
      <use transform="translate(318.212891 0.684375)" xlink:href="#DejaVuSans-48"/>
      <use transform="translate(382.792969 38.965625)scale(0.7)" xlink:href="#DejaVuSans-8722"/>
      <use transform="translate(441.445312 38.965625)scale(0.7)" xlink:href="#DejaVuSans-55"/>
      <use transform="translate(488.71582 0.684375)" xlink:href="#DejaVuSans-Oblique-83"/>
      <use transform="translate(552.192383 0.684375)" xlink:href="#DejaVuSans-41"/>
     </g>
    </g>
   </g>
   <g id="line2d_85">
    <path clip-path="url(#pad844a0b11)" d="M 30.773295 58.422135 
L 31.412773 58.871587 
L 32.05216 65.089588 
L 32.691556 65.042282 
L 33.331035 66.006059 
L 33.970448 65.407675 
L 34.609849 65.708519 
L 35.249271 65.890858 
L 35.888718 62.70326 
L 36.528036 68.904256 
L 37.167457 67.786741 
L 37.806884 68.494415 
L 38.44633 68.881653 
L 39.085755 66.042414 
L 39.725125 66.77782 
L 40.364538 63.555588 
L 41.003967 61.630526 
L 41.643413 63.483784 
L 42.282825 63.113389 
L 42.922213 64.064718 
L 43.561638 63.52332 
L 44.201074 63.664521 
L 44.840477 65.633816 
L 45.479895 62.594202 
L 46.119322 63.166825 
L 46.758749 62.595633 
L 47.398176 60.754791 
L 48.03759 57.157358 
L 49.955831 66.497459 
L 50.595182 66.792011 
L 51.234581 65.022064 
L 51.874034 68.274062 
L 52.513383 66.772874 
L 53.152876 67.739904 
L 53.792305 70.775969 
L 54.431757 69.742675 
L 55.071188 67.852447 
L 55.710625 70.351866 
L 56.350014 68.568547 
L 56.989416 70.39794 
L 57.628866 69.705954 
L 58.26829 66.897628 
L 58.907698 68.976857 
L 59.547144 68.566429 
L 60.186555 69.533026 
L 60.825994 70.080216 
L 61.465376 70.727169 
L 62.104812 74.225047 
L 62.744184 72.794707 
L 63.383637 73.793014 
L 64.022975 74.405243 
L 64.662376 73.321813 
L 65.301864 77.344933 
L 65.941206 77.833636 
L 66.580599 75.571915 
L 67.220025 74.47713 
L 67.859449 77.39269 
L 68.498865 76.420757 
L 69.138252 76.420757 
L 69.777673 77.39269 
L 70.417133 74.47713 
L 71.056523 75.571915 
L 71.695992 77.833636 
L 72.335341 77.344933 
L 72.974782 73.321813 
L 73.614223 74.405243 
L 74.253697 73.793014 
L 74.893064 72.794707 
L 75.532475 74.225047 
L 76.171909 70.727169 
L 76.811272 70.080216 
L 77.450732 69.533026 
L 78.090126 68.566429 
L 78.729587 68.976857 
L 79.368969 66.897628 
L 80.008412 69.705954 
L 80.647816 70.39794 
L 81.287244 68.568547 
L 81.926751 70.351866 
L 82.566226 67.852447 
L 83.205616 69.742675 
L 83.845079 70.775969 
L 84.484474 67.739904 
L 85.123894 66.772874 
L 85.763311 68.274062 
L 86.40276 65.022064 
L 87.042204 66.792011 
L 87.681601 66.497459 
L 89.599875 57.157358 
L 90.239299 60.754791 
L 90.878749 62.595633 
L 91.518164 63.166825 
L 92.157596 62.594202 
L 92.797037 65.633816 
L 93.436449 63.664521 
L 94.075867 63.52332 
L 94.715318 64.064718 
L 95.354705 63.113389 
L 95.994142 63.483784 
L 96.633518 61.630526 
L 97.27293 63.555588 
L 97.912369 66.77782 
L 98.551776 66.042414 
L 99.191174 68.881653 
L 99.830602 68.494415 
L 100.470027 67.786741 
L 101.10944 68.904256 
L 101.748896 62.70326 
L 102.388292 65.890858 
L 103.027695 65.708519 
L 103.667079 65.407675 
L 104.306527 66.006059 
L 104.945967 65.042282 
L 105.585354 65.089588 
L 106.224772 58.871587 
L 106.864205 58.422135 
" style="fill:none;stroke:#e41a1c;stroke-linecap:square;"/>
   </g>
   <g id="line2d_86">
    <path clip-path="url(#pad844a0b11)" d="M 69.138252 76.4191 
L 69.777673 76.39424 
L 70.417133 76.339634 
L 71.056523 76.255509 
L 71.695992 76.142179 
L 72.335341 76.00013 
L 72.974782 75.829878 
L 73.614223 75.632115 
L 74.253697 75.40761 
L 74.893064 75.157302 
L 75.532475 74.882126 
L 76.171909 74.583172 
L 76.811272 74.261668 
L 77.450732 73.918799 
L 78.090126 73.556009 
L 78.729587 73.174657 
L 79.368969 72.776348 
L 80.008412 72.362581 
L 80.647816 71.935077 
L 81.287244 71.49551 
L 81.926751 71.045619 
L 82.566226 70.587312 
L 83.205616 70.12251 
L 83.845079 69.653027 
L 84.484474 69.180935 
L 85.123894 68.708173 
L 85.763311 68.236801 
L 86.40276 67.768867 
L 87.042204 67.306494 
L 87.681601 66.851833 
L 89.599875 65.555355 
L 90.239299 65.152952 
L 90.878749 64.769058 
L 91.518164 64.405905 
L 92.157596 64.065664 
L 92.797037 63.750542 
L 93.436449 63.462759 
L 94.075867 63.204496 
L 94.715318 62.977938 
L 95.354705 62.785305 
L 95.994142 62.628742 
L 96.633518 62.510444 
L 97.27293 62.432551 
L 97.912369 62.397218 
L 98.551776 62.406581 
L 99.191174 62.462755 
L 99.830602 62.567851 
L 100.470027 62.723955 
L 101.10944 62.933134 
L 101.748896 63.197461 
L 102.388292 63.518927 
L 103.027695 63.899573 
L 103.667079 64.341377 
L 104.306527 64.846377 
L 104.945967 65.416478 
L 105.585354 66.053564 
L 106.224772 66.759626 
L 106.864205 67.536542 
" style="fill:none;stroke:#000000;stroke-linecap:square;"/>
   </g>
   <g id="line2d_87">
    <path clip-path="url(#pad844a0b11)" d="M 30.773303 17.263371 
L 31.412746 10.588675 
L 32.052111 16.452368 
L 32.691558 10.371939 
L 33.331052 12.549844 
L 33.97043 9.326525 
L 34.609829 6.829448 
L 35.24926 7.21325 
L 35.888631 13.187388 
L 36.528053 17.691019 
L 37.167443 14.946324 
L 37.80687 15.277977 
L 38.446321 15.042821 
L 39.08573 20.760779 
L 39.725098 13.292794 
L 40.364551 11.879385 
L 41.003969 14.899747 
L 41.643421 22.468218 
L 42.282811 21.393787 
L 42.922265 14.144301 
L 43.561644 13.691669 
L 44.201051 19.273638 
L 44.84049 16.571313 
L 45.479903 18.340118 
L 46.119348 17.782627 
L 46.758755 21.409261 
L 47.39817 19.40182 
L 48.037564 21.559578 
L 48.677005 19.006286 
L 49.316411 21.982874 
L 49.955799 20.760701 
L 50.595144 19.321203 
L 51.234587 21.389268 
L 51.874053 22.392452 
L 52.513434 21.360792 
L 53.152874 21.164093 
L 53.792309 21.058873 
L 54.431786 26.37229 
L 55.071182 32.374902 
L 55.710623 32.388163 
L 56.35002 37.875268 
L 56.989421 30.570413 
L 57.628884 31.60951 
L 58.268252 32.926565 
L 58.907701 34.679807 
L 59.547137 32.848323 
L 60.186552 37.387781 
L 60.825998 35.828683 
L 61.46537 34.905242 
L 62.104775 34.444092 
L 62.744173 35.253155 
L 63.383663 41.543929 
L 64.023004 42.863975 
L 64.662441 44.89455 
L 65.301882 45.485096 
L 65.941218 51.54359 
L 66.580605 57.521706 
L 67.22002 62.402557 
L 67.859461 69.503367 
L 68.498881 76.420757 
L 69.138285 76.420757 
L 69.777703 69.503367 
L 70.417094 62.402557 
L 71.05655 57.521706 
L 71.695981 51.54359 
L 72.335347 45.485096 
L 72.974803 44.89455 
L 73.614195 42.863975 
L 74.253619 41.543929 
L 74.893064 35.253155 
L 75.532461 34.444092 
L 76.171878 34.905242 
L 76.811305 35.828683 
L 77.450728 37.387781 
L 78.090133 32.848323 
L 78.729573 34.679807 
L 79.368975 32.926565 
L 80.008403 31.60951 
L 80.647849 30.570413 
L 81.287228 37.875268 
L 81.926745 32.388163 
L 82.566223 32.374902 
L 83.20565 26.37229 
L 83.845102 21.058873 
L 84.484485 21.164093 
L 85.123939 21.360792 
L 85.76336 22.392452 
L 86.402765 21.389268 
L 87.042195 19.321203 
L 87.681615 20.760701 
L 88.321025 21.982874 
L 88.960465 19.006286 
L 89.599907 21.559578 
L 90.239299 19.40182 
L 90.878755 21.409261 
L 91.518135 17.782627 
L 92.157605 18.340118 
L 92.797015 16.571313 
L 93.436449 19.273638 
L 94.075859 13.691669 
L 94.715305 14.144301 
L 95.354716 21.393787 
L 95.994099 22.468218 
L 96.633583 14.899747 
L 97.27292 11.879385 
L 97.912305 13.292794 
L 98.55179 20.760779 
L 99.191196 15.042821 
L 99.830607 15.277977 
L 100.470021 14.946324 
L 101.10946 17.691019 
L 101.748868 13.187388 
L 102.388299 7.21325 
L 103.027671 6.829448 
L 103.66711 9.326525 
L 104.306507 12.549844 
L 104.945959 10.371939 
L 105.585363 16.452368 
L 106.224757 10.588675 
L 106.864178 17.263371 
" style="fill:none;stroke:#377eb8;stroke-linecap:square;"/>
   </g>
   <g id="line2d_88">
    <path clip-path="url(#pad844a0b11)" d="M 69.138285 76.410621 
L 69.777703 76.258636 
L 70.417094 75.925135 
L 71.05655 75.412006 
L 71.695981 74.722286 
L 72.335347 73.860039 
L 72.974803 72.829971 
L 73.614195 71.638144 
L 74.253619 70.291042 
L 74.893064 68.796085 
L 75.532461 67.161546 
L 76.171878 65.395991 
L 76.811305 63.508712 
L 77.450728 61.509511 
L 78.090133 59.408602 
L 78.729573 57.216337 
L 79.368975 54.94377 
L 80.008403 52.601727 
L 80.647849 50.201455 
L 81.287228 47.754636 
L 81.926745 45.27193 
L 82.566223 42.765519 
L 83.20565 40.246969 
L 83.845102 37.727468 
L 84.484485 35.218839 
L 85.123939 32.731898 
L 85.76336 30.27833 
L 86.402765 27.869218 
L 87.042195 25.515431 
L 87.681615 23.22798 
L 88.321025 21.017572 
L 88.960465 18.894613 
L 89.599907 16.869562 
L 90.239299 14.952741 
L 90.878755 13.153789 
L 91.518135 11.482868 
L 92.157605 9.94912 
L 92.797015 8.56228 
L 93.436449 7.331309 
L 94.075859 6.265247 
L 94.715305 5.372737 
L 95.354716 4.662406 
L 95.994099 4.142543 
L 96.633583 3.821191 
L 97.27292 3.706364 
L 97.912305 3.805686 
L 98.55179 4.126751 
L 99.191196 4.676795 
L 99.830607 5.462971 
L 100.470021 6.49221 
L 101.10946 7.771309 
L 101.748868 9.30671 
L 102.388299 11.104925 
L 103.027671 13.171901 
L 103.66711 15.51409 
L 104.306507 18.13697 
L 104.945959 21.04665 
L 105.585363 24.248208 
L 106.224757 27.747188 
L 106.864178 31.549019 
" style="fill:none;stroke:#000000;stroke-linecap:square;"/>
   </g>
   <g id="patch_3">
    <path d="M 26.96875 81.54 
L 26.96875 0 
" style="fill:none;stroke:#000000;stroke-linecap:square;stroke-linejoin:miter;stroke-width:0.5;"/>
   </g>
   <g id="patch_4">
    <path d="M 110.66875 81.54 
L 110.66875 0 
" style="fill:none;stroke:#000000;stroke-linecap:square;stroke-linejoin:miter;stroke-width:0.5;"/>
   </g>
   <g id="patch_5">
    <path d="M 26.96875 81.54 
L 110.66875 81.54 
" style="fill:none;stroke:#000000;stroke-linecap:square;stroke-linejoin:miter;stroke-width:0.5;"/>
   </g>
   <g id="patch_6">
    <path d="M 26.96875 0 
L 110.66875 0 
" style="fill:none;stroke:#000000;stroke-linecap:square;stroke-linejoin:miter;stroke-width:0.5;"/>
   </g>
  </g>
 </g>
 <defs>
  <clipPath id="pad844a0b11">
   <rect height="81.54" width="83.7" x="26.96875" y="0"/>
  </clipPath>
 </defs>
</svg>
