<?xml version="1.0" encoding="utf-8" standalone="no"?>
<!DOCTYPE svg PUBLIC "-//W3C//DTD SVG 1.1//EN"
  "http://www.w3.org/Graphics/SVG/1.1/DTD/svg11.dtd">
<!-- Created with matplotlib (https://matplotlib.org/) -->
<svg height="99.35625pt" version="1.1" viewBox="0 0 109.940568 99.35625" width="109.940568pt" xmlns="http://www.w3.org/2000/svg" xmlns:xlink="http://www.w3.org/1999/xlink">
 <defs>
  <style type="text/css">
*{stroke-linecap:butt;stroke-linejoin:round;white-space:pre;}
  </style>
 </defs>
 <g id="figure_1">
  <g id="patch_1">
   <path d="M 0 99.35625 
L 109.940568 99.35625 
L 109.940568 0 
L 0 0 
z
" style="fill:none;"/>
  </g>
  <g id="axes_1">
   <g id="patch_2">
    <path d="M 23.06 81.54 
L 106.76 81.54 
L 106.76 0 
L 23.06 0 
z
" style="fill:none;"/>
   </g>
   <g id="matplotlib.axis_1">
    <g id="xtick_1">
     <g id="line2d_1">
      <defs>
       <path d="M 0 0 
L 0 -3.5 
" id="m4da9c59816" style="stroke:#000000;stroke-width:0.8;"/>
      </defs>
      <g>
       <use style="stroke:#000000;stroke-width:0.8;" x="24.328182" xlink:href="#m4da9c59816" y="81.54"/>
      </g>
     </g>
     <g id="line2d_2">
      <defs>
       <path d="M 0 0 
L 0 3.5 
" id="ma9766b42b0" style="stroke:#000000;stroke-width:0.8;"/>
      </defs>
      <g>
       <use style="stroke:#000000;stroke-width:0.8;" x="24.328182" xlink:href="#ma9766b42b0" y="0"/>
      </g>
     </g>
     <g id="text_1">
      <!-- −80 -->
      <defs>
       <path d="M 52.828125 31.203125 
L 5.5625 31.203125 
L 5.5625 39.40625 
L 52.828125 39.40625 
z
" id="ArialMT-8722"/>
       <path d="M 17.671875 38.8125 
Q 12.203125 40.828125 9.5625 44.53125 
Q 6.9375 48.25 6.9375 53.421875 
Q 6.9375 61.234375 12.546875 66.546875 
Q 18.171875 71.875 27.484375 71.875 
Q 36.859375 71.875 42.578125 66.421875 
Q 48.296875 60.984375 48.296875 53.171875 
Q 48.296875 48.1875 45.671875 44.5 
Q 43.0625 40.828125 37.75 38.8125 
Q 44.34375 36.671875 47.78125 31.875 
Q 51.21875 27.09375 51.21875 20.453125 
Q 51.21875 11.28125 44.71875 5.03125 
Q 38.234375 -1.21875 27.640625 -1.21875 
Q 17.046875 -1.21875 10.546875 5.046875 
Q 4.046875 11.328125 4.046875 20.703125 
Q 4.046875 27.6875 7.59375 32.390625 
Q 11.140625 37.109375 17.671875 38.8125 
z
M 15.921875 53.71875 
Q 15.921875 48.640625 19.1875 45.40625 
Q 22.46875 42.1875 27.6875 42.1875 
Q 32.765625 42.1875 36.015625 45.375 
Q 39.265625 48.578125 39.265625 53.21875 
Q 39.265625 58.0625 35.90625 61.359375 
Q 32.5625 64.65625 27.59375 64.65625 
Q 22.5625 64.65625 19.234375 61.421875 
Q 15.921875 58.203125 15.921875 53.71875 
z
M 13.09375 20.65625 
Q 13.09375 16.890625 14.875 13.375 
Q 16.65625 9.859375 20.171875 7.921875 
Q 23.6875 6 27.734375 6 
Q 34.03125 6 38.125 10.046875 
Q 42.234375 14.109375 42.234375 20.359375 
Q 42.234375 26.703125 38.015625 30.859375 
Q 33.796875 35.015625 27.4375 35.015625 
Q 21.234375 35.015625 17.15625 30.90625 
Q 13.09375 26.8125 13.09375 20.65625 
z
" id="ArialMT-56"/>
       <path d="M 4.15625 35.296875 
Q 4.15625 48 6.765625 55.734375 
Q 9.375 63.484375 14.515625 67.671875 
Q 19.671875 71.875 27.484375 71.875 
Q 33.25 71.875 37.59375 69.546875 
Q 41.9375 67.234375 44.765625 62.859375 
Q 47.609375 58.5 49.21875 52.21875 
Q 50.828125 45.953125 50.828125 35.296875 
Q 50.828125 22.703125 48.234375 14.96875 
Q 45.65625 7.234375 40.5 3 
Q 35.359375 -1.21875 27.484375 -1.21875 
Q 17.140625 -1.21875 11.234375 6.203125 
Q 4.15625 15.140625 4.15625 35.296875 
z
M 13.1875 35.296875 
Q 13.1875 17.671875 17.3125 11.828125 
Q 21.4375 6 27.484375 6 
Q 33.546875 6 37.671875 11.859375 
Q 41.796875 17.71875 41.796875 35.296875 
Q 41.796875 52.984375 37.671875 58.78125 
Q 33.546875 64.59375 27.390625 64.59375 
Q 21.34375 64.59375 17.71875 59.46875 
Q 13.1875 52.9375 13.1875 35.296875 
z
" id="ArialMT-48"/>
      </defs>
      <g transform="translate(17.543182 88.26625)scale(0.08 -0.08)">
       <use xlink:href="#ArialMT-8722"/>
       <use x="58.398438" xlink:href="#ArialMT-56"/>
       <use x="114.013672" xlink:href="#ArialMT-48"/>
      </g>
     </g>
    </g>
    <g id="xtick_2">
     <g id="line2d_3">
      <g>
       <use style="stroke:#000000;stroke-width:0.8;" x="44.619091" xlink:href="#m4da9c59816" y="81.54"/>
      </g>
     </g>
     <g id="line2d_4">
      <g>
       <use style="stroke:#000000;stroke-width:0.8;" x="44.619091" xlink:href="#ma9766b42b0" y="0"/>
      </g>
     </g>
     <g id="text_2">
      <!-- −40 -->
      <defs>
       <path d="M 32.328125 0 
L 32.328125 17.140625 
L 1.265625 17.140625 
L 1.265625 25.203125 
L 33.9375 71.578125 
L 41.109375 71.578125 
L 41.109375 25.203125 
L 50.78125 25.203125 
L 50.78125 17.140625 
L 41.109375 17.140625 
L 41.109375 0 
z
M 32.328125 25.203125 
L 32.328125 57.46875 
L 9.90625 25.203125 
z
" id="ArialMT-52"/>
      </defs>
      <g transform="translate(37.834091 88.26625)scale(0.08 -0.08)">
       <use xlink:href="#ArialMT-8722"/>
       <use x="58.398438" xlink:href="#ArialMT-52"/>
       <use x="114.013672" xlink:href="#ArialMT-48"/>
      </g>
     </g>
    </g>
    <g id="xtick_3">
     <g id="line2d_5">
      <g>
       <use style="stroke:#000000;stroke-width:0.8;" x="64.91" xlink:href="#m4da9c59816" y="81.54"/>
      </g>
     </g>
     <g id="line2d_6">
      <g>
       <use style="stroke:#000000;stroke-width:0.8;" x="64.91" xlink:href="#ma9766b42b0" y="0"/>
      </g>
     </g>
     <g id="text_3">
      <!-- 0 -->
      <g transform="translate(62.685625 88.26625)scale(0.08 -0.08)">
       <use xlink:href="#ArialMT-48"/>
      </g>
     </g>
    </g>
    <g id="xtick_4">
     <g id="line2d_7">
      <g>
       <use style="stroke:#000000;stroke-width:0.8;" x="85.200909" xlink:href="#m4da9c59816" y="81.54"/>
      </g>
     </g>
     <g id="line2d_8">
      <g>
       <use style="stroke:#000000;stroke-width:0.8;" x="85.200909" xlink:href="#ma9766b42b0" y="0"/>
      </g>
     </g>
     <g id="text_4">
      <!-- 40 -->
      <g transform="translate(80.752159 88.26625)scale(0.08 -0.08)">
       <use xlink:href="#ArialMT-52"/>
       <use x="55.615234" xlink:href="#ArialMT-48"/>
      </g>
     </g>
    </g>
    <g id="xtick_5">
     <g id="line2d_9">
      <g>
       <use style="stroke:#000000;stroke-width:0.8;" x="105.491818" xlink:href="#m4da9c59816" y="81.54"/>
      </g>
     </g>
     <g id="line2d_10">
      <g>
       <use style="stroke:#000000;stroke-width:0.8;" x="105.491818" xlink:href="#ma9766b42b0" y="0"/>
      </g>
     </g>
     <g id="text_5">
      <!-- 80 -->
      <g transform="translate(101.043068 88.26625)scale(0.08 -0.08)">
       <use xlink:href="#ArialMT-56"/>
       <use x="55.615234" xlink:href="#ArialMT-48"/>
      </g>
     </g>
    </g>
    <g id="xtick_6">
     <g id="line2d_11">
      <defs>
       <path d="M 0 0 
L 0 -2 
" id="m9fd43f5d9e" style="stroke:#000000;stroke-width:0.6;"/>
      </defs>
      <g>
       <use style="stroke:#000000;stroke-width:0.6;" x="29.400909" xlink:href="#m9fd43f5d9e" y="81.54"/>
      </g>
     </g>
     <g id="line2d_12">
      <defs>
       <path d="M 0 0 
L 0 2 
" id="m384b32e64f" style="stroke:#000000;stroke-width:0.6;"/>
      </defs>
      <g>
       <use style="stroke:#000000;stroke-width:0.6;" x="29.400909" xlink:href="#m384b32e64f" y="0"/>
      </g>
     </g>
    </g>
    <g id="xtick_7">
     <g id="line2d_13">
      <g>
       <use style="stroke:#000000;stroke-width:0.6;" x="34.473636" xlink:href="#m9fd43f5d9e" y="81.54"/>
      </g>
     </g>
     <g id="line2d_14">
      <g>
       <use style="stroke:#000000;stroke-width:0.6;" x="34.473636" xlink:href="#m384b32e64f" y="0"/>
      </g>
     </g>
    </g>
    <g id="xtick_8">
     <g id="line2d_15">
      <g>
       <use style="stroke:#000000;stroke-width:0.6;" x="39.546364" xlink:href="#m9fd43f5d9e" y="81.54"/>
      </g>
     </g>
     <g id="line2d_16">
      <g>
       <use style="stroke:#000000;stroke-width:0.6;" x="39.546364" xlink:href="#m384b32e64f" y="0"/>
      </g>
     </g>
    </g>
    <g id="xtick_9">
     <g id="line2d_17">
      <g>
       <use style="stroke:#000000;stroke-width:0.6;" x="49.691818" xlink:href="#m9fd43f5d9e" y="81.54"/>
      </g>
     </g>
     <g id="line2d_18">
      <g>
       <use style="stroke:#000000;stroke-width:0.6;" x="49.691818" xlink:href="#m384b32e64f" y="0"/>
      </g>
     </g>
    </g>
    <g id="xtick_10">
     <g id="line2d_19">
      <g>
       <use style="stroke:#000000;stroke-width:0.6;" x="54.764545" xlink:href="#m9fd43f5d9e" y="81.54"/>
      </g>
     </g>
     <g id="line2d_20">
      <g>
       <use style="stroke:#000000;stroke-width:0.6;" x="54.764545" xlink:href="#m384b32e64f" y="0"/>
      </g>
     </g>
    </g>
    <g id="xtick_11">
     <g id="line2d_21">
      <g>
       <use style="stroke:#000000;stroke-width:0.6;" x="59.837273" xlink:href="#m9fd43f5d9e" y="81.54"/>
      </g>
     </g>
     <g id="line2d_22">
      <g>
       <use style="stroke:#000000;stroke-width:0.6;" x="59.837273" xlink:href="#m384b32e64f" y="0"/>
      </g>
     </g>
    </g>
    <g id="xtick_12">
     <g id="line2d_23">
      <g>
       <use style="stroke:#000000;stroke-width:0.6;" x="69.982727" xlink:href="#m9fd43f5d9e" y="81.54"/>
      </g>
     </g>
     <g id="line2d_24">
      <g>
       <use style="stroke:#000000;stroke-width:0.6;" x="69.982727" xlink:href="#m384b32e64f" y="0"/>
      </g>
     </g>
    </g>
    <g id="xtick_13">
     <g id="line2d_25">
      <g>
       <use style="stroke:#000000;stroke-width:0.6;" x="75.055455" xlink:href="#m9fd43f5d9e" y="81.54"/>
      </g>
     </g>
     <g id="line2d_26">
      <g>
       <use style="stroke:#000000;stroke-width:0.6;" x="75.055455" xlink:href="#m384b32e64f" y="0"/>
      </g>
     </g>
    </g>
    <g id="xtick_14">
     <g id="line2d_27">
      <g>
       <use style="stroke:#000000;stroke-width:0.6;" x="80.128182" xlink:href="#m9fd43f5d9e" y="81.54"/>
      </g>
     </g>
     <g id="line2d_28">
      <g>
       <use style="stroke:#000000;stroke-width:0.6;" x="80.128182" xlink:href="#m384b32e64f" y="0"/>
      </g>
     </g>
    </g>
    <g id="xtick_15">
     <g id="line2d_29">
      <g>
       <use style="stroke:#000000;stroke-width:0.6;" x="90.273636" xlink:href="#m9fd43f5d9e" y="81.54"/>
      </g>
     </g>
     <g id="line2d_30">
      <g>
       <use style="stroke:#000000;stroke-width:0.6;" x="90.273636" xlink:href="#m384b32e64f" y="0"/>
      </g>
     </g>
    </g>
    <g id="xtick_16">
     <g id="line2d_31">
      <g>
       <use style="stroke:#000000;stroke-width:0.6;" x="95.346364" xlink:href="#m9fd43f5d9e" y="81.54"/>
      </g>
     </g>
     <g id="line2d_32">
      <g>
       <use style="stroke:#000000;stroke-width:0.6;" x="95.346364" xlink:href="#m384b32e64f" y="0"/>
      </g>
     </g>
    </g>
    <g id="xtick_17">
     <g id="line2d_33">
      <g>
       <use style="stroke:#000000;stroke-width:0.6;" x="100.419091" xlink:href="#m9fd43f5d9e" y="81.54"/>
      </g>
     </g>
     <g id="line2d_34">
      <g>
       <use style="stroke:#000000;stroke-width:0.6;" x="100.419091" xlink:href="#m384b32e64f" y="0"/>
      </g>
     </g>
    </g>
    <g id="text_6">
     <!-- $\it{V_{G}}$ (V) -->
     <defs>
      <path d="M 20.609375 0 
L 7.8125 72.90625 
L 17.484375 72.90625 
L 28.078125 10.203125 
L 63.484375 72.90625 
L 74.21875 72.90625 
L 32.078125 0 
z
" id="DejaVuSans-Oblique-86"/>
      <path d="M 54.59375 10.890625 
L 58.40625 29.984375 
L 42.1875 29.984375 
L 43.703125 38.09375 
L 69.578125 38.09375 
L 63.28125 6 
Q 56.78125 2.4375 49.109375 0.5 
Q 41.453125 -1.421875 33.6875 -1.421875 
Q 19.96875 -1.421875 12.234375 6.1875 
Q 4.5 13.8125 4.5 27.390625 
Q 4.5 38.671875 9.203125 48.84375 
Q 13.921875 59.03125 22.21875 65.828125 
Q 27.4375 70.0625 33.640625 72.140625 
Q 39.84375 74.21875 47.40625 74.21875 
Q 54.25 74.21875 60.515625 72.484375 
Q 66.796875 70.75 72.515625 67.28125 
L 70.515625 56.78125 
Q 66.109375 61.375 60.203125 63.796875 
Q 54.296875 66.21875 47.609375 66.21875 
Q 39.84375 66.21875 33.9375 63.25 
Q 28.03125 60.296875 23.390625 54.109375 
Q 19.4375 48.828125 17.15625 41.671875 
Q 14.890625 34.515625 14.890625 27.09375 
Q 14.890625 16.890625 20.109375 11.734375 
Q 25.34375 6.59375 35.6875 6.59375 
Q 40.875 6.59375 45.703125 7.6875 
Q 50.53125 8.796875 54.59375 10.890625 
z
" id="DejaVuSans-Oblique-71"/>
      <path id="ArialMT-32"/>
      <path d="M 23.390625 -21.046875 
Q 16.109375 -11.859375 11.078125 0.4375 
Q 6.0625 12.75 6.0625 25.921875 
Q 6.0625 37.546875 9.8125 48.1875 
Q 14.203125 60.546875 23.390625 72.796875 
L 29.6875 72.796875 
Q 23.78125 62.640625 21.875 58.296875 
Q 18.890625 51.5625 17.1875 44.234375 
Q 15.09375 35.109375 15.09375 25.875 
Q 15.09375 2.390625 29.6875 -21.046875 
z
" id="ArialMT-40"/>
      <path d="M 28.171875 0 
L 0.4375 71.578125 
L 10.6875 71.578125 
L 29.296875 19.578125 
Q 31.546875 13.328125 33.0625 7.859375 
Q 34.71875 13.71875 36.921875 19.578125 
L 56.25 71.578125 
L 65.921875 71.578125 
L 37.890625 0 
z
" id="ArialMT-86"/>
      <path d="M 12.359375 -21.046875 
L 6.0625 -21.046875 
Q 20.65625 2.390625 20.65625 25.875 
Q 20.65625 35.0625 18.5625 44.09375 
Q 16.890625 51.421875 13.921875 58.15625 
Q 12.015625 62.546875 6.0625 72.796875 
L 12.359375 72.796875 
Q 21.53125 60.546875 25.921875 48.1875 
Q 29.6875 37.546875 29.6875 25.921875 
Q 29.6875 12.75 24.625 0.4375 
Q 19.578125 -11.859375 12.359375 -21.046875 
z
" id="ArialMT-41"/>
     </defs>
     <g transform="translate(50.56 97.15625)scale(0.1 -0.1)">
      <use transform="translate(0 0.09375)" xlink:href="#DejaVuSans-Oblique-86"/>
      <use transform="translate(68.408203 -16.3125)scale(0.7)" xlink:href="#DejaVuSans-Oblique-71"/>
      <use transform="translate(125.385742 0.09375)" xlink:href="#ArialMT-32"/>
      <use transform="translate(153.168945 0.09375)" xlink:href="#ArialMT-40"/>
      <use transform="translate(186.469727 0.09375)" xlink:href="#ArialMT-86"/>
      <use transform="translate(253.168945 0.09375)" xlink:href="#ArialMT-41"/>
     </g>
    </g>
   </g>
   <g id="matplotlib.axis_2">
    <g id="ytick_1">
     <g id="line2d_35">
      <defs>
       <path d="M 0 0 
L 3.5 0 
" id="m3d89b6d620" style="stroke:#000000;stroke-width:0.8;"/>
      </defs>
      <g>
       <use style="stroke:#000000;stroke-width:0.8;" x="23.06" xlink:href="#m3d89b6d620" y="68.044355"/>
      </g>
     </g>
     <g id="line2d_36">
      <defs>
       <path d="M 0 0 
L -3.5 0 
" id="mda18e19e39" style="stroke:#000000;stroke-width:0.8;"/>
      </defs>
      <g>
       <use style="stroke:#000000;stroke-width:0.8;" x="106.76" xlink:href="#mda18e19e39" y="68.044355"/>
      </g>
     </g>
     <g id="text_7">
      <!-- $\mathdefault{10^{6}}$ -->
      <defs>
       <path d="M 37.25 0 
L 28.46875 0 
L 28.46875 56 
Q 25.296875 52.984375 20.140625 49.953125 
Q 14.984375 46.921875 10.890625 45.40625 
L 10.890625 53.90625 
Q 18.265625 57.375 23.78125 62.296875 
Q 29.296875 67.234375 31.59375 71.875 
L 37.25 71.875 
z
" id="ArialMT-49"/>
       <path d="M 49.75 54.046875 
L 41.015625 53.375 
Q 39.84375 58.546875 37.703125 60.890625 
Q 34.125 64.65625 28.90625 64.65625 
Q 24.703125 64.65625 21.53125 62.3125 
Q 17.390625 59.28125 14.984375 53.46875 
Q 12.59375 47.65625 12.5 36.921875 
Q 15.671875 41.75 20.265625 44.09375 
Q 24.859375 46.4375 29.890625 46.4375 
Q 38.671875 46.4375 44.84375 39.96875 
Q 51.03125 33.5 51.03125 23.25 
Q 51.03125 16.5 48.125 10.71875 
Q 45.21875 4.9375 40.140625 1.859375 
Q 35.0625 -1.21875 28.609375 -1.21875 
Q 17.625 -1.21875 10.6875 6.859375 
Q 3.765625 14.9375 3.765625 33.5 
Q 3.765625 54.25 11.421875 63.671875 
Q 18.109375 71.875 29.4375 71.875 
Q 37.890625 71.875 43.28125 67.140625 
Q 48.6875 62.40625 49.75 54.046875 
z
M 13.875 23.1875 
Q 13.875 18.65625 15.796875 14.5 
Q 17.71875 10.359375 21.1875 8.171875 
Q 24.65625 6 28.46875 6 
Q 34.03125 6 38.03125 10.484375 
Q 42.046875 14.984375 42.046875 22.703125 
Q 42.046875 30.125 38.078125 34.390625 
Q 34.125 38.671875 28.125 38.671875 
Q 22.171875 38.671875 18.015625 34.390625 
Q 13.875 30.125 13.875 23.1875 
z
" id="ArialMT-54"/>
      </defs>
      <g transform="translate(9.5 72.169355)scale(0.08 -0.08)">
       <use transform="translate(0 0.99375)" xlink:href="#ArialMT-49"/>
       <use transform="translate(55.615234 0.99375)" xlink:href="#ArialMT-48"/>
       <use transform="translate(112.972813 70.6875)scale(0.7)" xlink:href="#ArialMT-54"/>
      </g>
     </g>
    </g>
    <g id="ytick_2">
     <g id="line2d_37">
      <g>
       <use style="stroke:#000000;stroke-width:0.8;" x="23.06" xlink:href="#m3d89b6d620" y="40.320287"/>
      </g>
     </g>
     <g id="line2d_38">
      <g>
       <use style="stroke:#000000;stroke-width:0.8;" x="106.76" xlink:href="#mda18e19e39" y="40.320287"/>
      </g>
     </g>
     <g id="text_8">
      <!-- $\mathdefault{10^{7}}$ -->
      <defs>
       <path d="M 4.734375 62.203125 
L 4.734375 70.65625 
L 51.078125 70.65625 
L 51.078125 63.8125 
Q 44.234375 56.546875 37.515625 44.484375 
Q 30.8125 32.421875 27.15625 19.671875 
Q 24.515625 10.6875 23.78125 0 
L 14.75 0 
Q 14.890625 8.453125 18.0625 20.40625 
Q 21.234375 32.375 27.171875 43.484375 
Q 33.109375 54.59375 39.796875 62.203125 
z
" id="ArialMT-55"/>
      </defs>
      <g transform="translate(9.5 44.405287)scale(0.08 -0.08)">
       <use transform="translate(0 0.846875)" xlink:href="#ArialMT-49"/>
       <use transform="translate(55.615234 0.846875)" xlink:href="#ArialMT-48"/>
       <use transform="translate(112.972813 70.540625)scale(0.7)" xlink:href="#ArialMT-55"/>
      </g>
     </g>
    </g>
    <g id="ytick_3">
     <g id="line2d_39">
      <g>
       <use style="stroke:#000000;stroke-width:0.8;" x="23.06" xlink:href="#m3d89b6d620" y="12.596218"/>
      </g>
     </g>
     <g id="line2d_40">
      <g>
       <use style="stroke:#000000;stroke-width:0.8;" x="106.76" xlink:href="#mda18e19e39" y="12.596218"/>
      </g>
     </g>
     <g id="text_9">
      <!-- $\mathdefault{10^{8}}$ -->
      <g transform="translate(9.5 16.721218)scale(0.08 -0.08)">
       <use transform="translate(0 0.99375)" xlink:href="#ArialMT-49"/>
       <use transform="translate(55.615234 0.99375)" xlink:href="#ArialMT-48"/>
       <use transform="translate(112.972813 70.6875)scale(0.7)" xlink:href="#ArialMT-56"/>
      </g>
     </g>
    </g>
    <g id="ytick_4">
     <g id="line2d_41">
      <defs>
       <path d="M 0 0 
L 2 0 
" id="mfb16fc3935" style="stroke:#000000;stroke-width:0.6;"/>
      </defs>
      <g>
       <use style="stroke:#000000;stroke-width:0.6;" x="23.06" xlink:href="#mfb16fc3935" y="79.076871"/>
      </g>
     </g>
     <g id="line2d_42">
      <defs>
       <path d="M 0 0 
L -2 0 
" id="m46db944b1c" style="stroke:#000000;stroke-width:0.6;"/>
      </defs>
      <g>
       <use style="stroke:#000000;stroke-width:0.6;" x="106.76" xlink:href="#m46db944b1c" y="79.076871"/>
      </g>
     </g>
    </g>
    <g id="ytick_5">
     <g id="line2d_43">
      <g>
       <use style="stroke:#000000;stroke-width:0.6;" x="23.06" xlink:href="#mfb16fc3935" y="76.390132"/>
      </g>
     </g>
     <g id="line2d_44">
      <g>
       <use style="stroke:#000000;stroke-width:0.6;" x="106.76" xlink:href="#m46db944b1c" y="76.390132"/>
      </g>
     </g>
    </g>
    <g id="ytick_6">
     <g id="line2d_45">
      <g>
       <use style="stroke:#000000;stroke-width:0.6;" x="23.06" xlink:href="#mfb16fc3935" y="74.194905"/>
      </g>
     </g>
     <g id="line2d_46">
      <g>
       <use style="stroke:#000000;stroke-width:0.6;" x="106.76" xlink:href="#m46db944b1c" y="74.194905"/>
      </g>
     </g>
    </g>
    <g id="ytick_7">
     <g id="line2d_47">
      <g>
       <use style="stroke:#000000;stroke-width:0.6;" x="23.06" xlink:href="#mfb16fc3935" y="72.338868"/>
      </g>
     </g>
     <g id="line2d_48">
      <g>
       <use style="stroke:#000000;stroke-width:0.6;" x="106.76" xlink:href="#m46db944b1c" y="72.338868"/>
      </g>
     </g>
    </g>
    <g id="ytick_8">
     <g id="line2d_49">
      <g>
       <use style="stroke:#000000;stroke-width:0.6;" x="23.06" xlink:href="#mfb16fc3935" y="70.731095"/>
      </g>
     </g>
     <g id="line2d_50">
      <g>
       <use style="stroke:#000000;stroke-width:0.6;" x="106.76" xlink:href="#m46db944b1c" y="70.731095"/>
      </g>
     </g>
    </g>
    <g id="ytick_9">
     <g id="line2d_51">
      <g>
       <use style="stroke:#000000;stroke-width:0.6;" x="23.06" xlink:href="#mfb16fc3935" y="69.312939"/>
      </g>
     </g>
     <g id="line2d_52">
      <g>
       <use style="stroke:#000000;stroke-width:0.6;" x="106.76" xlink:href="#m46db944b1c" y="69.312939"/>
      </g>
     </g>
    </g>
    <g id="ytick_10">
     <g id="line2d_53">
      <g>
       <use style="stroke:#000000;stroke-width:0.6;" x="23.06" xlink:href="#mfb16fc3935" y="59.698579"/>
      </g>
     </g>
     <g id="line2d_54">
      <g>
       <use style="stroke:#000000;stroke-width:0.6;" x="106.76" xlink:href="#m46db944b1c" y="59.698579"/>
      </g>
     </g>
    </g>
    <g id="ytick_11">
     <g id="line2d_55">
      <g>
       <use style="stroke:#000000;stroke-width:0.6;" x="23.06" xlink:href="#mfb16fc3935" y="54.816613"/>
      </g>
     </g>
     <g id="line2d_56">
      <g>
       <use style="stroke:#000000;stroke-width:0.6;" x="106.76" xlink:href="#m46db944b1c" y="54.816613"/>
      </g>
     </g>
    </g>
    <g id="ytick_12">
     <g id="line2d_57">
      <g>
       <use style="stroke:#000000;stroke-width:0.6;" x="23.06" xlink:href="#mfb16fc3935" y="51.352803"/>
      </g>
     </g>
     <g id="line2d_58">
      <g>
       <use style="stroke:#000000;stroke-width:0.6;" x="106.76" xlink:href="#m46db944b1c" y="51.352803"/>
      </g>
     </g>
    </g>
    <g id="ytick_13">
     <g id="line2d_59">
      <g>
       <use style="stroke:#000000;stroke-width:0.6;" x="23.06" xlink:href="#mfb16fc3935" y="48.666063"/>
      </g>
     </g>
     <g id="line2d_60">
      <g>
       <use style="stroke:#000000;stroke-width:0.6;" x="106.76" xlink:href="#m46db944b1c" y="48.666063"/>
      </g>
     </g>
    </g>
    <g id="ytick_14">
     <g id="line2d_61">
      <g>
       <use style="stroke:#000000;stroke-width:0.6;" x="23.06" xlink:href="#mfb16fc3935" y="46.470837"/>
      </g>
     </g>
     <g id="line2d_62">
      <g>
       <use style="stroke:#000000;stroke-width:0.6;" x="106.76" xlink:href="#m46db944b1c" y="46.470837"/>
      </g>
     </g>
    </g>
    <g id="ytick_15">
     <g id="line2d_63">
      <g>
       <use style="stroke:#000000;stroke-width:0.6;" x="23.06" xlink:href="#mfb16fc3935" y="44.614799"/>
      </g>
     </g>
     <g id="line2d_64">
      <g>
       <use style="stroke:#000000;stroke-width:0.6;" x="106.76" xlink:href="#m46db944b1c" y="44.614799"/>
      </g>
     </g>
    </g>
    <g id="ytick_16">
     <g id="line2d_65">
      <g>
       <use style="stroke:#000000;stroke-width:0.6;" x="23.06" xlink:href="#mfb16fc3935" y="43.007026"/>
      </g>
     </g>
     <g id="line2d_66">
      <g>
       <use style="stroke:#000000;stroke-width:0.6;" x="106.76" xlink:href="#m46db944b1c" y="43.007026"/>
      </g>
     </g>
    </g>
    <g id="ytick_17">
     <g id="line2d_67">
      <g>
       <use style="stroke:#000000;stroke-width:0.6;" x="23.06" xlink:href="#mfb16fc3935" y="41.58887"/>
      </g>
     </g>
     <g id="line2d_68">
      <g>
       <use style="stroke:#000000;stroke-width:0.6;" x="106.76" xlink:href="#m46db944b1c" y="41.58887"/>
      </g>
     </g>
    </g>
    <g id="ytick_18">
     <g id="line2d_69">
      <g>
       <use style="stroke:#000000;stroke-width:0.6;" x="23.06" xlink:href="#mfb16fc3935" y="31.97451"/>
      </g>
     </g>
     <g id="line2d_70">
      <g>
       <use style="stroke:#000000;stroke-width:0.6;" x="106.76" xlink:href="#m46db944b1c" y="31.97451"/>
      </g>
     </g>
    </g>
    <g id="ytick_19">
     <g id="line2d_71">
      <g>
       <use style="stroke:#000000;stroke-width:0.6;" x="23.06" xlink:href="#mfb16fc3935" y="27.092544"/>
      </g>
     </g>
     <g id="line2d_72">
      <g>
       <use style="stroke:#000000;stroke-width:0.6;" x="106.76" xlink:href="#m46db944b1c" y="27.092544"/>
      </g>
     </g>
    </g>
    <g id="ytick_20">
     <g id="line2d_73">
      <g>
       <use style="stroke:#000000;stroke-width:0.6;" x="23.06" xlink:href="#mfb16fc3935" y="23.628734"/>
      </g>
     </g>
     <g id="line2d_74">
      <g>
       <use style="stroke:#000000;stroke-width:0.6;" x="106.76" xlink:href="#m46db944b1c" y="23.628734"/>
      </g>
     </g>
    </g>
    <g id="ytick_21">
     <g id="line2d_75">
      <g>
       <use style="stroke:#000000;stroke-width:0.6;" x="23.06" xlink:href="#mfb16fc3935" y="20.941994"/>
      </g>
     </g>
     <g id="line2d_76">
      <g>
       <use style="stroke:#000000;stroke-width:0.6;" x="106.76" xlink:href="#m46db944b1c" y="20.941994"/>
      </g>
     </g>
    </g>
    <g id="ytick_22">
     <g id="line2d_77">
      <g>
       <use style="stroke:#000000;stroke-width:0.6;" x="23.06" xlink:href="#mfb16fc3935" y="18.746768"/>
      </g>
     </g>
     <g id="line2d_78">
      <g>
       <use style="stroke:#000000;stroke-width:0.6;" x="106.76" xlink:href="#m46db944b1c" y="18.746768"/>
      </g>
     </g>
    </g>
    <g id="ytick_23">
     <g id="line2d_79">
      <g>
       <use style="stroke:#000000;stroke-width:0.6;" x="23.06" xlink:href="#mfb16fc3935" y="16.890731"/>
      </g>
     </g>
     <g id="line2d_80">
      <g>
       <use style="stroke:#000000;stroke-width:0.6;" x="106.76" xlink:href="#m46db944b1c" y="16.890731"/>
      </g>
     </g>
    </g>
    <g id="ytick_24">
     <g id="line2d_81">
      <g>
       <use style="stroke:#000000;stroke-width:0.6;" x="23.06" xlink:href="#mfb16fc3935" y="15.282958"/>
      </g>
     </g>
     <g id="line2d_82">
      <g>
       <use style="stroke:#000000;stroke-width:0.6;" x="106.76" xlink:href="#m46db944b1c" y="15.282958"/>
      </g>
     </g>
    </g>
    <g id="ytick_25">
     <g id="line2d_83">
      <g>
       <use style="stroke:#000000;stroke-width:0.6;" x="23.06" xlink:href="#mfb16fc3935" y="13.864802"/>
      </g>
     </g>
     <g id="line2d_84">
      <g>
       <use style="stroke:#000000;stroke-width:0.6;" x="106.76" xlink:href="#m46db944b1c" y="13.864802"/>
      </g>
     </g>
    </g>
    <g id="ytick_26">
     <g id="line2d_85">
      <g>
       <use style="stroke:#000000;stroke-width:0.6;" x="23.06" xlink:href="#mfb16fc3935" y="4.250442"/>
      </g>
     </g>
     <g id="line2d_86">
      <g>
       <use style="stroke:#000000;stroke-width:0.6;" x="106.76" xlink:href="#m46db944b1c" y="4.250442"/>
      </g>
     </g>
    </g>
    <g id="text_10">
     <!-- $\it{R_{SD}}$ (Ω) -->
     <defs>
      <path d="M 25.203125 64.796875 
L 20.21875 38.921875 
L 32.90625 38.921875 
Q 40.375 38.921875 44.984375 43.046875 
Q 49.609375 47.171875 49.609375 53.8125 
Q 49.609375 59.125 46.5 61.953125 
Q 43.40625 64.796875 37.59375 64.796875 
z
M 43.3125 35.015625 
Q 46.4375 34.28125 48.515625 31.390625 
Q 50.59375 28.515625 53.328125 19.921875 
L 59.515625 0 
L 49.125 0 
L 43.40625 18.703125 
Q 41.21875 25.921875 38.328125 28.359375 
Q 35.453125 30.8125 29.5 30.8125 
L 18.609375 30.8125 
L 12.59375 0 
L 2.6875 0 
L 16.890625 72.90625 
L 39.109375 72.90625 
Q 49.21875 72.90625 54.609375 68.328125 
Q 60.015625 63.765625 60.015625 55.171875 
Q 60.015625 47.5625 55.421875 41.984375 
Q 50.828125 36.421875 43.3125 35.015625 
z
" id="DejaVuSans-Oblique-82"/>
      <path d="M 60.296875 70.515625 
L 58.40625 60.890625 
Q 53.46875 63.53125 48.609375 64.875 
Q 43.75 66.21875 39.203125 66.21875 
Q 30.375 66.21875 25.140625 62.359375 
Q 19.921875 58.5 19.921875 52.09375 
Q 19.921875 48.578125 21.84375 46.703125 
Q 23.78125 44.828125 31.78125 42.671875 
L 37.703125 41.21875 
Q 47.703125 38.625 51.609375 34.640625 
Q 55.515625 30.671875 55.515625 23.484375 
Q 55.515625 12.453125 46.84375 5.515625 
Q 38.1875 -1.421875 24.03125 -1.421875 
Q 18.21875 -1.421875 12.359375 -0.265625 
Q 6.5 0.875 0.59375 3.21875 
L 2.59375 13.375 
Q 8.015625 10.015625 13.453125 8.296875 
Q 18.890625 6.59375 24.3125 6.59375 
Q 33.546875 6.59375 39.109375 10.6875 
Q 44.671875 14.796875 44.671875 21.390625 
Q 44.671875 25.78125 42.453125 28.046875 
Q 40.234375 30.328125 32.90625 32.171875 
L 27 33.6875 
Q 16.890625 36.328125 13.203125 39.765625 
Q 9.515625 43.21875 9.515625 49.421875 
Q 9.515625 60.296875 17.890625 67.25 
Q 26.265625 74.21875 39.703125 74.21875 
Q 44.921875 74.21875 50.046875 73.28125 
Q 55.171875 72.359375 60.296875 70.515625 
z
" id="DejaVuSans-Oblique-83"/>
      <path d="M 16.890625 72.90625 
L 38.09375 72.90625 
Q 54.984375 72.90625 63.59375 65.75 
Q 72.21875 58.59375 72.21875 44.484375 
Q 72.21875 35.15625 68.9375 26.53125 
Q 65.671875 17.921875 59.90625 12.015625 
Q 54.109375 5.953125 45.171875 2.96875 
Q 36.234375 0 24.03125 0 
L 2.6875 0 
z
M 25.203125 64.796875 
L 14.203125 8.109375 
L 27.09375 8.109375 
Q 43.65625 8.109375 52.734375 17.625 
Q 61.8125 27.15625 61.8125 44.484375 
Q 61.8125 54.984375 55.953125 59.890625 
Q 50.09375 64.796875 37.59375 64.796875 
z
" id="DejaVuSans-Oblique-68"/>
      <path d="M 4.734375 8.453125 
L 20.359375 8.453125 
Q 5.515625 20.84375 5.515625 38.71875 
Q 5.515625 48.4375 9.421875 56.15625 
Q 13.328125 63.875 20.453125 68.328125 
Q 27.59375 72.796875 37.59375 72.796875 
Q 47.515625 72.796875 54.125 68.6875 
Q 60.75 64.59375 65.015625 56.921875 
Q 69.28125 49.265625 69.28125 38.71875 
Q 69.28125 20.84375 54.4375 8.453125 
L 70.0625 8.453125 
L 70.0625 0 
L 42.234375 0 
L 42.234375 7.90625 
Q 59.625 16.015625 59.625 37.25 
Q 59.625 49.21875 53.484375 56.953125 
Q 47.359375 64.703125 37.546875 64.703125 
Q 27.4375 64.703125 21.375 56.90625 
Q 15.328125 49.125 15.328125 37.75 
Q 15.328125 16.21875 32.625 7.90625 
L 32.625 0 
L 4.734375 0 
z
" id="ArialMT-937"/>
     </defs>
     <g transform="translate(7.3 57.77)rotate(-90)scale(0.1 -0.1)">
      <use transform="translate(0 0.09375)" xlink:href="#DejaVuSans-Oblique-82"/>
      <use transform="translate(69.482422 -16.3125)scale(0.7)" xlink:href="#DejaVuSans-Oblique-83"/>
      <use transform="translate(113.916016 -16.3125)scale(0.7)" xlink:href="#DejaVuSans-Oblique-68"/>
      <use transform="translate(170.551758 0.09375)" xlink:href="#ArialMT-32"/>
      <use transform="translate(198.334961 0.09375)" xlink:href="#ArialMT-40"/>
      <use transform="translate(231.635742 0.09375)" xlink:href="#ArialMT-937"/>
      <use transform="translate(306.391602 0.09375)" xlink:href="#ArialMT-41"/>
     </g>
    </g>
   </g>
   <g id="line2d_87">
    <path clip-path="url(#pc3222a691f)" d="M 26.864545 19.746937 
L 28.132727 28.844236 
L 29.400909 33.023613 
L 30.669091 35.447983 
L 31.937273 41.324688 
L 33.205455 44.470886 
L 34.473636 46.667885 
L 35.741818 48.145811 
L 37.01 49.584663 
L 38.278182 50.989869 
L 39.546364 52.687591 
L 40.814545 55.680666 
L 42.082727 55.668773 
L 43.350909 57.058426 
L 44.619091 58.267053 
L 45.887273 59.259082 
L 47.155455 60.396471 
L 48.423636 61.35555 
L 49.691818 62.198809 
L 50.96 62.973969 
L 52.228182 63.599634 
L 53.496364 63.872423 
L 54.764545 65.017191 
L 56.032727 68.068464 
L 57.300909 68.440593 
L 58.569091 69.433263 
L 59.837273 69.788928 
L 61.105455 70.263458 
L 62.373636 71.582567 
L 63.641818 71.532658 
L 64.91 71.588548 
L 66.178182 71.837068 
L 67.446364 72.443025 
L 68.714545 72.845077 
L 69.982727 73.888996 
L 71.250909 74.254443 
L 72.519091 74.686708 
L 73.787273 75.195114 
L 75.055455 75.314096 
L 76.323636 75.43788 
L 77.591818 75.637615 
L 78.86 75.914215 
L 80.128182 76.068456 
L 81.396364 76.266987 
L 82.664545 76.192442 
L 83.932727 76.711531 
L 85.200909 76.412841 
L 86.469091 76.676912 
L 87.737273 77.017361 
L 89.005455 76.987322 
L 90.273636 77.255929 
L 91.541818 77.389378 
L 92.81 77.505321 
L 94.078182 77.323604 
L 95.346364 77.477013 
L 96.614545 77.530691 
L 97.882727 77.583834 
L 99.150909 77.513415 
L 100.419091 77.658428 
L 101.687273 77.833636 
L 102.955455 77.660604 
L 101.687273 73.1656 
L 100.419091 68.828892 
L 99.150909 63.001694 
L 97.882727 60.498026 
L 96.614545 58.03709 
L 95.346364 58.037962 
L 94.078182 54.0283 
L 92.81 51.369294 
L 91.541818 50.709228 
L 90.273636 47.198085 
L 89.005455 45.74797 
L 87.737273 45.05765 
L 86.469091 42.02717 
L 85.200909 40.450572 
L 83.932727 39.874141 
L 82.664545 34.079097 
L 81.396364 33.375542 
L 80.128182 30.969324 
L 78.86 29.850586 
L 77.591818 27.695747 
L 76.323636 28.915676 
L 75.055455 26.319943 
L 73.787273 22.668768 
L 72.519091 25.046 
L 71.250909 23.071801 
L 69.982727 22.044765 
L 68.714545 17.813674 
L 67.446364 21.934141 
L 66.178182 20.828089 
L 64.91 18.7763 
L 63.641818 18.737182 
L 62.373636 19.422397 
L 61.105455 18.655483 
L 59.837273 16.763788 
L 58.569091 17.205607 
L 57.300909 15.425862 
L 56.032727 12.263589 
L 54.764545 15.990913 
L 53.496364 11.20941 
L 52.228182 10.723711 
L 50.96 12.411076 
L 49.691818 13.689228 
L 48.423636 14.232808 
L 47.155455 10.018397 
L 45.887273 10.744539 
L 44.619091 10.516861 
L 43.350909 11.124521 
L 42.082727 13.782805 
L 40.814545 9.946769 
L 39.546364 10.783306 
L 38.278182 9.605158 
L 37.01 11.884265 
L 35.741818 10.27575 
L 34.473636 10.024245 
L 33.205455 7.577454 
L 31.937273 10.996758 
L 30.669091 3.706364 
L 29.400909 5.10229 
L 28.132727 9.637797 
L 26.864545 8.678282 
" style="fill:none;stroke:#377eb8;stroke-linecap:square;stroke-width:1.5;"/>
    <defs>
     <path d="M 0 0.75 
C 0.198902 0.75 0.389685 0.670975 0.53033 0.53033 
C 0.670975 0.389685 0.75 0.198902 0.75 0 
C 0.75 -0.198902 0.670975 -0.389685 0.53033 -0.53033 
C 0.389685 -0.670975 0.198902 -0.75 0 -0.75 
C -0.198902 -0.75 -0.389685 -0.670975 -0.53033 -0.53033 
C -0.670975 -0.389685 -0.75 -0.198902 -0.75 0 
C -0.75 0.198902 -0.670975 0.389685 -0.53033 0.53033 
C -0.389685 0.670975 -0.198902 0.75 0 0.75 
z
" id="mc902fdafab" style="stroke:#377eb8;"/>
    </defs>
    <g clip-path="url(#pc3222a691f)">
     <use style="fill:#377eb8;stroke:#377eb8;" x="26.864545" xlink:href="#mc902fdafab" y="19.746937"/>
     <use style="fill:#377eb8;stroke:#377eb8;" x="28.132727" xlink:href="#mc902fdafab" y="28.844236"/>
     <use style="fill:#377eb8;stroke:#377eb8;" x="29.400909" xlink:href="#mc902fdafab" y="33.023613"/>
     <use style="fill:#377eb8;stroke:#377eb8;" x="30.669091" xlink:href="#mc902fdafab" y="35.447983"/>
     <use style="fill:#377eb8;stroke:#377eb8;" x="31.937273" xlink:href="#mc902fdafab" y="41.324688"/>
     <use style="fill:#377eb8;stroke:#377eb8;" x="33.205455" xlink:href="#mc902fdafab" y="44.470886"/>
     <use style="fill:#377eb8;stroke:#377eb8;" x="34.473636" xlink:href="#mc902fdafab" y="46.667885"/>
     <use style="fill:#377eb8;stroke:#377eb8;" x="35.741818" xlink:href="#mc902fdafab" y="48.145811"/>
     <use style="fill:#377eb8;stroke:#377eb8;" x="37.01" xlink:href="#mc902fdafab" y="49.584663"/>
     <use style="fill:#377eb8;stroke:#377eb8;" x="38.278182" xlink:href="#mc902fdafab" y="50.989869"/>
     <use style="fill:#377eb8;stroke:#377eb8;" x="39.546364" xlink:href="#mc902fdafab" y="52.687591"/>
     <use style="fill:#377eb8;stroke:#377eb8;" x="40.814545" xlink:href="#mc902fdafab" y="55.680666"/>
     <use style="fill:#377eb8;stroke:#377eb8;" x="42.082727" xlink:href="#mc902fdafab" y="55.668773"/>
     <use style="fill:#377eb8;stroke:#377eb8;" x="43.350909" xlink:href="#mc902fdafab" y="57.058426"/>
     <use style="fill:#377eb8;stroke:#377eb8;" x="44.619091" xlink:href="#mc902fdafab" y="58.267053"/>
     <use style="fill:#377eb8;stroke:#377eb8;" x="45.887273" xlink:href="#mc902fdafab" y="59.259082"/>
     <use style="fill:#377eb8;stroke:#377eb8;" x="47.155455" xlink:href="#mc902fdafab" y="60.396471"/>
     <use style="fill:#377eb8;stroke:#377eb8;" x="48.423636" xlink:href="#mc902fdafab" y="61.35555"/>
     <use style="fill:#377eb8;stroke:#377eb8;" x="49.691818" xlink:href="#mc902fdafab" y="62.198809"/>
     <use style="fill:#377eb8;stroke:#377eb8;" x="50.96" xlink:href="#mc902fdafab" y="62.973969"/>
     <use style="fill:#377eb8;stroke:#377eb8;" x="52.228182" xlink:href="#mc902fdafab" y="63.599634"/>
     <use style="fill:#377eb8;stroke:#377eb8;" x="53.496364" xlink:href="#mc902fdafab" y="63.872423"/>
     <use style="fill:#377eb8;stroke:#377eb8;" x="54.764545" xlink:href="#mc902fdafab" y="65.017191"/>
     <use style="fill:#377eb8;stroke:#377eb8;" x="56.032727" xlink:href="#mc902fdafab" y="68.068464"/>
     <use style="fill:#377eb8;stroke:#377eb8;" x="57.300909" xlink:href="#mc902fdafab" y="68.440593"/>
     <use style="fill:#377eb8;stroke:#377eb8;" x="58.569091" xlink:href="#mc902fdafab" y="69.433263"/>
     <use style="fill:#377eb8;stroke:#377eb8;" x="59.837273" xlink:href="#mc902fdafab" y="69.788928"/>
     <use style="fill:#377eb8;stroke:#377eb8;" x="61.105455" xlink:href="#mc902fdafab" y="70.263458"/>
     <use style="fill:#377eb8;stroke:#377eb8;" x="62.373636" xlink:href="#mc902fdafab" y="71.582567"/>
     <use style="fill:#377eb8;stroke:#377eb8;" x="63.641818" xlink:href="#mc902fdafab" y="71.532658"/>
     <use style="fill:#377eb8;stroke:#377eb8;" x="64.91" xlink:href="#mc902fdafab" y="71.588548"/>
     <use style="fill:#377eb8;stroke:#377eb8;" x="66.178182" xlink:href="#mc902fdafab" y="71.837068"/>
     <use style="fill:#377eb8;stroke:#377eb8;" x="67.446364" xlink:href="#mc902fdafab" y="72.443025"/>
     <use style="fill:#377eb8;stroke:#377eb8;" x="68.714545" xlink:href="#mc902fdafab" y="72.845077"/>
     <use style="fill:#377eb8;stroke:#377eb8;" x="69.982727" xlink:href="#mc902fdafab" y="73.888996"/>
     <use style="fill:#377eb8;stroke:#377eb8;" x="71.250909" xlink:href="#mc902fdafab" y="74.254443"/>
     <use style="fill:#377eb8;stroke:#377eb8;" x="72.519091" xlink:href="#mc902fdafab" y="74.686708"/>
     <use style="fill:#377eb8;stroke:#377eb8;" x="73.787273" xlink:href="#mc902fdafab" y="75.195114"/>
     <use style="fill:#377eb8;stroke:#377eb8;" x="75.055455" xlink:href="#mc902fdafab" y="75.314096"/>
     <use style="fill:#377eb8;stroke:#377eb8;" x="76.323636" xlink:href="#mc902fdafab" y="75.43788"/>
     <use style="fill:#377eb8;stroke:#377eb8;" x="77.591818" xlink:href="#mc902fdafab" y="75.637615"/>
     <use style="fill:#377eb8;stroke:#377eb8;" x="78.86" xlink:href="#mc902fdafab" y="75.914215"/>
     <use style="fill:#377eb8;stroke:#377eb8;" x="80.128182" xlink:href="#mc902fdafab" y="76.068456"/>
     <use style="fill:#377eb8;stroke:#377eb8;" x="81.396364" xlink:href="#mc902fdafab" y="76.266987"/>
     <use style="fill:#377eb8;stroke:#377eb8;" x="82.664545" xlink:href="#mc902fdafab" y="76.192442"/>
     <use style="fill:#377eb8;stroke:#377eb8;" x="83.932727" xlink:href="#mc902fdafab" y="76.711531"/>
     <use style="fill:#377eb8;stroke:#377eb8;" x="85.200909" xlink:href="#mc902fdafab" y="76.412841"/>
     <use style="fill:#377eb8;stroke:#377eb8;" x="86.469091" xlink:href="#mc902fdafab" y="76.676912"/>
     <use style="fill:#377eb8;stroke:#377eb8;" x="87.737273" xlink:href="#mc902fdafab" y="77.017361"/>
     <use style="fill:#377eb8;stroke:#377eb8;" x="89.005455" xlink:href="#mc902fdafab" y="76.987322"/>
     <use style="fill:#377eb8;stroke:#377eb8;" x="90.273636" xlink:href="#mc902fdafab" y="77.255929"/>
     <use style="fill:#377eb8;stroke:#377eb8;" x="91.541818" xlink:href="#mc902fdafab" y="77.389378"/>
     <use style="fill:#377eb8;stroke:#377eb8;" x="92.81" xlink:href="#mc902fdafab" y="77.505321"/>
     <use style="fill:#377eb8;stroke:#377eb8;" x="94.078182" xlink:href="#mc902fdafab" y="77.323604"/>
     <use style="fill:#377eb8;stroke:#377eb8;" x="95.346364" xlink:href="#mc902fdafab" y="77.477013"/>
     <use style="fill:#377eb8;stroke:#377eb8;" x="96.614545" xlink:href="#mc902fdafab" y="77.530691"/>
     <use style="fill:#377eb8;stroke:#377eb8;" x="97.882727" xlink:href="#mc902fdafab" y="77.583834"/>
     <use style="fill:#377eb8;stroke:#377eb8;" x="99.150909" xlink:href="#mc902fdafab" y="77.513415"/>
     <use style="fill:#377eb8;stroke:#377eb8;" x="100.419091" xlink:href="#mc902fdafab" y="77.658428"/>
     <use style="fill:#377eb8;stroke:#377eb8;" x="101.687273" xlink:href="#mc902fdafab" y="77.833636"/>
     <use style="fill:#377eb8;stroke:#377eb8;" x="102.955455" xlink:href="#mc902fdafab" y="77.660604"/>
     <use style="fill:#377eb8;stroke:#377eb8;" x="101.687273" xlink:href="#mc902fdafab" y="73.1656"/>
     <use style="fill:#377eb8;stroke:#377eb8;" x="100.419091" xlink:href="#mc902fdafab" y="68.828892"/>
     <use style="fill:#377eb8;stroke:#377eb8;" x="99.150909" xlink:href="#mc902fdafab" y="63.001694"/>
     <use style="fill:#377eb8;stroke:#377eb8;" x="97.882727" xlink:href="#mc902fdafab" y="60.498026"/>
     <use style="fill:#377eb8;stroke:#377eb8;" x="96.614545" xlink:href="#mc902fdafab" y="58.03709"/>
     <use style="fill:#377eb8;stroke:#377eb8;" x="95.346364" xlink:href="#mc902fdafab" y="58.037962"/>
     <use style="fill:#377eb8;stroke:#377eb8;" x="94.078182" xlink:href="#mc902fdafab" y="54.0283"/>
     <use style="fill:#377eb8;stroke:#377eb8;" x="92.81" xlink:href="#mc902fdafab" y="51.369294"/>
     <use style="fill:#377eb8;stroke:#377eb8;" x="91.541818" xlink:href="#mc902fdafab" y="50.709228"/>
     <use style="fill:#377eb8;stroke:#377eb8;" x="90.273636" xlink:href="#mc902fdafab" y="47.198085"/>
     <use style="fill:#377eb8;stroke:#377eb8;" x="89.005455" xlink:href="#mc902fdafab" y="45.74797"/>
     <use style="fill:#377eb8;stroke:#377eb8;" x="87.737273" xlink:href="#mc902fdafab" y="45.05765"/>
     <use style="fill:#377eb8;stroke:#377eb8;" x="86.469091" xlink:href="#mc902fdafab" y="42.02717"/>
     <use style="fill:#377eb8;stroke:#377eb8;" x="85.200909" xlink:href="#mc902fdafab" y="40.450572"/>
     <use style="fill:#377eb8;stroke:#377eb8;" x="83.932727" xlink:href="#mc902fdafab" y="39.874141"/>
     <use style="fill:#377eb8;stroke:#377eb8;" x="82.664545" xlink:href="#mc902fdafab" y="34.079097"/>
     <use style="fill:#377eb8;stroke:#377eb8;" x="81.396364" xlink:href="#mc902fdafab" y="33.375542"/>
     <use style="fill:#377eb8;stroke:#377eb8;" x="80.128182" xlink:href="#mc902fdafab" y="30.969324"/>
     <use style="fill:#377eb8;stroke:#377eb8;" x="78.86" xlink:href="#mc902fdafab" y="29.850586"/>
     <use style="fill:#377eb8;stroke:#377eb8;" x="77.591818" xlink:href="#mc902fdafab" y="27.695747"/>
     <use style="fill:#377eb8;stroke:#377eb8;" x="76.323636" xlink:href="#mc902fdafab" y="28.915676"/>
     <use style="fill:#377eb8;stroke:#377eb8;" x="75.055455" xlink:href="#mc902fdafab" y="26.319943"/>
     <use style="fill:#377eb8;stroke:#377eb8;" x="73.787273" xlink:href="#mc902fdafab" y="22.668768"/>
     <use style="fill:#377eb8;stroke:#377eb8;" x="72.519091" xlink:href="#mc902fdafab" y="25.046"/>
     <use style="fill:#377eb8;stroke:#377eb8;" x="71.250909" xlink:href="#mc902fdafab" y="23.071801"/>
     <use style="fill:#377eb8;stroke:#377eb8;" x="69.982727" xlink:href="#mc902fdafab" y="22.044765"/>
     <use style="fill:#377eb8;stroke:#377eb8;" x="68.714545" xlink:href="#mc902fdafab" y="17.813674"/>
     <use style="fill:#377eb8;stroke:#377eb8;" x="67.446364" xlink:href="#mc902fdafab" y="21.934141"/>
     <use style="fill:#377eb8;stroke:#377eb8;" x="66.178182" xlink:href="#mc902fdafab" y="20.828089"/>
     <use style="fill:#377eb8;stroke:#377eb8;" x="64.91" xlink:href="#mc902fdafab" y="18.7763"/>
     <use style="fill:#377eb8;stroke:#377eb8;" x="63.641818" xlink:href="#mc902fdafab" y="18.737182"/>
     <use style="fill:#377eb8;stroke:#377eb8;" x="62.373636" xlink:href="#mc902fdafab" y="19.422397"/>
     <use style="fill:#377eb8;stroke:#377eb8;" x="61.105455" xlink:href="#mc902fdafab" y="18.655483"/>
     <use style="fill:#377eb8;stroke:#377eb8;" x="59.837273" xlink:href="#mc902fdafab" y="16.763788"/>
     <use style="fill:#377eb8;stroke:#377eb8;" x="58.569091" xlink:href="#mc902fdafab" y="17.205607"/>
     <use style="fill:#377eb8;stroke:#377eb8;" x="57.300909" xlink:href="#mc902fdafab" y="15.425862"/>
     <use style="fill:#377eb8;stroke:#377eb8;" x="56.032727" xlink:href="#mc902fdafab" y="12.263589"/>
     <use style="fill:#377eb8;stroke:#377eb8;" x="54.764545" xlink:href="#mc902fdafab" y="15.990913"/>
     <use style="fill:#377eb8;stroke:#377eb8;" x="53.496364" xlink:href="#mc902fdafab" y="11.20941"/>
     <use style="fill:#377eb8;stroke:#377eb8;" x="52.228182" xlink:href="#mc902fdafab" y="10.723711"/>
     <use style="fill:#377eb8;stroke:#377eb8;" x="50.96" xlink:href="#mc902fdafab" y="12.411076"/>
     <use style="fill:#377eb8;stroke:#377eb8;" x="49.691818" xlink:href="#mc902fdafab" y="13.689228"/>
     <use style="fill:#377eb8;stroke:#377eb8;" x="48.423636" xlink:href="#mc902fdafab" y="14.232808"/>
     <use style="fill:#377eb8;stroke:#377eb8;" x="47.155455" xlink:href="#mc902fdafab" y="10.018397"/>
     <use style="fill:#377eb8;stroke:#377eb8;" x="45.887273" xlink:href="#mc902fdafab" y="10.744539"/>
     <use style="fill:#377eb8;stroke:#377eb8;" x="44.619091" xlink:href="#mc902fdafab" y="10.516861"/>
     <use style="fill:#377eb8;stroke:#377eb8;" x="43.350909" xlink:href="#mc902fdafab" y="11.124521"/>
     <use style="fill:#377eb8;stroke:#377eb8;" x="42.082727" xlink:href="#mc902fdafab" y="13.782805"/>
     <use style="fill:#377eb8;stroke:#377eb8;" x="40.814545" xlink:href="#mc902fdafab" y="9.946769"/>
     <use style="fill:#377eb8;stroke:#377eb8;" x="39.546364" xlink:href="#mc902fdafab" y="10.783306"/>
     <use style="fill:#377eb8;stroke:#377eb8;" x="38.278182" xlink:href="#mc902fdafab" y="9.605158"/>
     <use style="fill:#377eb8;stroke:#377eb8;" x="37.01" xlink:href="#mc902fdafab" y="11.884265"/>
     <use style="fill:#377eb8;stroke:#377eb8;" x="35.741818" xlink:href="#mc902fdafab" y="10.27575"/>
     <use style="fill:#377eb8;stroke:#377eb8;" x="34.473636" xlink:href="#mc902fdafab" y="10.024245"/>
     <use style="fill:#377eb8;stroke:#377eb8;" x="33.205455" xlink:href="#mc902fdafab" y="7.577454"/>
     <use style="fill:#377eb8;stroke:#377eb8;" x="31.937273" xlink:href="#mc902fdafab" y="10.996758"/>
     <use style="fill:#377eb8;stroke:#377eb8;" x="30.669091" xlink:href="#mc902fdafab" y="3.706364"/>
     <use style="fill:#377eb8;stroke:#377eb8;" x="29.400909" xlink:href="#mc902fdafab" y="5.10229"/>
     <use style="fill:#377eb8;stroke:#377eb8;" x="28.132727" xlink:href="#mc902fdafab" y="9.637797"/>
     <use style="fill:#377eb8;stroke:#377eb8;" x="26.864545" xlink:href="#mc902fdafab" y="8.678282"/>
    </g>
   </g>
   <g id="patch_3">
    <path d="M 23.06 81.54 
L 23.06 0 
" style="fill:none;stroke:#000000;stroke-linecap:square;stroke-linejoin:miter;stroke-width:0.8;"/>
   </g>
   <g id="patch_4">
    <path d="M 106.76 81.54 
L 106.76 0 
" style="fill:none;stroke:#000000;stroke-linecap:square;stroke-linejoin:miter;stroke-width:0.8;"/>
   </g>
   <g id="patch_5">
    <path d="M 23.06 81.54 
L 106.76 81.54 
" style="fill:none;stroke:#000000;stroke-linecap:square;stroke-linejoin:miter;stroke-width:0.8;"/>
   </g>
   <g id="patch_6">
    <path d="M 23.06 0 
L 106.76 0 
" style="fill:none;stroke:#000000;stroke-linecap:square;stroke-linejoin:miter;stroke-width:0.8;"/>
   </g>
  </g>
 </g>
 <defs>
  <clipPath id="pc3222a691f">
   <rect height="81.54" width="83.7" x="23.06" y="0"/>
  </clipPath>
 </defs>
</svg>
